<svg width="378" height="299" viewBox="0 0 378 299" fill="none" xmlns="http://www.w3.org/2000/svg">
<path fill-rule="evenodd" clip-rule="evenodd" d="M138.703 66L10.7033 140.5L145.703 219.261C158.346 205.674 191 190.919 271.703 144.5L138.703 66ZM106.703 99.5L118.703 92.5L148.703 110.5L138.703 118L106.703 99.5ZM145.703 122L157.703 115L187.703 133L177.703 140.5L145.703 122ZM185.203 145.5L197.203 138.5L227.203 156.5L217.203 164L185.203 145.5ZM88.7032 109.5L100.703 102.5L130.703 120.5L120.703 128L88.7032 109.5ZM127.703 132L139.703 125L169.703 143L159.703 150.5L127.703 132ZM167.203 155.5L179.203 148.5L209.203 166.5L199.203 174L167.203 155.5ZM71.2032 120.5L83.2032 113.5L113.203 131.5L103.203 139L71.2032 120.5ZM110.203 143L122.203 136L152.203 154L142.203 161.5L110.203 143ZM149.703 166.5L161.703 159.5L191.703 177.5L181.703 185L149.703 166.5ZM53.2032 130.5L65.2032 123.5L95.2032 141.5L85.2033 149L53.2032 130.5ZM92.2032 153L104.203 146L134.203 164L124.203 171.5L92.2032 153ZM131.703 176.5L143.703 169.5L173.703 187.5L163.703 195L131.703 176.5ZM35.7032 141L47.7032 134L77.7032 152L67.7033 159.5L35.7032 141ZM74.7032 163.5L86.7032 156.5L116.703 174.5L106.703 182L74.7032 163.5ZM114.203 187L126.203 180L156.203 198L146.203 205.5L114.203 187ZM128.703 87C131.037 85.3333 136.003 81.9 137.203 81.5L159.703 95L151.203 100.5L128.703 87ZM157.703 104C160.037 102.333 165.003 98.9 166.203 98.5L188.703 112L180.203 117.5L157.703 104ZM186.703 120.5C189.037 118.833 194.003 115.4 195.203 115L217.703 128.5L209.203 134L186.703 120.5ZM216.203 138C218.537 136.333 223.503 132.9 224.703 132.5L247.203 146L238.703 151.5L216.203 138Z" fill="#F2F2F2"/>
<path fill-rule="evenodd" clip-rule="evenodd" d="M198.203 9L138.703 66L271.703 144.5L297.703 120.387L333.703 87L198.203 9ZM156.203 72L212.203 20.5L319.703 84L264.203 136L156.203 72Z" fill="white"/>
<path fill-rule="evenodd" clip-rule="evenodd" d="M212.203 20.5L156.203 72L264.203 136L319.703 84L212.203 20.5ZM174.703 70L218.203 30.5L306.703 82L263.203 123L174.703 70Z" fill="#757577"/>
<path d="M218.203 30.5L174.703 70L263.203 123L306.703 82L218.203 30.5Z" fill="#C3CAA8"/>
<path fill-rule="evenodd" clip-rule="evenodd" d="M128.703 87C131.037 85.3333 136.003 81.9 137.203 81.5L159.703 95L151.203 100.5L128.703 87Z" fill="#4D4D4D"/>
<path fill-rule="evenodd" clip-rule="evenodd" d="M166.203 98.5C165.003 98.9 160.037 102.333 157.703 104L180.203 117.5L188.703 112L166.203 98.5Z" fill="#4D4D4D"/>
<path fill-rule="evenodd" clip-rule="evenodd" d="M195.203 115C194.003 115.4 189.037 118.833 186.703 120.5L209.203 134L217.703 128.5L195.203 115Z" fill="#4D4D4D"/>
<path fill-rule="evenodd" clip-rule="evenodd" d="M224.703 132.5C223.503 132.9 218.537 136.333 216.203 138L238.703 151.5L247.203 146L224.703 132.5Z" fill="#4D4D4D"/>
<path fill-rule="evenodd" clip-rule="evenodd" d="M197.203 138.5L185.203 145.5L217.203 164L227.203 156.5L197.203 138.5Z" fill="#4D4D4D"/>
<path fill-rule="evenodd" clip-rule="evenodd" d="M157.703 115L145.703 122L177.703 140.5L187.703 133L157.703 115Z" fill="#4D4D4D"/>
<path fill-rule="evenodd" clip-rule="evenodd" d="M118.703 92.5L106.703 99.5L138.703 118L148.703 110.5L118.703 92.5Z" fill="#4D4D4D"/>
<path fill-rule="evenodd" clip-rule="evenodd" d="M100.703 102.5L88.7032 109.5L120.703 128L130.703 120.5L100.703 102.5Z" fill="#4D4D4D"/>
<path fill-rule="evenodd" clip-rule="evenodd" d="M139.703 125L127.703 132L159.703 150.5L169.703 143L139.703 125Z" fill="#4D4D4D"/>
<path fill-rule="evenodd" clip-rule="evenodd" d="M179.203 148.5L167.203 155.5L199.203 174L209.203 166.5L179.203 148.5Z" fill="#4D4D4D"/>
<path fill-rule="evenodd" clip-rule="evenodd" d="M161.703 159.5L149.703 166.5L181.703 185L191.703 177.5L161.703 159.5Z" fill="#4D4D4D"/>
<path fill-rule="evenodd" clip-rule="evenodd" d="M122.203 136L110.203 143L142.203 161.5L152.203 154L122.203 136Z" fill="#4D4D4D"/>
<path fill-rule="evenodd" clip-rule="evenodd" d="M104.203 146L92.2032 153L124.203 171.5L134.203 164L104.203 146Z" fill="#4D4D4D"/>
<path fill-rule="evenodd" clip-rule="evenodd" d="M143.703 169.5L131.703 176.5L163.703 195L173.703 187.5L143.703 169.5Z" fill="#4D4D4D"/>
<path fill-rule="evenodd" clip-rule="evenodd" d="M65.2032 123.5L53.2032 130.5L85.2033 149L95.2032 141.5L65.2032 123.5Z" fill="#4D4D4D"/>
<path fill-rule="evenodd" clip-rule="evenodd" d="M83.2032 113.5L71.2032 120.5L103.203 139L113.203 131.5L83.2032 113.5Z" fill="#4D4D4D"/>
<path d="M35.7032 141L47.7032 134L77.7032 152L67.7033 159.5L35.7032 141Z" fill="#C85153"/>
<path d="M74.7032 163.5L86.7032 156.5L116.703 174.5L106.703 182L74.7032 163.5Z" fill="#F2D55F"/>
<path d="M114.203 187L126.203 180L156.203 198L146.203 205.5L114.203 187Z" fill="#6DA5A4"/>
<path d="M198.203 9L333.703 87L346.703 77.5L212.203 0L198.203 9Z" fill="#F7F7F7"/>
<path d="M333.703 87L297.703 120.387L346.703 95V77.5L333.703 87Z" fill="#E5E7E4"/>
<path d="M316.703 130.5L362.703 104.5L355.703 100.344L310.203 127.5L285.703 168.5L169.203 236.5C162.051 241.663 159.608 245.273 159.203 253.5L157.203 287.381L163.703 291.157L164.703 257C166.45 248.143 168.694 244.33 175.203 240L293.203 171.5L316.703 130.5Z" fill="#3F3F3F"/>
<path d="M346.703 95L297.703 120.387L310.203 127.5L355.703 100.344L346.703 95Z" fill="#5A5A5A"/>
<path d="M362.703 104.5L316.703 130.5L327.203 138L374.174 111L362.703 104.5Z" fill="#5A5A5A"/>
<path d="M177.203 299L377.703 183V113L374.174 111L327.203 138L304.203 179.5L187.203 246.5C181.338 251.168 179.21 254.825 177.203 263V299Z" fill="#3F3F3F"/>
<path d="M297.703 120.387L274.703 161.5L285.703 168.5L310.203 127.5L297.703 120.387Z" fill="#4D4D4D"/>
<path d="M285.703 168.5L274.703 161.5C207.958 203.858 173.751 218.207 158.074 229L169.203 236.5L285.703 168.5Z" fill="#5A5A5A"/>
<path d="M271.703 144.5C191 190.919 158.346 205.674 145.703 219.261C137.51 228.065 137.72 236.378 138.703 252.5L146.703 248C146.345 239.94 149.323 235.024 158.074 229C173.751 218.207 207.958 203.858 274.703 161.5L297.703 120.387L271.703 144.5Z" fill="#E5E7E4"/>
<path d="M304.203 179.5L293.203 171.5L175.203 240L187.203 246.5L304.203 179.5Z" fill="#5A5A5A"/>
<path d="M158.074 229C149.323 235.024 146.345 239.94 146.703 248L159.203 253.5C159.608 245.273 162.051 241.663 169.203 236.5L158.074 229Z" fill="#5D5D5D"/>
<path d="M187.203 246.5L175.203 240C168.694 244.33 166.45 248.143 164.703 257L177.203 263C179.21 254.825 181.338 251.168 187.203 246.5Z" fill="#5B5B5B"/>
<path d="M146.703 248V281.281L157.203 287.381L159.203 253.5L146.703 248Z" fill="#3B3B3B"/>
<path d="M177.203 263L164.703 257L163.703 291.157L177.203 299V263Z" fill="#3B3B3B"/>
<path d="M138.703 252.5L2.70326 175L19.7032 207.5L146.703 281.281V248L138.703 252.5Z" fill="#393939"/>
<path d="M104.203 217.5V224.5L39.7032 188V181.5L104.203 217.5Z" fill="#6F6F72"/>
<path d="M327.203 138L316.703 130.5L293.203 171.5L304.203 179.5L327.203 138Z" fill="#4D4D4D"/>
<path fill-rule="evenodd" clip-rule="evenodd" d="M145.703 219.261L10.7033 140.5C2.58576 144.029 2.04116 153.985 2.70326 175L138.703 252.5C137.72 236.378 137.51 228.065 145.703 219.261ZM104.203 224.5V217.5L39.7032 181.5V188L104.203 224.5Z" fill="white"/>
<path d="M0 231.5C13.7518 212.295 22.5269 202.556 51.3491 188L101.5 215.991C76.9487 229.083 67.8876 239.114 54.5 258L0 231.5Z" fill="#F2F2F2"/>
</svg>
