<svg width="421" height="293" viewBox="0 0 421 293" fill="none" xmlns="http://www.w3.org/2000/svg">
<path d="M420 79L137.5 244V271.5L420 109V79Z" fill="#2C333B"/>
<path fill-rule="evenodd" clip-rule="evenodd" d="M284 0L0 165L137.5 244L420 79L284 0ZM299.5 32L305 29L368.5 66L362.5 70L299.5 32ZM300.5 52L310 46L338 63L328.5 69L300.5 52ZM47.5 144.5L249 29L368.5 99L168 215L47.5 144.5Z" fill="#5F7281"/>
<path d="M305 29L299.5 32L362.5 70L368.5 66L305 29Z" fill="#3B4A51"/>
<path fill-rule="evenodd" clip-rule="evenodd" d="M168 167.5L139 183.5L168 200L196.5 183.5L168 167.5ZM168 188.5C171.314 188.5 174 186.709 174 184.5C174 182.291 171.314 180.5 168 180.5C164.686 180.5 162 182.291 162 184.5C162 186.709 164.686 188.5 168 188.5Z" fill="#7FEA5C"/>
<path fill-rule="evenodd" clip-rule="evenodd" d="M134 110L105 126L134 142.5L162.5 126L134 110ZM134 130.5C137.314 130.5 140 128.709 140 126.5C140 124.291 137.314 122.5 134 122.5C130.686 122.5 128 124.291 128 126.5C128 128.709 130.686 130.5 134 130.5Z" fill="#7FEA5C"/>
<path fill-rule="evenodd" clip-rule="evenodd" d="M256 99L299.5 73L342.5 99L299.5 124.5L256 99ZM288.5 89.5L284 92.5L308.5 107.5L313 104L288.5 89.5Z" fill="#7FEA5C"/>
<path fill-rule="evenodd" clip-rule="evenodd" d="M249 29L47.5 144.5L168 215L368.5 99L249 29ZM59 144.5L249 35L357.5 99L168 208L59 144.5Z" fill="#3B4952"/>
<path d="M137.5 271.5L0 193V213L137.5 292.5V271.5Z" fill="#B0B1F4"/>
<path fill-rule="evenodd" clip-rule="evenodd" d="M420 109L137.5 271.5V292.5L311.5 191.38L328.5 181.5C331.779 199.365 338.766 209.15 347.5 212.758C377.388 225.102 427.739 165.105 420 109ZM225 236V227.5L259 208V217L225 236ZM286.5 193L269.5 202V210.5L286.5 202V193Z" fill="#8A89C2"/>
<path d="M269.5 202L286.5 193V202L269.5 210.5V202Z" fill="#B0B1F4"/>
<path d="M328.5 181.5L311.5 191.38C326.17 203.055 333.948 207.179 347.5 212.758C338.766 209.15 331.779 199.365 328.5 181.5Z" fill="#B0B1F4"/>
<path d="M310 46L300.5 52L328.5 69L338 63L310 46Z" fill="#D8DAFF"/>
<path fill-rule="evenodd" clip-rule="evenodd" d="M266 112L237 128L266 144.5L294.5 128L266 112ZM266 130.5C269.314 130.5 272 128.709 272 126.5C272 124.291 269.314 122.5 266 122.5C262.686 122.5 260 124.291 260 126.5C260 128.709 262.686 130.5 266 130.5Z" fill="#ED4B57"/>
<path fill-rule="evenodd" clip-rule="evenodd" d="M199.5 73L170.5 89L199.5 105.5L228 89L199.5 73ZM199.5 93C202.814 93 205.5 91.2091 205.5 89C205.5 86.7909 202.814 85 199.5 85C196.186 85 193.5 86.7909 193.5 89C193.5 91.2091 196.186 93 199.5 93Z" fill="#ED4B57"/>
<path fill-rule="evenodd" clip-rule="evenodd" d="M233.5 130.5L204.5 146.5L233.5 163L262 146.5L233.5 130.5ZM233.5 150.5C236.814 150.5 239.5 148.709 239.5 146.5C239.5 144.291 236.814 142.5 233.5 142.5C230.186 142.5 227.5 144.291 227.5 146.5C227.5 148.709 230.186 150.5 233.5 150.5Z" fill="#ED4B57"/>
<path fill-rule="evenodd" clip-rule="evenodd" d="M232 92L203 108L232 124.5L260.5 108L232 92ZM232 112C235.314 112 238 110.209 238 108C238 105.791 235.314 104 232 104C228.686 104 226 105.791 226 108C226 110.209 228.686 112 232 112Z" fill="#ED4B57"/>
<path d="M173 146.5C173 148.709 170.314 150.5 167 150.5C163.686 150.5 161 148.709 161 146.5C161 144.291 163.686 142.5 167 142.5C170.314 142.5 173 144.291 173 146.5Z" fill="white"/>
<path d="M205.5 126.5C205.5 128.709 202.814 130.5 199.5 130.5C196.186 130.5 193.5 128.709 193.5 126.5C193.5 124.291 196.186 122.5 199.5 122.5C202.814 122.5 205.5 124.291 205.5 126.5Z" fill="white"/>
<path d="M140 126.5C140 128.709 137.314 130.5 134 130.5C130.686 130.5 128 128.709 128 126.5C128 124.291 130.686 122.5 134 122.5C137.314 122.5 140 124.291 140 126.5Z" fill="white"/>
<path d="M173 108C173 110.209 170.314 112 167 112C163.686 112 161 110.209 161 108C161 105.791 163.686 104 167 104C170.314 104 173 105.791 173 108Z" fill="white"/>
<path d="M205.5 89C205.5 91.2091 202.814 93 199.5 93C196.186 93 193.5 91.2091 193.5 89C193.5 86.7909 196.186 85 199.5 85C202.814 85 205.5 86.7909 205.5 89Z" fill="white"/>
<path d="M238 108C238 110.209 235.314 112 232 112C228.686 112 226 110.209 226 108C226 105.791 228.686 104 232 104C235.314 104 238 105.791 238 108Z" fill="white"/>
<path d="M239.5 146.5C239.5 148.709 236.814 150.5 233.5 150.5C230.186 150.5 227.5 148.709 227.5 146.5C227.5 144.291 230.186 142.5 233.5 142.5C236.814 142.5 239.5 144.291 239.5 146.5Z" fill="white"/>
<path d="M272 126.5C272 128.709 269.314 130.5 266 130.5C262.686 130.5 260 128.709 260 126.5C260 124.291 262.686 122.5 266 122.5C269.314 122.5 272 124.291 272 126.5Z" fill="white"/>
<path d="M168 188.5C171.314 188.5 174 186.709 174 184.5C174 182.291 171.314 180.5 168 180.5C164.686 180.5 162 182.291 162 184.5C162 186.709 164.686 188.5 168 188.5Z" fill="white"/>
<path d="M201 169.5C204.314 169.5 207 167.709 207 165.5C207 163.291 204.314 161.5 201 161.5C197.686 161.5 195 163.291 195 165.5C195 167.709 197.686 169.5 201 169.5Z" fill="white"/>
<path fill-rule="evenodd" clip-rule="evenodd" d="M167 129L138 145L167 161.5L195.5 145L167 129ZM167 150.5C170.314 150.5 173 148.709 173 146.5C173 144.291 170.314 142.5 167 142.5C163.686 142.5 161 144.291 161 146.5C161 148.709 163.686 150.5 167 150.5Z" fill="#69C2FA"/>
<path fill-rule="evenodd" clip-rule="evenodd" d="M138 108L167 92L195.5 108L167 124.5L138 108ZM173 108C173 110.209 170.314 112 167 112C163.686 112 161 110.209 161 108C161 105.791 163.686 104 167 104C170.314 104 173 105.791 173 108Z" fill="#69C2FA"/>
<path fill-rule="evenodd" clip-rule="evenodd" d="M170.5 126.5L199.5 110.5L228 126.5L199.5 143L170.5 126.5ZM205.5 126.5C205.5 128.709 202.814 130.5 199.5 130.5C196.186 130.5 193.5 128.709 193.5 126.5C193.5 124.291 196.186 122.5 199.5 122.5C202.814 122.5 205.5 124.291 205.5 126.5Z" fill="#69C2FA"/>
<path fill-rule="evenodd" clip-rule="evenodd" d="M201 149L172 165L201 181.5L229.5 165L201 149ZM201 169.5C204.314 169.5 207 167.709 207 165.5C207 163.291 204.314 161.5 201 161.5C197.686 161.5 195 163.291 195 165.5C195 167.709 197.686 169.5 201 169.5Z" fill="#69C2FA"/>
<path d="M137.5 271.5V244L0 165V193L137.5 271.5Z" fill="#3B4A51"/>
<path d="M249 43L204 69L249 95.5L292.5 69L249 43Z" fill="#69C2FA"/>
<path fill-rule="evenodd" clip-rule="evenodd" d="M59 144.5L249 35L357.5 99L168 208L59 144.5ZM139 183.5L168 167.5L196.5 183.5L168 200L139 183.5ZM105 126L134 110L162.5 126L134 142.5L105 126ZM256 99L299.5 73L342.5 99L299.5 124.5L256 99ZM237 128L266 112L294.5 128L266 144.5L237 128ZM170.5 89L199.5 73L228 89L199.5 105.5L170.5 89ZM204.5 146.5L233.5 130.5L262 146.5L233.5 163L204.5 146.5ZM203 108L232 92L260.5 108L232 124.5L203 108ZM138 145L167 129L195.5 145L167 161.5L138 145ZM167 92L138 108L167 124.5L195.5 108L167 92ZM199.5 110.5L170.5 126.5L199.5 143L228 126.5L199.5 110.5ZM172 165L201 149L229.5 165L201 181.5L172 165ZM204 69L249 43L292.5 69L249 95.5L204 69Z" fill="white"/>
<path d="M237 65.5L241.5 62.5L258 72.5L253 75.5L237 65.5Z" fill="#FEFFFE"/>
<path d="M284 92.5L288.5 89.5L313 104L308.5 107.5L284 92.5Z" fill="#FEFFFE"/>
<path d="M225 236V227.5L259 208V217L225 236Z" fill="#B0B1F4"/>
</svg>
