<svg width="350" height="285" viewBox="0 0 350 285" fill="none" xmlns="http://www.w3.org/2000/svg">
<path fill-rule="evenodd" clip-rule="evenodd" d="M11.5 180.617L216.5 62.6166L231.1 55.538C232.289 54.9614 233.686 55.0094 234.833 55.6661L245.816 61.9557L213.358 79.8816C210.709 81.3443 210.581 85.1041 213.123 86.7443L282.977 131.811C284.221 132.614 285.808 132.664 287.101 131.939L328 109.018L350 121.617L126.971 250.973C125.749 251.682 124.244 251.694 123.011 251.004L11.5 188.617V180.617ZM185.044 94.8998C183.787 94.1106 182.196 94.0824 180.912 94.8266L135.354 121.225C132.722 122.75 132.688 126.539 135.293 128.111L221.867 180.33C223.173 181.118 224.813 181.094 226.096 180.269L267.704 153.521C270.169 151.937 270.149 148.327 267.667 146.769L185.044 94.8998ZM93.8468 147.971C91.3613 146.412 91.3451 142.796 93.8165 141.214L98.9118 137.953C100.191 137.134 101.824 137.111 103.126 137.892L120.899 148.556C123.335 150.018 123.514 153.481 121.241 155.186L116.198 158.968C114.874 159.961 113.075 160.036 111.672 159.156L93.8468 147.971ZM131.479 169.447C128.951 167.91 128.909 164.255 131.401 162.66L136.412 159.453C137.691 158.634 139.324 158.611 140.626 159.392L158.246 169.964C160.722 171.45 160.856 174.989 158.5 176.658L153.644 180.098C152.343 181.02 150.618 181.08 149.255 180.252L131.479 169.447ZM72.817 161.576C70.2909 159.991 70.325 156.298 72.88 154.76L78.5346 151.356C79.802 150.593 81.387 150.592 82.6555 151.353L100.322 161.953C102.803 163.442 102.932 166.99 100.566 168.655L94.9794 172.586C93.6617 173.513 91.9163 173.559 90.5515 172.703L72.817 161.576ZM60.2865 163.932C58.9496 163.13 57.2685 163.178 55.9793 164.055L50.6562 167.674C48.2697 169.297 48.3349 172.836 50.7796 174.37L68.7007 185.615C70.1354 186.515 71.9815 186.414 73.3095 185.363L78.5589 181.207C80.7512 179.471 80.5317 176.079 78.134 174.641L60.2865 163.932Z" fill="#4C4F5E"/>
<path fill-rule="evenodd" clip-rule="evenodd" d="M123.011 251.004C124.244 251.694 125.749 251.682 126.971 250.973L350 121.617V154.79C350 156.228 349.228 157.556 347.978 158.267L127.007 283.975C125.765 284.681 124.24 284.672 123.007 283.949L11.5 218.617V188.617L123.011 251.004Z" fill="#5D6073"/>
<path fill-rule="evenodd" clip-rule="evenodd" d="M0 172.617L200.506 55.7788C201.74 55.0596 203.264 55.0531 204.504 55.7618L216.5 62.6166L11.5 180.617L0 172.617Z" fill="#1E202C"/>
<path fill-rule="evenodd" clip-rule="evenodd" d="M11.5 180.617V188.617V218.617L2.03177 213.265C0.776296 212.555 0 211.225 0 209.783V172.617L11.5 180.617Z" fill="#747788"/>
<path d="M168.897 191.963C166.395 190.411 166.369 186.781 168.848 185.194L173.912 181.953C175.191 181.134 176.824 181.111 178.126 181.892L195.635 192.397C198.139 193.9 198.241 197.493 195.826 199.135L190.649 202.656C189.342 203.544 187.635 203.58 186.292 202.747L168.897 191.963Z" fill="#8B8FAC"/>
<path d="M109.48 182.447C106.951 180.91 106.909 177.255 109.401 175.66L114.412 172.453C115.691 171.634 117.324 171.611 118.626 172.392L136.246 182.964C138.722 184.45 138.857 187.989 136.5 189.658L131.645 193.098C130.343 194.02 128.618 194.08 127.255 193.252L109.48 182.447Z" fill="#8B8FAC"/>
<path d="M146.897 204.002C144.395 202.451 144.369 198.82 146.849 197.234L151.912 193.993C153.191 193.174 154.824 193.151 156.126 193.932L173.635 204.437C176.139 205.94 176.241 209.533 173.826 211.175L168.649 214.695C167.342 215.584 165.635 215.62 164.292 214.787L146.897 204.002Z" fill="#8B8FAC"/>
<path d="M86.9795 194.947C84.451 193.41 84.4086 189.755 86.9009 188.16L91.9118 184.953C93.1911 184.134 94.8237 184.111 96.126 184.892L113.746 195.464C116.222 196.95 116.356 200.489 114 202.158L109.144 205.598C107.843 206.52 106.118 206.58 104.755 205.752L86.9795 194.947Z" fill="#8B8FAC"/>
<path d="M125.397 216.963C122.895 215.411 122.869 211.781 125.349 210.194L130.412 206.953C131.691 206.134 133.324 206.111 134.626 206.892L152.135 217.397C154.639 218.9 154.741 222.493 152.326 224.135L147.149 227.656C145.842 228.544 144.135 228.58 142.792 227.747L125.397 216.963Z" fill="#8B8FAC"/>
<path fill-rule="evenodd" clip-rule="evenodd" d="M328 109.018L287.101 131.939C285.808 132.664 284.221 132.614 282.977 131.811L213.123 86.7443C210.581 85.1041 210.709 81.3443 213.358 79.8816L245.816 61.9557L328 109.018Z" fill="#64677A"/>
<path fill-rule="evenodd" clip-rule="evenodd" d="M135.293 128.111C132.688 126.539 132.722 122.75 135.354 121.225L180.912 94.8266C182.196 94.0824 183.787 94.1106 185.044 94.8998L267.667 146.769C270.149 148.327 270.169 151.937 267.704 153.521L226.096 180.269C224.813 181.094 223.173 181.118 221.867 180.33L135.293 128.111Z" fill="#E0E9E4"/>
<path fill-rule="evenodd" clip-rule="evenodd" d="M93.8468 147.971C91.3613 146.412 91.3451 142.796 93.8165 141.214L98.9118 137.953C100.191 137.134 101.824 137.111 103.126 137.892L120.899 148.556C123.335 150.018 123.514 153.481 121.241 155.186L116.198 158.968C114.874 159.961 113.075 160.036 111.672 159.156L93.8468 147.971Z" fill="#8B8FAC"/>
<path d="M140.626 159.392C139.324 158.611 137.691 158.634 136.412 159.453L131.401 162.66C128.909 164.255 128.951 167.91 131.479 169.447L149.255 180.252C150.618 181.08 152.343 181.02 153.644 180.098L158.5 176.658C160.856 174.989 160.722 171.45 158.246 169.964L140.626 159.392Z" fill="#8B8FAC"/>
<path fill-rule="evenodd" clip-rule="evenodd" d="M72.817 161.576C70.2909 159.991 70.325 156.298 72.88 154.76L78.5346 151.356C79.802 150.593 81.387 150.592 82.6555 151.353L100.322 161.953C102.803 163.442 102.932 166.99 100.566 168.655L94.9794 172.586C93.6617 173.513 91.9163 173.559 90.5515 172.703L72.817 161.576Z" fill="#8B8FAC"/>
<path fill-rule="evenodd" clip-rule="evenodd" d="M50.7796 174.37C48.3349 172.836 48.2697 169.297 50.6562 167.674L55.9793 164.055C57.2685 163.178 58.9496 163.13 60.2865 163.932L78.134 174.641C80.5317 176.079 80.7512 179.471 78.5589 181.207L73.3095 185.363C71.9815 186.414 70.1354 186.515 68.7007 185.615L50.7796 174.37Z" fill="#8B8FAC"/>
<g filter="url(#filter0_i_1001_163)">
<path d="M186.131 0.26953L32.0018 89.0399C31.382 89.3969 31 90.0577 31 90.773V165.661C31 167.199 32.663 168.161 33.9963 167.395L190.951 77.2194C191.596 76.8489 191.982 76.1514 191.954 75.4083L189.127 1.92577C189.069 0.422188 187.434 -0.481446 186.131 0.26953Z" fill="#1595DF"/>
</g>
<defs>
<filter id="filter0_i_1001_163" x="31" y="0" width="164.955" height="171.664" filterUnits="userSpaceOnUse" color-interpolation-filters="sRGB">
<feFlood flood-opacity="0" result="BackgroundImageFix"/>
<feBlend mode="normal" in="SourceGraphic" in2="BackgroundImageFix" result="shape"/>
<feColorMatrix in="SourceAlpha" type="matrix" values="0 0 0 0 0 0 0 0 0 0 0 0 0 0 0 0 0 0 127 0" result="hardAlpha"/>
<feOffset dx="4" dy="4"/>
<feGaussianBlur stdDeviation="2"/>
<feComposite in2="hardAlpha" operator="arithmetic" k2="-1" k3="1"/>
<feColorMatrix type="matrix" values="0 0 0 0 0 0 0 0 0 0.462745 0 0 0 0 0.764706 0 0 0 1 0"/>
<feBlend mode="normal" in2="shape" result="effect1_innerShadow_1001_163"/>
</filter>
</defs>
</svg>
