<svg width="969" height="433" viewBox="0 0 969 433" fill="none" xmlns="http://www.w3.org/2000/svg">
<g filter="url(#filter0_d_1001_149)">
<path d="M929.941 221.49H39.4413C3.94191 355.99 -30.058 412.49 70.9413 418.49H870.941C982.942 418.49 982.942 404.99 929.941 221.49Z" fill="#FE7C3E"/>
<path d="M257.441 34.4902L39.4413 221.49H929.941L708.441 34.4902H257.441Z" fill="#FFBF41"/>
</g>
<path d="M484 245.99C525.774 245.99 559.5 278.076 559.5 317.49C559.5 356.904 525.774 388.99 484 388.99C442.226 388.99 408.5 356.904 408.5 317.49C408.5 278.076 442.226 245.99 484 245.99ZM546 317.49C546 348.857 518.36 374.49 484 374.49C449.64 374.49 422 348.857 422 317.49C422 286.123 449.64 260.49 484 260.49C518.36 260.49 546 286.123 546 317.49ZM549 317.49C549 284.24 519.78 257.49 484 257.49C448.22 257.49 419 284.24 419 317.49C419 350.741 448.22 377.49 484 377.49C519.78 377.49 549 350.741 549 317.49Z" fill="#C3CED4" stroke="#838E94" stroke-width="3"/>
<path d="M690 75.4902C690 79.4162 688.862 83.2595 686.683 86.9902C680.532 97.5239 666.081 107.16 645.513 115.22C607.779 130.006 549.455 139.49 484 139.49C418.545 139.49 360.221 130.006 322.487 115.22C301.919 107.16 287.468 97.5239 281.317 86.9902C279.138 83.2595 278 79.4162 278 75.4902C278 40.144 370.229 11.4902 484 11.4902C597.771 11.4902 690 40.144 690 75.4902Z" fill="#D0D7DF"/>
<path fill-rule="evenodd" clip-rule="evenodd" d="M686.683 86.9902C680.532 97.5239 666.081 107.16 645.513 115.22C607.779 130.006 549.455 139.49 484 139.49C418.545 139.49 360.221 130.006 322.487 115.22C301.919 107.16 287.468 97.5239 281.317 86.9902C298.754 57.1323 382.866 34.4902 484 34.4902C585.134 34.4902 669.246 57.1323 686.683 86.9902Z" fill="#D0D7DF"/>
<path d="M484 162.49C416.591 162.49 356.744 152.431 319.163 136.881C332.047 161.61 400.943 180.49 484 180.49C567.057 180.49 635.952 161.61 648.837 136.881C611.255 152.432 551.409 162.49 484 162.49Z" fill="#404549"/>
<path fill-rule="evenodd" clip-rule="evenodd" d="M281.317 86.9902C287.468 97.5239 301.919 107.16 322.487 115.22C318.907 119.456 317 123.904 317 128.49C317 131.347 317.74 134.15 319.163 136.881C293.315 126.186 278 112.894 278 98.4902C278 94.5643 279.138 90.7209 281.317 86.9902Z" fill="#777C81"/>
<path fill-rule="evenodd" clip-rule="evenodd" d="M645.513 115.22C666.081 107.16 680.532 97.5239 686.683 86.9902L686.723 87.0584L686.778 87.1532C688.892 90.8303 690 94.6242 690 98.4902C690 112.894 674.685 126.187 648.837 136.881C650.26 134.15 651 131.347 651 128.49C651 123.904 649.093 119.456 645.513 115.22Z" fill="#777C81"/>
<path fill-rule="evenodd" clip-rule="evenodd" d="M484 139.49C549.455 139.49 607.779 130.006 645.513 115.22C649.093 119.456 651 123.904 651 128.49C651 131.347 650.26 134.15 648.837 136.881C611.255 152.432 551.409 162.49 484 162.49C416.591 162.49 356.744 152.431 319.163 136.881C317.74 134.15 317 131.347 317 128.49C317 123.904 318.907 119.456 322.487 115.22C360.221 130.006 418.545 139.49 484 139.49Z" fill="#777C81"/>
<path d="M484 23.9902C530.008 23.9902 571.6 29.7994 601.641 39.1533C616.67 43.8331 628.724 49.3737 636.987 55.457C645.281 61.5626 649.5 68.0123 649.5 74.4902C649.5 80.9681 645.281 87.4179 636.987 93.5234C628.724 99.6068 616.67 105.147 601.641 109.827C571.6 119.181 530.008 124.99 484 124.99C437.992 124.99 396.4 119.181 366.359 109.827C351.33 105.147 339.276 99.6068 331.013 93.5234C322.719 87.4179 318.5 80.9681 318.5 74.4902C318.5 68.0123 322.719 61.5626 331.013 55.457C339.276 49.3737 351.33 43.8331 366.359 39.1533C396.4 29.7994 437.992 23.9902 484 23.9902Z" stroke="#7F878E" stroke-width="3"/>
<path d="M374.5 71.9676L278 100.212M737 197.468V113.968L592.5 71.9676M737 197.468L685.5 98.9988M737 197.468H239M641.5 29.9676C643.939 1.54044 623.581 6.71857 562.5 39.9676M307 29.9676C310.202 7.5295 325.867 8.06521 386.5 39.9676M239 197.468H231V113.968L278 100.212M239 197.468L278 100.212" stroke="#969DA5" stroke-width="23" stroke-linecap="round" stroke-linejoin="round"/>
<path d="M428.097 117.747C412.492 132.866 417.369 159.125 444.678 165.49C457.358 153.554 449.368 124.94 428.097 117.747Z" fill="#6ED2FF"/>
<path d="M543.189 117.747C527.583 117.747 512.953 151.167 530.509 165.49C547.09 157.533 566.597 133.662 543.189 117.747Z" fill="#6ED2FF"/>
<path d="M639.748 105.016C625.118 100.069 601.709 131.274 612.438 147.189C632.921 147.189 650.477 117.747 639.748 105.016Z" fill="#6ED2FF"/>
<path d="M386.157 128.887C376.404 140.027 382.256 156.737 392.01 155.941C401.763 155.146 407.615 136.048 386.157 128.887Z" fill="#6ED2FF"/>
<path d="M486.618 140.823C472.963 147.189 472.963 165.49 484.668 165.49C496.372 165.49 501.249 149.576 486.618 140.823Z" fill="#6ED2FF"/>
<path d="M588.055 132.07C570.498 137.64 566.597 153.554 575.375 155.941C584.153 158.329 596.833 147.189 588.055 132.07Z" fill="#6ED2FF"/>
<path fill-rule="evenodd" clip-rule="evenodd" d="M329.588 105.016C319.659 126.546 325.136 135.718 352.996 147.189C363.059 118.811 350.859 112.208 329.588 105.016Z" fill="#6ED2FF"/>
<defs>
<filter id="filter0_d_1001_149" x="0" y="34.4902" width="968.339" height="398" filterUnits="userSpaceOnUse" color-interpolation-filters="sRGB">
<feFlood flood-opacity="0" result="BackgroundImageFix"/>
<feColorMatrix in="SourceAlpha" type="matrix" values="0 0 0 0 0 0 0 0 0 0 0 0 0 0 0 0 0 0 127 0" result="hardAlpha"/>
<feOffset dy="10"/>
<feGaussianBlur stdDeviation="2"/>
<feComposite in2="hardAlpha" operator="out"/>
<feColorMatrix type="matrix" values="0 0 0 0 0 0 0 0 0 0 0 0 0 0 0 0 0 0 0.25 0"/>
<feBlend mode="normal" in2="BackgroundImageFix" result="effect1_dropShadow_1001_149"/>
<feBlend mode="normal" in="SourceGraphic" in2="effect1_dropShadow_1001_149" result="shape"/>
</filter>
</defs>
</svg>
