<svg width="349" height="278" viewBox="0 0 349 278" fill="none" xmlns="http://www.w3.org/2000/svg">
<path d="M129.5 234.5L128 260.5H222V234.5H129.5Z" fill="#D2D6D7"/>
<path fill-rule="evenodd" clip-rule="evenodd" d="M279 183H71V180.75C53.4722 181.217 43.2639 181.244 37 180.938H23.5L0 269H348.5L326.695 180.938L314.382 180.964C309.595 181.161 302.438 181.192 291.5 181.01C287.787 180.949 283.639 180.862 279 180.75V183ZM128 260.5L129.5 234.5H222V260.5H128ZM37 198L39 191.5H55L53.5 198H37ZM59.6538 198L61.6538 191.5H77.6538L76.1538 198H59.6538ZM82 198L84 191.5H100L98.5 198H82ZM103.5 198L105.5 191.5H121.5L120 198H103.5ZM125.5 198L127.5 191.5H143.5L142 198H125.5ZM148 198L150 191.5H166L164.5 198H148ZM170.5 198L172.5 191.5H188.5L187 198H170.5ZM192.5 198L194.5 191.5H210.5L209 198H192.5ZM215 198L217 191.5H233L231.5 198H215ZM237 198L239 191.5H255L253.5 198H237ZM259 198L261 191.5H277L275.5 198H259ZM282 198V192H312V198H282ZM287 216V210H316V216H287ZM297.5 207V201H314V207H297.5ZM275.5 207V201H292V207H275.5ZM252 207V201H268.5V207H260.25H252ZM229.5 207V201H246V207H229.5ZM207.5 207V201H224V207H207.5ZM185 207V201H201.5V207H185ZM162.5 207V201H179V207H162.5ZM140 207V201H156.5V207H140ZM117.5 207V201H134V207H117.5ZM95 207V201H111.5V207H95ZM72.5 207V201H89V207H72.5ZM81.5 216V210H98V216H81.5ZM105 216V210H121.5V216H105ZM127.5 216V210H144V216H127.5ZM150 216V210H166.5V216H150ZM173 216V210H189.5V216H173ZM196 216V210H212.5V216H196ZM218.5 216V210H235V216H218.5ZM241.5 216V210H258V216H241.5ZM264.5 216V210H281V216H264.5ZM278 225.5V219.5H286.25H294.5V225.5H278ZM231.5 225.5V219.5H248V225.5H231.5ZM208.5 225.5V219.5H225V225.5H216.75H208.5ZM32 225V219H48.5V225H32ZM55.5 225V219H72V225H55.5ZM78.5 225V219H95V225H78.5ZM37 207V201H66V207H37ZM34.5 216.5V210H74.5V216.5H34.5ZM101.5 225.5V219H201.5V225.5H101.5ZM254.5 226V222H263.25H272V226H254.5ZM301 226V222H318.5V226H301Z" fill="#E2E8E8"/>
<path fill-rule="evenodd" clip-rule="evenodd" d="M25.5 0V178.5C27.554 179.683 29.2863 180.562 37 180.938C43.2639 181.244 53.4722 181.217 71 180.75V178.5H279V180.75C283.639 180.862 287.787 180.949 291.5 181.01L314.382 180.964C323.081 180.604 323.96 179.692 325.5 178.5V0H25.5ZM40 165V13H310.5V165H40Z" fill="#242424"/>
<path d="M71 183H279V180.75V178.5H71V180.75V183Z" fill="#252727"/>
<path fill-rule="evenodd" clip-rule="evenodd" d="M192.5 198L194.5 191.5H210.5L209 198H192.5Z" fill="#2C3031"/>
<path fill-rule="evenodd" clip-rule="evenodd" d="M185 201V207H201.5V201H185Z" fill="#2C3031"/>
<path fill-rule="evenodd" clip-rule="evenodd" d="M172.5 191.5L170.5 198H187L188.5 191.5H172.5Z" fill="#2C3031"/>
<path fill-rule="evenodd" clip-rule="evenodd" d="M162.5 201V207H179V201H162.5Z" fill="#2C3031"/>
<path fill-rule="evenodd" clip-rule="evenodd" d="M39 191.5L37 198H53.5L55 191.5H39Z" fill="#2C3031"/>
<path fill-rule="evenodd" clip-rule="evenodd" d="M37 201V207H66V201H37Z" fill="#2C3031"/>
<path fill-rule="evenodd" clip-rule="evenodd" d="M34.5 210V216.5H74.5V210H34.5Z" fill="#2C3031"/>
<path fill-rule="evenodd" clip-rule="evenodd" d="M32 219V225H48.5V219H32Z" fill="#2C3031"/>
<path fill-rule="evenodd" clip-rule="evenodd" d="M55.5 219V225H72V219H55.5Z" fill="#2C3031"/>
<path fill-rule="evenodd" clip-rule="evenodd" d="M81.5 210V216H98V210H81.5Z" fill="#2C3031"/>
<path fill-rule="evenodd" clip-rule="evenodd" d="M72.5 201V207H89V201H72.5Z" fill="#2C3031"/>
<path fill-rule="evenodd" clip-rule="evenodd" d="M61.6538 191.5L59.6538 198H76.1538L77.6538 191.5H61.6538Z" fill="#2C3031"/>
<path fill-rule="evenodd" clip-rule="evenodd" d="M84 191.5L82 198H98.5L100 191.5H84Z" fill="#2C3031"/>
<path fill-rule="evenodd" clip-rule="evenodd" d="M95 201V207H111.5V201H95Z" fill="#2C3031"/>
<path fill-rule="evenodd" clip-rule="evenodd" d="M78.5 219V225H95V219H78.5Z" fill="#2C3031"/>
<path fill-rule="evenodd" clip-rule="evenodd" d="M101.5 219V225.5H201.5V219H101.5Z" fill="#2C3031"/>
<path fill-rule="evenodd" clip-rule="evenodd" d="M105 210V216H121.5V210H105Z" fill="#2C3031"/>
<path fill-rule="evenodd" clip-rule="evenodd" d="M105.5 191.5L103.5 198H120L121.5 191.5H105.5Z" fill="#2C3031"/>
<path fill-rule="evenodd" clip-rule="evenodd" d="M117.5 201V207H134V201H117.5Z" fill="#2C3031"/>
<path fill-rule="evenodd" clip-rule="evenodd" d="M127.5 191.5L125.5 198H142L143.5 191.5H127.5Z" fill="#2C3031"/>
<path fill-rule="evenodd" clip-rule="evenodd" d="M127.5 210V216H144V210H127.5Z" fill="#2C3031"/>
<path fill-rule="evenodd" clip-rule="evenodd" d="M140 201V207H156.5V201H140Z" fill="#2C3031"/>
<path fill-rule="evenodd" clip-rule="evenodd" d="M150 191.5L148 198H164.5L166 191.5H150Z" fill="#2C3031"/>
<path fill-rule="evenodd" clip-rule="evenodd" d="M150 210V216H166.5V210H150Z" fill="#2C3031"/>
<path fill-rule="evenodd" clip-rule="evenodd" d="M196 210V216H212.5V210H196Z" fill="#2C3031"/>
<path fill-rule="evenodd" clip-rule="evenodd" d="M208.5 219.5V225.5H216.75H225V219.5H208.5Z" fill="#2C3031"/>
<path fill-rule="evenodd" clip-rule="evenodd" d="M207.5 201V207H224V201H207.5Z" fill="#2C3031"/>
<path fill-rule="evenodd" clip-rule="evenodd" d="M217 191.5L215 198H231.5L233 191.5H217Z" fill="#2C3031"/>
<path fill-rule="evenodd" clip-rule="evenodd" d="M218.5 210V216H235V210H218.5Z" fill="#2C3031"/>
<path fill-rule="evenodd" clip-rule="evenodd" d="M229.5 201V207H246V201H229.5Z" fill="#2C3031"/>
<path fill-rule="evenodd" clip-rule="evenodd" d="M231.5 219.5V225.5H248V219.5H231.5Z" fill="#2C3031"/>
<path fill-rule="evenodd" clip-rule="evenodd" d="M241.5 210V216H258V210H241.5Z" fill="#2C3031"/>
<path fill-rule="evenodd" clip-rule="evenodd" d="M252 201V207H260.25H268.5V201H252Z" fill="#2C3031"/>
<path fill-rule="evenodd" clip-rule="evenodd" d="M239 191.5L237 198H253.5L255 191.5H239Z" fill="#2C3031"/>
<path fill-rule="evenodd" clip-rule="evenodd" d="M261 191.5L259 198H275.5L277 191.5H261Z" fill="#2C3031"/>
<path fill-rule="evenodd" clip-rule="evenodd" d="M275.5 201V207H292V201H275.5Z" fill="#2C3031"/>
<path fill-rule="evenodd" clip-rule="evenodd" d="M264.5 210V216H281V210H264.5Z" fill="#2C3031"/>
<path fill-rule="evenodd" clip-rule="evenodd" d="M282 192V198H312V192H282Z" fill="#2C3031"/>
<path fill-rule="evenodd" clip-rule="evenodd" d="M297.5 201V207H314V201H297.5Z" fill="#2C3031"/>
<path fill-rule="evenodd" clip-rule="evenodd" d="M287 210V216H316V210H287Z" fill="#2C3031"/>
<path fill-rule="evenodd" clip-rule="evenodd" d="M301 222V226H318.5V222H301Z" fill="#2C3031"/>
<path fill-rule="evenodd" clip-rule="evenodd" d="M278 219.5V225.5H294.5V219.5H286.25H278Z" fill="#2C3031"/>
<path fill-rule="evenodd" clip-rule="evenodd" d="M254.5 222V226H272V222H263.25H254.5Z" fill="#2C3031"/>
<path fill-rule="evenodd" clip-rule="evenodd" d="M173 210V216H189.5V210H173Z" fill="#2C3031"/>
<path d="M348.5 269H0C0.436117 274.927 1.30837 276.996 4.5 277.5H342C348.026 276.888 348.825 274.543 348.5 269Z" fill="#A8CCCA"/>
<path d="M40 13V165H310.5V13H40Z" fill="#B6CBE6"/>
<path d="M133 88C133 65.9086 150.909 48 173 48H175C197.091 48 215 65.9086 215 88V90C215 112.091 197.091 130 175 130H173C150.909 130 133 112.091 133 90V88Z" fill="#F5C458"/>
<path d="M198 89C198 102.255 187.255 113 174 113C160.745 113 150 102.255 150 89C150 75.7452 160.745 65 174 65C187.255 65 198 75.7452 198 89Z" fill="white"/>
<path d="M169.232 104.697C165.383 100.819 161.172 96.4453 160.213 94.6947C159.254 92.9441 161.716 90.119 163.869 91.1313C165.919 92.0951 167.638 94.8577 167.798 95.1201C167.54 94.5365 167.462 84.2022 167.81 81.1699C168.163 78.0906 173.904 77.89 173.904 81.1699C173.904 84.4498 173.7 89.3154 173.7 89.3154C174.503 86.4403 178.037 86.3594 178.85 89.3154C179.987 87.0072 183.115 87.2502 183.684 90.0038C185.227 88.1006 188 89.1129 188 91.745V97.4078C187.922 100.262 187.092 102.408 185.278 104.697C181.394 109.598 173.08 108.574 169.232 104.697Z" fill="#57BFF5"/>
<path d="M171.954 75.2984C171.954 76.4727 169.719 76.3917 169.719 75.2984C169.719 74.2051 169.677 72.2504 169.719 70.9251C169.761 69.5998 171.994 69.7871 171.954 70.9251C171.913 72.0631 171.954 74.1241 171.954 75.2984Z" fill="#57BFF5"/>
<path d="M177.032 78.4164C176.219 78.9023 174.919 77.971 175.61 77.0396C176.3 76.1082 178.003 74.3486 178.697 73.7191C179.391 73.0896 181.216 74.2051 180.363 75.2984C179.51 76.3916 177.844 77.9304 177.032 78.4164Z" fill="#57BFF5"/>
<path d="M164.966 78.4164C165.819 79.1858 167.038 77.8495 166.347 76.9181C165.657 75.9867 164.032 74.4074 163.138 73.7191C162.244 73.0308 160.807 74.3677 161.635 75.2984C162.464 76.2291 164.113 77.6469 164.966 78.4164Z" fill="#57BFF5"/>
<path d="M173.907 81.3374C173.907 78.1275 168.333 78.3238 167.99 81.3374L167.959 81.6358C167.657 84.9274 167.735 94.4361 167.978 94.9894C167.827 94.7407 166.256 92.1954 164.348 91.1791L164.163 91.086C162.072 90.0954 159.681 92.8601 160.613 94.5733C161.544 96.2866 165.633 100.567 169.37 104.362C173.049 108.097 180.93 109.126 184.773 104.582L184.953 104.362C186.714 102.122 187.52 100.022 187.596 97.2284V91.6864C187.596 89.1105 184.904 88.1198 183.405 89.9824C182.852 87.2876 179.815 87.0499 178.71 89.3087C177.921 86.4158 174.489 86.4951 173.71 89.3087C173.71 89.3056 173.883 85.1224 173.905 81.9556L173.907 81.3374ZM161.811 73.9364C162.252 73.4954 163.047 73.2176 163.7 73.7244C164.591 74.4156 166.197 75.9872 166.894 76.9351C167.373 77.5854 167.17 78.3562 166.759 78.8075C166.55 79.0368 166.265 79.2143 165.938 79.2609C165.6 79.3091 165.251 79.2106 164.957 78.9434C164.147 78.2069 162.515 76.7933 161.691 75.8603C161.412 75.5446 161.313 75.1744 161.359 74.8177C161.404 74.4728 161.581 74.1658 161.811 73.9364ZM178.29 73.7454C178.574 73.4861 178.945 73.432 179.268 73.4743C179.593 73.5169 179.918 73.6605 180.181 73.8654C180.444 74.0695 180.675 74.3591 180.763 74.7139C180.855 75.0857 180.776 75.4811 180.498 75.8401C180.066 76.3979 179.439 77.0582 178.823 77.6361C178.213 78.2097 177.585 78.7297 177.153 78.9906C176.574 79.3395 175.873 79.1634 175.445 78.798C175.224 78.6085 175.044 78.3448 174.988 78.028C174.93 77.7019 175.012 77.3626 175.239 77.0539C175.931 76.1132 177.606 74.3712 178.29 73.7454ZM163.453 74.0457C162.585 73.3721 161.189 74.6804 161.993 75.5913C162.798 76.5021 164.4 77.8897 165.228 78.6427C166.031 79.3719 167.166 78.1674 166.627 77.2628L166.569 77.1764C165.941 76.3218 164.514 74.9098 163.623 74.1817L163.453 74.0457ZM180.18 75.5913C181.008 74.5213 179.236 73.4297 178.562 74.0457L178.267 74.3247C177.49 75.0795 176.151 76.4977 175.564 77.2953L175.507 77.3805C174.989 78.2338 176.104 79.0489 176.869 78.6831L176.945 78.6427C177.684 78.1968 179.152 76.8453 180.015 75.7965L180.18 75.5913ZM172.013 75.5913C172.013 74.5858 171.983 72.9158 172.002 71.7679L172.013 71.3114C172.053 70.1977 169.884 70.0144 169.844 71.3114L169.832 71.8238C169.813 73.0734 169.844 74.6551 169.844 75.5913L169.845 75.6404C169.91 76.647 171.947 76.7202 172.012 75.644L172.013 75.5913ZM174.311 81.3374C174.311 82.9488 174.261 84.9469 174.212 86.5394C174.2 86.9413 174.187 87.3177 174.175 87.6558C174.733 87.0774 175.459 86.7699 176.203 86.7629C177.237 86.7533 178.236 87.3249 178.801 88.4265C179.462 87.6363 180.403 87.2776 181.311 87.3847C182.279 87.4987 183.156 88.1329 183.596 89.2207C184.392 88.5858 185.367 88.4625 186.209 88.7919C187.238 89.1949 188 90.2465 188 91.6864V97.2336L188 97.2391C187.922 100.126 187.081 102.309 185.27 104.613C183.282 107.141 180.178 108.118 177.132 107.989C174.089 107.86 171.034 106.628 169.083 104.647C167.214 102.749 165.253 100.725 163.641 98.961C162.044 97.2118 160.752 95.6759 160.258 94.7675C159.672 93.6894 160.16 92.3796 160.962 91.5354C161.777 90.6781 163.078 90.1228 164.335 90.7187C165.412 91.2288 166.373 92.1964 167.069 93.0354C167.202 93.1959 167.326 93.354 167.441 93.5046C167.435 93.3596 167.428 93.2067 167.423 93.0468C167.385 91.9664 167.363 90.5511 167.359 89.063C167.351 86.0961 167.416 82.8022 167.588 81.291C167.793 79.4918 169.537 78.6241 171.07 78.5979C171.854 78.5845 172.654 78.7818 173.268 79.2311C173.897 79.6904 174.311 80.4001 174.311 81.3374ZM172.417 75.5913C172.417 76.0279 172.202 76.3585 171.9 76.5629C171.612 76.7578 171.253 76.8349 170.921 76.8289C170.588 76.8228 170.236 76.7325 169.955 76.5388C169.663 76.3384 169.44 76.0173 169.44 75.5913C169.44 74.5377 169.399 72.603 169.44 71.2983C169.454 70.845 169.662 70.496 169.972 70.2759C170.269 70.0652 170.637 69.9873 170.976 70.0016C171.315 70.016 171.668 70.124 171.943 70.3373C172.228 70.5578 172.432 70.8964 172.417 71.3256C172.378 72.4303 172.417 74.4249 172.417 75.5913Z" fill="black"/>
</svg>
