<svg width="263" height="166" viewBox="0 0 263 166" fill="none" xmlns="http://www.w3.org/2000/svg">
<path d="M153 0L0 93.5L110.5 159L263 66.5L153 0Z" fill="#EEEEF0"/>
<path d="M263 66.5L110.5 159V166L263 73.5V66.5Z" fill="#D8D9DE"/>
<path d="M110.5 159L0 93.5V101L110.5 166V159Z" fill="#9C9AA2"/>
<path d="M141.76 21.3651C142.472 21.8401 143.51 22.1697 144.155 22.7396C144.164 22.7476 144.173 22.7556 144.182 22.7636C144.445 22.9965 144.7 23.257 145.008 23.572C145.047 23.6122 145.087 23.6535 145.128 23.6955C145.493 24.0686 145.944 24.5235 146.579 25.1097C148.71 27.0779 150.83 27.8993 151.49 28.1547C152.813 28.6669 154.092 29.4315 155.838 30.4749C155.998 30.5703 156.161 30.6689 156.329 30.7691C156.465 30.8502 156.476 31.0867 156.352 31.2982C156.229 31.5098 156.019 31.6156 155.883 31.5345C155.719 31.4364 155.559 31.3409 155.402 31.2476C155.402 31.2472 155.401 31.2468 155.4 31.2464C153.643 30.1965 152.391 29.4487 151.1 28.9486C150.426 28.6877 148.254 27.8452 146.07 25.8284C145.429 25.236 144.972 24.7769 144.605 24.4016C144.565 24.3605 144.526 24.3202 144.487 24.2812C144.487 24.2802 144.486 24.2793 144.485 24.2783C144.175 23.9612 143.931 23.7113 143.679 23.4884C143.674 23.4839 143.668 23.4793 143.663 23.4747C143.011 22.8985 141.989 22.5816 141.298 22.1209C141.166 22.0329 141.163 21.7921 141.29 21.5834C141.418 21.3748 141.628 21.2774 141.76 21.3651ZM192.741 48.6682C193.615 48.8163 194.538 49.4137 195.295 50.038C196.057 50.6665 196.679 51.3468 196.952 51.6991C197.22 52.0435 197.581 52.3202 198.027 52.6251C198.129 52.6951 198.236 52.7665 198.346 52.8403C198.71 53.0844 199.116 53.3561 199.538 53.6921C201.09 54.9264 202.182 55.5968 202.978 56.049C203.142 56.142 203.295 56.2267 203.439 56.3061C203.439 56.3062 203.439 56.3063 203.44 56.3065C203.981 56.606 204.386 56.8298 204.697 57.1353C205.252 57.679 205.699 58.1338 206.176 58.7844C206.835 59.6817 208.115 60.3928 209.082 60.6312C209.136 60.6443 209.19 60.6572 209.245 60.6706C209.948 60.8424 210.812 61.054 212.006 61.5423C212.997 61.9481 213.781 62.4351 214.457 62.896C214.651 63.0281 214.833 63.1574 215.009 63.2809C215.453 63.5927 215.851 63.872 216.252 64.0903C218.74 65.4439 220.055 66.4229 220.809 67.1585C221.39 67.7242 221.644 68.1559 221.827 68.4675C221.883 68.5617 221.931 68.6455 221.981 68.7181C222.423 69.3652 222.907 69.8283 223.49 70.3853C223.619 70.509 223.754 70.6377 223.894 70.7736C224.361 71.2283 224.779 71.4503 225.129 71.5878C225.282 71.648 225.422 71.6926 225.554 71.7341C225.557 71.7348 225.559 71.7354 225.562 71.7361C225.58 71.7419 225.598 71.748 225.617 71.7537C225.63 71.758 225.644 71.7615 225.658 71.7659C225.665 71.765 225.671 71.765 225.675 71.7648C225.679 71.7645 225.681 71.7645 225.683 71.7644C225.683 71.7643 225.684 71.7641 225.684 71.7639C225.716 71.763 225.739 71.769 225.743 71.7702C225.752 71.7722 225.758 71.775 225.762 71.7762C225.781 71.7828 225.803 71.7937 225.818 71.8013C225.857 71.8207 225.922 71.856 226.023 71.9119C226.116 71.9527 226.209 71.9837 226.327 72.0222C226.334 72.0245 226.342 72.0269 226.349 72.0292C226.464 72.0667 226.598 72.1111 226.761 72.174C226.91 72.2313 226.944 72.4552 226.836 72.6744C226.729 72.8935 226.521 73.0247 226.372 72.9674C226.218 72.9081 226.093 72.8669 225.978 72.8294C225.971 72.8272 225.964 72.8249 225.956 72.8226C225.837 72.7835 225.724 72.7462 225.608 72.6948C225.57 72.6776 225.531 72.6587 225.495 72.6404C225.427 72.6123 225.346 72.5858 225.249 72.5551C225.23 72.549 225.21 72.5421 225.19 72.5357C225.058 72.4943 224.904 72.4461 224.737 72.3807C224.348 72.2275 223.886 71.9799 223.377 71.4851C223.244 71.3554 223.114 71.2311 222.987 71.1098C222.401 70.5508 221.88 70.0539 221.411 69.367C221.347 69.2727 221.29 69.1748 221.228 69.0706C221.046 68.7618 220.829 68.3928 220.293 67.8698C219.574 67.1691 218.293 66.2093 215.819 64.8634C215.398 64.6342 214.974 64.3362 214.522 64.019C214.35 63.898 214.173 63.7746 213.991 63.6506C213.326 63.1969 212.566 62.7253 211.609 62.3335C210.442 61.8561 209.601 61.6498 208.902 61.4788C208.878 61.4731 208.854 61.4674 208.829 61.4617C208.799 61.4544 208.77 61.4471 208.74 61.4398C207.709 61.1858 206.343 60.4361 205.615 59.4448C205.159 58.8228 204.732 58.3869 204.18 57.8461C203.909 57.5802 203.563 57.3889 203.032 57.095C202.883 57.0124 202.719 56.921 202.539 56.8184C201.728 56.3582 200.619 55.678 199.051 54.4298C198.642 54.1044 198.254 53.8445 197.891 53.6018C197.779 53.5264 197.668 53.4521 197.561 53.3786C197.113 53.0721 196.707 52.7681 196.398 52.37C196.144 52.0428 195.543 51.3827 194.802 50.7713C194.056 50.1556 193.196 49.6132 192.427 49.4829C192.347 49.4694 192.267 49.4552 192.187 49.4413C191.494 49.3213 190.789 49.1988 190.106 49.291C186.643 50.3698 183.437 47.2342 181.055 45.6092C181.023 45.5878 180.992 45.5664 180.961 45.545C178.211 43.6695 176.13 42.4442 175.42 42.0266C175.387 42.0071 175.357 41.9894 175.33 41.9735C175.306 41.9592 175.284 41.9467 175.265 41.9353C174.976 41.7643 174.706 41.6382 174.422 41.506C174.407 41.4988 174.392 41.4916 174.376 41.4844C174.077 41.3446 173.764 41.1957 173.416 40.983C172.124 40.1919 171.045 39.5892 170.107 39.0745C169.934 38.9792 169.765 38.8861 169.6 38.7961C169.6 38.7958 169.599 38.7955 169.599 38.7952C168.876 38.4 168.234 38.0498 167.641 37.6925C166.558 37.041 165.798 36.6487 165.198 36.3579C165.009 36.2667 164.835 36.1843 164.67 36.1068C164.314 35.9391 164.003 35.7927 163.695 35.6213C163.115 35.2988 162.56 35.0361 162.015 34.7766C161.966 34.7534 161.918 34.7299 161.869 34.7068C161.278 34.4252 160.694 34.1429 160.109 33.7922C159.973 33.7108 159.963 33.4725 160.086 33.2611C160.21 33.05 160.42 32.9449 160.556 33.0262C161.125 33.3669 161.694 33.6429 162.285 33.9244C162.333 33.9476 162.383 33.9705 162.432 33.9939C162.976 34.2527 163.54 34.5215 164.131 34.8499C164.428 35.0152 164.722 35.1536 165.071 35.3179C165.238 35.3963 165.417 35.4807 165.615 35.5768C166.224 35.8719 166.995 36.269 168.088 36.9268C168.675 37.2798 169.308 37.6261 170.03 38.021C170.196 38.1117 170.367 38.2049 170.542 38.3013C171.482 38.8173 172.567 39.4233 173.866 40.2188C174.195 40.4198 174.491 40.5613 174.789 40.7005C174.806 40.7084 174.822 40.7163 174.839 40.7242C175.12 40.8552 175.406 40.9879 175.71 41.1686C175.751 41.1927 175.803 41.2238 175.866 41.2607C176.576 41.679 178.666 42.9087 181.426 44.7912C181.434 44.7971 181.443 44.8031 181.451 44.809C183.301 46.0704 184.344 46.782 185.27 47.0842C186.001 47.3226 186.503 47.5736 186.908 47.7926C186.985 47.8344 187.058 47.8739 187.127 47.912C187.427 48.0769 187.664 48.2071 187.926 48.2937C188.721 48.5554 189.38 48.5966 190.279 48.4752C191.042 48.3723 191.819 48.5077 192.499 48.6264C192.501 48.6266 192.502 48.6267 192.503 48.6269C192.583 48.641 192.663 48.6551 192.741 48.6682ZM229.012 72.8424C229.144 72.9304 229.148 73.1704 229.021 73.3791C228.893 73.5878 228.683 73.6861 228.551 73.5982C228.236 73.3886 227.922 73.179 227.608 72.9693C227.476 72.8814 227.472 72.6413 227.599 72.4327C227.727 72.224 227.938 72.1257 228.07 72.2135C228.384 72.4232 228.698 72.6328 229.012 72.8424ZM194.449 44.5503C194.607 44.5876 194.659 44.7997 194.565 45.0232C194.472 45.2464 194.268 45.3969 194.11 45.3597C194.026 45.34 193.887 45.3114 193.699 45.273C192.347 44.9967 188.486 44.2079 184.914 42.5057C184.613 42.3624 184.342 42.2365 184.083 42.1167C182.978 41.6044 181.821 41.6422 179.85 40.4255C171.562 35.3096 163.806 29.3262 155.079 24.9716C152.558 23.7139 150.143 22.2985 147.743 20.836C145.743 19.6171 142.299 17.0129 141.457 16.4519C141.325 16.3639 141.322 16.1231 141.449 15.9143C141.577 15.7057 141.787 15.6082 141.919 15.6961C142.755 16.2532 146.187 18.8493 148.179 20.0637C150.575 21.5233 152.985 22.9364 155.501 24.1917C164.238 28.5513 172.575 33.6309 180.872 38.7527C182.824 39.9575 183.393 40.8221 184.494 41.3327C184.753 41.4528 185.026 41.5789 185.33 41.7235C188.852 43.4019 192.653 44.1799 194.022 44.46C194.215 44.4997 194.361 44.5295 194.449 44.5503ZM200.569 48.6677C202.119 49.5226 204.211 50.9217 206.039 52.1449C206.93 52.7414 207.758 53.2967 208.431 53.7256C209.473 54.3902 210.03 54.9731 210.582 55.5513C210.588 55.5574 210.594 55.5636 210.6 55.5697C211.152 56.1475 211.706 56.7228 212.764 57.398C213.831 58.0788 215.405 58.8583 216.993 59.6446C216.994 59.6453 216.995 59.6461 216.996 59.6468C218.575 60.4289 220.409 60.8381 221.494 61.5315C225.276 63.9478 227.332 65.8963 228.283 67.0272C229.948 69.0055 232.809 69.6337 234.405 71.8289C234.52 72.1717 233.774 72.5094 233.439 72.081C233.426 72.0669 233.413 72.0527 233.4 72.0386C233.277 71.9049 233.167 71.7906 233 71.6508C232.747 71.4664 232.549 71.345 232.368 71.2345C231.893 70.9446 228.669 68.8151 227.739 67.7107C226.836 66.6374 224.278 65.6361 220.472 63.2043C219.406 62.5238 218.159 61.2111 216.571 60.4248C216.567 60.4226 216.563 60.4204 216.558 60.4182C214.982 59.6377 213.393 58.8507 212.308 58.1586C211.212 57.459 210.633 56.8568 210.074 56.2714C210.068 56.2656 210.063 56.2598 210.058 56.254C209.51 55.6811 208.979 55.1253 207.976 54.4853C207.288 54.0469 206.449 53.4863 205.552 52.8859C203.732 51.6679 201.67 50.2871 200.134 49.4395C199.995 49.363 199.98 49.1278 200.1 48.9146C200.221 48.7016 200.43 48.5913 200.569 48.6677ZM203.448 43.9569C208.212 45.6789 212.35 48.4928 216.013 51.9092C217.092 52.5974 218.585 53.577 220.076 54.5559C220.093 54.5672 220.11 54.5786 220.126 54.5899C221.601 55.5582 223.07 56.5221 224.132 57.2008C227.914 59.6171 230.21 61.1865 231.162 62.3174C232.049 63.3719 232.359 63.5598 232.817 63.8393C232.829 63.8471 232.842 63.855 232.854 63.8628C232.855 63.8627 232.856 63.8626 232.858 63.8625C232.879 63.8622 232.896 63.8646 232.904 63.8662C232.921 63.8697 232.933 63.8746 232.938 63.8765C232.949 63.8808 232.957 63.8856 232.96 63.8872C232.972 63.8939 232.986 63.9022 232.995 63.9079C233.074 63.961 233.317 64.1384 233.501 64.292C233.69 64.4494 233.814 64.5801 233.943 64.7198C233.956 64.734 233.969 64.7482 233.982 64.7624C234.098 64.8886 234.224 65.0259 234.416 65.2077C234.533 65.3185 234.513 65.5683 234.371 65.7659C234.23 65.9632 234.021 66.0335 233.904 65.9229C233.702 65.7316 233.568 65.5856 233.451 65.4588C233.438 65.4447 233.425 65.4305 233.412 65.4164C233.289 65.2826 233.179 65.1683 233.011 65.0284C232.758 64.844 232.56 64.7228 232.38 64.6123C231.905 64.3226 231.548 64.1045 230.619 63.0001C229.716 61.9268 227.483 60.3924 223.676 57.9605C222.612 57.2805 221.142 56.3155 219.668 55.348C219.651 55.3367 219.633 55.3254 219.616 55.3141C218.124 54.3347 216.634 53.3554 215.558 52.6688C211.363 49.9926 206.962 47.86 203.013 44.729C202.207 44.2844 201.48 43.8626 200.806 43.4715C198.824 42.3208 197.302 41.4382 195.588 41.0343C195.212 40.9458 194.335 40.5345 193.078 39.9231C192.709 39.7439 192.306 39.5458 191.87 39.3322C190.801 38.8085 189.535 38.1878 188.099 37.5036C187.798 37.3602 187.527 37.2344 187.268 37.1146C186.163 36.6022 185.291 36.1984 183.32 34.9817C180.895 33.4846 176.918 30.833 174.817 29.371C173.765 28.6387 173.187 28.1991 172.783 27.8797C172.671 27.7908 172.572 27.7112 172.482 27.6386C172.246 27.4491 172.063 27.3023 171.812 27.1269C170.008 25.8643 168.636 25.1596 166.365 24.0446C166.223 23.9747 166.202 23.7431 166.318 23.5276C166.434 23.3122 166.643 23.1939 166.785 23.2636C169.059 24.3803 170.452 25.0956 172.281 26.3754C172.543 26.5585 172.739 26.7161 172.979 26.909C173.068 26.9805 173.163 27.057 173.27 27.1414C173.667 27.4554 174.239 27.8906 175.285 28.619C177.382 30.0784 181.353 32.7259 183.771 34.2183C185.723 35.4232 186.578 35.82 187.679 36.3306C187.938 36.4506 188.211 36.5766 188.514 36.7212C189.952 37.4064 191.222 38.0283 192.292 38.5523C192.727 38.7656 193.13 38.963 193.497 39.1414C194.779 39.7652 195.605 40.1491 195.927 40.2249C197.701 40.6431 199.289 41.5644 201.29 42.726C201.956 43.1129 202.668 43.5266 203.448 43.9569ZM158.686 19.1895C158.827 19.2604 158.848 19.4926 158.731 19.7078C158.615 19.9229 158.405 20.04 158.263 19.9693C157.514 19.5955 156.972 19.3328 156.548 19.1276C155.763 18.7478 155.384 18.5645 154.849 18.2346C153.468 17.3827 152.131 16.5672 150.928 15.8339C148.928 14.615 147.297 13.6217 146.456 13.0607C146.324 12.9727 146.321 12.7319 146.448 12.5232C146.576 12.3147 146.786 12.2171 146.918 12.3049C147.753 12.862 149.371 13.8481 151.364 15.0625C152.569 15.7966 153.911 16.6138 155.3 17.471C155.819 17.791 156.177 17.9647 156.944 18.3359C157.368 18.5409 157.916 18.8058 158.686 19.1895ZM121.237 32.3904C121.956 32.8809 123.006 33.2314 123.657 33.816C123.666 33.8242 123.676 33.8324 123.685 33.8406C123.951 34.0795 124.208 34.346 124.519 34.6683C124.558 34.7093 124.599 34.7517 124.64 34.7946C125.009 35.1762 125.464 35.6418 126.105 36.2425C128.257 38.2597 130.401 39.1246 131.068 39.3935C132.406 39.9329 133.7 40.7249 135.464 41.8058C135.626 41.9047 135.791 42.0068 135.96 42.1105C136.098 42.1946 136.108 42.4325 135.982 42.6426C135.857 42.8528 135.644 42.9552 135.506 42.8712C135.34 42.7696 135.178 42.6706 135.021 42.574C135.02 42.5736 135.019 42.5732 135.018 42.5727C133.242 41.4851 131.977 40.7105 130.671 40.1839C129.989 39.9091 127.792 39.0221 125.587 36.9551C124.94 36.3479 124.479 35.8782 124.108 35.4942C124.067 35.4522 124.028 35.4109 123.989 35.371C123.989 35.3701 123.988 35.3691 123.987 35.3681C123.674 35.0437 123.428 34.7881 123.173 34.5595C123.168 34.5548 123.162 34.5501 123.157 34.5454C122.498 33.9542 121.465 33.6168 120.766 33.1411C120.633 33.0502 120.63 32.8081 120.76 32.6008C120.89 32.3937 121.103 32.2997 121.237 32.3904ZM172.776 60.774C173.662 60.9391 174.594 61.5566 175.358 62.1978C176.128 62.8436 176.756 63.5387 177.032 63.8978C177.302 64.2488 177.666 64.5334 178.117 64.8482C178.22 64.9203 178.328 64.994 178.439 65.0703C178.808 65.3224 179.217 65.6029 179.644 65.9484C181.211 67.2174 182.315 67.9114 183.12 68.3806C183.285 68.4771 183.441 68.565 183.586 68.6474C183.586 68.6476 183.586 68.6477 183.586 68.6479C184.134 68.959 184.543 69.1913 184.858 69.5041C185.418 70.0607 185.868 70.5259 186.35 71.1885C187.014 72.1023 188.308 72.8407 189.287 73.0983C189.341 73.1125 189.396 73.1264 189.452 73.1409C190.162 73.3266 191.037 73.5554 192.244 74.0683C193.247 74.4945 194.039 74.9984 194.722 75.4741C194.918 75.6104 195.103 75.7438 195.281 75.8712C195.729 76.1927 196.131 76.4807 196.536 76.7075C199.052 78.114 200.38 79.1221 201.142 79.8753C201.728 80.4545 201.984 80.8929 202.169 81.2094C202.224 81.3051 202.273 81.3902 202.323 81.464C202.769 82.1225 203.258 82.5968 203.846 83.1673C203.977 83.2939 204.113 83.4258 204.254 83.565C204.725 84.0305 205.148 84.2613 205.502 84.4061C205.657 84.4694 205.799 84.5168 205.932 84.561C205.935 84.5617 205.937 84.5624 205.94 84.5631C205.959 84.5693 205.977 84.5757 205.995 84.5818C206.009 84.5864 206.023 84.5902 206.037 84.5949C206.044 84.594 206.05 84.5942 206.055 84.594C206.058 84.5939 206.061 84.5938 206.063 84.5938C206.063 84.5937 206.063 84.5935 206.064 84.5933C206.096 84.593 206.119 84.5994 206.124 84.6007C206.132 84.6029 206.139 84.6059 206.142 84.6072C206.161 84.6141 206.184 84.6255 206.199 84.6334C206.238 84.6536 206.305 84.6903 206.407 84.7484C206.5 84.7911 206.595 84.824 206.714 84.8648C206.721 84.8673 206.729 84.8698 206.736 84.8723C206.852 84.9121 206.988 84.9592 207.153 85.0255C207.304 85.0858 207.337 85.3114 207.228 85.5296C207.118 85.7477 206.907 85.8756 206.757 85.8153C206.601 85.7529 206.474 85.7091 206.358 85.6693C206.351 85.6669 206.343 85.6645 206.336 85.662C206.215 85.6205 206.1 85.5809 205.984 85.5271C205.945 85.5091 205.906 85.4894 205.869 85.4703C205.801 85.4409 205.719 85.4127 205.621 85.3801C205.601 85.3736 205.581 85.3663 205.56 85.3595C205.427 85.3154 205.272 85.2642 205.103 85.1953C204.709 85.034 204.242 84.7767 203.728 84.2701C203.594 84.1373 203.463 84.01 203.334 83.8857C202.743 83.3132 202.217 82.8042 201.745 82.1053C201.68 82.0094 201.622 81.91 201.56 81.8042C201.377 81.4905 201.158 81.1157 200.616 80.5802C199.891 79.8628 198.596 78.8746 196.095 77.4761C195.669 77.2381 195.241 76.9307 194.785 76.6036C194.611 76.4788 194.432 76.3516 194.248 76.2235C193.576 75.7553 192.808 75.2673 191.84 74.8558C190.66 74.3543 189.809 74.1313 189.102 73.9465C189.077 73.9403 189.053 73.9341 189.028 73.9279C188.998 73.92 188.968 73.9121 188.938 73.9043C187.894 73.6298 186.514 72.8511 185.78 71.8416C185.319 71.2081 184.888 70.7622 184.331 70.2086C184.057 69.9364 183.708 69.7377 183.171 69.4324C183.021 69.3467 182.855 69.2518 182.673 69.1454C181.854 68.6679 180.732 67.9637 179.148 66.6804C178.735 66.3459 178.343 66.0774 177.977 65.8268C177.863 65.749 177.751 65.6723 177.643 65.5964C177.19 65.2802 176.78 64.9671 176.469 64.5614C176.212 64.2279 175.605 63.5535 174.857 62.9254C174.103 62.2928 173.235 61.7318 172.456 61.5866C172.375 61.5715 172.294 61.5558 172.213 61.5403C171.512 61.4068 170.798 61.2706 170.106 61.3504C166.596 62.3695 163.359 59.1594 160.952 57.4822C160.92 57.4601 160.889 57.438 160.857 57.416C158.079 55.4803 155.975 54.2103 155.258 53.7775C155.224 53.7573 155.194 53.739 155.167 53.7225C155.142 53.7077 155.12 53.6948 155.1 53.6829C154.809 53.5057 154.535 53.374 154.249 53.2358C154.233 53.2283 154.218 53.2208 154.202 53.2133C153.899 53.0673 153.583 52.9118 153.232 52.6916C151.925 51.8726 150.835 51.247 149.887 50.7123C149.711 50.6134 149.541 50.5167 149.374 50.4231C149.374 50.4228 149.373 50.4225 149.373 50.4222C148.642 50.0117 147.993 49.6478 147.393 49.2778C146.299 48.603 145.53 48.1946 144.924 47.8913C144.733 47.7961 144.557 47.7101 144.39 47.6291C144.03 47.454 143.716 47.3011 143.404 47.1231C142.818 46.7883 142.257 46.514 141.705 46.2431C141.656 46.2189 141.607 46.1944 141.558 46.1703C140.96 45.8763 140.37 45.5817 139.778 45.2184C139.641 45.1341 139.632 44.8946 139.758 44.6845C139.883 44.4747 140.096 44.373 140.234 44.4573C140.809 44.8102 141.384 45.0981 141.982 45.392C142.031 45.4162 142.081 45.4401 142.13 45.4645C142.681 45.7347 143.251 46.0153 143.848 46.3563C144.149 46.5279 144.446 46.6724 144.799 46.844C144.967 46.9259 145.149 47.014 145.349 47.1143C145.965 47.4222 146.744 47.8356 147.849 48.5169C148.442 48.8825 149.082 49.2422 149.812 49.6525C149.98 49.7467 150.152 49.8435 150.33 49.9437C151.28 50.4797 152.376 51.1088 153.69 51.9322C154.022 52.1403 154.321 52.288 154.623 52.4334C154.64 52.4417 154.656 52.45 154.673 52.4582C154.957 52.5951 155.246 52.7337 155.554 52.9209C155.595 52.9459 155.648 52.9782 155.711 53.0164C156.429 53.4499 158.542 54.7245 161.331 56.6673C161.339 56.6734 161.348 56.6796 161.356 56.6857C163.225 57.9875 164.279 58.722 165.216 59.0429C165.955 59.2961 166.464 59.5577 166.873 59.7852C166.951 59.8286 167.024 59.8697 167.094 59.9093C167.397 60.0805 167.636 60.2158 167.902 60.3076C168.707 60.5855 169.373 60.6391 170.285 60.534C171.057 60.4449 171.844 60.5954 172.532 60.7274C172.533 60.7276 172.534 60.7278 172.535 60.728C172.617 60.7437 172.697 60.7593 172.776 60.774ZM209.431 85.7391C209.564 85.8299 209.567 86.0712 209.438 86.2784C209.308 86.4857 209.094 86.5806 208.961 86.4898C208.643 86.2733 208.325 86.0568 208.008 85.8403C207.875 85.7495 207.872 85.5083 208.001 85.301C208.131 85.0937 208.345 84.9989 208.478 85.0896C208.796 85.3061 209.113 85.5226 209.431 85.7391ZM174.519 56.6688C174.679 56.7091 174.731 56.9233 174.636 57.146C174.54 57.3685 174.333 57.5159 174.173 57.4756C174.089 57.4543 173.948 57.4229 173.758 57.3808C172.389 57.078 168.482 56.2133 164.87 54.4364C164.566 54.2867 164.291 54.1552 164.03 54.03C162.913 53.4947 161.741 53.511 159.749 52.2518C151.372 46.9571 143.537 40.8007 134.713 36.2627C132.164 34.952 129.723 33.4848 127.297 31.9706C125.275 30.7086 121.796 28.0279 120.946 27.4485C120.812 27.3577 120.81 27.1157 120.94 26.9083C121.069 26.7011 121.283 26.6071 121.416 26.6978C122.26 27.2731 125.727 29.9456 127.742 31.2028C130.163 32.7141 132.599 34.1788 135.142 35.487C143.977 40.0303 152.403 45.2895 160.789 50.5903C162.762 51.8372 163.335 52.7165 164.449 53.25C164.711 53.3755 164.986 53.5073 165.293 53.6583C168.855 55.4103 172.702 56.2631 174.087 56.57C174.283 56.6135 174.43 56.6462 174.519 56.6688ZM180.704 60.9198C182.27 61.8076 184.385 63.2523 186.232 64.5154C187.133 65.1314 187.97 65.7048 188.649 66.1483C189.702 66.8354 190.265 67.4314 190.822 68.0227C190.828 68.029 190.834 68.0352 190.84 68.0415C191.397 68.6324 191.956 69.2207 193.026 69.9188C194.104 70.6227 195.695 71.4353 197.301 72.255C197.302 72.2557 197.303 72.2565 197.304 72.2572C198.901 73.0725 200.756 73.5179 201.853 74.2348C205.675 76.7331 207.751 78.7291 208.711 79.8831C210.39 81.9017 213.286 82.5864 214.895 84.8217C215.011 85.1682 214.254 85.4935 213.916 85.0569C213.903 85.0424 213.89 85.028 213.877 85.0135C213.752 84.8769 213.641 84.76 213.472 84.6165C213.217 84.4264 213.016 84.3008 212.834 84.1864C212.354 83.8862 209.096 81.6866 208.158 80.5596C207.247 79.4645 204.659 78.4106 200.812 75.8963C199.736 75.1927 198.477 73.8506 196.871 73.0309C196.867 73.0286 196.863 73.0264 196.858 73.0241C195.265 72.2104 193.658 71.3901 192.561 70.6744C191.453 69.9511 190.869 69.3352 190.305 68.7366C190.299 68.7307 190.294 68.7248 190.288 68.7189C189.736 68.1331 189.2 67.5648 188.186 66.903C187.491 66.4497 186.644 65.8708 185.737 65.2509C183.898 63.9931 181.814 62.5673 180.261 61.6871C180.121 61.6075 180.106 61.3711 180.229 61.1591C180.351 60.9474 180.564 60.8405 180.704 60.9198ZM183.634 56.2408C188.453 58.0599 192.635 60.9643 196.333 64.4651C197.423 65.1767 198.933 66.1888 200.439 67.2001C200.456 67.2118 200.473 67.2235 200.49 67.2352C201.98 68.2356 203.465 69.2315 204.538 69.9332C208.36 72.4315 210.681 74.0511 211.641 75.2051C212.536 76.2811 212.849 76.4756 213.312 76.765C213.325 76.7731 213.337 76.7813 213.35 76.7894C213.351 76.7893 213.352 76.7892 213.353 76.7891C213.375 76.7892 213.392 76.7919 213.4 76.7938C213.417 76.7975 213.43 76.8027 213.435 76.8047C213.446 76.8092 213.454 76.8142 213.457 76.8159C213.469 76.8228 213.483 76.8314 213.492 76.8373C213.572 76.8921 213.817 77.0749 214.003 77.2327C214.194 77.3943 214.319 77.5279 214.449 77.6707C214.462 77.6852 214.476 77.6998 214.489 77.7143C214.606 77.8432 214.734 77.9835 214.927 78.1697C215.045 78.2832 215.024 78.5338 214.88 78.7297C214.736 78.9253 214.524 78.992 214.406 78.8787C214.202 78.6828 214.067 78.5335 213.949 78.404C213.936 78.3895 213.923 78.3751 213.91 78.3606C213.785 78.224 213.674 78.107 213.505 77.9634C213.249 77.7734 213.049 77.6479 212.867 77.5335C212.387 77.2336 212.026 77.0078 211.089 75.8808C210.178 74.7857 207.921 73.2023 204.075 70.6879C202.999 69.9848 201.513 68.9879 200.024 67.9883C200.006 67.9766 199.989 67.965 199.971 67.9533C198.464 66.9414 196.957 65.9297 195.87 65.2198C191.631 62.4526 187.18 60.2279 183.192 57.0083C182.377 56.5466 181.642 56.1093 180.961 55.7038C178.957 54.5106 177.419 53.5955 175.684 53.1576C175.304 53.0617 174.417 52.6321 173.146 51.9943C172.773 51.8074 172.365 51.6008 171.924 51.3781C170.843 50.832 169.563 50.1847 168.111 49.4704C167.807 49.3208 167.533 49.1893 167.272 49.0641C166.154 48.5287 165.272 48.1067 163.28 46.8474C160.829 45.298 156.81 42.5597 154.687 41.0515C153.624 40.2962 153.04 39.8437 152.632 39.5153C152.518 39.4238 152.419 39.3421 152.328 39.2675C152.09 39.0726 151.905 38.9217 151.651 38.7408C149.828 37.4386 148.441 36.705 146.145 35.5423C146.001 35.4694 145.981 35.2363 146.099 35.022C146.217 34.8078 146.429 34.6928 146.573 34.7655C148.872 35.9299 150.28 36.6746 152.129 37.9946C152.393 38.1834 152.591 38.3454 152.834 38.5437C152.923 38.6172 153.019 38.6959 153.127 38.7826C153.528 39.1055 154.106 39.5534 155.164 40.3048C157.282 41.8103 161.296 44.5443 163.739 46.0889C165.712 47.3359 166.577 47.7506 167.69 48.2841C167.952 48.4095 168.227 48.5412 168.534 48.6921C169.988 49.4074 171.272 50.056 172.354 50.6024C172.794 50.8249 173.201 51.0307 173.572 51.2168C174.869 51.8675 175.704 52.2686 176.03 52.3508C177.825 52.8041 179.43 53.7593 181.453 54.9639C182.126 55.365 182.846 55.7939 183.634 56.2408ZM138.384 30.521C138.527 30.5948 138.547 30.8285 138.428 31.0425C138.309 31.2565 138.097 31.3702 137.954 31.2965C137.196 30.9069 136.648 30.6329 136.219 30.4188C135.426 30.0226 135.042 29.8314 134.502 29.4899C133.106 28.6083 131.755 27.7639 130.538 27.0047C128.517 25.7427 126.869 24.7143 126.018 24.135C125.885 24.0441 125.882 23.8021 126.012 23.5947C126.142 23.3877 126.355 23.2936 126.489 23.3843C127.333 23.9595 128.968 24.9806 130.982 26.2378C132.2 26.9979 133.557 27.844 134.961 28.7312C135.485 29.0624 135.847 29.2435 136.623 29.6309C137.051 29.8447 137.606 30.1211 138.384 30.521ZM102.273 44.8846C102.994 45.3674 104.042 45.7071 104.694 46.2845C104.703 46.2926 104.712 46.3007 104.721 46.3088C104.988 46.5448 105.245 46.8084 105.557 47.1272C105.596 47.1678 105.637 47.2097 105.679 47.2522C106.048 47.6297 106.504 48.0901 107.146 48.6838C109.302 50.6772 111.444 51.5199 112.11 51.7819C113.447 52.3073 114.74 53.0857 116.505 54.1478C116.666 54.2449 116.831 54.3453 117.001 54.4472C117.138 54.5298 117.149 54.7673 117.026 54.9784C116.902 55.1896 116.69 55.2939 116.553 55.2114C116.386 55.1116 116.225 55.0143 116.067 54.9194C116.066 54.9189 116.065 54.9185 116.065 54.9181C114.289 53.8494 113.023 53.0882 111.718 52.5751C111.038 52.3074 108.844 51.4431 106.635 49.4005C105.986 48.8005 105.524 48.3359 105.152 47.9561C105.112 47.9145 105.072 47.8737 105.033 47.8342C105.033 47.8333 105.032 47.8323 105.031 47.8313C104.717 47.5105 104.471 47.2576 104.216 47.0317C104.21 47.0271 104.205 47.0225 104.199 47.0179C103.54 46.434 102.508 46.1071 101.809 45.6389C101.676 45.5494 101.672 45.3077 101.8 45.0994C101.928 44.8913 102.14 44.7954 102.273 44.8846ZM153.794 72.7244C154.677 72.8806 155.61 73.4881 156.375 74.121C157.145 74.7583 157.775 75.4463 158.052 75.8022C158.323 76.1501 158.688 76.4308 159.139 76.7407C159.242 76.8118 159.35 76.8843 159.461 76.9594C159.83 77.2075 160.24 77.4837 160.667 77.8245C162.236 79.0765 163.34 79.7587 164.144 80.2193C164.31 80.314 164.465 80.4004 164.61 80.4812C164.61 80.4814 164.611 80.4815 164.611 80.4817C165.159 80.787 165.567 81.015 165.882 81.3242C166.444 81.8747 166.896 82.3348 167.379 82.9918C168.046 83.8979 169.339 84.6226 170.317 84.8702C170.37 84.8838 170.426 84.8972 170.481 84.9112C171.19 85.0896 172.064 85.3095 173.269 85.8099C174.271 86.2256 175.063 86.7212 175.747 87.1895C175.942 87.3237 176.127 87.4551 176.305 87.5805C176.754 87.8973 177.156 88.1809 177.561 88.4035C180.075 89.7833 181.405 90.7772 182.169 91.5218C182.755 92.0945 183.013 92.5298 183.199 92.8441C183.255 92.9391 183.305 93.0236 183.355 93.0968C183.802 93.75 184.292 94.2189 184.882 94.7829C185.013 94.9081 185.149 95.0384 185.29 95.176C185.763 95.6363 186.186 95.8627 186.539 96.0038C186.694 96.0655 186.835 96.1115 186.969 96.1543C186.971 96.1549 186.974 96.1556 186.976 96.1563C186.995 96.1623 187.013 96.1685 187.031 96.1744C187.045 96.1789 187.06 96.1826 187.073 96.1871C187.08 96.1862 187.086 96.1863 187.091 96.186C187.094 96.1859 187.097 96.1858 187.099 96.1858C187.099 96.1856 187.099 96.1855 187.1 96.1853C187.132 96.1846 187.155 96.1908 187.16 96.1921C187.168 96.1942 187.175 96.1971 187.178 96.1983C187.197 96.2051 187.22 96.2162 187.235 96.2239C187.274 96.2438 187.341 96.2797 187.442 96.3368C187.536 96.3785 187.631 96.4104 187.749 96.45C187.757 96.4524 187.764 96.4549 187.772 96.4573C187.888 96.4959 188.023 96.5416 188.188 96.6062C188.338 96.665 188.373 96.8899 188.265 97.1089C188.157 97.3278 187.948 97.4576 187.797 97.3989C187.642 97.338 187.515 97.2956 187.399 97.257C187.392 97.2546 187.384 97.2523 187.377 97.2499C187.256 97.2096 187.142 97.1712 187.026 97.1186C186.987 97.101 186.947 97.0817 186.911 97.063C186.842 97.0343 186.761 97.007 186.663 96.9754C186.643 96.969 186.623 96.962 186.603 96.9553C186.469 96.9126 186.314 96.863 186.146 96.7959C185.752 96.6387 185.285 96.3864 184.771 95.8855C184.636 95.7541 184.504 95.6283 184.376 95.5054C183.784 94.9395 183.257 94.4363 182.782 93.743C182.716 93.6478 182.658 93.5491 182.596 93.4441C182.412 93.1326 182.191 92.7604 181.649 92.231C180.922 91.5216 179.626 90.5474 177.126 89.1754C176.7 88.9418 176.272 88.6391 175.815 88.3169C175.641 88.1939 175.462 88.0686 175.278 87.9426C174.606 87.4815 173.838 87.0017 172.871 86.6003C171.692 86.1111 170.843 85.8968 170.137 85.7191C170.112 85.7132 170.088 85.7073 170.063 85.7013C170.033 85.6937 170.003 85.6861 169.973 85.6786C168.932 85.4147 167.551 84.6506 166.815 83.6496C166.352 83.0215 165.92 82.5804 165.362 82.033C165.087 81.7638 164.738 81.5688 164.201 81.2693C164.051 81.1852 163.886 81.092 163.703 80.9875C162.884 80.5187 161.763 79.8264 160.177 78.5604C159.763 78.2304 159.371 77.9662 159.005 77.7195C158.891 77.6428 158.779 77.5674 158.67 77.4926C158.218 77.1813 157.808 76.8726 157.495 76.4705C157.237 76.14 156.629 75.4724 155.88 74.8525C155.125 74.2282 154.256 73.6764 153.48 73.5391C153.399 73.5248 153.318 73.5099 153.237 73.4952C152.538 73.3687 151.825 73.2397 151.136 73.3262C147.644 74.3785 144.4 71.2044 141.992 69.5531C141.961 69.5313 141.929 69.5096 141.897 69.4879C139.118 67.582 137.014 66.3344 136.297 65.9092C136.263 65.8894 136.233 65.8714 136.206 65.8552C136.181 65.8407 136.159 65.8279 136.139 65.8163C135.848 65.6422 135.575 65.5133 135.288 65.3782C135.273 65.3708 135.257 65.3635 135.241 65.3561C134.939 65.2133 134.623 65.0612 134.272 64.8447C132.965 64.0396 131.875 63.4255 130.927 62.9009C130.752 62.8037 130.581 62.7089 130.415 62.6171C130.414 62.6168 130.414 62.6165 130.413 62.6162C129.683 62.2134 129.034 61.8564 128.434 61.4927C127.34 60.8296 126.572 60.4293 125.965 60.1323C125.775 60.0392 125.599 59.955 125.433 59.8757C125.073 59.7044 124.759 59.5548 124.447 59.3801C123.861 59.0515 123.3 58.783 122.749 58.5179C122.7 58.4942 122.651 58.4702 122.602 58.4466C122.004 58.1589 121.415 57.8705 120.823 57.5135C120.686 57.4307 120.675 57.1916 120.799 56.9805C120.923 56.7697 121.135 56.6661 121.273 56.7489C121.847 57.0957 122.422 57.3775 123.019 57.6652C123.069 57.6889 123.119 57.7123 123.168 57.7362C123.718 58.0006 124.288 58.2752 124.885 58.6099C125.186 58.7784 125.482 58.9197 125.835 59.0877C126.003 59.1678 126.185 59.254 126.385 59.3522C127 59.6537 127.779 60.0588 128.884 60.7283C129.477 61.0876 130.117 61.4406 130.847 61.8432C131.014 61.9356 131.187 62.0306 131.364 62.1289C132.314 62.6548 133.41 63.2723 134.724 64.0818C135.056 64.2864 135.355 64.4309 135.656 64.5732C135.673 64.5813 135.69 64.5893 135.707 64.5974C135.991 64.7313 136.279 64.8669 136.587 65.0509C136.629 65.0754 136.681 65.1071 136.744 65.1447C137.462 65.5705 139.575 66.8227 142.365 68.7355C142.373 68.7416 142.382 68.7476 142.391 68.7537C144.26 70.0354 145.315 70.7586 146.25 71.0698C146.988 71.3154 147.496 71.5717 147.905 71.7949C147.983 71.8375 148.057 71.8778 148.127 71.9166C148.43 72.0847 148.669 72.2174 148.934 72.3065C149.737 72.5761 150.402 72.6231 151.309 72.5092C152.079 72.4127 152.863 72.5552 153.55 72.6803C153.552 72.6804 153.553 72.6806 153.554 72.6808C153.635 72.6957 153.715 72.7105 153.794 72.7244ZM190.462 97.2965C190.595 97.3858 190.599 97.6267 190.471 97.835C190.343 98.0433 190.131 98.1401 189.997 98.0508C189.68 97.8377 189.362 97.6246 189.044 97.4115C188.911 97.3221 188.906 97.0812 189.034 96.873C189.163 96.6647 189.375 96.5679 189.508 96.6572C189.826 96.8703 190.144 97.0834 190.462 97.2965ZM155.508 68.6074C155.667 68.6462 155.72 68.8595 155.626 69.0829C155.532 69.3061 155.327 69.4553 155.168 69.4166C155.083 69.3961 154.943 69.3662 154.753 69.326C153.388 69.037 149.488 68.2119 145.879 66.4728C145.575 66.3263 145.301 66.1977 145.04 66.0752C143.924 65.5515 142.756 65.5794 140.763 64.3414C132.387 59.136 124.544 53.0647 115.725 48.6193C113.177 47.3354 110.736 45.8941 108.311 44.4058C106.289 43.1653 102.806 40.5223 101.956 39.9521C101.822 39.8627 101.818 39.621 101.947 39.4126C102.075 39.2044 102.287 39.1084 102.42 39.1978C103.265 39.764 106.735 42.3988 108.749 43.6347C111.17 45.1201 113.606 46.559 116.148 47.8404C124.978 52.2909 133.405 57.4604 141.791 62.6719C143.764 63.8978 144.34 64.7703 145.453 65.2921C145.715 65.4149 145.99 65.5438 146.297 65.6916C149.856 67.4063 153.695 68.2201 155.076 68.5131C155.272 68.5546 155.419 68.5858 155.508 68.6074ZM161.695 72.7921C163.261 73.6633 165.376 75.0854 167.224 76.3287C168.125 76.935 168.962 77.4994 169.642 77.9356C170.695 78.6115 171.259 79.2012 171.818 79.7862C171.824 79.7924 171.83 79.7986 171.836 79.8048C172.394 80.3894 172.955 80.9715 174.024 81.6582C175.103 82.3505 176.693 83.1465 178.298 83.9493C178.299 83.95 178.3 83.9507 178.301 83.9515C179.897 84.75 181.748 85.1766 182.845 85.8818C186.668 88.3392 188.748 90.3122 189.711 91.4553C191.396 93.4547 194.285 94.11 195.901 96.3265C196.019 96.6715 195.267 97.0038 194.927 96.571C194.914 96.5567 194.901 96.5424 194.888 96.5281C194.763 96.3929 194.652 96.2773 194.483 96.1356C194.227 95.9483 194.027 95.8248 193.844 95.7123C193.364 95.4173 190.105 93.2526 189.164 92.1363C188.25 91.0515 185.665 90.0245 181.818 87.5513C180.741 86.8592 179.479 85.5312 177.874 84.7284C177.87 84.7262 177.866 84.7239 177.861 84.7217C176.269 83.9248 174.662 83.1213 173.566 82.4174C172.458 81.7059 171.872 81.0965 171.306 80.5043C171.301 80.4984 171.295 80.4926 171.29 80.4867C170.736 79.9072 170.199 79.3448 169.184 78.6939C168.49 78.248 167.642 77.6782 166.735 77.068C164.895 75.8299 162.81 74.4265 161.257 73.5627C161.117 73.4847 161.102 73.2486 161.223 73.0358C161.343 72.8231 161.555 72.7142 161.695 72.7921ZM164.589 68.0905C169.401 69.8598 173.585 72.7193 177.29 76.1792C178.38 76.8791 179.89 77.875 181.397 78.8702C181.414 78.8817 181.431 78.8932 181.448 78.9048C182.939 79.8892 184.423 80.8692 185.497 81.5595C189.32 84.0169 191.641 85.6115 192.605 86.7546C193.503 87.8204 193.816 88.0116 194.279 88.296C194.292 88.304 194.304 88.312 194.316 88.32C194.318 88.3199 194.319 88.3198 194.32 88.3197C194.342 88.3196 194.359 88.3221 194.367 88.3239C194.384 88.3275 194.397 88.3325 194.401 88.3344C194.412 88.3388 194.421 88.3437 194.424 88.3454C194.436 88.3522 194.45 88.3607 194.458 88.3665C194.539 88.4204 194.784 88.6005 194.971 88.7563C195.162 88.9159 195.287 89.048 195.417 89.1894C195.431 89.2037 195.444 89.2181 195.457 89.2325C195.574 89.3601 195.702 89.4989 195.896 89.683C196.015 89.7952 195.995 90.0457 195.853 90.2427C195.71 90.4395 195.499 90.5082 195.381 90.3962C195.177 90.2025 195.041 90.0548 194.923 89.9266C194.91 89.9123 194.897 89.898 194.884 89.8837C194.759 89.7484 194.647 89.6327 194.478 89.4909C194.222 89.3037 194.022 89.1803 193.839 89.0679C193.36 88.7731 192.999 88.5511 192.058 87.4349C191.144 86.3501 188.887 84.791 185.039 82.3177C183.963 81.6261 182.477 80.6451 180.987 79.6615C180.97 79.65 180.952 79.6385 180.935 79.627C179.427 78.6313 177.92 77.6357 176.832 76.9374C172.593 74.2155 168.145 72.0374 164.152 68.8613C163.337 68.4082 162.603 67.9787 161.922 67.5804C159.918 66.4085 158.38 65.5097 156.649 65.0895C156.269 64.9974 155.383 64.5771 154.113 63.9526C153.74 63.7696 153.333 63.5673 152.892 63.3492C151.812 62.8144 150.532 62.1806 149.081 61.4815C148.777 61.3351 148.503 61.2064 148.242 61.084C147.126 60.5602 146.244 60.1475 144.252 58.9094C141.801 57.3862 137.78 54.6909 135.657 53.2056C134.593 52.4617 134.008 52.0155 133.6 51.6916C133.486 51.6014 133.387 51.5207 133.296 51.4471C133.057 51.2548 132.872 51.1059 132.618 50.9278C130.794 49.6452 129.408 48.9262 127.113 47.7876C126.97 47.7162 126.948 47.4836 127.064 47.2684C127.18 47.0533 127.392 46.9364 127.535 47.0076C129.833 48.1479 131.24 48.8777 133.09 50.1778C133.354 50.3638 133.553 50.5237 133.795 50.7193C133.885 50.7918 133.981 50.8694 134.089 50.955C134.491 51.2736 135.069 51.7152 136.127 52.4552C138.247 53.9378 142.262 56.6289 144.706 58.1474C146.678 59.3734 147.543 59.779 148.655 60.3009C148.917 60.4236 149.192 60.5523 149.499 60.7001C150.952 61.4001 152.235 62.0352 153.316 62.5703C153.756 62.7881 154.163 62.9897 154.534 63.172C155.83 63.809 156.664 64.2014 156.989 64.2803C158.781 64.7153 160.385 65.6536 162.407 66.8366C163.081 67.2306 163.801 67.6519 164.589 68.0905ZM119.351 42.8492C119.494 42.9215 119.515 43.1547 119.398 43.3695C119.281 43.5844 119.07 43.7001 118.926 43.6278C118.169 43.2463 117.621 42.9779 117.193 42.7684C116.4 42.3805 116.017 42.1933 115.476 41.8575C114.081 40.9908 112.729 40.1608 111.513 39.4145C109.491 38.1741 107.843 37.1633 106.992 36.593C106.859 36.5036 106.855 36.2619 106.983 36.0536C107.111 35.8455 107.323 35.7494 107.457 35.8387C108.301 36.4049 109.936 37.4085 111.951 38.6443C113.168 39.3915 114.525 40.2231 115.93 41.0953C116.454 41.421 116.815 41.5983 117.591 41.9775C118.019 42.1868 118.573 42.4574 119.351 42.8492ZM81.7987 56.3913C82.523 56.8742 83.5754 57.2137 84.2317 57.7912C84.2409 57.7993 84.2501 57.8074 84.2593 57.8155C84.5275 58.0516 84.7869 58.3153 85.1007 58.6343C85.1406 58.6749 85.1815 58.7168 85.2233 58.7593C85.5956 59.1369 86.0549 59.5976 86.7011 60.1914C88.8712 62.1856 91.0225 63.0278 91.6918 63.2896C93.034 63.8148 94.3343 64.5931 96.1085 65.6553C96.2707 65.7524 96.4365 65.8528 96.607 65.9547C96.7452 66.0372 96.7575 66.275 96.6343 66.4864C96.5109 66.6979 96.299 66.8025 96.1607 66.7199C95.9937 66.6201 95.831 66.5228 95.6724 66.4279C95.6717 66.4275 95.671 66.427 95.6703 66.4266C93.8849 65.3579 92.6127 64.5967 91.3021 64.0839C90.6183 63.8164 88.4146 62.9525 86.191 60.9092C85.5379 60.309 85.0729 59.8442 84.6983 59.4642C84.6573 59.4226 84.6176 59.3818 84.5787 59.3423C84.5778 59.3414 84.5769 59.3404 84.5761 59.3394C84.2602 59.0184 84.012 58.7655 83.7553 58.5395C83.7497 58.5349 83.7441 58.5303 83.7386 58.5256C83.0749 57.9415 82.0386 57.615 81.3362 57.1467C81.2022 57.0572 81.1971 56.8153 81.3248 56.6067C81.4525 56.3983 81.6646 56.3021 81.7987 56.3913ZM133.579 84.2276C134.466 84.3834 135.404 84.991 136.174 85.624C136.949 86.2616 137.583 86.9499 137.863 87.306C138.135 87.6541 138.503 87.9348 138.956 88.2448C139.06 88.3158 139.168 88.3884 139.28 88.4635C139.651 88.7116 140.063 88.9878 140.493 89.3287C142.071 90.581 143.181 91.2632 143.99 91.7238C144.156 91.8185 144.312 91.9049 144.458 91.9857C144.458 91.9859 144.459 91.986 144.459 91.9862C145.009 92.2914 145.42 92.5195 145.737 92.8288C146.303 93.3794 146.758 93.8398 147.245 94.4972C147.918 95.4038 149.218 96.1284 150.199 96.3757C150.253 96.3893 150.308 96.4026 150.364 96.4166C151.076 96.5947 151.952 96.8143 153.164 97.3145C154.17 97.73 154.967 98.2256 155.654 98.6939C155.851 98.8282 156.036 98.9595 156.215 99.085C156.667 99.4018 157.071 99.6855 157.478 99.908C160.005 101.288 161.343 102.282 162.112 103.027C162.702 103.6 162.963 104.035 163.15 104.35C163.207 104.445 163.257 104.529 163.308 104.603C163.759 105.256 164.252 105.725 164.846 106.289C164.978 106.415 165.115 106.545 165.257 106.683C165.733 107.143 166.158 107.37 166.513 107.511C166.668 107.572 166.81 107.618 166.944 107.661C166.947 107.662 166.949 107.662 166.952 107.663C166.971 107.669 166.989 107.675 167.007 107.681C167.021 107.686 167.035 107.689 167.049 107.694C167.056 107.693 167.062 107.693 167.067 107.693C167.07 107.692 167.073 107.692 167.075 107.692C167.075 107.692 167.076 107.692 167.076 107.692C167.108 107.691 167.131 107.697 167.136 107.699C167.144 107.701 167.151 107.704 167.155 107.705C167.174 107.712 167.197 107.723 167.212 107.731C167.251 107.75 167.318 107.786 167.42 107.843C167.514 107.885 167.609 107.917 167.728 107.957C167.736 107.959 167.743 107.961 167.751 107.964C167.867 108.002 168.003 108.048 168.169 108.113C168.32 108.171 168.355 108.396 168.248 108.616C168.141 108.835 167.931 108.965 167.78 108.906C167.624 108.845 167.497 108.803 167.38 108.765C167.373 108.762 167.366 108.76 167.358 108.757C167.237 108.717 167.122 108.679 167.005 108.626C166.966 108.609 166.927 108.589 166.89 108.571C166.821 108.542 166.739 108.515 166.641 108.483C166.621 108.477 166.601 108.47 166.58 108.463C166.447 108.42 166.291 108.371 166.122 108.304C165.726 108.147 165.257 107.894 164.739 107.393C164.603 107.262 164.471 107.136 164.341 107.013C163.745 106.447 163.215 105.944 162.735 105.25C162.67 105.155 162.611 105.056 162.548 104.951C162.362 104.639 162.139 104.267 161.593 103.737C160.861 103.027 159.558 102.053 157.045 100.681C156.617 100.447 156.186 100.145 155.727 99.8225C155.552 99.6995 155.372 99.5742 155.187 99.4481C154.511 98.987 153.739 98.5072 152.767 98.106C151.583 97.617 150.731 97.403 150.022 97.2255C149.997 97.2196 149.973 97.2137 149.948 97.2078C149.918 97.2002 149.888 97.1926 149.858 97.1851C148.812 96.9216 147.425 96.1575 146.682 95.156C146.215 94.5275 145.78 94.0862 145.218 93.5386C144.942 93.2693 144.591 93.0744 144.051 92.7748C143.9 92.6908 143.734 92.5976 143.551 92.4931C142.727 92.0243 141.6 91.332 140.004 90.0657C139.588 89.7356 139.194 89.4713 138.825 89.2246C138.711 89.148 138.599 89.0725 138.489 88.9978C138.034 88.6864 137.621 88.3777 137.306 87.9753C137.047 87.6446 136.434 86.9767 135.68 86.3567C134.92 85.7321 134.047 85.1804 133.268 85.0434C133.187 85.0291 133.105 85.0142 133.024 84.9996C132.322 84.8734 131.607 84.7448 130.917 84.8318C127.419 85.8873 124.153 82.712 121.731 81.0604C121.699 81.0387 121.668 81.017 121.636 80.9953C118.84 79.0892 116.726 77.8416 116.005 77.4164C115.971 77.3966 115.941 77.3786 115.913 77.3624C115.889 77.3479 115.866 77.3351 115.847 77.3235C115.553 77.1494 115.279 77.0205 114.991 76.8855C114.976 76.8781 114.96 76.8708 114.944 76.8634C114.64 76.7206 114.323 76.5685 113.97 76.352C112.656 75.5469 111.56 74.9329 110.607 74.4083C110.431 74.3112 110.26 74.2163 110.093 74.1246C110.092 74.1243 110.092 74.124 110.091 74.1237C109.357 73.7209 108.705 73.3639 108.102 73.0003C107.002 72.3371 106.229 71.9369 105.62 71.64C105.429 71.5469 105.252 71.4627 105.085 71.3835C104.724 71.2122 104.408 71.0627 104.094 70.888C103.505 70.5594 102.942 70.291 102.388 70.0259C102.339 70.0023 102.29 69.9783 102.241 69.9547C101.64 69.667 101.048 69.3787 100.453 69.0217C100.315 68.9389 100.303 68.6995 100.427 68.4882C100.55 68.2771 100.762 68.1732 100.9 68.256C101.478 68.6028 102.056 68.8846 102.656 69.1722C102.706 69.1959 102.756 69.2193 102.805 69.2431C103.358 69.5075 103.93 69.7821 104.531 70.1167C104.833 70.2851 105.131 70.4265 105.485 70.5944C105.655 70.6745 105.837 70.7607 106.038 70.8588C106.656 71.1602 107.439 71.5652 108.55 72.2348C109.146 72.5941 109.789 72.947 110.523 73.3496C110.691 73.4419 110.864 73.5369 111.043 73.6352C111.998 74.1611 113.099 74.7786 114.42 75.5881C114.754 75.7927 115.055 75.9372 115.357 76.0794C115.374 76.0875 115.391 76.0955 115.408 76.1036C115.693 76.2375 115.983 76.373 116.293 76.557C116.334 76.5816 116.387 76.6132 116.45 76.6508C117.172 77.0766 119.296 78.3287 122.102 80.2418C122.11 80.2479 122.119 80.2539 122.127 80.26C124.007 81.5419 125.068 82.2651 126.007 82.5761C126.749 82.8215 127.259 83.0777 127.67 83.3009C127.748 83.3435 127.823 83.3837 127.893 83.4226C128.197 83.5906 128.438 83.7234 128.704 83.8124C129.511 84.0818 130.177 84.1284 131.087 84.0138C131.858 83.9167 132.646 84.0588 133.335 84.1836C133.336 84.1838 133.337 84.184 133.338 84.1842C133.42 84.199 133.501 84.2137 133.579 84.2276ZM170.452 108.802C170.586 108.892 170.591 109.133 170.464 109.341C170.336 109.55 170.123 109.647 169.989 109.558C169.67 109.344 169.35 109.131 169.031 108.918C168.897 108.829 168.891 108.588 169.019 108.379C169.147 108.171 169.359 108.074 169.493 108.163C169.813 108.376 170.132 108.589 170.452 108.802ZM135.282 80.1053C135.442 80.144 135.496 80.3575 135.402 80.5812C135.309 80.8047 135.104 80.9542 134.944 80.9155C134.859 80.8951 134.718 80.8652 134.527 80.8251C133.157 80.5367 129.243 79.7131 125.617 77.9745C125.311 77.8281 125.036 77.6995 124.774 77.5771C123.652 77.0536 122.481 77.0821 120.478 75.8442C112.056 70.6386 104.166 64.5659 95.3036 60.1215C92.7439 58.8379 90.2899 57.3966 87.8511 55.9083C85.8185 54.6678 82.3156 52.0242 81.4602 51.4539C81.326 51.3645 81.321 51.1226 81.4488 50.9139C81.5765 50.7054 81.7886 50.6092 81.9227 50.6985C82.772 51.2648 86.2629 53.9002 88.2879 55.1361C90.722 56.6215 93.1707 58.0604 95.7254 59.3415C104.598 63.7911 113.07 68.9607 121.501 74.1722C123.485 75.3982 124.067 76.2712 125.184 76.7929C125.447 76.9156 125.724 77.0445 126.033 77.1922C129.608 78.9065 133.462 79.7187 134.848 80.0111C135.045 80.0525 135.192 80.0837 135.282 80.1053ZM141.503 84.2904C143.077 85.1616 145.204 86.5838 147.062 87.8272C147.968 88.4336 148.811 88.998 149.494 89.4343C150.553 90.1102 151.121 90.7002 151.683 91.2854C151.689 91.2916 151.696 91.2978 151.702 91.3041C152.264 91.8889 152.829 92.4712 153.904 93.158C154.988 93.8504 156.587 94.6461 158.199 95.4487C158.2 95.4495 158.201 95.4502 158.202 95.4509C159.806 96.2493 161.664 96.6751 162.767 97.3804C166.611 99.8379 168.705 101.812 169.675 102.955C171.373 104.956 174.273 105.61 175.903 107.828C176.022 108.173 175.269 108.506 174.927 108.073C174.914 108.059 174.901 108.045 174.888 108.03C174.762 107.895 174.65 107.779 174.48 107.638C174.222 107.45 174.021 107.327 173.837 107.214C173.355 106.919 170.077 104.754 169.129 103.637C168.208 102.552 165.612 101.526 161.743 99.0523C160.661 98.3601 159.39 97.0316 157.777 96.2289C157.773 96.2267 157.769 96.2245 157.764 96.2223C156.164 95.4255 154.55 94.6222 153.447 93.9182C152.333 93.2067 151.743 92.5971 151.173 92.0046C151.168 91.9987 151.162 91.9929 151.157 91.987C150.6 91.4072 150.058 90.8446 149.038 90.1936C148.339 89.7477 147.487 89.1779 146.575 88.5676C144.725 87.3294 142.628 85.9259 141.068 85.0621C140.927 84.9841 140.91 84.7478 141.031 84.5347C141.151 84.3217 141.362 84.2126 141.503 84.2904ZM144.386 79.5821C149.219 81.3502 153.427 84.21 157.156 87.6712C158.253 88.3711 159.771 89.3672 161.286 90.3625C161.303 90.374 161.32 90.3855 161.337 90.397C162.836 91.3815 164.329 92.3616 165.409 93.0519C169.253 95.5095 171.587 97.1043 172.558 98.2479C173.463 99.3143 173.778 99.5055 174.243 99.7899C174.256 99.7979 174.268 99.8059 174.281 99.8139C174.282 99.8138 174.283 99.8137 174.285 99.8136C174.307 99.8135 174.323 99.816 174.332 99.8178C174.349 99.8213 174.361 99.8264 174.366 99.8283C174.377 99.8327 174.385 99.8376 174.389 99.8393C174.401 99.846 174.415 99.8546 174.424 99.8604C174.504 99.9143 174.751 100.094 174.939 100.25C175.131 100.41 175.257 100.542 175.389 100.683C175.402 100.698 175.415 100.712 175.428 100.727C175.547 100.854 175.676 100.993 175.871 101.177C175.99 101.29 175.971 101.54 175.829 101.738C175.687 101.935 175.476 102.004 175.357 101.892C175.152 101.698 175.015 101.55 174.896 101.422C174.882 101.407 174.869 101.393 174.856 101.379C174.73 101.244 174.618 101.128 174.448 100.986C174.19 100.799 173.989 100.675 173.806 100.563C173.324 100.268 172.961 100.046 172.013 98.9293C171.092 97.844 168.822 96.2846 164.953 93.8112C163.871 93.1196 162.377 92.1385 160.879 91.1548C160.861 91.1433 160.843 91.1318 160.826 91.1203C159.309 90.1245 157.794 89.1289 156.7 88.4305C152.438 85.7085 147.969 83.5309 143.951 80.354C143.133 79.901 142.394 79.4714 141.709 79.0732C139.695 77.9014 138.149 77.0025 136.411 76.583C136.031 76.491 135.14 76.0708 133.863 75.4465C133.489 75.2636 133.08 75.0613 132.637 74.8432C131.551 74.3086 130.265 73.6749 128.808 72.9761C128.502 72.8296 128.227 72.701 127.965 72.5786C126.843 72.0551 125.957 71.6424 123.954 70.4043C121.489 68.881 117.447 66.1855 115.311 64.7C114.241 63.956 113.653 63.5097 113.242 63.1857C113.128 63.0955 113.028 63.0147 112.936 62.9411C112.696 62.7488 112.51 62.5999 112.255 62.4217C110.42 61.1389 109.027 60.42 106.721 59.2818C106.577 59.2104 106.554 58.9775 106.67 58.7621C106.785 58.5466 106.997 58.4295 107.141 58.5007C109.45 59.6407 110.865 60.3704 112.725 61.6707C112.991 61.8567 113.19 62.0166 113.434 62.2123C113.525 62.2848 113.621 62.3625 113.73 62.448C114.134 62.7667 114.716 63.2084 115.78 63.9485C117.912 65.4314 121.949 68.1226 124.406 69.6413C126.389 70.8672 127.258 71.2727 128.375 71.7944C128.638 71.9171 128.915 72.0458 129.223 72.1936C130.683 72.8934 131.973 73.5284 133.059 74.0633C133.501 74.2811 133.91 74.4826 134.282 74.6648C135.585 75.3017 136.423 75.694 136.749 75.7728C138.548 76.2071 140.161 77.1453 142.194 78.3283C142.87 78.7223 143.594 79.1436 144.386 79.5821ZM98.9162 54.3431C99.0602 54.4153 99.0822 54.6488 98.9657 54.864C98.8492 55.0791 98.6381 55.195 98.4941 55.1228C97.7333 54.7413 97.1828 54.4731 96.7523 54.2635C95.9555 53.8757 95.5703 53.6886 95.0268 53.3528C93.6237 52.4861 92.2648 51.6561 91.042 50.9098C89.0094 49.6693 87.3527 48.6585 86.4973 48.0882C86.3632 47.9988 86.3582 47.7568 86.4859 47.5482C86.6137 47.3398 86.8258 47.2435 86.9599 47.3328C87.8092 47.8991 89.4532 48.9027 91.4782 50.1385C92.7025 50.8857 94.0665 51.7173 95.4783 52.5895C96.0054 52.9152 96.3688 53.0925 97.1479 53.4716C97.578 53.6809 98.1352 53.9514 98.9162 54.3431ZM62.7733 68.8846C63.4936 69.3674 64.5416 69.7071 65.1937 70.2845C65.2028 70.2926 65.212 70.3007 65.2211 70.3088C65.4876 70.5448 65.7452 70.8084 66.0568 71.1272C66.0965 71.1678 66.137 71.2097 66.1786 71.2522C66.5483 71.6297 67.0044 72.0901 67.6464 72.6838C69.8022 74.6772 71.944 75.5199 72.6103 75.7819C73.9466 76.3073 75.24 77.0857 77.0048 78.1478C77.1662 78.2449 77.3311 78.3453 77.5007 78.4472C77.6382 78.5298 77.6495 78.7673 77.5257 78.9784C77.4019 79.1896 77.1901 79.2939 77.0526 79.2114C76.8865 79.1116 76.7246 79.0143 76.5669 78.9194C76.5662 78.9189 76.5654 78.9185 76.5647 78.9181C74.7887 77.8494 73.5233 77.0882 72.2185 76.5751C71.5377 76.3074 69.3438 75.4431 67.1348 73.4005C66.486 72.8005 66.0242 72.3359 65.6522 71.9561C65.6115 71.9145 65.572 71.8737 65.5335 71.8342C65.5326 71.8333 65.5317 71.8323 65.5308 71.8313C65.2171 71.5105 64.9706 71.2576 64.7156 71.0317C64.7101 71.0271 64.7045 71.0225 64.699 71.0179C64.0396 70.434 63.0076 70.1071 62.3091 69.6389C62.1758 69.5494 62.1717 69.3077 62.2999 69.0994C62.4281 68.8913 62.64 68.7954 62.7733 68.8846ZM114.294 96.7244C115.177 96.8806 116.11 97.4881 116.875 98.121C117.645 98.7583 118.275 99.4463 118.552 99.8022C118.823 100.15 119.188 100.431 119.639 100.741C119.742 100.812 119.85 100.884 119.961 100.959C120.33 101.207 120.74 101.484 121.167 101.824C122.736 103.076 123.84 103.759 124.644 104.219C124.81 104.314 124.965 104.4 125.11 104.481C125.11 104.481 125.111 104.482 125.111 104.482C125.659 104.787 126.067 105.015 126.382 105.324C126.944 105.875 127.396 106.335 127.879 106.992C128.546 107.898 129.839 108.623 130.817 108.87C130.87 108.884 130.926 108.897 130.981 108.911C131.69 109.09 132.564 109.31 133.769 109.81C134.771 110.226 135.563 110.721 136.247 111.189C136.442 111.324 136.627 111.455 136.805 111.581C137.254 111.897 137.656 112.181 138.061 112.403C140.575 113.783 141.905 114.777 142.669 115.522C143.255 116.094 143.513 116.53 143.699 116.844C143.755 116.939 143.805 117.024 143.855 117.097C144.302 117.75 144.792 118.219 145.382 118.783C145.513 118.908 145.649 119.038 145.79 119.176C146.263 119.636 146.686 119.863 147.039 120.004C147.194 120.065 147.335 120.111 147.469 120.154C147.471 120.155 147.474 120.156 147.476 120.156C147.495 120.162 147.513 120.169 147.531 120.174C147.545 120.179 147.56 120.183 147.573 120.187C147.58 120.186 147.586 120.186 147.591 120.186C147.594 120.186 147.597 120.186 147.599 120.186C147.599 120.186 147.599 120.185 147.6 120.185C147.632 120.185 147.655 120.191 147.66 120.192C147.668 120.194 147.675 120.197 147.678 120.198C147.697 120.205 147.72 120.216 147.735 120.224C147.774 120.244 147.841 120.28 147.942 120.337C148.036 120.379 148.131 120.41 148.249 120.45C148.257 120.452 148.264 120.455 148.272 120.457C148.388 120.496 148.523 120.542 148.688 120.606C148.838 120.665 148.873 120.89 148.765 121.109C148.657 121.328 148.448 121.458 148.297 121.399C148.142 121.338 148.015 121.296 147.899 121.257C147.892 121.255 147.884 121.252 147.877 121.25C147.756 121.21 147.642 121.171 147.526 121.119C147.487 121.101 147.447 121.082 147.411 121.063C147.342 121.034 147.261 121.007 147.163 120.975C147.143 120.969 147.123 120.962 147.103 120.955C146.969 120.913 146.814 120.863 146.646 120.796C146.252 120.639 145.785 120.386 145.271 119.885C145.136 119.754 145.004 119.628 144.876 119.505C144.284 118.939 143.757 118.436 143.282 117.743C143.216 117.648 143.158 117.549 143.096 117.444C142.912 117.133 142.691 116.76 142.149 116.231C141.422 115.522 140.126 114.547 137.626 113.175C137.2 112.942 136.772 112.639 136.315 112.317C136.141 112.194 135.962 112.069 135.778 111.943C135.106 111.482 134.338 111.002 133.371 110.6C132.192 110.111 131.343 109.897 130.637 109.719C130.612 109.713 130.588 109.707 130.563 109.701C130.533 109.694 130.503 109.686 130.473 109.679C129.432 109.415 128.051 108.651 127.315 107.65C126.852 107.021 126.42 106.58 125.862 106.033C125.587 105.764 125.238 105.569 124.701 105.269C124.551 105.185 124.386 105.092 124.203 104.988C123.384 104.519 122.263 103.826 120.677 102.56C120.263 102.23 119.871 101.966 119.505 101.719C119.391 101.643 119.279 101.567 119.17 101.493C118.718 101.181 118.308 100.873 117.995 100.471C117.737 100.14 117.129 99.4724 116.38 98.8525C115.625 98.2282 114.756 97.6764 113.98 97.5391C113.899 97.5248 113.818 97.5099 113.737 97.4952C113.038 97.3687 112.325 97.2397 111.636 97.3262C108.144 98.3785 104.9 95.2044 102.492 93.5531C102.461 93.5313 102.429 93.5096 102.397 93.4879C99.6175 91.582 97.5139 90.3344 96.7969 89.9092C96.7634 89.8894 96.7329 89.8714 96.7056 89.8552C96.6812 89.8407 96.6589 89.8279 96.6395 89.8163C96.3479 89.6422 96.0747 89.5133 95.7884 89.3782C95.7728 89.3708 95.7571 89.3635 95.7415 89.3561C95.4391 89.2133 95.123 89.0612 94.7717 88.8447C93.4653 88.0396 92.3747 87.4255 91.4271 86.9009C91.2516 86.8037 91.0813 86.7089 90.9148 86.6171C90.9143 86.6168 90.9139 86.6165 90.9134 86.6162C90.1828 86.2134 89.5344 85.8564 88.9342 85.4927C87.8398 84.8296 87.0716 84.4293 86.4654 84.1323C86.2752 84.0392 86.0991 83.955 85.9327 83.8757C85.5729 83.7044 85.2586 83.5548 84.9469 83.3801C84.3605 83.0515 83.8004 82.783 83.249 82.5179C83.1998 82.4942 83.151 82.4702 83.102 82.4466C82.5045 82.1589 81.9148 81.8705 81.3231 81.5135C81.1857 81.4307 81.1752 81.1916 81.2992 80.9805C81.4233 80.7697 81.6352 80.6661 81.7725 80.7489C82.3473 81.0957 82.9221 81.3775 83.5195 81.6652C83.5687 81.6889 83.6185 81.7123 83.6681 81.7362C84.2181 82.0006 84.7878 82.2752 85.385 82.6099C85.6855 82.7784 85.9823 82.9197 86.335 83.0877C86.5033 83.1678 86.6846 83.254 86.885 83.3522C87.5004 83.6537 88.279 84.0588 89.384 84.7283C89.977 85.0876 90.6167 85.4406 91.3468 85.8432C91.5144 85.9356 91.6867 86.0306 91.8643 86.1289C92.8144 86.6548 93.9104 87.2723 95.224 88.0818C95.5559 88.2864 95.8553 88.4309 96.1565 88.5732C96.1733 88.5813 96.1901 88.5893 96.207 88.5974C96.4907 88.7313 96.7795 88.8669 97.0874 89.0509C97.1286 89.0754 97.181 89.1071 97.2443 89.1447C97.9624 89.5705 100.075 90.8227 102.865 92.7355C102.873 92.7416 102.882 92.7476 102.891 92.7537C104.76 94.0354 105.815 94.7586 106.75 95.0698C107.488 95.3154 107.996 95.5717 108.405 95.7949C108.483 95.8375 108.557 95.8778 108.627 95.9166C108.93 96.0847 109.169 96.2174 109.434 96.3065C110.237 96.5761 110.902 96.6231 111.809 96.5092C112.579 96.4127 113.363 96.5552 114.05 96.6803C114.052 96.6804 114.053 96.6806 114.054 96.6808C114.135 96.6957 114.215 96.7105 114.294 96.7244ZM150.962 121.296C151.095 121.386 151.099 121.627 150.971 121.835C150.843 122.043 150.631 122.14 150.497 122.051C150.18 121.838 149.862 121.625 149.544 121.412C149.411 121.322 149.406 121.081 149.534 120.873C149.663 120.665 149.875 120.568 150.008 120.657C150.326 120.87 150.644 121.083 150.962 121.296ZM116.008 92.6074C116.167 92.6462 116.22 92.8595 116.126 93.0829C116.032 93.3061 115.827 93.4553 115.668 93.4166C115.583 93.3961 115.443 93.3662 115.253 93.326C113.888 93.037 109.988 92.2119 106.379 90.4728C106.075 90.3263 105.801 90.1977 105.54 90.0752C104.424 89.5515 103.256 89.5794 101.263 88.3414C92.8866 83.136 85.0439 77.0647 76.2246 72.6193C73.6775 71.3354 71.2363 69.8941 68.8105 68.4058C66.7887 67.1653 63.3064 64.5223 62.4558 63.9521C62.3224 63.8627 62.3183 63.621 62.4466 63.4126C62.5749 63.2044 62.7867 63.1084 62.9201 63.1978C63.7647 63.764 67.2349 66.3988 69.2492 67.6347C71.6703 69.1201 74.1062 70.559 76.6484 71.8404C85.4779 76.2909 93.9045 81.4604 102.291 86.6719C104.264 87.8978 104.84 88.7703 105.953 89.2921C106.215 89.4149 106.49 89.5438 106.797 89.6916C110.356 91.4063 114.195 92.2201 115.576 92.5131C115.772 92.5546 115.919 92.5858 116.008 92.6074ZM122.195 96.7921C123.761 97.6633 125.876 99.0854 127.724 100.329C128.625 100.935 129.462 101.499 130.142 101.936C131.195 102.612 131.759 103.201 132.318 103.786C132.324 103.792 132.33 103.799 132.336 103.805C132.894 104.389 133.455 104.971 134.524 105.658C135.603 106.351 137.193 107.146 138.798 107.949C138.799 107.95 138.8 107.951 138.801 107.951C140.397 108.75 142.248 109.177 143.345 109.882C147.168 112.339 149.248 114.312 150.211 115.455C151.896 117.455 154.785 118.11 156.401 120.327C156.519 120.671 155.767 121.004 155.427 120.571C155.414 120.557 155.401 120.542 155.388 120.528C155.263 120.393 155.152 120.277 154.983 120.136C154.727 119.948 154.527 119.825 154.344 119.712C153.864 119.417 150.605 117.253 149.664 116.136C148.75 115.052 146.165 114.024 142.318 111.551C141.241 110.859 139.979 109.531 138.374 108.728C138.37 108.726 138.366 108.724 138.361 108.722C136.769 107.925 135.162 107.121 134.066 106.417C132.958 105.706 132.372 105.097 131.806 104.504C131.801 104.498 131.795 104.493 131.79 104.487C131.236 103.907 130.699 103.345 129.684 102.694C128.99 102.248 128.142 101.678 127.235 101.068C125.395 99.8299 123.31 98.4265 121.757 97.5627C121.617 97.4847 121.602 97.2486 121.723 97.0358C121.843 96.8231 122.055 96.7142 122.195 96.7921ZM125.089 92.0905C129.901 93.8598 134.085 96.7193 137.79 100.179C138.88 100.879 140.39 101.875 141.897 102.87C141.914 102.882 141.931 102.893 141.948 102.905C143.439 103.889 144.923 104.869 145.997 105.559C149.82 108.017 152.141 109.612 153.105 110.755C154.003 111.82 154.316 112.012 154.779 112.296C154.792 112.304 154.804 112.312 154.816 112.32C154.818 112.32 154.819 112.32 154.82 112.32C154.842 112.32 154.859 112.322 154.867 112.324C154.884 112.327 154.897 112.333 154.901 112.334C154.912 112.339 154.921 112.344 154.924 112.345C154.936 112.352 154.95 112.361 154.958 112.366C155.039 112.42 155.284 112.601 155.471 112.756C155.662 112.916 155.787 113.048 155.917 113.189C155.931 113.204 155.944 113.218 155.957 113.232C156.074 113.36 156.202 113.499 156.396 113.683C156.515 113.795 156.495 114.046 156.353 114.243C156.21 114.44 155.999 114.508 155.881 114.396C155.677 114.203 155.541 114.055 155.423 113.927C155.41 113.912 155.397 113.898 155.384 113.884C155.259 113.748 155.147 113.633 154.978 113.491C154.722 113.304 154.522 113.18 154.339 113.068C153.86 112.773 153.499 112.551 152.558 111.435C151.644 110.35 149.387 108.791 145.539 106.318C144.463 105.626 142.977 104.645 141.487 103.661C141.47 103.65 141.452 103.638 141.435 103.627C139.927 102.631 138.42 101.636 137.332 100.937C133.093 98.2155 128.645 96.0374 124.652 92.8613C123.837 92.4082 123.103 91.9787 122.422 91.5804C120.418 90.4085 118.88 89.5097 117.149 89.0895C116.769 88.9974 115.883 88.5771 114.613 87.9526C114.24 87.7696 113.833 87.5673 113.392 87.3492C112.312 86.8144 111.032 86.1806 109.581 85.4815C109.277 85.3351 109.003 85.2064 108.742 85.084C107.626 84.5602 106.744 84.1475 104.752 82.9094C102.301 81.3862 98.2801 78.6909 96.1565 77.2056C95.093 76.4617 94.5084 76.0155 94.1 75.6916C93.9862 75.6014 93.887 75.5207 93.7957 75.4471C93.5572 75.2548 93.3718 75.1059 93.1184 74.9278C91.2938 73.6452 89.9079 72.9262 87.6134 71.7876C87.4696 71.7162 87.4476 71.4836 87.5639 71.2684C87.6804 71.0533 87.8915 70.9364 88.0354 71.0076C90.3332 72.1479 91.7404 72.8777 93.5899 74.1778C93.8544 74.3638 94.0527 74.5237 94.2954 74.7193C94.3854 74.7918 94.4814 74.8694 94.5893 74.955C94.991 75.2736 95.5693 75.7152 96.6273 76.4552C98.7471 77.9378 102.762 80.6289 105.206 82.1474C107.178 83.3734 108.043 83.779 109.155 84.3009C109.417 84.4236 109.692 84.5523 109.999 84.7001C111.452 85.4001 112.735 86.0352 113.816 86.5703C114.256 86.7881 114.663 86.9897 115.034 87.172C116.33 87.809 117.164 88.2014 117.489 88.2803C119.281 88.7153 120.885 89.6536 122.907 90.8366C123.581 91.2306 124.301 91.6519 125.089 92.0905ZM79.8505 66.8492C79.9938 66.9215 80.0148 67.1547 79.8978 67.3695C79.7807 67.5844 79.5697 67.7001 79.4264 67.6278C78.6693 67.2463 78.1215 66.9779 77.6931 66.7684C76.9001 66.3805 76.5167 66.1933 75.9761 65.8575C74.5806 64.9908 73.2289 64.1608 72.0126 63.4145C69.9908 62.1741 68.343 61.1633 67.4923 60.593C67.359 60.5036 67.3549 60.2619 67.4832 60.0536C67.6114 59.8455 67.8233 59.7494 67.9566 59.8387C68.8013 60.4049 70.4365 61.4085 72.4507 62.6443C73.6685 63.3915 75.0252 64.2231 76.4295 65.0953C76.9538 65.421 77.3154 65.5983 78.0908 65.9775C78.5188 66.1868 79.0733 66.4574 79.8505 66.8492ZM42.3309 80.9078C43.063 81.3946 44.125 81.7388 44.7892 82.3204C44.7985 82.3285 44.8078 82.3367 44.8171 82.3449C45.0886 82.5825 45.3513 82.8479 45.6691 83.1689C45.7096 83.2097 45.7509 83.2519 45.7933 83.2946C46.1703 83.6747 46.6354 84.1383 47.2896 84.7361C49.4862 86.7435 51.6579 87.5959 52.3335 87.861C53.6885 88.3924 55.0025 89.1776 56.7954 90.2491C56.9593 90.3471 57.1268 90.4484 57.2992 90.5512C57.4389 90.6345 57.4524 90.8729 57.3294 91.0844C57.2063 91.296 56.9933 91.4001 56.8536 91.3168C56.6848 91.2161 56.5204 91.118 56.3602 91.0222C56.3594 91.0218 56.3587 91.0214 56.358 91.0209C54.5537 89.9428 53.2682 89.1749 51.9451 88.6559C51.2548 88.3851 49.0303 87.5109 46.7795 85.4539C46.1184 84.8497 45.6474 84.382 45.2681 83.9996C45.2266 83.9577 45.1863 83.9166 45.147 83.8769C45.1461 83.876 45.1452 83.875 45.1443 83.874C44.8244 83.551 44.573 83.2964 44.3132 83.0689C44.3076 83.0643 44.3019 83.0596 44.2963 83.055C43.6246 82.4669 42.579 82.1357 41.8689 81.6635C41.7334 81.5733 41.727 81.3307 41.8546 81.122C41.9821 80.9135 42.1953 80.8178 42.3309 80.9078ZM94.6416 109.009C95.5355 109.168 96.4836 109.781 97.2625 110.419C98.0467 111.061 98.6895 111.753 98.9727 112.111C99.2495 112.461 99.6208 112.744 100.079 113.057C100.184 113.128 100.294 113.201 100.407 113.277C100.782 113.527 101.198 113.806 101.633 114.149C103.23 115.411 104.352 116.099 105.169 116.563C105.337 116.659 105.494 116.746 105.642 116.828C105.642 116.828 105.642 116.828 105.642 116.828C106.199 117.136 106.613 117.366 106.935 117.678C107.507 118.232 107.968 118.695 108.463 119.356C109.145 120.268 110.458 120.999 111.448 121.251C111.502 121.264 111.558 121.278 111.615 121.292C112.333 121.473 113.217 121.697 114.44 122.203C115.456 122.623 116.261 123.123 116.955 123.595C117.155 123.73 117.343 123.863 117.523 123.989C117.98 124.309 118.388 124.595 118.8 124.819C121.353 126.212 122.706 127.213 123.484 127.963C124.082 128.54 124.347 128.978 124.538 129.294C124.595 129.389 124.646 129.474 124.697 129.548C125.155 130.205 125.655 130.677 126.256 131.245C126.389 131.371 126.528 131.502 126.672 131.641C127.154 132.104 127.583 132.333 127.942 132.475C128.099 132.538 128.242 132.584 128.377 132.628C128.379 132.628 128.382 132.629 128.385 132.63C128.403 132.636 128.422 132.642 128.441 132.648C128.455 132.653 128.469 132.656 128.483 132.661C128.49 132.66 128.496 132.66 128.5 132.66C128.504 132.66 128.507 132.66 128.508 132.66C128.509 132.66 128.509 132.659 128.51 132.659C128.542 132.659 128.565 132.665 128.57 132.666C128.579 132.668 128.585 132.671 128.589 132.673C128.608 132.679 128.632 132.691 128.647 132.698C128.686 132.718 128.754 132.755 128.857 132.812C128.952 132.854 129.048 132.887 129.168 132.927C129.176 132.929 129.183 132.932 129.191 132.934C129.308 132.973 129.445 133.02 129.613 133.085C129.765 133.144 129.802 133.37 129.695 133.59C129.588 133.809 129.378 133.939 129.226 133.879C129.068 133.818 128.939 133.775 128.822 133.736C128.815 133.733 128.807 133.731 128.8 133.729C128.677 133.688 128.561 133.649 128.443 133.596C128.404 133.578 128.364 133.559 128.327 133.54C128.257 133.511 128.175 133.483 128.076 133.451C128.056 133.444 128.036 133.437 128.015 133.431C127.88 133.387 127.722 133.337 127.552 133.269C127.152 133.11 126.678 132.856 126.154 132.351C126.016 132.219 125.882 132.092 125.751 131.968C125.148 131.399 124.611 130.892 124.124 130.195C124.057 130.099 123.998 130 123.934 129.894C123.745 129.581 123.519 129.207 122.966 128.673C122.224 127.959 120.906 126.977 118.368 125.593C117.935 125.357 117.5 125.052 117.036 124.727C116.858 124.603 116.676 124.477 116.489 124.35C115.805 123.885 115.026 123.401 114.045 122.995C112.849 122.5 111.989 122.283 111.274 122.102C111.25 122.096 111.225 122.09 111.2 122.084C111.169 122.076 111.139 122.069 111.109 122.061C110.054 121.793 108.652 121.022 107.899 120.015C107.425 119.383 106.985 118.939 106.416 118.388C106.136 118.117 105.781 117.92 105.236 117.618C105.083 117.533 104.916 117.439 104.73 117.333C103.898 116.86 102.759 116.162 101.145 114.886C100.724 114.554 100.325 114.287 99.9527 114.039C99.837 113.961 99.7236 113.885 99.6131 113.81C99.1526 113.496 98.7354 113.185 98.4155 112.78C98.1525 112.448 97.5315 111.776 96.7687 111.151C96.0004 110.522 95.1176 109.966 94.3319 109.826C94.2502 109.811 94.1681 109.796 94.086 109.781C93.3787 109.652 92.6576 109.52 91.9622 109.605C88.4445 110.65 85.1374 107.455 82.6889 105.79C82.6568 105.768 82.6247 105.746 82.5925 105.724C79.7663 103.803 77.6294 102.544 76.901 102.115C76.867 102.095 76.8361 102.077 76.8083 102.06C76.7835 102.046 76.7609 102.033 76.7411 102.021C76.4449 101.846 76.1677 101.715 75.8772 101.579C75.8613 101.571 75.8455 101.564 75.8296 101.557C75.5227 101.412 75.202 101.259 74.845 101.04C73.5177 100.228 72.4102 99.6084 71.4478 99.0789C71.2697 98.9809 71.0967 98.8852 70.9277 98.7925C70.9272 98.7922 70.9267 98.7919 70.9262 98.7916C70.1843 98.3851 69.5259 98.0247 68.9162 97.6579C67.8043 96.9889 67.0244 96.5848 66.4092 96.2849C66.2162 96.1908 66.0375 96.1057 65.8686 96.0257C65.5036 95.8526 65.1846 95.7015 64.868 95.5252C64.2726 95.1936 63.7042 94.9224 63.1447 94.6546C63.0948 94.6307 63.0452 94.6065 62.9955 94.5826C62.3891 94.292 61.7907 94.0007 61.1895 93.6406C61.05 93.557 61.0371 93.317 61.1605 93.1055C61.2838 92.8943 61.497 92.791 61.6364 92.8745C62.2204 93.2243 62.8037 93.509 63.4099 93.7995C63.4599 93.8235 63.5104 93.8471 63.5608 93.8712C64.1189 94.1383 64.697 94.4157 65.3034 94.7535C65.6087 94.9235 65.9099 95.0663 66.2677 95.2359C66.4385 95.3169 66.6225 95.404 66.8258 95.5031C67.4504 95.8076 68.2408 96.2166 69.3634 96.892C69.9658 97.2544 70.6154 97.6107 71.3569 98.017C71.527 98.1103 71.702 98.2062 71.8823 98.3054C72.8471 98.8362 73.9601 99.4593 75.2948 100.276C75.6321 100.482 75.9359 100.628 76.2415 100.772C76.2586 100.78 76.2756 100.788 76.2927 100.796C76.5807 100.932 76.8736 101.069 77.1865 101.254C77.2283 101.279 77.2815 101.311 77.3459 101.349C78.0754 101.778 80.2212 103.042 83.0578 104.97C83.0665 104.976 83.0752 104.983 83.084 104.989C84.9846 106.281 86.0568 107.01 87.0049 107.325C87.7531 107.574 88.2685 107.833 88.6837 108.058C88.7629 108.101 88.8378 108.142 88.9089 108.181C89.2162 108.35 89.4591 108.484 89.7281 108.575C90.5419 108.848 91.2137 108.897 92.1297 108.785C92.9061 108.691 93.7 108.836 94.3953 108.964C94.3964 108.964 94.3974 108.964 94.3984 108.964C94.481 108.98 94.5621 108.995 94.6416 109.009ZM131.916 133.785C132.052 133.875 132.059 134.117 131.931 134.325C131.804 134.534 131.59 134.631 131.454 134.541C131.131 134.326 130.809 134.111 130.486 133.896C130.35 133.806 130.343 133.564 130.471 133.355C130.598 133.147 130.812 133.05 130.948 133.14C131.27 133.355 131.593 133.57 131.916 133.785ZM96.3347 104.882C96.4962 104.921 96.5516 105.135 96.4589 105.359C96.366 105.583 96.16 105.732 95.9986 105.693C95.9133 105.672 95.7707 105.642 95.5788 105.601C94.1966 105.307 90.2497 104.466 86.587 102.71C86.2786 102.562 86.0007 102.432 85.7358 102.308C84.6029 101.779 83.423 101.804 81.3987 100.555C72.8871 95.3044 64.9069 89.1864 55.9554 84.6975C53.37 83.4011 50.8902 81.9469 48.4256 80.4456C46.3713 79.1943 42.8286 76.5308 41.9638 75.9559C41.8282 75.8657 41.8219 75.6231 41.9495 75.4144C42.0771 75.2058 42.2902 75.11 42.4258 75.2001C43.2844 75.771 46.815 78.4264 48.8615 79.6729C51.3214 81.1713 53.7958 82.6231 56.3762 83.917C65.3381 88.4111 73.8997 93.6256 82.4213 98.8821C84.4258 100.119 85.0165 100.996 86.1453 101.523C86.4108 101.647 86.6905 101.778 87.0018 101.927C90.6132 103.659 94.4993 104.487 95.8978 104.786C96.0958 104.828 96.2444 104.86 96.3347 104.882ZM102.624 109.101C104.215 109.98 106.365 111.414 108.243 112.668C109.159 113.279 110.011 113.848 110.702 114.288C111.772 114.97 112.347 115.563 112.917 116.152C112.923 116.158 112.929 116.165 112.935 116.171C113.505 116.759 114.077 117.345 115.164 118.038C116.26 118.736 117.874 119.54 119.502 120.351C119.504 120.351 119.505 120.352 119.506 120.353C121.126 121.159 123 121.593 124.115 122.304C128 124.782 130.12 126.769 131.104 127.919C132.825 129.931 135.75 130.598 137.403 132.828C137.525 133.174 136.768 133.506 136.421 133.07C136.408 133.056 136.394 133.041 136.381 133.027C136.254 132.891 136.14 132.775 135.968 132.632C135.708 132.443 135.504 132.318 135.319 132.205C134.831 131.907 131.518 129.725 130.557 128.601C129.623 127.51 127.003 126.471 123.092 123.977C121.998 123.279 120.71 121.942 119.082 121.131C119.078 121.129 119.073 121.127 119.069 121.125C117.452 120.32 115.822 119.508 114.708 118.798C113.581 118.081 112.984 117.468 112.407 116.871C112.401 116.865 112.396 116.86 112.39 116.854C111.826 116.27 111.277 115.704 110.246 115.048C109.54 114.598 108.678 114.024 107.756 113.408C105.886 112.16 103.767 110.745 102.19 109.873C102.048 109.794 102.03 109.557 102.15 109.344C102.27 109.131 102.482 109.022 102.624 109.101ZM105.504 104.391C110.382 106.181 114.636 109.064 118.411 112.548C119.519 113.254 121.054 114.258 122.586 115.262C122.603 115.273 122.62 115.285 122.638 115.297C124.153 116.289 125.662 117.278 126.753 117.974C130.639 120.452 132.999 122.06 133.983 123.21C134.9 124.282 135.218 124.475 135.689 124.762C135.701 124.77 135.714 124.778 135.727 124.786C135.728 124.786 135.729 124.786 135.73 124.786C135.752 124.786 135.769 124.789 135.778 124.79C135.795 124.794 135.808 124.799 135.813 124.801C135.824 124.806 135.832 124.811 135.835 124.812C135.848 124.819 135.862 124.828 135.871 124.834C135.952 124.888 136.202 125.069 136.392 125.226C136.586 125.387 136.714 125.52 136.847 125.662C136.86 125.677 136.874 125.691 136.887 125.706C137.007 125.834 137.138 125.974 137.336 126.159C137.456 126.272 137.439 126.524 137.297 126.721C137.155 126.918 136.942 126.986 136.822 126.874C136.614 126.679 136.475 126.53 136.354 126.401C136.341 126.387 136.328 126.372 136.314 126.358C136.187 126.222 136.073 126.105 135.901 125.962C135.641 125.774 135.438 125.649 135.252 125.536C134.765 125.238 134.398 125.014 133.437 123.891C132.503 122.799 130.208 121.228 126.298 118.733C125.205 118.036 123.694 117.047 122.18 116.055C122.162 116.043 122.144 116.032 122.126 116.02C120.593 115.016 119.061 114.012 117.956 113.308C113.647 110.563 109.134 108.363 105.07 105.163C104.243 104.706 103.496 104.272 102.805 103.87C100.769 102.688 99.2071 101.781 97.4544 101.354C97.0702 101.26 96.1708 100.836 94.8815 100.205C94.5036 100.02 94.09 99.8161 93.6428 99.5958C92.5464 99.0558 91.2476 98.4157 89.7753 97.7096C89.4668 97.5616 89.1889 97.4317 88.924 97.308C87.7911 96.7789 86.8965 96.3619 84.8721 95.1131C82.3814 93.5767 78.2943 90.8591 76.135 89.3617C75.0535 88.6118 74.4588 88.1622 74.0431 87.8358C73.9274 87.7449 73.8264 87.6636 73.7335 87.5894C73.4907 87.3957 73.302 87.2457 73.0443 87.0661C71.189 85.7732 69.782 85.0472 67.4533 83.8974C67.3074 83.8253 67.283 83.5917 67.3985 83.3761C67.5141 83.1605 67.7263 83.0438 67.8723 83.1158C70.2045 84.2673 71.6329 85.0042 73.5136 86.3148C73.7826 86.5022 73.9844 86.6634 74.2314 86.8605C74.323 86.9335 74.4208 87.0117 74.5305 87.0979C74.9393 87.4189 75.5277 87.864 76.6035 88.6099C78.759 90.1046 82.8403 92.8179 85.3234 94.3497C87.328 95.5862 88.2047 95.996 89.3335 96.5232C89.5989 96.6471 89.8785 96.7772 90.1897 96.9265C91.6641 97.6336 92.9666 98.275 94.0636 98.8153C94.5103 99.0353 94.923 99.2389 95.2994 99.4229C96.6147 100.066 97.4613 100.463 97.7905 100.543C99.6046 100.985 101.235 101.932 103.289 103.125C103.973 103.523 104.704 103.948 105.504 104.391ZM59.5644 78.9168C59.7099 78.9898 59.7332 79.2239 59.617 79.4393C59.5007 79.6545 59.2887 79.7701 59.1432 79.6971C58.3748 79.3118 57.8188 79.0408 57.384 78.8291C56.5793 78.4373 56.1902 78.2483 55.6409 77.9096C54.2229 77.0354 52.8496 76.1982 51.6138 75.4454C49.5596 74.1941 47.8853 73.1745 47.0206 72.5996C46.885 72.5094 46.8787 72.2668 47.0063 72.0581C47.1339 71.8496 47.347 71.7538 47.4826 71.8438C48.3412 72.4147 50.0026 73.4271 52.0492 74.6737C53.2864 75.4273 54.6649 76.2662 56.0918 77.1459C56.6245 77.4744 56.9915 77.6535 57.7784 78.0365C58.2128 78.2479 58.7755 78.5212 59.5644 78.9168ZM22.824 92.898C23.5523 93.3809 24.6091 93.7201 25.2696 94.2979C25.2789 94.306 25.2881 94.3141 25.2974 94.3222C25.5673 94.5583 25.8285 94.8221 26.1445 95.1412C26.1847 95.1819 26.2258 95.2238 26.268 95.2663C26.6428 95.6441 27.1053 96.1049 27.7558 96.699C29.9401 98.6938 32.101 99.5356 32.7732 99.7973C34.1214 100.322 35.4286 101.1 37.2121 102.163C37.3752 102.26 37.5418 102.36 37.7133 102.462C37.8522 102.545 37.8654 102.783 37.7427 102.994C37.6199 103.206 37.4078 103.311 37.2688 103.228C37.1009 103.129 36.9373 103.031 36.7779 102.936C36.7772 102.936 36.7765 102.935 36.7757 102.935C34.9809 101.866 33.7021 101.105 32.3857 100.593C31.6988 100.325 29.4854 99.4619 27.2472 97.4178C26.5897 96.8174 26.1215 96.3524 25.7444 95.9723C25.7031 95.9307 25.663 95.8898 25.6239 95.8503C25.623 95.8494 25.6221 95.8484 25.6212 95.8475C25.3031 95.5263 25.0532 95.2732 24.7949 95.0472C24.7893 95.0426 24.7837 95.038 24.7781 95.0333C24.1101 94.449 23.0696 94.1229 22.3633 93.6545C22.2285 93.565 22.2224 93.3228 22.3496 93.1139C22.4769 92.9052 22.6892 92.8088 22.824 92.898ZM74.8649 120.731C75.7546 120.886 76.6976 121.494 77.4722 122.127C78.2523 122.765 78.8913 123.453 79.1727 123.81C79.4479 124.158 79.8172 124.439 80.273 124.749C80.3775 124.82 80.4866 124.892 80.5994 124.968C80.972 125.216 81.3865 125.492 81.8187 125.833C83.4067 127.085 84.5226 127.768 85.3356 128.228C85.5028 128.323 85.6594 128.409 85.806 128.49C85.8063 128.49 85.8065 128.49 85.8068 128.491C86.3601 128.796 86.7728 129.024 87.0924 129.333C87.6614 129.884 88.1195 130.345 88.6113 131.002C89.2895 131.91 90.596 132.634 91.581 132.881C91.635 132.895 91.6907 132.908 91.7467 132.922C92.4613 133.1 93.3412 133.319 94.5579 133.819C95.5688 134.234 96.3696 134.73 97.0606 135.198C97.2586 135.333 97.4456 135.464 97.6255 135.589C98.0795 135.906 98.4857 136.19 98.8953 136.413C101.435 137.792 102.781 138.786 103.554 139.532C104.149 140.105 104.412 140.541 104.602 140.855C104.659 140.95 104.709 141.035 104.76 141.108C105.216 141.762 105.712 142.232 106.31 142.796C106.443 142.921 106.58 143.052 106.724 143.189C107.203 143.65 107.63 143.876 107.987 144.017C108.143 144.079 108.285 144.125 108.42 144.168C108.422 144.168 108.425 144.169 108.427 144.17C108.446 144.176 108.465 144.182 108.483 144.188C108.497 144.192 108.511 144.196 108.525 144.2C108.532 144.199 108.538 144.199 108.543 144.199C108.546 144.199 108.549 144.199 108.551 144.199C108.551 144.199 108.551 144.199 108.552 144.198C108.584 144.198 108.607 144.204 108.612 144.205C108.62 144.207 108.627 144.21 108.631 144.211C108.65 144.218 108.673 144.229 108.688 144.237C108.728 144.257 108.795 144.293 108.898 144.35C108.992 144.392 109.087 144.423 109.207 144.463C109.215 144.465 109.222 144.468 109.23 144.47C109.347 144.509 109.483 144.554 109.65 144.619C109.801 144.678 109.838 144.903 109.731 145.123C109.624 145.342 109.415 145.472 109.263 145.414C109.106 145.353 108.978 145.311 108.862 145.272C108.854 145.27 108.847 145.267 108.839 145.265C108.717 145.225 108.602 145.186 108.485 145.134C108.446 145.116 108.406 145.097 108.369 145.078C108.3 145.05 108.218 145.022 108.119 144.991C108.099 144.984 108.079 144.977 108.058 144.971C107.924 144.928 107.767 144.879 107.597 144.812C107.2 144.655 106.728 144.402 106.207 143.901C106.07 143.769 105.937 143.644 105.807 143.521C105.207 142.954 104.672 142.451 104.189 141.757C104.123 141.661 104.064 141.562 104 141.457C103.812 141.145 103.588 140.773 103.038 140.243C102.301 139.533 100.989 138.558 98.4639 137.187C98.034 136.953 97.6008 136.65 97.139 136.328C96.9627 136.205 96.7816 136.08 96.5956 135.954C95.9154 135.492 95.1397 135.013 94.1637 134.612C92.9741 134.123 92.1185 133.909 91.407 133.732C91.3823 133.726 91.3576 133.72 91.3328 133.714C91.3023 133.707 91.272 133.699 91.242 133.692C90.1924 133.428 88.7981 132.664 88.0489 131.662C87.5787 131.033 87.1406 130.592 86.5747 130.044C86.2964 129.775 85.9434 129.58 85.4014 129.28C85.2493 129.196 85.0824 129.103 84.898 128.999C84.0704 128.53 82.9373 127.838 81.3315 126.571C80.9129 126.241 80.5165 125.976 80.146 125.73C80.0309 125.653 79.9182 125.578 79.8082 125.503C79.3502 125.191 78.9353 124.883 78.6173 124.48C78.3559 124.149 77.7385 123.481 76.9798 122.861C76.2157 122.236 75.3377 121.684 74.5556 121.548C74.4743 121.533 74.3926 121.519 74.3109 121.504C73.607 121.378 72.8893 121.25 72.1969 121.337C68.6939 122.396 65.4056 119.219 62.9701 117.568C62.9382 117.546 62.9062 117.524 62.8742 117.503C60.0631 115.596 57.9373 114.349 57.2127 113.924C57.1789 113.904 57.1481 113.886 57.1205 113.869C57.0958 113.855 57.0733 113.842 57.0537 113.831C56.759 113.657 56.4832 113.528 56.1942 113.393C56.1784 113.385 56.1626 113.378 56.1468 113.371C55.8415 113.228 55.5224 113.076 55.1673 112.859C53.8469 112.054 52.7452 111.44 51.7878 110.916C51.6106 110.819 51.4385 110.724 51.2703 110.632C51.2698 110.632 51.2694 110.631 51.2689 110.631C50.5308 110.228 49.8759 109.871 49.2693 109.508C48.1632 108.845 47.3874 108.444 46.7753 108.148C46.5833 108.055 46.4055 107.97 46.2375 107.891C45.8742 107.72 45.5569 107.57 45.242 107.396C44.6497 107.067 44.0841 106.799 43.5274 106.534C43.4778 106.51 43.4285 106.486 43.379 106.463C42.7757 106.175 42.1804 105.887 41.5824 105.53C41.4435 105.447 41.431 105.207 41.554 104.996C41.6771 104.784 41.8894 104.68 42.0281 104.763C42.609 105.11 43.1894 105.392 43.7925 105.679C43.8423 105.703 43.8925 105.726 43.9426 105.75C44.4979 106.014 45.073 106.289 45.6763 106.623C45.98 106.792 46.2796 106.933 46.6357 107.101C46.8056 107.181 46.9886 107.267 47.1909 107.365C47.8123 107.667 48.5987 108.072 49.7154 108.741C50.3147 109.1 50.9609 109.453 51.6985 109.856C51.8677 109.948 52.0419 110.043 52.2213 110.142C53.181 110.667 54.2883 111.285 55.616 112.094C55.9515 112.299 56.2538 112.443 56.5578 112.586C56.5748 112.594 56.5918 112.602 56.6088 112.61C56.8952 112.744 57.1867 112.879 57.498 113.063C57.5396 113.088 57.5925 113.119 57.6565 113.157C58.3822 113.583 60.5168 114.835 63.3383 116.748C63.347 116.754 63.3556 116.76 63.3643 116.766C65.2548 118.048 66.3213 118.772 67.2647 119.082C68.0093 119.328 68.5221 119.584 68.9351 119.807C69.0138 119.849 69.0884 119.89 69.1591 119.929C69.4648 120.097 69.7065 120.229 69.9742 120.318C70.784 120.587 71.4527 120.634 72.3646 120.518C73.1377 120.421 73.9278 120.562 74.6198 120.687C74.6208 120.687 74.6219 120.687 74.6229 120.688C74.705 120.702 74.7858 120.717 74.8649 120.731ZM111.942 145.308C112.077 145.397 112.083 145.639 111.956 145.847C111.829 146.056 111.616 146.154 111.481 146.064C111.16 145.851 110.839 145.638 110.517 145.425C110.383 145.335 110.376 145.094 110.503 144.885C110.63 144.676 110.843 144.579 110.978 144.668C111.299 144.881 111.621 145.095 111.942 145.308ZM76.5552 116.603C76.7159 116.642 76.7709 116.856 76.6783 117.08C76.5856 117.303 76.3803 117.453 76.2197 117.414C76.1348 117.394 75.9929 117.364 75.8019 117.324C74.4263 117.036 70.4983 116.214 66.8542 114.476C66.5473 114.33 66.2709 114.201 66.0073 114.079C64.8802 113.556 63.7056 113.585 61.692 112.347C53.225 107.141 45.2881 101.067 36.3824 96.6237C33.8103 95.3403 31.3434 93.8991 28.8917 92.4107C26.8483 91.1702 23.3247 88.5261 22.4645 87.9558C22.3296 87.8663 22.3236 87.6242 22.4509 87.4152C22.5782 87.2064 22.7904 87.1099 22.9253 87.1993C23.7794 87.7656 27.2908 90.4016 29.3266 91.6374C31.7736 93.1229 34.2351 94.5618 36.8023 95.8426C45.7183 100.291 54.2351 105.461 62.7118 110.673C64.7059 111.899 65.2929 112.772 66.4159 113.294C66.6801 113.416 66.9583 113.545 67.2681 113.693C70.8611 115.407 74.7286 116.217 76.1205 116.509C76.3175 116.551 76.4654 116.582 76.5552 116.603ZM82.8115 120.789C84.3936 121.66 86.5322 123.082 88.4008 124.326C89.312 124.932 90.1587 125.497 90.846 125.933C91.9108 126.609 92.4824 127.199 93.0491 127.785C93.0552 127.791 93.0613 127.797 93.0674 127.803C93.6337 128.388 94.2023 128.971 95.2836 129.658C96.3738 130.35 97.9799 131.146 99.5999 131.948C99.6011 131.949 99.6023 131.95 99.6035 131.95C101.215 132.749 103.08 133.174 104.189 133.879C108.054 136.337 110.161 138.311 111.14 139.455C112.851 141.457 115.761 142.11 117.405 144.329C117.526 144.674 116.772 145.008 116.427 144.575C116.414 144.561 116.4 144.547 116.387 144.532C116.26 144.397 116.148 144.281 115.977 144.139C115.718 143.952 115.515 143.829 115.33 143.716C114.846 143.421 111.55 141.256 110.595 140.139C109.666 139.053 107.059 138.027 103.169 135.553C102.081 134.861 100.8 133.532 99.1804 132.729C99.176 132.727 99.1716 132.725 99.1672 132.723C97.559 131.926 95.9372 131.123 94.8288 130.419C93.7084 129.707 93.1143 129.098 92.5406 128.505C92.5351 128.499 92.5295 128.493 92.524 128.487C91.9626 127.907 91.4173 127.344 90.3918 126.693C89.6894 126.247 88.832 125.678 87.915 125.067C86.0545 123.829 83.9465 122.425 82.3779 121.562C82.2364 121.484 82.2188 121.247 82.3385 121.034C82.4583 120.82 82.67 120.711 82.8115 120.789ZM85.6839 116.074C90.5378 117.841 94.7688 120.701 98.5231 124.163C99.6252 124.863 101.152 125.859 102.676 126.855C102.693 126.866 102.71 126.878 102.727 126.889C104.234 127.874 105.735 128.854 106.821 129.544C110.686 132.002 113.033 133.597 114.011 134.741C114.923 135.808 115.24 135.999 115.708 136.284C115.72 136.292 115.733 136.3 115.746 136.308C115.747 136.308 115.748 136.308 115.749 136.308C115.771 136.307 115.788 136.31 115.796 136.312C115.814 136.315 115.826 136.32 115.831 136.322C115.842 136.327 115.85 136.332 115.854 136.333C115.866 136.34 115.88 136.348 115.889 136.354C115.97 136.408 116.218 136.588 116.407 136.744C116.6 136.904 116.727 137.036 116.86 137.178C116.873 137.192 116.887 137.206 116.9 137.221C117.019 137.349 117.149 137.488 117.346 137.672C117.465 137.784 117.448 138.035 117.306 138.233C117.165 138.43 116.953 138.499 116.833 138.387C116.626 138.193 116.488 138.045 116.368 137.917C116.355 137.903 116.342 137.888 116.329 137.874C116.202 137.739 116.089 137.623 115.918 137.481C115.659 137.294 115.457 137.17 115.272 137.058C114.787 136.763 114.423 136.541 113.467 135.424C112.539 134.338 110.256 132.778 106.367 130.305C105.279 129.613 103.776 128.632 102.27 127.648C102.252 127.637 102.235 127.625 102.217 127.614C100.692 126.618 99.1684 125.622 98.0689 124.924C93.7829 122.201 89.2923 120.024 85.2506 116.847C84.4279 116.394 83.6852 115.964 82.9972 115.566C80.9724 114.394 79.4183 113.495 77.6741 113.077C77.2917 112.985 76.3969 112.565 75.1141 111.941C74.7382 111.758 74.3267 111.555 73.8818 111.337C72.791 110.803 71.4988 110.169 70.034 109.471C69.7271 109.324 69.4506 109.196 69.1871 109.073C68.0599 108.55 67.1698 108.137 65.1561 106.899C62.6784 105.376 58.6131 102.68 56.4653 101.194C55.3896 100.45 54.7981 100.004 54.3847 99.6799C54.2695 99.5896 54.1691 99.5089 54.0767 99.4353C53.8353 99.2429 53.6476 99.0939 53.3913 98.9157C51.5459 97.6328 50.1461 96.914 47.8293 95.776C47.6842 95.7046 47.6601 95.4715 47.7754 95.2558C47.8907 95.04 48.1021 94.9226 48.2473 94.9938C50.5676 96.1335 51.9887 96.8632 53.8593 98.1636C54.1269 98.3496 54.3276 98.5096 54.5733 98.7053C54.6644 98.7779 54.7616 98.8556 54.8708 98.9411C55.2773 99.2599 55.8625 99.7017 56.9326 100.442C59.0765 101.925 63.1361 104.616 65.6062 106.135C67.6003 107.361 68.4726 107.767 69.5956 108.288C69.8597 108.411 70.1378 108.539 70.4474 108.687C71.9143 109.387 73.2103 110.022 74.3016 110.556C74.746 110.774 75.1566 110.976 75.5311 111.158C76.8397 111.794 77.682 112.187 78.0096 112.265C79.815 112.699 81.4364 113.637 83.4797 114.82C84.1601 115.214 84.8874 115.635 85.6839 116.074ZM39.982 90.837C40.1267 90.9093 40.1497 91.1429 40.0337 91.3584C39.9177 91.5738 39.7065 91.6901 39.5618 91.6179C38.7973 91.2364 38.2441 90.9682 37.8116 90.7588C37.0109 90.3711 36.6238 90.184 36.0774 89.8482C34.6669 88.9814 33.3008 88.1514 32.0714 87.4051C30.028 86.1646 28.3625 85.1538 27.5024 84.5835C27.3676 84.494 27.3615 84.2518 27.4888 84.0429C27.6161 83.8342 27.8284 83.7377 27.9632 83.827C28.8173 84.3933 30.47 85.3969 32.5058 86.6328C33.7366 87.3799 35.1078 88.2116 36.5272 89.0838C37.0571 89.4095 37.4222 89.5868 38.2051 89.9658C38.6373 90.175 39.1971 90.4454 39.982 90.837Z" fill="#9F9FA6"/>
</svg>
