<svg width="1052" height="522" viewBox="0 0 1052 522" fill="none" xmlns="http://www.w3.org/2000/svg">
<path d="M1041.5 227.029H11.5C88.4333 138.771 132.5 -9.47264 208.5 1.02927H860C915.5 1.02974 970.62 138.771 1041.5 227.029Z" fill="#C9E0ED" stroke="white"/>
<path d="M312.5 190.5H106.5L163.797 93L197 36.5H347H534H715.5H858L897.623 93L966 190.5H750H534H312.5Z" fill="#8BB1D3"/>
<path d="M312.5 190.5H106.5L163.797 93M312.5 190.5C325.973 130.359 333.527 96.6407 347 36.5M312.5 190.5H534M347 36.5H197L163.797 93M347 36.5H534M534 190.5V36.5M534 190.5H750M534 36.5C604.88 36.5 644.62 36.5 715.5 36.5M750 190.5H966L897.623 93M750 190.5C736.527 130.359 728.973 96.6407 715.5 36.5M715.5 36.5C771.15 36.5 802.35 36.5 858 36.5C873.474 58.5646 882.149 70.9354 897.623 93M163.797 93C194.259 73.8405 265 59 341.959 59C454.254 71.258 606.378 67.7415 722.844 69.283C772 54 884.949 74.928 897.623 93" stroke="#3E2E47" stroke-width="9" stroke-linejoin="round"/>
<path fill-rule="evenodd" clip-rule="evenodd" d="M643.752 72.898C647.752 42.398 800.252 38.3981 810.752 72.898C812.145 78.6819 809.377 83.6618 803.663 87.8189C774.656 108.921 669.726 108.818 647.61 85.0457C644.33 81.5198 642.871 77.4732 643.752 72.898Z" fill="#3C2E45"/>
<path fill-rule="evenodd" clip-rule="evenodd" d="M647.61 85.0457C669.726 108.818 774.656 108.921 803.663 87.8189C810.502 99.948 801.894 109.621 785.769 116.208C755.273 128.666 697.89 130.087 667.26 116.208C652.512 109.526 643.966 99.297 647.61 85.0457Z" fill="#474155"/>
<path fill-rule="evenodd" clip-rule="evenodd" d="M785.769 116.208C755.273 128.666 697.89 130.087 667.26 116.208C667.26 150.898 791.76 143.398 785.769 116.208Z" fill="#6D5676"/>
<path d="M698.111 97.2282C690.111 106.728 692.611 123.228 706.611 127.228C713.111 119.728 709.015 101.748 698.111 97.2282Z" fill="#6ED2FF"/>
<path d="M757.111 97.2282C749.111 97.2282 741.611 118.228 750.611 127.228C759.111 122.228 769.111 107.228 757.111 97.2282Z" fill="#6ED2FF"/>
<path d="M806.611 89.2282C799.111 86.1195 787.111 105.728 792.611 115.728C803.111 115.728 812.111 97.2282 806.611 89.2282Z" fill="#6ED2FF"/>
<path d="M676.611 104.228C671.611 111.228 674.611 121.728 679.611 121.228C684.611 120.728 687.611 108.728 676.611 104.228Z" fill="#6ED2FF"/>
<path d="M728.111 111.728C721.111 115.728 721.111 127.228 727.111 127.228C733.111 127.228 735.611 117.228 728.111 111.728Z" fill="#6ED2FF"/>
<path d="M780.111 106.228C771.111 109.728 769.111 119.728 773.611 121.228C778.111 122.728 784.611 115.728 780.111 106.228Z" fill="#6ED2FF"/>
<path fill-rule="evenodd" clip-rule="evenodd" d="M647.612 89.2282C642.522 102.757 645.329 108.52 659.612 115.728C664.77 97.8966 658.516 93.7477 647.612 89.2282Z" fill="#6ED2FF"/>
<path fill-rule="evenodd" clip-rule="evenodd" d="M251.752 72.898C255.752 42.398 408.252 38.3981 418.752 72.898C420.145 78.6819 417.377 83.6618 411.663 87.8189C382.656 108.921 277.726 108.818 255.61 85.0457C252.33 81.5198 250.871 77.4732 251.752 72.898Z" fill="#3C2E45"/>
<path fill-rule="evenodd" clip-rule="evenodd" d="M255.61 85.0457C277.726 108.818 382.656 108.921 411.663 87.8189C418.502 99.948 409.894 109.621 393.769 116.208C363.273 128.666 305.89 130.087 275.26 116.208C260.512 109.526 251.966 99.297 255.61 85.0457Z" fill="#474155"/>
<path fill-rule="evenodd" clip-rule="evenodd" d="M393.769 116.208C363.273 128.666 305.89 130.087 275.26 116.208C275.26 150.898 399.76 143.398 393.769 116.208Z" fill="#6D5676"/>
<path d="M306.111 97.2282C298.111 106.728 300.611 123.228 314.611 127.228C321.111 119.728 317.015 101.748 306.111 97.2282Z" fill="#6ED2FF"/>
<path d="M365.111 97.2282C357.111 97.2282 349.611 118.228 358.611 127.228C367.111 122.228 377.111 107.228 365.111 97.2282Z" fill="#6ED2FF"/>
<path d="M414.611 89.2282C407.111 86.1195 395.111 105.728 400.611 115.728C411.111 115.728 420.111 97.2282 414.611 89.2282Z" fill="#6ED2FF"/>
<path d="M284.611 104.228C279.611 111.228 282.611 121.728 287.611 121.228C292.611 120.728 295.611 108.728 284.611 104.228Z" fill="#6ED2FF"/>
<path d="M336.111 111.728C329.111 115.728 329.111 127.228 335.111 127.228C341.111 127.228 343.611 117.228 336.111 111.728Z" fill="#6ED2FF"/>
<path d="M388.111 106.228C379.111 109.728 377.111 119.728 381.611 121.228C386.111 122.728 392.611 115.728 388.111 106.228Z" fill="#6ED2FF"/>
<path fill-rule="evenodd" clip-rule="evenodd" d="M255.612 89.2282C250.522 102.757 253.329 108.52 267.612 115.728C272.77 97.8966 266.516 93.7477 255.612 89.2282Z" fill="#6ED2FF"/>
<path d="M28.5 522V277.5H1024.5V522H28.5Z" fill="#FAAFA9"/>
<g filter="url(#filter0_d_1001_151)">
<path d="M18.5 472V435.5H1036.5V472H18.5Z" fill="#CAE0ED"/>
<path d="M18.5 472V435.5H1036.5V472H18.5Z" stroke="#CAE0ED" stroke-linejoin="round"/>
</g>
<g filter="url(#filter1_d_1001_151)">
<path d="M4.5 277.5V227.5H1047.5V277.5H4.5Z" fill="#CAE0ED"/>
<path d="M4.5 277.5V227.5H1047.5V277.5H4.5Z" stroke="#CAE0ED" stroke-linejoin="round"/>
</g>
<path fill-rule="evenodd" clip-rule="evenodd" d="M885.5 398.332C888.372 399.094 891.388 399.5 894.5 399.5C913.83 399.5 929.5 383.83 929.5 364.5C929.5 353.91 924.797 344.418 917.365 338L885.5 398.332ZM872 391.311C864.358 384.89 859.5 375.262 859.5 364.5C859.5 345.17 875.17 329.5 894.5 329.5C898.158 329.5 901.685 330.061 905 331.102L872 391.311Z" fill="#C9E2E5"/>
<path fill-rule="evenodd" clip-rule="evenodd" d="M855.5 364.5C855.5 386.039 872.961 403.5 894.5 403.5C916.039 403.5 933.5 386.039 933.5 364.5C933.5 342.961 916.039 325.5 894.5 325.5C872.961 325.5 855.5 342.961 855.5 364.5ZM859.5 364.5C859.5 375.262 864.358 384.89 872 391.311C875.874 394.565 880.464 396.996 885.5 398.332C888.372 399.094 891.388 399.5 894.5 399.5C913.83 399.5 929.5 383.83 929.5 364.5C929.5 353.91 924.797 344.418 917.365 338C913.799 334.92 909.604 332.548 905 331.102C901.685 330.061 898.158 329.5 894.5 329.5C875.17 329.5 859.5 345.17 859.5 364.5Z" fill="#FCF6ED"/>
<path d="M885.5 398.332L917.365 338C913.799 334.92 909.604 332.548 905 331.102L872 391.311C875.874 394.565 880.464 396.996 885.5 398.332Z" fill="#8FB0D3"/>
<path d="M935.5 337C935.5 339.485 937.515 341.5 940 341.5C942.485 341.5 944.5 339.485 944.5 337C944.5 334.515 942.485 332.5 940 332.5C937.515 332.5 935.5 334.515 935.5 337Z" fill="#FBFDF8"/>
<path d="M840.5 341C840.5 343.485 842.515 345.5 845 345.5C847.485 345.5 849.5 343.485 849.5 341C849.5 338.515 847.485 336.5 845 336.5C842.515 336.5 840.5 338.515 840.5 341Z" fill="#FBFDF8"/>
<path d="M858.5 319C858.5 321.485 860.515 323.5 863 323.5C865.485 323.5 867.5 321.485 867.5 319C867.5 316.515 865.485 314.5 863 314.5C860.515 314.5 858.5 316.515 858.5 319Z" fill="#FBFDF8"/>
<path d="M887.5 314C887.5 316.485 889.515 318.5 892 318.5C894.485 318.5 896.5 316.485 896.5 314C896.5 311.515 894.485 309.5 892 309.5C889.515 309.5 887.5 311.515 887.5 314Z" fill="#FBFDF8"/>
<path d="M916.5 319C916.5 321.485 918.515 323.5 921 323.5C923.485 323.5 925.5 321.485 925.5 319C925.5 316.515 923.485 314.5 921 314.5C918.515 314.5 916.5 316.515 916.5 319Z" fill="#FBFDF8"/>
<path fill-rule="evenodd" clip-rule="evenodd" d="M475.5 398.332C472.628 399.094 469.612 399.5 466.5 399.5C447.17 399.5 431.5 383.83 431.5 364.5C431.5 353.91 436.203 344.418 443.635 338L475.5 398.332ZM489 391.311C496.642 384.89 501.5 375.262 501.5 364.5C501.5 345.17 485.83 329.5 466.5 329.5C462.842 329.5 459.315 330.061 456 331.102L489 391.311Z" fill="#C9E2E5"/>
<path fill-rule="evenodd" clip-rule="evenodd" d="M505.5 364.5C505.5 386.039 488.039 403.5 466.5 403.5C444.961 403.5 427.5 386.039 427.5 364.5C427.5 342.961 444.961 325.5 466.5 325.5C488.039 325.5 505.5 342.961 505.5 364.5ZM501.5 364.5C501.5 375.262 496.642 384.89 489 391.311C485.126 394.565 480.536 396.996 475.5 398.332C472.628 399.094 469.612 399.5 466.5 399.5C447.17 399.5 431.5 383.83 431.5 364.5C431.5 353.91 436.203 344.418 443.635 338C447.201 334.92 451.396 332.548 456 331.102C459.315 330.061 462.842 329.5 466.5 329.5C485.83 329.5 501.5 345.17 501.5 364.5Z" fill="#FCF6ED"/>
<path d="M475.5 398.332L443.635 338C447.201 334.92 451.396 332.548 456 331.102L489 391.311C485.126 394.565 480.536 396.996 475.5 398.332Z" fill="#8FB0D3"/>
<path d="M425.5 337C425.5 339.485 423.485 341.5 421 341.5C418.515 341.5 416.5 339.485 416.5 337C416.5 334.515 418.515 332.5 421 332.5C423.485 332.5 425.5 334.515 425.5 337Z" fill="#FBFDF8"/>
<path d="M520.5 341C520.5 343.485 518.485 345.5 516 345.5C513.515 345.5 511.5 343.485 511.5 341C511.5 338.515 513.515 336.5 516 336.5C518.485 336.5 520.5 338.515 520.5 341Z" fill="#FBFDF8"/>
<path d="M502.5 319C502.5 321.485 500.485 323.5 498 323.5C495.515 323.5 493.5 321.485 493.5 319C493.5 316.515 495.515 314.5 498 314.5C500.485 314.5 502.5 316.515 502.5 319Z" fill="#FBFDF8"/>
<path d="M473.5 314C473.5 316.485 471.485 318.5 469 318.5C466.515 318.5 464.5 316.485 464.5 314C464.5 311.515 466.515 309.5 469 309.5C471.485 309.5 473.5 311.515 473.5 314Z" fill="#FBFDF8"/>
<path d="M444.5 319C444.5 321.485 442.485 323.5 440 323.5C437.515 323.5 435.5 321.485 435.5 319C435.5 316.515 437.515 314.5 440 314.5C442.485 314.5 444.5 316.515 444.5 319Z" fill="#FBFDF8"/>
<path fill-rule="evenodd" clip-rule="evenodd" d="M258.5 398.332C255.628 399.094 252.612 399.5 249.5 399.5C230.17 399.5 214.5 383.83 214.5 364.5C214.5 353.91 219.203 344.418 226.635 338L258.5 398.332ZM272 391.311C279.642 384.89 284.5 375.262 284.5 364.5C284.5 345.17 268.83 329.5 249.5 329.5C245.842 329.5 242.315 330.061 239 331.102L272 391.311Z" fill="#C9E2E5"/>
<path fill-rule="evenodd" clip-rule="evenodd" d="M288.5 364.5C288.5 386.039 271.039 403.5 249.5 403.5C227.961 403.5 210.5 386.039 210.5 364.5C210.5 342.961 227.961 325.5 249.5 325.5C271.039 325.5 288.5 342.961 288.5 364.5ZM284.5 364.5C284.5 375.262 279.642 384.89 272 391.311C268.126 394.565 263.536 396.996 258.5 398.332C255.628 399.094 252.612 399.5 249.5 399.5C230.17 399.5 214.5 383.83 214.5 364.5C214.5 353.91 219.203 344.418 226.635 338C230.201 334.92 234.396 332.548 239 331.102C242.315 330.061 245.842 329.5 249.5 329.5C268.83 329.5 284.5 345.17 284.5 364.5Z" fill="#FCF6ED"/>
<path d="M258.5 398.332L226.635 338C230.201 334.92 234.396 332.548 239 331.102L272 391.311C268.126 394.565 263.536 396.996 258.5 398.332Z" fill="#8FB0D3"/>
<path d="M208.5 337C208.5 339.485 206.485 341.5 204 341.5C201.515 341.5 199.5 339.485 199.5 337C199.5 334.515 201.515 332.5 204 332.5C206.485 332.5 208.5 334.515 208.5 337Z" fill="#FBFDF8"/>
<path d="M303.5 341C303.5 343.485 301.485 345.5 299 345.5C296.515 345.5 294.5 343.485 294.5 341C294.5 338.515 296.515 336.5 299 336.5C301.485 336.5 303.5 338.515 303.5 341Z" fill="#FBFDF8"/>
<path d="M285.5 319C285.5 321.485 283.485 323.5 281 323.5C278.515 323.5 276.5 321.485 276.5 319C276.5 316.515 278.515 314.5 281 314.5C283.485 314.5 285.5 316.515 285.5 319Z" fill="#FBFDF8"/>
<path d="M256.5 314C256.5 316.485 254.485 318.5 252 318.5C249.515 318.5 247.5 316.485 247.5 314C247.5 311.515 249.515 309.5 252 309.5C254.485 309.5 256.5 311.515 256.5 314Z" fill="#FBFDF8"/>
<path d="M227.5 319C227.5 321.485 225.485 323.5 223 323.5C220.515 323.5 218.5 321.485 218.5 319C218.5 316.515 220.515 314.5 223 314.5C225.485 314.5 227.5 316.515 227.5 319Z" fill="#FBFDF8"/>
<defs>
<filter id="filter0_d_1001_151" x="14" y="435" width="1027" height="51.5" filterUnits="userSpaceOnUse" color-interpolation-filters="sRGB">
<feFlood flood-opacity="0" result="BackgroundImageFix"/>
<feColorMatrix in="SourceAlpha" type="matrix" values="0 0 0 0 0 0 0 0 0 0 0 0 0 0 0 0 0 0 127 0" result="hardAlpha"/>
<feOffset dy="10"/>
<feGaussianBlur stdDeviation="2"/>
<feComposite in2="hardAlpha" operator="out"/>
<feColorMatrix type="matrix" values="0 0 0 0 0 0 0 0 0 0 0 0 0 0 0 0 0 0 0.25 0"/>
<feBlend mode="normal" in2="BackgroundImageFix" result="effect1_dropShadow_1001_151"/>
<feBlend mode="normal" in="SourceGraphic" in2="effect1_dropShadow_1001_151" result="shape"/>
</filter>
<filter id="filter1_d_1001_151" x="0" y="227" width="1052" height="65" filterUnits="userSpaceOnUse" color-interpolation-filters="sRGB">
<feFlood flood-opacity="0" result="BackgroundImageFix"/>
<feColorMatrix in="SourceAlpha" type="matrix" values="0 0 0 0 0 0 0 0 0 0 0 0 0 0 0 0 0 0 127 0" result="hardAlpha"/>
<feOffset dy="10"/>
<feGaussianBlur stdDeviation="2"/>
<feComposite in2="hardAlpha" operator="out"/>
<feColorMatrix type="matrix" values="0 0 0 0 0 0 0 0 0 0 0 0 0 0 0 0 0 0 0.25 0"/>
<feBlend mode="normal" in2="BackgroundImageFix" result="effect1_dropShadow_1001_151"/>
<feBlend mode="normal" in="SourceGraphic" in2="effect1_dropShadow_1001_151" result="shape"/>
</filter>
</defs>
</svg>
