<svg width="1052" height="522" viewBox="0 0 1052 522" fill="none" xmlns="http://www.w3.org/2000/svg">
<path d="M1041.5 227.029H11.5C88.4333 138.771 132.5 -9.47264 208.5 1.02927H860C915.5 1.02974 970.62 138.771 1041.5 227.029Z" fill="#766055" stroke="white"/>
<path d="M106.5 190.5H312.5H534H750H966L897.623 93L858 36.5H715.5H534H347H197L163.797 93L106.5 190.5Z" fill="#B1B0AC" stroke="#656565" stroke-width="9" stroke-linejoin="round"/>
<path d="M28.5 522V277.5H1024.5V522H28.5Z" fill="#7C6555"/>
<g filter="url(#filter0_d_1001_153)">
<path d="M18.5 472V435.5H1036.5V472H18.5Z" fill="#766055"/>
<path d="M18.5 472V435.5H1036.5V472H18.5Z" stroke="#766055" stroke-linejoin="round"/>
</g>
<g filter="url(#filter1_d_1001_153)">
<path d="M4.5 277.5V227.5H1047.5V277.5H4.5Z" fill="#766055"/>
<path d="M4.5 277.5V227.5H1047.5V277.5H4.5Z" stroke="#766055" stroke-linejoin="round"/>
</g>
<path fill-rule="evenodd" clip-rule="evenodd" d="M284.5 364.5C284.5 375.262 279.642 384.89 272 391.311C268.126 394.565 263.536 396.996 258.5 398.332C255.628 399.094 252.612 399.5 249.5 399.5C230.17 399.5 214.5 383.83 214.5 364.5C214.5 355.76 217.703 347.769 223 341.635L226.635 351L232.5 344.5L223 341.635C224.121 340.337 225.337 339.121 226.635 338C230.201 334.92 234.396 332.548 239 331.102C242.315 330.061 245.842 329.5 249.5 329.5C268.83 329.5 284.5 345.17 284.5 364.5Z" fill="#BBBBB9"/>
<path fill-rule="evenodd" clip-rule="evenodd" d="M249.5 403.5C271.039 403.5 288.5 386.039 288.5 364.5C288.5 342.961 271.039 325.5 249.5 325.5C227.961 325.5 210.5 342.961 210.5 364.5C210.5 386.039 227.961 403.5 249.5 403.5ZM272 391.311C279.642 384.89 284.5 375.262 284.5 364.5C284.5 345.17 268.83 329.5 249.5 329.5C245.842 329.5 242.315 330.061 239 331.102C234.396 332.548 230.201 334.92 226.635 338C225.337 339.121 224.121 340.337 223 341.635C217.703 347.769 214.5 355.76 214.5 364.5C214.5 383.83 230.17 399.5 249.5 399.5C252.612 399.5 255.628 399.094 258.5 398.332C263.536 396.996 268.126 394.565 272 391.311Z" fill="#FCF6ED"/>
<path fill-rule="evenodd" clip-rule="evenodd" d="M226.635 351L223 341.635L232.5 344.5L226.635 351Z" fill="#2F2F2F"/>
<path fill-rule="evenodd" clip-rule="evenodd" d="M664.473 60.0913C667.368 38.1004 777.741 35.2164 785.34 60.0913C785.464 60.6053 785.485 61.1105 785.519 61.6069C785.568 62.3058 785.531 62.9872 785.413 63.651C784.934 66.3407 783.117 68.7418 780.209 70.8495C759.215 86.0645 683.271 85.9902 667.265 68.8499C665.608 67.076 664.593 65.1193 664.348 62.9778C664.297 62.5289 664.279 62.072 664.297 61.6069C664.315 61.1109 664.373 60.6057 664.473 60.0913Z" fill="#2F2F2F"/>
<path fill-rule="evenodd" clip-rule="evenodd" d="M667.265 68.8499C683.271 85.9902 759.215 86.0645 780.209 70.8495C783.117 68.7418 784.934 66.3407 785.413 63.651C785.366 67.6548 786.398 71.0719 789.5 77.4692C738.665 93.6161 709.923 90.6639 658.5 77.4692C663.144 71.9976 664.459 68.6041 664.348 62.9778C664.593 65.1193 665.608 67.076 667.265 68.8499Z" fill="#6C6A68"/>
<path d="M735.942 59.8043C735.942 61.7954 731.73 63.4094 726.533 63.4094C721.337 63.4094 717.124 61.7954 717.124 59.8043C717.124 57.8133 721.337 56.1993 726.533 56.1993C731.73 56.1993 735.942 57.8133 735.942 59.8043Z" fill="#272625"/>
<path fill-rule="evenodd" clip-rule="evenodd" d="M262.427 60.0913C265.3 38.1004 374.831 35.2164 382.372 60.0913C382.495 60.6053 382.516 61.1105 382.55 61.6069C382.598 62.3058 382.561 62.9872 382.444 63.651C381.968 66.3407 380.166 68.7418 377.28 70.8495C356.447 86.0645 281.082 85.9902 265.198 68.8499C263.554 67.076 262.547 65.1193 262.304 62.9778C262.253 62.5289 262.235 62.072 262.252 61.6069C262.271 61.1109 262.328 60.6057 262.427 60.0913Z" fill="#2F2F2F"/>
<path fill-rule="evenodd" clip-rule="evenodd" d="M265.198 68.8499C281.082 85.9902 356.447 86.0645 377.28 70.8495C380.166 68.7418 381.968 66.3407 382.444 63.651C382.398 67.6548 383.422 71.0719 386.5 77.4692C336.053 93.6161 307.531 90.6639 256.5 77.4692C261.108 71.9976 262.413 68.6041 262.304 62.9778C262.547 65.1193 263.554 67.076 265.198 68.8499Z" fill="#6C6A68"/>
<path d="M333.351 59.8043C333.351 61.7954 329.171 63.4094 324.014 63.4094C318.857 63.4094 314.677 61.7954 314.677 59.8043C314.677 57.8133 318.857 56.1993 324.014 56.1993C329.171 56.1993 333.351 57.8133 333.351 59.8043Z" fill="#272625"/>
<path fill-rule="evenodd" clip-rule="evenodd" d="M657.752 130.898C661.752 100.398 814.252 96.3981 824.752 130.898C824.924 131.611 824.953 132.312 825 133C825.067 133.969 825.016 134.914 824.853 135.835C824.191 139.566 821.681 142.896 817.663 145.819C788.656 166.921 683.726 166.818 661.61 143.046C659.321 140.585 657.919 137.871 657.58 134.901C657.509 134.279 657.485 133.645 657.509 133C657.535 132.312 657.615 131.611 657.752 130.898Z" fill="#2F2F2F"/>
<path fill-rule="evenodd" clip-rule="evenodd" d="M661.61 143.046C683.726 166.818 788.656 166.921 817.663 145.819C821.681 142.896 824.191 139.566 824.853 135.835C824.788 141.388 826.214 146.127 830.5 155C760.263 177.395 720.551 173.3 649.5 155C655.916 147.411 657.733 142.705 657.58 134.901C657.919 137.871 659.321 140.585 661.61 143.046Z" fill="#6C6A68"/>
<path d="M756.5 130.5C756.5 133.261 750.68 135.5 743.5 135.5C736.32 135.5 730.5 133.261 730.5 130.5C730.5 127.739 736.32 125.5 743.5 125.5C750.68 125.5 756.5 127.739 756.5 130.5Z" fill="#272625"/>
<path fill-rule="evenodd" clip-rule="evenodd" d="M238.752 130.898C242.752 100.398 395.252 96.3981 405.752 130.898C405.924 131.611 405.953 132.312 406 133C406.067 133.969 406.016 134.914 405.853 135.835C405.191 139.566 402.681 142.896 398.663 145.819C369.656 166.921 264.726 166.818 242.61 143.046C240.321 140.585 238.919 137.871 238.58 134.901C238.509 134.279 238.485 133.645 238.509 133C238.535 132.312 238.615 131.611 238.752 130.898Z" fill="#2F2F2F"/>
<path fill-rule="evenodd" clip-rule="evenodd" d="M242.61 143.046C264.726 166.818 369.656 166.921 398.663 145.819C402.681 142.896 405.191 139.566 405.853 135.835C405.788 141.388 407.214 146.127 411.5 155C341.263 177.395 301.551 173.3 230.5 155C236.916 147.411 238.733 142.705 238.58 134.901C238.919 137.871 240.321 140.585 242.61 143.046Z" fill="#6C6A68"/>
<path d="M337.5 130.5C337.5 133.261 331.68 135.5 324.5 135.5C317.32 135.5 311.5 133.261 311.5 130.5C311.5 127.739 317.32 125.5 324.5 125.5C331.68 125.5 337.5 127.739 337.5 130.5Z" fill="#272625"/>
<path d="M203 337.001C219.5 304.5 274.5 303 294.5 337" stroke="#2F2F2F" stroke-width="8" stroke-linecap="round" stroke-linejoin="round"/>
<path fill-rule="evenodd" clip-rule="evenodd" d="M828.5 364.94C828.5 375.703 833.358 385.331 841 391.751C844.874 395.006 849.464 397.436 854.5 398.772C857.372 399.534 860.388 399.94 863.5 399.94C882.83 399.94 898.5 384.27 898.5 364.94C898.5 356.201 895.297 348.209 890 342.076L886.365 351.44L880.5 344.94L890 342.076C888.879 340.777 887.663 339.562 886.365 338.44C882.799 335.361 878.604 332.989 874 331.543C870.685 330.502 867.158 329.94 863.5 329.94C844.17 329.94 828.5 345.61 828.5 364.94Z" fill="#BBBBB9"/>
<path fill-rule="evenodd" clip-rule="evenodd" d="M863.5 403.94C841.961 403.94 824.5 386.48 824.5 364.94C824.5 343.401 841.961 325.94 863.5 325.94C885.039 325.94 902.5 343.401 902.5 364.94C902.5 386.48 885.039 403.94 863.5 403.94ZM841 391.751C833.358 385.331 828.5 375.703 828.5 364.94C828.5 345.61 844.17 329.94 863.5 329.94C867.158 329.94 870.685 330.502 874 331.543C878.604 332.989 882.799 335.361 886.365 338.44C887.663 339.562 888.879 340.777 890 342.076C895.297 348.209 898.5 356.201 898.5 364.94C898.5 384.27 882.83 399.94 863.5 399.94C860.388 399.94 857.372 399.534 854.5 398.772C849.464 397.436 844.874 395.006 841 391.751Z" fill="#FCF6ED"/>
<path fill-rule="evenodd" clip-rule="evenodd" d="M886.365 351.44L890 342.076L880.5 344.94L886.365 351.44Z" fill="#2F2F2F"/>
<path d="M910 337.441C893.5 304.941 838.5 303.44 818.5 337.441" stroke="#2F2F2F" stroke-width="8" stroke-linecap="round" stroke-linejoin="round"/>
<path fill-rule="evenodd" clip-rule="evenodd" d="M493 360.94C493 371.703 488.142 381.331 480.5 387.751C476.626 391.006 472.036 393.436 467 394.772C464.128 395.534 461.112 395.94 458 395.94C438.67 395.94 423 380.27 423 360.94C423 352.201 426.203 344.209 431.5 338.076L435.135 347.44L441 340.94L431.5 338.076C432.621 336.777 433.837 335.562 435.135 334.44C438.701 331.361 442.896 328.989 447.5 327.543C450.815 326.502 454.342 325.94 458 325.94C477.33 325.94 493 341.61 493 360.94Z" fill="#BBBBB9"/>
<path fill-rule="evenodd" clip-rule="evenodd" d="M458 399.94C479.539 399.94 497 382.48 497 360.94C497 339.401 479.539 321.94 458 321.94C436.461 321.94 419 339.401 419 360.94C419 382.48 436.461 399.94 458 399.94ZM480.5 387.751C488.142 381.331 493 371.703 493 360.94C493 341.61 477.33 325.94 458 325.94C454.342 325.94 450.815 326.502 447.5 327.543C442.896 328.989 438.701 331.361 435.135 334.44C433.837 335.562 432.621 336.777 431.5 338.076C426.203 344.209 423 352.201 423 360.94C423 380.27 438.67 395.94 458 395.94C461.112 395.94 464.128 395.534 467 394.772C472.036 393.436 476.626 391.006 480.5 387.751Z" fill="#FCF6ED"/>
<path fill-rule="evenodd" clip-rule="evenodd" d="M435.135 347.44L431.5 338.076L441 340.94L435.135 347.44Z" fill="#2F2F2F"/>
<path d="M411.5 333.441C428 300.941 483 299.44 503 333.441" stroke="#2F2F2F" stroke-width="8" stroke-linecap="round" stroke-linejoin="round"/>
<defs>
<filter id="filter0_d_1001_153" x="14" y="435" width="1027" height="51.5" filterUnits="userSpaceOnUse" color-interpolation-filters="sRGB">
<feFlood flood-opacity="0" result="BackgroundImageFix"/>
<feColorMatrix in="SourceAlpha" type="matrix" values="0 0 0 0 0 0 0 0 0 0 0 0 0 0 0 0 0 0 127 0" result="hardAlpha"/>
<feOffset dy="10"/>
<feGaussianBlur stdDeviation="2"/>
<feComposite in2="hardAlpha" operator="out"/>
<feColorMatrix type="matrix" values="0 0 0 0 0 0 0 0 0 0 0 0 0 0 0 0 0 0 0.25 0"/>
<feBlend mode="normal" in2="BackgroundImageFix" result="effect1_dropShadow_1001_153"/>
<feBlend mode="normal" in="SourceGraphic" in2="effect1_dropShadow_1001_153" result="shape"/>
</filter>
<filter id="filter1_d_1001_153" x="0" y="227" width="1052" height="65" filterUnits="userSpaceOnUse" color-interpolation-filters="sRGB">
<feFlood flood-opacity="0" result="BackgroundImageFix"/>
<feColorMatrix in="SourceAlpha" type="matrix" values="0 0 0 0 0 0 0 0 0 0 0 0 0 0 0 0 0 0 127 0" result="hardAlpha"/>
<feOffset dy="10"/>
<feGaussianBlur stdDeviation="2"/>
<feComposite in2="hardAlpha" operator="out"/>
<feColorMatrix type="matrix" values="0 0 0 0 0 0 0 0 0 0 0 0 0 0 0 0 0 0 0.25 0"/>
<feBlend mode="normal" in2="BackgroundImageFix" result="effect1_dropShadow_1001_153"/>
<feBlend mode="normal" in="SourceGraphic" in2="effect1_dropShadow_1001_153" result="shape"/>
</filter>
</defs>
</svg>
