<svg width="186" height="200" viewBox="0 0 186 200" fill="none" xmlns="http://www.w3.org/2000/svg">
<g clip-path="url(#clip0_971_12898)">
<path d="M56.3201 56.3976L41.7089 41.7635L46.5793 36.8854L61.1905 51.5196L56.3201 56.3976Z" fill="#B0BEC5"/>
<path d="M143.988 36.8854L129.376 51.5196L134.247 56.3976L148.858 41.7635L143.988 36.8854Z" fill="#B0BEC5"/>
<path d="M61.8973 51.5192L56.3202 57.1052L41.0018 41.7634L46.579 36.1774L61.8973 51.5192ZM149.564 41.7634L134.247 57.1052L128.67 51.5192L143.987 36.1774L149.564 41.7634ZM42.4149 41.7634L56.3192 55.6901L60.4843 51.5192L46.579 37.5934L42.4149 41.7634ZM130.082 51.5192L134.246 55.6891L148.15 41.7624L143.987 37.5934L130.082 51.5192Z" fill="#B0BEC5"/>
<path d="M5.17863 10.0585L36.8363 41.7658C43.9803 41.3216 46.1532 39.1845 46.5772 32.0097L14.9195 0.302376C5.71529 -0.491804 4.05615 2.04917 5.17863 10.0585Z" fill="#795548"/>
<path d="M175.645 0.302376L143.988 32.0097C144.12 39.8645 146.423 42.0885 153.728 41.7658L185.386 10.0585C187.108 1.67044 185.612 -0.968752 175.645 0.302376Z" fill="#795548"/>
<path d="M175.582 -0.193414C178.09 -0.513178 180.102 -0.592865 181.68 -0.384821C183.261 -0.176385 184.459 0.328106 185.27 1.2226C186.081 2.11704 186.435 3.32653 186.492 4.7978C186.548 6.26605 186.309 8.05095 185.876 10.1591L185.846 10.3056L153.945 42.2568L153.75 42.2656C150.079 42.4277 147.482 41.9661 145.816 40.3085C144.159 38.6601 143.554 35.9562 143.488 32.0185L143.484 31.8066L175.412 -0.17193L175.582 -0.193414ZM9.26983 -0.127008C10.7645 -0.389638 12.6438 -0.395401 14.9622 -0.195367L15.1439 -0.179742L15.2737 -0.0508361L46.931 31.6562L47.0892 31.8154L47.0765 32.039C46.8633 35.6465 46.2083 38.1403 44.5804 39.7656C42.9529 41.3903 40.4585 42.0413 36.8675 42.2646L36.6419 42.2792L36.4827 42.1191L4.70635 10.2939L4.68389 10.1279C4.40139 8.11216 4.28799 6.40386 4.43584 4.99116C4.58423 3.57372 4.99956 2.41308 5.80987 1.53901C6.62036 0.66479 7.77067 0.136447 9.26983 -0.127008ZM181.549 0.60639C180.13 0.419292 178.271 0.48058 175.875 0.778265L144.492 32.2109C144.577 36.0016 145.192 38.2772 146.521 39.5996C147.841 40.9131 149.994 41.4072 153.513 41.2724L184.924 9.81244C185.333 7.79334 185.543 6.15047 185.492 4.83588C185.441 3.49314 185.122 2.54942 184.529 1.89448C183.935 1.23966 182.998 0.797467 181.549 0.60639ZM14.6966 0.786078C12.4991 0.605084 10.7765 0.623976 9.44268 0.858344C8.07775 1.09825 7.15765 1.55608 6.54327 2.2187C5.92863 2.8817 5.56464 3.809 5.42998 5.09565C5.29859 6.35129 5.39035 7.91077 5.65166 9.82416L37.0286 41.2499C40.4492 41.0163 42.551 40.3777 43.8733 39.0576C45.1953 37.7378 45.8385 35.6377 46.0628 32.2031L14.6966 0.786078Z" fill="#795548"/>
<path d="M14.2366 73.7114V53.6585H170.839V73.7114H185.076V78.7246H170.839C107.997 143.22 74.3817 142.507 14.2366 78.7246H0V73.7114H14.2366Z" fill="#7986CB"/>
<path d="M171.339 53.1585V73.2112H185.576V79.2249H171.049C139.699 111.372 115.492 127.418 91.5244 127.328C67.5565 127.238 44.0241 111.013 14.0215 79.2249H-0.5V73.2112H13.7363V53.1585H171.339ZM14.7363 74.2112H0.5V78.2249H14.4521L14.6006 78.3811C44.6721 110.271 67.9814 126.24 91.5283 126.328C115.078 126.417 139.061 110.622 170.481 78.3753L170.628 78.2249H184.576V74.2112H170.339V54.1585H14.7363V74.2112Z" fill="#7986CB"/>
<path d="M153.818 101.939L175.96 200.5H9.11583L31.2574 101.939H153.818ZM10.3658 199.5H174.711L153.018 102.939H32.0572L10.3658 199.5Z" fill="#37474F"/>
<path d="M131.501 200C124.196 180.488 58.445 180.488 53.5746 200H131.501Z" fill="#546E7A"/>
<path d="M91.6244 184.866C100.643 184.866 109.756 186.09 117.087 188.55C124.388 191 130.059 194.725 131.969 199.825L132.222 200.5H52.9339L53.0892 199.878C54.3719 194.74 59.617 191.003 66.6126 188.552C73.6436 186.09 82.6065 184.866 91.6244 184.866ZM91.6244 185.866C82.683 185.866 73.8389 187.082 66.9437 189.497C60.3277 191.814 55.6549 195.182 54.2415 199.5H130.749C128.765 195.171 123.649 191.808 116.769 189.499C109.565 187.081 100.565 185.866 91.6244 185.866Z" fill="#546E7A"/>
<path d="M94.7778 146.341C80.2349 163.492 65.5536 190.244 94.7778 190.244C124.002 190.244 107.472 163.169 94.7778 146.341Z" fill="#FF5722"/>
<path d="M95.1766 146.041C101.519 154.448 108.891 165.502 110.984 174.49C112.032 178.99 111.785 183.095 109.274 186.073C106.771 189.043 102.138 190.744 94.7782 190.744C87.4168 190.744 82.6793 189.062 80.0331 186.13C77.3753 183.186 76.9426 179.114 77.8758 174.623C79.7382 165.66 87.117 154.603 94.3963 146.018L94.8006 145.542L95.1766 146.041ZM94.7538 147.145C87.6284 155.635 80.6287 166.287 78.8544 174.826C77.9526 179.166 78.4211 182.853 80.7753 185.461C83.1411 188.081 87.5276 189.744 94.7782 189.744C102.03 189.744 106.29 188.061 108.51 185.428C110.722 182.804 111.028 179.089 110.01 174.716C108.011 166.133 101.012 155.493 94.7538 147.145Z" fill="#FF5722"/>
<path d="M95.2893 156.098C83.4106 169.479 74.4469 185.366 95.2893 185.366C116.132 185.366 105.147 167.828 95.2893 156.098Z" fill="#FFBA09"/>
<path d="M95.672 155.776C98.145 158.719 100.695 162.033 102.801 165.351C104.903 168.664 106.583 172.011 107.288 175.016C107.994 178.022 107.744 180.786 105.83 182.788C103.94 184.765 100.544 185.866 95.2892 185.866C90.0396 185.866 86.5374 184.87 84.4933 183.048C82.4112 181.191 81.9473 178.58 82.5285 175.652C83.1069 172.739 84.7296 169.435 86.9279 166.044C89.131 162.645 91.9353 159.122 94.9152 155.765L95.3 155.333L95.672 155.776ZM95.2785 156.868C92.4649 160.068 89.8392 163.39 87.7668 166.588C85.5948 169.939 84.051 173.117 83.5089 175.848C82.9697 178.564 83.4305 180.761 85.1584 182.302C86.9243 183.876 90.1178 184.866 95.2892 184.866C100.455 184.866 103.503 183.774 105.107 182.097C106.687 180.443 106.982 178.091 106.315 175.245C105.647 172.4 104.035 169.163 101.956 165.888C99.9868 162.784 97.6145 159.675 95.2785 156.868Z" fill="#FF7B18"/>
<path d="M170.965 62.9146V68.7925H14.1112V62.9146H170.965ZM15.1112 67.7925H169.965V63.9146H15.1112V67.7925Z" fill="#C5CAE9"/>
</g>
<defs>
<clipPath id="clip0_971_12898">
<rect width="186" height="200" fill="white"/>
</clipPath>
</defs>
</svg>
