<svg width="147" height="200" viewBox="0 0 147 200" fill="none" xmlns="http://www.w3.org/2000/svg">
<g clip-path="url(#clip0_971_12930)">
<path d="M73.9701 200C7.09172 152.491 -52.0638 0.000122011 73.9701 0C200.004 -0.000122011 137.839 143.021 73.9701 200Z" fill="#FF3D00"/>
<path d="M73.9697 -0.5C105.565 -0.500031 125.492 8.46583 136.519 22.9346C147.537 37.391 149.573 57.215 145.676 78.7217C137.882 121.728 106.304 171.824 74.3027 200.373L74.0058 200.639L73.6806 200.407C56.8934 188.482 40.6141 169.988 27.6074 148.97C14.6 127.951 4.84491 104.375 1.1347 82.2666C-2.57416 60.1663 -0.252202 39.4619 10.9931 24.2715C22.2508 9.06437 42.3631 -0.49988 73.9697 -0.5ZM73.9697 0.5C42.5602 0.50012 22.8045 9.99702 11.7968 24.8662C0.776737 39.7524 -1.56448 60.1407 2.12103 82.1016C5.80526 104.055 15.5017 127.51 28.457 148.444C41.3281 169.243 57.3966 187.522 73.9335 199.358C105.699 170.884 136.968 121.159 144.691 78.5439C148.564 57.1731 146.502 37.6806 135.725 23.54C124.957 9.41186 105.391 0.49997 73.9697 0.5Z" fill="#FF3D00"/>
<path d="M111.16 72.165C111.16 92.6621 94.5097 109.278 73.97 109.278C53.4304 109.278 36.7797 92.6621 36.7797 72.165C36.7797 51.6678 53.4304 35.0516 73.97 35.0516C94.5097 35.0516 111.16 51.6678 111.16 72.165Z" fill="white"/>
</g>
<defs>
<clipPath id="clip0_971_12930">
<rect width="147" height="200" fill="white"/>
</clipPath>
</defs>
</svg>
