<svg width="200" height="142" viewBox="0 0 200 142" fill="none" xmlns="http://www.w3.org/2000/svg">
<g clip-path="url(#clip0_971_12977)">
<path d="M89.7959 134.911C98.2159 134.842 102.572 136.023 110.204 134.911C102.581 144.106 97.7761 144.617 89.7959 134.911Z" fill="#FFB74D"/>
<path d="M110.589 135.23C108.672 137.542 106.911 139.335 105.214 140.56C103.513 141.788 101.852 142.464 100.144 142.498C96.7333 142.567 93.4004 140.081 89.4102 135.228L88.7442 134.419L89.792 134.411C94.0205 134.376 97.2441 134.655 100.319 134.802C103.397 134.949 106.359 134.965 110.132 134.415L111.419 134.228L110.589 135.23ZM90.8692 135.411C94.5276 139.683 97.3993 141.554 100.124 141.498C101.567 141.469 103.035 140.9 104.629 139.749C105.988 138.768 107.418 137.376 108.981 135.576C105.721 135.961 103.028 135.933 100.272 135.801C97.4264 135.665 94.5405 135.425 90.8692 135.411Z" fill="#FFB74D"/>
<path d="M200 0V134.908H102.041V14.3084C104.07 3.5772 106.613 0.192925 114.286 0H200Z" fill="#FFB74D"/>
<path d="M200.5 -0.5V135.407H101.541V14.2617L101.55 14.2158C102.564 8.85016 103.723 5.20257 105.663 2.88184C107.64 0.515834 110.363 -0.401678 114.273 -0.5H200.5ZM113.609 0.526367C110.24 0.707534 108.042 1.59477 106.43 3.52344C104.678 5.61991 103.553 9.01677 102.541 14.3555V134.407H199.5V0.5H114.299L113.609 0.526367Z" fill="#FFB74D"/>
<path d="M0 134.91V0.00254703H83.6735C95.4252 -0.11777 98.0074 4.00577 97.9592 16.355V134.91H0Z" fill="#FFC878"/>
<path d="M83.6738 -0.49707C89.5727 -0.556826 93.3648 0.438766 95.627 3.18457C97.8621 5.89788 98.4829 10.1906 98.459 16.3555V135.41H-0.5V-0.49707H83.6738ZM0.5 134.41H97.459V16.3535C97.4831 10.17 96.8371 6.22578 94.8555 3.82031C92.9013 1.44827 89.5281 0.443056 83.6787 0.50293H0.5V134.41Z" fill="#FFC878"/>
<path d="M126.531 36.793V32.7049H163.265V36.793H126.531Z" fill="#EF6C00"/>
<path d="M179.592 32.7049H175.51V36.793H179.592V32.7049Z" fill="#EF6C00"/>
<path d="M157.143 53.1454H126.531V57.2335H157.143V53.1454Z" fill="#EF6C00"/>
<path d="M181.633 53.1454H175.51V57.2335H181.633V53.1454Z" fill="#EF6C00"/>
<path d="M126.531 79.7181V75.63H165.306V79.7181H126.531Z" fill="#EF6C00"/>
<path d="M175.51 79.7181V75.63H183.673V79.7181H175.51Z" fill="#EF6C00"/>
<path d="M126.531 102.203V98.1146H155.102V102.203H126.531Z" fill="#EF6C00"/>
<path d="M181.633 98.1146H175.51V102.203H181.633V98.1146Z" fill="#EF6C00"/>
<path d="M155.602 97.615V102.703H126.031V97.615H155.602ZM182.132 97.615V102.703H175.01V97.615H182.132ZM176.01 101.703H181.132V98.615H176.01V101.703ZM127.031 101.703H154.602V98.615H127.031V101.703ZM165.806 75.1297V80.2185H126.031V75.1297H165.806ZM184.173 75.1297V80.2185H175.01V75.1297H184.173ZM176.01 79.2185H183.173V76.1297H176.01V79.2185ZM127.031 79.2185H164.806V76.1297H127.031V79.2185ZM157.643 52.6453V57.7332H126.031V52.6453H157.643ZM182.132 52.6453V57.7332H175.01V52.6453H182.132ZM176.01 56.7332H181.132V53.6453H176.01V56.7332ZM127.031 56.7332H156.643V53.6453H127.031V56.7332ZM163.765 32.2049V37.2928H126.031V32.2049H163.765ZM180.092 32.2049V37.2928H175.01V32.2049H180.092ZM176.01 36.2928H179.092V33.2049H176.01V36.2928ZM127.031 36.2928H162.765V33.2049H127.031V36.2928Z" fill="#EF6C00"/>
<path d="M20.504 40.8809L73.5653 94.0263L71.5245 96.0703L40.9122 65.4095L34.7898 71.5417L18.4632 55.1892C14.8039 48.0924 16.0782 45.2399 20.504 40.8809Z" fill="#FB9516"/>
<path d="M74.2714 94.0264L71.5244 96.7783L40.9121 66.1162L34.79 72.249L18.1093 55.543L18.0546 55.4873L18.0185 55.418C16.1734 51.8394 15.5141 49.226 15.9609 46.9131C16.4068 44.6059 17.9345 42.7098 20.1533 40.5244L20.5068 40.1758L74.2714 94.0264ZM20.5029 41.5869C18.5069 43.5968 17.3046 45.2284 16.9423 47.1035C16.563 49.0676 17.0868 51.4111 18.872 54.8906L34.789 70.833L40.9121 64.7021L71.5244 95.3623L72.8584 94.0254L20.5029 41.5869Z" fill="#FB9516"/>
<path d="M59.9023 65.2218L26.5195 96.5675L26.1768 96.2247L24.1367 94.1798L23.7725 93.8155L57.1543 62.4698L59.9023 65.2218Z" fill="#EF6C00"/>
<path d="M79.5917 41.5639C61.5519 25.5922 51.0208 53.8281 53.0631 66.0942L55.1039 68.1382C67.3468 72.2246 97.6315 57.5356 79.5917 41.5639Z" fill="#EF6C00"/>
<path d="M67.4649 36.4405C71.1542 35.8143 75.3419 37.1338 79.9229 41.1895C84.5142 45.2545 86.1165 49.3219 85.5928 53.0977C85.0734 56.8424 82.4811 60.1537 79.0049 62.7725C75.5204 65.3976 71.0864 67.3756 66.751 68.4415C62.4264 69.5046 58.1319 69.676 54.9453 68.6124L54.834 68.5753L52.709 66.4473L52.5967 66.334L52.5703 66.1758C52.0456 63.0237 52.3314 58.8889 53.3233 54.7247C54.3161 50.5567 56.0267 46.3138 58.3877 42.9522C60.7455 39.5953 63.7913 37.0641 67.4649 36.4405ZM79.2598 41.9385C74.821 38.0087 70.9278 36.8676 67.6328 37.4268C64.3222 37.9888 61.4807 40.2888 59.2061 43.5274C56.9346 46.7615 55.267 50.8793 54.2959 54.9561C53.3405 58.9671 53.0708 62.8947 53.5332 65.8585L55.3711 67.6983C58.2975 68.639 62.3313 68.4988 66.5127 67.4708C70.7353 66.4326 75.0413 64.5065 78.4033 61.9737C81.7735 59.4347 84.1347 56.3337 84.6026 52.96C85.0661 49.6174 83.6883 45.8594 79.2598 41.9385Z" fill="#EF6C00"/>
</g>
<defs>
<clipPath id="clip0_971_12977">
<rect width="200" height="142" fill="white"/>
</clipPath>
</defs>
</svg>
