<svg width="200" height="186" viewBox="0 0 200 186" fill="none" xmlns="http://www.w3.org/2000/svg">
<g clip-path="url(#clip0_971_12991)">
<path d="M132.273 49.5357C132.799 49.7937 133.233 50.0455 133.548 50.2762C134.986 51.1001 136.446 51.8838 138.134 53.0958C139.56 54.1201 141.068 54.797 142.295 55.7128C143.665 56.7353 144.947 57.7378 146.686 59.2413C148.81 61.0782 151.38 64.1454 152.731 65.6173C154.612 67.6675 155.771 69.1273 156.605 71.0817C157.574 73.3555 158.45 74.6371 159.627 77.7427C160.77 80.7574 162.174 83.3865 163.617 87.7001C164.649 90.7814 166.878 97.1049 167.95 101.244C168.863 104.773 170.133 107.687 170.228 113.513C170.341 120.392 170.135 125.132 169.997 126.857C169.77 129.699 169.264 136.01 167.541 142.74C166.804 145.62 166.46 147.834 165.203 150.468C163.493 154.053 159.637 160.004 155.905 164.007C154.369 165.654 152.711 167.197 150.707 169.195C145.123 174.763 141.927 176.543 139.376 177.769C137.604 178.621 135.318 179.259 132.702 179.93C128.915 180.902 124.851 182.131 117.38 182.204C111.633 182.261 101.134 182.261 95.7103 182.202C90.2865 182.144 89.9495 182.012 89.3715 181.975C86.6331 181.803 84.7591 181.642 83.1609 181.178C81.3855 180.663 78.7743 180.438 76.9453 179.755C75.1185 179.072 73.4468 179.061 71.9833 178.387C69.7615 177.365 68.3522 176.771 67.0265 176.055L66.8925 175.983C65.5735 175.271 64.3398 174.605 62.7471 174.063C60.4089 173.268 58.4936 173.302 56.9316 172.583C54.7098 171.561 53.1433 171.194 51.9167 170.193C50.379 168.938 49.2265 167.582 48.4992 165.924C47.8749 164.5 47.384 162.954 47.2472 161.371C47.0745 159.372 46.5911 156.241 46.2774 153.974C46.0482 152.318 45.4804 150.55 44.8509 148.795C43.9889 146.391 43.0223 143.576 40.5714 134.839C39.6649 131.608 39.1534 129.878 38.5771 127.504C37.6124 123.53 36.62 120.326 36.9864 115.841C37.2703 112.366 37.2546 108.197 38.0127 105.09C38.8781 101.543 41.3886 96.9645 43.4894 93.9975C44.5773 92.4612 49.4399 86.7443 54.3284 83.0142C57.4738 80.614 62.4638 76.7256 65.3862 74.4241C68.0784 72.3039 72.0739 68.5573 76.1294 65.2417C80.8587 61.3752 84.5712 57.6143 87.295 55.805C93.9742 51.3683 99.3181 48.7535 101.931 48.1385C104.107 47.6264 106.623 46.4354 118.544 47.1176C122.754 47.3585 125.385 47.4223 127.525 47.8686C128.071 47.8876 128.675 47.9521 129.296 48.0856C130.287 48.4152 131.286 48.9637 132.273 49.5357Z" fill="#FFB74D"/>
<path d="M50 186V158.78C55.517 168.102 63.9233 172.903 84.7826 181.051H115.217C136.282 173.551 143.453 168.586 150 158.78V186L115.217 183.525H84.7826L50 186Z" fill="#BF360C"/>
<path d="M50.4307 158.526C55.8424 167.67 64.0721 172.42 84.8779 180.551H115.131C125.609 176.817 132.6 173.723 137.78 170.36C142.958 166.999 146.342 163.359 149.584 158.503L150.5 157.131V186.536L115.195 184.026H84.8047L49.5 186.536V156.954L50.4307 158.526ZM149.5 160.386C146.457 164.689 143.149 168.068 138.325 171.199C133.03 174.637 125.926 177.769 115.385 181.522L115.304 181.551H84.6885L84.6006 181.517C64.8687 173.809 56.1387 169.051 50.5 160.521V185.463L84.7471 183.027L84.7646 183.026H115.235L115.253 183.027L149.5 185.463V160.386Z" fill="#BF360C"/>
<path d="M0 149.707L47.7273 186V93L127.273 49.9024L152.273 81.6585V186L200 149.707C194.549 49.0481 180.861 14.2622 127.273 11.3415L118.182 0C35.1936 0.277796 8.30512 31.4506 0 149.707Z" fill="#FF5722"/>
<path d="M127.523 10.8545C140.869 11.6054 151.786 14.3387 160.731 19.6074C169.732 24.9092 176.698 32.7564 182.135 43.6494C192.989 65.399 197.774 99.3618 200.499 149.681L200.514 149.945L151.772 187.009V81.8311L127.14 50.542L48.2275 93.2969V187.009L-0.302734 150.105L-0.517578 149.941L-0.499023 149.672C3.65345 90.5452 12.4539 53.042 30.6943 30.2988C48.9727 7.50855 76.639 -0.360889 118.18 -0.5L118.421 -0.500977L127.523 10.8545ZM117.943 0.500977C76.6308 0.669245 49.429 8.5385 31.4746 30.9248C13.4752 53.3674 4.67801 90.4999 0.517578 149.473L47.2275 184.99V92.7021L127.405 49.2617L152.666 81.3496L152.772 81.4854V184.99L199.485 149.47C196.757 99.2758 191.971 65.5963 181.24 44.0957C175.875 33.3449 169.031 25.6564 160.224 20.4688C151.41 15.2775 140.592 12.5683 127.245 11.8408L127.022 11.8291L126.883 11.6543L117.943 0.500977Z" fill="#FF5722"/>
</g>
<defs>
<clipPath id="clip0_971_12991">
<rect width="200" height="186" fill="white"/>
</clipPath>
</defs>
</svg>
