<svg width="201" height="159" viewBox="0 0 201 159" fill="none" xmlns="http://www.w3.org/2000/svg">
<path d="M47.0091 158.5V144.559H60.9618C61.453 118.101 67.798 108.285 93.5182 102.735V56.2646H107.471V102.735C131.593 105.376 139.575 113.601 140.027 144.559H153.98V158.5H140.027C130.605 154.541 127.035 150.487 126.075 137.588C124.793 126.222 121.916 121.552 112.122 116.676C103.428 136.941 98.2719 136.09 88.8673 116.676C78.8265 121.213 76.1204 126.076 74.9146 137.588C75.8004 150.168 71.5532 154.339 58.6364 158.5H47.0091Z" fill="#F57C00"/>
<path d="M107.971 55.7646V102.289C119.815 103.631 127.88 106.375 133.014 112.714C138.141 119.044 140.254 128.85 140.518 144.059H154.48V159H139.926L139.833 158.961C135.095 156.97 131.74 154.921 129.468 151.684C127.2 148.452 126.058 144.104 125.576 137.625C124.938 131.977 123.908 128.067 121.872 124.973C119.905 121.982 116.959 119.7 112.368 117.363C110.275 122.192 108.372 125.821 106.543 128.256C104.666 130.755 102.776 132.116 100.746 132.056C98.7332 131.995 96.8111 130.539 94.8519 128.023C92.9367 125.564 90.9022 121.98 88.6341 117.335C83.9137 119.52 80.9464 121.772 78.9974 124.788C76.9862 127.9 76.0166 131.884 75.4154 137.599C75.8546 143.913 75.0169 148.244 72.3382 151.518C69.6727 154.775 65.2544 156.893 58.7894 158.976L58.7152 159H46.5091V144.059H60.473C60.7519 131.078 62.4772 122.014 67.3802 115.506C72.3025 108.972 80.351 105.109 93.0179 102.333V55.7646H107.971ZM94.0179 103.139L93.6234 103.224C80.7981 105.991 72.9301 109.799 68.178 116.107C63.4175 122.427 61.7075 131.355 61.4622 144.568L61.4525 145.059H47.5091V158H58.557C64.9667 155.93 69.1084 153.886 71.5648 150.885C74.011 147.895 74.8548 143.864 74.4154 137.623L74.4124 137.58L74.4173 137.536C75.0222 131.761 76.0091 127.569 78.1575 124.245C80.3133 120.91 83.5978 118.509 88.6614 116.221L89.1048 116.02L89.3177 116.458C91.6654 121.304 93.7318 124.959 95.64 127.409C97.5642 129.88 99.2385 131.011 100.777 131.057C102.298 131.102 103.915 130.089 105.743 127.655C107.559 125.238 109.493 121.537 111.662 116.479L111.871 115.993L112.345 116.228C117.278 118.684 120.535 121.12 122.708 124.424C124.742 127.515 125.792 131.315 126.446 136.48L126.572 137.532L126.573 137.542L126.574 137.551C127.051 143.97 128.174 148.1 130.286 151.109C132.381 154.094 135.497 156.045 140.13 158H153.48V145.059H139.534L139.528 144.566C139.302 129.099 137.189 119.457 132.237 113.343C127.301 107.249 119.45 104.55 107.416 103.232L106.971 103.184V56.7646H94.0179V103.139Z" fill="#F57C00"/>
<path d="M200.489 33.0293C196.776 61.9765 1.83837 60.3909 0.5 33.0293V23.7352H200.489V33.0293Z" fill="#FF9800"/>
<path d="M200.989 23.2352V33.0613L200.985 33.0926C200.485 36.9906 196.802 40.2338 191.098 42.9148C185.353 45.6148 177.38 47.8305 167.954 49.5809C149.094 53.0831 124.303 54.7445 99.6016 54.6453C74.9006 54.5461 50.2592 52.6863 31.6973 49.1346C22.4204 47.3595 14.6327 45.1557 9.11035 42.5232C6.34957 41.2072 4.12891 39.7729 2.57129 38.2098C1.01039 36.6433 0.0924053 34.9227 0.000976562 33.0535L0 33.0418V23.2352H200.989ZM1 33.0164C1.07907 34.5633 1.84038 36.0587 3.28027 37.5037C4.72696 38.9555 6.83557 40.3317 9.54004 41.6209C14.949 44.1993 22.64 46.3832 31.8848 48.1521C50.3659 51.6885 74.9419 53.5463 99.6064 53.6453C124.271 53.7443 148.994 52.0843 167.771 48.5975C177.164 46.8534 185.04 44.6566 190.672 42.0096C196.33 39.3503 199.548 36.3197 199.989 32.991V24.2352H1V33.0164Z" fill="#FF9800"/>
<path d="M0.504353 22.2204C-0.574317 -8.35767 199.176 -5.07655 200.494 22.2204C201.811 49.5173 1.58302 52.7984 0.504353 22.2204Z" fill="#FFC107"/>
<path d="M31.0186 4.99106C49.6584 1.41666 74.603 -0.187791 99.6045 0.0174245C124.607 0.222652 149.698 2.23776 168.633 5.91391C178.096 7.75116 186.05 10.008 191.691 12.6766C194.512 14.0107 196.78 15.4595 198.37 17.0301C199.963 18.6034 200.903 20.3271 200.993 22.1961C201.084 24.0708 200.303 25.8082 198.845 27.3934C197.392 28.9724 195.248 30.4243 192.544 31.7596C187.134 34.4309 179.367 36.6899 170.05 38.5272C151.406 42.2037 126.434 44.2185 101.401 44.4237C76.3699 44.6289 51.2466 43.0241 32.3008 39.45C22.8322 37.6638 14.8747 35.38 9.23828 32.5663C3.63744 29.7703 0.150311 26.3584 0.00488282 22.2381C-0.140963 18.1037 3.11191 14.6771 8.50391 11.8778C13.9287 9.06146 21.7037 6.77729 31.0186 4.99106ZM99.5967 1.01742C74.6309 0.812501 49.7571 2.41511 31.2061 5.9725C21.9257 7.75214 14.2615 10.0151 8.96387 12.7655C3.63361 15.5328 0.880088 18.693 1.00391 22.203C1.12835 25.727 4.13441 28.901 9.68457 31.6717C15.1994 34.4247 23.0516 36.6879 32.4854 38.4676C51.3444 42.0253 76.3981 43.6286 101.394 43.4237C126.389 43.2188 151.294 41.2062 169.856 37.5457C179.142 35.7146 186.809 33.4765 192.102 30.8631C194.748 29.5562 196.772 28.1696 198.108 26.7166C199.439 25.2698 200.068 23.7814 199.994 22.244C199.92 20.7011 199.144 19.2007 197.667 17.742C196.187 16.2806 194.029 14.8892 191.264 13.5809C185.733 10.9648 177.874 8.7265 168.442 6.89535C149.587 3.23464 124.561 1.22236 99.5967 1.01742Z" fill="#FFC107"/>
</svg>
