<svg width="200" height="200" viewBox="0 0 200 200" fill="none" xmlns="http://www.w3.org/2000/svg">
<path d="M200 100C200 155.228 155.228 200 100 200C44.7715 200 0 155.228 0 100C0 44.7715 44.7715 0 100 0C155.228 0 200 44.7715 200 100Z" fill="#F4C016"/>
<path d="M175 100C175 141.421 141.421 175 100 175C58.5786 175 25 141.421 25 100C25 58.5786 58.5786 25 100 25C141.421 25 175 58.5786 175 100Z" fill="#FFE082"/>
<path d="M108.842 92.4444V134L100 134L91.1579 134V92.4444H76L100 66L124 92.4444H108.842Z" fill="#FF6F00"/>
</svg>
