<svg width="200" height="200" viewBox="0 0 200 200" fill="none" xmlns="http://www.w3.org/2000/svg">
<path fill-rule="evenodd" clip-rule="evenodd" d="M119.878 121.751C105.416 128.557 96.6864 128.393 80.1229 121.751C76.4157 122.339 72.858 123.206 69.5 124.308L69.5 169C70.4507 172.147 72.1587 174.168 75 174.5H124.5C126.98 173.834 128.155 172.861 129.5 169V124.252C126.432 123.286 123.211 122.454 119.878 121.751ZM65.5 179.844V125.769C50.9619 131.634 41.0017 142.012 40.3683 152.719C39.8088 162.178 40.0048 171.301 40.1912 176.229C40.2714 178.349 42.0278 179.99 44.1496 179.976L65.5 179.844ZM155.19 179.29L133.893 179.422V125.769C148.666 131.354 158.992 140.511 159.632 154.193C160.1 164.188 160.039 170.89 159.898 174.83C159.807 177.363 157.724 179.274 155.19 179.29Z" fill="#77B3DE"/>
<path d="M133.893 179.422V125.769C132.468 125.23 131.002 124.725 129.5 124.252V169V174.5V179.449L133.893 179.422Z" fill="white"/>
<path d="M129.5 174.5V169C128.155 172.861 126.98 173.834 124.5 174.5H129.5Z" fill="white"/>
<path d="M69.5 179.82L129.5 179.449V174.5H124.5H75H69.5V179.82Z" fill="white"/>
<path d="M69.5 169V174.5H75C72.1587 174.168 70.4507 172.147 69.5 169Z" fill="white"/>
<path d="M65.5 125.769V179.844L69.5 179.82V174.5V169L69.5 124.308C68.1324 124.757 66.798 125.245 65.5 125.769Z" fill="white"/>
<path d="M65.5 125.769C50.9619 131.634 41.0017 142.012 40.3683 152.719C39.8088 162.178 40.0048 171.301 40.1912 176.229M65.5 125.769V179.844M65.5 125.769C66.798 125.245 68.1324 124.757 69.5 124.308M65.5 179.844L69.5 179.82M65.5 179.844L44.1496 179.976M133.893 125.769C148.666 131.354 158.992 140.511 159.632 154.193C160.1 164.188 160.039 170.89 159.898 174.83M133.893 125.769V179.422M133.893 125.769C132.468 125.23 131.002 124.725 129.5 124.252M133.893 179.422L129.5 179.449M133.893 179.422L155.19 179.29M129.5 179.449L69.5 179.82M129.5 179.449V174.5M129.5 124.252C126.432 123.286 123.211 122.454 119.878 121.751C105.416 128.557 96.6864 128.393 80.1229 121.751C76.4157 122.339 72.858 123.206 69.5 124.308M129.5 124.252V169M69.5 124.252L69.5 124.308M69.5 179.82V174.5M69.5 174.5V169M69.5 174.5H75M129.5 174.5V169M129.5 174.5H124.5M159.898 174.83C159.807 177.363 157.724 179.274 155.19 179.29M159.898 174.83V174.83C159.807 177.362 157.723 179.274 155.19 179.29V179.29M44.1496 179.976C42.0278 179.99 40.2714 178.349 40.1912 176.229M44.1496 179.976V179.976C42.0314 179.99 40.2713 178.346 40.1912 176.229V176.229M69.5 124.308L69.5 169M129.5 169C128.155 172.861 126.98 173.834 124.5 174.5M124.5 174.5H75M69.5 169C70.4507 172.147 72.1587 174.168 75 174.5" stroke="white" stroke-linecap="round"/>
<path d="M133.68 71.6129H66.4517V58.0232C58.6509 52.5741 54.7565 47.9683 54.9125 41.0362C55.163 29.9035 66.585 24.3619 83.5097 26.5971C96.1432 18.1046 103.472 17.5025 117.124 26.5971C132.943 24.3809 142.701 28.8046 144.216 41.0362C145.139 48.4878 141.471 52.9531 133.68 58.0232V71.6129Z" fill="white" stroke="#77B3DE"/>
<mask id="path-4-inside-1_382_31" fill="white">
<path d="M133.417 79.7237C133.97 79.7237 134.419 80.1717 134.403 80.7237C134.147 89.552 130.515 97.9652 124.229 104.228C117.705 110.727 108.858 114.378 99.632 114.378C90.4063 114.378 81.5586 110.727 75.0351 104.228C68.7485 97.9652 65.1167 89.552 64.8611 80.7237C64.8452 80.1717 65.2944 79.7237 65.8467 79.7237L99.632 79.7237H133.417Z"/>
</mask>
<path d="M133.417 79.7237C133.97 79.7237 134.419 80.1717 134.403 80.7237C134.147 89.552 130.515 97.9652 124.229 104.228C117.705 110.727 108.858 114.378 99.632 114.378C90.4063 114.378 81.5586 110.727 75.0351 104.228C68.7485 97.9652 65.1167 89.552 64.8611 80.7237C64.8452 80.1717 65.2944 79.7237 65.8467 79.7237L99.632 79.7237H133.417Z" fill="#FDD090" stroke="white" stroke-width="2" mask="url(#path-4-inside-1_382_31)"/>
<path d="M112.072 171.385C108.127 167.575 105.177 164.812 101.813 161.849C97.5598 165.486 94.2247 168.234 89.2658 172.45C88.6228 172.996 87.7033 173.084 86.9709 172.665L85.8805 172.041C84.6344 171.327 84.5256 169.571 85.6657 168.698C90.4789 165.013 93.9807 162.119 97.9065 158.474C97.6095 158.221 97.307 157.965 96.9984 157.704C96.446 157.237 95.6852 157.117 94.9935 157.328C93.0558 157.919 91.5723 157.933 89.2629 157.579C88.9915 157.538 88.7313 157.437 88.5016 157.287C84.5282 154.685 81.4067 151.979 78.9638 149.306C76.4498 146.556 79.9524 144.494 82.589 146.759L88.1584 151.542C88.3981 151.748 88.6799 151.901 88.9923 151.948C89.6291 152.044 89.9437 151.923 90.0808 151.563C90.2748 151.055 89.9442 150.517 89.5438 150.148C88.0361 148.761 84.2283 145.22 82.9186 143.645C81.2707 141.664 84.8959 139.683 86.5438 141.098L93.6924 147.237C93.9759 147.481 94.3195 147.649 94.6924 147.673C95.3979 147.718 95.7826 147.566 95.9649 147.112C96.1854 146.562 95.8442 145.972 95.397 145.584C93.9483 144.328 90.6223 141.421 88.8508 139.683C86.5439 137.419 90.1691 135.438 92.1465 137.136C94.0616 138.78 97.9357 141.821 101.669 145.287C101.909 145.509 102.091 145.789 102.189 146.101C102.968 148.595 102.838 150.184 101.588 152.037C101.002 152.905 101.01 154.078 101.727 154.825C102.106 154.455 102.492 154.075 102.887 153.685C102.976 153.597 103.059 153.498 103.13 153.395L103.34 153.09C108.32 145.856 111.497 141.241 113.596 139.476C114.146 139.014 114.95 139.066 115.415 139.614C116.531 140.932 116.51 142.585 116.534 144.494C116.574 147.573 115.362 149.728 113.239 151.853C110.27 154.496 107.813 156.657 105.662 158.528C110.303 162.841 112.246 164.424 115.937 167.693C116.912 168.556 116.807 170.107 115.729 170.835L114.585 171.607C113.8 172.136 112.752 172.042 112.072 171.385Z" fill="white" stroke="white" stroke-width="0.1" stroke-linecap="round" stroke-linejoin="round"/>
</svg>
