<svg width="151" height="201" viewBox="0 0 151 201" fill="none" xmlns="http://www.w3.org/2000/svg">
<path fill-rule="evenodd" clip-rule="evenodd" d="M100.347 127.688C82.2708 136.195 71.3583 135.99 50.6539 127.688C46.0198 128.424 41.5728 129.508 37.3753 130.885V186.75C38.5637 190.683 40.6987 193.21 44.2503 193.625H106.125C109.225 192.792 110.695 191.576 112.375 186.75V130.814C108.54 129.607 104.514 128.568 100.347 127.688ZM32.3753 200.305V132.71C14.2026 140.043 1.75238 153.015 0.960676 166.398C0.261194 178.222 0.506301 189.626 0.739309 195.786C0.839559 198.436 3.03498 200.487 5.68728 200.47L32.3753 200.305ZM144.488 199.612L117.866 199.777V132.71C136.332 139.692 149.24 151.138 150.04 168.241C150.625 180.735 150.549 189.113 150.372 194.038C150.259 197.203 147.655 199.592 144.488 199.612Z" fill="#77B3DE"/>
<path d="M117.866 199.777V132.71C116.086 132.037 114.253 131.405 112.375 130.814V186.75V193.625V199.811L117.866 199.777Z" fill="white"/>
<path d="M112.375 193.625V186.75C110.695 191.576 109.225 192.792 106.125 193.625H112.375Z" fill="white"/>
<path d="M37.3753 200.274L112.375 199.811V193.625H106.125H44.2503H37.3753V200.274Z" fill="white"/>
<path d="M37.3753 186.75V193.625H44.2503C40.6987 193.21 38.5637 190.683 37.3753 186.75Z" fill="white"/>
<path d="M32.3753 132.71V200.305L37.3753 200.274V193.625V186.75V130.885C35.6658 131.446 33.9977 132.056 32.3753 132.71Z" fill="white"/>
<path d="M100.45 127.199C104.631 128.081 108.674 129.124 112.526 130.337C114.412 130.931 116.253 131.566 118.043 132.243C136.583 139.253 149.726 150.818 150.54 168.218C151.125 180.724 151.049 189.115 150.872 194.056C150.858 194.448 150.843 194.819 150.828 195.168C150.707 197.98 148.387 200.088 145.601 200.105L4.74537 200.976C2.35939 200.991 0.37474 199.138 0.27662 196.744C0.264421 196.446 0.251921 196.133 0.239511 195.805C0.00621223 189.636 -0.239624 178.214 0.46119 166.368C1.27001 152.7 13.9422 139.609 32.1878 132.247C33.7517 131.616 35.3582 131.027 37.0022 130.482C37.0938 130.379 37.2267 130.314 37.3753 130.314C37.4111 130.314 37.446 130.318 37.4797 130.325C41.6261 128.98 46.0109 127.918 50.5754 127.194L50.7122 127.173L50.8401 127.224C61.1711 131.367 69.0058 133.467 76.4876 133.492C83.9614 133.517 91.1326 131.472 100.134 127.236L100.286 127.165L100.45 127.199ZM31.8753 133.455C14.1542 140.803 2.2252 153.496 1.46021 166.428C0.849361 176.753 0.959438 186.761 1.1526 193.223L1.23853 195.767L1.25318 195.988C1.45245 198.254 3.36943 199.985 5.68385 199.971L31.8753 199.808V133.455ZM36.8753 131.581C35.514 132.04 34.1797 132.53 32.8753 133.05V199.802L36.8753 199.777V131.581ZM37.8753 199.77L111.875 199.313V194.125H37.8753V199.77ZM112.875 199.307L117.366 199.279V133.058C115.903 132.511 114.405 131.992 112.875 131.5V199.307ZM118.366 199.272L144.485 199.112C147.4 199.094 149.769 196.901 149.872 194.019C150.048 189.109 150.125 180.746 149.541 168.265C148.765 151.665 136.392 140.412 118.366 133.437V199.272ZM111.875 189.352C111.343 190.49 110.787 191.356 110.144 192.03C109.717 192.478 109.258 192.832 108.759 193.125H111.875V189.352ZM50.5989 128.204C46.1653 128.914 41.9057 129.946 37.8753 131.249V186.674C38.4537 188.562 39.246 190.074 40.2874 191.161C41.3283 192.247 42.6361 192.927 44.2864 193.125H106.053C107.53 192.723 108.557 192.245 109.42 191.34C110.3 190.417 111.052 189.009 111.875 186.66V131.183C108.211 130.043 104.373 129.054 100.404 128.212C91.4006 132.433 84.1181 134.518 76.4846 134.492C68.8472 134.466 60.9084 132.329 50.5989 128.204ZM37.8753 193.125H41.1633C40.5784 192.779 40.0461 192.354 39.5657 191.852C38.9039 191.162 38.3458 190.336 37.8753 189.395V193.125Z" fill="white"/>
<path d="M117.601 65.0157H33.5649V48.0286C23.814 41.2172 18.9459 35.4599 19.1409 26.7947C19.454 12.8789 33.7316 5.95193 54.8875 8.74597C70.6793 -1.8697 79.8406 -2.6224 96.9053 8.74597C116.679 5.97566 128.877 11.5053 130.77 26.7947C131.924 36.1093 127.34 41.691 117.601 48.0286V65.0157Z" fill="white"/>
<path d="M75.4116 0.00246907C81.9205 -0.0932572 88.5389 2.59358 97.0239 8.22513C106.87 6.86851 114.918 7.55728 120.771 10.5533C126.696 13.5863 130.303 18.9478 131.267 26.7329C131.857 31.4964 130.979 35.3431 128.687 38.8042C126.446 42.1893 122.873 45.1722 118.101 48.2974V65.5161H33.0649V48.2866C23.4243 41.5177 18.4417 35.6483 18.6411 26.7837C18.8023 19.622 22.5733 14.2534 28.9751 11.0572C35.3119 7.89342 44.2132 6.85842 54.7651 8.2261C62.6093 2.97084 68.9079 0.098147 75.4116 0.00246907ZM75.4263 1.00149C69.1785 1.09342 63.0412 3.86716 55.1665 9.16067L55.0093 9.26614L54.8218 9.24173C44.3002 7.85218 35.5531 8.89031 29.4214 11.9517C23.3172 14.9994 19.7931 20.0521 19.6411 26.8062C19.4522 35.2061 24.1308 40.8287 33.8511 47.6187L34.0649 47.7681V64.5161H117.101V47.7574L117.328 47.6099C122.18 44.452 125.691 41.5172 127.853 38.2525C130 35.0098 130.838 31.4071 130.274 26.856C129.344 19.3521 125.905 14.3044 120.315 11.4429C114.689 8.56342 106.817 7.86193 96.9751 9.24075L96.7866 9.26712L96.6284 9.16165C88.1248 3.4966 81.6718 0.909639 75.4263 1.00149Z" fill="#77B3DE"/>
<path d="M117.522 75.1541C118.074 75.1541 118.523 75.602 118.51 76.1541C118.253 87.2805 113.704 97.8968 105.786 105.785C97.6319 113.908 86.5722 118.472 75.0402 118.472C63.5082 118.472 52.4484 113.908 44.2941 105.785C36.3766 97.8968 31.8278 87.2805 31.5702 76.1541C31.5574 75.602 32.0063 75.1541 32.5586 75.1541L117.522 75.1541Z" fill="#FDD090"/>
<path d="M117.624 75.1594C118.128 75.2106 118.522 75.6365 118.51 76.1541L118.474 77.1955C117.965 87.9412 113.456 98.1433 105.786 105.785C97.6319 113.908 86.5722 118.472 75.0402 118.472L75.04 117.472C86.3079 117.472 97.1136 113.013 105.08 105.076C112.81 97.376 117.252 87.0142 117.51 76.1545H32.5713C32.8288 87.0142 37.2706 97.376 45 105.076C52.9665 113.013 63.7722 117.472 75.04 117.472L75.0402 118.472C63.5082 118.472 52.4484 113.908 44.2941 105.785C36.624 98.1433 32.1149 87.9412 31.6065 77.1955L31.5702 76.1541C31.5582 75.6366 31.9519 75.2107 32.4561 75.1594L32.5586 75.1541L117.522 75.1541L117.624 75.1594Z" fill="white"/>
<path d="M90.88 190.011C85.8034 185.102 82.053 181.587 77.7659 177.811C72.3727 182.423 68.1602 185.892 61.811 191.292C61.1681 191.839 60.2514 191.925 59.5191 191.505L57.1928 190.173C55.9467 189.46 55.8389 187.703 56.9806 186.832C63.3102 182.004 67.814 178.298 72.8834 173.592C72.4403 173.215 71.9875 172.831 71.5236 172.44C70.971 171.973 70.2098 171.851 69.5214 172.072C66.9304 172.906 65.0325 172.933 61.9756 172.458C61.7043 172.416 61.4441 172.315 61.2141 172.165C56.2059 168.895 52.2764 165.492 49.205 162.132C46.0624 158.694 50.4408 156.117 53.7366 158.948L60.7893 165.005C61.0289 165.211 61.311 165.361 61.6222 165.416C62.6139 165.589 63.0258 165.381 63.1602 164.75C63.2735 164.217 62.9861 163.696 62.5854 163.328C60.8218 161.708 55.8328 157.081 54.1485 155.056C52.0886 152.58 56.6202 150.103 58.6801 151.872L67.7252 159.64C68.0086 159.883 68.3511 160.047 68.7233 160.08C69.8079 160.175 70.3298 159.942 70.5281 159.167C70.6747 158.593 70.3705 158.02 69.9231 157.633C68.2209 156.159 63.8535 152.35 61.5638 150.103C58.6801 147.273 63.2116 144.796 65.6834 146.919C68.0928 148.988 72.983 152.825 77.6781 157.193C77.9176 157.415 78.0994 157.695 78.1988 158.007C79.2715 161.371 79.0473 163.421 77.2067 165.941C76.5705 166.812 76.6073 168.035 77.3894 168.778C77.4794 168.864 77.5689 168.949 77.6577 169.033C78.1426 168.559 78.6371 168.073 79.1427 167.573C79.2317 167.485 79.315 167.385 79.386 167.282L79.6749 166.862C86.0804 157.558 90.0997 151.719 92.7206 149.662C93.2856 149.219 94.0811 149.279 94.5749 149.8C96.1667 151.482 96.1364 153.625 96.1683 156.117C96.2177 159.966 94.7033 162.659 92.0488 165.316C88.3378 168.62 85.267 171.321 82.5783 173.66C88.5773 179.234 90.9692 181.161 95.9018 185.541C96.8749 186.405 96.7708 187.957 95.692 188.685L93.3945 190.235C92.6103 190.764 91.5602 190.669 90.88 190.011Z" fill="white"/>
<path d="M61.5878 146.612C62.6853 145.893 64.4608 145.804 65.7157 146.881C68.1225 148.948 73.0161 152.787 77.7118 157.155C77.9572 157.384 78.1439 157.671 78.246 157.991C78.7833 159.677 78.9978 161.038 78.8446 162.296C78.6913 163.555 78.1707 164.706 77.247 165.971C76.6238 166.824 76.6622 168.019 77.4237 168.742C77.5018 168.817 77.5799 168.89 77.6571 168.963C78.1308 168.5 78.6139 168.025 79.1073 167.537C79.194 167.452 79.2754 167.355 79.3446 167.254L79.6337 166.834C82.8362 162.182 85.4433 158.396 87.577 155.515C89.7098 152.635 91.3729 150.656 92.6893 149.622C93.2747 149.163 94.0997 149.226 94.6112 149.766C96.2189 151.464 96.1867 153.63 96.2186 156.116C96.2682 159.982 94.7448 162.688 92.0839 165.352L92.0819 165.354C88.3902 168.64 85.3311 171.33 82.6522 173.66C88.6213 179.206 91.0127 181.132 95.9354 185.504C96.9326 186.39 96.8253 187.98 95.7196 188.726L93.4227 190.277C92.6189 190.819 91.5426 190.721 90.8456 190.047C85.782 185.151 82.0384 181.64 77.7655 177.876C72.3885 182.474 68.1787 185.942 61.8436 191.33C61.1848 191.891 60.2447 191.979 59.494 191.549L57.1679 190.217C55.8904 189.486 55.7804 187.685 56.9501 186.792C63.2617 181.978 67.7563 178.279 72.8075 173.592C72.3785 173.227 71.9398 172.856 71.4911 172.478C70.9529 172.024 70.2102 171.903 69.537 172.119C66.9365 172.956 65.0297 172.983 61.9677 172.507C61.6893 172.464 61.4221 172.361 61.1864 172.207C56.175 168.935 52.2423 165.529 49.1679 162.165C48.3769 161.3 48.0536 160.482 48.0741 159.784C48.0947 159.085 48.4602 158.515 49.0292 158.147C50.1653 157.412 52.1085 157.483 53.7694 158.909L60.8222 164.967C61.0563 165.168 61.3302 165.314 61.6307 165.366C62.1244 165.453 62.4628 165.442 62.6923 165.339C62.9167 165.239 63.0461 165.045 63.1112 164.739C63.2192 164.232 62.946 163.727 62.5516 163.364C60.7894 161.746 55.7973 157.116 54.1102 155.088C53.5858 154.458 53.4775 153.821 53.6503 153.25C53.8223 152.683 54.2697 152.187 54.8427 151.829C55.986 151.115 57.66 150.93 58.7128 151.834L67.7577 159.602C68.0345 159.84 68.3673 159.999 68.7274 160.03C69.2674 160.078 69.6582 160.042 69.9364 159.904C70.2104 159.769 70.3829 159.532 70.4794 159.154C70.6195 158.607 70.3303 158.051 69.8905 157.67C68.1887 156.197 63.8203 152.387 61.5292 150.139C60.8014 149.425 60.534 148.725 60.5936 148.109C60.6534 147.493 61.038 146.971 61.5878 146.612ZM72.8847 173.657C67.8269 178.351 63.3277 182.053 57.0106 186.871C55.8971 187.721 56.0029 189.435 57.2177 190.13L59.5438 191.462C60.2578 191.871 61.1514 191.787 61.7782 191.254C68.1116 185.867 72.3165 182.404 77.6893 177.81C76.1817 176.482 74.6073 175.122 72.8847 173.657ZM82.5761 173.727C80.8653 175.214 79.3098 176.556 77.8417 177.812C82.1116 181.574 85.8551 185.082 90.9149 189.975C91.5781 190.616 92.6016 190.709 93.3661 190.194L95.6639 188.643C96.7156 187.933 96.8176 186.421 95.869 185.578C90.9464 181.207 88.5518 179.279 82.5761 173.727ZM77.6571 169.102C76.0001 170.721 74.4542 172.199 72.9579 173.589C74.6815 175.055 76.2568 176.416 77.7655 177.744C79.2344 176.488 80.7913 175.147 82.5028 173.658C81.1078 172.362 79.5182 170.868 77.6571 169.102ZM94.5389 149.835C94.0629 149.332 93.2964 149.274 92.7518 149.701C91.4474 150.725 89.7905 152.694 87.6571 155.574C85.5247 158.453 82.9186 162.238 79.7157 166.891L79.4276 167.311C79.3549 167.416 79.2689 167.518 79.1776 167.609C78.6851 168.096 78.2023 168.569 77.7294 169.031C79.5924 170.8 81.1831 172.295 82.579 173.592C85.2594 171.26 88.3203 168.568 92.0155 165.279C94.6622 162.629 96.1671 159.948 96.118 156.118C96.086 153.62 96.1144 151.5 94.5389 149.835ZM65.6513 146.957C64.4344 145.912 62.7077 145.999 61.6425 146.696C61.111 147.043 60.7495 147.54 60.6932 148.117C60.6372 148.695 60.8847 149.367 61.5985 150.068C63.8869 152.313 68.2535 156.121 69.9559 157.595C70.4109 157.989 70.7292 158.58 70.5761 159.179C70.4744 159.576 70.2875 159.843 69.9804 159.994C69.6768 160.144 69.2634 160.178 68.7186 160.13C68.3345 160.096 67.9822 159.927 67.6923 159.678L58.6474 151.909C57.6403 151.045 56.0177 151.213 54.8954 151.914C54.3358 152.264 53.9088 152.742 53.746 153.279C53.5841 153.814 53.6819 154.416 54.1874 155.024C55.8689 157.045 60.8542 161.67 62.619 163.291C63.026 163.665 63.3274 164.203 63.2089 164.76C63.1396 165.085 62.9962 165.312 62.7333 165.43C62.4753 165.546 62.1112 165.552 61.6132 165.465C61.2917 165.409 61.0017 165.253 60.7567 165.042L53.704 158.986C52.0695 157.582 50.1753 157.525 49.0839 158.231C48.5391 158.583 48.1932 159.125 48.1737 159.787C48.1542 160.451 48.462 161.244 49.2421 162.098C52.3105 165.455 56.2363 168.856 61.2411 172.123C61.4651 172.27 61.719 172.367 61.9833 172.408C65.0349 172.882 66.9245 172.855 69.5057 172.025C70.2091 171.798 70.9887 171.923 71.5555 172.402C72.0076 172.783 72.4496 173.156 72.8817 173.524C74.379 172.133 75.9263 170.654 77.5848 169.033C77.5087 168.961 77.4324 168.888 77.3554 168.815C76.5528 168.052 76.5168 166.8 77.1659 165.911C78.0828 164.656 78.5953 163.522 78.746 162.284C78.8968 161.046 78.6865 159.701 78.1513 158.022C78.0546 157.719 77.8779 157.446 77.6444 157.229C72.9504 152.862 68.0634 149.029 65.6513 146.957Z" fill="white"/>
</svg>
