<svg width="201" height="160" viewBox="0 0 201 160" fill="none" xmlns="http://www.w3.org/2000/svg">
<path d="M153.152 13.3569C154.364 5.52783 152.123 2.00134 147.63 1.65072C142.954 1.28587 140.516 6.54912 141.187 13.3569C146.156 14.2877 148.821 14.0559 153.152 13.3569Z" fill="#D5AA60"/>
<path fill-rule="evenodd" clip-rule="evenodd" d="M196.997 74.0159C193.179 74.092 142.509 74.05 115.056 74.0272C105.883 74.0196 99.3025 74.0141 97.9267 74.0159C92.4332 74.0232 91.5343 61.2493 97.9267 61.2456C104.319 61.2418 105.29 61.2456 105.29 61.2456C138.217 62.6227 156.553 62.6383 189.049 61.2456C189.049 61.2456 192.772 61.3107 196.997 61.2456C201.223 61.1804 202.092 73.9144 196.997 74.0159Z" fill="#D5AA60"/>
<path d="M189.049 61.2456C183.154 30.3234 175.163 19.8202 153.152 13.3569C148.821 14.0559 146.156 14.2877 141.187 13.3569C117.437 20.7904 110.813 32.705 105.29 61.2456C138.217 62.6227 156.553 62.6383 189.049 61.2456Z" fill="#FFC115"/>
<path d="M141.96 4.58206C143.142 2.32366 145.09 0.951328 147.668 1.15237C150.056 1.33871 151.913 2.38678 152.976 4.47268C153.978 6.44012 154.237 9.26259 153.708 13.001C164.546 16.2347 172.039 20.5054 177.543 27.8291C183.053 35.16 186.528 45.495 189.462 60.751C189.534 60.752 189.614 60.7538 189.702 60.7549C190.117 60.76 190.713 60.7655 191.442 60.7696C192.898 60.7777 194.882 60.7786 196.99 60.7461C198.336 60.7254 199.317 61.7268 199.944 62.9746C200.58 64.2415 200.936 65.9054 200.992 67.5508C201.048 69.1946 200.807 70.88 200.194 72.1817C199.576 73.4917 198.536 74.4852 197.007 74.5156C193.179 74.5919 142.502 74.5501 115.056 74.5274C105.883 74.5198 99.3021 74.5138 97.927 74.5156C96.3307 74.5176 95.1046 73.583 94.2873 72.291C93.4735 71.0042 93.0285 69.3172 92.97 67.6524C92.9114 65.9891 93.237 64.2877 94.0305 62.9834C94.8365 61.6587 96.1295 60.7463 97.926 60.7451C101.122 60.7433 102.964 60.7437 104.006 60.7442C104.403 60.7443 104.683 60.7439 104.879 60.7442C107.621 46.6792 110.665 36.5943 115.996 29.0967C121.337 21.5849 128.934 16.7232 140.654 13.002C140.384 9.69966 140.836 6.73029 141.96 4.58206ZM97.927 61.7451C96.5279 61.746 95.5366 62.4323 94.885 63.503C94.2209 64.5946 93.9152 66.0875 93.969 67.6172C94.0228 69.1453 94.4333 70.6506 95.133 71.7569C95.8295 72.8578 96.7758 73.5172 97.926 73.5156C99.3025 73.5138 105.885 73.5198 115.057 73.5274C142.516 73.5502 193.176 73.5916 196.988 73.5156C198.005 73.4954 198.768 72.859 199.288 71.7549C199.813 70.6424 200.045 69.1291 199.992 67.585C199.94 66.0428 199.605 64.5293 199.05 63.4239C198.485 62.2992 197.772 61.7333 197.005 61.7451C194.888 61.7778 192.897 61.7777 191.436 61.7696C190.705 61.7655 190.107 61.76 189.691 61.7549C189.483 61.7524 189.32 61.7497 189.209 61.7481C189.154 61.7472 189.112 61.7466 189.083 61.7461C189.069 61.7459 189.058 61.7462 189.051 61.7461L189.049 61.7451C156.551 63.1376 138.202 63.1225 105.269 61.7451H105.037C104.847 61.7449 104.526 61.7444 104.005 61.7442C102.964 61.7437 101.123 61.7433 97.927 61.7451ZM153.115 13.8682C148.851 14.5528 146.139 14.7794 141.22 13.8701C129.476 17.562 122.025 22.3427 116.811 29.6758C111.633 36.958 108.624 46.8097 105.894 60.7696C138.246 62.1138 156.518 62.1285 188.448 60.7696C185.527 45.6407 182.091 35.5438 176.744 28.4297C171.364 21.2715 164.006 17.0791 153.115 13.8682ZM147.591 2.14944C145.494 1.98581 143.884 3.06214 142.846 5.04592C141.835 6.97722 141.391 9.74572 141.653 12.9317C146.173 13.7437 148.735 13.5489 152.709 12.919C153.237 9.23593 152.957 6.63707 152.085 4.92678C151.208 3.2046 149.696 2.31377 147.591 2.14944Z" fill="#FFEB9C"/>
<path d="M69.2588 75.0622H26.5797C25.9458 75.0622 25.4709 75.6276 25.6093 76.2462C27.1505 83.1333 35.5405 118.116 49.278 129.336C60.4909 114.844 65.5051 102.436 70.2398 76.2468C70.3505 75.6344 69.8811 75.0622 69.2588 75.0622Z" fill="#EEEDE9"/>
<path d="M69.2585 74.5622C70.1985 74.5622 70.8971 75.4225 70.7321 76.3356C65.9885 102.574 60.9514 115.067 49.6735 129.642L49.3591 130.048L48.9616 129.723C45.4561 126.86 42.319 122.507 39.5632 117.517C36.804 112.522 34.409 106.856 32.4001 101.338C28.3822 90.2995 25.8945 79.808 25.1218 76.3551C24.91 75.4085 25.6421 74.5622 26.5798 74.5622H69.2585ZM26.5798 75.5622C26.2498 75.5622 26.0324 75.8469 26.0974 76.1374C26.866 79.572 29.343 90.0153 33.3396 100.995C35.3379 106.485 37.7126 112.099 40.4382 117.034C43.0595 121.78 45.9903 125.866 49.198 128.616C60.1234 114.384 65.067 102.049 69.7478 76.1579C69.8041 75.8463 69.563 75.5622 69.2585 75.5622H26.5798Z" fill="#EEEDE9"/>
<path d="M86.0996 158.069H0.5V100.603C2.12259 93.1104 3.98284 89.316 9.70426 83.5757C16.1186 78.7545 19.9834 77.0263 27.1924 75.0622C33.0311 101.263 35.9963 116.507 49.2826 129.336C57.4813 119.033 61.8823 105.787 69.532 75.0622C69.532 75.0622 82.3683 77.3601 87.9405 83.5757C99.6261 96.6107 110.041 119.515 110.031 115.502C110.031 115.502 129.604 82.9377 129.36 84.6399C129.115 86.3422 161.291 84.3895 166.177 85.7041C171.062 87.0187 171.255 97.0044 162.495 103.795C153.735 110.586 146.059 108.243 145.927 111.245L121.383 149.942C118.358 154.712 111.737 155.549 107.621 151.681L86.0996 131.464V158.069Z" fill="black"/>
<path d="M27.6807 74.9538C33.4701 100.934 36.4141 115.964 49.2314 128.587C57.1329 118.443 61.5009 105.25 69.0469 74.9411L69.1602 74.4879L69.6201 74.57L69.623 74.5709C69.623 74.5709 69.6275 74.5713 69.6309 74.5719C69.6376 74.5731 69.6474 74.5754 69.6602 74.5778C69.6856 74.5825 69.723 74.589 69.7715 74.5983C69.8691 74.6171 70.0129 74.6453 70.1963 74.6833C70.563 74.7592 71.0913 74.8752 71.7422 75.0329C73.044 75.3482 74.8392 75.8331 76.8105 76.5153C80.732 77.8722 85.4371 80.0346 88.3125 83.2418C94.1922 89.8005 99.7402 98.8253 103.802 105.676C105.84 109.115 107.496 111.992 108.646 113.767C109.066 114.415 109.399 114.882 109.644 115.173C109.648 115.166 109.653 115.158 109.658 115.15C109.695 115.088 109.751 114.997 109.822 114.879C109.966 114.64 110.176 114.291 110.443 113.847C110.978 112.96 111.742 111.694 112.657 110.181C114.489 107.155 116.928 103.136 119.36 99.1706C121.792 95.206 124.218 91.292 126.021 88.4743C126.922 87.0668 127.672 85.9262 128.19 85.1891C128.446 84.8259 128.659 84.542 128.811 84.3727C128.85 84.3292 128.892 84.2851 128.935 84.2467C128.967 84.218 129.041 84.1529 129.144 84.1129C129.196 84.0923 129.307 84.0583 129.443 84.0856C129.605 84.1181 129.725 84.2209 129.792 84.3395C129.812 84.3749 129.825 84.41 129.835 84.442C129.839 84.4435 129.843 84.4454 129.847 84.4469C130.018 84.5079 130.311 84.5697 130.735 84.6247C131.574 84.7332 132.809 84.8011 134.335 84.8395C137.382 84.9161 141.524 84.8726 145.838 84.817C150.147 84.7615 154.626 84.6939 158.332 84.7223C160.185 84.7365 161.851 84.7748 163.21 84.8512C164.555 84.9269 165.64 85.042 166.307 85.2213C169.112 85.9764 170.397 89.1516 169.949 92.7575C169.495 96.4124 167.275 100.722 162.802 104.19C158.337 107.651 154.144 108.785 151.079 109.43C149.521 109.758 148.34 109.947 147.506 110.241C147.098 110.385 146.833 110.535 146.669 110.697C146.521 110.843 146.438 111.014 146.427 111.266L146.421 111.4L121.805 150.211C118.611 155.245 111.624 156.128 107.278 152.046L86.5996 132.62V158.569H0V100.549L0.0117188 100.497C0.827322 96.7307 1.7101 93.8587 3.12402 91.1979C4.53855 88.536 6.47032 86.1121 9.35059 83.2223L9.375 83.1979L9.4043 83.1764C15.8733 78.3141 19.7962 76.559 27.0605 74.5797L27.5664 74.442L27.6807 74.9538ZM69.9014 75.6442C62.3271 106.022 57.9099 119.297 49.6738 129.647L49.3311 130.078L48.9355 129.696C35.6073 116.826 32.5718 101.527 26.8184 75.6852C19.9982 77.5753 16.2237 79.3042 10.0322 83.9547C7.20586 86.7934 5.35429 89.1311 4.00684 91.6666C2.66095 94.1994 1.80371 96.9568 1 100.657V157.569H85.5996V130.308L107.963 151.317C111.851 154.97 118.104 154.179 120.961 149.674L145.439 111.079C145.488 110.645 145.668 110.281 145.967 109.986C146.282 109.675 146.707 109.462 147.174 109.298C148.09 108.974 149.401 108.762 150.873 108.452C153.869 107.821 157.894 106.729 162.188 103.4C166.475 100.077 168.539 95.9986 168.957 92.6344C169.381 89.2213 168.126 86.7468 166.047 86.1872C165.492 86.0379 164.503 85.9261 163.154 85.8502C161.819 85.7752 160.172 85.7365 158.325 85.7223C154.632 85.694 150.165 85.7615 145.851 85.817C141.541 85.8725 137.379 85.9166 134.31 85.8395C132.778 85.801 131.5 85.7315 130.606 85.6159C130.166 85.5588 129.787 85.4873 129.512 85.3893C129.454 85.3689 129.394 85.3433 129.334 85.3141C129.243 85.4342 129.136 85.585 129.009 85.7653C128.504 86.4832 127.764 87.6074 126.864 89.0133C125.066 91.8226 122.644 95.7304 120.213 99.694C117.782 103.657 115.344 107.673 113.513 110.699C112.597 112.212 111.834 113.477 111.3 114.364C111.032 114.807 110.822 115.156 110.679 115.394C110.613 115.504 110.56 115.59 110.523 115.651C110.518 115.747 110.508 115.841 110.484 115.929C110.451 116.054 110.375 116.248 110.18 116.371C109.962 116.508 109.734 116.473 109.588 116.418C109.45 116.365 109.33 116.276 109.235 116.193C108.867 115.871 108.378 115.192 107.808 114.311C106.643 112.514 104.966 109.602 102.941 106.187C98.8768 99.3309 93.3741 90.386 87.5684 83.9098C84.8716 80.9017 80.373 78.8065 76.4834 77.4606C74.5492 76.7913 72.7859 76.3143 71.5068 76.0045C70.8677 75.8498 70.3502 75.7367 69.9932 75.6627C69.9614 75.6562 69.9306 75.6502 69.9014 75.6442ZM129.854 84.7106C129.858 84.6868 129.858 84.6644 129.857 84.6432C129.856 84.6692 129.857 84.6921 129.854 84.7106Z" fill="#3B4452"/>
<path d="M36.462 91.3622C36.3611 86.0352 36.3901 83.8411 36.462 80.1084C37.0695 78.4986 37.6977 77.9934 39.7538 78.377L48.3623 82.9108L57.036 78.377C58.5986 78.1034 59.4123 78.1833 60.3278 80.1084V91.2913C59.812 92.5422 59.3639 93.1069 57.859 93.0936C52.0187 90.5832 50.6495 89.5376 48.3623 88.4978C46.5387 89.1357 44.2882 90.3754 39.7538 93.0936C38.041 93.3307 37.3421 92.888 36.462 91.3622Z" fill="black"/>
<path d="M37.3167 78.0606C37.8877 77.7347 38.5907 77.6947 39.4622 77.8213L39.846 77.8858L39.9202 77.8994L39.9866 77.9346L48.3626 82.3457L56.804 77.9336L56.8733 77.8975L56.9495 77.8848C57.7259 77.7489 58.4599 77.667 59.1262 77.961C59.8064 78.261 60.3059 78.8975 60.7796 79.8936L60.8274 79.9951V91.3906L60.7903 91.4815C60.5308 92.1108 60.2507 92.6723 59.7796 93.0547C59.2887 93.453 58.6665 93.6009 57.8548 93.5938L57.7542 93.5928L57.6614 93.5528C54.73 92.2927 52.9169 91.3982 51.5481 90.6875C50.2455 90.0112 49.3814 89.5228 48.3382 89.0381C46.6023 89.6757 44.3952 90.8944 40.011 93.5225L39.9231 93.5752L39.8225 93.5889C38.9235 93.7134 38.1933 93.6747 37.5569 93.3281C36.9315 92.9875 36.4787 92.3927 36.0286 91.6123L35.9641 91.5L35.9622 91.3721C35.8611 86.0375 35.8902 83.8363 35.9622 80.0987L35.9641 80.0127L35.9944 79.9317C36.303 79.114 36.6627 78.4337 37.3167 78.0606ZM39.5911 78.8555C38.6332 78.6841 38.1324 78.7474 37.8128 78.9297C37.4977 79.1095 37.2466 79.4681 36.9602 80.2071C36.8903 83.8501 36.8622 86.039 36.9592 91.2207C37.3593 91.8956 37.6808 92.2575 38.0344 92.4502C38.3812 92.6391 38.8336 92.704 39.5891 92.6094C44.0517 89.9358 46.3294 88.6789 48.1975 88.0254L48.387 87.96L48.5696 88.043C49.7287 88.57 50.6708 89.106 52.0091 89.8008C53.3416 90.4926 55.1082 91.3638 57.9592 92.5918C58.5896 92.5858 58.9226 92.4626 59.1497 92.2783C59.3953 92.0789 59.588 91.7539 59.8274 91.1865V80.2256C59.4069 79.369 59.0566 79.0233 58.7229 78.876C58.3745 78.7223 57.9377 78.731 57.1975 78.8565L48.594 83.3535L48.3616 83.4756L48.1292 83.3535L39.5911 78.8555Z" fill="#3B4452"/>
<path d="M78.2142 32.0466C78.2142 49.1194 64.6549 62.9596 47.9286 62.9596C31.2022 62.9596 17.6428 49.1194 17.6428 32.0466C17.6428 14.9739 31.2022 1.13369 47.9286 1.13369C64.6549 1.13369 78.2142 14.9739 78.2142 32.0466Z" fill="#FDD090"/>
<path d="M33.9999 15.6335L79.5 31.1339C72.9999 -14.3663 14.5002 -5.36645 17.5 33.1337L33.9999 15.6335Z" fill="#522708"/>
<path d="M44.8925 0.136199C52.5379 -0.56163 60.495 1.4044 66.9559 6.44284C73.4219 11.4853 78.3541 19.5767 79.995 31.063L80.1102 31.8696L34.1425 16.2104L17.0887 34.2983L17.0018 33.1723C15.4773 13.6053 29.6041 1.53178 44.8925 0.136199ZM66.3407 7.23093C60.0987 2.36333 52.4 0.454366 44.9833 1.13132C30.4485 2.45811 17.0794 13.6911 17.9286 31.9487L33.8563 15.0561L34.161 15.1606L78.8807 30.394C77.1602 19.5636 72.4269 11.9772 66.3407 7.23093Z" fill="#522708"/>
</svg>
