<svg width="200" height="200" viewBox="0 0 200 200" fill="none" xmlns="http://www.w3.org/2000/svg">
<path d="M147.571 44.676C148.631 37.838 146.671 34.7579 142.739 34.4517C138.647 34.133 136.514 38.73 137.101 44.676C141.449 45.4891 143.781 45.2866 147.571 44.676Z" fill="#D5AA60"/>
<path fill-rule="evenodd" clip-rule="evenodd" d="M185.935 97.6569C182.594 97.7233 138.258 97.6866 114.237 97.6667C106.211 97.6601 100.452 97.6553 99.2484 97.6569C94.4415 97.6632 93.6551 86.5063 99.2484 86.503C104.842 86.4997 105.691 86.503 105.691 86.503C134.502 87.7058 150.546 87.7194 178.98 86.503C178.98 86.503 182.238 86.5599 185.935 86.503C189.632 86.4461 190.393 97.5682 185.935 97.6569Z" fill="#D5AA60"/>
<path d="M178.98 86.503C173.823 59.495 166.83 50.3212 147.571 44.676C143.781 45.2866 141.449 45.4891 137.101 44.676C116.32 51.1687 110.524 61.5751 105.691 86.503C134.502 87.7058 150.546 87.7194 178.98 86.503Z" fill="#FFC115"/>
<path d="M178.98 86.503C178.98 86.503 182.238 86.5599 185.935 86.503C189.632 86.4461 190.393 97.5682 185.935 97.6569C182.594 97.7233 138.258 97.6866 114.237 97.6667C106.211 97.6601 100.452 97.6553 99.2484 97.6569C94.4415 97.6632 93.6551 86.5063 99.2484 86.503C104.842 86.4997 105.691 86.503 105.691 86.503M178.98 86.503C173.823 59.495 166.83 50.3212 147.571 44.676M178.98 86.503C150.546 87.7194 134.502 87.7058 105.691 86.503M147.571 44.676C148.631 37.838 146.671 34.7579 142.739 34.4517C138.647 34.133 136.514 38.73 137.101 44.676M147.571 44.676C143.781 45.2866 141.449 45.4891 137.101 44.676M137.101 44.676C116.32 51.1687 110.524 61.5751 105.691 86.503" stroke="#FFEB9C" stroke-linecap="round"/>
<path d="M74.0144 98.5708H36.9738C36.3397 98.5708 35.8638 99.1313 36.0032 99.7498C37.4337 106.094 44.754 136.251 56.6808 145.975C66.4708 133.345 70.8604 122.527 74.9954 99.7544C75.1066 99.142 74.6368 98.5708 74.0144 98.5708Z" fill="#EEEDE9" stroke="#EEEDE9" stroke-linecap="round"/>
<path d="M88.8997 171.071H14V120.879C15.4198 114.335 17.0475 111.02 22.0537 106.007C27.6663 101.796 31.048 100.286 37.3558 98.5708C42.4647 121.455 45.0593 134.769 56.6848 145.975C63.8587 136.976 67.7096 125.407 74.403 98.5708C74.403 98.5708 85.6348 100.578 90.5105 106.007C100.735 117.392 109.849 137.397 109.839 133.891C109.839 133.891 126.966 105.449 126.752 106.936C126.538 108.423 154.692 106.717 158.967 107.866C163.242 109.014 163.411 117.736 155.746 123.667C148.081 129.598 141.364 127.552 141.249 130.173L120.499 162.83C117.473 167.592 110.862 168.428 106.746 164.569L88.8997 147.834V171.071Z" fill="black" stroke="#3B4452" stroke-linecap="round"/>
<path d="M45.4668 112.808C45.3785 108.155 45.4039 106.238 45.4668 102.978C45.9983 101.572 46.548 101.131 48.3471 101.466L55.8795 105.426L63.469 101.466C64.8363 101.227 65.5483 101.297 66.3494 102.978V112.746C65.8981 113.838 65.5059 114.331 64.1891 114.32C59.0789 112.127 57.8809 111.214 55.8795 110.306C54.2839 110.863 52.3147 111.946 48.3471 114.32C46.8484 114.527 46.2368 114.14 45.4668 112.808Z" fill="black" stroke="#3B4452" stroke-linecap="round"/>
<ellipse cx="55.5" cy="61" rx="26.5" ry="27" fill="black"/>
</svg>
