<svg width="1545" height="207" viewBox="0 0 1545 207" fill="none" xmlns="http://www.w3.org/2000/svg">
<path d="M1 189L15.7644 139.414H120.17L135.638 189H1Z" fill="#FCDAB3" stroke="#FCDAB3"/>
<path d="M15.2437 141.092C11.4094 143.935 70.5217 176.828 119.249 139.988C81.1852 132.651 15.6885 138.959 15.2437 141.092Z" fill="#FEB465" stroke="#FEB465"/>
<path d="M65.1133 63.8127V-16C65.1133 -16.5523 65.5611 -17 66.1133 -17H67.3146C67.8686 -17 68.317 -16.5496 68.3146 -15.9956L67.9668 63.746C67.9646 64.268 68.3668 64.7022 68.8857 64.7588C76.6881 65.6099 79.0951 68.8053 78.6732 79.764C78.6594 80.1218 78.8336 80.4658 79.133 80.6621C93.568 90.1247 104.565 108.826 119.091 138.36C119.453 139.096 118.83 139.939 118.021 139.801C75.5163 132.546 26.2553 138.835 16.3299 140.244C15.5435 140.355 14.9615 139.573 15.2979 138.853C19.0893 130.742 36.4292 94.9841 54.0603 80.2873C54.2952 80.0915 54.4247 79.801 54.4206 79.4952C54.294 70.0313 55.049 66.4205 64.2645 64.8099C64.7508 64.7249 65.1133 64.3063 65.1133 63.8127Z" fill="#56463E" stroke="black"/>
<path d="M1409 206L1423.76 156.414H1528.17L1543.64 206H1409Z" fill="#FCDAB3" stroke="#FCDAB3"/>
<path d="M1423.24 158.092C1419.41 160.935 1478.52 193.828 1527.25 156.988C1489.19 149.651 1423.69 155.959 1423.24 158.092Z" fill="#FEB465" stroke="#FEB465"/>
<path d="M1473.11 80.8127V1C1473.11 0.447715 1473.56 0 1474.11 0H1475.31C1475.87 0 1476.32 0.450379 1476.31 1.00436L1475.97 80.746C1475.96 81.268 1476.37 81.7022 1476.89 81.7588C1484.69 82.6099 1487.1 85.8053 1486.67 96.764C1486.66 97.1218 1486.83 97.4658 1487.13 97.6621C1501.57 107.125 1512.56 125.826 1527.09 155.36C1527.45 156.096 1526.83 156.939 1526.02 156.801C1483.52 149.546 1434.26 155.835 1424.33 157.244C1423.54 157.355 1422.96 156.573 1423.3 155.853C1427.09 147.742 1444.43 111.984 1462.06 97.2873C1462.3 97.0915 1462.42 96.801 1462.42 96.4952C1462.29 87.0313 1463.05 83.4205 1472.26 81.8099C1472.75 81.7249 1473.11 81.3063 1473.11 80.8127Z" fill="#56463E" stroke="black"/>
<path d="M932 206L946.764 156.414H1051.17L1066.64 206H932Z" fill="#FCDAB3" stroke="#FCDAB3"/>
<path d="M946.244 158.092C942.409 160.935 1001.52 193.828 1050.25 156.988C1012.19 149.651 946.688 155.959 946.244 158.092Z" fill="#FEB465" stroke="#FEB465"/>
<path d="M996.113 80.8127V1C996.113 0.447715 996.561 0 997.113 0H998.315C998.869 0 999.317 0.450379 999.315 1.00436L998.967 80.746C998.965 81.268 999.367 81.7022 999.886 81.7588C1007.69 82.6099 1010.1 85.8053 1009.67 96.764C1009.66 97.1218 1009.83 97.4658 1010.13 97.6621C1024.57 107.125 1035.56 125.826 1050.09 155.36C1050.45 156.096 1049.83 156.939 1049.02 156.801C1006.52 149.546 957.255 155.835 947.33 157.244C946.543 157.355 945.961 156.573 946.298 155.853C950.089 147.742 967.429 111.984 985.06 97.2873C985.295 97.0915 985.425 96.801 985.421 96.4952C985.294 87.0313 986.049 83.4205 995.264 81.8099C995.751 81.7249 996.113 81.3063 996.113 80.8127Z" fill="#56463E" stroke="black"/>
<path d="M436 189L450.764 139.414H555.17L570.638 189H436Z" fill="#FCDAB3" stroke="#FCDAB3"/>
<path d="M450.244 141.092C446.409 143.935 505.522 176.828 554.249 139.988C516.185 132.651 450.688 138.959 450.244 141.092Z" fill="#FEB465" stroke="#FEB465"/>
<path d="M500.113 63.8127V-16C500.113 -16.5523 500.561 -17 501.113 -17H502.315C502.869 -17 503.317 -16.5496 503.315 -15.9956L502.967 63.746C502.965 64.268 503.367 64.7022 503.886 64.7588C511.688 65.6099 514.095 68.8053 513.673 79.764C513.659 80.1218 513.834 80.4658 514.133 80.6621C528.568 90.1247 539.565 108.826 554.091 138.36C554.453 139.096 553.83 139.939 553.021 139.801C510.516 132.546 461.255 138.835 451.33 140.244C450.543 140.355 449.961 139.573 450.298 138.853C454.089 130.742 471.429 94.9841 489.06 80.2873C489.295 80.0915 489.425 79.801 489.421 79.4952C489.294 70.0313 490.049 66.4205 499.264 64.8099C499.751 64.7249 500.113 64.3063 500.113 63.8127Z" fill="#56463E" stroke="black"/>
</svg>
