<svg width="124" height="333" viewBox="0 0 124 333" fill="none" xmlns="http://www.w3.org/2000/svg">
<path d="M103.959 260.916C105.811 262.552 105.431 306.103 95.442 324.072C93.415 327.751 91.9136 329.032 87.9267 329.466C75.3914 331.717 68.3747 331.267 55.8615 330.14C51.7997 329.134 49.6319 327.821 46.5927 324.521C38.1814 304.439 37.7625 289.553 38.888 261.416L38.8269 260.916C38.8269 260.916 45.509 256.668 52.8554 255.073C67.6313 253.132 75.6436 252.639 88.4277 255.073C97.6233 256.434 103.959 260.916 103.959 260.916Z" fill="#806858"/>
<path d="M103.959 260.916C105.811 262.552 105.431 306.103 95.442 324.072C93.415 327.751 91.9136 329.032 87.9267 329.466C75.3914 331.717 68.3747 331.267 55.8615 330.14C51.7997 329.134 49.6319 327.821 46.5927 324.521C38.1814 304.439 37.7625 289.553 38.888 261.416M103.959 260.916C103.959 260.916 97.6233 256.434 88.4277 255.073C75.6436 252.639 67.6313 253.132 52.8554 255.073C45.509 256.668 38.8269 260.916 38.8269 260.916C38.8269 260.916 38.8641 261.221 38.888 261.416M103.959 260.916C103.959 260.916 98.6612 265.638 88.4277 266.76C75.7532 268.121 67.7841 267.825 52.8554 266.76C47.266 265.948 44.1951 264.899 38.888 261.416" stroke="#624834" stroke-width="2"/>
<path d="M44.5991 260.507C45.4695 254.325 93.643 253.411 96.204 260.507C98.7649 267.604 43.7287 266.69 44.5991 260.507Z" fill="#6F594A" stroke="#624834" stroke-width="2"/>
<path d="M71.1426 184.275C70.0821 214.865 69.8415 231.42 70.391 259.343C72.1646 234.707 74.2273 222.967 77.9063 202.031C77.2943 180.859 81.4386 173.404 89.1792 160.451C101.356 147.308 108.544 143.911 121.745 142.021C108.857 152.696 104.025 159.014 97.446 170.565C87.3136 188.025 83.3696 195.358 79.1589 203.829C73.9116 230.656 72.7123 241.108 73.6477 257.77C75.5091 250.385 75.7171 246.99 79.1589 233.496C79.0365 224.045 81.2237 217.449 87.1752 204.503C97.2706 190.672 101.206 189.575 108.218 187.646C103.145 196.574 95.6925 210.571 95.442 211.47C95.1915 212.369 85.1422 225.037 82.165 233.496C76.8547 245.201 76.0141 251.635 73.6477 263.164C71.4836 263.989 70.3082 264.237 68.888 260.916C65.5294 245.827 63.3965 236.899 58.8676 219.561C52.329 204.857 46.5525 198.642 37.3238 186.523C25.1096 173.384 17.1997 169.838 2.00204 170.565C17.6154 165.554 26.7693 164.648 46.3422 178.432C55.3969 187.951 59.761 194.666 60.8717 219.561C64.3184 235.346 66.0446 243.296 68.888 256.421C68.8719 236.748 69.1158 226.326 68.888 203.154C66.7273 196.138 66.3949 192.666 61.6232 184.275C54.6038 169.438 47.8132 162.224 36.0713 149.214C25.9409 134.208 17.9728 128.211 1 120.445L1.06995 120.449C21.4931 121.695 32.964 122.395 47.8452 139.324C56.2071 151.638 59.0424 159.868 60.8717 177.083C64.378 187.086 65.9465 190.284 68.888 196.861L67.8859 156.406C58.7742 135.456 51.9924 124.581 36.0713 107.185C24.9225 92.2204 17.735 84.9184 1.25051 76.1687C22.841 78.0439 33.4067 82.0556 47.0937 99.0935C58.0977 112.247 58.4117 121.371 60.8717 137.077L67.8859 150.337L63.3768 99.0935C57.707 90.2666 54.4459 84.4739 48.3462 71.6736C38.756 51.3833 30.6148 43.7728 14.0265 33.016C35.3004 34.6129 44.2843 40.6752 57.1141 57.0646C62.299 68.6374 64.0021 77.0467 64.3788 96.1717L66.6334 66.5043C64.3745 62.5576 63.8423 60.0148 63.3768 55.2666C62.3634 41.4225 64.4711 35.271 70.391 25.5991C76.6074 14.506 81.7266 8.9342 98.4481 2C92.8443 11.9179 89.5429 17.1305 84.9206 29.1952C82.9003 35.7089 81.8299 39.141 80.1609 44.4784C75.7125 56.0787 73.4365 60.4325 69.389 68.0775C65.821 93.6802 65.0727 103.588 68.387 123.367C69.8488 119.647 70.4895 117.183 71.1426 111.68C70.0339 94.1912 72.2858 85.5446 80.1609 71.6736C90.3692 61.4036 95.941 55.479 113.729 53.4686C110.099 56.7998 108.501 58.8246 105.713 62.4587C98.6945 71.7062 94.9016 76.9349 88.9287 86.5073C78.5259 98.7783 74.2711 107.529 69.389 126.513C69.3056 145.308 68.3287 157.123 72.1446 170.565C73.5928 164.574 74.4342 161.183 76.9043 154.158C75.5248 143.798 76.6685 137.675 80.1609 126.513C83.9403 113.695 88.4803 108.443 97.446 99.7678C108.082 90.3336 113.89 87.5901 124 86.5073C119.363 89.9239 117.081 92.1943 113.729 97.0707C107.905 106.724 104.742 111.927 99.4501 120.445C90.6447 132.504 85.3919 139.404 80.1609 149.888C74.7945 163.852 71.4327 171.783 71.1426 184.275Z" fill="#A49756" stroke="#978548"/>
</svg>
