<svg width="784" height="134" viewBox="0 0 784 134" fill="none" xmlns="http://www.w3.org/2000/svg">
<mask id="path-1-outside-1_274_100" maskUnits="userSpaceOnUse" x="0" y="0" width="784" height="134" fill="black">
<rect fill="white" width="784" height="134"/>
<path d="M23.6992 130H3.30859C2.83984 130 2.60547 129.707 2.60547 129.121L2.95703 5.45898C2.95703 4.99023 3.19141 4.75586 3.66016 4.75586H40.0469C46.5508 4.75586 52.5273 6.33789 57.9766 9.50195C63.4258 12.666 67.7617 16.9141 70.9844 22.2461C74.2656 27.5781 75.9062 33.6133 75.9062 40.3516C75.9062 44.7461 75.2324 48.7305 73.8848 52.3047C72.5371 55.8789 70.9551 58.8965 69.1387 61.3574C67.3809 63.8184 65.7695 65.6348 64.3047 66.8066C70.8086 74.0137 74.0605 82.4805 74.0605 92.207L74.2363 129.121C74.2363 129.707 73.9434 130 73.3574 130H52.9668C52.498 130 52.2637 129.824 52.2637 129.473V92.207C52.2637 87.8711 50.7402 84.1211 47.6934 80.957C44.6465 77.793 40.8965 76.2109 36.4434 76.2109H24.5781L24.4023 129.121C24.4023 129.707 24.168 130 23.6992 130ZM40.0469 26.2891H24.5781V54.5898H40.0469C43.7383 54.5898 47.0195 53.2129 49.8906 50.459C52.8203 47.7051 54.2852 44.3359 54.2852 40.3516C54.2852 36.543 52.8789 33.2617 50.0664 30.5078C47.2539 27.6953 43.9141 26.2891 40.0469 26.2891ZM148.328 130H90.1445C89.6758 130 89.4414 129.707 89.4414 129.121L89.6172 5.45898C89.6172 4.99023 89.8516 4.75586 90.3203 4.75586H148.152C148.621 4.75586 148.855 5.04883 148.855 5.63477V25.7617C148.855 26.2305 148.621 26.4648 148.152 26.4648H111.238V54.5898H148.152C148.621 54.5898 148.855 54.8242 148.855 55.293L149.031 75.6836C149.031 76.1523 148.797 76.3867 148.328 76.3867H111.238V107.852H148.328C148.797 107.852 149.031 108.145 149.031 108.73V129.297C149.031 129.766 148.797 130 148.328 130ZM195.613 131.758C189.227 131.758 183.338 130.117 177.947 126.836C172.615 123.555 168.338 119.189 165.115 113.74C161.951 108.232 160.369 102.197 160.369 95.6348V87.373C160.369 86.7285 160.662 86.4062 161.248 86.4062H181.463C181.932 86.4062 182.166 86.7285 182.166 87.373V95.6348C182.166 99.5605 183.484 102.959 186.121 105.83C188.758 108.643 191.922 110.049 195.613 110.049C199.363 110.049 202.557 108.613 205.193 105.742C207.83 102.812 209.148 99.4434 209.148 95.6348C209.148 91.2402 206.277 87.4023 200.535 84.1211C199.598 83.5352 198.367 82.832 196.844 82.0117C195.379 81.1328 193.621 80.1367 191.57 79.0234C189.52 77.9102 187.527 76.8262 185.594 75.7715C183.66 74.6582 181.785 73.6035 179.969 72.6074C173.406 68.7402 168.514 63.9062 165.291 58.1055C162.127 52.2461 160.545 45.6836 160.545 38.418C160.545 31.7383 162.186 25.7031 165.467 20.3125C168.748 14.9805 173.025 10.7617 178.299 7.65625C183.631 4.49219 189.402 2.91016 195.613 2.91016C202 2.91016 207.859 4.49219 213.191 7.65625C218.523 10.8789 222.771 15.1562 225.936 20.4883C229.158 25.8203 230.77 31.7969 230.77 38.418V53.1836C230.77 53.6523 230.535 53.8867 230.066 53.8867H209.852C209.383 53.8867 209.148 53.6523 209.148 53.1836L208.973 38.418C208.973 34.1992 207.654 30.7715 205.018 28.1348C202.381 25.498 199.246 24.1797 195.613 24.1797C191.922 24.1797 188.758 25.5859 186.121 28.3984C183.484 31.2109 182.166 34.5508 182.166 38.418C182.166 42.3438 182.986 45.625 184.627 48.2617C186.326 50.8984 189.402 53.418 193.855 55.8203C194.324 56.0547 195.408 56.6406 197.107 57.5781C198.807 58.5156 200.682 59.5703 202.732 60.7422C204.842 61.8555 206.746 62.8809 208.445 63.8184C210.145 64.6973 211.17 65.2246 211.521 65.4004C217.498 68.7402 222.215 72.8418 225.672 77.7051C229.188 82.5684 230.945 88.5449 230.945 95.6348C230.945 102.49 229.363 108.643 226.199 114.092C222.977 119.541 218.699 123.848 213.367 127.012C208.035 130.176 202.117 131.758 195.613 131.758ZM281.834 130H261.531C261.004 130 260.74 129.707 260.74 129.121V26.4648H237.361C236.775 26.4648 236.482 26.1719 236.482 25.5859L236.658 5.45898C236.658 4.99023 236.893 4.75586 237.361 4.75586H305.74C306.385 4.75586 306.707 4.99023 306.707 5.45898V25.5859C306.707 26.1719 306.473 26.4648 306.004 26.4648H282.361L282.537 129.121C282.537 129.707 282.303 130 281.834 130ZM309.432 129.121L331.756 5.45898C331.873 4.99023 332.166 4.75586 332.635 4.75586H358.738C359.207 4.75586 359.5 4.99023 359.617 5.45898L381.062 129.121C381.121 129.707 380.887 130 380.359 130H360.408C359.822 130 359.5 129.707 359.441 129.121L357.508 115.938H332.986L331.053 129.121C330.994 129.707 330.701 130 330.174 130H310.135C309.666 130 309.432 129.707 309.432 129.121ZM346.521 46.1523L345.467 39.4727L344.676 46.1523L336.59 96.6895H353.904L346.521 46.1523ZM425.447 131.758C419.119 131.758 413.26 130.117 407.869 126.836C402.479 123.555 398.172 119.16 394.949 113.652C391.785 108.086 390.203 102.021 390.203 95.459L390.555 5.45898C390.555 4.99023 390.789 4.75586 391.258 4.75586H411.473C411.941 4.75586 412.176 4.99023 412.176 5.45898V95.459C412.176 99.502 413.465 102.959 416.043 105.83C418.621 108.643 421.756 110.049 425.447 110.049C429.314 110.049 432.537 108.643 435.115 105.83C437.693 102.959 438.982 99.502 438.982 95.459V5.45898C438.982 4.99023 439.217 4.75586 439.686 4.75586H459.9C460.369 4.75586 460.604 4.99023 460.604 5.45898L460.955 95.459C460.955 102.08 459.373 108.174 456.209 113.74C452.986 119.248 448.709 123.643 443.377 126.924C438.045 130.146 432.068 131.758 425.447 131.758ZM496.199 130H475.809C475.34 130 475.105 129.707 475.105 129.121L475.457 5.45898C475.457 4.99023 475.691 4.75586 476.16 4.75586H512.547C519.051 4.75586 525.027 6.33789 530.477 9.50195C535.926 12.666 540.262 16.9141 543.484 22.2461C546.766 27.5781 548.406 33.6133 548.406 40.3516C548.406 44.7461 547.732 48.7305 546.385 52.3047C545.037 55.8789 543.455 58.8965 541.639 61.3574C539.881 63.8184 538.27 65.6348 536.805 66.8066C543.309 74.0137 546.561 82.4805 546.561 92.207L546.736 129.121C546.736 129.707 546.443 130 545.857 130H525.467C524.998 130 524.764 129.824 524.764 129.473V92.207C524.764 87.8711 523.24 84.1211 520.193 80.957C517.146 77.793 513.396 76.2109 508.943 76.2109H497.078L496.902 129.121C496.902 129.707 496.668 130 496.199 130ZM512.547 26.2891H497.078V54.5898H512.547C516.238 54.5898 519.52 53.2129 522.391 50.459C525.32 47.7051 526.785 44.3359 526.785 40.3516C526.785 36.543 525.379 33.2617 522.566 30.5078C519.754 27.6953 516.414 26.2891 512.547 26.2891ZM552.186 129.121L574.51 5.45898C574.627 4.99023 574.92 4.75586 575.389 4.75586H601.492C601.961 4.75586 602.254 4.99023 602.371 5.45898L623.816 129.121C623.875 129.707 623.641 130 623.113 130H603.162C602.576 130 602.254 129.707 602.195 129.121L600.262 115.938H575.74L573.807 129.121C573.748 129.707 573.455 130 572.928 130H552.889C552.42 130 552.186 129.707 552.186 129.121ZM589.275 46.1523L588.221 39.4727L587.43 46.1523L579.344 96.6895H596.658L589.275 46.1523ZM654.666 130H636.648C635.711 130 635.242 129.59 635.242 128.77L635.066 6.16211C635.066 5.22461 635.535 4.75586 636.473 4.75586H652.732L683.143 75.6836L682.264 6.16211C682.264 5.22461 682.791 4.75586 683.846 4.75586H701.688C702.391 4.75586 702.742 5.22461 702.742 6.16211L702.918 128.945C702.918 129.648 702.625 130 702.039 130H686.219L655.018 63.7305L656.336 128.594C656.336 129.531 655.779 130 654.666 130ZM756.971 130H736.668C736.141 130 735.877 129.707 735.877 129.121V26.4648H712.498C711.912 26.4648 711.619 26.1719 711.619 25.5859L711.795 5.45898C711.795 4.99023 712.029 4.75586 712.498 4.75586H780.877C781.521 4.75586 781.844 4.99023 781.844 5.45898V25.5859C781.844 26.1719 781.609 26.4648 781.141 26.4648H757.498L757.674 129.121C757.674 129.707 757.439 130 756.971 130Z"/>
</mask>
<path d="M23.6992 130H3.30859C2.83984 130 2.60547 129.707 2.60547 129.121L2.95703 5.45898C2.95703 4.99023 3.19141 4.75586 3.66016 4.75586H40.0469C46.5508 4.75586 52.5273 6.33789 57.9766 9.50195C63.4258 12.666 67.7617 16.9141 70.9844 22.2461C74.2656 27.5781 75.9062 33.6133 75.9062 40.3516C75.9062 44.7461 75.2324 48.7305 73.8848 52.3047C72.5371 55.8789 70.9551 58.8965 69.1387 61.3574C67.3809 63.8184 65.7695 65.6348 64.3047 66.8066C70.8086 74.0137 74.0605 82.4805 74.0605 92.207L74.2363 129.121C74.2363 129.707 73.9434 130 73.3574 130H52.9668C52.498 130 52.2637 129.824 52.2637 129.473V92.207C52.2637 87.8711 50.7402 84.1211 47.6934 80.957C44.6465 77.793 40.8965 76.2109 36.4434 76.2109H24.5781L24.4023 129.121C24.4023 129.707 24.168 130 23.6992 130ZM40.0469 26.2891H24.5781V54.5898H40.0469C43.7383 54.5898 47.0195 53.2129 49.8906 50.459C52.8203 47.7051 54.2852 44.3359 54.2852 40.3516C54.2852 36.543 52.8789 33.2617 50.0664 30.5078C47.2539 27.6953 43.9141 26.2891 40.0469 26.2891ZM148.328 130H90.1445C89.6758 130 89.4414 129.707 89.4414 129.121L89.6172 5.45898C89.6172 4.99023 89.8516 4.75586 90.3203 4.75586H148.152C148.621 4.75586 148.855 5.04883 148.855 5.63477V25.7617C148.855 26.2305 148.621 26.4648 148.152 26.4648H111.238V54.5898H148.152C148.621 54.5898 148.855 54.8242 148.855 55.293L149.031 75.6836C149.031 76.1523 148.797 76.3867 148.328 76.3867H111.238V107.852H148.328C148.797 107.852 149.031 108.145 149.031 108.73V129.297C149.031 129.766 148.797 130 148.328 130ZM195.613 131.758C189.227 131.758 183.338 130.117 177.947 126.836C172.615 123.555 168.338 119.189 165.115 113.74C161.951 108.232 160.369 102.197 160.369 95.6348V87.373C160.369 86.7285 160.662 86.4062 161.248 86.4062H181.463C181.932 86.4062 182.166 86.7285 182.166 87.373V95.6348C182.166 99.5605 183.484 102.959 186.121 105.83C188.758 108.643 191.922 110.049 195.613 110.049C199.363 110.049 202.557 108.613 205.193 105.742C207.83 102.812 209.148 99.4434 209.148 95.6348C209.148 91.2402 206.277 87.4023 200.535 84.1211C199.598 83.5352 198.367 82.832 196.844 82.0117C195.379 81.1328 193.621 80.1367 191.57 79.0234C189.52 77.9102 187.527 76.8262 185.594 75.7715C183.66 74.6582 181.785 73.6035 179.969 72.6074C173.406 68.7402 168.514 63.9062 165.291 58.1055C162.127 52.2461 160.545 45.6836 160.545 38.418C160.545 31.7383 162.186 25.7031 165.467 20.3125C168.748 14.9805 173.025 10.7617 178.299 7.65625C183.631 4.49219 189.402 2.91016 195.613 2.91016C202 2.91016 207.859 4.49219 213.191 7.65625C218.523 10.8789 222.771 15.1562 225.936 20.4883C229.158 25.8203 230.77 31.7969 230.77 38.418V53.1836C230.77 53.6523 230.535 53.8867 230.066 53.8867H209.852C209.383 53.8867 209.148 53.6523 209.148 53.1836L208.973 38.418C208.973 34.1992 207.654 30.7715 205.018 28.1348C202.381 25.498 199.246 24.1797 195.613 24.1797C191.922 24.1797 188.758 25.5859 186.121 28.3984C183.484 31.2109 182.166 34.5508 182.166 38.418C182.166 42.3438 182.986 45.625 184.627 48.2617C186.326 50.8984 189.402 53.418 193.855 55.8203C194.324 56.0547 195.408 56.6406 197.107 57.5781C198.807 58.5156 200.682 59.5703 202.732 60.7422C204.842 61.8555 206.746 62.8809 208.445 63.8184C210.145 64.6973 211.17 65.2246 211.521 65.4004C217.498 68.7402 222.215 72.8418 225.672 77.7051C229.188 82.5684 230.945 88.5449 230.945 95.6348C230.945 102.49 229.363 108.643 226.199 114.092C222.977 119.541 218.699 123.848 213.367 127.012C208.035 130.176 202.117 131.758 195.613 131.758ZM281.834 130H261.531C261.004 130 260.74 129.707 260.74 129.121V26.4648H237.361C236.775 26.4648 236.482 26.1719 236.482 25.5859L236.658 5.45898C236.658 4.99023 236.893 4.75586 237.361 4.75586H305.74C306.385 4.75586 306.707 4.99023 306.707 5.45898V25.5859C306.707 26.1719 306.473 26.4648 306.004 26.4648H282.361L282.537 129.121C282.537 129.707 282.303 130 281.834 130ZM309.432 129.121L331.756 5.45898C331.873 4.99023 332.166 4.75586 332.635 4.75586H358.738C359.207 4.75586 359.5 4.99023 359.617 5.45898L381.062 129.121C381.121 129.707 380.887 130 380.359 130H360.408C359.822 130 359.5 129.707 359.441 129.121L357.508 115.938H332.986L331.053 129.121C330.994 129.707 330.701 130 330.174 130H310.135C309.666 130 309.432 129.707 309.432 129.121ZM346.521 46.1523L345.467 39.4727L344.676 46.1523L336.59 96.6895H353.904L346.521 46.1523ZM425.447 131.758C419.119 131.758 413.26 130.117 407.869 126.836C402.479 123.555 398.172 119.16 394.949 113.652C391.785 108.086 390.203 102.021 390.203 95.459L390.555 5.45898C390.555 4.99023 390.789 4.75586 391.258 4.75586H411.473C411.941 4.75586 412.176 4.99023 412.176 5.45898V95.459C412.176 99.502 413.465 102.959 416.043 105.83C418.621 108.643 421.756 110.049 425.447 110.049C429.314 110.049 432.537 108.643 435.115 105.83C437.693 102.959 438.982 99.502 438.982 95.459V5.45898C438.982 4.99023 439.217 4.75586 439.686 4.75586H459.9C460.369 4.75586 460.604 4.99023 460.604 5.45898L460.955 95.459C460.955 102.08 459.373 108.174 456.209 113.74C452.986 119.248 448.709 123.643 443.377 126.924C438.045 130.146 432.068 131.758 425.447 131.758ZM496.199 130H475.809C475.34 130 475.105 129.707 475.105 129.121L475.457 5.45898C475.457 4.99023 475.691 4.75586 476.16 4.75586H512.547C519.051 4.75586 525.027 6.33789 530.477 9.50195C535.926 12.666 540.262 16.9141 543.484 22.2461C546.766 27.5781 548.406 33.6133 548.406 40.3516C548.406 44.7461 547.732 48.7305 546.385 52.3047C545.037 55.8789 543.455 58.8965 541.639 61.3574C539.881 63.8184 538.27 65.6348 536.805 66.8066C543.309 74.0137 546.561 82.4805 546.561 92.207L546.736 129.121C546.736 129.707 546.443 130 545.857 130H525.467C524.998 130 524.764 129.824 524.764 129.473V92.207C524.764 87.8711 523.24 84.1211 520.193 80.957C517.146 77.793 513.396 76.2109 508.943 76.2109H497.078L496.902 129.121C496.902 129.707 496.668 130 496.199 130ZM512.547 26.2891H497.078V54.5898H512.547C516.238 54.5898 519.52 53.2129 522.391 50.459C525.32 47.7051 526.785 44.3359 526.785 40.3516C526.785 36.543 525.379 33.2617 522.566 30.5078C519.754 27.6953 516.414 26.2891 512.547 26.2891ZM552.186 129.121L574.51 5.45898C574.627 4.99023 574.92 4.75586 575.389 4.75586H601.492C601.961 4.75586 602.254 4.99023 602.371 5.45898L623.816 129.121C623.875 129.707 623.641 130 623.113 130H603.162C602.576 130 602.254 129.707 602.195 129.121L600.262 115.938H575.74L573.807 129.121C573.748 129.707 573.455 130 572.928 130H552.889C552.42 130 552.186 129.707 552.186 129.121ZM589.275 46.1523L588.221 39.4727L587.43 46.1523L579.344 96.6895H596.658L589.275 46.1523ZM654.666 130H636.648C635.711 130 635.242 129.59 635.242 128.77L635.066 6.16211C635.066 5.22461 635.535 4.75586 636.473 4.75586H652.732L683.143 75.6836L682.264 6.16211C682.264 5.22461 682.791 4.75586 683.846 4.75586H701.688C702.391 4.75586 702.742 5.22461 702.742 6.16211L702.918 128.945C702.918 129.648 702.625 130 702.039 130H686.219L655.018 63.7305L656.336 128.594C656.336 129.531 655.779 130 654.666 130ZM756.971 130H736.668C736.141 130 735.877 129.707 735.877 129.121V26.4648H712.498C711.912 26.4648 711.619 26.1719 711.619 25.5859L711.795 5.45898C711.795 4.99023 712.029 4.75586 712.498 4.75586H780.877C781.521 4.75586 781.844 4.99023 781.844 5.45898V25.5859C781.844 26.1719 781.609 26.4648 781.141 26.4648H757.498L757.674 129.121C757.674 129.707 757.439 130 756.971 130Z" fill="#C8815D"/>
<path d="M2.60547 129.121L0.605469 129.115V129.121H2.60547ZM2.95703 5.45898L4.95703 5.46467V5.45898H2.95703ZM70.9844 22.2461L69.2727 23.2806L69.2769 23.2875L69.2811 23.2943L70.9844 22.2461ZM69.1387 61.3574L67.5295 60.1697L67.5203 60.1823L67.5112 60.1949L69.1387 61.3574ZM64.3047 66.8066L63.0553 65.2449L61.3979 66.5708L62.8199 68.1466L64.3047 66.8066ZM74.0605 92.207H72.0605L72.0606 92.2166L74.0605 92.207ZM74.2363 129.121H76.2364L76.2363 129.112L74.2363 129.121ZM24.5781 76.2109V74.2109H22.5848L22.5781 76.2043L24.5781 76.2109ZM24.4023 129.121L22.4023 129.114V129.121H24.4023ZM24.5781 26.2891V24.2891H22.5781V26.2891H24.5781ZM24.5781 54.5898H22.5781V56.5898H24.5781V54.5898ZM49.8906 50.459L48.5208 49.0017L48.5135 49.0086L48.5062 49.0156L49.8906 50.459ZM50.0664 30.5078L48.6522 31.922L48.6596 31.9295L48.6672 31.9368L50.0664 30.5078ZM23.6992 130V128H3.30859V130V132H23.6992V130ZM3.30859 130V128C3.3963 128 3.56512 128.013 3.77021 128.099C3.98751 128.189 4.18843 128.338 4.34299 128.531C4.63007 128.89 4.60547 129.2 4.60547 129.121H2.60547H0.605469C0.605469 129.628 0.698055 130.378 1.21951 131.03C1.80915 131.767 2.63281 132 3.30859 132V130ZM2.60547 129.121L4.60546 129.127L4.95702 5.46467L2.95703 5.45898L0.957039 5.4533L0.605477 129.115L2.60547 129.121ZM2.95703 5.45898H4.95703C4.95703 5.5329 4.9372 5.95568 4.54703 6.34586C4.15685 6.73602 3.73407 6.75586 3.66016 6.75586V4.75586V2.75586C3.11749 2.75586 2.34315 2.89288 1.7186 3.51743C1.09405 4.14198 0.957031 4.91632 0.957031 5.45898H2.95703ZM3.66016 4.75586V6.75586H40.0469V4.75586V2.75586H3.66016V4.75586ZM40.0469 4.75586V6.75586C46.2099 6.75586 51.8382 8.25046 56.9723 11.2315L57.9766 9.50195L58.9808 7.77238C53.2165 4.42532 46.8917 2.75586 40.0469 2.75586V4.75586ZM57.9766 9.50195L56.9723 11.2315C62.1346 14.229 66.2258 18.2394 69.2727 23.2806L70.9844 22.2461L72.696 21.2116C69.2976 15.5887 64.717 11.1031 58.9808 7.77238L57.9766 9.50195ZM70.9844 22.2461L69.2811 23.2943C72.3535 28.287 73.9062 33.9541 73.9062 40.3516H75.9062H77.9062C77.9062 33.2725 76.1777 26.8692 72.6877 21.1979L70.9844 22.2461ZM75.9062 40.3516H73.9062C73.9062 44.5408 73.2642 48.2816 72.0134 51.5991L73.8848 52.3047L75.7562 53.0103C77.2006 49.1793 77.9062 44.9514 77.9062 40.3516H75.9062ZM73.8848 52.3047L72.0134 51.5991C70.7152 55.0421 69.2136 57.888 67.5295 60.1697L69.1387 61.3574L70.7478 62.5451C72.6965 59.9049 74.359 56.7158 75.7562 53.0103L73.8848 52.3047ZM69.1387 61.3574L67.5112 60.1949C65.8036 62.5856 64.316 64.2363 63.0553 65.2449L64.3047 66.8066L65.5541 68.3684C67.2231 67.0332 68.9581 65.0511 70.7661 62.5199L69.1387 61.3574ZM64.3047 66.8066L62.8199 68.1466C68.9915 74.9853 72.0605 82.9744 72.0605 92.207H74.0605H76.0605C76.0605 81.9865 72.6257 73.042 65.7895 65.4667L64.3047 66.8066ZM74.0605 92.207L72.0606 92.2166L72.2364 129.131L74.2363 129.121L76.2363 129.112L76.0605 92.1975L74.0605 92.207ZM74.2363 129.121H72.2363C72.2363 129.106 72.2415 128.727 72.6024 128.366C72.9633 128.005 73.3421 128 73.3574 128V130V132C73.9587 132 74.777 131.848 75.4308 131.194C76.0847 130.541 76.2363 129.722 76.2363 129.121H74.2363ZM73.3574 130V128H52.9668V130V132H73.3574V130ZM52.9668 130V128C52.9681 128 53.0351 127.999 53.1443 128.027C53.2555 128.055 53.4407 128.119 53.6395 128.268C53.8495 128.426 54.0237 128.64 54.1352 128.891C54.2416 129.13 54.2637 129.34 54.2637 129.473H52.2637H50.2637C50.2637 130.136 50.5153 130.925 51.2395 131.468C51.8554 131.93 52.5401 132 52.9668 132V130ZM52.2637 129.473H54.2637V92.207H52.2637H50.2637V129.473H52.2637ZM52.2637 92.207H54.2637C54.2637 87.3462 52.5345 83.101 49.134 79.5697L47.6934 80.957L46.2527 82.3443C48.946 85.1411 50.2637 88.396 50.2637 92.207H52.2637ZM47.6934 80.957L49.134 79.5697C45.7043 76.0081 41.4315 74.2109 36.4434 74.2109V76.2109V78.2109C40.3614 78.2109 43.5887 79.5778 46.2527 82.3443L47.6934 80.957ZM36.4434 76.2109V74.2109H24.5781V76.2109V78.2109H36.4434V76.2109ZM24.5781 76.2109L22.5781 76.2043L22.4024 129.114L24.4023 129.121L26.4023 129.128L26.5781 76.2176L24.5781 76.2109ZM24.4023 129.121H22.4023C22.4023 129.2 22.3777 128.89 22.6648 128.531C22.8194 128.338 23.0203 128.189 23.2376 128.099C23.4427 128.013 23.6115 128 23.6992 128V130V132C24.375 132 25.1987 131.767 25.7883 131.03C26.3098 130.378 26.4023 129.628 26.4023 129.121H24.4023ZM40.0469 26.2891V24.2891H24.5781V26.2891V28.2891H40.0469V26.2891ZM24.5781 26.2891H22.5781V54.5898H24.5781H26.5781V26.2891H24.5781ZM24.5781 54.5898V56.5898H40.0469V54.5898V52.5898H24.5781V54.5898ZM40.0469 54.5898V56.5898C44.2967 56.5898 48.0634 54.983 51.2751 51.9023L49.8906 50.459L48.5062 49.0156C45.9757 51.4428 43.1799 52.5898 40.0469 52.5898V54.5898ZM49.8906 50.459L51.2604 51.9162C54.5881 48.7883 56.2852 44.8935 56.2852 40.3516H54.2852H52.2852C52.2852 43.7783 51.0525 46.6219 48.5208 49.0017L49.8906 50.459ZM54.2852 40.3516H56.2852C56.2852 35.9854 54.6479 32.1948 51.4657 29.0788L50.0664 30.5078L48.6672 31.9368C51.1099 34.3287 52.2852 37.1006 52.2852 40.3516H54.2852ZM50.0664 30.5078L51.4806 29.0936C48.305 25.918 44.4612 24.2891 40.0469 24.2891V26.2891V28.2891C43.3669 28.2891 46.2028 29.4726 48.6522 31.922L50.0664 30.5078ZM89.4414 129.121L87.4414 129.118V129.121H89.4414ZM89.6172 5.45898L91.6172 5.46183V5.45898H89.6172ZM111.238 26.4648V24.4648H109.238V26.4648H111.238ZM111.238 54.5898H109.238V56.5898H111.238V54.5898ZM148.855 55.293H146.855V55.3016L146.856 55.3102L148.855 55.293ZM149.031 75.6836H151.031V75.675L151.031 75.6664L149.031 75.6836ZM111.238 76.3867V74.3867H109.238V76.3867H111.238ZM111.238 107.852H109.238V109.852H111.238V107.852ZM148.328 130V128H90.1445V130V132H148.328V130ZM90.1445 130V128C90.2322 128 90.4011 128.013 90.6061 128.099C90.8234 128.189 91.0244 128.338 91.1789 128.531C91.466 128.89 91.4414 129.2 91.4414 129.121H89.4414H87.4414C87.4414 129.628 87.534 130.378 88.0555 131.03C88.6451 131.767 89.4687 132 90.1445 132V130ZM89.4414 129.121L91.4414 129.124L91.6172 5.46183L89.6172 5.45898L87.6172 5.45614L87.4414 129.118L89.4414 129.121ZM89.6172 5.45898H91.6172C91.6172 5.5329 91.5974 5.95568 91.2072 6.34586C90.817 6.73602 90.3942 6.75586 90.3203 6.75586V4.75586V2.75586C89.7776 2.75586 89.0033 2.89288 88.3788 3.51743C87.7542 4.14198 87.6172 4.91632 87.6172 5.45898H89.6172ZM90.3203 4.75586V6.75586H148.152V4.75586V2.75586H90.3203V4.75586ZM148.152 4.75586V6.75586C148.065 6.75586 147.896 6.7424 147.691 6.65694C147.473 6.5664 147.273 6.41817 147.118 6.22498C146.831 5.86613 146.855 5.55548 146.855 5.63477H148.855H150.855C150.855 5.12811 150.763 4.37801 150.241 3.7262C149.652 2.98915 148.828 2.75586 148.152 2.75586V4.75586ZM148.855 5.63477H146.855V25.7617H148.855H150.855V5.63477H148.855ZM148.855 25.7617H146.855C146.855 25.6878 146.875 25.265 147.265 24.8748C147.656 24.4847 148.078 24.4648 148.152 24.4648V26.4648V28.4648C148.695 28.4648 149.469 28.3278 150.094 27.7033C150.718 27.0787 150.855 26.3044 150.855 25.7617H148.855ZM148.152 26.4648V24.4648H111.238V26.4648V28.4648H148.152V26.4648ZM111.238 26.4648H109.238V54.5898H111.238H113.238V26.4648H111.238ZM111.238 54.5898V56.5898H148.152V54.5898V52.5898H111.238V54.5898ZM148.152 54.5898V56.5898C148.078 56.5898 147.656 56.57 147.265 56.1798C146.875 55.7897 146.855 55.3669 146.855 55.293H148.855H150.855C150.855 54.7503 150.718 53.976 150.094 53.3514C149.469 52.7269 148.695 52.5898 148.152 52.5898V54.5898ZM148.855 55.293L146.856 55.3102L147.031 75.7008L149.031 75.6836L151.031 75.6664L150.855 55.2757L148.855 55.293ZM149.031 75.6836H147.031C147.031 75.6097 147.051 75.1869 147.441 74.7967C147.831 74.4066 148.254 74.3867 148.328 74.3867V76.3867V78.3867C148.871 78.3867 149.645 78.2497 150.27 77.6252C150.894 77.0006 151.031 76.2263 151.031 75.6836H149.031ZM148.328 76.3867V74.3867H111.238V76.3867V78.3867H148.328V76.3867ZM111.238 76.3867H109.238V107.852H111.238H113.238V76.3867H111.238ZM111.238 107.852V109.852H148.328V107.852V105.852H111.238V107.852ZM148.328 107.852V109.852C148.24 109.852 148.072 109.838 147.867 109.753C147.649 109.662 147.448 109.514 147.294 109.321C147.007 108.962 147.031 108.651 147.031 108.73H149.031H151.031C151.031 108.224 150.939 107.474 150.417 106.822C149.828 106.085 149.004 105.852 148.328 105.852V107.852ZM149.031 108.73H147.031V129.297H149.031H151.031V108.73H149.031ZM149.031 129.297H147.031C147.031 129.223 147.051 128.8 147.441 128.41C147.831 128.02 148.254 128 148.328 128V130V132C148.871 132 149.645 131.863 150.27 131.238C150.894 130.614 151.031 129.84 151.031 129.297H149.031ZM177.947 126.836L176.899 128.539L176.907 128.544L177.947 126.836ZM165.115 113.74L163.381 114.736L163.387 114.747L163.394 114.758L165.115 113.74ZM186.121 105.83L184.648 107.183L184.655 107.19L184.662 107.198L186.121 105.83ZM205.193 105.742L206.666 107.095L206.673 107.088L206.68 107.08L205.193 105.742ZM200.535 84.1211L199.475 85.8171L199.509 85.838L199.543 85.8576L200.535 84.1211ZM196.844 82.0117L195.815 83.7267L195.855 83.7506L195.896 83.7727L196.844 82.0117ZM185.594 75.7715L184.596 77.5047L184.616 77.5162L184.636 77.5273L185.594 75.7715ZM179.969 72.6074L178.953 74.3305L178.98 74.3462L179.007 74.3611L179.969 72.6074ZM165.291 58.1055L163.531 59.0558L163.537 59.0663L163.543 59.0768L165.291 58.1055ZM165.467 20.3125L163.763 19.2643L163.758 19.2726L165.467 20.3125ZM178.299 7.65625L179.314 9.37964L179.319 9.37622L178.299 7.65625ZM213.191 7.65625L214.226 5.9446L214.219 5.94041L214.212 5.93628L213.191 7.65625ZM225.936 20.4883L224.216 21.5089L224.22 21.5159L224.224 21.5228L225.936 20.4883ZM209.148 53.1836H211.148V53.1717L211.148 53.1598L209.148 53.1836ZM208.973 38.418H206.973V38.4299L206.973 38.4418L208.973 38.418ZM184.627 48.2617L182.929 49.3183L182.937 49.3318L182.946 49.3451L184.627 48.2617ZM193.855 55.8203L192.906 57.5805L192.933 57.5953L192.961 57.6092L193.855 55.8203ZM202.732 60.7422L201.74 62.4787L201.769 62.4953L201.799 62.511L202.732 60.7422ZM208.445 63.8184L207.479 65.5695L207.503 65.5825L207.526 65.5948L208.445 63.8184ZM211.521 65.4004L212.497 63.6545L212.457 63.6321L212.416 63.6115L211.521 65.4004ZM225.672 77.7051L224.042 78.8638L224.046 78.8703L224.051 78.8768L225.672 77.7051ZM226.199 114.092L227.921 115.11L227.925 115.103L227.929 115.096L226.199 114.092ZM195.613 131.758V129.758C189.589 129.758 184.061 128.216 178.987 125.128L177.947 126.836L176.907 128.544C182.615 132.019 188.864 133.758 195.613 133.758V131.758ZM177.947 126.836L178.995 125.133C173.943 122.024 169.896 117.895 166.837 112.722L165.115 113.74L163.394 114.758C166.78 120.484 171.287 125.086 176.899 128.539L177.947 126.836ZM165.115 113.74L166.849 112.744C163.865 107.55 162.369 101.86 162.369 95.6348H160.369H158.369C158.369 102.535 160.037 108.915 163.381 114.736L165.115 113.74ZM160.369 95.6348H162.369V87.373H160.369H158.369V95.6348H160.369ZM160.369 87.373H162.369C162.369 87.3144 162.387 87.6437 162.069 87.9933C161.718 88.379 161.315 88.4062 161.248 88.4062V86.4062V84.4062C160.595 84.4062 159.753 84.5946 159.109 85.3026C158.498 85.9745 158.369 86.7872 158.369 87.373H160.369ZM161.248 86.4062V88.4062H181.463V86.4062V84.4062H161.248V86.4062ZM181.463 86.4062V88.4062C181.352 88.4062 181.16 88.387 180.937 88.2848C180.703 88.1776 180.51 88.0126 180.373 87.8243C180.13 87.4906 180.166 87.2337 180.166 87.373H182.166H184.166C184.166 86.8678 184.085 86.1276 183.608 85.4716C183.045 84.6973 182.209 84.4062 181.463 84.4062V86.4062ZM182.166 87.373H180.166V95.6348H182.166H184.166V87.373H182.166ZM182.166 95.6348H180.166C180.166 100.058 181.67 103.94 184.648 107.183L186.121 105.83L187.594 104.477C185.299 101.978 184.166 99.0635 184.166 95.6348H182.166ZM186.121 105.83L184.662 107.198C187.658 110.394 191.342 112.049 195.613 112.049V110.049V108.049C192.502 108.049 189.858 106.892 187.58 104.462L186.121 105.83ZM195.613 110.049V112.049C199.948 112.049 203.668 110.36 206.666 107.095L205.193 105.742L203.72 104.389C201.445 106.866 198.779 108.049 195.613 108.049V110.049ZM205.193 105.742L206.68 107.08C209.635 103.797 211.148 99.9561 211.148 95.6348H209.148H207.148C207.148 98.9306 206.026 101.828 203.707 104.404L205.193 105.742ZM209.148 95.6348H211.148C211.148 90.2003 207.55 85.8264 201.527 82.3846L200.535 84.1211L199.543 85.8576C205.004 88.9783 207.148 92.2802 207.148 95.6348H209.148ZM200.535 84.1211L201.595 82.4251C200.607 81.8073 199.335 81.0815 197.792 80.2508L196.844 82.0117L195.896 83.7727C197.4 84.5825 198.589 85.263 199.475 85.8171L200.535 84.1211ZM196.844 82.0117L197.873 80.2967C196.376 79.3988 194.592 78.3881 192.524 77.2657L191.57 79.0234L190.616 80.7811C192.65 81.8853 194.382 82.8668 195.815 83.7267L196.844 82.0117ZM191.57 79.0234L192.524 77.2657C190.475 76.153 188.484 75.0697 186.551 74.0157L185.594 75.7715L184.636 77.5273C186.571 78.5826 188.564 79.6673 190.616 80.7811L191.57 79.0234ZM185.594 75.7715L186.592 74.0382C184.647 72.9186 182.76 71.857 180.93 70.8538L179.969 72.6074L179.007 74.3611C180.81 75.35 182.673 76.3978 184.596 77.5047L185.594 75.7715ZM179.969 72.6074L180.984 70.8843C174.682 67.1708 170.065 62.5799 167.039 57.1342L165.291 58.1055L163.543 59.0768C166.963 65.2326 172.13 70.3096 178.953 74.3305L179.969 72.6074ZM165.291 58.1055L167.051 57.1552C164.058 51.6138 162.545 45.3828 162.545 38.418H160.545H158.545C158.545 45.9844 160.195 52.8784 163.531 59.0558L165.291 58.1055ZM160.545 38.418H162.545C162.545 32.0827 164.096 26.4111 167.175 21.3524L165.467 20.3125L163.758 19.2726C160.275 24.9951 158.545 31.3938 158.545 38.418H160.545ZM165.467 20.3125L167.17 21.3607C170.284 16.2999 174.328 12.3156 179.314 9.37962L178.299 7.65625L177.284 5.93288C171.723 9.2078 167.212 13.6611 163.763 19.2643L165.467 20.3125ZM178.299 7.65625L179.319 9.37622C184.342 6.39579 189.761 4.91016 195.613 4.91016V2.91016V0.910156C189.044 0.910156 182.92 2.58858 177.278 5.93628L178.299 7.65625ZM195.613 2.91016V4.91016C201.652 4.91016 207.157 6.40115 212.171 9.37622L213.191 7.65625L214.212 5.93628C208.562 2.58322 202.348 0.910156 195.613 0.910156V2.91016ZM213.191 7.65625L212.157 9.3679C217.208 12.4211 221.22 16.4616 224.216 21.5089L225.936 20.4883L227.656 19.4676C224.323 13.8509 219.838 9.33676 214.226 5.9446L213.191 7.65625ZM225.936 20.4883L224.224 21.5228C227.246 26.5229 228.77 32.1377 228.77 38.418H230.77H232.77C232.77 31.456 231.07 25.1177 227.647 19.4538L225.936 20.4883ZM230.77 38.418H228.77V53.1836H230.77H232.77V38.418H230.77ZM230.77 53.1836H228.77C228.77 53.1097 228.789 52.6869 229.18 52.2967C229.57 51.9066 229.992 51.8867 230.066 51.8867V53.8867V55.8867C230.609 55.8867 231.383 55.7497 232.008 55.1252C232.633 54.5006 232.77 53.7263 232.77 53.1836H230.77ZM230.066 53.8867V51.8867H209.852V53.8867V55.8867H230.066V53.8867ZM209.852 53.8867V51.8867C209.925 51.8867 210.348 51.9066 210.738 52.2967C211.129 52.6869 211.148 53.1097 211.148 53.1836H209.148H207.148C207.148 53.7263 207.285 54.5006 207.91 55.1252C208.535 55.7497 209.309 55.8867 209.852 55.8867V53.8867ZM209.148 53.1836L211.148 53.1598L210.973 38.3942L208.973 38.418L206.973 38.4418L207.149 53.2074L209.148 53.1836ZM208.973 38.418H210.973C210.973 33.7447 209.494 29.7828 206.432 26.7206L205.018 28.1348L203.603 29.549C205.815 31.7601 206.973 34.6537 206.973 38.418H208.973ZM205.018 28.1348L206.432 26.7206C203.431 23.7199 199.792 22.1797 195.613 22.1797V24.1797V26.1797C198.7 26.1797 201.331 27.2762 203.603 29.549L205.018 28.1348ZM195.613 24.1797V22.1797C191.342 22.1797 187.658 23.8349 184.662 27.0306L186.121 28.3984L187.58 29.7663C189.858 27.337 192.502 26.1797 195.613 26.1797V24.1797ZM186.121 28.3984L184.662 27.0306C181.677 30.215 180.166 34.0444 180.166 38.418H182.166H184.166C184.166 35.0571 185.292 32.2068 187.58 29.7663L186.121 28.3984ZM182.166 38.418H180.166C180.166 42.6194 181.045 46.2906 182.929 49.3183L184.627 48.2617L186.325 47.2051C184.928 44.9594 184.166 42.0681 184.166 38.418H182.166ZM184.627 48.2617L182.946 49.3451C184.907 52.3887 188.319 55.1059 192.906 57.5805L193.855 55.8203L194.805 54.0601C190.486 51.73 187.745 49.4082 186.308 47.1783L184.627 48.2617ZM193.855 55.8203L192.961 57.6092C193.386 57.8216 194.431 58.3855 196.141 59.3293L197.107 57.5781L198.074 55.827C196.386 54.8957 195.263 54.2878 194.75 54.0315L193.855 55.8203ZM197.107 57.5781L196.141 59.3293C197.83 60.2611 199.696 61.3107 201.74 62.4787L202.732 60.7422L203.725 59.0057C201.667 57.8299 199.783 56.7702 198.074 55.827L197.107 57.5781ZM202.732 60.7422L201.799 62.511C203.9 63.6197 205.793 64.6391 207.479 65.5695L208.445 63.8184L209.411 62.0672C207.699 61.1226 205.784 60.0912 203.666 58.9734L202.732 60.7422ZM208.445 63.8184L207.526 65.5948C209.22 66.4706 210.26 67.0058 210.627 67.1892L211.521 65.4004L212.416 63.6115C212.08 63.4435 211.069 62.924 209.364 62.0419L208.445 63.8184ZM211.521 65.4004L210.546 67.1463C216.302 70.3627 220.78 74.2757 224.042 78.8638L225.672 77.7051L227.302 76.5463C223.649 71.4079 218.695 67.1178 212.497 63.6545L211.521 65.4004ZM225.672 77.7051L224.051 78.8768C227.278 83.3405 228.945 88.8871 228.945 95.6348H230.945H232.945C232.945 88.2028 231.097 81.7962 227.293 76.5334L225.672 77.7051ZM230.945 95.6348H228.945C228.945 102.169 227.441 107.97 224.47 113.088L226.199 114.092L227.929 115.096C231.285 109.315 232.945 102.811 232.945 95.6348H230.945ZM226.199 114.092L224.478 113.074C221.422 118.24 217.383 122.303 212.347 125.292L213.367 127.012L214.388 128.732C220.015 125.392 224.531 120.842 227.921 115.11L226.199 114.092ZM213.367 127.012L212.347 125.292C207.339 128.263 201.776 129.758 195.613 129.758V131.758V133.758C202.458 133.758 208.731 132.088 214.388 128.732L213.367 127.012ZM260.74 26.4648H262.74V24.4648H260.74V26.4648ZM236.482 25.5859L234.482 25.5685L234.482 25.5772V25.5859H236.482ZM236.658 5.45898L238.658 5.47645L238.658 5.46772V5.45898H236.658ZM282.361 26.4648V24.4648H280.358L280.361 26.4683L282.361 26.4648ZM282.537 129.121H284.537V129.118L282.537 129.121ZM281.834 130V128H261.531V130V132H281.834V130ZM261.531 130V128C261.633 128 262.061 128.038 262.425 128.442C262.586 128.622 262.667 128.804 262.705 128.931C262.724 128.993 262.732 129.041 262.736 129.072C262.74 129.103 262.74 129.12 262.74 129.121H260.74H258.74C258.74 129.673 258.86 130.461 259.451 131.118C260.079 131.815 260.902 132 261.531 132V130ZM260.74 129.121H262.74V26.4648H260.74H258.74V129.121H260.74ZM260.74 26.4648V24.4648H237.361V26.4648V28.4648H260.74V26.4648ZM237.361 26.4648V24.4648C237.377 24.4648 237.755 24.47 238.116 24.8309C238.477 25.1918 238.482 25.5706 238.482 25.5859H236.482H234.482C234.482 26.1872 234.634 27.0055 235.288 27.6593C235.942 28.3132 236.76 28.4648 237.361 28.4648V26.4648ZM236.482 25.5859L238.482 25.6034L238.658 5.47645L236.658 5.45898L234.658 5.44152L234.482 25.5685L236.482 25.5859ZM236.658 5.45898H238.658C238.658 5.5329 238.638 5.95568 238.248 6.34586C237.858 6.73602 237.435 6.75586 237.361 6.75586V4.75586V2.75586C236.819 2.75586 236.044 2.89288 235.42 3.51743C234.795 4.14198 234.658 4.91632 234.658 5.45898H236.658ZM237.361 4.75586V6.75586H305.74V4.75586V2.75586H237.361V4.75586ZM305.74 4.75586V6.75586C305.88 6.75586 305.623 6.79183 305.289 6.54911C305.101 6.41215 304.936 6.21868 304.828 5.98468C304.726 5.76169 304.707 5.56957 304.707 5.45898H306.707H308.707C308.707 4.7131 308.416 3.87733 307.642 3.31417C306.986 2.83707 306.245 2.75586 305.74 2.75586V4.75586ZM306.707 5.45898H304.707V25.5859H306.707H308.707V5.45898H306.707ZM306.707 25.5859H304.707C304.707 25.6652 304.682 25.3546 304.97 24.9957C305.124 24.8025 305.325 24.6543 305.542 24.5638C305.747 24.4783 305.916 24.4648 306.004 24.4648V26.4648V28.4648C306.68 28.4648 307.503 28.2316 308.093 27.4945C308.614 26.8427 308.707 26.0926 308.707 25.5859H306.707ZM306.004 26.4648V24.4648H282.361V26.4648V28.4648H306.004V26.4648ZM282.361 26.4648L280.361 26.4683L280.537 129.125L282.537 129.121L284.537 129.118L284.361 26.4614L282.361 26.4648ZM282.537 129.121H280.537C280.537 129.2 280.513 128.89 280.8 128.531C280.954 128.338 281.155 128.189 281.372 128.099C281.577 128.013 281.746 128 281.834 128V130V132C282.51 132 283.333 131.767 283.923 131.03C284.445 130.378 284.537 129.628 284.537 129.121H282.537ZM309.432 129.121L307.463 128.766L307.432 128.942V129.121H309.432ZM331.756 5.45898L329.816 4.97392L329.799 5.03833L329.788 5.10368L331.756 5.45898ZM359.617 5.45898L361.588 5.11725L361.575 5.04503L361.557 4.97392L359.617 5.45898ZM381.062 129.121L383.053 128.922L383.045 128.85L383.033 128.779L381.062 129.121ZM359.441 129.121L361.431 128.922L361.427 128.876L361.42 128.831L359.441 129.121ZM357.508 115.938L359.487 115.647L359.236 113.938H357.508V115.938ZM332.986 115.938V113.938H331.258L331.008 115.647L332.986 115.938ZM331.053 129.121L329.074 128.831L329.067 128.876L329.063 128.922L331.053 129.121ZM346.521 46.1523L348.5 45.8632L348.499 45.8518L348.497 45.8404L346.521 46.1523ZM345.467 39.4727L347.442 39.1607L343.481 39.2375L345.467 39.4727ZM344.676 46.1523L346.651 46.4683L346.657 46.4281L346.662 46.3875L344.676 46.1523ZM336.59 96.6895L334.615 96.3735L334.244 98.6895H336.59V96.6895ZM353.904 96.6895V98.6895H356.218L355.883 96.4003L353.904 96.6895ZM309.432 129.121L311.4 129.476L333.724 5.81429L331.756 5.45898L329.788 5.10368L307.463 128.766L309.432 129.121ZM331.756 5.45898L333.696 5.94405C333.679 6.01139 333.596 6.26709 333.313 6.49338C333.024 6.72469 332.739 6.75586 332.635 6.75586V4.75586V2.75586C332.062 2.75586 331.396 2.90421 330.814 3.3699C330.238 3.83057 329.95 4.43783 329.816 4.97392L331.756 5.45898ZM332.635 4.75586V6.75586H358.738V4.75586V2.75586H332.635V4.75586ZM358.738 4.75586V6.75586C358.634 6.75586 358.349 6.72469 358.06 6.49338C357.777 6.26709 357.694 6.01139 357.677 5.94405L359.617 5.45898L361.557 4.97392C361.423 4.43783 361.135 3.83057 360.559 3.3699C359.977 2.90421 359.311 2.75586 358.738 2.75586V4.75586ZM359.617 5.45898L357.647 5.80072L379.092 129.463L381.062 129.121L383.033 128.779L361.588 5.11725L359.617 5.45898ZM381.062 129.121L379.072 129.32C379.072 129.32 379.072 129.316 379.072 129.307C379.071 129.299 379.071 129.287 379.072 129.27C379.072 129.237 379.076 129.183 379.09 129.113C379.119 128.97 379.192 128.751 379.369 128.531C379.768 128.032 380.275 128 380.359 128V130V132C380.972 132 381.859 131.821 382.492 131.03C383.08 130.295 383.105 129.449 383.053 128.922L381.062 129.121ZM380.359 130V128H360.408V130V132H380.359V130ZM360.408 130V128C360.438 128 360.754 128.011 361.072 128.3C361.389 128.589 361.429 128.898 361.431 128.922L359.441 129.121L357.451 129.32C357.512 129.93 357.742 130.679 358.382 131.26C359.022 131.843 359.792 132 360.408 132V130ZM359.441 129.121L361.42 128.831L359.487 115.647L357.508 115.938L355.529 116.228L357.463 129.411L359.441 129.121ZM357.508 115.938V113.938H332.986V115.938V117.938H357.508V115.938ZM332.986 115.938L331.008 115.647L329.074 128.831L331.053 129.121L333.032 129.411L334.965 116.228L332.986 115.938ZM331.053 129.121L329.063 128.922C329.063 128.922 329.064 128.908 329.07 128.881C329.076 128.855 329.087 128.814 329.108 128.763C329.15 128.657 329.231 128.51 329.375 128.366C329.699 128.042 330.059 128 330.174 128V130V132C330.816 132 331.586 131.811 332.203 131.194C332.79 130.608 332.987 129.883 333.043 129.32L331.053 129.121ZM330.174 130V128H310.135V130V132H330.174V130ZM310.135 130V128C310.222 128 310.391 128.013 310.596 128.099C310.814 128.189 311.015 128.338 311.169 128.531C311.456 128.89 311.432 129.2 311.432 129.121H309.432H307.432C307.432 129.628 307.524 130.378 308.046 131.03C308.635 131.767 309.459 132 310.135 132V130ZM346.521 46.1523L348.497 45.8404L347.442 39.1607L345.467 39.4727L343.491 39.7846L344.546 46.4643L346.521 46.1523ZM345.467 39.4727L343.481 39.2375L342.69 45.9171L344.676 46.1523L346.662 46.3875L347.453 39.7079L345.467 39.4727ZM344.676 46.1523L342.701 45.8364L334.615 96.3735L336.59 96.6895L338.565 97.0054L346.651 46.4683L344.676 46.1523ZM336.59 96.6895V98.6895H353.904V96.6895V94.6895H336.59V96.6895ZM353.904 96.6895L355.883 96.4003L348.5 45.8632L346.521 46.1523L344.542 46.4415L351.925 96.9786L353.904 96.6895ZM394.949 113.652L393.21 114.641L393.217 114.652L393.223 114.662L394.949 113.652ZM390.203 95.459L388.203 95.4512V95.459H390.203ZM390.555 5.45898L392.555 5.4668V5.45898H390.555ZM416.043 105.83L414.555 107.166L414.562 107.174L414.569 107.182L416.043 105.83ZM435.115 105.83L436.59 107.182L436.596 107.174L436.603 107.166L435.115 105.83ZM460.604 5.45898H458.604V5.4668L460.604 5.45898ZM460.955 95.459H462.955V95.4512L460.955 95.459ZM456.209 113.74L457.935 114.75L457.942 114.739L457.948 114.729L456.209 113.74ZM443.377 126.924L444.411 128.635L444.418 128.631L444.425 128.627L443.377 126.924ZM425.447 131.758V129.758C419.485 129.758 413.985 128.218 408.909 125.128L407.869 126.836L406.829 128.544C412.534 132.017 418.753 133.758 425.447 133.758V131.758ZM407.869 126.836L408.909 125.128C403.805 122.021 399.733 117.867 396.675 112.642L394.949 113.652L393.223 114.662C396.611 120.453 401.152 125.089 406.829 128.544L407.869 126.836ZM394.949 113.652L396.688 112.664C393.7 107.407 392.203 101.684 392.203 95.459H390.203H388.203C388.203 102.359 389.871 108.765 393.21 114.641L394.949 113.652ZM390.203 95.459L392.203 95.4668L392.555 5.4668L390.555 5.45898L388.555 5.45117L388.203 95.4512L390.203 95.459ZM390.555 5.45898H392.555C392.555 5.5329 392.535 5.95568 392.145 6.34586C391.755 6.73602 391.332 6.75586 391.258 6.75586V4.75586V2.75586C390.715 2.75586 389.941 2.89288 389.316 3.51743C388.692 4.14198 388.555 4.91632 388.555 5.45898H390.555ZM391.258 4.75586V6.75586H411.473V4.75586V2.75586H391.258V4.75586ZM411.473 4.75586V6.75586C411.399 6.75586 410.976 6.73602 410.586 6.34586C410.196 5.95568 410.176 5.5329 410.176 5.45898H412.176H414.176C414.176 4.91632 414.039 4.14198 413.414 3.51743C412.79 2.89288 412.015 2.75586 411.473 2.75586V4.75586ZM412.176 5.45898H410.176V95.459H412.176H414.176V5.45898H412.176ZM412.176 95.459H410.176C410.176 99.9695 411.63 103.909 414.555 107.166L416.043 105.83L417.531 104.494C415.299 102.009 414.176 99.0345 414.176 95.459H412.176ZM416.043 105.83L414.569 107.182C417.511 110.392 421.174 112.049 425.447 112.049V110.049V108.049C422.337 108.049 419.731 106.894 417.517 104.479L416.043 105.83ZM425.447 110.049V112.049C429.866 112.049 433.627 110.414 436.59 107.182L435.115 105.83L433.641 104.479C431.447 106.872 428.763 108.049 425.447 108.049V110.049ZM435.115 105.83L436.603 107.166C439.528 103.909 440.982 99.9695 440.982 95.459H438.982H436.982C436.982 99.0345 435.859 102.009 433.627 104.494L435.115 105.83ZM438.982 95.459H440.982V5.45898H438.982H436.982V95.459H438.982ZM438.982 5.45898H440.982C440.982 5.5329 440.963 5.95568 440.572 6.34586C440.182 6.73602 439.759 6.75586 439.686 6.75586V4.75586V2.75586C439.143 2.75586 438.369 2.89288 437.744 3.51743C437.119 4.14198 436.982 4.91632 436.982 5.45898H438.982ZM439.686 4.75586V6.75586H459.9V4.75586V2.75586H439.686V4.75586ZM459.9 4.75586V6.75586C459.826 6.75586 459.404 6.73602 459.014 6.34586C458.623 5.95568 458.604 5.5329 458.604 5.45898H460.604H462.604C462.604 4.91632 462.466 4.14198 461.842 3.51743C461.217 2.89288 460.443 2.75586 459.9 2.75586V4.75586ZM460.604 5.45898L458.604 5.4668L458.955 95.4668L460.955 95.459L462.955 95.4512L462.604 5.45117L460.604 5.45898ZM460.955 95.459H458.955C458.955 101.746 457.457 107.497 454.47 112.752L456.209 113.74L457.948 114.729C461.289 108.85 462.955 102.414 462.955 95.459H460.955ZM456.209 113.74L454.483 112.73C451.422 117.96 447.376 122.115 442.329 125.221L443.377 126.924L444.425 128.627C450.042 125.171 454.55 120.536 457.935 114.75L456.209 113.74ZM443.377 126.924L442.342 125.212C437.342 128.234 431.728 129.758 425.447 129.758V131.758V133.758C432.409 133.758 438.748 132.059 444.411 128.635L443.377 126.924ZM475.105 129.121L473.105 129.115V129.121H475.105ZM475.457 5.45898L477.457 5.46467V5.45898H475.457ZM543.484 22.2461L541.773 23.2806L541.777 23.2875L541.781 23.2943L543.484 22.2461ZM541.639 61.3574L540.03 60.1697L540.02 60.1823L540.011 60.1949L541.639 61.3574ZM536.805 66.8066L535.555 65.2449L533.898 66.5708L535.32 68.1466L536.805 66.8066ZM546.561 92.207H544.561V92.2166L546.561 92.207ZM546.736 129.121H548.736V129.112L546.736 129.121ZM497.078 76.2109V74.2109H495.085L495.078 76.2043L497.078 76.2109ZM496.902 129.121L494.902 129.114V129.121H496.902ZM497.078 26.2891V24.2891H495.078V26.2891H497.078ZM497.078 54.5898H495.078V56.5898H497.078V54.5898ZM522.391 50.459L521.021 49.0017L521.013 49.0086L521.006 49.0156L522.391 50.459ZM522.566 30.5078L521.152 31.922L521.16 31.9295L521.167 31.9368L522.566 30.5078ZM496.199 130V128H475.809V130V132H496.199V130ZM475.809 130V128C475.896 128 476.065 128.013 476.27 128.099C476.488 128.189 476.688 128.338 476.843 128.531C477.13 128.89 477.105 129.2 477.105 129.121H475.105H473.105C473.105 129.628 473.198 130.378 473.72 131.03C474.309 131.767 475.133 132 475.809 132V130ZM475.105 129.121L477.105 129.127L477.457 5.46467L475.457 5.45898L473.457 5.4533L473.105 129.115L475.105 129.121ZM475.457 5.45898H477.457C477.457 5.5329 477.437 5.95568 477.047 6.34586C476.657 6.73602 476.234 6.75586 476.16 6.75586V4.75586V2.75586C475.617 2.75586 474.843 2.89288 474.219 3.51743C473.594 4.14198 473.457 4.91632 473.457 5.45898H475.457ZM476.16 4.75586V6.75586H512.547V4.75586V2.75586H476.16V4.75586ZM512.547 4.75586V6.75586C518.71 6.75586 524.338 8.25046 529.472 11.2315L530.477 9.50195L531.481 7.77238C525.716 4.42532 519.392 2.75586 512.547 2.75586V4.75586ZM530.477 9.50195L529.472 11.2315C534.635 14.229 538.726 18.2394 541.773 23.2806L543.484 22.2461L545.196 21.2116C541.798 15.5887 537.217 11.1031 531.481 7.77238L530.477 9.50195ZM543.484 22.2461L541.781 23.2943C544.854 28.287 546.406 33.9541 546.406 40.3516H548.406H550.406C550.406 33.2725 548.678 26.8692 545.188 21.1979L543.484 22.2461ZM548.406 40.3516H546.406C546.406 44.5408 545.764 48.2816 544.513 51.5991L546.385 52.3047L548.256 53.0103C549.701 49.1793 550.406 44.9514 550.406 40.3516H548.406ZM546.385 52.3047L544.513 51.5991C543.215 55.0421 541.714 57.888 540.03 60.1697L541.639 61.3574L543.248 62.5451C545.197 59.9049 546.859 56.7158 548.256 53.0103L546.385 52.3047ZM541.639 61.3574L540.011 60.1949C538.304 62.5856 536.816 64.2363 535.555 65.2449L536.805 66.8066L538.054 68.3684C539.723 67.0332 541.458 65.0511 543.266 62.5199L541.639 61.3574ZM536.805 66.8066L535.32 68.1466C541.491 74.9853 544.561 82.9744 544.561 92.207H546.561H548.561C548.561 81.9865 545.126 73.042 538.289 65.4667L536.805 66.8066ZM546.561 92.207L544.561 92.2166L544.736 129.131L546.736 129.121L548.736 129.112L548.561 92.1975L546.561 92.207ZM546.736 129.121H544.736C544.736 129.106 544.742 128.727 545.102 128.366C545.463 128.005 545.842 128 545.857 128V130V132C546.459 132 547.277 131.848 547.931 131.194C548.585 130.541 548.736 129.722 548.736 129.121H546.736ZM545.857 130V128H525.467V130V132H545.857V130ZM525.467 130V128C525.468 128 525.535 127.999 525.644 128.027C525.756 128.055 525.941 128.119 526.139 128.268C526.349 128.426 526.524 128.64 526.635 128.891C526.742 129.13 526.764 129.34 526.764 129.473H524.764H522.764C522.764 130.136 523.015 130.925 523.739 131.468C524.355 131.93 525.04 132 525.467 132V130ZM524.764 129.473H526.764V92.207H524.764H522.764V129.473H524.764ZM524.764 92.207H526.764C526.764 87.3462 525.034 83.101 521.634 79.5697L520.193 80.957L518.753 82.3443C521.446 85.1411 522.764 88.396 522.764 92.207H524.764ZM520.193 80.957L521.634 79.5697C518.204 76.0081 513.932 74.2109 508.943 74.2109V76.2109V78.2109C512.861 78.2109 516.089 79.5778 518.753 82.3443L520.193 80.957ZM508.943 76.2109V74.2109H497.078V76.2109V78.2109H508.943V76.2109ZM497.078 76.2109L495.078 76.2043L494.902 129.114L496.902 129.121L498.902 129.128L499.078 76.2176L497.078 76.2109ZM496.902 129.121H494.902C494.902 129.2 494.878 128.89 495.165 128.531C495.319 128.338 495.52 128.189 495.738 128.099C495.943 128.013 496.112 128 496.199 128V130V132C496.875 132 497.699 131.767 498.288 131.03C498.81 130.378 498.902 129.628 498.902 129.121H496.902ZM512.547 26.2891V24.2891H497.078V26.2891V28.2891H512.547V26.2891ZM497.078 26.2891H495.078V54.5898H497.078H499.078V26.2891H497.078ZM497.078 54.5898V56.5898H512.547V54.5898V52.5898H497.078V54.5898ZM512.547 54.5898V56.5898C516.797 56.5898 520.563 54.983 523.775 51.9023L522.391 50.459L521.006 49.0156C518.476 51.4428 515.68 52.5898 512.547 52.5898V54.5898ZM522.391 50.459L523.76 51.9162C527.088 48.7883 528.785 44.8935 528.785 40.3516H526.785H524.785C524.785 43.7783 523.553 46.6219 521.021 49.0017L522.391 50.459ZM526.785 40.3516H528.785C528.785 35.9854 527.148 32.1948 523.966 29.0788L522.566 30.5078L521.167 31.9368C523.61 34.3287 524.785 37.1006 524.785 40.3516H526.785ZM522.566 30.5078L523.981 29.0936C520.805 25.918 516.961 24.2891 512.547 24.2891V26.2891V28.2891C515.867 28.2891 518.703 29.4726 521.152 31.922L522.566 30.5078ZM552.186 129.121L550.217 128.766L550.186 128.942V129.121H552.186ZM574.51 5.45898L572.569 4.97392L572.553 5.03833L572.542 5.10368L574.51 5.45898ZM602.371 5.45898L604.342 5.11725L604.329 5.04503L604.311 4.97392L602.371 5.45898ZM623.816 129.121L625.806 128.922L625.799 128.85L625.787 128.779L623.816 129.121ZM602.195 129.121L604.185 128.922L604.181 128.876L604.174 128.831L602.195 129.121ZM600.262 115.938L602.241 115.647L601.99 113.938H600.262V115.938ZM575.74 115.938V113.938H574.012L573.761 115.647L575.74 115.938ZM573.807 129.121L571.828 128.831L571.821 128.876L571.817 128.922L573.807 129.121ZM589.275 46.1523L591.254 45.8632L591.253 45.8518L591.251 45.8404L589.275 46.1523ZM588.221 39.4727L590.196 39.1607L586.235 39.2375L588.221 39.4727ZM587.43 46.1523L589.405 46.4683L589.411 46.4281L589.416 46.3875L587.43 46.1523ZM579.344 96.6895L577.369 96.3735L576.998 98.6895H579.344V96.6895ZM596.658 96.6895V98.6895H598.972L598.637 96.4003L596.658 96.6895ZM552.186 129.121L554.154 129.476L576.478 5.81429L574.51 5.45898L572.542 5.10368L550.217 128.766L552.186 129.121ZM574.51 5.45898L576.45 5.94405C576.433 6.01139 576.35 6.26709 576.067 6.49338C575.778 6.72469 575.493 6.75586 575.389 6.75586V4.75586V2.75586C574.816 2.75586 574.15 2.90421 573.568 3.3699C572.992 3.83057 572.703 4.43783 572.569 4.97392L574.51 5.45898ZM575.389 4.75586V6.75586H601.492V4.75586V2.75586H575.389V4.75586ZM601.492 4.75586V6.75586C601.388 6.75586 601.103 6.72469 600.814 6.49338C600.531 6.26709 600.448 6.01139 600.431 5.94405L602.371 5.45898L604.311 4.97392C604.177 4.43783 603.889 3.83057 603.313 3.3699C602.731 2.90421 602.065 2.75586 601.492 2.75586V4.75586ZM602.371 5.45898L600.401 5.80072L621.846 129.463L623.816 129.121L625.787 128.779L604.342 5.11725L602.371 5.45898ZM623.816 129.121L621.826 129.32C621.826 129.32 621.826 129.316 621.826 129.307C621.825 129.299 621.825 129.287 621.825 129.27C621.826 129.237 621.83 129.183 621.844 129.113C621.873 128.97 621.946 128.751 622.123 128.531C622.522 128.032 623.028 128 623.113 128V130V132C623.725 132 624.613 131.821 625.246 131.03C625.834 130.295 625.859 129.449 625.806 128.922L623.816 129.121ZM623.113 130V128H603.162V130V132H623.113V130ZM603.162 130V128C603.192 128 603.508 128.011 603.826 128.3C604.143 128.589 604.183 128.898 604.185 128.922L602.195 129.121L600.205 129.32C600.266 129.93 600.496 130.679 601.136 131.26C601.776 131.843 602.546 132 603.162 132V130ZM602.195 129.121L604.174 128.831L602.241 115.647L600.262 115.938L598.283 116.228L600.216 129.411L602.195 129.121ZM600.262 115.938V113.938H575.74V115.938V117.938H600.262V115.938ZM575.74 115.938L573.761 115.647L571.828 128.831L573.807 129.121L575.785 129.411L577.719 116.228L575.74 115.938ZM573.807 129.121L571.817 128.922C571.817 128.922 571.818 128.908 571.824 128.881C571.83 128.855 571.841 128.814 571.862 128.763C571.904 128.657 571.985 128.51 572.129 128.366C572.453 128.042 572.813 128 572.928 128V130V132C573.57 132 574.34 131.811 574.957 131.194C575.543 130.608 575.74 129.883 575.797 129.32L573.807 129.121ZM572.928 130V128H552.889V130V132H572.928V130ZM552.889 130V128C552.976 128 553.145 128.013 553.35 128.099C553.568 128.189 553.768 128.338 553.923 128.531C554.21 128.89 554.186 129.2 554.186 129.121H552.186H550.186C550.186 129.628 550.278 130.378 550.8 131.03C551.389 131.767 552.213 132 552.889 132V130ZM589.275 46.1523L591.251 45.8404L590.196 39.1607L588.221 39.4727L586.245 39.7846L587.3 46.4643L589.275 46.1523ZM588.221 39.4727L586.235 39.2375L585.444 45.9171L587.43 46.1523L589.416 46.3875L590.207 39.7079L588.221 39.4727ZM587.43 46.1523L585.455 45.8364L577.369 96.3735L579.344 96.6895L581.319 97.0054L589.405 46.4683L587.43 46.1523ZM579.344 96.6895V98.6895H596.658V96.6895V94.6895H579.344V96.6895ZM596.658 96.6895L598.637 96.4003L591.254 45.8632L589.275 46.1523L587.296 46.4415L594.679 96.9786L596.658 96.6895ZM635.242 128.77H637.242V128.767L635.242 128.77ZM635.066 6.16211H633.066V6.16498L635.066 6.16211ZM652.732 4.75586L654.571 3.96774L654.051 2.75586H652.732V4.75586ZM683.143 75.6836L681.304 76.4717L685.142 75.6583L683.143 75.6836ZM682.264 6.16211H680.264V6.17475L680.264 6.18739L682.264 6.16211ZM702.742 6.16211H700.742V6.16497L702.742 6.16211ZM702.918 128.945H704.918V128.942L702.918 128.945ZM686.219 130L684.409 130.852L684.95 132H686.219V130ZM655.018 63.7305L656.827 62.8785L653.018 63.7711L655.018 63.7305ZM656.336 128.594H658.336V128.573L658.336 128.553L656.336 128.594ZM654.666 130V128H636.648V130V132H654.666V130ZM636.648 130V128C636.427 128 636.635 127.946 636.911 128.187C637.054 128.312 637.148 128.462 637.199 128.596C637.245 128.718 637.242 128.789 637.242 128.77H635.242H633.242C633.242 129.563 633.481 130.501 634.277 131.198C635.021 131.849 635.932 132 636.648 132V130ZM635.242 128.77L637.242 128.767L637.066 6.15924L635.066 6.16211L633.066 6.16498L633.242 128.772L635.242 128.77ZM635.066 6.16211H637.066C637.066 6.00165 637.105 6.24865 636.832 6.52164C636.559 6.79462 636.312 6.75586 636.473 6.75586V4.75586V2.75586C635.696 2.75586 634.745 2.95148 634.004 3.69321C633.262 4.43494 633.066 5.38507 633.066 6.16211H635.066ZM636.473 4.75586V6.75586H652.732V4.75586V2.75586H636.473V4.75586ZM652.732 4.75586L650.894 5.54398L681.304 76.4717L683.143 75.6836L684.981 74.8955L654.571 3.96774L652.732 4.75586ZM683.143 75.6836L685.142 75.6583L684.263 6.13683L682.264 6.16211L680.264 6.18739L681.143 75.7089L683.143 75.6836ZM682.264 6.16211H684.264C684.264 6.11027 684.271 6.15232 684.235 6.24912C684.195 6.35767 684.115 6.48953 683.988 6.60224C683.741 6.8217 683.572 6.75586 683.846 6.75586V4.75586V2.75586C683.064 2.75586 682.105 2.92439 681.33 3.6126C680.511 4.34071 680.264 5.32006 680.264 6.16211H682.264ZM683.846 4.75586V6.75586H701.688V4.75586V2.75586H683.846V4.75586ZM701.688 4.75586V6.75586C701.643 6.75586 701.51 6.74842 701.337 6.67137C701.152 6.58917 700.992 6.45883 700.879 6.30742C700.68 6.04301 700.742 5.88567 700.742 6.16211H702.742H704.742C704.742 5.50105 704.628 4.64059 704.078 3.90742C703.448 3.06606 702.527 2.75586 701.688 2.75586V4.75586ZM702.742 6.16211L700.742 6.16497L700.918 128.948L702.918 128.945L704.918 128.942L704.742 6.15925L702.742 6.16211ZM702.918 128.945H700.918C700.918 129.068 700.885 128.788 701.162 128.456C701.309 128.28 701.493 128.152 701.681 128.077C701.856 128.007 701.99 128 702.039 128V130V132C702.746 132 703.607 131.771 704.235 131.017C704.805 130.333 704.918 129.525 704.918 128.945H702.918ZM702.039 130V128H686.219V130V132H702.039V130ZM686.219 130L688.028 129.148L656.827 62.8785L655.018 63.7305L653.208 64.5824L684.409 130.852L686.219 130ZM655.018 63.7305L653.018 63.7711L654.336 128.634L656.336 128.594L658.336 128.553L657.017 63.6898L655.018 63.7305ZM656.336 128.594H654.336C654.336 128.634 654.329 128.58 654.372 128.473C654.419 128.353 654.506 128.223 654.63 128.119C654.747 128.02 654.842 127.99 654.856 127.987C654.865 127.984 654.81 128 654.666 128V130V132C655.455 132 656.42 131.841 657.207 131.178C658.06 130.46 658.336 129.47 658.336 128.594H656.336ZM735.877 26.4648H737.877V24.4648H735.877V26.4648ZM711.619 25.5859L709.619 25.5685L709.619 25.5772V25.5859H711.619ZM711.795 5.45898L713.795 5.47645L713.795 5.46772V5.45898H711.795ZM757.498 26.4648V24.4648H755.495L755.498 26.4683L757.498 26.4648ZM757.674 129.121H759.674V129.118L757.674 129.121ZM756.971 130V128H736.668V130V132H756.971V130ZM736.668 130V128C736.77 128 737.197 128.038 737.561 128.442C737.723 128.622 737.804 128.804 737.842 128.931C737.861 128.993 737.869 129.041 737.873 129.072C737.877 129.103 737.877 129.12 737.877 129.121H735.877H733.877C733.877 129.673 733.997 130.461 734.588 131.118C735.216 131.815 736.038 132 736.668 132V130ZM735.877 129.121H737.877V26.4648H735.877H733.877V129.121H735.877ZM735.877 26.4648V24.4648H712.498V26.4648V28.4648H735.877V26.4648ZM712.498 26.4648V24.4648C712.513 24.4648 712.892 24.47 713.253 24.8309C713.614 25.1918 713.619 25.5706 713.619 25.5859H711.619H709.619C709.619 26.1872 709.771 27.0055 710.425 27.6593C711.078 28.3132 711.897 28.4648 712.498 28.4648V26.4648ZM711.619 25.5859L713.619 25.6034L713.795 5.47645L711.795 5.45898L709.795 5.44152L709.619 25.5685L711.619 25.5859ZM711.795 5.45898H713.795C713.795 5.5329 713.775 5.95568 713.385 6.34586C712.995 6.73602 712.572 6.75586 712.498 6.75586V4.75586V2.75586C711.955 2.75586 711.181 2.89288 710.557 3.51743C709.932 4.14198 709.795 4.91632 709.795 5.45898H711.795ZM712.498 4.75586V6.75586H780.877V4.75586V2.75586H712.498V4.75586ZM780.877 4.75586V6.75586C781.016 6.75586 780.759 6.79183 780.426 6.54911C780.237 6.41215 780.072 6.21868 779.965 5.98468C779.863 5.76169 779.844 5.56957 779.844 5.45898H781.844H783.844C783.844 4.7131 783.553 3.87733 782.778 3.31417C782.122 2.83707 781.382 2.75586 780.877 2.75586V4.75586ZM781.844 5.45898H779.844V25.5859H781.844H783.844V5.45898H781.844ZM781.844 25.5859H779.844C779.844 25.6652 779.819 25.3546 780.106 24.9957C780.261 24.8025 780.462 24.6543 780.679 24.5638C780.884 24.4783 781.053 24.4648 781.141 24.4648V26.4648V28.4648C781.816 28.4648 782.64 28.2316 783.23 27.4945C783.751 26.8427 783.844 26.0926 783.844 25.5859H781.844ZM781.141 26.4648V24.4648H757.498V26.4648V28.4648H781.141V26.4648ZM757.498 26.4648L755.498 26.4683L755.674 129.125L757.674 129.121L759.674 129.118L759.498 26.4614L757.498 26.4648ZM757.674 129.121H755.674C755.674 129.2 755.649 128.89 755.936 128.531C756.091 128.338 756.292 128.189 756.509 128.099C756.714 128.013 756.883 128 756.971 128V130V132C757.646 132 758.47 131.767 759.06 131.03C759.581 130.378 759.674 129.628 759.674 129.121H757.674Z" fill="#C6753D" mask="url(#path-1-outside-1_274_100)"/>
</svg>
