<svg width="702" height="305" viewBox="0 0 702 305" fill="none" xmlns="http://www.w3.org/2000/svg">
<path d="M700.829 91H1V107.257H700.829V91Z" fill="#E99E5F" stroke="#EBA365" stroke-linecap="round" stroke-linejoin="round"/>
<path d="M685.065 107.589H17.5933L18.8378 304H685.065V107.589Z" fill="#7D6556" stroke="#715B49" stroke-linecap="round" stroke-linejoin="round"/>
<path d="M685.48 108.252H16.7637V123.846H210.492V272.813H18.423V277.458H684.65V273.145H396.339V123.846H685.48V108.252Z" fill="#766055"/>
<path d="M16.7637 108.252H685.48V123.846H396.339V273.145H684.65V277.458H18.423V272.813H210.492V123.846H16.7637V107.589" stroke="#715B49" stroke-linecap="round" stroke-linejoin="round"/>
<path d="M389.287 123.514H219.204V272.149H389.287V123.514Z" fill="#7C6555" stroke="#715B49" stroke-linecap="round" stroke-linejoin="round"/>
<path d="M630.456 44H611.879C610.153 45.1355 609.319 46.1129 608.225 48.7844C607.988 54.4391 607.675 57.4609 608.834 64.2635C611.634 68.5952 612.711 71.3804 618.883 73.2695V85.9341C615.509 87.2241 614.285 88.3181 613.402 91H629.238C626.956 87.5868 625.479 86.5545 622.538 85.9341V73.2695C627.258 73.0165 633.046 63.0943 632.666 62.1205C633.199 62.2088 633.938 55.1002 633.196 48.7844C632.6 46.7933 631.953 45.7564 630.456 44Z" fill="#FFE6C8" stroke="#BE8962" stroke-linecap="round" stroke-linejoin="round"/>
<path d="M630.934 57.0242H610.414C611.57 65.6432 613.724 68.8564 621.278 70.6145C627.019 68.575 628.894 65.2034 630.934 57.0242Z" fill="#D46B4C" stroke="#B6472C" stroke-linecap="round" stroke-linejoin="round"/>
<path d="M126.456 43H107.879C106.153 44.1355 105.319 45.1129 104.225 47.7844C103.988 53.4391 103.675 56.4609 104.834 63.2635C107.634 67.5952 108.711 70.3804 114.883 72.2695V84.9341C111.509 86.2241 110.285 87.3181 109.402 90H125.238C122.956 86.5868 121.479 85.5545 118.538 84.9341V72.2695C123.258 72.0165 129.046 62.0943 128.666 61.1205C129.199 61.2088 129.938 54.1002 129.196 47.7844C128.6 45.7933 127.953 44.7564 126.456 43Z" fill="#FFE6C8" stroke="#BE8962" stroke-linecap="round" stroke-linejoin="round"/>
<path d="M126.934 56.0242H106.414C107.57 64.6432 109.724 67.8564 117.278 69.6145C123.019 67.575 124.894 64.2034 126.934 56.0242Z" fill="#D46B4C" stroke="#B6472C" stroke-linecap="round" stroke-linejoin="round"/>
<path d="M566.218 68.541H584.679C585.353 68.541 585.555 69.0178 584.904 69.1955C583.789 69.4999 581.605 69.851 577.326 70.3942C577.249 70.4039 577.167 70.4048 577.091 70.3967C570.441 69.6925 567.004 69.2696 565.998 68.8728C565.7 68.7551 565.897 68.541 566.218 68.541Z" fill="#6D5C4A" stroke="#5D4238"/>
<path d="M578.57 68.0643C578.576 68.9217 578.578 69.4791 578.576 69.8046C578.574 70.0429 578.432 70.1754 578.194 70.1754H576.711C576.546 70.1754 576.379 70.0926 576.447 69.9418C576.545 69.7239 574.142 67.9142 573.907 67.8763C573.813 67.8612 573.72 67.8497 573.629 67.8431C573.599 67.841 573.57 67.8334 573.544 67.8206C567.378 64.8523 564.696 62.7201 563.981 58.0138C563.889 57.4115 564.394 56.8975 565.001 56.9502C569.828 57.37 572.06 58.4505 573.747 61.4557C573.922 61.7675 574.412 61.704 574.48 61.3529C574.487 61.319 574.489 61.2838 574.486 61.2495C574.219 58.2683 573.948 56.5442 572.783 53.6216C572.716 53.452 572.599 53.303 572.453 53.1936C564.268 47.0688 560.457 42.6474 556.531 34.0045C556.185 33.2433 556.886 32.4336 557.69 32.6642C563.546 34.3447 567.283 36.1935 572.563 45.2235C572.638 45.3522 572.685 45.5019 572.697 45.6506C573.045 49.9552 573.246 51.9231 573.537 52.7699C573.566 52.8531 573.623 52.9219 573.696 52.9717C573.965 53.1566 574.333 53.0063 574.378 52.6831C574.628 50.8684 574.571 48.3457 574.282 43.1747C574.27 42.9678 574.193 42.769 574.072 42.6006C572.381 40.2421 571.069 35.2722 570.415 32.346C569.77 29.4646 571.539 18.3664 574.076 16.2585C574.315 16.06 574.65 16.0883 574.914 16.2526C578.88 18.722 579.434 22.2049 580.136 28.4781C580.146 28.5645 580.144 28.6547 580.131 28.7407C579.285 34.3313 578.56 37.4561 575.956 42.4167C575.886 42.55 575.846 42.7019 575.84 42.8523C575.484 52.4464 575.553 56.7578 575.829 63.3911C575.84 63.6583 576.06 63.8705 576.327 63.8705C576.573 63.8705 576.783 63.691 576.819 63.4478C577.559 58.5257 577.668 54.5384 577.437 46.2463C577.435 46.1658 577.443 46.0823 577.459 46.0036C578.48 41.2544 578.619 38.7246 584.606 31.9615C584.653 31.9078 584.709 31.8569 584.767 31.8148C588.321 29.2344 590.575 28.1755 594.164 27.4305C594.768 27.3052 595.33 27.7707 595.315 28.3874C595.205 32.8976 593.985 35.6878 590.163 40.2257C590.13 40.265 590.093 40.3024 590.055 40.3361L578.882 50.052C578.679 50.2277 578.556 50.4789 578.539 50.7462C578.187 56.3533 577.883 60.1589 578 64.1556C578.025 64.9957 579.057 65.3438 579.606 64.7072C579.805 64.4754 579.879 64.1611 579.809 63.8632C579.27 61.5555 579.248 60.0619 579.888 57.4762C579.912 57.3813 579.951 57.2875 580.001 57.2038C584.547 49.6652 587.845 47.0652 594.939 47.4479C595.513 47.4789 595.934 48.0061 595.801 48.5659C594.77 52.9256 591.219 56.443 578.914 67.2992C578.697 67.4913 578.567 67.7741 578.57 68.0643Z" fill="#AC9E62" stroke="#8B7D42"/>
<path d="M585.038 68.8879C579.052 70.4939 574.562 70.3455 566.606 68.777C565.995 68.6567 565.418 69.1101 565.41 69.732C565.339 75.1261 565.706 82.2615 566.113 83.953C566.551 85.7724 570.179 89.6214 574.037 89.7909C577.761 89.9516 581.962 90.0244 582.868 89.7909C583.773 89.5573 585.576 85.6054 585.811 83.953C586.663 79.6481 586.644 76.5525 586.325 69.8148C586.295 69.1672 585.664 68.7199 585.038 68.8879Z" fill="#8D776C" stroke="#5D4238"/>
<path d="M543.019 62.7031C542.893 64.8754 543.443 66.7174 544.356 69.0756C544.504 69.458 544.873 69.7085 545.283 69.7085H547.137C547.526 69.7085 547.881 69.4842 548.037 69.129C548.918 67.1324 549.303 65.5356 549.358 62.7793C549.359 62.7291 549.356 62.6775 549.349 62.6277C548.971 59.8643 548.29 57.9397 546.612 55.5739C546.364 55.2254 545.906 55.0938 545.612 55.4035C544.36 56.7213 543.139 60.6559 543.019 62.7031Z" fill="#FEBC69" stroke="#F4B059"/>
<path d="M552.44 69.702C547.196 69.6702 543.55 69.6851 537 69.7054C536.448 69.7072 536 70.1446 536 70.6957V88.8567C536 89.3237 536.963 90.1627 537.811 90.4913C538.811 90.7778 543.45 92.2825 551.761 90.5101C551.819 90.4978 551.877 90.4802 551.931 90.4572C552.87 90.0593 553.159 89.6895 553.389 88.9988C553.42 88.905 553.434 88.8065 553.434 88.7077V70.7016C553.434 70.152 552.989 69.7054 552.44 69.702Z" fill="#FEEFD5" stroke="#FED3AC" stroke-opacity="0.9"/>
<path d="M252 91H229V52.6667C230.549 47.8954 232.122 45.8577 236.103 43.2576V22H244.559V43.2576C248.578 45.8393 250.114 47.9953 252 52.6667V91Z" fill="#745845" stroke="#533A27" stroke-linecap="round" stroke-linejoin="round"/>
<path d="M247.603 60.3333H230.353V79.8484H247.603V60.3333Z" fill="#DB9964" stroke="#462D1C" stroke-linecap="round" stroke-linejoin="round"/>
<path d="M390 91H368V51C369.482 46.0213 370.986 43.895 374.794 41.1818V19H382.882V41.1818C386.727 43.8758 388.196 46.1256 390 51V91Z" fill="#745845" stroke="#533A27" stroke-linecap="round" stroke-linejoin="round"/>
<path d="M385.794 59H369.294V79.3636H385.794V59Z" fill="#DB9964" stroke="#462D1C" stroke-linecap="round" stroke-linejoin="round"/>
<path d="M280.131 1H271.869V28.839C267.255 31.4087 265.424 33.4889 264 38.7542V91H288V37.2288C286.09 32.2241 283.934 30.7612 280.131 28.839V1Z" fill="#755A49" stroke="#432F19" stroke-linecap="round" stroke-linejoin="round"/>
<path d="M282.492 49.0508H264V81.8474H282.492V49.0508Z" fill="#FFE2C4" stroke="#432F19" stroke-linecap="round" stroke-linejoin="round"/>
</svg>
