<svg width="390" height="199" viewBox="0 0 390 199" fill="none" xmlns="http://www.w3.org/2000/svg">
<path d="M163.491 196.354C105.116 188.82 71.3892 184.467 11.9947 172.005C11.929 171.991 11.862 171.97 11.8004 171.943C2.42968 167.887 -1.58548 165.584 2.73597 161.582C2.8338 161.491 2.95608 161.42 3.08218 161.376C27.649 152.938 44.0349 150.519 77.3572 150.046C117.875 151.422 150.751 156.176 168.451 159.448C186.151 162.72 211.456 163.082 227.332 159.448C243.209 155.814 274.347 152.337 301.454 150.046C355.245 144.114 395.146 151.219 388.217 169.554C388.115 169.824 387.882 170.045 387.609 170.137C325.337 191.202 291.217 191.568 230.103 196.77C204.403 198.408 190.455 198.412 166.719 196.77L163.491 196.354Z" fill="#CC8D5B" stroke="#CC8A58"/>
<path d="M152.305 157.995C152.265 153.241 152.388 152.319 152.478 152.523C152.798 153.246 153.304 153.702 154.057 153.941C185.686 163.969 204.58 163.699 237.181 153.026C237.28 152.994 237.384 153.066 237.384 153.17C237.384 153.368 237.37 156.24 237.352 156.437C237.296 157.075 237.226 157.928 237.138 159.044C236.396 168.435 152.393 168.54 152.305 157.995Z" fill="#6E533C" stroke="#765335"/>
<path d="M195.091 143.538C206.881 143.538 217.539 144.62 225.236 146.363C229.088 147.235 232.172 148.267 234.28 149.395C235.334 149.959 236.121 150.535 236.638 151.107C237.153 151.676 237.378 152.214 237.378 152.723C237.378 153.232 237.153 153.771 236.638 154.34C236.121 154.912 235.334 155.488 234.28 156.052C232.172 157.18 229.088 158.212 225.236 159.084C217.539 160.826 206.881 161.908 195.091 161.908C183.302 161.908 172.644 160.826 164.947 159.084C161.094 158.212 158.011 157.18 155.903 156.052C154.848 155.488 154.062 154.912 153.544 154.34C153.03 153.771 152.804 153.232 152.804 152.723C152.804 152.214 153.03 151.676 153.544 151.107C154.062 150.535 154.848 149.959 155.903 149.395C158.011 148.267 161.094 147.235 164.947 146.363C172.644 144.62 183.302 143.538 195.091 143.538Z" fill="#81644D" stroke="#765335"/>
<path d="M189.65 148.471V54.4561C193.418 54.7754 195.994 54.7608 201.275 54.4561V148.471C196.841 150.769 194.288 150.452 189.65 148.471Z" fill="#81644D" stroke="#775639"/>
<path d="M189.65 44.7711L88 32.2515L189.65 22.3303C193.808 21.8956 196.099 21.8843 200.038 22.3303L296 32.4877L200.038 44.7711C196.299 45.5549 194.044 45.6036 189.65 44.7711Z" fill="#DB9053" stroke="#C4753C"/>
<path d="M88 41.4641V32.4878L189.156 44.7712C193.232 45.4369 195.592 45.6235 200.285 44.7712L296 32.4878V41.4641L200.285 54.22C196.279 55.0193 193.767 55.0171 189.156 54.22L88 41.4641Z" fill="#D07E44" stroke="#C4753C"/>
<path d="M51.9166 158.279L54.4445 115.618C54.4798 115.022 55.0252 114.59 55.6131 114.691L57.3856 114.998L60 115.359C60.5427 115.434 60.924 115.932 60.8551 116.476L55.5353 158.455C55.4938 158.782 55.296 159.075 54.9909 159.2C54.1007 159.568 53.4273 159.55 52.5262 159.236C52.1294 159.097 51.8918 158.699 51.9166 158.279Z" fill="#7C5E45"/>
<path d="M70.3032 182.711L68.1988 117.479C68.1811 116.931 68.6086 116.47 69.1569 116.448L73.1224 116.283C73.6877 116.26 74.1598 116.709 74.1638 117.275L74.6311 182.696C74.6339 183.082 74.4161 183.442 74.0576 183.585C72.8707 184.059 72.0353 184.023 70.8909 183.573C70.5386 183.434 70.3154 183.089 70.3032 182.711Z" fill="#7C5E45"/>
<path d="M114.304 166.062L104.986 110.015C104.896 109.472 105.26 108.959 105.802 108.865L109.542 108.219C110.104 108.122 110.633 108.513 110.704 109.078L117.895 165.847C117.956 166.329 117.663 166.796 117.187 166.894C116.422 167.051 115.805 167.029 115.012 166.842C114.639 166.755 114.366 166.44 114.304 166.062Z" fill="#7C5E45"/>
<path d="M9.30336 172.637L18.6612 108.826C18.7438 108.262 19.2798 107.882 19.8392 107.989L24.2952 108.845C24.8393 108.949 25.1947 109.476 25.0878 110.02L12.7247 172.92C12.6407 173.348 12.2895 173.675 11.8554 173.71C10.7537 173.799 10.1169 173.732 9.63158 173.451C9.35476 173.291 9.25695 172.954 9.30336 172.637Z" fill="#7C5E45"/>
<path d="M51.9166 158.279L54.4445 115.618C54.4798 115.022 55.0252 114.59 55.6131 114.691L57.3856 114.998L60 115.359C60.5427 115.434 60.924 115.932 60.8551 116.476L55.5353 158.455C55.4938 158.782 55.296 159.075 54.9909 159.2C54.1007 159.568 53.4273 159.55 52.5262 159.236C52.1294 159.097 51.8918 158.699 51.9166 158.279Z" stroke="#4C2A11"/>
<path d="M70.3032 182.711L68.1988 117.479C68.1811 116.931 68.6086 116.47 69.1569 116.448L73.1224 116.283C73.6877 116.26 74.1598 116.709 74.1638 117.275L74.6311 182.696C74.6339 183.082 74.4161 183.442 74.0576 183.585C72.8707 184.059 72.0353 184.023 70.8909 183.573C70.5386 183.434 70.3154 183.089 70.3032 182.711Z" stroke="#4C2A11"/>
<path d="M114.304 166.062L104.986 110.015C104.896 109.472 105.26 108.959 105.802 108.865L109.542 108.219C110.104 108.122 110.633 108.513 110.704 109.078L117.895 165.847C117.956 166.329 117.663 166.796 117.187 166.894C116.422 167.051 115.805 167.029 115.012 166.842C114.639 166.755 114.366 166.44 114.304 166.062Z" stroke="#4C2A11"/>
<path d="M9.30336 172.637L18.6612 108.826C18.7438 108.262 19.2798 107.882 19.8392 107.989L24.2952 108.845C24.8393 108.949 25.1947 109.476 25.0878 110.02L12.7247 172.92C12.6407 173.348 12.2895 173.675 11.8554 173.71C10.7537 173.799 10.1169 173.732 9.63158 173.451C9.35476 173.291 9.25695 172.954 9.30336 172.637Z" stroke="#4C2A11"/>
<path d="M78.4686 115.743L110.884 108.08C110.995 108.054 111.102 108.01 111.195 107.944C114.647 105.513 114.677 98.1323 111.388 95.8279C111.179 95.6815 110.914 95.6514 110.667 95.7137L78.4686 103.816C72.8408 105.043 69.9868 104.778 65.052 103.816L24.3121 95.7568C23.8894 95.6732 23.5678 95.3283 23.514 94.9008L14.5 23.3107C12.3722 14.7029 4.80015 15.4805 3.03408 23.6456C3.01131 23.7509 3.00662 23.8621 3.01959 23.9691L11.8646 96.8592C12.6278 103.435 13.6705 106.19 18.2418 108.004C18.3017 108.028 18.3652 108.046 18.4287 108.058L65.052 116.489C70.1662 117.039 73.087 116.94 78.4686 115.743Z" fill="#CF733C" stroke="#BE632B"/>
<path d="M9.83006 17.1815C23.931 15.0376 32.1884 14.5878 46.4405 15.3379C46.6971 15.3514 46.9426 15.4634 47.1247 15.6446L47.135 15.6548C47.7064 16.2234 48.4265 16.9398 49.24 18.838C50.1983 21.0742 58.9179 59.6527 61.2191 85.9261C82.8604 89.0532 105.668 89.4871 110.409 94.6584C110.823 95.1093 110.522 95.763 109.932 95.9255L73.4329 105.988C73.2787 106.03 73.1166 106.035 72.9602 106.002L23.8442 95.6166C19.7183 65.4248 16.273 48.3313 9.00987 18.4143C8.87166 17.8451 9.2509 17.2695 9.83006 17.1815Z" fill="#EA8446"/>
<path d="M61.2191 85.9261C58.9179 59.6527 50.1983 21.0742 49.24 18.838C48.4216 16.9284 47.6978 16.2149 47.1247 15.6446C46.9426 15.4634 46.6971 15.3514 46.4405 15.3379C32.1884 14.5878 23.931 15.0376 9.83006 17.1815C9.2509 17.2695 8.87166 17.8451 9.00987 18.4143C16.273 48.3313 19.7183 65.4248 23.8442 95.6166M61.2191 85.9261C82.8604 89.0532 105.668 89.4871 110.409 94.6584C110.823 95.1093 110.522 95.763 109.932 95.9255L73.4329 105.988C73.2787 106.03 73.1166 106.035 72.9602 106.002L23.8442 95.6166M61.2191 85.9261C34.0312 90.7399 26.9405 92.7734 23.8442 95.6166" stroke="#C46731"/>
<path d="M336.531 161.117L333.871 118.195C333.834 117.604 333.294 117.174 332.71 117.27L330.777 117.59L327.988 117.959C327.44 118.031 327.055 118.534 327.127 119.081L332.723 161.299C332.767 161.631 332.972 161.925 333.283 162.049C334.232 162.426 334.946 162.407 335.907 162.084C336.312 161.947 336.557 161.544 336.531 161.117Z" fill="#7C5E45"/>
<path d="M317.186 185.697L319.4 120.083C319.418 119.533 318.99 119.072 318.44 119.05L314.163 118.88C313.599 118.858 313.128 119.307 313.124 119.872L312.632 185.68C312.629 186.073 312.854 186.437 313.221 186.577C314.483 187.062 315.366 187.026 316.583 186.564C316.943 186.428 317.173 186.081 317.186 185.697Z" fill="#7C5E45"/>
<path d="M270.889 168.958L280.692 112.585C280.787 112.037 280.418 111.517 279.87 111.427L275.834 110.76C275.276 110.668 274.753 111.055 274.679 111.615L267.113 168.73C267.048 169.218 267.347 169.691 267.83 169.788C268.656 169.953 269.315 169.93 270.171 169.735C270.546 169.65 270.823 169.337 270.889 168.958Z" fill="#7C5E45"/>
<path d="M381.366 175.556L371.519 111.359C371.433 110.802 370.904 110.425 370.35 110.527L365.561 111.407C365.01 111.508 364.649 112.042 364.762 112.592L377.77 175.863C377.857 176.289 378.209 176.612 378.642 176.646C379.826 176.74 380.506 176.675 381.022 176.389C381.311 176.229 381.416 175.882 381.366 175.556Z" fill="#7C5E45"/>
<path d="M336.531 161.117L333.871 118.195C333.834 117.604 333.294 117.174 332.71 117.27L330.777 117.59L327.988 117.959C327.44 118.031 327.055 118.534 327.127 119.081L332.723 161.299C332.767 161.631 332.972 161.925 333.283 162.049C334.232 162.426 334.946 162.407 335.907 162.084C336.312 161.947 336.557 161.544 336.531 161.117Z" stroke="#4C2A11"/>
<path d="M317.186 185.697L319.4 120.083C319.418 119.533 318.99 119.072 318.44 119.05L314.163 118.88C313.599 118.858 313.128 119.307 313.124 119.872L312.632 185.68C312.629 186.073 312.854 186.437 313.221 186.577C314.483 187.062 315.366 187.026 316.583 186.564C316.943 186.428 317.173 186.081 317.186 185.697Z" stroke="#4C2A11"/>
<path d="M270.889 168.958L280.692 112.585C280.787 112.037 280.418 111.517 279.87 111.427L275.834 110.76C275.276 110.668 274.753 111.055 274.679 111.615L267.113 168.73C267.048 169.218 267.347 169.691 267.83 169.788C268.656 169.953 269.315 169.93 270.171 169.735C270.546 169.65 270.823 169.337 270.889 168.958Z" stroke="#4C2A11"/>
<path d="M381.366 175.556L371.519 111.359C371.433 110.802 370.904 110.425 370.35 110.527L365.561 111.407C365.01 111.508 364.649 112.042 364.762 112.592L377.77 175.863C377.857 176.289 378.209 176.612 378.642 176.646C379.826 176.74 380.506 176.675 381.022 176.389C381.311 176.229 381.416 175.882 381.366 175.556Z" stroke="#4C2A11"/>
<path d="M308.594 118.34L274.474 110.628C274.366 110.604 274.262 110.562 274.17 110.501C270.519 108.055 270.493 100.588 273.984 98.2884C274.188 98.1537 274.442 98.1257 274.68 98.1829L308.594 106.342C314.515 107.576 317.518 107.309 322.711 106.342L365.61 98.2285C366.034 98.1483 366.359 97.8047 366.415 97.3765L375.9 25.3599C378.138 16.7033 386.102 17.483 387.963 25.6908C387.988 25.8006 387.993 25.9168 387.979 26.0285L378.673 99.3438C377.869 105.962 376.772 108.732 371.955 110.558C371.897 110.58 371.836 110.597 371.775 110.607L322.711 119.089C317.329 119.644 314.256 119.543 308.594 118.34Z" fill="#936364" stroke="#834E55"/>
<path d="M380.85 19.1996C365.981 17.037 357.289 16.5841 342.261 17.3415C342.011 17.3541 341.771 17.4601 341.59 17.6324L341.563 17.6587C340.961 18.2306 340.204 18.9512 339.348 20.8607C338.339 23.1101 329.165 61.9171 326.744 88.346C303.983 91.4902 279.997 91.9276 274.994 97.123C274.561 97.5719 274.864 98.2399 275.467 98.3987L313.914 108.532C314.062 108.571 314.217 108.576 314.367 108.545L366.068 98.0939C370.409 67.7265 374.034 50.5322 381.674 20.4439C381.82 19.8695 381.436 19.2849 380.85 19.1996Z" fill="#A26B6D"/>
<path d="M326.744 88.346C329.165 61.9171 338.339 23.1101 339.348 20.8607C340.217 18.9219 340.985 18.2088 341.59 17.6324C341.771 17.4601 342.011 17.3541 342.261 17.3415C357.289 16.5841 365.981 17.037 380.85 19.1996C381.436 19.2849 381.82 19.8695 381.674 20.4439C374.034 50.5322 370.409 67.7265 366.068 98.0939M326.744 88.346C303.983 91.4902 279.997 91.9276 274.994 97.123C274.561 97.5719 274.864 98.2399 275.467 98.3987L313.914 108.532C314.062 108.571 314.217 108.576 314.367 108.545L366.068 98.0939M326.744 88.346C355.35 93.1883 362.811 95.2338 366.068 98.0939" stroke="#834E55"/>
<path d="M210.62 21.1033C206.16 20.6227 203.03 20.3828 198.136 20.0571C197.54 20.0174 197.084 20.5644 197.58 20.8972C198.388 21.4398 200.275 21.9277 204.5 22.6245C204.554 22.6335 204.613 22.6382 204.668 22.638C208.196 22.626 210.038 22.4784 210.991 22.0826C211.586 21.8358 211.26 21.1723 210.62 21.1033Z" fill="#756452" stroke="#5D4238"/>
<path d="M202.083 17.5948C202.465 18.5237 202.609 19.2416 202.584 20.2599C202.57 20.8053 202.955 21.2899 203.497 21.3511L203.884 21.3948C204.477 21.4617 204.813 21.0039 204.883 20.4112C204.897 20.287 204.931 20.1478 204.996 19.9831C205.196 19.4754 205.759 19.1153 206.052 18.9563C206.17 18.8921 206.304 18.8649 206.438 18.8627C208.846 18.8227 210.187 18.4189 212.364 16.9492C212.403 16.9227 212.442 16.8924 212.477 16.8604C214.06 15.4087 214.826 14.2698 215.604 12.3533C215.827 11.8046 215.501 11.1876 214.919 11.0787C211.802 10.4957 210.007 11.2352 207.38 13.5331C207.26 13.6382 207.166 13.773 207.11 13.9224C206.533 15.4563 206.355 16.3156 206.261 17.5023C206.242 17.7497 206.14 17.9877 205.949 18.1472C205.726 18.3344 205.521 18.4595 205.285 18.5299C204.817 18.6692 204.412 18.2292 204.395 17.7413C204.347 16.419 204.524 15.8649 204.996 15.3717C206.764 13.1033 207.941 12.055 209.092 9.02476C209.112 8.97142 209.128 8.91452 209.139 8.85843C209.672 6.00043 209.502 4.12065 208.659 1.19577C208.482 0.580497 207.769 0.302781 207.229 0.647778C204.834 2.17984 203.959 3.38877 203.25 5.46686C203.222 5.54783 203.205 5.63455 203.2 5.71995C202.938 9.84751 203.2 11.5976 203.976 14.0716C204.013 14.1917 204.029 14.3182 204.02 14.4437L203.788 17.8638C203.774 18.0735 203.55 18.2006 203.363 18.1054C203.267 18.0569 203.206 17.9591 203.202 17.8521C203.094 14.6479 202.833 12.8695 202.142 9.92821C202.12 9.83185 202.082 9.73703 202.031 9.65204C200.493 7.0742 199.049 6.32126 196.63 5.80523C196.037 5.67892 195.481 6.12824 195.477 6.73382C195.461 9.24132 195.826 10.7602 197.156 12.8563C198.789 14.8831 199.837 15.8648 201.73 17.1648C201.886 17.2718 202.012 17.4198 202.083 17.5948Z" fill="#AD9B59" stroke="#87763F"/>
<path d="M210.665 21.2811C205.634 21.8829 200.179 20.7888 197.935 20.2534C197.365 20.1173 196.794 20.4771 196.735 21.0603C196.546 22.9162 196.39 26.9884 197.796 31.8407C197.827 31.9461 197.875 32.047 197.939 32.1362C199.006 33.6238 199.657 34.216 200.747 34.7386C200.828 34.7772 200.915 34.8036 201.003 34.8181C205.401 35.5428 207.364 35.4733 209.553 34.4339C209.632 34.3965 209.706 34.3481 209.77 34.2885C210.645 33.4724 210.932 32.4197 211.323 30.3241C211.751 27.5407 211.791 25.4548 211.849 22.3229C211.861 21.6916 211.292 21.206 210.665 21.2811Z" fill="#84695F" stroke="#5D4238"/>
<path d="M180.739 15.7909C180.661 17.0708 181.688 19.533 182.374 21.1737C182.501 21.478 182.769 21.7009 183.092 21.7693L185.114 22.1972C185.562 22.2922 186.016 22.0671 186.122 21.6208C186.544 19.8446 186.555 16.4997 186.583 14.8897C186.584 14.8373 186.581 14.787 186.573 14.7352C186.311 13.1424 184.818 11.3767 183.623 9.9009C183.361 9.57827 182.938 9.49105 182.707 9.83661C181.848 11.1261 180.81 14.6123 180.739 15.7909Z" fill="#AEA25D" stroke="#8B764E"/>
<path d="M188.598 21.9334C185.719 21.9178 183.576 21.9254 179.998 21.9364C179.447 21.9381 179 22.3831 179 22.9342V33.3983C179 33.6778 179.585 34.1799 180.1 34.3765C180.706 34.5476 183.514 35.4444 188.542 34.3948C188.599 34.3829 188.656 34.3658 188.709 34.343C189.228 34.1212 189.409 33.9108 189.543 33.5419C189.577 33.4477 189.591 33.3474 189.591 33.2471V22.9327C189.591 22.3831 189.147 21.9364 188.598 21.9334Z" fill="#FEEFD5" stroke="#FCFFF6"/>
</svg>
