<svg width="390" height="209" viewBox="0 0 390 209" fill="none" xmlns="http://www.w3.org/2000/svg">
<path d="M163.491 206.354C105.116 198.82 71.3892 194.467 11.9947 182.005C11.929 181.991 11.862 181.97 11.8004 181.943C2.42968 177.887 -1.58548 175.584 2.73597 171.582C2.8338 171.491 2.95608 171.42 3.08218 171.376C27.649 162.938 44.0349 160.519 77.3572 160.046C117.875 161.422 150.751 166.176 168.451 169.448C186.151 172.72 211.456 173.082 227.332 169.448C243.209 165.814 274.347 162.337 301.454 160.046C355.245 154.114 395.146 161.219 388.217 179.554C388.115 179.824 387.882 180.045 387.609 180.137C325.337 201.202 291.217 201.568 230.103 206.77C204.403 208.408 190.455 208.412 166.719 206.77L163.491 206.354Z" fill="#CC8D5B" stroke="#CC8A58"/>
<path d="M156.305 162.995C156.265 158.241 156.388 157.319 156.478 157.523C156.798 158.246 157.304 158.702 158.057 158.941C189.686 168.969 208.58 168.699 241.181 158.026C241.28 157.994 241.384 158.066 241.384 158.17C241.384 158.368 241.37 161.24 241.352 161.437C241.296 162.075 241.226 162.928 241.138 164.044C240.396 173.435 156.393 173.54 156.305 162.995Z" fill="#6E533C" stroke="#765335"/>
<path d="M199.091 148.538C210.881 148.538 221.539 149.62 229.236 151.363C233.088 152.235 236.172 153.267 238.28 154.395C239.334 154.959 240.121 155.535 240.638 156.107C241.153 156.676 241.378 157.214 241.378 157.723C241.378 158.232 241.153 158.771 240.638 159.34C240.121 159.912 239.334 160.488 238.28 161.052C236.172 162.18 233.088 163.212 229.236 164.084C221.539 165.826 210.881 166.908 199.091 166.908C187.302 166.908 176.644 165.826 168.947 164.084C165.094 163.212 162.011 162.18 159.903 161.052C158.848 160.488 158.062 159.912 157.544 159.34C157.03 158.771 156.804 158.232 156.804 157.723C156.804 157.214 157.03 156.676 157.544 156.107C158.062 155.535 158.848 154.959 159.903 154.395C162.011 153.267 165.094 152.235 168.947 151.363C176.644 149.62 187.302 148.538 199.091 148.538Z" fill="#81644D" stroke="#765335"/>
<path d="M193.65 153.471V59.4561C197.418 59.7754 199.994 59.7608 205.275 59.4561V153.471C200.841 155.769 198.288 155.452 193.65 153.471Z" fill="#81644D" stroke="#775639"/>
<path d="M193.65 49.7711L92 37.2515L193.65 27.3303C197.808 26.8956 200.099 26.8843 204.038 27.3303L300 37.4877L204.038 49.7711C200.299 50.5549 198.044 50.6036 193.65 49.7711Z" fill="#DB9053" stroke="#C4753C"/>
<path d="M92 46.4641V37.4878L193.156 49.7712C197.232 50.4369 199.592 50.6235 204.285 49.7712L300 37.4878V46.4641L204.285 59.22C200.279 60.0193 197.767 60.0171 193.156 59.22L92 46.4641Z" fill="#D07E44" stroke="#C4753C"/>
<path d="M66.9166 164.279L69.4445 121.618C69.4798 121.022 70.0252 120.59 70.6131 120.691L72.3856 120.998L75 121.359C75.5427 121.434 75.924 121.932 75.8551 122.476L70.5353 164.455C70.4938 164.782 70.296 165.075 69.9909 165.2C69.1007 165.568 68.4273 165.55 67.5262 165.236C67.1294 165.097 66.8918 164.699 66.9166 164.279Z" fill="#7C5E45"/>
<path d="M85.3032 188.711L83.1988 123.479C83.1811 122.931 83.6086 122.47 84.1569 122.448L88.1224 122.283C88.6877 122.26 89.1598 122.709 89.1638 123.275L89.6311 188.696C89.6339 189.082 89.4161 189.442 89.0576 189.585C87.8707 190.059 87.0353 190.023 85.8909 189.573C85.5386 189.434 85.3154 189.089 85.3032 188.711Z" fill="#7C5E45"/>
<path d="M129.304 172.062L119.986 116.015C119.896 115.472 120.26 114.959 120.802 114.865L124.542 114.219C125.104 114.122 125.633 114.513 125.704 115.078L132.895 171.847C132.956 172.329 132.663 172.796 132.187 172.894C131.422 173.051 130.805 173.029 130.012 172.842C129.639 172.755 129.366 172.44 129.304 172.062Z" fill="#7C5E45"/>
<path d="M24.3034 178.637L33.6612 114.826C33.7438 114.262 34.2798 113.882 34.8392 113.989L39.2952 114.845C39.8393 114.949 40.1947 115.476 40.0878 116.02L27.7247 178.92C27.6407 179.348 27.2895 179.675 26.8554 179.71C25.7537 179.799 25.1169 179.732 24.6316 179.451C24.3548 179.291 24.2569 178.954 24.3034 178.637Z" fill="#7C5E45"/>
<path d="M66.9166 164.279L69.4445 121.618C69.4798 121.022 70.0252 120.59 70.6131 120.691L72.3856 120.998L75 121.359C75.5427 121.434 75.924 121.932 75.8551 122.476L70.5353 164.455C70.4938 164.782 70.296 165.075 69.9909 165.2C69.1007 165.568 68.4273 165.55 67.5262 165.236C67.1294 165.097 66.8918 164.699 66.9166 164.279Z" stroke="#4C2A11"/>
<path d="M85.3032 188.711L83.1988 123.479C83.1811 122.931 83.6086 122.47 84.1569 122.448L88.1224 122.283C88.6877 122.26 89.1598 122.709 89.1638 123.275L89.6311 188.696C89.6339 189.082 89.4161 189.442 89.0576 189.585C87.8707 190.059 87.0353 190.023 85.8909 189.573C85.5386 189.434 85.3154 189.089 85.3032 188.711Z" stroke="#4C2A11"/>
<path d="M129.304 172.062L119.986 116.015C119.896 115.472 120.26 114.959 120.802 114.865L124.542 114.219C125.104 114.122 125.633 114.513 125.704 115.078L132.895 171.847C132.956 172.329 132.663 172.796 132.187 172.894C131.422 173.051 130.805 173.029 130.012 172.842C129.639 172.755 129.366 172.44 129.304 172.062Z" stroke="#4C2A11"/>
<path d="M24.3034 178.637L33.6612 114.826C33.7438 114.262 34.2798 113.882 34.8392 113.989L39.2952 114.845C39.8393 114.949 40.1947 115.476 40.0878 116.02L27.7247 178.92C27.6407 179.348 27.2895 179.675 26.8554 179.71C25.7537 179.799 25.1169 179.732 24.6316 179.451C24.3548 179.291 24.2569 178.954 24.3034 178.637Z" stroke="#4C2A11"/>
<path d="M93.4686 121.743L125.884 114.08C125.995 114.054 126.102 114.01 126.195 113.944C129.647 111.513 129.677 104.132 126.388 101.828C126.179 101.682 125.914 101.651 125.667 101.714L93.4686 109.816C87.8408 111.043 84.9868 110.778 80.052 109.816L39.3121 101.757C38.8894 101.673 38.5678 101.328 38.514 100.901L29.5 29.3107C27.3722 20.7029 19.8002 21.4805 18.0341 29.6456C18.0113 29.7509 18.0066 29.8621 18.0196 29.9691L26.8646 102.859C27.6278 109.435 28.6705 112.19 33.2418 114.004C33.3017 114.028 33.3652 114.046 33.4287 114.058L80.052 122.489C85.1662 123.039 88.087 122.94 93.4686 121.743Z" fill="#CF733C" stroke="#BE632B"/>
<path d="M24.8301 23.1815C38.931 21.0376 47.1884 20.5878 61.4405 21.3379C61.6971 21.3514 61.9426 21.4634 62.1247 21.6446L62.135 21.6548C62.7064 22.2234 63.4265 22.9398 64.24 24.838C65.1983 27.0742 73.9179 65.6527 76.2191 91.9261C97.8604 95.0532 120.668 95.4871 125.409 100.658C125.823 101.109 125.522 101.763 124.932 101.926L88.4329 111.988C88.2787 112.03 88.1166 112.035 87.9602 112.002L38.8442 101.617C34.7183 71.4248 31.273 54.3313 24.0099 24.4143C23.8717 23.8451 24.2509 23.2695 24.8301 23.1815Z" fill="#EA8446"/>
<path d="M76.2191 91.9261C73.9179 65.6527 65.1983 27.0742 64.24 24.838C63.4216 22.9284 62.6978 22.2149 62.1247 21.6446C61.9426 21.4634 61.6971 21.3514 61.4405 21.3379C47.1884 20.5878 38.931 21.0376 24.8301 23.1815C24.2509 23.2695 23.8717 23.8451 24.0099 24.4143C31.273 54.3313 34.7183 71.4248 38.8442 101.617M76.2191 91.9261C97.8604 95.0532 120.668 95.4871 125.409 100.658C125.823 101.109 125.522 101.763 124.932 101.926L88.4329 111.988C88.2787 112.03 88.1166 112.035 87.9602 112.002L38.8442 101.617M76.2191 91.9261C49.0312 96.7399 41.9405 98.7734 38.8442 101.617" stroke="#C46731"/>
<path d="M325.959 167.807L323.315 122.512C323.28 121.915 322.733 121.482 322.144 121.585L320.25 121.917L317.475 122.307C316.934 122.383 316.554 122.879 316.622 123.421L322.185 167.98C322.225 168.306 322.421 168.598 322.724 168.726C323.676 169.131 324.389 169.11 325.355 168.762C325.748 168.62 325.983 168.224 325.959 167.807Z" fill="#7C5E45"/>
<path d="M306.769 193.679L308.968 124.486C308.986 123.938 308.559 123.478 308.011 123.455L303.784 123.277C303.219 123.253 302.746 123.703 302.742 124.269L302.254 193.665C302.251 194.049 302.467 194.407 302.822 194.553C304.087 195.072 304.967 195.033 306.187 194.54C306.536 194.399 306.757 194.056 306.769 193.679Z" fill="#7C5E45"/>
<path d="M260.851 176.042L270.59 116.577C270.678 116.036 270.315 115.525 269.776 115.43L265.785 114.73C265.222 114.631 264.69 115.024 264.62 115.591L257.103 175.831C257.043 176.311 257.333 176.775 257.806 176.877C258.633 177.055 259.291 177.031 260.146 176.825C260.518 176.735 260.789 176.42 260.851 176.042Z" fill="#7C5E45"/>
<path d="M370.428 183.005L360.65 115.325C360.568 114.759 360.03 114.377 359.469 114.486L354.73 115.41C354.188 115.516 353.835 116.04 353.939 116.582L366.86 183.31C366.943 183.738 367.294 184.067 367.728 184.103C368.917 184.202 369.592 184.129 370.107 183.815C370.377 183.65 370.473 183.318 370.428 183.005Z" fill="#7C5E45"/>
<path d="M325.959 167.807L323.315 122.512C323.28 121.915 322.733 121.482 322.144 121.585L320.25 121.917L317.475 122.307C316.934 122.383 316.554 122.879 316.622 123.421L322.185 167.98C322.225 168.306 322.421 168.598 322.724 168.726C323.676 169.131 324.389 169.11 325.355 168.762C325.748 168.62 325.983 168.224 325.959 167.807Z" stroke="#4C2A11"/>
<path d="M306.769 193.679L308.968 124.486C308.986 123.938 308.559 123.478 308.011 123.455L303.784 123.277C303.219 123.253 302.746 123.703 302.742 124.269L302.254 193.665C302.251 194.049 302.467 194.407 302.822 194.553C304.087 195.072 304.967 195.033 306.187 194.54C306.536 194.399 306.757 194.056 306.769 193.679Z" stroke="#4C2A11"/>
<path d="M260.851 176.042L270.59 116.577C270.678 116.036 270.315 115.525 269.776 115.43L265.785 114.73C265.222 114.631 264.69 115.024 264.62 115.591L257.103 175.831C257.043 176.311 257.333 176.775 257.806 176.877C258.633 177.055 259.291 177.031 260.146 176.825C260.518 176.735 260.789 176.42 260.851 176.042Z" stroke="#4C2A11"/>
<path d="M370.428 183.005L360.65 115.325C360.568 114.759 360.03 114.377 359.469 114.486L354.73 115.41C354.188 115.516 353.835 116.04 353.939 116.582L366.86 183.31C366.943 183.738 367.294 184.067 367.728 184.103C368.917 184.202 369.592 184.129 370.107 183.815C370.377 183.65 370.473 183.318 370.428 183.005Z" stroke="#4C2A11"/>
<path d="M298.25 122.707L264.42 114.589C264.308 114.562 264.2 114.517 264.106 114.45C260.495 111.876 260.466 104.038 263.91 101.605C264.121 101.456 264.39 101.425 264.64 101.489L298.25 110.074C304.123 111.374 307.101 111.092 312.25 110.074L354.793 101.531C355.215 101.446 355.536 101.101 355.589 100.674L365 24.8026C367.221 15.6812 375.129 16.5097 376.967 25.1692C376.989 25.273 376.994 25.3827 376.981 25.4881L367.75 102.705C366.953 109.672 365.865 112.589 361.093 114.511C361.032 114.536 360.968 114.554 360.903 114.566L312.25 123.497C306.914 124.08 303.866 123.975 298.25 122.707Z" fill="#8A6C6D" stroke="#795B5C"/>
<path d="M369.926 18.3188C355.176 16.0403 346.556 15.5622 331.658 16.3586C331.399 16.3724 331.152 16.4866 330.969 16.6709L330.947 16.6936C330.35 17.2958 329.599 18.0546 328.75 20.0652C327.75 22.4337 318.651 63.2961 316.25 91.1248C293.591 94.4483 269.706 94.8996 264.871 100.43C264.471 100.888 264.773 101.535 265.359 101.699L303.512 112.376C303.669 112.42 303.833 112.425 303.992 112.391L355.25 101.389C359.558 69.387 363.156 51.2785 370.746 19.5484C370.881 18.9809 370.503 18.4079 369.926 18.3188Z" fill="#947175"/>
<path d="M316.25 91.1248C318.651 63.2961 327.75 22.4337 328.75 20.0652C329.61 18.0292 330.369 17.2769 330.969 16.6709C331.152 16.4866 331.399 16.3724 331.658 16.3586C346.556 15.5622 355.176 16.0403 369.926 18.3188C370.503 18.4079 370.881 18.9809 370.746 19.5484C363.156 51.2785 359.558 69.387 355.25 101.389M316.25 91.1248C293.591 94.4483 269.706 94.8996 264.871 100.43C264.471 100.888 264.773 101.535 265.359 101.699L303.512 112.376C303.669 112.42 303.833 112.425 303.992 112.391L355.25 101.389M316.25 91.1248C344.62 96.2236 352.019 98.3774 355.25 101.389" stroke="#7A5C5E"/>
<path d="M206.618 20.5588C206.532 21.9093 206.886 23.0631 207.484 24.5027C207.637 24.871 207.999 25.1074 208.398 25.1074H209.375C209.751 25.1074 210.098 24.8982 210.257 24.5575C210.819 23.3478 211.07 22.3308 211.11 20.6418C211.111 20.587 211.108 20.5311 211.099 20.4769C210.839 18.7577 210.378 17.5376 209.277 16.0771C209.034 15.7557 208.603 15.642 208.337 15.9438C207.492 16.9006 206.699 19.289 206.618 20.5588Z" fill="#FEBC69" stroke="#F4B059"/>
<path d="M213.006 25.1017C209.518 25.0835 206.983 25.0922 202.64 25.1047C202.088 25.1062 201.642 25.548 201.642 26.0992V37.5402C201.642 37.8435 202.325 38.3882 202.926 38.6016C203.634 38.7874 206.916 39.7624 212.795 38.6176C212.849 38.6071 212.903 38.5921 212.954 38.5721C213.574 38.3283 213.787 38.099 213.945 37.6929C213.984 37.5929 214 37.4855 214 37.3782V26.1012C214 25.5514 213.555 25.1046 213.006 25.1017Z" fill="#FEEFD5" stroke="#FED3AC" stroke-opacity="0.9"/>
<path d="M192.836 23.9136C187.486 23.3751 183.796 23.1132 177.916 22.7501C177.321 22.7133 176.861 23.2622 177.349 23.6045C178.231 24.222 180.413 24.7633 185.547 25.5502C185.598 25.558 185.653 25.5621 185.704 25.5619C189.977 25.549 192.135 25.3782 193.214 24.9136C193.818 24.6541 193.49 23.9794 192.836 23.9136Z" fill="#756452" stroke="#5D4238"/>
<path d="M182.699 20.0669C183.161 21.107 183.329 21.9005 183.291 23.0509C183.273 23.6019 183.663 24.0927 184.211 24.1502L185.004 24.2334C185.594 24.2954 185.941 23.8441 185.966 23.2511C185.973 23.09 186.012 22.9081 186.108 22.6815C186.35 22.1087 187.051 21.709 187.379 21.5478C187.492 21.4922 187.618 21.4683 187.744 21.4665C190.609 21.4269 192.179 20.9852 194.775 19.3459C196.681 17.7318 197.583 16.4843 198.509 14.3486C198.751 13.7901 198.417 13.1523 197.818 13.0436C194.092 12.3673 191.982 13.1637 188.869 15.6998C188.743 15.803 188.643 15.938 188.581 16.0893C187.9 17.7702 187.692 18.705 187.583 20.0044C187.561 20.2625 187.448 20.5087 187.246 20.6696C186.933 20.9172 186.653 21.0684 186.309 21.137C185.83 21.2323 185.431 20.8085 185.409 20.3207C185.344 18.8342 185.547 18.222 186.108 17.6781C188.171 15.2162 189.545 14.079 190.888 10.7892C190.911 10.733 190.929 10.6728 190.941 10.6134C191.575 7.45556 191.358 5.39859 190.328 2.12515C190.143 1.53475 189.461 1.26595 188.926 1.57751C185.968 3.30085 184.918 4.62155 184.069 6.93445C184.037 7.02029 184.018 7.11278 184.012 7.20401C183.706 11.6858 184.012 13.5846 184.918 16.2711C184.962 16.3989 184.979 16.5345 184.97 16.669L184.7 20.3628C184.682 20.6033 184.429 20.7513 184.211 20.6483C184.095 20.5934 184.019 20.4769 184.014 20.3484C183.887 16.8831 183.582 14.9547 182.776 11.7667C182.751 11.6657 182.709 11.5669 182.652 11.4792C180.814 8.6112 179.092 7.82178 176.145 7.25968C175.556 7.14735 175.008 7.59301 175.002 8.19253C174.971 10.9812 175.386 12.6432 176.96 14.9489C178.874 17.1586 180.099 18.2234 182.329 19.6441C182.491 19.7468 182.621 19.8922 182.699 20.0669Z" fill="#AD9B59" stroke="#87763F"/>
<path d="M192.937 24.065C186.845 24.791 180.162 23.4947 177.659 22.9275C177.1 22.8009 176.548 23.1534 176.483 23.7228C176.256 25.6738 176.03 30.1722 177.709 35.5542C177.743 35.6635 177.797 35.7677 177.867 35.8584C179.124 37.4899 179.886 38.1315 181.176 38.7025C181.253 38.7364 181.336 38.7598 181.419 38.7725C186.586 39.566 188.879 39.4898 191.447 38.3506C191.525 38.3163 191.598 38.2716 191.662 38.2164C192.696 37.329 193.032 36.1868 193.49 33.9012C193.992 30.8671 194.037 28.5968 194.106 25.172L194.107 25.1026C194.12 24.4756 193.559 23.9908 192.937 24.065Z" fill="#84695F" stroke="#5D4238"/>
</svg>
