<svg width="416" height="233" viewBox="0 0 416 233" fill="none" xmlns="http://www.w3.org/2000/svg">
<path d="M175.688 230.647C112.041 222.074 76.3433 217.365 12.5877 203.405C12.5198 203.39 12.4508 203.367 12.3874 203.339C2.50188 198.874 -1.73084 196.339 2.83808 191.932C2.93596 191.838 3.05944 191.762 3.18745 191.716C29.088 182.432 46.3607 179.771 81.4899 179.251C124.201 180.764 158.856 185.994 177.514 189.593C196.172 193.192 222.847 193.59 239.582 189.593C256.318 185.596 289.141 181.771 317.716 179.251C374.456 172.721 416.535 180.552 409.16 200.75C409.061 201.021 408.831 201.246 408.558 201.342C342.9 224.522 306.932 224.925 242.503 230.647C215.412 232.449 200.709 232.453 175.688 230.647Z" fill="#CC8D5B" stroke="#CC8A58"/>
<path d="M158.598 191.272C158.543 185.284 158.75 184.873 158.855 185.487C158.987 186.266 159.604 186.534 160.363 186.752C198.743 197.788 221.562 197.527 261.027 185.853C261.145 185.818 261.266 185.905 261.266 186.028C261.266 186.266 261.253 189.318 261.23 189.554C261.162 190.252 261.076 191.189 260.969 192.416C260.074 202.655 158.704 202.77 158.598 191.272Z" fill="#6E533C" stroke="#765335"/>
<path d="M210.231 175.465C224.466 175.465 237.338 176.646 246.64 178.548C251.295 179.5 255.03 180.628 257.588 181.865C258.869 182.484 259.828 183.118 260.46 183.75C261.092 184.382 261.364 184.974 261.364 185.525C261.364 186.076 261.092 186.668 260.46 187.299C259.828 187.932 258.868 188.566 257.588 189.185C255.03 190.422 251.295 191.549 246.64 192.501C237.338 194.404 224.466 195.584 210.231 195.584C195.996 195.584 183.123 194.404 173.821 192.501C169.166 191.55 165.432 190.422 162.874 189.185C161.593 188.566 160.633 187.932 160 187.299C159.369 186.668 159.098 186.076 159.098 185.525C159.098 184.974 159.369 184.382 160 183.75C160.633 183.118 161.593 182.484 162.874 181.865C165.432 180.628 169.166 179.5 173.821 178.548C183.123 176.646 195.996 175.465 210.231 175.465Z" fill="#81644D" stroke="#765335"/>
<path d="M203.665 180.889V78.3862C208.211 78.7344 211.319 78.7185 217.692 78.3862V180.889C212.342 183.394 209.261 183.048 203.665 180.889Z" fill="#81644D" stroke="#775639"/>
<path d="M203.665 67.8268L81 54.177L203.665 43.3601C208.681 42.8862 211.447 42.8738 216.2 43.3601L332 54.4345L216.2 67.8268C211.687 68.6814 208.966 68.7344 203.665 67.8268Z" fill="#DB9053" stroke="#C4753C"/>
<path d="M81 64.2213V54.4346L203.068 67.8269C207.987 68.5527 210.835 68.7562 216.498 67.8269L332 54.4346V64.2213L216.498 78.1287C211.663 79.0002 208.633 78.9977 203.068 78.1287L81 64.2213Z" fill="#D07E44" stroke="#C4753C"/>
<path d="M59.4149 182.972L62.4046 130.831C62.4389 130.232 62.9886 129.798 63.5788 129.904L65.8441 130.308L69.0924 130.772C69.6315 130.849 70.0098 131.344 69.9435 131.884L63.6576 183.143C63.6178 183.468 63.424 183.758 63.1256 183.891C61.9921 184.396 61.1667 184.365 60.0122 183.927C59.6241 183.779 59.3911 183.387 59.4149 182.972Z" fill="#7C5E45"/>
<path d="M81.0126 212.591L78.5312 133.105C78.5141 132.557 78.9406 132.098 79.4879 132.075L84.4959 131.86C85.0618 131.836 85.5348 132.286 85.5387 132.852L86.0898 212.578C86.0924 212.959 85.8797 213.314 85.5294 213.464C84.0365 214.106 83.0255 214.057 81.588 213.452C81.2428 213.306 81.0242 212.966 81.0126 212.591Z" fill="#7C5E45"/>
<path d="M132.682 192.389L121.688 124.044C121.601 123.506 121.962 122.997 122.499 122.901L127.242 122.054C127.806 121.953 128.34 122.347 128.41 122.917L136.899 192.182C136.958 192.66 136.67 193.119 136.202 193.229C135.194 193.465 134.421 193.439 133.382 193.174C133.012 193.08 132.743 192.766 132.682 192.389Z" fill="#7C5E45"/>
<path d="M9.38266 200.351L20.4145 122.613C20.4952 122.045 21.0364 121.661 21.5993 121.773L27.1836 122.881C27.7223 122.988 28.0739 123.509 27.9713 124.049L13.3874 200.725C13.3059 201.154 12.9553 201.483 12.5207 201.522C11.0771 201.652 10.2918 201.561 9.69276 201.16C9.43323 200.986 9.33876 200.661 9.38266 200.351Z" fill="#7C5E45"/>
<path d="M59.4149 182.972L62.4046 130.831C62.4389 130.232 62.9886 129.798 63.5788 129.904L65.8441 130.308L69.0924 130.772C69.6315 130.849 70.0098 131.344 69.9435 131.884L63.6576 183.143C63.6178 183.468 63.424 183.758 63.1256 183.891C61.9921 184.396 61.1667 184.365 60.0122 183.927C59.6241 183.779 59.3911 183.387 59.4149 182.972Z" stroke="#4C2A11"/>
<path d="M81.0126 212.591L78.5312 133.105C78.5141 132.557 78.9406 132.098 79.4879 132.075L84.4959 131.86C85.0618 131.836 85.5348 132.286 85.5387 132.852L86.0898 212.578C86.0924 212.959 85.8797 213.314 85.5294 213.464C84.0365 214.106 83.0255 214.057 81.588 213.452C81.2428 213.306 81.0242 212.966 81.0126 212.591Z" stroke="#4C2A11"/>
<path d="M132.682 192.389L121.688 124.044C121.601 123.506 121.962 122.997 122.499 122.901L127.242 122.054C127.806 121.953 128.34 122.347 128.41 122.917L136.899 192.182C136.958 192.66 136.67 193.119 136.202 193.229C135.194 193.465 134.421 193.439 133.382 193.174C133.012 193.08 132.743 192.766 132.682 192.389Z" stroke="#4C2A11"/>
<path d="M9.38266 200.351L20.4145 122.613C20.4952 122.045 21.0364 121.661 21.5993 121.773L27.1836 122.881C27.7223 122.988 28.0739 123.509 27.9713 124.049L13.3874 200.725C13.3059 201.154 12.9553 201.483 12.5207 201.522C11.0771 201.652 10.2918 201.561 9.69276 201.16C9.43323 200.986 9.33876 200.661 9.38266 200.351Z" stroke="#4C2A11"/>
<path d="M90.5936 131.213L128.672 121.91C128.785 121.883 128.894 121.836 128.989 121.768C133.081 118.823 133.107 109.778 129.189 107.018C128.974 106.867 128.701 106.834 128.447 106.9L90.5936 116.744C83.987 118.233 80.6367 117.91 74.8436 116.744L26.8927 106.941C26.4715 106.855 26.1524 106.509 26.1004 106.082L15.5 19.0817C12.9988 8.62579 4.08972 9.58533 2.03183 19.5273C2.01069 19.6294 2.00619 19.7373 2.01836 19.8409L12.4062 108.304C13.303 116.288 14.5284 119.629 19.9062 121.83C19.9676 121.855 20.0328 121.875 20.0979 121.887L74.8436 132.117C80.8473 132.785 84.2761 132.664 90.5936 131.213Z" fill="#936364" stroke="#834E55"/>
<path d="M9.81759 11.6779C26.5135 9.04682 36.2208 8.49496 53.0568 9.41321C53.3184 9.42748 53.5679 9.54454 53.7504 9.73253C54.4306 10.4331 55.2979 11.2838 56.2816 13.6559C57.4066 16.3686 67.6426 63.1687 70.3441 95.0413C96.014 98.8744 123.082 99.3717 128.256 105.833C128.634 106.304 128.33 106.944 127.749 107.109L84.6484 119.388C84.4897 119.433 84.3222 119.438 84.1609 119.403L26.4692 106.797C21.6151 70.091 17.5636 49.3442 8.99909 12.9041C8.86619 12.3387 9.24381 11.7683 9.81759 11.6779Z" fill="#A26B6D"/>
<path d="M70.3441 95.0413C67.6426 63.1687 57.4066 16.3686 56.2816 13.6559C55.2979 11.2838 54.4306 10.4331 53.7504 9.73253C53.5679 9.54454 53.3184 9.42748 53.0568 9.41321C36.2208 8.49496 26.5135 9.04682 9.81759 11.6779C9.24381 11.7683 8.86619 12.3387 8.99909 12.9041C17.5636 49.3442 21.6151 70.091 26.4692 106.797M70.3441 95.0413C96.014 98.8744 123.082 99.3717 128.256 105.833C128.634 106.304 128.33 106.944 127.749 107.109L84.6484 119.388C84.4897 119.433 84.3222 119.438 84.1609 119.403L26.4692 106.797M70.3441 95.0413C38.4278 100.881 30.104 103.348 26.4692 106.797" stroke="#834E55"/>
<path d="M357.585 185.972L354.595 133.831C354.561 133.232 354.011 132.798 353.421 132.904L351.156 133.308L347.908 133.772C347.369 133.849 346.99 134.344 347.056 134.884L353.342 186.143C353.382 186.468 353.576 186.758 353.874 186.891C355.008 187.396 355.833 187.365 356.988 186.927C357.376 186.779 357.609 186.387 357.585 185.972Z" fill="#7C5E45"/>
<path d="M335.987 215.591L338.469 136.105C338.486 135.557 338.059 135.098 337.512 135.075L332.504 134.86C331.938 134.836 331.465 135.286 331.461 135.852L330.91 215.578C330.908 215.959 331.12 216.314 331.471 216.464C332.963 217.106 333.974 217.057 335.412 216.452C335.757 216.306 335.976 215.966 335.987 215.591Z" fill="#7C5E45"/>
<path d="M284.318 195.389L295.312 127.044C295.399 126.506 295.038 125.997 294.501 125.901L289.758 125.054C289.194 124.953 288.66 125.347 288.59 125.917L280.101 195.182C280.042 195.66 280.33 196.119 280.798 196.229C281.806 196.465 282.579 196.439 283.618 196.174C283.988 196.08 284.257 195.766 284.318 195.389Z" fill="#7C5E45"/>
<path d="M407.617 203.351L396.585 125.613C396.505 125.045 395.964 124.661 395.401 124.773L389.816 125.881C389.278 125.988 388.926 126.509 389.029 127.049L403.613 203.725C403.694 204.154 404.045 204.483 404.479 204.522C405.923 204.652 406.708 204.561 407.307 204.16C407.567 203.986 407.661 203.661 407.617 203.351Z" fill="#7C5E45"/>
<path d="M357.585 185.972L354.595 133.831C354.561 133.232 354.011 132.798 353.421 132.904L351.156 133.308L347.908 133.772C347.369 133.849 346.99 134.344 347.056 134.884L353.342 186.143C353.382 186.468 353.576 186.758 353.874 186.891C355.008 187.396 355.833 187.365 356.988 186.927C357.376 186.779 357.609 186.387 357.585 185.972Z" stroke="#4C2A11"/>
<path d="M335.987 215.591L338.469 136.105C338.486 135.557 338.059 135.098 337.512 135.075L332.504 134.86C331.938 134.836 331.465 135.286 331.461 135.852L330.91 215.578C330.908 215.959 331.12 216.314 331.471 216.464C332.963 217.106 333.974 217.057 335.412 216.452C335.757 216.306 335.976 215.966 335.987 215.591Z" stroke="#4C2A11"/>
<path d="M284.318 195.389L295.312 127.044C295.399 126.506 295.038 125.997 294.501 125.901L289.758 125.054C289.194 124.953 288.66 125.347 288.59 125.917L280.101 195.182C280.042 195.66 280.33 196.119 280.798 196.229C281.806 196.465 282.579 196.439 283.618 196.174C283.988 196.08 284.257 195.766 284.318 195.389Z" stroke="#4C2A11"/>
<path d="M407.617 203.351L396.585 125.613C396.505 125.045 395.964 124.661 395.401 124.773L389.816 125.881C389.278 125.988 388.926 126.509 389.029 127.049L403.613 203.725C403.694 204.154 404.045 204.483 404.479 204.522C405.923 204.652 406.708 204.561 407.307 204.16C407.567 203.986 407.661 203.661 407.617 203.351Z" stroke="#4C2A11"/>
<path d="M326.406 134.213L288.328 124.91C288.215 124.883 288.106 124.836 288.011 124.768C283.919 121.823 283.893 112.778 287.811 110.018C288.026 109.867 288.299 109.834 288.553 109.9L326.406 119.744C333.013 121.233 336.363 120.91 342.156 119.744L390.107 109.941C390.529 109.855 390.848 109.509 390.9 109.082L401.5 22.0817C404.001 11.6258 412.91 12.5853 414.968 22.5273C414.989 22.6294 414.994 22.7373 414.982 22.8409L404.594 111.304C403.697 119.288 402.472 122.629 397.094 124.83C397.032 124.855 396.967 124.875 396.902 124.887L342.156 135.117C336.153 135.785 332.724 135.664 326.406 134.213Z" fill="#936364" stroke="#834E55"/>
<path d="M407.182 14.6779C390.487 12.0468 380.779 11.495 363.943 12.4132C363.682 12.4275 363.432 12.5445 363.25 12.7325C362.569 13.4331 361.702 14.2838 360.718 16.6559C359.593 19.3686 349.357 66.1687 346.656 98.0413C320.986 101.874 293.918 102.372 288.744 108.833C288.366 109.304 288.67 109.944 289.251 110.109L332.352 122.388C332.51 122.433 332.678 122.438 332.839 122.403L390.531 109.797C395.385 73.091 399.436 52.3442 408.001 15.9041C408.134 15.3387 407.756 14.7683 407.182 14.6779Z" fill="#A26B6D"/>
<path d="M346.656 98.0413C349.357 66.1687 359.593 19.3686 360.718 16.6559C361.702 14.2838 362.569 13.4331 363.25 12.7325C363.432 12.5445 363.682 12.4275 363.943 12.4132C380.779 11.495 390.487 12.0468 407.182 14.6779C407.756 14.7683 408.134 15.3387 408.001 15.9041C399.436 52.3442 395.385 73.091 390.531 109.797M346.656 98.0413C320.986 101.874 293.918 102.372 288.744 108.833C288.366 109.304 288.67 109.944 289.251 110.109L332.352 122.388C332.51 122.433 332.678 122.438 332.839 122.403L390.531 109.797M346.656 98.0413C378.572 103.881 386.896 106.348 390.531 109.797" stroke="#834E55"/>
<path d="M211.285 39.5969H225.004C225.684 39.5969 225.839 40.012 225.175 40.1582C224.243 40.3635 222.604 40.6049 219.722 40.9556C219.648 40.9645 219.57 40.9653 219.496 40.9579C214.626 40.4638 212.008 40.1584 211.118 39.8778C210.819 39.7834 210.971 39.5969 211.285 39.5969Z" fill="#6D5C4A" stroke="#5D4238"/>
<path d="M220.654 39.3809C220.659 39.9368 220.66 40.3054 220.658 40.5269C220.657 40.7013 220.553 40.7976 220.379 40.7976H219.227C219.102 40.7976 218.976 40.7337 219.028 40.6204C219.102 40.4587 217.301 39.1463 217.125 39.1166C217.037 39.1015 216.948 39.0902 216.862 39.0842C216.841 39.0827 216.819 39.0773 216.799 39.0681C212.209 36.952 210.135 35.4143 209.516 32.1657C209.401 31.5669 209.909 31.05 210.516 31.106C214.037 31.4311 215.696 32.2409 216.959 34.4003C217.095 34.6331 217.462 34.5841 217.516 34.3197C217.521 34.2927 217.523 34.2647 217.52 34.2373C217.319 32.0733 217.113 30.8108 216.244 28.7072C216.174 28.5368 216.053 28.3885 215.903 28.281C209.83 23.9219 206.907 20.7288 203.987 14.723C203.62 13.9691 204.312 13.1461 205.119 13.3763C209.326 14.5777 212.126 16.0653 216.011 22.4106C216.091 22.5422 216.142 22.6954 216.155 22.8491C216.418 25.9551 216.57 27.3853 216.791 28.0059C216.814 28.0707 216.86 28.1237 216.918 28.1615C217.125 28.2983 217.405 28.1826 217.44 27.9364C217.628 26.6152 217.586 24.7815 217.37 21.0567C217.357 20.8435 217.275 20.6412 217.15 20.468C215.879 18.7077 214.893 15.1278 214.398 13.0079C213.91 10.9193 215.225 2.95419 217.13 1.25519C217.353 1.05619 217.679 1.08098 217.934 1.23679C220.891 3.04245 221.319 5.58625 221.85 10.126C221.861 10.2162 221.859 10.3099 221.845 10.3996C221.202 14.459 220.646 16.7486 218.681 20.3464C218.607 20.4835 218.563 20.6397 218.557 20.7957C218.287 27.7869 218.34 30.95 218.55 35.7976C218.559 36.0031 218.728 36.166 218.934 36.166C219.123 36.166 219.283 36.0292 219.313 35.843C219.877 32.2404 219.961 29.3157 219.786 23.2569C219.783 23.173 219.792 23.0862 219.81 23.0043C220.584 19.5436 220.707 17.6812 225.265 12.7453C225.314 12.6928 225.37 12.6435 225.429 12.6028C228.055 10.7785 229.757 9.99359 232.354 9.45016C232.955 9.32447 233.514 9.78948 233.488 10.4026C233.354 13.5358 232.391 15.5593 229.559 18.7816C229.526 18.8202 229.488 18.8568 229.449 18.8896L220.98 25.9417C220.77 26.1172 220.64 26.372 220.622 26.6456C220.355 30.6943 220.128 33.4623 220.216 36.3661C220.235 37 221.009 37.2687 221.433 36.7973C221.595 36.6174 221.654 36.3681 221.597 36.1328C221.193 34.4658 221.177 33.374 221.654 31.5105C221.679 31.4129 221.721 31.3176 221.774 31.2324C225.194 25.8096 227.7 23.8824 232.954 24.0901C233.533 24.113 233.956 24.6472 233.796 25.2041C232.917 28.2715 230.099 30.9253 221.015 38.6027C220.787 38.795 220.652 39.0831 220.654 39.3809Z" fill="#AC9E62" stroke="#8B7D42"/>
<path d="M225.341 39.9209C220.95 41.0105 217.559 40.9029 211.739 39.8195C211.131 39.7064 210.561 40.1594 210.556 40.7775C210.519 44.6992 210.794 49.7078 211.098 50.9187C211.434 52.2552 214.218 55.0827 217.177 55.2072C220.033 55.3253 223.256 55.3787 223.95 55.2072C224.645 55.0357 226.028 52.1326 226.208 50.9187C226.847 47.8254 226.847 45.582 226.618 40.8532C226.587 40.2113 225.965 39.7662 225.341 39.9209Z" fill="#8D776C" stroke="#5D4238"/>
<path d="M193.384 35.3083C193.29 36.8565 193.685 38.1762 194.347 39.8353C194.497 40.211 194.864 40.4546 195.268 40.4546H196.407C196.789 40.4546 197.14 40.2377 197.297 39.8891C197.925 38.4919 198.203 37.3337 198.246 35.3878C198.247 35.3354 198.244 35.2818 198.236 35.2298C197.953 33.2613 197.448 31.8714 196.232 30.1969C195.988 29.8612 195.544 29.7426 195.271 30.0555C194.348 31.1163 193.473 33.8575 193.384 35.3083Z" fill="#FEBC69" stroke="#F4B059"/>
<path d="M200.379 40.4485C196.54 40.4272 193.783 40.4373 188.998 40.4516C188.447 40.4533 188 40.8954 188 41.4465V54.521C188 54.8641 188.739 55.4803 189.389 55.7218C190.156 55.932 193.708 57.0355 200.072 55.7391C200.128 55.7278 200.184 55.7115 200.236 55.69C200.923 55.4085 201.151 55.1445 201.323 54.6682C201.358 54.5714 201.373 54.4686 201.373 54.3656V41.448C201.373 40.8983 200.928 40.4516 200.379 40.4485Z" fill="#FEEFD5" stroke="#FED3AC" stroke-opacity="0.9"/>
</svg>
