<svg width="444" height="235" viewBox="0 0 444 235" fill="none" xmlns="http://www.w3.org/2000/svg">
<path d="M183.917 232.189C118.918 223.902 81.3668 219.114 15.2293 205.403C15.1642 205.389 15.0977 205.369 15.0366 205.342C4.58275 200.873 0.109016 198.337 4.94991 193.925C5.04787 193.835 5.17 193.764 5.29552 193.722C32.6609 184.433 50.9048 181.771 88.0162 181.251C133.129 182.764 169.733 187.994 189.44 191.593C209.147 195.192 237.322 195.59 254.999 191.593C272.676 187.596 307.345 183.771 337.526 181.251C397.461 174.72 441.908 182.553 434.111 202.754C434.008 203.023 433.774 203.243 433.501 203.334C364.135 226.522 326.144 226.924 258.084 232.647C229.469 234.449 213.939 234.453 187.512 232.647L183.917 232.189Z" fill="#CC8D5B" stroke="#CC8A58"/>
<path d="M172.598 179.272C172.543 173.284 172.75 172.873 172.855 173.487C172.987 174.266 173.604 174.534 174.363 174.752C212.743 185.788 235.562 185.527 275.027 173.853C275.145 173.818 275.266 173.905 275.266 174.028C275.266 174.266 275.253 177.318 275.23 177.554C275.162 178.252 275.076 179.189 274.969 180.416C274.074 190.655 172.704 190.77 172.598 179.272Z" fill="#6E533C" stroke="#765335"/>
<path d="M224.231 163.465C238.466 163.465 251.338 164.646 260.64 166.548C265.295 167.5 269.03 168.628 271.588 169.865C272.869 170.484 273.828 171.118 274.46 171.75C275.092 172.382 275.364 172.974 275.364 173.525C275.364 174.076 275.092 174.668 274.46 175.299C273.828 175.932 272.868 176.566 271.588 177.185C269.03 178.422 265.295 179.549 260.64 180.501C251.338 182.404 238.466 183.584 224.231 183.584C209.996 183.584 197.123 182.404 187.821 180.501C183.166 179.55 179.432 178.422 176.874 177.185C175.593 176.566 174.633 175.932 174 175.299C173.369 174.668 173.098 174.076 173.098 173.525C173.098 172.974 173.369 172.382 174 171.75C174.633 171.118 175.593 170.484 176.874 169.865C179.432 168.628 183.166 167.5 187.821 166.548C197.123 164.646 209.996 163.465 224.231 163.465Z" fill="#81644D" stroke="#765335"/>
<path d="M217.665 168.889V66.3862C222.211 66.7344 225.319 66.7185 231.692 66.3862V168.889C226.342 171.394 223.261 171.048 217.665 168.889Z" fill="#81644D" stroke="#775639"/>
<path d="M217.665 55.8268L95 42.177L217.665 31.3601C222.681 30.8862 225.447 30.8738 230.2 31.3601L346 42.4345L230.2 55.8268C225.687 56.6814 222.966 56.7344 217.665 55.8268Z" fill="#DB9053" stroke="#C4753C"/>
<path d="M95 52.2213V42.4346L217.068 55.8269C221.987 56.5527 224.835 56.7562 230.498 55.8269L346 42.4346V52.2213L230.498 66.1287C225.663 67.0002 222.633 66.9977 217.068 66.1287L95 52.2213Z" fill="#D07E44" stroke="#C4753C"/>
<path d="M58.8407 181.409L61.851 130.058C61.8859 129.461 62.4328 129.029 63.0214 129.131L65.3166 129.532L68.5901 129.99C69.1316 130.066 69.5119 130.562 69.4439 131.105L63.1153 181.583C63.0744 181.909 62.8773 182.2 62.5757 182.331C61.4362 182.828 60.6056 182.797 59.4454 182.367C59.0529 182.222 58.8162 181.826 58.8407 181.409Z" fill="#7C5E45"/>
<path d="M80.5969 210.596L78.0981 132.304C78.0807 131.756 78.5078 131.296 79.0557 131.273L84.1153 131.061C84.6808 131.037 85.1532 131.487 85.1572 132.053L85.7121 210.582C85.7148 210.967 85.4984 211.324 85.1439 211.473C83.6431 212.103 82.6254 212.054 81.18 211.46C80.831 211.316 80.609 210.974 80.5969 210.596Z" fill="#7C5E45"/>
<path d="M132.648 190.694L121.577 123.381C121.488 122.84 121.852 122.328 122.392 122.234L127.183 121.397C127.745 121.298 128.276 121.691 128.347 122.257L136.896 190.481C136.956 190.962 136.665 191.425 136.193 191.533C135.178 191.765 134.4 191.738 133.353 191.478C132.982 191.385 132.71 191.072 132.648 190.694Z" fill="#7C5E45"/>
<path d="M8.43917 198.534L19.5494 121.957C19.6314 121.392 20.1691 121.01 20.7296 121.119L26.368 122.213C26.9103 122.319 27.2645 122.844 27.1591 123.386L12.473 198.909C12.3899 199.337 12.0386 199.665 11.6045 199.703C10.1527 199.831 9.36076 199.744 8.75738 199.352C8.49115 199.179 8.3936 198.848 8.43917 198.534Z" fill="#7C5E45"/>
<path d="M58.8407 181.409L61.851 130.058C61.8859 129.461 62.4328 129.029 63.0214 129.131L65.3166 129.532L68.5901 129.99C69.1316 130.066 69.5119 130.562 69.4439 131.105L63.1153 181.583C63.0744 181.909 62.8773 182.2 62.5757 182.331C61.4362 182.828 60.6056 182.797 59.4454 182.367C59.0529 182.222 58.8162 181.826 58.8407 181.409Z" stroke="#4C2A11"/>
<path d="M80.5969 210.596L78.0981 132.304C78.0807 131.756 78.5078 131.296 79.0557 131.273L84.1153 131.061C84.6808 131.037 85.1532 131.487 85.1572 132.053L85.7121 210.582C85.7148 210.967 85.4984 211.324 85.1439 211.473C83.6431 212.103 82.6254 212.054 81.18 211.46C80.831 211.316 80.609 210.974 80.5969 210.596Z" stroke="#4C2A11"/>
<path d="M132.648 190.694L121.577 123.381C121.488 122.84 121.852 122.328 122.392 122.234L127.183 121.397C127.745 121.298 128.276 121.691 128.347 122.257L136.896 190.481C136.956 190.962 136.665 191.425 136.193 191.533C135.178 191.765 134.4 191.738 133.353 191.478C132.982 191.385 132.71 191.072 132.648 190.694Z" stroke="#4C2A11"/>
<path d="M8.43917 198.534L19.5494 121.957C19.6314 121.392 20.1691 121.01 20.7296 121.119L26.368 122.213C26.9103 122.319 27.2645 122.844 27.1591 123.386L12.473 198.909C12.3899 199.337 12.0386 199.665 11.6045 199.703C10.1527 199.831 9.36076 199.744 8.75738 199.352C8.49115 199.179 8.3936 198.848 8.43917 198.534Z" stroke="#4C2A11"/>
<path d="M90.2498 130.424L128.614 121.257C128.726 121.23 128.833 121.185 128.927 121.119C133.054 118.217 133.078 109.292 129.123 106.578C128.911 106.432 128.644 106.401 128.394 106.464L90.2498 116.167C83.5944 117.634 80.2192 117.316 74.3832 116.167L26.0737 106.507C25.6515 106.423 25.3307 106.077 25.2775 105.65L14.6 19.9343C12.0808 9.6334 3.10863 10.5766 1.03325 20.3678C1.01115 20.472 1.00647 20.5823 1.01918 20.6881L11.4833 107.851C12.3869 115.719 13.6215 119.01 19.041 121.18C19.1014 121.204 19.1655 121.222 19.2295 121.234L74.3832 131.315C80.4313 131.973 83.8855 131.854 90.2498 130.424Z" fill="#CF733C" stroke="#BE632B"/>
<path d="M8.87698 12.6384C25.6984 10.0457 35.4781 9.50219 52.4435 10.4076C52.7018 10.4214 52.9486 10.5354 53.1307 10.719C53.8164 11.4098 54.6912 12.2472 55.6835 14.5877C56.8169 17.2608 67.1287 63.3757 69.8502 94.7817C95.6836 98.5548 122.923 99.0477 128.175 105.395C128.564 105.865 128.258 106.512 127.671 106.675L84.2537 118.774C84.0981 118.817 83.9343 118.822 83.7763 118.788L25.6503 106.365C20.7613 70.2044 16.6804 49.7623 8.05628 13.87C7.91979 13.302 8.2996 12.7274 8.87698 12.6384Z" fill="#EA8446"/>
<path d="M69.8502 94.7817C67.1287 63.3757 56.8169 17.2608 55.6835 14.5877C54.6912 12.2472 53.8164 11.4098 53.1307 10.719C52.9486 10.5354 52.7018 10.4214 52.4435 10.4076C35.4781 9.50219 25.6984 10.0457 8.87698 12.6384C8.2996 12.7274 7.91979 13.302 8.05628 13.87C16.6804 49.7623 20.7613 70.2044 25.6503 106.365M69.8502 94.7817C95.6836 98.5548 122.923 99.0477 128.175 105.395C128.564 105.865 128.258 106.512 127.671 106.675L84.2537 118.774C84.0981 118.817 83.9343 118.822 83.7763 118.788L25.6503 106.365M69.8502 94.7817C37.6974 100.536 29.3119 102.967 25.6503 106.365" stroke="#C46731"/>
<path d="M212.402 33.8159H222.465C223.133 33.8159 223.28 34.2085 222.628 34.3507C221.888 34.5119 220.689 34.7025 218.745 34.9658C218.663 34.9769 218.577 34.9779 218.495 34.9686C215 34.5743 213.03 34.3216 212.25 34.0944C211.932 34.0017 212.07 33.8159 212.402 33.8159Z" fill="#6D5C4A" stroke="#5D4238"/>
<path d="M219.42 33.6709C219.423 34.1197 219.424 34.4203 219.423 34.6038C219.422 34.7529 219.333 34.8368 219.184 34.8368H218.329C218.23 34.8368 218.131 34.7887 218.171 34.6977C218.229 34.5638 216.77 33.4123 216.626 33.3918C216.591 33.3868 216.556 33.3829 216.522 33.3802C216.504 33.3788 216.486 33.3738 216.47 33.3656C213.033 31.6041 211.441 30.3139 210.931 27.6678C210.816 27.0699 211.328 26.5552 211.933 26.6262C214.436 26.92 215.653 27.6192 216.585 29.3812C216.685 29.571 216.982 29.5341 217.021 29.3229C217.024 29.3041 217.025 29.2846 217.023 29.2655C216.87 27.434 216.714 26.3623 216.06 24.5931C215.998 24.4247 215.887 24.2756 215.747 24.1635C211.216 20.5433 208.984 17.8626 206.798 12.9546C206.459 12.1935 207.173 11.3959 207.962 11.6615C210.945 12.6643 213.025 14.0469 215.858 19.1853C215.926 19.3094 215.969 19.4508 215.979 19.5921C216.181 22.2409 216.298 23.4516 216.469 23.9721C216.485 24.0198 216.516 24.0598 216.556 24.0894C216.712 24.2036 216.933 24.1159 216.958 23.9243C217.105 22.8021 217.074 21.2484 216.909 18.0766C216.899 17.8789 216.828 17.6899 216.721 17.5231C215.757 16.0164 215.011 13.0002 214.635 11.2094C214.27 9.47492 215.221 2.97389 216.623 1.32631C216.836 1.07621 217.197 1.09765 217.464 1.28812C219.612 2.81708 219.936 4.96888 220.334 8.7522C220.342 8.83349 220.341 8.9178 220.329 8.99873C219.839 12.4393 219.414 14.3845 217.919 17.4316C217.856 17.5597 217.82 17.7029 217.815 17.8456C217.609 23.795 217.65 26.4817 217.812 30.6183C217.818 30.7745 217.946 30.8989 218.103 30.8989C218.247 30.8989 218.37 30.7926 218.39 30.6496C218.825 27.5762 218.89 25.0909 218.756 19.9298C218.754 19.8541 218.761 19.7759 218.776 19.7017C219.366 16.7676 219.462 15.1837 222.933 11.0026C222.979 10.9472 223.033 10.8947 223.09 10.8507C224.991 9.38535 226.26 8.71243 228.083 8.25383C228.685 8.10214 229.259 8.57137 229.227 9.19226C229.096 11.7413 228.345 13.4424 226.24 16.1071C226.209 16.1473 226.173 16.1857 226.135 16.2204L219.712 22.1662C219.523 22.3417 219.409 22.5837 219.393 22.8416C219.189 26.2724 219.017 28.6209 219.085 31.0877C219.099 31.5921 219.725 31.794 220.043 31.4019C220.151 31.2686 220.19 31.0926 220.153 30.9252C219.834 29.4806 219.815 28.55 220.182 26.9528C220.203 26.8616 220.238 26.7721 220.284 26.6907C222.847 22.1778 224.74 20.5185 228.601 20.6236C229.171 20.6391 229.589 21.1638 229.436 21.7124C228.726 24.2596 226.535 26.5448 219.74 32.9286C219.537 33.1198 219.418 33.3917 219.42 33.6709Z" fill="#AC9E62" stroke="#8B7D42"/>
<path d="M222.683 34.1775C219.552 34.9917 217.029 34.9015 212.898 34.066C212.282 33.9415 211.697 34.3971 211.694 35.0249C211.676 38.3264 211.883 42.4334 212.111 43.4419C212.367 44.5782 214.496 46.9823 216.76 47.0881C218.945 47.1885 221.41 47.234 221.941 47.0881C222.472 46.9423 223.53 44.474 223.668 43.4419C224.147 40.863 224.157 38.9789 223.992 35.1159C223.964 34.4597 223.319 34.0123 222.683 34.1775Z" fill="#8D776C" stroke="#5D4238"/>
<path d="M233.45 28.4195C233.375 29.7578 234.371 32.3348 235.033 34.0472C235.153 34.3583 235.42 34.5897 235.745 34.6641L237.616 35.0919C238.08 35.198 238.55 34.9597 238.652 34.4946C239.058 32.635 239.068 29.1436 239.095 27.4697C239.096 27.4211 239.093 27.3746 239.086 27.3267C238.838 25.6722 237.411 23.8379 236.257 22.3007C235.995 21.9508 235.556 21.8658 235.33 22.2406C234.505 23.6139 233.519 27.2001 233.45 28.4195Z" fill="#AEA25D" stroke="#8B764E"/>
<path d="M241.007 34.8303C238.253 34.8144 236.19 34.8222 232.77 34.8336C232.219 34.8354 231.771 35.2783 231.771 35.8293V46.7964C231.771 47.0881 232.337 47.6121 232.834 47.8173C233.419 47.9958 236.128 48.9308 240.978 47.8382C241.039 47.8246 241.099 47.8051 241.156 47.7791C241.658 47.5457 241.83 47.3236 241.959 46.9306C241.988 46.8422 242 46.7492 242 46.656V35.8295C242 35.2801 241.557 34.8335 241.007 34.8303Z" fill="#FEEFD5" stroke="#FCFFF6"/>
<path d="M383.457 182.546L380.358 131.46C380.323 130.867 379.78 130.436 379.194 130.535L376.791 130.94L373.402 131.398C372.857 131.472 372.473 131.972 372.544 132.518L379.056 182.724C379.099 183.054 379.301 183.346 379.607 183.475C380.785 183.973 381.642 183.942 382.841 183.511C383.24 183.368 383.482 182.969 383.457 182.546Z" fill="#7C5E45"/>
<path d="M361.062 211.592L363.633 133.706C363.652 133.157 363.223 132.696 362.674 132.673L357.407 132.46C356.843 132.437 356.371 132.887 356.367 133.452L355.796 211.576C355.793 211.966 356.015 212.326 356.376 212.473C357.926 213.103 358.975 213.054 360.467 212.459C360.822 212.318 361.049 211.973 361.062 211.592Z" fill="#7C5E45"/>
<path d="M307.48 191.794L318.873 124.834C318.966 124.289 318.599 123.773 318.054 123.681L313.066 122.838C312.506 122.744 311.981 123.133 311.908 123.696L303.109 191.572C303.046 192.057 303.342 192.525 303.82 192.631C304.874 192.866 305.68 192.839 306.767 192.576C307.141 192.485 307.416 192.173 307.48 191.794Z" fill="#7C5E45"/>
<path d="M435.339 199.585L423.903 123.395C423.819 122.835 423.287 122.456 422.73 122.561L416.87 123.66C416.322 123.763 415.964 124.294 416.074 124.841L431.189 199.973C431.275 200.4 431.627 200.724 432.06 200.762C433.565 200.892 434.385 200.807 435.009 200.417C435.285 200.245 435.387 199.906 435.339 199.585Z" fill="#7C5E45"/>
<path d="M383.457 182.546L380.358 131.46C380.323 130.867 379.78 130.436 379.194 130.535L376.791 130.94L373.402 131.398C372.857 131.472 372.473 131.972 372.544 132.518L379.056 182.724C379.099 183.054 379.301 183.346 379.607 183.475C380.785 183.973 381.642 183.942 382.841 183.511C383.24 183.368 383.482 182.969 383.457 182.546Z" stroke="#4C2A11"/>
<path d="M361.062 211.592L363.633 133.706C363.652 133.157 363.223 132.696 362.674 132.673L357.407 132.46C356.843 132.437 356.371 132.887 356.367 133.452L355.796 211.576C355.793 211.966 356.015 212.326 356.376 212.473C357.926 213.103 358.975 213.054 360.467 212.459C360.822 212.318 361.049 211.973 361.062 211.592Z" stroke="#4C2A11"/>
<path d="M307.48 191.794L318.873 124.834C318.966 124.289 318.599 123.773 318.054 123.681L313.066 122.838C312.506 122.744 311.981 123.133 311.908 123.696L303.109 191.572C303.046 192.057 303.342 192.525 303.82 192.631C304.874 192.866 305.68 192.839 306.767 192.576C307.141 192.485 307.416 192.173 307.48 191.794Z" stroke="#4C2A11"/>
<path d="M435.339 199.585L423.903 123.395C423.819 122.835 423.287 122.456 422.73 122.561L416.87 123.66C416.322 123.763 415.964 124.294 416.074 124.841L431.189 199.973C431.275 200.4 431.627 200.724 432.06 200.762C433.565 200.892 434.385 200.807 435.009 200.417C435.285 200.245 435.387 199.906 435.339 199.585Z" stroke="#4C2A11"/>
<path d="M351.125 131.827L311.624 122.704C311.515 122.678 311.409 122.635 311.316 122.572C307.056 119.685 307.035 110.776 311.126 108.088C311.334 107.951 311.593 107.921 311.836 107.981L351.125 117.641C357.976 119.101 361.451 118.784 367.458 117.641L417.207 108.025C417.631 107.944 417.954 107.599 418.009 107.171L429 21.8851C431.593 11.6373 440.826 12.5733 442.964 22.3104C442.988 22.418 442.993 22.532 442.979 22.6413L432.208 109.366C431.278 117.198 430.007 120.472 424.423 122.631C424.365 122.654 424.302 122.671 424.24 122.682L367.458 132.714C361.232 133.369 357.677 133.251 351.125 131.827Z" fill="#CF733C" stroke="#BE632B"/>
<path d="M434.908 14.6278C417.575 12.0448 407.506 11.5039 390.023 12.4067C389.77 12.4197 389.528 12.529 389.346 12.7059C388.639 13.3951 387.735 14.2253 386.708 16.565C385.542 19.2248 374.927 65.1114 372.125 96.3618C345.552 100.113 317.534 100.606 312.097 106.909C311.693 107.376 312.001 108.034 312.598 108.195L357.312 120.239C357.463 120.28 357.622 120.284 357.775 120.253L417.625 107.888C422.657 71.9119 426.857 51.5718 435.732 15.8679C435.874 15.296 435.491 14.7147 434.908 14.6278Z" fill="#EA8446"/>
<path d="M372.125 96.3618C374.927 65.1114 385.542 19.2248 386.708 16.565C387.735 14.2253 388.639 13.3951 389.346 12.7059C389.528 12.529 389.77 12.4197 390.023 12.4067C407.506 11.5039 417.575 12.0448 434.908 14.6278C435.491 14.7147 435.874 15.296 435.732 15.8679C426.857 51.5718 422.657 71.9119 417.625 107.888M372.125 96.3618C345.552 100.113 317.534 100.606 312.097 106.909C311.693 107.376 312.001 108.034 312.598 108.195L357.312 120.239C357.463 120.28 357.622 120.284 357.775 120.253L417.625 107.888M372.125 96.3618C405.224 102.088 413.856 104.506 417.625 107.888" stroke="#C46731"/>
</svg>
