<svg width="1920" height="526" viewBox="0 0 1920 526" fill="none" xmlns="http://www.w3.org/2000/svg">
<rect width="1920" height="526" fill="#F4CFAC"/>
<path d="M1471 143H1331.05V331.764H1471V143Z" fill="#FFF6E2" stroke="#F6D5B5"/>
<path d="M1323 147.612L1329.76 143.659L1330.08 332.753H1470.67L1465.53 340H1323V147.612Z" fill="#F6D7B6" stroke="#F6D5B5"/>
<path d="M1463.27 149.588H1338.44V324.187H1463.27V149.588Z" fill="#7A6254" stroke="#F6D5B5"/>
<g filter="url(#filter0_d_308_496)">
<path d="M1397.66 171.996V171.996C1392.06 171.906 1387.25 175.573 1383.39 179.618C1378.35 184.885 1374.05 192.07 1370.63 206.915C1368.28 216.371 1368.51 220.697 1370.63 227.34C1373.32 235.548 1375.33 240.646 1380.95 247.23C1383.15 249.81 1386.22 251.526 1389.61 251.718V251.718M1415.03 238.541C1410.97 242.981 1407.82 245.726 1402.62 248.338C1398.57 250.371 1393.39 254.218 1389.61 251.718V251.718M1415.03 238.541L1418.11 226.465C1419.9 219.405 1422.1 211.3 1418.23 205.121V205.121C1416.03 201.589 1412.19 199.705 1408.61 197.576C1400.72 192.883 1397.39 189.423 1397.66 183.855M1415.03 238.541V238.541C1415.53 251.669 1421.66 264.501 1433.22 270.742C1434.07 271.2 1434.97 271.666 1435.94 272.143M1393.47 185.832C1387.89 187.575 1385.49 188.872 1382.53 191.761M1397.01 199.668C1403.42 199.542 1406.35 200.653 1410.2 204.939M1395.72 211.198C1400.6 211.278 1402.96 210.766 1406.34 208.562M1375.46 202.962C1379.87 205.607 1381.54 206.314 1383.82 206.915M1378.67 198.021C1380.02 197.632 1381.1 197.381 1382.13 197.308C1384.99 197.105 1388.58 199.503 1389.35 202.265V202.265C1389.99 204.531 1389.27 206.098 1388.47 208.313C1385.22 217.386 1381.38 224.105 1382.53 227.34C1383.82 230.964 1388.65 226.352 1388.65 226.352M1382.53 235.905C1385.84 237.191 1387.65 237.434 1390.58 234.258M1405.7 171.996C1411.31 174.093 1413.89 174.312 1416.64 175.949C1417.71 176.744 1418.69 177.511 1419.61 178.259C1431.39 187.936 1431.09 204.899 1432.4 220.093V220.093C1432.55 221.757 1436.53 229.387 1438.96 235.499C1440.74 240.004 1440.98 244.931 1440.81 249.774C1440.8 250 1440.8 250.222 1440.78 250.443C1440.56 254.852 1439.44 259.57 1435.94 262.26V262.26M1389.61 251.718C1389.61 251.718 1389.22 268.206 1391.19 272.802M1391.86 282.026C1391.88 279.771 1391.92 278.695 1391.19 272.802M1391.19 272.802C1389.89 273.511 1388.68 274.168 1387.51 274.809C1375.61 281.298 1360.63 288.575 1360.98 302.121V302.121M1390.58 298.168C1395.11 298.249 1395.72 298.168 1399.91 295.532C1404.09 292.897 1419.11 275.872 1427.25 274.449" stroke="#D2D1BE" stroke-width="5" stroke-linecap="round" stroke-linejoin="round"/>
</g>
<path d="M499.364 123H317.586V351.579H499.364V123Z" fill="#FFF6E2" stroke="#F6D5B5"/>
<path d="M311 127.784L319.618 123L320.028 351.84H499.364L492.798 360.611H311V127.784Z" fill="#FCD5B3" stroke="#F9D6B4"/>
<path d="M489.485 134.811H327.465V339.768H489.485V134.811Z" fill="#685A55" stroke="#F6D5B5"/>
<path d="M488.16 136.201H447.655C439.327 159.16 435.077 171.851 449.96 184.835C463.351 193.908 471.507 191.623 488.16 178.582V136.201Z" fill="#F79752" stroke="#F79752" stroke-width="2" stroke-linecap="round" stroke-linejoin="round"/>
<path d="M375.874 317.188C359.548 311.18 350.93 311.578 338.003 319.62L338.662 144.538H371.263C402.142 179.443 405.216 206.501 455.566 224.436C479.485 229.087 488.429 239.438 468.738 272.723C460.053 301.443 438.756 310.781 375.874 317.188Z" fill="#F88B50" stroke="#F68B52" stroke-width="2" stroke-linecap="round" stroke-linejoin="round"/>
<path d="M454.264 296.732C451.655 299.9 437.35 304.341 427.59 302.985C427.418 301.626 428.713 291.233 430.554 287.005C433.225 280.335 439.376 274.307 444.385 271.72C456.101 267.794 458.667 265.822 470.729 273.11C463.401 288.818 463.589 290.146 454.264 296.732Z" fill="#766764" stroke="#756861" stroke-linecap="round" stroke-linejoin="round"/>
<path d="M397.238 339.421H488.456V297.04C485.399 283.643 481.873 277.503 468.369 272.028C466.094 281.755 463.703 286.649 456.514 293.913C439.635 301.917 432.455 304.013 425.559 301.556C407.016 295.858 398.097 288.94 388.018 261.954C366.003 266.717 358.21 283.269 367.601 309.893C385.601 314.935 392.344 321.143 397.238 339.421Z" fill="#815C67" stroke="#815C67" stroke-width="2" stroke-linecap="round" stroke-linejoin="round"/>
<path d="M338.003 229.601V191.041C343.769 189.64 347.478 190.535 354.469 193.473C362.477 199.851 366.667 204.632 373.239 216.748C367.556 224.892 363.64 228.439 354.469 231.685C348.374 232.394 344.925 232.646 338.003 229.601Z" fill="#FFEDD1" stroke="#FFEDD1" stroke-linecap="round" stroke-linejoin="round"/>
<path d="M412.004 144.19H369.571C376.557 155.85 381.665 161.476 391.351 173.445C397.421 182.895 400.592 188.275 403.426 198.866L407.158 220.962C407.049 238.763 406.287 249.504 409.635 263.289C415.738 275.759 420.488 281.307 430.538 286.271C435.341 276.93 443.562 270.221 453.261 268.207C445.13 264.292 437.744 264.779 434.819 257.369C432.351 248.44 432.364 243.916 434.13 236.447C436.349 229.413 438.147 224.475 441.965 218.628C425.031 209.602 418.076 201.327 411.951 178.582C410.829 162.395 411.421 157.684 412.004 144.19Z" fill="#FAB65F"/>
<path d="M433.44 237.868L434.13 236.447M434.13 236.447C436.349 229.413 438.147 224.475 441.965 218.628C425.031 209.602 418.076 201.327 411.951 178.582C410.829 162.395 411.421 157.684 412.004 144.19H369.571C376.557 155.85 381.665 161.476 391.351 173.445C397.421 182.895 400.592 188.275 403.426 198.866L407.158 220.962C407.049 238.763 406.287 249.504 409.635 263.289C415.738 275.759 420.488 281.307 430.538 286.271C435.341 276.93 443.562 270.221 453.261 268.207C445.13 264.292 437.744 264.779 434.819 257.369C432.351 248.44 432.364 243.916 434.13 236.447Z" stroke="#FAB65F" stroke-linecap="round" stroke-linejoin="round"/>
<path d="M390.363 202.269C380.998 204.434 376.769 206.645 374.227 215.47C377.668 224.131 380.18 228.744 387.07 235.966C391.25 238.382 394.197 238.532 400.901 235.966C405.233 232.847 406.714 229.998 407.816 223.112C408.695 215.479 408.693 211.692 407.158 206.438C401.112 201.272 397.386 200.72 390.363 202.269Z" fill="#9F6C6A" stroke="#9F6C6A" stroke-linecap="round" stroke-linejoin="round"/>
<defs>
<filter id="filter0_d_308_496" x="1354.47" y="169.494" width="92.8877" height="143.127" filterUnits="userSpaceOnUse" color-interpolation-filters="sRGB">
<feFlood flood-opacity="0" result="BackgroundImageFix"/>
<feColorMatrix in="SourceAlpha" type="matrix" values="0 0 0 0 0 0 0 0 0 0 0 0 0 0 0 0 0 0 127 0" result="hardAlpha"/>
<feOffset dy="4"/>
<feGaussianBlur stdDeviation="2"/>
<feComposite in2="hardAlpha" operator="out"/>
<feColorMatrix type="matrix" values="0 0 0 0 0 0 0 0 0 0 0 0 0 0 0 0 0 0 0.25 0"/>
<feBlend mode="normal" in2="BackgroundImageFix" result="effect1_dropShadow_308_496"/>
<feBlend mode="normal" in="SourceGraphic" in2="effect1_dropShadow_308_496" result="shape"/>
</filter>
</defs>
</svg>
