<svg width="278" height="180" viewBox="0 0 278 180" fill="none" xmlns="http://www.w3.org/2000/svg">
<path fill-rule="evenodd" clip-rule="evenodd" d="M171.679 149.922L271.566 72.8978C276.21 61.4459 276.136 55.3376 271.885 44.9619C276.686 33.1649 276.359 26.1117 272.249 13.035L126.468 3.47495C125.403 3.40515 124.339 3.65975 123.357 4.21933L8.08269 69.8887C3.07502 78.8427 2.51425 84.402 7.78643 95.8293C3.87428 107.476 2.48504 113.907 7.45979 124.43L171.679 149.922Z" fill="#FDD090"/>
<path d="M171.679 177L171.679 149.922L7.45979 124.43C2.74994 132.161 2.33598 137.533 5.53724 146.305C6.48997 148.916 8.43645 150.587 10.6044 150.954L171.679 177Z" fill="#CD9A65"/>
<path d="M171.679 149.922L171.679 177L269.815 94.1514C270.814 93.2991 271.652 92.1353 272.166 90.7136C274.509 84.2304 274.337 79.9702 271.566 72.8978L171.679 149.922Z" fill="#CC9963"/>
<path d="M172.344 91.7216L272.249 13.035M172.344 91.7216L8.08269 69.8887M172.344 91.7216L172.002 121.653M171.679 177L171.679 149.922M171.679 177L269.815 94.1514M171.679 177L10.6044 150.954M271.566 72.8978C276.21 61.4459 276.136 55.3376 271.885 44.9619M271.566 72.8978L171.679 149.922M271.566 72.8978C274.337 79.9702 274.509 84.2304 272.166 90.7136M271.885 44.9619C276.686 33.1649 276.359 26.1117 272.249 13.035M271.885 44.9619L172.002 121.653M272.249 13.035L126.468 3.47495M8.08269 69.8887C3.07502 78.8427 2.51425 84.402 7.78643 95.8293M8.08269 69.8887L123.357 4.21933M7.78643 95.8293C3.87428 107.476 2.48504 113.907 7.45979 124.43M7.78643 95.8293L172.002 121.653M7.45979 124.43L171.679 149.922M7.45979 124.43C2.74994 132.161 2.33598 137.533 5.53724 146.305M172.002 121.653L171.679 149.922M269.815 94.1514C270.814 93.2991 271.652 92.1353 272.166 90.7136M269.815 94.1514L270.048 93.9526C270.896 93.2294 271.567 92.3177 271.959 91.2749C272.03 91.0859 272.099 90.8988 272.166 90.7136M10.6044 150.954C8.43645 150.587 6.48997 148.916 5.53724 146.305M10.6044 150.954V150.954C8.45935 150.591 6.62327 149.172 5.84841 147.139C5.74116 146.857 5.63743 146.579 5.53724 146.305M123.357 4.21933C124.339 3.65975 125.403 3.40515 126.468 3.47495M123.357 4.21933L123.441 4.17131C124.36 3.64789 125.412 3.40575 126.468 3.47495V3.47495" stroke="#B07F56" stroke-width="5"/>
<path d="M131 23L217 28" stroke="#B07F56" stroke-width="5" stroke-linecap="round"/>
</svg>
