<svg width="1343" height="472" viewBox="0 0 1343 472" fill="none" xmlns="http://www.w3.org/2000/svg">
<path d="M1336.63 12H1206C1203.24 12 1201 14.2386 1201 17V180.802C1201 183.601 1203.3 185.856 1206.1 185.801L1336.73 183.237C1339.45 183.183 1341.63 180.961 1341.63 178.237V17C1341.63 14.2386 1339.39 12 1336.63 12Z" fill="#B97458" stroke="#813B2C"/>
<path d="M1315.36 31.3223H1226.58C1223.82 31.3223 1221.58 33.5608 1221.58 36.3223V160.198C1221.58 162.96 1223.82 165.198 1226.58 165.198H1315.36C1318.13 165.198 1320.36 162.96 1320.36 160.198V36.3223C1320.36 33.5608 1318.13 31.3223 1315.36 31.3223Z" fill="#F6B986" stroke="#813B2C"/>
<path d="M1271.66 45.124V56.1653M1303.21 96.8802H1312.82M1271.66 139.665V152.777M1228.44 96.8802H1238.73M1242.16 74.7975L1270.3 93.8912C1271.09 94.4256 1272.15 94.3308 1272.83 93.6645L1298.41 68.5868" stroke="#813B2C" stroke-width="4" stroke-linecap="round"/>
<path d="M0 2V471H325V2C325 0.895431 324.105 0 323 0H2C0.89543 0 0 0.895435 0 2Z" fill="#A36150"/>
<path d="M300.701 463.341H24.2988V24.2097C24.2988 23.1051 25.1943 22.2097 26.2988 22.2097H298.701C299.805 22.2097 300.701 23.1051 300.701 24.2097V463.341Z" fill="#BC7258"/>
<path d="M170.093 22.2097H151.869V471H170.093V22.2097Z" fill="#A36150" stroke="#B27345" stroke-linecap="round"/>
<ellipse cx="106.308" cy="238.946" rx="15.1869" ry="18.3805" fill="#A36150"/>
<ellipse cx="215.654" cy="238.946" rx="15.1869" ry="18.3805" fill="#A36150"/>
<path d="M369 177V171C369 169.343 370.343 168 372 168H492.5C494.157 168 495.5 169.343 495.5 171V177C495.5 178.657 494.157 180 492.5 180H372C370.343 180 369 178.657 369 177Z" fill="#B97458" stroke="#813B2C" stroke-width="4" stroke-linecap="round"/>
<path d="M405 108.5H390.5C388.843 108.5 387.5 109.843 387.5 111.5V165.5C387.5 167.157 388.843 168.5 390.5 168.5H405C406.657 168.5 408 167.157 408 165.5V111.5C408 109.843 406.657 108.5 405 108.5Z" fill="#D5AA60" stroke="#B07F56" stroke-width="3" stroke-linecap="round"/>
<path d="M388 119.5H407M388 155H407" stroke="#B07F56" stroke-width="3" stroke-linecap="round"/>
<path d="M428.5 108H414C412.343 108 411 109.343 411 111V165C411 166.657 412.343 168 414 168H428.5C430.157 168 431.5 166.657 431.5 165V111C431.5 109.343 430.157 108 428.5 108Z" fill="#A598DF" stroke="#6677BC" stroke-width="3" stroke-linecap="round"/>
<path d="M451.5 109H437C435.343 109 434 110.343 434 112V166C434 167.657 435.343 169 437 169H451.5C453.157 169 454.5 167.657 454.5 166V112C454.5 110.343 453.157 109 451.5 109Z" fill="#E4A2C5" stroke="#BF83DD" stroke-width="3" stroke-linecap="round"/>
<path d="M474.5 109H460C458.343 109 457 110.343 457 112V166C457 167.657 458.343 169 460 169H474.5C476.157 169 477.5 167.657 477.5 166V112C477.5 110.343 476.157 109 474.5 109Z" fill="#BA4826" stroke="#953206" stroke-width="3" stroke-linecap="round"/>
<path d="M457 122.5H477.5M457 132H477.5" stroke="#953206" stroke-width="3" stroke-linecap="round"/>
<path d="M444 122V155" stroke="#BF83DD" stroke-width="3" stroke-linecap="round"/>
<path d="M411.5 119.5H430.5M411.5 125.5H430.5M411.5 159H430.5" stroke="#6677BC" stroke-width="3" stroke-linecap="round"/>
</svg>
