<svg width="1920" height="396" viewBox="0 0 1920 396" fill="none" xmlns="http://www.w3.org/2000/svg">
<path d="M1915 2.5H5C2.23858 2.5 0 4.73858 0 7.5V334.581C0 337.343 2.23861 339.581 5.00004 339.581H1915C1917.76 339.581 1920 337.343 1920 334.581V7.5C1920 4.73858 1917.76 2.5 1915 2.5Z" fill="#CC8045" stroke="#B96E45" stroke-width="4"/>
<path d="M1912.81 379V335.399C1912.81 334.846 1912.37 334.399 1911.81 334.399H6.74805C6.19576 334.399 5.74805 334.846 5.74805 335.399V379C5.74805 387.284 12.4638 394 20.7481 394H1897.81C1906.1 394 1912.81 387.284 1912.81 379Z" fill="#B96E45" stroke="#B96E45" stroke-width="4"/>
</svg>
