<svg width="1200" height="448" viewBox="0 0 1200 448" fill="none" xmlns="http://www.w3.org/2000/svg">
<path d="M519 10.5522C498.522 21.5726 482 38.0524 480 55.5522C478 73.0521 476.3 176.356 475.108 179.552H502.5H502.642C503.826 178.994 503.684 163.982 503.495 143.941C503.228 115.667 500.914 90.9935 506 55.5522C511.086 20.111 559.979 2.29097 567.141 1.06768C561.951 1.18808 534.496 2.21281 519 10.5522Z" fill="#A26D6C"/>
<path fill-rule="evenodd" clip-rule="evenodd" d="M502.642 179.552C502.597 179.574 502.549 179.574 502.5 179.552H502.642ZM567.141 1.06768C567.699 1.05471 568 1.05223 568 1.05223C567.933 0.977828 567.637 0.982862 567.141 1.06768ZM727 179.552C726.969 179.562 726.939 179.562 726.909 179.552H727ZM475.108 179.552C475.073 179.646 475.037 179.648 475 179.552H475.108Z" fill="#A26D6C"/>
<path d="M641.5 1.05223C615.371 1.87019 568 1.05223 568 1.05223C568 1.05223 567.699 1.05471 567.141 1.06768C559.979 2.29097 511.086 20.111 506 55.5522C500.914 90.9935 503.228 115.667 503.495 143.941C503.684 163.982 503.826 178.994 502.642 179.552H726.909C725.734 179.169 725.313 163.695 724.758 143.3C723.967 114.236 722.905 75.1777 719 55.5522C712.286 21.807 680.015 -0.15348 641.5 1.05223Z" fill="#B37A76"/>
<path d="M502.5 179.552C502.549 179.574 502.597 179.574 502.642 179.552M502.5 179.552H475.108M502.5 179.552H502.642M568 1.05223C568 1.05223 615.371 1.87019 641.5 1.05223C680.015 -0.15348 712.286 21.807 719 55.5522C722.905 75.1777 723.967 114.236 724.758 143.3C725.313 163.695 725.734 179.169 726.909 179.552M568 1.05223C567.933 0.977828 567.637 0.982862 567.141 1.06768M568 1.05223C568 1.05223 567.699 1.05471 567.141 1.06768M502.642 179.552H726.909M502.642 179.552C503.826 178.994 503.684 163.982 503.495 143.941C503.228 115.667 500.914 90.9935 506 55.5522C511.086 20.111 559.979 2.29097 567.141 1.06768M502.642 179.552H475.108M475.108 179.552C475.073 179.646 475.037 179.648 475 179.552H475.108ZM475.108 179.552C476.3 176.356 478 73.0521 480 55.5522C482 38.0524 498.522 21.5726 519 10.5522C534.496 2.21281 561.951 1.18808 567.141 1.06768M726.909 179.552H727C726.969 179.562 726.939 179.562 726.909 179.552Z" stroke="#A36D6C"/>
<path d="M612.999 97.0524C593.407 96.8707 563.239 100.057 564.499 102.552C603.373 104.708 625.336 106.211 659.999 101.052C639.374 96.9789 631.419 97.2232 612.999 97.0524Z" fill="#A36D6C" stroke="#A36D6C"/>
<path d="M931.377 170H250.726C249.309 170 247.959 170.601 247.01 171.654L7.51403 437.654C4.61722 440.872 6.90054 446 11.2299 446H1188.22C1192.63 446 1194.88 440.701 1191.82 437.527L934.974 171.527C934.032 170.551 932.734 170 931.377 170Z" fill="#CC8045" stroke="#B96E45" stroke-width="4"/>
<path d="M1107 409.737L911.199 178H285.032L92 409.737H1107Z" fill="#EFC291" stroke="#D5AA60"/>
<path fill-rule="evenodd" clip-rule="evenodd" d="M798.465 227.447L758.514 239.009L764.052 254.753L753.372 255.983L775.127 306.414H932.164L931.07 303.216L922.317 277.632L916.737 261.322L908.43 237.041L893.399 224.003H851.074H796.498L798.465 227.447Z" fill="#342F3B"/>
<path fill-rule="evenodd" clip-rule="evenodd" d="M728.847 189.386L737.189 203.338L758.514 239.009L798.465 227.447L796.498 224.003H851.074H893.399V210.776L918.633 214.901L897.75 189.316L866.897 189.329L825.759 189.346L776.71 189.366L728.847 189.386ZM932.164 306.414L955.718 344.299L972.619 371.483L989.519 398.666H1068.63L1046.44 371.483L1024.25 344.299L969.837 277.632H922.317L931.07 303.216L932.164 306.414Z" fill="#FFD69B"/>
<path d="M866.897 189.329L897.75 189.316L918.633 214.901M866.897 189.329L855.425 204.568M866.897 189.329L825.759 189.346M855.425 204.568L893.399 210.776M855.425 204.568L838.326 206.29M918.633 214.901L893.399 210.776M918.633 214.901L969.837 277.632M776.71 189.366L728.847 189.386M776.71 189.366L784.27 202.6M776.71 189.366L825.759 189.346M758.514 239.009L798.465 227.447L796.498 224.003M758.514 239.009L737.189 203.338M758.514 239.009L764.052 254.753L753.372 255.983L775.127 306.414H932.164M728.847 189.386L298.876 189.562L131.556 398.666H989.519M728.847 189.386L737.189 203.338M737.189 203.338L784.27 202.6M784.27 202.6L787.362 208.013M787.362 208.013H839.603M787.362 208.013L796.498 224.003M839.603 208.013L851.074 224.003M839.603 208.013L838.326 206.29M825.759 189.346L838.326 206.29M851.074 224.003H796.498M851.074 224.003H893.399M893.399 224.003V210.776M893.399 224.003L908.43 237.041M893.399 210.776V224.741L908.43 237.041M908.43 237.041H935.724M908.43 237.041L916.737 261.322M932.164 306.414L931.069 303.216M932.164 306.414L955.718 344.299M922.317 277.632H969.837M922.317 277.632L916.737 261.322M922.317 277.632L931.069 303.216M969.837 277.632L1024.25 344.299M969.837 277.632L955.106 261.322H916.737M931.069 303.216H989.519M989.519 398.666H1068.63L1046.44 371.483M989.519 398.666L972.619 371.483M955.718 344.299H1024.25M955.718 344.299L972.619 371.483M1024.25 344.299L1046.44 371.483M972.619 371.483H1046.44" stroke="#342F3B" stroke-width="10"/>
<path fill-rule="evenodd" clip-rule="evenodd" d="M841.977 345.824L911.53 374.066L910.515 371.606L909.804 369.884L893.358 330.031H836.621L841.977 345.824ZM675.572 357.338L730.034 356.354L752.185 353.402L828.528 340.363L780.665 320.929H741.901H698.785H606.62H541.749H504.566L502.984 319.545L477.669 297.401L460.974 282.798L443.255 267.3L449.701 245.897L456.147 224.495L461.703 206.045H420.313L413.886 224.495L407.46 242.945H351.486L308.568 237.656L295.245 260.166L278.21 288.948L262.485 315.517H288.197L323.006 304.939H386.295H424.664L434.157 311.827L463.429 337.165L461.491 345.775L456.288 368.9H533.888H606.62V345.775H652.505L665.756 352.418L675.572 357.338Z" fill="#FFD69B"/>
<path d="M413.886 224.495L420.313 206.045L399.348 189.808H299.668L265.65 232.367L308.568 237.656L351.486 242.945H407.46L413.886 224.495Z" fill="#342F3B"/>
<path d="M780.665 320.929L775.523 306.169L764.448 276.648H724.101L718.167 263.118H659.625L655.274 230.645L629.958 228.923H599.105L579.722 224.495L499.424 245.651L449.701 245.897L443.255 267.3L460.974 282.798L477.669 297.401L502.984 319.545L504.566 320.929H541.749H606.62H698.785H741.901H780.665Z" fill="#6A8063"/>
<path d="M972.115 398.666L911.53 374.066M780.665 320.929L775.523 306.169L764.448 276.648H724.101L718.167 263.118H659.625L655.274 230.645L629.958 228.923H599.105L579.722 224.495L499.424 245.651L449.701 245.897M780.665 320.929L828.528 340.363M780.665 320.929H741.901M828.528 306.169L836.621 330.031M841.977 345.824L911.53 374.066M841.977 345.824L836.621 330.031M841.977 345.824L861.755 398.666L685.336 398.174L679.007 359.06L675.572 357.338M841.977 345.824L828.528 340.363M883.51 306.169L893.358 330.031M911.53 374.066L910.515 371.606M973.302 371.606H910.515M836.621 330.031H893.358M947.195 330.031H893.358M910.515 371.606L909.804 369.884L893.358 330.031M828.528 340.363L752.185 353.402M752.185 353.402L741.901 320.929M752.185 353.402L730.034 356.354L675.572 357.338M741.901 320.929H698.785M443.255 267.3L404.095 260.166H295.245M443.255 267.3L449.701 245.897M443.255 267.3L460.974 282.798M466.593 189.808L461.703 206.045M243.103 260.166H295.245M220.161 288.948H278.21M391.437 288.948L406.518 245.651M391.437 288.948L388.273 300.019M391.437 288.948H278.21M420.313 206.045H461.703M420.313 206.045L413.886 224.495M420.313 206.045L399.348 189.808H299.668L265.65 232.367L308.568 237.656M461.703 206.045L456.147 224.495M413.886 224.495H456.147M413.886 224.495L407.46 242.945M456.147 224.495L449.701 245.897M406.518 245.651L449.701 245.897M406.518 245.651L407.46 242.945M388.273 300.019L460.974 282.798M388.273 300.019L386.295 304.939M460.974 282.798L477.669 297.401M477.669 297.401L434.157 311.827M477.669 297.401L502.984 319.545M434.157 311.827L463.429 337.165M434.157 311.827L424.664 304.939H386.295M463.429 337.165L502.984 319.545M463.429 337.165L461.491 345.775M502.984 319.545L504.566 320.929H541.749M449.701 398.174L456.288 368.9M541.749 320.929H606.62M541.749 320.929L533.888 368.9M529.091 398.174L533.888 368.9M461.491 345.775H606.62M461.491 345.775L456.288 368.9M652.505 345.775L606.62 320.929M652.505 345.775L665.756 352.418M652.505 345.775H606.62M606.62 320.929H698.785M665.756 352.418L698.785 320.929M665.756 352.418L675.572 357.338M606.62 345.775V368.9M606.62 398.174V368.9M606.62 368.9H533.888M456.288 368.9H533.888M351.486 242.945H407.46M351.486 242.945L323.006 304.939M351.486 242.945L308.568 237.656M323.006 304.939H386.295M323.006 304.939L288.197 315.517H262.485M199.592 315.517H262.485M308.568 237.656L295.245 260.166M262.485 315.517L278.21 288.948M278.21 288.948L295.245 260.166" stroke="#342F3B" stroke-width="10"/>
<path d="M580.118 208.751H626.794L627.402 213.917H696.807L703.142 228.923L717.993 264.102L659.229 263.118L654.087 229.907L629.167 228.923H597.918L580.118 224.003V208.751Z" fill="#FFD69B"/>
<path d="M326.566 385.382H395.788H451.562L463.033 337.411L423.477 304.2H323.006L287.01 315.271L264.068 354.631L326.271 385.904L326.566 385.382Z" fill="#342F3B"/>
<path d="M261.694 315.271L215.019 398.666H319.05L326.271 385.904M395.788 385.382H326.566L326.271 385.904M395.788 385.382H451.562L463.033 337.411L423.477 304.2H323.006L287.01 315.271L264.068 354.631L326.271 385.904M395.788 385.382L388.273 398.666M395.788 189.316L419.522 206.044M506.544 189.316L502.911 208.751M456.704 221.051H500.611L502.911 208.751M502.911 208.751H580.118M626.794 208.751L625.211 189.316M626.794 208.751L627.402 213.917M626.794 208.751H580.118M629.167 228.923H597.918L580.118 224.003M629.167 228.923L627.402 213.917M629.167 228.923L654.087 229.907M580.118 224.003L500.611 245.405H449.584M580.118 224.003V208.751M580.118 189.316V208.751M627.402 213.917H696.807M696.807 213.917L737.55 203.584M696.807 213.917L703.142 228.923M762.47 277.632H723.705L717.993 264.102M748.23 221.051L703.142 228.923M703.142 228.923L654.087 229.907M703.142 228.923L717.993 264.102M654.087 229.907L659.229 263.118L717.993 264.102" stroke="#342F3B" stroke-width="10"/>
<path d="M211.458 308.5C216.073 302.924 221.505 296.59 222.138 296H265.254L257.343 308.5H211.458Z" fill="#FFC115"/>
<path d="M456.308 392.756L460.659 375.756H527.113L524.739 392.756H456.308Z" fill="#FFC115"/>
<path d="M925.834 271.756L924.252 267.256L953.919 267.756L957.083 271.756H925.834Z" fill="#FFC115"/>
<path d="M511.29 202.5L512.082 196.5L573.393 195.5V202.5H511.29Z" fill="#FFC115"/>
<path d="M211.458 308.5C216.073 302.924 221.505 296.59 222.138 296H265.254L257.343 308.5H211.458Z" stroke="#D5AA60"/>
<path d="M456.308 392.756L460.659 375.756H527.113L524.739 392.756H456.308Z" stroke="#D5AA60"/>
<path d="M925.834 271.756L924.252 267.256L953.919 267.756L957.083 271.756H925.834Z" stroke="#D5AA60"/>
<path d="M511.29 202.5L512.082 196.5L573.393 195.5V202.5H511.29Z" stroke="#D5AA60"/>
<path d="M711.444 312.998C711.442 312.997 711.444 312.995 711.45 312.993C711.514 312.693 710.461 302.152 719.964 304.989C720.809 302.256 722.804 301.261 725.426 301.03C728.048 300.798 730.845 301.889 731.761 304.989C740.547 303.192 740.719 312.998 739.189 312.998C737.677 312.998 711.908 312.849 711.45 312.993C711.448 313 711.446 313.002 711.444 312.998Z" fill="#145B3C" stroke="#145B3C"/>
<path d="M620.374 304.997C614.635 299.671 608.518 295.91 591.984 293H601.269C613.073 294.834 617.493 298.368 624.336 303.649C630.031 308.847 634.074 312.846 647.362 316H639.735C627.126 312.688 625.561 309.809 620.374 304.997Z" fill="#D5AA60" stroke="#D5AA60" stroke-width="0.1"/>
<path d="M613.345 389.901V353H647.758L666.745 361.61L670.305 389.901H613.345Z" fill="#AAD8F9" stroke="#A0C8E4"/>
<path d="M790.158 318L786.994 313.5L822.594 314L832.087 334L790.158 318Z" fill="#AAD8F9"/>
<path d="M840.394 200L836.439 195.5L856.216 195L853.052 199L840.394 200Z" fill="#AAD8F9"/>
<path d="M633.122 223V220H693.642L694.829 223L653.296 224L633.122 223Z" fill="#AAD8F9"/>
<path d="M421.499 218.5L423.872 212L453.935 213L452.352 218.5H421.499Z" fill="#AAD8F9"/>
<path d="M456.308 290.5L421.499 298L429.806 297.5L436.926 303.5L463.428 295L456.308 290.5Z" fill="#AAD8F9"/>
<path d="M790.158 318L786.994 313.5L822.594 314L832.087 334L790.158 318Z" stroke="#AAD8F9"/>
<path d="M840.394 200L836.439 195.5L856.216 195L853.052 199L840.394 200Z" stroke="#AAD8F9"/>
<path d="M633.122 223V220H693.642L694.829 223L653.296 224L633.122 223Z" stroke="#AAD8F9"/>
<path d="M421.499 218.5L423.872 212L453.935 213L452.352 218.5H421.499Z" stroke="#AAD8F9"/>
<path d="M456.308 290.5L421.499 298L429.806 297.5L436.926 303.5L463.428 295L456.308 290.5Z" stroke="#AAD8F9"/>
<path d="M919.111 364.226L908.431 338.395H942.449L956.689 364.226H919.111Z" fill="#6F56FF" fill-opacity="0.47" stroke="#6F56FF" stroke-opacity="0.47"/>
<path d="M291.757 281.5L298.877 267H331.708L324.588 281.5H291.757Z" fill="#6F56FF" fill-opacity="0.47"/>
<path d="M586.843 202V197H619.278L620.069 202H586.843Z" fill="#6F56FF" fill-opacity="0.47"/>
<path d="M898.937 221.5V217.5L915.155 220.5L924.253 231H910.013L898.937 221.5Z" fill="#6F56FF" fill-opacity="0.47"/>
<path d="M480.438 340H470.944L502.589 327H535.42L533.047 339L480.438 340Z" fill="#6F56FF" fill-opacity="0.47"/>
<path d="M291.757 281.5L298.877 267H331.708L324.588 281.5H291.757Z" stroke="#6F56FF" stroke-opacity="0.47"/>
<path d="M586.843 202V197H619.278L620.069 202H586.843Z" stroke="#6F56FF" stroke-opacity="0.47"/>
<path d="M898.937 221.5V217.5L915.155 220.5L924.253 231H910.013L898.937 221.5Z" stroke="#6F56FF" stroke-opacity="0.47"/>
<path d="M480.438 340H470.944L502.589 327H535.42L533.047 339L480.438 340Z" stroke="#6F56FF" stroke-opacity="0.47"/>
<path d="M677.821 351.009L702.345 329.797L736.759 328.797L743.483 347.797L727.265 351.009L684.15 351.993L677.821 351.009Z" fill="#BF6E14"/>
<path d="M897.751 323L894.191 314.797H928.604L934.933 323H897.751Z" fill="#BF6E14"/>
<path d="M799.652 217.5L797.675 214.5L835.648 214L839.604 218L799.652 217.5Z" fill="#BF6E14"/>
<path d="M409.237 254.5L410.82 252H442.069L439.3 260.5L409.237 254.5Z" fill="#BF6E14"/>
<path d="M677.821 351.009L702.345 329.797L736.759 328.797L743.483 347.797L727.265 351.009L684.15 351.993L677.821 351.009Z" stroke="#BF6E14"/>
<path d="M897.751 323L894.191 314.797H928.604L934.933 323H897.751Z" stroke="#BF6E14"/>
<path d="M799.652 217.5L797.675 214.5L835.648 214L839.604 218L799.652 217.5Z" stroke="#BF6E14"/>
<path d="M409.237 254.5L410.82 252H442.069L439.3 260.5L409.237 254.5Z" stroke="#BF6E14"/>
<path d="M865.71 391L853.052 356.846L935.328 392L865.71 391Z" fill="#BE8962"/>
<path d="M739.527 197.5L738.341 195.5L773.941 195L774.732 197L739.527 197.5Z" fill="#BE8962"/>
<path d="M332.895 298.5L334.081 295H383.009L380.757 298.5H332.895Z" fill="#BE8962"/>
<path d="M865.71 391L853.052 356.846L935.328 392L865.71 391Z" stroke="#D8A981" stroke-width="0.1"/>
<path d="M739.527 197.5L738.341 195.5L773.941 195L774.732 197L739.527 197.5Z" stroke="#D8A981" stroke-width="0.1"/>
<path d="M332.895 298.5L334.081 295H383.009L380.757 298.5H332.895Z" stroke="#D8A981" stroke-width="0.1"/>
<path d="M855.426 394L732.632 392.616C731.02 381.642 731.352 376.389 748.771 375.642C752.228 363.489 756.202 361.616 777.263 363.386C797.646 353.983 806.703 354.508 816.807 368.016C831.095 367.46 838.412 368.588 841.49 380.808C845.202 380.187 847.345 379.521 851.616 381.792L855.426 394Z" fill="#145B3C" stroke="#145B3C"/>
<path d="M222.534 393.5L236.774 367.178C256.987 366.881 260.064 370.136 264.463 382.741C282.083 381.625 288.364 381.537 291.756 393.5H222.534Z" fill="#145B3C"/>
<path d="M212.645 393.5L238.751 348.481C231.326 345.699 222.295 344.46 212.645 345.84C207.603 337.224 202.504 335.916 184.165 340L141.444 393L212.645 393.5Z" fill="#145B3C"/>
<path d="M222.534 393.5L236.774 367.178C256.987 366.881 260.064 370.136 264.463 382.741C282.083 381.625 288.364 381.537 291.756 393.5H222.534Z" stroke="#145B3C"/>
<path d="M212.645 393.5L238.751 348.481C231.326 345.699 222.295 344.46 212.645 345.84C207.603 337.224 202.504 335.916 184.165 340L141.444 393L212.645 393.5Z" stroke="#145B3C"/>
<path d="M494.679 268.998C494.678 268.997 494.68 268.995 494.685 268.993C494.755 268.693 493.615 258.152 503.91 260.989C504.825 258.256 506.987 257.261 509.827 257.03C512.667 256.798 515.697 257.889 516.69 260.989C526.208 259.192 526.394 268.998 524.737 268.998C523.098 268.998 495.182 268.849 494.685 268.993C494.684 269 494.682 269.002 494.679 268.998Z" fill="#145B3C" stroke="#145B3C"/>
<path d="M636.288 276.998C636.287 276.997 636.289 276.995 636.294 276.993C636.355 276.693 635.361 266.152 644.335 268.989C645.133 266.256 647.018 265.261 649.494 265.03C651.97 264.798 654.612 265.889 655.477 268.989C663.775 267.192 663.937 276.998 662.493 276.998C661.064 276.998 636.727 276.849 636.294 276.993C636.293 277 636.291 277.002 636.288 276.998Z" fill="#145B3C" stroke="#145B3C"/>
<path d="M522.368 306.998C522.366 306.997 522.368 306.995 522.373 306.993C522.438 306.693 521.385 296.152 530.888 298.989C531.733 296.256 533.728 295.261 536.35 295.03C538.971 294.798 541.769 295.889 542.685 298.989C551.471 297.192 551.643 306.998 550.113 306.998C548.601 306.998 522.832 306.849 522.373 306.993C522.372 307 522.37 307.002 522.368 306.998Z" fill="#145B3C" stroke="#145B3C"/>
</svg>
