<svg width="496" height="685" viewBox="0 0 496 685" fill="none" xmlns="http://www.w3.org/2000/svg">
<path d="M209.851 522L496 632.055V485.444L300.899 430.872V407.252V0H209.851V430.872V522Z" fill="#B57E7D"/>
<path d="M209.851 0H0.742188V430.872H209.851V0Z" fill="#E09E7D"/>
<path d="M209.851 522V430.872H0.742188V522H209.851Z" fill="#CC8D75"/>
<path d="M300.899 0V407.252L367.934 386.889V0H300.899Z" fill="#D99882"/>
<path d="M300.899 407.252L496 457.751V415.397L367.934 386.889L300.899 407.252Z" fill="#E19E81"/>
<path fill-rule="evenodd" clip-rule="evenodd" d="M300.899 430.872V407.252L496 457.751V485.444L300.899 430.872Z" fill="#A77271"/>
<path d="M496 0H367.934V386.889L496 415.397V0Z" fill="#FDD29A"/>
<path d="M496 632.055L209.851 522H0.742188L288 684.728H496V632.055Z" fill="#A47074"/>
</svg>
