<svg width="200" height="200" viewBox="0 0 200 200" fill="none" xmlns="http://www.w3.org/2000/svg">
<path d="M80.2691 36.4559L68.2622 41.1648C67.0591 41.6366 65.7023 41.4982 64.6193 40.7931L55.9007 35.1168C54.3358 34.098 52.2741 34.2975 50.9336 35.5975L35.7742 50.2985C34.3352 51.694 34.1513 53.9392 35.3441 55.5502L41.5641 63.9511C42.4249 65.1136 42.5909 66.6503 41.9984 67.9698L36.4868 80.2438C35.9022 81.5457 34.6683 82.4375 33.2487 82.5841L22.5891 83.6849C20.5499 83.8955 19 85.6137 19 87.6637V110.432C19 112.319 20.3183 113.949 22.1633 114.343L32.9178 116.644C34.2039 116.919 35.2725 117.809 35.7762 119.024L40.9217 131.438C41.4747 132.772 41.2656 134.3 40.3745 135.437L33.7382 143.902C32.4892 145.496 32.6274 147.771 34.0602 149.201L50.2705 165.384C51.6483 166.759 53.8163 166.943 55.4059 165.819L64.4832 159.4C65.6373 158.584 67.1363 158.437 68.4265 159.015L80.6962 164.506C82.0448 165.109 82.9509 166.407 83.0528 167.881L83.7709 178.276C83.9158 180.373 85.6592 182 87.7614 182H111.212C113.266 182 114.987 180.443 115.192 178.399L116.307 167.267C116.452 165.817 117.374 164.561 118.714 163.988L130.546 158.925C131.776 158.399 133.187 158.522 134.306 159.253L144.548 165.938C146.168 166.995 148.311 166.743 149.64 165.338L164.589 149.537C165.852 148.202 166.043 146.177 165.05 144.629L158.777 134.843C158.05 133.71 157.942 132.287 158.49 131.058L163.623 119.528C164.147 118.351 165.206 117.498 166.468 117.238L177.809 114.895C179.667 114.511 181 112.875 181 110.978V88.5648C181 86.6174 179.598 84.9531 177.678 84.6227L166.564 82.7098C165.248 82.4832 164.132 81.6147 163.588 80.3946L158.562 69.1039C157.975 67.7867 158.143 66.2557 159.001 65.0969L165.312 56.5733C166.467 55.0129 166.335 52.848 164.999 51.4396L149.158 34.7478C147.79 33.306 145.57 33.0877 143.947 34.2353L134.975 40.5798C133.806 41.4067 132.283 41.5453 130.984 40.9429L119.015 35.3958C117.824 34.8435 116.979 33.7415 116.756 32.4474L114.834 21.3192C114.503 19.4012 112.839 18 110.892 18H89.0384C87.1228 18 85.4761 19.3581 85.1115 21.2387L82.7356 33.4934C82.4749 34.838 81.5443 35.9558 80.2691 36.4559Z" fill="#145B3C" stroke="#145B3C"/>
<path d="M100 54.9443C124.928 54.9443 145.134 75.1173 145.134 100C145.134 124.883 124.927 145.056 100 145.056C75.0725 145.056 54.8663 124.883 54.8662 100C54.8662 75.1173 75.0725 54.9443 100 54.9443Z" fill="#F0EFEB" stroke="#F0EFEB"/>
<path d="M114.316 82.6886C110.906 73.8757 88.6912 72.2962 85.741 83.5997C82.2283 97.0582 106.676 98.3217 111.576 102.733C116.35 107.03 117.229 113.978 112.656 119.835C112.548 119.974 112.417 120.098 112.273 120.199C105.816 124.712 97.047 123.057 93.3057 121.372C92.1989 120.873 90.3815 119.931 89.5335 119.062C87.7894 117.276 85.9488 113.683 85.741 112.755M100.625 67.1997C100.625 67.1997 100.625 73.1128 100.625 75.6229M100.625 123.062V132.8" stroke="#145B3C" stroke-width="11" stroke-linecap="round" stroke-linejoin="round"/>
</svg>
