<svg width="203" height="108" viewBox="0 0 203 108" fill="none" xmlns="http://www.w3.org/2000/svg">
<path d="M164.5 4.69621H43.0625C42.5102 4.69621 42.0625 5.14393 42.0625 5.69621V84.3049C42.0625 84.8572 42.5102 85.3049 43.0625 85.3049H156.881C157.352 85.3049 157.759 84.9768 157.858 84.517L165.477 49.4097C165.492 49.34 165.5 49.269 165.5 49.1977V5.69621C165.5 5.14393 165.052 4.69621 164.5 4.69621Z" fill="#145B3C"/>
<path d="M43.5625 83.8046H156.479L164 49.1454V6.19621H43.5625V83.8046ZM167 49.1972C167 49.3754 166.981 49.5534 166.943 49.7275L159.324 84.8349C159.075 85.9845 158.057 86.8046 156.881 86.8046H43.0625C41.6818 86.8046 40.5625 85.6853 40.5625 84.3046V5.69621C40.5625 4.31551 41.6818 3.19621 43.0625 3.19621H164.5C165.881 3.19621 167 4.3155 167 5.69621V49.1972Z" fill="#145B3C"/>
<path d="M141.215 15.6528H65.5896C65.0904 15.6528 64.669 16.0221 64.5912 16.5152C63.3444 24.4226 60.6254 27.2493 52.3574 28.0908C51.839 28.1436 51.4375 28.5759 51.4375 29.0969V61.6905C51.4375 62.21 51.8372 62.6415 52.3538 62.6973C60.3772 63.5636 63.1523 66.5564 63.8677 74.9776C63.9124 75.503 64.3477 75.9137 64.8749 75.9137H142.763C143.259 75.9137 143.678 75.5503 143.759 75.0618C145.216 66.2511 148.156 62.7755 156.246 59.7229C156.64 59.5743 156.906 59.1986 156.906 58.7778V29.9087C156.906 29.3757 156.488 28.9378 155.956 28.9007C146.857 28.2665 143.805 25.211 142.208 16.4887C142.12 16.0077 141.704 15.6528 141.215 15.6528Z" fill="#EFEFEB"/>
<path d="M155.906 29.9097C155.906 29.9097 155.906 29.9076 155.904 29.9058C155.902 29.9037 155.899 29.9022 155.896 29.9009C155.894 29.8998 155.891 29.8983 155.887 29.898C151.263 29.5757 147.943 28.6294 145.591 26.4634C143.244 24.3028 142.033 21.0863 141.225 16.6685C141.224 16.6649 141.223 16.6626 141.222 16.6606C141.22 16.6583 141.219 16.6553 141.217 16.6538C141.215 16.6526 141.214 16.6528 141.214 16.6528H65.5908C65.5908 16.6528 65.5896 16.6533 65.5879 16.6548C65.5859 16.6565 65.5835 16.659 65.582 16.6616C65.5808 16.6639 65.5798 16.6672 65.5791 16.6714C64.9462 20.6849 63.9111 23.6407 61.8008 25.6733C59.6875 27.7087 56.6639 28.6574 52.459 29.0855C52.454 29.086 52.45 29.087 52.4473 29.0884C52.4441 29.09 52.4415 29.0929 52.4395 29.0952C52.4381 29.0967 52.4377 29.0978 52.4375 29.0981V61.689C52.4376 61.6891 52.4376 61.6908 52.4395 61.6929C52.4442 61.6981 52.4515 61.7016 52.4609 61.7026C56.5528 62.1445 59.5483 63.1483 61.5811 65.3208C63.6035 67.4825 64.5013 70.6207 64.8643 74.8931C64.8647 74.898 64.8659 74.9012 64.8672 74.9038C64.8687 74.9068 64.8708 74.9095 64.873 74.9116C64.8739 74.9124 64.8745 74.9132 64.875 74.9136H142.763C142.763 74.9134 142.764 74.9133 142.765 74.9126C142.766 74.9111 142.768 74.9089 142.77 74.9067C142.771 74.905 142.772 74.9026 142.772 74.8989C143.513 70.4205 144.652 67.1476 146.742 64.5991C148.833 62.0498 151.78 60.3396 155.894 58.7876C155.899 58.7856 155.903 58.7823 155.905 58.7788C155.906 58.7774 155.906 58.7759 155.906 58.7759V29.9097ZM157.906 58.7778C157.906 59.6251 157.373 60.3669 156.6 60.6587C152.623 62.1592 150.056 63.7126 148.289 65.8667C146.522 68.0218 145.462 70.8929 144.745 75.2251C144.586 76.1856 143.759 76.9134 142.764 76.9136H64.875C63.8137 76.9136 62.9584 76.0903 62.8711 75.062C62.5186 70.9136 61.6708 68.3446 60.1211 66.688C58.5816 65.0425 56.1774 64.1164 52.2461 63.6919C51.2389 63.583 50.4377 62.7377 50.4375 61.6909V29.0972C50.4375 28.0482 51.2422 27.1995 52.2559 27.0962C56.3182 26.6827 58.7882 25.7977 60.4131 24.2329C62.0408 22.6651 62.9895 20.2534 63.6035 16.3599C63.7559 15.3934 64.5856 14.6528 65.5898 14.6528H141.215C142.198 14.6528 143.019 15.3644 143.192 16.3091C143.98 20.6132 145.093 23.2855 146.946 24.9917C148.794 26.6925 151.55 27.5909 156.025 27.9028C157.068 27.9755 157.906 28.837 157.906 29.9087V58.7778Z" fill="#145B3C"/>
<path d="M163.616 64.6301H141.024C140.185 64.6301 139.719 63.6581 140.245 63.0037L187.801 3.83162C188.483 2.98248 189.839 3.68189 189.543 4.73018L178.254 44.6494C178.074 45.2876 178.553 45.9215 179.216 45.9215H200.928C201.765 45.9215 202.231 46.8885 201.711 47.5437L156.59 104.307C155.918 105.153 154.568 104.479 154.84 103.433L164.584 65.8813C164.748 65.248 164.27 64.6301 163.616 64.6301Z" fill="#145B3C"/>
<path d="M187.021 3.20529C188.386 1.50707 191.098 2.90565 190.505 5.00217L179.217 44.9211H200.928C202.602 44.9212 203.535 46.8557 202.493 48.1662L157.373 104.929C156.029 106.62 153.329 105.273 153.872 103.182L163.616 65.6301H141.024C139.345 65.6301 138.413 63.686 139.465 62.3772L187.021 3.20529ZM141.024 63.6301H163.616C164.925 63.6301 165.88 64.8656 165.552 66.1321L155.808 103.685L200.928 46.9211H179.217C177.89 46.9211 176.931 45.6536 177.292 44.3772L188.58 4.45822L141.024 63.6301Z" fill="#EFEFEB"/>
<path d="M129.562 44.6087C129.562 58.8721 118.02 70.4348 103.781 70.4348C89.5427 70.4348 78 58.8721 78 44.6087C78 30.3454 89.5427 18.7826 103.781 18.7826C118.02 18.7826 129.562 30.3454 129.562 44.6087Z" fill="#145B3C"/>
<path d="M128.562 44.6087C128.562 30.896 117.466 19.7826 103.781 19.7826C90.0966 19.7826 79 30.896 79 44.6087C79 58.3213 90.0966 69.4348 103.781 69.4348V70.4348L103.116 70.426C89.4059 70.0782 78.3559 59.0088 78.0088 45.2747L78 44.6087C78 30.3454 89.5427 18.7826 103.781 18.7826C118.02 18.7826 129.562 30.3454 129.562 44.6087L129.554 45.2747C129.201 59.2302 117.798 70.4348 103.781 70.4348V69.4348C117.466 69.4348 128.562 58.3213 128.562 44.6087Z" fill="#145B3C"/>
<path d="M102.623 64.1746V60.1365C101.725 59.9826 100.919 59.7776 100.256 59.5574C99.5227 59.3141 98.6501 58.9032 97.8584 58.4276C97.0994 57.9715 96.2133 57.3366 95.6172 56.5789C95.0916 55.9109 94.6133 55.1487 94.2539 54.4998C94.0723 54.1719 93.9101 53.854 93.7812 53.5721C93.6705 53.3297 93.5272 52.9932 93.4521 52.6707C93.202 51.595 93.8715 50.5197 94.9473 50.2694C96.0231 50.0191 97.0983 50.6887 97.3486 51.7645C97.3268 51.6706 97.3236 51.6992 97.4199 51.91C97.4983 52.0813 97.6114 52.3058 97.7529 52.5613C98.04 53.0796 98.4026 53.6511 98.7607 54.1063C98.9071 54.2922 99.2994 54.6272 99.918 54.9988C100.504 55.351 101.109 55.6267 101.516 55.7615C103.837 56.5319 107.769 56.9027 110.607 55.0721C112.668 52.4395 112.205 49.5775 110.098 47.7508C109.969 47.6391 109.644 47.4383 108.998 47.1727C108.383 46.9196 107.62 46.6636 106.724 46.3836C104.989 45.8419 102.755 45.2139 100.722 44.4197C98.7063 43.6327 96.5743 42.5715 95.0967 40.993C93.4974 39.2845 92.7313 37.0282 93.4697 34.3035C94.1132 31.9299 95.8007 30.3262 97.7578 29.3631C99.2382 28.6346 100.927 28.2384 102.623 28.1053V25.0438C102.623 23.9392 103.518 23.0438 104.623 23.0438C105.727 23.044 106.623 23.9393 106.623 25.0438V28.2576C107.995 28.4686 109.327 28.8425 110.521 29.3758C112.381 30.2072 114.163 31.5504 114.961 33.5369C115.373 34.5618 114.875 35.7266 113.851 36.1385C112.826 36.5503 111.661 36.0531 111.249 35.0281C110.991 34.3865 110.26 33.641 108.889 33.0281C107.555 32.4322 105.854 32.0765 104.121 32.0545C102.382 32.0325 100.753 32.3475 99.5244 32.952C98.3208 33.5442 97.6016 34.352 97.3311 35.3494C96.9816 36.6385 97.2931 37.4867 98.0166 38.2596C98.8618 39.1624 100.298 39.9595 102.177 40.6932C104.038 41.4199 106.025 41.9757 107.916 42.5662C108.832 42.8523 109.734 43.1503 110.52 43.4735C111.275 43.784 112.088 44.1822 112.718 44.7283C116.468 47.9785 117.128 53.2942 113.708 57.6033C113.468 57.9053 113.179 58.1718 112.852 58.3865C110.888 59.6761 108.696 60.2284 106.623 60.3612V64.1746C106.623 65.2789 105.727 66.1744 104.623 66.1746C103.519 66.1746 102.623 65.279 102.623 64.1746Z" fill="#EFEFEB"/>
<path d="M73.3125 47.7393C73.3125 51.6293 70.1645 54.7828 66.2812 54.7828C62.398 54.7828 59.25 51.6293 59.25 47.7393C59.25 43.8493 62.398 40.6959 66.2812 40.6959C70.1645 40.6959 73.3125 43.8493 73.3125 47.7393Z" fill="#145B3C"/>
<path d="M72.3125 47.7398C72.3125 44.4005 69.6106 41.6959 66.2812 41.6959C62.9519 41.6959 60.25 44.4005 60.25 47.7398C60.2503 51.079 62.9521 53.7828 66.2812 53.7828V54.7828C62.5195 54.7828 59.4473 51.8236 59.2588 48.1021L59.25 47.7393C59.25 43.8493 62.398 40.6959 66.2812 40.6959C70.1645 40.6959 73.3125 43.8493 73.3125 47.7393L73.3037 48.1021C73.1152 51.8236 70.0431 54.7828 66.2812 54.7828V53.7828C69.6104 53.7828 72.3122 51.079 72.3125 47.7398Z" fill="#145B3C"/>
<path d="M148.312 47.7393C148.312 51.6293 145.165 54.7828 141.281 54.7828C137.398 54.7828 134.25 51.6293 134.25 47.7393C134.25 43.8493 137.398 40.6959 141.281 40.6959C145.165 40.6959 148.312 43.8493 148.312 47.7393Z" fill="#145B3C"/>
<path d="M147.312 47.7398C147.312 44.4005 144.611 41.6959 141.281 41.6959C137.952 41.6959 135.25 44.4005 135.25 47.7398C135.25 51.079 137.952 53.7828 141.281 53.7828V54.7828C137.519 54.7828 134.447 51.8236 134.259 48.1021L134.25 47.7393C134.25 43.8493 137.398 40.6959 141.281 40.6959C145.165 40.6959 148.312 43.8493 148.312 47.7393L148.304 48.1021C148.115 51.8236 145.043 54.7828 141.281 54.7828V53.7828C144.61 53.7828 147.312 51.079 147.312 47.7398Z" fill="#145B3C"/>
<path d="M25.6562 61.9571C27.3131 61.9571 28.6562 63.3003 28.6562 64.9571C28.6562 66.6139 27.313 67.9571 25.6562 67.9571H9.25C7.5932 67.9571 6.25009 66.6139 6.25 64.9571C6.25 63.3003 7.59315 61.9571 9.25 61.9571H25.6562ZM25.6562 45.5226C27.3131 45.5226 28.6562 46.8657 28.6562 48.5226C28.656 50.1792 27.313 51.5226 25.6562 51.5226H3C1.34327 51.5226 0.000205885 50.1792 0 48.5226C0 46.8657 1.34315 45.5226 3 45.5226H25.6562ZM25.6562 28.3048C27.3131 28.3048 28.6562 29.6479 28.6562 31.3048C28.6562 32.9616 27.3131 34.3048 25.6562 34.3048H9.25C7.59315 34.3048 6.25 32.9616 6.25 31.3048C6.25 29.6479 7.59315 28.3048 9.25 28.3048H25.6562Z" fill="#145B3C"/>
</svg>
