<svg width="200" height="200" viewBox="0 0 200 200" fill="none" xmlns="http://www.w3.org/2000/svg">
<path d="M80.2691 36.4559L68.2622 41.1648C67.0591 41.6366 65.7023 41.4982 64.6193 40.7931L55.9007 35.1168C54.3358 34.098 52.2741 34.2975 50.9336 35.5975L35.7742 50.2985C34.3352 51.694 34.1513 53.9392 35.3441 55.5502L41.5641 63.9511C42.4249 65.1136 42.5909 66.6503 41.9984 67.9698L36.4868 80.2438C35.9022 81.5457 34.6683 82.4375 33.2487 82.5841L22.5891 83.6849C20.5499 83.8955 19 85.6137 19 87.6637V110.432C19 112.319 20.3183 113.949 22.1633 114.343L32.9178 116.644C34.2039 116.919 35.2725 117.809 35.7762 119.024L40.9217 131.438C41.4747 132.772 41.2656 134.3 40.3745 135.437L33.7382 143.902C32.4892 145.496 32.6274 147.771 34.0602 149.201L50.2705 165.384C51.6483 166.759 53.8163 166.943 55.4059 165.819L64.4832 159.4C65.6373 158.584 67.1363 158.437 68.4265 159.015L80.6962 164.506C82.0448 165.109 82.9509 166.407 83.0528 167.881L83.7709 178.276C83.9158 180.373 85.6592 182 87.7614 182H111.212C113.266 182 114.987 180.443 115.192 178.399L116.307 167.267C116.452 165.817 117.374 164.561 118.714 163.988L130.546 158.925C131.776 158.399 133.187 158.522 134.306 159.253L144.548 165.938C146.168 166.995 148.311 166.743 149.64 165.338L164.589 149.537C165.852 148.202 166.043 146.177 165.05 144.629L158.777 134.843C158.05 133.71 157.942 132.287 158.49 131.058L163.623 119.528C164.147 118.351 165.206 117.498 166.468 117.238L177.809 114.895C179.667 114.511 181 112.875 181 110.978V88.5648C181 86.6174 179.598 84.9531 177.678 84.6227L166.564 82.7098C165.248 82.4832 164.132 81.6147 163.588 80.3946L158.562 69.1039C157.975 67.7867 158.143 66.2557 159.001 65.0969L165.312 56.5733C166.467 55.0129 166.335 52.848 164.999 51.4396L149.158 34.7478C147.79 33.306 145.57 33.0877 143.947 34.2353L134.975 40.5798C133.806 41.4067 132.283 41.5453 130.984 40.9429L119.015 35.3958C117.824 34.8435 116.979 33.7415 116.756 32.4474L114.834 21.3192C114.503 19.4012 112.839 18 110.892 18H89.0384C87.1228 18 85.4761 19.3581 85.1115 21.2387L82.7356 33.4934C82.4749 34.838 81.5443 35.9558 80.2691 36.4559Z" fill="#145B3C"/>
<path d="M18.5 110.432V87.6641C18.5 85.3578 20.244 83.4244 22.5381 83.1875L33.1973 82.0869C34.4393 81.9586 35.5187 81.1781 36.0303 80.0391L41.542 67.7646C42.0603 66.6102 41.9151 65.2662 41.1621 64.249L34.9424 55.8477C33.6005 54.0353 33.807 51.5094 35.4258 49.9395L50.5859 35.2383C52.0941 33.7761 54.4134 33.5521 56.1738 34.6982L64.8926 40.374C65.8401 40.9908 67.0275 41.112 68.0801 40.6992L80.0869 35.9902C81.2024 35.5526 82.017 34.5748 82.2451 33.3984L84.6211 21.1436C85.0313 19.028 86.8832 17.5001 89.0381 17.5H110.893C113.082 17.5002 114.954 19.0767 115.326 21.2344L117.248 32.3623C117.444 33.4947 118.183 34.4592 119.226 34.9424L131.194 40.4893C132.331 41.0161 133.663 40.8953 134.687 40.1719L143.659 33.8271C145.485 32.5364 147.981 32.7816 149.521 34.4033L165.361 51.0957C166.865 52.6801 167.014 55.1156 165.714 56.8711L159.403 65.3945C158.653 66.4085 158.505 67.7478 159.019 68.9004L164.045 80.1914C164.52 81.259 165.498 82.0186 166.649 82.2168L177.764 84.1299C179.922 84.5016 181.5 86.3739 181.5 88.5645V110.978C181.5 113.112 180 114.953 177.91 115.385L166.569 117.728C165.465 117.956 164.539 118.701 164.08 119.731L158.946 131.261C158.467 132.337 158.562 133.582 159.197 134.573L165.472 144.359C166.588 146.1 166.373 148.378 164.952 149.881L150.004 165.682C148.509 167.262 146.097 167.546 144.275 166.357L134.033 159.672C133.054 159.032 131.819 158.925 130.743 159.385L118.91 164.447C117.738 164.949 116.932 166.048 116.805 167.316L115.689 178.448C115.459 180.748 113.523 182.5 111.212 182.5H87.7617C85.397 182.5 83.4357 180.67 83.2725 178.311L82.5537 167.915C82.4645 166.626 81.672 165.49 80.4922 164.962L68.2227 159.471C67.0938 158.966 65.7813 159.095 64.7715 159.809L55.6943 166.227C53.906 167.491 51.467 167.285 49.917 165.737L33.707 149.555C32.0952 147.946 31.9396 145.386 33.3447 143.594L39.9814 135.129C40.7611 134.134 40.9439 132.796 40.46 131.629L35.3145 119.215C34.8738 118.152 33.9386 117.374 32.8135 117.133L22.0586 114.832C19.9831 114.388 18.5 112.554 18.5 110.432ZM19.5 110.432C19.5 112.082 20.6534 113.509 22.2676 113.854L33.0225 116.155C34.4692 116.465 35.6717 117.465 36.2383 118.832L41.3838 131.246C42.0059 132.747 41.77 134.466 40.7676 135.745L34.1318 144.211C33.0391 145.605 33.1598 147.595 34.4131 148.847L50.624 165.029C51.8296 166.233 53.7263 166.394 55.1172 165.41L64.1943 158.991C65.4927 158.073 67.1795 157.909 68.6309 158.559L80.9004 164.049C82.4176 164.728 83.4372 166.188 83.5518 167.847L84.2695 178.241C84.3963 180.076 85.9223 181.5 87.7617 181.5H111.212C113.01 181.5 114.515 180.137 114.694 178.349L115.81 167.217C115.973 165.586 117.01 164.173 118.517 163.528L130.35 158.466C131.732 157.874 133.32 158.012 134.579 158.834L144.821 165.52C146.238 166.444 148.114 166.223 149.277 164.994L164.226 149.193C165.331 148.025 165.498 146.254 164.63 144.899L158.355 135.113C157.538 133.838 157.417 132.238 158.033 130.854L163.166 119.324C163.756 118 164.948 117.041 166.367 116.748L177.708 114.405C179.334 114.069 180.5 112.638 180.5 110.978V88.5645C180.5 86.8607 179.273 85.4043 177.594 85.1152L166.479 83.2021C164.999 82.9473 163.743 81.9703 163.132 80.5977L158.104 69.3076C157.445 67.8258 157.634 66.1035 158.6 64.7998L164.91 56.2754C165.921 54.91 165.805 53.0164 164.636 51.7842L148.796 35.0918C147.599 33.8302 145.656 33.6395 144.236 34.6436L135.264 40.9883C133.948 41.9185 132.235 42.0741 130.773 41.3965L118.805 35.8496C117.464 35.2283 116.514 33.988 116.263 32.5322L114.341 21.4043C114.051 19.7262 112.596 18.5002 110.893 18.5H89.0381C87.3621 18.5001 85.9215 19.6886 85.6025 21.334L83.2266 33.5889C82.9332 35.1013 81.8863 36.3582 80.4521 36.9209L68.4443 41.6299C67.091 42.1606 65.5649 42.0051 64.3467 41.2119L55.6279 35.5361C54.2586 34.6446 52.4542 34.8186 51.2812 35.9561L36.1221 50.6572C34.8629 51.8783 34.7024 53.8433 35.7461 55.2529L41.9658 63.6533C42.9342 64.9612 43.1207 66.6903 42.4541 68.1748L36.9434 80.4482C36.2857 81.9129 34.8968 82.9161 33.2998 83.0811L22.6406 84.1826C20.8563 84.3669 19.5 85.8703 19.5 87.6641V110.432Z" fill="#145B3C"/>
<path d="M145.634 99.9999C145.634 125.16 125.203 145.555 100 145.555C74.7972 145.555 54.3662 125.16 54.3662 99.9999C54.3662 74.8403 74.7972 54.4443 100 54.4443C125.203 54.4443 145.634 74.8403 145.634 99.9999Z" fill="#F0EFEB"/>
<path d="M144.634 99.9999C144.634 75.3942 124.652 55.4443 100 55.4443C75.3478 55.4443 55.3662 75.3942 55.3662 99.9999C55.3663 124.606 75.3479 144.555 100 144.555V145.555L98.8223 145.541C74.5552 144.927 54.9957 125.401 54.3809 101.176L54.3662 99.9999C54.3662 74.8403 74.7972 54.4443 100 54.4443C125.203 54.4443 145.634 74.8403 145.634 99.9999L145.619 101.176C144.994 125.792 124.809 145.555 100 145.555V144.555C124.652 144.555 144.634 124.606 144.634 99.9999Z" fill="#F0EFEB"/>
<path d="M95.1257 132.799V127.757C93.568 127.375 92.1807 126.897 91.0476 126.387C90.3613 126.078 89.4542 125.632 88.5564 125.11C87.7549 124.643 86.5595 123.889 85.5984 122.905C84.2402 121.514 83.0703 119.694 82.281 118.307C81.8615 117.57 81.4851 116.84 81.1843 116.19C80.9468 115.676 80.5655 114.813 80.3738 113.958C79.7098 110.993 81.5747 108.052 84.5388 107.388C87.406 106.746 90.251 108.47 91.0349 111.266C91.0591 111.326 91.1014 111.428 91.1677 111.572C91.325 111.912 91.5571 112.367 91.8416 112.867C92.4357 113.911 93.0335 114.754 93.4216 115.169C93.4405 115.184 93.4698 115.207 93.5125 115.238C93.6481 115.334 93.8415 115.458 94.0886 115.602C94.5882 115.893 95.1437 116.168 95.5642 116.357C96.7416 116.887 99.1322 117.563 101.867 117.611C104.368 117.654 106.736 117.168 108.657 115.993C111.014 112.627 110.413 109.273 108.133 107.042L107.909 106.833C107.905 106.835 107.616 106.622 106.755 106.254C105.864 105.874 104.717 105.472 103.282 105.006C100.577 104.129 96.8223 103.029 93.4363 101.656C90.0905 100.299 86.2538 98.3606 83.5212 95.3286C80.4771 91.9509 79.0486 87.4637 80.4197 82.2104C81.6375 77.5449 84.8468 74.403 88.4675 72.5522C90.5498 71.488 92.8256 70.8113 95.1257 70.4438V67.1997C95.1257 64.1621 97.5882 61.6997 100.626 61.6997C103.663 61.6998 106.126 64.1622 106.126 67.1997V70.8403C107.874 71.2412 109.569 71.804 111.143 72.5347C114.462 74.0751 117.887 76.6766 119.445 80.7046C120.541 83.5375 119.132 86.722 116.3 87.8179C113.467 88.9136 110.282 87.506 109.186 84.6733C109.04 84.2949 108.409 83.3933 106.511 82.5122C104.697 81.6701 102.289 81.1331 99.7839 81.1001C97.2627 81.0669 95.038 81.548 93.4744 82.3472C91.9938 83.1039 91.3205 84.0029 91.0632 84.9888C90.6781 86.4645 90.9873 87.1822 91.6921 87.9644C92.7087 89.0923 94.6316 90.27 97.571 91.4624C100.47 92.6385 103.528 93.5227 106.676 94.5435C108.166 95.0269 109.706 95.5528 111.076 96.1382C112.365 96.6889 113.958 97.4759 115.257 98.645C122.222 104.916 123.303 115.135 116.992 123.219C116.551 123.784 116.022 124.289 115.424 124.708C112.449 126.786 109.208 127.859 106.126 128.322V132.799C106.126 135.837 103.663 138.299 100.626 138.299C97.5882 138.299 95.1257 135.837 95.1257 132.799Z" fill="#145B3C"/>
</svg>
