<svg width="200" height="200" viewBox="0 0 200 200" fill="none" xmlns="http://www.w3.org/2000/svg">
<path d="M156.312 62.3481H44.1328C43.5805 62.3481 43.1328 62.7959 43.1328 63.3481V135.986C43.1328 136.538 43.5805 136.986 44.1328 136.986H149.28C149.75 136.986 150.157 136.658 150.257 136.198L157.29 103.757C157.305 103.688 157.312 103.617 157.312 103.545V63.3481C157.312 62.7959 156.865 62.3481 156.312 62.3481Z" fill="#145B3C" stroke="#145B3C" stroke-width="3"/>
<path d="M134.785 72.4932H64.9608C64.4616 72.4932 64.0401 72.8635 63.9616 73.3566C62.8071 80.6066 60.2963 83.217 52.7254 84.0027C52.2072 84.0564 51.8047 84.4887 51.8047 85.0097V115.053C51.8047 115.572 52.2052 116.004 52.7217 116.06C60.0677 116.87 62.6275 119.634 63.2966 127.353C63.3422 127.878 63.7774 128.29 64.3046 128.29H136.216C136.712 128.29 137.131 127.927 137.212 127.438C138.561 119.344 141.277 116.132 148.705 113.317C149.098 113.168 149.363 112.793 149.363 112.372V85.7635C149.363 85.2305 148.943 84.7926 148.412 84.7546C140.072 84.1577 137.254 81.3345 135.779 73.3283C135.69 72.8474 135.274 72.4932 134.785 72.4932Z" fill="#EFEFEB" stroke="#145B3C" stroke-width="2"/>
<path d="M155.473 117.843H134.828C133.988 117.843 133.522 116.871 134.048 116.216L177.71 61.8351C178.392 60.9856 179.748 61.6846 179.452 62.7331L169.137 99.2478C168.956 99.886 169.436 100.52 170.099 100.52H189.929C190.766 100.52 191.232 101.486 190.712 102.142L149.291 154.303C148.619 155.149 147.269 154.476 147.54 153.43L156.441 119.093C156.605 118.46 156.127 117.843 155.473 117.843Z" fill="#145B3C" stroke="#EFEFEB" stroke-width="2"/>
<path d="M100.223 75.8911C113.116 75.8911 123.57 86.3722 123.57 99.3042C123.57 112.236 113.116 122.717 100.223 122.717C87.3294 122.717 76.875 112.236 76.875 99.3042C76.875 86.3722 87.3294 75.8911 100.223 75.8911Z" fill="#145B3C" stroke="#145B3C"/>
<path d="M108.847 89.7432C106.893 84.8757 94.1613 84.0034 92.4705 90.2464C90.4573 97.6798 104.469 98.3776 107.277 100.814C109.987 103.165 110.507 106.953 107.968 110.169C107.86 110.307 107.728 110.428 107.581 110.524C104.342 112.642 100.127 112.203 97.707 111.441C96.5615 111.08 94.7452 110.066 94.0208 109.108C93.2454 108.083 92.5647 106.755 92.4705 106.35M101.001 81.1885C101.001 81.1885 101.001 84.4544 101.001 85.8407M101.001 112.042V117.42" stroke="#EFEFEB" stroke-width="4" stroke-linecap="round" stroke-linejoin="round"/>
<path d="M65.5352 96.1812C68.8496 96.1812 71.5389 98.8757 71.5391 102.203C71.5391 105.53 68.8497 108.225 65.5352 108.225C62.2206 108.225 59.5312 105.53 59.5312 102.203C59.5314 98.8757 62.2207 96.1812 65.5352 96.1812Z" fill="#145B3C" stroke="#145B3C"/>
<path d="M134.91 96.1812C138.225 96.1812 140.914 98.8757 140.914 102.203C140.914 105.53 138.225 108.225 134.91 108.225C131.596 108.225 128.906 105.53 128.906 102.203C128.906 98.8757 131.596 96.1812 134.91 96.1812Z" fill="#145B3C" stroke="#145B3C"/>
<path d="M12.7812 86.9858H27.957M7 102.928H27.957M27.957 118.145H12.7812" stroke="#145B3C" stroke-width="6" stroke-linecap="round"/>
</svg>
