<svg width="200" height="200" viewBox="0 0 200 200" fill="none" xmlns="http://www.w3.org/2000/svg">
<path d="M129.403 105.978C129.4 106.528 128.953 106.972 128.403 106.972L41.4636 106.972H27.9927C27.8493 106.972 27.7107 107.003 27.581 107.064C25.544 108.021 24.7523 108.851 24.2376 110.879C24.218 110.956 24.2084 111.036 24.2084 111.116V135.373C24.2084 135.592 24.2803 135.806 24.4145 135.979C25.752 137.704 26.8444 138.801 29.2957 140.679C29.469 140.812 29.6817 140.884 29.9 140.884H42.4645C42.9249 140.884 43.3264 140.564 43.4409 140.118C47.1096 125.828 53.3402 119.618 64.6688 119.617C75.9736 119.617 83.6067 125.743 85.9555 140.025C86.0361 140.514 86.4569 140.884 86.9532 140.884H134.063C134.538 140.884 134.947 140.548 135.05 140.084C137.663 128.289 144.131 119.483 155.705 119.617C168.422 119.765 176.703 126.773 178.221 139.971C178.281 140.485 178.712 140.884 179.229 140.884H186.374C186.552 140.884 186.726 140.837 186.879 140.746C189.626 139.107 190.694 137.819 191.901 135.341C191.967 135.207 192 135.059 192 134.909V96.3655C192 96.1614 191.938 95.9621 191.821 95.7945L166.496 59.3842C166.442 59.3064 166.377 59.2361 166.303 59.1769C164.466 57.709 163.287 57.1442 161.214 56.4449L161.211 56.4438C161.11 56.4101 161.004 56.3931 160.897 56.3931L129.698 56.4449L129.403 105.978Z" fill="#639233"/>
<path d="M28.3749 38.0005C22.4565 37.9092 21.1788 51.6879 28.3749 51.7948C35.5709 51.9018 43.441 51.7112 46.8186 51.7949C50.1963 51.8787 50.2418 62.2218 46.8186 62.1407C43.3954 62.0597 12.3732 62.2656 9.3333 62.1407C6.29341 62.0158 6.15187 74.0802 9.3333 74.2108C12.5147 74.3414 45.7003 74.9085 50.3887 74.7856C55.0771 74.6626 55.0363 84.9939 50.3887 85.1314C45.7411 85.2689 22.1888 85.1717 20.0434 85.1314C17.898 85.091 17.1398 96.5977 20.0434 96.6267C22.947 96.6557 37.8936 96.6267 41.4636 96.6267C45.0336 96.6267 45.6286 106.972 41.4636 106.972L128.403 106.972C128.953 106.972 129.4 106.528 129.403 105.978L129.698 56.4449L133.286 56.4389C133.838 56.438 134.284 55.9905 134.284 55.4389V42.7952C134.284 42.6654 134.259 42.5358 134.209 42.4162C133.122 39.8422 132.004 38.9726 129.698 38.068C129.584 38.0231 129.52 38.0005 129.397 38.0007C125.52 38.0043 34.1676 38.0898 28.3749 38.0005Z" fill="#8EB534"/>
<path d="M129.698 56.4449L129.403 105.978C129.4 106.528 128.953 106.972 128.403 106.972L41.4636 106.972M129.698 56.4449L160.897 56.3931M129.698 56.4449L133.286 56.4389C133.838 56.438 134.284 55.9905 134.284 55.4389V42.7952M41.4636 106.972C45.6286 106.972 45.0336 96.6267 41.4636 96.6267C37.8936 96.6267 22.947 96.6557 20.0434 96.6267C17.1398 96.5977 17.898 85.091 20.0434 85.1314C22.1888 85.1717 45.7411 85.2689 50.3887 85.1314C55.0363 84.9939 55.0771 74.6626 50.3887 74.7856C45.7003 74.9085 12.5147 74.3414 9.3333 74.2108C6.15187 74.0802 6.29341 62.0158 9.3333 62.1407C12.3732 62.2656 43.3954 62.0597 46.8186 62.1407C50.2418 62.2218 50.1963 51.8787 46.8186 51.7949C43.441 51.7112 35.5709 51.9018 28.3749 51.7948C21.1788 51.6879 22.4565 37.9092 28.3749 38.0005C34.1676 38.0898 125.52 38.0043 129.397 38.0007M41.4636 106.972H27.9927M41.4636 106.972C37.6679 106.972 29.4248 106.972 27.9927 106.972M134.063 140.884H86.9532M134.063 140.884C134.538 140.884 134.947 140.548 135.05 140.084M134.063 140.884V140.884C134.538 140.884 134.947 140.548 135.05 140.084V140.084M86.9532 140.884C86.4569 140.884 86.0361 140.514 85.9555 140.025M86.9532 140.884V140.884C86.4569 140.884 86.0361 140.514 85.9555 140.025V140.025M85.9555 140.025C83.6067 125.743 75.9736 119.617 64.6688 119.617C53.3402 119.618 47.1096 125.828 43.4409 140.118M43.4409 140.118C43.3264 140.564 42.9249 140.884 42.4645 140.884M43.4409 140.118V140.118C43.3264 140.564 42.9249 140.884 42.4645 140.884V140.884M42.4645 140.884H29.9M29.9 140.884C29.6817 140.884 29.469 140.812 29.2957 140.679M29.9 140.884V140.884C29.6817 140.884 29.469 140.812 29.2957 140.679V140.679M29.2957 140.679C26.8444 138.801 25.752 137.704 24.4145 135.979M24.4145 135.979C24.2803 135.806 24.2084 135.592 24.2084 135.373M24.4145 135.979V135.979C24.2803 135.806 24.2084 135.592 24.2084 135.373V135.373M24.2084 135.373V111.116M24.2084 111.116C24.2084 111.036 24.218 110.956 24.2376 110.879M24.2084 111.116V111.116C24.2084 111.036 24.218 110.956 24.2376 110.879V110.879M24.2376 110.879C24.7523 108.851 25.544 108.021 27.581 107.064M27.581 107.064C27.7107 107.003 27.8493 106.972 27.9927 106.972M27.581 107.064C27.582 107.063 27.5831 107.063 27.5841 107.062C27.7119 107.002 27.8515 106.972 27.9927 106.972V106.972M129.397 38.0007C129.52 38.0005 129.584 38.0231 129.698 38.068M129.397 38.0007V38.0007C129.481 38.0006 129.565 38.0159 129.643 38.0463C129.661 38.0536 129.68 38.0608 129.698 38.068M129.698 38.068C132.004 38.9726 133.122 39.8422 134.209 42.4162M134.209 42.4162C134.259 42.5358 134.284 42.6654 134.284 42.7952M134.209 42.4162V42.4162C134.259 42.5358 134.284 42.6654 134.284 42.7952V42.7952M160.897 56.3931H160.9C161.006 56.3931 161.111 56.41 161.211 56.4438V56.4438M160.897 56.3931C161.004 56.3931 161.11 56.4101 161.211 56.4438M166.303 59.1769C164.466 57.709 163.287 57.1442 161.214 56.4449L161.211 56.4438M166.303 59.1769C166.377 59.2361 166.442 59.3064 166.496 59.3842M166.303 59.1769V59.1769C166.377 59.2361 166.442 59.3064 166.496 59.3842V59.3842M166.496 59.3842L191.821 95.7945M191.821 95.7945C191.938 95.9621 192 96.1614 192 96.3655M191.821 95.7945V95.7945C191.938 95.9621 192 96.1614 192 96.3655V96.3655M192 96.3655V134.909M192 134.909C192 135.059 191.967 135.207 191.901 135.341M192 134.909V134.909C192 135.059 191.967 135.207 191.901 135.341V135.341M191.901 135.341C190.694 137.819 189.626 139.107 186.879 140.746M186.879 140.746C186.726 140.837 186.552 140.884 186.374 140.884M186.879 140.746V140.746C186.726 140.837 186.552 140.884 186.374 140.884V140.884M186.374 140.884H179.229M179.229 140.884C178.712 140.884 178.281 140.485 178.221 139.971M179.229 140.884V140.884C178.712 140.884 178.281 140.485 178.221 139.971V139.971M178.221 139.971C176.703 126.773 168.422 119.765 155.705 119.617C144.131 119.483 137.663 128.289 135.05 140.084" stroke="white" stroke-linecap="round"/>
<path d="M136 90.5888V65C136 64.4477 136.448 64 137 64H160.475C160.798 64 161.102 64.1565 161.289 64.4202L179.501 90.0089C179.972 90.671 179.499 91.5888 178.686 91.5888L137 91.5888C136.448 91.5888 136 91.1411 136 90.5888Z" fill="white" stroke="white" stroke-linecap="round"/>
<path d="M157.376 120.808C167.388 120.808 175.297 128.618 175.297 138C175.297 147.381 167.388 155.191 157.376 155.191C147.364 155.191 139.456 147.381 139.456 138C139.456 128.618 147.364 120.808 157.376 120.808Z" fill="#3B4452" stroke="#EDECE9" stroke-width="7"/>
<path d="M65.1147 120.309C75.1269 120.309 83.0355 128.119 83.0356 137.5C83.0356 146.881 75.127 154.691 65.1147 154.691C55.1027 154.691 47.1948 146.881 47.1948 137.5C47.1949 128.119 55.1027 120.309 65.1147 120.309Z" fill="#495468" stroke="#EDECE9" stroke-width="7"/>
</svg>
