<svg width="201" height="131" viewBox="0 0 201 131" fill="none" xmlns="http://www.w3.org/2000/svg">
<path d="M132.828 73.7978C132.824 74.3477 132.378 74.7918 131.828 74.7918L37.7583 74.7918H23.1951C23.0402 74.7918 22.8903 74.8246 22.75 74.8903C20.5479 75.9214 19.6921 76.8156 19.1355 78.9992C19.1143 79.0824 19.104 79.1689 19.104 79.2547V105.383C19.104 105.619 19.1818 105.849 19.3268 106.036C20.7728 107.894 21.9537 109.075 24.6038 111.099C24.7911 111.242 25.0211 111.319 25.2571 111.319H38.8403C39.3381 111.319 39.7721 110.974 39.8959 110.494C43.8621 95.1021 50.5979 88.4122 62.845 88.4119C75.0664 88.4116 83.3184 95.0099 85.8577 110.393C85.9448 110.921 86.3997 111.319 86.9363 111.319H137.866C138.38 111.319 138.821 110.957 138.933 110.457C141.758 97.7527 148.75 88.2676 161.262 88.4119C175.011 88.5706 183.963 96.1194 185.605 110.335C185.669 110.889 186.134 111.319 186.694 111.319H194.419C194.61 111.319 194.799 111.268 194.964 111.17C197.934 109.405 199.088 108.017 200.394 105.348C200.464 105.204 200.5 105.044 200.5 104.883V63.3667C200.5 63.1468 200.433 62.9322 200.307 62.7517L172.929 23.5331C172.87 23.4493 172.8 23.3735 172.719 23.3098C170.734 21.7287 169.46 21.1203 167.218 20.3671L167.215 20.3659C167.106 20.3296 166.991 20.3112 166.876 20.3112L133.147 20.3671L132.828 73.7978Z" fill="#639233"/>
<path d="M23.6083 0.500054C17.2101 0.401719 15.8288 15.2432 23.6083 15.3584C31.3878 15.4736 39.896 15.2683 43.5475 15.3585C47.199 15.4487 47.2483 26.5895 43.5475 26.5022C39.8467 26.4149 6.30919 26.6367 3.02282 26.5022C-0.263554 26.3677 -0.416571 39.3625 3.02282 39.5033C6.4622 39.644 42.3384 40.2548 47.407 40.1224C52.4756 39.9899 52.4314 51.118 47.407 51.2661C42.3826 51.4142 16.9206 51.3095 14.6013 51.2661C12.282 51.2227 11.4623 63.6168 14.6013 63.648C17.7403 63.6793 33.8988 63.648 37.7583 63.648C41.6178 63.648 42.261 74.7918 37.7583 74.7918L131.828 74.7918C132.378 74.7918 132.824 74.3477 132.828 73.7978L133.147 20.3671L137.107 20.3605C137.658 20.3596 138.105 19.9121 138.105 19.3605V5.66465C138.105 5.52483 138.078 5.38516 138.023 5.25634C136.849 2.48382 135.639 1.5472 133.147 0.572771C133.023 0.524455 132.955 0.500144 132.822 0.500269C128.63 0.504223 29.8707 0.5963 23.6083 0.500054Z" fill="#8EB534"/>
<path d="M161.268 87.9117C168.232 87.992 174.033 89.9466 178.305 93.7281C182.445 97.3925 185.1 102.729 186.018 109.607L186.101 110.278L186.125 110.39C186.203 110.642 186.434 110.819 186.694 110.819H194.418C194.522 110.819 194.623 110.791 194.708 110.74C196.169 109.872 197.156 109.113 197.934 108.261C198.615 107.516 199.151 106.682 199.705 105.605L199.945 105.128C199.981 105.054 200 104.97 200 104.883V63.3668C200 63.2494 199.964 63.1344 199.897 63.0377L172.519 23.8189C172.488 23.7741 172.449 23.7339 172.408 23.7007C170.475 22.1624 169.255 21.5795 167.059 20.8414L167.056 20.8404C166.999 20.8215 166.937 20.8111 166.875 20.8111L133.643 20.8658L133.327 73.8003C133.323 74.6253 132.652 75.2916 131.827 75.2916H23.1947C23.1121 75.2916 23.035 75.3093 22.9622 75.3433C21.8828 75.8487 21.1903 76.2951 20.6986 76.8453C20.2127 77.3891 19.8875 78.0747 19.6204 79.1226C19.6101 79.1634 19.6039 79.2082 19.6038 79.2544V105.383C19.6039 105.509 19.6456 105.631 19.721 105.728C20.959 107.319 21.9935 108.4 23.9896 109.987L24.9076 110.701L24.9857 110.752C25.0682 110.795 25.1614 110.819 25.2572 110.819H38.8402C39.1046 110.819 39.3433 110.633 39.4115 110.369C41.4045 102.634 44.1112 97.0109 47.9173 93.3218C51.7408 89.6161 56.6219 87.9118 62.8451 87.9117C69.0479 87.9116 74.2979 89.5879 78.3197 93.2642C82.2107 96.821 84.8978 102.201 86.2269 109.59L86.3509 110.312L86.3783 110.418C86.4628 110.655 86.6869 110.819 86.9359 110.819H137.867C138.141 110.819 138.383 110.624 138.445 110.349C139.869 103.945 142.353 98.3041 146.099 94.2759C149.858 90.2338 154.868 87.8378 161.268 87.9117ZM137.605 5.66461C137.605 5.58959 137.59 5.51663 137.563 5.45172C136.992 4.10316 136.43 3.24522 135.741 2.60797C135.048 1.96829 134.19 1.51762 132.965 1.03863C132.923 1.02198 132.899 1.014 132.885 1.00933C132.865 1.00389 132.845 1.00055 132.823 1.00054C128.636 1.00449 29.8715 1.09589 23.6009 0.999567C22.2233 0.978394 21.0784 1.75371 20.2328 3.03863C19.384 4.32844 18.8744 6.08693 18.7913 7.87261C18.7083 9.65984 19.0553 11.4153 19.8529 12.7125C20.6373 13.9881 21.8593 14.8319 23.6156 14.858C27.4992 14.9155 31.5664 14.8934 35.1224 14.8677C38.6725 14.8421 41.7238 14.8136 43.5599 14.8589C44.7692 14.8889 45.5803 15.8342 46.0667 16.9498C46.5622 18.0863 46.8018 19.5575 46.805 20.9957C46.8082 22.433 46.5754 23.8956 46.0794 25.0132C45.5905 26.1148 44.7652 27.0315 43.5355 27.0025C41.6934 26.9591 32.3958 26.9923 23.1312 27.0201C13.8844 27.0478 4.65997 27.0694 3.00228 27.0015C2.77826 26.9924 2.54997 27.0872 2.30795 27.3531C2.05859 27.627 1.82416 28.0548 1.62435 28.6226C1.22601 29.7548 1.00969 31.3122 1.00033 32.9029C0.991009 34.4929 1.18894 36.0665 1.58334 37.233C1.781 37.8174 2.01805 38.2703 2.27865 38.5718C2.53385 38.8671 2.78777 38.993 3.0433 39.0035C6.47765 39.144 42.341 39.7546 47.3939 39.6226C48.8795 39.5838 49.9776 40.3836 50.6781 41.525C51.3692 42.6514 51.6946 44.1332 51.6917 45.5904C51.6888 47.0485 51.3572 48.5429 50.6693 49.6998C49.9755 50.8664 48.8928 51.7226 47.4222 51.7662C42.3858 51.9146 16.9153 51.8097 14.5921 51.7662C14.5478 51.7653 14.4156 51.7918 14.2142 52.0748C14.0204 52.3471 13.8293 52.7702 13.6595 53.3248C13.3221 54.4272 13.1043 55.9273 13.054 57.4459C13.0037 58.9668 13.1229 60.4608 13.432 61.5582C13.5871 62.1089 13.7807 62.5241 13.9954 62.7925C14.2021 63.0508 14.4024 63.1458 14.6058 63.148C17.7415 63.1793 33.894 63.148 37.7581 63.148C39.0006 63.148 39.8974 64.0484 40.4652 65.1617C41.0399 66.2888 41.3521 67.7595 41.3939 69.2056C41.4356 70.6498 41.2093 72.1306 40.6497 73.271C40.4644 73.6487 40.2366 73.9951 39.9671 74.2916H131.827C132.102 74.2916 132.326 74.0695 132.327 73.7945L132.65 19.8677L137.112 19.8599C137.385 19.8564 137.605 19.6346 137.605 19.3609V5.66461ZM138.605 19.3609C138.605 19.5351 138.573 19.7014 138.518 19.857L166.875 19.8111C166.88 19.8111 166.885 19.811 166.89 19.8111L167.01 19.816C167.13 19.8256 167.249 19.8497 167.364 19.8882C167.365 19.8887 167.367 19.8887 167.368 19.8892C167.37 19.8897 167.371 19.8907 167.372 19.8912L167.374 19.8921L167.377 19.8931L168.194 20.1773C170.007 20.8354 171.247 21.4981 173.031 22.9185C173.034 22.921 173.037 22.9238 173.04 22.9263C173.129 22.9973 173.209 23.0784 173.279 23.1666C173.3 23.1928 173.32 23.2192 173.339 23.2466L200.717 62.4654L200.73 62.4849L200.792 62.5816C200.928 62.8118 201 63.0747 201 63.3433V104.9C201 105.124 200.951 105.347 200.851 105.551C200.848 105.557 200.846 105.563 200.843 105.568C200.18 106.924 199.54 107.985 198.672 108.935C197.804 109.885 196.728 110.703 195.219 111.6C195.212 111.604 195.205 111.608 195.199 111.612C194.968 111.749 194.706 111.819 194.442 111.819H186.619C185.84 111.819 185.203 111.225 185.117 110.465C185.114 110.441 185.111 110.416 185.108 110.392C184.298 103.379 181.692 98.0614 177.642 94.4761C173.59 90.8898 168.04 88.99 161.256 88.9117C155.145 88.8412 150.403 91.1163 146.831 94.9566C143.247 98.8111 140.821 104.266 139.42 110.566C139.416 110.587 139.411 110.608 139.407 110.628C139.254 111.317 138.647 111.819 137.933 111.819H86.8656C86.1195 111.819 85.4952 111.272 85.3763 110.545C85.3724 110.522 85.3685 110.498 85.3646 110.474C84.1066 102.853 81.4445 97.4758 77.6449 94.0025C73.8505 90.534 68.8634 88.9116 62.8451 88.9117C56.8212 88.9118 52.2103 90.5536 48.6126 94.0406C44.9978 97.5444 42.3533 102.962 40.3802 110.619C40.3747 110.64 40.3691 110.662 40.3636 110.683C40.1931 111.347 39.5959 111.819 38.9046 111.819H25.2288C24.9027 111.819 24.5837 111.712 24.3226 111.513C24.3151 111.508 24.3076 111.501 24.3001 111.496C21.623 109.452 20.4091 108.241 18.932 106.342C18.9267 106.336 18.9216 106.329 18.9163 106.322C18.7122 106.059 18.6038 105.736 18.6038 105.408V79.2457C18.6039 79.1266 18.6183 79.0052 18.6488 78.8853C18.6496 78.8821 18.6499 78.8787 18.6507 78.8755C18.9401 77.7401 19.3209 76.8862 19.9525 76.1793C20.5783 75.4788 21.4159 74.9627 22.5384 74.4371C22.544 74.4345 22.5495 74.4318 22.555 74.4293C22.7529 74.3368 22.9668 74.2916 23.18 74.2916H37.7581C38.6297 74.2916 39.2907 73.7692 39.7513 72.8306C40.2169 71.8816 40.4326 70.5756 40.3939 69.2339C40.3552 67.8945 40.0651 66.579 39.5746 65.6168C39.0769 64.6408 38.4453 64.148 37.7581 64.148C33.9028 64.148 17.7383 64.1793 14.596 64.148C14.015 64.1421 13.5543 63.8426 13.2142 63.4175C12.8822 63.0024 12.6432 62.4443 12.4701 61.8296C12.1225 60.5958 12.0029 58.9884 12.055 57.4127C12.1072 55.8343 12.333 54.242 12.7035 53.0318C12.8876 52.4301 13.1171 51.8919 13.3997 51.4947C13.6749 51.1081 14.0752 50.7561 14.6107 50.7662C16.9276 50.8096 42.3789 50.9139 47.3919 50.7662C48.4332 50.7355 49.2408 50.1451 49.8099 49.188C50.3848 48.2211 50.689 46.914 50.6917 45.5884C50.6944 44.2617 50.3946 42.9759 49.8255 42.0484C49.2657 41.1361 48.4687 40.5953 47.4203 40.6226C42.3359 40.7555 6.44691 40.1434 3.00228 40.0025C2.39803 39.9777 1.9037 39.6679 1.52182 39.2261C1.14531 38.7906 0.856382 38.2047 0.636074 37.5533C0.194785 36.2481 -0.00939421 34.5558 0.000331372 32.897C0.0100946 31.2384 0.233928 29.5624 0.680995 28.2916C0.903896 27.658 1.19418 27.0917 1.56869 26.6802C1.9506 26.2607 2.44577 25.978 3.0433 26.0025C4.67206 26.0692 13.8596 26.0478 23.1283 26.0201C32.3782 25.9924 41.6989 25.9587 43.5589 26.0025C44.1795 26.0171 44.7368 25.5734 45.1654 24.608C45.5868 23.6584 45.808 22.3457 45.805 20.9976C45.802 19.6505 45.5747 18.325 45.1497 17.3502C44.7157 16.3545 44.1516 15.8734 43.5355 15.858C41.72 15.8131 38.6909 15.842 35.1292 15.8677C31.5735 15.8934 27.4967 15.9157 23.6009 15.858C21.4676 15.8264 19.945 14.7722 19.0003 13.2359C18.0691 11.7211 17.7028 9.75075 17.7923 7.82574C17.882 5.899 18.4312 3.95768 19.3978 2.48883C20.3675 1.01545 21.7945 -0.0272827 23.6156 0.000543874C26.744 0.0486256 52.9968 0.0491398 78.9915 0.0376532L132.822 0.000543874L132.935 0.00542669C132.941 0.00599209 132.947 0.00769653 132.953 0.00835637C132.977 0.0107109 132.999 0.0146274 133.021 0.018122C133.038 0.0208742 133.055 0.0234447 133.072 0.0269111C133.092 0.0311626 133.111 0.0355124 133.13 0.0405829C133.155 0.0468403 133.178 0.0542888 133.202 0.0620673C133.219 0.0674413 133.235 0.0729267 133.25 0.0786689C133.256 0.0807746 133.262 0.0813584 133.268 0.0835517C133.288 0.0914559 133.309 0.0990838 133.329 0.106989C134.596 0.602309 135.59 1.10748 136.418 1.87261C137.146 2.54448 137.72 3.39212 138.256 4.54742L138.484 5.06109L138.49 5.07574C138.567 5.25966 138.605 5.45561 138.605 5.64996V19.3609Z" fill="white"/>
<path d="M139.96 57.2216V29.5049C139.96 28.9526 140.408 28.5049 140.96 28.5049H166.462C166.785 28.5049 167.088 28.6609 167.275 28.9236L187.074 56.6403C187.547 57.3022 187.074 58.2216 186.26 58.2216L140.96 58.2216C140.408 58.2216 139.96 57.7739 139.96 57.2216Z" fill="white"/>
<path d="M166.462 28.0049C166.946 28.0049 167.401 28.2387 167.682 28.6328L187.481 56.3496C188.19 57.3423 187.48 58.7215 186.261 58.7217H140.96C140.131 58.7217 139.46 58.0501 139.46 57.2217V29.5049C139.46 28.6765 140.131 28.0049 140.96 28.0049H166.462ZM140.46 57.2217C140.46 57.4978 140.684 57.7217 140.96 57.7217H186.261C186.667 57.7215 186.903 57.2615 186.667 56.9307L166.869 29.2139C166.775 29.0825 166.623 29.0049 166.462 29.0049H140.96C140.684 29.0049 140.46 29.2288 140.46 29.5049V57.2217Z" fill="white"/>
<path d="M186.226 108.212C186.226 120.521 175.858 130.5 163.069 130.5C150.28 130.5 139.912 120.521 139.912 108.212C139.912 95.9033 150.28 85.9248 163.069 85.9248C175.858 85.9248 186.226 95.9033 186.226 108.212Z" fill="#3B4452"/>
<path d="M179.225 108.212C179.225 100.019 172.247 92.9249 163.069 92.9248C153.891 92.9248 146.912 100.019 146.912 108.212C146.912 116.405 153.891 123.5 163.069 123.5L163.069 130.5L162.471 130.492C149.958 130.187 139.912 120.329 139.912 108.212C139.912 95.9033 150.28 85.9248 163.069 85.9248L163.667 85.9317C176.18 86.2369 186.226 96.0958 186.226 108.212C186.226 120.521 175.858 130.5 163.069 130.5L163.069 123.5C172.247 123.5 179.225 116.405 179.225 108.212Z" fill="#EDECE9"/>
<path d="M86.4843 107.674C86.4843 119.983 76.1166 129.961 63.3273 129.961C50.5381 129.961 40.1704 119.983 40.1704 107.674C40.1704 95.3648 50.5381 85.3863 63.3273 85.3863C76.1166 85.3863 86.4843 95.3648 86.4843 107.674Z" fill="#495468"/>
<path d="M79.4838 107.673C79.4836 99.4807 72.5055 92.3865 63.3276 92.3863C54.1496 92.3863 47.1706 99.4806 47.1704 107.673C47.1704 115.866 54.1494 122.962 63.3276 122.962L63.3273 129.961L62.7299 129.954C50.2168 129.649 40.1704 119.791 40.1704 107.674C40.1704 95.3648 50.5381 85.3863 63.3273 85.3863L63.9253 85.3932C76.438 85.6984 86.4841 95.5574 86.4843 107.674C86.4843 119.983 76.1166 129.961 63.3273 129.961L63.3276 122.962C72.5056 122.961 79.4838 115.866 79.4838 107.673Z" fill="#EDECE9"/>
</svg>
