<svg width="200" height="200" viewBox="0 0 200 200" fill="none" xmlns="http://www.w3.org/2000/svg">
<path d="M80.158 91.7672V62.4795C80.158 61.3749 81.0534 60.4795 82.158 60.4795H119.211C120.315 60.4795 121.211 61.3749 121.211 62.4795V91.7672C121.211 92.8717 120.315 93.7672 119.211 93.7672H82.158C81.0534 93.7672 80.158 92.8717 80.158 91.7672Z" fill="#145B3C" stroke="#145B3C" stroke-linecap="round" stroke-linejoin="round"/>
<path d="M98.1885 7.62988C99.1123 6.65874 100.622 6.59763 101.619 7.44727L101.812 7.62988L151.109 59.4551C152.623 61.0471 151.495 63.6775 149.298 63.6777H50.7021C48.5738 63.6775 47.4485 61.2091 48.7568 59.6074L48.8906 59.4551L98.1885 7.62988Z" fill="#145B3C" stroke="#145B3C"/>
<path d="M118.08 128.493C113.609 118.555 84.4775 116.774 80.6088 129.52C76.0025 144.697 108.062 146.121 114.488 151.096C120.791 155.975 121.916 163.886 115.776 170.52C115.717 170.583 115.649 170.64 115.575 170.685C105.937 176.616 92.2461 173.383 88.908 171.348C88.412 171.046 87.6463 170.721 87.1047 170.511C84.5114 169.506 80.9436 163.682 80.6088 162.397M100.127 111.027C100.127 111.027 100.127 117.695 100.127 120.526M100.127 174.019V185" stroke="#145B3C" stroke-width="11" stroke-linecap="round" stroke-linejoin="round"/>
</svg>
