<svg width="200" height="200" viewBox="0 0 200 200" fill="none" xmlns="http://www.w3.org/2000/svg">
<path d="M80.1577 91.7669V62.4793C80.1577 61.3747 81.0532 60.4793 82.1577 60.4793H119.21C120.315 60.4793 121.21 61.3747 121.21 62.4793V91.7669C121.21 92.8715 120.315 93.7669 119.21 93.7669H82.1577C81.0532 93.7669 80.1577 92.8715 80.1577 91.7669Z" fill="#145B3C"/>
<path d="M120.71 62.4793C120.71 61.6509 120.039 60.9793 119.21 60.9793H82.1577C81.3293 60.9793 80.6577 61.6508 80.6577 62.4793V91.7673L80.6655 91.9207C80.7425 92.6769 81.3812 93.2673 82.1577 93.2673H119.21C120.039 93.2673 120.71 92.5955 120.71 91.7673V62.4793ZM121.71 91.7673C121.71 93.1478 120.591 94.2673 119.21 94.2673H82.1577C80.8632 94.2673 79.7983 93.283 79.6704 92.0222L79.6577 91.7673V62.4793C79.6577 61.0985 80.777 59.9793 82.1577 59.9793H119.21C120.591 59.9793 121.71 61.0986 121.71 62.4793V91.7673Z" fill="#145B3C"/>
<path d="M97.8261 7.28489C99.0086 6.04175 100.991 6.04176 102.173 7.28489L151.471 59.1102C153.288 61.0206 151.934 64.1778 149.297 64.1778H50.7023C48.0655 64.1778 46.7113 61.0206 48.5286 59.1102L97.8261 7.28489Z" fill="#145B3C"/>
<path d="M97.8261 7.28489C99.0086 6.04175 100.991 6.04176 102.173 7.28489L151.471 59.1102C153.231 60.9609 152.016 63.9816 149.541 64.1687L149.297 64.1778L149.298 63.1775C151.055 63.1772 151.958 61.0731 150.747 59.7996L101.449 7.97438C100.661 7.14562 99.3389 7.14562 98.5505 7.97438L49.2527 59.7996C48.0417 61.0731 48.9445 63.1772 50.7019 63.1775L50.7023 64.1778C48.148 64.1776 46.7974 61.2147 48.3679 59.2927L48.5286 59.1102L97.8261 7.28489ZM149.298 63.1775L149.297 64.1778H50.7023L50.7019 63.1775H149.298Z" fill="#145B3C"/>
<path d="M94.6275 185V178.893C93.6449 178.715 92.7146 178.51 91.8501 178.288C89.6815 177.729 87.5655 176.971 86.0454 176.045C86.075 176.063 86.0646 176.055 86.0005 176.022C85.9406 175.992 85.8587 175.952 85.7564 175.906C85.5487 175.812 85.3184 175.718 85.1167 175.639C83.385 174.968 82.0201 173.759 81.145 172.881C80.1736 171.905 79.2872 170.8 78.5503 169.779C77.8051 168.747 77.1391 167.699 76.6187 166.784C76.21 166.065 75.5745 164.889 75.2866 163.784C74.5209 160.844 76.2827 157.841 79.2222 157.075C82.0575 156.336 84.9516 157.95 85.8403 160.703C85.8426 160.708 85.8456 160.713 85.8482 160.719C85.9102 160.849 86.0192 161.062 86.1812 161.347C86.5048 161.917 86.9555 162.629 87.4683 163.34C87.9893 164.061 88.5027 164.68 88.94 165.119C89.1383 165.318 89.2711 165.428 89.3364 165.48C89.9534 165.726 90.9441 166.149 91.77 166.652C91.77 166.652 91.8375 166.692 91.9917 166.764C92.1412 166.834 92.343 166.92 92.5991 167.017C93.1142 167.212 93.7856 167.428 94.5923 167.636C96.21 168.052 98.2364 168.403 100.439 168.528C104.576 168.763 108.801 168.177 112.154 166.313C113.996 164.133 114.454 162.156 114.32 160.634C114.173 158.969 113.252 157.095 111.121 155.445C111.118 155.443 111.077 155.412 110.987 155.358C110.892 155.301 110.758 155.227 110.579 155.139C110.213 154.96 109.726 154.755 109.101 154.525C107.837 154.061 106.253 153.586 104.358 153.057C100.719 152.043 95.9411 150.841 91.6001 149.327C87.3347 147.839 82.6105 145.772 79.2583 142.574C77.5102 140.906 75.9916 138.796 75.2085 136.175C74.4139 133.514 74.4957 130.721 75.3452 127.923C76.9952 122.487 81.3241 119.163 85.7798 117.326C88.5285 116.193 91.5604 115.513 94.6275 115.202V111.027C94.6275 107.99 97.0899 105.527 100.127 105.527C103.165 105.527 105.627 107.99 105.627 111.027V115.568C108.366 116.024 111.025 116.756 113.428 117.768C117.213 119.363 121.198 122.018 123.095 126.236C124.341 129.006 123.106 132.262 120.336 133.509C117.566 134.755 114.31 133.52 113.064 130.75C112.817 130.2 111.817 129.026 109.159 127.906C106.65 126.849 103.368 126.155 99.9146 126.021C96.1499 125.876 92.6032 126.411 89.9722 127.496C87.3362 128.583 86.2341 129.924 85.8716 131.118C85.5696 132.113 85.6465 132.684 85.7485 133.026C85.8622 133.407 86.142 133.938 86.8521 134.615C88.4163 136.107 91.2455 137.553 95.2222 138.94C99.1234 140.301 103.277 141.337 107.313 142.463C109.255 143.004 111.194 143.575 112.895 144.2C114.503 144.791 116.36 145.59 117.854 146.747C122.026 149.976 124.82 154.497 125.277 159.666C125.736 164.868 123.763 169.987 119.812 174.256C119.418 174.682 118.962 175.058 118.458 175.369C114.37 177.884 109.857 179.036 105.627 179.421V185C105.627 188.037 103.165 190.5 100.127 190.5C97.0899 190.5 94.6275 188.037 94.6275 185Z" fill="#145B3C"/>
</svg>
