<svg width="200" height="200" viewBox="0 0 200 200" fill="none" xmlns="http://www.w3.org/2000/svg">
<path d="M190 100C190 149.706 149.706 190 100 190C50.2944 190 10 149.706 10 100C10 50.2944 50.2944 10 100 10C149.706 10 190 50.2944 190 100Z" fill="#8F98AA"/>
<path d="M183 100C183 54.1604 145.84 17 100 17C54.1604 17 17 54.1604 17 100C17 145.84 54.1604 183 100 183V190C50.2944 190 10 149.706 10 100C10 50.2944 50.2944 10 100 10C149.706 10 190 50.2944 190 100C190 149.706 149.706 190 100 190V183C145.84 183 183 145.84 183 100Z" fill="#3B4452"/>
<path d="M162.69 100.621C162.69 134.9 134.9 162.69 100.621 162.69C66.341 162.69 38.5518 134.9 38.5518 100.621C38.5518 66.341 66.341 38.5518 100.621 38.5518C134.9 38.5518 162.69 66.341 162.69 100.621Z" fill="#8F98AA"/>
<path d="M155.69 100.621C155.69 70.2075 131.035 45.552 100.621 45.5518C70.2074 45.5518 45.5518 70.2074 45.5518 100.621C45.552 131.035 70.2075 155.69 100.621 155.69L100.621 162.69L99.8185 162.685C66.1754 162.259 38.9827 135.066 38.5566 101.423L38.5518 100.621C38.5518 66.341 66.341 38.5518 100.621 38.5518L101.423 38.5566C135.333 38.9861 162.69 66.6087 162.69 100.621L162.685 101.423C162.255 135.333 134.633 162.689 100.621 162.69L100.621 155.69C131.035 155.689 155.689 131.035 155.69 100.621Z" fill="#3B4452"/>
<path d="M125.586 148.652C116.711 139.005 110.245 132.47 102.89 125.371C94.8909 133.386 88.8278 139.365 78.0762 149.695C77.4429 150.304 76.4762 150.437 75.7087 150.01L71.0238 147.404C69.803 146.725 69.6435 145.029 70.6939 144.108C81.9593 134.232 87.3136 126.929 94.7841 117.632C93.6893 116.594 92.5599 115.525 91.3883 114.415C90.8109 113.869 89.9614 113.719 89.2199 114.005C84.397 115.869 81.0882 115.948 75.4862 114.947C75.1925 114.894 74.9125 114.774 74.6717 114.598C66.056 108.294 59.3086 101.726 54.0449 95.2424C48.7066 88.6666 56.1441 83.7392 61.7426 89.1525L73.9741 100.98C74.216 101.213 74.509 101.383 74.8369 101.458C77.1058 101.981 77.7623 101.354 77.8356 99.4129C77.8547 98.908 77.6443 98.4275 77.2925 98.0649C74.9214 95.6207 65.4923 85.8374 62.4424 81.7092C58.9433 76.9729 66.641 72.236 70.1402 75.6193L85.8004 90.7619C86.0887 91.0406 86.4468 91.2238 86.8443 91.2763C89.2865 91.5991 90.2104 90.9875 90.3977 88.6598C90.4418 88.1118 90.2159 87.5881 89.8217 87.2049C87.5091 84.9565 79.2273 76.8645 75.0387 72.236C70.1402 66.823 77.8379 62.0865 82.0367 66.1461C86.1797 70.1517 94.6409 77.6219 102.705 86.1032C102.919 86.3282 103.079 86.6035 103.166 86.9013C105.33 94.2703 104.724 98.3592 100.576 104.024C99.9921 104.822 100.043 105.941 100.717 106.664C101.295 107.285 101.858 107.888 102.407 108.475C103.237 107.521 104.101 106.54 105.006 105.531C105.087 105.44 105.163 105.338 105.227 105.234C116.928 86.0979 124.029 74.4185 128.537 70.9167C129.163 70.4301 130.036 70.5155 130.591 71.0817C133.825 74.378 133.764 78.6825 133.821 83.7392C133.905 91.1 131.333 96.2508 126.823 101.332C120.311 107.86 115.17 113.031 110.812 117.414C121.376 128.551 124.941 131.852 134.393 141.378C135.242 142.234 135.151 143.648 134.192 144.379L128.277 148.891C127.454 149.519 126.287 149.414 125.586 148.652Z" fill="#F4EADA"/>
<path d="M74.8298 65.2358C76.8399 63.7552 80.0898 63.568 82.3845 65.7866C86.5029 69.7684 94.996 77.269 103.068 85.7583C103.336 86.0401 103.536 86.3854 103.646 86.7603C104.737 90.4761 105.147 93.4216 104.732 96.1763C104.316 98.9365 103.08 101.451 100.979 104.32C100.533 104.93 100.577 105.782 101.083 106.324C101.529 106.802 101.966 107.271 102.394 107.73C103.114 106.906 103.859 106.061 104.634 105.197C104.695 105.128 104.752 105.051 104.8 104.973C110.648 95.4088 115.354 87.6958 119.162 81.937C122.956 76.1991 125.901 72.3317 128.23 70.522C129.07 69.8699 130.226 69.9962 130.948 70.7319C134.349 74.1989 134.264 78.7362 134.321 83.7339C134.407 91.2465 131.768 96.5132 127.197 101.665C127.191 101.672 127.184 101.678 127.177 101.685C120.835 108.042 115.794 113.112 111.51 117.42C121.811 128.272 125.39 131.593 134.748 141.025C135.808 142.093 135.696 143.861 134.495 144.777L128.58 149.289C127.551 150.074 126.093 149.942 125.219 148.991C116.493 139.506 110.097 133.035 102.894 126.073C95.0637 133.916 89.0199 139.873 78.4226 150.055C77.6339 150.813 76.4286 150.982 75.4656 150.447L70.781 147.841C69.2496 146.989 69.0608 144.874 70.364 143.732C81.4454 134.017 86.7789 126.812 94.1062 117.678C93.1162 116.74 92.0975 115.775 91.0447 114.779C90.6137 114.371 89.9698 114.251 89.4001 114.471C86.9523 115.417 84.8683 115.918 82.6755 116.049C80.4882 116.18 78.2156 115.942 75.3982 115.439C75.0292 115.373 74.6785 115.222 74.3767 115.001C65.7275 108.673 58.9487 102.076 53.657 95.5571C52.2699 93.8484 51.6708 92.1952 51.7087 90.7427C51.7469 89.282 52.4293 88.0753 53.4978 87.2974C55.6331 85.743 59.1621 85.9618 62.0906 88.7935L74.322 100.621C74.5052 100.798 74.7188 100.918 74.949 100.971C76.0764 101.231 76.6025 101.147 76.864 100.957C77.1148 100.773 77.2993 100.357 77.3357 99.394C77.349 99.043 77.2029 98.6905 76.9333 98.4126C74.5743 95.9808 65.1147 86.1684 62.0398 82.0063C61.0811 80.7085 60.8675 79.3683 61.1941 78.1538C61.5157 76.9578 62.3461 75.9373 63.3796 75.2104C65.414 73.7799 68.5001 73.3381 70.488 75.2603L86.1482 90.4028C86.3654 90.6128 86.6267 90.7433 86.9099 90.7808C88.117 90.9403 88.7835 90.8381 89.1746 90.5562C89.5469 90.2875 89.8083 89.7494 89.8992 88.6196C89.9298 88.2384 89.7745 87.8557 89.4734 87.563C87.164 85.3178 78.8692 77.2145 74.6677 72.5718C73.3746 71.1429 72.8642 69.7002 72.9773 68.3872C73.0902 67.0777 73.8168 65.9821 74.8298 65.2358ZM94.8337 118.369C87.5446 127.458 82.1553 134.725 71.0232 144.484C70.2256 145.183 70.3572 146.461 71.2673 146.967L75.9519 149.574C76.5238 149.892 77.2524 149.794 77.7302 149.334C88.3174 139.162 94.3551 133.211 102.176 125.377C99.8559 123.141 97.4429 120.843 94.8337 118.369ZM103.601 125.365C110.813 132.335 117.219 138.819 125.954 148.314C126.481 148.886 127.357 148.964 127.973 148.494L133.888 143.982C134.605 143.435 134.677 142.374 134.038 141.73C124.699 132.318 121.1 128.975 110.803 118.129C108.16 120.787 105.805 123.156 103.601 125.365ZM102.422 109.222C99.8159 112.234 97.5537 114.989 95.4617 117.587C98.099 120.089 100.538 122.41 102.882 124.669C105.094 122.452 107.46 120.075 110.116 117.404C107.896 115.061 105.369 112.375 102.422 109.222ZM81.6892 66.5054C79.7853 64.6646 77.0865 64.8157 75.4226 66.0415C74.5987 66.6485 74.0573 67.499 73.9734 68.4731C73.8898 69.4437 74.2539 70.6234 75.4099 71.9009C79.5857 76.5152 87.8547 84.5946 90.1707 86.8462C90.6577 87.3198 90.9537 87.9851 90.8962 88.6997C90.7999 89.8974 90.5053 90.8293 89.7585 91.3677C89.0303 91.8925 88.0138 91.9351 86.7791 91.772C86.2674 91.7044 85.8121 91.4689 85.4529 91.1216L69.7927 75.979C68.2816 74.5179 65.7694 74.7527 63.9548 76.0288C63.064 76.6553 62.4069 77.4952 62.1599 78.4136C61.9179 79.3135 62.0538 80.3424 62.8445 81.4126C65.8692 85.5067 75.2669 95.2586 77.6511 97.7163C78.0851 98.1637 78.3606 98.7735 78.3357 99.4321C78.2987 100.41 78.1177 101.278 77.4548 101.763C76.8023 102.24 75.8651 102.209 74.7244 101.946C74.2993 101.848 73.927 101.63 73.6267 101.339L61.3953 89.5122C58.7253 86.9305 55.7352 86.906 54.0867 88.106C53.2636 88.7051 52.7378 89.625 52.7078 90.7681C52.6777 91.9196 53.1515 93.3482 54.4333 94.9272C59.6691 101.377 66.3844 107.915 74.9666 114.195C75.1462 114.326 75.3558 114.416 75.574 114.455C78.3584 114.952 80.5418 115.175 82.615 115.051C84.6827 114.927 86.665 114.456 89.0398 113.539C89.9532 113.186 91.0086 113.367 91.7322 114.052C92.7642 115.029 93.7633 115.976 94.7351 116.897C96.8358 114.288 99.1113 111.518 101.735 108.488C101.284 108.004 100.822 107.511 100.351 107.005C99.5086 106.102 99.4513 104.714 100.173 103.729C102.22 100.933 103.361 98.5696 103.744 96.0269C104.128 93.4788 103.759 90.6953 102.686 87.0425C102.622 86.8219 102.503 86.6157 102.344 86.4478C94.2868 77.9746 85.857 70.535 81.6892 66.5054ZM130.234 71.4321C129.845 71.0356 129.257 70.991 128.844 71.312C126.665 73.0043 123.806 76.7273 119.997 82.4878C116.201 88.2281 111.506 95.923 105.653 105.495C105.574 105.625 105.479 105.752 105.378 105.865C104.582 106.753 103.818 107.618 103.081 108.463C106.048 111.639 108.59 114.34 110.821 116.695C115.099 112.392 120.133 107.329 126.463 100.985C130.901 95.9781 133.403 90.946 133.321 83.7446C133.263 78.6292 133.301 74.5577 130.234 71.4321Z" fill="#3B4452"/>
<path d="M95 119C95.3333 118.5 96.2 117.7 95 116.5L101.5 109C102.278 109.732 102.722 109.737 103.5 109L111 116C109.856 117.246 109.813 118.316 111 119L104.5 125.5C102.662 123.465 102.238 124.777 101.5 125.5L95 119Z" fill="#F4EADA"/>
<path d="M101.843 108.636C102.221 108.991 102.402 109.051 102.501 109.051C102.598 109.051 102.779 108.994 103.156 108.637L103.498 108.313L103.841 108.635L111.341 115.635L111.704 115.973L111.368 116.338C110.828 116.927 110.63 117.39 110.626 117.716C110.623 117.991 110.761 118.285 111.25 118.566L111.814 118.893L104.481 126.226L104.129 125.835C103.687 125.346 103.366 125.099 103.14 124.988C102.933 124.887 102.83 124.908 102.767 124.933C102.671 124.969 102.558 125.058 102.395 125.241C102.264 125.388 102.045 125.666 101.85 125.857L101.496 126.204L101.146 125.854L94.3564 119.063L94.584 118.723C94.6339 118.648 94.6929 118.569 94.7432 118.501C94.7964 118.429 94.8464 118.361 94.8936 118.29C94.9887 118.147 95.0576 118.016 95.0918 117.886C95.1238 117.764 95.1277 117.634 95.0781 117.482C95.0264 117.324 94.9067 117.114 94.6465 116.854L94.3174 116.524L101.463 108.279L101.843 108.636ZM103.484 109.669C103.185 109.895 102.863 110.052 102.499 110.051C102.152 110.05 101.844 109.906 101.557 109.697L95.6621 116.498C95.8325 116.721 95.9543 116.945 96.0283 117.171C96.1432 117.522 96.1349 117.849 96.0586 118.14C95.9844 118.422 95.8492 118.659 95.7256 118.845C95.702 118.88 95.6756 118.912 95.6523 118.945L101.479 124.772C101.53 124.713 101.584 124.647 101.648 124.575C101.829 124.373 102.076 124.126 102.408 123.999C102.773 123.859 103.167 123.888 103.58 124.091C103.87 124.233 104.175 124.462 104.507 124.785L110.235 119.057C109.846 118.694 109.62 118.242 109.626 117.705C109.632 117.145 109.894 116.584 110.312 116.042L103.484 109.669Z" fill="#F4EADA"/>
</svg>
