<svg width="200" height="200" viewBox="0 0 200 200" fill="none" xmlns="http://www.w3.org/2000/svg">
<circle cx="100" cy="100" r="86.5" fill="#8F98AA" stroke="#3B4452" stroke-width="7"/>
<circle cx="100.621" cy="100.621" r="58.569" fill="#8F98AA" stroke="#3B4452" stroke-width="7"/>
<path d="M125.586 148.652C116.711 139.005 110.245 132.47 102.89 125.371C94.8909 133.386 88.8278 139.365 78.0762 149.695C77.4429 150.304 76.4762 150.437 75.7087 150.01L71.0238 147.404C69.803 146.725 69.6435 145.029 70.6939 144.108C81.9593 134.232 87.3136 126.929 94.7841 117.632C93.6894 116.594 92.5599 115.525 91.3883 114.415C90.8109 113.869 89.9614 113.719 89.2199 114.005C84.397 115.869 81.0882 115.948 75.4862 114.947C75.1925 114.894 74.9125 114.774 74.6717 114.598C66.056 108.294 59.3086 101.726 54.0449 95.2424C48.7066 88.6666 56.1441 83.7392 61.7426 89.1525L73.9741 100.98C74.2159 101.213 74.5091 101.383 74.8369 101.458C77.1058 101.981 77.7623 101.354 77.8356 99.4129C77.8547 98.908 77.6443 98.4275 77.2925 98.0649C74.9214 95.6207 65.4923 85.8374 62.4424 81.7092C58.9433 76.9729 66.641 72.236 70.1402 75.6193L85.8004 90.7619C86.0887 91.0406 86.4468 91.2238 86.8443 91.2763C89.2865 91.5991 90.2104 90.9875 90.3977 88.6598C90.4418 88.1118 90.2159 87.5881 89.8217 87.2049C87.5091 84.9565 79.2273 76.8645 75.0387 72.236C70.1402 66.823 77.8379 62.0865 82.0366 66.1461C86.1797 70.1517 94.6409 77.6219 102.705 86.1032C102.919 86.3281 103.079 86.6035 103.166 86.9013C105.33 94.2703 104.724 98.3592 100.576 104.024C99.9921 104.822 100.043 105.941 100.717 106.664C101.295 107.285 101.858 107.888 102.407 108.475C103.237 107.521 104.101 106.54 105.006 105.531C105.087 105.44 105.163 105.338 105.227 105.234C116.928 86.0979 124.029 74.4185 128.537 70.9167C129.163 70.4301 130.036 70.5155 130.591 71.0817C133.825 74.378 133.764 78.6825 133.821 83.7392C133.905 91.1 131.333 96.2508 126.823 101.332C120.311 107.86 115.17 113.031 110.812 117.414C121.376 128.551 124.941 131.852 134.393 141.378C135.242 142.234 135.151 143.648 134.192 144.379L128.277 148.891C127.454 149.519 126.287 149.414 125.586 148.652Z" fill="#F4EADA" stroke="#3B4452" stroke-linecap="round" stroke-linejoin="round"/>
<path d="M95 119C95.3333 118.5 96.2 117.7 95 116.5L101.5 109C102.278 109.732 102.722 109.737 103.5 109L111 116C109.856 117.246 109.813 118.316 111 119L104.5 125.5C102.662 123.465 102.238 124.777 101.5 125.5L95 119Z" fill="#F4EADA" stroke="#F4EADA"/>
</svg>
