<svg width="200" height="200" viewBox="0 0 200 200" fill="none" xmlns="http://www.w3.org/2000/svg">
<path d="M129.142 73.5936H56.8395V56.8494C48.45 50.1354 44.2616 44.4605 44.4294 35.9192C44.6988 22.2023 56.9828 15.3744 75.1848 18.1285C88.7717 7.66464 96.6538 6.9227 111.336 18.1285C128.349 15.3978 138.843 20.8483 140.473 35.9192C141.465 45.1006 137.521 50.6024 129.142 56.8494V73.5936Z" fill="white" stroke="#77B3DE"/>
<path d="M112.953 130.872C94.1576 138.766 83.7766 137.652 65.4706 128.256C41.9077 133.151 25.0032 149.186 25.0032 158.081L25.0032 179.535C24.9736 185.949 24.9698 189.478 33.636 190H122.665C102.681 176.384 94.6606 158.828 112.953 130.872Z" fill="#77B3DE" stroke="white" stroke-linecap="round" stroke-linejoin="round"/>
<path d="M144.784 128.756C161.21 128.756 174.5 141.666 174.5 157.559C174.5 173.451 161.21 186.36 144.784 186.36C128.358 186.36 115.069 173.451 115.068 157.559C115.068 141.666 128.358 128.756 144.784 128.756Z" fill="#64B470" stroke="#77B3DE"/>
<path d="M129.676 158.081L139.577 167.683C140.368 168.449 141.63 168.432 142.4 167.644L160.432 149.186" stroke="#FDFDFC" stroke-width="8" stroke-linecap="round"/>
<mask id="path-5-inside-1_382_8" fill="white">
<path d="M128.676 83.7792C129.229 83.7792 129.677 84.2271 129.666 84.7792C129.441 95.6578 125.546 106.037 118.772 113.749C111.79 121.698 102.32 126.163 92.446 126.163C82.572 126.163 73.1023 121.698 66.1203 113.749C59.3456 106.037 55.4515 95.6578 55.2262 84.7792C55.2147 84.2271 55.6635 83.7792 56.2158 83.7792L92.446 83.7792H128.676Z"/>
</mask>
<path d="M128.676 83.7792C129.229 83.7792 129.677 84.2271 129.666 84.7792C129.441 95.6578 125.546 106.037 118.772 113.749C111.79 121.698 102.32 126.163 92.446 126.163C82.572 126.163 73.1023 121.698 66.1203 113.749C59.3456 106.037 55.4515 95.6578 55.2262 84.7792C55.2147 84.2271 55.6635 83.7792 56.2158 83.7792L92.446 83.7792H128.676Z" fill="#FDD090" stroke="white" stroke-width="2" mask="url(#path-5-inside-1_382_8)"/>
</svg>
