<svg width="168" height="201" viewBox="0 0 168 201" fill="none" xmlns="http://www.w3.org/2000/svg">
<path d="M116.444 71.1593H35.9477V52.5547C26.6073 45.0947 21.9443 38.7892 22.1311 29.2989C22.4311 14.0579 36.1073 6.47137 56.3721 9.53146C71.4989 -2.09507 80.2743 -2.91944 96.6203 9.53146C115.561 6.49736 127.245 12.5535 129.059 29.2989C130.164 39.5005 125.773 45.6136 116.444 52.5547V71.1593Z" fill="white"/>
<path d="M76.031 0.00270948C82.2882 -0.102382 88.637 2.84879 96.7527 9.00466C106.18 7.52383 113.899 8.27902 119.515 11.5662C125.2 14.8936 128.637 20.7575 129.556 29.2449C130.119 34.4365 129.284 38.6248 127.097 42.4002C124.952 46.1045 121.526 49.3738 116.944 52.8035V71.659H35.448V52.7937C30.8544 49.1077 27.3652 45.6682 25.0427 41.9529C22.6802 38.1735 21.5363 34.1286 21.6316 29.2888C21.785 21.4978 25.3704 15.627 31.5173 12.1179C37.5958 8.64812 46.1298 7.51371 56.2361 9.00662C63.738 3.26235 69.7799 0.107826 76.031 0.00270948ZM76.0476 1.00271C70.0894 1.1029 64.2232 4.12703 56.6765 9.92751L56.5075 10.0574L56.2976 10.0261C46.2312 8.50608 37.871 9.64167 32.0124 12.9861C26.1802 16.3155 22.7773 21.8588 22.6306 29.3084C22.5391 33.9588 23.6331 37.8127 25.8904 41.4236C28.156 45.0479 31.606 48.4472 36.2595 52.1638L36.448 52.3142V70.659H115.944V52.3035L116.145 52.1531C120.79 48.697 124.156 45.4826 126.231 41.8992C128.297 38.3323 129.105 34.3623 128.562 29.3523C127.668 21.0947 124.355 15.5579 119.009 12.4295C113.637 9.28535 106.117 8.51659 96.699 10.0252L96.488 10.0594L96.3171 9.92947C88.1687 3.72273 82.0023 0.902635 76.0476 1.00271Z" fill="#77B3DE"/>
<path d="M98.4203 134.802C77.4952 143.574 65.9377 142.335 45.5569 131.895C19.3237 137.334 0.503285 155.151 0.503224 165.035L0.503285 188.872C0.470298 195.999 0.466094 199.92 10.1145 200.5H109.233C86.9841 185.37 78.0551 165.864 98.4203 134.802Z" fill="#77B3DE"/>
<path d="M45.5397 131.395C45.6243 131.392 45.7088 131.411 45.7849 131.45C55.9538 136.659 63.8656 139.543 71.8161 140.054C79.7612 140.566 87.8011 138.712 98.2272 134.341C98.4298 134.257 98.6638 134.313 98.8044 134.482C98.9448 134.651 98.9588 134.892 98.8386 135.076C88.6966 150.545 85.9085 163.046 88.3337 173.513C90.7607 183.987 98.4369 192.554 109.514 200.087C109.696 200.21 109.775 200.437 109.711 200.647C109.646 200.857 109.452 201 109.233 201H10.1149C10.105 201 10.0946 200.999 10.0847 200.999C5.22319 200.707 2.58855 199.566 1.25263 197.404C0.596444 196.342 0.286902 195.081 0.137399 193.667C-0.0117405 192.255 -0.00459624 190.645 0.00361042 188.872V165.035C0.00362668 162.418 1.2416 159.351 3.44209 156.168C5.64996 152.974 8.85913 149.615 12.8806 146.407C20.9238 139.99 32.2593 134.142 45.4558 131.406L45.5397 131.395ZM1.00361 188.875C0.995329 190.664 0.989319 192.215 1.13154 193.561C1.27349 194.904 1.55958 195.997 2.1042 196.879C3.16911 198.602 5.35377 199.711 10.1306 200H107.635C97.1607 192.616 89.7679 184.135 87.3591 173.739C84.9212 163.217 87.6152 150.857 97.1364 135.871C87.3374 139.839 79.5261 141.553 71.7526 141.052C63.6404 140.53 55.6245 137.601 45.488 132.421C32.5241 135.138 21.3953 140.894 13.5046 147.189C9.54186 150.35 6.40607 153.639 4.26533 156.736C2.11735 159.843 1.00362 162.709 1.00361 165.035V188.875Z" fill="white"/>
<path d="M167.5 164.453C167.5 182.435 152.438 197.011 133.859 197.011C115.28 197.011 100.219 182.435 100.219 164.453C100.219 146.472 115.28 131.895 133.859 131.895C152.438 131.895 167.5 146.472 167.5 164.453Z" fill="#64B470"/>
<path d="M166.499 164.454C166.499 147.055 151.917 132.895 133.86 132.895C115.802 132.895 101.219 147.055 101.219 164.454C101.219 181.852 115.802 196.011 133.86 196.011L133.859 197.011L132.992 197.001C115.102 196.562 100.683 182.607 100.23 165.294L100.219 164.453C100.219 146.472 115.28 131.895 133.859 131.895L134.728 131.906C152.906 132.352 167.5 146.753 167.5 164.453L167.489 165.294C167.028 182.886 152.148 197.011 133.859 197.011L133.86 196.011C151.917 196.011 166.499 181.852 166.499 164.454Z" fill="#77B3DE"/>
<path d="M148.422 152.353C149.967 150.774 152.5 150.747 154.078 152.292C155.657 153.838 155.684 156.37 154.139 157.949L133.904 178.621C131.595 180.979 127.815 181.03 125.444 178.735L114.257 167.909C112.67 166.372 112.629 163.84 114.165 162.252C115.702 160.665 118.234 160.624 119.821 162.161L129.577 171.603L148.422 152.353Z" fill="#FDFDFC"/>
<path d="M116.039 82.4767C116.592 82.4767 117.04 82.9246 117.03 83.4768C116.803 95.6045 112.465 107.181 104.899 115.776C97.1256 124.608 86.5827 129.57 75.5896 129.57C64.5965 129.57 54.0536 124.608 46.2803 115.776C38.7147 107.181 34.3758 95.6045 34.1493 83.4768C34.139 82.9246 34.5877 82.4767 35.14 82.4767L116.039 82.4767Z" fill="#FDD090"/>
<path d="M116.142 82.4823C116.646 82.5337 117.039 82.9595 117.03 83.4768C116.803 95.6045 112.465 107.181 104.899 115.776C97.1256 124.608 86.5827 129.57 75.5896 129.57L75.5892 128.569C86.2729 128.569 96.5502 123.749 104.149 115.116C111.544 106.714 115.802 95.3766 116.029 83.4764H35.1497C35.3761 95.3767 39.6355 106.714 47.0306 115.116C54.629 123.749 64.9056 128.569 75.5892 128.569L75.5896 129.57C64.9401 129.57 54.7128 124.913 47.0169 116.593L46.2803 115.776C38.9512 107.449 34.6505 96.3251 34.1829 84.6122L34.1493 83.4768C34.1399 82.9594 34.5334 82.5337 35.0374 82.4823L35.14 82.4767L116.039 82.4767L116.142 82.4823Z" fill="white"/>
</svg>
