<svg width="200" height="200" viewBox="0 0 200 200" fill="none" xmlns="http://www.w3.org/2000/svg">
<rect width="200" height="200" fill="#F5C458"/>
<circle cx="100" cy="100" r="58.5938" fill="white"/>
<path d="M92.6191 74.7881C94.4785 74.7565 96.3444 75.2247 97.7588 76.2539C99.1898 77.2953 100.134 78.8965 100.134 81.04C100.134 85.003 100.012 89.9205 99.8896 93.8438C99.8385 95.487 99.7863 96.9568 99.7441 98.1104C101.092 96.0263 103.188 94.9302 105.32 94.9102C107.891 94.8861 110.414 96.427 111.645 99.4785C113.182 97.1998 115.601 96.1691 117.905 96.4395C120.292 96.7197 122.477 98.3851 123.397 101.327C125.321 99.4631 127.806 99.0582 129.905 99.876C132.244 100.787 134.021 103.182 134.021 106.543V120.213C133.83 127.212 131.792 132.49 127.37 138.088C122.575 144.159 115.068 146.53 107.637 146.217C100.211 145.904 92.7756 142.909 88.0479 138.13C83.4211 133.453 78.5718 128.473 74.5898 124.132C70.6253 119.81 67.4726 116.071 66.2852 113.896C64.9836 111.513 66.039 108.519 67.9512 106.516C69.8787 104.497 72.8754 103.266 75.7256 104.61C78.2899 105.82 80.6121 108.135 82.3223 110.187C83.0721 111.086 83.7107 111.946 84.2109 112.655C84.1622 111.89 84.1191 110.95 84.082 109.878C83.9901 107.222 83.9347 103.741 83.9248 100.077C83.905 92.7611 84.0661 84.6725 84.4883 80.9824C84.9544 76.9092 88.9434 74.8507 92.6191 74.7881ZM70.043 63.1562C71.031 62.1734 72.7153 61.6355 74.0605 62.6748C76.2371 64.3566 80.1788 68.1973 81.8721 70.4883C82.8792 71.8511 82.4692 73.4844 81.5703 74.4678C81.1167 74.9639 80.5094 75.3322 79.8369 75.4277C79.1494 75.5254 78.4336 75.3307 77.8135 74.7695C75.7851 72.9342 71.7832 69.4826 69.7676 67.2109C69.1735 66.5413 68.972 65.7744 69.0684 65.0391C69.1628 64.318 69.5378 63.6587 70.043 63.1562ZM110.82 62.7012C111.38 62.1919 112.132 62.0673 112.839 62.1592C113.548 62.2515 114.271 62.566 114.859 63.0215C115.446 63.4761 115.937 64.1011 116.12 64.8379C116.308 65.5958 116.156 66.4145 115.556 67.1865C114.508 68.533 112.974 70.1397 111.462 71.5537C109.955 72.9623 108.434 74.2137 107.41 74.8281C106.206 75.5507 104.704 75.1993 103.766 74.4014C103.287 73.9939 102.916 73.4414 102.802 72.7969C102.686 72.141 102.844 71.4422 103.333 70.7812C105.02 68.4991 109.139 64.2315 110.82 62.7012ZM92.3564 53.6055C93.1116 53.6373 93.8811 53.8771 94.4678 54.3291C95.0659 54.7899 95.4775 55.4787 95.4463 56.3506C95.3486 59.084 95.4463 64.0269 95.4463 66.8799C95.4461 67.7718 95.0119 68.4382 94.3857 68.8594C93.7772 69.2687 92.9987 69.4432 92.252 69.4297C91.5045 69.4161 90.7322 69.2138 90.1318 68.8027C89.5196 68.3835 89.0754 67.7343 89.0752 66.8799C89.0752 64.2634 88.9745 59.5221 89.0752 56.3164C89.1054 55.3586 89.5396 54.6428 90.1816 54.1895C90.8073 53.7478 91.6013 53.5737 92.3564 53.6055Z" fill="#57BFF5" stroke="black"/>
</svg>
