<svg height="359.988" id="eQtP70qKErU1"
     shape-rendering="geometricPrecision"
     style="max-height: 500px" text-rendering="geometricPrecision" viewBox="0 0 555.1313868613139 359.988"
     width="555.1313868613139"
     xmlns="http://www.w3.org/2000/svg">
  <style>
    .pulse {
      transform-origin: center;
      animation: pulseAnim 0.7s linear infinite forwards;
    }

    .rotate.right {
      animation: rotateRight 0.7s linear infinite forwards;
    }

    .rotate.left {
      animation: rotateLeft 0.7s linear infinite forwards;
    }

    @keyframes pulseAnim {
      0% {
        transform: translate(276.5px, 304.5px) scale(1, 1);
      }
      42.8% {
        transform: translate(276.5px, 304.5px) scale(1, 0.854361);
      }
      100% {
        transform: translate(276.5px, 304.5px) scale(1, 1.001645);
      }
    }

    @keyframes rotateRight {
      0% {
        transform: translate(446px, 306px) rotate(90deg);
      }
      25% {
        transform: translate(446px, 306px) rotate(180deg);
      }
      50% {
        transform: translate(446px, 306px) rotate(270deg);
      }
      100% {
        transform: translate(446px, 306px) rotate(360deg);
      }
    }

    @keyframes rotateLeft {
      0% {
        transform: translate(126px, 306px) rotate(90deg);
      }
      25% {
        transform: translate(126px, 306px) rotate(180deg);
      }
      50% {
        transform: translate(126px, 306px) rotate(270deg);
      }
      100% {
        transform: translate(126px, 306px) rotate(360deg);
      }
    }
  </style>
  <g class="pulse" id="eQtP70qKErU2_ts" transform="translate(276.5,304.5) scale(1,1)">
    <g transform="translate(-276.5,-304.5)">
      <path clip-rule="evenodd"
            d="M27,1h390.505c12.776.14035,25.126,1.89333,35.361,7.66954c10.257,5.78866,18.337,15.58726,22.617,31.70206L507.926,159.661c10.625,5.71,19.183,12.528,25.191,21.16c6.046,8.687,9.486,19.181,9.878,32.164v.01l.005.5v59.554c-.329-.032-.662-.049-1-.049h-531c-.3375,0-.6711.017-1,.049L10,18C10,8.61116,17.6112,1,27,1ZM542,304c.338,0,.671-.017,1-.049v.049h-1Z"
            fill="#f66471"
            fill-rule="evenodd"/>
      <rect fill="#ffc87b" height="26" rx="5" ry="5" transform="translate(517 218)" width="26"/>
      <rect fill="#df4368" height="16" rx="5" ry="5" transform="translate(374 186)" width="40"/>
      <rect fill="#ffc87b" height="131" rx="0" ry="0" transform="translate(303 55)" width="11"/>
      <rect fill="#ffc87b" height="131" rx="0" ry="0" transform="translate(68 55)" width="11"/>
      <g mask="url(#eQtP70qKErU14)">
        <g>
          <rect fill="#6f56ff" height="130" rx="0" ry="0" transform="translate(365 47)" width="122"/>
          <path d="M465.154,79.6223l9.833,4.9297-46.981,93.716-9.834-4.929l46.982-93.7167Z" fill="#a99aff"/>
          <path d="M423.019,45L436,51.4467L373.981,174L361,167.553L423.019,45Z" fill="#a99aff"/>
        </g>
        <mask height="400%" id="eQtP70qKErU14" width="400%" x="-150%" y="-150%">
          <path
            d="M374,72c0-9.3888,7.611-17,17-17h50.264c7.549,0,14.194,4.9782,16.315,12.2231l22.545,76.9999C483.311,155.107,475.149,166,463.809,166L391,166c-9.389,0-17-7.611-17-17v-77Z"
            fill="#6f56ff"/>
        </mask>
      </g>
      <rect fill="#656672" height="131" rx="0" ry="0" transform="translate(79 55)" width="224"/>
      <rect fill="#ffc87b" height="16" rx="5" ry="5" transform="translate(64 186)" width="254"/>
      <path
        d="M88.1429,88.3988C93.2138,92.4525,100.552,95,108.714,95c8.163,0,15.501-2.5475,20.572-6.6012v-33.3988h-41.1431v33.3988Z"
        fill="#ffb4ad"/>
      <path
        d="M129.286,88.3988C134.357,92.4525,141.695,95,149.857,95c8.163,0,15.501-2.5475,20.572-6.6012v-33.3988h-41.143v33.3988Z"
        fill="#ffe5e3"/>
      <path
        d="M170.429,88.3988C175.5,92.4525,182.838,95,191,95s15.501-2.5475,20.571-6.6012v-33.3988h-41.142v33.3988Z"
        fill="#ffb4ad"/>
      <path
        d="M88.1429,88.3988v-33.3988L47,55v33.3988C52.0709,92.4525,59.409,95,67.5714,95c8.1625,0,15.5006-2.5475,20.5715-6.6012Z"
        fill="#ffe5e3"/>
      <path
        d="M211.571,88.3988C216.642,92.4525,223.98,95,232.143,95c8.162,0,15.5-2.5475,20.571-6.6012v-33.3988h-41.143v33.3988Z"
        fill="#ffe5e3"/>
      <path
        d="M252.714,88.3988C257.785,92.4525,265.123,95,273.286,95c8.162,0,15.5-2.5475,20.571-6.6012v-33.3988h-41.143v33.3988Z"
        fill="#ffb4ad"/>
      <path
        d="M293.857,88.3988C298.928,92.4525,306.266,95,314.429,95c8.162,0,15.5-2.5475,20.571-6.6012L335,55h-41.143v33.3988Z"
        fill="#ffe5e3"/>
    </g>
  </g>
  <g>
    <path
      d="M27,304h515c.338,0,.671-.017,1-.049c5.053-.502,9-4.766,9-9.951v-11c0-5.185-3.947-9.449-9-9.951-.329-.032-.662-.049-1-.049h-531c-.3375,0-.6711.017-1,.049l-.02244.003C4.935,273.564,1,277.822,1,283v11c0,5.523,4.47716,10,10,10h16Z"
      fill="#df4368"/>
    <path
      d="M506,304c0-15.913-6.321-31.174-17.574-42.426C477.174,250.321,461.913,244,446,244s-31.174,6.321-42.426,17.574C392.321,272.826,386,288.087,386,304h9.038c1.051-27.24,23.465-49,50.962-49s49.911,21.76,50.961,49h9.039Z"
      fill="#df4368"/>
    <path
      d="M186,304c0-15.913-6.321-31.174-17.574-42.426C157.174,250.321,141.913,244,126,244s-31.1742,6.321-42.4264,17.574C72.3214,272.826,66,288.087,66,304h9.0385C76.0889,276.76,98.5032,255,126,255c27.497,0,49.911,21.76,50.962,49h9.038Z"
      fill="#df4368"/>
    <path
      d="M126,243.5c16.046,0,31.434,6.374,42.78,17.72l.529.535C180.324,273.047,186.5,288.205,186.5,304v.5h-9.024c.014.498.024.998.024,1.5c0,28.443-23.057,51.5-51.5,51.5-28.4427,0-51.5-23.057-51.5-51.5c0-.502.0102-1.002.0244-1.5h-9.0244v-.5l.0049-.752c.1958-15.774,6.5462-30.86,17.7148-42.028l.5352-.529C95.0471,249.676,110.205,243.5,126,243.5Zm320,0c16.046,0,31.434,6.374,42.78,17.72l.529.535C500.324,273.047,506.5,288.205,506.5,304v.5h-9.024c.014.498.024.998.024,1.5c0,28.443-23.057,51.5-51.5,51.5s-51.5-23.057-51.5-51.5c0-.502.01-1.002.024-1.5h-9.024v-.5c0-16.046,6.374-31.434,17.72-42.78l.535-.529C415.047,249.676,430.205,243.5,446,243.5Z"
      fill="none"
      stroke="#000"/>
    <path
      d="M497,306c0,28.167-22.833,51-51,51s-51-22.833-51-51c0-.67.013-1.337.038-2c1.051-27.24,23.465-49,50.962-49s49.911,21.76,50.961,49c.026.663.039,1.33.039,2Z"
      fill="#3f3f56"/>
    <path
      d="M177,306c0,28.167-22.833,51-51,51-28.1665,0-51-22.833-51-51c0-.67.0129-1.337.0385-2C76.0889,276.76,98.5032,255,126,255c27.497,0,49.911,21.76,50.962,49c.025.663.038,1.33.038,2Z"
      fill="#3f3f56"/>
    <path d="M154,306c0,15.464-12.536,28-28,28s-28-12.536-28-28s12.536-28,28-28s28,12.536,28,28Z" fill="#69688f"/>
    <g class="rotate left" id="eQtP70qKErU33_tr" transform="translate(126,306) rotate(0)">
      <g transform="translate(-126,-306)">
        <line fill="none" stroke="#3f3f56" stroke-width="3" transform="translate(126 306)" x1="-27.65" x2="27.65"
              y1="0"
              y2="0"/>
        <line fill="none" stroke="#3f3f56" stroke-width="3" transform="matrix(0 1-1 0 126 306)" x1="-27.65"
              x2="27.65"
              y1="0" y2="0"/>
        <line fill="none" stroke="#3f3f56" stroke-width="3"
              transform="matrix(.707107 0.707107-.707107 0.707107 126 306)" x1="-27.65" x2="27.65" y1="0" y2="0"/>
        <line fill="none" stroke="#3f3f56" stroke-width="3"
              transform="matrix(-.707107 0.707107-.707107-.707107 126 306)" x1="-27.65" x2="27.65" y1="0" y2="0"/>
      </g>
    </g>
    <path d="M474,306c0,15.464-12.536,28-28,28s-28-12.536-28-28s12.536-28,28-28s28,12.536,28,28Z" fill="#69688f"/>
    <g class="rotate right" id="eQtP70qKErU39_tr" transform="translate(446,306) rotate(0)">
      <g transform="translate(-125.999996,-306)">
        <line fill="none" stroke="#3f3f56" stroke-width="3" transform="translate(126 306)"
              x1="-27.65" x2="27.65"
              y1="0"
              y2="0"/>
        <line fill="none" stroke="#3f3f56" stroke-width="3" transform="matrix(0 1-1 0 126 306)"
              x1="-27.65"
              x2="27.65"
              y1="0" y2="0"/>
        <line fill="none" stroke="#3f3f56" stroke-width="3"
              transform="matrix(.707107 0.707107-.707107 0.707107 126 306)" x1="-27.65" x2="27.65" y1="0" y2="0"/>
        <line fill="none" stroke="#3f3f56" stroke-width="3"
              transform="matrix(-.707107 0.707107-.707107-.707107 126 306)" x1="-27.65" x2="27.65" y1="0" y2="0"/>
      </g>
    </g>
  </g>
</svg>
