<svg width="200" height="191" viewBox="0 0 200 191" fill="none" xmlns="http://www.w3.org/2000/svg">
<g clip-path="url(#clip0_971_12829)">
<path d="M39.322 188.977L100.783 150.243L99.9602 103.305L39.322 188.977Z" fill="#F5C458"/>
<path d="M72.9658 67.3746L99.9602 103.305V0.962891L72.9658 67.3746Z" fill="#F5C458"/>
<path d="M198.425 71.2087L127.348 67.3744L99.9602 103.305L198.425 71.2087Z" fill="#F5C458"/>
<path d="M1.0498 71.7565L57.3647 117.22L99.9602 103.305L1.0498 71.7565Z" fill="#F5C458"/>
<path d="M143.182 115.623L99.9602 103.305L161.68 188.977L143.182 115.623Z" fill="#F5C458"/>
<path d="M100.46 0.962891V101.824L126.95 67.0713L127.111 66.8613L127.375 66.875L198.452 70.709L198.58 71.6846L101.672 103.272L143.597 115.221L143.667 115.501L162.165 188.854L161.274 189.27L100.487 104.893L101.288 150.516L39.5889 189.399L38.9141 188.688L98.6787 104.249L57.5195 117.695L57.2617 117.78L57.0508 117.609L0.735352 72.1455L1.20215 71.2803L98.6191 102.353L72.3965 67.4482L99.4971 0.774414L100.46 0.962891ZM41.1826 187.212L100.277 149.97L99.4863 104.839L41.1826 187.212ZM160.555 186.562L142.768 116.024L101.207 104.18L160.555 186.562ZM57.4668 116.66L98.333 103.311L3.44043 73.043L57.4668 116.66ZM101.329 102.333L195.723 71.5635L127.585 67.8877L101.329 102.333ZM73.5352 67.2998L99.46 101.806V3.52246L73.5352 67.2998Z" fill="#F5C458"/>
<path d="M38.3207 188.976L55.8973 118.098L99.738 103.412L38.3207 188.976Z" fill="#F9A825"/>
<path d="M161.155 190.026L100.263 152.231L100.286 103.937L161.155 190.026Z" fill="#F9A825"/>
<path d="M0.525391 71.3909L71.9165 67.1915L99.738 102.887L0.525391 71.3909Z" fill="#F9A825"/>
<path d="M100.286 1.0498V102.175L125.985 67.7164L100.286 1.0498Z" fill="#F9A825"/>
<path d="M143.832 117.585L100.263 102.887L200 71.9159L143.832 117.585Z" fill="#F9A825"/>
<path d="M126.551 67.7939L100.921 102.158L199.853 71.4385L200.315 72.3037L144.147 117.973L143.934 118.147L143.673 118.059L100.968 103.651L101.124 103.852L100.755 103.733L161.563 189.737L160.892 190.451L99.7627 152.509L99.7852 104.202L38.7266 189.268L37.835 188.855L55.4121 117.978L55.4785 117.711L98.9297 103.154L0.374023 71.8672L0.496094 70.8916L72.1494 66.6768L99.7861 102.135V1.0498L100.753 0.870117L126.551 67.7939ZM100.763 151.952L159.323 188.301L100.785 105.509L100.763 151.952ZM56.3164 118.484L39.4316 186.568L98.4297 104.377L56.3164 118.484ZM101.885 102.906L143.73 117.022L197.676 73.1611L101.885 102.906ZM3.25 71.7305L98.3516 101.922L71.6836 67.7051L3.25 71.7305ZM100.786 100.667L125.419 67.6387L100.786 3.7373V100.667Z" fill="#F9A825"/>
<path d="M127.483 66.3975L202.089 70.8945L144.312 118.108L163.349 192.167L100.011 153.411L36.7148 192.142L54.624 118.111L-2.5957 70.8936L71.9961 66.3965L100.021 -2.68359L127.483 66.3975ZM73.375 68.3184L2.5957 72.584L56.3799 116.969L56.8633 117.366L39.7959 187.91L100.011 151.067L160.183 187.885L142.058 117.37L142.552 116.965L196.861 72.583L126.095 68.3184L100.001 2.68359L73.375 68.3184Z" fill="black"/>
</g>
<defs>
<clipPath id="clip0_971_12829">
<rect width="200" height="190.026" fill="white"/>
</clipPath>
</defs>
</svg>
