<svg width="1719" height="533" viewBox="0 0 1719 533" fill="none" xmlns="http://www.w3.org/2000/svg">
<rect x="761.5" y="45.5" width="186.752" height="228" rx="3.5" fill="#D98D00" stroke="#AF6401" stroke-width="3"/>
<path d="M778.998 64.911H931.291V256.117H778.998V64.911Z" fill="#AF6600"/>
<path d="M778.998 52.7063H931.291M944.941 58.8086L939.856 64.911V256.117L944.941 262.801M944.941 52.7063L936.912 57.0651M936.912 262.801L944.941 270.937M778.998 267.741H931.291M772.842 262.801L765.081 270.937M763.207 57.0651L770.969 64.911V256.117L765.081 262.801M772.842 57.0651L765.081 52.7063M778.998 64.911H931.291V256.117H778.998V64.911Z" stroke="#AF6401" stroke-width="5" stroke-linecap="round" stroke-linejoin="round"/>
<path d="M841.445 64.8945L778.708 136.512V219.623L912.675 64.8945H841.445Z" fill="#BF7909"/>
<path d="M931.579 84.6409L784.187 254.106H820.898L931.579 122.365V84.6409Z" fill="#BF7909"/>
<path d="M841.445 64.8945L778.708 136.512V219.623L912.675 64.8945H841.445Z" stroke="#BD7707" stroke-width="5" stroke-linejoin="round"/>
<path d="M931.579 84.6409L784.187 254.106H820.898L931.579 122.365V84.6409Z" stroke="#BD7707" stroke-width="5" stroke-linejoin="round"/>
<path d="M238.796 13.792V473.528H76.2861V13.792H238.796Z" fill="#653809"/>
<path d="M75.0703 473.528H76.2861M76.2861 473.528H238.796V13.792H76.2861V473.528Z" stroke="#683709" stroke-width="5" stroke-linejoin="round"/>
<path d="M238.404 12.344V499.23H254.855V12.344H238.404Z" fill="#925400" stroke="#955300" stroke-width="7"/>
<path d="M155.628 200.221L154.191 13.792H261.514L259.758 200.221M155.628 200.221H259.758M155.628 200.221L156.616 328.368M259.758 200.221L258.551 328.368M156.616 328.368H258.551M156.616 328.368L157.748 475.338M258.551 328.368L259.758 475.338M157.748 475.338L157.935 499.592H259.758V475.338M157.748 475.338H259.758" stroke="#955300" stroke-width="7"/>
<path d="M254.856 491.266H157.325V498.868H254.856V491.266Z" fill="#7B4200" stroke="#7D4400" stroke-width="7"/>
<path d="M156.542 474.976H255.247V488.008H156.542V474.976Z" fill="#925100" stroke="#945500" stroke-width="7"/>
<path d="M72.5957 12.344V499.592H48.311V12.344H72.5957Z" fill="#925400" stroke="#955300" stroke-width="7"/>
<path d="M155.288 200.221L156.809 13.792H43.2191L45.0776 200.221M155.288 200.221H45.0776M155.288 200.221L154.243 328.368M45.0776 200.221L46.3551 328.368M154.243 328.368H46.3551M154.243 328.368L153.044 475.338M46.3551 328.368L45.0776 475.338M153.044 475.338L152.846 499.592H45.0776V475.338M153.044 475.338H45.0776" stroke="#955300" stroke-width="7"/>
<path d="M56.1445 491.266H153.675V498.868H56.1445V491.266Z" fill="#7B4200" stroke="#7D4400" stroke-width="7"/>
<path d="M154.458 474.976H55.7526V488.008H154.458V474.976Z" fill="#925100" stroke="#945500" stroke-width="7"/>
<path d="M77.6876 530H4.05025C1.95894 446.289 2.19849 398.495 12.2757 307.372C18.6824 312.012 23.4303 315.306 27.8654 317.627C30.8972 319.213 33.7828 320.345 36.952 321.14C39.8651 321.872 43.0179 322.319 46.7442 322.576C73.8749 405.352 80.3415 450.732 77.6876 530Z" fill="#D78C08"/>
<path d="M8.35881 8H156.809V39.4938V60.8516V86.1914V106.463C139.381 107.837 129.806 106.854 112.94 103.205C99.0612 190.149 85.9325 237.773 56.3115 302.304C34.8985 305.442 26.5302 299.252 12.2757 286.738C5.67149 184.761 6.07832 122.018 8.35881 8Z" fill="#D78C08"/>
<path d="M12.2757 307.372C7.12779 299.314 7.95439 294.796 12.2757 286.738C26.5302 299.252 34.8985 305.442 56.3115 302.304C53.299 308.866 50.116 315.604 46.7442 322.576C43.0179 322.319 39.8651 321.872 36.952 321.14C33.7828 320.345 30.8972 319.213 27.8654 317.627C23.4303 315.306 18.6824 312.012 12.2757 307.372Z" fill="#D78C08"/>
<path d="M46.7442 322.576C73.8749 405.352 80.3415 450.732 77.6876 530H4.05024C1.95893 446.289 2.19848 398.495 12.2757 307.372M46.7442 322.576C50.116 315.604 53.299 308.866 56.3115 302.304M46.7442 322.576C43.0179 322.319 39.8651 321.872 36.952 321.14M112.94 103.205C129.806 106.854 139.381 107.837 156.809 106.463V86.1914M112.94 103.205C104.208 101.561 96.4445 99.6153 89.4382 97.2258M112.94 103.205C99.0612 190.149 85.9325 237.773 56.3115 302.304M24.418 286.738C31.6608 182.732 30.3063 127.454 24.418 30.8058C35.916 53.8505 46.4029 69.6917 59.67 80.8692M12.2757 307.372C7.1278 299.314 7.95439 294.796 12.2757 286.738M12.2757 307.372C18.6824 312.012 23.4303 315.306 27.8654 317.627M12.2757 286.738C5.67149 184.761 6.07833 122.018 8.35881 8H156.809V39.4938M12.2757 286.738C26.5302 299.252 34.8985 305.442 56.3115 302.304M89.4382 97.2258C82.6241 175.378 76.2521 218.892 46.7442 294.34M89.4382 97.2258C77.728 93.232 68.1333 87.9996 59.67 80.8692M59.67 80.8692C61.057 161.795 58.8024 207.323 33.4268 289.634M36.952 321.14C50.3183 388.742 54.8212 427.649 56.3115 499.23M36.952 321.14C33.7828 320.345 30.8972 319.213 27.8654 317.627M27.8654 317.627C31.185 392.08 31.3327 432.723 27.8654 502.85M156.809 86.1914C106.338 81.7344 81.5025 71.2976 46.7442 30.8058M156.809 86.1914V60.8516M156.809 60.8516C118.563 56.3593 98.7479 49.1782 67.8954 23.5659M156.809 60.8516V39.4938M156.809 39.4938C135.384 39.5691 122.501 37.0267 96.4886 23.5659" stroke="#C27904" stroke-width="5" stroke-linejoin="round"/>
<path d="M233.312 530H306.95C309.041 446.289 308.802 398.495 298.724 307.372C292.318 312.012 287.57 315.306 283.135 317.627C280.103 319.213 277.217 320.345 274.048 321.14C271.135 321.872 267.982 322.319 264.256 322.576C237.125 405.352 230.658 450.732 233.312 530Z" fill="#D78C08"/>
<path d="M302.641 8H154.191V39.4938V60.8516V86.1914V106.463C171.619 107.837 181.194 106.854 198.06 103.205C211.939 190.149 225.068 237.773 254.689 302.304C276.101 305.442 284.47 299.252 298.724 286.738C305.329 184.761 304.922 122.018 302.641 8Z" fill="#D78C08"/>
<path d="M298.724 307.372C303.872 299.314 303.046 294.796 298.724 286.738C284.47 299.252 276.101 305.442 254.689 302.304C257.701 308.866 260.884 315.604 264.256 322.576C267.982 322.319 271.135 321.872 274.048 321.14C277.217 320.345 280.103 319.213 283.135 317.627C287.57 315.306 292.318 312.012 298.724 307.372Z" fill="#D78C08"/>
<path d="M264.256 322.576C237.125 405.352 230.658 450.732 233.312 530H306.95C309.041 446.289 308.802 398.495 298.724 307.372M264.256 322.576C260.884 315.604 257.701 308.866 254.689 302.304M264.256 322.576C267.982 322.319 271.135 321.872 274.048 321.14M198.06 103.205C181.194 106.854 171.619 107.837 154.191 106.463V86.1914M198.06 103.205C206.792 101.561 214.556 99.6153 221.562 97.2258M198.06 103.205C211.939 190.149 225.068 237.773 254.689 302.304M286.582 286.738C279.339 182.732 280.694 127.454 286.582 30.8058C275.084 53.8505 264.597 69.6917 251.33 80.8692M298.724 307.372C303.872 299.314 303.046 294.796 298.724 286.738M298.724 307.372C292.318 312.012 287.57 315.306 283.135 317.627M298.724 286.738C305.329 184.761 304.922 122.018 302.641 8H154.191V39.4938M298.724 286.738C284.47 299.252 276.101 305.442 254.689 302.304M221.562 97.2258C228.376 175.378 234.748 218.892 264.256 294.34M221.562 97.2258C233.272 93.232 242.867 87.9996 251.33 80.8692M251.33 80.8692C249.943 161.795 252.198 207.323 277.573 289.634M274.048 321.14C260.682 388.742 256.179 427.649 254.689 499.23M274.048 321.14C277.217 320.345 280.103 319.213 283.135 317.627M283.135 317.627C279.815 392.08 279.667 432.723 283.135 502.85M154.191 86.1914C204.662 81.7344 229.497 71.2976 264.256 30.8058M154.191 86.1914V60.8516M154.191 60.8516C192.437 56.3593 212.252 49.1782 243.105 23.5659M154.191 60.8516V39.4938M154.191 39.4938C175.616 39.5691 188.499 37.0267 214.511 23.5659" stroke="#C27904" stroke-width="5" stroke-linejoin="round"/>
<path d="M154.191 9.81006V37.6838M154.191 41.3038V58.3177M154.191 62.2997V84.0195M154.191 87.6395V105.015" stroke="#D78C08" stroke-width="5" stroke-linejoin="round"/>
<path d="M1646.8 8.79199V468.528H1484.29V8.79199H1646.8Z" fill="#653809"/>
<path d="M1483.07 468.528H1484.29M1484.29 468.528H1646.8V8.79199H1484.29V468.528Z" stroke="#683709" stroke-width="5" stroke-linejoin="round"/>
<path d="M1646.4 7.34399V494.23H1662.86V7.34399H1646.4Z" fill="#925400" stroke="#955300" stroke-width="7"/>
<path d="M1563.63 195.221L1562.19 8.79199H1669.51L1667.76 195.221M1563.63 195.221H1667.76M1563.63 195.221L1564.62 323.368M1667.76 195.221L1666.55 323.368M1564.62 323.368H1666.55M1564.62 323.368L1565.75 470.338M1666.55 323.368L1667.76 470.338M1565.75 470.338L1565.94 494.592H1667.76V470.338M1565.75 470.338H1667.76" stroke="#955300" stroke-width="7"/>
<path d="M1662.86 486.266H1565.33V493.868H1662.86V486.266Z" fill="#7B4200" stroke="#7D4400" stroke-width="7"/>
<path d="M1564.54 469.976H1663.25V483.008H1564.54V469.976Z" fill="#925100" stroke="#945500" stroke-width="7"/>
<path d="M1480.6 7.34399V494.592H1456.31V7.34399H1480.6Z" fill="#925400" stroke="#955300" stroke-width="7"/>
<path d="M1563.29 195.221L1564.81 8.79199H1451.22L1453.08 195.221M1563.29 195.221H1453.08M1563.29 195.221L1562.24 323.368M1453.08 195.221L1454.36 323.368M1562.24 323.368H1454.36M1562.24 323.368L1561.04 470.338M1454.36 323.368L1453.08 470.338M1561.04 470.338L1560.85 494.592H1453.08V470.338M1561.04 470.338H1453.08" stroke="#955300" stroke-width="7"/>
<path d="M1464.14 486.266H1561.67V493.868H1464.14V486.266Z" fill="#7B4200" stroke="#7D4400" stroke-width="7"/>
<path d="M1562.46 469.976H1463.75V483.008H1562.46V469.976Z" fill="#925100" stroke="#945500" stroke-width="7"/>
<path d="M1485.69 525H1412.05C1409.96 441.289 1410.2 393.495 1420.28 302.372C1426.68 307.012 1431.43 310.306 1435.87 312.627C1438.9 314.213 1441.78 315.345 1444.95 316.14C1447.87 316.872 1451.02 317.319 1454.74 317.576C1481.87 400.352 1488.34 445.732 1485.69 525Z" fill="#D78C08"/>
<path d="M1416.36 3H1564.81V34.4938V55.8516V81.1914V101.463C1547.38 102.837 1537.81 101.854 1520.94 98.2053C1507.06 185.149 1493.93 232.773 1464.31 297.304C1442.9 300.442 1434.53 294.252 1420.28 281.738C1413.67 179.761 1414.08 117.018 1416.36 3Z" fill="#D78C08"/>
<path d="M1420.28 302.372C1415.13 294.314 1415.95 289.796 1420.28 281.738C1434.53 294.252 1442.9 300.442 1464.31 297.304C1461.3 303.866 1458.12 310.604 1454.74 317.576C1451.02 317.319 1447.87 316.872 1444.95 316.14C1441.78 315.345 1438.9 314.213 1435.87 312.627C1431.43 310.306 1426.68 307.012 1420.28 302.372Z" fill="#D78C08"/>
<path d="M1454.74 317.576C1481.87 400.352 1488.34 445.732 1485.69 525H1412.05C1409.96 441.289 1410.2 393.495 1420.28 302.372M1454.74 317.576C1458.12 310.604 1461.3 303.866 1464.31 297.304M1454.74 317.576C1451.02 317.319 1447.87 316.872 1444.95 316.14M1520.94 98.2053C1537.81 101.854 1547.38 102.837 1564.81 101.463V81.1914M1520.94 98.2053C1512.21 96.5614 1504.44 94.6153 1497.44 92.2258M1520.94 98.2053C1507.06 185.149 1493.93 232.773 1464.31 297.304M1432.42 281.738C1439.66 177.732 1438.31 122.454 1432.42 25.8058C1443.92 48.8505 1454.4 64.6917 1467.67 75.8692M1420.28 302.372C1415.13 294.314 1415.95 289.796 1420.28 281.738M1420.28 302.372C1426.68 307.012 1431.43 310.306 1435.87 312.627M1420.28 281.738C1413.67 179.761 1414.08 117.018 1416.36 3H1564.81V34.4938M1420.28 281.738C1434.53 294.252 1442.9 300.442 1464.31 297.304M1497.44 92.2258C1490.62 170.378 1484.25 213.892 1454.74 289.34M1497.44 92.2258C1485.73 88.232 1476.13 82.9996 1467.67 75.8692M1467.67 75.8692C1469.06 156.795 1466.8 202.323 1441.43 284.634M1444.95 316.14C1458.32 383.742 1462.82 422.649 1464.31 494.23M1444.95 316.14C1441.78 315.345 1438.9 314.213 1435.87 312.627M1435.87 312.627C1439.18 387.08 1439.33 427.723 1435.87 497.85M1564.81 81.1914C1514.34 76.7344 1489.5 66.2976 1454.74 25.8058M1564.81 81.1914V55.8516M1564.81 55.8516C1526.56 51.3593 1506.75 44.1782 1475.9 18.5659M1564.81 55.8516V34.4938M1564.81 34.4938C1543.38 34.5691 1530.5 32.0267 1504.49 18.5659" stroke="#C27904" stroke-width="5" stroke-linejoin="round"/>
<path d="M1641.31 525H1714.95C1717.04 441.289 1716.8 393.495 1706.72 302.372C1700.32 307.012 1695.57 310.306 1691.13 312.627C1688.1 314.213 1685.22 315.345 1682.05 316.14C1679.13 316.872 1675.98 317.319 1672.26 317.576C1645.13 400.352 1638.66 445.732 1641.31 525Z" fill="#D78C08"/>
<path d="M1710.64 3H1562.19V34.4938V55.8516V81.1914V101.463C1579.62 102.837 1589.19 101.854 1606.06 98.2053C1619.94 185.149 1633.07 232.773 1662.69 297.304C1684.1 300.442 1692.47 294.252 1706.72 281.738C1713.33 179.761 1712.92 117.018 1710.64 3Z" fill="#D78C08"/>
<path d="M1706.72 302.372C1711.87 294.314 1711.05 289.796 1706.72 281.738C1692.47 294.252 1684.1 300.442 1662.69 297.304C1665.7 303.866 1668.88 310.604 1672.26 317.576C1675.98 317.319 1679.13 316.872 1682.05 316.14C1685.22 315.345 1688.1 314.213 1691.13 312.627C1695.57 310.306 1700.32 307.012 1706.72 302.372Z" fill="#D78C08"/>
<path d="M1672.26 317.576C1645.13 400.352 1638.66 445.732 1641.31 525H1714.95C1717.04 441.289 1716.8 393.495 1706.72 302.372M1672.26 317.576C1668.88 310.604 1665.7 303.866 1662.69 297.304M1672.26 317.576C1675.98 317.319 1679.13 316.872 1682.05 316.14M1606.06 98.2053C1589.19 101.854 1579.62 102.837 1562.19 101.463V81.1914M1606.06 98.2053C1614.79 96.5614 1622.56 94.6153 1629.56 92.2258M1606.06 98.2053C1619.94 185.149 1633.07 232.773 1662.69 297.304M1694.58 281.738C1687.34 177.732 1688.69 122.454 1694.58 25.8058C1683.08 48.8505 1672.6 64.6917 1659.33 75.8692M1706.72 302.372C1711.87 294.314 1711.05 289.796 1706.72 281.738M1706.72 302.372C1700.32 307.012 1695.57 310.306 1691.13 312.627M1706.72 281.738C1713.33 179.761 1712.92 117.018 1710.64 3H1562.19V34.4938M1706.72 281.738C1692.47 294.252 1684.1 300.442 1662.69 297.304M1629.56 92.2258C1636.38 170.378 1642.75 213.892 1672.26 289.34M1629.56 92.2258C1641.27 88.232 1650.87 82.9996 1659.33 75.8692M1659.33 75.8692C1657.94 156.795 1660.2 202.323 1685.57 284.634M1682.05 316.14C1668.68 383.742 1664.18 422.649 1662.69 494.23M1682.05 316.14C1685.22 315.345 1688.1 314.213 1691.13 312.627M1691.13 312.627C1687.82 387.08 1687.67 427.723 1691.13 497.85M1562.19 81.1914C1612.66 76.7344 1637.5 66.2976 1672.26 25.8058M1562.19 81.1914V55.8516M1562.19 55.8516C1600.44 51.3593 1620.25 44.1782 1651.1 18.5659M1562.19 55.8516V34.4938M1562.19 34.4938C1583.62 34.5691 1596.5 32.0267 1622.51 18.5659" stroke="#C27904" stroke-width="5" stroke-linejoin="round"/>
<path d="M1562.19 4.81006V32.6838M1562.19 36.3038V53.3177M1562.19 57.2997V79.0195M1562.19 82.6395V100.015" stroke="#D78C08" stroke-width="5" stroke-linejoin="round"/>
<path d="M490.487 124.114C486.856 125.254 484.879 125.282 481.25 124.114V149.257H490.487V124.114Z" fill="#F4BF4A"/>
<path d="M526.554 118.629C522.947 119.866 520.925 119.733 517.317 118.629V142.857H526.554V118.629Z" fill="#F4BF4A"/>
<path d="M564.381 124.114C559.898 125.074 557.325 125.105 552.505 124.114V149.257H564.381V124.114Z" fill="#F4BF4A"/>
<path d="M490.487 124.114C486.856 125.254 484.879 125.282 481.25 124.114V149.257H490.487V124.114Z" stroke="#F1BE4D" stroke-linejoin="round"/>
<path d="M526.554 118.629C522.947 119.866 520.925 119.733 517.317 118.629V142.857H526.554V118.629Z" stroke="#F1BE4D" stroke-linejoin="round"/>
<path d="M564.381 124.114C559.898 125.074 557.325 125.105 552.505 124.114V149.257H564.381V124.114Z" stroke="#F1BE4D" stroke-linejoin="round"/>
<path d="M508.576 175.632C510.787 172.39 513.216 170.681 521.265 167.975C529.932 171.008 532.876 172.681 535.703 175.632C536.663 205.543 533.668 215.808 521.265 222C508.288 210.166 507.891 198.151 508.576 175.632Z" fill="#B76D01" stroke="#A96300" stroke-linejoin="round"/>
<path d="M516.96 192.222C516.842 187.712 516.96 184.703 516.96 179.886C516.96 173.407 517.671 169.643 516.96 163.295C515.32 163.748 514.085 163.813 510.835 163.295C508.762 161.634 508.547 160.702 510.835 159.041C513.664 159.697 515.114 159.852 516.96 159.041C518.033 153.891 517.911 151.004 516.96 145.854H513.023C508.422 141.956 509.216 141.168 513.023 140.749C519.765 141.869 523.804 142.032 531.836 140.749C535.609 141.674 535.773 142.753 531.836 145.854H526.149C524.715 151.152 524.558 154.055 526.149 159.041C526.149 159.041 529.618 160.616 531.836 159.041C533.428 160.855 533.463 161.79 531.836 163.295C529.892 163.98 528.782 164.32 526.149 163.295C525.091 170.555 525.149 174.178 526.149 179.886V192.222C522.398 197.376 520.391 197.241 516.96 192.222Z" fill="#A15D03"/>
<path d="M535.337 185.416V179.886C539.114 181.199 541.303 181.265 545.4 179.886C550.735 175.793 553.171 173.01 554.588 165.422C551.149 161.694 551.042 160.167 554.588 158.616C555.464 156.622 555.38 155.505 554.588 153.511L550.65 152.66C547.214 149.66 547.658 148.786 550.65 147.981C556.818 149.582 560.558 149.727 567.714 148.832C569.756 149.814 569.785 150.608 566.839 152.66L560.713 153.511C560.417 155.505 560.389 156.622 560.713 158.616C564.043 160.628 563.804 162.163 560.713 165.422C559.175 177.842 554.293 180.633 545.4 185.416C541.457 186.542 539.269 186.518 535.337 185.416Z" fill="#A15D03"/>
<path d="M508.21 186.266V179.886C500.227 182.912 495.591 178.329 489.834 165.422C492.798 162.056 492.808 160.504 488.521 158.616C487.857 156.623 487.797 155.502 488.521 153.511L493.334 152.66C496.561 150.321 495.865 149.149 493.334 147.13C486.059 150.04 483.183 148.972 478.02 147.13C475.531 148.708 475.13 149.826 478.02 152.66L481.958 153.511C483.043 155.504 482.949 156.622 481.958 158.616L480.645 161.168C480.165 163.26 480.805 164.199 483.708 165.422C486.529 175.756 488.84 181.046 499.022 186.266C502.924 187.182 504.972 187.178 508.21 186.266Z" fill="#A15D03"/>
<path d="M516.96 159.041C518.033 153.891 517.911 151.004 516.96 145.854H513.023C508.422 141.956 509.216 141.168 513.023 140.749C519.765 141.869 523.804 142.032 531.836 140.749C535.609 141.674 535.773 142.753 531.836 145.854H526.149C524.715 151.152 524.558 154.055 526.149 159.041M516.96 159.041C515.114 159.852 513.664 159.697 510.835 159.041C508.547 160.702 508.762 161.634 510.835 163.295C514.085 163.813 515.32 163.748 516.96 163.295M516.96 159.041V163.295M516.96 163.295C517.671 169.643 516.96 173.407 516.96 179.886C516.96 184.703 516.842 187.712 516.96 192.222C520.391 197.241 522.398 197.376 526.149 192.222V179.886C525.149 174.178 525.091 170.555 526.149 163.295M526.149 159.041C526.149 159.041 529.618 160.616 531.836 159.041C533.428 160.855 533.463 161.79 531.836 163.295C529.892 163.98 528.782 164.32 526.149 163.295M526.149 159.041V163.295M535.337 179.886V185.416C539.269 186.518 541.457 186.542 545.4 185.416C554.293 180.633 559.175 177.842 560.713 165.422C563.804 162.163 564.043 160.628 560.713 158.616C560.389 156.622 560.417 155.505 560.713 153.511L566.839 152.66C569.785 150.608 569.756 149.814 567.714 148.832C560.558 149.727 556.818 149.582 550.65 147.981C547.658 148.786 547.214 149.66 550.65 152.66L554.588 153.511C555.38 155.505 555.464 156.622 554.588 158.616C551.042 160.167 551.149 161.694 554.588 165.422C553.171 173.01 550.735 175.793 545.4 179.886C541.303 181.265 539.114 181.199 535.337 179.886ZM508.21 179.886V186.266C504.972 187.178 502.924 187.182 499.022 186.266C488.84 181.046 486.529 175.756 483.708 165.422C480.805 164.199 480.165 163.26 480.645 161.168C481.158 160.171 481.445 159.612 481.958 158.616C482.949 156.622 483.043 155.504 481.958 153.511L478.02 152.66C475.13 149.826 475.531 148.708 478.02 147.13C483.183 148.972 486.059 150.04 493.334 147.13C495.865 149.149 496.561 150.321 493.334 152.66L488.521 153.511C487.797 155.502 487.857 156.623 488.521 158.616C492.808 160.504 492.798 162.056 489.834 165.422C495.591 178.329 500.227 182.912 508.21 179.886Z" stroke="#A85D00" stroke-linejoin="round"/>
<path d="M490.807 124.159C487.043 125.609 484.95 125.755 481.181 124.159C481.181 124.159 474.365 116.495 476.369 109.695C478.082 103.878 485.427 97.5267 486.763 95.1961C486.648 94.7737 486.67 94.4909 486.869 94.381C487.043 94.5231 486.989 94.8022 486.763 95.1961C487.465 97.7787 493.267 105.579 494.745 110.971C496.165 116.153 490.807 124.159 490.807 124.159Z" fill="#FEDE7F"/>
<path d="M527.122 119.905C523.533 121.474 521.419 121.44 517.496 119.905C513.065 116.086 512.684 113.524 512.684 107.568C512.684 101.613 519.511 93.0515 524.497 88C525.69 91.9728 534.123 104.165 533.685 109.695C533.247 115.225 531.499 116.455 527.122 119.905Z" fill="#FEDE7F"/>
<path d="M564.75 124.159C559.947 126.78 557.392 126.316 552.936 124.159C550.61 121.494 548.166 119.723 548.999 112.248C549.832 104.772 557.117 100.486 559.937 94.381C564.801 101.667 570 107.568 570 114.375C570 121.181 564.75 124.159 564.75 124.159Z" fill="#FEDE7F"/>
<path d="M490.807 124.159C487.043 125.609 484.95 125.755 481.181 124.159C481.181 124.159 474.365 116.495 476.369 109.695C478.082 103.878 485.427 97.5267 486.763 95.1961C486.648 94.7737 486.67 94.4909 486.869 94.381C487.043 94.5231 486.989 94.8022 486.763 95.1961C487.465 97.7787 493.267 105.579 494.745 110.971C496.165 116.153 490.807 124.159 490.807 124.159Z" stroke="#F2B333" stroke-linejoin="round"/>
<path d="M527.122 119.905C523.533 121.474 521.419 121.44 517.496 119.905C513.065 116.086 512.684 113.524 512.684 107.568C512.684 101.613 519.511 93.0515 524.497 88C525.69 91.9728 534.123 104.165 533.685 109.695C533.247 115.225 531.499 116.455 527.122 119.905Z" stroke="#F2B333" stroke-linejoin="round"/>
<path d="M564.75 124.159C559.947 126.78 557.392 126.316 552.936 124.159C550.61 121.494 548.166 119.723 548.999 112.248C549.832 104.772 557.117 100.486 559.937 94.381C564.801 101.667 570 107.568 570 114.375C570 121.181 564.75 124.159 564.75 124.159Z" stroke="#F2B333" stroke-linejoin="round"/>
<path d="M1149.49 124.114C1145.86 125.254 1143.88 125.282 1140.25 124.114V149.257H1149.49V124.114Z" fill="#F4BF4A"/>
<path d="M1185.55 118.629C1181.95 119.866 1179.92 119.733 1176.32 118.629V142.857H1185.55V118.629Z" fill="#F4BF4A"/>
<path d="M1223.38 124.114C1218.9 125.074 1216.32 125.105 1211.5 124.114V149.257H1223.38V124.114Z" fill="#F4BF4A"/>
<path d="M1149.49 124.114C1145.86 125.254 1143.88 125.282 1140.25 124.114V149.257H1149.49V124.114Z" stroke="#F1BE4D" stroke-linejoin="round"/>
<path d="M1185.55 118.629C1181.95 119.866 1179.92 119.733 1176.32 118.629V142.857H1185.55V118.629Z" stroke="#F1BE4D" stroke-linejoin="round"/>
<path d="M1223.38 124.114C1218.9 125.074 1216.32 125.105 1211.5 124.114V149.257H1223.38V124.114Z" stroke="#F1BE4D" stroke-linejoin="round"/>
<path d="M1167.58 175.632C1169.79 172.39 1172.22 170.681 1180.26 167.975C1188.93 171.008 1191.88 172.681 1194.7 175.632C1195.66 205.543 1192.67 215.808 1180.26 222C1167.29 210.166 1166.89 198.151 1167.58 175.632Z" fill="#B76D01" stroke="#A96300" stroke-linejoin="round"/>
<path d="M1175.96 192.222C1175.84 187.712 1175.96 184.703 1175.96 179.886C1175.96 173.407 1176.67 169.643 1175.96 163.295C1174.32 163.748 1173.09 163.813 1169.83 163.295C1167.76 161.634 1167.55 160.702 1169.83 159.041C1172.66 159.697 1174.11 159.852 1175.96 159.041C1177.03 153.891 1176.91 151.004 1175.96 145.854H1172.02C1167.42 141.956 1168.22 141.168 1172.02 140.749C1178.76 141.869 1182.8 142.032 1190.84 140.749C1194.61 141.674 1194.77 142.753 1190.84 145.854H1185.15C1183.72 151.152 1183.56 154.055 1185.15 159.041C1185.15 159.041 1188.62 160.616 1190.84 159.041C1192.43 160.855 1192.46 161.79 1190.84 163.295C1188.89 163.98 1187.78 164.32 1185.15 163.295C1184.09 170.555 1184.15 174.178 1185.15 179.886V192.222C1181.4 197.376 1179.39 197.241 1175.96 192.222Z" fill="#A15D03"/>
<path d="M1194.34 185.416V179.886C1198.11 181.199 1200.3 181.265 1204.4 179.886C1209.73 175.793 1212.17 173.01 1213.59 165.422C1210.15 161.694 1210.04 160.167 1213.59 158.616C1214.46 156.622 1214.38 155.505 1213.59 153.511L1209.65 152.66C1206.21 149.66 1206.66 148.786 1209.65 147.981C1215.82 149.582 1219.56 149.727 1226.71 148.832C1228.76 149.814 1228.79 150.608 1225.84 152.66L1219.71 153.511C1219.42 155.505 1219.39 156.622 1219.71 158.616C1223.04 160.628 1222.8 162.163 1219.71 165.422C1218.17 177.842 1213.29 180.633 1204.4 185.416C1200.46 186.542 1198.27 186.518 1194.34 185.416Z" fill="#A15D03"/>
<path d="M1167.21 186.266V179.886C1159.23 182.912 1154.59 178.329 1148.83 165.422C1151.8 162.056 1151.81 160.504 1147.52 158.616C1146.86 156.623 1146.8 155.502 1147.52 153.511L1152.33 152.66C1155.56 150.321 1154.86 149.149 1152.33 147.13C1145.06 150.04 1142.18 148.972 1137.02 147.13C1134.53 148.708 1134.13 149.826 1137.02 152.66L1140.96 153.511C1142.04 155.504 1141.95 156.622 1140.96 158.616L1139.65 161.168C1139.16 163.26 1139.81 164.199 1142.71 165.422C1145.53 175.756 1147.84 181.046 1158.02 186.266C1161.92 187.182 1163.97 187.178 1167.21 186.266Z" fill="#A15D03"/>
<path d="M1175.96 159.041C1177.03 153.891 1176.91 151.004 1175.96 145.854H1172.02C1167.42 141.956 1168.22 141.168 1172.02 140.749C1178.76 141.869 1182.8 142.032 1190.84 140.749C1194.61 141.674 1194.77 142.753 1190.84 145.854H1185.15C1183.72 151.152 1183.56 154.055 1185.15 159.041M1175.96 159.041C1174.11 159.852 1172.66 159.697 1169.83 159.041C1167.55 160.702 1167.76 161.634 1169.83 163.295C1173.09 163.813 1174.32 163.748 1175.96 163.295M1175.96 159.041V163.295M1175.96 163.295C1176.67 169.643 1175.96 173.407 1175.96 179.886C1175.96 184.703 1175.84 187.712 1175.96 192.222C1179.39 197.241 1181.4 197.376 1185.15 192.222V179.886C1184.15 174.178 1184.09 170.555 1185.15 163.295M1185.15 159.041C1185.15 159.041 1188.62 160.616 1190.84 159.041C1192.43 160.855 1192.46 161.79 1190.84 163.295C1188.89 163.98 1187.78 164.32 1185.15 163.295M1185.15 159.041V163.295M1194.34 179.886V185.416C1198.27 186.518 1200.46 186.542 1204.4 185.416C1213.29 180.633 1218.17 177.842 1219.71 165.422C1222.8 162.163 1223.04 160.628 1219.71 158.616C1219.39 156.622 1219.42 155.505 1219.71 153.511L1225.84 152.66C1228.79 150.608 1228.76 149.814 1226.71 148.832C1219.56 149.727 1215.82 149.582 1209.65 147.981C1206.66 148.786 1206.21 149.66 1209.65 152.66L1213.59 153.511C1214.38 155.505 1214.46 156.622 1213.59 158.616C1210.04 160.167 1210.15 161.694 1213.59 165.422C1212.17 173.01 1209.73 175.793 1204.4 179.886C1200.3 181.265 1198.11 181.199 1194.34 179.886ZM1167.21 179.886V186.266C1163.97 187.178 1161.92 187.182 1158.02 186.266C1147.84 181.046 1145.53 175.756 1142.71 165.422C1139.81 164.199 1139.16 163.26 1139.65 161.168C1140.16 160.171 1140.45 159.612 1140.96 158.616C1141.95 156.622 1142.04 155.504 1140.96 153.511L1137.02 152.66C1134.13 149.826 1134.53 148.708 1137.02 147.13C1142.18 148.972 1145.06 150.04 1152.33 147.13C1154.86 149.149 1155.56 150.321 1152.33 152.66L1147.52 153.511C1146.8 155.502 1146.86 156.623 1147.52 158.616C1151.81 160.504 1151.8 162.056 1148.83 165.422C1154.59 178.329 1159.23 182.912 1167.21 179.886Z" stroke="#A85D00" stroke-linejoin="round"/>
<path d="M1149.81 124.159C1146.04 125.609 1143.95 125.755 1140.18 124.159C1140.18 124.159 1133.37 116.495 1135.37 109.695C1137.08 103.878 1144.43 97.5267 1145.76 95.1961C1145.65 94.7737 1145.67 94.4909 1145.87 94.381C1146.04 94.5231 1145.99 94.8022 1145.76 95.1961C1146.46 97.7787 1152.27 105.579 1153.74 110.971C1155.16 116.153 1149.81 124.159 1149.81 124.159Z" fill="#FEDE7F"/>
<path d="M1186.12 119.905C1182.53 121.474 1180.42 121.44 1176.5 119.905C1172.06 116.086 1171.68 113.524 1171.68 107.568C1171.68 101.613 1178.51 93.0515 1183.5 88C1184.69 91.9728 1193.12 104.165 1192.68 109.695C1192.25 115.225 1190.5 116.455 1186.12 119.905Z" fill="#FEDE7F"/>
<path d="M1223.75 124.159C1218.95 126.78 1216.39 126.316 1211.94 124.159C1209.61 121.494 1207.17 119.723 1208 112.248C1208.83 104.772 1216.12 100.486 1218.94 94.381C1223.8 101.667 1229 107.568 1229 114.375C1229 121.181 1223.75 124.159 1223.75 124.159Z" fill="#FEDE7F"/>
<path d="M1149.81 124.159C1146.04 125.609 1143.95 125.755 1140.18 124.159C1140.18 124.159 1133.37 116.495 1135.37 109.695C1137.08 103.878 1144.43 97.5267 1145.76 95.1961C1145.65 94.7737 1145.67 94.4909 1145.87 94.381C1146.04 94.5231 1145.99 94.8022 1145.76 95.1961C1146.46 97.7787 1152.27 105.579 1153.74 110.971C1155.16 116.153 1149.81 124.159 1149.81 124.159Z" stroke="#F2B333" stroke-linejoin="round"/>
<path d="M1186.12 119.905C1182.53 121.474 1180.42 121.44 1176.5 119.905C1172.06 116.086 1171.68 113.524 1171.68 107.568C1171.68 101.613 1178.51 93.0515 1183.5 88C1184.69 91.9728 1193.12 104.165 1192.68 109.695C1192.25 115.225 1190.5 116.455 1186.12 119.905Z" stroke="#F2B333" stroke-linejoin="round"/>
<path d="M1223.75 124.159C1218.95 126.78 1216.39 126.316 1211.94 124.159C1209.61 121.494 1207.17 119.723 1208 112.248C1208.83 104.772 1216.12 100.486 1218.94 94.381C1223.8 101.667 1229 107.568 1229 114.375C1229 121.181 1223.75 124.159 1223.75 124.159Z" stroke="#F2B333" stroke-linejoin="round"/>
</svg>
