<svg width="1920" height="273" viewBox="0 0 1920 273" fill="none" xmlns="http://www.w3.org/2000/svg">
<g clip-path="url(#clip0_308_100)">
<rect width="1920" height="273" fill="#A66101"/>
<path d="M55 1L0 34M139.5 1L0 78M232 1L0 158.5M319 1L0 273.5M411.5 1L161 273.5M474 1L269.5 273.5M556 1L394.5 273.5M621.5 1L489 273.5M688.5 1L595 273.5M751.5 1L703.5 273.5M841.5 1L862 273.5M903 1L966.5 273.5M966.5 1L1078 273.5M1037 1L1175.5 273.5M1105 1L1293.5 273.5M1157 1L1389.5 273.5M1225.5 1L1509.5 273.5M1305 1L1637 273.5M1363 1L1777 273.5M1463 1L1919 273.5M1573 1L1919 191.5M1674.5 1L1919 119.5M1762 1L1919 67M1841.5 1L1919 24.5" stroke="#9D5500" stroke-width="5"/>
</g>
<defs>
<clipPath id="clip0_308_100">
<rect width="1920" height="273" fill="white"/>
</clipPath>
</defs>
</svg>
