<svg width="492" height="281" viewBox="0 0 492 281" fill="none" xmlns="http://www.w3.org/2000/svg">
<ellipse cx="246" cy="231" rx="246" ry="50" fill="#9D5500"/>
<path d="M135.543 180.743C137.825 169.449 137.562 164.517 133.788 159.443C133.525 159.09 133.057 158.965 132.647 159.126L120.748 163.8C124.501 165.648 124.739 174.472 123.484 197.314C123.256 207.382 123.634 213.042 127.78 222.939C127.834 223.067 127.915 223.185 128.017 223.279C129.575 224.708 130.757 225.082 133.14 224.807C133.269 224.792 133.397 224.75 133.509 224.685C135.873 223.318 136.78 222.137 136.943 220.64C137.047 219.682 135.482 216.967 134.695 216.41C134.342 216.16 133.938 215.873 133.479 215.546C133.386 215.479 133.302 215.395 133.237 215.3C130.334 211.052 130.231 207.257 130.599 200.061C131.352 191.645 132.796 187.734 135.492 180.915C135.514 180.86 135.532 180.801 135.543 180.743Z" fill="#FDBD44"/>
<path d="M81.458 206.776C85.436 192.254 85.9834 184.18 87.2594 170.39C87.3136 169.804 86.8525 169.294 86.2635 169.294H78.0017C77.4342 169.294 76.9806 169.769 77.0021 170.336C77.5132 183.826 77.5473 191.772 75.3569 205.868C75.3331 206.021 75.344 206.181 75.3933 206.328C76.1558 208.602 77.09 209.32 80.9504 207.401C81.2001 207.277 81.3843 207.045 81.458 206.776Z" fill="#FDBD44"/>
<path d="M135.543 180.743C137.825 169.449 137.562 164.517 133.788 159.443C133.525 159.09 133.057 158.965 132.647 159.126L120.748 163.8C124.501 165.648 124.739 174.472 123.484 197.314C123.256 207.382 123.634 213.042 127.78 222.939C127.834 223.067 127.915 223.185 128.017 223.279C129.575 224.708 130.757 225.082 133.14 224.807C133.269 224.792 133.397 224.75 133.509 224.685C135.873 223.318 136.78 222.137 136.943 220.64C137.047 219.682 135.482 216.967 134.695 216.41C134.342 216.16 133.938 215.873 133.479 215.546C133.386 215.479 133.302 215.395 133.237 215.3C130.334 211.052 130.231 207.257 130.599 200.061C131.352 191.645 132.796 187.734 135.492 180.915C135.514 180.86 135.532 180.801 135.543 180.743Z" stroke="#BF6E14"/>
<path d="M81.458 206.776C85.436 192.254 85.9834 184.18 87.2594 170.39C87.3136 169.804 86.8525 169.294 86.2635 169.294H78.0017C77.4342 169.294 76.9806 169.769 77.0021 170.336C77.5132 183.826 77.5473 191.772 75.3569 205.868C75.3331 206.021 75.344 206.181 75.3933 206.328C76.1558 208.602 77.09 209.32 80.9504 207.401C81.2001 207.277 81.3843 207.045 81.458 206.776Z" stroke="#BF6E14"/>
<path d="M21.827 216.959C30.4475 197.903 32.7 185.833 33.7165 163.051C33.7213 162.944 33.7089 162.834 33.6795 162.731L29.4605 147.909C29.3868 147.65 29.421 147.372 29.5537 147.138C31.7421 143.276 32.8749 140.639 33.6341 134.523C33.6893 134.078 33.8475 133.498 33.8351 133.05C33.7467 129.837 31.2996 116.818 30.6051 113.5C31.5277 115.879 35.8832 119.549 42.9549 121.66C43.0033 121.675 43.0544 121.686 43.1044 121.692C52.9143 123.035 58.4272 122.861 68.205 119.484C78.4139 115.437 79.7002 107.398 79.6987 110.694C79.6972 113.99 80.7918 122.781 81.3406 124.429C81.8895 126.077 91.7397 126.077 91.1924 124.429C90.6451 122.781 89.6812 96.453 91.7397 78.8289C91.7642 67.0001 91.6075 60.3552 85.1719 48.0626C78.5995 37.8377 73.4474 33.7618 61.0898 29.9325C50.1638 26.2654 43.9679 25.7869 32.6292 29.9325C26.4102 32.1788 23.4356 33.9052 19.4935 38.1735C12.8134 44.0281 9.63709 48.4782 8.01114 64.4331C8.00375 64.5057 8.00437 64.583 8.01299 64.6555C10.0842 82.072 12.9877 88.8076 17.8516 101.354C21.4994 114.497 23.3848 122.131 23.8721 140.362C23.8006 170.869 23.2808 187.885 15.8011 215.665C15.7154 215.983 15.788 216.331 16.0099 216.574C17.582 218.299 18.8159 218.689 21.3739 217.434C21.5748 217.335 21.7348 217.163 21.827 216.959Z" fill="#FEC143" stroke="#BF6E14"/>
<path d="M56.1658 231.926C64.3858 218.203 55.9955 197.405 50.1453 169.844H72.0381C65.1842 172.771 66.1889 195.364 67.1122 231.926C63.4346 241.288 57.1256 239.554 56.1658 231.926Z" fill="#F8B239" stroke="#BF6E14"/>
<path d="M136.187 150.267C136.036 149.815 135.531 149.62 135.075 149.76C108.185 158.043 92.0664 160.638 61.5438 161.599C61.4692 161.601 61.3918 161.595 61.3185 161.581C46.2171 158.631 37.3669 155.046 26.9487 146.769V157.207C26.9487 162.152 46.3576 170.302 61.43 170.942C97.5314 169.466 115.143 167.58 135.359 160.142C135.674 160.026 135.911 159.76 135.977 159.431C136.295 157.853 137.127 153.082 136.187 150.267Z" fill="#FCBC43"/>
<path d="M26.9487 146.769C37.3669 155.046 46.2171 158.631 61.3185 161.581C61.3918 161.595 61.4692 161.601 61.5438 161.599C92.0664 160.638 108.185 158.043 135.075 149.76C135.531 149.62 136.036 149.815 136.187 150.267C137.127 153.082 136.295 157.853 135.977 159.431C135.911 159.76 135.674 160.026 135.359 160.142C115.143 167.58 97.5314 169.466 61.43 170.942C46.3576 170.302 26.9487 162.152 26.9487 157.207M26.9487 146.769C26.9487 150.845 26.9487 152.263 26.9487 157.207M26.9487 146.769V157.207" stroke="#BF6E14"/>
<path d="M61.89 161.604C94.8498 160.302 111.281 157.939 134.701 149.666C134.958 149.575 135.173 149.378 135.281 149.128C138.278 142.196 136.254 139.149 129.16 134.734C129.112 134.704 129.059 134.677 129.006 134.656C111.907 127.726 101.852 125.766 83.1116 125.898C57.7608 126.032 44.3206 127.063 27.9285 137.921C27.8653 137.963 27.7953 137.997 27.7268 138.029C26.3478 138.684 26.5929 141.509 27.7672 148.061C27.8087 148.293 27.9327 148.507 28.1148 148.656C36.2568 155.329 44.2927 157.991 61.6445 161.583C61.724 161.6 61.8089 161.607 61.89 161.604Z" fill="#743412" stroke="#682C11"/>
<path d="M62.1864 150.401C93.5136 147.002 114.283 145.709 133.338 139.963C123.348 132.413 113.444 130.111 92.8363 127.327C61.4366 125.986 47.9093 128.497 29.8945 137.765C36.0719 143.97 44.0949 146.549 62.1864 150.401Z" fill="#8F4215" stroke="#873D13"/>
<path d="M28.0313 45.0936C40.743 35.6766 62.5124 39.5992 65.249 41.7973C67.9856 43.9953 75.6973 47.6703 79.4793 56.631C85.7492 73.7107 84.4974 81.5937 82.2159 95.6383C78.203 108.934 75.0194 115.611 58.6812 118.713C46.4567 118.629 39.5249 118.713 33.5045 111.021C27.484 103.33 25.416 97.3962 22.0107 79.1563C18.6763 60.9964 19.8144 53.3846 28.0313 45.0936Z" fill="#7E3912" stroke="#783312"/>
<path d="M72.0374 164.35V170.942M53.9759 163.251V170.393M127.864 155.559V162.152M136.621 152.812C111.136 160.7 94.1359 162.728 62.1856 164.899C45.3185 161.848 37.3946 159.025 27.1572 151.164" stroke="#BC660E"/>
<path d="M79.6987 109.959C87.9091 92.3785 87.612 74.6213 83.5311 57.217C77.7071 45.9296 72.891 40.4824 64.3751 37.4385C50.3886 32.4221 42.384 33.31 28.7993 39.6362C18.939 47.8686 16.9882 54.7365 16.7583 64.9086C18.7258 85.2709 21.1368 97.3231 30.2453 112.872" stroke="#BA6A15"/>
<path d="M345.457 176.743C343.175 165.449 343.438 160.517 347.212 155.443C347.475 155.09 347.943 154.965 348.353 155.126L360.252 159.8C356.499 161.648 356.261 170.472 357.516 193.314C357.744 203.382 357.366 209.042 353.22 218.939C353.166 219.067 353.085 219.185 352.983 219.279C351.425 220.708 350.243 221.082 347.86 220.807C347.731 220.792 347.603 220.75 347.491 220.685C345.127 219.318 344.22 218.137 344.057 216.64C343.953 215.682 345.518 212.967 346.305 212.41C346.658 212.16 347.062 211.873 347.521 211.546C347.614 211.479 347.698 211.395 347.763 211.3C350.666 207.052 350.769 203.257 350.401 196.061C349.648 187.645 348.204 183.734 345.508 176.915C345.486 176.86 345.468 176.801 345.457 176.743Z" fill="#FDBD44"/>
<path d="M399.542 202.776C395.564 188.254 395.017 180.18 393.741 166.39C393.686 165.804 394.148 165.294 394.737 165.294H402.998C403.566 165.294 404.019 165.769 403.998 166.336C403.487 179.826 403.453 187.772 405.643 201.868C405.667 202.021 405.656 202.181 405.607 202.328C404.844 204.602 403.91 205.32 400.05 203.401C399.8 203.277 399.616 203.045 399.542 202.776Z" fill="#FDBD44"/>
<path d="M345.457 176.743C343.175 165.449 343.438 160.517 347.212 155.443C347.475 155.09 347.943 154.965 348.353 155.126L360.252 159.8C356.499 161.648 356.261 170.472 357.516 193.314C357.744 203.382 357.366 209.042 353.22 218.939C353.166 219.067 353.085 219.185 352.983 219.279C351.425 220.708 350.243 221.082 347.86 220.807C347.731 220.792 347.603 220.75 347.491 220.685C345.127 219.318 344.22 218.137 344.057 216.64C343.953 215.682 345.518 212.967 346.305 212.41C346.658 212.16 347.062 211.873 347.521 211.546C347.614 211.479 347.698 211.395 347.763 211.3C350.666 207.052 350.769 203.257 350.401 196.061C349.648 187.645 348.204 183.734 345.508 176.915C345.486 176.86 345.468 176.801 345.457 176.743Z" stroke="#BF6E14"/>
<path d="M399.542 202.776C395.564 188.254 395.017 180.18 393.741 166.39C393.686 165.804 394.148 165.294 394.737 165.294H402.998C403.566 165.294 404.019 165.769 403.998 166.336C403.487 179.826 403.453 187.772 405.643 201.868C405.667 202.021 405.656 202.181 405.607 202.328C404.844 204.602 403.91 205.32 400.05 203.401C399.8 203.277 399.616 203.045 399.542 202.776Z" stroke="#BF6E14"/>
<path d="M459.173 212.959C450.553 193.903 448.3 181.833 447.283 159.051C447.279 158.944 447.291 158.834 447.321 158.731L451.539 143.909C451.613 143.65 451.579 143.372 451.446 143.138C449.258 139.276 448.125 136.639 447.366 130.523C447.311 130.078 447.153 129.498 447.165 129.05C447.253 125.837 449.7 112.818 450.395 109.5C449.472 111.879 445.117 115.549 438.045 117.66C437.997 117.675 437.946 117.686 437.896 117.692C428.086 119.035 422.573 118.861 412.795 115.484C402.586 111.437 401.3 103.398 401.301 106.694C401.303 109.99 400.208 118.781 399.659 120.429C399.111 122.077 389.26 122.077 389.808 120.429C390.355 118.781 391.319 92.453 389.26 74.8289C389.236 63.0001 389.393 56.3552 395.828 44.0626C402.401 33.8377 407.553 29.7618 419.91 25.9325C430.836 22.2654 437.032 21.7869 448.371 25.9325C454.59 28.1788 457.564 29.9052 461.506 34.1735C468.187 40.0281 471.363 44.4782 472.989 60.4331C472.996 60.5057 472.996 60.583 472.987 60.6555C470.916 78.072 468.012 84.8076 463.148 97.3543C459.501 110.497 457.615 118.131 457.128 136.362C457.199 166.869 457.719 183.885 465.199 211.665C465.285 211.983 465.212 212.331 464.99 212.574C463.418 214.299 462.184 214.689 459.626 213.434C459.425 213.335 459.265 213.163 459.173 212.959Z" fill="#FEC143" stroke="#BF6E14"/>
<path d="M424.834 227.926C416.614 214.203 425.005 193.405 430.855 165.844H408.962C415.816 168.771 414.811 191.364 413.888 227.926C417.565 237.288 423.874 235.554 424.834 227.926Z" fill="#F8B239" stroke="#BF6E14"/>
<path d="M344.813 146.267C344.964 145.815 345.469 145.62 345.925 145.76C372.815 154.043 388.934 156.638 419.456 157.599C419.531 157.601 419.608 157.595 419.681 157.581C434.783 154.631 443.633 151.046 454.051 142.769V153.207C454.051 158.152 434.642 166.302 419.57 166.942C383.469 165.466 365.857 163.58 345.641 156.142C345.326 156.026 345.089 155.76 345.023 155.431C344.705 153.853 343.873 149.082 344.813 146.267Z" fill="#FCBC43"/>
<path d="M454.051 142.769C443.633 151.046 434.783 154.631 419.681 157.581C419.608 157.595 419.531 157.601 419.456 157.599C388.934 156.638 372.815 154.043 345.925 145.76C345.469 145.62 344.964 145.815 344.813 146.267C343.873 149.082 344.705 153.853 345.023 155.431C345.089 155.76 345.326 156.026 345.641 156.142C365.857 163.58 383.469 165.466 419.57 166.942C434.642 166.302 454.051 158.152 454.051 153.207M454.051 142.769C454.051 146.845 454.051 148.263 454.051 153.207M454.051 142.769V153.207" stroke="#BF6E14"/>
<path d="M419.11 157.604C386.15 156.302 369.719 153.939 346.299 145.666C346.042 145.575 345.827 145.378 345.719 145.128C342.722 138.196 344.746 135.149 351.84 130.734C351.888 130.704 351.941 130.677 351.994 130.656C369.093 123.726 379.148 121.766 397.888 121.898C423.239 122.032 436.679 123.063 453.071 133.921C453.135 133.963 453.205 133.997 453.273 134.029C454.652 134.684 454.407 137.509 453.233 144.061C453.191 144.293 453.067 144.507 452.885 144.656C444.743 151.329 436.707 153.991 419.355 157.583C419.276 157.6 419.191 157.607 419.11 157.604Z" fill="#743412" stroke="#682C11"/>
<path d="M418.814 146.401C387.486 143.002 366.717 141.709 347.662 135.963C357.652 128.413 367.556 126.111 388.164 123.327C419.563 121.986 433.091 124.497 451.105 133.765C444.928 139.97 436.905 142.549 418.814 146.401Z" fill="#8F4215" stroke="#873D13"/>
<path d="M452.969 41.0936C440.257 31.6766 418.488 35.5992 415.751 37.7973C413.014 39.9953 405.303 43.6703 401.521 52.631C395.251 69.7107 396.503 77.5937 398.784 91.6383C402.797 104.934 405.981 111.611 422.319 114.713C434.543 114.629 441.475 114.713 447.496 107.021C453.516 99.3299 455.584 93.3962 458.989 75.1563C462.324 56.9964 461.186 49.3846 452.969 41.0936Z" fill="#7E3912" stroke="#783312"/>
<path d="M408.963 160.35V166.942M427.024 159.251V166.393M353.136 151.559V158.152M344.379 148.812C369.864 156.7 386.864 158.728 418.814 160.899C435.682 157.848 443.605 155.025 453.843 147.164" stroke="#BC660E"/>
<path d="M401.301 105.959C393.091 88.3785 393.388 70.6213 397.469 53.217C403.293 41.9296 408.109 36.4824 416.625 33.4385C430.611 28.4221 438.616 29.31 452.201 35.6362C462.061 43.8686 464.012 50.7365 464.242 60.9086C462.274 81.2709 459.863 93.3231 450.755 108.872" stroke="#BA6A15"/>
<path d="M251.541 181L240.669 181C240.124 181 239.68 181.435 239.669 181.98L239.047 212.558C239.043 212.756 238.979 212.951 238.865 213.112C232.987 221.451 228.388 224.177 219.541 227.861L192.157 236.823C192.081 236.848 192.005 236.883 191.937 236.926C188.41 239.142 187.677 240.695 191.864 244.214C191.978 244.31 192.118 244.381 192.263 244.417C231.469 254.235 256.995 256.419 298.939 244.39C299.006 244.371 299.074 244.344 299.135 244.311C304.338 241.53 303.991 239.886 299.041 236.861C291.684 232.563 286.277 230.707 275.541 227.861C264.927 224.151 259.596 221.246 252.776 213.141C252.625 212.962 252.541 212.733 252.541 212.499V182C252.541 181.448 252.093 181 251.541 181Z" fill="#743412" stroke="#915A18"/>
<path d="M247.655 71C191.976 66.7823 147.11 71.158 119.655 53L110.155 150.5C109.065 156.809 113.026 156.775 145.155 161.5C145.281 176.886 168.234 172.334 195.655 172C223.792 185.839 261.406 191.451 299.155 172C322.655 171.793 342.294 178.7 350.155 161.5C369.375 160.578 381.453 160.823 384.655 150.5L375.155 53C355.146 66.0243 323.189 69.1485 247.655 71Z" fill="#EFB954" stroke="#E8AF4C"/>
<path d="M310.5 172.5C305.949 171.936 303.18 171.991 298 172.5L303.5 101C305.482 129.657 306.074 146.23 310.5 172.5Z" fill="#E8AE4B"/>
<path d="M344 93L348 161.5C348 161.5 356.77 159.89 361 160C351.166 134.453 349.526 119.38 344 93Z" fill="#E8AE4B"/>
<path d="M190 98.5L194.5 172.5C189.729 171.109 186.436 170.919 178.5 172.5C184.569 144.965 186.32 128.099 190 98.5Z" fill="#E8AE4B"/>
<path d="M147.5 93L143.5 161.5C139.493 159.951 137.218 159.458 133 160C139.223 134.868 142.138 119.708 147.5 93Z" fill="#E8AE4B"/>
<path d="M310.5 172.5C305.949 171.936 303.18 171.991 298 172.5L303.5 101C305.482 129.657 306.074 146.23 310.5 172.5Z" stroke="#E8AE4C"/>
<path d="M344 93L348 161.5C348 161.5 356.77 159.89 361 160C351.166 134.453 349.526 119.38 344 93Z" stroke="#E8AE4C"/>
<path d="M190 98.5L194.5 172.5C189.729 171.109 186.436 170.919 178.5 172.5C184.569 144.965 186.32 128.099 190 98.5Z" stroke="#E8AE4C"/>
<path d="M147.5 93L143.5 161.5C139.493 159.951 137.218 159.458 133 160C139.223 134.868 142.138 119.708 147.5 93Z" stroke="#E8AE4C"/>
<path d="M246.721 33C175.293 33.0656 124.211 34.2413 119.049 51.9009C116.16 68.4491 242.633 73.0865 246.721 71.7966C250.81 70.5067 379.11 69.9024 374.899 51.9009C363.813 32.4695 317.45 33.1738 246.721 33Z" fill="#F9C862" stroke="#EEB954"/>
<path d="M331.456 10H312.879C311.153 11.1355 310.319 12.1129 309.225 14.7844C308.988 20.4391 308.675 23.4609 309.834 30.2635C312.634 34.5952 313.711 37.3804 319.883 39.2695V51.9341C316.509 53.2241 315.285 54.3181 314.402 57H330.238C327.956 53.5868 326.479 52.5545 323.538 51.9341V39.2695C328.258 39.0165 334.046 29.0943 333.666 28.1205C334.199 28.2088 334.938 21.1002 334.196 14.7844C333.6 12.7933 332.953 11.7564 331.456 10Z" fill="#EFC797" stroke="#BE8962" stroke-linecap="round" stroke-linejoin="round"/>
<path d="M331.934 23.0242H311.414C312.57 31.6432 314.724 34.8564 322.278 36.6145C328.019 34.575 329.894 31.2034 331.934 23.0242Z" fill="#A73D15" stroke="#B6472C" stroke-linecap="round" stroke-linejoin="round"/>
<path d="M185.456 9H166.879C165.153 10.1355 164.319 11.1129 163.225 13.7844C162.988 19.4391 162.675 22.4609 163.834 29.2635C166.634 33.5952 167.711 36.3804 173.883 38.2695V50.9341C170.509 52.2241 169.285 53.3181 168.402 56H184.238C181.956 52.5868 180.479 51.5545 177.538 50.9341V38.2695C182.258 38.0165 188.046 28.0943 187.666 27.1205C188.199 27.2088 188.938 20.1002 188.196 13.7844C187.6 11.7933 186.953 10.7564 185.456 9Z" fill="#EFC797" stroke="#BE8962" stroke-linecap="round" stroke-linejoin="round"/>
<path d="M185.934 22.0242H165.414C166.57 30.6432 168.724 33.8564 176.278 35.6145C182.019 33.575 183.894 30.2034 185.934 22.0242Z" fill="#A73D15" stroke="#B6472C" stroke-linecap="round" stroke-linejoin="round"/>
<path d="M247.745 15.7196C244.647 15.5287 244.238 14.0687 242.943 12.0397C242.293 10.4701 242.363 9.62222 242.943 8.14333C244.922 5.32929 246.033 3.75609 248.027 1L252.829 8.14333C253.346 9.85548 253.297 10.6899 252.829 12.0397C250.559 15.1246 249.482 15.7671 247.745 15.7196Z" fill="#FDDC79" stroke="#D2951A" stroke-linejoin="round"/>
<path d="M251.7 18.3171C248.706 15.8811 247.114 15.9278 244.355 18.3171V35.8508H251.7V18.3171Z" fill="#FCC34C" stroke="#F7C348" stroke-linejoin="round"/>
<path d="M252.549 34.3357H244.074C238.033 34.256 238.254 35.4971 245.204 39.9638C245.925 42.1618 245.975 43.3939 245.204 45.5919C245.143 46.2025 240.954 47.7425 237.295 51.2199C233.636 54.6973 265.321 54.4891 260.175 50.5705C255.03 46.652 253.095 45.4699 252.549 45.5919C251.436 43.3902 251.524 42.1655 252.549 39.9638C258.005 35.45 258.559 33.9804 252.549 34.3357Z" fill="#D38808" stroke="#D18706" stroke-linejoin="round"/>
</svg>
