<svg width="492" height="298" viewBox="0 0 492 298" fill="none" xmlns="http://www.w3.org/2000/svg">
<ellipse cx="246" cy="248" rx="246" ry="50" fill="#9D5500"/>
<path d="M135.543 197.743C137.825 186.449 137.562 181.517 133.788 176.443C133.525 176.09 133.057 175.965 132.647 176.126L120.748 180.8C124.501 182.648 124.739 191.472 123.484 214.314C123.256 224.382 123.634 230.042 127.78 239.939C127.834 240.067 127.915 240.185 128.017 240.279C129.575 241.708 130.757 242.082 133.14 241.807C133.269 241.792 133.397 241.75 133.509 241.685C135.873 240.318 136.78 239.137 136.943 237.64C137.047 236.682 135.482 233.967 134.695 233.41C134.342 233.16 133.938 232.873 133.479 232.546C133.386 232.479 133.302 232.395 133.237 232.3C130.334 228.052 130.231 224.257 130.599 217.061C131.352 208.645 132.796 204.734 135.492 197.915C135.514 197.86 135.532 197.801 135.543 197.743Z" fill="#FDBD44"/>
<path d="M81.458 223.776C85.436 209.254 85.9834 201.18 87.2594 187.39C87.3136 186.804 86.8525 186.294 86.2635 186.294H78.0017C77.4342 186.294 76.9806 186.769 77.0021 187.336C77.5132 200.826 77.5473 208.772 75.3569 222.868C75.3331 223.021 75.344 223.181 75.3933 223.328C76.1558 225.602 77.09 226.32 80.9504 224.401C81.2001 224.277 81.3843 224.045 81.458 223.776Z" fill="#FDBD44"/>
<path d="M135.543 197.743C137.825 186.449 137.562 181.517 133.788 176.443C133.525 176.09 133.057 175.965 132.647 176.126L120.748 180.8C124.501 182.648 124.739 191.472 123.484 214.314C123.256 224.382 123.634 230.042 127.78 239.939C127.834 240.067 127.915 240.185 128.017 240.279C129.575 241.708 130.757 242.082 133.14 241.807C133.269 241.792 133.397 241.75 133.509 241.685C135.873 240.318 136.78 239.137 136.943 237.64C137.047 236.682 135.482 233.967 134.695 233.41C134.342 233.16 133.938 232.873 133.479 232.546C133.386 232.479 133.302 232.395 133.237 232.3C130.334 228.052 130.231 224.257 130.599 217.061C131.352 208.645 132.796 204.734 135.492 197.915C135.514 197.86 135.532 197.801 135.543 197.743Z" stroke="#BF6E14"/>
<path d="M81.458 223.776C85.436 209.254 85.9834 201.18 87.2594 187.39C87.3136 186.804 86.8525 186.294 86.2635 186.294H78.0017C77.4342 186.294 76.9806 186.769 77.0021 187.336C77.5132 200.826 77.5473 208.772 75.3569 222.868C75.3331 223.021 75.344 223.181 75.3933 223.328C76.1558 225.602 77.09 226.32 80.9504 224.401C81.2001 224.277 81.3843 224.045 81.458 223.776Z" stroke="#BF6E14"/>
<path d="M21.827 233.959C30.4475 214.903 32.7 202.833 33.7165 180.051C33.7213 179.944 33.7089 179.834 33.6795 179.731L29.4605 164.909C29.3868 164.65 29.421 164.372 29.5537 164.138C31.7421 160.276 32.8749 157.639 33.6341 151.523C33.6893 151.078 33.8475 150.498 33.8351 150.05C33.7467 146.837 31.2996 133.818 30.6051 130.5C31.5277 132.879 35.8832 136.549 42.9549 138.66C43.0033 138.675 43.0544 138.686 43.1044 138.692C52.9143 140.035 58.4272 139.861 68.205 136.484C78.4139 132.437 79.7002 124.398 79.6987 127.694C79.6972 130.99 80.7918 139.781 81.3406 141.429C81.8895 143.077 91.7397 143.077 91.1924 141.429C90.6451 139.781 89.6812 113.453 91.7397 95.8289C91.7642 84.0001 91.6075 77.3552 85.1719 65.0626C78.5995 54.8377 73.4474 50.7618 61.0898 46.9325C50.1638 43.2654 43.9679 42.7869 32.6292 46.9325C26.4102 49.1788 23.4356 50.9052 19.4935 55.1735C12.8134 61.0281 9.63709 65.4782 8.01114 81.4331C8.00375 81.5057 8.00437 81.583 8.01299 81.6555C10.0842 99.072 12.9877 105.808 17.8516 118.354C21.4994 131.497 23.3848 139.131 23.8721 157.362C23.8006 187.869 23.2808 204.885 15.8011 232.665C15.7154 232.983 15.788 233.331 16.0099 233.574C17.582 235.299 18.8159 235.689 21.3739 234.434C21.5748 234.335 21.7348 234.163 21.827 233.959Z" fill="#FEC143" stroke="#BF6E14"/>
<path d="M56.1658 248.926C64.3858 235.203 55.9955 214.405 50.1453 186.844H72.0381C65.1842 189.771 66.1889 212.364 67.1122 248.926C63.4346 258.288 57.1256 256.554 56.1658 248.926Z" fill="#F8B239" stroke="#BF6E14"/>
<path d="M136.187 167.267C136.036 166.815 135.531 166.62 135.075 166.76C108.185 175.043 92.0664 177.638 61.5438 178.599C61.4692 178.601 61.3918 178.595 61.3185 178.581C46.2171 175.631 37.3669 172.046 26.9487 163.769V174.207C26.9487 179.152 46.3576 187.302 61.43 187.942C97.5314 186.466 115.143 184.58 135.359 177.142C135.674 177.026 135.911 176.76 135.977 176.431C136.295 174.853 137.127 170.082 136.187 167.267Z" fill="#FCBC43"/>
<path d="M26.9487 163.769C37.3669 172.046 46.2171 175.631 61.3185 178.581C61.3918 178.595 61.4692 178.601 61.5438 178.599C92.0664 177.638 108.185 175.043 135.075 166.76C135.531 166.62 136.036 166.815 136.187 167.267C137.127 170.082 136.295 174.853 135.977 176.431C135.911 176.76 135.674 177.026 135.359 177.142C115.143 184.58 97.5314 186.466 61.43 187.942C46.3576 187.302 26.9487 179.152 26.9487 174.207M26.9487 163.769C26.9487 167.845 26.9487 169.263 26.9487 174.207M26.9487 163.769V174.207" stroke="#BF6E14"/>
<path d="M61.89 178.604C94.8498 177.302 111.281 174.939 134.701 166.666C134.958 166.575 135.173 166.378 135.281 166.128C138.278 159.196 136.254 156.149 129.16 151.734C129.112 151.704 129.059 151.677 129.006 151.656C111.907 144.726 101.852 142.766 83.1116 142.898C57.7608 143.032 44.3206 144.063 27.9285 154.921C27.8653 154.963 27.7953 154.997 27.7268 155.029C26.3478 155.684 26.5929 158.509 27.7672 165.061C27.8087 165.293 27.9327 165.507 28.1148 165.656C36.2568 172.329 44.2927 174.991 61.6445 178.583C61.724 178.6 61.8089 178.607 61.89 178.604Z" fill="#743412" stroke="#682C11"/>
<path d="M62.1864 167.401C93.5136 164.002 114.283 162.709 133.338 156.963C123.348 149.413 113.444 147.111 92.8363 144.327C61.4366 142.986 47.9093 145.497 29.8945 154.765C36.0719 160.97 44.0949 163.549 62.1864 167.401Z" fill="#8F4215" stroke="#873D13"/>
<path d="M28.0313 62.0936C40.743 52.6766 62.5124 56.5992 65.249 58.7973C67.9856 60.9953 75.6973 64.6703 79.4793 73.631C85.7492 90.7107 84.4974 98.5937 82.2159 112.638C78.203 125.934 75.0194 132.611 58.6812 135.713C46.4567 135.629 39.5249 135.713 33.5045 128.021C27.484 120.33 25.416 114.396 22.0107 96.1563C18.6763 77.9964 19.8144 70.3846 28.0313 62.0936Z" fill="#7E3912" stroke="#783312"/>
<path d="M72.0374 181.35V187.942M53.9759 180.251V187.393M127.864 172.559V179.152M136.621 169.812C111.136 177.7 94.1359 179.728 62.1856 181.899C45.3185 178.848 37.3946 176.025 27.1572 168.164" stroke="#BC660E"/>
<path d="M79.6987 126.959C87.9091 109.378 87.612 91.6213 83.5311 74.217C77.7071 62.9296 72.891 57.4824 64.3751 54.4385C50.3886 49.4221 42.384 50.31 28.7993 56.6362C18.939 64.8686 16.9882 71.7365 16.7583 81.9086C18.7258 102.271 21.1368 114.323 30.2453 129.872" stroke="#BA6A15"/>
<path d="M345.457 193.743C343.175 182.449 343.438 177.517 347.212 172.443C347.475 172.09 347.943 171.965 348.353 172.126L360.252 176.8C356.499 178.648 356.261 187.472 357.516 210.314C357.744 220.382 357.366 226.042 353.22 235.939C353.166 236.067 353.085 236.185 352.983 236.279C351.425 237.708 350.243 238.082 347.86 237.807C347.731 237.792 347.603 237.75 347.491 237.685C345.127 236.318 344.22 235.137 344.057 233.64C343.953 232.682 345.518 229.967 346.305 229.41C346.658 229.16 347.062 228.873 347.521 228.546C347.614 228.479 347.698 228.395 347.763 228.3C350.666 224.052 350.769 220.257 350.401 213.061C349.648 204.645 348.204 200.734 345.508 193.915C345.486 193.86 345.468 193.801 345.457 193.743Z" fill="#FDBD44"/>
<path d="M399.542 219.776C395.564 205.254 395.017 197.18 393.741 183.39C393.686 182.804 394.148 182.294 394.737 182.294H402.998C403.566 182.294 404.019 182.769 403.998 183.336C403.487 196.826 403.453 204.772 405.643 218.868C405.667 219.021 405.656 219.181 405.607 219.328C404.844 221.602 403.91 222.32 400.05 220.401C399.8 220.277 399.616 220.045 399.542 219.776Z" fill="#FDBD44"/>
<path d="M345.457 193.743C343.175 182.449 343.438 177.517 347.212 172.443C347.475 172.09 347.943 171.965 348.353 172.126L360.252 176.8C356.499 178.648 356.261 187.472 357.516 210.314C357.744 220.382 357.366 226.042 353.22 235.939C353.166 236.067 353.085 236.185 352.983 236.279C351.425 237.708 350.243 238.082 347.86 237.807C347.731 237.792 347.603 237.75 347.491 237.685C345.127 236.318 344.22 235.137 344.057 233.64C343.953 232.682 345.518 229.967 346.305 229.41C346.658 229.16 347.062 228.873 347.521 228.546C347.614 228.479 347.698 228.395 347.763 228.3C350.666 224.052 350.769 220.257 350.401 213.061C349.648 204.645 348.204 200.734 345.508 193.915C345.486 193.86 345.468 193.801 345.457 193.743Z" stroke="#BF6E14"/>
<path d="M399.542 219.776C395.564 205.254 395.017 197.18 393.741 183.39C393.686 182.804 394.148 182.294 394.737 182.294H402.998C403.566 182.294 404.019 182.769 403.998 183.336C403.487 196.826 403.453 204.772 405.643 218.868C405.667 219.021 405.656 219.181 405.607 219.328C404.844 221.602 403.91 222.32 400.05 220.401C399.8 220.277 399.616 220.045 399.542 219.776Z" stroke="#BF6E14"/>
<path d="M459.173 229.959C450.553 210.903 448.3 198.833 447.283 176.051C447.279 175.944 447.291 175.834 447.321 175.731L451.539 160.909C451.613 160.65 451.579 160.372 451.446 160.138C449.258 156.276 448.125 153.639 447.366 147.523C447.311 147.078 447.153 146.498 447.165 146.05C447.253 142.837 449.7 129.818 450.395 126.5C449.472 128.879 445.117 132.549 438.045 134.66C437.997 134.675 437.946 134.686 437.896 134.692C428.086 136.035 422.573 135.861 412.795 132.484C402.586 128.437 401.3 120.398 401.301 123.694C401.303 126.99 400.208 135.781 399.659 137.429C399.111 139.077 389.26 139.077 389.808 137.429C390.355 135.781 391.319 109.453 389.26 91.8289C389.236 80.0001 389.393 73.3552 395.828 61.0626C402.401 50.8377 407.553 46.7618 419.91 42.9325C430.836 39.2654 437.032 38.7869 448.371 42.9325C454.59 45.1788 457.564 46.9052 461.506 51.1735C468.187 57.0281 471.363 61.4782 472.989 77.4331C472.996 77.5057 472.996 77.583 472.987 77.6555C470.916 95.072 468.012 101.808 463.148 114.354C459.501 127.497 457.615 135.131 457.128 153.362C457.199 183.869 457.719 200.885 465.199 228.665C465.285 228.983 465.212 229.331 464.99 229.574C463.418 231.299 462.184 231.689 459.626 230.434C459.425 230.335 459.265 230.163 459.173 229.959Z" fill="#FEC143" stroke="#BF6E14"/>
<path d="M424.834 244.926C416.614 231.203 425.005 210.405 430.855 182.844H408.962C415.816 185.771 414.811 208.364 413.888 244.926C417.565 254.288 423.874 252.554 424.834 244.926Z" fill="#F8B239" stroke="#BF6E14"/>
<path d="M344.813 163.267C344.964 162.815 345.469 162.62 345.925 162.76C372.815 171.043 388.934 173.638 419.456 174.599C419.531 174.601 419.608 174.595 419.681 174.581C434.783 171.631 443.633 168.046 454.051 159.769V170.207C454.051 175.152 434.642 183.302 419.57 183.942C383.469 182.466 365.857 180.58 345.641 173.142C345.326 173.026 345.089 172.76 345.023 172.431C344.705 170.853 343.873 166.082 344.813 163.267Z" fill="#FCBC43"/>
<path d="M454.051 159.769C443.633 168.046 434.783 171.631 419.681 174.581C419.608 174.595 419.531 174.601 419.456 174.599C388.934 173.638 372.815 171.043 345.925 162.76C345.469 162.62 344.964 162.815 344.813 163.267C343.873 166.082 344.705 170.853 345.023 172.431C345.089 172.76 345.326 173.026 345.641 173.142C365.857 180.58 383.469 182.466 419.57 183.942C434.642 183.302 454.051 175.152 454.051 170.207M454.051 159.769C454.051 163.845 454.051 165.263 454.051 170.207M454.051 159.769V170.207" stroke="#BF6E14"/>
<path d="M419.11 174.604C386.15 173.302 369.719 170.939 346.299 162.666C346.042 162.575 345.827 162.378 345.719 162.128C342.722 155.196 344.746 152.149 351.84 147.734C351.888 147.704 351.941 147.677 351.994 147.656C369.093 140.726 379.148 138.766 397.888 138.898C423.239 139.032 436.679 140.063 453.071 150.921C453.135 150.963 453.205 150.997 453.273 151.029C454.652 151.684 454.407 154.509 453.233 161.061C453.191 161.293 453.067 161.507 452.885 161.656C444.743 168.329 436.707 170.991 419.355 174.583C419.276 174.6 419.191 174.607 419.11 174.604Z" fill="#743412" stroke="#682C11"/>
<path d="M418.814 163.401C387.486 160.002 366.717 158.709 347.662 152.963C357.652 145.413 367.556 143.111 388.164 140.327C419.563 138.986 433.091 141.497 451.105 150.765C444.928 156.97 436.905 159.549 418.814 163.401Z" fill="#8F4215" stroke="#873D13"/>
<path d="M452.969 58.0936C440.257 48.6766 418.488 52.5992 415.751 54.7973C413.014 56.9953 405.303 60.6703 401.521 69.631C395.251 86.7107 396.503 94.5937 398.784 108.638C402.797 121.934 405.981 128.611 422.319 131.713C434.543 131.629 441.475 131.713 447.496 124.021C453.516 116.33 455.584 110.396 458.989 92.1563C462.324 73.9964 461.186 66.3846 452.969 58.0936Z" fill="#7E3912" stroke="#783312"/>
<path d="M408.963 177.35V183.942M427.024 176.251V183.393M353.136 168.559V175.152M344.379 165.812C369.864 173.7 386.864 175.728 418.814 177.899C435.682 174.848 443.605 172.025 453.843 164.164" stroke="#BC660E"/>
<path d="M401.301 122.959C393.091 105.378 393.388 87.6213 397.469 70.217C403.293 58.9296 408.109 53.4824 416.625 50.4385C430.611 45.4221 438.616 46.31 452.201 52.6362C462.061 60.8686 464.012 67.7365 464.242 77.9086C462.274 98.2709 459.863 110.323 450.755 125.872" stroke="#BA6A15"/>
<path d="M251.541 198L240.669 198C240.124 198 239.68 198.435 239.669 198.98L239.047 229.558C239.043 229.756 238.979 229.951 238.865 230.112C232.987 238.451 228.388 241.177 219.541 244.861L192.157 253.823C192.081 253.848 192.005 253.883 191.937 253.926C188.41 256.142 187.677 257.695 191.864 261.214C191.978 261.31 192.118 261.381 192.263 261.417C231.469 271.235 256.995 273.419 298.939 261.39C299.006 261.371 299.074 261.344 299.135 261.311C304.338 258.53 303.991 256.886 299.041 253.861C291.684 249.563 286.277 247.707 275.541 244.861C264.927 241.151 259.596 238.246 252.776 230.141C252.625 229.962 252.541 229.733 252.541 229.499V199C252.541 198.448 252.093 198 251.541 198Z" fill="#743412" stroke="#915A18"/>
<path d="M247.655 88C191.976 83.7823 147.11 88.158 119.655 70L110.155 167.5C109.065 173.809 113.026 173.775 145.155 178.5C145.281 193.886 168.234 189.334 195.655 189C223.792 202.839 261.406 208.451 299.155 189C322.655 188.793 342.294 195.7 350.155 178.5C369.375 177.578 381.453 177.823 384.655 167.5L375.155 70C355.146 83.0243 323.189 86.1485 247.655 88Z" fill="#EFB954" stroke="#E8AF4C"/>
<path d="M310.5 189.5C305.949 188.936 303.18 188.991 298 189.5L303.5 118C305.482 146.657 306.074 163.23 310.5 189.5Z" fill="#E8AE4B"/>
<path d="M344 110L348 178.5C348 178.5 356.77 176.89 361 177C351.166 151.453 349.526 136.38 344 110Z" fill="#E8AE4B"/>
<path d="M190 115.5L194.5 189.5C189.729 188.109 186.436 187.919 178.5 189.5C184.569 161.965 186.32 145.099 190 115.5Z" fill="#E8AE4B"/>
<path d="M147.5 110L143.5 178.5C139.493 176.951 137.218 176.458 133 177C139.223 151.868 142.138 136.708 147.5 110Z" fill="#E8AE4B"/>
<path d="M310.5 189.5C305.949 188.936 303.18 188.991 298 189.5L303.5 118C305.482 146.657 306.074 163.23 310.5 189.5Z" stroke="#E8AE4C"/>
<path d="M344 110L348 178.5C348 178.5 356.77 176.89 361 177C351.166 151.453 349.526 136.38 344 110Z" stroke="#E8AE4C"/>
<path d="M190 115.5L194.5 189.5C189.729 188.109 186.436 187.919 178.5 189.5C184.569 161.965 186.32 145.099 190 115.5Z" stroke="#E8AE4C"/>
<path d="M147.5 110L143.5 178.5C139.493 176.951 137.218 176.458 133 177C139.223 151.868 142.138 136.708 147.5 110Z" stroke="#E8AE4C"/>
<path d="M246.721 50C175.293 50.0656 124.211 51.2413 119.049 68.9009C116.16 85.4491 242.633 90.0865 246.721 88.7966C250.81 87.5067 379.11 86.9024 374.899 68.9009C363.813 49.4695 317.45 50.1738 246.721 50Z" fill="#F9C862" stroke="#EEB954"/>
<path d="M178 70H155V31.6667C156.549 26.8954 158.122 24.8577 162.103 22.2576V1H170.559V22.2576C174.578 24.8393 176.114 26.9953 178 31.6667V70Z" fill="#5B4A37" stroke="#533A27" stroke-linecap="round" stroke-linejoin="round"/>
<path d="M173.603 39.3333H156.353V58.8484H173.603V39.3333Z" fill="#DB9964" stroke="#462D1C" stroke-linecap="round" stroke-linejoin="round"/>
<path d="M200.456 28H181.879C180.153 29.1355 179.319 30.1129 178.225 32.7844C177.988 38.4391 177.675 41.4609 178.834 48.2635C181.634 52.5952 182.711 55.3804 188.883 57.2695V69.9341C185.509 71.2241 184.285 72.3181 183.402 75H199.238C196.956 71.5868 195.479 70.5545 192.538 69.9341V57.2695C197.258 57.0165 203.046 47.0943 202.666 46.1205C203.199 46.2088 203.938 39.1002 203.196 32.7844C202.6 30.7933 201.953 29.7564 200.456 28Z" fill="#EFC797" stroke="#BE8962" stroke-linecap="round" stroke-linejoin="round"/>
<path d="M200.934 41.0242H180.414C181.57 49.6432 183.724 52.8564 191.278 54.6145C197.019 52.575 198.894 49.2034 200.934 41.0242Z" fill="#A73D15" stroke="#B6472C" stroke-linecap="round" stroke-linejoin="round"/>
<path d="M246.767 28.8373C243.374 28.6319 242.927 27.061 241.508 24.878C240.797 23.1892 240.873 22.2769 241.508 20.6857C243.675 17.658 244.892 15.9654 247.076 13L252.335 20.6857C252.901 22.5279 252.847 23.4257 252.335 24.878C249.849 28.1972 248.67 28.8884 246.767 28.8373Z" fill="#FDDC79" stroke="#D2951A" stroke-linejoin="round"/>
<path d="M251.097 31.632C247.819 29.011 246.076 29.0612 243.055 31.632V50.497H251.097V31.632Z" fill="#FCC34C" stroke="#F7C348" stroke-linejoin="round"/>
<path d="M252.027 48.8667H242.747C236.131 48.7809 236.373 50.1163 243.985 54.9221C244.774 57.2871 244.828 58.6126 243.985 60.9775C243.917 61.6345 239.33 63.2915 235.323 67.033C231.316 70.7744 266.015 70.5503 260.379 66.3343C254.744 62.1182 252.625 60.8463 252.027 60.9775C250.809 58.6087 250.905 57.291 252.027 54.9221C258.003 50.0656 258.609 48.4844 252.027 48.8667Z" fill="#D38808" stroke="#D18706" stroke-linejoin="round"/>
</svg>
