<svg width="492" height="321" viewBox="0 0 492 321" fill="none" xmlns="http://www.w3.org/2000/svg">
<ellipse cx="246" cy="271" rx="246" ry="50" fill="#9D5500"/>
<path d="M135.543 220.743C137.825 209.449 137.562 204.517 133.788 199.443C133.525 199.09 133.057 198.965 132.647 199.126L120.748 203.8C124.501 205.648 124.739 214.472 123.484 237.314C123.256 247.382 123.634 253.042 127.78 262.939C127.834 263.067 127.915 263.185 128.017 263.279C129.575 264.708 130.757 265.082 133.14 264.807C133.269 264.792 133.397 264.75 133.509 264.685C135.873 263.318 136.78 262.137 136.943 260.64C137.047 259.682 135.482 256.967 134.695 256.41C134.342 256.16 133.938 255.873 133.479 255.546C133.386 255.479 133.302 255.395 133.237 255.3C130.334 251.052 130.231 247.257 130.599 240.061C131.352 231.645 132.796 227.734 135.492 220.915C135.514 220.86 135.532 220.801 135.543 220.743Z" fill="#FDBD44"/>
<path d="M81.458 246.776C85.436 232.254 85.9834 224.18 87.2594 210.39C87.3136 209.804 86.8525 209.294 86.2635 209.294H78.0017C77.4342 209.294 76.9806 209.769 77.0021 210.336C77.5132 223.826 77.5473 231.772 75.3569 245.868C75.3331 246.021 75.344 246.181 75.3933 246.328C76.1558 248.602 77.09 249.32 80.9504 247.401C81.2001 247.277 81.3843 247.045 81.458 246.776Z" fill="#FDBD44"/>
<path d="M135.543 220.743C137.825 209.449 137.562 204.517 133.788 199.443C133.525 199.09 133.057 198.965 132.647 199.126L120.748 203.8C124.501 205.648 124.739 214.472 123.484 237.314C123.256 247.382 123.634 253.042 127.78 262.939C127.834 263.067 127.915 263.185 128.017 263.279C129.575 264.708 130.757 265.082 133.14 264.807C133.269 264.792 133.397 264.75 133.509 264.685C135.873 263.318 136.78 262.137 136.943 260.64C137.047 259.682 135.482 256.967 134.695 256.41C134.342 256.16 133.938 255.873 133.479 255.546C133.386 255.479 133.302 255.395 133.237 255.3C130.334 251.052 130.231 247.257 130.599 240.061C131.352 231.645 132.796 227.734 135.492 220.915C135.514 220.86 135.532 220.801 135.543 220.743Z" stroke="#BF6E14"/>
<path d="M81.458 246.776C85.436 232.254 85.9834 224.18 87.2594 210.39C87.3136 209.804 86.8525 209.294 86.2635 209.294H78.0017C77.4342 209.294 76.9806 209.769 77.0021 210.336C77.5132 223.826 77.5473 231.772 75.3569 245.868C75.3331 246.021 75.344 246.181 75.3933 246.328C76.1558 248.602 77.09 249.32 80.9504 247.401C81.2001 247.277 81.3843 247.045 81.458 246.776Z" stroke="#BF6E14"/>
<path d="M21.827 256.959C30.4475 237.903 32.7 225.833 33.7165 203.051C33.7213 202.944 33.7089 202.834 33.6795 202.731L29.4605 187.909C29.3868 187.65 29.421 187.372 29.5537 187.138C31.7421 183.276 32.8749 180.639 33.6341 174.523C33.6893 174.078 33.8475 173.498 33.8351 173.05C33.7467 169.837 31.2996 156.818 30.6051 153.5C31.5277 155.879 35.8832 159.549 42.9549 161.66C43.0033 161.675 43.0544 161.686 43.1044 161.692C52.9143 163.035 58.4272 162.861 68.205 159.484C78.4139 155.437 79.7002 147.398 79.6987 150.694C79.6972 153.99 80.7918 162.781 81.3406 164.429C81.8895 166.077 91.7397 166.077 91.1924 164.429C90.6451 162.781 89.6812 136.453 91.7397 118.829C91.7642 107 91.6075 100.355 85.1719 88.0626C78.5995 77.8377 73.4474 73.7618 61.0898 69.9325C50.1638 66.2654 43.9679 65.7869 32.6292 69.9325C26.4102 72.1788 23.4356 73.9052 19.4935 78.1735C12.8134 84.0281 9.63709 88.4782 8.01114 104.433C8.00375 104.506 8.00437 104.583 8.01299 104.655C10.0842 122.072 12.9877 128.808 17.8516 141.354C21.4994 154.497 23.3848 162.131 23.8721 180.362C23.8006 210.869 23.2808 227.885 15.8011 255.665C15.7154 255.983 15.788 256.331 16.0099 256.574C17.582 258.299 18.8159 258.689 21.3739 257.434C21.5748 257.335 21.7348 257.163 21.827 256.959Z" fill="#FEC143" stroke="#BF6E14"/>
<path d="M56.1658 271.926C64.3858 258.203 55.9955 237.405 50.1453 209.844H72.0381C65.1842 212.771 66.1889 235.364 67.1122 271.926C63.4346 281.288 57.1256 279.554 56.1658 271.926Z" fill="#F8B239" stroke="#BF6E14"/>
<path d="M136.187 190.267C136.036 189.815 135.531 189.62 135.075 189.76C108.185 198.043 92.0664 200.638 61.5438 201.599C61.4692 201.601 61.3918 201.595 61.3185 201.581C46.2171 198.631 37.3669 195.046 26.9487 186.769V197.207C26.9487 202.152 46.3576 210.302 61.43 210.942C97.5314 209.466 115.143 207.58 135.359 200.142C135.674 200.026 135.911 199.76 135.977 199.431C136.295 197.853 137.127 193.082 136.187 190.267Z" fill="#FCBC43"/>
<path d="M26.9487 186.769C37.3669 195.046 46.2171 198.631 61.3185 201.581C61.3918 201.595 61.4692 201.601 61.5438 201.599C92.0664 200.638 108.185 198.043 135.075 189.76C135.531 189.62 136.036 189.815 136.187 190.267C137.127 193.082 136.295 197.853 135.977 199.431C135.911 199.76 135.674 200.026 135.359 200.142C115.143 207.58 97.5314 209.466 61.43 210.942C46.3576 210.302 26.9487 202.152 26.9487 197.207M26.9487 186.769C26.9487 190.845 26.9487 192.263 26.9487 197.207M26.9487 186.769V197.207" stroke="#BF6E14"/>
<path d="M61.89 201.604C94.8498 200.302 111.281 197.939 134.701 189.666C134.958 189.575 135.173 189.378 135.281 189.128C138.278 182.196 136.254 179.149 129.16 174.734C129.112 174.704 129.059 174.677 129.006 174.656C111.907 167.726 101.852 165.766 83.1116 165.898C57.7608 166.032 44.3206 167.063 27.9285 177.921C27.8653 177.963 27.7953 177.997 27.7268 178.029C26.3478 178.684 26.5929 181.509 27.7672 188.061C27.8087 188.293 27.9327 188.507 28.1148 188.656C36.2568 195.329 44.2927 197.991 61.6445 201.583C61.724 201.6 61.8089 201.607 61.89 201.604Z" fill="#743412" stroke="#682C11"/>
<path d="M62.1864 190.401C93.5136 187.002 114.283 185.709 133.338 179.963C123.348 172.413 113.444 170.111 92.8363 167.327C61.4366 165.986 47.9093 168.497 29.8945 177.765C36.0719 183.97 44.0949 186.549 62.1864 190.401Z" fill="#8F4215" stroke="#873D13"/>
<path d="M28.0313 85.0936C40.743 75.6766 62.5124 79.5992 65.249 81.7973C67.9856 83.9953 75.6973 87.6703 79.4793 96.631C85.7492 113.711 84.4974 121.594 82.2159 135.638C78.203 148.934 75.0194 155.611 58.6812 158.713C46.4567 158.629 39.5249 158.713 33.5045 151.021C27.484 143.33 25.416 137.396 22.0107 119.156C18.6763 100.996 19.8144 93.3846 28.0313 85.0936Z" fill="#7E3912" stroke="#783312"/>
<path d="M72.0374 204.35V210.942M53.9759 203.251V210.393M127.864 195.559V202.152M136.621 192.812C111.136 200.7 94.1359 202.728 62.1856 204.899C45.3185 201.848 37.3946 199.025 27.1572 191.164" stroke="#BC660E"/>
<path d="M79.6987 149.959C87.9091 132.378 87.612 114.621 83.5311 97.217C77.7071 85.9296 72.891 80.4824 64.3751 77.4385C50.3886 72.4221 42.384 73.31 28.7993 79.6362C18.939 87.8686 16.9882 94.7365 16.7583 104.909C18.7258 125.271 21.1368 137.323 30.2453 152.872" stroke="#BA6A15"/>
<path d="M345.457 216.743C343.175 205.449 343.438 200.517 347.212 195.443C347.475 195.09 347.943 194.965 348.353 195.126L360.252 199.8C356.499 201.648 356.261 210.472 357.516 233.314C357.744 243.382 357.366 249.042 353.22 258.939C353.166 259.067 353.085 259.185 352.983 259.279C351.425 260.708 350.243 261.082 347.86 260.807C347.731 260.792 347.603 260.75 347.491 260.685C345.127 259.318 344.22 258.137 344.057 256.64C343.953 255.682 345.518 252.967 346.305 252.41C346.658 252.16 347.062 251.873 347.521 251.546C347.614 251.479 347.698 251.395 347.763 251.3C350.666 247.052 350.769 243.257 350.401 236.061C349.648 227.645 348.204 223.734 345.508 216.915C345.486 216.86 345.468 216.801 345.457 216.743Z" fill="#FDBD44"/>
<path d="M399.542 242.776C395.564 228.254 395.017 220.18 393.741 206.39C393.686 205.804 394.148 205.294 394.737 205.294H402.998C403.566 205.294 404.019 205.769 403.998 206.336C403.487 219.826 403.453 227.772 405.643 241.868C405.667 242.021 405.656 242.181 405.607 242.328C404.844 244.602 403.91 245.32 400.05 243.401C399.8 243.277 399.616 243.045 399.542 242.776Z" fill="#FDBD44"/>
<path d="M345.457 216.743C343.175 205.449 343.438 200.517 347.212 195.443C347.475 195.09 347.943 194.965 348.353 195.126L360.252 199.8C356.499 201.648 356.261 210.472 357.516 233.314C357.744 243.382 357.366 249.042 353.22 258.939C353.166 259.067 353.085 259.185 352.983 259.279C351.425 260.708 350.243 261.082 347.86 260.807C347.731 260.792 347.603 260.75 347.491 260.685C345.127 259.318 344.22 258.137 344.057 256.64C343.953 255.682 345.518 252.967 346.305 252.41C346.658 252.16 347.062 251.873 347.521 251.546C347.614 251.479 347.698 251.395 347.763 251.3C350.666 247.052 350.769 243.257 350.401 236.061C349.648 227.645 348.204 223.734 345.508 216.915C345.486 216.86 345.468 216.801 345.457 216.743Z" stroke="#BF6E14"/>
<path d="M399.542 242.776C395.564 228.254 395.017 220.18 393.741 206.39C393.686 205.804 394.148 205.294 394.737 205.294H402.998C403.566 205.294 404.019 205.769 403.998 206.336C403.487 219.826 403.453 227.772 405.643 241.868C405.667 242.021 405.656 242.181 405.607 242.328C404.844 244.602 403.91 245.32 400.05 243.401C399.8 243.277 399.616 243.045 399.542 242.776Z" stroke="#BF6E14"/>
<path d="M459.173 252.959C450.553 233.903 448.3 221.833 447.283 199.051C447.279 198.944 447.291 198.834 447.321 198.731L451.539 183.909C451.613 183.65 451.579 183.372 451.446 183.138C449.258 179.276 448.125 176.639 447.366 170.523C447.311 170.078 447.153 169.498 447.165 169.05C447.253 165.837 449.7 152.818 450.395 149.5C449.472 151.879 445.117 155.549 438.045 157.66C437.997 157.675 437.946 157.686 437.896 157.692C428.086 159.035 422.573 158.861 412.795 155.484C402.586 151.437 401.3 143.398 401.301 146.694C401.303 149.99 400.208 158.781 399.659 160.429C399.111 162.077 389.26 162.077 389.808 160.429C390.355 158.781 391.319 132.453 389.26 114.829C389.236 103 389.393 96.3552 395.828 84.0626C402.401 73.8377 407.553 69.7618 419.91 65.9325C430.836 62.2654 437.032 61.7869 448.371 65.9325C454.59 68.1788 457.564 69.9052 461.506 74.1735C468.187 80.0281 471.363 84.4782 472.989 100.433C472.996 100.506 472.996 100.583 472.987 100.655C470.916 118.072 468.012 124.808 463.148 137.354C459.501 150.497 457.615 158.131 457.128 176.362C457.199 206.869 457.719 223.885 465.199 251.665C465.285 251.983 465.212 252.331 464.99 252.574C463.418 254.299 462.184 254.689 459.626 253.434C459.425 253.335 459.265 253.163 459.173 252.959Z" fill="#FEC143" stroke="#BF6E14"/>
<path d="M424.834 267.926C416.614 254.203 425.005 233.405 430.855 205.844H408.962C415.816 208.771 414.811 231.364 413.888 267.926C417.565 277.288 423.874 275.554 424.834 267.926Z" fill="#F8B239" stroke="#BF6E14"/>
<path d="M344.813 186.267C344.964 185.815 345.469 185.62 345.925 185.76C372.815 194.043 388.934 196.638 419.456 197.599C419.531 197.601 419.608 197.595 419.681 197.581C434.783 194.631 443.633 191.046 454.051 182.769V193.207C454.051 198.152 434.642 206.302 419.57 206.942C383.469 205.466 365.857 203.58 345.641 196.142C345.326 196.026 345.089 195.76 345.023 195.431C344.705 193.853 343.873 189.082 344.813 186.267Z" fill="#FCBC43"/>
<path d="M454.051 182.769C443.633 191.046 434.783 194.631 419.681 197.581C419.608 197.595 419.531 197.601 419.456 197.599C388.934 196.638 372.815 194.043 345.925 185.76C345.469 185.62 344.964 185.815 344.813 186.267C343.873 189.082 344.705 193.853 345.023 195.431C345.089 195.76 345.326 196.026 345.641 196.142C365.857 203.58 383.469 205.466 419.57 206.942C434.642 206.302 454.051 198.152 454.051 193.207M454.051 182.769C454.051 186.845 454.051 188.263 454.051 193.207M454.051 182.769V193.207" stroke="#BF6E14"/>
<path d="M419.11 197.604C386.15 196.302 369.719 193.939 346.299 185.666C346.042 185.575 345.827 185.378 345.719 185.128C342.722 178.196 344.746 175.149 351.84 170.734C351.888 170.704 351.941 170.677 351.994 170.656C369.093 163.726 379.148 161.766 397.888 161.898C423.239 162.032 436.679 163.063 453.071 173.921C453.135 173.963 453.205 173.997 453.273 174.029C454.652 174.684 454.407 177.509 453.233 184.061C453.191 184.293 453.067 184.507 452.885 184.656C444.743 191.329 436.707 193.991 419.355 197.583C419.276 197.6 419.191 197.607 419.11 197.604Z" fill="#743412" stroke="#682C11"/>
<path d="M418.814 186.401C387.486 183.002 366.717 181.709 347.662 175.963C357.652 168.413 367.556 166.111 388.164 163.327C419.563 161.986 433.091 164.497 451.105 173.765C444.928 179.97 436.905 182.549 418.814 186.401Z" fill="#8F4215" stroke="#873D13"/>
<path d="M452.969 81.0936C440.257 71.6766 418.488 75.5992 415.751 77.7973C413.014 79.9953 405.303 83.6703 401.521 92.631C395.251 109.711 396.503 117.594 398.784 131.638C402.797 144.934 405.981 151.611 422.319 154.713C434.543 154.629 441.475 154.713 447.496 147.021C453.516 139.33 455.584 133.396 458.989 115.156C462.324 96.9964 461.186 89.3846 452.969 81.0936Z" fill="#7E3912" stroke="#783312"/>
<path d="M408.963 200.35V206.942M427.024 199.251V206.393M353.136 191.559V198.152M344.379 188.812C369.864 196.7 386.864 198.728 418.814 200.899C435.682 197.848 443.605 195.025 453.843 187.164" stroke="#BC660E"/>
<path d="M401.301 145.959C393.091 128.378 393.388 110.621 397.469 93.217C403.293 81.9296 408.109 76.4824 416.625 73.4385C430.611 68.4221 438.616 69.31 452.201 75.6362C462.061 83.8686 464.012 90.7365 464.242 100.909C462.274 121.271 459.863 133.323 450.755 148.872" stroke="#BA6A15"/>
<path d="M251.541 221L240.669 221C240.124 221 239.68 221.435 239.669 221.98L239.047 252.558C239.043 252.756 238.979 252.951 238.865 253.112C232.987 261.451 228.388 264.177 219.541 267.861L192.157 276.823C192.081 276.848 192.005 276.883 191.937 276.926C188.41 279.142 187.677 280.695 191.864 284.214C191.978 284.31 192.118 284.381 192.263 284.417C231.469 294.235 256.995 296.419 298.939 284.39C299.006 284.371 299.074 284.344 299.135 284.311C304.338 281.53 303.991 279.886 299.041 276.861C291.684 272.563 286.277 270.707 275.541 267.861C264.927 264.151 259.596 261.246 252.776 253.141C252.625 252.962 252.541 252.733 252.541 252.499V222C252.541 221.448 252.093 221 251.541 221Z" fill="#743412" stroke="#915A18"/>
<path d="M247.655 111C191.976 106.782 147.11 111.158 119.655 93L110.155 190.5C109.065 196.809 113.026 196.775 145.155 201.5C145.281 216.886 168.234 212.334 195.655 212C223.792 225.839 261.406 231.451 299.155 212C322.655 211.793 342.294 218.7 350.155 201.5C369.375 200.578 381.453 200.823 384.655 190.5L375.155 93C355.146 106.024 323.189 109.148 247.655 111Z" fill="#EFB954" stroke="#E8AF4C"/>
<path d="M310.5 212.5C305.949 211.936 303.18 211.991 298 212.5L303.5 141C305.482 169.657 306.074 186.23 310.5 212.5Z" fill="#E8AE4B"/>
<path d="M344 133L348 201.5C348 201.5 356.77 199.89 361 200C351.166 174.453 349.526 159.38 344 133Z" fill="#E8AE4B"/>
<path d="M190 138.5L194.5 212.5C189.729 211.109 186.436 210.919 178.5 212.5C184.569 184.965 186.32 168.099 190 138.5Z" fill="#E8AE4B"/>
<path d="M147.5 133L143.5 201.5C139.493 199.951 137.218 199.458 133 200C139.223 174.868 142.138 159.708 147.5 133Z" fill="#E8AE4B"/>
<path d="M310.5 212.5C305.949 211.936 303.18 211.991 298 212.5L303.5 141C305.482 169.657 306.074 186.23 310.5 212.5Z" stroke="#E8AE4C"/>
<path d="M344 133L348 201.5C348 201.5 356.77 199.89 361 200C351.166 174.453 349.526 159.38 344 133Z" stroke="#E8AE4C"/>
<path d="M190 138.5L194.5 212.5C189.729 211.109 186.436 210.919 178.5 212.5C184.569 184.965 186.32 168.099 190 138.5Z" stroke="#E8AE4C"/>
<path d="M147.5 133L143.5 201.5C139.493 199.951 137.218 199.458 133 200C139.223 174.868 142.138 159.708 147.5 133Z" stroke="#E8AE4C"/>
<path d="M246.721 73C175.293 73.0656 124.211 74.2413 119.049 91.9009C116.16 108.449 242.633 113.087 246.721 111.797C250.81 110.507 379.11 109.902 374.899 91.9009C363.813 72.4695 317.45 73.1738 246.721 73Z" fill="#F9C862" stroke="#EEB954"/>
<path d="M336.131 1H327.869V28.839C323.255 31.4087 321.424 33.4889 320 38.7542V91H344V37.2288C342.09 32.2241 339.934 30.7612 336.131 28.839V1Z" fill="#5B4A37" stroke="#432F19" stroke-linecap="round" stroke-linejoin="round"/>
<path d="M338.492 49.0508H320V81.8474H338.492V49.0508Z" fill="#783312" stroke="#432F19" stroke-linecap="round" stroke-linejoin="round"/>
<path d="M319.456 47H300.879C299.153 48.1355 298.319 49.1129 297.225 51.7844C296.988 57.4391 296.675 60.4609 297.834 67.2635C300.634 71.5952 301.711 74.3804 307.883 76.2695V88.9341C304.509 90.2241 303.285 91.3181 302.402 94H318.238C315.956 90.5868 314.479 89.5545 311.538 88.9341V76.2695C316.258 76.0165 322.046 66.0943 321.666 65.1205C322.199 65.2088 322.938 58.1002 322.196 51.7844C321.6 49.7933 320.953 48.7564 319.456 47Z" fill="#EFC797" stroke="#BE8962" stroke-linecap="round" stroke-linejoin="round"/>
<path d="M319.934 60.0242H299.414C300.57 68.6432 302.724 71.8564 310.278 73.6145C316.019 71.575 317.894 68.2034 319.934 60.0242Z" fill="#A73D15" stroke="#B6472C" stroke-linecap="round" stroke-linejoin="round"/>
<path d="M249.767 47.6756C246.374 47.4594 245.927 45.8053 244.508 43.5067C243.797 41.7286 243.873 40.768 244.508 39.0926C246.675 35.9046 247.892 34.1223 250.076 31L255.335 39.0926C255.901 41.0322 255.847 41.9775 255.335 43.5067C252.849 47.0016 251.67 47.7294 249.767 47.6756Z" fill="#FDDC79" stroke="#D2951A" stroke-linejoin="round"/>
<path d="M254.097 50.6184C250.819 47.8587 249.076 47.9115 246.055 50.6184V70.4819H254.097V50.6184Z" fill="#FCC34C" stroke="#F7C348" stroke-linejoin="round"/>
<path d="M255.027 68.7653H245.747C239.131 68.6751 239.373 70.081 246.985 75.1413C247.774 77.6314 247.828 79.0271 246.985 81.5172C246.917 82.209 242.33 83.9537 238.323 87.8932C234.316 91.8327 269.015 91.5967 263.379 87.1575C257.744 82.7183 255.625 81.379 255.027 81.5172C253.809 79.023 253.905 77.6355 255.027 75.1413C261.003 70.0277 261.609 68.3628 255.027 68.7653Z" fill="#D38808" stroke="#D18706" stroke-linejoin="round"/>
</svg>
