<svg width="1920" height="519" viewBox="0 0 1920 519" fill="none" xmlns="http://www.w3.org/2000/svg">
<path d="M1923.09 518.5H-1.41992C-1.97221 518.5 -2.41992 518.052 -2.41992 517.5V320.998C-2.41992 320.446 -1.97342 319.999 -1.42195 319.998L1923.08 316.002C1923.64 316.001 1924.09 316.449 1924.09 317.002V517.5C1924.09 518.052 1923.64 518.5 1923.09 518.5Z" fill="#793E00" stroke="#C38524"/>
<path d="M1924.94 326H-3.96777C-4.52006 326 -4.96777 326.448 -4.96777 327V340.5C-4.96777 341.052 -4.52003 341.5 -3.96775 341.5H1924.94C1925.49 341.5 1925.94 341.052 1925.94 340.5V327C1925.94 326.448 1925.49 326 1924.94 326Z" fill="#6A3700" stroke="#6B3501"/>
<path d="M1922.46 501.5H-5.19336C-5.74564 501.5 -6.19336 501.052 -6.19336 500.5V493C-6.19336 492.448 -5.74569 492 -5.19341 492H1922.46C1923.01 492 1923.46 492.448 1923.46 493V500.5C1923.46 501.052 1923.01 501.5 1922.46 501.5Z" fill="#6A3700" stroke="#6B3501"/>
<path fill-rule="evenodd" clip-rule="evenodd" d="M798.613 357C798.613 356.448 799.061 356 799.613 356H1091.87C1092.42 356 1092.87 356.448 1092.87 357V464C1092.87 464.552 1092.42 465 1091.87 465H799.613C799.061 465 798.613 464.552 798.613 464V357ZM812.188 456.85C811.636 456.85 811.188 456.403 811.188 455.85V366.678C811.188 366.125 811.636 365.678 812.188 365.678H1081.18C1081.73 365.678 1082.18 366.125 1082.18 366.678V455.85C1082.18 456.403 1081.73 456.85 1081.18 456.85H812.188Z" fill="#6A3700" stroke="#6B3501"/>
<path fill-rule="evenodd" clip-rule="evenodd" d="M620.048 359C620.048 358.448 620.496 358 621.048 358H758.003C758.555 358 759.003 358.448 759.003 359V465.5C759.003 466.052 758.555 466.5 758.003 466.5H621.048C620.496 466.5 620.048 466.052 620.048 465.5V359ZM746.428 369.5C746.428 368.948 745.98 368.5 745.428 368.5H632.365C631.813 368.5 631.365 368.948 631.365 369.5V457C631.365 457.552 631.813 458 632.365 458H745.428C745.98 458 746.428 457.552 746.428 457V369.5Z" fill="#6A3700" stroke="#6B3501"/>
<path fill-rule="evenodd" clip-rule="evenodd" d="M1133.11 359C1133.11 358.448 1133.56 358 1134.11 358H1271.07C1271.62 358 1272.07 358.448 1272.07 359V465.5C1272.07 466.052 1271.62 466.5 1271.07 466.5H1134.11C1133.56 466.5 1133.11 466.052 1133.11 465.5V359ZM1259.49 369.5C1259.49 368.948 1259.04 368.5 1258.49 368.5H1145.43C1144.88 368.5 1144.43 368.948 1144.43 369.5V457C1144.43 457.552 1144.88 458 1145.43 458H1258.49C1259.04 458 1259.49 457.552 1259.49 457V369.5Z" fill="#6A3700" stroke="#6B3501"/>
<path fill-rule="evenodd" clip-rule="evenodd" d="M1311.68 357C1311.68 356.448 1312.13 356 1312.68 356H1604.94C1605.49 356 1605.94 356.448 1605.94 357V464C1605.94 464.552 1605.49 465 1604.94 465H1312.68C1312.13 465 1311.68 464.552 1311.68 464V357ZM1325.25 456.85C1324.7 456.85 1324.25 456.403 1324.25 455.85V366.678C1324.25 366.125 1324.7 365.678 1325.25 365.678H1594.25C1594.8 365.678 1595.25 366.125 1595.25 366.678V455.85C1595.25 456.403 1594.8 456.85 1594.25 456.85H1325.25Z" fill="#6A3700" stroke="#6B3501"/>
<path fill-rule="evenodd" clip-rule="evenodd" d="M1646.18 358C1646.18 357.448 1646.62 357 1647.18 357H1784.13C1784.68 357 1785.13 357.448 1785.13 358V464.5C1785.13 465.052 1784.68 465.5 1784.13 465.5H1647.18C1646.62 465.5 1646.18 465.052 1646.18 464.5V358ZM1772.56 368.5C1772.56 367.948 1772.11 367.5 1771.56 367.5H1658.49C1657.94 367.5 1657.49 367.948 1657.49 368.5V456C1657.49 456.552 1657.94 457 1658.49 457H1771.56C1772.11 457 1772.56 456.552 1772.56 456V368.5Z" fill="#6A3700" stroke="#6B3501"/>
<path fill-rule="evenodd" clip-rule="evenodd" d="M1824.74 357C1824.74 356.448 1825.19 356 1825.74 356H2118C2118.55 356 2119 356.448 2119 357V464C2119 464.552 2118.55 465 2118 465H1825.74C1825.19 465 1824.74 464.552 1824.74 464V357ZM1838.32 456.85C1837.77 456.85 1837.32 456.403 1837.32 455.85V366.678C1837.32 366.125 1837.77 365.678 1838.32 365.678H2107.31C2107.86 365.678 2108.31 366.125 2108.31 366.678V455.85C2108.31 456.403 2107.86 456.85 2107.31 456.85H1838.32Z" fill="#6A3700" stroke="#6B3501"/>
<path fill-rule="evenodd" clip-rule="evenodd" d="M286.807 359C286.807 358.448 287.254 358 287.807 358H580.064C580.616 358 581.064 358.448 581.064 359V466C581.064 466.552 580.616 467 580.064 467H287.807C287.254 467 286.807 466.552 286.807 466V359ZM300.382 458.85C299.829 458.85 299.382 458.403 299.382 457.85V368.678C299.382 368.125 299.829 367.678 300.382 367.678H569.375C569.928 367.678 570.375 368.125 570.375 368.678V457.85C570.375 458.403 569.928 458.85 569.375 458.85H300.382Z" fill="#6A3700" stroke="#6B3501"/>
<path fill-rule="evenodd" clip-rule="evenodd" d="M108.24 358C108.24 357.448 108.688 357 109.24 357H246.195C246.747 357 247.195 357.448 247.195 358V464.5C247.195 465.052 246.747 465.5 246.195 465.5H109.24C108.688 465.5 108.24 465.052 108.24 464.5V358ZM234.62 368.5C234.62 367.948 234.172 367.5 233.62 367.5H120.558C120.006 367.5 119.558 367.948 119.558 368.5V456C119.558 456.552 120.006 457 120.558 457H233.62C234.172 457 234.62 456.552 234.62 456V368.5Z" fill="#6A3700" stroke="#6B3501"/>
<path fill-rule="evenodd" clip-rule="evenodd" d="M-225 358C-225 357.448 -224.552 357 -224 357H68.2574C68.8098 357 69.2574 357.448 69.2574 358V465C69.2574 465.552 68.8097 466 68.2574 466H-224C-224.552 466 -225 465.552 -225 465V358ZM-211.425 457.85C-211.977 457.85 -212.425 457.403 -212.425 456.85V367.678C-212.425 367.125 -211.977 366.678 -211.425 366.678H57.5686C58.1209 366.678 58.5686 367.125 58.5686 367.678V456.85C58.5686 457.403 58.1209 457.85 57.5686 457.85H-211.425Z" fill="#6A3700" stroke="#6B3501"/>
<path d="M1884.59 4V320H1918C1918.55 320 1919 319.552 1919 319V4.99999C1919 4.44771 1918.55 4 1918 4H1884.59Z" fill="#BE7708"/>
<path d="M1807.95 4V320H1847.05V316.154V4H1807.95Z" fill="#C17807"/>
<path d="M1736 4V320H1774.32V4H1736Z" fill="#BF7708"/>
<path d="M1664.83 4L1660.92 320H1701.59V4H1664.83Z" fill="#BE7707"/>
<path d="M1591.31 4V320H1628.07V4H1591.31Z" fill="#BD7407"/>
<path d="M1516.24 4V320H1554.56V4H1516.24Z" fill="#BF7606"/>
<path d="M1445.85 4L1449.76 320H1482.61V4H1445.85Z" fill="#BF7507"/>
<path d="M1376.25 4V320H1410.66V4H1376.25Z" fill="#C07807"/>
<path d="M1303.51 4V320H1338.71V4H1303.51Z" fill="#BE7609"/>
<path d="M1233.13 4V320H1266.76V4H1233.13Z" fill="#BE7506"/>
<path d="M1146.32 4V320H1183.86V4H1146.32Z" fill="#BF7808"/>
<path d="M1074.37 4V320H1111.91V4H1074.37Z" fill="#BE7508"/>
<path d="M1007.89 4V320H1043.09V4H1007.89Z" fill="#BF7608"/>
<path d="M918.955 4C918.403 4 917.955 4.44771 917.955 4.99999V319C917.955 319.552 918.403 320 918.955 320H971.918V4H918.955Z" fill="#BF7607"/>
<path d="M1847.05 316.154V320H1884.59V4H1847.05V316.154Z" fill="#CB8411"/>
<path d="M1774.32 4V320H1807.95V4H1774.32Z" fill="#CA810E"/>
<path d="M1701.59 4V320H1736V4H1701.59Z" fill="#C9810F"/>
<path d="M1628.07 4V320H1660.92L1664.83 4H1628.07Z" fill="#C98110"/>
<path d="M1554.56 4V320H1591.31V4H1554.56Z" fill="#CB8311"/>
<path d="M1482.61 4V320H1516.24V4H1482.61Z" fill="#C7810E"/>
<path d="M1410.66 4V320H1449.76L1445.85 4H1410.66Z" fill="#C98310"/>
<path d="M1338.71 4V320H1376.25V4H1338.71Z" fill="#C78010"/>
<path d="M1266.76 4V320H1303.51V4H1266.76Z" fill="#CA8211"/>
<path d="M1183.86 4V320H1233.13V4H1183.86Z" fill="#C77F0E"/>
<path d="M1111.91 4V320H1146.32V4H1111.91Z" fill="#C9810F"/>
<path d="M1043.09 4V320H1074.37V4H1043.09Z" fill="#CA8210"/>
<path d="M971.918 4V320H1007.89V4H971.918Z" fill="#C7810E"/>
<path d="M971.918 4H918.955C918.403 4 917.955 4.44771 917.955 4.99999V319C917.955 319.552 918.403 320 918.955 320H971.918M971.918 4V320M971.918 4H1007.89M971.918 320H1007.89M1007.89 320V4M1007.89 320H1043.09M1007.89 4H1043.09M1043.09 4V320M1043.09 4H1074.37M1043.09 320H1074.37M1074.37 320V4M1074.37 320H1111.91M1074.37 4H1111.91M1111.91 320V4M1111.91 320H1146.32M1111.91 4H1146.32M1146.32 320V4M1146.32 320H1183.86M1146.32 4H1183.86M1183.86 320V4M1183.86 320H1233.13M1183.86 4H1233.13M1233.13 320V4M1233.13 320H1266.76M1233.13 4H1266.76M1266.76 320V4M1266.76 320H1303.51M1266.76 4H1303.51M1303.51 320V4M1303.51 320H1338.71M1303.51 4H1338.71M1338.71 320V4M1338.71 320H1376.25M1338.71 4H1376.25M1376.25 320V4M1376.25 320H1410.66M1376.25 4H1410.66M1410.66 320V4M1410.66 320H1449.76M1410.66 4H1445.85M1449.76 320L1445.85 4M1449.76 320H1482.61M1445.85 4H1482.61M1482.61 320V4M1482.61 320H1516.24M1482.61 4H1516.24M1516.24 320V4M1516.24 320H1554.56M1516.24 4H1554.56M1554.56 320V4M1554.56 320H1591.31M1554.56 4H1591.31M1591.31 320V4M1591.31 320H1628.07M1591.31 4H1628.07M1628.07 320V4M1628.07 320H1660.92M1628.07 4H1664.83M1660.92 320L1664.83 4M1660.92 320H1701.59M1664.83 4H1701.59M1701.59 320V4M1701.59 320H1736M1701.59 4H1736M1736 320V4M1736 320H1774.32M1736 4H1774.32M1774.32 320V4M1774.32 320H1807.95M1774.32 4H1807.95M1807.95 320V4M1807.95 320H1847.05M1807.95 4H1847.05M1847.05 320C1847.05 319.704 1847.05 318.521 1847.05 316.154M1847.05 320H1884.59M1847.05 320V316.154M1847.05 316.154C1847.05 313.787 1847.05 107.065 1847.05 4M1847.05 316.154V4M1847.05 4H1884.59M1884.59 320V4M1884.59 320H1918C1918.55 320 1919 319.552 1919 319V4.99999C1919 4.44771 1918.55 4 1918 4H1884.59" stroke="#BF7507"/>
<path d="M940.634 4V320H974.045C974.598 320 975.045 319.552 975.045 319V4.99999C975.045 4.44771 974.598 4 974.045 4H940.634Z" fill="#BE7708"/>
<path d="M863.992 4V320H903.095V316.154V4H863.992Z" fill="#C17807"/>
<path d="M792.042 4V320H830.363V4H792.042Z" fill="#BF7708"/>
<path d="M720.874 4L716.963 320H757.631V4H720.874Z" fill="#BE7707"/>
<path d="M647.359 4V320H684.117V4H647.359Z" fill="#BD7407"/>
<path d="M572.281 4V320H610.602V4H572.281Z" fill="#BF7606"/>
<path d="M501.895 4L505.805 320H538.652V4H501.895Z" fill="#BF7507"/>
<path d="M432.291 4V320H466.702V4H432.291Z" fill="#C07807"/>
<path d="M359.559 4V320H394.752V4H359.559Z" fill="#BE7609"/>
<path d="M289.173 4V320H322.802V4H289.173Z" fill="#BE7506"/>
<path d="M202.363 4V320H239.903V4H202.363Z" fill="#BF7808"/>
<path d="M130.413 4V320H167.953V4H130.413Z" fill="#BE7508"/>
<path d="M63.9377 4V320H99.1307V4H63.9377Z" fill="#BF7608"/>
<path d="M-25 4C-25.5523 4 -26 4.44771 -26 4.99999V319C-26 319.552 -25.5523 320 -25 320H27.9626V4H-25Z" fill="#BF7607"/>
<path d="M903.095 316.154V320H940.634V4H903.095V316.154Z" fill="#CB8411"/>
<path d="M830.363 4V320H863.992V4H830.363Z" fill="#CA810E"/>
<path d="M757.631 4V320H792.042V4H757.631Z" fill="#C9810F"/>
<path d="M684.117 4V320H716.963L720.874 4H684.117Z" fill="#C98110"/>
<path d="M610.602 4V320H647.359V4H610.602Z" fill="#CB8311"/>
<path d="M538.652 4V320H572.281V4H538.652Z" fill="#C7810E"/>
<path d="M466.702 4V320H505.805L501.895 4H466.702Z" fill="#C98310"/>
<path d="M394.752 4V320H432.291V4H394.752Z" fill="#C78010"/>
<path d="M322.802 4V320H359.559V4H322.802Z" fill="#CA8211"/>
<path d="M239.903 4V320H289.173V4H239.903Z" fill="#C77F0E"/>
<path d="M167.953 4V320H202.363V4H167.953Z" fill="#C9810F"/>
<path d="M99.1307 4V320H130.413V4H99.1307Z" fill="#CA8210"/>
<path d="M27.9626 4V320H63.9377V4H27.9626Z" fill="#C7810E"/>
<path d="M27.9626 4H-25C-25.5523 4 -26 4.44771 -26 4.99999V319C-26 319.552 -25.5523 320 -25 320H27.9626M27.9626 4V320M27.9626 4H63.9377M27.9626 320H63.9377M63.9377 320V4M63.9377 320H99.1307M63.9377 4H99.1307M99.1307 4V320M99.1307 4H130.413M99.1307 320H130.413M130.413 320V4M130.413 320H167.953M130.413 4H167.953M167.953 320V4M167.953 320H202.363M167.953 4H202.363M202.363 320V4M202.363 320H239.903M202.363 4H239.903M239.903 320V4M239.903 320H289.173M239.903 4H289.173M289.173 320V4M289.173 320H322.802M289.173 4H322.802M322.802 320V4M322.802 320H359.559M322.802 4H359.559M359.559 320V4M359.559 320H394.752M359.559 4H394.752M394.752 320V4M394.752 320H432.291M394.752 4H432.291M432.291 320V4M432.291 320H466.702M432.291 4H466.702M466.702 320V4M466.702 320H505.805M466.702 4H501.895M505.805 320L501.895 4M505.805 320H538.652M501.895 4H538.652M538.652 320V4M538.652 320H572.281M538.652 4H572.281M572.281 320V4M572.281 320H610.602M572.281 4H610.602M610.602 320V4M610.602 320H647.359M610.602 4H647.359M647.359 320V4M647.359 320H684.117M647.359 4H684.117M684.117 320V4M684.117 320H716.963M684.117 4H720.874M716.963 320L720.874 4M716.963 320H757.631M720.874 4H757.631M757.631 320V4M757.631 320H792.042M757.631 4H792.042M792.042 320V4M792.042 320H830.363M792.042 4H830.363M830.363 320V4M830.363 320H863.992M830.363 4H863.992M863.992 320V4M863.992 320H903.095M863.992 4H903.095M903.095 320C903.095 319.704 903.095 318.521 903.095 316.154M903.095 320H940.634M903.095 320V316.154M903.095 316.154C903.095 313.787 903.095 107.065 903.095 4M903.095 316.154V4M903.095 4H940.634M940.634 320V4M940.634 320H974.045C974.598 320 975.045 319.552 975.045 319V4.99999C975.045 4.44771 974.598 4 974.045 4H940.634" stroke="#BF7507"/>
<path d="M1921.5 51H-2C-2.55228 51 -3 50.5523 -3 50V3.55005C-3 2.99776 -2.5523 2.55005 -2.00002 2.55005H1921.5C1922.05 2.55005 1922.5 2.99776 1922.5 3.55005V50C1922.5 50.5523 1922.05 51 1921.5 51Z" fill="#C67C09" stroke="#A45E01"/>
<path d="M1919.5 0H-2C-2.55228 0 -3 0.447716 -3 1V4.41875C-3 4.97103 -2.55231 5.41875 -2.00003 5.41875H1919.5C1920.05 5.41875 1920.5 4.97103 1920.5 4.41875V1C1920.5 0.447715 1920.05 0 1919.5 0Z" fill="#A05C00" stroke="#A55D01"/>
<path d="M1921.34 3.82495H-2C-2.55228 3.82495 -3 4.27267 -3 4.82495V6.01148C-3 6.56415 -2.55168 7.01202 -1.99902 7.01148L1921.34 5.15372C1921.7 5.15336 1922 4.85601 1922 4.48933C1922 4.12241 1921.7 3.82495 1921.34 3.82495Z" fill="#D48C0F" stroke="#CB8809"/>
<path d="M1921.2 7.01245H-2C-2.55228 7.01245 -3 7.46017 -3 8.01245V9.83629C-3 10.389 -2.55153 10.8369 -1.99879 10.8363L1921.2 8.60712C1921.64 8.60661 1922 8.24978 1922 7.80979C1922 7.36943 1921.64 7.01245 1921.2 7.01245Z" fill="#F9B12B" stroke="#C77B09"/>
<path d="M1921.07 10.8374H-2C-2.55228 10.8374 -3 11.2851 -3 11.8374V14.2985C-3 14.8514 -2.55149 15.2993 -1.99867 15.2985L1921.07 12.698C1921.58 12.6973 1922 12.281 1922 11.7677C1922 11.2539 1921.58 10.8374 1921.07 10.8374Z" fill="#C57A06" stroke="#C17901"/>
<path d="M1921 15.9375H-2C-2.55228 15.9375 -3 16.3852 -3 16.9375V31.5075C-3 32.0617 -2.54924 32.5102 -1.995 32.5075L1921.01 22.8487C1921.56 22.846 1922 22.3991 1922 21.8488V16.9375C1922 16.3852 1921.55 15.9375 1921 15.9375Z" fill="#E59F15" stroke="#DD9712"/>
</svg>
