<svg width="101" height="202" viewBox="0 0 101 202" fill="none" xmlns="http://www.w3.org/2000/svg">
<path d="M9.24477 181.518L1.74626 45.6634C-2.59527 17.2285 107.515 14.8594 98.043 47.6381L91.3338 183.097C96.0694 202.053 6.87653 209.557 9.24477 181.518Z" fill="#E6E6E6"/>
<path d="M51.8154 22.1954C64.8218 22.1705 77.797 24.0684 86.9883 28.13C91.5829 30.1604 95.3652 32.7902 97.6787 36.1202C100.006 39.4706 100.769 43.4267 99.5322 47.878L92.8418 182.964C93.4853 185.907 92.2975 188.532 90.125 190.687C87.9314 192.862 84.6244 194.693 80.708 196.191C72.8493 199.199 62.0432 201.056 51.2285 201.43C40.423 201.803 29.4269 200.704 21.2178 197.666C17.112 196.147 13.5965 194.104 11.1729 191.418C8.73629 188.718 7.4419 185.404 7.74121 181.505L0.250977 45.796C-0.338687 41.7342 1.13081 38.1731 3.93652 35.2091C6.72637 32.262 10.8625 29.8634 15.751 27.9679C25.5405 24.172 38.798 22.2203 51.8154 22.1954ZM52.0195 167.664C43.1258 167.397 34.13 168.458 26.6465 170.916C19.2693 173.339 13.5724 177.048 10.7197 181.96C10.5522 184.881 11.522 187.327 13.4004 189.408C15.3827 191.605 18.4099 193.428 22.2588 194.853C29.959 197.702 40.5208 198.798 51.125 198.432C61.7203 198.065 72.1767 196.244 79.6357 193.39C83.3782 191.958 86.2442 190.31 88.0127 188.557C89.7233 186.86 90.2873 185.208 89.8926 183.527C88.2087 178.932 83.413 175.084 76.5039 172.301C69.6135 169.525 60.9154 167.932 52.0195 167.664ZM10.5068 177.179C14.1493 173.081 19.547 170.09 25.71 168.066C33.5932 165.476 42.9488 164.39 52.1104 164.665C61.27 164.941 70.3323 166.581 77.625 169.519C82.7866 171.598 87.2134 174.394 90.0869 177.944L96.3203 52.0851C95.6023 52.7249 94.8024 53.3495 93.9355 53.9522C91.4106 55.7079 88.1995 57.3811 84.5049 58.8819C77.1132 61.8846 67.6559 64.2491 57.5791 65.1749C38.8316 66.8972 17.5196 63.6615 3.47363 49.7501L10.5068 177.179ZM51.8213 25.1954C39.0381 25.2198 26.174 27.1435 16.835 30.7647C12.1593 32.5778 8.47901 34.7746 6.11523 37.2716C3.89552 39.6165 2.86618 42.1829 3.17578 45.0265C16.1589 60.19 37.7607 63.9831 57.3047 62.1876C67.1089 61.2868 76.2762 58.9867 83.376 56.1026C86.9265 54.6603 89.9281 53.0846 92.2236 51.4884C94.4796 49.9196 95.9384 48.4082 96.6396 47.0831C97.6457 43.4726 97.025 40.4377 95.2148 37.8321C93.3366 35.1287 90.1037 32.7868 85.7754 30.8741C77.1207 27.0497 64.6156 25.1709 51.8213 25.1954Z" fill="white"/>
<path fill-rule="evenodd" clip-rule="evenodd" d="M92.6594 60.0874C101.215 31.8923 1.759 33.9302 5.68043 58.3889C29.9202 85.9044 86.5994 71.6369 92.6594 60.0874Z" fill="#A680F2"/>
<path fill-rule="evenodd" clip-rule="evenodd" d="M5.68043 58.3889C29.9202 85.9044 86.5994 71.6369 92.6594 60.0874L86.5994 176.605C90.8768 192.91 10.3143 199.364 12.4534 175.246L5.68043 58.3889Z" fill="url(#paint0_linear_971_15297)"/>
<path d="M62.8254 185.109C62.8254 187.883 60.6133 190.132 57.8845 190.132C55.1556 190.132 52.9435 187.883 52.9435 185.109C52.9435 182.335 55.1556 180.086 57.8845 180.086C60.6133 180.086 62.8254 182.335 62.8254 185.109Z" fill="#28061D"/>
<path d="M61.7852 181.936C61.005 180.879 59.7239 180.257 58.474 180.118C57.2242 179.98 55.9645 180.288 54.9517 180.982C53.9389 181.675 53.2494 182.7 53.0236 183.848C52.7978 184.997 52.9434 187.224 53.7237 187.488C55.3839 188.425 57.8106 188.488 59.709 187.162C61.5816 185.854 62.1295 184.446 61.7852 181.936Z" fill="#591636"/>
<path d="M56.5109 177.21C56.5109 179.984 54.2987 182.233 51.5699 182.233C48.8411 182.233 46.629 179.984 46.629 177.21C46.629 174.436 48.8411 172.187 51.5699 172.187C54.2987 172.187 56.5109 174.436 56.5109 177.21Z" fill="#28061D"/>
<path d="M55.4706 174.038C54.6905 172.98 53.4093 172.358 52.1595 172.22C50.9097 172.081 49.65 172.39 48.6372 173.083C47.6244 173.776 46.9348 174.802 46.709 175.95C46.4833 177.098 46.6289 179.325 47.4091 179.59C49.0693 180.527 51.4961 180.59 53.3945 179.264C55.267 177.955 55.8149 176.548 55.4706 174.038Z" fill="#591636"/>
<path d="M52.5643 185.109C52.5643 187.883 50.3522 190.132 47.6233 190.132C44.8945 190.132 42.6824 187.883 42.6824 185.109C42.6824 182.335 44.8945 180.086 47.6233 180.086C50.3522 180.086 52.5643 182.335 52.5643 185.109Z" fill="#28061D"/>
<path d="M51.524 181.936C50.7439 180.879 49.4627 180.257 48.2129 180.118C46.9631 179.98 45.7034 180.288 44.6906 180.982C43.6778 181.675 42.9882 182.7 42.7625 183.848C42.5367 184.997 42.6823 187.224 43.4625 187.488C45.1228 188.425 47.5495 188.488 49.4479 187.162C51.3204 185.854 51.8683 184.446 51.524 181.936Z" fill="#591636"/>
<path d="M70.7186 170.891C70.7186 173.666 68.5065 175.915 65.7776 175.915C63.0488 175.915 60.8367 173.666 60.8367 170.891C60.8367 168.117 63.0488 165.868 65.7776 165.868C68.5065 165.868 70.7186 168.117 70.7186 170.891Z" fill="#28061D"/>
<path d="M69.6783 167.719C68.8982 166.661 67.617 166.039 66.3672 165.901C65.1174 165.762 63.8577 166.071 62.8449 166.764C61.8321 167.457 61.1425 168.483 60.9168 169.631C60.691 170.78 60.8366 173.007 61.6168 173.271C63.2771 174.208 65.7038 174.271 67.6022 172.945C69.4747 171.636 70.0226 170.229 69.6783 167.719Z" fill="#591636"/>
<path d="M76.2438 174.051C76.2438 176.825 74.0317 179.074 71.3028 179.074C68.574 179.074 66.3619 176.825 66.3619 174.051C66.3619 171.277 68.574 169.028 71.3028 169.028C74.0317 169.028 76.2438 171.277 76.2438 174.051Z" fill="#28061D"/>
<path d="M75.2036 170.878C74.4234 169.821 73.1423 169.199 71.8924 169.06C70.6426 168.922 69.3829 169.23 68.3701 169.924C67.3573 170.617 66.6678 171.642 66.442 172.791C66.2162 173.939 66.3618 176.166 67.1421 176.43C68.8023 177.367 71.229 177.431 73.1274 176.104C75 174.796 75.5479 173.389 75.2036 170.878Z" fill="#591636"/>
<path d="M79.4011 181.16C79.4011 183.934 77.1889 186.183 74.4601 186.183C71.7313 186.183 69.5191 183.934 69.5191 181.16C69.5191 178.385 71.7313 176.136 74.4601 176.136C77.1889 176.136 79.4011 178.385 79.4011 181.16Z" fill="#28061D"/>
<path d="M78.3608 177.987C77.5807 176.93 76.2995 176.307 75.0497 176.169C73.7999 176.03 72.5402 176.339 71.5274 177.032C70.5146 177.725 69.825 178.751 69.5993 179.899C69.3735 181.048 69.5191 183.275 70.2993 183.539C71.9595 184.476 74.3863 184.539 76.2847 183.213C78.1572 181.904 78.7051 180.497 78.3608 177.987Z" fill="#591636"/>
<path d="M84.9263 176.42C84.9263 179.195 82.7142 181.444 79.9853 181.444C77.2565 181.444 75.0444 179.195 75.0444 176.42C75.0444 173.646 77.2565 171.397 79.9853 171.397C82.7142 171.397 84.9263 173.646 84.9263 176.42Z" fill="#28061D"/>
<path d="M83.886 173.248C83.1059 172.19 81.8248 171.568 80.5749 171.43C79.3251 171.291 78.0654 171.6 77.0526 172.293C76.0398 172.986 75.3502 174.012 75.1245 175.16C74.8987 176.309 75.0443 178.535 75.8246 178.8C77.4848 179.737 79.9115 179.8 81.8099 178.474C83.6824 177.165 84.2303 175.758 83.886 173.248Z" fill="#591636"/>
<path d="M65.1934 176.42C65.1934 179.195 62.9812 181.444 60.2524 181.444C57.5236 181.444 55.3114 179.195 55.3114 176.42C55.3114 173.646 57.5236 171.397 60.2524 171.397C62.9812 171.397 65.1934 173.646 65.1934 176.42Z" fill="#28061D"/>
<path d="M64.1531 173.248C63.373 172.19 62.0918 171.568 60.842 171.43C59.5922 171.291 58.3325 171.6 57.3197 172.293C56.3069 172.986 55.6173 174.012 55.3915 175.16C55.1658 176.309 55.3114 178.535 56.0916 178.8C57.7518 179.737 60.1785 179.8 62.077 178.474C63.9495 177.165 64.4974 175.758 64.1531 173.248Z" fill="#591636"/>
<path d="M70.7186 181.16C70.7186 183.934 68.5065 186.183 65.7776 186.183C63.0488 186.183 60.8367 183.934 60.8367 181.16C60.8367 178.385 63.0488 176.136 65.7776 176.136C68.5065 176.136 70.7186 178.385 70.7186 181.16Z" fill="#28061D"/>
<path d="M69.6783 177.987C68.8982 176.93 67.617 176.307 66.3672 176.169C65.1174 176.03 63.8577 176.339 62.8449 177.032C61.8321 177.725 61.1425 178.751 60.9168 179.899C60.691 181.048 60.8366 183.275 61.6168 183.539C63.2771 184.476 65.7038 184.539 67.6022 183.213C69.4747 181.904 70.0226 180.497 69.6783 177.987Z" fill="#591636"/>
<path d="M44.6711 174.841C44.6711 177.615 42.459 179.864 39.7302 179.864C37.0013 179.864 34.7892 177.615 34.7892 174.841C34.7892 172.067 37.0013 169.818 39.7302 169.818C42.459 169.818 44.6711 172.067 44.6711 174.841Z" fill="#28061D"/>
<path d="M43.6309 171.668C42.8507 170.611 41.5696 169.988 40.3198 169.85C39.0699 169.712 37.8102 170.02 36.7974 170.714C35.7846 171.407 35.0951 172.432 34.8693 173.58C34.6435 174.729 34.7891 176.956 35.5694 177.22C37.2296 178.157 39.6563 178.22 41.5547 176.894C43.4273 175.586 43.9752 174.178 43.6309 171.668Z" fill="#591636"/>
<path d="M50.1964 178C50.1964 180.774 47.9842 183.023 45.2554 183.023C42.5266 183.023 40.3144 180.774 40.3144 178C40.3144 175.226 42.5266 172.977 45.2554 172.977C47.9842 172.977 50.1964 175.226 50.1964 178Z" fill="#28061D"/>
<path d="M49.1561 174.828C48.3759 173.77 47.0948 173.148 45.845 173.009C44.5951 172.871 43.3354 173.18 42.3226 173.873C41.3099 174.566 40.6203 175.591 40.3945 176.74C40.1687 177.888 40.3144 180.115 41.0946 180.38C42.7548 181.316 45.1815 181.38 47.08 180.053C48.9525 178.745 49.5004 177.338 49.1561 174.828Z" fill="#591636"/>
<path d="M53.3536 185.109C53.3536 187.883 51.1415 190.132 48.4127 190.132C45.6838 190.132 43.4717 187.883 43.4717 185.109C43.4717 182.335 45.6838 180.086 48.4127 180.086C51.1415 180.086 53.3536 182.335 53.3536 185.109Z" fill="#28061D"/>
<path d="M52.3134 181.936C51.5332 180.879 50.2521 180.257 49.0022 180.118C47.7524 179.98 46.4927 180.288 45.4799 180.982C44.4671 181.675 43.7776 182.7 43.5518 183.848C43.326 184.997 43.4716 187.224 44.2519 187.488C45.9121 188.425 48.3388 188.488 50.2372 187.162C52.1098 185.854 52.6577 184.446 52.3134 181.936Z" fill="#591636"/>
<path d="M22.5703 169.312C22.5703 172.086 20.3581 174.335 17.6293 174.335C14.9005 174.335 12.6883 172.086 12.6883 169.312C12.6883 166.538 14.9005 164.289 17.6293 164.289C20.3581 164.289 22.5703 166.538 22.5703 169.312Z" fill="#28061D"/>
<path d="M21.53 166.139C20.7498 165.082 19.4687 164.46 18.2189 164.321C16.969 164.183 15.7093 164.491 14.6965 165.185C13.6838 165.878 12.9942 166.903 12.7684 168.051C12.5426 169.2 12.6883 171.427 13.4685 171.691C15.1287 172.628 17.5554 172.691 19.4539 171.365C21.3264 170.057 21.8743 168.649 21.53 166.139Z" fill="#591636"/>
<path d="M39.1459 180.37C39.1459 183.144 36.9338 185.393 34.2049 185.393C31.4761 185.393 29.264 183.144 29.264 180.37C29.264 177.595 31.4761 175.347 34.2049 175.347C36.9338 175.347 39.1459 177.595 39.1459 180.37Z" fill="#28061D"/>
<path d="M38.1056 177.197C37.3255 176.14 36.0444 175.517 34.7945 175.379C33.5447 175.24 32.285 175.549 31.2722 176.242C30.2594 176.936 29.5699 177.961 29.3441 179.109C29.1183 180.258 29.2639 182.485 30.0442 182.749C31.7044 183.686 34.1311 183.749 36.0295 182.423C37.9021 181.115 38.4499 179.707 38.1056 177.197Z" fill="#591636"/>
<path d="M44.6711 185.109C44.6711 187.883 42.459 190.132 39.7302 190.132C37.0013 190.132 34.7892 187.883 34.7892 185.109C34.7892 182.335 37.0013 180.086 39.7302 180.086C42.459 180.086 44.6711 182.335 44.6711 185.109Z" fill="#28061D"/>
<path d="M43.6309 181.936C42.8507 180.879 41.5696 180.257 40.3198 180.118C39.0699 179.98 37.8102 180.288 36.7974 180.982C35.7846 181.675 35.0951 182.7 34.8693 183.848C34.6435 184.997 34.7891 187.224 35.5694 187.488C37.2296 188.425 39.6563 188.488 41.5547 187.162C43.4273 185.854 43.9752 184.446 43.6309 181.936Z" fill="#591636"/>
<path d="M25.7275 175.631C25.7275 178.405 23.5154 180.654 20.7866 180.654C18.0577 180.654 15.8456 178.405 15.8456 175.631C15.8456 172.856 18.0577 170.607 20.7866 170.607C23.5154 170.607 25.7275 172.856 25.7275 175.631Z" fill="#28061D"/>
<path d="M24.6873 172.458C23.9071 171.401 22.626 170.778 21.3761 170.64C20.1263 170.501 18.8666 170.81 17.8538 171.503C16.841 172.197 16.1515 173.222 15.9257 174.37C15.6999 175.519 15.8455 177.746 16.6258 178.01C18.286 178.947 20.7127 179.01 22.6111 177.684C24.4837 176.376 25.0316 174.968 24.6873 172.458Z" fill="#591636"/>
<path d="M34.41 174.841C34.41 177.615 32.1979 179.864 29.469 179.864C26.7402 179.864 24.5281 177.615 24.5281 174.841C24.5281 172.067 26.7402 169.818 29.469 169.818C32.1979 169.818 34.41 172.067 34.41 174.841Z" fill="#28061D"/>
<path d="M33.3697 171.668C32.5896 170.611 31.3085 169.988 30.0586 169.85C28.8088 169.712 27.5491 170.02 26.5363 170.714C25.5235 171.407 24.8339 172.432 24.6082 173.58C24.3824 174.729 24.528 176.956 25.3083 177.22C26.9685 178.157 29.3952 178.22 31.2936 176.894C33.1661 175.586 33.714 174.178 33.3697 171.668Z" fill="#591636"/>
<path d="M37.5673 181.949C37.5673 184.724 35.3551 186.973 32.6263 186.973C29.8975 186.973 27.6853 184.724 27.6853 181.949C27.6853 179.175 29.8975 176.926 32.6263 176.926C35.3551 176.926 37.5673 179.175 37.5673 181.949Z" fill="#28061D"/>
<path d="M36.527 178.777C35.7469 177.719 34.4657 177.097 33.2159 176.959C31.9661 176.82 30.7064 177.129 29.6936 177.822C28.6808 178.515 27.9912 179.541 27.7654 180.689C27.5397 181.837 27.6853 184.064 28.4655 184.329C30.1257 185.266 32.5524 185.329 34.4509 184.003C36.3234 182.694 36.8713 181.287 36.527 178.777Z" fill="#591636"/>
<path d="M28.8848 181.949C28.8848 184.724 26.6726 186.973 23.9438 186.973C21.215 186.973 19.0029 184.724 19.0029 181.949C19.0029 179.175 21.215 176.926 23.9438 176.926C26.6726 176.926 28.8848 179.175 28.8848 181.949Z" fill="#28061D"/>
<path d="M27.8445 178.777C27.0644 177.719 25.7832 177.097 24.5334 176.959C23.2836 176.82 22.0239 177.129 21.0111 177.822C19.9983 178.515 19.3087 179.541 19.0829 180.689C18.8572 181.837 19.0028 184.064 19.783 184.329C21.4432 185.266 23.87 185.329 25.7684 184.003C27.6409 182.694 28.1888 181.287 27.8445 178.777Z" fill="#591636"/>
<path d="M43.4553 164.573C43.4553 167.347 45.6675 169.596 48.3963 169.596C51.1251 169.596 53.3373 167.347 53.3373 164.573C53.3373 161.798 51.1251 159.55 48.3963 159.55C45.6675 159.55 43.4553 161.798 43.4553 164.573Z" fill="#28061D"/>
<path d="M44.4956 161.4C45.2757 160.343 46.5569 159.72 47.8067 159.582C49.0565 159.443 50.3162 159.752 51.329 160.445C52.3418 161.139 53.0314 162.164 53.2572 163.312C53.4829 164.461 53.3373 166.688 52.5571 166.952C50.8969 167.889 48.4702 167.952 46.5717 166.626C44.6992 165.318 44.1513 163.91 44.4956 161.4Z" fill="#591636"/>
<path d="M47.4019 172.471C47.4019 175.245 49.6141 177.494 52.3429 177.494C55.0717 177.494 57.2838 175.245 57.2838 172.471C57.2838 169.697 55.0717 167.448 52.3429 167.448C49.6141 167.448 47.4019 169.697 47.4019 172.471Z" fill="#28061D"/>
<path d="M48.4422 169.299C49.2223 168.241 50.5035 167.619 51.7533 167.48C53.0031 167.342 54.2628 167.651 55.2756 168.344C56.2884 169.037 56.978 170.062 57.2037 171.211C57.4295 172.359 57.2839 174.586 56.5037 174.851C54.8435 175.787 52.4167 175.851 50.5183 174.524C48.6458 173.216 48.0979 171.809 48.4422 169.299Z" fill="#591636"/>
<path d="M37.9301 159.044C37.9301 161.818 40.1422 164.067 42.8711 164.067C45.5999 164.067 47.812 161.818 47.812 159.044C47.812 156.27 45.5999 154.021 42.8711 154.021C40.1422 154.021 37.9301 156.27 37.9301 159.044Z" fill="#28061D"/>
<path d="M38.9704 155.871C39.7505 154.814 41.0317 154.191 42.2815 154.053C43.5313 153.915 44.791 154.223 45.8038 154.917C46.8166 155.61 47.5062 156.635 47.7319 157.783C47.9577 158.932 47.8121 161.159 47.0319 161.423C45.3716 162.36 42.9449 162.423 41.0465 161.097C39.174 159.789 38.6261 158.381 38.9704 155.871Z" fill="#591636"/>
<path d="M23.7224 161.413C23.7224 164.188 25.9345 166.436 28.6634 166.436C31.3922 166.436 33.6043 164.188 33.6043 161.413C33.6043 158.639 31.3922 156.39 28.6634 156.39C25.9345 156.39 23.7224 158.639 23.7224 161.413Z" fill="#28061D"/>
<path d="M24.7627 158.241C25.5428 157.183 26.8239 156.561 28.0738 156.423C29.3236 156.284 30.5833 156.593 31.5961 157.286C32.6089 157.979 33.2985 159.005 33.5242 160.153C33.75 161.301 33.6044 163.528 32.8241 163.793C31.1639 164.73 28.7372 164.793 26.8388 163.467C24.9663 162.158 24.4184 160.751 24.7627 158.241Z" fill="#591636"/>
<path d="M15.0399 163.783C15.0399 166.557 17.2521 168.806 19.9809 168.806C22.7097 168.806 24.9218 166.557 24.9218 163.783C24.9218 161.009 22.7097 158.76 19.9809 158.76C17.2521 158.76 15.0399 161.009 15.0399 163.783Z" fill="#28061D"/>
<path d="M16.0802 160.61C16.8603 159.553 18.1415 158.931 19.3913 158.792C20.6411 158.654 21.9008 158.962 22.9136 159.656C23.9264 160.349 24.616 161.374 24.8417 162.523C25.0675 163.671 24.9219 165.898 24.1417 166.162C22.4814 167.099 20.0547 167.162 18.1563 165.836C16.2838 164.528 15.7359 163.121 16.0802 160.61Z" fill="#591636"/>
<path d="M33.1942 166.152C33.1942 168.927 35.4063 171.176 38.1352 171.176C40.864 171.176 43.0761 168.927 43.0761 166.152C43.0761 163.378 40.864 161.129 38.1352 161.129C35.4063 161.129 33.1942 163.378 33.1942 166.152Z" fill="#28061D"/>
<path d="M34.2345 162.98C35.0146 161.922 36.2958 161.3 37.5456 161.162C38.7954 161.023 40.0551 161.332 41.0679 162.025C42.0807 162.718 42.7703 163.744 42.996 164.892C43.2218 166.04 43.0762 168.267 42.296 168.532C40.6357 169.469 38.209 169.532 36.3106 168.206C34.4381 166.897 33.8902 165.49 34.2345 162.98Z" fill="#591636"/>
<path d="M25.301 169.312C25.301 172.086 27.5132 174.335 30.242 174.335C32.9708 174.335 35.183 172.086 35.183 169.312C35.183 166.538 32.9708 164.289 30.242 164.289C27.5132 164.289 25.301 166.538 25.301 169.312Z" fill="#28061D"/>
<path d="M26.3413 166.139C27.1214 165.082 28.4026 164.46 29.6524 164.321C30.9022 164.183 32.162 164.491 33.1747 165.185C34.1875 165.878 34.8771 166.903 35.1029 168.051C35.3286 169.2 35.183 171.427 34.4028 171.691C32.7426 172.628 30.3159 172.691 28.4174 171.365C26.5449 170.057 25.997 168.649 26.3413 166.139Z" fill="#591636"/>
<path d="M55.2951 162.203C55.2951 164.977 57.5072 167.226 60.236 167.226C62.9649 167.226 65.177 164.977 65.177 162.203C65.177 159.429 62.9649 157.18 60.236 157.18C57.5072 157.18 55.2951 159.429 55.2951 162.203Z" fill="#28061D"/>
<path d="M56.3353 159.031C57.1155 157.973 58.3966 157.351 59.6465 157.212C60.8963 157.074 62.156 157.383 63.1688 158.076C64.1816 158.769 64.8711 159.794 65.0969 160.943C65.3227 162.091 65.1771 164.318 64.3968 164.583C62.7366 165.519 60.3099 165.583 58.4115 164.256C56.5389 162.948 55.991 161.541 56.3353 159.031Z" fill="#591636"/>
<path d="M49.7699 165.363C49.7699 168.137 51.982 170.386 54.7108 170.386C57.4396 170.386 59.6518 168.137 59.6518 165.363C59.6518 162.588 57.4396 160.339 54.7108 160.339C51.982 160.339 49.7699 162.588 49.7699 165.363Z" fill="#28061D"/>
<path d="M50.8101 162.19C51.5903 161.133 52.8714 160.51 54.1212 160.372C55.3711 160.233 56.6308 160.542 57.6436 161.235C58.6563 161.928 59.3459 162.954 59.5717 164.102C59.7975 165.251 59.6519 167.478 58.8716 167.742C57.2114 168.679 54.7847 168.742 52.8862 167.416C51.0137 166.107 50.4658 164.7 50.8101 162.19Z" fill="#591636"/>
<path d="M46.6126 172.471C46.6126 175.245 48.8247 177.494 51.5536 177.494C54.2824 177.494 56.4945 175.245 56.4945 172.471C56.4945 169.697 54.2824 167.448 51.5536 167.448C48.8247 167.448 46.6126 169.697 46.6126 172.471Z" fill="#28061D"/>
<path d="M47.6529 169.299C48.433 168.241 49.7141 167.619 50.964 167.48C52.2138 167.342 53.4735 167.651 54.4863 168.344C55.4991 169.037 56.1887 170.062 56.4144 171.211C56.6402 172.359 56.4946 174.586 55.7143 174.851C54.0541 175.787 51.6274 175.851 49.729 174.524C47.8565 173.216 47.3086 171.809 47.6529 169.299Z" fill="#591636"/>
<path d="M41.0874 167.732C41.0874 170.506 43.2995 172.755 46.0283 172.755C48.7572 172.755 50.9693 170.506 50.9693 167.732C50.9693 164.958 48.7572 162.709 46.0283 162.709C43.2995 162.709 41.0874 164.958 41.0874 167.732Z" fill="#28061D"/>
<path d="M42.1276 164.56C42.9078 163.502 44.1889 162.88 45.4388 162.741C46.6886 162.603 47.9483 162.912 48.9611 163.605C49.9739 164.298 50.6634 165.323 50.8892 166.472C51.115 167.62 50.9694 169.847 50.1891 170.111C48.5289 171.048 46.1022 171.112 44.2038 169.785C42.3312 168.477 41.7833 167.07 42.1276 164.56Z" fill="#591636"/>
<path d="M60.8203 167.732C60.8203 170.506 63.0324 172.755 65.7613 172.755C68.4901 172.755 70.7022 170.506 70.7022 167.732C70.7022 164.958 68.4901 162.709 65.7613 162.709C63.0324 162.709 60.8203 164.958 60.8203 167.732Z" fill="#28061D"/>
<path d="M61.8606 164.56C62.6407 163.502 63.9219 162.88 65.1717 162.741C66.4215 162.603 67.6812 162.912 68.694 163.605C69.7068 164.298 70.3964 165.323 70.6221 166.472C70.8479 167.62 70.7023 169.847 69.9221 170.111C68.2618 171.048 65.8351 171.112 63.9367 169.785C62.0642 168.477 61.5163 167.07 61.8606 164.56Z" fill="#591636"/>
<path d="M71.0814 159.044C71.0814 161.818 73.2936 164.067 76.0224 164.067C78.7512 164.067 80.9634 161.818 80.9634 159.044C80.9634 156.27 78.7512 154.021 76.0224 154.021C73.2936 154.021 71.0814 156.27 71.0814 159.044Z" fill="#28061D"/>
<path d="M72.1217 155.871C72.9018 154.814 74.183 154.191 75.4328 154.053C76.6826 153.915 77.9423 154.223 78.9551 154.917C79.9679 155.61 80.6575 156.635 80.8833 157.783C81.109 158.932 80.9634 161.159 80.1832 161.423C78.523 162.36 76.0963 162.423 74.1978 161.097C72.3253 159.789 71.7774 158.381 72.1217 155.871Z" fill="#591636"/>
<path d="M65.5562 162.203C65.5562 164.977 67.7683 167.226 70.4972 167.226C73.226 167.226 75.4381 164.977 75.4381 162.203C75.4381 159.429 73.226 157.18 70.4972 157.18C67.7683 157.18 65.5562 159.429 65.5562 162.203Z" fill="#28061D"/>
<path d="M66.5965 159.031C67.3766 157.973 68.6578 157.351 69.9076 157.212C71.1574 157.074 72.4171 157.383 73.4299 158.076C74.4427 158.769 75.1323 159.794 75.358 160.943C75.5838 162.091 75.4382 164.318 74.658 164.583C72.9977 165.519 70.571 165.583 68.6726 164.256C66.8001 162.948 66.2522 161.541 66.5965 159.031Z" fill="#591636"/>
<path d="M62.3989 169.312C62.3989 172.086 64.6111 174.335 67.3399 174.335C70.0687 174.335 72.2809 172.086 72.2809 169.312C72.2809 166.538 70.0687 164.289 67.3399 164.289C64.6111 164.289 62.3989 166.538 62.3989 169.312Z" fill="#28061D"/>
<path d="M63.4392 166.139C64.2194 165.082 65.5005 164.46 66.7503 164.321C68.0001 164.183 69.2599 164.491 70.2726 165.185C71.2854 165.878 71.975 166.903 72.2008 168.051C72.4266 169.2 72.2809 171.427 71.5007 171.691C69.8405 172.628 67.4138 172.691 65.5153 171.365C63.6428 170.057 63.0949 168.649 63.4392 166.139Z" fill="#591636"/>
<path d="M56.8737 164.573C56.8737 167.347 59.0859 169.596 61.8147 169.596C64.5435 169.596 66.7556 167.347 66.7556 164.573C66.7556 161.798 64.5435 159.55 61.8147 159.55C59.0859 159.55 56.8737 161.798 56.8737 164.573Z" fill="#28061D"/>
<path d="M57.914 161.4C58.6941 160.343 59.9753 159.72 61.2251 159.582C62.4749 159.443 63.7346 159.752 64.7474 160.445C65.7602 161.139 66.4498 162.164 66.6756 163.312C66.9013 164.461 66.7557 166.688 65.9755 166.952C64.3153 167.889 61.8885 167.952 59.9901 166.626C58.1176 165.318 57.5697 163.91 57.914 161.4Z" fill="#591636"/>
<path d="M75.028 166.942C75.028 169.716 77.2402 171.965 79.969 171.965C82.6978 171.965 84.9099 169.716 84.9099 166.942C84.9099 164.168 82.6978 161.919 79.969 161.919C77.2402 161.919 75.028 164.168 75.028 166.942Z" fill="#28061D"/>
<path d="M76.0683 163.77C76.8484 162.712 78.1296 162.09 79.3794 161.951C80.6292 161.813 81.8889 162.122 82.9017 162.815C83.9145 163.508 84.6041 164.534 84.8298 165.682C85.0556 166.83 84.91 169.057 84.1298 169.322C82.4696 170.258 80.0428 170.322 78.1444 168.995C76.2719 167.687 75.724 166.28 76.0683 163.77Z" fill="#591636"/>
<path d="M18.1211 92.8899L21.2595 81.9348L32.2437 80.0645L37.1474 90.4851L35.7744 100.104L23.8094 101.707L18.1211 92.8899Z" fill="#E4E8CD" fill-opacity="0.48"/>
<path d="M37.5996 90.2725L37.6641 90.4072L37.6426 90.5557L36.2158 100.55L35.8408 100.6L23.5615 102.245L17.5781 92.9707L20.7783 81.7969L20.8652 81.4951L32.5342 79.5078L37.5996 90.2725ZM18.9453 93.2471L24.0566 101.169L35.0312 99.6982L30.9736 91.0449L18.9453 93.2471ZM31.7734 90.3955L35.5156 98.374L36.6309 90.5615L32.5693 81.9316L31.7734 90.3955ZM21.6533 82.374L18.8232 92.2529L30.8008 90.0605L31.6846 80.667L21.6533 82.374Z" fill="#E4E8CD"/>
<path d="M52.1211 124.825L55.2595 113.87L66.2437 112L71.1474 122.421L69.7744 132.04L57.8094 133.643L52.1211 124.825Z" fill="#E4E8CD" fill-opacity="0.48"/>
<path d="M71.5996 122.208L71.6641 122.343L71.6426 122.491L70.2158 132.485L69.8408 132.535L57.5615 134.181L51.5781 124.906L54.7783 113.732L54.8652 113.431L66.5342 111.443L71.5996 122.208ZM52.9453 125.183L58.0566 133.104L69.0312 131.634L64.9736 122.98L52.9453 125.183ZM65.7734 122.331L69.5156 130.31L70.6309 122.497L66.5693 113.867L65.7734 122.331ZM55.6533 114.31L52.8232 124.188L64.8008 121.996L65.6846 112.603L55.6533 114.31Z" fill="#E4E8CD"/>
<path d="M63.1211 86.8254L66.2595 75.8704L77.2437 74L82.1474 84.4207L80.7744 94.0397L68.8094 95.6429L63.1211 86.8254Z" fill="#E4E8CD" fill-opacity="0.48"/>
<path d="M82.5996 84.208L82.6641 84.3428L82.6426 84.4912L81.2158 94.4854L80.8408 94.5352L68.5615 96.1807L62.5781 86.9062L65.7783 75.7324L65.8652 75.4307L77.5342 73.4434L82.5996 84.208ZM63.9453 87.1826L69.0566 95.1045L80.0312 93.6338L75.9736 84.9805L63.9453 87.1826ZM76.7734 84.3311L80.5156 92.3096L81.6309 84.4971L77.5693 75.8672L76.7734 84.3311ZM66.6533 76.3096L63.8232 86.1885L75.8008 83.9961L76.6846 74.6025L66.6533 76.3096Z" fill="#E4E8CD"/>
<path d="M62.6167 0L48.409 144.542L40.1212 160.339L54.3289 0H62.6167Z" fill="#FDB46C" fill-opacity="0.66"/>
<path d="M9.24477 181.518L1.74626 45.6634C28.5828 77.652 91.3338 61.0652 98.043 47.6381L91.3338 183.097C96.0694 202.053 6.87653 209.557 9.24477 181.518Z" fill="#D9D9D9" fill-opacity="0.4"/>
<path d="M2.89551 44.6998C15.8467 60.1371 37.6204 63.996 57.3047 62.1876C67.1087 61.2869 76.2753 58.9871 83.375 56.1031C86.9255 54.6608 89.9271 53.0851 92.2227 51.4889C94.5452 49.8739 96.0252 48.3201 96.7012 46.9674L99.541 47.7125L92.8418 182.964C93.4853 185.907 92.2975 188.532 90.125 190.687C87.9314 192.862 84.6244 194.693 80.708 196.191C72.8493 199.199 62.0432 201.056 51.2285 201.43C40.423 201.803 29.4269 200.704 21.2178 197.666C17.112 196.147 13.5965 194.104 11.1729 191.418C8.73629 188.718 7.4419 185.404 7.74121 181.505L0 41.2486L2.89551 44.6998ZM10.748 181.54L10.7393 181.644C10.4807 184.705 11.4537 187.253 13.3994 189.409C15.3817 191.605 18.4097 193.428 22.2588 194.853C29.959 197.702 40.5208 198.798 51.125 198.432C61.7203 198.065 72.1767 196.244 79.6357 193.39C83.3782 191.958 86.2442 190.31 88.0127 188.557C89.7458 186.838 90.3034 185.163 89.8779 183.461L89.8242 183.246L89.835 183.023L96.3203 52.0851C95.6023 52.7249 94.8024 53.3495 93.9355 53.9522C91.4106 55.7079 88.1995 57.3811 84.5049 58.8819C77.1132 61.8846 67.6559 64.2491 57.5791 65.1749C38.8316 66.8972 17.5196 63.6615 3.47363 49.7501L10.748 181.54Z" fill="white"/>
<defs>
<linearGradient id="paint0_linear_971_15297" x1="50.0599" y1="0" x2="50.0599" y2="201.5" gradientUnits="userSpaceOnUse">
<stop offset="0.211538" stop-color="#A680F1"/>
<stop offset="0.6875" stop-color="#6A76F9"/>
</linearGradient>
</defs>
</svg>
