<svg fill="none" height="200" viewBox="0 0 233 234" width="200" xmlns="http://www.w3.org/2000/svg">
  <path
    d="M38.5833 35.8143C39.0903 44.6284 5.30117 56.788 57.7925 70.8304C62.6831 64.9397 93.1382 30.2424 94.7086 25.782C99.3258 12.6722 73.3438 -7.39446 64.3667 3.50839C57.5814 11.7497 71.3799 17.1645 71.0542 20.7895C70.779 23.8484 67.5392 25.5831 64.7143 25.6713C59.8854 25.8207 56.7717 19.7111 52.1362 18.5639C44.3828 16.6454 37.7025 20.4398 38.5833 35.8143Z"
    fill="#A6CA38"/>
  <path
    d="M46.1149 87.9363C34.5752 95.5381 18.9172 94.2623 8.76236 84.1096C-1.39173 73.9566 -2.6719 58.2949 4.93067 46.7568L46.1149 87.9363Z"
    fill="#8BA43C"/>
  <path
    d="M41.4336 83.2562C32.5235 88.4157 20.9326 87.176 13.3136 79.5582C5.69095 71.936 4.4519 60.346 9.61189 51.4373L41.4336 83.2562Z"
    fill="#DBE12B"/>
  <path
    d="M59.4544 34.8444C15.2894 8.30923 2.07294 77.7328 42.3209 90.1888C82.5818 102.649 110.887 37.8987 59.4544 34.8444Z"
    fill="#CA2027"/>
  <path d="M57.165 42.2201C25.0775 22.9488 15.4802 73.386 44.7242 82.433C73.974 91.4811 94.5401 44.4446 57.165 42.2201Z"
        fill="#EF5123"/>
  <path
    d="M45.5045 79.9176C44.068 79.4715 43.6251 76.7909 44.5072 73.9359C45.3937 71.0715 47.2723 69.1183 48.7138 69.5611C50.1456 70.0057 50.5842 72.688 49.7074 75.5463C48.8199 78.4039 46.9413 80.364 45.5045 79.9176Z"
    fill="#F7E8C4"/>
  <path
    d="M47.5682 47.0689C46.7384 48.3283 44.0417 48.0019 41.5457 46.3567C39.0455 44.7058 37.6971 42.3455 38.5241 41.0923C39.3529 39.8366 42.0484 40.1615 44.548 41.8117C47.0425 43.4572 48.3955 45.8129 47.5682 47.0689Z"
    fill="#F7E8C4"/>
  <path
    d="M43.0992 56.6397C42.6162 58.061 39.9289 58.4436 37.0897 57.4877C34.2569 56.5308 32.3475 54.608 32.8198 53.1842C33.3049 51.7533 35.9926 51.3767 38.8322 52.3344C41.6668 53.287 43.5736 55.2145 43.0992 56.6397Z"
    fill="#F7E8C4"/>
  <path
    d="M43.4665 64.8093C43.8911 66.2521 41.905 68.1058 39.0306 68.9477C36.1588 69.7835 33.4894 69.2977 33.0616 67.8517C32.6366 66.4083 34.6256 64.5578 37.4992 63.7163C40.3714 62.8743 43.0498 63.3651 43.4665 64.8093Z"
    fill="#F7E8C4"/>
  <path
    d="M62.3162 51.7873C62.2879 53.2946 64.6935 54.5499 67.6882 54.5972C70.6837 54.6438 73.1284 53.4644 73.1535 51.9682C73.1786 50.466 70.7679 49.2006 67.7804 49.1512C64.7899 49.1082 62.3434 50.2851 62.3162 51.7873Z"
    fill="#F7E8C4"/>
  <path
    d="M60.595 62.2072C60.184 63.6528 62.1869 65.4886 65.0677 66.3019C67.9557 67.113 70.6182 66.6064 71.0295 65.1597C71.4373 63.7134 69.4373 61.8819 66.5518 61.0651C63.6764 60.2507 61.0024 60.7609 60.595 62.2072Z"
    fill="#F7E8C4"/>
  <path
    d="M55.6735 68.7371C54.5176 69.6933 55.1037 72.3405 57.0035 74.6621C58.9003 76.9708 61.3774 78.0818 62.543 77.1259C63.7075 76.1751 63.1141 73.5257 61.2201 71.212C59.3264 68.889 56.8444 67.7898 55.6735 68.7371Z"
    fill="#F7E8C4"/>
  <path d="M68.6462 84.7352L51.9993 114.142L21.0225 56.5272C41.0734 57.4175 57.7039 69.4461 68.6462 84.7352Z"
        fill="#BB862E"/>
  <path
    d="M31.6167 112.704L72.4096 63.5633C57.2772 48.4955 39.871 64.1114 39.5106 64.565C35.084 70.1199 27.2962 64.3765 22.2272 62.999C18.4865 61.9822 16.1772 62.4834 13.7374 65.504C10.4958 69.5184 12.1341 72.9223 12.4071 77.6873C12.8675 85.6799 -1.50455 88.7926 2.63139 97.5121C6.96298 106.645 23.0091 110.402 31.6167 112.704Z"
    fill="#A6CA38"/>
  <path
    d="M60.7006 123.473C67.7464 113.457 99.5996 69.4596 99.863 67.8156C100.45 64.1512 91.1941 49.7792 75.5088 60.7473C70.7483 64.0767 67.4901 66.9242 62.5871 63.2727C58.6747 60.3582 51.1897 49.2303 42.2004 54.4829C35.2027 58.5729 39.6532 62.2251 40.215 67.4372C40.8808 73.6106 36.5453 73.459 32.385 71.9661C-1.84447 59.6839 25.7094 114.114 60.7006 123.473Z"
    fill="#DBE12B"/>
  <path d="M64.9397 17.0231L53.7822 28.1794L65.3402 39.7361L76.4977 28.5799L64.9397 17.0231Z" fill="#EF5123"/>
  <path d="M85.7661 116.524C118.862 107.69 110.643 29.2998 62.4302 13.6116L85.7661 116.524Z" fill="#BB862E"/>
  <path
    d="M228.83 165.929L201.344 193.412C195.852 198.903 186.939 198.903 181.447 193.412L82.1681 94.1444C45.218 57.1975 96.6322 13.8505 96.6322 13.8505L228.83 146.034C234.321 151.524 234.326 160.434 228.83 165.929Z"
    fill="#F6C914"/>
  <path
    d="M104.983 91.7874C98.0072 98.7625 87.5435 88.2068 94.4728 81.2783L113.192 62.5605C120.163 55.59 130.647 66.1267 123.703 73.07L104.983 91.7874Z"
    fill="#F7B318"/>
  <path
    d="M133.412 120.213C126.436 127.187 115.971 116.632 122.9 109.703L141.619 90.9863C148.592 84.0147 159.074 94.5525 152.129 101.496L133.412 120.213Z"
    fill="#F7B318"/>
  <path
    d="M161.84 148.638C154.864 155.613 144.4 145.056 151.328 138.128L170.048 119.411C177.02 112.439 187.502 122.978 180.558 129.921L161.84 148.638Z"
    fill="#F7B318"/>
  <path
    d="M190.268 177.063C183.291 184.038 172.828 173.482 179.756 166.553L198.476 147.835C205.448 140.864 215.93 151.402 208.986 158.346L190.268 177.063Z"
    fill="#F7B318"/>
  <path
    d="M201.344 193.412L165.011 229.741C159.52 235.232 150.605 235.232 145.113 229.741L12.916 97.557L15.8058 94.6682C52.9645 60.001 75.5128 87.4896 84.153 96.1292L181.446 193.412C186.939 198.903 195.852 198.903 201.344 193.412Z"
    fill="#F7B318"/>
</svg>
