<svg width="200" height="200" viewBox="0 0 200 200" fill="none" xmlns="http://www.w3.org/2000/svg">
<g clip-path="url(#clip0_971_15499)">
<path d="M33.4043 30.6106C33.8377 38.144 4.95807 48.5368 49.8225 60.5388C54.0025 55.5041 80.0325 25.8482 81.3747 22.0359C85.321 10.831 63.1142 -6.32001 55.4414 2.99866C49.642 10.0425 61.4356 14.6706 61.1572 17.7688C60.922 20.3833 58.153 21.8659 55.7385 21.9413C51.6113 22.069 48.95 16.8471 44.988 15.8666C38.3612 14.2269 32.6515 17.47 33.4043 30.6106Z" fill="#A6CA38"/>
<path d="M39.8416 75.1593C29.9786 81.6565 16.5957 80.5661 7.91635 71.8886C-0.762355 63.2108 -1.85652 49.8247 4.64141 39.9631L39.8416 75.1593Z" fill="#8BA43C"/>
<path d="M35.8405 71.1592C28.225 75.569 18.3183 74.5094 11.8063 67.9985C5.29122 61.4838 4.2322 51.5778 8.64245 43.9635L35.8405 71.1592Z" fill="#DBE12B"/>
<path d="M51.2429 29.7816C13.495 7.10194 2.1989 66.4383 36.5989 77.0845C71.0099 87.7342 95.2024 32.3921 51.2429 29.7816Z" fill="#CA2027"/>
<path d="M49.2861 36.0856C21.8609 19.6144 13.6581 62.7231 38.653 70.4556C63.6528 78.189 81.2307 37.9869 49.2861 36.0856Z" fill="#EF5123"/>
<path d="M39.3199 68.3057C38.0921 67.9244 37.7136 65.6333 38.4675 63.1931C39.2252 60.7449 40.8308 59.0755 42.0629 59.454C43.2866 59.834 43.6615 62.1265 42.9121 64.5695C42.1536 67.0119 40.5479 68.6872 39.3199 68.3057Z" fill="#F7E8C4"/>
<path d="M41.0837 40.2299C40.3745 41.3063 38.0696 41.0273 35.9363 39.6212C33.7994 38.2101 32.6469 36.1928 33.3537 35.1217C34.0621 34.0484 36.366 34.3261 38.5024 35.7365C40.6344 37.1429 41.7908 39.1564 41.0837 40.2299Z" fill="#F7E8C4"/>
<path d="M37.2641 48.41C36.8513 49.6248 34.5544 49.9518 32.1278 49.1348C29.7066 48.317 28.0746 46.6735 28.4783 45.4566C28.8929 44.2336 31.1901 43.9118 33.6171 44.7303C36.0398 45.5445 37.6696 47.1919 37.2641 48.41Z" fill="#F7E8C4"/>
<path d="M37.578 55.3926C37.9409 56.6258 36.2434 58.2101 33.7866 58.9297C31.3321 59.6441 29.0506 59.2288 28.6849 57.9929C28.3217 56.7593 30.0217 55.1776 32.4778 54.4584C34.9326 53.7388 37.2219 54.1582 37.578 55.3926Z" fill="#F7E8C4"/>
<path d="M53.6889 44.2627C53.6647 45.551 55.7207 46.6239 58.2803 46.6643C60.8406 46.7041 62.9301 45.6961 62.9515 44.4173C62.973 43.1334 60.9125 42.0518 58.3591 42.0096C55.8031 41.9729 53.7121 42.9788 53.6889 44.2627Z" fill="#F7E8C4"/>
<path d="M52.2178 53.1686C51.8665 54.4041 53.5784 55.9732 56.0406 56.6683C58.509 57.3616 60.7846 56.9286 61.1361 55.6921C61.4847 54.4559 59.7753 52.8906 57.309 52.1924C54.8514 51.4964 52.566 51.9324 52.2178 53.1686Z" fill="#F7E8C4"/>
<path d="M48.0113 58.7497C47.0234 59.567 47.5243 61.8295 49.1481 63.8138C50.7693 65.787 52.8865 66.7366 53.8827 65.9196C54.878 65.107 54.3708 62.8425 52.752 60.865C51.1335 58.8795 49.0121 57.94 48.0113 58.7497Z" fill="#F7E8C4"/>
<path d="M59.0991 72.4233L44.871 97.5573L18.3951 48.3139C35.5326 49.0748 49.7467 59.3557 59.0991 72.4233Z" fill="#BB862E"/>
<path d="M27.45 96.3282L62.3157 54.3276C49.382 41.4492 34.5049 54.7961 34.1969 55.1838C30.4135 59.9316 23.7572 55.0227 19.4248 53.8453C16.2276 52.9763 14.2538 53.4047 12.1685 55.9864C9.39793 59.4175 10.7982 62.3268 11.0315 66.3994C11.425 73.2307 -0.858783 75.8912 2.67621 83.3437C6.37842 91.1496 20.0931 94.3607 27.45 96.3282Z" fill="#A6CA38"/>
<path d="M52.308 105.533C58.3301 96.9718 85.555 59.3672 85.7801 57.9621C86.2819 54.8301 78.3708 42.5464 64.9646 51.9208C60.8958 54.7665 58.111 57.2002 53.9204 54.0793C50.5765 51.5882 44.179 42.0772 36.4959 46.5666C30.5149 50.0623 34.3188 53.1839 34.799 57.6387C35.368 62.9151 31.6625 62.7855 28.1066 61.5095C-1.14931 51.0119 22.401 97.5334 52.308 105.533Z" fill="#DBE12B"/>
<path d="M55.9312 14.5497L46.3949 24.085L56.2735 33.9625L65.8098 24.4273L55.9312 14.5497Z" fill="#EF5123"/>
<path d="M73.7315 99.5932C102.019 92.0428 94.9938 25.0426 53.7863 11.6339L73.7315 99.5932Z" fill="#BB862E"/>
<path d="M196.008 141.82L172.516 165.309C167.822 170.003 160.204 170.003 155.51 165.309L70.6563 80.4653C39.075 48.8868 83.0188 11.8381 83.0188 11.8381L196.008 124.815C200.702 129.508 200.706 137.123 196.008 141.82Z" fill="#F6C914"/>
<path d="M90.1562 78.4508C84.194 84.4124 75.2507 75.3905 81.1731 69.4687L97.1725 53.4706C103.131 47.5129 112.091 56.5186 106.156 62.453L90.1562 78.4508Z" fill="#F7B318"/>
<path d="M114.455 102.746C108.492 108.707 99.5477 99.6855 105.47 93.7633L121.469 77.7661C127.429 71.8075 136.388 80.8141 130.452 86.7488L114.455 102.746Z" fill="#F7B318"/>
<path d="M138.752 127.041C132.79 133.003 123.846 123.98 129.767 118.058L145.767 102.061C151.726 96.1017 160.685 105.109 154.75 111.044L138.752 127.041Z" fill="#F7B318"/>
<path d="M163.049 151.336C157.086 157.297 148.143 148.275 154.065 142.353L170.065 126.355C176.024 120.397 184.983 129.403 179.048 135.339L163.049 151.336Z" fill="#F7B318"/>
<path d="M172.516 165.309L141.462 196.36C136.769 201.053 129.149 201.053 124.455 196.36L11.4665 83.3821L13.9364 80.913C45.696 51.2829 64.968 74.7775 72.3528 82.1618L155.51 165.309C160.204 170.003 167.822 170.003 172.516 165.309Z" fill="#F7B318"/>
</g>
<defs>
<clipPath id="clip0_971_15499">
<rect width="200" height="200" fill="white"/>
</clipPath>
</defs>
</svg>
