<svg width="200" height="200" viewBox="0 0 200 200" fill="none" xmlns="http://www.w3.org/2000/svg">
<ellipse cx="100" cy="121.899" rx="90" ry="58.1013" fill="#C76B25"/>
<ellipse cx="100" cy="117.057" rx="90" ry="57.5633" fill="#D97930"/>
<ellipse cx="100.536" cy="112.753" rx="75.5357" ry="45.7278" fill="#CC6E29"/>
<path d="M167.5 117.072C167.5 129.849 139.007 150.949 102.024 150.949C65.0406 150.949 33.5715 129.849 33.5715 117.072C33.5715 104.294 63.5525 93.936 100.536 93.936C137.519 93.936 167.5 104.294 167.5 117.072Z" fill="#BF6321"/>
<path d="M42.2607 41.7645L35.7651 111.247C35.7596 111.306 35.8058 111.357 35.8647 111.357H165.204C165.264 111.357 165.31 111.305 165.303 111.245L157.364 41.7625C157.359 41.712 157.316 41.6738 157.265 41.6738H42.3602C42.3086 41.6738 42.2655 41.7131 42.2607 41.7645Z" fill="#FFBA41" stroke="#FFBA41" stroke-linecap="round"/>
<path d="M166.044 112.94C166.044 125.186 138.171 145.406 101.992 145.406C65.8123 145.406 35.0273 125.186 35.0273 112.94C35.0273 100.695 64.3565 90.7686 100.536 90.7686C136.715 90.7686 166.044 100.695 166.044 112.94Z" fill="#FFBA41"/>
<path d="M97.7271 144.612C99.9013 144.564 101.169 144.546 103.343 144.611C103.4 144.613 103.447 144.568 103.447 144.511V57.6108C103.447 57.5555 103.402 57.5108 103.347 57.5108H97.7242C97.6689 57.5108 97.6242 57.5555 97.6242 57.6108V144.512C97.6242 144.568 97.671 144.613 97.7271 144.612Z" fill="#F6AE34"/>
<path d="M77.3207 141.468C80.055 142.225 81.2697 142.406 82.9785 142.247C83.0287 142.243 83.0677 142.201 83.0691 142.151L85.248 61.558C85.2493 61.5077 85.2131 61.4642 85.1633 61.4565L80.2665 60.6955C80.2073 60.6863 80.1533 60.7308 80.1512 60.7907L77.2466 141.368C77.2449 141.414 77.2762 141.456 77.3207 141.468Z" fill="#F6AE34"/>
<path d="M63.2939 136.653C61.7319 136.091 60.5797 135.51 58.3795 134.352C58.3434 134.333 58.3218 134.294 58.3259 134.253L62.6739 91.682C62.6803 91.6191 62.7427 91.5779 62.803 91.5966L67.7034 93.1198C67.7488 93.1339 67.778 93.178 67.7732 93.2253L63.4269 136.569C63.4204 136.633 63.3549 136.675 63.2939 136.653Z" fill="#F6AE34"/>
<path d="M53.9417 44.936L45.2353 126.234C45.2272 126.309 45.1408 126.348 45.0787 126.304C43.4094 125.126 42.449 124.187 40.8688 121.68C40.8569 121.661 40.8513 121.639 40.8536 121.616L48.8459 44.154C48.8518 44.0971 48.9042 44.0567 48.9607 44.0655L53.8576 44.8265C53.9103 44.8347 53.9473 44.8829 53.9417 44.936Z" fill="#F6AE34"/>
<path d="M97.7271 144.612C99.9013 144.564 101.169 144.546 103.343 144.611C103.4 144.613 103.447 144.568 103.447 144.511V57.6108C103.447 57.5555 103.402 57.5108 103.347 57.5108H97.7242C97.6689 57.5108 97.6242 57.5555 97.6242 57.6108V144.512C97.6242 144.568 97.671 144.613 97.7271 144.612Z" stroke="#F6AE34" stroke-linecap="round"/>
<path d="M77.3207 141.468C80.055 142.225 81.2697 142.406 82.9785 142.247C83.0287 142.243 83.0677 142.201 83.0691 142.151L85.248 61.558C85.2493 61.5077 85.2131 61.4642 85.1633 61.4565L80.2665 60.6955C80.2073 60.6863 80.1533 60.7308 80.1512 60.7907L77.2466 141.368C77.2449 141.414 77.2762 141.456 77.3207 141.468Z" stroke="#F6AE34" stroke-linecap="round"/>
<path d="M63.2939 136.653C61.7319 136.091 60.5797 135.51 58.3795 134.352C58.3434 134.333 58.3218 134.294 58.3259 134.253L62.6739 91.682C62.6803 91.6191 62.7427 91.5779 62.803 91.5966L67.7034 93.1198C67.7488 93.1339 67.778 93.178 67.7732 93.2253L63.4269 136.569C63.4204 136.633 63.3549 136.675 63.2939 136.653Z" stroke="#F6AE34" stroke-linecap="round"/>
<path d="M53.9417 44.936L45.2353 126.234C45.2272 126.309 45.1408 126.348 45.0787 126.304C43.4094 125.126 42.449 124.187 40.8688 121.68C40.8569 121.661 40.8513 121.639 40.8536 121.616L48.8459 44.154C48.8518 44.0971 48.9042 44.0567 48.9607 44.0655L53.8576 44.8265C53.9103 44.8347 53.9473 44.8829 53.9417 44.936Z" stroke="#F6AE34" stroke-linecap="round"/>
<path d="M153.682 40.2433L160.219 122.413C160.22 122.432 160.216 122.452 160.207 122.469C159.265 124.212 158.42 125.041 156.725 126.296C156.663 126.342 156.573 126.302 156.566 126.224L149.309 42.5306C149.305 42.491 149.326 42.4531 149.361 42.4341L153.535 40.1634C153.599 40.1288 153.677 40.1712 153.682 40.2433Z" fill="#F6AE34"/>
<path d="M142.696 135.143C141.417 135.854 139.808 136.984 137.77 137.462C137.711 137.476 137.653 137.433 137.649 137.372L131.112 48.8757C131.108 48.8311 131.135 48.7896 131.177 48.7744L135.35 47.2611C135.412 47.2386 135.479 47.2812 135.484 47.3468L142.747 135.047C142.75 135.087 142.73 135.124 142.696 135.143Z" fill="#F6AE34"/>
<path d="M120.192 52.0636L123.824 142.158C123.826 142.205 123.794 142.247 123.748 142.259C122.079 142.683 121.002 142.956 118.832 143.027C118.777 143.029 118.731 142.986 118.728 142.932L115.097 52.0716C115.095 52.0148 115.14 51.9676 115.197 51.9676H120.092C120.146 51.9676 120.19 52.0099 120.192 52.0636Z" fill="#F6AE34"/>
<path d="M153.682 40.2433L160.219 122.413C160.22 122.432 160.216 122.452 160.207 122.469C159.265 124.212 158.42 125.041 156.725 126.296C156.663 126.342 156.573 126.302 156.566 126.224L149.309 42.5306C149.305 42.491 149.326 42.4531 149.361 42.4341L153.535 40.1634C153.599 40.1288 153.677 40.1712 153.682 40.2433Z" stroke="#F6AE34" stroke-linecap="round"/>
<path d="M142.696 135.143C141.417 135.854 139.808 136.984 137.77 137.462C137.711 137.476 137.653 137.433 137.649 137.372L131.112 48.8757C131.108 48.8311 131.135 48.7896 131.177 48.7744L135.35 47.2611C135.412 47.2386 135.479 47.2812 135.484 47.3468L142.747 135.047C142.75 135.087 142.73 135.124 142.696 135.143Z" stroke="#F6AE34" stroke-linecap="round"/>
<path d="M120.192 52.0636L123.824 142.158C123.826 142.205 123.794 142.247 123.748 142.259C122.079 142.683 121.002 142.956 118.832 143.027C118.777 143.029 118.731 142.986 118.728 142.932L115.097 52.0716C115.095 52.0148 115.14 51.9676 115.197 51.9676H120.092C120.146 51.9676 120.19 52.0099 120.192 52.0636Z" stroke="#F6AE34" stroke-linecap="round"/>
<path d="M158.398 36.923H41.2024C41.1575 36.923 41.1186 36.9512 41.1066 36.9945C40.9682 37.4942 40.139 40.5026 39.6696 42.5148C37.0458 53.7623 35.9162 67.6485 36.756 72.0713C37.5958 76.494 39.2691 80.9152 43.3116 80.8583C45.9949 80.8206 46.5592 81.2029 49.1387 76.8642C51.4501 72.4162 53.0746 71.3204 56.4082 71.2726C56.4176 71.2725 56.4276 71.2738 56.4367 71.2763C62.8982 73.0735 63.9588 76.995 62.9792 87.239C62.9785 87.2455 62.9772 87.2522 62.9754 87.2584C60.296 96.2489 59.2423 101.528 59.3361 112C59.3362 112.008 59.3372 112.016 59.3391 112.024C61.5674 120.958 65.7954 124.399 72.4473 123.995C79.7218 123.553 83.8715 118.2 84.1016 108.018C85.1756 99.6285 81.9974 93.8546 83.3732 88.0477C85.4439 79.3082 93.2433 78.0148 100.126 82.456C105.536 85.9463 108.302 92.6374 115.423 93.6395C124.655 94.9387 126.317 85.7439 131.447 80.8583C135.618 76.8869 140.182 75.3505 145.287 77.663C149.037 79.3619 150.974 84.9696 155.484 84.0536C159.44 83.2503 161.025 80.9388 162.768 76.0654C164.511 71.192 159.496 36.8397 158.398 36.923Z" fill="#CF5F11" stroke="#CF5F11" stroke-linecap="round"/>
<path d="M158.765 36.9229C158.765 44.7948 155.854 63.8458 100.536 67.0132C43.7616 65.4295 40.8501 44.7948 40.8501 36.9229C40.8501 29.051 57.5912 10 100.536 10C142.024 10 158.765 29.051 158.765 36.9229Z" fill="#DA6B15"/>
<path d="M48.8575 44.1837C46.0956 37.3938 52.045 38.5437 52.4726 38.6343C52.4898 38.6379 52.5038 38.6461 52.5166 38.658C64.4253 49.7161 71.6456 53.2011 85.9607 52.1026C85.9727 52.1017 85.9798 52.1013 85.9913 52.1048C86.3548 52.2136 94.696 54.7824 87.4351 59.229C80.014 63.7737 51.7216 51.2245 48.8575 44.1837Z" fill="#EF8323" stroke="#EF8323" stroke-linecap="round"/>
<path d="M68.5093 99.9975C66.9386 97.8006 64.9347 98.5419 63.6093 100.922C62.1192 103.599 62.8809 108.838 62.8814 108.841C62.8819 108.844 63.8423 115.301 66.5207 115.176C68.3392 115.09 69.5353 115.318 70.1601 113.459C70.7536 111.692 67.124 109.003 67.0535 107.124C66.9601 104.633 69.9162 101.965 68.5093 99.9975Z" fill="#EC7E23" stroke="#EC7E23" stroke-linecap="round"/>
</svg>
