<svg width="200" height="200" viewBox="0 0 200 200" fill="none" xmlns="http://www.w3.org/2000/svg">
<path d="M190 121.899C190 153.987 149.706 180 100 180C50.2944 180 10 153.987 10 121.899C10 89.8104 50.2944 63.7976 100 63.7976C149.706 63.7976 190 89.8104 190 121.899Z" fill="#F4B13B"/>
<path d="M190 117.057C190 148.848 149.706 174.62 100 174.62C50.2944 174.62 10 148.848 10 117.057C10 85.2656 50.2944 59.4937 100 59.4937C149.706 59.4937 190 85.2656 190 117.057Z" fill="#BC3621"/>
<path d="M176.071 112.753C176.071 138.008 142.253 158.481 100.536 158.481C58.8185 158.481 25 138.008 25 112.753C25 87.4984 58.8185 67.0254 100.536 67.0254C142.253 67.0254 176.071 87.4984 176.071 112.753Z" fill="#A92D1B"/>
<path d="M143.647 64.511C143.949 64.511 144.205 64.7362 144.242 65.0364L150.311 113.26C150.356 113.618 150.076 113.936 149.715 113.936H50.7813C50.4259 113.935 50.1483 113.627 50.1847 113.274L55.1495 65.049C55.1812 64.7433 55.4397 64.511 55.7472 64.511H143.647ZM51.2247 112.936H149.262L143.294 65.511H56.1075L51.2247 112.936Z" fill="#FFBA41"/>
<path d="M151.5 117.407C151.5 126.286 129.694 140.949 101.389 140.949C73.0843 140.949 49 126.286 49 117.407C49 108.528 71.9454 101.329 100.25 101.329C128.555 101.329 151.5 108.528 151.5 117.407Z" fill="#BF6321"/>
<path d="M55.6473 65.1007L50.6823 113.325C50.6763 113.384 50.7225 113.435 50.7818 113.435H149.715C149.776 113.435 149.822 113.383 149.815 113.323L143.746 65.0985C143.74 65.0485 143.697 65.011 143.647 65.011H55.7468C55.6955 65.011 55.6526 65.0497 55.6473 65.1007Z" fill="#FFBA41"/>
<path d="M98.5217 136.037C99.7988 136.013 100.696 136.007 101.978 136.036V76.5162H98.5217V136.037ZM84.8313 77.7379L88.5324 78.2604C88.8352 78.3031 89.0582 78.567 89.049 78.8727L87.383 134.822C87.374 135.126 87.1377 135.377 86.8332 135.402C85.4601 135.515 84.4684 135.375 82.3821 134.851C82.1115 134.783 81.9155 134.534 81.927 134.245L84.1477 78.3082C84.1618 77.9534 84.4797 77.6884 84.8313 77.7379ZM82.9397 133.957C84.5712 134.356 85.4135 134.475 86.3938 134.427L88.0383 79.1998L85.1301 78.7897L82.9397 133.957ZM70.7834 99.6725C70.8583 99.3428 71.1973 99.135 71.5315 99.2291L75.2365 100.275C75.5185 100.355 75.7012 100.626 75.6692 100.918L72.3498 130.977C72.3083 131.354 71.9312 131.6 71.5676 131.481C70.3554 131.083 69.4503 130.669 67.7893 129.876C67.5622 129.767 67.4226 129.525 67.4514 129.267L70.7727 99.7399L70.7834 99.6725ZM68.4758 129.093C69.7493 129.7 70.535 130.057 71.4104 130.37L74.6379 101.144L71.7131 100.319L68.4758 129.093ZM60.8703 66.1813L64.5705 66.7037C64.8934 66.7493 65.1214 67.044 65.0832 67.3678L58.428 123.792C58.3761 124.23 57.8823 124.466 57.508 124.225C56.1912 123.378 55.4122 122.677 54.1819 120.906C54.1002 120.788 54.0616 120.642 54.0783 120.495L60.1897 66.7077L60.216 66.5866C60.2923 66.3553 60.5033 66.1922 60.7463 66.1764L60.8703 66.1813ZM55.0881 120.454C56.0177 121.776 56.6461 122.409 57.511 123.021L64.0442 67.6383L61.1369 67.2282L55.0881 120.454ZM102.978 136.444C102.978 136.785 102.696 137.053 102.362 137.044C100.732 137 99.7723 137.012 98.134 137.045C97.8014 137.051 97.5217 136.784 97.5217 136.445V76.1168C97.5217 75.7856 97.7901 75.5164 98.1213 75.5162H102.378C102.71 75.5162 102.978 75.7855 102.978 76.1168V136.444Z" fill="#F6AE34"/>
<path d="M150.386 114.536C150.386 123.045 129.054 137.097 101.364 137.097C73.6749 137.097 50.1142 123.045 50.1142 114.536C50.1142 106.026 72.5608 99.1282 100.25 99.1282C127.939 99.1282 150.386 106.026 150.386 114.536Z" fill="#FFBA41"/>
<path d="M98.1242 136.545C99.7657 136.512 100.734 136.5 102.375 136.544C102.431 136.546 102.478 136.5 102.478 136.444V76.1165C102.478 76.0612 102.433 76.0165 102.378 76.0165H98.1217C98.0664 76.0165 98.0217 76.0612 98.0217 76.1165V136.445C98.0217 136.501 98.0682 136.546 98.1242 136.545Z" fill="#F6AE34"/>
<path d="M82.5034 134.366C84.5702 134.884 85.4993 135.011 86.7917 134.904C86.8421 134.9 86.8815 134.858 86.883 134.807L88.5489 78.8573C88.5504 78.8064 88.5134 78.7625 88.4629 78.7553L84.7616 78.233C84.703 78.2248 84.6501 78.2689 84.6477 78.3281L82.427 134.265C82.4252 134.312 82.4575 134.354 82.5034 134.366Z" fill="#F6AE34"/>
<path d="M71.7231 131.006C70.5444 130.62 69.6653 130.218 68.0049 129.424C67.9665 129.406 67.9433 129.365 67.9481 129.323L71.2693 99.7955C71.2762 99.7341 71.3365 99.6936 71.3959 99.7104L75.1004 100.756C75.1475 100.769 75.178 100.815 75.1727 100.863L71.853 130.922C71.8461 130.985 71.7832 131.026 71.7231 131.006Z" fill="#F6AE34"/>
<path d="M64.5863 67.3091L57.9315 123.733C57.9229 123.806 57.8408 123.845 57.7789 123.805C56.5211 122.996 55.7884 122.342 54.5923 120.62C54.5784 120.6 54.572 120.576 54.5748 120.552L60.6867 66.7638C60.693 66.7079 60.7443 66.6682 60.8 66.6761L64.5009 67.1984C64.5547 67.206 64.5926 67.2551 64.5863 67.3091Z" fill="#F6AE34"/>
<path d="M140.928 64.0559L145.926 121.107C145.928 121.128 145.923 121.149 145.912 121.167C145.2 122.363 144.557 122.939 143.283 123.797C143.22 123.84 143.135 123.799 143.128 123.724L137.58 65.6297C137.576 65.5884 137.598 65.5489 137.635 65.5305L140.784 63.975C140.847 63.9438 140.922 63.9858 140.928 64.0559Z" fill="#F6AE34"/>
<path d="M132.499 129.974C131.528 130.466 130.31 131.239 128.77 131.571C128.712 131.584 128.656 131.542 128.651 131.482L123.653 70.0417C123.649 69.9957 123.677 69.9531 123.721 69.9386L126.869 68.902C126.93 68.8819 126.994 68.9239 127 68.9879L132.553 129.875C132.557 129.916 132.535 129.955 132.499 129.974Z" fill="#F6AE34"/>
<path d="M115.295 72.2599L118.072 134.813C118.074 134.861 118.041 134.904 117.994 134.915C116.734 135.206 115.912 135.393 114.275 135.443C114.221 135.445 114.174 135.403 114.172 135.348L111.396 72.2688C111.393 72.2119 111.439 72.1644 111.495 72.1644H115.195C115.248 72.1644 115.292 72.2065 115.295 72.2599Z" fill="#F6AE34"/>
<path d="M115.195 71.6641C115.476 71.6641 115.713 71.8579 115.778 72.1211L115.794 72.2374L118.572 134.791C118.584 135.082 118.387 135.338 118.107 135.402C116.836 135.696 115.976 135.892 114.29 135.943C113.965 135.953 113.687 135.701 113.672 135.37L110.896 72.2911C110.881 71.9497 111.154 71.6641 111.495 71.6641H115.195ZM114.653 134.926C115.856 134.867 116.587 134.721 117.557 134.5L114.812 72.6641H111.913L114.653 134.926ZM126.782 68.4092C127.103 68.3433 127.42 68.551 127.488 68.8721L127.498 68.9424L133.051 129.83C133.073 130.075 132.944 130.309 132.725 130.42C131.806 130.886 130.497 131.709 128.875 132.06C128.517 132.137 128.182 131.879 128.153 131.523L123.155 70.0821C123.132 69.806 123.302 69.5506 123.565 69.4639L126.713 68.4268L126.782 68.4092ZM124.176 70.3145L129.11 130.97C130.246 130.649 131.181 130.102 132.031 129.655L126.547 69.5333L124.176 70.3145ZM140.634 63.4971C140.971 63.3802 141.339 63.5868 141.414 63.9356L141.426 64.0128L146.424 121.064C146.435 121.19 146.406 121.316 146.342 121.423C145.579 122.703 144.874 123.328 143.562 124.212C143.184 124.466 142.673 124.224 142.63 123.772L137.081 65.6768C137.058 65.429 137.19 65.1923 137.413 65.0821L140.563 63.5264L140.634 63.4971ZM138.103 65.8555L143.56 122.992C144.397 122.384 144.887 121.881 145.416 121.017L140.481 64.6817L138.103 65.8555Z" fill="#F6AE34"/>
<path d="M144.534 61.7095H54.856C54.812 61.7095 54.7736 61.7371 54.7607 61.7791C54.6387 62.1798 54.02 64.2217 53.6671 65.5954C51.659 73.4116 50.7945 83.0614 51.4372 86.1349C52.0799 89.2084 53.3605 92.2808 56.4544 92.2413C58.508 92.215 58.9399 92.4808 60.9141 89.4657C62.6826 86.3755 63.9257 85.6136 66.4755 85.58C66.4842 85.5798 66.4933 85.5809 66.5016 85.5831C71.444 86.832 72.256 89.5566 71.5071 96.6715C71.5063 96.6785 71.5048 96.6858 71.5026 96.6925C69.4533 102.937 68.6471 106.605 68.7185 113.878C68.7186 113.887 68.7198 113.895 68.7221 113.904C70.4278 120.109 73.6633 122.499 78.753 122.218C84.3204 121.911 87.4963 118.191 87.6724 111.115C88.4943 105.285 86.0619 101.273 87.1149 97.2374C88.6997 91.1641 94.6689 90.2652 99.9366 93.3515C104.076 95.777 106.193 100.427 111.643 101.123C118.71 102.026 119.981 95.6364 123.908 92.2413C127.099 89.4815 130.593 88.4138 134.499 90.0208C137.369 91.2013 138.852 95.0983 142.304 94.4618C145.331 93.9035 146.545 92.2972 147.879 88.9105C149.212 85.5239 145.375 61.6516 144.534 61.7095Z" fill="#CF5F11"/>
<path d="M144.534 61.2094V61.2123C144.686 61.2112 144.802 61.2703 144.87 61.3197C144.942 61.3723 144.993 61.4337 145.025 61.4779C145.09 61.5668 145.142 61.6727 145.184 61.7709C145.271 61.9744 145.362 62.2554 145.456 62.5883C145.643 63.2601 145.86 64.2154 146.089 65.3608C146.549 67.6552 147.067 70.7495 147.517 73.9486C147.967 77.1473 148.349 80.4603 148.536 83.1899C148.629 84.5537 148.673 85.7801 148.652 86.7777C148.631 87.7527 148.547 88.5788 148.344 89.0942C147.673 90.7989 147.007 92.1233 146.089 93.0912C145.154 94.0775 143.99 94.6593 142.395 94.9535C140.429 95.316 139.037 94.3613 137.849 93.2943C137.552 93.0276 137.26 92.7464 136.975 92.474C136.687 92.1992 136.405 91.9316 136.116 91.6791C135.537 91.173 134.953 90.7478 134.309 90.4828C132.446 89.7167 130.703 89.594 129.049 89.9799C127.389 90.3676 125.788 91.2763 124.235 92.6195C123.298 93.4294 122.509 94.4268 121.731 95.4848C120.963 96.5286 120.192 97.6485 119.327 98.6254C118.454 99.6104 117.455 100.486 116.193 101.05C114.925 101.617 113.426 101.856 111.58 101.62C108.707 101.252 106.723 99.8382 104.964 98.2582C103.18 96.6546 101.696 94.9613 99.684 93.7826C97.1309 92.2868 94.4568 91.7868 92.268 92.3442C90.1085 92.8941 88.349 94.49 87.5991 97.3637C87.1044 99.2596 87.4227 101.162 87.8003 103.421C88.1725 105.649 88.5866 108.168 88.1713 111.153C88.0784 114.744 87.2242 117.557 85.6215 119.521C84.0047 121.502 81.677 122.557 78.7807 122.717C76.1495 122.862 73.9348 122.318 72.1547 120.882C70.3844 119.454 69.1078 117.194 68.2397 114.037C68.226 113.987 68.2188 113.935 68.2182 113.883C68.1464 106.561 68.9607 102.838 71.0131 96.5785C71.3838 93.0373 71.3471 90.7099 70.6782 89.1215C70.04 87.6062 68.7865 86.6846 66.4292 86.0805C65.2326 86.1014 64.41 86.2937 63.684 86.7895C62.9298 87.3046 62.2227 88.1861 61.3481 89.7143L61.3325 89.7397C60.3526 91.2362 59.6866 92.0372 58.9419 92.4193C58.5566 92.6169 58.1764 92.6904 57.7758 92.7192C57.3967 92.7464 56.9436 92.7354 56.4604 92.7416C54.71 92.7638 53.4736 91.8899 52.6147 90.6381C51.771 89.4084 51.2733 87.7944 50.9477 86.2377C50.6086 84.6159 50.6746 81.3624 51.061 77.5922C51.4499 73.7982 52.1719 69.407 53.1831 65.4711C53.5392 64.085 54.1611 62.0324 54.2827 61.6332L54.3188 61.5404C54.4208 61.3352 54.6314 61.2094 54.8559 61.2094H144.534ZM55.1538 62.2094C54.9383 62.9233 54.4489 64.5636 54.1518 65.7201C53.155 69.6002 52.4398 73.9416 52.0551 77.6947C51.668 81.4718 51.6227 84.581 51.9262 86.0326C52.2434 87.5493 52.7083 89.0078 53.4389 90.0727C54.1543 91.1153 55.1046 91.7587 56.4477 91.7416C56.9913 91.7347 57.3634 91.7466 57.7046 91.7221C58.0239 91.6991 58.2599 91.6456 58.4858 91.5297C58.9635 91.2846 59.5001 90.7111 60.4926 89.1957C61.3816 87.6457 62.1771 86.6071 63.1196 85.9633C64.0841 85.3046 65.1448 85.0979 66.4692 85.0805L66.5473 85.0844L66.6245 85.0981L67.0922 85.224C69.3754 85.8794 70.8382 86.9271 71.5991 88.7338C72.3819 90.5926 72.3781 93.1733 72.0044 96.724C72 96.7658 71.9912 96.8076 71.978 96.8481C69.9472 103.036 69.1511 106.647 69.2172 113.818C70.0543 116.839 71.2443 118.863 72.7827 120.104C74.3191 121.344 76.2669 121.855 78.7251 121.719C81.3959 121.572 83.4402 120.613 84.8471 118.889C86.2646 117.152 87.0859 114.576 87.1723 111.103L87.1733 111.075L87.1772 111.045C87.5762 108.214 87.1877 105.822 86.8139 103.585C86.4441 101.372 86.0731 99.2501 86.6313 97.1108C87.4662 93.9116 89.4831 92.0217 92.021 91.3754C94.5298 90.7366 97.4743 91.33 100.189 92.9203C102.317 94.1672 103.962 96.0122 105.633 97.5141C107.331 99.0393 109.129 100.298 111.707 100.627C113.393 100.843 114.704 100.621 115.785 100.137C116.871 99.6513 117.76 98.8862 118.579 97.9623C119.405 97.0303 120.131 95.9729 120.926 94.892C121.711 93.8254 122.554 92.7503 123.581 91.8627C125.219 90.4462 126.961 89.4406 128.822 89.0063C130.689 88.5703 132.646 88.7173 134.69 89.558C135.481 89.8833 136.159 90.3895 136.773 90.9262C137.08 91.195 137.378 91.4767 137.665 91.7514C137.955 92.0283 138.235 92.2961 138.518 92.5502C139.651 93.5678 140.727 94.2442 142.213 93.9701C143.645 93.7061 144.602 93.2057 145.364 92.4027C146.143 91.5814 146.751 90.4087 147.414 88.727C147.544 88.3956 147.632 87.7344 147.653 86.7563C147.673 85.8005 147.63 84.6065 147.538 83.2572C147.353 80.5603 146.975 77.2736 146.527 74.0883C146.079 70.9032 145.564 67.8282 145.109 65.557C144.881 64.4199 144.669 63.4936 144.492 62.8578C144.411 62.568 144.339 62.3527 144.282 62.2094H55.1538Z" fill="#CF5F11"/>
<path d="M144.815 61.7094C144.815 67.1798 142.587 80.4189 100.25 82.62C56.7988 81.5194 54.5705 67.1798 54.5705 61.7094C54.5705 56.2391 67.383 43 100.25 43C132.003 43 144.815 56.2391 144.815 61.7094Z" fill="#DA6B15"/>
<path d="M60.6989 66.7551C58.5931 62.0544 63.1041 62.8298 63.4618 62.898C63.4781 62.9011 63.491 62.9082 63.5037 62.9189C72.6145 70.5999 78.1402 73.0211 89.0926 72.2584C89.1035 72.2576 89.112 72.2579 89.1226 72.2608C89.4522 72.3509 95.7564 74.1339 90.2236 77.2105C84.544 80.3687 62.8908 71.648 60.6989 66.7551Z" fill="#EF8323"/>
<path d="M75.7392 105.542C74.5372 104.015 73.0035 104.53 71.9891 106.184C70.8483 108.045 71.432 111.687 71.432 111.687C71.432 111.687 72.1669 116.177 74.2173 116.089C75.609 116.03 76.5245 116.188 77.0027 114.896C77.4569 113.668 74.6791 111.8 74.6251 110.494C74.5536 108.763 76.816 106.909 75.7392 105.542Z" fill="#EC7E23"/>
<path d="M62.5934 62.3108C63.0711 62.3204 63.4497 62.3864 63.5553 62.4065C63.6444 62.4235 63.717 62.4587 63.7741 62.4973L63.8258 62.5364L64.6666 63.2385C68.8196 66.6718 72.2137 68.9375 75.7848 70.2873C79.5847 71.7235 83.6266 72.1382 89.0582 71.76L89.1432 71.759L89.2545 71.7785L89.6471 71.8977C89.8504 71.9644 90.1142 72.0585 90.403 72.178C90.971 72.4129 91.6806 72.7663 92.2077 73.2453C92.7372 73.7268 93.1731 74.4299 92.9108 75.2971C92.6691 76.0953 91.8719 76.8661 90.4664 77.6477C89.6619 78.095 88.6159 78.3123 87.4381 78.3684C86.2538 78.4247 84.8977 78.3193 83.445 78.091C80.5393 77.6344 77.1981 76.6764 73.9782 75.47C70.7575 74.2632 67.6395 72.8004 65.1813 71.3254C63.9526 70.5882 62.8791 69.8424 62.0377 69.1174C61.2052 68.4 60.5615 67.6706 60.2428 66.9592C59.6977 65.7424 59.537 64.7904 59.7038 64.05C59.8788 63.2732 60.3921 62.8186 60.9616 62.5774C61.51 62.3451 62.1233 62.3013 62.5934 62.3108ZM62.5729 63.3108C62.1625 63.3026 61.7119 63.3455 61.3512 63.4983C61.0115 63.6422 60.769 63.8721 60.6793 64.2698C60.5815 64.7039 60.6473 65.4179 61.1549 66.551C61.3842 67.0627 61.897 67.6761 62.6901 68.3596C63.4745 69.0356 64.497 69.7491 65.695 70.468C68.0906 71.9055 71.1522 73.3432 74.3288 74.5334C77.506 75.7239 80.7801 76.6606 83.6002 77.1037C85.0103 77.3253 86.2948 77.4215 87.3903 77.3694C88.4922 77.3169 89.3658 77.1158 89.9811 76.7737C91.3415 76.0171 91.8315 75.4111 91.9538 75.0071C92.0551 74.6719 91.9309 74.3457 91.5348 73.9856C91.1363 73.6234 90.5537 73.3225 90.0202 73.1018C89.5787 72.9192 89.2012 72.8045 89.0504 72.761C83.5678 73.1362 79.3904 72.7197 75.4303 71.2229C71.4859 69.7319 67.7973 67.1845 63.2682 63.3733C63.1284 63.3512 62.874 63.3168 62.5729 63.3108Z" fill="#EF8323"/>
<path d="M73.687 104.182C74.5784 103.987 75.4434 104.357 76.1323 105.232C76.5035 105.703 76.5793 106.223 76.5034 106.724C76.4311 107.201 76.2199 107.675 76.0073 108.104C75.7817 108.559 75.5589 108.956 75.3813 109.376C75.2075 109.788 75.1111 110.148 75.1245 110.473C75.1317 110.648 75.2414 110.909 75.4946 111.276C75.74 111.631 76.058 112.001 76.3911 112.407C76.711 112.796 77.0473 113.221 77.271 113.638C77.4894 114.046 77.6606 114.558 77.4712 115.07C77.3326 115.444 77.1501 115.747 76.9077 115.98C76.6625 116.215 76.3821 116.354 76.0874 116.437C75.8008 116.517 75.4953 116.545 75.1958 116.559C75.0446 116.566 74.8869 116.57 74.729 116.574C74.5692 116.577 74.4073 116.582 74.2388 116.589C73.5195 116.62 72.9546 116.241 72.5405 115.767C72.1293 115.297 71.8204 114.684 71.5913 114.105C71.3598 113.52 71.1965 112.938 71.0923 112.504C71.0399 112.287 71.0023 112.104 70.977 111.976C70.9644 111.912 70.955 111.861 70.9487 111.826C70.9456 111.808 70.9426 111.794 70.9409 111.785C70.9401 111.78 70.9394 111.776 70.9389 111.773V111.768L70.938 111.766V111.762C70.9376 111.76 70.9366 111.756 70.936 111.752C70.9348 111.744 70.9333 111.733 70.9311 111.718C70.9268 111.689 70.9207 111.647 70.9136 111.593C70.8992 111.485 70.8799 111.329 70.8608 111.138C70.8228 110.756 70.7844 110.226 70.7827 109.635C70.7793 108.481 70.9144 106.981 71.563 105.923C72.1074 105.035 72.8414 104.367 73.687 104.182ZM73.9009 105.159C73.4255 105.263 72.8855 105.679 72.4155 106.446C71.9234 107.248 71.7794 108.5 71.7827 109.632C71.7843 110.184 71.8202 110.68 71.8559 111.039C71.8738 111.219 71.8917 111.363 71.9048 111.461C71.9113 111.51 71.9167 111.548 71.9204 111.573C71.9222 111.585 71.9234 111.595 71.9243 111.601C71.9246 111.603 71.9253 111.606 71.9253 111.606V111.608C71.9253 111.608 71.9266 111.612 71.9272 111.616C71.9285 111.623 71.9304 111.635 71.9331 111.65C71.9385 111.68 71.9471 111.726 71.9585 111.784C71.9814 111.9 72.0164 112.068 72.0649 112.27C72.1625 112.676 72.3125 113.21 72.521 113.737C72.7318 114.269 72.9904 114.762 73.2934 115.109C73.5937 115.452 73.8899 115.603 74.1958 115.59C74.3749 115.583 74.5462 115.578 74.7046 115.575C74.8648 115.571 75.0112 115.566 75.1489 115.56C75.4273 115.547 75.642 115.523 75.8179 115.474C75.9857 115.427 76.1109 115.358 76.2153 115.258C76.3223 115.155 76.4333 114.993 76.5337 114.722C76.5712 114.62 76.5662 114.438 76.3901 114.11C76.219 113.791 75.9431 113.436 75.6186 113.041C75.3074 112.663 74.9479 112.245 74.6714 111.844C74.4029 111.455 74.1452 110.992 74.1255 110.514C74.1032 109.973 74.263 109.453 74.4595 108.988C74.6522 108.531 74.9145 108.055 75.1108 107.66C75.3202 107.237 75.4682 106.883 75.5151 106.574C75.5583 106.288 75.5133 106.063 75.3462 105.851C74.8331 105.199 74.3302 105.064 73.9009 105.159Z" fill="#EC7E23"/>
</svg>
