<svg fill="none" height="200" viewBox="0 0 234 183" width="200" xmlns="http://www.w3.org/2000/svg">
  <path
    d="M226.821 79.8883C227.023 78.0729 227.154 76.2479 227.154 74.3985C227.154 33.4265 177.516 0.21315 116.285 0.21315C55.0518 0.21315 5.41113 33.4265 5.41113 74.3985C5.41113 76.2479 5.54734 78.0729 5.74477 79.8883H226.821Z"
    fill="#FDBE10"/>
  <path
    d="M5.725 148.4C5.53797 149.836 5.41113 151.291 5.41113 152.78C5.41113 169.319 17.164 182.718 31.6629 182.718H200.903C215.404 182.718 227.154 169.319 227.154 152.78C227.154 151.291 227.03 149.836 226.846 148.4H5.725Z"
    fill="#FDBE10"/>
  <path
    d="M233.356 120.238C233.356 131.842 224.689 141.25 214 141.25H19.8122C9.1228 141.25 0.456055 131.842 0.456055 120.238C0.456055 108.63 9.1228 99.2183 19.8122 99.2183H214C224.689 99.2183 233.356 108.63 233.356 120.238Z"
    fill="#673B16"/>
  <path d="M221.377 79.8882H10.7754V93.8399H221.377V79.8882Z" fill="#E31C3A"/>
  <path d="M221.43 141.829H8.23926V149.227H41.417L69.4234 165.464L88.2859 149.227H221.43V141.829Z" fill="#FBED21"/>
  <path
    d="M221.43 92.7254H8.23926V100.123H109.399C109.076 101.253 108.889 102.423 108.889 103.635C108.889 112.013 117.001 118.808 127.004 118.808C131.916 118.808 136.359 117.168 139.621 114.51C144.567 122.395 153.764 127.705 164.317 127.705C180.096 127.705 192.888 115.868 192.888 101.26C192.888 100.876 192.844 100.501 192.827 100.123H221.43V92.7254Z"
    fill="#94B73D"/>
  <path
    d="M69.1074 45.4529C69.1074 48.4362 63.7188 50.8551 57.0668 50.8551C50.413 50.8551 45.0215 48.4362 45.0215 45.4529C45.0215 42.4692 50.413 40.0505 57.0668 40.0505C63.7188 40.0505 69.1074 42.4692 69.1074 45.4529Z"
    fill="#F1932E"/>
  <path
    d="M101.078 29.0892C101.078 32.0726 95.6872 34.4944 89.0334 34.4944C82.3839 34.4944 76.9932 32.0726 76.9932 29.0892C76.9932 26.1084 82.3839 23.6916 89.0334 23.6916C95.6872 23.6916 101.078 26.1084 101.078 29.0892Z"
    fill="#F1932E"/>
  <path
    d="M129.759 44.0853C129.759 47.069 124.368 49.4877 117.716 49.4877C111.063 49.4877 105.674 47.069 105.674 44.0853C105.674 41.1016 111.063 38.6851 117.716 38.6851C124.368 38.6851 129.759 41.1016 129.759 44.0853Z"
    fill="#F1932E"/>
  <path
    d="M160.26 30.9583C160.26 33.9417 154.869 36.3606 148.217 36.3606C141.568 36.3606 136.177 33.9417 136.177 30.9583C136.177 27.975 141.568 25.556 148.217 25.556C154.869 25.556 160.26 27.975 160.26 30.9583Z"
    fill="#F1932E"/>
  <path
    d="M183.486 49.4877C183.486 52.4713 178.095 54.8904 171.443 54.8904C164.789 54.8904 159.401 52.4713 159.401 49.4877C159.401 46.5044 164.789 44.0853 171.443 44.0853C178.095 44.0853 183.486 46.5044 183.486 49.4877Z"
    fill="#F1932E"/>
</svg>
