<svg width="200" height="200" viewBox="0 0 200 200" fill="none" xmlns="http://www.w3.org/2000/svg">
<path d="M193.864 90.0755C194.037 88.5238 194.149 86.964 194.149 85.3833C194.149 50.3645 151.723 21.9771 99.3887 21.9771C47.0527 21.9771 4.62476 50.3645 4.62476 85.3833C4.62476 86.964 4.74117 88.5238 4.90992 90.0755H193.864Z" fill="#FDBE10"/>
<path d="M4.89302 148.632C4.73317 149.86 4.62476 151.103 4.62476 152.376C4.62476 166.512 14.6699 177.964 27.0622 177.964H171.712C184.106 177.964 194.149 166.512 194.149 152.376C194.149 151.103 194.043 149.86 193.885 148.632H4.89302Z" fill="#FDBE10"/>
<path d="M199.449 124.562C199.449 134.48 192.042 142.521 182.906 142.521H16.9334C7.79712 142.521 0.389648 134.48 0.389648 124.562C0.389648 114.641 7.79712 106.597 16.9334 106.597H182.906C192.042 106.597 199.449 114.641 199.449 124.562Z" fill="#673B16"/>
<path d="M189.211 90.0754H9.2096V102H189.211V90.0754Z" fill="#E31C3A"/>
<path d="M189.256 143.016H7.04196V149.339H35.399L59.3361 163.217L75.4579 149.339H189.256V143.016Z" fill="#FBED21"/>
<path d="M189.256 101.047H7.04196V107.37H93.5033C93.2272 108.336 93.0674 109.336 93.0674 110.372C93.0674 117.532 100.001 123.34 108.55 123.34C112.749 123.34 116.546 121.938 119.334 119.667C123.561 126.406 131.422 130.944 140.442 130.944C153.928 130.944 164.861 120.827 164.861 108.342C164.861 108.014 164.824 107.693 164.809 107.37H189.256V101.047Z" fill="#94B73D"/>
<path d="M59.066 60.6435C59.066 63.1933 54.4604 65.2608 48.7749 65.2608C43.0879 65.2608 38.4798 63.1933 38.4798 60.6435C38.4798 58.0933 43.0879 56.0261 48.7749 56.0261C54.4604 56.0261 59.066 58.0933 59.066 60.6435Z" fill="#F1932E"/>
<path d="M86.3913 46.6574C86.3913 49.2073 81.7838 51.2773 76.0968 51.2773C70.4134 51.2773 65.806 49.2073 65.806 46.6574C65.806 44.1097 70.4134 42.0441 76.0968 42.0441C81.7838 42.0441 86.3913 44.1097 86.3913 46.6574Z" fill="#F1932E"/>
<path d="M110.905 59.4746C110.905 62.0248 106.297 64.092 100.612 64.092C94.9255 64.092 90.3195 62.0248 90.3195 59.4746C90.3195 56.9244 94.9255 54.8591 100.612 54.8591C106.297 54.8591 110.905 56.9244 110.905 59.4746Z" fill="#F1932E"/>
<path d="M136.974 48.255C136.974 50.8049 132.367 52.8723 126.681 52.8723C120.998 52.8723 116.39 50.8049 116.39 48.255C116.39 45.7051 120.998 43.6376 126.681 43.6376C132.367 43.6376 136.974 45.7051 136.974 48.255Z" fill="#F1932E"/>
<path d="M156.826 64.0921C156.826 66.6421 152.218 68.7097 146.532 68.7097C140.845 68.7097 136.24 66.6421 136.24 64.0921C136.24 61.5422 140.845 59.4746 146.532 59.4746C152.218 59.4746 156.826 61.5422 156.826 64.0921Z" fill="#F1932E"/>
</svg>
