<svg width="200" height="200" viewBox="0 0 200 200" fill="none" xmlns="http://www.w3.org/2000/svg">
<path d="M100 43.4395C123.375 43.4395 144.517 50.5214 159.805 61.9473C175.092 73.3731 184.5 89.119 184.5 106.469C184.5 123.818 175.092 139.564 159.805 150.99C144.517 162.416 123.375 169.498 100 169.498C76.6252 169.498 55.4828 162.416 40.1953 150.99C24.908 139.564 15.5 123.818 15.5 106.469C15.5 89.119 24.908 73.3731 40.1953 61.9473C55.4827 50.5214 76.6252 43.4395 100 43.4395Z" fill="#EEDCBE" stroke="#EEDCBE"/>
<path d="M100 38.7373C123.376 38.7373 144.519 45.7541 159.807 57.0742C175.094 68.3944 184.5 83.9934 184.5 101.179C184.5 118.364 175.094 133.963 159.807 145.283C144.519 156.603 123.376 163.62 100 163.62C76.6242 163.62 55.4809 156.603 40.1934 145.283C24.9058 133.963 15.5001 118.364 15.5 101.179C15.5 83.9934 24.9058 68.3944 40.1934 57.0742C55.4809 45.7541 76.6241 38.7373 100 38.7373Z" fill="#FFFBF2" stroke="#EEDCBE"/>
<path d="M100.506 46.9697C120.115 46.9697 137.848 52.541 150.664 61.5234C163.481 70.507 171.345 82.8703 171.345 96.4697C171.345 110.069 163.481 122.432 150.664 131.416C137.848 140.398 120.115 145.97 100.506 145.97C80.8962 145.97 63.1644 140.398 50.3484 131.416C37.5308 122.432 29.6667 110.069 29.6667 96.4697C29.6667 82.8703 37.5308 70.507 50.3484 61.5234C63.1644 52.5411 80.8962 46.9698 100.506 46.9697Z" fill="#FBEEDC" stroke="#EEDCBE"/>
<path d="M86.0389 129.426C58.9828 124.676 38.7112 103.545 45.7551 90.589C46.8697 88.3198 47.7108 87.6292 49.6716 87.6468C51.3111 87.7545 49.5994 92.2089 50.7905 94.7081C57.0343 107.809 68.2936 113.835 82.6819 114.127C95.6681 114.39 112.859 99.4464 112.895 99.4157L112.895 99.4156C112.93 99.3854 120.481 92.884 126.178 92.3663C126.275 92.3575 126.372 92.3654 126.467 92.3864C140.915 95.5828 150.292 96.5068 152.581 108.625C152.606 108.758 152.603 108.901 152.572 109.032C147.53 130.08 112.687 134.105 86.0389 129.426Z" fill="#EF7B1A" stroke="#EF7D1D" stroke-width="0.5"/>
<path d="M99.717 77.5714L70.2847 58.537C69.6194 58.1067 68.7417 58.5843 68.7417 59.3767V89.126C68.7417 89.4653 68.9137 89.7815 69.1986 89.9657L98.6309 109C99.2963 109.43 100.174 108.953 100.174 108.16V78.4111C100.174 78.0718 100.002 77.7557 99.717 77.5714Z" fill="#975B33" stroke="#975B33" stroke-width="0.5"/>
<path d="M136.895 58.9604L99.6043 77.5944C99.2654 77.7637 99.0513 78.11 99.0513 78.4889V107.607C99.0513 108.378 99.8877 108.859 100.554 108.471L137.845 86.7619C138.152 86.5828 138.342 86.2536 138.342 85.8976V59.8549C138.342 59.1116 137.56 58.6281 136.895 58.9604Z" fill="#704129" stroke="#704129" stroke-width="0.5"/>
<path d="M98.0389 77.5995L69.391 60.5611C68.6732 60.1341 68.764 59.0675 69.5436 58.7681L108.191 43.9241C108.448 43.8254 108.734 43.837 108.982 43.956L138.05 57.9009C138.813 58.2673 138.804 59.3579 138.034 59.7113L98.9673 77.6488C98.6685 77.786 98.3214 77.7675 98.0389 77.5995Z" fill="#6E3F25" stroke="#6E3F25" stroke-width="0.5"/>
<path d="M124.871 49.0164C124.871 58.4324 115.765 66.7213 105.225 66.7213C94.6858 66.7213 86.1416 59.0881 86.1416 49.6721C86.1416 40.2561 95.247 30 105.787 30C116.327 30 124.871 39.6004 124.871 49.0164Z" fill="#FBB11A"/>
<path d="M88.6443 57.508C89.3089 59.5159 90.4304 61.2948 91.9446 62.7432C93.4589 64.1916 95.9014 64.978 98.0347 65.6463C100.168 66.3147 102.516 66.5487 104.943 66.3353C107.371 66.1219 110.858 66.3104 113.21 65.2477C115.563 64.1849 117.761 62.737 119.68 60.9868C121.599 59.2366 121.316 59.2141 122.51 57.0428C123.703 54.8715 124.465 52.5898 124.751 50.3281C124.766 42.0619 119.963 37.0504 120.687 38.5163C121.412 39.9823 119.407 49.7742 111.787 56.4133C102.535 61.9816 97.4633 62.1149 88.6443 57.508Z" fill="#F3A00E"/>
<ellipse cx="104.664" cy="45.0824" rx="1.68387" ry="1.96721" fill="#F9D054"/>
<ellipse cx="113.645" cy="43.769" rx="1.68387" ry="1.96721" fill="#F9D054"/>
<ellipse cx="94.5611" cy="43.769" rx="1.68387" ry="1.96721" fill="#F9D054"/>
<ellipse cx="109.155" cy="37.2114" rx="1.68387" ry="1.96721" fill="#F9D054"/>
<ellipse cx="100.174" cy="37.2114" rx="1.68387" ry="1.96721" fill="#F9D054"/>
<ellipse cx="68.6309" cy="132.941" rx="3.03571" ry="2.94118" fill="#6E3F25"/>
<path d="M132.641 102.012C129.524 103.853 127.546 104.15 124.679 102.901C123.96 102.588 123.19 102.393 122.408 102.327C116.057 101.795 114.763 97.6617 117.055 94.6903L117.068 94.6726C117.292 94.3819 117.518 94.0895 117.702 93.7717L118.9 91.6967C119.18 91.2132 119.535 90.7755 119.97 90.4253C122.571 88.3318 124.66 87.6756 128.067 88.1432C129.475 88.3364 130.586 89.3157 131.478 90.4222C131.803 90.8264 132.14 91.1586 132.511 91.4339C133.984 92.5245 135.738 93.5706 135.948 95.3908C136.207 97.6351 135.513 99.2718 133.509 101.332C133.252 101.596 132.958 101.825 132.641 102.012Z" fill="#E0A35B" stroke="#5F2E18" stroke-width="2" stroke-linecap="round" stroke-linejoin="round"/>
<path d="M127.127 89.3174L127.451 91.9865C127.523 92.5733 128.021 93.0144 128.612 93.0144V93.0144C129.076 93.0144 129.497 92.7397 129.683 92.3144L130.276 90.9605M133.201 93.0144L132.199 94.0436C131.682 94.5747 131.003 94.9189 130.269 95.022L129.35 95.1511C128.805 95.2276 128.335 95.5741 128.102 96.0723V96.0723C127.91 96.4801 127.896 96.949 128.063 97.3676L128.701 98.9708L130.276 101.846M132.976 99.9978L131.705 99.1692C131.506 99.0395 131.348 98.857 131.247 98.642V98.642C130.956 98.0222 131.205 97.2832 131.812 96.9665L131.843 96.9502C132.137 96.7968 132.479 96.7602 132.799 96.8478L134.551 97.3277M126.227 102.052L126.58 100.276C126.642 99.9678 126.571 99.648 126.386 99.3941V99.3941C126.041 98.9226 125.393 98.7934 124.894 99.097L124.731 99.1964C124.532 99.3177 124.368 99.4894 124.256 99.6941L123.527 101.025M120.152 100.203V100.048C120.152 99.2571 120.584 98.5292 121.277 98.1493V98.1493L122.852 97.5331L123.584 97.2825C124.271 97.0473 124.845 96.5638 125.194 95.927L125.305 95.7243C125.467 95.4287 125.552 95.0971 125.552 94.7601V94.7601C125.552 94.2954 125.39 93.8451 125.095 93.4861L124.481 92.7375C124.296 92.513 124.151 92.2588 124.051 91.9858V91.9858C123.857 91.4541 123.844 90.8732 124.013 90.3329L124.202 89.7282M120.519 92.1716L122.075 93.2073C122.288 93.3496 122.457 93.5503 122.56 93.7855V93.7855C122.742 94.2013 122.702 94.6811 122.452 95.0604L122.396 95.1466C122.252 95.3647 122.056 95.5425 121.824 95.6632L121.02 96.0829C120.746 96.226 120.441 96.3007 120.131 96.3007V96.3007C119.707 96.3007 119.295 96.441 118.959 96.6998L117.427 97.8801" stroke="#FBD18A" stroke-linecap="round" stroke-linejoin="round"/>
<path d="M153.892 96.0369C150.539 101.797 146.35 105.105 143.138 102.782C139.925 100.459 141.85 93.2622 144.524 88.6673C147.199 84.0724 152.692 79.8871 155.279 81.9221C157.865 83.9572 157.244 90.2766 153.892 96.0369Z" fill="#639233"/>
<path d="M134.404 96.0369C137.756 101.797 141.945 105.105 145.158 102.782C148.371 100.459 146.446 93.2622 143.771 88.6673C141.097 84.0724 135.604 79.8871 133.017 81.9221C130.43 83.9572 131.051 90.2766 134.404 96.0369Z" fill="#639233"/>
<path d="M136.071 87.8655C135.877 87.4994 136.017 87.0456 136.383 86.8518C136.749 86.658 137.203 86.7977 137.396 87.1638L136.071 87.8655ZM144.829 102.809L144.166 103.16L136.071 87.8655L136.734 87.5146L137.396 87.1638L145.492 102.458L144.829 102.809Z" fill="#567F26"/>
<path d="M153.282 87.9973C153.476 87.6313 153.336 87.1774 152.97 86.9836C152.604 86.7898 152.15 86.9295 151.956 87.2956L153.282 87.9973ZM144.524 102.941L145.187 103.291L153.282 87.9973L152.619 87.6465L151.956 87.2956L143.861 102.59L144.524 102.941Z" fill="#567F26"/>
<ellipse cx="57.5001" cy="125.881" rx="3.03571" ry="2.94118" fill="#6E3F25"/>
</svg>
