<svg width="200" height="200" viewBox="0 0 200 200" fill="none" xmlns="http://www.w3.org/2000/svg">
<path d="M153.892 96.0371C150.539 101.797 146.35 105.105 143.138 102.782C139.925 100.459 141.85 93.2623 144.524 88.6674C147.199 84.0725 152.692 79.8872 155.279 81.9223C157.865 83.9574 157.244 90.2768 153.892 96.0371Z" fill="#639233"/>
<path d="M134.404 96.0371C137.756 101.797 141.945 105.105 145.158 102.782C148.371 100.459 146.446 93.2623 143.771 88.6674C141.097 84.0725 135.604 79.8872 133.017 81.9223C130.43 83.9574 131.051 90.2768 134.404 96.0371Z" fill="#639233"/>
<path d="M137.396 87.1638C137.202 86.7977 136.748 86.6576 136.382 86.8513C136.016 87.0451 135.877 87.4989 136.071 87.865L144.165 103.159L145.492 102.458L137.396 87.1638Z" fill="#567F26"/>
<path d="M151.956 87.2957C152.15 86.9296 152.604 86.7894 152.97 86.9832C153.336 87.1769 153.475 87.6308 153.281 87.9968L145.187 103.291L143.861 102.59L151.956 87.2957Z" fill="#567F26"/>
<path d="M185 106.469C185 141.555 146.944 169.998 100 169.998C53.0558 169.998 15 141.555 15 106.469C15 71.3825 53.0558 42.9395 100 42.9395C146.944 42.9395 185 71.3825 185 106.469Z" fill="#D4C9D4"/>
<path d="M184 106.469C184 89.3126 174.698 73.7028 159.506 62.3477C144.313 50.9924 123.277 43.9395 100 43.9395C76.7225 43.9395 55.687 50.9924 40.4941 62.3477C25.3016 73.7028 16 89.3126 16 106.469C16 123.625 25.3016 139.235 40.4941 150.59C55.687 161.945 76.7225 168.998 100 168.998V169.998C53.0558 169.998 15 141.555 15 106.469C15 71.3825 53.0558 42.9395 100 42.9395C146.944 42.9395 185 71.3825 185 106.469C185 141.555 146.944 169.998 100 169.998V168.998C123.277 168.998 144.313 161.945 159.506 150.59C174.698 139.235 184 123.625 184 106.469Z" fill="#D4C9D4"/>
<path d="M185 100.941C185 135.703 146.944 163.882 100 163.882C53.0558 163.882 15 135.703 15 100.941C15 66.1797 53.0558 38 100 38C146.944 38 185 66.1797 185 100.941Z" fill="#FFFBF2"/>
<path d="M184 100.941C184 83.9515 174.702 68.4886 159.509 57.2383C144.316 45.9882 123.279 39 100 39C76.7206 39 55.6842 45.9882 40.4912 57.2383C25.298 68.4886 16 83.9515 16 100.941C16.0001 117.931 25.2981 133.393 40.4912 144.644C55.6842 155.894 76.7204 162.883 100 162.883V163.882L98.9014 163.877C52.8292 163.445 15.5905 135.871 15.0068 101.755L15 100.941C15 66.1797 53.0558 38 100 38C146.944 38 185 66.1797 185 100.941L184.993 101.755C184.405 136.141 146.577 163.882 100 163.882V162.883C123.28 162.883 144.316 155.894 159.509 144.644C174.702 133.393 184 117.931 184 100.941Z" fill="#D4C9D4"/>
<path d="M171.845 96.4697C171.845 124.084 139.906 146.47 100.506 146.47C61.1064 146.47 29.1667 124.084 29.1667 96.4697C29.1667 68.8555 61.1064 46.4697 100.506 46.4697C139.906 46.4697 171.845 68.8555 171.845 96.4697Z" fill="#E5E2E3"/>
<path d="M170.845 96.4697C170.845 83.078 163.102 70.8525 150.377 61.9336C137.654 53.0169 120.025 47.4697 100.506 47.4697C80.9862 47.4698 63.3576 53.0169 50.6355 61.9336C37.9102 70.8525 30.1667 83.078 30.1667 96.4697C30.1667 109.861 37.9102 122.087 50.6355 131.006C63.3576 139.923 80.9862 145.47 100.506 145.47L100.506 146.47C61.1064 146.47 29.1667 124.084 29.1667 96.4697C29.1667 68.8555 61.1064 46.4697 100.506 46.4697C139.906 46.4697 171.845 68.8555 171.845 96.4697L171.839 97.1162C171.346 124.433 139.598 146.47 100.506 146.47L100.506 145.47C120.025 145.47 137.654 139.923 150.377 131.006C163.102 122.087 170.845 109.861 170.845 96.4697Z" fill="#E5E2E3"/>
<path d="M86.0389 129.426C58.9828 124.676 38.7112 103.545 45.7551 90.589C46.8697 88.3198 47.7108 87.6292 49.6716 87.6468C51.3111 87.7545 49.5994 92.2089 50.7905 94.7081C57.0343 107.809 68.2936 113.835 82.6819 114.127C95.6814 114.39 112.895 99.4157 112.895 99.4157C112.895 99.4157 120.467 92.8852 126.178 92.3663C126.275 92.3574 126.372 92.3654 126.467 92.3864C140.915 95.5828 150.292 96.5068 152.581 108.625C152.606 108.758 152.603 108.901 152.572 109.032C147.53 130.08 112.687 134.105 86.0389 129.426Z" fill="#EF7B1A"/>
<path d="M49.6812 87.3965L49.688 87.3975C49.9586 87.4152 50.1763 87.5272 50.3345 87.7197C50.4847 87.9028 50.5687 88.1423 50.6167 88.3975C50.712 88.9043 50.6856 89.5821 50.6489 90.2939C50.6116 91.0188 50.5613 91.7988 50.5933 92.5547C50.6253 93.3113 50.7394 94.0199 51.0161 94.6006C57.2126 107.602 68.3769 113.587 82.687 113.877C89.1073 114.007 96.606 110.367 102.531 106.658C105.486 104.808 108.037 102.95 109.849 101.554C110.755 100.856 111.476 100.273 111.97 99.8652C112.217 99.6616 112.408 99.5024 112.537 99.3936C112.601 99.3391 112.65 99.2965 112.682 99.2686C112.698 99.2548 112.71 99.2443 112.718 99.2373C112.722 99.2338 112.726 99.2312 112.728 99.2295L112.73 99.2275L112.732 99.2266L112.733 99.2246C112.733 99.2246 112.736 99.2233 112.738 99.2217C112.742 99.2184 112.747 99.2133 112.754 99.207C112.769 99.1944 112.791 99.1756 112.82 99.1514C112.877 99.1028 112.963 99.0319 113.073 98.9414C113.293 98.7605 113.613 98.5012 114.014 98.1895C114.817 97.5661 115.948 96.7293 117.258 95.876C119.868 94.1766 123.234 92.3828 126.155 92.1172C126.28 92.1058 126.404 92.1167 126.521 92.1426C133.721 93.7356 139.722 94.7726 144.193 96.9346C146.437 98.0198 148.309 99.3937 149.764 101.271C151.22 103.149 152.249 105.519 152.827 108.579C152.858 108.746 152.855 108.925 152.815 109.091C150.261 119.755 140.167 126.061 127.466 129.12C114.753 132.182 99.3445 132.016 85.9956 129.673C72.4194 127.289 60.5402 120.796 52.9331 113.263C49.1298 109.496 46.3852 105.46 45.0366 101.536C43.687 97.6097 43.7335 93.7843 45.5356 90.4697C46.0939 89.3345 46.6027 88.5517 47.2446 88.0615C47.8998 87.5614 48.6627 87.3874 49.6733 87.3965H49.6812ZM49.6558 87.8965C48.7135 87.8896 48.0789 88.0531 47.5474 88.459C47.0017 88.8757 46.5335 89.5703 45.979 90.6992L45.9751 90.709L45.9741 90.708C44.2543 93.8711 44.1936 97.5462 45.5093 101.374C46.8261 105.205 49.5197 109.178 53.2856 112.907C60.8174 120.366 72.6028 126.813 86.0825 129.18C99.3812 131.514 114.718 131.676 127.349 128.634C139.992 125.589 149.841 119.358 152.329 108.975C152.352 108.878 152.354 108.771 152.335 108.672C151.769 105.673 150.767 103.382 149.37 101.578C147.972 99.7747 146.167 98.4448 143.975 97.3848C139.573 95.256 133.661 94.2342 126.414 92.6309C126.341 92.6147 126.269 92.6091 126.201 92.6152C123.411 92.8687 120.135 94.5994 117.531 96.2949C116.235 97.1389 115.116 97.9677 114.321 98.585C113.923 98.8935 113.607 99.1489 113.39 99.3271C113.282 99.4163 113.198 99.4859 113.142 99.5332C113.114 99.5568 113.093 99.5749 113.079 99.5869C113.072 99.5929 113.066 99.5976 113.063 99.6006C113.061 99.6021 113.059 99.6045 113.059 99.6045L113.058 99.6055L113.055 99.6074C113.053 99.6093 113.05 99.6117 113.045 99.6152C113.037 99.6226 113.025 99.6342 113.008 99.6484C112.975 99.6771 112.925 99.7193 112.86 99.7744C112.73 99.8847 112.538 100.047 112.289 100.252C111.791 100.662 111.065 101.248 110.155 101.949C108.333 103.352 105.768 105.221 102.795 107.082C96.8638 110.795 89.2562 114.51 82.6772 114.377C68.2107 114.084 56.8559 108.015 50.5649 94.8154C50.2462 94.1466 50.1275 93.3609 50.0942 92.5762C50.061 91.7908 50.1131 90.9819 50.1499 90.2676C50.1873 89.54 50.2066 88.9269 50.1245 88.4902C50.0838 88.2739 50.0232 88.1279 49.9487 88.0371C49.8822 87.956 49.7945 87.9057 49.6558 87.8965Z" fill="#EF7D1D"/>
<path d="M99.717 77.5714L70.2847 58.537C69.6194 58.1067 68.7417 58.5843 68.7417 59.3767V89.126C68.7417 89.4653 68.9137 89.7815 69.1986 89.9657L98.6309 109C99.2963 109.43 100.174 108.953 100.174 108.16V78.4111C100.174 78.0718 100.002 77.7557 99.717 77.5714Z" fill="#975B33"/>
<path d="M68.4917 89.126V59.377C68.4917 58.3865 69.5887 57.7893 70.4204 58.3271L99.853 77.3613C100.209 77.5917 100.424 77.987 100.424 78.4111V108.16C100.424 109.151 99.3273 109.748 98.4956 109.21L69.063 90.1758C68.7069 89.9455 68.4917 89.5501 68.4917 89.126ZM68.9917 89.126C68.9917 89.3804 69.1208 89.6177 69.3345 89.7559L98.7671 108.79C99.2661 109.113 99.9243 108.754 99.9243 108.16V78.4111C99.9243 78.1567 99.7951 77.9195 99.5815 77.7812L70.1489 58.7471C69.6499 58.4243 68.9917 58.7827 68.9917 59.377V89.126Z" fill="#975B33"/>
<path d="M136.895 58.9604L99.6043 77.5944C99.2654 77.7637 99.0513 78.11 99.0513 78.4889V107.607C99.0513 108.378 99.8877 108.859 100.554 108.471L137.845 86.7619C138.152 86.5828 138.342 86.2536 138.342 85.8977V59.8549C138.342 59.1116 137.56 58.6281 136.895 58.9604Z" fill="#704129"/>
<path d="M138.091 85.8975V59.8545C138.091 59.2973 137.505 58.9346 137.006 59.1836L99.7163 77.8184C99.4621 77.9454 99.3013 78.2051 99.3013 78.4893V107.606C99.3013 108.185 99.9283 108.546 100.428 108.255L137.719 86.5459C137.95 86.4116 138.091 86.1644 138.091 85.8975ZM138.591 85.8975C138.591 86.3424 138.355 86.7537 137.97 86.9775L100.68 108.688C99.8469 109.172 98.8013 108.571 98.8013 107.606V78.4893C98.8013 78.0157 99.0691 77.5828 99.4927 77.3711L136.783 58.7363C137.614 58.3211 138.591 58.9256 138.591 59.8545V85.8975Z" fill="#704129"/>
<path d="M98.0389 77.5995L69.391 60.5611C68.6732 60.1341 68.764 59.0675 69.5436 58.7681L108.191 43.9241C108.448 43.8254 108.734 43.837 108.982 43.956L138.05 57.9009C138.813 58.2673 138.804 59.3579 138.034 59.7113L98.9673 77.6488C98.6685 77.786 98.3214 77.7675 98.0389 77.5995Z" fill="#6E3F25"/>
<path d="M108.102 43.6904C108.422 43.5673 108.78 43.5819 109.09 43.7305L138.157 57.6758C139.112 58.1338 139.101 59.4966 138.139 59.9385L99.0713 77.876C98.6979 78.0473 98.2642 78.0244 97.9111 77.8145L69.2637 60.7764C68.3664 60.2427 68.4796 58.9095 69.4541 58.5352L108.102 43.6904ZM108.874 44.1816C108.688 44.0924 108.473 44.0832 108.28 44.1572L69.6328 59.001C69.0484 59.2256 68.9807 60.0254 69.5186 60.3457L98.167 77.3848C98.3789 77.5106 98.6393 77.5247 98.8633 77.4219L137.93 59.4844C138.507 59.2193 138.514 58.4008 137.941 58.126L108.874 44.1816Z" fill="#6E3F25"/>
<path d="M124.871 49.0164C124.871 58.4324 115.765 66.7213 105.226 66.7213C94.6858 66.7213 86.1416 59.0881 86.1416 49.6721C86.1416 40.2561 95.2471 30 105.787 30C116.327 30 124.871 39.6004 124.871 49.0164Z" fill="#FBB11A"/>
<path d="M88.6443 57.508C89.3089 59.5159 90.4304 61.2948 91.9446 62.7432C93.4589 64.1916 95.9014 64.978 98.0347 65.6463C100.168 66.3147 102.516 66.5487 104.943 66.3353C107.371 66.1219 110.858 66.3104 113.21 65.2477C115.563 64.1849 117.761 62.737 119.68 60.9868C121.599 59.2366 121.316 59.2141 122.51 57.0428C123.703 54.8715 124.465 52.5898 124.751 50.3281C124.766 42.0619 119.963 37.0504 120.687 38.5163C121.412 39.9823 119.407 49.7742 111.787 56.4133C102.535 61.9816 97.4633 62.1149 88.6443 57.508Z" fill="#F3A00E"/>
<path d="M106.348 45.0824C106.348 46.1689 105.594 47.0497 104.664 47.0497C103.734 47.0497 102.98 46.1689 102.98 45.0824C102.98 43.996 103.734 43.1152 104.664 43.1152C105.594 43.1152 106.348 43.996 106.348 45.0824Z" fill="#F9D054"/>
<path d="M115.329 43.769C115.329 44.8554 114.575 45.7362 113.645 45.7362C112.715 45.7362 111.961 44.8554 111.961 43.769C111.961 42.6825 112.715 41.8018 113.645 41.8018C114.575 41.8018 115.329 42.6825 115.329 43.769Z" fill="#F9D054"/>
<path d="M96.2449 43.769C96.2449 44.8554 95.491 45.7362 94.5611 45.7362C93.6311 45.7362 92.8772 44.8554 92.8772 43.769C92.8772 42.6825 93.6311 41.8018 94.5611 41.8018C95.491 41.8018 96.2449 42.6825 96.2449 43.769Z" fill="#F9D054"/>
<path d="M110.838 37.2114C110.838 38.2978 110.085 39.1786 109.155 39.1786C108.225 39.1786 107.471 38.2978 107.471 37.2114C107.471 36.1249 108.225 35.2441 109.155 35.2441C110.085 35.2441 110.838 36.1249 110.838 37.2114Z" fill="#F9D054"/>
<path d="M101.858 37.2114C101.858 38.2978 101.104 39.1786 100.174 39.1786C99.2439 39.1786 98.49 38.2978 98.49 37.2114C98.49 36.1249 99.2439 35.2441 100.174 35.2441C101.104 35.2441 101.858 36.1249 101.858 37.2114Z" fill="#F9D054"/>
<path d="M71.6666 132.941C71.6666 134.566 70.3075 135.882 68.6309 135.882C66.9543 135.882 65.5952 134.566 65.5952 132.941C65.5952 131.317 66.9543 130 68.6309 130C70.3075 130 71.6666 131.317 71.6666 132.941Z" fill="#6E3F25"/>
<path d="M132.641 102.012C129.524 103.853 127.546 104.15 124.679 102.901C123.96 102.588 123.19 102.393 122.408 102.327C116.057 101.795 114.763 97.6617 117.055 94.6903L117.068 94.6726C117.292 94.3819 117.518 94.0895 117.702 93.7717L118.9 91.6967C119.18 91.2132 119.535 90.7755 119.97 90.4253C122.571 88.3318 124.66 87.6756 128.067 88.1432C129.475 88.3364 130.586 89.3157 131.478 90.4222C131.803 90.8264 132.14 91.1586 132.511 91.4339C133.984 92.5245 135.738 93.5706 135.948 95.3908C136.207 97.6351 135.513 99.2718 133.509 101.332C133.252 101.596 132.958 101.825 132.641 102.012Z" fill="#E0A35B"/>
<path d="M123.439 87.3633C124.886 86.9461 126.409 86.9061 128.203 87.1523C129.998 87.3987 131.317 88.6295 132.256 89.7949C132.538 90.1447 132.815 90.4136 133.106 90.6299C133.781 91.1298 134.686 91.7337 135.397 92.4189C136.135 93.13 136.8 94.0474 136.941 95.2764C137.087 96.5395 136.967 97.6844 136.501 98.8125C136.042 99.9221 135.274 100.952 134.226 102.029C133.905 102.359 133.539 102.643 133.149 102.873C131.543 103.822 130.128 104.436 128.685 104.608C127.217 104.784 125.823 104.49 124.279 103.817C123.66 103.548 122.997 103.381 122.324 103.324C118.967 103.043 116.675 101.783 115.62 99.915C114.552 98.0232 114.925 95.8143 116.263 94.0801L116.276 94.0615C116.508 93.7618 116.691 93.5219 116.836 93.2715L118.034 91.1963C118.366 90.6226 118.798 90.0852 119.343 89.6465C120.704 88.5504 121.995 87.7799 123.439 87.3633ZM127.932 89.1338C126.319 88.9125 125.093 88.9679 123.993 89.2852C122.891 89.6032 121.836 90.2068 120.597 91.2041C120.272 91.4657 119.994 91.804 119.767 92.1973L118.567 94.2715C118.345 94.6566 118.078 95.0016 117.86 95.2832L117.847 95.3008C116.893 96.5379 116.768 97.8811 117.361 98.9316C117.968 100.006 119.499 101.08 122.492 101.331C123.383 101.406 124.26 101.627 125.079 101.984C126.402 102.561 127.431 102.743 128.447 102.622C129.488 102.498 130.622 102.043 132.133 101.15C132.376 101.007 132.6 100.832 132.792 100.635C133.747 99.6528 134.329 98.8335 134.653 98.0488C134.97 97.2827 135.068 96.4868 134.955 95.5059C134.887 94.9148 134.569 94.3981 134.009 93.8584C133.422 93.2931 132.713 92.8278 131.916 92.2373C131.465 91.903 131.069 91.5083 130.699 91.0498C129.855 90.0024 128.952 89.274 127.932 89.1338Z" fill="#5F2E18"/>
<path d="M124.634 98.6698C125.355 98.2311 126.292 98.4181 126.789 99.0995C127.057 99.4663 127.159 99.9286 127.071 100.374L126.717 102.149C126.663 102.42 126.4 102.596 126.129 102.542C125.858 102.488 125.683 102.225 125.737 101.954L126.09 100.179C126.124 100.008 126.084 99.8302 125.982 99.6894C125.791 99.4277 125.431 99.3559 125.154 99.5243L124.991 99.623C124.867 99.6987 124.765 99.8066 124.695 99.9345L123.965 101.265C123.832 101.507 123.529 101.595 123.286 101.463C123.045 101.33 122.956 101.026 123.088 100.784L123.818 99.454C123.972 99.1725 124.197 98.9363 124.471 98.7694L124.634 98.6698ZM132.842 92.6659C133.035 92.4681 133.351 92.4637 133.549 92.6562C133.747 92.8488 133.751 93.1653 133.559 93.3632L132.557 94.3925C131.962 95.003 131.182 95.399 130.338 95.5175L129.419 95.6464C129.042 95.6995 128.716 95.9398 128.554 96.2851C128.421 96.5677 128.412 96.8925 128.528 97.1825L129.154 98.7577L130.715 101.606C130.847 101.848 130.758 102.152 130.516 102.285C130.274 102.417 129.97 102.329 129.837 102.087L128.263 99.2108C128.253 99.1931 128.244 99.175 128.237 99.1562L127.598 97.5526C127.38 97.0056 127.398 96.3923 127.649 95.8593C127.954 95.2084 128.568 94.7562 129.28 94.6562L130.198 94.5273C130.823 94.4396 131.4 94.146 131.84 93.6942L132.842 92.6659ZM119.653 100.203V100.048C119.653 99.0743 120.184 98.1785 121.037 97.7108L121.095 97.6835L122.67 97.0673L122.69 97.0595L123.422 96.8095C123.991 96.6147 124.466 96.2139 124.755 95.6864L124.866 95.4843C124.988 95.2623 125.052 95.0127 125.052 94.7597C125.052 94.411 124.93 94.0731 124.709 93.8036L124.094 93.0546C123.874 92.7865 123.7 92.483 123.581 92.1571C123.349 91.5222 123.333 90.8285 123.535 90.1835L123.725 89.579C123.807 89.3156 124.087 89.1687 124.351 89.2509C124.614 89.3334 124.761 89.6143 124.679 89.8778L124.489 90.4823C124.353 90.9177 124.364 91.3859 124.521 91.8144C124.601 92.0342 124.718 92.239 124.866 92.4198L125.482 93.1689C125.85 93.6173 126.052 94.1794 126.052 94.7597C126.052 95.1806 125.946 95.5956 125.743 95.9648L125.632 96.1669C125.223 96.9131 124.551 97.4802 123.746 97.7558L123.033 97.998L121.495 98.6005C120.975 98.8959 120.653 99.4481 120.653 100.048V100.203C120.653 100.479 120.429 100.703 120.153 100.703C119.876 100.703 119.653 100.479 119.653 100.203ZM131.613 96.5067C132.018 96.2951 132.489 96.2442 132.931 96.3651L134.683 96.8456C134.949 96.9187 135.105 97.1936 135.032 97.4599C134.959 97.726 134.684 97.8824 134.418 97.8095L132.666 97.33C132.468 97.2758 132.257 97.2984 132.074 97.3935L132.043 97.4101C131.674 97.6029 131.522 98.0525 131.699 98.4296C131.761 98.5603 131.858 98.671 131.979 98.7499L133.249 99.579C133.48 99.7298 133.545 100.039 133.395 100.27C133.244 100.502 132.934 100.568 132.702 100.417L131.432 99.5878C131.155 99.4073 130.935 99.1534 130.794 98.8544C130.389 97.992 130.737 96.964 131.581 96.5233L131.613 96.5067ZM120.103 91.8944C120.256 91.6647 120.566 91.6028 120.796 91.7558L122.352 92.7909C122.645 92.9863 122.876 93.2619 123.018 93.5849C123.268 94.1556 123.212 94.8141 122.87 95.3349L122.814 95.4208C122.624 95.71 122.363 95.9462 122.056 96.1064L121.251 96.5263C120.906 96.7066 120.521 96.8007 120.131 96.8007C119.818 96.8008 119.513 96.9045 119.265 97.0956L117.732 98.2763C117.513 98.4445 117.199 98.4041 117.03 98.1855C116.862 97.9667 116.904 97.6528 117.122 97.4843L118.654 96.3036C119.078 95.9777 119.597 95.8008 120.131 95.8007C120.36 95.8007 120.585 95.7453 120.788 95.6396L121.593 95.2196C121.749 95.1384 121.881 95.0188 121.978 94.872L122.034 94.786C122.191 94.5481 122.216 94.247 122.102 93.9862C122.037 93.8387 121.931 93.7122 121.797 93.623L120.241 92.5878C120.012 92.4347 119.95 92.1243 120.103 91.8944ZM127.066 88.8212C127.34 88.7878 127.59 88.9827 127.623 89.2567L127.947 91.9257C127.988 92.2614 128.273 92.5143 128.612 92.5146C128.877 92.5146 129.118 92.3573 129.225 92.1142L129.819 90.7597C129.929 90.5069 130.224 90.3921 130.477 90.5028C130.73 90.6137 130.844 90.9082 130.734 91.161L130.141 92.5146C129.875 93.1217 129.274 93.5146 128.612 93.5146C127.768 93.5143 127.057 92.8843 126.955 92.0468L126.63 89.3778C126.597 89.1039 126.792 88.8548 127.066 88.8212Z" fill="#FBD18A"/>
<path d="M96.348 76.0029C86.7151 70.5292 81.049 66.8202 70.5193 59.0584C70.4757 59.0263 70.4135 59.0339 70.3801 59.0765L69.0679 60.7522C69.0315 60.7987 69.0431 60.8664 69.0928 60.8981L86.28 71.8722C92.5182 75.9633 96.4813 79.451 100.32 77.3889L105 74.6305C101.113 76.7607 99.3219 76.7513 96.3734 76.013C96.3646 76.0108 96.3559 76.0073 96.348 76.0029Z" fill="#A95E30"/>
<path d="M70.2324 58.8711C70.3383 58.7812 70.487 58.7645 70.6094 58.8223L70.668 58.8574L72.5859 60.2656C81.9072 67.0793 87.4431 70.6535 96.4541 75.7744C97.9083 76.1375 99.0519 76.3141 100.302 76.1494C101.56 75.9836 102.949 75.4695 104.88 74.4111L105.127 74.8457L100.447 77.6045L100.438 77.6094C98.4139 78.6969 96.3685 78.3018 94.0879 77.1611C91.8209 76.0272 89.2435 74.1148 86.1455 72.083L68.958 61.1084C68.7842 60.9971 68.7438 60.7602 68.8711 60.5977L70.1836 58.9219L70.2324 58.8711ZM69.3662 60.7754L86.4141 71.6611L86.417 71.6631C89.5559 73.7217 92.0785 75.598 94.3115 76.7148C96.5304 77.8246 98.3851 78.1424 100.198 77.1699L101.467 76.4219C101.088 76.5236 100.724 76.5985 100.367 76.6455C99.0184 76.8232 97.7971 76.6276 96.3125 76.2559C96.2818 76.2482 96.252 76.2362 96.2246 76.2207C86.6173 70.7615 80.9495 67.0532 70.4873 59.3447L69.3662 60.7754Z" fill="#704129"/>
<path d="M60.5358 125.881C60.5358 127.505 59.1766 128.822 57.5001 128.822C55.8235 128.822 54.4644 127.505 54.4644 125.881C54.4644 124.256 55.8235 122.939 57.5001 122.939C59.1766 122.939 60.5358 124.256 60.5358 125.881Z" fill="#6E3F25"/>
</svg>
