<svg width="197" height="197" viewBox="0 0 197 197" fill="none" xmlns="http://www.w3.org/2000/svg">
<path d="M196.53 98.856C196.53 153.042 152.604 196.966 98.423 196.966C44.238 196.966 0.312988 153.043 0.312988 98.856C0.312988 44.672 44.239 0.744995 98.423 0.744995C152.604 0.744995 196.53 44.672 196.53 98.856Z" fill="#896E67"/>
<path d="M180.201 98.856C180.201 144.024 143.588 180.637 98.4231 180.637C53.2581 180.637 16.6421 144.024 16.6421 98.856C16.6421 53.69 53.2581 17.075 98.4231 17.075C143.588 17.075 180.201 53.69 180.201 98.856Z" fill="#C10505"/>
<path d="M158.38 98.856C158.38 131.97 131.536 158.815 98.4229 158.815C65.3089 158.815 38.4648 131.969 38.4648 98.856C38.4648 65.742 65.3089 38.898 98.4229 38.898C131.536 38.898 158.38 65.742 158.38 98.856Z" fill="#A30000"/>
<path d="M138.705 98.856C138.705 121.105 120.672 139.14 98.4231 139.14C76.1721 139.14 58.1392 121.104 58.1392 98.856C58.1392 76.607 76.1721 58.572 98.4231 58.572C120.672 58.572 138.705 76.607 138.705 98.856Z" fill="#C10505"/>
<path d="M35.5742 70.667C35.5742 109.705 108.358 104.216 129.357 78.371L113.155 49.873C82.9663 77.522 44.6072 76.376 35.5742 70.667Z" fill="#FE0002"/>
<path d="M133.779 60.79C149.057 50.467 151.449 44.756 151.449 44.756C149.367 36.991 144.352 39.1 144.352 39.1C141.652 44.466 135.162 50.946 130.581 55.127C126.3 50.119 119.453 48.073 113.154 49.874C114.108 57.678 111.669 65.85 106.469 72.532C114.865 71.478 123.139 73.565 129.356 78.371C134.102 73.897 135.853 67.014 133.779 60.79Z" fill="#548E00"/>
<path d="M76.5502 90.612C57.7982 107.994 92.8372 140.517 114.603 139.098L121.082 118.629C94.3562 116.432 77.8332 97.497 76.5502 90.612Z" fill="#FF5A27"/>
<path d="M125.016 133.395C136.778 136.142 140.584 134.747 140.584 134.747C143.385 130.29 140.146 128.82 140.146 128.82C136.366 129.913 130.359 129.68 126.313 129.34C126.812 125.055 124.745 120.852 121.082 118.631C117.756 122.564 112.741 125.028 107.22 125.507C111.464 129.071 114.138 133.972 114.604 139.1C118.863 139.389 122.949 137.163 125.016 133.395Z" fill="#548E00"/>
<path d="M71.2172 50.32C71.2172 53.932 68.2851 56.861 64.6761 56.861C61.0651 56.861 58.1392 53.932 58.1392 50.32C58.1392 46.709 61.0651 43.78 64.6761 43.78C68.2851 43.78 71.2172 46.709 71.2172 50.32Z" fill="white"/>
</svg>
