<svg width="200" height="164" viewBox="0 0 200 164" fill="none" xmlns="http://www.w3.org/2000/svg">
<path d="M199.997 108.103C200.893 177.57 25.0564 183.702 0.427891 115.505C-1.81756 97.0765 199.846 96.4149 199.997 108.103Z" fill="#EDC693"/>
<path d="M0 114.392C0 37.9881 195.955 56.8643 199.55 104.954C204.141 166.355 27.4157 173.718 0 114.392Z" fill="#F7D6A9"/>
<path d="M48.5178 111.683C48.5178 69.9893 149.099 80.2901 150.944 106.533C153.301 140.039 62.5899 144.057 48.5178 111.683Z" fill="#EBC693"/>
<path d="M60.2031 110.424C60.2031 78.6051 136.962 86.4662 138.371 106.493C140.169 132.064 70.9424 135.13 60.2031 110.424Z" fill="#DDB17B"/>
<path d="M30.5591 32.6119C28.7614 72.6118 156.402 73.5107 167.638 35.7579C173.93 -6.93827 36.4018 -15.4776 30.5591 32.6119Z" fill="#F5D1A1"/>
<path d="M41.7761 32.8091L158.18 32.8096C164.473 -0.449501 38.6301 -7.19123 41.7761 32.8091Z" fill="#E5BA85"/>
<path d="M41.7761 32.8091C53.012 59.7754 153.237 59.3264 158.18 32.8096C147.394 5.3934 49.8659 3.14557 41.7761 32.8091Z" fill="#BF7635"/>
<path fill-rule="evenodd" clip-rule="evenodd" d="M150.54 96.112C204.47 105.14 219.304 26.0673 168.068 35.056C137.956 67.865 60.6526 70.1122 30.5403 35.056C30.5403 123.707 113.479 145.953 150.54 96.112ZM156.484 86.7401C161.84 76.7897 165.575 64.9981 167.169 50.7859C201.776 39.101 186.147 91.6843 156.484 86.7401Z" fill="#EBC590"/>
</svg>
