<svg width="123" height="203" viewBox="0 0 123 203" fill="none" xmlns="http://www.w3.org/2000/svg">
<path d="M58.263 61.121C58.263 50.7477 58.4361 42.2766 58.6087 35.1982C58.7816 28.1028 58.9524 22.4612 58.9524 17.6738C58.9524 14.2265 60.8506 11.5905 63.3333 9.64839C65.7817 7.73305 69.0342 6.28814 72.4153 5.13472C79.0967 2.85543 87.4174 1.38138 92.6038 0.0761251C93.9426 -0.260719 95.3009 0.55183 95.638 1.89058C95.9749 3.22942 95.1632 4.58861 93.8245 4.92573C88.0496 6.3791 80.4887 7.66368 74.0296 9.86714C70.8404 10.9551 68.2076 12.1823 66.4133 13.5859C64.6534 14.9627 63.9524 16.2935 63.9524 17.6738C63.9524 22.5412 63.7783 28.2784 63.6067 35.3203C63.4347 42.3795 63.263 50.8052 63.263 61.121C63.263 62.5018 62.1437 63.621 60.763 63.621C59.3822 63.621 58.263 62.5018 58.263 61.121Z" fill="#893A2A"/>
<path d="M114.619 65.9491H9.66657L21.4046 192.156C22.2282 198.829 24.244 200.893 30.3808 201.811H96.6662C101.693 200.292 102.815 197.799 103.571 192.156L114.619 65.9491Z" fill="#F35645"/>
<path d="M6.75006 65.2595C2.54893 58.1199 4.08198 54.4943 6.75006 48.0181H115.154L115.231 48.123C120.081 54.7902 122.825 58.5622 115.154 65.2595H6.75006Z" fill="#FFF1DE"/>
<path d="M115.918 46.5181L116.367 47.1353L116.444 47.2408C117.643 48.8901 118.773 50.4395 119.637 51.9117C120.504 53.3882 121.173 54.8966 121.376 56.4898C121.805 59.8492 120.112 62.9221 116.141 66.3892L115.717 66.7593H5.89181L5.45724 66.0201C3.25238 62.273 2.45766 59.2781 2.67794 56.2798C2.89082 53.3832 4.05677 50.6186 5.36349 47.4468L5.74533 46.5181H115.918ZM7.75509 49.5181C6.60229 52.3349 5.8242 54.4035 5.67013 56.4995C5.51923 58.5535 5.97222 60.7521 7.62423 63.7593H114.579C117.923 60.7312 118.63 58.6655 118.401 56.8697C118.27 55.8495 117.822 54.7461 117.05 53.4312C116.355 52.2476 115.452 50.9819 114.389 49.5181H7.75509Z" fill="#FFF1DE"/>
<path d="M16.2686 139.052L13.8094 114.225H108.404L106.333 138.363L16.2686 139.052Z" fill="#FFF0E0"/>
<path d="M49.714 165.949C49.714 169.377 46.9318 172.156 43.4998 172.156C40.0677 172.156 37.2855 169.377 37.2855 165.949C37.2855 162.521 40.0677 159.742 43.4998 159.742C46.9318 159.742 49.714 162.521 49.714 165.949Z" fill="#FFF0E0"/>
<path d="M56.6188 182.501C56.6188 184.405 55.0731 185.949 53.1664 185.949C51.2597 185.949 49.714 184.405 49.714 182.501C49.714 180.596 51.2597 179.052 53.1664 179.052C55.0731 179.052 56.6188 180.596 56.6188 182.501Z" fill="#FFF0E0"/>
<path d="M100.159 148.036C100.182 148.046 100.2 148.067 100.208 148.096C100.216 148.125 100.214 148.16 100.204 148.193C100.168 148.313 100.133 148.446 100.101 148.588C100.075 148.708 100.05 148.836 100.027 148.97C99.9688 149.295 99.9419 149.542 99.9055 149.864C99.7961 149.895 99.7075 149.948 99.6545 150.056C99.6273 150.113 99.6062 150.2 99.6145 150.268C99.6219 150.33 99.6451 150.38 99.6672 150.428C99.6902 150.477 99.7121 150.524 99.7141 150.581C99.7175 150.676 99.7458 150.783 99.7795 150.872C99.7915 150.906 99.8043 150.941 99.8156 150.977C99.7998 151.253 99.7844 151.556 99.7736 151.842C99.7512 151.947 99.7314 152.045 99.7268 152.131C99.7226 152.207 99.7374 152.281 99.757 152.354C99.7557 152.399 99.7544 152.444 99.7531 152.489C99.7442 152.791 99.74 153.06 99.7356 153.35C99.6902 153.568 99.6434 153.822 99.6106 154.112C99.5961 154.241 99.5727 154.369 99.55 154.493C99.5165 154.676 99.4849 154.851 99.4895 155.008C99.4925 155.114 99.4723 155.214 99.4514 155.319C99.4235 155.459 99.3954 155.6 99.427 155.732C99.4469 155.815 99.4724 155.893 99.4963 155.965C99.5343 156.079 99.5678 156.179 99.5656 156.268C99.5617 156.434 99.5866 156.573 99.6086 156.699C99.6351 156.85 99.6576 156.977 99.6213 157.087C99.6158 157.103 99.6089 157.123 99.6008 157.144C99.5579 157.256 99.4892 157.442 99.51 157.706C99.5175 157.798 99.5436 157.886 99.5695 157.972C99.6074 158.098 99.6436 158.221 99.6193 158.35C99.6157 158.37 99.6035 158.39 99.592 158.408C99.5773 158.431 99.5646 158.451 99.5744 158.464C99.6033 158.501 99.6342 158.559 99.6682 158.623C99.6931 158.669 99.7202 158.719 99.7483 158.764C99.7508 159.111 99.7538 159.436 99.7561 159.777C99.7572 159.932 99.7581 160.088 99.759 160.245C99.7103 160.323 99.6663 160.405 99.632 160.487C99.5872 160.596 99.5689 160.739 99.5461 160.925C99.5293 161.061 99.5099 161.222 99.4748 161.408C99.4099 161.755 99.41 162.108 99.4309 162.336C99.4353 162.384 99.4403 162.432 99.4455 162.484C99.4655 162.681 99.4896 162.928 99.5109 163.395C99.5313 163.834 99.5289 164.209 99.5266 164.491C99.5254 164.635 99.5241 164.756 99.5266 164.847C99.5308 165.004 99.5334 165.196 99.5354 165.388C99.5385 165.69 99.5414 165.995 99.5529 166.168C99.557 166.229 99.5618 166.295 99.5676 166.364C99.5836 166.557 99.6037 166.79 99.6086 167.111C99.6137 167.447 99.5952 167.655 99.5637 167.871C99.5508 167.959 99.509 168.035 99.466 168.114C99.4051 168.226 99.3417 168.342 99.3537 168.503C99.3565 168.54 99.364 168.581 99.3723 168.623C99.3874 168.7 99.4042 168.784 99.3928 168.868C99.3888 168.897 99.3767 168.924 99.3654 168.949C99.3531 168.977 99.3408 169.004 99.3391 169.035C99.3325 169.151 99.3317 169.264 99.3303 169.365C99.3285 169.496 99.3265 169.606 99.3147 169.674C99.2937 169.794 99.3039 169.926 99.3137 170.06C99.3212 170.163 99.3285 170.266 99.3225 170.366C99.305 170.65 99.3166 171.045 99.3459 171.453C99.357 171.607 99.3277 171.736 99.2893 171.9C99.2654 172.002 99.2378 172.118 99.215 172.262C99.2022 172.344 99.2207 172.417 99.2375 172.483C99.2529 172.544 99.2663 172.6 99.2541 172.657C99.2433 172.707 99.2059 172.738 99.1701 172.766C99.1303 172.798 99.0924 172.828 99.0969 172.882C99.0993 172.91 99.1165 172.945 99.1359 172.987C99.1436 173.003 99.1515 173.021 99.1594 173.04C99.1522 173.039 99.1458 173.037 99.1408 173.037C99.1057 173.035 99.0844 173.088 99.0637 173.14C99.0554 173.161 99.0473 173.182 99.0383 173.199C99.0053 173.261 98.9938 173.38 98.9904 173.471C98.989 173.51 98.9769 173.545 98.9621 173.585C98.949 173.62 98.9342 173.661 98.924 173.713C98.9183 173.742 98.9062 173.764 98.8967 173.783C98.8898 173.797 98.884 173.808 98.882 173.819C98.8804 173.829 98.8907 173.836 98.9016 173.845C98.9093 173.852 98.9177 173.859 98.9231 173.868C98.9358 173.888 98.9382 173.915 98.9328 173.932C98.9303 173.94 98.9263 173.947 98.9221 173.953C98.9172 173.96 98.9126 173.967 98.9104 173.977C98.9005 174.024 98.9089 174.072 98.9182 174.12C98.9284 174.173 98.9393 174.228 98.926 174.288C98.9217 174.307 98.9127 174.327 98.9045 174.346C98.8959 174.367 98.8879 174.386 98.885 174.403C98.8733 174.472 98.8946 174.539 98.9143 174.599C98.9273 174.64 98.9393 174.678 98.9406 174.713C98.9431 174.776 98.9717 174.812 98.9924 174.839C99.003 174.852 99.0117 174.864 99.0139 174.875C99.0125 174.885 99.0107 174.895 99.009 174.905C99.0063 174.914 99.0039 174.923 99.0041 174.932V174.934C98.9935 174.99 98.9796 175.045 98.966 175.099C98.9355 175.22 98.9047 175.347 98.9094 175.478C98.9104 175.507 98.9211 175.537 98.9318 175.567C98.945 175.604 98.9588 175.642 98.9553 175.679C98.9468 175.768 98.9197 175.856 98.8938 175.943C98.8546 176.074 98.8166 176.201 98.841 176.321C98.8491 176.361 98.8647 176.4 98.8801 176.439C98.8886 176.461 98.8972 176.483 98.9045 176.505C98.8884 176.499 98.8728 176.496 98.8586 176.493C98.8293 176.486 98.8045 176.48 98.7844 176.458C98.7368 176.406 98.67 176.346 98.6184 176.348C98.6044 176.349 98.5889 176.346 98.5734 176.344C98.5346 176.337 98.495 176.331 98.4738 176.375C98.4596 176.404 98.4262 176.48 98.4524 176.532C98.4581 176.543 98.4707 176.551 98.4846 176.559C98.5094 176.574 98.5386 176.593 98.5422 176.642C98.5428 176.65 98.5438 176.66 98.5442 176.669C98.5455 176.706 98.5471 176.747 98.5666 176.763C98.5891 176.782 98.6166 176.781 98.6486 176.779C98.6906 176.776 98.7404 176.773 98.7971 176.815C98.8083 176.824 98.8114 176.838 98.8137 176.849C98.8153 176.857 98.8171 176.863 98.8205 176.864C98.8247 176.865 98.8335 176.862 98.844 176.86C98.8826 176.852 98.9495 176.839 98.9465 176.918C98.9457 176.939 98.9402 176.963 98.9358 176.985C98.9292 177.017 98.9243 177.044 98.9348 177.049C98.9387 177.05 98.943 177.051 98.9475 177.053C98.9443 177.078 98.9409 177.103 98.9377 177.129C98.9224 177.161 98.9202 177.208 98.9172 177.265C98.9165 177.279 98.9152 177.294 98.9143 177.309C98.9078 177.359 98.9013 177.409 98.8947 177.459C98.8862 177.498 98.8743 177.54 98.8567 177.584C98.8214 177.671 98.7686 177.744 98.717 177.815C98.6952 177.845 98.6735 177.876 98.6535 177.906C98.6524 177.893 98.6504 177.882 98.6477 177.873C98.6287 177.812 98.5835 177.785 98.5422 177.76C98.5149 177.743 98.4894 177.727 98.4738 177.703C98.4453 177.659 98.407 177.66 98.3791 177.661C98.3649 177.661 98.3534 177.661 98.3469 177.655C98.3417 177.65 98.34 177.64 98.3381 177.629C98.3365 177.619 98.3343 177.61 98.3303 177.603C98.2816 177.525 98.2481 177.544 98.1994 177.573C98.1726 177.589 98.141 177.608 98.0998 177.614C98.0563 177.619 98.0435 177.615 98.0295 177.575C98.0059 177.603 97.9818 177.632 97.9582 177.66C97.9586 177.672 97.9715 177.682 97.9924 177.696C98.0299 177.722 98.0386 177.796 98.0451 177.854C98.0482 177.881 98.051 177.906 98.0559 177.92C98.0755 177.975 98.1064 177.979 98.1379 177.971L98.2004 177.952C98.2103 177.95 98.2193 177.95 98.2268 177.954C98.2331 177.958 98.2402 177.954 98.2473 177.95C98.2527 177.947 98.2585 177.944 98.2639 177.944C98.3029 177.947 98.3282 177.992 98.3518 178.033C98.3652 178.057 98.3783 178.079 98.3928 178.093C98.3972 178.097 98.402 178.1 98.4065 178.103C98.413 178.108 98.4199 178.112 98.425 178.119C98.4364 178.134 98.4427 178.163 98.4494 178.194C98.4529 178.21 98.4566 178.227 98.4611 178.243C98.4671 178.264 98.4818 178.272 98.4973 178.281C98.5082 178.287 98.5197 178.294 98.5285 178.305C98.5365 178.316 98.5411 178.331 98.5442 178.347L98.5549 178.444C98.5558 178.449 98.5581 178.452 98.5617 178.453C98.5688 178.512 98.5758 178.568 98.5832 178.623C98.6199 178.9 98.6532 179.118 98.5783 179.475C98.5643 179.541 98.5585 179.613 98.5568 179.685C98.5176 179.913 98.4775 180.138 98.4358 180.359C98.3956 180.399 98.3595 180.448 98.3283 180.513C98.2701 180.634 98.2456 180.761 98.216 180.909C98.1942 181.018 98.1691 181.139 98.1262 181.276C98.0547 181.501 97.9856 181.749 97.926 182.025C97.8661 182.304 97.8061 182.588 97.76 182.827C97.736 182.951 97.6819 183.074 97.6311 183.186C97.5597 183.344 97.4955 183.48 97.5305 183.578C97.5418 183.609 97.5656 183.643 97.5881 183.678C97.6041 183.702 97.6194 183.726 97.6301 183.749C97.6147 183.8 97.5998 183.851 97.5842 183.901C97.5295 183.985 97.4606 184.116 97.469 184.256C97.4523 184.305 97.4356 184.354 97.4192 184.401C97.3844 184.5 97.3463 184.608 97.3068 184.716C97.294 184.751 97.2809 184.786 97.2678 184.821C97.2414 184.891 97.2145 184.961 97.1877 185.028C97.1763 185.057 97.1641 185.085 97.1525 185.113C97.1231 185.185 97.0943 185.255 97.0637 185.325C97.0464 185.366 97.0286 185.406 97.0109 185.446C96.9822 185.511 96.9525 185.575 96.9231 185.637C96.8754 185.738 96.8277 185.835 96.7785 185.927C96.7705 185.942 96.7581 185.954 96.7453 185.962C96.7327 185.969 96.7199 185.971 96.7092 185.967C96.6984 185.962 96.6897 185.952 96.6858 185.937C96.6818 185.923 96.6823 185.906 96.6867 185.889C96.7143 185.79 96.7418 185.688 96.7678 185.582C96.7839 185.516 96.7992 185.449 96.8147 185.381C96.8242 185.339 96.8338 185.296 96.843 185.254C96.8581 185.181 96.8718 185.109 96.8859 185.034C96.8915 185.005 96.8971 184.975 96.9025 184.945C96.9152 184.876 96.9282 184.804 96.9406 184.732V184.73C96.9467 184.695 96.9533 184.659 96.9592 184.624C96.9777 184.513 96.9947 184.402 97.009 184.301C97.0165 184.246 97.0247 184.19 97.0324 184.133C97.0367 184.101 97.041 184.068 97.0451 184.037C97.0474 184.02 97.0496 184.002 97.052 183.984C97.1075 183.565 97.1439 183.185 97.1818 182.766C97.2195 182.347 97.2452 181.966 97.2727 181.543C97.2969 181.141 97.3167 180.741 97.3361 180.321C97.444 177.753 97.4474 175.14 97.4777 172.537C97.4819 172.16 97.4863 171.787 97.4914 171.413C97.4966 171.036 97.5025 170.665 97.509 170.29C97.5109 170.176 97.5135 170.059 97.5158 169.938C97.5341 168.959 97.7513 168.027 97.7844 167.046C97.8253 165.829 97.6879 164.582 97.76 163.364C97.8323 162.144 97.9196 160.931 98.0246 159.708C98.1292 158.499 98.2513 157.265 98.3947 156.055C98.5385 154.846 98.7047 153.612 98.9094 152.406C99.0485 151.593 99.2085 150.756 99.4094 149.952C99.5025 149.576 99.5911 149.262 99.7141 148.884C99.7583 148.751 99.8034 148.625 99.8498 148.508C99.9034 148.367 99.9598 148.237 100.017 148.119C100.033 148.086 100.057 148.059 100.083 148.044C100.11 148.029 100.137 148.026 100.159 148.036ZM102.207 75.6267C102.241 75.66 102.274 75.6939 102.307 75.7273C102.327 75.7478 102.347 75.7684 102.367 75.7888C102.38 75.8015 102.392 75.8144 102.405 75.8269C102.428 75.8504 102.451 75.8744 102.474 75.8982C102.483 75.9076 102.492 75.9172 102.501 75.9265C102.522 75.9484 102.544 75.9708 102.566 75.9929L102.597 76.0252C102.628 76.0578 102.66 76.0929 102.693 76.1277C102.709 76.1456 102.726 76.1648 102.743 76.1834C102.753 76.1937 102.762 76.2045 102.772 76.2146C102.777 76.2202 102.782 76.2255 102.787 76.2312C102.907 76.3621 103.02 76.4859 103.137 76.6228C103.253 76.7574 103.363 76.8886 103.474 77.0261C103.585 77.1644 103.693 77.3002 103.799 77.4392C104.475 78.3295 105.082 79.2876 105.547 80.3416C105.613 80.4909 105.678 80.6476 105.738 80.8015C105.798 80.9562 105.854 81.1104 105.907 81.2693C105.924 81.3175 105.94 81.3669 105.956 81.4177C106.089 81.8342 106.002 82.2813 106.08 82.7048C106.177 83.2297 106.423 83.7522 106.433 84.2966C106.442 84.8357 106.41 85.3737 106.345 85.9021C106.28 86.4311 106.181 86.9525 106.061 87.4627C105.94 87.9723 105.796 88.4792 105.638 88.9715C105.53 89.3091 105.416 89.6442 105.298 89.9715C105.246 90.1165 105.193 90.2633 105.14 90.405C105.1 90.512 105.06 90.6198 105.019 90.7283C105.013 90.7433 104.998 90.7558 104.978 90.7634C104.957 90.771 104.933 90.7728 104.908 90.7683C104.884 90.7638 104.861 90.7534 104.845 90.739C104.829 90.7246 104.819 90.7072 104.82 90.6912C104.82 90.5749 104.821 90.4596 104.821 90.3455C104.82 90.2196 104.82 90.0917 104.82 89.9636C104.923 89.961 105.004 89.9467 105.046 89.9021C105.067 89.8794 105.081 89.8437 105.067 89.8132C105.054 89.7859 105.027 89.7622 105.001 89.74C104.974 89.7168 104.949 89.6946 104.943 89.6707C104.932 89.6305 104.895 89.5864 104.856 89.5408C104.842 89.5242 104.827 89.5071 104.814 89.49C104.812 89.3683 104.809 89.2478 104.806 89.1287C104.823 89.0854 104.838 89.0443 104.839 89.0076C104.84 88.975 104.823 88.9427 104.801 88.9099C104.8 88.8912 104.8 88.872 104.799 88.8533C104.796 88.7325 104.792 88.6148 104.787 88.4949C104.826 88.4059 104.865 88.3122 104.891 88.1892C104.902 88.1361 104.923 88.0851 104.943 88.0359C104.972 87.9617 104.999 87.8919 104.99 87.8279C104.985 87.7853 105.004 87.743 105.023 87.7009C105.048 87.6442 105.072 87.5882 105.038 87.531C105.017 87.4951 104.99 87.4613 104.965 87.4304C104.925 87.3811 104.89 87.3383 104.89 87.3025C104.89 87.2354 104.863 87.1753 104.838 87.1228C104.809 87.06 104.784 87.0067 104.818 86.9636C104.823 86.9571 104.829 86.9495 104.837 86.9412C104.878 86.8973 104.942 86.8263 104.915 86.7185C104.906 86.6802 104.877 86.6431 104.849 86.6072C104.808 86.5547 104.768 86.5025 104.789 86.4509C104.792 86.4433 104.805 86.4354 104.816 86.4285C104.83 86.4196 104.842 86.4114 104.832 86.406C104.802 86.3903 104.769 86.3666 104.734 86.3406C104.707 86.3215 104.68 86.3006 104.651 86.282C104.638 86.1482 104.625 86.0124 104.612 85.8787C104.605 85.8173 104.6 85.7558 104.593 85.6951C104.639 85.664 104.68 85.6316 104.711 85.5974C104.752 85.5527 104.764 85.4942 104.78 85.4197C104.791 85.3646 104.804 85.3007 104.83 85.2254C104.88 85.0851 104.861 84.943 104.828 84.8543C104.821 84.8355 104.814 84.8169 104.806 84.7966C104.775 84.7198 104.737 84.6239 104.687 84.4441C104.639 84.2735 104.615 84.1272 104.597 84.0183C104.587 83.9629 104.579 83.9165 104.57 83.8816C104.553 83.8218 104.536 83.7481 104.518 83.6746C104.49 83.5596 104.459 83.4443 104.432 83.3806C104.422 83.358 104.411 83.3337 104.399 83.3084C104.365 83.2381 104.322 83.1539 104.284 83.0349C104.245 82.9103 104.24 82.8288 104.246 82.742C104.249 82.7068 104.281 82.6694 104.314 82.6306C104.36 82.5754 104.408 82.5164 104.377 82.4588C104.37 82.4454 104.357 82.4325 104.344 82.4187C104.32 82.3935 104.294 82.3657 104.294 82.3318C104.294 82.3199 104.303 82.3068 104.311 82.2947C104.319 82.2815 104.327 82.2685 104.324 82.2566C104.316 82.2116 104.303 82.1685 104.291 82.1306C104.276 82.0818 104.263 82.0407 104.265 82.0125C104.269 81.9622 104.24 81.9152 104.212 81.8689C104.191 81.8335 104.169 81.7977 104.16 81.7595C104.136 81.65 104.065 81.5083 103.973 81.3718C103.938 81.32 103.946 81.2642 103.955 81.1922C103.961 81.1473 103.967 81.0961 103.964 81.0369C103.962 81.0031 103.934 80.9833 103.906 80.9656C103.881 80.9492 103.858 80.9342 103.86 80.9099C103.861 80.8885 103.892 80.8651 103.92 80.8425C103.952 80.8173 103.982 80.7927 103.968 80.7752C103.961 80.7659 103.939 80.7588 103.913 80.7507C103.903 80.7476 103.892 80.7448 103.881 80.741C103.888 80.7389 103.895 80.7368 103.9 80.7351C103.933 80.7234 103.943 80.6967 103.952 80.6707C103.956 80.6602 103.961 80.6497 103.966 80.6404C103.986 80.6065 103.973 80.56 103.959 80.5261C103.953 80.5118 103.959 80.4942 103.965 80.4744C103.971 80.4568 103.977 80.437 103.977 80.4148C103.976 80.4021 103.982 80.3898 103.988 80.3797C103.991 80.3723 103.995 80.3657 103.994 80.3611C103.994 80.3575 103.983 80.3584 103.972 80.3591C103.963 80.3597 103.954 80.3602 103.947 80.3591C103.932 80.3567 103.925 80.3487 103.926 80.3406L103.939 80.3152C103.939 80.2951 103.921 80.2818 103.904 80.2683C103.884 80.2534 103.863 80.2382 103.863 80.2117C103.864 80.2033 103.868 80.1924 103.871 80.1824C103.875 80.1722 103.879 80.162 103.878 80.155C103.875 80.127 103.843 80.1119 103.813 80.0984C103.793 80.0894 103.773 80.0807 103.765 80.0691C103.75 80.048 103.717 80.0467 103.693 80.0457C103.68 80.0452 103.67 80.0447 103.665 80.0418C103.664 80.0377 103.664 80.0332 103.663 80.0291C103.664 80.0248 103.664 80.0204 103.662 80.0173L103.661 80.0164C103.66 79.9926 103.661 79.9676 103.662 79.9431C103.665 79.8881 103.666 79.8335 103.634 79.7898C103.627 79.7804 103.611 79.774 103.595 79.7683C103.576 79.7615 103.556 79.7545 103.551 79.741C103.54 79.7076 103.544 79.6661 103.549 79.6257C103.556 79.5651 103.562 79.5053 103.513 79.4744C103.497 79.4642 103.474 79.4569 103.451 79.45C103.439 79.4461 103.426 79.4426 103.414 79.4382C103.43 79.4333 103.445 79.4276 103.458 79.4226C103.486 79.4123 103.51 79.4041 103.533 79.4031C103.588 79.4007 103.661 79.3927 103.707 79.3699C103.72 79.3636 103.735 79.358 103.749 79.3523C103.786 79.3379 103.823 79.3231 103.832 79.2986C103.838 79.2821 103.85 79.2402 103.815 79.2332C103.807 79.2317 103.794 79.235 103.78 79.2381C103.754 79.2435 103.723 79.2499 103.708 79.2351C103.706 79.2326 103.703 79.2293 103.7 79.2263C103.691 79.2143 103.68 79.2009 103.658 79.2039C103.634 79.2074 103.61 79.2205 103.581 79.2351C103.544 79.2543 103.5 79.277 103.44 79.2879C103.428 79.29 103.422 79.2866 103.417 79.284C103.414 79.2821 103.412 79.2809 103.408 79.282C103.405 79.2834 103.397 79.2882 103.388 79.2937C103.355 79.3132 103.298 79.3462 103.282 79.3191C103.278 79.3118 103.278 79.3016 103.277 79.2927C103.275 79.2796 103.273 79.2691 103.263 79.2722C103.259 79.2734 103.254 79.2746 103.25 79.2761C103.247 79.2664 103.244 79.2565 103.241 79.2468C103.248 79.2297 103.24 79.2133 103.229 79.1931C103.226 79.1882 103.223 79.183 103.22 79.1775C103.214 79.1582 103.208 79.1383 103.202 79.1189C103.201 79.1023 103.201 79.0833 103.206 79.0613C103.217 79.0165 103.246 78.9674 103.274 78.9197C103.285 78.8997 103.297 78.8795 103.307 78.8601C103.311 78.8639 103.316 78.8672 103.321 78.8689C103.353 78.8806 103.399 78.8693 103.442 78.8591C103.47 78.8524 103.497 78.8464 103.517 78.8474C103.553 78.8495 103.587 78.832 103.612 78.8191C103.624 78.8124 103.635 78.8073 103.642 78.8064C103.648 78.8057 103.652 78.8084 103.656 78.8113C103.66 78.8137 103.664 78.8158 103.669 78.8162C103.732 78.8211 103.757 78.7994 103.793 78.7673C103.813 78.7497 103.836 78.7287 103.871 78.7078C103.909 78.6863 103.921 78.6825 103.944 78.6902C103.957 78.6696 103.971 78.6484 103.985 78.6277C103.981 78.6239 103.967 78.6262 103.946 78.6306C103.906 78.6387 103.879 78.6167 103.859 78.5994C103.849 78.5915 103.841 78.5842 103.833 78.5818C103.792 78.5695 103.754 78.5963 103.722 78.6199C103.704 78.6329 103.687 78.6452 103.672 78.6492C103.666 78.651 103.661 78.6555 103.655 78.6599C103.652 78.6633 103.647 78.6664 103.643 78.6687C103.607 78.6859 103.573 78.6839 103.542 78.6814C103.524 78.68 103.507 78.678 103.491 78.6804L103.457 78.6873C103.443 78.6879 103.43 78.6816 103.416 78.6746C103.409 78.671 103.402 78.6669 103.394 78.6638C103.383 78.6599 103.368 78.6644 103.352 78.6687C103.341 78.6717 103.329 78.6741 103.319 78.6746C103.299 78.6754 103.287 78.6642 103.276 78.6541C103.271 78.6497 103.266 78.6454 103.261 78.6423C103.259 78.6411 103.256 78.6419 103.252 78.6433C103.231 78.6277 103.21 78.6125 103.19 78.5984C103.087 78.5284 102.995 78.4648 102.968 78.325C102.963 78.2982 102.948 78.2736 102.93 78.2507C102.902 78.1619 102.874 78.0717 102.845 77.9812C102.868 77.9485 102.884 77.9143 102.892 77.8797C102.907 77.8159 102.892 77.7662 102.873 77.7078C102.86 77.6646 102.844 77.6165 102.838 77.5535C102.828 77.448 102.808 77.3384 102.771 77.2322C102.732 77.1252 102.68 77.0048 102.639 76.9216C102.616 76.8764 102.618 76.8145 102.618 76.7566C102.621 76.6766 102.622 76.6043 102.557 76.5984C102.536 76.5965 102.504 76.6015 102.473 76.6062C102.451 76.6095 102.43 76.6123 102.413 76.6131C102.407 76.5929 102.4 76.5728 102.394 76.5525C102.406 76.5025 102.411 76.4325 102.348 76.4041C102.341 76.383 102.334 76.3621 102.327 76.3416C102.313 76.2968 102.299 76.2517 102.286 76.2088C102.282 76.1945 102.277 76.1792 102.273 76.1648C102.264 76.1359 102.255 76.1067 102.246 76.0779C102.243 76.0656 102.238 76.0531 102.235 76.0408C102.225 76.0092 102.215 75.9766 102.205 75.9451C102.2 75.9287 102.196 75.9119 102.191 75.8953C102.182 75.8679 102.174 75.8398 102.165 75.8123C102.151 75.7676 102.137 75.7225 102.123 75.6775C102.121 75.6702 102.123 75.6612 102.128 75.6521C102.133 75.6431 102.141 75.6347 102.151 75.6287C102.161 75.6226 102.172 75.6191 102.183 75.6189C102.193 75.6188 102.202 75.6214 102.207 75.6267Z" fill="white"/>
</svg>
