<svg width="200" height="142" viewBox="0 0 200 142" fill="none" xmlns="http://www.w3.org/2000/svg">
<path d="M200 77.2838C200 113.026 155.228 142 100 142C44.7715 142 0 113.026 0 77.2838C0 41.5421 44.7715 12.5677 100 12.5677C155.228 12.5677 200 41.5421 200 77.2838Z" fill="#E8C483"/>
<path d="M200 71.8909C200 107.302 155.228 136.008 100 136.008C44.7715 136.008 0 107.302 0 71.8909C0 36.4801 44.7715 7.77393 100 7.77393C155.228 7.77393 200 36.4801 200 71.8909Z" fill="#F9DCA6"/>
<path d="M184.524 67.097C184.524 95.2271 146.948 118.031 100.595 118.031C54.2428 118.031 16.6667 95.2271 16.6667 67.097C16.6667 38.967 54.2428 16.163 100.595 16.163C146.948 16.163 184.524 38.967 184.524 67.097Z" fill="#E7C280"/>
<path d="M69.0423 77.5671C69.125 80.2081 68.8702 81.8135 67.2116 84.9262C67.1801 84.9853 67.0971 84.9957 67.0495 84.9485C56.3016 74.2777 47.9929 81.1225 45.3111 92.1635C45.2938 92.2348 45.2057 92.2635 45.1486 92.2174C36.4003 85.1681 35.9512 79.9514 34.781 70.7891C34.7803 70.783 34.7789 70.7769 34.777 70.7711C34.4769 69.8376 34.0085 69.1781 33.0993 67.9756C33.0951 67.97 33.0913 67.9637 33.0883 67.9574C29.4724 60.2201 31.699 55.1832 37.0042 46.0014C37.0119 45.9882 37.0166 45.9729 37.0176 45.9577C37.4347 39.9422 37.9078 36.4497 45.4077 27.1664C53.0475 19.3904 57.9933 16.418 69.3074 16.4094C69.3193 16.4094 69.3318 16.4072 69.343 16.403C78.3599 13.0212 83.3996 12.03 92.2175 15.6085C92.2272 15.6124 92.2366 15.618 92.2446 15.6247C101.237 23.1611 103.914 28.8275 102.15 42.8365C102.149 42.8423 102.148 42.8483 102.146 42.8539C100.519 48.1073 98.5407 50.3361 92.4743 52.5325C92.4452 52.543 92.4216 52.5674 92.412 52.5969C89.8823 60.4122 86.3514 63.4222 77.9973 67.3885C77.9713 67.4008 77.9511 67.4246 77.9432 67.4522C76.4353 72.6695 74.2335 74.7057 69.0957 77.4747C69.0622 77.4927 69.0411 77.5291 69.0423 77.5671Z" fill="#F1A127"/>
<path d="M55.7646 18.4236C59.4442 16.6723 63.5704 15.9197 69.2349 15.9092C73.7163 14.2307 77.272 13.1242 80.8227 12.8971C84.4059 12.6678 87.9467 13.3357 92.4053 15.145C92.4629 15.1684 92.5179 15.2009 92.5661 15.2414C97.0862 19.0298 100.08 22.3972 101.698 26.6247C103.314 30.8477 103.532 35.8637 102.646 42.8993C102.642 42.9338 102.634 42.9686 102.623 43.0021C101.8 45.6609 100.869 47.6188 99.3327 49.1893C97.83 50.7253 95.7886 51.8479 92.8253 52.9357C91.5557 56.7958 90.0206 59.53 87.7409 61.7914C85.465 64.0491 82.4775 65.8046 78.3718 67.7624C77.6123 70.3298 76.666 72.1727 75.2489 73.7192C73.8496 75.2463 72.0184 76.4523 69.5477 77.7958C69.5768 79.0279 69.5247 80.0743 69.2668 81.1828C68.9926 82.3616 68.4934 83.5846 67.6529 85.1618C67.4552 85.5324 66.9697 85.5733 66.6975 85.3036C61.4016 80.0457 56.8567 79.2344 53.3679 80.8667C49.8131 82.5301 47.123 86.8228 45.7971 92.2813C45.6907 92.7194 45.1688 92.8757 44.8347 92.6065C40.4131 89.0436 38.0517 85.9125 36.6598 82.4838C35.2818 79.0893 34.8689 75.4315 34.2894 70.8915C34.0185 70.0668 33.602 69.4697 32.7004 68.2773C32.6749 68.2436 32.6528 68.2071 32.635 68.1691C30.7861 64.2128 30.418 60.9058 31.2135 57.4101C31.996 53.9714 33.9004 50.3758 36.5249 45.8302C36.7321 42.86 36.9652 40.436 38.0923 37.6023C39.2275 34.7483 41.2567 31.5087 45.0186 26.8523L45.0335 26.8334L45.0509 26.8156C48.8811 22.9171 52.0775 20.1785 55.7646 18.4236ZM69.3081 16.9093C63.6956 16.9135 59.7103 17.6527 56.1941 19.3263C52.6747 21.0015 49.5821 23.6325 45.7797 27.5013C42.0529 32.1164 40.1 35.2593 39.021 37.9721C37.944 40.6798 37.7244 42.9895 37.5162 45.9923C37.5098 46.0836 37.4826 46.1729 37.4371 46.2517C34.78 50.8503 32.9367 54.3427 32.1882 57.6323C31.4505 60.8743 31.7725 63.9451 33.5245 67.7093C34.413 68.885 34.9266 69.603 35.253 70.6179C35.2644 70.6535 35.2721 70.69 35.2766 70.7257C35.8646 75.3297 36.2638 78.8504 37.5859 82.1074C38.8484 85.2173 40.9689 88.1123 44.9807 91.4321C46.3892 86.1241 49.1325 81.7444 52.9436 79.9611C56.8715 78.1232 61.7135 79.1328 67.0147 84.2197C67.6808 82.917 68.0714 81.9071 68.2926 80.9563C68.5392 79.8963 68.5828 78.8838 68.542 77.5828C68.5349 77.3543 68.659 77.1419 68.8579 77.0346C71.415 75.6564 73.1889 74.4872 74.5114 73.044C75.8252 71.6101 76.7233 69.8734 77.4632 67.3136L77.5106 67.1955C77.5708 67.0837 77.6656 66.9921 77.7822 66.9367C81.9476 64.9591 84.8557 63.2446 87.0365 61.0813C89.2068 58.9284 90.6877 56.3001 91.9362 52.4433L91.9613 52.3781C92.0281 52.2321 92.1516 52.1174 92.3036 52.0624C95.3085 50.9744 97.2381 49.8992 98.6174 48.4894C99.9868 47.0894 100.856 45.3159 101.657 42.7405C102.53 35.7853 102.291 30.9723 100.764 26.9821C99.2415 23.0041 96.4148 19.7786 91.97 16.0474C87.6394 14.2968 84.2662 13.6781 80.8865 13.8943C77.4767 14.1125 74.022 15.1822 69.5187 16.8711C69.4512 16.8964 69.3795 16.9092 69.3081 16.9093Z" fill="#F1A127"/>
<path d="M54.5514 81.0558C49.0993 82.4678 47.0507 85.3048 44.5014 91.4904C44.4813 91.539 44.5006 91.5948 44.5457 91.6218C45.9302 92.4505 47.9586 97.252 54.0637 99.7362C60.2879 102.269 65.1344 101.482 68.1847 96.655C70.6757 92.7134 68.8305 90.0228 67.7352 84.5134C67.7316 84.4952 67.7227 84.4778 67.71 84.4642C63.9506 80.4278 59.6373 79.7385 54.5514 81.0558Z" fill="#E9901C"/>
<path d="M48.0686 84.1459C49.6597 82.4006 51.6275 81.2964 54.4256 80.5717C57.0203 79.8997 59.4561 79.7297 61.7421 80.2658C64.0344 80.8034 66.1377 82.0424 68.0763 84.1238C68.1527 84.2059 68.2037 84.3077 68.2252 84.4157C68.4956 85.7752 68.8124 86.9631 69.1009 88.0533C69.3876 89.1366 69.6511 90.1381 69.7992 91.0955C70.1015 93.0488 69.9278 94.8335 68.6078 96.9222C67.0196 99.4352 64.9356 100.931 62.4143 101.445C59.9117 101.955 57.0386 101.487 53.875 100.199C50.7313 98.9201 48.6381 97.0432 47.1615 95.3914C46.4271 94.5698 45.8399 93.7965 45.3668 93.2C45.1275 92.8983 44.9206 92.6469 44.735 92.4468C44.5464 92.2435 44.4018 92.1182 44.2894 92.0509C44.0374 91.9 43.9224 91.5835 44.039 91.3002L44.5141 90.1734C45.6168 87.6276 46.6904 85.6577 48.0686 84.1459ZM54.6774 81.54C52.0239 82.2273 50.2409 83.2473 48.8076 84.8196C47.4029 86.3604 46.3059 88.4608 45.0822 91.3967C45.2144 91.5069 45.3438 91.6322 45.4684 91.7664C45.6824 91.9972 45.9092 92.2759 46.15 92.5795C46.6374 93.1939 47.1984 93.9322 47.9073 94.7252C49.3172 96.3023 51.2906 98.0686 54.2518 99.2736C57.3124 100.519 59.9754 100.923 62.2147 100.466C64.435 100.013 66.2996 98.7017 67.7617 96.3883C68.9326 94.5355 69.0819 93.0031 68.8104 91.2484C68.6717 90.352 68.4241 89.4017 68.1347 88.3081C67.855 87.2515 67.541 86.0728 67.2689 84.7262C65.4699 82.8203 63.5618 81.7194 61.5145 81.2392C59.4326 80.7509 57.1684 80.8949 54.6774 81.54Z" fill="#E9901C"/>
<path d="M105.621 41.6522C108.446 29.471 105.956 24.1178 98.3905 16.0298C98.3213 15.9558 98.3895 15.834 98.4872 15.8609C106.177 17.9795 115.494 19.7326 117.95 28.6401C119.779 35.2714 115.117 37.9899 105.758 41.7701C105.683 41.8005 105.603 41.7312 105.621 41.6522Z" fill="#E28315"/>
<path d="M97.9412 15.6608C98.0432 15.4808 98.2557 15.3365 98.5088 15.3587L98.6199 15.3785L101.555 16.1689C104.549 16.975 107.666 17.8741 110.407 19.2584C114.089 21.1177 117.156 23.879 118.432 28.5076C118.906 30.226 118.971 31.7317 118.617 33.0845C118.262 34.4403 117.498 35.598 116.392 36.6384C114.206 38.6943 110.61 40.3495 105.945 42.2334C105.485 42.4192 105.027 42.0024 105.134 41.5391L105.382 40.4256C106.54 34.9591 106.529 30.9739 105.425 27.4556C104.245 23.6949 101.796 20.4022 98.0253 16.3711C97.8227 16.1545 97.8268 15.8624 97.9412 15.6608ZM99.687 16.7018C102.974 20.3277 105.234 23.5086 106.379 27.1562C107.58 30.9834 107.534 35.2629 106.274 41.0176C110.607 39.2452 113.782 37.7193 115.707 35.9098C116.707 34.9693 117.351 33.968 117.648 32.831C117.947 31.6911 117.908 30.3703 117.468 28.7733C116.288 24.4945 113.469 21.9248 109.956 20.151C106.818 18.5666 103.176 17.6366 99.687 16.7018Z" fill="#E28315"/>
<path d="M98.3483 15.6903L92.1999 15.1859C102.036 23.8768 105.436 30.1244 102.336 43.0219L105.848 41.7445C107.478 30.5944 105.687 24.9013 98.3483 15.6903Z" fill="#D2710D"/>
<path d="M98.3892 15.1924L98.6044 15.2097L98.7398 15.3787C102.425 20.0039 104.753 23.7902 105.941 27.85C107.13 31.9143 107.163 36.205 106.343 41.8168L106.299 42.1121L101.633 43.8097L101.85 42.9046C103.386 36.5143 103.294 31.8415 101.654 27.7105C100.007 23.5639 96.7728 19.894 91.8688 15.5609L90.7422 14.5648L98.3892 15.1924ZM93.6363 15.8054C97.9704 19.7561 100.98 23.3032 102.584 27.342C104.246 31.527 104.375 36.1751 103.029 42.2378L105.394 41.3774C106.159 35.9866 106.095 31.9338 104.982 28.1303C103.861 24.3008 101.664 20.6778 98.0895 16.1702L93.6363 15.8054Z" fill="#D2710D"/>
<path d="M73.6104 15.0956L70.6843 16.1601C87.0279 24.9561 91.5294 33.5356 93.2007 52.513L97.0769 50.4176C95.0184 27.8506 88.9775 21.2244 73.6104 15.0956Z" fill="#D3730F"/>
<path d="M73.6188 14.5605L73.7953 14.6314C81.509 17.7078 86.9707 20.9416 90.7432 26.3044C94.5082 31.6568 96.5428 39.0626 97.5744 50.3723L97.6047 50.7011L92.7695 53.3143L92.7027 52.5571C91.8691 43.0917 90.3338 36.2937 87.0159 30.7758C83.703 25.2664 78.5779 20.9762 70.4477 16.6005L69.4652 16.0715L73.6188 14.5605ZM71.8943 16.252C79.5555 20.4954 84.5695 24.7672 87.8731 30.2613C91.2179 35.8241 92.773 42.5863 93.6262 51.714L96.5474 50.1349C95.5114 39.0658 93.5023 31.9638 89.9257 26.8793C86.3489 21.7946 81.1582 18.6617 73.6003 15.6313L71.8943 16.252Z" fill="#D97711"/>
<path d="M37.7824 40.4648L37.3489 44.7343C41.5766 41.6 49.3493 43.1092 50.7403 43.2892C52.1313 43.4691 59.6701 44.1517 66.9963 49.7107C74.3226 55.2697 76.793 58.9695 78.7295 67.3716L80.85 65.9149C80.0443 60.6242 77.6938 58.0393 74.0262 52.6357C69.3182 45.6992 64.7529 42.5264 56.5925 41.1602C48.72 39.8422 37.7824 40.4648 37.7824 40.4648Z" fill="#CD660A"/>
<path d="M37.7536 39.9661L37.7563 39.9651C37.7577 39.965 37.7598 39.9651 37.7625 39.9649C37.768 39.9646 37.7762 39.9639 37.7869 39.9633C37.8082 39.9622 37.8397 39.9614 37.881 39.9592C37.9639 39.9549 38.0864 39.9486 38.2444 39.9413C38.5609 39.9268 39.0215 39.9074 39.5981 39.8884C40.751 39.8505 42.3699 39.8137 44.2359 39.8182C47.9625 39.8274 52.6979 40.0019 56.6748 40.6677C60.8039 41.359 64.0572 42.5129 66.8811 44.3932C69.7028 46.2721 72.0638 48.8549 74.4396 52.3553C78.0722 57.7073 80.517 60.4078 81.3443 65.8394L81.3917 66.1495L81.1331 66.3268L78.4072 68.1996L78.242 67.4834C77.2804 63.3112 76.1959 60.3512 74.4676 57.7519C72.7374 55.1499 70.339 52.8751 66.6938 50.1092C59.4813 44.6366 52.0609 43.9642 50.6763 43.7851C49.9522 43.6915 47.7108 43.2763 45.1067 43.2684C42.4879 43.2606 39.6263 43.669 37.6471 45.1363L36.7368 45.8103L37.3279 39.99L37.7536 39.9661ZM37.9509 43.7559C40.0915 42.5699 42.7778 42.2617 45.1095 42.2688C47.7964 42.2769 50.1376 42.7066 50.8045 42.7929C52.2021 42.9737 59.8586 43.6673 67.2985 49.3125C70.9796 52.1056 73.4795 54.4604 75.3002 57.1986C77.0185 59.7829 78.1107 62.6784 79.0471 66.5463L80.305 65.6824C79.4784 60.7402 77.2398 58.2615 73.6119 52.9162C71.2798 49.4803 69.0046 47.0087 66.3268 45.2256C63.6509 43.4438 60.5413 42.3284 56.51 41.6535C52.6145 41.0014 47.9445 40.8276 44.2343 40.8185C42.3823 40.814 40.7752 40.8498 39.6314 40.8874C39.0596 40.9062 38.6035 40.9253 38.291 40.9397C38.2721 40.9405 38.2536 40.9412 38.2358 40.9421L37.9509 43.7559Z" fill="#D3730F"/>
<path d="M32.8404 66.9331L34.5274 69.7458C40.2778 64.1381 45.7113 63.7987 58.097 67.1317C63.348 68.9216 66.0249 70.7696 69.7472 77.2848L71.2825 76.0409C68.9081 71.3628 69.6218 71.0335 65.7807 66.3924C59.7489 61.8713 55.9017 60.9715 48.5746 61.0017C39.8509 61.9413 36.137 61.7782 32.8404 66.9331Z" fill="#CD660A"/>
<path d="M32.4191 66.6638C34.1292 63.9897 35.9786 62.664 38.5296 61.9073C41.018 61.1693 44.2021 60.9699 48.5209 60.5047L48.5468 60.5016L48.5728 60.5015C52.253 60.4863 55.1046 60.7037 57.8066 61.511C60.3441 62.2691 62.7201 63.5384 65.5158 65.5744L66.0807 65.9924L66.128 66.0282L66.1663 66.0735C70.0537 70.7705 69.4021 71.2305 71.7287 75.8144L71.911 76.1752L69.6046 78.0441L69.3134 77.5327C67.4658 74.2988 65.9001 72.2657 64.174 70.8198C62.4562 69.3809 60.5467 68.496 57.9558 67.6117C51.7756 65.9492 47.4004 65.2247 43.8748 65.5837C40.384 65.9392 37.6884 67.3621 34.8765 70.1042L34.4239 70.5453L32.2524 66.925L32.4191 66.6638ZM38.8142 62.8658C36.585 63.5271 34.9671 64.6411 33.4313 66.9461L34.6346 68.9546C37.4193 66.3658 40.2079 64.9518 43.7734 64.5887C47.4964 64.2096 52.0274 64.9804 58.2266 66.6486L58.2428 66.6531L58.2584 66.6589C60.9082 67.5621 62.9572 68.4954 64.8166 70.053C66.5744 71.5254 68.1329 73.5312 69.8858 76.5274L70.6566 75.9041C68.4609 71.4954 69.0872 71.1797 65.4315 66.7554C62.4671 64.5389 60.063 63.2289 57.5205 62.4692C54.9635 61.7053 52.2325 61.4872 48.5949 61.5014C44.2081 61.9732 41.1819 62.1636 38.8142 62.8658Z" fill="#D3730F"/>
<path d="M132.376 96.4466C132.458 99.0876 132.204 100.693 130.545 103.806C130.513 103.865 130.43 103.875 130.383 103.828C119.635 93.1573 111.326 100.002 108.644 111.043C108.627 111.114 108.539 111.143 108.482 111.097C99.7336 104.048 99.2845 98.8309 98.1144 89.6686C98.1136 89.6626 98.1122 89.6564 98.1104 89.6507C97.8102 88.7172 97.3418 88.0576 96.4326 86.8552C96.4284 86.8496 96.4246 86.8433 96.4216 86.8369C92.8057 79.0997 95.0323 74.0628 100.338 64.8809C100.345 64.8678 100.35 64.8524 100.351 64.8372C100.768 58.8218 101.241 55.3293 108.741 46.046C116.381 38.27 121.327 35.2975 132.641 35.289C132.653 35.289 132.665 35.2867 132.676 35.2825C141.693 31.9008 146.733 30.9095 155.551 34.488C155.561 34.4919 155.57 34.4976 155.578 34.5043C164.57 42.0406 167.247 47.7071 165.483 61.716C165.482 61.7218 165.481 61.7278 165.479 61.7334C163.852 66.9868 161.874 69.2156 155.808 71.412C155.779 71.4226 155.755 71.447 155.745 71.4764C153.216 79.2917 149.685 82.3018 141.331 86.2681C141.305 86.2804 141.284 86.3042 141.277 86.3317C139.769 91.549 137.567 93.5852 132.429 96.3542C132.396 96.3723 132.374 96.4087 132.376 96.4466Z" fill="#F1A127"/>
<path d="M119.098 37.3032C122.778 35.5518 126.904 34.7993 132.568 34.7887C137.05 33.1103 140.605 32.0038 144.156 31.7766C147.739 31.5474 151.28 32.2152 155.739 34.0246C155.796 34.048 155.851 34.0805 155.899 34.1209C160.42 37.9093 163.413 41.2767 165.031 45.5042C166.647 49.7272 166.865 54.7432 165.979 61.7788C165.975 61.8134 165.967 61.8481 165.957 61.8817C165.133 64.5404 164.202 66.4984 162.666 68.0689C161.163 69.6048 159.122 70.7274 156.159 71.8152C154.889 75.6754 153.354 78.4095 151.074 80.671C148.798 82.9286 145.811 84.6842 141.705 86.642C140.946 89.2094 139.999 91.0522 138.582 92.5988C137.183 94.1258 135.352 95.3319 132.881 96.6753C132.91 97.9075 132.858 98.9538 132.6 100.062C132.326 101.241 131.827 102.464 130.986 104.041C130.788 104.412 130.303 104.453 130.031 104.183C124.735 98.9252 120.19 98.114 116.701 99.7462C113.146 101.41 110.456 105.702 109.13 111.161C109.024 111.599 108.502 111.755 108.168 111.486C103.746 107.923 101.385 104.792 99.9931 101.363C98.6151 97.9689 98.2023 94.3111 97.6228 89.7711C97.3518 88.9464 96.9353 88.3492 96.0337 87.1568C96.0082 87.1232 95.9861 87.0867 95.9683 87.0486C94.1194 83.0923 93.7513 79.7854 94.5468 76.2897C95.3293 72.851 97.2337 69.2554 99.8582 64.7097C100.065 61.7396 100.299 59.3155 101.426 56.4818C102.561 53.6279 104.59 50.3883 108.352 45.7318L108.367 45.7129L108.384 45.6951C112.214 41.7967 115.411 39.0581 119.098 37.3032ZM132.641 35.7888C127.029 35.7931 123.044 36.5322 119.527 38.2058C116.008 39.881 112.915 42.5121 109.113 46.3808C105.386 50.996 103.433 54.1389 102.354 56.8517C101.277 59.5594 101.058 61.869 100.85 64.8718C100.843 64.9632 100.816 65.0525 100.77 65.1313C98.1134 69.7298 96.2701 73.2223 95.5215 76.5118C94.7838 79.7538 95.1058 82.8246 96.8579 86.5889C97.7463 87.7646 98.2599 88.4826 98.5863 89.4974C98.5978 89.5331 98.6054 89.5695 98.61 89.6052C99.198 94.2092 99.5971 97.7299 100.919 100.987C102.182 104.097 104.302 106.992 108.314 110.312C109.723 105.004 112.466 100.624 116.277 98.8406C120.205 97.0027 125.047 98.0123 130.348 103.099C131.014 101.797 131.405 100.787 131.626 99.8358C131.873 98.7758 131.916 97.7634 131.875 96.4623C131.868 96.2338 131.992 96.0214 132.191 95.9141C134.748 94.5359 136.522 93.3667 137.845 91.9235C139.159 90.4896 140.057 88.753 140.797 86.1931L140.844 86.0751C140.904 85.9633 140.999 85.8716 141.116 85.8162C145.281 83.8386 148.189 82.1241 150.37 79.9608C152.54 77.8079 154.021 75.1796 155.27 71.3229L155.295 71.2576C155.361 71.1116 155.485 70.997 155.637 70.9419C158.642 69.8539 160.571 68.7787 161.951 67.3689C163.32 65.969 164.19 64.1954 164.99 61.6201C165.863 54.6649 165.624 49.8518 164.097 45.8617C162.575 41.8837 159.748 38.6582 155.303 34.927C150.973 33.1763 147.6 32.5576 144.22 32.7738C140.81 32.992 137.355 34.0617 132.852 35.7507C132.785 35.776 132.713 35.7887 132.641 35.7888Z" fill="#F1A127"/>
<path d="M117.885 99.9353C112.433 101.347 110.384 104.184 107.835 110.37C107.815 110.419 107.834 110.474 107.879 110.501C109.263 111.33 111.292 116.132 117.397 118.616C123.621 121.149 128.468 120.361 131.518 115.535C134.009 111.593 132.164 108.902 131.069 103.393C131.065 103.375 131.056 103.357 131.043 103.344C127.284 99.3073 122.971 98.6181 117.885 99.9353Z" fill="#E9901C"/>
<path d="M111.402 103.025C112.993 101.28 114.961 100.176 117.759 99.4512C120.354 98.7792 122.789 98.6093 125.075 99.1454C127.368 99.683 129.471 100.922 131.41 103.003C131.486 103.085 131.537 103.187 131.559 103.295C131.829 104.655 132.146 105.843 132.434 106.933C132.721 108.016 132.984 109.018 133.133 109.975C133.435 111.928 133.261 113.713 131.941 115.802C130.353 118.315 128.269 119.81 125.748 120.324C123.245 120.835 120.372 120.366 117.208 119.079C114.065 117.8 111.971 115.923 110.495 114.271C109.76 113.449 109.173 112.676 108.7 112.08C108.461 111.778 108.254 111.526 108.068 111.326C107.88 111.123 107.735 110.998 107.623 110.93C107.371 110.78 107.256 110.463 107.372 110.18L107.847 109.053C108.95 106.507 110.024 104.537 111.402 103.025ZM118.011 100.42C115.357 101.107 113.574 102.127 112.141 103.699C110.736 105.24 109.639 107.34 108.416 110.276C108.548 110.386 108.677 110.512 108.802 110.646C109.016 110.877 109.243 111.155 109.483 111.459C109.971 112.073 110.532 112.812 111.241 113.605C112.65 115.182 114.624 116.948 117.585 118.153C120.646 119.398 123.309 119.802 125.548 119.345C127.768 118.893 129.633 117.581 131.095 115.268C132.266 113.415 132.415 111.883 132.144 110.128C132.005 109.232 131.757 108.281 131.468 107.188C131.188 106.131 130.874 104.952 130.602 103.606C128.803 101.7 126.895 100.599 124.848 100.119C122.766 99.6305 120.502 99.7745 118.011 100.42Z" fill="#E9901C"/>
<path d="M168.955 60.5318C171.779 48.3506 169.29 42.9973 161.724 34.9093C161.655 34.8353 161.723 34.7136 161.82 34.7405C169.511 36.859 178.828 38.6122 181.283 47.5197C183.112 54.1509 178.45 56.8694 169.091 60.6497C169.016 60.68 168.936 60.6107 168.955 60.5318Z" fill="#E28315"/>
<path d="M161.275 34.5403C161.377 34.3604 161.589 34.216 161.842 34.2382L161.953 34.258L164.888 35.0484C167.882 35.8545 170.999 36.7537 173.74 38.1379C177.423 39.9972 180.489 42.7585 181.766 47.3872C182.239 49.1055 182.304 50.6112 181.95 51.9641C181.595 53.3198 180.832 54.4776 179.725 55.518C177.539 57.5738 173.943 59.2291 169.279 61.113C168.819 61.2987 168.36 60.882 168.468 60.4187L168.715 59.3052C169.873 53.8387 169.862 49.8535 168.758 46.3351C167.578 42.5745 165.129 39.2818 161.359 35.2506C161.156 35.034 161.16 34.7419 161.275 34.5403ZM163.02 35.5814C166.307 39.2072 168.568 42.3881 169.712 46.0358C170.913 49.863 170.867 54.1424 169.607 59.8972C173.94 58.1247 177.116 56.5989 179.04 54.7894C180.04 53.8488 180.684 52.8475 180.982 51.7106C181.28 50.5707 181.242 49.2499 180.801 47.6528C179.621 43.374 176.802 40.8043 173.289 39.0306C170.151 37.4462 166.51 36.5162 163.02 35.5814Z" fill="#E28315"/>
<path d="M161.682 34.5699L155.533 34.0654C165.369 42.7563 168.769 49.0039 165.67 61.9014L169.181 60.6241C170.811 49.474 169.02 43.7809 161.682 34.5699Z" fill="#D2710D"/>
<path d="M161.723 34.0719L161.938 34.0893L162.073 34.2583C165.758 38.8835 168.086 42.6697 169.274 46.7295C170.463 50.7939 170.497 55.0846 169.676 60.6964L169.633 60.9916L164.966 62.6893L165.183 61.7842C166.719 55.3938 166.628 50.7211 164.987 46.59C163.34 42.4435 160.106 38.7736 155.202 34.4405L154.076 33.4443L161.723 34.0719ZM156.97 34.6849C161.304 38.6356 164.313 42.1827 165.917 46.2215C167.579 50.4065 167.708 55.0547 166.362 61.1173L168.727 60.257C169.492 54.8662 169.428 50.8133 168.315 47.0098C167.194 43.1803 164.997 39.5573 161.423 35.0497L156.97 34.6849Z" fill="#D2710D"/>
<path d="M136.944 33.9751L134.018 35.0396C150.361 43.8357 154.863 52.4151 156.534 71.3926L160.41 69.2972C158.352 46.7301 152.311 40.1039 136.944 33.9751Z" fill="#D3730F"/>
<path d="M136.952 33.44L137.129 33.5109C144.842 36.5873 150.304 39.8212 154.076 45.184C157.842 50.5364 159.876 57.9421 160.908 69.2518L160.938 69.5806L156.103 72.1938L156.036 71.4367C155.202 61.9712 153.667 55.1732 150.349 49.6553C147.036 44.1459 141.911 39.8557 133.781 35.4801L132.799 34.9511L136.952 33.44ZM135.228 35.1315C142.889 39.375 147.903 43.6467 151.206 49.1409C154.551 54.7036 156.106 61.4659 156.96 70.5936L159.881 69.0144C158.845 57.9453 156.836 50.8434 153.259 45.7588C149.682 40.6741 144.492 37.5413 136.934 34.5109L135.228 35.1315Z" fill="#D97711"/>
<path d="M101.116 59.3441L100.683 63.6136C104.91 60.4793 112.683 61.9885 114.074 62.1684C115.465 62.3484 123.004 63.031 130.33 68.59C137.656 74.149 140.127 77.8488 142.063 86.2509L144.184 84.7942C143.378 79.5035 141.027 76.9186 137.36 71.515C132.652 64.5785 128.087 61.4057 119.926 60.0395C112.054 58.7215 101.116 59.3441 101.116 59.3441Z" fill="#CD660A"/>
<path d="M101.087 58.8454L101.09 58.8444C101.091 58.8443 101.093 58.8444 101.096 58.8442C101.102 58.8439 101.11 58.8432 101.12 58.8426C101.142 58.8415 101.173 58.8407 101.215 58.8385C101.297 58.8342 101.42 58.8279 101.578 58.8206C101.894 58.8061 102.355 58.7867 102.932 58.7677C104.085 58.7298 105.703 58.693 107.569 58.6975C111.296 58.7066 116.031 58.8812 120.008 59.547C124.137 60.2383 127.391 61.3922 130.215 63.2725C133.036 65.1514 135.397 67.7342 137.773 71.2346C141.406 76.5866 143.851 79.2871 144.678 84.7187L144.725 85.0288L144.467 85.2061L141.741 87.0789L141.576 86.3627C140.614 82.1905 139.529 79.2305 137.801 76.6312C136.071 74.0292 133.673 71.7544 130.027 68.9885C122.815 63.5159 115.394 62.8435 114.01 62.6644C113.286 62.5708 111.044 62.1556 108.44 62.1477C105.821 62.1399 102.96 62.5483 100.981 64.0156L100.07 64.6896L100.661 58.8693L101.087 58.8454ZM101.284 62.6352C103.425 61.4492 106.111 61.141 108.443 61.1481C111.13 61.1562 113.471 61.5859 114.138 61.6722C115.536 61.853 123.192 62.5466 130.632 68.1918C134.313 70.9849 136.813 73.3397 138.634 76.0779C140.352 78.6622 141.444 81.5577 142.381 85.4256L143.639 84.5617C142.812 79.6195 140.573 77.1407 136.945 71.7955C134.613 68.3596 132.338 65.888 129.66 64.1049C126.984 62.3231 123.875 61.2077 119.844 60.5328C115.948 59.8807 111.278 59.7069 107.568 59.6978C105.716 59.6933 104.109 59.7291 102.965 59.7667C102.393 59.7855 101.937 59.8046 101.625 59.8189C101.606 59.8198 101.587 59.8205 101.569 59.8214L101.284 62.6352Z" fill="#D3730F"/>
<path d="M96.1735 85.8128L97.8606 88.6256C103.611 83.0179 109.044 82.6784 121.43 86.0115C126.681 87.8013 129.358 89.6494 133.08 96.1645L134.616 94.9207C132.241 90.2426 132.955 89.9133 129.114 85.2721C123.082 80.7511 119.235 79.8513 111.908 79.8815C103.184 80.8211 99.4701 80.658 96.1735 85.8128Z" fill="#CD660A"/>
<path d="M95.7523 85.5435C97.4624 82.8695 99.3117 81.5438 101.863 80.7871C104.351 80.049 107.535 79.8497 111.854 79.3845L111.88 79.3813L111.906 79.3812C115.586 79.3661 118.438 79.5834 121.14 80.3907C123.677 81.1489 126.053 82.4181 128.849 84.4541L129.414 84.8721L129.461 84.9079L129.499 84.9532C133.387 89.6503 132.735 90.1102 135.062 94.6942L135.244 95.055L132.938 96.9238L132.647 96.4125C130.799 93.1785 129.233 91.1454 127.507 89.6996C125.789 88.2607 123.88 87.3758 121.289 86.4915C115.109 84.8289 110.733 84.1044 107.208 84.4634C103.717 84.8189 101.022 86.2419 98.2096 88.984L97.7571 89.425L95.5855 85.8048L95.7523 85.5435ZM102.147 81.7456C99.9181 82.4068 98.3002 83.5209 96.7644 85.8258L97.9677 87.8343C100.752 85.2455 103.541 83.8316 107.106 83.4685C110.83 83.0894 115.361 83.8602 121.56 85.5284L121.576 85.5329L121.592 85.5386C124.241 86.4418 126.29 87.3752 128.15 88.9327C129.908 90.4051 131.466 92.411 133.219 95.4072L133.99 94.7839C131.794 90.3752 132.42 90.0595 128.765 85.6352C125.8 83.4187 123.396 82.1087 120.854 81.349C118.297 80.585 115.566 80.3669 111.928 80.3812C107.541 80.853 104.515 81.0434 102.147 81.7456Z" fill="#D3730F"/>
</svg>
