<svg width="200" height="150" viewBox="0 0 200 150" fill="none" xmlns="http://www.w3.org/2000/svg">
<path d="M200 77.2285C200 116.939 155.228 149.131 100 149.131C44.7715 149.131 0 116.939 0 77.2285C0 37.5179 44.7715 5.32601 100 5.32601C155.228 5.32601 200 37.5179 200 77.2285Z" fill="#E8C483"/>
<path d="M200 71.2368C200 110.58 155.228 142.474 100 142.474C44.7715 142.474 0 110.58 0 71.2368C0 31.8938 44.7715 0 100 0C155.228 0 200 31.8938 200 71.2368Z" fill="#F9DCA6"/>
<path d="M184.524 65.9106C184.524 97.1644 146.948 122.501 100.595 122.501C54.2428 122.501 16.6667 97.1644 16.6667 65.9106C16.6667 34.6568 54.2428 9.32066 100.595 9.32066C146.948 9.32066 184.524 34.6568 184.524 65.9106Z" fill="#E7C280"/>
<path d="M34.0388 54.3074L30.3168 32.7576C47.3318 42.4813 74.9812 40.9045 91.9962 32.7576L87.7424 54.3074C80.0325 67.9731 42.2804 65.3451 34.0388 54.3074Z" fill="#BF7034"/>
<path d="M62.3505 29.9512C64.2832 29.9544 65.8469 31.3619 65.8437 33.095C65.8302 39.9922 65.8163 43.9081 65.8437 50.42C65.851 52.1533 64.2903 53.5633 62.3574 53.57C60.4244 53.5765 58.851 52.177 58.8437 50.4437C58.8162 43.9107 58.8302 39.976 58.8437 33.0845C58.8471 31.3511 60.4175 29.9482 62.3505 29.9512ZM78.0546 29.2603C79.9861 29.3285 81.4901 30.7877 81.414 32.5197L80.622 50.5549C80.546 52.2869 78.9188 53.6364 76.9873 53.5682C75.0558 53.5 73.5518 52.04 73.6279 50.308L74.4199 32.2727C74.4959 30.5407 76.1231 29.1921 78.0546 29.2603ZM44.3066 29.9521C46.2389 29.9081 47.8453 31.2773 47.8945 33.0101C48.0708 39.226 48.2375 42.6795 48.6796 48.8429C48.8037 50.5727 47.341 52.0654 45.4121 52.1767C43.483 52.288 41.8184 50.9755 41.6943 49.2457C41.2461 42.9968 41.0749 39.462 40.8964 33.1694C40.8474 31.4367 42.3743 29.9962 44.3066 29.9521Z" fill="#A86330"/>
<path d="M23.6458 25.2639C28.1178 -9.72826 97.0948 -7.08805 99.2662 25.2639C102.672 49.4091 21.7306 49.9544 23.6458 25.2639Z" fill="#E99B44"/>
<path d="M34.3975 18.9336C35.1752 22.7755 42.4333 20.8551 41.6559 16.464C40.8784 12.073 33.6199 15.0917 34.3975 18.9336Z" fill="#8F5427"/>
<path d="M37.2671 14.1396C38.2449 13.7743 39.3274 13.6614 40.2505 13.9833C41.2092 14.3177 41.9242 15.0983 42.1479 16.3469C42.5978 18.8586 40.704 20.5946 38.7544 21.1773C37.7686 21.4719 36.697 21.5015 35.7934 21.1667C34.8679 20.8237 34.1391 20.1008 33.9077 18.971C33.678 17.8492 34.0494 16.8085 34.6987 15.9782C35.3449 15.1519 36.2836 14.5071 37.2671 14.1396ZM39.9184 14.9156C39.2864 14.6951 38.4571 14.7517 37.6206 15.0642C36.7895 15.3747 36.0101 15.917 35.4897 16.5823C34.9728 17.2434 34.7283 17.9989 34.8872 18.7751C35.0446 19.5438 35.5152 20.0077 36.145 20.2411C36.7967 20.4826 37.6367 20.4791 38.4653 20.2315C40.1447 19.7295 41.491 18.3464 41.1636 16.5187C40.9985 15.5978 40.5148 15.1237 39.9184 14.9156Z" fill="#69341D"/>
<path d="M82.0285 19C81.2688 22.1698 85.5739 26.6594 87.5999 21.9054C89.6258 17.1514 82.7881 15.8302 82.0285 19Z" fill="#8F5427"/>
<path d="M83.341 16.9784C84.1737 16.6864 85.1511 16.711 86.0197 17.0111C86.8907 17.312 87.6996 17.9076 88.1389 18.807C88.5841 19.7187 88.6116 20.8646 88.0598 22.1781C87.521 23.4604 86.7827 24.2324 85.9084 24.4921C85.0328 24.7521 84.1671 24.455 83.4699 23.9255C82.7718 23.3952 82.1894 22.5979 81.8312 21.7214C81.4733 20.8453 81.3219 19.8467 81.5422 18.914C81.7794 17.9098 82.4967 17.2745 83.341 16.9784ZM85.6974 17.972C85.0151 17.7362 84.2677 17.7271 83.6682 17.9373C83.0802 18.1435 82.6575 18.5466 82.5148 19.1498C82.3554 19.8247 82.4563 20.6018 82.7551 21.3331C83.0537 22.064 83.5331 22.7068 84.0695 23.1142C84.6068 23.5221 85.1496 23.6601 85.6271 23.5183C86.106 23.3761 86.6656 22.9094 87.1398 21.7808C87.6009 20.6833 87.5331 19.8532 87.2424 19.2578C86.9456 18.6501 86.3776 18.207 85.6974 17.972Z" fill="#69341D"/>
<path d="M47.1347 26.5821C47.9476 30.4204 54.4522 30.4203 54.4523 25.4854C54.4524 20.5505 46.3218 22.7439 47.1347 26.5821Z" fill="#8F5427"/>
<path d="M53.9526 25.4465C53.9526 24.384 53.523 23.7791 52.9467 23.4536C52.3369 23.1092 51.4817 23.0331 50.5932 23.22C49.7092 23.4061 48.8629 23.8392 48.2944 24.4187C47.7335 24.9904 47.4628 25.6764 47.6235 26.4271C47.965 28.021 49.5145 28.8684 51.059 28.7472C51.8198 28.6875 52.5401 28.3905 53.0668 27.8603C53.5877 27.3359 53.9525 26.5503 53.9526 25.4465ZM54.9526 25.4465C54.9525 26.7807 54.5036 27.8236 53.7797 28.5523C53.0615 29.2751 52.1049 29.6558 51.1381 29.7317C49.2272 29.8815 47.1174 28.8318 46.6459 26.6327C46.4004 25.487 46.8418 24.4796 47.5766 23.7306C48.3038 22.9894 49.3374 22.4734 50.3842 22.253C51.4266 22.0336 52.5536 22.0933 53.4428 22.5956C54.3654 23.1168 54.9526 24.0707 54.9526 25.4465Z" fill="#69341D"/>
<path d="M45.7971 8.52736C46.6064 12.1626 53.6209 9.64578 53.0817 5.45148C52.5425 1.25717 44.9879 4.89215 45.7971 8.52736Z" fill="#8F5427"/>
<path d="M48.7277 3.59179C49.7104 3.15258 50.8009 2.93823 51.7228 3.16521C52.1929 3.28099 52.6248 3.51328 52.9582 3.89194C53.2911 4.27005 53.4998 4.7646 53.5773 5.36083C53.8882 7.75187 52.0239 9.57193 50.1271 10.3051C49.1656 10.6768 48.1161 10.8072 47.2199 10.5637C46.2934 10.312 45.5546 9.66199 45.3088 8.57079C45.0639 7.48375 45.4626 6.43886 46.1213 5.58957C46.7808 4.73935 47.7355 4.03524 48.7277 3.59179ZM51.4816 4.12453C50.8608 3.97163 50.0119 4.10247 49.1398 4.49224C48.2771 4.87781 47.4615 5.48662 46.9152 6.19083C46.3684 6.89579 46.1258 7.64653 46.2853 8.35557C46.4442 9.06065 46.8861 9.44738 47.4855 9.61021C48.1153 9.78115 48.9373 9.70443 49.7629 9.38534C51.4409 8.73674 52.8143 7.24026 52.5861 5.4863C52.5289 5.04647 52.3835 4.74622 52.2033 4.54146C52.0236 4.33737 51.7827 4.19875 51.4816 4.12453Z" fill="#69341D"/>
<path d="M68.5312 9.04815C68.5311 13.8227 75.0202 14.1041 74.5396 9.04773C74.0589 3.99136 68.5313 4.27363 68.5312 9.04815Z" fill="#8F5427"/>
<path d="M71.3427 4.8616C73.1167 4.81697 74.779 6.32407 75.037 9.10979C75.1674 10.5172 74.8291 11.6232 74.1777 12.3776C73.529 13.1288 72.6156 13.4773 71.704 13.4562C69.867 13.4136 68.0311 11.8848 68.0312 9.1589C68.0313 6.49829 69.5676 4.90638 71.3427 4.8616ZM69.0312 9.1589C69.0311 11.3335 70.4393 12.3999 71.7265 12.4298C72.3771 12.4448 72.9968 12.1982 73.4296 11.697C73.8596 11.199 74.1519 10.3946 74.0419 9.20702C73.8192 6.80281 72.4771 5.86014 71.3671 5.88806C70.2584 5.91613 69.0312 6.91912 69.0312 9.1589Z" fill="#69341D"/>
<path d="M58.4815 17.4497C58.7388 21.0707 64.915 21.5881 65.1723 17.1909C65.4296 12.7937 58.2242 13.8287 58.4815 17.4497Z" fill="#8F5427"/>
<path d="M61.7804 13.8153C62.7327 13.7279 63.7337 13.9052 64.4943 14.4535C65.2792 15.0195 65.7443 15.9363 65.671 17.171C65.5993 18.3789 65.1083 19.2917 64.3732 19.8923C63.6471 20.4854 62.7202 20.7448 61.8165 20.7269C60.0365 20.6915 58.1352 19.5484 57.9826 17.4328C57.9049 16.3554 58.3986 15.4781 59.132 14.8665C59.8562 14.2624 60.8252 13.903 61.7804 13.8153ZM61.8732 14.7972C61.0916 14.8689 60.3238 15.1627 59.7775 15.6183C59.2403 16.0663 58.9296 16.6553 58.9806 17.3625C59.0854 18.8159 60.4005 19.7127 61.8371 19.7412C62.5415 19.7551 63.2232 19.5522 63.7355 19.1337C64.2389 18.7225 64.6161 18.0725 64.673 17.1132C64.7282 16.1812 64.3899 15.5998 63.9044 15.2496C63.3944 14.8818 62.6578 14.7251 61.8732 14.7972Z" fill="#69341D"/>
<path d="M67.8674 26.3845C68.1246 30.0055 74.3009 30.5229 74.5582 26.1257C74.8155 21.7285 67.6101 22.7634 67.8674 26.3845Z" fill="#8F5427"/>
<path d="M71.1663 22.75C72.1186 22.6626 73.1196 22.84 73.8802 23.3882C74.665 23.9542 75.1302 24.871 75.0569 26.1057C74.9852 27.3137 74.4942 28.2264 73.7591 28.827C73.033 29.4202 72.1061 29.6795 71.2024 29.6616C69.4224 29.6262 67.5211 28.4831 67.3685 26.3675C67.2908 25.2901 67.7845 24.4128 68.5179 23.8012C69.2421 23.1972 70.2111 22.8377 71.1663 22.75ZM71.2591 23.7319C70.4774 23.8036 69.7097 24.0974 69.1634 24.553C68.6261 25.0011 68.3155 25.59 68.3665 26.2973C68.4713 27.7507 69.7864 28.6474 71.2229 28.6759C71.9274 28.6898 72.6091 28.487 73.1214 28.0685C73.6248 27.6572 74.0019 27.0072 74.0589 26.0479C74.1141 25.116 73.7758 24.5345 73.2903 24.1843C72.7803 23.8165 72.0437 23.6599 71.2591 23.7319Z" fill="#69341D"/>
<path d="M176.586 66.6454L180.557 43.6518C162.402 54.027 132.9 52.3445 114.745 43.6518L119.284 66.6454C127.511 81.2267 167.792 78.4226 176.586 66.6454Z" fill="#BF7034"/>
<path d="M146.378 40.8959C144.445 40.899 142.881 42.3142 142.884 44.0568C142.898 51.456 142.913 55.6579 142.884 62.6447C142.877 64.3875 144.438 65.8052 146.371 65.8118C148.304 65.8183 149.876 64.4112 149.884 62.6685C149.913 55.6605 149.898 51.4397 149.884 44.0462C149.88 42.3034 148.311 40.8928 146.378 40.8959ZM129.63 40.1545C127.699 40.2233 126.194 41.6903 126.27 43.4317L127.115 62.7803C127.191 64.5218 128.819 65.8786 130.751 65.8101C132.682 65.7413 134.186 64.2734 134.11 62.532L133.266 43.1834C133.19 41.4419 131.561 40.0859 129.63 40.1545ZM165.624 40.8967C163.692 40.8525 162.085 42.2292 162.036 43.9714C161.848 50.6426 161.669 54.3504 161.197 60.9656C161.073 62.7048 162.537 64.2058 164.466 64.3176C166.395 64.4294 168.058 63.1098 168.183 61.3707C168.661 54.6695 168.844 50.8799 169.034 44.1316C169.083 42.3895 167.556 40.941 165.624 40.8967Z" fill="#A86330"/>
<path d="M187.675 35.6557C182.903 -1.68094 109.305 1.13617 106.988 35.6557C103.354 61.4185 189.718 62.0004 187.675 35.6557Z" fill="#E99B44"/>
<path d="M176.203 28.9013C175.373 33.0006 167.629 30.9515 168.458 26.2663C169.288 21.5811 177.033 24.802 176.203 28.9013Z" fill="#8F5427"/>
<path d="M173.129 23.818C172.091 23.4298 170.944 23.3108 169.969 23.6509C168.958 24.0037 168.203 24.8272 167.966 26.1493C167.49 28.808 169.493 30.6494 171.564 31.2688C172.61 31.5817 173.746 31.6134 174.702 31.2591C175.679 30.8966 176.448 30.1333 176.693 28.9394C176.936 27.7529 176.544 26.6508 175.855 25.7698C175.17 24.893 174.174 24.2084 173.129 23.818ZM170.301 24.5838C170.985 24.3451 171.878 24.4077 172.776 24.7432C173.668 25.0766 174.504 25.6586 175.064 26.3743C175.62 27.0859 175.885 27.9028 175.713 28.7433C175.543 29.5758 175.033 30.0801 174.351 30.3329C173.647 30.594 172.743 30.5883 171.853 30.3223C170.052 29.7836 168.597 28.2956 168.951 26.3212C169.129 25.3268 169.653 24.8103 170.301 24.5838Z" fill="#69341D"/>
<path d="M125.381 28.9723C126.191 32.3545 121.598 37.1449 119.436 32.0724C117.274 26.9999 124.57 25.5901 125.381 28.9723Z" fill="#8F5427"/>
<path d="M123.97 26.8467C123.089 26.538 122.053 26.5644 121.133 26.8823C120.21 27.2009 119.354 27.8298 118.89 28.7788C118.421 29.7403 118.391 30.952 118.976 32.3452C119.549 33.707 120.33 34.5201 121.25 34.7931C122.171 35.0664 123.085 34.7548 123.823 34.1943C124.562 33.633 125.179 32.7878 125.559 31.8582C125.939 30.9289 126.1 29.8716 125.867 28.8857C125.617 27.8287 124.862 27.1594 123.97 26.8467ZM121.455 27.8415C122.189 27.5879 122.995 27.5779 123.642 27.8048C124.278 28.0277 124.739 28.4655 124.894 29.1223C125.066 29.8505 124.956 30.6857 124.636 31.4702C124.315 32.2544 123.801 32.9451 123.223 33.3836C122.645 33.8228 122.054 33.9753 121.531 33.8201C121.007 33.6645 120.404 33.1558 119.896 31.9473C119.401 30.7699 119.471 29.8746 119.787 29.2292C120.108 28.5716 120.723 28.0942 121.455 27.8415Z" fill="#69341D"/>
<path d="M162.612 37.0625C161.745 41.1579 154.805 41.1579 154.805 35.8924C154.804 30.6268 163.48 32.9671 162.612 37.0625Z" fill="#8F5427"/>
<path d="M155.304 35.853C155.304 34.708 155.769 34.0515 156.395 33.6973C157.055 33.3244 157.976 33.2436 158.929 33.4443C159.878 33.6441 160.787 34.1086 161.399 34.7327C162.003 35.3491 162.298 36.0928 162.124 36.9077C161.755 38.6298 160.083 39.5413 158.422 39.411C157.604 39.3467 156.828 39.0264 156.259 38.4539C155.697 37.8871 155.304 37.0395 155.304 35.853ZM154.304 35.853C154.304 37.2701 154.78 38.3761 155.545 39.1474C156.305 39.9127 157.319 40.3156 158.343 40.3961C160.37 40.5552 162.602 39.4412 163.101 37.1134C163.36 35.9033 162.896 34.8379 162.118 34.0441C161.347 33.258 160.25 32.7107 159.138 32.4766C158.031 32.2434 156.837 32.3077 155.898 32.8387C154.925 33.3887 154.304 34.3948 154.304 35.853Z" fill="#69341D"/>
<path d="M164.04 17.7977C163.176 21.6765 155.692 18.9911 156.267 14.5157C156.842 10.0404 164.903 13.9189 164.04 17.7977Z" fill="#8F5427"/>
<path d="M160.899 12.5624C159.854 12.0951 158.698 11.8686 157.724 12.1085C157.228 12.2308 156.775 12.4769 156.425 12.8753C156.075 13.2732 155.853 13.7941 155.771 14.4254C155.442 16.9569 157.415 18.8895 159.431 19.6695C160.453 20.0646 161.565 20.2013 162.512 19.9438C163.49 19.678 164.269 18.9934 164.528 17.8413C164.786 16.6932 164.366 15.5872 163.667 14.6852C162.967 13.7824 161.953 13.034 160.899 12.5624ZM157.967 13.0685C158.639 12.9028 159.553 13.0457 160.487 13.4635C161.412 13.8771 162.287 14.5301 162.874 15.2869C163.461 16.0444 163.725 16.8562 163.551 17.6259C163.379 18.3916 162.898 18.8137 162.248 18.9906C161.567 19.1757 160.681 19.0907 159.796 18.7481C157.998 18.0527 156.516 16.4449 156.762 14.5509C156.824 14.0761 156.981 13.7488 157.178 13.5243C157.375 13.3005 157.639 13.1491 157.967 13.0685Z" fill="#69341D"/>
<path d="M139.782 18.3538C139.782 23.4482 132.858 23.7485 133.371 18.3533C133.884 12.9582 139.782 13.2594 139.782 18.3538Z" fill="#8F5427"/>
<path d="M136.781 13.9202C134.911 13.8732 133.147 15.4603 132.873 18.4159C132.735 19.9082 133.095 21.0772 133.782 21.8725C134.467 22.6644 135.432 23.0319 136.396 23.0097C138.337 22.9649 140.282 21.3512 140.282 18.4649C140.282 15.6439 138.653 13.9672 136.781 13.9202ZM139.282 18.4649C139.282 20.8007 137.765 21.9525 136.373 21.9846C135.67 22.0008 135 21.7341 134.531 21.1918C134.065 20.6526 133.751 19.7858 133.869 18.513C134.108 15.9384 135.55 14.9149 136.757 14.9453C137.962 14.9756 139.282 16.0641 139.282 18.4649Z" fill="#69341D"/>
<path d="M150.506 27.318C150.231 31.1817 143.641 31.7337 143.367 27.0419C143.092 22.3501 150.78 23.4544 150.506 27.318Z" fill="#8F5427"/>
<path d="M146.983 23.4732C145.972 23.3803 144.913 23.5698 144.109 24.1494C143.282 24.7466 142.79 25.7138 142.867 27.0221C142.943 28.3035 143.464 29.2694 144.24 29.9043C145.008 30.5318 145.989 30.8067 146.946 30.7877C148.834 30.7502 150.843 29.5375 151.004 27.3005C151.086 26.1625 150.566 25.2353 149.79 24.5877C149.023 23.9478 147.996 23.5662 146.983 23.4732ZM146.89 24.4558C147.73 24.5329 148.556 24.8496 149.145 25.341C149.724 25.8249 150.062 26.4636 150.007 27.2311C149.893 28.805 148.47 29.7706 146.926 29.8012C146.167 29.8162 145.432 29.5971 144.878 29.1443C144.333 28.6987 143.927 27.9967 143.865 26.9643C143.806 25.9586 144.172 25.3263 144.7 24.9451C145.253 24.5465 146.047 24.3784 146.89 24.4558Z" fill="#69341D"/>
<path d="M140.491 36.8511C140.216 40.7147 133.626 41.2668 133.352 36.575C133.077 31.8832 140.765 32.9875 140.491 36.8511Z" fill="#8F5427"/>
<path d="M136.968 33.0062C135.957 32.9134 134.898 33.1029 134.095 33.6825C133.267 34.2796 132.775 35.2468 132.852 36.5551C132.928 37.8366 133.449 38.8024 134.225 39.4374C134.993 40.0649 135.974 40.3397 136.932 40.3207C138.819 40.2832 140.828 39.0705 140.989 36.8335C141.071 35.6955 140.551 34.7684 139.775 34.1208C139.008 33.4808 137.981 33.0993 136.968 33.0062ZM136.875 33.9888C137.715 34.0659 138.541 34.3826 139.13 34.8741C139.709 35.358 140.047 35.9967 139.992 36.7641C139.878 38.338 138.455 39.3037 136.911 39.3343C136.153 39.3493 135.417 39.1301 134.863 38.6773C134.318 38.2318 133.912 37.5297 133.85 36.4973C133.791 35.4917 134.157 34.8593 134.685 34.4782C135.238 34.0796 136.032 33.9114 136.875 33.9888Z" fill="#69341D"/>
<path d="M63.6407 108.081L59.555 84.4256C78.2324 95.0993 108.583 93.3684 127.261 84.4256L122.591 108.081C114.128 123.082 72.6876 120.197 63.6407 108.081Z" fill="#BF7034"/>
<path d="M94.7174 81.6934C96.6504 81.6964 98.2149 83.1148 98.2115 84.8617C98.1967 92.4913 98.1815 96.8238 98.2115 104.028C98.2188 105.775 96.6572 107.197 94.7242 107.204C92.7915 107.21 91.2188 105.799 91.2115 104.052C91.1814 96.8263 91.1967 92.4742 91.2115 84.8502C91.215 83.1035 92.7846 81.6904 94.7174 81.6934ZM111.944 80.9282C113.875 80.9971 115.379 82.4676 115.303 84.213L114.434 104.165C114.358 105.911 112.731 107.27 110.799 107.201C108.868 107.132 107.363 105.662 107.439 103.916L108.308 83.9641C108.384 82.2186 110.012 80.8595 111.944 80.9282ZM74.9205 81.6943C76.8527 81.6499 78.4591 83.0291 78.5084 84.7752C78.702 91.6554 78.8861 95.4805 79.3717 102.303C79.4955 104.046 78.032 105.55 76.1031 105.662C74.1742 105.774 72.5096 104.452 72.3854 102.709C71.8936 95.8004 71.7061 91.8939 71.5104 84.9367C71.4612 83.1904 72.9881 81.7387 74.9205 81.6943Z" fill="#A86330"/>
<path d="M52.2324 76.1995C57.1413 37.7885 132.857 40.6867 135.241 76.1995C138.98 102.704 50.1301 103.302 52.2324 76.1995Z" fill="#E99B44"/>
<path d="M64.0344 69.2514C64.888 73.4686 72.8553 71.3606 72.0019 66.5405C71.1485 61.7205 63.1808 65.0341 64.0344 69.2514Z" fill="#8F5427"/>
<path d="M67.201 64.0353C68.2676 63.6365 69.444 63.5146 70.4432 63.8634C71.4779 64.2246 72.2513 65.0675 72.494 66.4233C72.9819 69.1495 70.9295 71.0392 68.8026 71.6754C67.7282 71.9967 66.5633 72.0291 65.5838 71.6657C64.5824 71.2943 63.7952 70.5127 63.5447 69.2894C63.296 68.0735 63.6967 66.943 64.4031 66.0388C65.1063 65.1389 66.1289 64.4363 67.201 64.0353ZM70.1102 64.7965C69.4022 64.5495 68.4796 64.6148 67.5545 64.9607C66.6351 65.3047 65.7724 65.9049 65.1951 66.6435C64.6212 67.3781 64.3464 68.2225 64.5242 69.0923C64.7007 69.9545 65.2296 70.4776 65.9354 70.7394C66.663 71.0092 67.5963 71.0031 68.5135 70.7287C70.3702 70.1733 71.875 68.6369 71.5096 66.5952C71.3255 65.5673 70.7827 65.0313 70.1102 64.7965Z" fill="#69341D"/>
<path d="M116.319 69.3239C115.485 72.8035 120.211 77.7317 122.435 72.5133C124.659 67.2948 117.153 65.8444 116.319 69.3239Z" fill="#8F5427"/>
<path d="M117.776 67.1511C118.679 66.835 119.74 66.8609 120.685 67.1867C121.631 67.5135 122.507 68.1591 122.982 69.1311C123.464 70.1153 123.496 71.3566 122.895 72.7863C122.306 74.1844 121.505 75.0156 120.565 75.2946C119.623 75.574 118.688 75.2568 117.931 74.6821C117.172 74.1067 116.539 73.2396 116.149 72.2856C115.758 71.332 115.594 70.248 115.833 69.238C116.089 68.1564 116.862 67.4714 117.776 67.1511ZM120.362 68.1465C119.604 67.8849 118.772 67.8744 118.103 68.1089C117.445 68.3395 116.967 68.7925 116.806 69.4735C116.628 70.2261 116.741 71.0888 117.072 71.8977C117.403 72.7062 117.934 73.4181 118.53 73.8708C119.128 74.3241 119.74 74.4842 120.283 74.323C120.828 74.1613 121.451 73.6337 121.975 72.3885C122.485 71.1744 122.414 70.2486 122.087 69.5803C121.754 68.8999 121.118 68.4074 120.362 68.1465Z" fill="#69341D"/>
<path d="M78.0161 77.6469C78.9084 81.8601 86.0485 81.8601 86.0486 76.443C86.0487 71.0259 77.1237 73.4336 78.0161 77.6469Z" fill="#8F5427"/>
<path d="M85.549 76.4041C85.5491 75.2211 85.0697 74.5397 84.4201 74.1724C83.7371 73.7862 82.7849 73.7035 81.802 73.9106C80.8238 74.1167 79.886 74.5964 79.2541 75.2409C78.6298 75.878 78.3243 76.6484 78.5051 77.4929C78.8865 79.2737 80.6142 80.2137 82.3274 80.0792C83.1725 80.0128 83.9742 79.6827 84.5617 79.0908C85.1436 78.5046 85.549 77.6286 85.549 76.4041ZM86.549 76.4041C86.549 77.8591 86.0604 78.9928 85.2756 79.7835C84.4965 80.5685 83.4578 80.983 82.4065 81.0656C80.3266 81.2288 78.0377 80.0848 77.5266 77.6977C77.2613 76.4583 77.7375 75.3674 78.5354 74.553C79.326 73.7463 80.4527 73.184 81.594 72.9435C82.7306 72.7041 83.9539 72.7694 84.9162 73.3135C85.9121 73.8766 86.5491 74.9076 86.549 76.4041Z" fill="#69341D"/>
<path d="M76.548 57.8279C77.4363 61.8183 85.1362 59.0556 84.5443 54.4515C83.9525 49.8474 75.6597 53.8375 76.548 57.8279Z" fill="#8F5427"/>
<path d="M79.7852 52.4552C80.8586 51.975 82.0437 51.7437 83.0411 51.9895C83.5488 52.1147 84.0127 52.3656 84.3712 52.773C84.7291 53.18 84.956 53.7137 85.0401 54.3611C85.3773 56.9571 83.3546 58.9415 81.2833 59.7429C80.2345 60.1486 79.0937 60.2888 78.1231 60.025C77.1221 59.7528 76.3253 59.0516 76.0596 57.8717C75.795 56.6958 76.2248 55.5616 76.9425 54.6355C77.6609 53.7084 78.7024 52.9396 79.7852 52.4552ZM82.7999 52.9488C82.1037 52.7772 81.16 52.9258 80.1973 53.3565C79.244 53.783 78.3415 54.4564 77.7364 55.2373C77.1306 56.0191 76.8567 56.8587 77.0362 57.6563C77.2148 58.4498 77.7139 58.8873 78.3878 59.0706C79.0921 59.2621 80.0059 59.1746 80.919 58.8213C82.7716 58.1045 84.3034 56.4451 84.0489 54.4867C83.9851 53.9957 83.8226 53.6556 83.6173 53.4222C83.4125 53.1894 83.1386 53.0324 82.7999 52.9488Z" fill="#69341D"/>
<path d="M101.503 58.3997C101.503 63.6407 108.626 63.9496 108.098 58.3993C107.571 52.8489 101.503 53.1587 101.503 58.3997Z" fill="#8F5427"/>
<path d="M104.591 53.8529C106.506 53.8049 108.314 55.4286 108.596 58.4618C108.738 59.9929 108.369 61.1903 107.665 62.0043C106.963 62.815 105.975 63.1905 104.987 63.1678C102.998 63.1219 101.003 61.4704 101.003 58.5108C101.003 55.6164 102.675 53.901 104.591 53.8529ZM102.003 58.5108C102.003 60.9202 103.57 62.1112 105.01 62.1443C105.737 62.1611 106.43 61.8853 106.916 61.324C107.399 60.7659 107.722 59.8705 107.601 58.5588C107.354 55.9064 105.866 54.846 104.615 54.8773C103.365 54.9087 102.003 56.0363 102.003 58.5108Z" fill="#69341D"/>
<path d="M90.4714 67.6225C90.7538 71.5973 97.5335 72.1653 97.8159 67.3384C98.0983 62.5116 90.189 63.6477 90.4714 67.6225Z" fill="#8F5427"/>
<path d="M94.0968 63.6817C95.1341 63.5864 96.2205 63.7807 97.0431 64.3746C97.89 64.9861 98.3942 65.9767 98.3146 67.3188C98.2366 68.634 97.7037 69.6238 96.9084 70.2746C96.1218 70.918 95.1162 71.2 94.1339 71.1805C92.1966 71.1421 90.1379 69.898 89.9728 67.6051C89.889 66.4393 90.4216 65.4898 91.2169 64.8257C92.0032 64.1692 93.0568 63.7774 94.0968 63.6817ZM94.1896 64.6647C93.3232 64.7444 92.4707 65.0705 91.8625 65.5783C91.2631 66.0788 90.9126 66.7403 90.9699 67.5357C91.0873 69.1651 92.5599 70.1629 94.1535 70.1946C94.9366 70.2102 95.6969 69.9837 96.2697 69.5152C96.8335 69.0539 97.2533 68.3274 97.3166 67.261C97.3781 66.2217 97 65.5661 96.4523 65.1707C95.8802 64.7578 95.0589 64.5849 94.1896 64.6647Z" fill="#69341D"/>
<path d="M100.775 77.4292C101.057 81.404 107.837 81.972 108.119 77.1452C108.401 72.3183 100.492 73.4544 100.775 77.4292Z" fill="#8F5427"/>
<path d="M104.4 73.4884C105.437 73.3931 106.524 73.5875 107.346 74.1814C108.193 74.7928 108.697 75.7835 108.618 77.1256C108.54 78.4407 108.007 79.4305 107.211 80.0813C106.425 80.7247 105.419 81.0067 104.437 80.9873C102.5 80.9488 100.441 79.7047 100.276 77.4118C100.192 76.246 100.725 75.2965 101.52 74.6324C102.306 73.9759 103.36 73.5841 104.4 73.4884ZM104.493 74.4714C103.626 74.5511 102.774 74.8772 102.166 75.3851C101.566 75.8855 101.216 76.5471 101.273 77.3424C101.39 78.9719 102.863 79.9697 104.457 80.0014C105.24 80.0169 106 79.7904 106.573 79.3219C107.137 78.8607 107.556 78.1341 107.62 77.0677C107.681 76.0284 107.303 75.3728 106.755 74.9774C106.183 74.5645 105.362 74.3916 104.493 74.4714Z" fill="#69341D"/>
</svg>
