<svg width="200" height="200" viewBox="0 0 200 200" fill="none" xmlns="http://www.w3.org/2000/svg">
<path d="M192 116.47C192 151.557 150.586 180 99.5 180C48.4137 180 7 151.557 7 116.47C7 81.3841 48.4137 52.941 99.5 52.941C150.586 52.941 192 81.3841 192 116.47Z" fill="#D4C9D4"/>
<path d="M192 111.176C192 145.938 150.586 174.118 99.5 174.118C48.4137 174.118 7 145.938 7 111.176C7 76.415 48.4137 48.2353 99.5 48.2353C150.586 48.2353 192 76.415 192 111.176Z" fill="#FFFBF2"/>
<path d="M177.685 106.471C177.685 134.085 142.927 156.471 100.051 156.471C57.1746 156.471 22.4167 134.085 22.4167 106.471C22.4167 78.8565 57.1746 56.4707 100.051 56.4707C142.927 56.4707 177.685 78.8565 177.685 106.471Z" fill="#E5E2E3"/>
<path d="M142.997 58.8235C142.997 65.3209 131.658 72.9411 117.67 72.9411C103.682 72.9411 91.7917 65.3209 91.7917 58.8235C91.7917 52.326 103.131 40.5882 117.119 40.5882C131.107 40.5882 142.997 52.326 142.997 58.8235Z" fill="#EE8E19"/>
<path d="M134.738 85.8822L141.896 61.1764C140.98 62.0712 140.252 62.3425 137.391 61.1764C134.744 66.0278 132.693 66.4408 128.382 64.515C122.365 69.5201 120.201 67.7679 116.556 63.8473C110.088 68.5366 107.748 67.9175 103.592 62.5118C97.9617 65.3101 96.0028 64.0043 92.8931 61.1764L99.3777 85.8822H134.738Z" fill="#E47F15"/>
<path d="M135.114 86.3824H98.9917L91.981 59.6715L93.229 60.8063C94.7924 62.228 95.9681 63.1657 97.3999 63.4645C98.8181 63.7602 100.591 63.4451 103.37 62.0641L103.738 61.8814L103.989 62.2066C106.073 64.9185 107.584 66.2539 109.27 66.4693C110.967 66.6861 113.022 65.7917 116.263 63.442L116.622 63.1822L116.922 63.5064C117.834 64.4875 118.629 65.306 119.405 65.9166C120.176 66.524 120.901 66.9036 121.665 67.0357C123.18 67.2979 125.07 66.619 128.062 64.1305L128.301 63.9313L128.585 64.0582C130.731 65.0168 132.163 65.3162 133.35 64.9137C134.54 64.51 135.637 63.3482 136.953 60.9371L137.167 60.5445L137.581 60.7135C139.005 61.2943 139.813 61.4775 140.347 61.4498C140.823 61.4251 141.125 61.2316 141.547 60.8189L142.905 59.4918L135.114 86.3824ZM137.615 61.8014C136.362 64.0112 135.161 65.3555 133.671 65.8609C132.162 66.3729 130.497 65.9756 128.46 65.0943C125.558 67.4629 123.424 68.3546 121.495 68.0211C120.51 67.8508 119.634 67.3699 118.787 66.7027C118.036 66.112 117.288 65.3561 116.491 64.5074C113.447 66.6731 111.193 67.7231 109.144 67.4615C107.09 67.1992 105.408 65.6428 103.446 63.1373C100.787 64.4108 98.865 64.7915 97.1948 64.443C95.9336 64.1797 94.8704 63.5093 93.7886 62.6217L99.7632 85.3824H134.363L141.042 62.3316C140.848 62.3944 140.636 62.4365 140.399 62.4488C139.701 62.485 138.831 62.272 137.615 61.8014Z" fill="#E17A10"/>
<path d="M135.289 86.1381C135.289 89.528 127.154 94.1176 117.119 94.1176C107.084 94.1176 98.9495 89.528 98.9495 86.1381C98.9495 82.7481 107.084 80 117.119 80C127.154 80 135.289 82.7481 135.289 86.1381Z" fill="#E47F15"/>
<path d="M137.587 60.6852C137.858 60.738 138.035 61.0011 137.982 61.2721L132.476 89.5074C132.423 89.7785 132.16 89.9548 131.889 89.902C131.618 89.8491 131.441 89.587 131.494 89.316L137.001 61.0807C137.054 60.8097 137.316 60.6324 137.587 60.6852Z" fill="#E17A10"/>
<path d="M128.713 64.2066C128.988 64.2236 129.197 64.4604 129.18 64.7359L127.529 91.7945C127.512 92.07 127.275 92.2799 127 92.2632C126.724 92.2464 126.514 92.0096 126.531 91.7339L128.182 64.6753C128.199 64.3997 128.437 64.1898 128.713 64.2066Z" fill="#E17A10"/>
<path d="M116.559 64.2056C116.835 64.2003 117.063 64.4198 117.069 64.6958L117.619 93.5201C117.624 93.7958 117.405 94.0234 117.129 94.0288C116.853 94.0341 116.625 93.8147 116.619 93.5386L116.069 64.7154C116.063 64.4394 116.283 64.211 116.559 64.2056Z" fill="#E17A10"/>
<path d="M103.288 62.4459C103.561 62.4093 103.813 62.601 103.849 62.8746L107.704 91.6978C107.74 91.9714 107.549 92.2235 107.275 92.2603C107.001 92.2969 106.749 92.1043 106.713 91.8306L102.859 63.0074C102.823 62.7337 103.014 62.4826 103.288 62.4459Z" fill="#E17A10"/>
<path d="M114 20.0393C122.774 21.9305 125.696 25.481 127.564 35.7893C127.573 35.8408 127.541 35.8924 127.49 35.9054L98.0159 43.4862C97.9414 43.5054 97.8746 43.4347 97.8956 43.3606C99.7347 36.8774 102.459 34.4107 108.86 31.1764C113.943 27.6344 115.888 25.4083 113.884 20.1759C113.855 20.1015 113.922 20.0225 114 20.0393Z" fill="#FEE3BA"/>
<path d="M113.417 20.3544C113.249 19.9166 113.632 19.4489 114.105 19.5507C118.539 20.5063 121.588 21.9004 123.752 24.4336C125.902 26.9517 127.118 30.5277 128.055 35.7002C128.11 35.9998 127.929 36.3088 127.615 36.3896L98.1402 43.9707C97.6766 44.0897 97.2931 43.6541 97.4146 43.2246L97.5924 42.6181C98.4967 39.6455 99.6308 37.497 101.301 35.7089C103.068 33.8182 105.404 32.3642 108.598 30.748C111.135 28.979 112.783 27.6037 113.587 26.0771C114.367 24.5981 114.39 22.8953 113.417 20.3544ZM114.596 20.6865C115.381 23.0408 115.351 24.8746 114.472 26.5429C113.537 28.318 111.679 29.8221 109.146 31.5869C109.127 31.6003 109.106 31.6124 109.086 31.623C105.898 33.2337 103.682 34.6268 102.033 36.3916C100.511 38.0208 99.4452 39.9967 98.5758 42.8252L127.003 35.5136C126.082 30.5836 124.915 27.3348 122.992 25.083C121.142 22.9169 118.54 21.6129 114.596 20.6865Z" fill="#FEE3BA"/>
<path d="M136.39 44.1175C136.39 50.9399 127.515 56.4705 116.568 56.4705C105.621 56.4705 96.7469 50.9399 96.7469 44.1175C96.7469 37.2952 105.621 31.7646 116.568 31.7646C127.515 31.7646 136.39 37.2952 136.39 44.1175Z" fill="#FFE3B3"/>
<path d="M129.176 35.2647L127.125 34.1688C127.074 34.1413 127.009 34.1651 126.985 34.2183C123.898 41.1621 119.267 42.3498 110.164 43.504C110.082 43.5144 110.045 43.6121 110.107 43.6665C112.61 45.8404 121.59 45.8471 124.827 44.1179C128.112 42.3635 129.059 38.945 129.229 35.3574C129.231 35.3189 129.21 35.2828 129.176 35.2647Z" fill="#FDD090"/>
<path d="M127.239 33.6784L127.361 33.7283L129.412 34.824C129.616 34.933 129.74 35.15 129.729 35.3816C129.556 39.0153 128.59 42.6752 125.063 44.5593C124.182 45.0298 122.95 45.3647 121.591 45.5769C120.223 45.7904 118.689 45.8853 117.182 45.8562C115.676 45.8271 114.183 45.6738 112.899 45.3855C111.63 45.1006 110.5 44.6696 109.78 44.0437C109.579 43.8693 109.535 43.6082 109.612 43.3982C109.685 43.1965 109.868 43.0372 110.102 43.0075L111.756 42.7898C115.488 42.2743 118.339 41.6919 120.611 40.5827C123.17 39.3333 125.025 37.398 126.529 34.0154L126.59 33.9079C126.734 33.7092 126.992 33.6091 127.239 33.6784ZM127.262 34.8093C125.707 38.1376 123.75 40.1629 121.05 41.4812C118.519 42.717 115.361 43.315 111.364 43.8493C111.846 44.0658 112.436 44.2569 113.117 44.4099C114.321 44.6801 115.745 44.828 117.201 44.8562C118.657 44.8843 120.132 44.7922 121.437 44.5886C122.75 44.3837 123.855 44.0704 124.592 43.6765C127.561 42.0903 128.514 39.0244 128.714 35.5847L127.262 34.8093Z" fill="#FDD090"/>
<path d="M114.366 28.235C114.366 29.5344 113.38 30.5879 112.164 30.5879C110.947 30.5879 109.961 29.5344 109.961 28.235C109.961 26.9355 110.947 25.882 112.164 25.882C113.38 25.882 114.366 26.9355 114.366 28.235Z" fill="#ED5F55"/>
<path d="M131.985 45.8821C131.985 47.1816 130.999 48.2351 129.783 48.2351C128.567 48.2351 127.581 47.1816 127.581 45.8821C127.581 44.5826 128.567 43.5292 129.783 43.5292C130.999 43.5292 131.985 44.5826 131.985 45.8821Z" fill="#ED5F55"/>
<path d="M127.58 34.1175C127.58 35.417 126.594 36.4705 125.378 36.4705C124.162 36.4705 123.176 35.417 123.176 34.1175C123.176 32.818 124.162 31.7646 125.378 31.7646C126.594 31.7646 127.58 32.818 127.58 34.1175Z" fill="#ED5F55"/>
<path d="M116.569 50.5883C116.569 51.8878 115.583 52.9412 114.366 52.9412C113.15 52.9412 112.164 51.8878 112.164 50.5883C112.164 49.2888 113.15 48.2353 114.366 48.2353C115.583 48.2353 116.569 49.2888 116.569 50.5883Z" fill="#ED5F55"/>
<path d="M104.455 39.9996C104.455 41.2991 103.469 42.3525 102.253 42.3525C101.037 42.3525 100.051 41.2991 100.051 39.9996C100.051 38.7001 101.037 37.6466 102.253 37.6466C103.469 37.6466 104.455 38.7001 104.455 39.9996Z" fill="#ED5F55"/>
<path d="M56.2146 128.67C56.981 127.875 58.2474 127.851 59.0427 128.618C66.271 135.585 71.1696 138.998 82.1755 144.127C83.1767 144.594 83.6099 145.784 83.1433 146.786C82.6767 147.786 81.4871 148.22 80.4861 147.753C69.1185 142.456 63.8434 138.801 56.2673 131.498C55.4722 130.732 55.4484 129.466 56.2146 128.67Z" fill="#E17A10"/>
<path d="M122.626 128.881C121.524 140.058 112.715 144.176 96.1316 143.565C82.4833 142.512 70.3189 135.94 72.1426 128.412C72.5421 122.498 84.9882 112.676 98.6365 113.728C112.285 114.781 123.025 122.968 122.626 128.881Z" fill="#EF8215"/>
<path d="M127.58 145.941C127.58 147.24 126.594 148.294 125.378 148.294C124.162 148.294 123.176 147.24 123.176 145.941C123.176 144.641 124.162 143.588 125.378 143.588C126.594 143.588 127.58 144.641 127.58 145.941Z" fill="#EF8215"/>
<path d="M28.4258 113.722L95.17 129.503C95.4903 129.523 95.7946 129.551 96.0782 129.575C96.3741 129.601 96.6463 129.625 96.9053 129.637C97.424 129.661 97.8574 129.64 98.2539 129.522C98.9994 129.3 99.7617 128.691 100.655 126.938V94.6847C100.2 94.9871 99.6686 95.1798 99.0147 95.2804C98.0342 95.4312 96.7648 95.3792 95.0479 95.2033C95.032 95.2016 95.0157 95.1996 95 95.1964C69.8261 90.1363 55.0775 86.8668 28.4258 80.6291V113.722ZM101.655 127.035C101.655 127.132 101.631 127.224 101.591 127.305C100.628 129.224 99.6825 130.139 98.5391 130.48C97.9853 130.644 97.4221 130.662 96.8584 130.636C96.5764 130.623 96.285 130.597 95.9912 130.571C95.6948 130.546 95.3936 130.519 95.0772 130.5C95.0436 130.498 95.0094 130.492 94.9756 130.485L27.8877 114.622C27.6171 114.558 27.4258 114.316 27.4258 114.038V80.1261C27.4259 79.7525 27.7543 79.4913 28.0957 79.5304L28.1641 79.5421L37.7452 81.7765C58.9639 86.6981 73.0334 89.7601 95.1661 94.2091C96.8694 94.3832 98.0221 94.4213 98.8623 94.2921C99.6751 94.1671 100.175 93.8898 100.596 93.421L100.669 93.3517C100.848 93.208 101.076 93.192 101.253 93.255C101.458 93.3281 101.655 93.5304 101.655 93.8224V127.035Z" fill="#A24924"/>
<path d="M28.4258 101.368L96.2862 117.154C97.7174 117.391 98.649 117.408 99.3702 117.185C100.04 116.978 100.589 116.542 101.205 115.715V110.615C100.667 111.044 100.094 111.317 99.4385 111.477C98.5261 111.7 97.472 111.705 96.1993 111.677L96.0762 111.662L28.4258 95.9234V101.368ZM102.205 115.85C102.205 115.978 102.164 116.102 102.091 116.203C101.375 117.19 100.647 117.837 99.6651 118.141C98.7083 118.437 97.5793 118.383 96.1182 118.141C96.1076 118.139 96.0964 118.137 96.086 118.134L27.8897 102.27C27.6182 102.207 27.426 101.965 27.4258 101.686V95.4205C27.4258 95.0582 27.7422 94.7843 28.0918 94.8238L28.1621 94.8365L96.2627 110.677C97.5289 110.704 98.4435 110.692 99.2012 110.506C99.937 110.327 100.538 109.981 101.15 109.294L101.219 109.227C101.582 108.931 102.205 109.143 102.205 109.692V115.85Z" fill="#5E2C1C"/>
<path d="M28.4258 79.0144L96.2862 94.8005C97.7174 95.0376 98.649 95.0548 99.3702 94.8318C100.04 94.6246 100.589 94.1887 101.205 93.3621V88.2615C100.667 88.6909 100.094 88.9636 99.4385 89.1238C98.5261 89.3467 97.472 89.3519 96.1993 89.324L96.0762 89.3084L28.4258 73.5701V79.0144ZM102.205 93.4968C102.205 93.625 102.164 93.7485 102.091 93.8494C101.375 94.8363 100.647 95.4842 99.6651 95.7878C98.7083 96.0836 97.5793 96.0301 96.1182 95.7878C96.1076 95.7861 96.0964 95.7834 96.086 95.781L27.8897 79.9168C27.6182 79.8535 27.426 79.6115 27.4258 79.3328V73.0672C27.4258 72.7049 27.7422 72.4309 28.0918 72.4705L28.1621 72.4832L96.2627 88.324C97.5289 88.351 98.4435 88.3382 99.2012 88.1531C99.937 87.9733 100.538 87.6275 101.15 86.9402L101.219 86.8738C101.582 86.5776 102.205 86.7895 102.205 87.3386V93.4968Z" fill="#5E2C1C"/>
<path d="M95.0982 94.7061C69.7769 89.6163 55.0074 86.3409 28.05 80.0293C27.9873 80.0147 27.9256 80.0619 27.9256 80.1263V114.039C27.9256 114.085 27.9575 114.125 28.0026 114.136L95.0898 129.998C95.0954 130 95.1012 130 95.1069 130.001C97.7032 130.158 99.2689 130.817 101.144 127.081C101.151 127.067 101.155 127.051 101.155 127.035V93.8226C101.155 93.7272 101.031 93.6841 100.967 93.7551C99.953 94.8866 98.528 95.0576 95.0982 94.7061Z" fill="#A24924"/>
<path d="M68.183 42.3952C70.1933 44.0254 100.524 78.2444 102.101 86.4705C103.678 94.6967 40.6153 74.5773 29.2383 73.7727C17.8614 72.9681 66.1727 40.7649 68.183 42.3952Z" fill="#713C26"/>
<path d="M96.1893 111.175L28.0483 95.3231C27.9855 95.3085 27.9256 95.3561 27.9256 95.4205V101.686C27.9256 101.732 27.9576 101.773 28.0029 101.783L96.1994 117.648C99.0948 118.128 100.324 117.789 101.686 115.909C101.698 115.892 101.705 115.872 101.705 115.851V109.692C101.705 109.598 101.586 109.556 101.523 109.626C100.171 111.144 98.7705 111.233 96.2099 111.177C96.203 111.177 96.196 111.176 96.1893 111.175Z" fill="#5E2C1C"/>
<path d="M96.1893 88.8212L28.0483 72.9698C27.9855 72.9552 27.9256 73.0028 27.9256 73.0672V79.3324C27.9256 79.3789 27.9576 79.4193 28.0029 79.4298L96.1994 95.2942C99.0948 95.7742 100.324 95.4357 101.686 93.556C101.698 93.539 101.705 93.5182 101.705 93.4972V87.3389C101.705 87.245 101.586 87.2023 101.523 87.2725C100.171 88.7907 98.7705 88.8799 96.2099 88.8238C96.203 88.8237 96.196 88.8228 96.1893 88.8212Z" fill="#5E2C1C"/>
<path d="M38.9377 111.177C38.9377 112.151 38.1982 112.941 37.2859 112.941C36.3737 112.941 35.6342 112.151 35.6342 111.177C35.6342 110.202 36.3737 109.412 37.2859 109.412C38.1982 109.412 38.9377 110.202 38.9377 111.177Z" fill="#7F3923"/>
<path d="M60.9614 115.883C60.9614 116.857 60.2219 117.648 59.3096 117.648C58.3974 117.648 57.6578 116.857 57.6578 115.883C57.6578 114.908 58.3974 114.118 59.3096 114.118C60.2219 114.118 60.9614 114.908 60.9614 115.883Z" fill="#7F3923"/>
<path d="M79.6816 120.589C79.6816 121.563 78.9421 122.353 78.0299 122.353C77.1176 122.353 76.3781 121.563 76.3781 120.589C76.3781 119.614 77.1176 118.824 78.0299 118.824C78.9421 118.824 79.6816 119.614 79.6816 120.589Z" fill="#7F3923"/>
<path d="M74.1758 99.4116C74.1758 100.386 73.4362 101.176 72.524 101.176C71.6117 101.176 70.8722 100.386 70.8722 99.4116C70.8722 98.437 71.6117 97.6469 72.524 97.6469C73.4362 97.6469 74.1758 98.437 74.1758 99.4116Z" fill="#7F3923"/>
<path d="M86.2891 101.765C86.2891 102.74 85.5495 103.53 84.6373 103.53C83.725 103.53 82.9855 102.74 82.9855 101.765C82.9855 100.79 83.725 100 84.6373 100C85.5495 100 86.2891 100.79 86.2891 101.765Z" fill="#7F3923"/>
<path d="M54.3545 95.8829C54.3545 96.8575 53.6149 97.6476 52.7027 97.6476C51.7904 97.6476 51.0509 96.8575 51.0509 95.8829C51.0509 94.9082 51.7904 94.1181 52.7027 94.1181C53.6149 94.1181 54.3545 94.9082 54.3545 95.8829Z" fill="#7F3923"/>
<path d="M41.1401 91.1767C41.1401 92.1513 40.4006 92.9414 39.4883 92.9414C38.5761 92.9414 37.8366 92.1513 37.8366 91.1767C37.8366 90.2021 38.5761 89.412 39.4883 89.412C40.4006 89.412 41.1401 90.2021 41.1401 91.1767Z" fill="#7F3923"/>
<path d="M60.5957 35.3337C69.3699 37.2249 72.2913 40.7754 74.1593 51.0837C74.1686 51.1352 74.1368 51.1868 74.0861 51.1999L44.6116 58.7807C44.5371 58.7999 44.4703 58.7291 44.4914 58.6551C46.3304 52.1718 49.0547 49.7051 55.4558 46.4709C60.5392 42.9288 62.4837 40.7027 60.4796 35.4704C60.4511 35.3959 60.5178 35.3169 60.5957 35.3337Z" fill="#FEE3BA"/>
<path d="M60.0123 35.6489C59.8449 35.211 60.2275 34.7433 60.7008 34.8452C65.1344 35.8008 68.1836 37.1948 70.3473 39.728C72.498 42.2461 73.7137 45.8222 74.651 50.9946C74.7053 51.2942 74.5247 51.6032 74.2105 51.684L44.7359 59.2651C44.2723 59.3841 43.8888 58.9486 44.0103 58.519L44.1881 57.9126C45.0924 54.9399 46.2265 52.7914 47.8971 51.0034C49.6637 49.1126 51.9993 47.6586 55.1939 46.0424C57.7306 44.2735 59.3789 42.8981 60.1832 41.3715C60.9624 39.8926 60.9855 38.1898 60.0123 35.6489ZM61.192 35.9809C61.9772 38.3352 61.9468 40.169 61.068 41.8374C60.1328 43.6125 58.2745 45.1166 55.7418 46.8813C55.7226 46.8947 55.7022 46.9069 55.6812 46.9174C52.4934 48.5281 50.2774 49.9213 48.6285 51.686C47.1062 53.3153 46.0409 55.2912 45.1715 58.1196L73.5982 50.8081C72.678 45.878 71.5106 42.6292 69.5875 40.3774C67.7374 38.2114 65.1358 36.9073 61.192 35.9809Z" fill="#FEE3BA"/>
<path d="M82.9857 59.4119C82.9857 66.2342 74.1113 71.7648 63.1643 71.7648C52.2172 71.7648 43.3428 66.2342 43.3428 59.4119C43.3428 52.5895 52.2172 47.0589 63.1643 47.0589C74.1113 47.0589 82.9857 52.5895 82.9857 59.4119Z" fill="#FFE3B3"/>
<path d="M75.7724 50.5585L73.7209 49.4626C73.6695 49.4352 73.6049 49.4589 73.5813 49.5122C70.4938 56.456 65.8625 57.6437 56.7604 58.7978C56.6782 58.8083 56.6407 58.906 56.7032 58.9603C59.2059 61.1342 68.1862 61.1409 71.4233 59.4118C74.7076 57.6573 75.6546 54.2389 75.8251 50.6513C75.8269 50.6128 75.8064 50.5767 75.7724 50.5585Z" fill="#FDD090"/>
<path d="M73.8345 48.9723L73.9566 49.0221L76.0084 50.1178C76.2121 50.2268 76.3358 50.4438 76.3248 50.6754C76.152 54.3091 75.1859 57.969 71.6588 59.8532C70.7778 60.3237 69.5463 60.6586 68.1871 60.8707C66.819 61.0843 65.2848 61.1792 63.7779 61.15C62.2722 61.1209 60.7794 60.9676 59.4947 60.6793C58.2255 60.3945 57.0961 59.9635 56.3755 59.3375C56.1748 59.1632 56.1313 58.902 56.2076 58.692C56.281 58.4903 56.4638 58.3311 56.6978 58.3014L58.3521 58.0836C62.0839 57.5681 64.9347 56.9857 67.2066 55.8766C69.7658 54.6271 71.6205 52.6919 73.1246 49.3092L73.1861 49.2018C73.3298 49.003 73.5879 48.903 73.8345 48.9723ZM73.858 50.1032C72.3026 53.4314 70.3459 55.4568 67.6461 56.775C65.1148 58.0108 61.9573 58.6088 57.9595 59.1432C58.4415 59.3596 59.032 59.5508 59.7134 59.7037C60.9173 59.9739 62.341 60.1219 63.7974 60.15C65.253 60.1782 66.7284 60.086 68.0328 59.8825C69.3456 59.6775 70.4506 59.3643 71.188 58.9703C74.157 57.3841 75.1099 54.3183 75.3101 50.8785L73.858 50.1032Z" fill="#FDD090"/>
<path d="M163.58 117.353C163.746 117.467 163.867 117.638 163.919 117.84C164.784 121.196 162.996 127.477 158.866 131.887C158.571 132.202 158.23 132.463 157.859 132.665C152.603 135.53 145.85 136.674 143.457 133.266C140.154 128.56 143.457 121.501 148.044 117.533C152.701 114.517 160.152 115.004 163.58 117.353Z" fill="#939423"/>
<path d="M136.081 116.505C139.169 121.722 139.172 127.64 136.088 129.723C133.003 131.807 128 129.267 124.912 124.049C122.625 117.646 122.074 114.705 124.906 110.831C128.681 110.588 131.985 111.764 136.081 116.505Z" fill="#939423"/>
<path d="M129.718 120.388C130.153 120.048 130.781 120.126 131.121 120.561C135.904 126.688 137.922 130.299 139.829 135.707C143.894 131.264 147.805 128.154 153.405 123.909C153.845 123.575 154.472 123.661 154.806 124.101C155.14 124.541 155.053 125.169 154.613 125.502C148.509 130.13 144.541 133.312 140.19 138.304C138.719 139.991 137.201 141.89 135.541 144.125C135.212 144.569 134.585 144.661 134.142 144.332C133.699 144.003 133.606 143.376 133.935 142.933C135.48 140.852 136.913 139.047 138.306 137.425C136.359 131.635 134.515 128.158 129.545 121.791C129.205 121.356 129.283 120.728 129.718 120.388Z" fill="#677D1B"/>
<path d="M147.362 69.7123C148.979 67.5304 152.253 67.5588 153.831 69.7683L174.313 98.4401C175.576 100.207 175.205 102.67 173.424 103.913C166.143 108.993 160.106 111.562 150.635 112.353C138.275 111.686 131.466 109.438 125.866 103.94C124.545 102.643 124.504 100.568 125.606 99.0805L147.362 69.7123Z" fill="#E19DAF"/>
<path d="M170.42 94.1726C154.557 102.337 146.3 102.92 129.892 94.7602C129.836 94.7324 129.817 94.6598 129.854 94.6098L131.955 91.8039C131.974 91.7791 132.003 91.7643 132.034 91.7638L168.273 91.1772C168.305 91.1767 168.336 91.1916 168.355 91.2172L170.456 94.0229C170.493 94.0724 170.475 94.1443 170.42 94.1726Z" fill="#D695AC"/>
<path d="M168.265 90.6773C168.433 90.6746 168.593 90.7428 168.708 90.8629L168.755 90.9176L170.856 93.7232C171.086 94.031 170.967 94.4529 170.649 94.6168C162.699 98.709 156.586 100.939 150.372 101.088C144.155 101.238 137.902 99.3019 129.669 95.2076C129.347 95.0473 129.221 94.6216 129.454 94.3102L131.555 91.5045L131.6 91.4518C131.71 91.3351 131.863 91.2669 132.026 91.2643L168.265 90.6773ZM132.238 92.2594L130.544 94.5211C138.505 98.4393 144.475 100.229 150.349 100.088C156.225 99.9474 162.066 97.8738 169.77 93.941L168.076 91.6803L132.238 92.2594Z" fill="#D695AC"/>
<path d="M147.159 64.41C148.762 62.0377 152.264 62.067 153.826 64.4658L168.948 87.6862C170.132 89.505 169.662 91.9574 167.801 93.0743C162.235 96.4144 157.88 97.5421 150.838 98.2071C150.638 98.226 150.43 98.2292 150.23 98.2169C141.24 97.6617 136.679 96.3333 132.1 93.1588C130.412 91.989 130.107 89.6608 131.256 87.9591L147.159 64.41Z" fill="#FECEC1"/>
<path d="M136.478 81.6518L139.113 78.2738C139.132 78.2495 139.161 78.2353 139.192 78.2353H161.662C161.696 78.2353 161.728 78.2531 161.747 78.2824L163.851 81.6542C163.885 81.71 163.856 81.7842 163.793 81.8034C152.369 85.2794 147.403 85.2813 136.529 81.8091C136.462 81.788 136.435 81.7066 136.478 81.6518Z" fill="#FCC2B5"/>
<path d="M161.661 77.7353C161.843 77.7353 162.013 77.8169 162.126 77.9551L162.171 78.0176L164.275 81.3896C164.492 81.7374 164.301 82.1707 163.939 82.2812C158.212 84.0237 154.058 84.9111 149.955 84.9121C145.85 84.9131 141.832 84.027 136.376 82.2851C135.995 82.1632 135.817 81.6871 136.084 81.3447L138.719 77.9668L138.764 77.915C138.876 77.8009 139.03 77.7354 139.192 77.7353H161.661ZM137.227 81.5039C142.365 83.118 146.137 83.913 149.955 83.9121C153.793 83.9111 157.713 83.1068 163.149 81.4746L161.44 78.7353H139.387L137.227 81.5039Z" fill="#FCC2B5"/>
<path d="M146.774 59.1489C148.375 56.7665 151.89 56.7958 153.451 59.2047L162.909 73.7997C164.085 75.6152 163.624 78.0742 161.737 79.1313C158.149 81.1409 155.116 81.8776 150.458 82.3249C150.258 82.3442 150.05 82.3474 149.849 82.3347C143.929 81.9612 140.674 81.1152 137.628 79.2011C135.895 78.1126 135.604 75.7704 136.745 74.0721L146.774 59.1489Z" fill="#FFE4B7"/>
</svg>
