<svg width="200" height="200" viewBox="0 0 200 200" fill="none" xmlns="http://www.w3.org/2000/svg">
<ellipse cx="99.5" cy="116.47" rx="92.5" ry="63.5294" fill="#563020"/>
<ellipse cx="99.5" cy="111.177" rx="92.5" ry="62.9412" fill="#7C4833"/>
<ellipse cx="100.051" cy="106.471" rx="77.6339" ry="50" fill="#6D3D29"/>
<path d="M142.997 58.8237C142.997 65.3211 131.658 72.9413 117.67 72.9413C103.682 72.9413 91.7917 65.3211 91.7917 58.8237C91.7917 52.3262 103.131 40.5884 117.119 40.5884C131.107 40.5884 142.997 52.3262 142.997 58.8237Z" fill="#EE8E19"/>
<path d="M134.738 85.8822L141.896 61.1763C140.98 62.0711 140.252 62.3424 137.391 61.1763C134.744 66.0277 132.693 66.4407 128.382 64.5149C122.365 69.52 120.201 67.7678 116.556 63.8472C110.088 68.5365 107.748 67.9174 103.592 62.5117C97.9617 65.31 96.0028 64.0042 92.8931 61.1763L99.3777 85.8822H134.738Z" fill="#E47F15" stroke="#E17A10"/>
<path d="M135.289 86.1381C135.289 89.5281 127.154 94.1176 117.119 94.1176C107.084 94.1176 98.9495 89.5281 98.9495 86.1381C98.9495 82.7481 107.084 80 117.119 80C127.154 80 135.289 82.7481 135.289 86.1381Z" fill="#E47F15"/>
<path d="M137.491 61.1763L131.985 89.4116" stroke="#E17A10" stroke-linecap="round"/>
<path d="M128.682 64.7056L127.03 91.7644" stroke="#E17A10" stroke-linecap="round"/>
<path d="M116.569 64.7056L117.119 93.5291" stroke="#E17A10" stroke-linecap="round"/>
<path d="M103.354 62.9409L107.208 91.7644" stroke="#E17A10" stroke-linecap="round"/>
<path d="M114 20.0393C122.774 21.9305 125.695 25.481 127.563 35.7893C127.573 35.8409 127.541 35.8924 127.49 35.9055L98.0158 43.4863C97.9413 43.5055 97.8746 43.4347 97.8956 43.3607C99.7346 36.8774 102.459 34.4107 108.86 31.1765C113.943 27.6345 115.888 25.4083 113.884 20.176C113.855 20.1016 113.922 20.0226 114 20.0393Z" fill="#FEE3BA" stroke="#FEE3BA" stroke-linecap="round" stroke-linejoin="round"/>
<ellipse cx="116.568" cy="44.1176" rx="19.8214" ry="12.3529" fill="#FFE3B3"/>
<path d="M129.176 35.2649L127.125 34.1691C127.074 34.1416 127.009 34.1653 126.985 34.2186C123.898 41.1624 119.267 42.3501 110.164 43.5043C110.082 43.5147 110.045 43.6124 110.107 43.6667C112.61 45.8406 121.59 45.8473 124.827 44.1182C128.112 42.3637 129.059 38.9453 129.229 35.3577C129.231 35.3192 129.21 35.2831 129.176 35.2649Z" fill="#FDD090" stroke="#FDD090" stroke-linecap="round" stroke-linejoin="round"/>
<ellipse cx="112.164" cy="28.2348" rx="2.20238" ry="2.35294" fill="#ED5F55"/>
<ellipse cx="129.783" cy="45.8822" rx="2.20238" ry="2.35294" fill="#ED5F55"/>
<ellipse cx="125.378" cy="34.1176" rx="2.20238" ry="2.35294" fill="#ED5F55"/>
<ellipse cx="114.366" cy="50.5883" rx="2.20238" ry="2.35294" fill="#ED5F55"/>
<ellipse cx="102.253" cy="39.9994" rx="2.20238" ry="2.35294" fill="#ED5F55"/>
<path d="M57.655 130.058C65.0573 137.193 70.1438 140.727 81.3306 145.94" stroke="#E17A10" stroke-width="4" stroke-linecap="round"/>
<path d="M122.626 128.881C121.524 140.058 112.715 144.176 96.1316 143.565C82.4833 142.512 70.3189 135.94 72.1426 128.412C72.5421 122.498 84.9882 112.676 98.6365 113.728C112.285 114.781 123.025 122.968 122.626 128.881Z" fill="#EF8215"/>
<ellipse cx="125.378" cy="145.941" rx="2.20238" ry="2.35294" fill="#EF8215"/>
<path d="M95.0989 94.7059C69.7776 89.6161 55.0081 86.3407 28.0507 80.0291C27.988 80.0144 27.9263 80.0617 27.9263 80.1261V114.039C27.9263 114.085 27.9581 114.125 28.0033 114.136L95.0905 129.998C95.0961 129.999 95.1019 130 95.1076 130.001C97.7039 130.158 99.2695 130.817 101.145 127.081C101.152 127.067 101.155 127.051 101.155 127.035V93.8224C101.155 93.727 101.032 93.6839 100.968 93.7549C99.9537 94.8864 98.5286 95.0574 95.0989 94.7059Z" fill="#A24924" stroke="#A24924" stroke-linecap="round" stroke-linejoin="round"/>
<path d="M68.1837 42.3949C70.194 44.0251 100.525 78.2441 102.102 86.4703C103.678 94.6964 40.616 74.577 29.239 73.7724C17.8621 72.9679 66.1733 40.7647 68.1837 42.3949Z" fill="#713C26"/>
<path d="M96.19 111.174L28.0489 95.323C27.9862 95.3084 27.9263 95.356 27.9263 95.4204V101.686C27.9263 101.732 27.9583 101.772 28.0036 101.783L96.2001 117.647C99.0955 118.127 100.324 117.789 101.687 115.909C101.699 115.892 101.706 115.871 101.706 115.85V109.692C101.706 109.598 101.586 109.556 101.524 109.626C100.172 111.144 98.7712 111.233 96.2106 111.177C96.2037 111.177 96.1967 111.176 96.19 111.174Z" fill="#5E2C1C" stroke="#5E2C1C" stroke-linecap="round" stroke-linejoin="round"/>
<path d="M96.19 88.8209L28.0489 72.9695C27.9862 72.9549 27.9263 73.0025 27.9263 73.0669V79.3321C27.9263 79.3786 27.9583 79.419 28.0036 79.4295L96.2001 95.2939C99.0955 95.7739 100.324 95.4354 101.687 93.5557C101.699 93.5387 101.706 93.5179 101.706 93.4969V87.3386C101.706 87.2446 101.586 87.202 101.524 87.2722C100.172 88.7904 98.7712 88.8796 96.2106 88.8235C96.2037 88.8233 96.1967 88.8225 96.19 88.8209Z" fill="#5E2C1C" stroke="#5E2C1C" stroke-linecap="round" stroke-linejoin="round"/>
<ellipse cx="37.2863" cy="111.176" rx="1.65179" ry="1.76471" fill="#7F3923"/>
<ellipse cx="59.31" cy="115.883" rx="1.65179" ry="1.76471" fill="#7F3923"/>
<ellipse cx="78.0302" cy="120.588" rx="1.65179" ry="1.76471" fill="#7F3923"/>
<ellipse cx="72.5243" cy="99.4112" rx="1.65179" ry="1.76471" fill="#7F3923"/>
<ellipse cx="84.6376" cy="101.765" rx="1.65179" ry="1.76471" fill="#7F3923"/>
<ellipse cx="52.7031" cy="95.8829" rx="1.65179" ry="1.76471" fill="#7F3923"/>
<ellipse cx="39.4887" cy="91.1763" rx="1.65179" ry="1.76471" fill="#7F3923"/>
<path d="M60.5956 35.3338C69.3698 37.2249 72.2912 40.7754 74.1592 51.0838C74.1685 51.1353 74.1368 51.1869 74.086 51.1999L44.6115 58.7807C44.537 58.7999 44.4703 58.7292 44.4913 58.6551C46.3303 52.1718 49.0546 49.7052 55.4558 46.4709C60.5391 42.9289 62.4836 40.7027 60.4795 35.4704C60.451 35.396 60.5177 35.317 60.5956 35.3338Z" fill="#FEE3BA" stroke="#FEE3BA" stroke-linecap="round" stroke-linejoin="round"/>
<ellipse cx="63.1642" cy="59.412" rx="19.8214" ry="12.3529" fill="#FFE3B3"/>
<path d="M75.7723 50.5584L73.7208 49.4625C73.6695 49.4351 73.6049 49.4588 73.5812 49.512C70.4937 56.4559 65.8625 57.6436 56.7603 58.7977C56.6781 58.8081 56.6406 58.9059 56.7031 58.9602C59.2059 61.1341 68.1862 61.1408 71.4232 59.4116C74.7075 57.6572 75.6546 54.2387 75.825 50.6511C75.8269 50.6127 75.8063 50.5765 75.7723 50.5584Z" fill="#FDD090" stroke="#FDD090" stroke-linecap="round" stroke-linejoin="round"/>
<path d="M163.58 117.353C163.746 117.466 163.867 117.638 163.919 117.84C164.784 121.196 162.996 127.477 158.866 131.887C158.571 132.202 158.23 132.463 157.859 132.665C152.603 135.53 145.85 136.674 143.457 133.266C140.154 128.56 143.457 121.501 148.044 117.532C152.701 114.517 160.152 115.004 163.58 117.353Z" fill="#939423"/>
<path d="M136.081 116.504C139.169 121.722 139.172 127.64 136.088 129.723C133.003 131.807 128 129.267 124.912 124.049C122.625 117.646 122.074 114.705 124.906 110.831C128.681 110.588 131.985 111.764 136.081 116.504Z" fill="#939423"/>
<path d="M134.738 143.529C136.411 141.277 137.945 139.357 139.436 137.647M154.009 124.706C147.895 129.34 143.859 132.573 139.436 137.647M139.436 137.647C137.38 131.409 135.517 127.817 130.333 121.176" stroke="#677D1B" stroke-width="2" stroke-linecap="round"/>
<path d="M147.362 69.7124C148.979 67.5306 152.253 67.5589 153.831 69.7684L174.313 98.4402C175.576 100.207 175.205 102.671 173.424 103.913C166.143 108.994 160.106 111.562 150.635 112.353C138.275 111.686 131.466 109.438 125.866 103.94C124.545 102.643 124.504 100.568 125.606 99.0806L147.362 69.7124Z" fill="#E19DAF"/>
<path d="M170.42 94.1725C154.557 102.337 146.3 102.92 129.892 94.7601C129.836 94.7323 129.817 94.6597 129.854 94.6097L131.955 91.8038C131.974 91.779 132.003 91.7642 132.034 91.7637L168.273 91.1771C168.305 91.1766 168.336 91.1915 168.355 91.2171L170.456 94.0228C170.493 94.0723 170.475 94.1442 170.42 94.1725Z" fill="#D695AC" stroke="#D695AC" stroke-linecap="round"/>
<path d="M147.159 64.4098C148.762 62.0376 152.264 62.0669 153.826 64.4656L168.948 87.686C170.132 89.5048 169.662 91.9573 167.801 93.0742C162.235 96.4143 157.88 97.542 150.838 98.207C150.638 98.2259 150.43 98.2291 150.23 98.2167C141.24 97.6616 136.679 96.3332 132.1 93.1587C130.412 91.9889 130.107 89.6606 131.256 87.9589L147.159 64.4098Z" fill="#FECEC1"/>
<path d="M136.478 81.6518L139.113 78.2738C139.132 78.2496 139.161 78.2354 139.192 78.2354H161.662C161.696 78.2354 161.728 78.2531 161.747 78.2824L163.851 81.6542C163.885 81.71 163.856 81.7842 163.793 81.8034C152.369 85.2794 147.403 85.2813 136.529 81.8091C136.462 81.788 136.435 81.7066 136.478 81.6518Z" fill="#FCC2B5" stroke="#FCC2B5" stroke-linecap="round"/>
<path d="M146.774 59.1489C148.375 56.7665 151.89 56.7959 153.451 59.2047L162.909 73.7998C164.085 75.6153 163.624 78.0742 161.737 79.1313C158.149 81.1409 155.116 81.8776 150.458 82.3249C150.258 82.3442 150.05 82.3474 149.849 82.3347C143.929 81.9613 140.674 81.1152 137.628 79.2012C135.895 78.1126 135.604 75.7705 136.745 74.0721L146.774 59.1489Z" fill="#FFE4B7"/>
</svg>
