<svg width="200" height="200" viewBox="0 0 200 200" fill="none" xmlns="http://www.w3.org/2000/svg">
<ellipse cx="100" cy="114.552" rx="95" ry="60.4478" fill="#01070B"/>
<ellipse cx="100" cy="109.515" rx="95" ry="59.8881" fill="#1D171A"/>
<ellipse cx="100.566" cy="105.038" rx="79.7321" ry="47.5746" fill="#03090D"/>
<ellipse cx="6.58255" cy="19.7714" rx="6.58255" ry="19.7714" transform="matrix(-0.999067 -0.0431902 -0.0440843 0.999028 138.646 25.5688)" fill="#FF7932"/>
<path d="M131.927 66.6805C131.002 66.6541 130.101 66.106 129.275 65.0674C128.45 64.0289 127.717 62.5203 127.117 60.6278C126.517 58.7353 126.063 56.4959 125.78 54.0375C125.497 51.5791 125.392 48.9498 125.469 46.2998C125.546 43.6497 125.805 41.0308 126.23 38.5926C126.656 36.1544 127.239 33.9447 127.948 32.0895C128.657 30.2343 129.477 28.7701 130.361 27.7803C131.246 26.7906 132.177 26.2948 133.103 26.3212L132.515 46.5008L131.927 66.6805Z" fill="#E36726"/>
<ellipse cx="6.55019" cy="19.8701" rx="6.55019" ry="19.8701" transform="matrix(-0.721545 -0.692367 0.699733 -0.714404 135.464 71.9219)" fill="#FF7932"/>
<path d="M158.734 38.8943C158.081 38.2457 157.06 37.9724 155.73 38.0899C154.4 38.2074 152.788 38.7134 150.985 39.579C149.182 40.4446 147.224 41.6529 145.222 43.1349C143.22 44.6168 141.214 46.3435 139.318 48.2162C137.422 50.0889 135.674 52.071 134.172 54.0493C132.671 56.0276 131.446 57.9635 130.568 59.7462C129.69 61.529 129.175 63.1238 129.054 64.4397C128.932 65.7555 129.206 66.7665 129.86 67.415L144.297 53.1547L158.734 38.8943Z" fill="#E36726"/>
<path d="M75.2116 94.8429C66.6161 88.9355 58.6908 85.4391 47.0643 82.7655C42.1482 81.6351 37.3478 85.0648 36.9486 90.0934C36.4169 96.7906 36.6308 103.189 37.6415 113.029C37.8884 115.433 39.1133 117.647 41.0567 119.083C50.9058 126.362 58.5464 129.687 69.6193 132.081C74.1397 133.058 78.6501 130.188 79.195 125.596C79.892 119.721 79.7604 112.719 78.8491 101.25C78.6448 98.6791 77.3372 96.3038 75.2116 94.8429Z" fill="#FFF7D8" stroke="#78A52B" stroke-width="4"/>
<path d="M55.4912 95.0498C58.4265 95.0498 61.7921 96.7556 64.4258 99.1025C65.7417 100.275 66.873 101.606 67.6748 102.961C68.4769 104.316 68.9481 105.692 68.9482 106.956C68.9482 109.51 69.0173 112.764 68.3506 115.38C68.0174 116.687 67.5008 117.829 66.7051 118.645C65.9108 119.458 64.8345 119.95 63.3711 119.95C61.9068 119.95 60.1935 119.458 58.4453 118.637C56.698 117.816 54.9187 116.669 53.3223 115.362C51.7256 114.055 50.313 112.59 49.2988 111.134C48.2841 109.677 47.6718 108.236 47.666 106.975L47.6562 106.922C45.43 100.981 49.6287 95.0499 55.4912 95.0498Z" fill="#FF812F" stroke="#2C2422" stroke-width="0.1"/>
<path d="M67.6724 102.911C65.9066 104.944 61.4452 106.996 58.8425 107.265C58.7788 107.272 58.7382 107.335 58.7577 107.396C60.4463 112.676 63.7437 115.846 64.3589 120.039C64.3675 120.098 64.4248 120.137 64.4821 120.121C68.9158 118.895 71.6607 110.124 67.8381 102.93C67.8048 102.868 67.7189 102.858 67.6724 102.911Z" fill="#9BBD42" stroke="#78A52B" stroke-width="0.1"/>
<path d="M67.7539 102.839C67.066 104.538 62.2232 106.677 58.7594 107.27C58.7339 107.274 58.7071 107.268 58.6858 107.253C52.4106 102.94 54.7176 100.038 49.786 96.7164C49.7313 96.6796 49.7236 96.5986 49.7736 96.5557C54.8588 92.1834 62.6811 93.1926 67.7484 102.759C67.7616 102.784 67.7645 102.813 67.7539 102.839Z" fill="#FFDA87" stroke="#FBDC99" stroke-width="0.1"/>
<path d="M47.422 108.407C49.6665 110.615 53.9551 110.916 58.5927 107.374C58.6513 107.329 58.644 107.238 58.5794 107.202C55.3053 105.4 54.1404 98.3413 49.7146 96.6572C49.6884 96.6472 49.6583 96.6492 49.6334 96.6622C45.0252 99.0689 46.2776 106.134 47.4034 108.381C47.4082 108.391 47.4143 108.399 47.422 108.407Z" fill="#FACB40" stroke="#F89D1F" stroke-width="0.1"/>
<path d="M128.807 102.577C127.044 105.418 81.5318 130.049 79.1541 130.768C79.0954 130.786 79.0847 130.735 79.0943 130.674C80.2528 123.294 84.6923 102.035 76.8115 93.6808C72.3276 88.9278 45.2541 81.8565 41.5056 81.7057C41.4191 81.7656 41.3326 81.8256 41.246 81.8858C41.2107 81.9103 41.1447 81.8969 41.1152 81.8657C40.9978 81.7416 41.1419 81.6911 41.5056 81.7057C58.4185 70.0032 73.1501 64.4005 94.3413 57.0325C109.472 51.8395 116.822 51.0623 125.442 58.1519C147.287 73.7895 133.502 101.32 129.035 102.34C128.952 102.359 128.852 102.505 128.807 102.577Z" fill="#8BB53D" stroke="#4E9319" stroke-width="0.1"/>
<path d="M88.1247 86.0074C79.9178 75.4304 70.3917 75.3407 56.2081 73.1825C56.1115 73.1678 56.0887 73.0372 56.1763 72.9939L60.3888 70.9091C60.4068 70.9002 60.4273 70.897 60.4471 70.8997C74.6024 72.8564 84.6779 73.8166 92.6485 84.888C101.485 97.1625 98.6312 107.313 93.2263 123.471C93.2185 123.494 93.2021 123.514 93.1806 123.526L89.4912 125.613C89.4103 125.659 89.317 125.577 89.3486 125.49C95.1076 109.569 97.6276 98.2546 88.1247 86.0074Z" fill="#78A52B"/>
<path d="M74.5329 64.7463L70.4572 66.2591C70.3566 66.2964 70.3609 66.4463 70.4677 66.4563C73.881 66.7763 96.2844 69.2578 103.958 79.8507C112.079 91.0611 105.911 114.404 105.161 117.096C105.136 117.186 105.239 117.252 105.317 117.2L108.452 115.132C108.471 115.119 108.48 115.118 108.487 115.095C108.705 114.362 116.017 89.4801 107.351 77.6119C99.3568 66.664 75.0232 64.7743 74.56 64.7393C74.5457 64.7382 74.5463 64.7413 74.5329 64.7463Z" fill="#78A52B"/>
<path d="M91.4991 58.5894L86.3828 60.615C86.279 60.6561 86.3005 60.8158 86.4121 60.8155C90.1229 60.806 111.607 61.1782 119.226 70.8955C127.906 81.9662 119.221 105.973 118.192 108.701C118.159 108.789 118.258 108.863 118.34 108.816L122.022 106.734C122.042 106.723 122.051 106.723 122.059 106.701C122.331 106 132.055 80.6901 123.184 69.2164C115.32 59.0446 91.9478 58.5896 91.5234 58.5821C91.5103 58.5819 91.5113 58.5845 91.4991 58.5894Z" fill="#78A52B"/>
<path d="M88.1247 86.0074C79.9178 75.4304 70.3917 75.3407 56.2081 73.1825C56.1115 73.1678 56.0887 73.0372 56.1763 72.9939L60.3888 70.9091C60.4068 70.9002 60.4273 70.897 60.4471 70.8997C74.6024 72.8564 84.6779 73.8166 92.6485 84.888C101.485 97.1625 98.6312 107.313 93.2263 123.471C93.2185 123.494 93.2021 123.514 93.1806 123.526L89.4912 125.613C89.4103 125.659 89.317 125.577 89.3486 125.49C95.1076 109.569 97.6276 98.2546 88.1247 86.0074Z" stroke="#78A52B"/>
<path d="M74.5329 64.7463L70.4572 66.2591C70.3566 66.2964 70.3609 66.4463 70.4677 66.4563C73.881 66.7763 96.2844 69.2578 103.958 79.8507C112.079 91.0611 105.911 114.404 105.161 117.096C105.136 117.186 105.239 117.252 105.317 117.2L108.452 115.132C108.471 115.119 108.48 115.118 108.487 115.095C108.705 114.362 116.017 89.4801 107.351 77.6119C99.3568 66.664 75.0232 64.7743 74.56 64.7393C74.5457 64.7382 74.5463 64.7413 74.5329 64.7463Z" stroke="#78A52B"/>
<path d="M91.4991 58.5894L86.3828 60.615C86.279 60.6561 86.3005 60.8158 86.4121 60.8155C90.1229 60.806 111.607 61.1782 119.226 70.8955C127.906 81.9662 119.221 105.973 118.192 108.701C118.159 108.789 118.258 108.863 118.34 108.816L122.022 106.734C122.042 106.723 122.051 106.723 122.059 106.701C122.331 106 132.055 80.6901 123.184 69.2164C115.32 59.0446 91.9478 58.5896 91.5234 58.5821C91.5103 58.5819 91.5113 58.5845 91.4991 58.5894Z" stroke="#78A52B"/>
<path d="M158.814 115.595H141.263C139.076 115.595 137.624 113.331 138.536 111.343L146.825 93.2962C147.869 91.0212 151.077 90.9511 152.22 93.1783L161.483 111.225C162.508 113.222 161.058 115.595 158.814 115.595Z" fill="#9A9C41" stroke="#9A9B43" stroke-width="0.1" stroke-linecap="round" stroke-linejoin="round"/>
<ellipse cx="139.534" cy="113.27" rx="12.3913" ry="10.4658" fill="#ED7323"/>
<path d="M141.346 123.605H137.602C137.501 123.605 137.465 123.471 137.551 123.418C142.376 120.472 144.91 118.295 144.915 114.313C144.915 114.306 144.914 114.299 144.913 114.292C144.035 110.302 141.602 108.303 138.424 109.07C136.676 109.491 135.31 110.213 135.474 111.979C135.651 113.896 137.584 114.55 139.559 113.74C139.587 113.728 139.62 113.73 139.647 113.746C140.201 114.083 140.569 114.765 140.206 116.01C140.199 116.035 140.18 116.057 140.157 116.07C135 118.868 133.198 114.521 133.116 114.315L133.116 114.315C133.114 114.309 133.113 114.308 133.112 114.301C133.081 114.08 132.33 108.54 136.654 106.746C141.067 104.916 147.083 108.946 147.275 113.14C147.467 117.325 145.674 120.925 141.399 123.59C141.383 123.6 141.365 123.605 141.346 123.605Z" fill="#DD5415" stroke="#DA4F15" stroke-width="0.1" stroke-linecap="round" stroke-linejoin="round"/>
</svg>
