<svg width="200" height="200" viewBox="0 0 200 200" fill="none" xmlns="http://www.w3.org/2000/svg">
<path d="M195 117.448C195 150.832 152.467 177.896 100 177.896C47.5329 177.896 5 150.832 5 117.448C5 84.0634 47.5329 57 100 57C152.467 57 195 84.0634 195 117.448Z" fill="#F4B13B"/>
<path d="M195 109.515C195 142.59 152.467 169.403 100 169.403C47.5329 169.403 5 142.59 5 109.515C5 76.4398 47.5329 49.627 100 49.627C152.467 49.627 195 76.4398 195 109.515Z" fill="#BC3621"/>
<path d="M180.298 105.038C180.298 131.312 144.6 152.612 100.565 152.612C56.5306 152.612 20.8333 131.312 20.8333 105.038C20.8333 78.7628 56.5306 57.4629 100.565 57.4629C144.6 57.4629 180.298 78.7628 180.298 105.038Z" fill="#A92D1B"/>
<path d="M124.621 44.7537C124.14 55.6625 126.694 64.6332 130.326 64.7902C133.958 64.9472 137.293 56.2311 137.774 45.3223C138.255 34.4134 135.701 25.4428 132.069 25.2858C128.437 25.1288 125.103 33.8448 124.621 44.7537Z" fill="#FF7932"/>
<path d="M131.927 66.6817C131.001 66.6553 130.1 66.1072 129.275 65.0687C128.45 64.0302 127.716 62.5216 127.117 60.629C126.517 58.7365 126.063 56.4971 125.78 54.0387C125.497 51.5803 125.391 48.951 125.469 46.301C125.546 43.651 125.805 41.0321 126.23 38.5939C126.655 36.1557 127.239 33.9459 127.948 32.0907C128.657 30.2355 129.477 28.7713 130.361 27.7816C131.246 26.7918 132.177 26.296 133.102 26.3224L131.927 66.6817Z" fill="#E36726"/>
<path d="M139.915 48.6561C147.594 40.8162 155.935 36.4912 158.545 38.9959C161.156 41.5006 157.047 49.8865 149.368 57.7263C141.689 65.5662 133.348 69.8912 130.738 67.3865C128.127 64.8818 132.236 56.4959 139.915 48.6561Z" fill="#FF7932"/>
<path d="M158.734 38.894C158.081 38.2455 157.06 37.9722 155.73 38.0897C154.4 38.2072 152.788 38.7132 150.985 39.5788C149.182 40.4444 147.224 41.6527 145.222 43.1346C143.22 44.6166 141.214 46.3432 139.318 48.2159C137.422 50.0886 135.674 52.0707 134.172 54.0491C132.671 56.0274 131.446 57.9632 130.568 59.746C129.689 61.5288 129.175 63.1236 129.054 64.4394C128.932 65.7552 129.206 66.7663 129.86 67.4148L158.734 38.894Z" fill="#E36726"/>
<path d="M75.2116 94.8431C66.6161 88.9357 58.6908 85.4392 47.0643 82.7657C42.1482 81.6353 37.3478 85.0649 36.9486 90.0936C36.4169 96.7908 36.6308 103.19 37.6415 113.029C37.8884 115.433 39.1133 117.647 41.0567 119.083C50.9058 126.362 58.5464 129.687 69.6193 132.081C74.1397 133.058 78.6501 130.188 79.195 125.596C79.892 119.721 79.7604 112.719 78.8491 101.25C78.6448 98.6793 77.3372 96.304 75.2116 94.8431Z" fill="#FFF7D8"/>
<path d="M34.9546 89.9352C35.453 83.6573 41.438 79.4196 47.5122 80.8161C59.3663 83.542 67.5271 87.1354 76.3442 93.195C78.9934 95.0157 80.5938 97.9529 80.8433 101.091C81.7563 112.583 81.9027 119.75 81.1812 125.832C80.4817 131.726 74.7376 135.234 69.1968 134.036C57.85 131.582 49.9472 128.141 39.8677 120.692C37.4555 118.909 35.9542 116.176 35.6519 113.233C34.6347 103.33 34.4097 96.7994 34.9546 89.9352ZM46.6157 84.7146C42.858 83.8507 39.242 86.4728 38.9419 90.2517C38.4235 96.7821 38.6272 103.049 39.6313 112.825C39.8229 114.689 40.7711 116.386 42.2456 117.475C51.864 124.584 59.2429 127.792 70.0415 130.127C73.5413 130.883 76.818 128.651 77.2085 125.36C77.881 119.692 77.7645 112.855 76.855 101.409C76.6958 99.4055 75.6805 97.5918 74.0786 96.4909C65.7047 90.736 58.0145 87.3357 46.6157 84.7146Z" fill="#78A52B"/>
<path d="M68.9979 106.957C68.9979 112.059 69.2756 120 63.371 120C57.4734 120 47.6387 112.078 47.6157 106.974C47.6156 106.962 47.6134 106.951 47.6092 106.939C45.3712 100.967 49.5925 95 55.4914 95C61.396 95 68.9979 101.854 68.9979 106.957Z" fill="#FF812F"/>
<path d="M68.8973 106.956C68.8972 105.704 68.431 104.337 67.6317 102.986C66.8328 101.637 65.7051 100.31 64.3924 99.1397C61.7635 96.797 58.4093 95.0996 55.491 95.0996C49.6648 95.0998 45.4885 100.995 47.7029 106.904C47.7111 106.926 47.7155 106.95 47.7156 106.974C47.7213 108.22 48.3272 109.652 49.3397 111.105C50.3506 112.557 51.7595 114.019 53.3533 115.323C54.9471 116.628 56.7233 117.773 58.4666 118.592C60.2113 119.411 61.9168 119.9 63.3709 119.9L63.371 120L63.0916 119.994C57.2624 119.757 47.9401 112.242 47.6238 107.216L47.6157 106.974L47.6092 106.939C45.3712 100.967 49.5925 95 55.4914 95C61.396 95 68.9979 101.854 68.9979 106.957L68.9979 108.982C68.9703 113.921 68.5373 120 63.371 120L63.3709 119.9C64.8218 119.9 65.8855 119.413 66.6697 118.609C67.4568 117.803 67.9695 116.67 68.3016 115.367C68.9664 112.759 68.8973 109.513 68.8973 106.956Z" fill="#2C2422"/>
<path d="M67.6726 102.911C65.9068 104.944 61.4455 106.996 58.8427 107.265C58.779 107.271 58.7384 107.335 58.7579 107.396C60.4465 112.676 63.744 115.846 64.3591 120.039C64.3678 120.097 64.425 120.137 64.4824 120.121C68.916 118.895 71.661 110.124 67.8383 102.93C67.805 102.867 67.7192 102.857 67.6726 102.911Z" fill="#9BBD42"/>
<path d="M67.635 102.879C67.7047 102.798 67.8324 102.813 67.8821 102.907C69.7996 106.516 70.07 110.519 69.3049 113.775C68.5406 117.027 66.7383 119.549 64.4953 120.17C64.4075 120.194 64.3225 120.132 64.3098 120.046C64.0037 117.96 63.0298 116.127 61.9172 114.15C60.8055 112.175 59.5564 110.057 58.7102 107.411C58.6816 107.321 58.7414 107.225 58.8371 107.215C60.1306 107.081 61.8914 106.503 63.55 105.704C65.2089 104.904 66.7587 103.887 67.635 102.879ZM67.7942 102.954C67.7773 102.922 67.7336 102.917 67.7102 102.944C66.8207 103.968 65.2567 104.992 63.593 105.794C61.9288 106.596 60.1572 107.179 58.8479 107.314C58.8166 107.317 58.7959 107.349 58.8059 107.381C59.6484 110.015 60.8921 112.123 62.0051 114.1C63.1171 116.076 64.0993 117.925 64.4084 120.031C64.413 120.062 64.4423 120.08 64.469 120.073C66.6597 119.467 68.4473 116.99 69.2082 113.752C69.9682 110.517 69.6991 106.539 67.7942 102.954Z" fill="#78A52B"/>
<path d="M67.7539 102.839C67.0659 104.537 62.2231 106.677 58.7594 107.27C58.7338 107.274 58.7071 107.267 58.6857 107.253C52.4106 102.94 54.7176 100.037 49.7859 96.7162C49.7313 96.6794 49.7236 96.5984 49.7736 96.5554C54.8588 92.1832 62.6811 93.1923 67.7483 102.759C67.7616 102.784 67.7645 102.813 67.7539 102.839Z" fill="#FFDA87"/>
<path d="M49.7407 96.5173C52.2947 94.3214 55.5388 93.4754 58.7807 94.3816C62.0221 95.2878 65.2544 97.9436 67.7925 102.735C67.8117 102.771 67.8171 102.817 67.8003 102.858C67.6229 103.296 67.1813 103.755 66.5747 104.205C65.9664 104.656 65.1853 105.103 64.3188 105.514C62.5857 106.337 60.5049 107.022 58.768 107.319C58.7288 107.326 58.689 107.315 58.6577 107.294C55.511 105.131 54.5136 103.32 53.687 101.635C52.8633 99.9554 52.2121 98.4101 49.7583 96.7576C49.6785 96.7038 49.6638 96.5835 49.7407 96.5173ZM58.7544 94.4783C55.5472 93.5816 52.3372 94.4173 49.8061 96.5935C49.7833 96.6133 49.7845 96.6547 49.8139 96.6746C52.2916 98.3431 52.9524 99.91 53.7768 101.591C54.5984 103.265 55.5858 105.062 58.7143 107.212C58.7255 107.219 58.7389 107.222 58.7505 107.22C60.4772 106.925 62.5498 106.243 64.2759 105.424C65.1386 105.014 65.9137 104.571 66.5151 104.125C67.1182 103.677 67.5409 103.231 67.7075 102.82C67.7118 102.809 67.7117 102.796 67.7046 102.782C65.1754 98.0073 61.9622 95.3752 58.7544 94.4783Z" fill="#FBDC99"/>
<path d="M47.4221 108.407C49.6667 110.615 53.9553 110.917 58.5929 107.374C58.6515 107.33 58.6441 107.238 58.5795 107.203C55.3055 105.401 54.1406 98.3415 49.7148 96.6574C49.6886 96.6475 49.6584 96.6494 49.6336 96.6624C45.0254 99.0691 46.2778 106.134 47.4036 108.382C47.4084 108.391 47.4145 108.399 47.4221 108.407Z" fill="#FACB40"/>
<path d="M49.7321 96.6106C51.964 97.4599 53.3702 99.6622 54.6227 101.861C55.2506 102.963 55.8399 104.064 56.4772 105.003C57.1144 105.942 57.7953 106.714 58.6032 107.158C58.6991 107.211 58.7104 107.347 58.6227 107.414C53.9738 110.965 49.6561 110.674 47.3874 108.443C47.3762 108.432 47.3665 108.419 47.3591 108.405C46.792 107.272 46.1955 104.935 46.318 102.579C46.4407 100.223 47.2838 97.8336 49.61 96.6184C49.6472 96.599 49.6924 96.5956 49.7321 96.6106ZM49.6569 96.7063C47.3753 97.8979 46.5404 100.245 46.4186 102.584C46.2969 104.924 46.8891 107.244 47.4479 108.36C47.4501 108.364 47.4528 108.367 47.4567 108.371C49.677 110.556 53.9364 110.868 58.5622 107.335C58.5917 107.313 58.5887 107.265 58.5554 107.246C57.7265 106.79 57.0344 106.003 56.3942 105.06C55.754 104.116 55.1617 103.009 54.5358 101.91C53.281 99.7079 51.8908 97.5392 49.697 96.7044C49.6844 96.6996 49.6693 96.7 49.6569 96.7063Z" fill="#F89D1F"/>
<path d="M128.807 102.577C127.044 105.418 81.5318 130.048 79.1541 130.768C79.0954 130.785 79.0847 130.734 79.0943 130.674C80.2528 123.294 84.6923 102.034 76.8115 93.6806C72.3276 88.9276 45.2541 81.8563 41.5056 81.7055C41.4191 81.7654 41.3326 81.8254 41.246 81.8855C41.2107 81.91 41.1447 81.8967 41.1152 81.8655C40.9978 81.7414 41.1419 81.6909 41.5056 81.7055C58.4185 70.003 73.1501 64.4003 94.3413 57.0323C109.472 51.8393 116.822 51.0621 125.442 58.1517C147.287 73.7892 133.502 101.32 129.035 102.34C128.952 102.359 128.852 102.505 128.807 102.577Z" fill="#8BB53D"/>
<path d="M112.334 52.9363C117.153 52.9793 121.157 54.5623 125.475 58.1131C136.413 65.945 138.431 76.7567 137.155 85.7341C136.517 90.2227 135.056 94.2547 133.475 97.2283C132.684 98.715 131.862 99.9386 131.097 100.823C130.714 101.265 130.345 101.623 130.001 101.887C129.657 102.151 129.335 102.322 129.046 102.388C129.036 102.391 129.021 102.398 129.002 102.414C128.983 102.429 128.964 102.449 128.944 102.471C128.906 102.516 128.871 102.569 128.85 102.603C128.791 102.698 128.69 102.811 128.551 102.942C128.411 103.074 128.232 103.224 128.016 103.393C127.584 103.731 127.002 104.142 126.293 104.616C124.874 105.563 122.941 106.762 120.665 108.122C116.113 110.842 110.183 114.21 104.235 117.511C98.2875 120.813 92.3203 124.048 87.6914 126.503C85.3771 127.73 83.3967 128.762 81.9209 129.511C81.183 129.885 80.5704 130.188 80.1055 130.409C79.6425 130.629 79.322 130.769 79.169 130.815C79.1481 130.822 79.1241 130.824 79.1016 130.816C79.0781 130.808 79.0627 130.791 79.0537 130.772C79.0378 130.739 79.0399 130.698 79.0449 130.666C79.6246 126.974 81.0235 119.818 81.293 112.541C81.4277 108.902 81.2792 105.235 80.6065 101.958C79.9335 98.6796 78.7369 95.7938 76.7754 93.7146C76.2203 93.1262 75.3121 92.4991 74.1367 91.8513C72.9622 91.204 71.5238 90.5383 69.9111 89.8718C66.686 88.539 62.766 87.2055 58.8682 86.0154C54.9704 84.8253 51.0953 83.7784 47.9609 83.0203C44.8422 82.2659 42.4618 81.7987 41.5195 81.7566C41.4379 81.8131 41.3562 81.8697 41.2744 81.9265C41.2421 81.949 41.2017 81.9515 41.1699 81.9461C41.1378 81.9406 41.1031 81.9254 41.0791 81.9002C41.0479 81.8672 41.0208 81.8257 41.0264 81.78C41.0325 81.7303 41.0728 81.7025 41.1113 81.6873C41.1517 81.6714 41.2069 81.6617 41.2715 81.657C41.3326 81.6525 41.4058 81.653 41.4902 81.656C58.4037 69.9554 73.1388 64.3515 94.3252 56.9851C101.891 54.3886 107.518 52.8934 112.334 52.9363ZM112.333 53.0359C107.536 52.9932 101.923 54.4834 94.3574 57.0798C73.2153 64.4308 58.508 70.0227 41.6494 81.6668C42.6768 81.7413 44.9973 82.2011 47.9844 82.9236C51.1207 83.6822 54.9978 84.729 58.8975 85.9197C62.7968 87.1103 66.72 88.4446 69.9492 89.7791C71.5636 90.4462 73.0057 91.1138 74.1846 91.7634C75.3626 92.4127 76.2818 93.0464 76.8477 93.6463C78.8266 95.7439 80.0301 98.6491 80.7051 101.937C81.3801 105.226 81.5275 108.902 81.3926 112.545C81.1228 119.83 79.7225 126.994 79.1436 130.681C79.1415 130.694 79.1412 130.706 79.1416 130.715C79.1417 130.716 79.1415 130.717 79.1416 130.719C79.2868 130.674 79.5995 130.538 80.0625 130.318C80.5263 130.098 81.1376 129.795 81.875 129.422C83.3501 128.674 85.3303 127.642 87.6445 126.415C92.2729 123.96 98.2391 120.725 104.187 117.424C110.134 114.122 116.062 110.755 120.613 108.036C122.889 106.676 124.821 105.479 126.237 104.533C126.946 104.06 127.525 103.65 127.954 103.314C128.169 103.146 128.346 102.997 128.482 102.869C128.619 102.74 128.713 102.634 128.765 102.551C128.788 102.514 128.826 102.457 128.869 102.406C128.891 102.381 128.915 102.356 128.939 102.336C128.964 102.316 128.992 102.298 129.023 102.291C129.293 102.229 129.602 102.067 129.94 101.807C130.278 101.549 130.642 101.196 131.021 100.758C131.78 99.8802 132.597 98.6625 133.386 97.1804C134.962 94.2165 136.42 90.1967 137.056 85.7205C138.328 76.769 136.316 65.9974 125.413 58.1922L125.41 58.1902C121.107 54.652 117.126 53.0786 112.333 53.0359ZM41.2783 81.7566C41.2173 81.7611 41.1749 81.7697 41.1484 81.78C41.1203 81.7911 41.1243 81.7978 41.125 81.7918C41.1251 81.7917 41.1257 81.8037 41.1514 81.8308C41.1568 81.8366 41.1697 81.8445 41.1865 81.8474C41.2039 81.8504 41.2148 81.8465 41.2178 81.8445C41.2602 81.815 41.3023 81.785 41.3447 81.7556C41.3209 81.7562 41.2987 81.7551 41.2783 81.7566Z" fill="#4E9319"/>
<path d="M88.1248 86.0077C79.9179 75.4307 70.3918 75.341 56.2082 73.1828C56.1116 73.1681 56.0888 73.0375 56.1764 72.9941L60.3889 70.9094C60.4069 70.9005 60.4274 70.8972 60.4472 70.9C74.6025 72.8566 84.678 73.8168 92.6486 84.8883C101.485 97.1627 98.6313 107.314 93.2264 123.471C93.2186 123.494 93.2022 123.514 93.1807 123.527L89.4913 125.613C89.4105 125.659 89.3171 125.577 89.3487 125.49C95.1078 109.569 97.6277 98.2549 88.1248 86.0077Z" fill="#78A52B"/>
<path d="M74.533 64.7466L70.4573 66.2593C70.3568 66.2967 70.361 66.4465 70.4678 66.4565C73.8811 66.7765 96.2845 69.2581 103.958 79.8509C112.079 91.0613 105.911 114.404 105.161 117.096C105.136 117.186 105.239 117.252 105.317 117.201L108.452 115.132C108.471 115.119 108.48 115.118 108.487 115.096C108.705 114.362 116.017 89.4803 107.351 77.6121C99.3569 66.6643 75.0233 64.7745 74.5601 64.7395C74.5458 64.7384 74.5464 64.7416 74.533 64.7466Z" fill="#78A52B"/>
<path d="M91.4992 58.5896L86.3829 60.6152C86.2791 60.6563 86.3006 60.816 86.4122 60.8157C90.123 60.8063 111.607 61.1785 119.226 70.8957C127.906 81.9664 119.221 105.973 118.192 108.701C118.159 108.79 118.259 108.863 118.341 108.817L122.022 106.734C122.042 106.723 122.051 106.723 122.059 106.702C122.331 106 132.055 80.6903 123.184 69.2166C115.32 59.0449 91.948 58.5898 91.5235 58.5824C91.5106 58.5822 91.5112 58.5848 91.4992 58.5896Z" fill="#78A52B"/>
<path d="M60.5157 70.4046L65.6329 71.1126C77.1715 72.7588 85.9538 74.7325 93.0548 84.596C97.5363 90.8209 99.0674 96.5377 98.7775 102.746C98.4891 108.919 96.3986 115.563 93.7003 123.629C93.654 123.768 93.558 123.888 93.4269 123.962L89.7374 126.048C89.2294 126.335 88.6986 125.818 88.879 125.32L89.4083 123.841C92.0057 116.519 93.8103 110.228 93.9601 104.359C94.1191 98.1275 92.4123 92.3487 87.7296 86.3137C79.6725 75.9301 70.397 75.8475 56.1329 73.677C55.586 73.5938 55.3993 72.8212 55.9542 72.5462L60.1671 70.4612C60.2489 70.4207 60.3378 70.3997 60.4269 70.3987L60.5157 70.4046ZM57.546 72.8733C70.9743 74.8462 80.4146 75.2558 88.5196 85.7014C93.3398 91.9137 95.1251 97.9161 94.9601 104.384C94.8028 110.548 92.872 117.113 90.1808 124.648L92.7999 123.167C95.4823 115.144 97.4993 108.675 97.7784 102.7C98.0575 96.726 96.5984 91.2293 92.2433 85.1799C84.44 74.3411 74.6336 73.3626 60.5011 71.4114L57.546 72.8733ZM74.5978 64.2405C74.8422 64.259 81.0751 64.7439 88.2569 66.5999C91.8479 67.5279 95.6899 68.8019 99.1446 70.5403C102.596 72.2769 105.692 74.4926 107.755 77.3176C109.988 80.3762 111.175 84.2468 111.711 88.3069C112.247 92.3705 112.136 96.6575 111.748 100.578C110.972 108.42 109.079 114.859 108.966 115.239C108.956 115.271 108.94 115.317 108.91 115.366C108.878 115.42 108.839 115.463 108.799 115.497C108.765 115.527 108.733 115.546 108.727 115.55L105.592 117.618C105.374 117.762 105.111 117.742 104.925 117.618C104.732 117.491 104.603 117.239 104.68 116.962L104.877 116.23C105.463 113.995 106.848 108.215 107.388 101.627C108.007 94.066 107.499 85.5914 103.553 80.1438C99.8226 74.9949 92.4521 71.7632 85.4786 69.7825C78.534 67.81 72.114 67.1131 70.421 66.9544C70.0779 66.9221 69.8955 66.6387 69.8849 66.3889C69.8751 66.155 70.0065 65.893 70.2833 65.7903L74.3595 64.2776C74.3616 64.2767 74.364 64.2756 74.3663 64.2747C74.4061 64.2593 74.4507 64.2476 74.5001 64.2424C74.543 64.238 74.5784 64.239 74.5978 64.2405ZM72.2052 66.1428C75.0028 66.4774 80.2095 67.2463 85.7521 68.8206C92.7517 70.8088 100.42 74.1142 104.363 79.5579C108.538 85.3206 109.006 94.1227 108.385 101.708C107.86 108.118 106.542 113.767 105.913 116.207L108.053 114.796C108.364 113.717 110.038 107.697 110.753 100.48C111.137 96.6051 111.243 92.4001 110.72 88.4378C110.196 84.4723 109.047 80.7828 106.947 77.9075C105.013 75.2586 102.07 73.1317 98.6954 71.4339C95.325 69.7379 91.5554 68.4849 88.006 67.5676C81.3182 65.8394 75.4588 65.3162 74.6192 65.2473L72.2052 66.1428ZM92.7052 58.1243C94.8073 58.2241 99.4714 58.5518 104.663 59.5979C108.124 60.2953 111.834 61.3148 115.183 62.8079C118.527 64.2993 121.545 66.2777 123.58 68.9104C125.878 71.8831 126.951 75.7237 127.287 79.7747C127.623 83.8289 127.225 88.1357 126.543 92.0842C125.179 99.9783 122.668 106.515 122.526 106.882C122.513 106.913 122.493 106.959 122.459 107.006C122.422 107.058 122.378 107.098 122.334 107.129C122.299 107.154 122.266 107.171 122.262 107.173L118.587 109.252C118.36 109.381 118.099 109.343 117.92 109.207C117.733 109.065 117.622 108.798 117.725 108.525L117.999 107.779C118.819 105.496 120.8 99.5667 121.857 92.8489C122.46 89.0106 122.759 84.9325 122.374 81.1399C121.989 77.3448 120.923 73.8717 118.832 71.2044C115.144 66.5002 108.033 64.0034 101.259 62.6995C94.5171 61.4017 88.2546 61.311 86.4132 61.3157C86.0609 61.3164 85.8557 61.0434 85.8214 60.801C85.7883 60.5668 85.8971 60.2702 86.1983 60.1507L91.3048 58.1292C91.3089 58.1273 91.3135 58.1244 91.3185 58.1223C91.3546 58.1073 91.3959 58.095 91.4415 58.0882C91.4812 58.0822 91.5139 58.082 91.5323 58.0823L92.7052 58.1243ZM88.4249 60.344C91.2941 60.4228 96.226 60.7118 101.448 61.7171C108.249 63.0261 115.689 65.5743 119.619 70.5872C121.868 73.4552 122.972 77.1344 123.368 81.0393C123.764 84.9466 123.455 89.1162 122.844 93.0042C121.813 99.5591 119.914 105.364 119.032 107.85L121.65 106.37C122.053 105.305 124.301 99.1897 125.558 91.9133C126.232 88.0127 126.618 83.7968 126.291 79.8567C125.964 75.9134 124.926 72.2868 122.789 69.5227C120.893 67.0696 118.038 65.1768 114.775 63.7219C111.517 62.2688 107.883 61.2671 104.465 60.5784C98.0236 59.2805 92.4004 59.1042 91.6056 59.0852L88.4249 60.344ZM74.756 65.1946C74.7484 65.1982 74.7369 65.2025 74.7228 65.2083C74.724 65.2078 74.7254 65.2078 74.7267 65.2073C74.7417 65.2015 74.7521 65.1964 74.756 65.1946ZM91.7296 59.0335C91.7249 59.0358 91.7184 59.0379 91.711 59.0413C91.7203 59.0372 91.7266 59.0349 91.7296 59.0335Z" fill="#78A52B"/>
<path d="M158.814 115.595H141.263C139.076 115.595 137.624 113.331 138.536 111.343L146.825 93.2962C147.869 91.0212 151.077 90.9511 152.22 93.1783L161.483 111.225C162.508 113.222 161.058 115.595 158.814 115.595Z" fill="#9A9C41"/>
<path d="M146.779 93.2754C147.841 90.9626 151.102 90.8912 152.264 93.1553L161.528 111.202C162.57 113.232 161.095 115.646 158.814 115.646H141.262C139.039 115.645 137.563 113.343 138.491 111.322L146.779 93.2754ZM152.175 93.2012C151.051 91.0112 147.897 91.0804 146.87 93.3174L138.582 111.364C137.684 113.318 139.112 115.545 141.262 115.545H158.814C161.021 115.545 162.447 113.211 161.439 111.248L152.175 93.2012Z" fill="#9A9B43"/>
<path d="M151.926 113.27C151.926 119.051 146.378 123.736 139.534 123.736C132.691 123.736 127.143 119.051 127.143 113.27C127.143 107.49 132.691 102.805 139.534 102.805C146.378 102.805 151.926 107.49 151.926 113.27Z" fill="#ED7323"/>
<path d="M141.346 123.605H137.602C137.501 123.605 137.465 123.471 137.551 123.418C142.376 120.472 144.91 118.295 144.915 114.313C144.915 114.306 144.914 114.299 144.913 114.292C144.035 110.302 141.602 108.303 138.424 109.07C136.676 109.491 135.31 110.213 135.474 111.979C135.651 113.896 137.584 114.55 139.559 113.74C139.587 113.728 139.62 113.73 139.647 113.746C140.201 114.083 140.569 114.765 140.206 116.01C140.199 116.035 140.18 116.057 140.157 116.07C135 118.868 133.198 114.521 133.116 114.315C133.114 114.309 133.113 114.308 133.112 114.301C133.081 114.08 132.33 108.54 136.654 106.746C141.067 104.916 147.083 108.946 147.275 113.14C147.467 117.325 145.674 120.925 141.399 123.59C141.383 123.6 141.365 123.605 141.346 123.605Z" fill="#DD5415"/>
<path d="M136.635 106.7C138.861 105.777 141.485 106.333 143.574 107.642C145.662 108.95 147.228 111.019 147.325 113.138C147.517 117.342 145.714 120.959 141.425 123.633C141.402 123.647 141.374 123.655 141.346 123.655H137.602C137.448 123.655 137.398 123.454 137.525 123.376C139.937 121.903 141.771 120.625 143.002 119.221C144.232 117.819 144.862 116.291 144.865 114.313C144.865 114.31 144.865 114.306 144.864 114.303C144.427 112.315 143.603 110.829 142.5 109.936C141.398 109.044 140.011 108.738 138.436 109.118C137.564 109.329 136.794 109.612 136.264 110.059C135.737 110.502 135.444 111.108 135.524 111.975C135.611 112.914 136.126 113.541 136.861 113.836C137.598 114.132 138.561 114.095 139.54 113.693C139.582 113.676 139.631 113.678 139.672 113.703C139.959 113.877 140.198 114.141 140.318 114.522C140.438 114.903 140.437 115.396 140.253 116.024C140.242 116.063 140.215 116.096 140.181 116.114C138.886 116.817 137.798 117.072 136.892 117.055C135.986 117.037 135.264 116.747 134.705 116.36C133.588 115.59 133.112 114.441 133.07 114.334C133.069 114.332 133.067 114.326 133.066 114.321C133.064 114.316 133.063 114.311 133.063 114.308C133.046 114.192 132.85 112.746 133.201 111.103C133.552 109.457 134.453 107.606 136.635 106.7ZM144.965 114.313C144.963 116.317 144.322 117.868 143.078 119.287C141.835 120.703 139.99 121.988 137.578 123.461C137.532 123.489 137.554 123.556 137.602 123.556H141.346C141.355 123.556 141.365 123.553 141.373 123.548C145.633 120.892 147.416 117.308 147.225 113.142C147.13 111.067 145.592 109.024 143.521 107.727C141.45 106.429 138.86 105.885 136.673 106.792C134.532 107.68 133.645 109.496 133.298 111.124C132.951 112.752 133.146 114.186 133.162 114.294C133.162 114.295 133.162 114.297 133.162 114.294C133.161 114.293 133.161 114.293 133.163 114.297C133.202 114.397 133.669 115.523 134.761 116.277C135.307 116.654 136.009 116.938 136.894 116.955C137.779 116.972 138.85 116.723 140.133 116.026C140.145 116.02 140.154 116.008 140.158 115.996C140.337 115.38 140.335 114.909 140.223 114.553C140.111 114.197 139.889 113.952 139.621 113.789C139.609 113.782 139.593 113.78 139.578 113.786C138.582 114.195 137.591 114.237 136.824 113.929C136.054 113.62 135.515 112.961 135.424 111.983C135.341 111.084 135.648 110.447 136.2 109.982C136.748 109.521 137.537 109.233 138.413 109.021C140.016 108.635 141.435 108.945 142.563 109.858C143.69 110.77 144.521 112.28 144.961 114.281C144.964 114.292 144.965 114.303 144.965 114.313Z" fill="#DA4F15"/>
</svg>
