<svg width="200" height="163" viewBox="0 0 200 163" fill="none" xmlns="http://www.w3.org/2000/svg">
<path d="M180.167 99.0097C180.167 134.351 139.835 163 90.0833 163C40.3316 163 0 134.351 0 99.0097C0 63.6688 40.3316 35.0193 90.0833 35.0193C139.835 35.0193 180.167 63.6688 180.167 99.0097Z" fill="#D4C9D4"/>
<path d="M179.167 99.0095C179.167 81.7484 169.318 66.0249 153.202 54.5769C137.088 43.1306 114.775 36.0193 90.083 36.0193C65.3905 36.0194 43.0777 43.1305 26.9639 54.5769C10.8478 66.0249 1.00005 81.7484 1 99.0095C1 116.271 10.8479 131.994 26.9639 143.442C43.0777 154.889 65.3905 162 90.083 162L90.0833 163C40.3316 163 0 134.351 0 99.0097C0 63.6688 40.3316 35.0193 90.0833 35.0193C139.835 35.0193 180.167 63.6688 180.167 99.0097L180.159 99.8367C179.536 134.796 139.446 163 90.0833 163L90.083 162C114.776 162 137.088 154.889 153.202 143.442C169.318 131.994 179.167 116.271 179.167 99.0095Z" fill="#D4C9D4"/>
<path d="M180.167 93.6773C180.167 128.691 139.835 157.075 90.0833 157.075C40.3316 157.075 0 128.691 0 93.6773C0 58.6637 40.3316 30.2795 90.0833 30.2795C139.835 30.2795 180.167 58.6637 180.167 93.6773Z" fill="#FFFBF2"/>
<path d="M179.167 93.6769C179.167 76.5837 169.323 61.0087 153.206 49.6662C137.092 38.3256 114.778 31.2795 90.083 31.2795C65.3885 31.2795 43.074 38.3256 26.96 49.6662C10.8433 61.0087 1.00016 76.5838 1 93.6769C1 110.77 10.8432 126.346 26.96 137.689C43.074 149.029 65.3885 156.075 90.083 156.075L90.0833 157.075L88.9189 157.07C39.7039 156.632 0 128.417 0 93.6773C0 58.6637 40.3316 30.2795 90.0833 30.2795C139.835 30.2795 180.167 58.6637 180.167 93.6773L180.159 94.4963C179.536 129.133 139.446 157.075 90.0833 157.075L90.083 156.075C114.778 156.075 137.092 149.029 153.206 137.689C169.323 126.346 179.167 110.77 179.167 93.6769Z" fill="#D4C9D4"/>
<path d="M166.225 88.9373C166.225 116.752 132.375 139.3 90.6194 139.3C48.8636 139.3 15.0138 116.752 15.0138 88.9373C15.0138 61.1227 48.8636 38.5745 90.6194 38.5745C132.375 38.5745 166.225 61.1227 166.225 88.9373Z" fill="#E5E2E3"/>
<path d="M165.225 88.9368C165.225 75.4685 157.03 63.1523 143.527 54.1575C130.03 45.1674 111.328 39.5745 90.6194 39.5745C69.9114 39.5745 51.2092 45.1675 37.7131 54.1575C24.2099 63.1523 16.014 75.4685 16.0138 88.9368C16.0138 102.405 24.2098 114.722 37.7131 123.717C51.2092 132.707 69.9114 138.3 90.6194 138.3V139.3L89.6418 139.296C48.3365 138.948 15.0138 116.535 15.0138 88.9373C15.0138 61.1227 48.8636 38.5745 90.6194 38.5745C132.375 38.5745 166.225 61.1227 166.225 88.9373C166.225 116.752 132.375 139.3 90.6194 139.3V138.3C111.328 138.3 130.03 132.707 143.527 123.717C157.03 114.722 165.225 102.405 165.225 88.9368Z" fill="#E5E2E3"/>
<path d="M37.8735 48.0436C37.3287 41.8141 37.3237 38.7475 41.2632 38.8592L45.8245 34.9385C46.6184 29.1325 48.3065 27.9506 52.9503 28.5659C55.6868 21.6899 57.699 19.1116 64.3733 22.7077C69.3655 17.3064 72.2118 13.023 76.6774 21.2901C86.2641 16.5973 87.9512 18.7046 87.8693 26.4394C100.746 24.5668 102.214 27.0051 98.5065 35.2007C112.913 38.2721 113.292 41.0652 102.005 47.7056C111.226 54.4918 110.539 57.1221 101.638 60.2734C111.088 69.7322 109.202 72.1001 99.1167 71.2695C102.345 77.0991 100.533 78.2775 93.8556 78.3907L58.7318 96.7827C53.713 102.848 50.7599 103.924 44.6818 92.6051C36.9116 95.0327 36.1619 90.7287 35.467 82.0435C27.6866 82.4354 27.0495 80.1897 30.1269 73.3907C24.9269 71.0802 25.8374 67.7299 31.6321 59.5141L37.8735 48.0436Z" fill="#82B62B"/>
<path d="M108.178 69.7908C107.81 70.9079 106.663 71.4715 105.18 71.7308C103.853 71.9629 102.103 71.9809 99.9835 71.841C100.554 72.9595 100.929 73.918 101.087 74.7378C101.284 75.7614 101.155 76.6338 100.581 77.3071C100.03 77.954 99.1436 78.3238 98.0492 78.5488C96.9703 78.7706 95.608 78.8667 93.9843 78.8977L59.051 97.1993C57.8177 98.685 56.6791 99.904 55.5661 100.707C54.4255 101.529 53.2587 101.953 52.014 101.726C50.7887 101.503 49.5994 100.667 48.3578 99.2335C47.165 97.8565 45.884 95.8766 44.4374 93.2149C42.6433 93.7396 41.1786 93.9131 39.9786 93.7108C38.6637 93.489 37.702 92.8253 37.0059 91.7864C36.3257 90.7712 35.9087 89.4131 35.6152 87.803C35.3426 86.3074 35.1719 84.5492 35.01 82.5742C33.2753 82.6395 31.8791 82.5662 30.802 82.3112C29.6224 82.0319 28.7547 81.518 28.2869 80.6647C27.8279 79.8273 27.8185 78.7762 28.0799 77.5691C28.3195 76.463 28.8038 75.1584 29.4722 73.6427C28.3584 73.0971 27.5048 72.4713 26.9485 71.7024C26.3055 70.8135 26.0959 69.7853 26.2618 68.6016C26.425 67.4372 26.9517 66.1135 27.7819 64.5867C28.6113 63.0611 29.7626 61.3005 31.2068 59.2507L37.3633 47.928C37.2337 46.4322 37.1345 45.1066 37.1193 43.9626C37.1035 42.7842 37.1744 41.7643 37.4047 40.9302C37.6376 40.0868 38.0435 39.4004 38.7149 38.9454C39.3358 38.5248 40.1251 38.3441 41.0791 38.3467L45.3571 34.6665C45.7561 31.866 46.389 30.0024 47.618 28.9482C48.8255 27.9127 50.483 27.7588 52.6321 28.0059C53.2656 26.4344 53.871 25.0754 54.5201 23.971C55.2173 22.7848 55.9837 21.8537 56.9193 21.2659C58.7773 20.0986 61.0773 20.4094 64.2638 22.0654C65.3968 20.8302 66.4469 19.6365 67.4214 18.6678C68.4669 17.6286 69.4936 16.7782 70.5463 16.3818C71.6456 15.9679 72.7496 16.0585 73.8588 16.8304C74.8562 17.5245 75.8425 18.7604 76.8852 20.6156C79.0979 19.5526 80.9031 18.851 82.3713 18.5176C83.926 18.1647 85.1815 18.2033 86.1446 18.7462C87.1196 19.2958 87.6763 20.2932 87.989 21.5724C88.2694 22.7196 88.3691 24.1566 88.3715 25.8468C91.3298 25.4352 93.6865 25.2579 95.5092 25.3479C97.4314 25.4428 98.8573 25.8357 99.7469 26.6592C100.67 27.5133 100.909 28.723 100.715 30.1616C100.54 31.4576 100.005 33.014 99.2116 34.8293C102.527 35.5547 105.092 36.2722 106.914 37.0435C107.879 37.4522 108.659 37.8852 109.237 38.3573C109.816 38.8301 110.219 39.3657 110.375 39.9811C110.692 41.231 109.926 42.4825 108.588 43.738C107.325 44.9227 105.411 46.2414 102.903 47.7452C104.915 49.2592 106.437 50.578 107.466 51.7556C108.585 53.0364 109.196 54.2307 109.116 55.3843C109.034 56.5599 108.252 57.5156 107.028 58.3471C105.939 59.0867 104.429 59.7786 102.542 60.4779C104.624 62.6022 106.127 64.3716 107.069 65.8304C108.071 67.3812 108.531 68.7182 108.178 69.7908ZM105.009 70.7448C106.42 70.4979 107.045 70.0324 107.228 69.4782C107.426 68.8795 107.217 67.9019 106.229 66.3731C105.264 64.8778 103.639 62.985 101.284 60.627L100.725 60.066L101.472 59.8022C103.688 59.0172 105.35 58.2786 106.467 57.5198C107.587 56.7589 108.068 56.04 108.118 55.3148C108.17 54.5677 107.78 53.6344 106.713 52.4138C105.656 51.2047 104.005 49.7923 101.709 48.1012L101.098 47.6518L101.751 47.2673C104.568 45.6094 106.62 44.2123 107.904 43.008C109.218 41.7752 109.574 40.8905 109.406 40.2272C109.32 39.8861 109.079 39.5203 108.604 39.1321C108.128 38.7431 107.443 38.3547 106.523 37.9655C104.684 37.1869 101.997 36.4431 98.4025 35.6763L97.7951 35.5466L98.0504 34.9811C98.9734 32.9398 99.5517 31.305 99.724 30.0282C99.8949 28.7617 99.6575 27.9401 99.0671 27.3936C98.4435 26.8166 97.3186 26.4391 95.4601 26.3473C93.6183 26.2564 91.1501 26.4493 87.9415 26.9161L87.3628 27.0005L87.3694 26.4165C87.3898 24.4903 87.2982 22.9589 87.0173 21.81C86.7372 20.6641 86.2887 19.9759 85.6538 19.618C85.0072 19.2535 84.0481 19.1628 82.5932 19.493C81.1446 19.8219 79.282 20.5501 76.8973 21.7181L76.4658 21.9303L76.2374 21.5073C75.1325 19.4607 74.1627 18.2614 73.2875 17.6523C72.4511 17.0703 71.6933 17.0195 70.8988 17.3186C70.058 17.6352 69.1584 18.3524 68.127 19.3776C67.0981 20.4004 66.0041 21.6592 64.7408 23.0268L64.4769 23.3121L64.1357 23.1275C60.8288 21.3449 58.885 21.2122 57.4508 22.1132C56.7073 22.5805 56.0402 23.3586 55.3822 24.478C54.7248 25.5965 54.0972 27.019 53.4149 28.7344L53.2707 29.0956L52.8847 29.0453C50.5777 28.7395 49.1939 28.9146 48.2689 29.7078C47.3225 30.5195 46.7169 32.0911 46.3203 34.9926L46.2942 35.1806L41.5894 39.2269L41.4422 39.3528L41.2491 39.3474C40.323 39.3211 39.7016 39.4853 39.2751 39.7743C38.8567 40.058 38.559 40.5075 38.3688 41.1959C38.1761 41.8939 38.1042 42.8029 38.1195 43.9491C38.1347 45.0911 38.2357 46.4356 38.3719 47.9937L38.3848 48.1433L32.0711 59.7521L32.0573 59.778L32.0409 59.8024C30.5961 61.8519 29.4658 63.584 28.6607 65.0648C27.853 66.5504 27.3908 67.7503 27.252 68.7403C27.1159 69.7111 27.2909 70.4688 27.7586 71.1155C28.24 71.781 29.067 72.3785 30.33 72.94L30.7902 73.1449L30.5828 73.6039C29.8174 75.2958 29.2974 76.6725 29.0574 77.7805C28.8159 78.8956 28.8753 79.6581 29.1634 80.1837C29.4427 80.6933 30.0008 81.0933 31.0324 81.3376C32.0688 81.5829 33.5114 81.6525 35.4413 81.5552L35.9267 81.5309L35.9655 82.0147C36.1393 84.1886 36.3153 86.0637 36.5996 87.6235C36.8849 89.1888 37.2709 90.3852 37.8362 91.2291C38.3856 92.0493 39.1122 92.5495 40.1447 92.7236C41.206 92.9026 42.6224 92.7416 44.5332 92.1443L44.9269 92.0209L45.1225 92.3854C46.6355 95.2044 47.9397 97.2226 49.1139 98.5781C50.2922 99.9382 51.2945 100.578 52.1943 100.742C53.0748 100.902 53.9669 100.627 54.9812 99.8952C56.0037 99.1577 57.0958 97.9956 58.3466 96.4834L58.4108 96.4054L58.4998 96.3586L93.6238 77.9573L93.7291 77.9019L93.8473 77.9002C95.5088 77.872 96.8362 77.7773 97.8476 77.5694C98.8699 77.3592 99.4876 77.0488 99.8206 76.6578C100.131 76.2932 100.267 75.7688 100.104 74.9275C99.9397 74.0734 99.4785 72.9615 98.6793 71.5176L98.2265 70.7L99.1578 70.7764C101.669 70.9834 103.626 70.9866 105.009 70.7448Z" fill="#72A729"/>
<path d="M147.3 40.8866C154.165 35.0627 155.249 38.2032 156.891 44.48C166.006 39.9196 170.341 38.7105 170.746 49.3317C178.122 50.2515 181.149 52.0265 180.127 62.5139C185.172 61.4348 186.475 63.8654 185.908 74.0548C186.861 80.9837 186.582 84.2154 180.616 85.5623C183.085 94.6536 180.704 94.5034 175.85 93.3854C174.476 100.488 173.346 103.28 169.024 100.706L167.698 101.472C165.089 104.702 164.572 110.889 159.71 103.716L155.954 104.869C158.643 110.171 157.356 112.242 154.233 115.668L152.768 113.132L129.063 91.9884C117.787 91.1479 115.881 89.3009 121.362 83.2466L119.088 80.8399C106.235 83.8093 106.729 82.425 116.891 77.0359L115.426 74.5C107.051 72.5251 108.228 70.7916 118.096 66.873L117.187 63.0021C104.598 55.9603 106.849 55.3032 120.696 57.5953C116.107 50.8381 116.13 48.5654 123.589 48.8247C125.146 44.2251 127.272 44.1145 132.094 45.9442C131.404 38.477 132.63 37.0682 139.057 41.925C141.67 34.2835 143.728 37.0778 147.3 40.8866Z" fill="#619622"/>
<path d="M108.884 82.2239C108.974 82.4991 109.197 82.6473 109.384 82.7243C109.572 82.8016 109.795 82.839 110.029 82.8562C110.5 82.8907 111.147 82.8509 111.957 82.7481C113.538 82.5473 115.845 82.0929 118.92 81.3872L120.683 83.2526C119.471 84.6268 118.619 85.8184 118.203 86.8563C117.975 87.424 117.866 87.9723 117.919 88.4942C117.973 89.0253 118.191 89.4951 118.559 89.9C119.269 90.6824 120.526 91.2077 122.22 91.5971C123.901 91.9835 126.108 92.2542 128.855 92.4631L152.375 113.43L154.142 116.488L154.603 115.982C156.157 114.278 157.351 112.817 157.76 111.066C158.148 109.41 157.816 107.583 156.661 105.158L159.507 104.285C160.634 105.899 161.574 106.862 162.422 107.276C162.891 107.505 163.35 107.578 163.793 107.481C164.229 107.385 164.593 107.138 164.901 106.833C165.498 106.242 165.995 105.312 166.474 104.413C166.957 103.507 167.442 102.591 168.034 101.841L169.026 101.268C170.03 101.834 170.924 102.144 171.729 102.132C172.64 102.119 173.362 101.698 173.936 100.969C174.492 100.263 174.918 99.256 175.29 98.0186C175.629 96.8929 175.93 95.5371 176.239 93.9741C177.252 94.1992 178.18 94.3751 178.973 94.4019C179.893 94.4328 180.752 94.2701 181.346 93.6327C181.93 93.0059 182.145 92.0389 182.095 90.7492C182.048 89.5423 181.763 87.9632 181.229 85.922C183.985 85.2129 185.588 84.0222 186.325 82.075C187.07 80.1045 186.878 77.4517 186.409 74.0331C186.548 71.5017 186.574 69.432 186.452 67.7684C186.329 66.1011 186.055 64.7989 185.568 63.839C185.069 62.8555 184.346 62.2326 183.376 61.9552C182.6 61.7335 181.699 61.7435 180.683 61.9084C181.092 57.0425 180.59 53.9794 178.971 52.0289C177.344 50.0689 174.694 49.3625 171.223 48.9039C171.101 46.4409 170.759 44.5834 170.146 43.2594C169.485 41.8312 168.502 41.0053 167.183 40.7414C165.912 40.4869 164.398 40.7708 162.68 41.3671C161.092 41.9185 159.271 42.762 157.217 43.7792C156.865 42.4532 156.524 41.2598 156.129 40.2827C155.679 39.1738 155.126 38.2507 154.321 37.7432C153.477 37.2115 152.469 37.2005 151.283 37.6633C150.195 38.0874 148.907 38.9281 147.343 40.2198C146.584 39.4051 145.873 38.629 145.212 38.0201C144.469 37.3361 143.702 36.7756 142.903 36.6395C142.031 36.4909 141.251 36.8606 140.559 37.7069C139.962 38.4355 139.391 39.5576 138.812 41.1377C137.443 40.1344 136.301 39.4199 135.358 39.0141C134.315 38.5651 133.365 38.4291 132.63 38.9157C131.917 39.3881 131.61 40.3216 131.489 41.4479C131.383 42.4393 131.41 43.7032 131.528 45.222C130.616 44.8968 129.791 44.646 129.045 44.5012C128.101 44.3181 127.249 44.2935 126.482 44.5091C124.984 44.9305 124.01 46.2036 123.238 48.33C121.537 48.2886 120.194 48.3847 119.206 48.6691C118.136 48.9772 117.386 49.5386 117.141 50.4644C116.912 51.3303 117.171 52.3767 117.707 53.5558C118.147 54.5226 118.805 55.644 119.646 56.9306C116.709 56.458 114.337 56.13 112.574 55.9946C111.583 55.9185 110.765 55.9009 110.138 55.9547C109.825 55.9816 109.543 56.0276 109.305 56.1008C109.072 56.1722 108.839 56.2817 108.665 56.464C108.474 56.6657 108.386 56.9244 108.416 57.2008C108.442 57.4513 108.561 57.6841 108.704 57.8888C108.99 58.2978 109.496 58.7578 110.175 59.2715C111.519 60.2882 113.702 61.6277 116.749 63.3361L117.51 66.5733C115.229 67.4869 113.417 68.2867 112.099 69.0042C111.401 69.3836 110.827 69.7478 110.391 70.1021C109.961 70.4506 109.624 70.8221 109.458 71.2275C109.277 71.6669 109.311 72.1136 109.564 72.5184C109.797 72.8913 110.195 73.1979 110.682 73.465C111.626 73.9833 113.11 74.4575 115.1 74.9347L116.2 76.8381C113.88 78.0761 112.081 79.0987 110.864 79.9015C110.22 80.3267 109.716 80.7036 109.382 81.0292C109.217 81.1907 109.071 81.3605 108.975 81.5359C108.881 81.7064 108.796 81.9551 108.884 82.2239ZM110.081 81.7451C110.346 81.487 110.785 81.1509 111.415 80.7356C112.668 79.9089 114.587 78.8219 117.125 77.4766L117.583 77.2336L115.751 74.0632L115.541 74.0141C113.451 73.5214 112.011 73.055 111.162 72.5892C110.737 72.3554 110.513 72.1496 110.413 71.9892C110.333 71.8606 110.322 71.7525 110.382 71.6072C110.456 71.4279 110.644 71.1839 111.021 70.8776C111.392 70.577 111.908 70.2464 112.578 69.8819C113.917 69.153 115.817 68.3192 118.28 67.3417L118.681 67.1826L118.583 66.7635L117.623 62.6799L117.431 62.5721C114.285 60.8134 112.091 59.4679 110.778 58.475C110.115 57.9736 109.715 57.5906 109.523 57.3159C109.461 57.2276 109.435 57.1663 109.422 57.1309C109.452 57.1125 109.506 57.0845 109.599 57.0561C109.745 57.0111 109.95 56.9734 110.224 56.9499C110.771 56.903 111.526 56.9162 112.497 56.9908C114.435 57.1396 117.154 57.5248 120.614 58.0972L121.764 58.288L121.109 57.3238C119.966 55.6412 119.126 54.2617 118.618 53.1432C118.101 52.0052 117.972 51.2332 118.107 50.7195C118.227 50.266 118.595 49.8856 119.483 49.6297C120.384 49.3703 121.719 49.2744 123.572 49.3388L123.943 49.3511L124.062 48.9994C124.828 46.739 125.674 45.7741 126.753 45.4706C127.315 45.3126 127.996 45.3152 128.855 45.4819C129.714 45.6487 130.72 45.973 131.917 46.4269L132.666 46.7117L132.593 45.9142C132.421 44.0548 132.372 42.6084 132.485 41.5544C132.601 40.4699 132.872 39.9555 133.183 39.7496C133.472 39.5582 133.99 39.5132 134.963 39.932C135.914 40.3413 137.157 41.1337 138.756 42.3417L139.307 42.7577L139.53 42.1046C140.179 40.2094 140.775 39.0216 141.333 38.34C141.872 37.6813 142.32 37.5547 142.735 37.6255C143.224 37.7088 143.805 38.0836 144.534 38.7551C145.252 39.4165 146.03 40.2822 146.936 41.2472L147.261 41.5937L147.624 41.2865C149.327 39.8423 150.631 38.9901 151.646 38.5943C152.644 38.2048 153.297 38.279 153.787 38.5884C154.316 38.922 154.771 39.5957 155.202 40.6575C155.627 41.7081 155.995 43.0497 156.407 44.6231L156.563 45.2193L157.115 44.9436C159.393 43.8046 161.348 42.887 163.009 42.3102C164.68 41.7298 165.985 41.5205 166.987 41.7212C167.942 41.9124 168.688 42.4905 169.238 43.6785C169.802 44.8962 170.146 46.7318 170.247 49.3646L170.263 49.7891L170.684 49.8417C174.384 50.3029 176.791 50.9668 178.201 52.6666C179.612 54.3665 180.139 57.2427 179.629 62.4722L179.563 63.1517L180.232 63.0093C181.463 62.746 182.395 62.7143 183.101 62.9161C183.776 63.1091 184.289 63.5288 184.676 64.2908C185.074 65.0764 185.335 66.224 185.454 67.8422C185.573 69.4536 185.55 71.4901 185.408 74.0275L185.406 74.0753L185.412 74.1235C185.892 77.6075 186.033 80.0176 185.389 81.721C184.777 83.3409 183.406 84.4146 180.506 85.069L179.997 85.1835L180.133 85.6873C180.747 87.947 181.05 89.5986 181.096 90.7881C181.142 91.9903 180.923 92.6198 180.614 92.9516C180.315 93.2727 179.821 93.4309 179.006 93.4034C178.195 93.376 177.181 93.1687 175.961 92.8881L175.457 92.7722L175.358 93.2801C175.015 95.0519 174.692 96.5372 174.333 97.7314C173.971 98.9331 173.587 99.7945 173.149 100.351C172.728 100.886 172.272 101.124 171.713 101.132C171.116 101.141 170.332 100.888 169.28 100.263L169.028 100.113L167.368 101.071L167.309 101.143C166.621 101.995 166.076 103.033 165.591 103.943C165.088 104.887 164.663 105.661 164.197 106.123C163.973 106.345 163.77 106.462 163.578 106.504C163.395 106.544 163.166 106.529 162.862 106.38C162.216 106.064 161.334 105.205 160.123 103.42L159.916 103.114L159.563 103.223L155.24 104.549L155.508 105.078C156.83 107.684 157.123 109.398 156.786 110.838C156.478 112.155 155.629 113.327 154.321 114.8L153.161 112.792L153.101 112.738L129.395 91.6061L129.269 91.493L129.1 91.4812C126.288 91.2718 124.085 91.0005 122.444 90.6234C120.781 90.2413 119.789 89.7692 119.299 89.2287C119.066 88.9725 118.945 88.6996 118.915 88.3943C118.883 88.0796 118.943 87.697 119.131 87.2279C119.512 86.2775 120.37 85.0818 121.732 83.5772L122.043 83.2346L119.254 80.2851L118.974 80.3495C115.764 81.0907 113.406 81.556 111.83 81.7561C111.038 81.8567 110.471 81.8863 110.102 81.8592C110.06 81.8561 110.021 81.8498 109.987 81.8456C110.014 81.8157 110.044 81.781 110.081 81.7451Z" fill="#619622"/>
<path d="M48.853 54.6501C57.5039 56.5718 64.582 55.7386 65.3492 51.0589C66.1164 46.3792 57.4184 42.0416 50.5177 40.5087C43.6171 38.9758 34.4812 40.1949 34.0215 44.0999C33.5618 48.005 40.2021 52.7285 48.853 54.6501Z" fill="#639233"/>
<path d="M70.7368 59.5938C70.6803 58.8727 63.4897 55.146 61.2803 54.3295C58.9192 53.4569 70.982 47.2083 69.306 48.3645C67.6301 49.5208 67.7065 56.2992 74.6565 57.3119C75.4933 57.4632 71.6942 59.1154 70.7368 59.5938C70.7406 59.6433 70.7109 59.6786 70.6437 59.6979C70.4405 59.7561 70.5063 59.7089 70.7368 59.5938Z" fill="#639233"/>
<path d="M74.5097 43.0373C70.0252 49.9092 64.4219 53.8552 60.1246 51.0841C55.8273 48.313 58.4022 39.727 61.9794 34.2454C65.5567 28.7638 72.9044 23.7707 76.3646 26.1985C79.8247 28.6263 78.9943 36.1653 74.5097 43.0373Z" fill="#639233"/>
<path d="M48.4423 43.0373C52.9268 49.9092 58.5302 53.8552 62.8274 51.0841C67.1247 48.313 64.5498 39.727 60.9726 34.2454C57.3954 28.7638 50.0476 23.7707 46.5874 26.1985C43.1273 28.6264 43.9577 36.1653 48.4423 43.0373Z" fill="#639233"/>
<path d="M72.1617 32.6453C72.3732 32.2891 72.8329 32.1722 73.1891 32.3836C73.5453 32.5949 73.6631 33.0547 73.4518 33.4109L62.6227 51.656L61.9781 51.2742L61.3336 50.8914L72.1617 32.6453Z" fill="#567F26"/>
<path d="M52.203 32.4877C51.9916 32.1316 51.5319 32.0146 51.1757 32.226C50.8195 32.4374 50.7017 32.8972 50.913 33.2534L61.7421 51.4985L62.3866 51.1166L63.0312 50.7338L52.203 32.4877Z" fill="#567F26"/>
<path d="M69.3473 47.7323C69.3639 47.7293 69.4665 47.7083 69.5856 47.7391C69.6536 47.7568 69.7887 47.8077 69.8834 47.952C69.9838 48.1052 69.9734 48.2618 69.9518 48.3505C69.9177 48.4899 69.8311 48.5777 69.8219 48.5878C69.7938 48.6184 69.7649 48.6434 69.7438 48.661C69.6999 48.6976 69.6465 48.7369 69.5895 48.7762C69.3395 48.9487 69.0638 49.4209 68.9518 50.1815C68.8438 50.9148 68.905 51.8213 69.2184 52.7294C69.8361 54.5194 71.4394 56.338 74.7281 56.8173L74.7369 56.8182L74.7447 56.8202C74.826 56.8349 75.0038 56.8761 75.1373 57.0292C75.3181 57.2367 75.2895 57.4816 75.2272 57.6288C75.1752 57.7514 75.0913 57.8424 75.0358 57.8964C74.9724 57.9579 74.8988 58.0165 74.8248 58.0702C74.5362 58.2793 74.0777 58.5309 73.5963 58.7762C73.1062 59.026 72.5609 59.2848 72.0826 59.5096C71.6851 59.6965 71.3405 59.8579 71.1012 59.9735C71.0975 59.9779 71.0952 59.9838 71.0914 59.9882C70.99 60.1031 70.8661 60.1542 70.7809 60.1786C70.7337 60.1921 70.6598 60.2125 70.5914 60.2196C70.5723 60.2216 70.5324 60.2249 70.484 60.2206C70.4618 60.2187 70.3075 60.2084 70.1754 60.0809C70.0922 60.0006 70.035 59.889 70.024 59.7626C70.0165 59.6759 70.0342 59.6042 70.0524 59.5526C69.8698 59.4035 69.6067 59.217 69.274 59.0018C68.5734 58.5486 67.6132 57.9966 66.5777 57.4374C64.5004 56.3154 62.1758 55.1941 61.1061 54.7987C60.8877 54.7179 60.6593 54.5714 60.5426 54.3104C60.4256 54.0488 60.4727 53.7869 60.5514 53.5897C60.6992 53.2197 61.051 52.8417 61.44 52.494C62.249 51.7712 63.5167 50.9247 64.776 50.1591C66.0424 49.3891 67.3305 48.6835 68.1998 48.2411C68.6271 48.0236 68.9751 47.8581 69.1695 47.785C69.214 47.7684 69.2803 47.7446 69.3473 47.7323ZM68.0924 49.4237C67.2956 49.846 66.2887 50.4097 65.2955 51.0136C64.0438 51.7746 62.8434 52.5821 62.107 53.2401C61.787 53.5261 61.6037 53.7446 61.5201 53.8866C62.684 54.327 65.0091 55.4534 67.0533 56.5575C68.0985 57.122 69.0845 57.6882 69.817 58.162C70.1815 58.3978 70.4958 58.6186 70.7252 58.8104C70.7853 58.8607 70.8425 58.9129 70.8961 58.9647C71.1159 58.8608 71.3787 58.7356 71.6578 58.6044C72.1349 58.3801 72.6674 58.1266 73.1422 57.8846C73.3198 57.7941 73.4851 57.7066 73.6344 57.6249C70.5874 56.8969 68.9453 55.0035 68.2731 53.0555C67.9081 51.9981 67.8307 50.9294 67.9625 50.035C67.9933 49.8263 68.0363 49.6209 68.0924 49.4237Z" fill="#639233"/>
<path d="M40.0458 46.2211C39.6197 46.1464 39.1989 46.3971 39.1056 46.7808C39.0123 47.1645 39.2818 47.5366 39.7079 47.6114L62.4193 51.5982L62.7565 50.2086L40.0458 46.2211Z" fill="#567F26"/>
<path d="M145.019 108.642C144.226 111.157 142.752 112.704 140.148 114.782C139.456 115.334 139.695 116.413 140.566 116.627C141.001 116.733 141.459 116.57 141.724 116.221C143.996 113.236 145.693 111.824 149.524 111.269C149.721 111.24 149.924 111.244 150.12 111.275C157.783 112.481 162.447 112.879 169.046 111.734C170.349 111.508 170.874 110.177 169.794 109.44C165.48 106.5 156.434 104.403 161.201 104.956C166.213 105.537 179.028 104.073 182.914 101.281C183.683 100.728 183.362 99.7341 182.517 99.2951C176.323 96.0764 171.63 95.5154 168.283 96.2091L173.952 94.6465C174.295 94.5519 174.607 94.3692 174.853 94.1204C180.078 88.8372 183.365 85.6465 181.472 80.6954C181.268 80.163 180.786 79.7715 180.209 79.6533C177.007 78.9977 175.376 79.8098 172.715 81.1905C172.626 81.2368 172.537 81.2916 172.456 81.3505C165.631 86.3299 164.237 89.0431 163.097 93.8051C163.981 88.0474 164.285 84.7694 160.937 81.2406C160.52 80.8011 159.893 80.6061 159.283 80.707C157.07 81.0733 155.629 81.6907 153.737 84.5584C153.656 84.681 153.589 84.8181 153.541 84.9556C150.507 93.57 151.148 96.2253 151.719 101.471C150.664 96.5361 149.894 93.6811 146.331 91.6468C145.604 91.2315 144.685 91.4053 144.092 91.986L143.114 92.9443C142.577 93.4707 142.401 94.2474 142.662 94.9411C144.362 99.4697 145.428 102.357 145.093 108.229C145.085 108.368 145.061 108.509 145.019 108.642Z" fill="#486017"/>
<path d="M183.063 101.468C183.531 101.132 183.675 100.648 183.564 100.188C183.456 99.7402 183.113 99.3296 182.637 99.0821C177.949 96.6501 174.096 95.7196 171.017 95.7097L174.021 94.8825C174.408 94.7761 174.759 94.5708 175.035 94.2917C177.638 91.6633 179.792 89.5234 181.049 87.4183C182.319 85.2909 182.681 83.1846 181.706 80.6378C181.472 80.0265 180.92 79.5795 180.262 79.4448C178.628 79.1108 177.379 79.1489 176.194 79.4533C175.02 79.755 173.922 80.3169 172.597 81.0035C172.496 81.0556 172.397 81.1173 172.306 81.1836C168.884 83.6758 166.805 85.6146 165.438 87.5393C164.715 88.5578 164.196 89.5687 163.782 90.6472C163.941 89.1819 163.994 87.8804 163.852 86.6765C163.614 84.6467 162.829 82.9006 161.121 81.1029C160.644 80.6013 159.931 80.3814 159.241 80.4952C158.12 80.6804 157.166 80.9336 156.251 81.5184C155.338 82.1018 154.482 83.0025 153.526 84.4491C153.434 84.5886 153.358 84.7431 153.304 84.8974C151.783 89.2097 151.178 92.046 151.028 94.468C150.957 95.6167 150.992 96.6705 151.076 97.7401C150.248 94.9186 149.105 92.9588 146.459 91.45C145.619 90.9712 144.576 91.1795 143.914 91.827L142.936 92.7836C142.332 93.3751 142.134 94.2475 142.427 95.0269C144.123 99.5394 145.175 102.386 144.844 108.201C144.837 108.322 144.816 108.444 144.78 108.557C144.008 111 142.581 112.508 139.988 114.573C139.144 115.245 139.429 116.569 140.504 116.832C141.04 116.964 141.602 116.762 141.926 116.337C143.057 114.853 144.029 113.78 145.182 113.009C146.329 112.241 147.673 111.76 149.561 111.487C149.73 111.462 149.907 111.465 150.08 111.492C157.753 112.698 162.45 113.101 169.09 111.95C169.819 111.824 170.359 111.383 170.551 110.837C170.747 110.278 170.564 109.653 169.938 109.228C167.751 107.739 164.379 106.471 162.182 105.653C161.664 105.459 161.212 105.291 160.852 105.15C160.95 105.16 161.056 105.171 161.171 105.185C163.71 105.479 168.193 105.254 172.518 104.612C174.684 104.29 176.818 103.862 178.658 103.338C180.492 102.816 182.056 102.191 183.063 101.468ZM183.077 100.297C183.145 100.58 183.065 100.868 182.765 101.083C181.829 101.755 180.334 102.36 178.516 102.878C176.703 103.394 174.592 103.817 172.441 104.137C168.135 104.777 163.704 104.994 161.231 104.707C160.639 104.639 160.237 104.608 160.012 104.619C159.954 104.622 159.895 104.628 159.843 104.642C159.805 104.651 159.702 104.681 159.641 104.778C159.557 104.91 159.621 105.034 159.658 105.084C159.695 105.134 159.745 105.171 159.782 105.196C159.932 105.296 160.227 105.423 160.593 105.567C160.969 105.716 161.452 105.895 162.002 106.1C164.215 106.924 167.523 108.172 169.649 109.62C170.105 109.929 170.199 110.337 170.077 110.683C169.951 111.042 169.575 111.378 169.001 111.477C162.443 112.614 157.812 112.221 150.161 111.019C149.942 110.984 149.711 110.98 149.487 111.012C147.544 111.293 146.123 111.794 144.896 112.615C143.675 113.433 142.663 114.557 141.522 116.053C141.316 116.324 140.962 116.449 140.628 116.367C139.961 116.204 139.768 115.372 140.307 114.943C142.924 112.858 144.443 111.276 145.259 108.697C145.307 108.543 145.334 108.383 145.343 108.227C145.68 102.315 144.6 99.3951 142.896 94.8637C142.669 94.258 142.823 93.58 143.293 93.1203L144.271 92.1628C144.795 91.6509 145.588 91.5123 146.203 91.8627C149.661 93.8339 150.417 96.5783 151.474 101.515L151.968 101.442C151.681 98.8111 151.381 96.864 151.527 94.4961C151.673 92.1323 152.264 89.3408 153.777 85.0512C153.82 84.9311 153.879 84.8121 153.948 84.707C154.884 83.2905 155.695 82.45 156.528 81.9179C157.359 81.3873 158.233 81.1493 159.325 80.9688C159.854 80.8814 160.395 81.0508 160.752 81.4265C162.392 83.1524 163.129 84.805 163.355 86.7299C163.583 88.671 163.293 90.8959 162.85 93.7759L163.341 93.865C163.907 91.4995 164.533 89.6667 165.851 87.8094C167.173 85.9477 169.203 84.0459 172.607 81.5662C172.678 81.5148 172.756 81.4669 172.834 81.4265C174.169 80.7345 175.217 80.2012 176.324 79.9166C177.421 79.6347 178.589 79.5941 180.157 79.9147C180.653 80.016 181.064 80.3519 181.237 80.8038C182.155 83.2005 181.821 85.1589 180.615 87.1791C179.396 89.2218 177.294 91.3136 174.673 93.9606C174.457 94.1783 174.184 94.3385 173.884 94.4211L168.214 95.9807C167.716 96.0844 167.247 96.215 166.806 96.369L166.959 96.8257L168.335 96.4468C171.606 95.7699 176.238 96.3077 182.398 99.5041C182.766 99.6951 183.006 100.001 183.077 100.297Z" fill="#486017"/>
<path d="M59.8003 74.5154C60.5939 77.03 62.0672 78.5773 64.6717 80.6553C65.3633 81.207 65.1244 82.2864 64.2537 82.4997C63.8186 82.6063 63.3608 82.4431 63.0956 82.0946C60.8239 79.1092 59.1269 77.6971 55.2953 77.1421C55.0989 77.1136 54.8951 77.1175 54.6991 77.1483C47.0367 78.3538 42.3727 78.7526 35.7737 77.607C34.4704 77.3808 33.9451 76.05 35.0256 75.3135C39.3397 72.3727 48.386 70.2757 43.6185 70.829C38.6065 71.4106 25.7915 69.9464 21.9056 67.1539C21.1363 66.6011 21.4572 65.6073 22.3021 65.1682C28.4964 61.9496 33.1892 61.3885 36.5369 62.0823L30.8673 60.5197C30.524 60.4251 30.212 60.2424 29.966 59.9936C24.7416 54.7103 21.4544 51.5197 23.3477 46.5686C23.5513 46.0362 24.0334 45.6446 24.6102 45.5265C27.8123 44.8709 29.4439 45.6829 32.1045 47.0637C32.1938 47.11 32.2823 47.1648 32.3631 47.2237C39.1883 52.2031 40.5826 54.9163 41.722 59.6783C40.8388 53.9206 40.5346 50.6425 43.8829 47.1137C44.2999 46.6743 44.9267 46.4793 45.5364 46.5802C47.7496 46.9465 49.19 47.5639 51.0826 50.4316C51.1635 50.5541 51.2304 50.6913 51.2789 50.8288C54.3126 59.4432 53.6711 62.0985 53.1009 67.3444C54.1551 62.4093 54.925 59.5543 58.4884 57.52C59.2159 57.1046 60.1344 57.2785 60.727 57.8592L61.705 58.8175C62.2421 59.3439 62.4183 60.1206 62.1579 60.8143C60.4578 65.3428 59.3914 68.2299 59.726 74.1018C59.734 74.241 59.7582 74.3821 59.8003 74.5154Z" fill="#486017"/>
<path d="M21.7561 67.3411C21.288 67.0051 21.1443 66.5207 21.2551 66.061C21.3631 65.6134 21.7062 65.2027 22.1829 64.9553C26.87 62.5233 30.723 61.5928 33.802 61.5828L30.7981 60.7557C30.4118 60.6493 30.0609 60.444 29.7844 60.1648C27.1815 57.5365 25.0275 55.3965 23.7708 53.2915C22.5007 51.1641 22.1382 49.0578 23.1135 46.5109C23.3477 45.8997 23.8997 45.4526 24.5579 45.318C26.1916 44.984 27.441 45.022 28.6252 45.3264C29.7991 45.6282 30.8979 46.1901 32.2229 46.8767C32.3234 46.9288 32.4229 46.9904 32.5139 47.0567C35.935 49.549 38.0146 51.4878 39.3811 53.4124C40.1043 54.431 40.623 55.4418 41.0374 56.5204C40.8789 55.0551 40.8257 53.7536 40.967 52.5496C41.2053 50.5199 41.9903 48.7738 43.6985 46.9761C44.1753 46.4745 44.8886 46.2545 45.5784 46.3684C46.699 46.5536 47.653 46.8068 48.5686 47.3916C49.4819 47.9749 50.337 48.8756 51.2932 50.3223C51.3854 50.4618 51.4614 50.6163 51.5159 50.7706C53.0367 55.0829 53.6419 57.9192 53.7913 60.3411C53.8621 61.4898 53.827 62.5436 53.7434 63.6132C54.5711 60.7918 55.7141 58.832 58.3606 57.3232C59.2006 56.8444 60.2438 57.0527 60.9055 57.7002L61.8831 58.6568C62.4875 59.2482 62.6858 60.1206 62.3928 60.9001C60.6963 65.4126 59.644 68.2592 59.9758 74.0738C59.9828 74.1954 60.0036 74.3172 60.0393 74.4302C60.8114 76.8729 62.2387 78.381 64.8313 80.4464C65.675 81.1186 65.3904 82.4426 64.3157 82.7056C63.7795 82.8368 63.2179 82.6355 62.8938 82.2105C61.7624 80.7258 60.7903 79.6533 59.6379 78.8821C58.4901 78.114 57.1465 77.6331 55.2581 77.36C55.0896 77.3356 54.9121 77.3385 54.7395 77.3656C47.0665 78.571 42.3698 78.9743 35.7297 77.8233C35.0005 77.6969 34.4608 77.2558 34.2688 76.7101C34.0723 76.1516 34.2558 75.5264 34.8811 75.1008C37.0684 73.612 40.44 72.3443 42.637 71.5257C43.1554 71.3326 43.6074 71.1638 43.967 71.0231C43.8695 71.0331 43.7635 71.0445 43.6487 71.0578C41.1096 71.352 36.6262 71.1276 32.301 70.4847C30.1356 70.1629 28.0011 69.7352 26.1614 69.2112C24.3275 68.6888 22.7638 68.0642 21.7561 67.3411ZM21.7424 66.1698C21.6741 66.4536 21.7543 66.7407 22.0549 66.9566C22.9902 67.6277 24.4856 68.2328 26.304 68.7507C28.1164 69.2669 30.2278 69.6906 32.3782 70.0102C36.6847 70.6503 41.1151 70.8669 43.5881 70.5804C44.1805 70.5118 44.5822 70.4809 44.8079 70.4922C44.8652 70.4951 44.9244 70.5014 44.9768 70.5148C45.0143 70.5243 45.1175 70.5541 45.179 70.6507C45.2628 70.783 45.1988 70.9073 45.1614 70.9574C45.1243 71.0069 45.0747 71.0439 45.0374 71.069C44.8876 71.1695 44.5924 71.296 44.2268 71.4404C43.8508 71.5889 43.3674 71.7682 42.8176 71.9731C40.6048 72.7975 37.2969 74.0452 35.1702 75.4928C34.715 75.8026 34.6206 76.21 34.7424 76.5563C34.8688 76.9153 35.2445 77.2511 35.8186 77.3506C42.3761 78.4873 47.007 78.094 54.6584 76.892C54.8778 76.8576 55.108 76.853 55.3323 76.8855C57.2753 77.1665 58.6967 77.6676 59.9231 78.4882C61.1449 79.3058 62.1569 80.43 63.2971 81.9263C63.5033 82.1969 63.8578 82.322 64.1917 82.2405C64.8582 82.0774 65.0512 81.2455 64.512 80.8159C61.8955 78.7315 60.376 77.149 59.5608 74.5699C59.5123 74.4166 59.4857 74.2564 59.4768 74.1001C59.1394 68.1881 60.2195 65.2683 61.9231 60.7369C62.1506 60.1312 61.9962 59.4531 61.5266 58.9935L60.5481 58.036C60.0247 57.5241 59.2313 57.3855 58.6165 57.7358C55.1587 59.707 54.402 62.4514 53.3459 67.388L52.8518 67.3149C53.1381 64.6842 53.4382 62.7371 53.2922 60.3693C53.1465 58.0055 52.5551 55.2139 51.0422 50.9244C50.9999 50.8043 50.9408 50.6853 50.8713 50.5802C49.9351 49.1636 49.1244 48.3232 48.2913 47.7911C47.4604 47.2604 46.5867 47.0225 45.4944 46.842C44.9652 46.7545 44.4247 46.924 44.0676 47.2996C42.4276 49.0255 41.6901 50.6782 41.4641 52.6031C41.2363 54.5442 41.5266 56.7691 41.969 59.649L41.4788 59.7381C40.912 57.3727 40.2867 55.5399 38.968 53.6825C37.6462 51.8208 35.616 49.9191 32.2122 47.4394C32.1416 47.388 32.0635 47.34 31.9856 47.2996C30.6502 46.6076 29.6028 46.0744 28.4954 45.7897C27.3983 45.5078 26.2304 45.4673 24.6624 45.7879C24.1668 45.8892 23.7553 46.2251 23.5823 46.6769C22.6645 49.0737 22.9984 51.0321 24.2043 53.0523C25.4239 55.095 27.5253 57.1867 30.1467 59.8338C30.3623 60.0514 30.6358 60.2117 30.9358 60.2943L36.6057 61.8539C37.1035 61.9576 37.5728 62.0882 38.0139 62.2421L37.8606 62.6989L36.4846 62.32C33.2132 61.643 28.5817 62.1808 22.4211 65.3773C22.0531 65.5683 21.8138 65.8737 21.7424 66.1698Z" fill="#486017"/>
<path d="M129.212 97.4483C79.4949 120.69 105.179 101.976 75.5587 60.021C80.6957 46.5706 98.3882 41.3074 105.808 39.553C122.361 38.3834 118.936 31.3657 124.073 25.5177C125.188 18.4379 124.073 9.72805 126.927 7.38884C134.347 -5.47638 139.426 0.805135 137.772 8.55845C149.129 1.97464 146.333 14.9905 144.05 17.3305C150.842 14.8403 149.758 18.4993 149.758 20.2545C149.758 29.0257 140.365 27.0265 134.347 31.3657C124.644 42.4762 130.922 55.9258 131.493 60.0203C142.338 83.9971 131.495 91.5996 129.212 97.4483Z" fill="#93250C"/>
<path d="M107.571 57.5388C102.932 56.9441 90.099 55.2988 89.3901 69.8303C88.2489 93.2224 88.8054 98.4669 99.6502 107.239C89.9475 105.485 76.8196 100.807 71.1118 89.6955C68.258 82.6779 67.6871 71.5666 76.2488 58.1162C81.2069 50.3269 88.2351 42.9108 101.363 39.9873C109.387 36.79 112.029 39.9868 120.591 31.7995C122.874 25.3667 124.112 25.9515 124.586 13.0859C124.016 11.3315 130.294 -1.53423 135.431 0.220241C132.31 9.81217 129.84 14.8403 126.986 25.3667C122.991 34.1388 129.269 43.4956 110.433 43.4956C115.571 49.3436 121.925 58.1343 107.655 57.5495L107.571 57.5388Z" fill="#DA751A"/>
<path d="M123.797 90.5095C140.921 64.1934 121.514 56.5906 130.079 35.5381C132.361 23.8417 148.912 23.2572 148.341 16.7681C148.341 15.6548 140.35 16.7681 132.93 26.7657C133.501 18.5787 145.487 13.3155 143.774 6.88246C140.921 5.71305 133.353 8.63707 128.934 25.0113C128.364 17.9939 131.789 11.5611 136.925 1.61924C136.355 0.4499 135.784 -0.134968 134.642 0.449631C131.521 10.0416 129.505 14.4849 126.651 25.0113C122.656 33.7834 128.935 43.1402 110.099 43.1402C115.236 48.9882 118.879 57.531 104.609 56.9462C100.043 56.3613 89.6931 55.421 88.9799 70.0411C87.8387 93.4332 88.9799 98.6964 99.8246 107.469C116.596 103.73 113.523 105.13 123.797 90.5095Z" fill="#AF4D10"/>
<path d="M107.295 43.5202C108.371 45.5928 105.5 49.3121 100.883 51.8274C96.2655 54.3426 91.6506 54.7015 90.575 52.6289C89.4994 50.5563 92.3704 46.837 96.9875 44.3218C101.605 41.8065 106.219 41.4476 107.295 43.5202Z" fill="#DC9650"/>
<path d="M78.0295 74.6563C79.1117 75.2965 82.1782 71.9303 84.8788 67.1378C87.5794 62.3454 88.8913 57.9413 87.8091 57.3012C86.727 56.661 83.6604 60.0271 80.9598 64.8196C78.2592 69.6121 76.9473 74.0161 78.0295 74.6563Z" fill="#DC9650"/>
<path d="M116.591 113.349C114.869 101.875 102.292 65.9216 77.8351 71.7321C61.5101 80.458 42.196 85.5729 33.1876 92.9056L30.817 101.912L38.8771 118.251C62.2048 143.373 79.7344 127.553 116.591 113.349Z" fill="#FBD37E"/>
<path d="M86.3965 108.316L128.661 72.761C129.111 72.3822 129.809 72.4967 130.139 73.0062C140.34 88.7361 138.805 101.644 130.497 113.157C122.147 124.729 102.091 126.792 86.3303 109.737C85.9439 109.319 85.975 108.671 86.3965 108.316Z" fill="#FFA01B"/>
<path d="M130.557 72.7443C130.058 71.9752 129.008 71.8053 128.331 72.3744L86.0668 107.93C85.4328 108.463 85.3843 109.438 85.9675 110.069C101.9 127.31 122.338 125.332 130.907 113.458C135.102 107.644 137.609 101.446 137.759 94.691C137.909 87.9351 135.7 80.6752 130.557 72.7443ZM128.99 73.1474C129.214 72.959 129.56 73.0177 129.722 73.2675C134.78 81.0664 136.904 88.1266 136.759 94.6354C136.615 101.145 134.2 107.157 130.088 112.856C121.955 124.126 102.281 126.273 86.6923 109.404C86.5271 109.225 86.5169 108.957 86.6566 108.775L86.7264 108.703L128.99 73.1474Z" fill="#FF9225"/>
<path d="M90.6176 105.025L124.685 76.1261C125.137 75.7434 125.838 75.8564 126.166 76.371C134.337 89.1855 133.072 99.7136 126.35 109.108C119.583 118.566 103.355 120.276 90.5522 106.438C90.1677 106.022 90.1999 105.379 90.6176 105.025Z" fill="#FFCF83"/>
<path d="M126.585 76.1131C126.088 75.3328 125.03 75.1669 124.354 75.7402L90.2867 104.64C89.6594 105.172 89.607 106.14 90.1901 106.771C103.165 120.795 119.775 119.168 126.76 109.408C130.162 104.653 132.205 99.5805 132.343 94.0513C132.481 88.5213 130.713 82.5865 126.585 76.1131ZM125.017 76.5113C125.243 76.3195 125.587 76.3805 125.746 76.6294C129.79 82.9702 131.475 88.7066 131.343 93.9927C131.211 99.2797 129.26 104.169 125.94 108.809C119.39 117.963 103.545 119.757 90.9148 106.105C90.7289 105.904 90.7411 105.587 90.9492 105.41L125.017 76.5113Z" fill="#FFCB83"/>
<path d="M127.013 80.6786C129.557 85.5588 131.035 92.8326 129.891 94.4099C129.693 94.6819 129.315 94.6534 128.984 94.5594C126.096 93.7408 111.692 89.6251 112.72 89.2475C113.597 88.9257 120.867 82.9236 124.203 80.1478C125.097 79.4042 126.459 79.6166 127.013 80.6786Z" fill="#FFB224"/>
<path d="M114.235 93.2324L126.831 96.7732C127.751 97.0319 128.394 97.8983 128.308 98.838C127.772 104.708 125.499 107.515 119.601 110.232C118.575 110.705 117.347 110.153 116.936 109.073L111.886 95.8107C111.304 94.2829 112.664 92.7907 114.235 93.2324Z" fill="#FFB224"/>
<path d="M96.1884 106.258C101.888 110.717 105.968 112.345 112.066 112.672C113.378 112.743 114.296 111.497 113.921 110.23L109.493 95.2757C109.07 93.8473 107.309 93.3046 106.221 94.2671L96.0618 103.25C95.1594 104.048 95.2079 105.491 96.1884 106.258Z" fill="#FFB224"/>
<path d="M109.972 95.1493C109.443 93.3638 107.243 92.6852 105.883 93.8883L95.7234 102.871C94.5988 103.866 94.6485 105.678 95.8879 106.648C98.7604 108.895 101.249 110.447 103.805 111.477C106.364 112.508 108.966 113.006 112.057 113.171C113.728 113.261 114.866 111.678 114.4 110.103L109.972 95.1493ZM106.559 94.6466C107.376 93.9249 108.696 94.3311 109.013 95.4021L113.442 110.357C113.726 111.317 113.029 112.224 112.077 112.173C109.069 112.012 106.582 111.531 104.151 110.552C101.718 109.571 99.3161 108.081 96.4888 105.869C95.7675 105.305 95.7203 104.231 96.4002 103.63L106.559 94.6466ZM114.356 92.7512C112.392 92.199 110.692 94.0653 111.419 95.975L116.469 109.237C116.981 110.582 118.52 111.286 119.823 110.686C122.802 109.314 124.925 107.894 126.365 106.031C127.812 104.16 128.533 101.892 128.806 98.9001C128.916 97.6996 128.095 96.6137 126.951 96.2922L114.356 92.7512ZM112.353 95.647C111.916 94.5012 112.937 93.3823 114.115 93.7135L126.71 97.2536C127.407 97.4494 127.872 98.0972 127.81 98.7761C127.547 101.654 126.864 103.724 125.566 105.403C124.262 107.09 122.298 108.432 119.379 109.777C118.63 110.122 117.713 109.725 117.402 108.909L112.353 95.647ZM127.455 80.4593C126.731 79.0699 124.979 78.8414 123.875 79.7594C122.208 81.1469 119.559 83.3399 117.217 85.2251C116.047 86.1679 114.956 87.0317 114.104 87.6788C113.678 88.0028 113.315 88.27 113.034 88.4645C112.894 88.5618 112.777 88.6383 112.686 88.6939C112.641 88.7216 112.604 88.7424 112.576 88.7573C112.547 88.7727 112.534 88.7778 112.534 88.7778C112.462 88.8043 112.217 88.9093 112.173 89.2034C112.133 89.4731 112.304 89.6564 112.349 89.7021C112.468 89.8246 112.647 89.9226 112.794 89.9959C113.125 90.1608 113.639 90.365 114.265 90.5913C115.529 91.0475 117.333 91.6258 119.25 92.2154C123.09 93.3956 127.418 94.6305 128.863 95.0399C129.056 95.0949 129.302 95.1423 129.551 95.119C129.811 95.0945 130.099 94.9873 130.299 94.712C130.502 94.4319 130.622 94.0646 130.693 93.6706C130.764 93.2701 130.791 92.8036 130.782 92.2934C130.764 91.2723 130.601 90.0289 130.325 88.6968C129.773 86.0336 128.753 82.9486 127.455 80.4593ZM124.531 80.5364C125.215 79.9672 126.188 80.1632 126.571 80.8975C127.817 83.2882 128.809 86.2807 129.345 88.8686C129.614 90.162 129.765 91.3391 129.782 92.2778C129.79 92.7472 129.764 93.1456 129.707 93.4637C129.649 93.7882 129.565 93.9936 129.483 94.1079C129.48 94.1115 129.479 94.1117 129.477 94.1127C129.472 94.115 129.457 94.1213 129.425 94.1245C129.352 94.1313 129.243 94.1175 129.106 94.0786C127.662 93.6695 123.343 92.4375 119.515 91.2608C117.6 90.672 115.816 90.0995 114.578 89.6523C114.201 89.5162 113.882 89.3924 113.629 89.2873C113.926 89.0816 114.299 88.8072 114.727 88.4821C115.589 87.8268 116.688 86.9555 117.861 86.0108C120.208 84.1207 122.863 81.9247 124.531 80.5364Z" fill="#FFAB35"/>
<path d="M123.185 87.5692C123.208 88.2642 124.09 88.8276 125.155 88.8276C126.219 88.8276 127.064 88.2642 127.04 87.5692C127.017 86.8742 126.135 86.3108 125.07 86.3108C124.006 86.3108 123.161 86.8742 123.185 87.5692Z" fill="#FFC115"/>
<path d="M119.863 103.509C119.901 104.668 120.623 105.607 121.475 105.607C122.327 105.607 122.986 104.668 122.947 103.509C122.909 102.351 122.187 101.412 121.335 101.412C120.483 101.412 119.824 102.351 119.863 103.509Z" fill="#FFC115"/>
<path d="M106.878 107.284C106.909 108.211 107.625 108.962 108.477 108.962C109.328 108.962 109.994 108.211 109.963 107.284C109.932 106.357 109.216 105.606 108.364 105.606C107.512 105.606 106.847 106.357 106.878 107.284Z" fill="#FFC115"/>
<path d="M100.653 105.606C100.684 106.533 101.4 107.284 102.252 107.284C103.104 107.284 103.769 106.533 103.738 105.606C103.707 104.679 102.991 103.928 102.139 103.928C101.288 103.928 100.622 104.679 100.653 105.606Z" fill="#FFC115"/>
<path d="M168.306 70.4239C168.472 70.5359 168.594 70.7075 168.644 70.9105C169.353 73.7758 167.844 79.0678 164.372 82.8188C164.079 83.1354 163.738 83.3962 163.366 83.5967C158.88 86.0162 153.157 86.9663 151.122 84.067C148.295 80.0397 151.122 73.9988 155.047 70.6027C159.016 68.0331 165.356 68.4353 168.306 70.4239Z" fill="#939423"/>
<path d="M146.148 69.0852C148.791 73.55 148.793 78.6148 146.154 80.3979C143.514 82.1809 139.232 80.0069 136.59 75.5421C134.632 70.0624 134.161 67.5454 136.584 64.2294C139.816 64.0215 142.643 65.0283 146.148 69.0852Z" fill="#939423"/>
<path d="M139.724 74.2117C140.16 73.8736 140.788 73.9506 141.128 74.3836C145.294 79.6933 147.086 82.8572 148.753 87.5091C152.294 83.6829 155.723 80.9731 160.596 77.2973C161.036 76.9653 161.664 77.0508 161.998 77.4887C162.331 77.9265 162.245 78.5509 161.805 78.8828C156.428 82.9383 152.94 85.7212 149.114 90.0876C147.821 91.5636 146.485 93.2253 145.023 95.1833C144.694 95.6242 144.068 95.7166 143.625 95.3893C143.181 95.0617 143.088 94.4382 143.418 93.997C144.765 92.1925 146.015 90.6244 147.23 89.2132C145.527 84.1904 143.905 81.1556 139.551 75.6078C139.212 75.1747 139.289 74.5498 139.724 74.2117Z" fill="#677D1B"/>
<path d="M110.139 122.504C110.139 127.856 105.868 132.194 100.601 132.194C95.3328 132.194 91.0624 127.856 91.0624 122.504C91.0624 117.152 95.3328 112.813 100.601 112.813C105.868 112.813 110.139 117.152 110.139 122.504Z" fill="#28061D"/>
<path d="M108.131 116.384C106.625 114.344 104.152 113.143 101.739 112.876C99.3262 112.609 96.8944 113.205 94.9393 114.542C92.9842 115.879 91.653 117.857 91.2171 120.072C90.7813 122.288 91.0624 126.584 92.5686 127.094C95.7735 128.901 100.458 129.024 104.123 126.465C107.738 123.941 108.795 121.226 108.131 116.384Z" fill="#591636"/>
<path d="M98.3838 116.974C99.1593 117.582 99.1376 118.931 98.3353 119.988C97.5331 121.044 96.254 121.409 95.4785 120.801C94.703 120.193 94.7247 118.844 95.527 117.787C96.3293 116.73 97.6083 116.366 98.3838 116.974Z" fill="#FCFCFF"/>
<path d="M98.3172 117.062C97.9632 116.785 97.487 116.723 96.9947 116.863C96.5026 117.003 96.002 117.344 95.6138 117.855C95.2257 118.367 95.0286 118.945 95.0201 119.464C95.0117 119.983 95.1915 120.436 95.5455 120.713C95.8995 120.99 96.3751 121.052 96.8673 120.912C97.3594 120.771 97.8607 120.431 98.2489 119.92L98.3353 119.988C97.5831 120.978 96.4118 121.36 95.6294 120.903L95.4785 120.801C94.703 120.193 94.7247 118.844 95.527 117.787C96.3293 116.73 97.6083 116.366 98.3838 116.974L98.5193 117.096C99.1532 117.749 99.0876 118.997 98.3353 119.988L98.2489 119.92C98.6371 119.409 98.8334 118.83 98.8419 118.311C98.8502 117.791 98.6711 117.339 98.3172 117.062Z" fill="#FCFCFF"/>
<path d="M38.0719 79.8417C38.0719 85.1935 33.8015 89.532 28.5337 89.532C23.2659 89.532 18.9955 85.1935 18.9955 79.8417C18.9955 74.4899 23.2659 70.1514 28.5337 70.1514C33.8015 70.1514 38.0719 74.4899 38.0719 79.8417Z" fill="#28061D"/>
<path d="M36.0639 73.7215C34.5579 71.6814 32.0847 70.481 29.672 70.2139C27.2593 69.9467 24.8275 70.5425 22.8724 71.8797C20.9173 73.2169 19.5861 75.1949 19.1502 77.4104C18.7144 79.6258 18.9955 83.9218 20.5017 84.4318C23.7066 86.2391 28.3912 86.3614 32.0561 83.8026C35.6709 81.2788 36.7285 78.564 36.0639 73.7215Z" fill="#591636"/>
<path d="M26.3169 74.3118C27.0924 74.9195 27.0707 76.2688 26.2684 77.3255C25.4662 78.3823 24.1871 78.7464 23.4116 78.1387C22.6361 77.5311 22.6578 76.1818 23.4601 75.125C24.2624 74.0682 25.5414 73.7041 26.3169 74.3118Z" fill="#FCFCFF"/>
<path d="M26.2503 74.4C25.8963 74.1226 25.4201 74.0609 24.9278 74.201C24.4357 74.3412 23.9351 74.6819 23.5469 75.1931C23.1588 75.7044 22.9617 76.2829 22.9532 76.802C22.9448 77.3213 23.1246 77.7736 23.4786 78.051C23.8326 78.3283 24.3082 78.3895 24.8004 78.2494C25.2925 78.1092 25.7938 77.7692 26.182 77.2579L26.2684 77.3255C25.5162 78.3164 24.3449 78.698 23.5625 78.2409L23.4116 78.1387C22.6361 77.5311 22.6578 76.1818 23.4601 75.125C24.2624 74.0682 25.5414 73.7041 26.3169 74.3118L26.4524 74.4342C27.0863 75.087 27.0207 76.3347 26.2684 77.3255L26.182 77.2579C26.5702 76.7465 26.7665 76.1676 26.775 75.6484C26.7833 75.1292 26.6042 74.6774 26.2503 74.4Z" fill="#FCFCFF"/>
<path d="M150.913 96.9061C150.913 102.258 146.643 106.596 141.375 106.596C136.107 106.596 131.837 102.258 131.837 96.9061C131.837 91.5543 136.107 87.2158 141.375 87.2158C146.643 87.2158 150.913 91.5543 150.913 96.9061Z" fill="#28061D"/>
<path d="M148.905 90.7859C147.399 88.7459 144.926 87.5455 142.513 87.2783C140.101 87.0112 137.669 87.6069 135.714 88.9442C133.759 90.2814 132.427 92.2594 131.992 94.4748C131.556 96.6903 131.837 100.986 133.343 101.496C136.548 103.304 141.233 103.426 144.897 100.867C148.512 98.3432 149.57 95.6284 148.905 90.7859Z" fill="#591636"/>
<path d="M139.158 91.3763C139.934 91.9839 139.912 93.3332 139.11 94.39C138.307 95.4468 137.028 95.8109 136.253 95.2032C135.477 94.5955 135.499 93.2463 136.301 92.1895C137.104 91.1327 138.383 90.7686 139.158 91.3763Z" fill="#FCFCFF"/>
<path d="M139.092 91.4644C138.738 91.187 138.261 91.1253 137.769 91.2655C137.277 91.4057 136.776 91.7463 136.388 92.2576C136 92.7689 135.803 93.3473 135.795 93.8665C135.786 94.3858 135.966 94.8381 136.32 95.1155C136.674 95.3927 137.149 95.454 137.642 95.3139C138.134 95.1737 138.635 94.8337 139.023 94.3223L139.11 94.39C138.357 95.3808 137.186 95.7625 136.404 95.3053L136.253 95.2032C135.477 94.5955 135.499 93.2463 136.301 92.1895C137.104 91.1327 138.383 90.7686 139.158 91.3763L139.294 91.4987C139.928 92.1514 139.862 93.3991 139.11 94.39L139.023 94.3223C139.411 93.811 139.608 93.232 139.616 92.7128C139.625 92.1936 139.446 91.7418 139.092 91.4644Z" fill="#FCFCFF"/>
<path d="M78.8463 125.348C78.8463 130.7 74.5759 135.038 69.3081 135.038C64.0403 135.038 59.7699 130.7 59.7699 125.348C59.7699 119.996 64.0403 115.658 69.3081 115.658C74.5759 115.658 78.8463 119.996 78.8463 125.348Z" fill="#28061D"/>
<path d="M76.8383 119.228C75.3323 117.188 72.8591 115.987 70.4464 115.72C68.0337 115.453 65.6019 116.049 63.6468 117.386C61.6917 118.723 60.3605 120.701 59.9246 122.917C59.4888 125.132 59.7699 129.428 61.2761 129.938C64.481 131.745 69.1657 131.868 72.8305 129.309C76.4453 126.785 77.503 124.07 76.8383 119.228Z" fill="#591636"/>
<path d="M67.0913 119.818C67.8668 120.426 67.8451 121.775 67.0429 122.832C66.2406 123.889 64.9615 124.253 64.186 123.645C63.4105 123.037 63.4323 121.688 64.2345 120.631C65.0368 119.575 66.3158 119.21 67.0913 119.818Z" fill="#FCFCFF"/>
<path d="M67.0248 119.906C66.6707 119.629 66.1945 119.567 65.7022 119.707C65.2101 119.848 64.7095 120.188 64.3213 120.699C63.9332 121.211 63.7361 121.789 63.7276 122.308C63.7193 122.828 63.899 123.28 64.253 123.557C64.607 123.835 65.0826 123.896 65.5748 123.756C66.0669 123.616 66.5682 123.276 66.9564 122.764L67.0429 122.832C66.2906 123.823 65.1194 124.204 64.3369 123.747L64.186 123.645C63.4105 123.037 63.4323 121.688 64.2345 120.631C65.0368 119.575 66.3158 119.21 67.0913 119.818L67.2268 119.941C67.8608 120.593 67.7951 121.841 67.0429 122.832L66.9564 122.764C67.3446 122.253 67.5409 121.674 67.5494 121.155C67.5577 120.636 67.3786 120.184 67.0248 119.906Z" fill="#FCFCFF"/>
<path d="M156.603 109.232C156.603 114.584 152.332 118.922 147.064 118.922C141.797 118.922 137.526 114.584 137.526 109.232C137.526 103.88 141.797 99.5415 147.064 99.5415C152.332 99.5415 156.603 103.88 156.603 109.232Z" fill="#28061D"/>
<path d="M154.595 103.112C153.089 101.072 150.615 99.8711 148.203 99.604C145.79 99.3368 143.358 99.9326 141.403 101.27C139.448 102.607 138.117 104.585 137.681 106.801C137.245 109.016 137.526 113.312 139.032 113.822C142.237 115.629 146.922 115.752 150.587 113.193C154.202 110.669 155.259 107.954 154.595 103.112Z" fill="#591636"/>
<path d="M144.848 103.702C145.623 104.31 145.601 105.659 144.799 106.716C143.997 107.772 142.718 108.137 141.942 107.529C141.167 106.921 141.189 105.572 141.991 104.515C142.793 103.458 144.072 103.094 144.848 103.702Z" fill="#FCFCFF"/>
<path d="M144.781 103.79C144.427 103.513 143.951 103.451 143.459 103.591C142.966 103.731 142.466 104.072 142.078 104.583C141.69 105.095 141.492 105.673 141.484 106.192C141.476 106.711 141.655 107.164 142.009 107.441C142.363 107.718 142.839 107.78 143.331 107.64C143.823 107.499 144.325 107.159 144.713 106.648L144.799 106.716C144.047 107.707 142.876 108.088 142.093 107.631L141.942 107.529C141.167 106.921 141.189 105.572 141.991 104.515C142.793 103.458 144.072 103.094 144.848 103.702L144.983 103.824C145.617 104.477 145.551 105.725 144.799 106.716L144.713 106.648C145.101 106.137 145.297 105.558 145.306 105.039C145.314 104.519 145.135 104.068 144.781 103.79Z" fill="#FCFCFF"/>
<path d="M143.327 113.972C143.327 119.324 139.057 123.662 133.789 123.662C128.521 123.662 124.251 119.324 124.251 113.972C124.251 108.62 128.521 104.282 133.789 104.282C139.057 104.282 143.327 108.62 143.327 113.972Z" fill="#28061D"/>
<path d="M141.319 107.852C139.813 105.812 137.34 104.611 134.927 104.344C132.515 104.077 130.083 104.673 128.128 106.01C126.173 107.347 124.841 109.325 124.406 111.541C123.97 113.756 124.251 118.052 125.757 118.562C128.962 120.37 133.647 120.492 137.311 117.933C140.926 115.409 141.984 112.694 141.319 107.852Z" fill="#591636"/>
<path d="M131.572 108.442C132.348 109.05 132.326 110.399 131.524 111.456C130.722 112.513 129.442 112.877 128.667 112.269C127.892 111.661 127.913 110.312 128.715 109.255C129.518 108.199 130.797 107.835 131.572 108.442Z" fill="#FCFCFF"/>
<path d="M131.506 108.53C131.152 108.253 130.675 108.191 130.183 108.331C129.691 108.472 129.19 108.812 128.802 109.323C128.414 109.835 128.217 110.413 128.209 110.932C128.2 111.452 128.38 111.904 128.734 112.181C129.088 112.459 129.564 112.52 130.056 112.38C130.548 112.24 131.049 111.9 131.437 111.388L131.524 111.456C130.772 112.447 129.6 112.828 128.818 112.371L128.667 112.269C127.892 111.661 127.913 110.312 128.715 109.255C129.518 108.199 130.797 107.835 131.572 108.442L131.708 108.565C132.342 109.217 132.276 110.465 131.524 111.456L131.437 111.388C131.826 110.877 132.022 110.298 132.03 109.779C132.039 109.26 131.86 108.808 131.506 108.53Z" fill="#FCFCFF"/>
<path d="M39.9684 95.0116C39.9684 100.363 35.698 104.702 30.4302 104.702C25.1624 104.702 20.8919 100.363 20.8919 95.0116C20.8919 89.6598 25.1624 85.3213 30.4302 85.3213C35.698 85.3213 39.9684 89.6598 39.9684 95.0116Z" fill="#28061D"/>
<path d="M37.9604 88.8914C36.4543 86.8513 33.9812 85.6509 31.5685 85.3838C29.1558 85.1166 26.724 85.7124 24.7689 87.0496C22.8137 88.3868 21.4826 90.3648 21.0467 92.5803C20.6109 94.7958 20.892 99.0917 22.3982 99.6018C25.6031 101.409 30.2877 101.531 33.9526 98.9726C37.5673 96.4487 38.625 93.7339 37.9604 88.8914Z" fill="#591636"/>
<path d="M28.2134 89.4817C28.9889 90.0894 28.9672 91.4387 28.1649 92.4955C27.3626 93.5522 26.0836 93.9163 25.3081 93.3087C24.5326 92.701 24.5543 91.3517 25.3566 90.2949C26.1589 89.2382 27.4379 88.8741 28.2134 89.4817Z" fill="#FCFCFF"/>
<path d="M28.1468 89.5699C27.7928 89.2925 27.3166 89.2308 26.8243 89.3709C26.3322 89.5112 25.8316 89.8518 25.4434 90.3631C25.0553 90.8743 24.8582 91.4528 24.8497 91.9719C24.8413 92.4913 25.0211 92.9436 25.3751 93.221C25.7291 93.4982 26.2047 93.5594 26.6968 93.4193C27.189 93.2792 27.6903 92.9392 28.0785 92.4278L28.1649 92.4955C27.4127 93.4863 26.2414 93.8679 25.459 93.4108L25.3081 93.3087C24.5326 92.701 24.5543 91.3517 25.3566 90.2949C26.1589 89.2382 27.4379 88.8741 28.2134 89.4817L28.3489 89.6041C28.9828 90.2569 28.9172 91.5046 28.1649 92.4955L28.0785 92.4278C28.4667 91.9165 28.663 91.3375 28.6714 90.8183C28.6798 90.2991 28.5007 89.8473 28.1468 89.5699Z" fill="#FCFCFF"/>
</svg>
