<svg width="200" height="200" viewBox="0 0 200 200" fill="none" xmlns="http://www.w3.org/2000/svg">
<path d="M100 35.5C126.142 35.5 149.788 43.0294 166.886 55.1777C183.984 67.3268 194.5 84.065 194.5 102.5C194.5 120.935 183.984 137.673 166.886 149.822C149.788 161.971 126.142 169.5 100 169.5C73.8581 169.5 50.2119 161.971 33.1143 149.822C16.0156 137.673 5.5 120.935 5.5 102.5C5.5 84.065 16.0156 67.3268 33.1143 55.1777C50.2119 43.0294 73.8581 35.5 100 35.5Z" fill="#EEDCBE" stroke="#EEDCBE"/>
<path d="M100 30.5C126.143 30.5 149.79 37.9602 166.888 49.9961C183.987 62.033 194.5 78.6147 194.5 96.875C194.5 115.135 183.987 131.717 166.888 143.754C149.79 155.79 126.143 163.25 100 163.25C73.8571 163.25 50.21 155.79 33.1123 143.754C16.0133 131.717 5.5 115.135 5.5 96.875C5.5 78.6147 16.0133 62.033 33.1123 49.9961C50.21 37.9602 73.8571 30.5 100 30.5Z" fill="#FFFBF2" stroke="#EEDCBE"/>
<path d="M100.566 39.25C122.498 39.2501 142.332 45.1739 156.667 54.7256C171.007 64.2798 179.797 77.4243 179.797 91.875C179.797 106.326 171.007 119.47 156.667 129.024C142.332 138.576 122.498 144.5 100.566 144.5C78.6331 144.5 58.7989 138.576 44.4631 129.024C30.1238 119.47 21.3333 106.326 21.3333 91.875C21.3333 77.4243 30.1238 64.2798 44.4631 54.7256C58.7989 45.1737 78.6331 39.25 100.566 39.25Z" fill="#FBEEDC" stroke="#EEDCBE"/>
<path d="M94.62 131.704C40.3 122.013 30.2295 113.383 32.4158 94.8438C32.417 94.8342 32.4196 94.8243 32.4235 94.8154C41.1156 74.7179 48.2857 65.1667 70.87 55.454C105.333 44.2579 124.073 42.1517 155.123 55.4526C155.125 55.4535 155.124 55.453 155.126 55.4541C155.195 55.4897 180.559 68.613 170.959 93.579C161.347 118.579 121.959 137.16 94.62 131.704Z" fill="#A54D16" stroke="#97410F" stroke-width="0.5"/>
<path d="M73.1165 124.887C59.6421 122.136 55.4386 119.802 50.3743 115.333C50.2924 115.26 50.3738 115.13 50.4771 115.166C64.7394 120.105 71.8697 121.412 82.9235 121.592C94.1 121.773 106.571 126.028 98.3346 127.359C90.0978 128.69 84.4624 127.987 73.1165 124.887Z" fill="#C7621C" stroke="#C7621C" stroke-width="0.5"/>
<path d="M177.506 55.6229L148.33 49.8729C147.71 49.7508 147.134 50.3489 147.209 51.0527C148.43 62.6051 153.455 69.0465 160.769 72.636C168.226 76.2959 177.343 71.0098 178.229 56.6638C178.261 56.1526 177.95 55.7104 177.506 55.6229Z" fill="#FFC91B" stroke="#FFCE25"/>
<path d="M174.597 55.1746L151.167 50.4454C150.545 50.3199 149.966 50.9215 150.047 51.6272C151.123 60.9108 155.215 66.124 161.13 69.0569C167.193 72.063 174.574 67.8222 175.314 56.2084C175.347 55.7003 175.038 55.2636 174.597 55.1746Z" fill="#FFF083" stroke="#FFF083"/>
<path d="M151.366 54.9031C152.069 57.8452 153.418 61.0231 154.333 61.9019C154.623 62.1798 154.992 61.9309 155.233 61.5737C156.506 59.6846 160.599 53.5591 160.069 53.6767C159.663 53.7667 155.948 53.1003 153.379 52.6193C152.15 52.3893 151.045 53.5567 151.366 54.9031Z" fill="#FFCC24"/>
<path d="M159.77 57.8779L157.062 61.8639C156.54 62.6321 156.511 63.6837 157.047 64.382C158.911 66.8072 160.602 67.6709 163.198 67.5832C164.374 67.5435 165.145 66.1759 164.808 64.929L163.046 58.408C162.611 56.7952 160.715 56.4884 159.77 57.8779Z" fill="#FFCC24"/>
<path d="M172.768 58.2683C172.01 61.7323 171.017 63.789 169.192 65.6354C168.281 66.5569 166.917 66.1035 166.5 64.8656L164.066 57.6358C163.54 56.0735 164.816 54.4033 166.282 54.7344L171.417 55.8937C172.39 56.1132 173.01 57.1638 172.768 58.2683Z" fill="#FFCC24"/>
<path d="M151.366 54.9031C152.069 57.8452 153.418 61.0231 154.333 61.9019C154.623 62.1798 154.992 61.9309 155.233 61.5737C156.506 59.6846 160.599 53.5591 160.069 53.6767C159.663 53.7667 155.948 53.1003 153.379 52.6193C152.15 52.3893 151.045 53.5567 151.366 54.9031Z" stroke="#FFD735"/>
<path d="M159.77 57.8779L157.062 61.8639C156.54 62.6321 156.511 63.6837 157.047 64.382C158.911 66.8072 160.602 67.6709 163.198 67.5832C164.374 67.5435 165.145 66.1759 164.808 64.929L163.046 58.408C162.611 56.7952 160.715 56.4884 159.77 57.8779Z" stroke="#FFD735"/>
<path d="M172.768 58.2683C172.01 61.7323 171.017 63.789 169.192 65.6354C168.281 66.5569 166.917 66.1035 166.5 64.8656L164.066 57.6358C163.54 56.0735 164.816 54.4033 166.282 54.7344L171.417 55.8937C172.39 56.1132 173.01 57.1638 172.768 58.2683Z" stroke="#FFD735"/>
<ellipse cx="1.02629" cy="0.820373" rx="1.02629" ry="0.820373" transform="matrix(0.793139 -0.609041 0.504751 0.863265 153.033 56.6846)" fill="#FFC115"/>
<ellipse cx="0.821033" cy="1.36729" rx="0.821033" ry="1.36729" transform="matrix(0.793139 -0.609041 0.504751 0.863265 159.955 63.6836)" fill="#FFC115"/>
<ellipse cx="0.821033" cy="1.09383" rx="0.821033" ry="1.09383" transform="matrix(0.793139 -0.609041 0.504751 0.863265 166.871 61.793)" fill="#FFC115"/>
<ellipse cx="0.821033" cy="1.09383" rx="0.821033" ry="1.09383" transform="matrix(0.793139 -0.609041 0.504751 0.863265 168.924 58.8481)" fill="#FFC115"/>
<path d="M125.782 73.2209C126.186 70.7343 125.802 69.264 125.015 66.6787C125.012 66.669 125.007 66.6595 125.001 66.6512C115.555 52.7945 109.724 46.4065 97.271 40.6368C97.2254 40.6157 97.1697 40.6321 97.1429 40.6747C95.5434 43.2085 94.5335 44.6281 96.2822 48.1087C96.2873 48.119 96.2946 48.1288 96.3029 48.1367C107.32 58.5986 113.164 64.9975 125.627 73.2874C125.687 73.3274 125.77 73.2923 125.782 73.2209Z" fill="#FEDCA3" stroke="#F8CD89" stroke-width="0.5"/>
<path d="M126.095 73.2837C126.368 70.572 126.126 69.1341 125.365 66.7341C125.351 66.6903 125.368 66.6418 125.408 66.6177L148.279 52.5176C148.321 52.4914 148.377 52.5009 148.408 52.5393C149.458 53.8149 149.97 54.6163 149.733 56.7916C149.732 56.7969 149.731 56.8023 149.73 56.8074C149.392 58.0413 149.171 58.7375 148.12 59.9809C148.117 59.9849 148.113 59.9887 148.109 59.9921C142.512 64.8421 139.362 67.4026 133.675 70.8807C130.608 73.3939 128.933 74.1424 126.169 73.3908C126.122 73.3781 126.091 73.332 126.095 73.2837Z" fill="#F8D491" stroke="#FEE1AF" stroke-width="0.5"/>
<path d="M126.713 67.0199C135.326 64.1537 140.023 60.3077 148.289 52.5326C148.325 52.4983 148.331 52.4407 148.302 52.4C143.383 45.5113 139.339 42.6464 130.953 38.5044C122.487 34.6105 117.808 33.358 109.697 34.0837C103.861 34.9261 101.104 36.2085 97.609 40.4866C97.5661 40.5392 97.586 40.6194 97.6491 40.644C102.919 42.701 107.741 45.6998 112.563 51.435C117.818 57.6839 120.484 63.5826 126.632 67.0124C126.657 67.026 126.686 67.0287 126.713 67.0199Z" fill="#FFE7B0" stroke="#FEEECA" stroke-width="0.5"/>
<path d="M135.463 54.7942C139.43 52.5056 141.297 51.2318 142.24 49.3811C142.281 49.3004 142.197 49.2163 142.114 49.2504C133.774 52.6492 129.878 55.201 125.885 61.2436C125.825 61.3349 125.933 61.4417 126.023 61.3795C129.592 58.9118 131.726 57.4263 135.463 54.7942Z" fill="#FAD795"/>
<path d="M129.778 50.532L138.007 45.0753C138.092 45.0186 138.047 44.8862 137.945 44.8941C135.389 45.0901 133.541 45.5576 128.428 48.5758C122.754 52.4202 120.136 54.3931 119.321 56.4402C119.291 56.5158 119.362 56.5896 119.44 56.5658C123.314 55.3814 125.653 53.6411 129.778 50.532Z" fill="#FAD795"/>
<path d="M114.541 50.5846L131.323 41.1965C131.413 41.1466 131.378 41.0112 131.276 41.0099C128.808 40.9793 127.165 41.1291 122.077 43.9284C117.75 46.5115 115.981 47.9588 114.41 50.4473C114.355 50.5341 114.451 50.6347 114.541 50.5846Z" fill="#FAD795"/>
<path d="M110.659 44.8146L124.29 38.1365C124.384 38.0906 124.354 37.9511 124.249 37.9493C121.772 37.9067 119.959 38.2319 115.734 40.0715C112.244 41.9686 110.806 43.034 110.52 44.7137C110.507 44.7918 110.588 44.8494 110.659 44.8146Z" fill="#FAD795"/>
<path d="M111.746 38.1487C113.461 37.0797 114.299 36.6122 115.468 35.861C115.544 35.812 115.52 35.696 115.431 35.6825C113.852 35.4446 112.464 35.6782 109.406 36.6071C109.4 36.6089 109.394 36.6114 109.389 36.6144C106.666 38.0459 105.44 38.8507 105.166 40.0696C105.15 40.1431 105.221 40.2031 105.292 40.1793C105.676 40.0511 106.7 39.7276 111.723 38.1596C111.731 38.157 111.739 38.1532 111.746 38.1487Z" fill="#FAD795"/>
<path d="M135.463 54.7942C139.43 52.5056 141.297 51.2318 142.24 49.3811C142.281 49.3004 142.197 49.2163 142.114 49.2504C133.774 52.6492 129.878 55.201 125.885 61.2436C125.825 61.3349 125.933 61.4417 126.023 61.3795C129.592 58.9118 131.726 57.4263 135.463 54.7942Z" stroke="#FAD795" stroke-width="0.5"/>
<path d="M129.778 50.532L138.007 45.0753C138.092 45.0186 138.047 44.8862 137.945 44.8941C135.389 45.0901 133.541 45.5576 128.428 48.5758C122.754 52.4202 120.136 54.3931 119.321 56.4402C119.291 56.5158 119.362 56.5896 119.44 56.5658C123.314 55.3814 125.653 53.6411 129.778 50.532Z" stroke="#FAD795" stroke-width="0.5"/>
<path d="M114.541 50.5846L131.323 41.1965C131.413 41.1466 131.378 41.0112 131.276 41.0099C128.808 40.9793 127.165 41.1291 122.077 43.9284C117.75 46.5115 115.981 47.9588 114.41 50.4473C114.355 50.5341 114.451 50.6347 114.541 50.5846Z" stroke="#FAD795" stroke-width="0.5"/>
<path d="M110.659 44.8146L124.29 38.1365C124.384 38.0906 124.354 37.9511 124.249 37.9493C121.772 37.9067 119.959 38.2319 115.734 40.0715C112.244 41.9686 110.806 43.034 110.52 44.7137C110.507 44.7918 110.588 44.8494 110.659 44.8146Z" stroke="#FAD795" stroke-width="0.5"/>
<path d="M111.746 38.1487C113.461 37.0797 114.299 36.6122 115.468 35.861C115.544 35.812 115.52 35.696 115.431 35.6825C113.852 35.4446 112.464 35.6782 109.406 36.6071C109.4 36.6089 109.394 36.6114 109.389 36.6144C106.666 38.0459 105.44 38.8507 105.166 40.0696C105.15 40.1431 105.221 40.2031 105.292 40.1793C105.676 40.0511 106.7 39.7276 111.723 38.1596C111.731 38.157 111.739 38.1532 111.746 38.1487Z" stroke="#FAD795" stroke-width="0.5"/>
<path d="M122.033 68.2905C121.646 65.7573 121.268 64.7417 120.388 63.6571C120.351 63.6115 120.282 63.6085 120.242 63.6513C119.255 64.6987 119.186 66.0681 119.723 69.4718C119.727 69.4969 119.741 69.5202 119.761 69.5357L121.611 70.965C121.669 71.01 121.754 70.9781 121.77 70.9058C122.029 69.6605 122.095 69.06 122.033 68.2905Z" fill="#FFD081"/>
<path d="M116.382 64.695C116.705 62.972 116.743 61.8824 116.334 59.8722C116.318 59.7922 116.218 59.7653 116.166 59.8281C115.778 60.2915 115.559 60.7853 115.337 62.4472C115.336 62.457 115.336 62.4676 115.338 62.4773C115.609 64.1164 115.837 64.5423 116.246 64.764C116.302 64.7946 116.37 64.7582 116.382 64.695Z" fill="#FFD081"/>
<path d="M111.983 58.1407C113.13 56.117 113.862 55.3223 115.089 54.9935C115.164 54.9736 115.192 54.8805 115.14 54.824C111.282 50.6214 108.694 47.9538 105.004 45.0693C104.909 44.995 104.785 45.1264 104.863 45.2188C106.136 46.73 107.219 48.2356 108.554 49.9147C110.575 52.2106 111.261 53.6502 111.287 56.5808C111.287 56.5893 111.286 56.5982 111.284 56.6064C110.797 58.5475 110.506 59.6562 109.175 60.133C109.103 60.1587 109.081 60.2518 109.135 60.3048L112.574 63.6309C112.656 63.7102 112.799 63.6048 112.752 63.5005C112.103 62.0387 112.01 60.6279 111.97 58.1924C111.969 58.1746 111.974 58.1562 111.983 58.1407Z" fill="#FFD081"/>
<path d="M103.41 54.2626C104.882 53.0959 105.909 52.6559 108.167 52.6851C108.218 52.6858 108.261 52.7246 108.263 52.7752C108.293 53.5471 107.7 54.1618 105.684 55.4664C105.658 55.4833 105.624 55.4873 105.595 55.4768C104.367 55.0349 103.919 54.7923 103.412 54.4198C103.359 54.3813 103.359 54.3031 103.41 54.2626Z" fill="#FFD081"/>
<path d="M99.0551 49.9962C99.6218 49.6601 102.345 48.1507 104.545 48.7837C104.558 48.7874 104.57 48.7932 104.579 48.8032C104.862 49.131 103.504 51.2294 102.281 51.5914C101.102 51.9402 99.4454 50.5167 99.0407 50.1467C98.9931 50.1032 98.9995 50.0291 99.0551 49.9962Z" fill="#FFD081"/>
<path d="M95.5827 45.7633C95.9675 45.2257 98.6726 45.5113 99.4522 45.3091C98.6644 45.624 98.0684 47.7183 96.9272 47.3242C96.2239 47.0812 95.1079 46.4265 95.5827 45.7633Z" fill="#FFD081"/>
<path d="M122.033 68.2905C121.646 65.7573 121.268 64.7417 120.388 63.6571C120.351 63.6115 120.282 63.6085 120.242 63.6513C119.255 64.6987 119.186 66.0681 119.723 69.4718C119.727 69.4969 119.741 69.5202 119.761 69.5357L121.611 70.965C121.669 71.01 121.754 70.9781 121.77 70.9058C122.029 69.6605 122.095 69.06 122.033 68.2905Z" stroke="#FFD081" stroke-width="0.5"/>
<path d="M116.382 64.695C116.705 62.972 116.743 61.8824 116.334 59.8722C116.318 59.7922 116.218 59.7653 116.166 59.8281C115.778 60.2915 115.559 60.7853 115.337 62.4472C115.336 62.457 115.336 62.4676 115.338 62.4773C115.609 64.1164 115.837 64.5423 116.246 64.764C116.302 64.7946 116.37 64.7582 116.382 64.695Z" stroke="#FFD081" stroke-width="0.5"/>
<path d="M111.983 58.1407C113.13 56.117 113.862 55.3223 115.089 54.9935C115.164 54.9736 115.192 54.8805 115.14 54.824C111.282 50.6214 108.694 47.9538 105.004 45.0693C104.909 44.995 104.785 45.1264 104.863 45.2188C106.136 46.73 107.219 48.2356 108.554 49.9147C110.575 52.2106 111.261 53.6502 111.287 56.5808C111.287 56.5893 111.286 56.5982 111.284 56.6064C110.797 58.5475 110.506 59.6562 109.175 60.133C109.103 60.1587 109.081 60.2518 109.135 60.3048L112.574 63.6309C112.656 63.7102 112.799 63.6048 112.752 63.5005C112.103 62.0387 112.01 60.6279 111.97 58.1924C111.969 58.1746 111.974 58.1562 111.983 58.1407Z" stroke="#FFD081" stroke-width="0.5"/>
<path d="M103.41 54.2626C104.882 53.0959 105.909 52.6559 108.167 52.6851C108.218 52.6858 108.261 52.7246 108.263 52.7752C108.293 53.5471 107.7 54.1618 105.684 55.4664C105.658 55.4833 105.624 55.4873 105.595 55.4768C104.367 55.0349 103.919 54.7923 103.412 54.4198C103.359 54.3813 103.359 54.3031 103.41 54.2626Z" stroke="#FFD081" stroke-width="0.5"/>
<path d="M99.0551 49.9962C99.6218 49.6601 102.345 48.1507 104.545 48.7837C104.558 48.7874 104.57 48.7932 104.579 48.8032C104.862 49.131 103.504 51.2294 102.281 51.5914C101.102 51.9402 99.4454 50.5167 99.0407 50.1467C98.9931 50.1032 98.9995 50.0291 99.0551 49.9962Z" stroke="#FFD081" stroke-width="0.5"/>
<path d="M95.5827 45.7633C95.9675 45.2257 98.6726 45.5113 99.4522 45.3091C98.6644 45.624 98.0684 47.7183 96.9272 47.3242C96.2239 47.0812 95.1079 46.4265 95.5827 45.7633Z" stroke="#FFD081" stroke-width="0.5"/>
<path d="M52.7324 72.6913C50.4887 72.0997 49.0668 72.8716 46.7806 74.7107C44.4045 76.622 46.8997 79.7599 45.6496 82.484C44.2672 85.4966 42.6825 88.6751 39.9949 88.3141C37.7906 88.018 38.8639 84.4274 39.4294 81.8363C39.9949 79.2451 34.8489 90.4336 30.9472 88.9618C29.0026 88.2283 27.3527 86.5198 28.6853 84.4274C29.7768 82.7137 32.8683 79.9764 34.5772 78.9762C32.8731 79.6371 29.2304 80.7377 28.1199 78.5974C26.7992 76.0521 28.2777 73.1916 30.3818 71.4718C32.5389 69.7086 36.6021 71.4718 37.1675 71.4718C37.7328 71.4718 31.7746 68.5207 32.6437 65.6418C33.4386 63.0084 38.5023 63.6493 38.8456 63.6959C38.8585 63.6976 38.8669 63.6968 38.8798 63.6962C39.4596 63.669 45.7771 67.9231 49.0425 70.1762C50.8768 71.4419 54.3355 69.1292 54.6709 68.8989C54.6896 68.8861 54.7007 68.8688 54.707 68.847L55.7341 65.3174C55.7619 65.2218 55.6457 65.1511 55.5705 65.2162C51.6148 68.6349 51.7137 68.8937 48.477 67.5851C45.6722 66.4511 48.5968 64.1754 50.1064 63.7392C41.8635 64.235 39.7418 62.8944 38.2984 59.1639C36.8188 55.3398 43.387 55.9251 43.9532 55.925C44.5194 55.925 35.3543 52.8634 36.602 48.7995C37.7751 44.9787 42.4836 45.8899 43.6793 47.0435C43.3811 46.432 43.0568 45.3077 43.9532 44.265C45.2697 42.7336 48.8597 46.3537 54.6972 54.6295C51.1764 49.3914 47.4482 44.8468 51.3044 42.9694C54.9059 41.2161 55.0786 44.6637 56.3041 48.5227C56.3329 48.6133 56.4623 48.6184 56.4979 48.5302C56.8204 47.7316 57.8628 45.4016 59.221 44.9128C62.2375 43.8272 62.162 49.7491 62.6139 53.3339C63.0603 56.8748 63.358 59.5419 61.483 62.4029C59.0591 66.1011 53.1094 70.9768 52.9474 72.4997C52.9375 72.593 52.8231 72.7152 52.7324 72.6913Z" fill="#62800E" stroke="#456100" stroke-width="0.5"/>
<path d="M62.0736 66.2193C59.6983 65.6281 58.1955 66.3939 55.7774 68.2216C53.2674 70.1187 55.9032 73.2334 54.5827 75.9372C53.1223 78.9274 51.4483 82.0823 48.6091 81.724C46.2806 81.4301 47.4144 77.8661 48.0118 75.2943C48.6091 72.7224 43.173 83.8278 39.0514 82.367C36.9971 81.6388 35.2541 79.943 36.662 77.8661C37.8149 76.1652 41.0808 73.4482 42.886 72.4554C41.0858 73.1114 37.2378 74.2038 36.0646 72.0794C34.6694 69.553 36.2313 66.7138 38.454 65.0067C40.7328 63.2566 45.0251 65.0067 45.6223 65.0067C46.2195 65.0067 39.9254 62.0775 40.8435 59.22C41.6844 56.6022 47.0487 57.2442 47.3967 57.2887C47.4088 57.2903 47.417 57.2897 47.4292 57.289C48.0286 57.2524 54.7135 61.4819 58.1668 63.7208C60.1056 64.9777 63.7619 62.6792 64.1131 62.4526C64.1325 62.4401 64.1441 62.4228 64.151 62.4007L65.2379 58.8909C65.2671 58.7966 65.1535 58.724 65.0768 58.7863C60.884 62.1903 60.9925 62.4492 57.5695 61.1489C54.6065 60.0233 57.696 57.7645 59.2907 57.3316C50.583 57.8236 48.3418 56.493 46.817 52.7902C45.254 48.9945 52.1925 49.5754 52.7906 49.5754C53.3887 49.5753 43.7069 46.5365 45.025 42.5027C46.2642 38.7103 51.2382 39.6147 52.5013 40.7597C52.1863 40.1529 51.8437 39.0369 52.7906 38.0019C54.1813 36.4819 57.9738 40.0751 64.1404 48.2894C60.421 43.0903 56.4826 38.5794 60.5563 36.716C64.3662 34.9732 64.5438 38.4073 65.8434 42.2442C65.8732 42.3324 65.9989 42.3375 66.0355 42.2518C66.3679 41.4753 67.4744 39.1334 68.9193 38.6449C72.1058 37.5673 72.026 43.4453 72.5034 47.0035C72.975 50.5181 73.2895 53.1653 71.3087 56.0051C68.7515 59.6712 62.4791 64.5031 62.2926 66.0212C62.2811 66.1149 62.1652 66.2421 62.0736 66.2193Z" fill="#84AC23" stroke="#6B8E14" stroke-width="0.5"/>
<path d="M73.5144 115.075C72.7429 111.093 73.3671 108.754 74.6689 104.61C74.672 104.6 74.677 104.59 74.6831 104.581C90.5319 82.4213 100.354 72.1826 121.532 62.7532C121.576 62.7337 121.629 62.7482 121.656 62.7874C124.462 66.7882 126.243 69.0037 123.313 74.5782C123.308 74.5885 123.3 74.5984 123.291 74.6063C104.674 91.4402 94.8336 101.703 73.6674 115.14C73.6081 115.178 73.5277 115.144 73.5144 115.075Z" fill="#FAD598" stroke="#F8CD89" stroke-width="0.5"/>
<path d="M72.9669 115.132C72.4335 110.807 72.8196 108.524 74.0825 104.674C74.0975 104.628 74.0782 104.577 74.0361 104.554L34.5961 82.7584C34.5548 82.7356 34.5027 82.7453 34.4718 82.7809C32.6788 84.8508 31.8065 86.1235 32.2623 89.5856C32.263 89.5912 32.2643 89.5971 32.2659 89.6025C32.87 91.5488 33.2604 92.6444 35.0854 94.5885C35.0889 94.5923 35.0929 94.5959 35.0969 94.5991C44.7573 102.134 50.1887 106.107 59.9717 111.469C65.2802 115.384 68.1576 116.52 72.8931 115.242C72.9411 115.229 72.9729 115.182 72.9669 115.132Z" fill="#FEE1AF" stroke="#FEE1AF" stroke-width="0.5"/>
<path d="M71.8068 105.207C57.009 100.879 48.9066 94.9046 34.5976 82.7805C34.5573 82.7463 34.5503 82.6849 34.5819 82.6426C42.8449 71.606 49.6861 66.9766 63.9297 60.2189C78.2988 53.8593 86.2589 51.7667 100.12 52.7189C110.129 53.9136 114.862 55.8827 120.943 62.6085C120.991 62.6608 120.971 62.7456 120.905 62.7705C111.923 66.1505 103.73 71.0088 95.5963 80.2189C86.7518 90.2336 82.3265 99.6313 71.8826 105.2C71.8595 105.212 71.8319 105.215 71.8068 105.207Z" fill="#FEEECA" stroke="#FEEECA" stroke-width="0.5"/>
<path d="M56.5784 86.0809C49.6553 82.5052 46.4468 80.5304 44.8216 77.5546C44.7782 77.475 44.8592 77.3869 44.9445 77.4177C59.4896 82.6647 66.2103 86.6224 73.2469 96.2962C73.3113 96.3846 73.2077 96.4979 73.1148 96.4402C66.7989 92.5189 63.1114 90.2141 56.5784 86.0809Z" fill="#B7955E"/>
<path d="M66.1915 79.2059L51.8332 70.6607C51.7437 70.6074 51.7854 70.4704 51.8894 70.4759C56.383 70.7133 59.5006 71.3469 68.4534 76.0809C78.329 82.087 82.8311 85.1447 84.2134 88.4004C84.2452 88.4755 84.175 88.5517 84.0962 88.5308C77.38 86.7519 73.3449 84.0531 66.1915 79.2059Z" fill="#B7955E"/>
<path d="M92.4294 79.036L63.1536 64.3835C63.0607 64.337 63.0919 64.1973 63.1958 64.1945C67.5425 64.0744 70.2899 64.1978 79.1974 68.5808C86.7574 72.6245 89.7853 74.8777 92.5549 78.8915C92.6132 78.9761 92.5213 79.082 92.4294 79.036Z" fill="#B7955E"/>
<path d="M98.8248 69.7591L75.0698 59.379C74.9727 59.3365 74.9998 59.1927 75.1057 59.189C79.4669 59.0357 82.5455 59.4679 89.9415 62.3308C96.0212 65.2858 98.4835 66.9406 98.9609 69.6533C98.9744 69.7304 98.8966 69.7904 98.8248 69.7591Z" fill="#B7955E"/>
<path d="M96.7164 59.1998C93.6979 57.512 92.2593 56.798 90.1765 55.5924C90.096 55.5458 90.1173 55.4249 90.209 55.4098C92.9671 54.9579 95.3312 55.2798 100.677 56.7035C100.682 56.705 100.688 56.7072 100.694 56.7097C105.454 58.9458 107.558 60.1934 108.004 62.17C108.021 62.243 107.952 62.3046 107.88 62.2831C107.303 62.11 105.891 61.7163 96.7393 59.2092C96.7315 59.207 96.7234 59.2038 96.7164 59.1998Z" fill="#B7955E"/>
<path d="M56.5784 86.0809C49.6553 82.5052 46.4468 80.5304 44.8216 77.5546C44.7782 77.475 44.8592 77.3869 44.9445 77.4177C59.4896 82.6647 66.2103 86.6224 73.2469 96.2962C73.3113 96.3846 73.2077 96.4979 73.1148 96.4402C66.7989 92.5189 63.1114 90.2141 56.5784 86.0809Z" stroke="#C2A06D" stroke-width="0.5"/>
<path d="M66.1915 79.2059L51.8332 70.6607C51.7437 70.6074 51.7854 70.4704 51.8894 70.4759C56.383 70.7133 59.5006 71.3469 68.4534 76.0809C78.329 82.087 82.8311 85.1447 84.2134 88.4004C84.2452 88.4755 84.175 88.5517 84.0962 88.5308C77.38 86.7519 73.3449 84.0531 66.1915 79.2059Z" stroke="#C2A06D" stroke-width="0.5"/>
<path d="M92.4294 79.036L63.1536 64.3835C63.0607 64.337 63.0919 64.1973 63.1958 64.1945C67.5425 64.0744 70.2899 64.1978 79.1974 68.5808C86.7574 72.6245 89.7853 74.8777 92.5549 78.8915C92.6132 78.9761 92.5213 79.082 92.4294 79.036Z" stroke="#C2A06D" stroke-width="0.5"/>
<path d="M98.8248 69.7591L75.0698 59.379C74.9727 59.3365 74.9998 59.1927 75.1057 59.189C79.4669 59.0357 82.5455 59.4679 89.9415 62.3308C96.0212 65.2858 98.4835 66.9406 98.9609 69.6533C98.9744 69.7304 98.8966 69.7904 98.8248 69.7591Z" stroke="#C2A06D" stroke-width="0.5"/>
<path d="M96.7164 59.1998C93.6979 57.512 92.2593 56.798 90.1765 55.5924C90.096 55.5458 90.1173 55.4249 90.209 55.4098C92.9671 54.9579 95.3312 55.2798 100.677 56.7035C100.682 56.705 100.688 56.7072 100.694 56.7097C105.454 58.9458 107.558 60.1934 108.004 62.17C108.021 62.243 107.952 62.3046 107.88 62.2831C107.303 62.11 105.891 61.7163 96.7393 59.2092C96.7315 59.207 96.7234 59.2038 96.7164 59.1998Z" stroke="#C2A06D" stroke-width="0.5"/>
<path d="M79.7893 107.094C80.4039 103.035 81.0341 101.429 82.5498 99.6708C82.5862 99.6285 82.6511 99.6247 82.692 99.6627C84.4542 101.303 84.6127 103.458 83.7541 108.927C83.75 108.953 83.7357 108.978 83.7145 108.993L80.4758 111.38C80.4182 111.422 80.336 111.391 80.3193 111.322C79.8304 109.291 79.6995 108.332 79.7893 107.094Z" fill="#F3CA85"/>
<path d="M89.3764 101.351C88.7658 98.5548 88.6748 96.8222 89.3641 93.5246C89.3803 93.4471 89.4763 93.4176 89.5314 93.4746C90.2618 94.2309 90.664 94.9537 91.0963 97.7025C91.0979 97.713 91.0979 97.7245 91.0961 97.735C90.6506 100.439 90.2581 101.068 89.5121 101.42C89.4557 101.447 89.3897 101.412 89.3764 101.351Z" fill="#F3CA85"/>
<path d="M96.7378 90.8187C94.6975 87.5839 93.4226 86.3548 91.2527 85.881C91.1753 85.8641 91.1462 85.7672 91.2012 85.7102C97.9209 78.7402 102.35 74.3977 108.9 69.5762C108.998 69.5045 109.118 69.6375 109.037 69.7274C106.706 72.3099 104.8 74.8551 102.408 77.7188C99.0047 81.3988 97.8659 83.6917 97.8845 88.3298C97.8845 88.3389 97.8858 88.3484 97.8883 88.3572C98.7753 91.4633 99.2959 93.2169 101.666 93.9193C101.742 93.9417 101.767 94.0388 101.709 94.0923L95.522 99.7906C95.4382 99.8678 95.3035 99.7626 95.3547 99.6608C96.5952 97.1958 96.7361 94.9332 96.7534 90.8732C96.7535 90.8542 96.7479 90.8348 96.7378 90.8187Z" fill="#F3CA85"/>
<path d="M111.342 84.5121C108.758 82.6605 106.994 81.9806 103.063 82.0911C103.013 82.0925 102.97 82.1318 102.967 82.1822C102.901 83.432 103.914 84.39 107.457 86.4453C107.482 86.4599 107.514 86.463 107.542 86.4534C109.705 85.6999 110.453 85.3035 111.343 84.6744C111.399 84.635 111.398 84.5519 111.342 84.5121Z" fill="#F3CA85"/>
<path d="M118.69 77.6545C117.883 77.2188 113.051 74.7484 109.213 75.8385C109.2 75.8419 109.189 75.8476 109.179 75.8563C108.663 76.349 111.043 79.6723 113.152 80.2187C115.232 80.7574 118.136 78.313 118.707 77.8084C118.758 77.7637 118.75 77.6865 118.69 77.6545Z" fill="#F3CA85"/>
<path d="M124.462 70.8437C123.794 70.0031 119.182 70.5198 117.847 70.2187C119.198 70.6977 120.26 73.9943 122.2 73.3437C123.395 72.9428 125.287 71.8809 124.462 70.8437Z" fill="#F3CA85"/>
<path d="M79.7893 107.094C80.4039 103.035 81.0341 101.429 82.5498 99.6708C82.5862 99.6285 82.6511 99.6247 82.692 99.6627C84.4542 101.303 84.6127 103.458 83.7541 108.927C83.75 108.953 83.7357 108.978 83.7145 108.993L80.4758 111.38C80.4182 111.422 80.336 111.391 80.3193 111.322C79.8304 109.291 79.6995 108.332 79.7893 107.094Z" stroke="#ECC17B" stroke-width="0.5"/>
<path d="M89.3764 101.351C88.7658 98.5548 88.6748 96.8222 89.3641 93.5246C89.3803 93.4471 89.4763 93.4176 89.5314 93.4746C90.2618 94.2309 90.664 94.9537 91.0963 97.7025C91.0979 97.713 91.0979 97.7245 91.0961 97.735C90.6506 100.439 90.2581 101.068 89.5121 101.42C89.4557 101.447 89.3897 101.412 89.3764 101.351Z" stroke="#ECC17B" stroke-width="0.5"/>
<path d="M96.7378 90.8187C94.6975 87.5839 93.4226 86.3548 91.2527 85.881C91.1753 85.8641 91.1462 85.7672 91.2012 85.7102C97.9209 78.7402 102.35 74.3977 108.9 69.5762C108.998 69.5045 109.118 69.6375 109.037 69.7274C106.706 72.3099 104.8 74.8551 102.408 77.7188C99.0047 81.3988 97.8659 83.6917 97.8845 88.3298C97.8845 88.3389 97.8858 88.3484 97.8883 88.3572C98.7753 91.4633 99.2959 93.2169 101.666 93.9193C101.742 93.9417 101.767 94.0388 101.709 94.0923L95.522 99.7906C95.4382 99.8678 95.3035 99.7626 95.3547 99.6608C96.5952 97.1958 96.7361 94.9332 96.7534 90.8732C96.7535 90.8542 96.7479 90.8348 96.7378 90.8187Z" stroke="#ECC17B" stroke-width="0.5"/>
<path d="M111.342 84.5121C108.758 82.6605 106.994 81.9806 103.063 82.0911C103.013 82.0925 102.97 82.1318 102.967 82.1822C102.901 83.432 103.914 84.39 107.457 86.4453C107.482 86.4599 107.514 86.463 107.542 86.4534C109.705 85.6999 110.453 85.3035 111.343 84.6744C111.399 84.635 111.398 84.5519 111.342 84.5121Z" stroke="#ECC17B" stroke-width="0.5"/>
<path d="M118.69 77.6545C117.883 77.2188 113.051 74.7484 109.213 75.8385C109.2 75.8419 109.189 75.8476 109.179 75.8563C108.663 76.349 111.043 79.6723 113.152 80.2187C115.232 80.7574 118.136 78.313 118.707 77.8084C118.758 77.7637 118.75 77.6865 118.69 77.6545Z" stroke="#ECC17B" stroke-width="0.5"/>
<path d="M124.462 70.8437C123.794 70.0031 119.182 70.5198 117.847 70.2187C119.198 70.6977 120.26 73.9943 122.2 73.3437C123.395 72.9428 125.287 71.8809 124.462 70.8437Z" stroke="#ECC17B" stroke-width="0.5"/>
<path d="M95.3396 113.974C94.3669 109.224 94.1565 106.913 94.4979 104.094C94.5111 103.985 94.6728 103.974 94.7067 104.079C95.7851 107.402 99.05 108.92 105.764 111.325C105.772 111.328 105.781 111.332 105.788 111.337C114.729 117.495 120.966 118.263 136.544 109.84C143.568 105.009 147.021 101.765 150.884 93.4508C153.645 86.4915 155.044 83.0751 157.138 78.2624C157.141 78.2566 157.143 78.2507 157.144 78.2446C157.281 77.6512 157.729 76.7324 160.872 71.4092C160.923 71.3224 161.058 71.3543 161.059 71.4551C161.113 74.8489 160.998 76.8413 160.54 80.2759C160.535 80.3143 160.508 80.3467 160.472 80.3597C159.884 80.5682 159.545 81.0392 158.967 82.7234C157.341 89.6538 156.347 93.4713 153.492 99.4104C147.684 110.712 142.568 115.304 131.59 121.759C120.669 127.42 114.956 127.351 105.796 119.094C105.783 119.083 105.768 119.075 105.752 119.071C101.356 117.971 99.0848 116.856 95.3774 114.035C95.3582 114.02 95.3444 113.998 95.3396 113.974Z" fill="#F77F1A" stroke="#F77F1A"/>
<path d="M96.1139 106.841L94.7483 105.02C94.6903 104.943 94.5673 104.985 94.5686 105.081C94.6086 108.002 94.7275 109.912 95.3406 113.971C95.3446 113.997 95.3594 114.022 95.3808 114.038C99.7285 117.243 102.029 118.111 106.013 119.073C106.029 119.076 106.044 119.084 106.056 119.095C108.18 120.941 109.378 121.952 111.513 123.25C114.325 124.632 116.018 125.293 119.845 125.633C119.853 125.634 119.86 125.633 119.867 125.633C124.022 125.105 126.252 124.468 130.025 122.654C136.207 118.989 139.51 116.557 145.142 111.634C145.146 111.631 145.15 111.627 145.153 111.623C149.551 106.329 151.772 102.957 155.056 95.8357C156.885 90.9332 157.611 88.1088 158.706 83.0224C159.042 81.111 159.509 80.6028 160.489 80.0659C160.515 80.0512 160.535 80.025 160.54 79.9949C160.635 79.4418 160.693 78.9693 160.791 77.9682C160.792 77.9607 160.792 77.9527 160.791 77.9452C160.589 76.3882 160.298 76.0403 159.576 76.1534C159.526 76.1612 159.491 76.2093 159.494 76.2597C159.652 79.3547 156.63 78.2747 157.663 80.3406C158.706 82.4265 155.739 78.8381 156.36 81.2345C157.067 84.4261 157.2 86.1591 156.516 88.4827C156.485 88.5885 156.33 88.5702 156.319 88.4605C156.172 86.9875 155.775 86.3602 154.703 85.7905C154.632 85.7529 154.549 85.8132 154.56 85.8927C155.111 90.0213 155.031 92.2477 153.9 95.4294C153.865 95.5293 153.718 95.5117 153.704 95.4066C153.554 94.2283 153.297 93.6143 152.617 93.0006C152.553 92.9429 152.453 92.9929 152.456 93.079C152.584 97.0295 152.41 99.0433 151.023 101.008C150.972 101.08 150.86 101.052 150.846 100.965C150.565 99.2965 150.271 98.5632 149.772 97.6637C149.722 97.5733 149.586 97.6108 149.587 97.7141C149.643 101.446 149.424 103.275 148.409 105.136C148.365 105.217 148.243 105.197 148.223 105.106C147.908 103.667 147.355 103.072 146.351 102.227C146.286 102.173 146.188 102.219 146.186 102.303C146.075 107.227 145.576 109.66 142.985 112.058C142.919 112.119 142.812 112.068 142.818 111.978C142.963 109.683 142.692 108.436 142.198 106.618C142.167 106.507 142.002 106.527 141.998 106.642C141.86 110.324 141.342 112.537 138.642 116.082C138.634 116.093 138.623 116.102 138.612 116.109L137.865 116.535C137.78 116.584 137.682 116.493 137.722 116.403C138.897 113.81 138.673 112.182 138.634 109.7C138.632 109.583 138.465 109.561 138.436 109.674C137.541 113.134 137.299 115.463 134.718 118.184C134.044 118.982 133.654 119.307 133.114 119.572C133.034 119.612 132.95 119.531 132.982 119.447C133.936 116.942 133.777 115.303 133.463 112.636C133.451 112.532 133.306 112.516 133.269 112.614C130.813 119.163 129.226 122.532 124.682 123.231C124.617 123.241 124.559 123.185 124.569 123.119C124.806 121.6 125.51 119.794 126.739 116.813C126.785 116.701 126.626 116.617 126.559 116.719C124.736 119.502 123.615 120.997 122.158 122.184C122.086 122.243 121.981 122.178 121.999 122.086C122.533 119.492 122.284 118.287 121.773 116.428C121.746 116.331 121.61 116.33 121.581 116.425C120.737 119.173 120.222 120.832 117.938 122.531C117.871 122.581 117.776 122.53 117.779 122.447C117.822 121.117 117.619 120.294 117.068 118.971C117.036 118.894 116.928 118.89 116.888 118.963C115.104 122.184 114.03 123.051 112.163 123.238C112.098 123.245 112.045 123.186 112.056 123.122C112.579 120.119 113.303 118.534 114.958 116.1C115.015 116.016 114.923 115.903 114.826 115.934C114.308 116.101 113.813 116.049 112.933 115.567C112.874 115.536 112.8 115.57 112.785 115.634C111.697 120.152 110.872 121.054 109.256 120.877C109.205 120.871 109.167 120.827 109.168 120.776C109.223 118.654 109.492 117.236 110.47 114.311C110.127 114.998 109.958 115.041 109.817 114.586C109.784 114.479 109.596 114.479 109.569 114.588C108.986 116.874 107.151 119.137 106.298 118.482C105.633 117.973 105.128 114.863 105.49 111.832C105.5 111.749 105.411 111.69 105.337 111.729C104.787 112.019 104.389 112.021 103.723 111.149C103.656 111.062 103.506 111.125 103.526 111.232C103.967 113.601 103.902 114.666 103.237 115.698C103.203 115.751 103.127 115.757 103.083 115.711C101.238 113.771 100.392 112.226 99.2059 109.441C99.1625 109.339 99.0103 109.372 99.0145 109.483C99.0896 111.478 99.2797 112.742 100.128 114.548C100.172 114.642 100.062 114.735 99.9784 114.673C97.8259 113.079 96.8274 111.525 96.1329 106.887C96.1305 106.87 96.1239 106.854 96.1139 106.841Z" fill="#ED6D10" stroke="#ED6D10"/>
<path d="M118.522 116.088C109.122 113.145 103.971 111.038 95.9057 103.616C95.8827 103.595 95.8704 103.563 95.8733 103.532C96.4847 97.0687 98.1441 93.4747 104.473 87.1928L118.539 76.1781C118.548 76.171 118.558 76.1656 118.569 76.162L144.366 67.5259C151.917 66.0569 157.06 63.8344 159.738 69.8838C159.745 69.9003 159.748 69.9197 159.746 69.9376C159.164 74.5896 157.636 76.4576 155.323 80.0313C155.319 80.0378 155.316 80.045 155.313 80.0523C152.056 89.1618 149.345 93.7319 144.37 101.788C144.367 101.792 144.364 101.796 144.361 101.8C136.437 111.291 129.747 112.524 118.583 116.087C118.564 116.094 118.542 116.094 118.522 116.088Z" fill="#F2B55F" stroke="#E1821B"/>
<ellipse cx="3.39407" cy="0.758423" rx="3.39407" ry="0.758423" transform="matrix(0.994361 -0.106044 0.0813818 0.996683 130.025 99.5342)" fill="#E98420"/>
<ellipse cx="3.39407" cy="0.758423" rx="3.39407" ry="0.758423" transform="matrix(0.994361 -0.106044 0.0813818 0.996683 124.81 94.7671)" fill="#E98420"/>
<ellipse cx="3.88139" cy="0.7577" rx="3.88139" ry="0.7577" transform="matrix(0.989054 0.147555 -0.113487 0.99354 135.933 91.0664)" fill="#E98420"/>
<ellipse cx="2.61556" cy="0.752583" rx="2.61556" ry="0.752583" transform="matrix(0.951593 0.307362 -0.240068 0.970756 142.902 83.3188)" fill="#E98420"/>
<ellipse cx="3.67977" cy="0.759121" rx="3.67977" ry="0.759121" transform="matrix(0.999483 -0.0321542 0.0246239 0.999697 137.355 80.2085)" fill="#E98420"/>
<ellipse cx="3.39407" cy="0.758423" rx="3.39407" ry="0.758423" transform="matrix(0.994361 -0.106044 0.0813818 0.996683 133.154 77.4834)" fill="#E98420"/>
<ellipse cx="2.13328" cy="0.505384" rx="2.13328" ry="0.505384" transform="matrix(0.994361 -0.106044 0.0813818 0.996683 130.547 75.4282)" fill="#E98420"/>
<ellipse cx="4.6635" cy="0.494644" rx="4.6635" ry="0.494644" transform="matrix(0.979609 0.200912 -0.155128 0.987894 142.254 70.8032)" fill="#E98420"/>
<ellipse cx="1.99879" cy="0.391644" rx="1.99879" ry="0.391644" transform="matrix(0.978988 0.203916 -0.157488 0.987521 146.818 74.0898)" fill="#E98420"/>
<ellipse cx="3.39407" cy="0.758423" rx="3.39407" ry="0.758423" transform="matrix(0.994361 -0.106044 0.0813818 0.996683 118.553 79.271)" fill="#E98420"/>
<ellipse cx="5.15503" cy="0.758423" rx="5.15503" ry="0.758423" transform="matrix(0.994361 -0.106044 0.0813818 0.996683 122.203 82.251)" fill="#E98420"/>
<ellipse cx="5.25855" cy="0.759181" rx="5.25855" ry="0.759181" transform="matrix(0.999921 -0.0125313 0.00959479 0.999954 128.493 86.3247)" fill="#E98420"/>
<ellipse cx="4.75244" cy="0.758423" rx="4.75244" ry="0.758423" transform="matrix(0.994361 -0.106044 0.0813818 0.996683 119.074 90.5947)" fill="#E98420"/>
<ellipse cx="4.98977" cy="0.754887" rx="4.98977" ry="0.754887" transform="matrix(0.968448 -0.249214 0.19331 0.981138 114.365 87.5249)" fill="#E98420"/>
<ellipse cx="3.44068" cy="0.750314" rx="3.44068" ry="0.750314" transform="matrix(0.935006 -0.354633 0.278876 0.960327 110.73 85.1636)" fill="#E98420"/>
<ellipse cx="3.4183" cy="0.754231" rx="3.4183" ry="0.754231" transform="matrix(0.96365 -0.267167 0.207644 0.978204 103.43 92.2969)" fill="#E98420"/>
<ellipse cx="4.11937" cy="0.75306" rx="4.11937" ry="0.75306" transform="matrix(0.955081 -0.296345 0.231133 0.972922 108.115 95.4443)" fill="#E98420"/>
<ellipse cx="5.04597" cy="0.970717" rx="5.04597" ry="0.970717" transform="matrix(0.954158 -0.299302 0.233528 0.97235 112.707 100.396)" fill="#E98420"/>
<ellipse cx="3.39407" cy="0.758423" rx="3.39407" ry="0.758423" transform="matrix(0.994361 -0.106044 0.0813818 0.996683 119.596 103.706)" fill="#E98420"/>
<ellipse cx="3.40502" cy="0.756536" rx="3.40502" ry="0.756536" transform="matrix(0.980525 -0.196395 0.151583 0.988445 108.645 109.687)" fill="#E98420"/>
<path d="M109.279 102.7C109.399 103.096 107.598 104.173 105.255 105.106C102.913 106.039 101.462 106.765 101.341 106.369C101.221 105.973 102.475 104.605 104.818 103.672C107.161 102.739 109.158 102.304 109.279 102.7Z" fill="#E98420"/>
<path d="M104.994 99.4096C105.19 99.7642 102.547 100.622 100.963 101.763C99.3804 102.905 97.9383 103.543 97.7425 103.189C97.5467 102.834 98.6713 101.621 100.254 100.479C101.837 99.3375 104.799 99.055 104.994 99.4096Z" fill="#E98420"/>
<path fill-rule="evenodd" clip-rule="evenodd" d="M94.5649 102.091C93.684 107.549 100.525 108.243 104.994 111.031C109.294 113.713 111.863 115.443 116.728 116.096C124.16 117.095 128.632 114.45 135.24 110.435C139.987 107.551 142.642 105.515 146.191 100.899C149.476 96.6262 150.279 93.3473 152.709 88.384C155.484 82.7196 159.408 73.6715 159.487 73.4877C159.49 73.482 159.489 73.4841 159.493 73.4789C159.601 73.3162 161.846 69.8894 159.749 67.8232C157.482 65.5878 155.609 64.611 152.449 65.1414C147.727 65.9337 145.098 66.5603 140.455 67.8232C134.781 69.3666 131.585 70.2789 126.114 72.5909C120.771 74.8491 117.833 76.1562 112.817 79.4447C107.84 82.7069 100.934 89.4668 100.824 89.5746C100.821 89.578 100.824 89.5737 100.821 89.5776C100.728 89.7002 95.438 96.6819 94.5649 102.091ZM96.3901 102.687C95.3898 100.092 98.9499 95.0076 98.9971 94.9405C98.9985 94.9384 98.998 94.9391 98.9993 94.9369C99.0292 94.8869 99.4369 94.2061 100.073 93.2453C100.321 92.8712 100.603 92.4548 100.911 92.0165C101.994 90.4769 103.396 88.669 104.734 87.4903C104.842 87.3896 104.95 87.2905 105.056 87.1927C108.106 84.3894 110.207 82.7565 112.817 81.1309C113.696 80.5829 114.634 80.0357 115.685 79.4447C117.974 78.2817 119.861 77.3303 121.682 76.4654C122.067 76.2825 122.431 76.0868 122.789 75.8899C123.369 75.5721 123.934 75.251 124.55 74.9754C126.554 74.079 128.776 73.318 131.329 72.2932C131.594 72.2009 131.855 72.1102 132.111 72.021C132.179 71.9974 132.246 71.9739 132.314 71.9505C133.256 71.6223 134.14 71.3146 134.979 71.0246C137.954 69.9961 140.361 69.1909 142.801 68.489C143.987 68.148 145.181 67.8314 146.452 67.5254C150.855 66.2727 153.217 65.8216 156.611 66.9262C156.617 66.9284 156.624 66.9313 156.63 66.9347C159.1 68.3499 159.721 69.3858 159.231 71.6818C159.229 71.6918 159.226 71.7012 159.221 71.7101C159.157 71.8216 158.69 72.6444 158.059 73.7835C157.669 74.4883 157.216 75.3141 156.757 76.1674C156.158 77.2826 155.548 78.4448 155.056 79.4447C154.533 80.5085 154.102 81.4896 153.721 82.425C153.386 83.2467 153.088 84.033 152.798 84.8089C151.981 86.9913 151.221 89.0914 149.841 91.6625C149.72 91.8892 149.601 92.1116 149.484 92.3298C147.235 96.5426 145.864 99.234 142.541 102.687C139.518 105.829 137.157 107.477 133.936 109.089C133.055 109.53 132.109 109.969 131.068 110.435C125.471 112.939 121.905 114.607 115.945 113.713C112.51 113.197 107.5 109.91 107.099 109.558C107.084 109.546 107.078 109.531 107.075 109.512C106.681 107.273 108.909 105.96 109.688 104.773C110.47 103.581 105.949 108.22 103.169 107.753C99.2124 106.771 97.3972 105.3 96.3901 102.687Z" fill="#EF8913"/>
<path d="M105.056 87.1927C117.324 94.7056 123.764 99.3846 133.936 109.089L136.69 107.521C136.748 107.488 136.757 107.408 136.71 107.362C125.981 96.7325 119.249 92.1862 107.405 85.1983C107.367 85.1762 107.319 85.1804 107.287 85.2093L105.056 87.1927Z" fill="#EF8913"/>
<path d="M100.911 92.0165C100.603 92.4548 100.321 92.8712 100.073 93.2453L99.3051 94.562C99.2787 94.6073 99.2926 94.6659 99.3358 94.6955C108.884 101.247 114.005 105.234 122.163 113.375C122.188 113.4 122.224 113.41 122.258 113.402L125.688 112.562C125.762 112.544 125.788 112.451 125.736 112.395C117.057 103.08 111.5 98.7074 100.911 92.0165Z" fill="#EF8913"/>
<path d="M115.685 79.4447C114.634 80.0357 113.696 80.5829 112.817 81.1309C125.131 87.6234 131.575 92.5272 142.541 102.687L144.309 100.378C144.341 100.336 144.334 100.276 144.295 100.241C129.581 87.284 123.637 83.1718 115.685 79.4447Z" fill="#EF8913"/>
<path d="M149.484 92.3298C149.601 92.1116 149.72 91.8892 149.841 91.6625C141.283 83.6673 135.539 80.0445 124.55 74.9754L122.789 75.8899C122.431 76.0868 122.067 76.2825 121.682 76.4654C133.242 82.1559 139.267 85.9947 148.31 94.2565C148.359 94.3005 148.436 94.2884 148.467 94.2308L149.484 92.3298Z" fill="#EF8913"/>
<path d="M132.111 72.021C140.654 76.0766 145.205 78.8405 152.798 84.8089C153.088 84.033 153.386 83.2467 153.721 82.425C146.882 76.4546 142.767 74.0191 134.979 71.0246C134.14 71.3146 133.256 71.6223 132.314 71.9505L132.111 72.021Z" fill="#EF8913"/>
<path d="M146.452 67.5254C145.181 67.8314 143.987 68.148 142.801 68.489C148.986 70.4588 152.281 71.8031 156.757 76.1674C157.216 75.3141 157.669 74.4883 158.059 73.7835C153.679 70.1012 151.135 68.7716 146.452 67.5254Z" fill="#EF8913"/>
<path d="M142.541 102.687C139.518 105.829 137.157 107.477 133.936 109.089M142.541 102.687C131.575 92.5272 125.131 87.6234 112.817 81.1309M142.541 102.687L144.309 100.378C144.341 100.336 144.334 100.276 144.295 100.241C129.581 87.284 123.637 83.1718 115.685 79.4447M142.541 102.687C145.864 99.234 147.235 96.5426 149.484 92.3298M149.841 91.6625C141.283 83.6673 135.539 80.0445 124.55 74.9754M149.841 91.6625C151.221 89.0914 151.981 86.9913 152.798 84.8089M149.841 91.6625C149.72 91.8892 149.601 92.1116 149.484 92.3298M149.841 91.6625L149.484 92.3298M146.452 67.5254C150.855 66.2727 153.217 65.8216 156.611 66.9262C156.617 66.9284 156.624 66.9313 156.63 66.9347C159.1 68.3499 159.721 69.3858 159.231 71.6818C159.229 71.6918 159.226 71.7012 159.221 71.7101C159.157 71.8216 158.69 72.6444 158.059 73.7835M146.452 67.5254C145.181 67.8314 143.987 68.148 142.801 68.489M146.452 67.5254C151.135 68.7716 153.679 70.1012 158.059 73.7835M131.329 72.2932C128.776 73.318 126.554 74.079 124.55 74.9754M131.329 72.2932C131.594 72.2009 131.855 72.1102 132.111 72.021M131.329 72.2932L132.111 72.021M115.685 79.4447C114.634 80.0357 113.696 80.5829 112.817 81.1309M115.685 79.4447C117.974 78.2817 119.861 77.3303 121.682 76.4654M133.936 109.089C133.055 109.53 132.109 109.969 131.068 110.435C125.471 112.939 121.905 114.607 115.945 113.713C112.51 113.197 107.5 109.91 107.099 109.558C107.084 109.546 107.078 109.531 107.075 109.512C106.681 107.273 108.909 105.96 109.688 104.773C110.47 103.581 105.949 108.22 103.169 107.753C99.2124 106.771 97.3972 105.3 96.3901 102.687C95.3898 100.092 98.9499 95.0076 98.9971 94.9405C98.9985 94.9384 98.998 94.9391 98.9993 94.9369C99.0292 94.8869 99.4369 94.2061 100.073 93.2453M133.936 109.089C123.764 99.3846 117.324 94.7056 105.056 87.1927M133.936 109.089L136.69 107.521C136.748 107.488 136.757 107.408 136.71 107.362C125.981 96.7325 119.249 92.1862 107.405 85.1983C107.367 85.1762 107.319 85.1804 107.287 85.2093L105.056 87.1927M105.056 87.1927C104.95 87.2905 104.842 87.3896 104.734 87.4903C103.396 88.669 101.994 90.4769 100.911 92.0165M105.056 87.1927C108.106 84.3894 110.207 82.7565 112.817 81.1309M121.682 76.4654C133.242 82.1559 139.267 85.9947 148.31 94.2565C148.359 94.3005 148.436 94.2884 148.467 94.2308L149.484 92.3298M121.682 76.4654C122.067 76.2825 122.431 76.0868 122.789 75.8899M121.682 76.4654L122.789 75.8899M124.55 74.9754L122.789 75.8899M124.55 74.9754C123.934 75.251 123.369 75.5721 122.789 75.8899M152.798 84.8089C145.205 78.8405 140.654 76.0766 132.111 72.021M152.798 84.8089C153.088 84.033 153.386 83.2467 153.721 82.425M132.111 72.021L132.314 71.9505M132.111 72.021C132.179 71.9974 132.246 71.9739 132.314 71.9505M134.979 71.0246C142.767 74.0191 146.882 76.4546 153.721 82.425M134.979 71.0246C137.954 69.9961 140.361 69.1909 142.801 68.489M134.979 71.0246C134.14 71.3146 133.256 71.6223 132.314 71.9505M153.721 82.425C154.102 81.4896 154.533 80.5085 155.056 79.4447C155.548 78.4448 156.158 77.2826 156.757 76.1674M156.757 76.1674C152.281 71.8031 148.986 70.4588 142.801 68.489M156.757 76.1674C157.216 75.3141 157.669 74.4883 158.059 73.7835M100.911 92.0165C100.603 92.4548 100.321 92.8712 100.073 93.2453M100.911 92.0165C111.5 98.7074 117.057 103.08 125.736 112.395C125.788 112.451 125.762 112.544 125.688 112.562L122.258 113.402C122.224 113.41 122.188 113.4 122.163 113.375C114.005 105.234 108.884 101.247 99.3358 94.6955C99.2926 94.6659 99.2787 94.6073 99.3051 94.562L100.073 93.2453M100.911 92.0165C100.911 92.0163 100.911 92.016 100.91 92.0158C100.862 91.9855 100.799 92.001 100.77 92.0499L100.073 93.2453M94.5649 102.091C93.684 107.549 100.525 108.243 104.994 111.031C109.294 113.713 111.863 115.443 116.728 116.096C124.16 117.095 128.632 114.45 135.24 110.435C139.987 107.551 142.642 105.515 146.191 100.899C149.476 96.6262 150.279 93.3473 152.709 88.384C155.484 82.7196 159.408 73.6715 159.487 73.4877C159.49 73.482 159.489 73.4841 159.493 73.4789C159.601 73.3162 161.846 69.8894 159.749 67.8232C157.482 65.5878 155.609 64.611 152.449 65.1414C147.727 65.9337 145.098 66.5603 140.455 67.8232C134.781 69.3666 131.585 70.2789 126.114 72.5909C120.771 74.8491 117.833 76.1562 112.817 79.4447C107.84 82.7069 100.934 89.4668 100.824 89.5746C100.821 89.578 100.824 89.5737 100.821 89.5776C100.728 89.7002 95.438 96.6819 94.5649 102.091Z" stroke="#ED8513"/>
</svg>
