<svg width="311" height="240" viewBox="0 0 311 240" fill="none" xmlns="http://www.w3.org/2000/svg">
<path d="M42.9697 91.5601H11.1567V103.096H42.9697V91.5601Z" fill="#393F3F"/>
<path d="M42.9697 137.001H11.1567V148.537H42.9697V137.001Z" fill="#393F3F"/>
<path d="M21.6598 151.941C21.6598 154.488 19.5958 156.552 17.0488 156.552H5.2648C2.7188 156.552 0.653809 154.488 0.653809 151.941V88.156C0.653809 85.609 2.7178 83.545 5.2648 83.545H17.0488C19.5948 83.545 21.6598 85.609 21.6598 88.156V151.941Z" fill="#F9710D"/>
<path d="M299.585 137.003H267.772V148.539H299.585V137.003Z" fill="#393F3F"/>
<path d="M299.585 91.561H267.772V103.097H299.585V91.561Z" fill="#393F3F"/>
<path d="M289.082 88.156C289.082 85.609 291.147 83.545 293.693 83.545H305.477C308.024 83.545 310.087 85.609 310.087 88.156V151.941C310.087 154.488 308.024 156.552 305.477 156.552H293.693C291.147 156.552 289.082 154.488 289.082 151.941V88.156Z" fill="#F9710D"/>
<path d="M275.296 120.049C275.296 186.281 221.604 239.973 155.373 239.973C89.1388 239.973 35.4468 186.281 35.4468 120.049C35.4468 53.817 89.1388 0.125 155.373 0.125C221.603 0.125 275.296 53.816 275.296 120.049Z" fill="#99867B"/>
<path d="M155.373 14.994C97.3509 14.994 50.3169 62.028 50.3169 120.049C50.3169 178.07 97.3509 225.103 155.373 225.103C213.391 225.103 260.425 178.07 260.425 120.049C260.425 62.028 213.392 14.994 155.373 14.994ZM155.373 219.779C100.291 219.779 55.6399 175.129 55.6399 120.049C55.6399 64.969 100.291 20.319 155.373 20.319C210.451 20.319 255.102 64.969 255.102 120.049C255.102 175.129 210.451 219.779 155.373 219.779Z" fill="#ADA9AA"/>
<path d="M155.373 20.319C100.291 20.319 55.6396 64.969 55.6396 120.049C55.6396 175.129 100.291 219.779 155.373 219.779C210.451 219.779 255.102 175.129 255.102 120.049C255.102 64.969 210.451 20.319 155.373 20.319Z" fill="#393F3F"/>
<path d="M238.604 120.049C238.604 166.673 200.81 204.468 154.185 204.468C107.56 204.468 69.7637 166.673 69.7637 120.049C69.7637 73.425 107.56 35.63 154.185 35.63C200.81 35.63 238.604 73.425 238.604 120.049Z" fill="#E0450E"/>
<path d="M90.0069 43.717H84.2139V196.373H90.0069V43.717Z" fill="#ADA9AA"/>
<path d="M117.311 26.277H111.518V212.778H117.311V26.277Z" fill="#ADA9AA"/>
<path d="M144.616 20.319H138.824V219.779H144.616V20.319Z" fill="#ADA9AA"/>
<path d="M171.919 20.371H166.128V222.023H171.919V20.371Z" fill="#ADA9AA"/>
<path d="M199.224 26.277H193.432V212.778H199.224V26.277Z" fill="#ADA9AA"/>
<path d="M226.527 41.841H220.734V196.373H226.527V41.841Z" fill="#ADA9AA"/>
<path d="M152.04 51.612C155.177 29.645 128.96 30.899 124.182 36.482C124.182 36.482 90.9189 72.83 99.0999 102.176L106.5 107.996C111.772 87.216 120.323 83.964 125.215 82.867C119.541 74.421 130.361 73.115 132.195 76.637L152.04 51.612Z" fill="#FF9D83"/>
<path d="M151.824 51.444C172.432 43.21 177.404 68.982 173.108 74.944C173.108 74.944 145.638 115.849 115.192 114.829L107.789 109.008C126.737 98.982 127.876 89.902 127.79 84.89C137.337 88.411 136.051 77.588 132.195 76.636L151.824 51.444Z" fill="#F48069"/>
<path d="M243.615 59.164C242.94 77.158 230.633 94.171 213.338 108.813C205.427 105.335 198.353 99.47 193.286 91.513C188.172 83.475 185.859 74.492 186.102 65.77C206.724 56.267 227.296 52.265 243.615 59.164Z" fill="#41CEA9"/>
<path d="M133.14 151.477C113.229 157.661 97.7034 159.077 94.5164 154.071C91.2694 148.972 99.1564 135.563 113.223 120.223C114.343 126.318 116.621 132.265 120.125 137.769C123.636 143.288 128.073 147.874 133.14 151.477Z" fill="#41CEA9"/>
<path d="M228.992 68.464C230.22 70.392 229.655 72.945 227.727 74.171C225.803 75.396 223.249 74.83 222.02 72.902C220.798 70.979 221.365 68.426 223.289 67.201C225.216 65.975 227.77 66.542 228.992 68.464Z" fill="#393F3F"/>
<path d="M82.1466 146.52L96.1246 168.478L87.2056 185.033L77.9626 164.622L63.3696 147.594L82.1466 146.52Z" fill="#5DB6A2"/>
<path d="M93.9545 145.834L101.741 158.069L96.1245 168.478L82.1465 146.52L93.9545 145.834Z" fill="#41CEA9"/>
<path d="M193.286 91.513C198.352 99.47 205.427 105.334 213.338 108.813C190.229 128.375 158.21 143.703 133.141 151.477C128.075 147.874 123.637 143.288 120.126 137.769C116.622 132.265 114.344 126.318 113.224 120.223C130.978 100.862 158.586 78.431 186.102 65.77C185.859 74.492 188.172 83.475 193.286 91.513Z" fill="#5DB6A2"/>
<path d="M201.467 184.974H135.532C135.532 166.626 150.456 151.983 168.505 151.983C186.539 151.983 201.467 166.618 201.467 184.974Z" fill="#FAC41A"/>
<path d="M196.189 184.974H140.805C140.812 181.363 141.554 177.624 142.953 174.294L164.912 183.293C165.008 183.088 165.115 182.891 165.25 182.711L146.48 168.191C148.914 164.988 152.224 162.215 155.791 160.368L166.835 181.394C167.04 181.298 167.249 181.221 167.467 181.164L162.417 157.965C166.271 157.089 170.593 157.057 174.58 157.965L169.532 181.164C169.748 181.221 169.959 181.298 170.162 181.394L181.206 160.368C184.676 162.164 188.012 164.893 190.518 168.191L171.754 182.711C171.882 182.897 171.99 183.088 172.087 183.298L194.046 174.3C195.415 177.566 196.184 181.298 196.189 184.974Z" fill="#FFDC7B"/>
</svg>
