<svg width="200" height="200" viewBox="0 0 200 200" fill="none" xmlns="http://www.w3.org/2000/svg">
<path d="M195 102.5C195 139.779 152.467 170 100 170C47.5329 170 5 139.779 5 102.5C5 65.2204 47.5329 34.9997 100 34.9997C152.467 34.9997 195 65.2204 195 102.5Z" fill="#F4B13B"/>
<path d="M195 96.875C195 133.809 152.467 163.75 100 163.75C47.5329 163.75 5 133.809 5 96.875C5 59.941 47.5329 30 100 30C152.467 30 195 59.941 195 96.875Z" fill="#BC3621"/>
<path d="M180.298 91.8751C180.298 121.215 144.6 145 100.566 145C56.5308 145 20.8335 121.215 20.8335 91.8751C20.8335 62.5349 56.5308 38.7501 100.566 38.7501C144.6 38.7501 180.298 62.5349 180.298 91.8751Z" fill="#A92D1B"/>
<path d="M57.776 89.9008C57.098 91.9594 56.4478 93.1307 54.3021 95.0632C54.2522 95.1081 54.1709 95.0894 54.1423 95.0288C48.8301 83.7625 40.4797 86.7096 35.2887 94.4901C35.248 94.5511 35.1555 94.548 35.1176 94.4851C30.3453 86.5694 31.4682 82.3997 33.1448 74.9754C33.1461 74.9695 33.1469 74.9633 33.1472 74.9572C33.1777 74.1501 33.0011 73.507 32.6364 72.3203C32.6344 72.3137 32.633 72.3064 32.6324 72.2995C32.0146 65.2841 35.16 62.0073 41.8586 56.3877C41.8702 56.378 41.8799 56.3652 41.8861 56.3512C43.9056 51.8079 45.2592 49.2339 53.6874 44.1539C61.8 40.2808 66.4707 39.3711 75.2376 42.5539C75.2489 42.5579 75.2613 42.5601 75.2733 42.56C83.2111 42.4815 87.3952 43.1347 93.2161 48.3932C93.2238 48.4002 93.2307 48.4087 93.2359 48.4177C98.0752 56.7941 98.5502 61.9417 93.232 72.3022C93.2293 72.3074 93.2261 72.3126 93.2225 72.3172C90.4813 75.9279 88.3207 77.0983 83.0076 77.0915C82.9766 77.0915 82.9461 77.1063 82.927 77.1307C78.7655 82.4682 75.1813 83.806 67.5979 84.5246C67.5693 84.5273 67.5422 84.5427 67.5253 84.5659C64.8888 88.1771 62.6097 89.1352 57.8577 89.8323C57.8201 89.8378 57.7878 89.8648 57.776 89.9008Z" fill="#F1A127"/>
<path d="M45.567 88.5083C40.9488 88.0658 38.5611 89.6836 34.8469 93.7509C34.8115 93.7898 34.8109 93.8492 34.8434 93.8905C35.6738 94.9459 35.9055 99.2196 39.9183 102.852C44.0264 106.571 48.0038 107.327 51.7291 104.446C54.7703 102.094 54.1013 99.4885 54.8058 94.9117C54.8087 94.8934 54.8063 94.874 54.7991 94.8569C53.0246 90.6709 49.8778 88.9213 45.567 88.5083Z" fill="#E9901C"/>
<path d="M96.2738 72.3359C101.867 63.7273 101.46 58.8793 97.9067 50.5206C97.8671 50.4274 97.9733 50.3367 98.0559 50.3954C103.408 54.1955 110.088 58.1808 109.479 65.7544C109.026 71.4029 104.658 72.2012 96.3616 72.4933C96.2806 72.4961 96.2296 72.4039 96.2738 72.3359Z" fill="#E28315"/>
<path d="M97.9454 50.1875L93.3237 48.0625C98.4927 57.5737 99.3645 63.3758 93.3237 72.5H96.4048C100.814 64.3161 101.033 59.3975 97.9454 50.1875Z" fill="#D2710D"/>
<path d="M78.9455 42.75H76.3779C86.5596 54.1779 87.6267 62.0984 83.5671 77.2812L87.1617 76.75C91.9342 58.6752 89.1231 51.8349 78.9455 42.75Z" fill="#D3730F"/>
<path d="M44.0266 52.3125L42.4861 55.5C46.6461 54.2626 52.2428 57.6245 53.2699 58.1563C54.2969 58.6881 59.9455 61.3433 64.0537 67.7188C68.1618 74.0943 69.032 77.6592 68.1618 84.7188L70.2158 84.1875C71.0843 79.8589 69.9924 77.1921 68.6753 71.9688C66.9846 65.2638 64.3425 61.5168 58.405 58.1563C52.6771 54.9144 44.0266 52.3125 44.0266 52.3125Z" fill="#CD660A"/>
<path d="M32.7292 71.4374L33.2428 74.0937C39.2805 71.3682 43.5864 72.6374 52.2428 78.7142C55.8064 81.5826 57.3591 83.7701 58.4049 89.8705L59.9455 89.3392C59.4257 85.0431 60.0716 84.9891 58.4049 80.308C55.007 75.1021 52.2799 73.3196 46.5941 71.2767C39.5696 69.5449 36.738 68.371 32.7292 71.4374Z" fill="#CD660A"/>
<path d="M64.1699 40.21C67.5282 39.8886 70.9466 40.4713 75.3379 42.0586C79.2784 42.0217 82.3533 42.1669 85.1787 42.9951C88.035 43.8324 90.6006 45.3573 93.5508 48.0225C93.5738 48.0433 93.5956 48.0657 93.6152 48.0898L93.6689 48.168L94.1133 48.9492C96.2716 52.8175 97.4858 56.0872 97.543 59.6074C97.6 63.1232 96.5015 66.8276 94.1611 71.5684L93.6768 72.5303C93.6609 72.5612 93.6423 72.5912 93.6211 72.6191C92.23 74.4514 90.9464 75.7189 89.2959 76.5117C87.6898 77.2832 85.7883 77.5781 83.2012 77.5889C81.1315 80.2127 79.166 81.9005 76.7549 83.0137C74.3489 84.1244 71.538 84.644 67.8213 85.0039C66.5117 86.7692 65.2558 87.933 63.7158 88.7354C62.199 89.5256 60.4431 89.9454 58.1719 90.2891C57.8512 91.2322 57.5167 92.0216 57.0088 92.8018C56.4608 93.6433 55.7272 94.4525 54.6367 95.4346C54.323 95.7171 53.8534 95.5873 53.6904 95.2422C51.0811 89.7083 47.8211 87.8402 44.7139 88.1152C41.5344 88.3968 38.2652 90.9305 35.7051 94.7676C35.4556 95.1415 34.9116 95.1117 34.6895 94.7432C32.2717 90.7329 31.3229 87.6291 31.2129 84.5635C31.1043 81.5361 31.8183 78.5771 32.6475 74.9072C32.6689 74.2105 32.5196 73.6428 32.1582 72.4668C32.1459 72.4267 32.1375 72.3853 32.1338 72.3438C31.8164 68.7397 32.468 66.0522 34.082 63.5488C35.6641 61.0952 38.159 58.8408 41.4658 56.0645C42.4619 53.8266 43.3306 52.0066 45.0098 50.1211C46.7032 48.2196 49.199 46.2756 53.4297 43.7256L53.4502 43.7129L53.4717 43.7031C57.5414 41.7602 60.8025 40.5323 64.1699 40.21ZM75.0674 43.0234C70.7258 41.4472 67.4436 40.9018 64.2646 41.2061C61.0819 41.5107 57.9554 42.6711 53.9219 44.5957C49.7389 47.1186 47.3492 48.9982 45.7568 50.7861C44.1681 52.5701 43.3505 54.2876 42.3428 56.5547C42.3056 56.6383 42.2493 56.7121 42.1797 56.7705C38.8236 59.586 36.4214 61.7652 34.9219 64.0908C33.448 66.3768 32.8348 68.8274 33.1279 72.2207C33.4814 73.3728 33.6802 74.0855 33.6465 74.9766C33.645 75.014 33.6407 75.0509 33.6328 75.0859C32.7894 78.8205 32.1095 81.6476 32.2129 84.5283C32.3107 87.2507 33.1134 90.0497 35.2305 93.6914C37.8166 90.0219 41.1663 87.4254 44.626 87.1191C48.2138 86.8015 51.6862 88.9541 54.3594 94.3311C55.192 93.5482 55.7497 92.9021 56.1699 92.2568C56.6517 91.517 56.9679 90.7549 57.3008 89.7441C57.3724 89.527 57.5616 89.3707 57.7852 89.3379L58.6406 89.2041C60.5661 88.8844 62.0146 88.4944 63.2539 87.8486C64.6589 87.1166 65.8329 86.0358 67.1211 84.2715L67.207 84.1768C67.3018 84.0924 67.4223 84.0385 67.5508 84.0264L68.9189 83.8848C72.0029 83.5332 74.337 83.0283 76.3359 82.1055C78.607 81.057 80.4843 79.4498 82.5322 76.8232C82.6464 76.6769 82.8231 76.5917 83.0078 76.5918L83.9541 76.5791C86.0744 76.5165 87.5964 76.2189 88.8633 75.6104C90.2996 74.9204 91.4619 73.8034 92.8037 72.04C95.4363 66.9048 96.5998 63.1242 96.543 59.624C96.4864 56.1364 95.2175 52.8577 92.834 48.7227C89.9835 46.1558 87.5584 44.7351 84.8975 43.9551C82.208 43.1667 79.2417 43.0204 75.2783 43.0596C75.2063 43.0603 75.1346 43.0478 75.0674 43.0234Z" fill="#F1A127"/>
<path d="M39.6357 88.9951C41.3778 88.0833 43.231 87.7825 45.6143 88.0107C47.8229 88.2224 49.7732 88.78 51.4082 89.8496C53.0484 90.9227 54.3389 92.4897 55.2598 94.6621C55.3035 94.7655 55.3165 94.8786 55.2998 94.9873C55.1264 96.1138 55.0372 97.1204 54.9531 98.0469C54.8697 98.9662 54.7903 99.8213 54.6338 100.61C54.3133 102.226 53.666 103.58 52.0352 104.842C50.0793 106.355 48.0188 106.935 45.8936 106.618C43.7872 106.305 41.6783 105.119 39.583 103.223C37.5039 101.341 36.4056 99.2918 35.7236 97.5908C35.3847 96.7455 35.1461 95.9787 34.9482 95.3828C34.848 95.0809 34.7597 94.8285 34.6738 94.6221C34.5862 94.4115 34.512 94.2778 34.4502 94.1992C34.276 93.9774 34.2677 93.6441 34.4775 93.4141L35.1631 92.6748C36.7358 91.0133 38.1299 89.7833 39.6357 88.9951ZM45.5195 89.0059C43.2847 88.7917 41.6343 89.0786 40.0996 89.8818C38.6014 90.6661 37.1777 91.9609 35.4209 93.8662C35.4853 93.9838 35.5434 94.1093 35.5967 94.2373C35.698 94.4807 35.7957 94.7638 35.8965 95.0674C36.101 95.6831 36.327 96.4097 36.6514 97.2188C37.296 98.8266 38.3202 100.731 40.2539 102.481C42.2667 104.303 44.2004 105.356 46.041 105.63C47.8625 105.901 49.6536 105.419 51.4229 104.051C52.8329 102.96 53.3719 101.835 53.6533 100.416C53.7978 99.6877 53.8737 98.8858 53.958 97.9561C54.0389 97.0643 54.1276 96.0669 54.2949 94.9521C53.4453 92.9924 52.2904 91.6221 50.8604 90.6865C49.4006 89.7316 47.6216 89.2073 45.5195 89.0059Z" fill="#E9901C"/>
<path d="M97.613 50.0195C97.7708 49.8862 98.0191 49.8233 98.2488 49.9307L98.3455 49.9873L100.391 51.4228C102.479 52.8898 104.637 54.4692 106.368 56.3184C108.696 58.8057 110.296 61.8272 109.977 65.7939C109.859 67.2686 109.481 68.4694 108.816 69.4336C108.149 70.4 107.219 71.0919 106.059 71.5918C103.773 72.5772 100.511 72.8477 96.3796 72.9932C95.8838 73.0106 95.5954 72.462 95.8542 72.0635L96.3562 71.2754C98.7778 67.388 99.8819 64.3199 100.02 61.3115C100.168 58.0948 99.2167 54.8785 97.447 50.7158C97.3307 50.442 97.4359 50.1693 97.613 50.0195ZM98.8894 51.5908C100.347 55.2163 101.162 58.2617 101.019 61.3574C100.868 64.6414 99.6445 67.9196 97.1042 71.9619C100.884 71.8077 103.708 71.516 105.664 70.6729C106.689 70.2307 107.455 69.6459 107.994 68.8652C108.534 68.082 108.873 67.0633 108.981 65.7139C109.271 62.1075 107.835 59.3495 105.637 57.001C103.723 54.9552 101.266 53.2528 98.8894 51.5908Z" fill="#E28315"/>
<path d="M98.1538 49.7334L98.3511 49.8232L98.4194 50.0283C99.971 54.6573 100.711 58.2618 100.485 61.7607C100.259 65.2644 99.0675 68.6126 96.8452 72.7373L96.7036 73H92.3931L92.9067 72.2236C95.8939 67.7116 97.1328 64.0812 97.0278 60.4404C96.9223 56.7828 95.46 53.0402 92.8843 48.3008L92.1665 46.9805L98.1538 49.7334ZM94.4565 49.1338C96.6311 53.3241 97.9248 56.8726 98.0269 60.4121C98.1334 64.1094 96.9408 67.7295 94.2417 72H96.103C98.1978 68.0642 99.278 64.929 99.4868 61.6963C99.6974 58.4365 99.0258 55.0304 97.5376 50.5498L94.4565 49.1338Z" fill="#D2710D"/>
<path d="M79.1357 42.25L79.2783 42.377C84.3913 46.941 87.7261 51.0022 89.1426 56.248C90.5557 61.4816 90.0385 67.815 87.6455 76.8779L87.5605 77.1963L87.2344 77.2441L82.8877 77.8867L83.084 77.1523C85.1077 69.5835 85.8323 63.8966 84.8223 58.7031C83.8141 53.5192 81.0643 48.7618 76.0049 43.083L75.2627 42.25H79.1357ZM77.4785 43.25C82.1456 48.6462 84.799 53.3462 85.8037 58.5117C86.8236 63.7558 86.1305 69.4164 84.2402 76.6758L86.7598 76.3037C89.0664 67.4654 89.5046 61.4266 88.1768 56.5088C86.8488 51.591 83.7343 47.7174 78.752 43.25H77.4785Z" fill="#D97711"/>
<path d="M44.1707 51.834H44.1726C44.1726 51.834 44.1753 51.8353 44.1775 51.8359C44.1819 51.8373 44.1885 51.8392 44.197 51.8418C44.2139 51.8469 44.2388 51.8543 44.2712 51.8643C44.3368 51.8843 44.4338 51.9142 44.5583 51.9531C44.8079 52.0312 45.1704 52.1469 45.6228 52.2949C46.5276 52.5909 47.7941 53.0186 49.24 53.5488C52.1262 54.6073 55.7513 56.0795 58.6511 57.7207C61.663 59.4253 63.8692 61.2452 65.5359 63.5117C67.2011 65.7762 68.3051 68.4565 69.1599 71.8467C70.4618 77.0096 71.6024 79.8175 70.7058 84.2861L70.6443 84.5928L70.3406 84.6719L67.5759 85.3867L67.6658 84.6572C68.0972 81.1568 68.0913 78.568 67.489 76.0801C66.8859 73.5889 65.6754 71.1581 63.6335 67.9893C59.6027 61.7338 54.0609 59.1293 53.0398 58.6006C52.5007 58.3214 50.8893 57.3718 48.8806 56.6338C46.858 55.8907 44.548 55.4086 42.6287 55.9795L41.5427 56.3018L43.7625 51.7109L44.1707 51.834ZM43.3777 54.8037C45.3484 54.5365 47.4655 55.0487 49.2253 55.6953C51.3115 56.4618 53.0116 57.4591 53.4998 57.7119C54.5327 58.2467 60.289 60.9528 64.4744 67.4482C66.5405 70.6548 67.8192 73.1948 68.4607 75.8447C69.0584 78.3139 69.0935 80.8439 68.7419 84.0518L69.783 83.7822C70.513 79.7741 69.4897 77.2442 68.1902 72.0908C67.3544 68.7762 66.293 66.2298 64.7302 64.1045C63.1689 61.9812 61.0844 60.2475 58.1589 58.5918C55.3309 56.9912 51.7661 55.5412 48.8953 54.4883C47.4627 53.9629 46.2083 53.5383 45.3123 53.2451C44.8814 53.1041 44.5335 52.9936 44.2888 52.917L43.3777 54.8037Z" fill="#D3730F"/>
<path d="M32.4255 71.0401C34.5211 69.4372 36.3491 68.9245 38.5613 69.0587C40.708 69.189 43.2436 69.9356 46.7136 70.7911L46.739 70.7979L46.7634 70.8058C49.6222 71.8329 51.7798 72.8096 53.656 74.2052C55.4185 75.5162 56.9074 77.1788 58.5027 79.5509L58.824 80.0343L58.8562 80.0841L58.8757 80.1407C60.5666 84.89 59.935 85.0879 60.4421 89.2794L60.49 89.6798L58.0115 90.5352L57.9119 89.9552C57.3935 86.9317 56.7568 84.925 55.8347 83.3302C54.9168 81.7427 53.6948 80.5261 51.9382 79.1114C47.6245 76.0844 44.4526 74.2992 41.6384 73.588C38.8564 72.8849 36.3863 73.2236 33.448 74.5499L32.8718 74.8097L32.1794 71.2286L32.4255 71.0401ZM38.5007 70.0567C36.6236 69.9428 35.0851 70.3357 33.28 71.6515L33.615 73.3868C36.4764 72.1944 39.0299 71.8971 41.8835 72.6183C44.8919 73.3786 48.1964 75.2626 52.53 78.3048L52.5437 78.3145L52.5564 78.3243C54.3583 79.7747 55.6918 81.0847 56.7009 82.8302C57.6431 84.4598 58.28 86.4377 58.7908 89.2071L59.4031 88.9962C58.9587 85.0164 59.5195 84.9435 57.9539 80.5323C56.2877 77.9872 54.8024 76.3045 53.0593 75.0079C51.3046 73.7027 49.2604 72.7664 46.4421 71.753C42.906 70.8805 40.5218 70.1794 38.5007 70.0567Z" fill="#D3730F"/>
<path d="M118.252 108.806C136.585 106.905 147.282 105.682 166.793 103.326C166.852 103.319 166.906 103.365 166.906 103.425V115.969C166.906 116.02 166.868 116.062 166.818 116.068L118.252 121.991C116.377 122.049 115.244 122.295 113.894 120.921C113.875 120.903 113.865 120.877 113.865 120.851V108.554C113.865 108.474 113.954 108.425 114.024 108.464C114.757 108.875 115.794 108.936 118.252 108.806Z" fill="#FBAA2D"/>
<path d="M166.406 115.614L118.206 121.492C117.233 121.523 116.571 121.591 115.95 121.498C115.413 121.417 114.921 121.21 114.365 120.68V109.147C114.68 109.244 115.034 109.304 115.453 109.336C116.146 109.389 117.048 109.371 118.278 109.306C118.287 109.305 118.295 109.305 118.304 109.304C136.5 107.417 147.175 106.196 166.406 103.875V115.614ZM113.365 120.852C113.365 121.01 113.428 121.161 113.537 121.271C114.284 122.031 115.003 122.367 115.802 122.487C116.547 122.599 117.382 122.518 118.268 122.49C118.282 122.49 118.298 122.489 118.312 122.487L166.879 116.564C167.18 116.528 167.406 116.272 167.406 115.969V103.426C167.406 103.102 167.156 102.856 166.861 102.828L166.732 102.83L159.798 103.664C144.435 105.502 134.245 106.645 118.214 108.307C116.993 108.371 116.15 108.386 115.529 108.339C114.913 108.292 114.549 108.186 114.268 108.028L114.196 107.994C113.83 107.85 113.365 108.09 113.365 108.554V120.852Z" fill="#FBB631"/>
<path d="M138.338 90.6447C136.881 91.2537 114.912 104.037 113.77 107.11C112.628 110.183 158.305 102.667 166.546 102.366C174.786 102.066 139.794 90.0357 138.338 90.6447Z" fill="#EE8C28"/>
<path d="M138.338 90.6447C136.881 91.2537 114.912 104.037 113.77 107.11C112.628 110.183 158.305 102.667 166.546 102.366L166.901 102.343C173.701 101.693 139.777 90.0475 138.338 90.6447ZM138.773 91.595C138.824 91.6003 138.894 91.6089 138.986 91.6239C139.273 91.6709 139.683 91.7596 140.21 91.8919C141.258 92.1551 142.687 92.5689 144.355 93.0892C147.688 94.1287 151.919 95.5772 155.848 97.0535C159.796 98.5372 163.37 100.024 165.429 101.138C165.611 101.236 165.777 101.33 165.926 101.418C163.678 101.54 159.432 102.053 154.348 102.708C148.915 103.408 142.482 104.278 136.33 105.044C130.177 105.81 124.342 106.467 120.125 106.742C118.031 106.879 116.387 106.916 115.312 106.838C115.47 106.673 115.658 106.491 115.876 106.294C116.561 105.675 117.494 104.94 118.606 104.127C120.827 102.503 123.707 100.609 126.61 98.7853C129.51 96.9627 132.421 95.2154 134.696 93.8871C136.79 92.665 138.288 91.8334 138.773 91.595Z" fill="#F1992B"/>
<path d="M117.853 119.871L167.193 113.951C167.253 113.944 167.305 113.99 167.305 114.05V116.266C167.305 116.317 167.267 116.359 167.217 116.365L117.853 122.288C115.776 122.465 114.883 122.343 113.907 121.658C113.881 121.64 113.865 121.609 113.865 121.577V119.393C113.865 119.314 113.952 119.266 114.02 119.305C114.994 119.86 116.008 119.892 117.853 119.871Z" fill="#EC921F"/>
<path d="M166.805 115.911L117.81 121.789L117.097 121.841C116.442 121.877 115.95 121.866 115.543 121.803C115.09 121.732 114.733 121.594 114.365 121.361V120.018C115.309 120.376 116.357 120.387 117.859 120.37C117.877 120.37 117.895 120.369 117.913 120.367L166.805 114.5V115.911ZM113.365 121.577C113.365 121.771 113.459 121.955 113.62 122.067C114.164 122.45 114.703 122.683 115.39 122.79C116.057 122.894 116.85 122.876 117.896 122.786C117.901 122.786 117.907 122.785 117.913 122.784L167.277 116.861C167.578 116.825 167.805 116.569 167.805 116.266V114.05C167.805 113.735 167.564 113.483 167.265 113.453L167.133 113.454L117.825 119.37C115.973 119.391 115.102 119.345 114.268 118.87L114.195 118.835C113.821 118.685 113.365 118.94 113.365 119.393V121.577Z" fill="#E98620"/>
<path d="M118.045 107.988L167.385 102.069C167.444 102.062 167.497 102.108 167.497 102.168V104.384C167.497 104.435 167.459 104.477 167.409 104.483L118.045 110.406C115.967 110.583 115.074 110.461 114.099 109.776C114.072 109.758 114.057 109.727 114.057 109.695V107.51C114.057 107.432 114.144 107.384 114.212 107.423C115.186 107.978 116.2 108.009 118.045 107.988Z" fill="#E3811B"/>
<path d="M166.997 104.029L118.002 109.907L117.289 109.959C116.634 109.994 116.142 109.984 115.735 109.921C115.282 109.85 114.924 109.712 114.556 109.479V108.136C115.5 108.494 116.548 108.505 118.05 108.488C118.068 108.488 118.086 108.487 118.104 108.485L166.997 102.618V104.029ZM113.556 109.695C113.556 109.889 113.651 110.073 113.811 110.185C114.356 110.568 114.895 110.801 115.582 110.908C116.249 111.012 117.042 110.994 118.088 110.904C118.093 110.904 118.099 110.903 118.104 110.902L167.468 104.979C167.77 104.943 167.997 104.687 167.997 104.384V102.168C167.997 101.853 167.756 101.601 167.457 101.571L167.325 101.572L118.016 107.488C116.164 107.509 115.293 107.463 114.46 106.988L114.386 106.953C114.013 106.803 113.556 107.058 113.556 107.511V109.695Z" fill="#EA8D21"/>
<path d="M130.043 103.686C130.181 104.039 129.8 104.426 129.193 104.552C128.585 104.677 127.981 104.492 127.843 104.14C127.705 103.787 128.086 103.399 128.693 103.274C129.301 103.149 129.905 103.333 130.043 103.686Z" fill="#FBAA2D"/>
<path d="M123.64 104.682C123.778 105.034 123.397 105.422 122.79 105.547C122.183 105.672 121.578 105.488 121.44 105.135C121.302 104.782 121.683 104.395 122.29 104.27C122.898 104.144 123.502 104.329 123.64 104.682Z" fill="#FBAA2D"/>
<path d="M156.641 98.1102C156.829 98.4504 156.508 98.8651 155.922 99.0365C155.337 99.208 154.709 99.0712 154.52 98.7311C154.331 98.3909 154.652 97.9762 155.238 97.8048C155.824 97.6333 156.452 97.7701 156.641 98.1102Z" fill="#FBAA2D"/>
<path d="M155.197 101.029C155.335 101.382 154.955 101.77 154.347 101.895C153.74 102.02 153.135 101.836 152.997 101.483C152.859 101.13 153.24 100.743 153.847 100.617C154.455 100.492 155.059 100.676 155.197 101.029Z" fill="#FBAA2D"/>
<path d="M161.142 100.365C161.28 100.718 160.9 101.106 160.292 101.231C159.685 101.356 159.081 101.172 158.943 100.819C158.805 100.466 159.185 100.078 159.793 99.9532C160.4 99.828 161.004 100.012 161.142 100.365Z" fill="#FBAA2D"/>
<path d="M140.174 90.1293C144.068 90.7573 145.395 91.9337 146.242 95.267C146.256 95.3227 146.221 95.38 146.164 95.3906L132.846 97.8774C132.769 97.8917 132.707 97.8159 132.736 97.7435C133.577 95.673 134.83 94.8639 137.707 93.8086C139.977 92.6602 140.878 91.9284 140.066 90.277C140.029 90.2028 140.092 90.1161 140.174 90.1293Z" fill="#FEE3BA"/>
<path d="M140.253 89.6357C142.226 89.9539 143.644 90.4233 144.675 91.3037C145.715 92.1916 146.293 93.4374 146.727 95.1436C146.81 95.4724 146.603 95.8168 146.256 95.8818L132.938 98.3691C132.477 98.4552 132.093 97.9986 132.273 97.5557L132.447 97.1553C132.869 96.2538 133.402 95.5718 134.155 94.998C134.99 94.3611 136.074 93.8752 137.503 93.3496C138.644 92.7717 139.321 92.3517 139.645 91.9277C139.792 91.7357 139.855 91.5549 139.859 91.3555C139.863 91.1438 139.8 90.8688 139.618 90.498C139.406 90.0686 139.761 89.5565 140.253 89.6357ZM140.778 90.7441C140.834 90.9569 140.863 91.1661 140.859 91.373C140.851 91.8109 140.699 92.1944 140.439 92.5352C139.95 93.174 139.048 93.6905 137.932 94.2549C137.915 94.2636 137.896 94.2717 137.878 94.2783C136.447 94.8035 135.475 95.2486 134.761 95.793C134.246 96.1857 133.853 96.6398 133.524 97.2412L145.644 94.9785C145.25 93.5902 144.764 92.6938 144.026 92.0635C143.31 91.4523 142.306 91.0442 140.778 90.7441Z" fill="#FEE3BA"/>
<path d="M150.297 98.1058C150.297 100.371 146.239 102.207 141.232 102.207C136.225 102.207 132.167 100.371 132.167 98.1058C132.167 95.8405 136.225 94.0042 141.232 94.0042C146.239 94.0042 150.297 95.8405 150.297 98.1058Z" fill="#FFE3B3"/>
<path d="M146.956 95.1492L146.095 94.8154C146.05 94.7978 145.998 94.816 145.972 94.8573C144.58 97.097 142.501 97.5092 138.474 97.8857C138.382 97.8942 138.354 98.0032 138.437 98.0428C139.763 98.6764 143.591 98.6553 145.009 98.1053C146.49 97.5313 146.932 96.4207 147.019 95.2486C147.022 95.2052 146.996 95.1649 146.956 95.1492Z" fill="#FDD090"/>
<path d="M146.17 94.3192L146.276 94.3495L147.136 94.6834C147.379 94.7775 147.537 95.0196 147.517 95.286C147.47 95.9191 147.325 96.5764 146.961 97.1639C146.593 97.7601 146.023 98.2482 145.19 98.5711C144.389 98.8817 142.999 99.0226 141.687 99.0174C141.02 99.0148 140.349 98.9746 139.755 98.8924C139.172 98.8116 138.623 98.6856 138.222 98.494C137.969 98.373 137.84 98.099 137.905 97.8338C137.965 97.5857 138.178 97.411 138.427 97.3875C140.447 97.1987 141.913 97.0051 143.042 96.5995C144.14 96.2052 144.914 95.6117 145.547 94.5936C145.677 94.3855 145.925 94.2723 146.17 94.3192ZM146.214 95.3973C145.485 96.4542 144.576 97.1113 143.38 97.5409C142.82 97.7424 142.195 97.8908 141.499 98.0135C141.562 98.0145 141.627 98.0172 141.691 98.0174C142.979 98.0225 144.211 97.8789 144.829 97.6395C145.476 97.3885 145.866 97.034 146.111 96.6385C146.315 96.3089 146.431 95.926 146.489 95.5038L146.214 95.3973Z" fill="#FDD090"/>
<path d="M125.469 101.694C125.607 102.047 125.227 102.434 124.619 102.559C124.012 102.685 123.408 102.5 123.27 102.147C123.132 101.795 123.512 101.407 124.12 101.282C124.727 101.157 125.331 101.341 125.469 101.694Z" fill="#FBAA2D"/>
<path d="M78.946 115.531C78.946 122.279 71.1292 127.75 61.4866 127.75C51.844 127.75 44.0271 122.279 44.0271 115.531C44.0271 108.783 51.844 103.312 61.4866 103.312C71.1292 103.312 78.946 108.783 78.946 115.531Z" fill="#FDD090"/>
<path d="M78.946 112.344C78.946 119.092 71.1292 124.562 61.4866 124.562C51.844 124.562 44.0271 119.092 44.0271 112.344C44.0271 105.596 51.844 100.125 61.4866 100.125C71.1292 100.125 78.946 105.596 78.946 112.344Z" fill="#FEE3BA"/>
<path d="M78.946 107.031C78.946 113.779 71.1292 119.25 61.4866 119.25C51.844 119.25 44.0271 113.779 44.0271 107.031C44.0271 100.283 51.844 94.8125 61.4866 94.8125C71.1292 94.8125 78.946 100.283 78.946 107.031Z" fill="#FDD090"/>
<path d="M78.9459 104.906C78.9459 110.481 71.359 115 62 115C52.641 115 45.0541 110.481 45.0541 104.906C45.0541 99.3316 52.641 94.8125 62 94.8125C71.359 94.8125 78.9459 99.3316 78.9459 104.906Z" fill="#FFDA9C"/>
<path d="M108.729 124.031C108.729 130.779 100.913 136.25 91.27 136.25C81.6274 136.25 73.8105 130.779 73.8105 124.031C73.8105 117.283 81.6274 111.812 91.27 111.812C100.913 111.812 108.729 117.283 108.729 124.031Z" fill="#FB836F"/>
<path d="M108.729 120.844C108.729 127.592 100.913 133.062 91.27 133.062C81.6274 133.062 73.8105 127.592 73.8105 120.844C73.8105 114.096 81.6274 108.625 91.27 108.625C100.913 108.625 108.729 114.096 108.729 120.844Z" fill="#FFBAA3"/>
<path d="M108.729 115.531C108.729 122.279 100.913 127.75 91.27 127.75C81.6274 127.75 73.8105 122.279 73.8105 115.531C73.8105 108.783 81.6274 103.312 91.27 103.312C100.913 103.312 108.729 108.783 108.729 115.531Z" fill="#FD7561"/>
<path d="M108.729 113.406C108.729 118.981 101.143 123.5 91.7835 123.5C82.4246 123.5 74.8376 118.981 74.8376 113.406C74.8376 107.832 82.4246 103.312 91.7835 103.312C101.143 103.312 108.729 107.832 108.729 113.406Z" fill="#FF897E"/>
<path d="M160.384 56.6216C160.853 57.8737 161.248 58.8999 161.453 60.0611C161.66 61.2332 161.671 62.5219 161.419 64.3287L161.418 64.3394L161.416 64.3492C160.844 67.4731 159.974 69.8686 158.099 72.0074C156.238 74.1304 153.423 75.9587 149.05 78.0377L149.034 78.0455L149.017 78.0523C141.822 80.8577 134.919 84.5271 117.86 94.5435L117.792 94.5836L117.714 94.6002C112.965 95.6325 109.396 95.9217 106.325 94.9547C103.236 93.982 100.739 91.7676 98.0602 88.0045L98.0085 87.9322L97.985 87.8453C96.6961 83.0655 96.6739 80.295 97.4704 75.3746L97.5202 75.066L97.82 74.9752L159.772 56.3179L160.22 56.1822L160.384 56.6216ZM98.4089 75.8424C97.6869 80.4221 97.7298 83.0286 98.9265 87.4976C101.527 91.1351 103.854 93.1277 106.626 94.0005C109.418 94.8799 112.748 94.6509 117.425 93.6392C134.416 83.6645 141.374 79.9599 148.637 77.1265C152.965 75.0674 155.626 73.3121 157.347 71.3482C159.054 69.4016 159.874 67.2089 160.428 64.189C160.67 62.4553 160.651 61.2766 160.467 60.2349C160.303 59.3061 160.006 58.4692 159.611 57.4097L98.4089 75.8424Z" fill="#E17C18"/>
<path d="M147.066 46.8124C148.493 46.7079 149.746 46.6849 150.944 46.8612C153.221 47.1967 155.218 48.2438 157.839 50.6269L158.371 51.121L158.393 51.1425L158.413 51.1659C162.195 55.7449 160.531 60.9384 158.459 64.4872C158.117 65.0728 157.566 65.5746 156.877 66.0351C156.185 66.497 155.32 66.938 154.314 67.3896C152.315 68.2868 149.639 69.2749 146.505 70.5663C140.202 73.1634 131.826 77.0713 122.347 84.2929C119.198 86.6923 114.944 87.312 110.927 86.9071C106.91 86.5021 103.035 85.0634 100.59 83.2304L100.569 83.2148L100.549 83.1972C96.1078 79.0732 96.6635 72.6119 100.535 68.7118L100.582 68.664L100.639 68.6308C110.651 62.8573 117.163 59.6301 123.074 56.7948C128.981 53.9612 134.272 51.5265 141.866 47.328L141.96 47.2763L142.066 47.2675C143.994 47.1067 145.66 46.9155 147.066 46.8124ZM150.799 47.8505C149.709 47.6901 148.541 47.7077 147.138 47.8105C145.741 47.9129 144.199 48.09 142.257 48.2538C134.681 52.4379 129.38 54.8786 123.507 57.6962C117.624 60.5179 111.15 63.7259 101.202 69.4609C97.7106 73.0217 97.2832 78.7812 101.215 82.4482C103.489 84.1428 107.168 85.5228 111.028 85.912C114.904 86.3027 118.868 85.6869 121.741 83.498C131.312 76.2058 139.773 72.2591 146.123 69.6425C149.314 68.3273 151.918 67.3683 153.905 66.4765C154.892 66.0336 155.698 65.6196 156.322 65.203C156.948 64.7851 157.36 64.3847 157.595 63.9823C159.606 60.5397 161 55.8912 157.658 51.8241C154.86 49.1794 152.937 48.1655 150.799 47.8505Z" fill="#763E13"/>
<path d="M142.068 46.7353C145.624 46.4528 148.428 46.3363 151.002 46.8994C153.435 47.432 155.631 48.5641 158.068 50.6631L158.558 51.0957L158.582 51.1162L158.601 51.1386C159.479 52.151 159.833 53.1576 159.749 54.1455C159.666 55.1154 159.167 55.982 158.513 56.7422C157.859 57.5039 157.015 58.1992 156.174 58.8291C155.752 59.1452 155.324 59.4494 154.918 59.7383C154.509 60.0287 154.122 60.3034 153.771 60.5664C151.825 62.027 149.457 63.2342 146.817 64.3906C144.183 65.5442 141.228 66.6676 138.136 67.9365C131.93 70.4835 125.047 73.6652 118.437 79.0722C115.699 81.3119 112.34 81.9609 109.144 81.6679C105.953 81.3754 102.886 80.1415 100.675 78.5625L100.61 78.5166L100.563 78.4531C99.4268 76.9166 98.5798 75.5871 98.322 74.164C98.0581 72.7075 98.4218 71.2353 99.4958 69.4336L99.5564 69.332L99.657 69.2685C116.027 58.8589 126.174 53.618 141.909 46.7754L141.985 46.7422L142.068 46.7353ZM150.789 47.876C148.396 47.3523 145.751 47.4475 142.229 47.7256C126.617 54.5174 116.534 59.7265 100.296 70.0469C99.3445 71.6738 99.1046 72.8709 99.3064 73.9853C99.5155 75.1394 100.209 76.2859 101.319 77.792C103.386 79.25 106.256 80.3987 109.235 80.6719C112.24 80.9473 115.318 80.3319 117.804 78.2978C124.529 72.7966 131.521 69.5707 137.757 67.0117C140.886 65.7276 143.794 64.6234 146.417 63.4746C149.033 62.3286 151.317 61.1578 153.171 59.7666C153.534 59.4941 153.933 59.211 154.339 58.9228C154.746 58.6333 155.164 58.3367 155.574 58.0293C156.398 57.4118 157.172 56.7675 157.755 56.0898C158.338 55.4106 158.695 54.7376 158.753 54.0605C158.809 53.4076 158.594 52.6671 157.867 51.8193C155.339 49.5425 153.171 48.3974 150.789 47.876Z" fill="#97501A"/>
<path d="M98.4678 87.715C97.2001 83.0139 97.177 80.3162 97.9641 75.4542L159.917 56.7965C160.862 59.3238 161.419 60.718 160.924 64.2596C159.797 70.4134 157.546 73.4448 148.836 77.5865C141.598 80.4083 134.665 84.0969 117.608 94.1119C108.141 96.1698 103.768 95.1617 98.4678 87.715Z" fill="#EC8826"/>
<path d="M142.108 47.7654C126.889 56.1797 120.886 57.5328 100.89 69.0638C97.1863 72.7949 96.6867 78.9277 100.89 82.8304C105.608 86.3665 116.022 88.4839 122.044 83.8954C141.094 69.3814 155.719 68.187 158.027 64.2346C160.071 60.7359 161.601 55.8097 158.027 51.4841C152.328 46.0871 149.95 47.1114 142.108 47.7654Z" fill="#763E13"/>
<path d="M142.108 47.2339C126.396 54.0665 116.273 59.2949 99.9257 69.6901C97.8511 73.1705 98.691 75.0805 100.965 78.1557C105.248 81.2139 112.897 82.9587 118.121 78.6848C131.455 67.7764 145.872 65.8705 153.472 60.1662C156.325 58.0243 161.468 55.2077 158.224 51.4667C153.051 46.799 149.226 46.6683 142.108 47.2339Z" fill="#97501A"/>
</svg>
