<svg width="200" height="200" viewBox="0 0 200 200" fill="none" xmlns="http://www.w3.org/2000/svg">
<ellipse cx="100" cy="102.5" rx="95" ry="67.5" fill="#563020"/>
<ellipse cx="100" cy="96.875" rx="95" ry="66.875" fill="#7C4833"/>
<ellipse cx="100.566" cy="91.875" rx="79.7321" ry="53.125" fill="#6D3D29"/>
<path d="M57.7764 89.9008C57.0984 91.9594 56.4483 93.1307 54.3025 95.0632C54.2527 95.1081 54.1713 95.0894 54.1427 95.0288C48.8305 83.7625 40.4802 86.7096 35.2892 94.4901C35.2484 94.5511 35.1559 94.548 35.118 94.4851C30.3457 86.5694 31.4686 82.3997 33.1452 74.9754C33.1466 74.9695 33.1474 74.9633 33.1476 74.9572C33.1781 74.1501 33.0015 73.507 32.6369 72.3203C32.6348 72.3137 32.6334 72.3064 32.6328 72.2995C32.015 65.2841 35.1604 62.0073 41.859 56.3877C41.8707 56.378 41.8803 56.3652 41.8865 56.3513C43.9061 51.8079 45.2597 49.2339 53.6878 44.1539C61.8004 40.2808 66.4712 39.3711 75.238 42.5539C75.2493 42.5579 75.2618 42.5601 75.2738 42.56C83.2115 42.4815 87.3957 43.1347 93.2165 48.3932C93.2242 48.4002 93.2311 48.4087 93.2363 48.4177C98.0756 56.7941 98.5507 61.9417 93.2324 72.3022C93.2298 72.3074 93.2265 72.3126 93.223 72.3172C90.4818 75.9279 88.3212 77.0983 83.008 77.0915C82.977 77.0915 82.9465 77.1063 82.9275 77.1307C78.7659 82.4682 75.1817 83.806 67.5983 84.5246C67.5697 84.5273 67.5426 84.5427 67.5257 84.5659C64.8893 88.1771 62.6101 89.1352 57.8581 89.8323C57.8205 89.8378 57.7883 89.8648 57.7764 89.9008Z" fill="#F1A127" stroke="#F1A127" stroke-linecap="round"/>
<path d="M45.5675 88.5083C40.9493 88.0658 38.5616 89.6836 34.8474 93.7509C34.8119 93.7898 34.8114 93.8492 34.8439 93.8905C35.6743 94.9459 35.906 99.2196 39.9188 102.852C44.0269 106.571 48.0043 107.327 51.7296 104.446C54.7708 102.094 54.1018 99.4885 54.8063 94.9117C54.8092 94.8934 54.8068 94.874 54.7996 94.8569C53.0251 90.6709 49.8783 88.9213 45.5675 88.5083Z" fill="#E9901C" stroke="#E9901C" stroke-linecap="round"/>
<path d="M96.274 72.3359C101.867 63.7273 101.46 58.8793 97.907 50.5206C97.8674 50.4274 97.9736 50.3367 98.0561 50.3954C103.409 54.1955 110.088 58.1808 109.48 65.7544C109.026 71.4029 104.658 72.2012 96.3618 72.4933C96.2808 72.4961 96.2299 72.4039 96.274 72.3359Z" fill="#E28315" stroke="#E28315" stroke-linecap="round"/>
<path d="M97.9458 50.1875L93.3242 48.0625C98.4932 57.5737 99.365 63.3758 93.3242 72.5H96.4053C100.815 64.3161 101.033 59.3975 97.9458 50.1875Z" fill="#D2710D" stroke="#D2710D" stroke-linecap="round"/>
<path d="M78.946 42.75H76.3784C86.5601 54.178 87.6272 62.0983 83.5676 77.2812L87.1622 76.75C91.9347 58.6752 89.1236 51.8349 78.946 42.75Z" fill="#D3730F" stroke="#D97711" stroke-linecap="round"/>
<path d="M44.0269 52.3125L42.4863 55.5C46.6464 54.2626 52.2431 57.6245 53.2701 58.1563C54.2971 58.6881 59.9458 61.3433 64.0539 67.7188C68.162 74.0943 69.0322 77.6592 68.162 84.7188L70.2161 84.1875C71.0845 79.8589 69.9926 77.1921 68.6755 71.9688C66.9848 65.2638 64.3427 61.5168 58.4052 58.1563C52.6773 54.9144 44.0269 52.3125 44.0269 52.3125Z" fill="#CD660A" stroke="#D3730F" stroke-linecap="round"/>
<path d="M32.7295 71.4374L33.243 74.0937C39.2808 71.3682 43.5866 72.6374 52.243 78.7141C55.8067 81.5825 57.3593 83.77 58.4052 89.8704L59.9457 89.3391C59.4259 85.043 60.0718 84.989 58.4052 80.3079C55.0072 75.1021 52.2801 73.3196 46.5944 71.2766C39.5699 69.5448 36.7382 68.371 32.7295 71.4374Z" fill="#CD660A" stroke="#D3730F" stroke-linecap="round"/>
<path d="M118.252 108.806C136.585 106.905 147.282 105.682 166.793 103.326C166.852 103.319 166.906 103.365 166.906 103.425V115.969C166.906 116.02 166.869 116.062 166.818 116.068L118.252 121.991C116.377 122.049 115.244 122.295 113.894 120.921C113.875 120.903 113.865 120.877 113.865 120.851V108.554C113.865 108.474 113.955 108.425 114.024 108.464C114.758 108.875 115.794 108.936 118.252 108.806Z" fill="#FBAA2D" stroke="#FBB631" stroke-linecap="round" stroke-linejoin="round"/>
<path d="M138.584 91.106C138.193 91.2813 136.604 92.1616 134.371 93.4646C132.092 94.7948 129.178 96.5442 126.273 98.3695C123.368 100.196 120.478 102.095 118.246 103.727C117.13 104.543 116.184 105.288 115.485 105.92C115.136 106.236 114.854 106.519 114.644 106.765C114.508 106.924 114.412 107.06 114.346 107.17C114.546 107.228 114.864 107.284 115.322 107.319C116.437 107.404 118.128 107.363 120.251 107.225C124.485 106.949 130.332 106.29 136.485 105.524C142.638 104.758 149.077 103.886 154.505 103.187C159.241 102.577 163.224 102.095 165.545 101.933L166.435 101.884C166.838 101.869 167.079 101.824 167.212 101.779C167.147 101.711 167.037 101.612 166.858 101.482C166.562 101.266 166.148 101.014 165.624 100.731C163.522 99.5931 159.912 98.0929 155.963 96.6087C152.024 95.1284 147.782 93.676 144.437 92.6328C142.764 92.1109 141.321 91.6942 140.257 91.4269C139.724 91.2931 139.297 91.1995 138.986 91.1486C138.83 91.1231 138.715 91.1099 138.636 91.1063C138.612 91.1052 138.595 91.1058 138.584 91.106Z" fill="#EE8C28" stroke="#F1992B"/>
<path d="M117.853 119.871L167.193 113.951C167.253 113.944 167.305 113.99 167.305 114.05V116.266C167.305 116.317 167.267 116.359 167.217 116.365L117.853 122.288C115.776 122.465 114.883 122.343 113.907 121.658C113.881 121.64 113.865 121.609 113.865 121.577V119.393C113.865 119.314 113.952 119.266 114.021 119.305C114.994 119.86 116.008 119.892 117.853 119.871Z" fill="#EC921F" stroke="#E98620" stroke-linecap="round" stroke-linejoin="round"/>
<path d="M118.045 107.989L167.385 102.069C167.445 102.062 167.497 102.108 167.497 102.168V104.384C167.497 104.435 167.459 104.477 167.409 104.483L118.045 110.406C115.968 110.583 115.075 110.461 114.099 109.777C114.073 109.758 114.057 109.728 114.057 109.695V107.511C114.057 107.432 114.144 107.384 114.212 107.423C115.186 107.978 116.2 108.01 118.045 107.989Z" fill="#E3811B" stroke="#EA8D21" stroke-linecap="round" stroke-linejoin="round"/>
<ellipse cx="1.12301" cy="0.685942" rx="1.12301" ry="0.685942" transform="matrix(0.979397 -0.201945 0.36432 0.931274 127.593 103.501)" fill="#FBAA2D"/>
<ellipse cx="1.12301" cy="0.685942" rx="1.12301" ry="0.685942" transform="matrix(0.979397 -0.201945 0.36432 0.931274 121.19 104.497)" fill="#FBAA2D"/>
<ellipse cx="1.10491" cy="0.704495" rx="1.10491" ry="0.704495" transform="matrix(0.959727 -0.280935 0.485526 0.874222 154.178 98.1152)" fill="#FBAA2D"/>
<ellipse cx="1.12301" cy="0.685942" rx="1.12301" ry="0.685942" transform="matrix(0.979397 -0.201945 0.36432 0.931274 152.748 100.844)" fill="#FBAA2D"/>
<ellipse cx="1.12301" cy="0.685942" rx="1.12301" ry="0.685942" transform="matrix(0.979397 -0.201945 0.36432 0.931274 158.693 100.18)" fill="#FBAA2D"/>
<path d="M140.174 90.1293C144.068 90.7573 145.395 91.9337 146.242 95.267C146.256 95.3228 146.221 95.38 146.164 95.3906L132.846 97.8774C132.769 97.8917 132.707 97.8159 132.736 97.7435C133.577 95.673 134.83 94.8639 137.707 93.8086C139.977 92.6602 140.878 91.9284 140.066 90.277C140.029 90.2028 140.092 90.1161 140.174 90.1293Z" fill="#FEE3BA" stroke="#FEE3BA" stroke-linecap="round" stroke-linejoin="round"/>
<ellipse cx="141.232" cy="98.106" rx="9.06529" ry="4.10157" fill="#FFE3B3"/>
<path d="M146.956 95.1493L146.095 94.8155C146.05 94.798 145.998 94.8162 145.973 94.8574C144.58 97.0971 142.502 97.5094 138.474 97.8858C138.383 97.8944 138.355 98.0033 138.438 98.043C139.764 98.6766 143.592 98.6554 145.01 98.1055C146.49 97.5314 146.932 96.4209 147.019 95.2488C147.023 95.2053 146.997 95.1651 146.956 95.1493Z" fill="#FDD090" stroke="#FDD090" stroke-linecap="round" stroke-linejoin="round"/>
<ellipse cx="1.12301" cy="0.685942" rx="1.12301" ry="0.685942" transform="matrix(0.979397 -0.201945 0.36432 0.931274 123.02 101.509)" fill="#FBAA2D"/>
<ellipse cx="61.4868" cy="115.531" rx="17.4595" ry="12.2188" fill="#FDD090"/>
<ellipse cx="61.4868" cy="112.344" rx="17.4595" ry="12.2188" fill="#FEE3BA"/>
<ellipse cx="61.4868" cy="107.031" rx="17.4595" ry="12.2188" fill="#FDD090"/>
<ellipse cx="62.0001" cy="104.906" rx="16.9459" ry="10.0938" fill="#FFDA9C"/>
<ellipse cx="91.27" cy="124.031" rx="17.4595" ry="12.2188" fill="#FB836F"/>
<ellipse cx="91.27" cy="120.844" rx="17.4595" ry="12.2188" fill="#FFBAA3"/>
<ellipse cx="91.27" cy="115.531" rx="17.4595" ry="12.2188" fill="#FD7561"/>
<ellipse cx="91.7833" cy="113.406" rx="16.9459" ry="10.0938" fill="#FF897E"/>
<path d="M98.4678 87.7149C97.2001 83.0138 97.177 80.3161 97.9641 75.4541L159.917 56.7964C160.862 59.3237 161.419 60.7179 160.924 64.2595C159.797 70.4133 157.546 73.4447 148.836 77.5864C141.598 80.4082 134.665 84.0968 117.608 94.1118C108.141 96.1697 103.768 95.1616 98.4678 87.7149Z" fill="#EC8826" stroke="#E17C18" stroke-linecap="round"/>
<path d="M142.108 47.7654C126.889 56.1797 120.886 57.5329 100.89 69.0639C97.1863 72.7949 96.6867 78.9278 100.89 82.8305C105.608 86.3665 116.022 88.484 122.044 83.8955C141.094 69.3815 155.719 68.1871 158.027 64.2347C160.071 60.736 161.601 55.8097 158.027 51.4842C152.328 46.0871 149.95 47.1115 142.108 47.7654Z" fill="#763E13" stroke="#763E13" stroke-linecap="round"/>
<path d="M142.108 47.2339C126.396 54.0665 116.273 59.2949 99.9257 69.6901C97.851 73.1705 98.691 75.0805 100.965 78.1557C105.248 81.2139 112.897 82.9587 118.121 78.6848C131.455 67.7764 145.872 65.8705 153.472 60.1662C156.325 58.0243 161.468 55.2077 158.224 51.4667C153.051 46.799 149.226 46.6683 142.108 47.2339Z" fill="#97501A" stroke="#97501A" stroke-linecap="round"/>
</svg>
