<svg width="200" height="200" viewBox="0 0 200 200" fill="none" xmlns="http://www.w3.org/2000/svg">
<path d="M195 108.651C195 143.252 152.467 171.302 100 171.302C47.5329 171.302 5 143.252 5 108.651C5 74.05 47.5329 46.0002 100 46.0002C152.467 46.0002 195 74.05 195 108.651Z" fill="#F4B13B"/>
<path d="M195 101.128C195 135.409 152.467 163.199 100 163.199C47.5329 163.199 5 135.409 5 101.128C5 66.8474 47.5329 39.0574 100 39.0574C152.467 39.0574 195 66.8474 195 101.128Z" fill="#BC3621"/>
<path d="M180.298 96.4875C180.298 123.72 144.6 145.796 100.565 145.796C56.5305 145.796 20.8333 123.72 20.8333 96.4875C20.8333 69.255 56.5305 47.1788 100.565 47.1788C144.6 47.1788 180.298 69.255 180.298 96.4875Z" fill="#A92D1B"/>
<path d="M90.2785 31.6053L35.1141 47.7023C34.549 47.8672 34.2578 48.5119 34.4985 49.0696C42.2311 66.9801 54.2872 73.0953 69.0388 72.5403C83.8646 71.9825 97.2015 55.8092 91.4985 32.3377C91.364 31.7846 90.8073 31.451 90.2785 31.6053Z" fill="#FFC91B"/>
<path d="M85.0013 33.3606L40.3126 46.2024C39.744 46.3658 39.4497 47.0124 39.6959 47.571C46.0751 62.048 55.9174 67.0258 67.9243 66.6223C80.0091 66.2161 90.8376 53.1504 86.2141 34.0893C86.0806 33.5391 85.5277 33.2093 85.0013 33.3606Z" fill="#FFF083"/>
<path d="M42.9104 50.7484C45.6625 55.7954 51.1748 61.3381 53.1924 61.2194C53.5279 61.1996 53.7129 60.8681 53.8184 60.54C54.7598 57.6127 59.513 42.7259 58.5924 43.3993C57.8044 43.9758 48.3159 46.8381 44.0311 48.113C42.9166 48.4446 42.3369 49.6967 42.9104 50.7484Z" fill="#FFCC24"/>
<path d="M61.2134 46.8609L56.9587 59.9961C56.6642 60.9054 57.0291 61.92 57.8578 62.3713C63.2952 65.332 67.0456 64.9785 72.8499 61.3917C73.8112 60.7977 74.0336 59.4696 73.362 58.5283L64.6615 46.3337C63.7121 45.003 61.7164 45.3081 61.2134 46.8609Z" fill="#FFCC24"/>
<path d="M82.8166 38.8069C83.4099 46.399 82.462 50.8857 79.179 56.4101C78.508 57.5391 76.9631 57.6137 76.1159 56.5989L65.5843 43.9833C64.6296 42.8396 65.1535 41.0734 66.558 40.7008L80.3816 37.0343C81.5458 36.7256 82.7197 37.5659 82.8166 38.8069Z" fill="#FFCC24"/>
<path d="M51.1166 51.4821C51.7044 51.9024 51.6839 52.9896 51.0709 53.9104C50.4579 54.8311 49.4845 55.2368 48.8968 54.8165C48.309 54.3962 48.3295 53.309 48.9425 52.3882C49.5555 51.4674 50.5289 51.0618 51.1166 51.4821Z" fill="#FFC115"/>
<path d="M66.8167 57.7885C67.7963 58.489 68.1928 59.6541 67.7024 60.3907C67.2121 61.1273 66.0204 61.1566 65.0408 60.456C64.0613 59.7555 63.6647 58.5904 64.1551 57.8538C64.6455 57.1172 65.8371 57.0879 66.8167 57.7885Z" fill="#FFC115"/>
<path d="M77.5567 48.7336C78.3404 49.294 78.5781 50.3455 78.0877 51.0821C77.5973 51.8187 76.5645 51.9615 75.7808 51.4011C74.9972 50.8407 74.7594 49.7892 75.2498 49.0526C75.7402 48.316 76.773 48.1731 77.5567 48.7336Z" fill="#FFC115"/>
<path d="M79.6893 42.3843C80.4729 42.9448 80.7107 43.9962 80.2203 44.7328C79.7299 45.4695 78.6971 45.6123 77.9134 45.0518C77.1297 44.4914 76.892 43.4399 77.3824 42.7033C77.8728 41.9667 78.9056 41.8239 79.6893 42.3843Z" fill="#FFC115"/>
<path d="M34.049 49.2711C33.6861 48.43 34.1255 47.4608 34.9748 47.213L90.1391 31.1159C90.935 30.8837 91.7729 31.3848 91.9758 32.2194C97.7387 55.9371 84.2603 72.4755 69.0621 73.0472C61.6153 73.3274 54.8105 71.925 48.8822 68.1609C42.9532 64.3964 37.9465 58.2985 34.049 49.2711ZM35.2535 48.191C34.9728 48.2729 34.8293 48.5933 34.9475 48.8673C38.7826 57.7504 43.6707 63.6664 49.3908 67.2984C55.1115 70.9305 61.7104 72.308 69.0149 72.0332C83.4682 71.4894 96.6642 55.6811 91.0211 32.4558C90.9552 32.1844 90.6793 32.0179 90.4178 32.094L35.2535 48.191Z" fill="#FFCE25"/>
<path d="M39.2486 47.7763C38.8757 46.9301 39.3229 45.958 40.1755 45.713L84.8638 32.8717C85.6547 32.6445 86.4893 33.1378 86.6915 33.9712C91.375 53.2795 80.4034 66.7105 67.9457 67.1292C61.8718 67.3333 56.308 66.1772 51.4467 63.109C46.5847 60.0402 42.4699 55.0867 39.2486 47.7763ZM40.4494 46.6912C40.1649 46.7731 40.0243 47.0944 40.1436 47.3653C43.3016 54.5318 47.2974 59.3063 51.9529 62.2447C56.6092 65.1835 61.9699 66.3138 67.9026 66.1144C79.6143 65.7206 90.2996 53.0208 85.736 34.207C85.6713 33.9403 85.4001 33.7739 85.1383 33.8491L40.4494 46.6912Z" fill="#FFF083"/>
<path d="M65.2126 44.312C64.0193 42.8823 64.6746 40.6748 66.4302 40.2091L80.2542 36.5423C81.7054 36.1578 83.1847 37.2048 83.3072 38.7724C83.606 42.5967 83.5188 45.6699 82.9322 48.4959C82.3447 51.3258 81.2621 53.8816 79.5996 56.6791C78.7454 58.1164 76.7971 58.189 75.7441 56.9277L65.2126 44.312ZM66.6857 41.1921C65.6323 41.4715 65.2395 42.7963 65.9554 43.6541L76.487 56.2698C77.1282 57.038 78.2704 56.9616 78.7583 56.1411C80.3787 53.4144 81.4108 50.9644 81.9697 48.272C82.5294 45.5757 82.6198 42.6094 82.3254 38.8418C82.2539 37.9277 81.3862 37.2935 80.5091 37.5261L66.6857 41.1921ZM60.7463 46.6951C61.375 44.7542 63.8698 44.3729 65.0566 46.0363L73.7571 58.2305C74.5932 59.4026 74.3257 61.0748 73.1066 61.8282C70.1769 63.6387 67.7099 64.6688 65.2555 64.8433C62.7912 65.0186 60.4007 64.3271 57.6319 62.8195C56.5743 62.2435 56.1255 60.9602 56.4917 59.8298L60.7463 46.6951ZM64.2663 46.6315C63.5543 45.6334 62.0575 45.8625 61.6802 47.0271L57.4256 60.1617C57.2028 60.8497 57.4835 61.5966 58.0833 61.9231C60.7515 63.376 62.955 63.9881 65.1761 63.8302C67.4073 63.6715 69.7185 62.731 72.5931 60.9546C73.2963 60.5199 73.4737 59.5361 72.9669 58.8257L64.2663 46.6315ZM42.4819 50.9926C41.733 49.6183 42.5133 48.0347 43.8889 47.6251C46.0305 46.9879 49.4712 45.9544 52.4736 45.0086C53.9754 44.5356 55.3648 44.0853 56.4259 43.7182C56.9566 43.5345 57.4009 43.3727 57.7346 43.2406C57.9017 43.1744 58.0372 43.1168 58.1394 43.0693C58.1903 43.0456 58.2303 43.0256 58.2602 43.0093C58.2749 43.0014 58.286 42.9952 58.294 42.9903C58.3013 42.9858 58.3045 42.9834 58.3045 42.9834C58.3675 42.9373 58.5924 42.7917 58.8629 42.9196C59.11 43.0365 59.1675 43.2817 59.1811 43.3451C59.2173 43.515 59.1995 43.7236 59.1781 43.8938C59.1303 44.2745 59.0097 44.8378 58.844 45.5123C58.51 46.8717 57.97 48.7712 57.3742 50.774C56.1817 54.7827 54.7563 59.24 54.2853 60.7045C54.2237 60.8962 54.1277 61.1273 53.9719 61.3215C53.8091 61.5244 53.5636 61.7067 53.2262 61.7266C52.8683 61.7476 52.4812 61.6427 52.0992 61.4786C51.7108 61.3116 51.29 61.0663 50.8514 60.7638C49.9737 60.1584 48.985 59.2961 47.9841 58.2812C45.9827 56.252 43.8851 53.5658 42.4819 50.9926ZM44.1727 48.6008C43.3197 48.8546 42.9411 49.7748 43.3385 50.5037C44.6875 52.9773 46.7228 55.5869 48.6699 57.561C49.6431 58.5476 50.5829 59.3636 51.3921 59.9217C51.7967 60.2008 52.1587 60.4084 52.4685 60.5416C52.7849 60.6775 53.0118 60.7206 53.1582 60.712C53.1636 60.7117 53.1659 60.7114 53.1695 60.7093C53.1754 60.7057 53.1896 60.6948 53.2104 60.6689C53.2573 60.6105 53.3072 60.5113 53.3511 60.3748C53.8216 58.9119 55.2437 54.4631 56.4329 50.4655C57.028 48.465 57.5622 46.585 57.8899 45.2511C57.9944 44.8257 58.074 44.464 58.1297 44.1759C58.1188 44.1802 58.1079 44.1854 58.097 44.1897C57.7444 44.3294 57.2848 44.4955 56.7487 44.681C55.6751 45.0525 54.2763 45.5063 52.7718 45.9803C49.762 46.9284 46.3158 47.9631 44.1727 48.6008Z" fill="#FFD735"/>
<path d="M48.1633 90.1482C46.2036 89.6937 44.9499 90.3128 42.9427 91.7737C40.8418 93.3027 43.0481 95.8131 41.9427 97.9923C40.7204 100.402 39.3192 102.945 36.9427 102.656C34.9937 102.42 35.9427 99.547 36.4427 97.4741C36.9428 95.4012 32.3926 104.352 28.9427 103.175C27.2232 102.588 25.7644 101.221 26.9427 99.547C27.9078 98.1761 30.6414 95.9862 32.1524 95.1861C30.6456 95.7148 27.4247 96.5952 26.4427 94.883C25.275 92.8468 26.5823 90.5584 28.4427 89.1825C30.3501 87.772 33.9429 89.1825 34.4427 89.1825C34.9426 89.1825 29.6743 86.8217 30.4427 84.5185C31.1453 82.4126 35.6198 82.9242 35.9262 82.9618C35.9379 82.9632 35.9454 82.9625 35.9572 82.9621C36.4721 82.942 42.0562 86.344 44.9427 88.1461C46.555 89.1526 49.5862 87.3306 49.9138 87.1277C49.9336 87.1155 49.9466 87.0975 49.9538 87.0753L50.8435 84.309C50.8736 84.2153 50.7627 84.1407 50.6851 84.2013C47.2177 86.9142 47.2966 87.1171 44.4427 86.0732C41.9627 85.166 44.5486 83.3455 45.8834 82.9965C38.595 83.3931 36.719 82.3206 35.4427 79.3363C34.1345 76.277 39.9421 76.7452 40.4427 76.7451C40.9434 76.7451 32.8395 74.2958 33.9427 71.0447C34.98 67.9881 39.1433 68.717 40.2006 69.6399C39.9369 69.1507 39.6502 68.2513 40.4427 67.4171C41.6068 66.192 44.7812 69.088 49.9427 75.7087C46.8296 71.5183 43.533 67.8825 46.9427 66.3807C50.1182 64.982 50.279 67.7204 51.3543 70.7969C51.3846 70.8837 51.5087 70.8874 51.5464 70.8036C51.8443 70.1419 52.7575 68.3213 53.9427 67.9353C56.6099 67.0669 56.5431 71.8044 56.9427 74.6722C57.3375 77.5049 57.6007 79.6386 55.9427 81.9274C53.8337 84.8389 48.7054 88.6627 48.4062 89.9447C48.3847 90.037 48.2556 90.1696 48.1633 90.1482Z" fill="#485510"/>
<path d="M46.8418 66.1516C47.6588 65.7917 48.3232 65.679 48.876 65.8039C49.4381 65.9311 49.8381 66.2932 50.1465 66.7756C50.4511 67.2522 50.6792 67.8668 50.8955 68.5354C51.0828 69.1143 51.2611 69.7279 51.4746 70.3703C51.6458 70.0234 51.896 69.5644 52.208 69.1223C52.6279 68.5274 53.1917 67.9168 53.8652 67.6975C54.2302 67.5786 54.5657 67.5501 54.8711 67.6125C55.178 67.6754 55.4379 67.8267 55.6553 68.0393C56.0812 68.4558 56.349 69.113 56.5352 69.841C56.7231 70.5762 56.8369 71.4248 56.9287 72.26C57.0214 73.1033 57.0911 73.9253 57.1904 74.6379C57.5842 77.4636 57.8689 79.6953 56.1455 82.0744C55.0736 83.5541 53.243 85.2562 51.667 86.7297C50.874 87.4712 50.1444 88.1548 49.5947 88.7327C49.3201 89.0213 49.0949 89.2791 48.9307 89.5002C48.762 89.7274 48.6747 89.8933 48.6494 90.0012C48.6233 90.113 48.5485 90.2114 48.4785 90.2746C48.4405 90.309 48.3919 90.3441 48.335 90.3684C48.2791 90.3922 48.1976 90.413 48.1064 90.3918C47.1681 90.1742 46.4129 90.2151 45.6523 90.4787C44.8809 90.7463 44.0914 91.2469 43.0898 91.9758C42.6145 92.3218 42.3927 92.7122 42.2998 93.1369C42.2042 93.5746 42.2424 94.0618 42.3174 94.6047C42.4627 95.6562 42.763 96.9287 42.166 98.1057C41.5568 99.3069 40.8873 100.574 40.0625 101.502C39.2324 102.437 38.2126 103.063 36.9121 102.905C36.3514 102.836 35.9699 102.569 35.751 102.156C35.542 101.761 35.4954 101.259 35.5244 100.739C35.5728 99.8731 35.8397 98.8415 36.0693 97.9338C35.6664 98.4632 35.0644 99.3 34.3672 100.148C33.6101 101.068 32.7164 102.032 31.7852 102.693C30.8609 103.348 29.8411 103.745 28.8623 103.411C27.9758 103.109 27.1249 102.596 26.6504 101.91C26.4105 101.564 26.2643 101.169 26.2666 100.737C26.269 100.304 26.4201 99.8556 26.7383 99.4035C27.2408 98.6897 28.1868 97.7813 29.1836 96.9592C29.6367 96.5856 30.1061 96.2261 30.5557 95.9055C30.0907 96.0093 29.5992 96.0931 29.1172 96.1243C27.986 96.1974 26.7939 95.998 26.2256 95.0071C25.5963 93.9096 25.6392 92.7454 26.0762 91.6897C26.5108 90.6399 27.3363 89.6899 28.2939 88.9817C29.3339 88.2126 30.7996 88.229 32.0068 88.4065C32.4649 88.4738 32.8962 88.5688 33.2686 88.6575C32.9394 88.4451 32.5632 88.1951 32.1914 87.9133C31.6045 87.4685 31.0087 86.9389 30.6084 86.3616C30.2081 85.7843 29.9788 85.1211 30.2061 84.4397C30.4104 83.8273 30.8854 83.421 31.4463 83.1555C32.0051 82.891 32.6709 82.7545 33.3066 82.6877C34.5573 82.5565 35.7546 82.6889 35.9473 82.7121C36.0315 82.7089 36.1241 82.7369 36.1934 82.761C36.2737 82.7888 36.3695 82.8284 36.4766 82.8772C36.6915 82.9751 36.9688 83.1172 37.291 83.2903C37.9364 83.6369 38.7761 84.1184 39.6875 84.6555C41.5112 85.7302 43.6309 87.0322 45.0752 87.9338C45.4188 88.1483 45.8526 88.2212 46.3379 88.1907C46.8224 88.1602 47.3384 88.0278 47.8262 87.8547C48.7265 87.5351 49.4958 87.0875 49.7334 86.9436L50.4541 84.7004C49.7786 85.2321 49.2432 85.6591 48.7959 85.9866C48.2671 86.3737 47.8373 86.6409 47.4141 86.7834C46.546 87.0756 45.7644 86.8229 44.3564 86.3078C43.7112 86.0717 43.3118 85.7472 43.1934 85.3264C43.0747 84.9047 43.2684 84.4955 43.5391 84.1662C43.8077 83.8395 44.1915 83.5423 44.5859 83.303C41.6759 83.3957 39.712 83.2027 38.3184 82.6672C36.6961 82.0437 35.8677 80.9659 35.2129 79.4348C35.037 79.0236 34.9723 78.6507 35.0137 78.3157C35.0555 77.9774 35.2035 77.696 35.4209 77.468C35.8447 77.0236 36.5284 76.7827 37.2158 76.6477C37.8898 76.5153 38.621 76.4768 39.2188 76.4709C38.5603 76.1928 37.6952 75.8069 36.8447 75.3323C35.9235 74.8182 35.0001 74.1903 34.375 73.4709C33.7476 72.7489 33.3903 71.8946 33.7061 70.9641C34.2684 69.3073 35.6843 68.6893 37.0479 68.6008C37.7293 68.5566 38.4093 68.6423 38.9883 68.7991C39.2525 68.8706 39.5007 68.9589 39.7217 69.0588C39.6955 68.9332 39.6778 68.8002 39.6758 68.6614C39.6693 68.2079 39.8191 67.7112 40.2617 67.2453C40.6487 66.8381 41.1874 66.8088 41.7803 67.0305C42.3657 67.2495 43.0607 67.7279 43.8594 68.4328C44.4947 68.9936 45.2063 69.7096 45.9961 70.5744C45.9162 70.4289 45.8399 70.2865 45.7715 70.1457C45.3706 69.3203 45.1523 68.5328 45.29 67.8342C45.4321 67.1138 45.9388 66.5494 46.8418 66.1516ZM48.1631 89.8811C48.1626 89.8828 48.1637 89.8854 48.1631 89.8879C48.2127 89.6754 48.3512 89.4409 48.5283 89.2024C48.71 88.9577 48.9514 88.6833 49.2324 88.3879C49.7943 87.7973 50.5353 87.103 51.3252 86.3645C52.9153 84.8778 54.7031 83.2122 55.7402 81.7805C57.3326 79.5822 57.091 77.5459 56.6953 74.7063C56.5948 73.9851 56.5222 73.1389 56.4316 72.3147C56.3402 71.4824 56.2294 70.663 56.0508 69.9641C55.8703 69.2581 55.6298 68.7137 55.3057 68.3967C55.1481 68.2426 54.9718 68.144 54.7705 68.1028C54.5677 68.0613 54.3219 68.075 54.0205 68.1731C53.5088 68.3397 53.0237 68.8331 52.6162 69.4104C52.2156 69.9779 51.9202 70.5825 51.7744 70.9065C51.6477 71.1875 51.2261 71.1879 51.1182 70.8791C50.8489 70.1087 50.6313 69.3432 50.4199 68.6897C50.2044 68.0233 49.9925 67.4629 49.7256 67.0452C49.4626 66.6337 49.1598 66.3814 48.7656 66.2922C48.3616 66.2009 47.8145 66.2702 47.0439 66.6096C46.2421 66.9628 45.8818 67.4163 45.7803 67.9309C45.6745 68.4673 45.8356 69.1321 46.2217 69.927C46.9952 71.5195 48.5723 73.4448 50.1436 75.5598L49.7451 75.8625C47.1659 72.5542 45.0942 70.19 43.5283 68.8078C42.7429 68.1146 42.1029 67.6856 41.6045 67.4993C41.1137 67.3157 40.819 67.3839 40.624 67.5891C40.2742 67.9573 40.1711 68.3275 40.1758 68.6545C40.1804 68.9748 40.2901 69.2681 40.4053 69.4895C40.4236 69.5067 40.442 69.5234 40.459 69.5412C40.4883 69.572 40.5213 69.6141 40.542 69.6662C40.5518 69.6908 40.5667 69.7355 40.5625 69.7912C40.5578 69.8525 40.5255 69.9484 40.4248 70.0012C40.3369 70.0471 40.2549 70.0281 40.2188 70.0159C40.1781 70.002 40.1475 69.9809 40.1279 69.9651C40.0877 69.9325 40.0569 69.8923 40.0342 69.8537C40.0248 69.8378 40.0154 69.8209 40.0059 69.8039C39.7756 69.616 39.3716 69.4207 38.8574 69.2815C38.326 69.1376 37.7013 69.0596 37.0801 69.0998C35.8385 69.1804 34.6546 69.7258 34.1797 71.1252C33.9439 71.8202 34.1859 72.4913 34.752 73.1428C35.3203 73.7969 36.1847 74.3912 37.0889 74.8957C37.9891 75.3981 38.91 75.8021 39.5791 76.0813C39.9085 76.2187 40.1889 76.3303 40.3604 76.4035C40.4429 76.4388 40.5191 76.4736 40.5674 76.5022C40.58 76.5097 40.6003 76.5216 40.6201 76.5383C40.63 76.5467 40.6463 76.5615 40.6621 76.5823C40.6761 76.6006 40.7047 76.6431 40.7129 76.7053C40.7229 76.782 40.6976 76.8578 40.6465 76.9123C40.6048 76.9567 40.5583 76.9748 40.5371 76.9817C40.4946 76.9954 40.4556 76.9953 40.4424 76.9953C40.1629 76.9953 38.6311 76.8799 37.3125 77.1389C36.6492 77.2692 36.095 77.4857 35.7822 77.8137C35.6316 77.9718 35.5371 78.1558 35.5098 78.3772C35.482 78.6021 35.5217 78.884 35.6729 79.2375C36.2942 80.6905 37.0417 81.6408 38.498 82.2004C39.9802 82.7699 42.2171 82.9442 45.8438 82.7483C45.8693 82.7418 45.8949 82.7362 45.9199 82.7307C45.9555 82.7229 45.9951 82.7168 46.0332 82.717C46.0483 82.7171 46.0861 82.7181 46.1279 82.7327C46.1474 82.7395 46.1956 82.7586 46.2373 82.8069C46.2919 82.8702 46.3148 82.9607 46.2871 83.0481C46.2658 83.1151 46.2229 83.1533 46.2061 83.1672C46.1852 83.1845 46.1654 83.1954 46.1533 83.2014C46.1286 83.2137 46.1052 83.2215 46.0889 83.2258C46.0544 83.2348 46.0161 83.2393 45.9775 83.2414C45.9606 83.2424 45.9437 83.2434 45.9268 83.2444C45.6241 83.3263 45.2428 83.4914 44.875 83.7112C44.4982 83.9364 44.153 84.2083 43.9258 84.4846C43.6934 84.7673 43.6227 85.0051 43.6748 85.1907C43.7273 85.3771 43.9341 85.6207 44.5283 85.8381C45.9742 86.367 46.5811 86.5353 47.2539 86.3088C47.601 86.192 47.9803 85.9644 48.501 85.5832C49.0214 85.2022 49.6595 84.6862 50.5312 84.0041L50.5811 83.9719C50.8383 83.8323 51.1846 84.0641 51.0811 84.386L50.1914 87.1516C50.1682 87.2238 50.1214 87.2932 50.0459 87.3401C49.8764 87.445 49.0182 87.9626 47.9932 88.3264C47.4808 88.5082 46.9164 88.6553 46.3691 88.6897C45.8226 88.724 45.2729 88.6472 44.8105 88.3586C43.3683 87.4582 41.2523 86.158 39.4336 85.0862C38.5241 84.5502 37.6912 84.0726 37.0547 83.7307C36.7361 83.5596 36.4698 83.4235 36.2695 83.3323C36.1691 83.2865 36.0887 83.2543 36.0293 83.2336C35.959 83.2092 35.9472 83.2129 35.9668 83.2121C35.9625 83.2123 35.9313 83.2146 35.8955 83.2102C35.7471 83.192 34.5749 83.0572 33.3594 83.1848C32.7507 83.2487 32.1472 83.3771 31.6602 83.6077C31.1749 83.8373 30.8267 84.1573 30.6797 84.5979C30.523 85.0679 30.6638 85.5634 31.0195 86.0764C31.3753 86.5894 31.9216 87.0816 32.4932 87.5149C33.0622 87.9462 33.6406 88.308 34.0527 88.5657C34.2544 88.6917 34.4264 88.7986 34.5303 88.8743C34.557 88.8938 34.5834 88.9145 34.6064 88.9348C34.6252 88.9514 34.6588 88.9827 34.6846 89.0246C34.6974 89.0455 34.7214 89.0896 34.7256 89.1496C34.7306 89.2225 34.7051 89.2992 34.6465 89.3557C34.5979 89.4024 34.5443 89.4189 34.5176 89.425C34.4878 89.4318 34.4606 89.4328 34.4424 89.4328C34.3446 89.4328 34.2033 89.4013 34.0615 89.3674C33.9099 89.3312 33.7156 89.2809 33.501 89.2268C33.0665 89.1172 32.5211 88.9869 31.9346 88.9006C30.7436 88.7255 29.4592 88.7426 28.5918 89.384C27.6891 90.0516 26.9303 90.9337 26.5381 91.8811C26.1485 92.8223 26.121 93.8206 26.6592 94.759C27.0729 95.4802 27.9836 95.6964 29.085 95.6252C30.1595 95.5557 31.3069 95.2155 32.0537 94.9543C32.1189 94.9201 32.1828 94.889 32.2441 94.8596C32.2798 94.8425 32.3202 94.8261 32.3613 94.8176C32.3796 94.8139 32.4152 94.8079 32.457 94.8127C32.4786 94.8152 32.6262 94.8364 32.6738 94.9924C32.6955 95.0636 32.6811 95.1248 32.667 95.1604C32.6531 95.1956 32.634 95.2205 32.6221 95.2346C32.5981 95.2628 32.5723 95.2818 32.5566 95.2922C32.5226 95.3148 32.4839 95.3321 32.4463 95.3459C32.3869 95.3677 32.3233 95.3899 32.2568 95.4133C31.5231 95.8039 30.4829 96.536 29.502 97.345C28.5131 98.1605 27.6101 99.0337 27.1475 99.6907C26.8767 100.075 26.7684 100.426 26.7666 100.739C26.7649 101.051 26.8692 101.349 27.0615 101.626C27.4517 102.19 28.1905 102.653 29.0234 102.938C29.7695 103.192 30.6127 102.912 31.4961 102.285C32.3724 101.664 33.2315 100.74 33.9805 99.8293C34.7319 98.9156 35.3491 98.0456 35.7695 97.5032C35.8731 97.3696 35.9664 97.2533 36.0459 97.1643C36.1168 97.085 36.2026 96.9971 36.2891 96.9514C36.3268 96.9315 36.4404 96.8786 36.5654 96.9397C36.694 97.0027 36.7202 97.1289 36.7266 97.175C36.7406 97.2766 36.7158 97.4069 36.6855 97.5325C36.4303 98.5906 36.0789 99.7909 36.0244 100.768C35.9973 101.255 36.0478 101.646 36.1934 101.921C36.329 102.177 36.5594 102.358 36.9727 102.408C38.0486 102.539 38.9183 102.037 39.6885 101.17C40.4639 100.297 41.1067 99.0879 41.7197 97.8791C42.228 96.8769 41.9775 95.8038 41.8213 94.6731C41.7456 94.1251 41.6955 93.5615 41.8115 93.0305C41.9304 92.4866 42.221 91.99 42.7959 91.5715C43.8013 90.8398 44.6423 90.2997 45.4893 90.0061C46.3287 89.7151 47.1621 89.6707 48.1543 89.8909C48.1573 89.8873 48.1608 89.8844 48.1631 89.8811Z" fill="#2D380E"/>
<path d="M41.9127 128.4C39.9885 119.882 39.6153 115.87 40.3521 110.764C40.3675 110.657 40.5215 110.648 40.554 110.751C42.4703 116.821 48.7224 119.488 61.9096 123.771C61.9174 123.773 61.9251 123.777 61.932 123.781C79.0836 134.497 91.043 135.836 120.921 121.184C134.391 112.782 141.013 107.141 148.421 92.6813C153.717 80.5757 156.399 74.6342 160.417 66.2611C160.42 66.255 160.422 66.2488 160.424 66.2422C160.687 65.2008 161.552 63.5952 167.741 54.0914C167.795 54.009 167.926 54.0425 167.928 54.1409C168.042 60.2348 167.829 63.7168 166.931 69.815C166.925 69.8538 166.897 69.8864 166.859 69.8978C165.7 70.2519 165.046 71.0503 163.921 74.0252C160.804 86.078 158.897 92.7171 153.421 103.046C142.285 122.701 132.474 130.686 111.421 141.913C90.4716 151.76 79.5159 151.637 61.9401 137.264C61.9281 137.254 61.9133 137.247 61.8982 137.243C53.4426 135.326 49.085 133.386 41.954 128.461C41.9334 128.447 41.9183 128.425 41.9127 128.4Z" fill="#C07A30"/>
<path d="M167.387 53.7354C167.55 53.5592 167.788 53.5142 167.98 53.5645C168.176 53.6156 168.367 53.7775 168.416 54.0215L168.428 54.1319L168.445 55.25C168.513 60.7015 168.272 64.145 167.426 69.8877C167.392 70.1193 167.226 70.3086 167.006 70.376C166.528 70.522 166.165 70.7469 165.781 71.2735C165.377 71.8283 164.953 72.7114 164.396 74.1846C161.28 86.227 159.361 92.9091 153.863 103.28L153.856 103.292C148.27 113.151 143.003 120.108 136.476 126.011C129.953 131.909 122.194 136.734 111.657 142.354L111.634 142.365C101.141 147.298 93.0656 149.776 85.376 149.169C77.6952 148.562 70.4854 144.884 61.6963 137.709C53.2373 135.784 48.8265 133.815 41.6699 128.873C41.5457 128.787 41.4579 128.657 41.4248 128.511L41.0811 126.96C39.4515 119.455 39.1546 115.563 39.8574 110.692C39.9051 110.364 40.1795 110.194 40.416 110.18C40.6204 110.167 40.8639 110.264 40.9863 110.494L41.0312 110.601L41.2129 111.132C42.1865 113.741 44.0843 115.696 47.252 117.496C50.6518 119.428 55.464 121.151 62.0645 123.295C62.1106 123.31 62.1559 123.332 62.1973 123.357C70.7349 128.691 77.915 131.65 86.6455 131.495C95.3977 131.34 105.771 128.054 120.685 120.741C127.397 116.553 132.373 113.071 136.591 108.851C140.808 104.631 144.285 99.6538 147.972 92.461C153.257 80.3785 155.941 74.4327 159.953 66.0704C160.109 65.4822 160.435 64.7587 161.431 63.085C162.459 61.3555 164.228 58.5696 167.322 53.8184L167.387 53.7354ZM167.444 55.4678C164.79 59.5538 163.226 62.0228 162.29 63.5957C161.269 65.3131 161.021 65.9206 160.909 66.3643C160.899 66.4041 160.885 66.4424 160.868 66.4776C156.854 74.8432 154.174 80.7788 148.88 92.8819L148.866 92.9092C145.145 100.171 141.609 105.243 137.298 109.558C132.991 113.867 127.928 117.402 121.187 121.607L121.164 121.621L121.142 121.633C106.186 128.967 95.6449 132.336 86.6631 132.495C77.6707 132.655 70.3043 129.596 61.708 124.231C55.1451 122.098 50.2515 120.351 46.7578 118.366C43.8056 116.689 41.8169 114.822 40.6572 112.383C40.2197 116.698 40.6763 120.63 42.3662 128.137C49.3703 132.961 53.6672 134.865 62.0088 136.756C62.0771 136.771 62.142 136.799 62.2002 136.836L62.2568 136.877L63.0723 137.537C71.4507 144.254 78.279 147.606 85.4551 148.173C92.8736 148.759 100.75 146.376 111.204 141.462C121.71 135.859 129.378 131.08 135.805 125.269C142.23 119.458 147.436 112.594 152.986 102.799C158.428 92.53 160.324 85.9366 163.438 73.9004L163.444 73.8741L163.454 73.8487C164.018 72.3575 164.482 71.3581 164.974 70.6836C165.425 70.0647 165.9 69.7181 166.471 69.502C167.27 64.0276 167.502 60.672 167.444 55.4678Z" fill="#B46620"/>
<path d="M43.4039 115.983L40.6019 112.595C40.5417 112.522 40.4237 112.567 40.425 112.661C40.4983 117.889 40.715 121.205 41.9139 128.398C41.9185 128.425 41.9347 128.45 41.9576 128.465C50.3219 134.061 54.736 135.57 62.3984 137.246C62.4132 137.249 62.4276 137.256 62.4395 137.265C66.5247 140.486 68.8212 142.246 72.9211 144.506C78.317 146.91 81.5638 148.06 88.9112 148.651C88.9177 148.652 88.9245 148.651 88.931 148.651C96.9048 147.732 101.182 146.626 108.421 143.47C120.278 137.094 126.613 132.865 137.415 124.3C137.419 124.297 137.423 124.293 137.427 124.289C145.863 115.081 150.123 109.217 156.421 96.8294C159.929 88.3034 161.321 83.3914 163.421 74.5457C164.07 71.1998 164.972 70.3263 166.876 69.3857C166.904 69.3718 166.925 69.3452 166.931 69.3144C167.118 68.3365 167.228 67.515 167.42 65.7485C167.421 65.7403 167.421 65.7315 167.419 65.7232C167.026 62.9593 166.454 62.3812 165.011 62.6114C164.96 62.6195 164.924 62.6689 164.928 62.7202C165.281 68.1821 159.432 66.2746 161.421 69.8817C163.421 73.5093 157.731 67.2687 158.921 71.4364C160.324 77.1772 160.548 80.2043 159.081 84.4612C159.045 84.5635 158.895 84.5418 158.886 84.434C158.634 81.4927 157.878 80.3509 155.589 79.2863C155.517 79.2529 155.437 79.3148 155.449 79.393C156.551 86.8133 156.381 90.7088 154.07 96.4638C154.031 96.56 153.889 96.541 153.876 96.4381C153.584 94.07 153.087 92.9446 151.588 91.7742C151.521 91.7225 151.426 91.7747 151.429 91.8587C151.69 98.9562 151.36 102.49 148.559 105.988C148.505 106.055 148.398 106.026 148.383 105.942C147.802 102.725 147.199 101.461 146.112 99.7234C146.059 99.6376 145.926 99.6798 145.928 99.781C146.057 106.62 145.637 109.844 143.553 113.204C143.505 113.28 143.389 113.259 143.369 113.171C142.759 110.441 141.655 109.404 139.577 107.83C139.512 107.781 139.419 107.828 139.417 107.91C139.21 116.682 138.253 120.939 133.104 125.183C133.036 125.239 132.933 125.185 132.939 125.097C133.266 120.754 132.666 118.558 131.6 115.037C131.567 114.929 131.406 114.949 131.402 115.063C131.169 121.811 130.271 125.703 124.934 132.053C124.926 132.063 124.915 132.072 124.903 132.078L123.205 132.958C123.118 133.003 123.025 132.906 123.07 132.819C125.559 127.963 124.959 125.066 124.922 120.318C124.921 120.202 124.758 120.177 124.725 120.288C122.859 126.644 122.534 130.807 117.421 135.696C116.046 137.171 115.29 137.717 114.147 138.196C114.064 138.23 113.984 138.144 114.019 138.062C115.975 133.501 115.608 130.61 114.97 125.706C114.957 125.604 114.815 125.588 114.776 125.683C109.967 137.339 106.945 143.301 98.0548 144.489C97.9889 144.497 97.9312 144.441 97.9419 144.375C98.4021 141.578 99.8744 138.238 102.489 132.498C102.539 132.388 102.385 132.3 102.315 132.398C98.4079 137.843 96.1721 140.605 93.1373 142.797C93.0626 142.851 92.9619 142.781 92.9828 142.691C94.0981 137.905 93.5649 135.808 92.5119 132.365C92.4836 132.272 92.3524 132.271 92.3212 132.363C90.6259 137.363 89.6836 140.312 85.0876 143.36C85.0194 143.405 84.9272 143.354 84.9308 143.272C85.0397 140.809 84.6375 139.354 83.5006 136.903C83.467 136.831 83.3643 136.827 83.3228 136.895C79.8094 142.686 77.7364 144.189 74.0519 144.496C73.9864 144.501 73.9333 144.441 73.9455 144.377C74.9669 139.002 76.3845 136.233 79.6963 131.847C79.7579 131.765 79.6718 131.65 79.5757 131.684C78.4415 132.091 77.4645 132.066 75.5332 131.089C75.4761 131.06 75.4051 131.093 75.3887 131.155C73.2715 139.173 71.6798 140.714 68.5128 140.371C68.4615 140.365 68.4221 140.32 68.4235 140.268C68.5158 136.86 68.9508 134.507 70.4675 130.215C70.5087 130.098 70.2101 129.948 70.0868 129.958C69.8578 129.975 69.6958 129.624 69.5356 128.963C69.5096 128.855 69.3405 128.855 69.3156 128.963C68.3624 133.093 64.6224 137.398 62.9211 136.214C61.6343 135.319 60.6594 129.812 61.3934 124.491C61.4046 124.41 61.3186 124.35 61.2455 124.387C60.0254 125.007 59.2247 125.065 57.7074 123.12C57.6409 123.034 57.4989 123.098 57.5214 123.204C58.4722 127.677 58.3633 129.58 56.9881 131.46C56.9529 131.508 56.8824 131.514 56.8392 131.473C53.1418 127.967 51.5239 125.221 49.1278 120.077C49.0819 119.978 48.9335 120.013 48.9373 120.122C49.0737 123.955 49.4133 126.226 51.2343 129.65C51.283 129.741 51.1772 129.838 51.0905 129.781C46.7603 126.936 44.7881 124.297 43.4256 116.031C43.4227 116.013 43.4152 115.996 43.4039 115.983Z" fill="#B46620"/>
<path d="M165.224 62.0803C165.513 62.0534 165.794 62.0602 166.061 62.1262C166.432 62.218 166.744 62.4173 166.997 62.7306C167.241 63.0318 167.418 63.4241 167.559 63.8947C167.701 64.3681 167.814 64.9505 167.914 65.6525C167.921 65.7012 167.923 65.752 167.917 65.8019C167.725 67.5719 167.613 68.4103 167.422 69.4084C167.386 69.5961 167.263 69.7523 167.098 69.8342C166.171 70.2919 165.557 70.7012 165.083 71.3566C164.602 72.023 164.232 72.993 163.912 74.6408L163.91 74.6515L163.907 74.6613C161.803 83.5237 160.404 88.4625 156.883 97.0197L156.876 97.0383L156.866 97.0558C150.546 109.486 146.26 115.387 137.795 124.627C137.774 124.651 137.75 124.673 137.725 124.693C126.902 133.274 120.542 137.52 108.657 143.91L108.64 143.92L108.621 143.928C101.334 147.105 97.0084 148.224 88.9885 149.148C88.9494 149.152 88.91 149.153 88.8713 149.15C81.4555 148.553 78.1529 147.384 72.718 144.963L72.6985 144.954L72.6799 144.944C68.5666 142.676 66.2467 140.903 62.2014 137.714C54.54 136.034 50.0687 134.493 41.6799 128.881C41.5424 128.789 41.4484 128.643 41.4211 128.48C40.2181 121.262 39.9987 117.921 39.925 112.668C39.9178 112.153 40.5315 111.864 40.9143 112.2L40.9875 112.276L43.7893 115.664L43.8362 115.73C43.8646 115.775 43.8865 115.824 43.9016 115.874L43.9192 115.949L44.0481 116.703C44.7009 120.39 45.4905 122.839 46.5764 124.686C47.485 126.231 48.6157 127.378 50.1008 128.483C48.8324 125.688 48.5565 123.48 48.4377 120.14C48.4159 119.522 49.1991 119.305 49.5227 119.765L49.5813 119.865L50.0188 120.797C52.0961 125.165 53.6684 127.7 56.843 130.779C57.3088 130.038 57.5651 129.271 57.6282 128.273C57.7038 127.075 57.5063 125.537 57.0325 123.308C56.9634 122.983 57.1616 122.73 57.3752 122.634C57.5607 122.55 57.8248 122.553 58.0217 122.727L58.1018 122.813L58.3704 123.144C58.971 123.856 59.3912 124.141 59.7219 124.234C60.0706 124.331 60.4263 124.242 61.0188 123.941C61.4433 123.725 61.9562 124.069 61.8889 124.559C61.5286 127.171 61.5874 129.831 61.8938 131.941C62.0471 132.996 62.2609 133.9 62.5071 134.584C62.6301 134.926 62.7575 135.204 62.884 135.414C63.0133 135.629 63.1258 135.748 63.2063 135.804C63.4134 135.948 63.7485 135.979 64.2805 135.714C64.8052 135.452 65.4123 134.948 66.0227 134.252C67.2413 132.863 68.3724 130.827 68.8284 128.851C68.9066 128.512 69.2092 128.382 69.425 128.382C69.6137 128.382 69.8671 128.48 69.9817 128.73L70.0217 128.845L70.0784 129.067C70.1306 129.254 70.1782 129.384 70.22 129.467C70.2752 129.476 70.3229 129.49 70.3586 129.502C70.439 129.528 70.5212 129.565 70.5959 129.61C70.6656 129.651 70.7585 129.717 70.8342 129.813C70.9036 129.9 71.0331 130.114 70.9387 130.381C69.4935 134.471 69.0484 136.757 68.9358 139.903C69.5216 139.937 70.0179 139.887 70.4592 139.732C70.9828 139.547 71.4704 139.2 71.9514 138.589C72.9382 137.336 73.8456 135.041 74.9055 131.028L74.927 130.962C75.0436 130.664 75.3827 130.501 75.6926 130.614L75.759 130.643L76.0999 130.81C76.866 131.172 77.4368 131.35 77.9143 131.409C78.4456 131.475 78.894 131.398 79.4075 131.214L79.51 131.187C80.0184 131.097 80.4405 131.69 80.095 132.148C78.4478 134.329 77.2889 136.087 76.4143 137.953C75.6 139.691 75.0261 141.542 74.5422 143.941C76.0542 143.754 77.2527 143.314 78.4387 142.362C79.7851 141.282 81.145 139.522 82.8958 136.636L82.9446 136.567C83.1912 136.266 83.6851 136.266 83.9104 136.612L83.9543 136.693L84.3557 137.589C85.1083 139.348 85.4426 140.685 85.4465 142.503C87.3105 141.168 88.4781 139.846 89.3606 138.341C90.3513 136.651 90.995 134.718 91.8479 132.202L91.8889 132.108C92.1104 131.694 92.735 131.683 92.9504 132.118L92.9905 132.219L93.3606 133.462C93.7046 134.666 93.961 135.774 94.0588 136.984C94.1698 138.356 94.0724 139.84 93.6965 141.739C96.2519 139.693 98.3844 137.018 101.908 132.107L101.994 132.009C102.207 131.813 102.503 131.825 102.697 131.937C102.919 132.064 103.095 132.374 102.945 132.705C100.492 138.09 99.0764 141.298 98.5364 143.911C102.551 143.265 105.27 141.565 107.555 138.699C109.971 135.669 111.904 131.333 114.314 125.492L114.363 125.4C114.618 124.997 115.289 125.025 115.442 125.527L115.466 125.641L115.69 127.402C116.126 131.009 116.223 133.679 114.875 137.269C115.513 136.883 116.134 136.343 117.056 135.355L117.075 135.335C122.066 130.562 122.359 126.572 124.245 120.147L124.292 120.031C124.422 119.783 124.692 119.691 124.91 119.724C125.127 119.757 125.354 119.922 125.409 120.192L125.422 120.314L125.435 121.175C125.516 125.061 125.852 127.888 124.032 131.965L124.601 131.671C127.215 128.552 128.722 126.06 129.611 123.541C130.506 121.004 130.787 118.404 130.903 115.045L130.917 114.924C131.034 114.39 131.785 114.297 132.033 114.779L132.078 114.892L132.458 116.168C133.221 118.795 133.65 120.876 133.494 124.185C135.58 122.315 136.851 120.42 137.64 118.084C138.522 115.471 138.814 112.28 138.917 107.898L138.925 107.812C138.991 107.42 139.435 107.178 139.802 107.381L139.879 107.432L140.622 108.008C141.329 108.574 141.927 109.121 142.42 109.763C142.927 110.423 143.311 111.169 143.606 112.113C145.198 109.156 145.545 106.033 145.428 99.7902C145.418 99.2594 146.098 98.9475 146.467 99.3644L146.536 99.4582L146.935 100.113C147.717 101.448 148.232 102.683 148.701 104.962C150.889 101.837 151.171 98.4698 150.929 91.8771C150.913 91.4313 151.401 91.0916 151.814 91.3254L151.896 91.3801L152.182 91.6135C152.826 92.1606 153.294 92.7324 153.635 93.4406C153.846 93.8799 154.002 94.3621 154.125 94.9074C154.933 92.6511 155.383 90.6521 155.54 88.5158C155.73 85.9502 155.504 83.1643 154.954 79.467L154.948 79.382C154.945 78.9932 155.323 78.682 155.715 78.801L155.799 78.8332L156.229 79.0422C157.195 79.5389 157.915 80.0991 158.422 80.8859C158.74 81.3794 158.958 81.9446 159.115 82.6047C159.947 79.2892 159.631 76.4473 158.436 71.5549C158.286 71.0264 158.22 70.586 158.275 70.2424C158.304 70.0597 158.372 69.874 158.509 69.7219C158.65 69.5645 158.83 69.4827 159.006 69.4523C159.322 69.398 159.654 69.5034 159.906 69.6066C160.178 69.7183 160.465 69.8748 160.723 70.0226C160.827 70.0825 160.927 70.1383 161.02 70.1926C161.008 70.1703 160.997 70.1467 160.984 70.1232C160.454 69.1618 160.348 68.3855 160.758 67.7404C160.944 67.4489 161.209 67.2313 161.472 67.0549C161.732 66.8803 162.039 66.7168 162.317 66.5607C162.897 66.2347 163.446 65.8926 163.844 65.3429C164.231 64.8084 164.511 64.024 164.429 62.7521C164.411 62.4693 164.602 62.1702 164.932 62.1174L165.224 62.0803ZM165.441 63.0685C165.461 64.3281 165.153 65.2408 164.654 65.9299C164.117 66.671 163.395 67.1022 162.806 67.4328C162.499 67.6049 162.246 67.7399 162.028 67.8859C161.813 68.03 161.679 68.1555 161.602 68.2775C161.486 68.4599 161.395 68.7982 161.859 69.6398C162.108 70.092 162.273 70.4512 162.328 70.7179C162.353 70.8379 162.384 71.0592 162.264 71.2658C162.111 71.5299 161.843 71.5751 161.686 71.5685C161.54 71.5624 161.402 71.5149 161.3 71.4738C161.189 71.429 161.072 71.3709 160.958 71.3097C160.736 71.1907 160.467 71.028 160.227 70.8908C159.973 70.7457 159.734 70.6175 159.527 70.5324C159.424 70.4902 159.339 70.4625 159.273 70.4484C159.268 70.4475 159.264 70.4472 159.26 70.4465C159.25 70.5854 159.273 70.8491 159.402 71.299L159.405 71.3088L159.406 71.3176C160.775 76.9178 161.049 80.0372 159.69 84.216L159.553 84.6242C159.446 84.9348 159.147 85.056 158.904 85.0217C158.663 84.9876 158.415 84.7946 158.388 84.4767C158.264 83.0324 158.021 82.1097 157.581 81.4269C157.244 80.9035 156.766 80.4853 156.051 80.0832C156.525 83.4403 156.722 86.1 156.538 88.59C156.34 91.2734 155.704 93.7373 154.533 96.6506C154.3 97.2318 153.455 97.108 153.38 96.4992C153.237 95.3334 153.047 94.5242 152.735 93.8742C152.541 93.4711 152.292 93.1161 151.958 92.7707C152.155 99.2702 151.745 102.808 148.949 106.3C148.62 106.711 147.98 106.525 147.891 106.031C147.475 103.728 147.052 102.464 146.446 101.295C146.481 107.141 145.976 110.245 143.978 113.467C143.687 113.936 142.995 113.791 142.881 113.28C142.588 111.969 142.185 111.098 141.627 110.371C141.179 109.788 140.619 109.281 139.892 108.706C139.772 112.711 139.466 115.803 138.587 118.404C137.644 121.197 136.057 123.397 133.422 125.569C133.012 125.907 132.401 125.583 132.441 125.06L132.49 124.286C132.637 121.468 132.35 119.597 131.778 117.45C131.605 119.795 131.269 121.845 130.554 123.873C129.607 126.559 128.009 129.172 125.317 132.375C125.267 132.434 125.205 132.485 125.133 132.522L123.435 133.402C122.879 133.689 122.377 133.075 122.625 132.591L122.843 132.154C124.555 128.631 124.568 126.192 124.482 123.027C123.155 127.976 122.249 131.772 117.767 136.058C116.375 137.547 115.565 138.144 114.34 138.656C113.809 138.879 113.362 138.326 113.56 137.865L113.731 137.455C115.25 133.721 115.141 131.13 114.662 127.256C112.513 132.402 110.653 136.418 108.337 139.323C105.788 142.521 102.693 144.374 98.1213 144.985C97.7435 145.035 97.3798 144.712 97.4485 144.294C97.8168 142.055 98.8121 139.495 100.461 135.778C97.8258 139.287 95.8884 141.427 93.4299 143.202C92.9518 143.548 92.3786 143.083 92.4963 142.577L92.6829 141.724C93.0756 139.804 93.1669 138.365 93.0618 137.065C92.9705 135.935 92.7297 134.894 92.3899 133.708C91.7189 135.669 91.1048 137.344 90.2239 138.847C89.1589 140.663 87.7171 142.216 85.3635 143.777C84.9608 144.043 84.4089 143.748 84.4309 143.25C84.525 141.121 84.2283 139.796 83.3528 137.795C81.7676 140.34 80.4414 142.037 79.0647 143.142C77.8067 144.151 76.5289 144.65 75.0344 144.882C79.3288 146.704 82.5636 147.636 88.9104 148.149C96.8107 147.237 101.037 146.142 108.211 143.015C120.015 136.667 126.323 132.455 137.081 123.926C145.469 114.768 149.7 108.942 155.966 96.6193C159.453 88.1423 160.838 83.2586 162.93 74.4474C163.259 72.7511 163.665 71.6122 164.273 70.7707C164.85 69.9715 165.579 69.4849 166.473 69.0295C166.633 68.1599 166.741 67.3571 166.916 65.7482C166.821 65.0904 166.719 64.5778 166.601 64.1818C166.479 63.7743 166.349 63.5186 166.22 63.3586C166.1 63.2106 165.975 63.135 165.821 63.0969C165.719 63.0716 165.595 63.062 165.441 63.0685ZM40.9456 113.796C41.0363 118.334 41.2981 121.629 42.3792 128.144C50.5935 133.622 54.9409 135.103 62.5051 136.757C62.572 136.772 62.6358 136.798 62.6936 136.834L62.7493 136.872L64.2014 138.014C67.4182 140.527 69.5983 142.101 73.1389 144.055C73.2501 144.104 73.3606 144.153 73.47 144.201C73.9828 141.526 74.5995 139.469 75.509 137.528C76.3037 135.833 77.3154 134.24 78.6536 132.411C78.3805 132.439 78.0967 132.439 77.7922 132.402C77.1907 132.327 76.5339 132.115 75.7444 131.747C74.7366 135.479 73.8231 137.828 72.7375 139.207C72.1602 139.941 71.5238 140.417 70.7922 140.675C70.0681 140.93 69.292 140.958 68.4592 140.867C68.1491 140.834 67.9157 140.567 67.9241 140.255L67.9456 139.616C68.0736 136.576 68.5317 134.259 69.8645 130.426C69.7032 130.377 69.5801 130.276 69.4895 130.167C68.8891 131.948 67.8672 133.665 66.7747 134.911C66.1184 135.66 65.4116 136.268 64.7268 136.61C64.0496 136.947 63.2793 137.072 62.636 136.625C62.3949 136.457 62.1949 136.208 62.0276 135.93C61.8575 135.647 61.7035 135.305 61.5657 134.922C61.2901 134.156 61.0641 133.183 60.9045 132.084C60.6126 130.074 60.537 127.599 60.8118 125.119C60.3836 125.268 59.9362 125.332 59.4534 125.197C59.0589 125.087 58.68 124.854 58.2864 124.499C58.5692 126.056 58.6924 127.29 58.6262 128.336C58.5397 129.705 58.1334 130.741 57.3918 131.755C57.1744 132.052 56.7518 132.079 56.4954 131.836C53.2019 128.713 51.5268 126.171 49.5432 122.113C49.7494 124.768 50.2406 126.716 51.676 129.415C51.9666 129.962 51.3363 130.54 50.8157 130.198C48.6177 128.754 46.9727 127.333 45.7141 125.193C44.4739 123.083 43.6312 120.315 42.9495 116.219L40.9456 113.796Z" fill="#B46620"/>
<path d="M86.3932 132.058C68.3363 126.932 58.4553 123.271 42.9626 110.335C42.9371 110.314 42.9233 110.28 42.9267 110.247C44.0962 98.9858 47.2726 92.7338 59.4211 81.7982L86.4079 62.6333C86.4167 62.6271 86.4264 62.6223 86.4367 62.6191L135.921 47.5954C150.408 45.0392 160.274 41.1712 165.408 51.7132C165.416 51.7309 165.42 51.7521 165.417 51.7716C164.302 59.878 161.37 63.1263 156.928 69.3507C156.924 69.3573 156.92 69.3648 156.917 69.3724C150.668 85.2216 145.47 93.1699 135.925 107.185C135.923 107.189 135.919 107.193 135.916 107.197C120.712 123.715 107.877 125.854 86.449 132.058C86.431 132.063 86.4112 132.063 86.3932 132.058Z" fill="#F2B55F"/>
<path d="M154.175 44.242C156.688 44.258 158.949 44.693 160.921 45.8299C162.898 46.9694 164.539 48.7883 165.857 51.494C165.908 51.5993 165.929 51.7205 165.912 51.8397C164.78 60.0719 161.775 63.4228 157.363 69.6024C151.102 85.4724 145.88 93.4549 136.338 107.466L136.339 107.467C136.322 107.491 136.304 107.514 136.284 107.535C120.968 124.175 107.983 126.343 86.5881 132.538C86.4802 132.569 86.3643 132.57 86.2561 132.539C68.1622 127.402 58.2079 123.716 42.6418 110.719C42.4896 110.591 42.4082 110.395 42.429 110.195L42.5461 109.146C43.1613 103.968 44.2735 99.796 46.6213 95.6541C49.1196 91.247 52.9978 86.9072 59.0862 81.4266L59.1077 81.4071L59.1321 81.3905L86.1184 62.2254L86.2014 62.1766C86.2304 62.1624 86.2603 62.1499 86.2913 62.1405L135.776 47.117L135.805 47.1082L135.834 47.1034C139.474 46.4611 142.745 45.7512 145.828 45.1864C148.876 44.628 151.666 44.2261 154.175 44.242ZM154.168 45.242C151.758 45.2268 149.045 45.6134 146.008 46.1698C143.016 46.7179 139.632 47.4464 136.041 48.0809L86.6438 63.078L59.7375 82.1854C53.6879 87.6327 49.9085 91.8835 47.4915 96.1473C45.109 100.35 44.0332 104.599 43.4475 110.086C58.742 122.824 68.5343 126.465 86.4211 131.546C107.806 125.359 120.47 123.227 135.527 106.88C145.055 92.8886 150.227 84.9775 156.451 69.1893L156.483 69.1229C156.494 69.1013 156.507 69.0804 156.522 69.0604L158.116 66.8485C161.642 61.9816 163.935 58.7092 164.903 51.8231C163.664 49.3206 162.166 47.7018 160.422 46.6961C158.648 45.6733 156.574 45.2573 154.168 45.242Z" fill="#E1821B"/>
<path d="M121.483 103.324C121.549 104.05 118.704 104.919 115.13 105.265C111.555 105.61 108.605 105.302 108.54 104.576C108.474 103.85 111.319 102.981 114.893 102.635C118.467 102.29 121.418 102.598 121.483 103.324Z" fill="#E98420"/>
<path d="M111.483 95.0325C111.549 95.7586 108.704 96.6274 105.13 96.9731C101.555 97.3188 98.6049 97.0105 98.5395 96.2844C98.4741 95.5584 101.319 94.6896 104.893 94.3439C108.467 93.9982 111.418 94.3065 111.483 95.0325Z" fill="#E98420"/>
<path d="M134.309 91.8368C134.218 92.5598 130.848 92.7001 126.783 92.15C122.717 91.5999 119.495 90.5678 119.586 89.8447C119.677 89.1217 123.047 88.9815 127.113 89.5315C131.178 90.0816 134.4 91.1137 134.309 91.8368Z" fill="#E98420"/>
<path d="M142.313 79.1285C142.122 79.8302 139.83 79.7731 137.194 79.0009C134.558 78.2287 132.576 77.034 132.768 76.3322C132.959 75.6305 135.251 75.6876 137.887 76.4598C140.523 77.232 142.505 78.4268 142.313 79.1285Z" fill="#E98420"/>
<path d="M136.619 70.5615C136.639 71.2904 133.498 71.9734 129.603 72.0871C125.707 72.2007 122.534 71.7019 122.514 70.973C122.494 70.2441 125.636 69.5611 129.531 69.4475C133.426 69.3338 136.6 69.8326 136.619 70.5615Z" fill="#E98420"/>
<path d="M127.483 64.9755C127.549 65.7015 124.704 66.5704 121.13 66.9161C117.555 67.2618 114.605 66.9534 114.54 66.2274C114.474 65.5014 117.319 64.6326 120.893 64.2869C124.467 63.9412 127.418 64.2495 127.483 64.9755Z" fill="#E98420"/>
<path d="M117.636 61.4275C117.679 61.9113 115.893 62.4797 113.647 62.6969C111.4 62.9142 109.544 62.6982 109.5 62.2144C109.456 61.7306 111.242 61.1622 113.489 60.9449C115.735 60.7277 117.592 60.9437 117.636 61.4275Z" fill="#E98420"/>
<path d="M149.245 57.405C149.164 57.8744 145.176 57.5253 140.337 56.6254C135.499 55.7255 131.643 54.6154 131.724 54.1461C131.805 53.6768 135.793 54.0258 140.632 54.9257C145.47 55.8257 149.326 56.9357 149.245 57.405Z" fill="#E98420"/>
<path d="M148.01 61.1012C147.945 61.4727 146.212 61.4565 144.139 61.065C142.067 60.6735 140.44 60.055 140.505 59.6835C140.571 59.312 142.304 59.3283 144.376 59.7197C146.448 60.1112 148.075 60.7297 148.01 61.1012Z" fill="#E98420"/>
<path d="M99.4833 68.0849C99.5486 68.8109 96.7041 69.6797 93.1297 70.0254C89.5554 70.3711 86.6049 70.0628 86.5395 69.3368C86.4741 68.6107 89.3187 67.7419 92.893 67.3962C96.4674 67.0505 99.4179 67.3588 99.4833 68.0849Z" fill="#E98420"/>
<path d="M113.199 72.6176C113.264 73.3436 108.916 74.3578 103.488 74.8829C98.0588 75.408 93.6049 75.245 93.5395 74.519C93.4741 73.793 97.8221 72.7787 103.251 72.2537C108.68 71.7286 113.134 71.8915 113.199 72.6176Z" fill="#E98420"/>
<path d="M125.663 81.379C125.67 82.1082 121.162 82.7505 115.594 82.8138C110.025 82.8771 105.504 82.3374 105.496 81.6082C105.489 80.8791 109.997 80.2367 115.566 80.1734C121.134 80.1101 125.655 80.6499 125.663 81.379Z" fill="#E98420"/>
<path d="M105.664 87.2764C105.729 88.0024 101.725 88.9834 96.7199 89.4674C91.7151 89.9515 87.6049 89.7553 87.5395 89.0293C87.4741 88.3032 91.4784 87.3223 96.4832 86.8382C101.488 86.3542 105.598 86.5503 105.664 87.2764Z" fill="#E98420"/>
<path d="M97.2035 79.3394C97.3581 80.0508 93.3345 81.5957 88.2167 82.7901C83.0989 83.9845 78.8248 84.376 78.6702 83.6646C78.5157 82.9532 82.5392 81.4083 87.657 80.2139C92.7749 79.0196 97.049 78.628 97.2035 79.3394Z" fill="#E98420"/>
<path d="M84.1607 75.2783C84.3823 75.9704 81.7999 77.4815 78.3928 78.6534C74.9857 79.8254 72.044 80.2144 71.8224 79.5223C71.6008 78.8303 74.1832 77.3192 77.5903 76.1472C80.9974 74.9752 83.9391 74.5862 84.1607 75.2783Z" fill="#E98420"/>
<path d="M70.355 88.7823C70.5209 89.491 67.8272 90.7765 64.3386 91.6537C60.8499 92.5309 57.8873 92.6675 57.7215 91.9588C57.5556 91.2502 60.2493 89.9646 63.7379 89.0875C67.2266 88.2103 70.1892 88.0737 70.355 88.7823Z" fill="#E98420"/>
<path d="M81.8278 93.1776C82.0121 93.8813 78.7837 95.4023 74.617 96.5748C70.4502 97.7474 66.9229 98.1274 66.7386 97.4237C66.5542 96.72 69.7826 95.199 73.9494 94.0265C78.1162 92.8539 81.6434 92.4739 81.8278 93.1776Z" fill="#E98420"/>
<path d="M94.1111 101.148C94.3512 102.055 90.4122 103.966 85.3131 105.416C80.214 106.867 75.8857 107.308 75.6456 106.401C75.4056 105.495 79.3446 103.584 84.4437 102.133C89.5428 100.683 93.8711 100.242 94.1111 101.148Z" fill="#E98420"/>
<path d="M101.483 110.579C101.549 111.305 98.7041 112.174 95.1297 112.52C91.5554 112.866 88.6049 112.557 88.5395 111.831C88.4741 111.105 91.3187 110.236 94.893 109.891C98.4674 109.545 101.418 109.853 101.483 110.579Z" fill="#E98420"/>
<path d="M80.4459 119.893C80.5673 120.611 77.7993 121.714 74.2634 122.356C70.7274 122.999 67.7625 122.937 67.6411 122.219C67.5196 121.501 70.2876 120.398 73.8236 119.755C77.3595 119.113 80.3244 119.175 80.4459 119.893Z" fill="#E98420"/>
<path d="M68.6366 108.767C68.8681 109.455 65.4138 111.329 60.9212 112.951C56.4286 114.574 53.6469 115.837 53.4154 115.149C53.1839 114.46 55.5903 112.08 60.0829 110.458C64.5755 108.835 68.4052 108.078 68.6366 108.767Z" fill="#E98420"/>
<path d="M60.4211 103.046C60.7966 103.662 55.7271 105.153 52.6913 107.139C49.6555 109.125 46.8901 110.235 46.5146 109.618C46.1391 109.002 48.2957 106.892 51.3315 104.906C54.3673 102.92 60.0456 102.429 60.4211 103.046Z" fill="#E98420"/>
<path fill-rule="evenodd" clip-rule="evenodd" d="M40.421 107.709C38.7318 117.2 51.8513 118.407 60.421 123.255C68.6659 127.919 73.5923 130.929 82.921 132.065C97.1744 133.801 105.749 129.201 118.421 122.219C127.525 117.203 132.616 113.664 139.421 105.636C145.72 98.2044 147.26 92.502 151.921 83.8702C157.263 73.9779 164.829 58.1519 164.92 57.9607C164.922 57.9578 164.922 57.958 164.924 57.9554C165.048 57.7871 169.482 51.7426 165.421 48.1127C161.072 44.2252 157.482 42.5263 151.421 43.4487C142.366 44.8267 137.325 45.9163 128.421 48.1127C117.54 50.7968 111.411 52.3835 100.921 56.4043C90.675 60.3316 85.0415 62.6048 75.421 68.3238C65.8428 74.0177 52.5386 85.8386 52.4218 85.9424C52.421 85.9431 52.421 85.9431 52.4203 85.944C52.3199 86.0637 42.102 98.2641 40.421 107.709ZM43.9212 108.745C41.9901 104.201 48.9212 95.2715 48.9212 95.2715C48.9212 95.2715 49.7159 94.061 50.9838 92.3245C51.4588 91.674 52.0003 90.9497 52.5912 90.1875C54.6674 87.51 57.355 84.3658 59.9212 82.3159C60.1296 82.1409 60.3358 81.9684 60.5397 81.7984C66.388 76.9232 70.4175 74.0833 75.421 71.2563C77.108 70.3032 78.9057 69.3515 80.9212 68.3238C85.3115 66.3012 88.9305 64.6466 92.4211 63.1424C93.1591 62.8244 93.8574 62.484 94.5454 62.1416C95.656 61.5888 96.74 61.0305 97.9211 60.5512C101.764 58.9922 106.025 57.6688 110.921 55.8865C111.43 55.726 111.93 55.5682 112.421 55.4131C112.551 55.3721 112.68 55.3312 112.809 55.2906C114.617 54.7198 116.312 54.1846 117.921 53.6803C123.626 51.8916 128.241 50.4913 132.921 49.2707C135.195 48.6776 137.484 48.127 139.921 47.5949C148.369 45.4152 152.899 44.631 159.412 46.5557C159.418 46.5575 159.424 46.56 159.43 46.5629C164.177 49.0285 165.369 50.8309 164.425 54.8336C164.423 54.8443 164.419 54.8539 164.413 54.8632C164.318 55.015 163.412 56.4618 162.18 58.4783C161.432 59.704 160.563 61.1402 159.684 62.6241C158.534 64.5637 157.365 66.5848 156.421 68.3238C155.417 70.1738 154.592 71.8802 153.861 73.5068C153.218 74.9358 152.647 76.3033 152.09 77.6526C150.524 81.4481 149.066 85.1004 146.421 89.5718C146.188 89.9661 145.96 90.3528 145.736 90.7324C141.423 98.0589 138.795 102.739 132.421 108.745C126.624 114.208 122.097 117.074 115.921 119.879C114.231 120.646 112.418 121.409 110.421 122.219C99.6874 126.575 92.8503 129.474 81.4212 127.92C74.7774 127.016 65.065 121.211 64.4388 120.68C64.4235 120.667 64.4189 120.653 64.415 120.634C63.6403 116.728 67.9251 114.441 69.4212 112.373C70.9212 110.3 62.2512 118.366 56.9212 117.555C49.3333 115.847 45.8523 113.29 43.9212 108.745Z" fill="#B95205"/>
<path d="M60.5397 81.7984C84.0646 94.8642 96.4137 103.001 115.921 119.879L121.293 117.104C121.355 117.072 121.364 116.986 121.312 116.94C100.677 98.3907 87.7583 90.4823 64.9803 78.2964C64.9449 78.2774 64.9008 78.2811 64.8696 78.3063L60.5397 81.7984Z" fill="#B95205"/>
<path d="M52.5912 90.1875C52.0003 90.9497 51.4588 91.674 50.9838 92.3245L49.4761 94.6687C49.4459 94.7156 49.4611 94.7789 49.5085 94.8084C67.8725 106.235 77.6991 113.17 93.3823 127.367C93.4063 127.389 93.44 127.398 93.4716 127.391L100.241 125.888C100.318 125.87 100.344 125.772 100.287 125.717C83.591 109.456 72.9327 101.845 52.5912 90.1875Z" fill="#B95205"/>
<path d="M80.9212 68.3238C78.9057 69.3515 77.108 70.3032 75.421 71.2563C99.0359 82.5474 111.393 91.0756 132.421 108.745L135.855 104.679C135.891 104.636 135.883 104.57 135.839 104.535C107.584 81.9664 96.1808 74.8097 80.9212 68.3238Z" fill="#B95205"/>
<path d="M145.736 90.7324C145.96 90.3528 146.188 89.9661 146.421 89.5718C130.009 75.6674 118.995 69.3668 97.9211 60.5512L94.5454 62.1416C93.8574 62.484 93.1591 62.8244 92.4211 63.1424C114.63 73.0564 126.184 79.7387 143.578 94.16C143.625 94.1993 143.698 94.1878 143.729 94.1347L145.736 90.7324Z" fill="#B95205"/>
<path d="M112.421 55.4131C128.803 62.4663 137.53 67.2731 152.09 77.6526C152.647 76.3033 153.218 74.9358 153.861 73.5068C140.746 63.1237 132.855 58.8881 117.921 53.6803C116.312 54.1846 114.617 54.7198 112.809 55.2906L112.421 55.4131Z" fill="#B95205"/>
<path d="M139.921 47.5949C137.484 48.127 135.195 48.6776 132.921 49.2707C144.782 52.6964 151.099 55.0341 159.684 62.6241C160.563 61.1402 161.432 59.704 162.18 58.4783C153.78 52.0744 148.903 49.7621 139.921 47.5949Z" fill="#B95205"/>
<path d="M151.346 42.9548C154.44 42.484 156.94 42.677 159.234 43.5066C161.519 44.3333 163.559 45.7777 165.754 47.74C167.999 49.7465 167.86 52.4146 167.219 54.4802C166.623 56.4015 165.56 57.9243 165.355 58.2087C164.961 59.0324 157.596 74.4127 152.361 84.1081C147.748 92.6505 146.145 98.4758 139.802 105.959C132.946 114.047 127.801 117.622 118.662 122.657C105.99 129.639 97.2883 134.318 82.8606 132.561C73.42 131.412 68.4129 128.35 60.175 123.69C58.0672 122.498 55.671 121.525 53.261 120.581C50.864 119.642 48.4446 118.73 46.3479 117.67C44.2528 116.61 42.4211 115.374 41.2258 113.758C40.014 112.118 39.4837 110.122 39.929 107.621C40.7884 102.792 43.8128 97.3088 46.595 93.0554C49.3872 88.7868 51.9808 85.6903 52.0374 85.6228C52.036 85.6244 52.0391 85.6215 52.0413 85.6189C52.0446 85.615 52.0509 85.6067 52.0598 85.5974C52.0689 85.5879 52.077 85.5808 52.0823 85.5759C52.0844 85.5739 52.086 85.572 52.0872 85.571C52.0882 85.5701 52.0899 85.5693 52.0901 85.5691L52.718 85.0163C55.4763 82.6039 66.7421 72.9016 75.1653 67.8943C84.8218 62.1538 90.4865 59.8683 100.742 55.9372C111.261 51.9054 117.414 50.3133 128.301 47.6277C137.215 45.4287 142.272 44.3357 151.346 42.9548ZM158.893 44.447C156.789 43.686 154.463 43.4916 151.496 43.9431C142.46 45.3183 137.434 46.4047 128.541 48.5984C117.667 51.2808 111.561 52.8611 101.1 56.8708C90.8638 60.7943 85.2612 63.0562 75.677 68.7536C66.3513 74.2975 53.4444 85.7033 52.7795 86.2927C52.5135 86.6122 50.062 89.5824 47.4319 93.6033C44.6598 97.8411 41.7349 103.181 40.9133 107.797C40.5141 110.04 40.9898 111.755 42.0305 113.163C43.0879 114.593 44.7553 115.743 46.8 116.777C48.8431 117.811 51.2051 118.702 53.6252 119.65C56.0326 120.593 58.4902 121.589 60.6672 122.82C68.919 127.488 73.7649 130.447 82.9817 131.569C97.0605 133.284 105.508 128.763 118.18 121.781C127.249 116.784 132.285 113.28 139.039 105.312C145.294 97.9328 146.771 92.3534 151.481 83.6326C156.816 73.753 164.377 57.9382 164.469 57.7449C164.472 57.7391 164.478 57.7282 164.486 57.7146C164.495 57.6987 164.504 57.6828 164.515 57.6677C164.517 57.6644 164.52 57.6608 164.522 57.6579L164.733 57.3533C165.091 56.813 165.821 55.6128 166.264 54.1843C166.855 52.2782 166.904 50.1085 165.088 48.4851C162.935 46.5599 161.005 45.211 158.893 44.447ZM139.815 47.1062C148.265 44.9262 152.908 44.1118 159.554 46.0759L159.66 46.1189L160.516 46.5779C162.428 47.6392 163.743 48.6478 164.488 49.8601C165.36 51.2813 165.397 52.8888 164.911 54.948C164.898 55.0058 164.874 55.0677 164.836 55.1286C164.742 55.2796 163.837 56.7248 162.607 58.739C161.859 59.9632 160.992 61.3973 160.114 62.8786C158.965 64.8159 157.8 66.8312 156.861 68.5622C155.863 70.3993 155.044 72.0943 154.317 73.7117C153.677 75.1331 153.11 76.495 152.553 77.8435C150.988 81.6352 149.518 85.3194 146.852 89.8259C146.619 90.2199 146.391 90.6067 146.167 90.9861C141.855 98.3102 139.195 103.049 132.764 109.109C126.925 114.611 122.351 117.508 116.128 120.334C114.43 121.105 112.609 121.871 110.61 122.682C99.88 127.036 92.929 129.99 81.3538 128.415C77.9479 127.951 73.798 126.243 70.4534 124.609C68.7741 123.789 67.2839 122.979 66.1731 122.342C65.6178 122.023 65.1554 121.746 64.8108 121.531C64.4805 121.325 64.2269 121.156 64.1155 121.061C63.9711 120.939 63.9366 120.789 63.925 120.731C63.4927 118.551 64.4902 116.847 65.6917 115.483C65.9882 115.147 66.3019 114.824 66.6155 114.517C66.4145 114.647 66.2091 114.782 65.9973 114.915C64.663 115.75 63.0972 116.635 61.5178 117.26C59.9484 117.882 58.3083 118.272 56.8459 118.05L56.8284 118.047L56.8118 118.043C52.9874 117.182 50.1501 116.098 48.0159 114.626C45.8694 113.145 44.4596 111.291 43.4612 108.941C42.9156 107.657 43.0142 106.118 43.4036 104.598C43.7956 103.069 44.501 101.487 45.2561 100.069C46.0129 98.6481 46.8291 97.3737 47.4553 96.4558C47.7688 95.9964 48.0352 95.6249 48.2239 95.3679C48.3182 95.2394 48.393 95.1393 48.4446 95.071C48.4704 95.0369 48.4905 95.0108 48.5042 94.9929C48.5082 94.9876 48.5119 94.9831 48.5149 94.9792C48.5211 94.9698 48.5302 94.9569 48.5413 94.9402C48.5659 94.9031 48.6021 94.8479 48.6497 94.7771C48.7449 94.635 48.885 94.4273 49.0647 94.1658C49.4225 93.6452 49.9383 92.9092 50.5715 92.0417L51.9495 89.8992L52.0217 89.8074C52.1221 89.7031 52.2555 89.6425 52.3948 89.6286C54.3161 87.1696 56.7391 84.3399 59.1174 82.3288L59.6086 81.9255C59.8145 81.7527 60.0185 81.5827 60.22 81.4148C66.0853 76.5254 70.1392 73.6663 75.175 70.821C76.8701 69.8633 78.6744 68.9082 80.6936 67.8786L80.7034 67.8738L80.7122 67.8699C85.1021 65.8474 88.7261 64.1902 92.2229 62.6833L94.3323 61.6892C95.4309 61.1423 96.5337 60.5745 97.7336 60.0876C101.583 58.5257 105.889 57.1864 110.75 55.4167L110.76 55.4128L110.771 55.4099L117.772 53.2029C123.478 51.4138 128.103 50.0107 132.795 48.7868C134.505 48.3409 136.224 47.9187 138.007 47.5105L139.815 47.1062ZM49.3743 95.4929C49.3625 95.5106 49.3538 95.5241 49.3479 95.5329C49.345 95.5374 49.3425 95.5405 49.3411 95.5427C49.3403 95.5438 49.3404 95.5451 49.3401 95.5456L49.3284 95.5622L49.3167 95.5779L49.3157 95.5788C49.315 95.5797 49.3133 95.5818 49.3118 95.5837C49.3088 95.5876 49.3041 95.5935 49.2981 95.6013C49.2857 95.6175 49.2669 95.6422 49.2424 95.6745C49.1935 95.7392 49.1217 95.8354 49.0305 95.9597C48.8477 96.2087 48.5876 96.5707 48.2815 97.0193C47.6685 97.9176 46.8725 99.1605 46.1379 100.54C45.4019 101.922 44.7367 103.425 44.3723 104.847C44.0053 106.28 43.9613 107.561 44.3811 108.55C45.3138 110.744 46.6105 112.441 48.5842 113.802C50.5677 115.17 53.2611 116.217 57.0168 117.063C58.2154 117.24 59.6498 116.926 61.1497 116.332C62.6479 115.738 64.1552 114.888 65.467 114.067C66.7863 113.241 67.8683 112.471 68.5754 112.005C68.7487 111.89 68.9033 111.791 69.0315 111.718C69.1369 111.657 69.2906 111.572 69.4358 111.543C69.4788 111.534 69.5525 111.524 69.6389 111.537C69.731 111.55 69.8629 111.595 69.967 111.718C70.0695 111.838 70.0921 111.972 70.093 112.058C70.0939 112.141 70.076 112.209 70.0627 112.251C70.0174 112.392 69.9152 112.543 69.8264 112.666C69.4201 113.227 68.8362 113.79 68.2424 114.35C67.6357 114.923 67.0035 115.506 66.4417 116.144C65.354 117.379 64.6114 118.726 64.8801 120.382C64.9765 120.448 65.1275 120.55 65.3401 120.682C65.6723 120.89 66.1242 121.16 66.6711 121.474C67.765 122.102 69.2355 122.901 70.8928 123.711C74.2219 125.337 78.2505 126.984 81.4885 127.425C85.7268 128.001 89.3217 127.958 92.7278 127.45C77.3179 113.527 67.5421 106.625 49.4583 95.3669C49.4224 95.4205 49.3941 95.463 49.3743 95.4929ZM52.7219 90.8396C52.2399 91.4676 51.7934 92.0643 51.3948 92.6101L50.1155 94.5974C68.2182 105.871 78.0397 112.818 93.5637 126.858L99.4065 125.56C83.1515 109.787 72.571 102.233 52.7219 90.8396ZM60.2424 82.699L60.2336 82.7068C57.8572 84.6051 55.3571 87.479 53.342 90.0417C73.3887 101.555 84.0435 109.198 100.636 125.358C100.661 125.383 100.682 125.411 100.702 125.438C103.65 124.438 106.729 123.178 110.234 121.756C111.947 121.06 113.52 120.398 114.996 119.742C95.9456 103.311 83.6634 95.2245 60.5959 82.4021C60.4788 82.5 60.3611 82.5994 60.2424 82.699ZM61.429 81.7224C84.4556 94.535 96.7789 102.68 115.99 119.279L120.546 116.926C100.27 98.7504 87.4284 90.8806 64.9758 78.862L61.429 81.7224ZM75.4407 71.821C72.1054 73.717 69.1903 75.6316 65.8381 78.1902C88.2078 90.1762 101.108 98.121 121.521 116.455C124.915 114.477 128.047 112.131 131.665 108.763C110.996 91.4203 98.694 82.9565 75.4407 71.821ZM80.9397 68.8757C79.3414 69.6927 77.883 70.4634 76.5071 71.2243C99.4618 82.2638 111.797 90.7854 132.36 108.042L135.207 104.67C107.329 82.417 95.9715 75.2863 80.9397 68.8757ZM92.4172 63.6892C89.2693 65.049 86.0058 66.5349 82.1516 68.3083C96.9665 74.7111 108.526 82.0786 136.152 104.144C136.154 104.147 136.157 104.15 136.159 104.152C138.878 101.021 140.838 97.9953 143.02 94.3474C125.853 80.1409 114.362 73.4944 92.4172 63.6892ZM94.7961 62.5749C94.7868 62.5796 94.7772 62.5849 94.7678 62.5896C94.3973 62.774 94.0209 62.9575 93.636 63.1394C115.069 72.7537 126.564 79.446 143.535 93.4773L145.306 90.4783C145.46 90.2163 145.616 89.9504 145.775 89.6814C129.639 76.0505 118.697 69.7955 97.9319 61.0984L94.7961 62.5749ZM111.083 56.3591C106.638 57.977 102.773 59.1995 99.2444 60.5652C119.434 69.0713 130.374 75.3788 146.287 88.8054C148.642 84.7414 150.024 81.3493 151.475 77.8298C137.189 67.6671 128.513 62.8938 112.393 55.946C111.963 56.0818 111.526 56.2193 111.083 56.3591ZM113.846 55.487C129.288 62.1881 137.946 66.9923 151.868 76.8845C152.304 75.833 152.754 74.7637 153.245 73.6589C140.402 63.5213 132.577 59.3312 117.911 54.2068C116.617 54.6127 115.267 55.0387 113.846 55.487ZM132.915 49.7888C128.692 50.8938 124.51 52.1492 119.51 53.7087C133.403 58.6481 141.227 62.9194 153.67 72.7214C154.34 71.2603 155.09 69.729 155.982 68.0857C156.872 66.4458 157.959 64.5586 159.041 62.7273C150.728 55.4536 144.519 53.1442 132.915 49.7888ZM139.915 48.1081C138.155 48.4936 136.471 48.8881 134.814 49.3025C145.398 52.4177 151.554 54.8816 159.561 61.8533C160.245 60.7041 160.914 59.5953 161.517 58.6052C153.421 52.4727 148.625 50.219 139.915 48.1081ZM159.232 47.0242C153.378 45.3019 149.17 45.8059 141.964 47.5935C149.686 49.6206 154.467 52.02 162.041 57.7488C163.033 56.1288 163.766 54.9534 163.951 54.657C164.393 52.7479 164.303 51.4689 163.636 50.3835C162.943 49.2559 161.579 48.246 159.232 47.0242Z" fill="#BD540B"/>
</svg>
