<svg width="200" height="200" viewBox="0 0 200 200" fill="none" xmlns="http://www.w3.org/2000/svg">
<ellipse cx="100" cy="106.349" rx="95" ry="62.651" fill="#01070B"/>
<ellipse cx="100" cy="101.128" rx="95" ry="62.0709" fill="#1D171A"/>
<ellipse cx="100.565" cy="96.4874" rx="79.7321" ry="49.3087" fill="#03090D"/>
<path d="M90.2785 31.6055L35.114 47.7025C34.549 47.8674 34.2577 48.5122 34.4985 49.0698C42.2311 66.9803 54.2872 73.0955 69.0387 72.5405C83.8645 71.9827 97.2014 55.8095 91.4984 32.338C91.364 31.7848 90.8072 31.4512 90.2785 31.6055Z" fill="#FFC91B" stroke="#FFCE25"/>
<path d="M85.0012 33.3608L40.3125 46.2025C39.7439 46.3659 39.4497 47.0126 39.6958 47.5712C46.075 62.0481 55.9173 67.026 67.9243 66.6224C80.009 66.2163 90.8376 53.1506 86.214 34.0895C86.0806 33.5393 85.5276 33.2095 85.0012 33.3608Z" fill="#FFF083" stroke="#FFF083"/>
<path d="M42.9104 50.7485C45.6625 55.7955 51.1748 61.3383 53.1924 61.2195C53.5279 61.1998 53.7128 60.8683 53.8183 60.5401C54.7598 57.6129 59.5129 42.7261 58.5924 43.3995C57.8043 43.9759 48.3158 46.8382 44.031 48.1131C42.9165 48.4448 42.3369 49.6968 42.9104 50.7485Z" fill="#FFCC24"/>
<path d="M61.2134 46.861L56.9586 59.9962C56.6641 60.9055 57.029 61.9201 57.8578 62.3714C63.2951 65.3321 67.0455 64.9787 72.8498 61.3919C73.8112 60.7978 74.0336 59.4697 73.362 58.5284L64.6614 46.3339C63.712 45.0031 61.7163 45.3082 61.2134 46.861Z" fill="#FFCC24"/>
<path d="M82.8166 38.807C83.4098 46.3991 82.462 50.8858 79.1789 56.4102C78.5079 57.5392 76.963 57.6138 76.1159 56.5991L65.5843 43.9834C64.6295 42.8397 65.1534 41.0735 66.558 40.701L80.3816 37.0345C81.5458 36.7257 82.7196 37.5661 82.8166 38.807Z" fill="#FFCC24"/>
<path d="M42.9104 50.7485C45.6625 55.7955 51.1748 61.3383 53.1924 61.2195C53.5279 61.1998 53.7128 60.8683 53.8183 60.5401C54.7598 57.6129 59.5129 42.7261 58.5924 43.3995C57.8043 43.9759 48.3158 46.8382 44.031 48.1131C42.9165 48.4448 42.3369 49.6968 42.9104 50.7485Z" stroke="#FFD735"/>
<path d="M61.2134 46.861L56.9586 59.9962C56.6641 60.9055 57.029 61.9201 57.8578 62.3714C63.2951 65.3321 67.0455 64.9787 72.8498 61.3919C73.8112 60.7978 74.0336 59.4697 73.362 58.5284L64.6614 46.3339C63.712 45.0031 61.7163 45.3082 61.2134 46.861Z" stroke="#FFD735"/>
<path d="M82.8166 38.807C83.4098 46.3991 82.462 50.8858 79.1789 56.4102C78.5079 57.5392 76.963 57.6138 76.1159 56.5991L65.5843 43.9834C64.6295 42.8397 65.1534 41.0735 66.558 40.701L80.3816 37.0345C81.5458 36.7257 82.7196 37.5661 82.8166 38.807Z" stroke="#FFD735"/>
<ellipse cx="2.00287" cy="1.30835" rx="2.00287" ry="1.30835" transform="matrix(0.554164 -0.832407 0.8134 0.581705 47.8325 54.0557)" fill="#FFC115"/>
<ellipse cx="1.60229" cy="2.18058" rx="1.60229" ry="2.18058" transform="matrix(0.554164 -0.832407 0.8134 0.581705 63.2671 59.188)" fill="#FFC115"/>
<ellipse cx="1.60229" cy="1.74446" rx="1.60229" ry="1.74446" transform="matrix(0.554164 -0.832407 0.8134 0.581705 74.3618 50.3867)" fill="#FFC115"/>
<ellipse cx="1.60229" cy="1.74446" rx="1.60229" ry="1.74446" transform="matrix(0.554164 -0.832407 0.8134 0.581705 76.4944 44.0371)" fill="#FFC115"/>
<path d="M48.1633 90.148C46.2036 89.6934 44.9499 90.3126 42.9427 91.7734C40.8418 93.3025 43.0481 95.8128 41.9427 97.9921C40.7204 100.402 39.3192 102.945 36.9427 102.656C34.9937 102.419 35.9427 99.5468 36.4427 97.4739C36.9428 95.401 32.3926 104.352 28.9427 103.174C27.2232 102.588 25.7644 101.221 26.9427 99.5468C27.9078 98.1758 30.6414 95.986 32.1524 95.1858C30.6456 95.7146 27.4247 96.595 26.4427 94.8828C25.275 92.8465 26.5823 90.5581 28.4427 89.1823C30.3501 87.7717 33.9429 89.1823 34.4427 89.1823C34.9426 89.1823 29.6743 86.8214 30.4427 84.5183C31.1453 82.4124 35.6198 82.9239 35.9262 82.9615C35.9379 82.963 35.9454 82.9623 35.9572 82.9619C36.4721 82.9417 42.0562 86.3438 44.9427 88.1459C46.555 89.1523 49.5862 87.3304 49.9138 87.1275C49.9336 87.1152 49.9466 87.0973 49.9538 87.0751L50.8435 84.3087C50.8736 84.2151 50.7627 84.1404 50.6851 84.2011C47.2177 86.914 47.2966 87.1169 44.4427 86.073C41.9627 85.1658 44.5486 83.3452 45.8834 82.9963C38.595 83.3929 36.719 82.3204 35.4427 79.336C34.1345 76.2767 39.9421 76.745 40.4427 76.7449C40.9434 76.7449 32.8395 74.2956 33.9427 71.0445C34.98 67.9879 39.1433 68.7168 40.2006 69.6396C39.9369 69.1505 39.6502 68.251 40.4427 67.4169C41.6068 66.1918 44.7812 69.0878 49.9427 75.7085C46.8296 71.518 43.533 67.8823 46.9427 66.3804C50.1182 64.9817 50.279 67.7202 51.3543 70.7966C51.3846 70.8834 51.5087 70.8872 51.5464 70.8033C51.8443 70.1416 52.7575 68.321 53.9427 67.9351C56.6099 67.0666 56.5431 71.8041 56.9427 74.672C57.3375 77.5047 57.6007 79.6384 55.9427 81.9272C53.8337 84.8387 48.7054 88.6624 48.4062 89.9444C48.3847 90.0368 48.2556 90.1694 48.1633 90.148Z" fill="#485510" stroke="#2D380E" stroke-width="0.5"/>
<path d="M41.9127 128.4C39.9885 119.882 39.6153 115.87 40.3521 110.764C40.3675 110.657 40.5215 110.648 40.554 110.751C42.4703 116.821 48.7224 119.487 61.9096 123.771C61.9174 123.773 61.9251 123.777 61.932 123.781C79.0836 134.497 91.043 135.836 120.921 121.184C134.391 112.782 141.013 107.141 148.421 92.6813C153.717 80.5756 156.399 74.6342 160.417 66.2611C160.42 66.255 160.422 66.2487 160.424 66.2422C160.687 65.2008 161.552 63.5952 167.741 54.0914C167.795 54.0089 167.926 54.0424 167.928 54.1409C168.042 60.2348 167.829 63.7168 166.931 69.8149C166.925 69.8537 166.897 69.8863 166.859 69.8978C165.7 70.2519 165.046 71.0503 163.921 74.0252C160.804 86.0779 158.897 92.7171 153.421 103.046C142.285 122.7 132.474 130.686 111.421 141.913C90.4716 151.76 79.5159 151.637 61.9401 137.264C61.9281 137.254 61.9133 137.247 61.8982 137.243C53.4427 135.326 49.085 133.386 41.954 128.461C41.9334 128.447 41.9183 128.425 41.9127 128.4Z" fill="#C07A30" stroke="#B46620"/>
<path d="M43.4039 115.983L40.6019 112.594C40.5417 112.522 40.4237 112.567 40.425 112.661C40.4983 117.889 40.715 121.205 41.9139 128.398C41.9185 128.425 41.9347 128.45 41.9576 128.465C50.322 134.061 54.736 135.57 62.3984 137.246C62.4132 137.249 62.4276 137.256 62.4395 137.265C66.5247 140.486 68.8212 142.245 72.9211 144.506C78.317 146.91 81.5638 148.06 88.9112 148.651C88.9177 148.651 88.9245 148.651 88.931 148.65C96.9048 147.732 101.182 146.626 108.421 143.469C120.278 137.094 126.613 132.865 137.415 124.3C137.419 124.297 137.423 124.293 137.427 124.289C145.863 115.08 150.123 109.217 156.421 96.8292C159.929 88.3032 161.321 83.3912 163.421 74.5455C164.07 71.1996 164.972 70.3261 166.876 69.3855C166.904 69.3716 166.925 69.3451 166.931 69.3143C167.118 68.3363 167.228 67.5149 167.42 65.7484C167.421 65.7401 167.421 65.7313 167.419 65.7231C167.026 62.9591 166.454 62.381 165.011 62.6112C164.96 62.6193 164.924 62.6687 164.928 62.72C165.281 68.182 159.432 66.2744 161.421 69.8815C163.421 73.5091 157.731 67.2685 158.921 71.4362C160.324 77.177 160.548 80.2041 159.081 84.461C159.045 84.5634 158.895 84.5416 158.886 84.4338C158.634 81.4926 157.878 80.3507 155.589 79.2861C155.517 79.2527 155.437 79.3146 155.449 79.3928C156.551 86.8132 156.381 90.7086 154.07 96.4636C154.031 96.5598 153.889 96.5408 153.876 96.4379C153.584 94.0698 153.087 92.9444 151.588 91.7741C151.521 91.7223 151.426 91.7745 151.429 91.8585C151.69 98.9561 151.36 102.489 148.559 105.988C148.505 106.054 148.398 106.026 148.383 105.942C147.802 102.725 147.199 101.461 146.112 99.7232C146.059 99.6374 145.926 99.6796 145.928 99.7808C146.057 106.62 145.637 109.844 143.553 113.203C143.505 113.28 143.389 113.259 143.369 113.171C142.759 110.44 141.655 109.404 139.577 107.83C139.512 107.781 139.419 107.828 139.417 107.909C139.21 116.682 138.253 120.939 133.104 125.183C133.036 125.238 132.933 125.185 132.939 125.097C133.266 120.754 132.666 118.558 131.6 115.037C131.567 114.928 131.406 114.949 131.402 115.063C131.169 121.811 130.271 125.703 124.934 132.053C124.926 132.063 124.915 132.072 124.903 132.078L123.205 132.958C123.118 133.003 123.025 132.906 123.07 132.819C125.559 127.963 124.959 125.066 124.922 120.317C124.921 120.202 124.758 120.177 124.725 120.288C122.859 126.644 122.534 130.806 117.421 135.696C116.046 137.17 115.29 137.717 114.147 138.195C114.064 138.23 113.984 138.144 114.019 138.062C115.975 133.501 115.608 130.609 114.97 125.706C114.957 125.604 114.815 125.588 114.776 125.683C109.967 137.339 106.945 143.301 98.0548 144.488C97.9889 144.497 97.9311 144.441 97.9419 144.375C98.4021 141.578 99.8744 138.238 102.489 132.498C102.539 132.388 102.385 132.299 102.315 132.398C98.4079 137.843 96.1721 140.605 93.1373 142.797C93.0626 142.851 92.9619 142.78 92.9828 142.691C94.0981 137.905 93.5649 135.808 92.5119 132.365C92.4836 132.272 92.3524 132.271 92.3212 132.363C90.6259 137.363 89.6836 140.312 85.0876 143.36C85.0194 143.405 84.9272 143.354 84.9308 143.272C85.0397 140.809 84.6375 139.354 83.5006 136.903C83.467 136.83 83.3643 136.827 83.3228 136.895C79.8094 142.686 77.7364 144.189 74.0519 144.495C73.9864 144.501 73.9333 144.441 73.9455 144.377C74.9669 139.002 76.3845 136.233 79.6963 131.847C79.7579 131.765 79.6718 131.65 79.5757 131.684C78.4415 132.091 77.4645 132.065 75.5332 131.089C75.4761 131.06 75.4051 131.093 75.3887 131.155C73.2715 139.173 71.6798 140.714 68.5128 140.37C68.4615 140.365 68.4221 140.32 68.4235 140.268C68.5158 136.86 68.9508 134.507 70.4675 130.214C70.5087 130.098 70.2101 129.948 70.0868 129.957C69.8578 129.975 69.6958 129.624 69.5356 128.963C69.5096 128.855 69.3405 128.855 69.3156 128.963C68.3624 133.093 64.6224 137.398 62.9211 136.214C61.6343 135.319 60.6594 129.811 61.3934 124.491C61.4046 124.409 61.3186 124.349 61.2455 124.387C60.0254 125.007 59.2247 125.065 57.7074 123.12C57.6409 123.034 57.4989 123.098 57.5214 123.204C58.4722 127.677 58.3633 129.58 56.9881 131.46C56.9529 131.508 56.8824 131.514 56.8392 131.473C53.1418 127.967 51.5239 125.221 49.1278 120.076C49.0819 119.978 48.9335 120.013 48.9373 120.122C49.0737 123.955 49.4133 126.226 51.2343 129.65C51.283 129.741 51.1772 129.838 51.0905 129.781C46.7603 126.936 44.7881 124.297 43.4256 116.031C43.4227 116.013 43.4152 115.996 43.4039 115.983Z" fill="#B46620" stroke="#B46620"/>
<path d="M86.3932 132.058C68.3363 126.932 58.4553 123.271 42.9626 110.335C42.9371 110.313 42.9233 110.28 42.9267 110.247C44.0962 98.9855 47.2726 92.7335 59.4211 81.7978L86.4079 62.633C86.4167 62.6267 86.4264 62.622 86.4367 62.6188L135.921 47.595C150.408 45.0389 160.274 41.1709 165.408 51.7129C165.416 51.7306 165.42 51.7518 165.417 51.7713C164.302 59.8777 161.37 63.126 156.928 69.3503C156.924 69.357 156.92 69.3645 156.917 69.372C150.668 85.2212 145.47 93.1696 135.925 107.185C135.923 107.189 135.919 107.193 135.916 107.196C120.712 123.715 107.877 125.853 86.449 132.058C86.431 132.063 86.4112 132.063 86.3932 132.058Z" fill="#F2B55F" stroke="#E1821B"/>
<ellipse cx="6.50208" cy="1.31992" rx="6.50208" ry="1.31992" transform="matrix(0.995355 -0.0962682 0.0896718 0.995971 108.421 103.261)" fill="#E98420"/>
<ellipse cx="6.50208" cy="1.31992" rx="6.50208" ry="1.31992" transform="matrix(0.995355 -0.0962682 0.0896718 0.995971 98.4211 94.9697)" fill="#E98420"/>
<ellipse cx="7.42868" cy="1.31955" rx="7.42868" ry="1.31955" transform="matrix(0.990971 0.134078 -0.124963 0.992161 119.751 88.5352)" fill="#E98420"/>
<ellipse cx="4.97345" cy="1.31694" rx="4.97345" ry="1.31694" transform="matrix(0.959674 0.281115 -0.263081 0.964774 133.114 75.0615)" fill="#E98420"/>
<ellipse cx="7.0558" cy="1.32028" rx="7.0558" ry="1.32028" transform="matrix(0.999575 -0.0291635 0.0271499 0.999631 122.478 69.6528)" fill="#E98420"/>
<ellipse cx="6.50208" cy="1.31992" rx="6.50208" ry="1.31992" transform="matrix(0.995355 -0.0962682 0.0896718 0.995971 114.421 64.9126)" fill="#E98420"/>
<ellipse cx="4.08676" cy="0.879545" rx="4.08676" ry="0.879545" transform="matrix(0.995355 -0.0962682 0.0896718 0.995971 109.421 61.3379)" fill="#E98420"/>
<ellipse cx="8.91079" cy="0.862471" rx="8.91079" ry="0.862471" transform="matrix(0.983138 0.182864 -0.17061 0.985339 131.871 53.2959)" fill="#E98420"/>
<ellipse cx="3.81878" cy="0.682933" rx="3.81878" ry="0.682933" transform="matrix(0.982622 0.185618 -0.173191 0.984888 140.624 59.0107)" fill="#E98420"/>
<ellipse cx="6.50208" cy="1.31992" rx="6.50208" ry="1.31992" transform="matrix(0.995355 -0.0962682 0.0896718 0.995971 86.4211 68.022)" fill="#E98420"/>
<ellipse cx="9.87559" cy="1.31992" rx="9.87559" ry="1.31992" transform="matrix(0.995355 -0.0962682 0.0896718 0.995971 93.4211 73.2041)" fill="#E98420"/>
<ellipse cx="10.0838" cy="1.32031" rx="10.0838" ry="1.32031" transform="matrix(0.999935 -0.0113648 0.0105796 0.999944 105.482 80.2876)" fill="#E98420"/>
<ellipse cx="9.10434" cy="1.31992" rx="9.10434" ry="1.31992" transform="matrix(0.995355 -0.0962682 0.0896718 0.995971 87.4211 87.7144)" fill="#E98420"/>
<ellipse cx="9.51565" cy="1.31811" rx="9.51565" ry="1.31811" transform="matrix(0.973832 -0.22727 0.212299 0.977205 78.3904 82.3765)" fill="#E98420"/>
<ellipse cx="6.52389" cy="1.31578" rx="6.52389" ry="1.31578" transform="matrix(0.945621 -0.325269 0.304954 0.952367 71.4211 78.269)" fill="#E98420"/>
<ellipse cx="6.51339" cy="1.31778" rx="6.51339" ry="1.31778" transform="matrix(0.969814 -0.243845 0.227901 0.973684 57.4211 90.6753)" fill="#E98420"/>
<ellipse cx="7.83763" cy="1.31718" rx="7.83763" ry="1.31718" transform="matrix(0.962614 -0.270876 0.253403 0.967361 66.4048 96.1494)" fill="#E98420"/>
<ellipse cx="9.59907" cy="1.69809" rx="9.59907" ry="1.69809" transform="matrix(0.961837 -0.273622 0.255998 0.966677 75.2109 104.76)" fill="#E98420"/>
<ellipse cx="6.50208" cy="1.31992" rx="6.50208" ry="1.31992" transform="matrix(0.995355 -0.0962682 0.0896718 0.995971 88.4211 110.516)" fill="#E98420"/>
<ellipse cx="6.50718" cy="1.31896" rx="6.50718" ry="1.31896" transform="matrix(0.983899 -0.178725 0.166731 0.986002 67.4211 120.918)" fill="#E98420"/>
<path d="M68.6366 108.766C68.8681 109.455 65.4138 111.328 60.9211 112.951C56.4285 114.573 53.6468 115.837 53.4153 115.148C53.1838 114.46 55.5902 112.08 60.0828 110.457C64.5754 108.835 68.4051 108.078 68.6366 108.766Z" fill="#E98420"/>
<path d="M60.4211 103.045C60.7966 103.662 55.7271 105.153 52.6913 107.139C49.6555 109.125 46.8901 110.235 46.5146 109.618C46.1391 109.001 48.2957 106.892 51.3315 104.906C54.3673 102.92 60.0456 102.429 60.4211 103.045Z" fill="#E98420"/>
<path fill-rule="evenodd" clip-rule="evenodd" d="M40.421 107.708C38.7318 117.199 51.8513 118.407 60.421 123.255C68.6659 127.919 73.5923 130.929 82.921 132.065C97.1744 133.801 105.749 129.201 118.421 122.219C127.525 117.203 132.616 113.663 139.421 105.635C145.72 98.2041 147.26 92.5017 151.921 83.87C157.263 73.9777 164.829 58.1516 164.92 57.9605C164.923 57.9546 164.92 57.9605 164.924 57.9552C165.048 57.7869 169.482 51.7424 165.421 48.1125C161.072 44.225 157.482 42.5261 151.421 43.4485C142.366 44.8265 137.325 45.9161 128.421 48.1125C117.54 50.7966 111.411 52.3832 100.921 56.4041C90.675 60.3313 85.0415 62.6046 75.421 68.3236C65.8428 74.0175 52.5386 85.8384 52.4218 85.9422C52.4182 85.9454 52.4234 85.94 52.4203 85.9438C52.3199 86.0634 42.102 98.2639 40.421 107.708ZM43.9212 108.745C41.9974 104.218 48.8685 95.3392 48.9209 95.2717C48.9225 95.2696 48.9218 95.2704 48.9232 95.2682C48.9682 95.1998 49.753 94.0098 50.9838 92.3243C51.4588 91.6738 52.0003 90.9494 52.5912 90.1873C54.6674 87.5098 57.355 84.3656 59.9212 82.3157C60.1296 82.1406 60.3358 81.9682 60.5397 81.7982C66.388 76.9229 70.4175 74.0831 75.421 71.2561C77.108 70.303 78.9057 69.3513 80.9212 68.3236C85.3115 66.301 88.9305 64.6464 92.4211 63.1421C93.1591 62.8241 93.8574 62.4838 94.5454 62.1413C95.656 61.5886 96.74 61.0302 97.9211 60.551C101.764 58.992 106.025 57.6685 110.921 55.8862C111.43 55.7258 111.93 55.568 112.421 55.4128C112.551 55.3718 112.68 55.331 112.809 55.2903C114.617 54.7196 116.312 54.1844 117.921 53.6801C123.626 51.8914 128.241 50.491 132.921 49.2704C135.195 48.6774 137.484 48.1267 139.921 47.5946C148.369 45.4149 152.899 44.6307 159.412 46.5554C159.418 46.5572 159.424 46.5598 159.43 46.5627C164.177 49.0283 165.369 50.8307 164.425 54.8334C164.423 54.844 164.419 54.8537 164.413 54.863C164.318 55.0148 163.412 56.4615 162.18 58.4781C161.432 59.7038 160.563 61.14 159.684 62.6239C158.534 64.5635 157.365 66.5846 156.421 68.3236C155.417 70.1735 154.592 71.8799 153.861 73.5066C153.218 74.9356 152.647 76.3031 152.09 77.6524C150.524 81.4478 149.066 85.1002 146.421 89.5716C146.188 89.9659 145.96 90.3526 145.736 90.7322C141.423 98.0586 138.795 102.739 132.421 108.745C126.624 114.208 122.097 117.074 115.921 119.879C114.231 120.646 112.418 121.409 110.421 122.219C99.6874 126.574 92.8502 129.474 81.4212 127.919C74.7774 127.016 65.065 121.211 64.4388 120.68C64.4235 120.667 64.4189 120.653 64.415 120.634C63.6402 116.727 67.9251 114.441 69.4212 112.373C70.9212 110.299 62.2512 118.366 56.9212 117.555C49.3333 115.847 45.8523 113.289 43.9212 108.745Z" fill="#B95205"/>
<path d="M60.5397 81.7982C84.0646 94.864 96.4137 103.001 115.921 119.879L121.293 117.104C121.355 117.072 121.364 116.986 121.312 116.939C100.677 98.3904 87.7583 90.4821 64.9803 78.2962C64.9449 78.2772 64.9008 78.2809 64.8696 78.3061L60.5397 81.7982Z" fill="#B95205"/>
<path d="M52.5912 90.1873C52.0003 90.9494 51.4588 91.6738 50.9838 92.3243L49.4761 94.6684C49.4459 94.7154 49.4611 94.7787 49.5085 94.8082C67.8725 106.234 77.6991 113.17 93.3823 127.367C93.4063 127.389 93.44 127.398 93.4716 127.391L100.241 125.887C100.318 125.87 100.344 125.772 100.287 125.717C83.591 109.456 72.9327 101.845 52.5912 90.1873Z" fill="#B95205"/>
<path d="M80.9212 68.3236C78.9057 69.3513 77.108 70.303 75.421 71.2561C99.0359 82.5471 111.393 91.0754 132.421 108.745L135.855 104.679C135.891 104.636 135.883 104.57 135.839 104.535C107.584 81.9662 96.1809 74.8095 80.9212 68.3236Z" fill="#B95205"/>
<path d="M145.736 90.7322C145.96 90.3526 146.188 89.9659 146.421 89.5716C130.009 75.6671 118.995 69.3666 97.9211 60.551L94.5454 62.1413C93.8574 62.4838 93.1591 62.8241 92.4211 63.1421C114.63 73.0562 126.184 79.7385 143.578 94.1597C143.625 94.199 143.698 94.1875 143.729 94.1345L145.736 90.7322Z" fill="#B95205"/>
<path d="M112.421 55.4128C128.803 62.4661 137.53 67.2729 152.09 77.6524C152.647 76.3031 153.218 74.9356 153.861 73.5066C140.746 63.1235 132.855 58.8879 117.921 53.6801C116.312 54.1844 114.617 54.7196 112.809 55.2903L112.421 55.4128Z" fill="#B95205"/>
<path d="M139.921 47.5946C137.484 48.1267 135.195 48.6774 132.921 49.2704C144.782 52.6962 151.099 55.0339 159.684 62.6239C160.563 61.14 161.432 59.7038 162.18 58.4781C153.78 52.0741 148.903 49.7619 139.921 47.5946Z" fill="#B95205"/>
<path d="M132.421 108.745C126.624 114.208 122.097 117.074 115.921 119.879M132.421 108.745C111.393 91.0754 99.0359 82.5471 75.421 71.2561M132.421 108.745L135.855 104.679C135.891 104.636 135.883 104.57 135.839 104.535C107.584 81.9662 96.1808 74.8095 80.9212 68.3236M132.421 108.745C138.795 102.739 141.423 98.0586 145.736 90.7322M146.421 89.5716C130.009 75.6671 118.995 69.3666 97.9211 60.551M146.421 89.5716C149.066 85.1002 150.524 81.4478 152.09 77.6524M146.421 89.5716C146.188 89.9659 145.96 90.3526 145.736 90.7322M146.421 89.5716L145.736 90.7322M139.921 47.5946C148.369 45.4149 152.899 44.6307 159.412 46.5554C159.418 46.5572 159.424 46.5598 159.43 46.5627C164.177 49.0283 165.369 50.8307 164.425 54.8334C164.423 54.844 164.419 54.8537 164.413 54.863C164.318 55.0148 163.412 56.4615 162.18 58.4781M139.921 47.5946C137.484 48.1267 135.195 48.6774 132.921 49.2704M139.921 47.5946C148.903 49.7619 153.78 52.0741 162.18 58.4781M110.921 55.8862C106.025 57.6685 101.764 58.992 97.9211 60.551M110.921 55.8862C111.43 55.7258 111.93 55.568 112.421 55.4128M110.921 55.8862L112.421 55.4128M80.9212 68.3236C78.9057 69.3513 77.108 70.303 75.421 71.2561M80.9212 68.3236C85.3115 66.301 88.9305 64.6464 92.4211 63.1421M115.921 119.879C114.231 120.646 112.418 121.409 110.421 122.219C99.6874 126.574 92.8502 129.474 81.4212 127.919C74.7774 127.016 65.065 121.211 64.4388 120.68C64.4235 120.667 64.4189 120.653 64.415 120.634C63.6402 116.727 67.9251 114.441 69.4212 112.373C70.9212 110.299 62.2512 118.366 56.9212 117.555C49.3333 115.847 45.8523 113.289 43.9212 108.745C41.9974 104.218 48.8685 95.3392 48.9209 95.2717C48.9225 95.2696 48.9218 95.2704 48.9232 95.2682C48.9682 95.1998 49.753 94.0098 50.9838 92.3243M115.921 119.879C96.4137 103.001 84.0646 94.864 60.5397 81.7982M115.921 119.879L121.293 117.104C121.355 117.072 121.364 116.986 121.312 116.939C100.677 98.3904 87.7583 90.4821 64.9803 78.2962C64.9449 78.2772 64.9008 78.2809 64.8696 78.3061L60.5397 81.7982M60.5397 81.7982C60.3358 81.9682 60.1296 82.1406 59.9212 82.3157C57.355 84.3656 54.6675 87.5098 52.5912 90.1873M60.5397 81.7982C66.388 76.9229 70.4175 74.0831 75.421 71.2561M92.4211 63.1421C114.63 73.0562 126.184 79.7385 143.578 94.1597C143.625 94.199 143.698 94.1875 143.729 94.1345L145.736 90.7322M92.4211 63.1421C93.1591 62.8241 93.8574 62.4838 94.5454 62.1413M92.4211 63.1421L94.5454 62.1413M97.9211 60.551L94.5454 62.1413M97.9211 60.551C96.74 61.0302 95.656 61.5886 94.5454 62.1413M152.09 77.6524C137.53 67.2729 128.803 62.4661 112.421 55.4128M152.09 77.6524C152.647 76.3031 153.218 74.9356 153.861 73.5066M112.421 55.4128L112.809 55.2903M112.421 55.4128C112.551 55.3718 112.68 55.331 112.809 55.2903M117.921 53.6801C132.855 58.8879 140.746 63.1235 153.861 73.5066M117.921 53.6801C123.626 51.8914 128.241 50.491 132.921 49.2704M117.921 53.6801C116.312 54.1844 114.617 54.7196 112.809 55.2903M153.861 73.5066C154.592 71.8799 155.417 70.1735 156.421 68.3236C157.365 66.5846 158.534 64.5635 159.684 62.6239M159.684 62.6239C151.099 55.0339 144.782 52.6962 132.921 49.2704M159.684 62.6239C160.563 61.14 161.432 59.7038 162.18 58.4781M52.5912 90.1873C52.0003 90.9494 51.4588 91.6738 50.9838 92.3243M52.5912 90.1873C72.9327 101.845 83.591 109.456 100.287 125.717C100.344 125.772 100.318 125.87 100.241 125.887L93.4716 127.391C93.44 127.398 93.4064 127.389 93.3823 127.367C77.6991 113.17 67.8725 106.234 49.5085 94.8082C49.4611 94.7787 49.4459 94.7154 49.4761 94.6684L50.9838 92.3243M52.5912 90.1873C52.562 90.1705 52.5327 90.1538 52.5035 90.137C52.4573 90.1105 52.3985 90.1249 52.3697 90.1697L50.9838 92.3243M40.421 107.708C38.7318 117.199 51.8513 118.407 60.421 123.255C68.6659 127.919 73.5923 130.929 82.921 132.065C97.1744 133.801 105.749 129.201 118.421 122.219C127.525 117.203 132.616 113.663 139.421 105.635C145.72 98.2041 147.26 92.5017 151.921 83.87C157.263 73.9777 164.829 58.1516 164.92 57.9605C164.923 57.9546 164.92 57.9605 164.924 57.9552C165.048 57.7869 169.482 51.7424 165.421 48.1125C161.072 44.225 157.482 42.5261 151.421 43.4485C142.366 44.8265 137.325 45.9161 128.421 48.1125C117.54 50.7966 111.411 52.3832 100.921 56.4041C90.675 60.3313 85.0415 62.6046 75.421 68.3236C65.8428 74.0175 52.5386 85.8384 52.4218 85.9422C52.4182 85.9454 52.4234 85.94 52.4203 85.9438C52.3199 86.0634 42.102 98.2639 40.421 107.708Z" stroke="#BD540B"/>
</svg>
