<svg width="433" height="175" viewBox="0 0 433 175" fill="none" xmlns="http://www.w3.org/2000/svg">
<path fill-rule="evenodd" clip-rule="evenodd" d="M381.321 159.367H51.4056C24.2349 159.367 2.00293 137.135 2.00293 109.964C2.00293 82.7935 24.2349 60.5615 51.4056 60.5615H381.321C408.491 60.5615 430.723 82.7935 430.723 109.964C430.723 137.135 408.491 159.367 381.321 159.367Z" fill="#EED8B1"/>
<path d="M28.9603 42.0732L0.262695 132.591L131.692 174.259L160.39 83.7411L28.9603 42.0732Z" fill="#F9ED9E"/>
<path d="M277.492 60.5538L140.672 77.665L152.457 171.896L289.277 154.785L277.492 60.5538Z" fill="#F9ED9E"/>
<path d="M408.144 46.4117L274.895 81.8474L299.3 173.619L432.549 138.183L408.144 46.4117Z" fill="#F9ED9E"/>
<path d="M65.2571 152.059C88.509 146.735 103.042 123.569 97.7184 100.318C92.3944 77.0657 69.2291 62.5322 45.9772 67.8562C22.7253 73.1802 8.19192 96.3455 13.5159 119.597C18.8399 142.849 42.0052 157.383 65.2571 152.059Z" fill="#C9515C"/>
<path d="M129.001 152.057C152.253 146.733 166.786 123.567 161.462 100.316C156.138 77.0637 132.973 62.5302 109.721 67.8542C86.469 73.1782 71.9356 96.3435 77.2596 119.595C82.5835 142.847 105.749 157.381 129.001 152.057Z" fill="#C83D45"/>
<path d="M192.603 152.081C215.872 146.831 230.479 123.712 225.228 100.444C219.978 77.175 196.86 62.568 173.591 67.8181C150.322 73.0681 135.715 96.187 140.966 119.456C146.216 142.724 169.334 157.331 192.603 152.081Z" fill="#C9515C"/>
<path d="M256.48 152.055C279.732 146.731 294.266 123.565 288.942 100.313C283.618 77.0615 260.452 62.528 237.2 67.852C213.949 73.176 199.415 96.3413 204.739 119.593C210.063 142.845 233.228 157.379 256.48 152.055Z" fill="#C83D45"/>
<path d="M349.214 129.3C359.857 107.953 351.181 82.0211 329.835 71.3779C308.489 60.7347 282.556 69.4111 271.913 90.7571C261.27 112.103 269.946 138.035 291.293 148.679C312.639 159.322 338.571 150.646 349.214 129.3Z" fill="#C9515C"/>
<path d="M412.346 130.427C423.669 109.431 415.828 83.2322 394.832 71.9092C373.837 60.5862 347.638 68.4272 336.315 89.4226C324.992 110.418 332.833 136.617 353.828 147.94C374.823 159.263 401.023 151.422 412.346 130.427Z" fill="#C83D45"/>
<path d="M403.299 122.819C387.597 122.863 379.491 120.207 372.337 117.86C365.961 115.772 360.915 114.117 349.97 114.149C339.017 114.18 333.986 115.86 327.619 117.984C320.477 120.37 312.386 123.073 296.684 123.117C280.991 123.16 272.884 120.504 265.738 118.158C259.362 116.066 254.329 114.415 243.387 114.446C232.438 114.478 227.408 116.157 221.044 118.285C213.906 120.671 205.815 123.375 190.118 123.418C174.424 123.462 166.326 120.806 159.176 118.46C152.8 116.372 147.766 114.716 136.82 114.748C125.883 114.78 120.857 116.459 114.497 118.587C107.363 120.973 99.2802 123.677 83.5907 123.72C67.9013 123.764 59.8024 121.108 52.6564 118.762C46.2846 116.669 41.2506 115.018 30.3133 115.05L30.2935 108.436C45.9829 108.392 54.0817 111.048 61.2277 113.394C67.5995 115.486 72.6335 117.138 83.5748 117.106C94.5161 117.074 99.5382 115.395 105.898 113.267C113.032 110.881 121.115 108.178 136.805 108.134C152.498 108.09 160.605 110.746 167.751 113.093C174.127 115.185 179.161 116.836 190.102 116.804C201.051 116.773 206.081 115.093 212.445 112.969C219.583 110.583 227.674 107.88 243.371 107.836C259.065 107.793 267.163 110.448 274.313 112.795C280.689 114.883 285.723 116.538 296.669 116.507C307.622 116.475 312.652 114.796 319.02 112.668C326.162 110.282 334.253 107.582 349.954 107.535C365.651 107.491 373.762 110.147 380.912 112.493C387.288 114.581 392.334 116.237 403.287 116.205L403.299 122.819Z" fill="#EFC359"/>
<path d="M403.267 111.493C387.566 111.536 379.459 108.88 372.305 106.534C365.929 104.446 360.883 102.79 349.934 102.822C338.981 102.854 333.951 104.533 327.583 106.657C320.441 109.043 312.35 111.747 296.649 111.79C280.955 111.834 272.849 109.178 265.703 106.832C259.327 104.74 254.293 103.088 243.351 103.12C232.402 103.152 227.372 104.831 221.008 106.955C213.87 109.341 205.779 112.044 190.082 112.088C174.389 112.132 166.29 109.476 159.144 107.13C152.768 105.041 147.734 103.386 136.789 103.418C125.847 103.449 120.825 105.129 114.465 107.257C107.331 109.643 99.2484 112.346 83.5589 112.39C67.8695 112.434 59.7707 109.778 52.6247 107.431C46.2529 105.339 41.2189 103.688 30.2815 103.719L30.2617 97.1053C45.9512 97.0617 54.0499 99.7176 61.1959 102.064C67.5678 104.156 72.6018 105.808 83.5391 105.776C94.4765 105.744 99.5025 104.065 105.862 101.937C112.997 99.5548 121.079 96.8513 136.769 96.8036C152.462 96.7599 160.565 99.4159 167.715 101.762C174.091 103.854 179.125 105.506 190.066 105.474C201.015 105.442 206.045 103.763 212.409 101.639C219.547 99.2531 227.638 96.5495 243.336 96.5059C259.029 96.4622 267.128 99.1181 274.274 101.464C280.65 103.553 285.684 105.208 296.629 105.176C307.582 105.145 312.612 103.465 318.98 101.337C326.122 98.9514 334.213 96.2478 349.914 96.2041C365.612 96.1605 373.722 98.8164 380.872 101.163C387.248 103.255 392.29 104.906 403.247 104.875L403.267 111.493Z" fill="#E7C6C7"/>
<path d="M381.321 99.5945H51.4056C24.2349 99.5945 2.00293 77.3625 2.00293 50.1919C2.00293 23.0212 24.2349 0.789185 51.4056 0.789185H381.321C408.491 0.789185 430.723 23.0212 430.723 50.1919C430.723 77.3625 408.491 99.5945 381.321 99.5945Z" fill="#EFC359"/>
<path d="M54.4669 66.7745C49.8974 66.7745 46.1616 63.0348 46.1616 58.4693V19.1226C46.1616 14.5531 49.9014 10.8134 54.4669 10.8134C59.0364 10.8134 62.7721 14.5531 62.7721 19.1226V58.4693C62.7761 63.0387 59.0364 66.7745 54.4669 66.7745Z" fill="#F7EB98"/>
<path d="M107.959 66.7745C103.389 66.7745 99.6533 63.0348 99.6533 58.4693V19.1226C99.6533 14.5531 103.393 10.8134 107.959 10.8134C112.528 10.8134 116.264 14.5531 116.264 19.1226V58.4693C116.264 63.0387 112.528 66.7745 107.959 66.7745Z" fill="#F7EB98"/>
<path d="M161.45 66.7745C156.881 66.7745 153.145 63.0348 153.145 58.4693V19.1226C153.145 14.5531 156.885 10.8134 161.45 10.8134C166.02 10.8134 169.756 14.5531 169.756 19.1226V58.4693C169.756 63.0387 166.02 66.7745 161.45 66.7745Z" fill="#F7EB98"/>
<path d="M214.942 66.7745C210.373 66.7745 206.637 63.0348 206.637 58.4693V19.1226C206.637 14.5531 210.377 10.8134 214.942 10.8134C219.511 10.8134 223.247 14.5531 223.247 19.1226V58.4693C223.247 63.0387 219.511 66.7745 214.942 66.7745Z" fill="#F7EB98"/>
<path d="M268.43 66.7745C263.86 66.7745 260.125 63.0348 260.125 58.4693V19.1226C260.125 14.5531 263.864 10.8134 268.43 10.8134C272.999 10.8134 276.735 14.5531 276.735 19.1226V58.4693C276.739 63.0387 272.999 66.7745 268.43 66.7745Z" fill="#F7EB98"/>
<path d="M321.921 66.7745C317.352 66.7745 313.616 63.0348 313.616 58.4693V19.1226C313.616 14.5531 317.356 10.8134 321.921 10.8134C326.491 10.8134 330.227 14.5531 330.227 19.1226V58.4693C330.231 63.0387 326.491 66.7745 321.921 66.7745Z" fill="#F7EB98"/>
<path d="M375.414 66.7745C370.844 66.7745 367.108 63.0348 367.108 58.4693V19.1226C367.108 14.5531 370.848 10.8134 375.414 10.8134C379.983 10.8134 383.719 14.5531 383.719 19.1226V58.4693C383.719 63.0387 379.983 66.7745 375.414 66.7745Z" fill="#F7EB98"/>
</svg>
