<svg width="200" height="81" viewBox="0 0 200 81" fill="none" xmlns="http://www.w3.org/2000/svg">
<g clip-path="url(#clip0_971_15523)">
<path fill-rule="evenodd" clip-rule="evenodd" d="M176.13 73.7641H23.7437C11.1937 73.7641 0.924897 63.4739 0.924897 50.8976C0.924897 38.3215 11.1937 28.0313 23.7437 28.0313H176.13C188.679 28.0313 198.948 38.3215 198.948 50.8976C198.948 63.4739 188.679 73.7641 176.13 73.7641Z" fill="#EED8B1"/>
<path d="M13.3763 19.4738L0.121094 61.3706L60.8275 80.657L74.0829 38.7601L13.3763 19.4738Z" fill="#F9ED9E"/>
<path d="M128.172 28.0277L64.9753 35.9478L70.4187 79.5632L133.615 71.6433L128.172 28.0277Z" fill="#F9ED9E"/>
<path d="M188.519 21.4819L126.972 37.8836L138.245 80.3608L199.791 63.9589L188.519 21.4819Z" fill="#F9ED9E"/>
<path d="M30.1416 70.3815C40.8815 67.9173 47.5942 57.1947 45.1353 46.4329C42.6762 35.6704 31.9762 28.9434 21.2363 31.4077C10.4964 33.8719 3.78355 44.5942 6.24267 55.3563C8.70179 66.1186 19.4017 72.8458 30.1416 70.3815Z" fill="#C9515C"/>
<path d="M59.5845 70.3806C70.3245 67.9164 77.0372 57.1938 74.578 46.4319C72.1189 35.6694 61.4192 28.9425 50.6792 31.4068C39.9392 33.871 33.2264 44.5932 35.6855 55.3554C38.1446 66.1177 48.8446 72.8449 59.5845 70.3806Z" fill="#C83D45"/>
<path d="M88.9619 70.3917C99.7097 67.9617 106.457 57.2609 104.031 46.4912C101.606 35.721 90.9282 28.96 80.1804 31.39C69.4326 33.82 62.6857 44.5208 65.1111 55.291C67.536 66.0608 78.2141 72.8217 88.9619 70.3917Z" fill="#C9515C"/>
<path d="M118.466 70.3797C129.206 67.9154 135.919 57.1929 133.46 46.4305C131.001 35.6684 120.301 28.9415 109.561 31.4057C98.8215 33.87 92.1083 44.5922 94.5674 55.3544C97.0265 66.1168 107.726 72.8439 118.466 70.3797Z" fill="#C83D45"/>
<path d="M161.3 59.8474C166.215 49.9668 162.208 37.964 152.348 33.0377C142.489 28.1114 130.511 32.1274 125.595 42.0075C120.679 51.8876 124.686 63.8904 134.546 68.8171C144.406 73.7433 156.384 69.7275 161.3 59.8474Z" fill="#C9515C"/>
<path d="M190.46 60.369C195.69 50.6509 192.068 38.5246 182.37 33.2836C172.673 28.0427 160.572 31.672 155.342 41.3898C150.112 51.1077 153.733 63.2341 163.431 68.475C173.128 73.716 185.23 70.0867 190.46 60.369Z" fill="#C83D45"/>
<path d="M186.281 56.8476C179.028 56.868 175.284 55.6386 171.98 54.5523C169.035 53.5858 166.704 52.8198 161.649 52.8346C156.59 52.849 154.266 53.6266 151.325 54.6097C148.026 55.7141 144.289 56.9652 137.036 56.9855C129.788 57.0054 126.043 55.7761 122.742 54.6902C119.797 53.7219 117.473 52.9578 112.419 52.9721C107.361 52.9869 105.038 53.7641 102.099 54.749C98.8016 55.8534 95.0644 57.105 87.8141 57.1249C80.5651 57.1452 76.8247 55.9159 73.5222 54.83C70.5771 53.8636 68.252 53.0971 63.1961 53.1119C58.1443 53.1267 55.8228 53.9038 52.8852 54.8888C49.5901 55.9932 45.8567 57.2447 38.6098 57.2646C31.3629 57.285 27.6221 56.0557 24.3214 54.9698C21.3783 54.001 19.0532 53.2369 14.0013 53.2517L13.9921 50.1903C21.239 50.17 24.9798 51.3993 28.2804 52.4852C31.2235 53.4535 33.5487 54.2181 38.6024 54.2033C43.6562 54.1885 45.9758 53.4114 48.9134 52.4264C52.2085 51.322 55.942 50.0709 63.1891 50.0505C70.4376 50.0302 74.1822 51.2595 77.4829 52.3459C80.4279 53.3142 82.7531 54.0783 87.8067 54.0635C92.864 54.0492 95.1873 53.2716 98.1268 52.2885C101.424 51.1841 105.161 49.933 112.411 49.9126C119.66 49.8927 123.401 51.1216 126.703 52.2079C129.648 53.1744 131.973 53.9404 137.029 53.9261C142.088 53.9112 144.412 53.1341 147.353 52.1491C150.652 51.0448 154.389 49.7951 161.641 49.7733C168.892 49.7529 172.638 50.9823 175.941 52.0681C178.886 53.0346 181.216 53.8011 186.276 53.7863L186.281 56.8476Z" fill="#EFC359"/>
<path d="M186.266 51.6053C179.014 51.6252 175.27 50.3958 171.965 49.31C169.02 48.3435 166.689 47.577 161.632 47.5919C156.573 47.6067 154.25 48.3838 151.308 49.3669C148.009 50.4713 144.272 51.7229 137.02 51.7428C129.771 51.7631 126.027 50.5338 122.726 49.4479C119.781 48.4796 117.456 47.715 112.402 47.7298C107.345 47.7446 105.021 48.5217 102.082 49.5048C98.785 50.6092 95.0478 51.8603 87.7975 51.8807C80.549 51.9011 76.8081 50.6717 73.5074 49.5858C70.5623 48.6189 68.2372 47.8529 63.1817 47.8677C58.1277 47.8821 55.8081 48.6597 52.8704 49.6446C49.5753 50.749 45.842 52.0001 38.5951 52.0205C31.3483 52.0408 27.6075 50.8115 24.3068 49.7252C21.3637 48.7569 19.0385 47.9927 13.9866 48.007L13.9774 44.9458C21.2243 44.9257 24.9651 46.155 28.2658 47.241C31.2089 48.2093 33.5341 48.9739 38.5859 48.9591C43.6379 48.9443 45.9593 48.1672 48.8968 47.1822C52.1924 46.0796 55.9254 44.8283 63.1725 44.8062C70.421 44.786 74.1637 46.0153 77.4663 47.1012C80.4113 48.0695 82.7365 48.8342 87.7901 48.8193C92.8473 48.8045 95.1707 48.0274 98.1102 47.0443C101.407 45.94 105.144 44.6886 112.395 44.6684C119.644 44.6482 123.385 45.8775 126.685 46.9633C129.63 47.9302 131.955 48.6962 137.011 48.6814C142.07 48.6671 144.393 47.8895 147.335 46.9045C150.633 45.8003 154.371 44.5489 161.623 44.5287C168.874 44.5085 172.62 45.7378 175.922 46.824C178.867 47.7923 181.196 48.5564 186.257 48.5421L186.266 51.6053Z" fill="#E7C6C7"/>
<path d="M176.13 46.098H23.7437C11.1937 46.098 0.924897 35.8077 0.924897 23.2316C0.924897 10.6555 11.1937 0.365234 23.7437 0.365234H176.13C188.679 0.365234 198.948 10.6555 198.948 23.2316C198.948 35.8077 188.679 46.098 176.13 46.098Z" fill="#EFC359"/>
<path d="M25.1577 30.907C23.0471 30.907 21.3215 29.1761 21.3215 27.0629V8.85099C21.3215 6.73596 23.0489 5.00501 25.1577 5.00501C27.2683 5.00501 28.9938 6.73596 28.9938 8.85099V27.0629C28.9956 29.1779 27.2683 30.907 25.1577 30.907Z" fill="#F7EB98"/>
<path d="M49.8653 30.907C47.7545 30.907 46.029 29.1761 46.029 27.0629V8.85099C46.029 6.73596 47.7563 5.00501 49.8653 5.00501C51.9757 5.00501 53.7014 6.73596 53.7014 8.85099V27.0629C53.7014 29.1779 51.9757 30.907 49.8653 30.907Z" fill="#F7EB98"/>
<path d="M74.5725 30.907C72.4621 30.907 70.7365 29.1761 70.7365 27.0629V8.85099C70.7365 6.73596 72.464 5.00501 74.5725 5.00501C76.6834 5.00501 78.409 6.73596 78.409 8.85099V27.0629C78.409 29.1779 76.6834 30.907 74.5725 30.907Z" fill="#F7EB98"/>
<path d="M99.2801 30.907C97.1697 30.907 95.4441 29.1761 95.4441 27.0629V8.85099C95.4441 6.73596 97.1716 5.00501 99.2801 5.00501C101.391 5.00501 103.116 6.73596 103.116 8.85099V27.0629C103.116 29.1779 101.391 30.907 99.2801 30.907Z" fill="#F7EB98"/>
<path d="M123.986 30.907C121.875 30.907 120.15 29.1761 120.15 27.0629V8.85099C120.15 6.73596 121.877 5.00501 123.986 5.00501C126.096 5.00501 127.822 6.73596 127.822 8.85099V27.0629C127.824 29.1779 126.096 30.907 123.986 30.907Z" fill="#F7EB98"/>
<path d="M148.693 30.907C146.583 30.907 144.857 29.1761 144.857 27.0629V8.85099C144.857 6.73596 146.585 5.00501 148.693 5.00501C150.804 5.00501 152.53 6.73596 152.53 8.85099V27.0629C152.531 29.1779 150.804 30.907 148.693 30.907Z" fill="#F7EB98"/>
<path d="M173.401 30.907C171.29 30.907 169.565 29.1761 169.565 27.0629V8.85099C169.565 6.73596 171.292 5.00501 173.401 5.00501C175.512 5.00501 177.237 6.73596 177.237 8.85099V27.0629C177.237 29.1779 175.512 30.907 173.401 30.907Z" fill="#F7EB98"/>
</g>
<defs>
<clipPath id="clip0_971_15523">
<rect width="200" height="81" fill="white"/>
</clipPath>
</defs>
</svg>
