<svg width="200" height="200" viewBox="0 0 200 200" fill="none" xmlns="http://www.w3.org/2000/svg">
<path d="M187.696 89.2677C187.857 87.5898 187.962 85.903 187.962 84.1936C187.962 46.3241 148.324 15.6257 99.429 15.6257C50.5321 15.6257 10.8923 46.3241 10.8923 84.1936C10.8923 85.903 11.0011 87.5898 11.1588 89.2677H187.696Z" fill="#FDBE10"/>
<path d="M11.7159 146.122C11.5665 147.449 11.4652 148.794 11.4652 150.17C11.4652 165.457 20.8503 177.841 32.4282 177.841H167.572C179.152 177.841 188.535 165.457 188.535 150.17C188.535 148.794 188.436 147.449 188.289 146.122H11.7159Z" fill="#FDBE10"/>
<path d="M192.914 126.562C192.914 137.287 185.993 145.983 177.458 145.983H22.3921C13.8562 145.983 6.93555 137.287 6.93555 126.562C6.93555 115.833 13.8562 107.134 22.3921 107.134H177.458C185.993 107.134 192.914 115.833 192.914 126.562Z" fill="#673B16"/>
<path d="M183.349 89.2676H15.1759V102.163H183.349V89.2676Z" fill="#E31C3A"/>
<path d="M183.391 101.133H13.1507V107.97H93.9303C93.6723 109.015 93.523 110.096 93.523 111.216C93.523 118.96 100.001 125.24 107.988 125.24C111.911 125.24 115.459 123.725 118.064 121.268C122.013 128.556 129.357 133.464 137.784 133.464C150.384 133.464 160.599 122.523 160.599 109.021C160.599 108.666 160.564 108.32 160.55 107.97H183.391V101.133Z" fill="#94B73D"/>
<path d="M61.756 57.4398C61.756 60.1972 57.453 62.433 52.1412 62.433C46.8279 62.433 42.5226 60.1972 42.5226 57.4398C42.5226 54.6821 46.8279 52.4465 52.1412 52.4465C57.4531 52.4465 61.756 54.6821 61.756 57.4398Z" fill="#F1932E"/>
<path d="M87.2857 42.3152C87.2857 45.0727 82.9809 47.3111 77.6676 47.3111C72.3578 47.3111 68.0531 45.0727 68.0531 42.3152C68.0531 39.5601 72.3578 37.3264 77.6676 37.3264C82.9809 37.3264 87.2857 39.5601 87.2857 42.3152Z" fill="#F1932E"/>
<path d="M110.188 56.1758C110.188 58.9336 105.884 61.1691 100.572 61.1691C95.259 61.1691 90.9557 58.9336 90.9557 56.1758C90.9557 53.418 95.259 51.1845 100.572 51.1845C105.884 51.1845 110.188 53.418 110.188 56.1758Z" fill="#F1932E"/>
<path d="M134.545 44.0428C134.545 46.8003 130.24 49.036 124.928 49.036C119.618 49.036 115.313 46.8003 115.313 44.0428C115.313 41.2854 119.618 39.0496 124.928 39.0496C130.24 39.0496 134.545 41.2854 134.545 44.0428Z" fill="#F1932E"/>
<path d="M153.091 61.1691C153.091 63.9268 148.786 66.1627 143.475 66.1627C138.161 66.1627 133.859 63.9268 133.859 61.1691C133.859 58.4117 138.161 56.1758 143.475 56.1758C148.786 56.1758 153.091 58.4117 153.091 61.1691Z" fill="#F1932E"/>
</svg>
