<svg height="200" version="1.1" viewBox="457.5,146,700,700"
     width="200" xmlns="http://www.w3.org/2000/svg">
  <defs>
    <clipPath id="clip-1">
      <rect fill="none" height="183" id="clip-1" transform="scale(2.79487,3.23497)" width="234" x="171.92202"
            y="61.82432"/>
    </clipPath>
  </defs>
  <g fill="none" fill-rule="nonzero" font-family="none" font-size="none" font-weight="none" stroke="none"
     stroke-dasharray="" stroke-dashoffset="0" stroke-linecap="butt" stroke-linejoin="miter" stroke-miterlimit="10"
     stroke-width="1" style="mix-blend-mode: normal" text-anchor="none">
    <g>
      <g id="stage">
        <g id="layer1 1">
          <g clip-path="url(#clip-1)" id="Group 1">
            <path
              d="M1114.43562,458.43647c0.56456,-5.87277 0.93069,-11.77659 0.93069,-17.75935c0,-132.5433 -138.73185,-239.98758 -309.86464,-239.98758c-171.13894,0 -309.87825,107.44428 -309.87825,239.98758c0,5.98276 0.38069,11.88658 0.93248,17.75935z"
              fill="#fdbe10" id="Path 1"/>
            <path
              d="M498.50579,657.42514c-0.52272,4.64542 -0.87723,9.35231 -0.87723,14.16918c0,53.50321 32.84776,96.84861 73.37033,96.84861h473.00438c40.52844,0 73.36818,-43.3454 73.36818,-96.84861c0,-4.81687 -0.34656,-9.52376 -0.86082,-14.16918z"
              fill="#fdbe10" id="Path 1"/>
            <path
              d="M1132.7001,588.96664c0,37.53862 -24.22315,67.97325 -54.09754,67.97325h-542.73001c-29.8755,0 -54.09793,-30.43462 -54.09793,-67.97325c0,-37.55156 24.22243,-67.99816 54.09793,-67.99816h542.73001c29.87438,0 54.09754,30.44659 54.09754,67.99816z"
              fill="#673b16" id="Path 1"/>
            <path d="M1099.22033,458.43614h-588.60447v45.13337h588.60447z" fill="#e31c3a" id="Path 1"/>
            <path
              d="M1099.36846,499.96414h-595.84079v23.93103h282.7285c-0.90274,3.65552 -1.42538,7.44044 -1.42538,11.36122c0,27.1026 22.672,49.08424 50.6291,49.08424c13.72841,0 26.14603,-5.30536 35.2629,-13.90391c13.82344,25.50776 39.52787,42.68546 69.02215,42.68546c44.10028,0 79.85228,-38.29237 79.85228,-85.54885c0,-1.24223 -0.12297,-2.45534 -0.17049,-3.67816h79.94172z"
              fill="#94b73d" id="Path 1"/>
            <path
              d="M673.64632,347.03889c0,9.65089 -15.06045,17.47597 -33.65193,17.47597c-18.59652,0 -33.66507,-7.82508 -33.66507,-17.47597c0,-9.65219 15.06855,-17.47662 33.66507,-17.47662c18.59149,0 33.65193,7.82443 33.65193,17.47662z"
              fill="#f1932e" id="Path 1"/>
            <path
              d="M763.00005,294.10277c0,9.65122 -15.06659,17.48567 -33.66311,17.48567c-18.5845,0 -33.65082,-7.83446 -33.65082,-17.48567c0,-9.64281 15.06632,-17.46109 33.65082,-17.46109c18.59652,0 33.66311,7.81828 33.66311,17.46109z"
              fill="#f1932e" id="Path 1"/>
            <path
              d="M843.15977,342.61474c0,9.65219 -15.06715,17.47662 -33.65864,17.47662c-18.59428,0 -33.65585,-7.82443 -33.65585,-17.47662c0,-9.65219 15.06156,-17.4695 33.65585,-17.4695c18.59149,0 33.65864,7.81731 33.65864,17.4695z"
              fill="#f1932e" id="Path 1"/>
            <path
              d="M928.40615,300.14925c0,9.65122 -15.06715,17.47629 -33.65864,17.47629c-18.5831,0 -33.65026,-7.82508 -33.65026,-17.47629c0,-9.65089 15.06715,-17.47629 33.65026,-17.47629c18.59149,0 33.65864,7.8254 33.65864,17.47629z"
              fill="#f1932e" id="Path 1"/>
            <path
              d="M993.31985,360.09136c0,9.65186 -15.06715,17.47759 -33.65864,17.47759c-18.59708,0 -33.65585,-7.82572 -33.65585,-17.47759c0,-9.65089 15.05877,-17.47662 33.65585,-17.47662c18.59149,0 33.65864,7.82572 33.65864,17.47662z"
              fill="#f1932e" id="Path 1"/>
          </g>
        </g>
      </g>
    </g>
  </g>
</svg>
