<svg width="200" height="200" viewBox="0 0 200 200" fill="none" xmlns="http://www.w3.org/2000/svg">
<ellipse cx="99.5" cy="102.143" rx="87.5" ry="57.8571" fill="#DD8D0E"/>
<path d="M99.5 41C123.496 41 145.175 47.374 160.824 57.626C176.482 67.8836 186 81.9392 186 97.3213C186 112.703 176.482 126.76 160.824 137.018C145.175 147.27 123.496 153.643 99.5 153.643C75.504 153.643 53.8252 147.27 38.1758 137.018C22.5178 126.76 13 112.703 13 97.3213C13.0001 81.9392 22.518 67.8836 38.1758 57.626C53.8252 47.374 75.504 41 99.5 41Z" fill="#F5B322" stroke="#ECA10C" stroke-width="2"/>
<path d="M100.021 51.7144C116.969 51.7144 132.267 56.229 143.298 63.4751C154.337 70.7268 161 80.6308 161 91.4282C161 102.226 154.337 112.131 143.298 119.382C132.267 126.628 116.969 131.143 100.021 131.143C83.0731 131.143 67.7748 126.629 56.7439 119.382C45.7046 112.131 39.0417 102.226 39.0417 91.4282C39.0419 80.6308 45.7048 70.7267 56.7439 63.4751C67.7748 56.2289 83.0731 51.7144 100.021 51.7144Z" fill="#3C1335" stroke="#ECA312" stroke-width="2"/>
<path d="M72.919 94.3248C68.8663 91.7474 67.8808 86.6622 70.8357 86.2891C92.8051 101.913 106.617 100.57 134.377 76.6462C135.432 75.1404 145.964 81.6137 145.315 91.1105C144.453 103.724 132.295 106.889 120.836 111.468C111.664 115.132 105.671 114.982 95.8358 114.682C87.1791 114.418 81.7738 112.539 73.9608 110.932C66.1478 109.325 74.5952 106.744 76.565 105.575C85.065 100.531 98.4615 114.985 113.023 107.718C124.294 102.093 129.907 100.756 134.377 97.5391C143.914 90.6749 141.222 82.6806 136.982 83.6105C138.151 86.5358 124.265 92.2625 116.669 96.4676C109.331 100.53 106.539 107.344 96.3566 106.11C86.2384 104.885 76.9718 96.9022 72.919 94.3248Z" fill="#160F17"/>
<path d="M59.3775 98.6105C60.6073 97.4469 66.5733 99.2861 66.1483 98.0748L69.3439 99.953C69.6635 99.896 69.8325 99.9634 69.7941 100.218L69.3439 99.953C67.7645 100.235 62.507 103.553 60.4191 102.36C59.1247 101.621 58.2877 99.6416 59.3775 98.6105Z" fill="#160F17"/>
<path d="M72.919 94.3248C68.8663 91.7474 67.8808 86.6622 70.8357 86.2891C92.8051 101.913 106.617 100.57 134.377 76.6462C135.432 75.1404 145.964 81.6137 145.315 91.1105C144.453 103.724 132.295 106.889 120.836 111.468C111.664 115.132 105.671 114.982 95.8358 114.682C87.1791 114.418 81.7738 112.539 73.9608 110.932C66.1478 109.325 74.5952 106.744 76.565 105.575C85.065 100.531 98.4615 114.985 113.023 107.718C124.294 102.093 129.907 100.756 134.377 97.5391C143.914 90.6749 141.222 82.6806 136.982 83.6105C138.151 86.5358 124.265 92.2625 116.669 96.4676C109.331 100.53 106.539 107.344 96.3566 106.11C86.2384 104.885 76.9718 96.9022 72.919 94.3248Z" stroke="#140912" stroke-width="0.1"/>
<path d="M59.3775 98.6105C60.6073 97.4469 66.5733 99.2861 66.1483 98.0748L69.3439 99.953C69.6635 99.896 69.8325 99.9634 69.7941 100.218L69.3439 99.953C67.7645 100.235 62.507 103.553 60.4191 102.36C59.1247 101.621 58.2877 99.6416 59.3775 98.6105Z" stroke="#140912" stroke-width="0.1"/>
<path d="M97.3584 97.8789V82.9503C97.3584 82.566 97.5832 82.2135 97.9295 82.0467C112.216 75.1669 120.43 70.8351 133.559 62.2785C134.169 61.8815 134.986 62.2447 135.095 62.9637C135.841 67.9276 136.099 71.1903 134.935 76.6151C134.886 76.8399 134.757 77.0445 134.577 77.1869C122.268 86.8974 113.847 91.5558 98.7893 98.7797C98.1263 99.0978 97.3584 98.6143 97.3584 97.8789Z" fill="#A85301" stroke="#A85301"/>
<path d="M70.7553 86.523C70.2038 79.9247 70.2052 75.9586 70.6869 69.7431C70.7389 69.0723 71.4305 68.648 72.0545 68.8997C81.7577 72.8139 87.611 75.3912 97.3943 81.0803C97.6938 81.2545 97.8847 81.575 97.893 81.9213C98.0507 88.4853 97.9866 92.546 97.465 99.2138C97.4131 99.8761 96.7374 100.302 96.1168 100.065C86.242 96.2935 80.4729 93.4783 71.1968 87.271C70.9451 87.1026 70.7805 86.8247 70.7553 86.523Z" fill="#E08001" stroke="#E08001"/>
<path d="M97.0319 81.2444C84.4967 72.238 78.4227 69.7843 73.1813 68.8871C72.3909 68.7518 72.0278 67.8044 72.5796 67.2226C77.4507 62.0867 83.2413 59.0194 96.3167 54.1579C102.832 51.2943 106.481 50.1921 112.983 50.9436C123.043 53.1898 134.301 60.2927 132.775 61.6579L130.805 63.6847C130.73 63.7616 130.641 63.8268 130.546 63.8762C118.834 69.9513 112.104 73.5184 99.2411 81.2859C99.0367 81.4093 98.8795 81.6052 98.8042 81.8317C98.1199 83.8923 97.9199 84.3506 97.8792 84.1579L97.4339 81.868C97.3853 81.6183 97.2385 81.3928 97.0319 81.2444Z" fill="#F3A115" stroke="#F3A115"/>
<path d="M95.3333 79.8737C88.978 76.2073 76.0414 69.7031 75.5416 70.2308L73.4583 69.1594C74.8067 68.8745 75.5047 68.8299 76.5833 69.1594C83.8725 71.9502 87.4399 74.0162 93.7708 77.7308C95.6731 78.9229 97.1836 79.2738 102.104 78.2665C100.325 80.3505 98.9053 80.8084 95.3333 79.8737Z" fill="#F9DF50" stroke="#FDD849" stroke-width="0.1"/>
<path d="M103.146 73.7498C96.8821 69.0525 81.0149 61.8865 79.7083 62.4998L80.7499 61.9641C91.491 63.8118 97.5642 64.775 105.229 71.0712C107.186 73.3957 106.667 73.9534 103.146 73.7498Z" fill="#DB7A04"/>
<path d="M91.6874 56.6069L89.0833 57.6784C99.7566 60.156 113.998 67.6275 114.083 68.3926C117.388 68.3044 117.797 67.7252 115.646 65.7141C115.204 64.9097 102.087 58.2871 91.6874 56.6069Z" fill="#DB7A04"/>
<path d="M102.104 52.8569L98.9791 53.9284C109.12 56.0617 114.461 57.6146 121.896 62.4998C126.854 64.137 126.29 63.2263 123.979 60.8926C116.375 55.5118 111.349 54.317 102.104 52.8569Z" fill="#DB7A04"/>
<path d="M103.146 73.7498C96.8821 69.0525 81.0149 61.8865 79.7083 62.4998L80.7499 61.9641C91.491 63.8118 97.5642 64.775 105.229 71.0712C107.186 73.3957 106.667 73.9534 103.146 73.7498Z" stroke="#D97706" stroke-width="0.1"/>
<path d="M91.6874 56.6069L89.0833 57.6784C99.7566 60.156 113.998 67.6275 114.083 68.3926C117.388 68.3044 117.797 67.7252 115.646 65.7141C115.204 64.9097 102.087 58.2871 91.6874 56.6069Z" stroke="#D97706" stroke-width="0.1"/>
<path d="M102.104 52.8569L98.9791 53.9284C109.12 56.0617 114.461 57.6146 121.896 62.4998C126.854 64.137 126.29 63.2263 123.979 60.8926C116.375 55.5118 111.349 54.317 102.104 52.8569Z" stroke="#D97706" stroke-width="0.1"/>
<path d="M60.9759 90.8203C64.1499 94.2805 65.8575 95.925 68.7884 98.3203C69.9413 99.5345 70.0082 100.001 67.7467 99.9276C65.0568 97.8839 58.8925 92.4276 58.8925 92.4276C57.5909 96.182 44.8298 88.6773 45.3509 87.0703C45.8719 85.4633 52.9101 85.6832 57.8509 89.749C55.7751 86.3288 53.9813 82.6109 53.1634 82.7846C47.1354 80.4268 41.4482 69.2252 43.7884 67.2489C46.9348 64.5916 57.1036 73.9177 54.205 81.1775C57.1923 85.9663 58.985 88.9046 58.8925 87.0703C58.8925 87.0703 57.9875 83.8421 57.8509 81.7132C57.6139 78.0217 61.1425 73.867 61.4967 74.2132C61.4967 74.2132 65.2016 79.0461 63.58 82.7846C61.9584 86.5231 61.713 87.9589 60.9759 90.8203Z" fill="#F4A106" stroke="#E08001" stroke-width="0.5"/>
<path d="M50.5416 88.2145C52.5868 88.3594 53.7717 88.5813 56.2708 90.3574C55.9314 91.0269 55.5879 91.1859 54.1874 90.3574C54.2775 90.2346 53.0933 89.5822 50.5416 88.2145Z" fill="#C56309"/>
<path d="M59.3958 79.6431V86.0716C58.7909 85.6972 58.3541 84.1805 58.3541 82.8574C58.3541 81.5342 58.8652 80.3074 59.3958 79.6431Z" fill="#C56309"/>
<path d="M48.4583 72.1431C50.6059 75.1969 51.9373 76.9593 53.1458 79.6431C53.1041 80.0393 52.9362 79.9073 52.6249 79.6431C50.7958 77.8313 49.9812 75.6484 48.4583 72.1431Z" fill="#C56309"/>
<path d="M50.5416 88.2145C52.5868 88.3594 53.7717 88.5813 56.2708 90.3574C55.9314 91.0269 55.5879 91.1859 54.1874 90.3574C54.2775 90.2346 53.0933 89.5822 50.5416 88.2145Z" stroke="#AC4400" stroke-width="0.5"/>
<path d="M59.3958 79.6431V86.0716C58.7909 85.6972 58.3541 84.1805 58.3541 82.8574C58.3541 81.5342 58.8652 80.3074 59.3958 79.6431Z" stroke="#AC4400" stroke-width="0.5"/>
<path d="M48.4583 72.1431C50.6059 75.1969 51.9373 76.9593 53.1458 79.6431C53.1041 80.0393 52.9362 79.9073 52.6249 79.6431C50.7958 77.8313 49.9812 75.6484 48.4583 72.1431Z" stroke="#AC4400" stroke-width="0.5"/>
</svg>
