<svg fill="none" height="200" viewBox="0 0 234 184" width="200" xmlns="http://www.w3.org/2000/svg">
  <path
    d="M207.445 105.841L93.8538 171.415C79.2488 179.845 60.4026 174.796 51.9709 160.193L26.9585 116.876C18.5271 102.273 23.5771 83.4269 38.1796 74.9954L151.771 9.42077C166.376 0.990699 185.225 6.04007 193.657 20.6421L218.669 63.9597C227.1 78.5628 222.05 97.4088 207.445 105.841Z"
    fill="#FAA91E"/>
  <path
    d="M227.108 10.4286L230.519 16.3353C235.924 25.694 232.693 37.6775 223.333 43.0816L33.0295 152.941C23.6698 158.344 11.6747 155.15 6.27288 145.79L2.8618 139.883C-2.54256 130.524 0.673604 118.518 10.0333 113.115L200.337 3.25532C209.696 -2.14882 221.703 1.06879 227.108 10.4286Z"
    fill="#F28AB8"/>
  <path d="M227.108 10.4286L228.385 12.6405L4.13902 142.095L2.86131 139.883C-2.54305 130.524 0.673116 118.518 10.0328 113.115L200.336 3.25532C209.696 -2.14882 221.703 1.06879 227.108 10.4286Z"
        fill="white"
        opacity="0.21"/>
  <path
    d="M181.008 18.4161C177.627 26.1945 171.658 22.285 166.181 20.3138C157.587 17.2198 148.083 19.5289 144.932 28.223C141.645 37.2847 144.218 50.5775 126.876 42.8421C119.559 39.579 108.887 41.7584 105.626 50.7513C102.217 60.1537 104.498 73.4419 87.5852 65.2096C79.3735 61.2128 69.4896 64.425 66.3354 73.1199C62.2457 84.3978 65.8889 93.0999 46.1989 87.9702C31.7211 84.2005 24.1805 95.257 24.8319 110.387C24.9913 114.113 30.773 114.013 30.6135 110.289C29.8622 92.8555 38.5533 91.9072 48.1599 94.4635C77.7762 102.343 62.8795 70.0925 81.1346 69.6708C86.4397 69.5472 90.7687 74.0567 96.1036 73.9195C115.37 73.4219 103.263 47.6985 120.422 47.3016C125.73 47.178 130.056 51.6889 135.394 51.5506C154.712 51.0515 142.513 25.1724 159.728 24.7733C165.16 24.6472 179.49 36.3574 186.095 21.1668C187.571 17.7772 182.5 14.9893 181.008 18.4161Z"
    fill="#EE4823"/>
  <path
    d="M200.436 57.9506L208.665 72.1993C217.097 86.8027 212.047 105.648 197.442 114.08L83.8578 179.651C69.2531 188.081 50.4065 183.031 41.9727 168.428L33.7456 154.179C25.3139 139.576 30.3646 120.73 44.9692 112.3L158.553 46.7288C173.158 38.2987 192.005 43.3471 200.436 57.9506Z"
    fill="#FDBB38"/>
  <path d="M200.436 57.9505L204.194 64.4562L37.501 160.685L33.7456 154.18C25.3139 139.577 30.3646 120.731 44.9692 112.3L158.553 46.729C173.158 38.2986 192.005 43.347 200.436 57.9505Z"
        fill="white"
        opacity="0.21"/>
</svg>
