<svg width="135" height="200" viewBox="0 0 135 200" fill="none" xmlns="http://www.w3.org/2000/svg">
<g clip-path="url(#clip0_971_12941)">
<path fill-rule="evenodd" clip-rule="evenodd" d="M54.9858 100.686C50.3573 92.4686 47.6694 84.9547 46.5552 78.163C47.7215 84.3515 50.4274 91.6065 54.9858 100.686Z" fill="#FFD9D9"/>
<path fill-rule="evenodd" clip-rule="evenodd" d="M54.9858 100.686C50.4274 91.6065 47.7215 84.3515 46.5552 78.163C45.9644 74.562 45.816 71.164 46.0553 67.972C47.0289 59.2093 51.8704 52.1919 59.0636 43.2468C70.0218 34.2419 86.1393 30.5822 100.642 32.6165C127.654 36.4056 149.065 59.9486 121.101 105.5L54.9858 100.686Z" fill="#FFA6A6"/>
<path fill-rule="evenodd" clip-rule="evenodd" d="M46.5552 78.163C47.6694 84.9547 50.3573 92.4686 54.9858 100.686C45.2605 100.928 34.631 102.162 23.05 103.506L22.9869 103.514C20.4296 103.81 17.8259 104.113 15.1754 104.411C-14.1973 74.472 3.63685 39.4179 30.0249 35.0872C33.2328 34.5608 36.5671 34.4883 39.9584 34.9343C41.7307 35.1674 43.5186 35.5421 45.3121 36.0675C49.9145 37.4159 54.5542 39.7572 59.0636 43.2468C51.8704 52.1919 47.0289 59.2093 46.0553 67.972C45.7086 71.0924 45.8524 74.4341 46.5552 78.163Z" fill="#CDFFA6"/>
<path fill-rule="evenodd" clip-rule="evenodd" d="M100.642 32.6165C86.1393 30.5822 70.0218 34.2419 59.0636 43.2468C54.5542 39.7572 49.9145 37.4159 45.3121 36.0675C43.4786 35.492 41.725 35.1325 39.9584 34.9343C36.5671 34.4883 33.2328 34.5608 30.0249 35.0872C17.4855 -11.7845 112.192 -10.7774 100.642 32.6165Z" fill="#A6FFFF"/>
<path fill-rule="evenodd" clip-rule="evenodd" d="M54.9858 100.686L121.101 105.5C122.609 105.71 123.886 106.054 125.185 106.403C126.47 106.749 127.777 107.101 129.351 107.334C130.208 122.782 127.457 130.948 116.151 144.58C113.43 144.797 110.794 144.996 108.232 145.176C78.9943 147.231 59.1772 146.891 27.7149 143.643C25.467 143.411 23.1596 143.164 20.7852 142.903C9.71324 129.032 7.11674 120.27 10.2256 104.985C11.9008 104.785 13.5502 104.593 15.1754 104.411L54.9858 100.686Z" fill="#FDC962"/>
<path fill-rule="evenodd" clip-rule="evenodd" d="M27.7149 143.643C59.1772 146.891 78.9943 147.231 108.232 145.176C106.438 164.982 104.329 176.217 95.0322 196.926C76.8164 200.892 65.6069 201.156 43.2243 196.926C34.0988 177.916 31.0699 166.034 27.7149 143.643Z" fill="#FDBB38"/>
<path fill-rule="evenodd" clip-rule="evenodd" d="M11.1153 67.4431C11.5015 69.98 16.0289 62.6236 13.5206 59.8332C11.0122 57.0427 10.7291 64.9063 11.1153 67.4431Z" fill="white"/>
<path d="M10.9564 58.4436C11.4114 57.975 12.1129 57.6197 12.9623 57.7815C13.6834 57.919 14.2362 58.3855 14.6361 58.8304C15.6471 59.9551 15.8464 61.4193 15.7533 62.6682C15.6586 63.9367 15.2505 65.2166 14.764 66.2669C14.2938 67.2818 13.6604 68.2752 12.9828 68.8557C12.8031 69.0097 12.5697 69.1791 12.2884 69.3001C12.0097 69.4199 11.5831 69.534 11.0931 69.4202C9.971 69.1596 9.69834 68.1036 9.63218 67.6692C9.41463 66.24 9.39072 63.4769 9.75425 61.3841C9.84714 60.8494 9.97207 60.317 10.1429 59.8401C10.3051 59.3875 10.5529 58.8593 10.9564 58.4436ZM12.7103 61.8977C12.6111 62.4689 12.5492 63.1085 12.513 63.7503C12.6419 63.3057 12.73 62.8611 12.7611 62.4446C12.7823 62.1597 12.7737 61.9139 12.7464 61.7024C12.7342 61.7654 12.7219 61.8308 12.7103 61.8977Z" fill="white"/>
<path fill-rule="evenodd" clip-rule="evenodd" d="M59.0072 81.901C58.8527 84.8282 57.0417 76.3401 58.0451 73.1203C59.0484 69.9005 59.1616 78.9739 59.0072 81.901Z" fill="white"/>
<path d="M58.7912 70.9797C58.3541 70.8784 57.9543 70.9763 57.6584 71.1389C57.1853 71.399 56.9615 71.8286 56.8869 71.9749C56.7765 72.1916 56.687 72.435 56.6125 72.6741C56.2864 73.7205 56.219 75.0556 56.2512 76.301C56.2843 77.5826 56.4288 78.922 56.6106 80.054C56.7857 81.1445 57.0159 82.1763 57.26 82.7795C57.3163 82.9186 57.425 83.1683 57.6076 83.3948C57.6927 83.5002 57.9016 83.7399 58.2571 83.887C58.7129 84.0755 59.2611 84.0464 59.7151 83.7424C60.0673 83.5065 60.2272 83.1937 60.2883 83.0598C60.3617 82.8988 60.4018 82.7475 60.425 82.6419C60.472 82.4279 60.4937 82.1961 60.5051 81.9797C60.5853 80.4595 60.595 77.4033 60.4572 75.1155C60.3926 74.0419 60.286 72.911 60.0617 72.2444C60.0096 72.0893 59.8882 71.7518 59.6174 71.4612C59.4665 71.2992 59.1957 71.0735 58.7912 70.9797Z" fill="white"/>
<path d="M77.7606 44.7083C77.2436 44.7497 76.7329 44.8158 76.2196 44.9085C71.5767 45.7461 67.4456 48.5852 64.3788 52.0618C61.3345 55.5784 58.96 59.7255 58.2128 64.4241C58.1457 64.9663 58.1116 65.4974 58.1708 66.0628H59.2958C59.3599 65.6436 59.4938 65.2079 59.6551 64.761C61.2399 60.8308 63.8512 57.2483 66.6258 54.0491C69.4522 50.8715 72.6789 48.0395 76.6385 46.3294C77.0801 46.1406 77.5256 45.9672 77.9852 45.8099C77.9105 45.4426 77.8353 45.0755 77.7606 44.7083Z" fill="white"/>
<path d="M53.7329 7.76959C51.796 6.7554 49.235 6.15845 46.809 7.01568C44.3851 7.85528 42.6768 9.7373 41.4243 11.5762C38.9307 15.3366 37.682 19.3759 36.0463 23.2149C35.8667 23.6404 35.6793 24.0702 35.4887 24.4903C35.8061 24.6901 36.1235 24.8901 36.4409 25.0899C36.7464 24.7218 37.0449 24.3374 37.3305 23.9532C39.9165 20.4726 41.7102 16.54 43.9067 13.2608C46.0322 9.87202 49.1188 7.98816 53.2123 9.15533C53.6657 9.26646 54.0704 9.37704 54.5307 9.5274C54.6926 9.18914 54.8552 8.85101 55.017 8.51275C54.5831 8.23652 54.1934 8.00368 53.7329 7.76959Z" fill="white"/>
<path fill-rule="evenodd" clip-rule="evenodd" d="M129.35 107.337C70.7659 100.115 47.2434 100.888 10.5551 104.988C9.88425 126.169 10.1176 131.121 13.6074 105.048C13.6103 105.123 13.6132 105.197 13.6161 105.271C14.0674 116.878 14.3231 123.455 16.6598 105.109C18.4065 137.141 19.7469 136.55 22.7645 105.229C25.0488 124.904 26.4774 130.647 30.0242 105.373C32.2409 115.003 33.486 115.421 34.3141 105.458C36.5566 120.227 37.5905 122.753 38.6039 105.543C39.9163 112.102 40.6549 115.598 42.2337 105.614C45.3609 127.701 46.3512 124.332 47.5135 105.719C49.1964 114.723 50.562 114.91 53.7832 105.843C55.5096 119.481 56.5951 118.88 58.733 105.941C60.7132 116.751 61.818 122.498 63.3529 106.032C66.1411 119.859 67.7481 124.175 70.9425 106.182C72.2319 115.468 72.9507 114.739 74.2424 106.247C76.7788 126.316 77.8631 128.252 78.8622 106.339C79.6102 110.776 80.0941 111.138 81.1721 106.384C85.1829 155.526 86.4179 140.78 88.4318 106.528C90.2449 116.198 91.266 115.863 93.0516 106.619C94.2985 120.535 95.1795 122.495 97.3415 106.704C97.533 107.468 97.7169 108.22 97.8954 108.95C100.078 117.875 101.459 123.522 106.086 106.877C107.854 126.39 108.749 125.829 110.211 106.958C111.749 116.95 112.613 116.395 114.171 107.037C115.707 114.416 116.577 113.679 118.131 107.115C120.907 121.561 122.654 121.199 126.05 107.272C127.777 124.66 128.525 125.798 129.35 107.337Z" fill="#774009"/>
<path d="M10.3885 103.498C47.2037 99.3837 70.8445 98.6138 129.534 105.848L130.911 106.018L130.848 107.404C130.642 112.021 130.44 115.445 130.222 117.704C130.115 118.822 129.999 119.711 129.865 120.331C129.802 120.621 129.713 120.962 129.569 121.255C129.502 121.391 129.36 121.652 129.094 121.875C128.771 122.144 128.231 122.369 127.611 122.185C127.117 122.038 126.841 121.702 126.733 121.555C126.605 121.38 126.519 121.201 126.463 121.068C126.348 120.797 126.256 120.476 126.178 120.153C126.018 119.491 125.859 118.57 125.694 117.427C125.596 116.744 125.495 115.968 125.388 115.099C125.314 115.307 125.242 115.506 125.169 115.696C124.811 116.619 124.431 117.422 124.008 118.019C123.635 118.545 122.948 119.31 121.889 119.333C120.787 119.356 120.086 118.569 119.719 118.027C119.309 117.422 118.96 116.608 118.642 115.676C118.369 114.875 118.096 113.913 117.818 112.795C117.603 113.11 117.139 113.683 116.347 113.791C115.39 113.921 114.772 113.302 114.506 112.957C114.35 113.514 114.181 114.018 113.985 114.419C113.877 114.639 113.728 114.901 113.515 115.132C113.31 115.356 112.918 115.689 112.331 115.747C111.726 115.807 111.261 115.543 110.98 115.299C110.88 116.255 110.783 117.105 110.685 117.847C110.525 119.061 110.361 120.04 110.183 120.739C110.097 121.078 109.989 121.43 109.842 121.729C109.769 121.877 109.652 122.083 109.47 122.275C109.29 122.465 108.937 122.754 108.406 122.804C107.845 122.858 107.417 122.617 107.171 122.407C106.942 122.211 106.799 121.989 106.717 121.841C106.548 121.541 106.429 121.185 106.338 120.857C106.147 120.174 105.966 119.206 105.787 117.995C105.634 116.964 105.477 115.717 105.312 114.253C105.033 114.977 104.769 115.604 104.51 116.135C104.079 117.02 103.61 117.78 103.064 118.294C102.481 118.843 101.578 119.292 100.549 118.908C99.7288 118.602 99.2255 117.883 98.9207 117.345C98.5813 116.747 98.288 116.003 98.0223 115.207C97.913 114.879 97.8051 114.53 97.6971 114.164C97.5943 114.709 97.4957 115.2 97.3983 115.636C97.1916 116.562 96.9774 117.334 96.7381 117.884C96.6266 118.141 96.4505 118.492 96.1668 118.778C95.8459 119.102 95.1513 119.532 94.3016 119.196C93.6936 118.955 93.4003 118.442 93.2908 118.235C93.1447 117.959 93.0349 117.646 92.9471 117.344C92.7688 116.732 92.6104 115.917 92.4617 114.952C92.4288 114.738 92.3959 114.514 92.3631 114.28C92.2622 114.414 92.1447 114.55 92.0047 114.672C91.7469 114.898 91.3463 115.142 90.8172 115.165C90.2115 115.191 89.7592 114.935 89.4432 114.646C89.1223 119.811 88.8178 124.332 88.5067 127.993C88.2751 130.718 88.0393 132.99 87.7918 134.706C87.6683 135.562 87.5384 136.304 87.3992 136.905C87.2702 137.462 87.1022 138.045 86.8475 138.483C86.7326 138.681 86.469 139.085 85.9725 139.312C85.3054 139.617 84.6502 139.428 84.2274 139.104C83.8932 138.848 83.6976 138.515 83.5897 138.305C83.4664 138.065 83.3637 137.795 83.2742 137.52C82.9259 136.449 82.5855 134.66 82.2303 132.167C81.6149 127.846 80.9168 121.11 80.0985 111.541C79.9295 114.49 79.7559 116.821 79.5672 118.553C79.4251 119.858 79.2678 120.892 79.0819 121.608C78.9948 121.943 78.8689 122.344 78.66 122.678C78.5562 122.845 78.3578 123.117 78.0203 123.315C77.6181 123.551 77.1137 123.623 76.6268 123.45C76.2176 123.304 75.9605 123.035 75.8289 122.874C75.6859 122.698 75.5815 122.512 75.5057 122.358C75.3536 122.049 75.226 121.677 75.1141 121.291C74.8867 120.505 74.6562 119.417 74.4168 118.073C74.2088 116.905 73.9892 115.509 73.7547 113.895C73.556 114.083 73.2548 114.292 72.8358 114.361C72.1589 114.473 71.6466 114.157 71.3729 113.898C71.2119 113.746 71.0906 113.576 70.9979 113.422C70.7327 114.506 70.4759 115.42 70.2225 116.172C69.8903 117.158 69.518 118.018 69.0545 118.611C68.819 118.912 68.4713 119.261 67.9803 119.455C67.4249 119.674 66.8426 119.633 66.3397 119.388C65.8958 119.173 65.5809 118.834 65.3651 118.546C65.1398 118.244 64.9474 117.895 64.7791 117.536C64.4429 116.818 64.1283 115.894 63.824 114.833C63.8038 114.762 63.7847 114.69 63.7645 114.618C63.7513 114.681 63.7405 114.744 63.7274 114.804C63.5526 115.606 63.3373 116.366 63.0086 116.888C62.8576 117.128 62.488 117.636 61.8006 117.789C60.9935 117.968 60.405 117.537 60.1385 117.265C59.8753 116.997 59.7003 116.675 59.5828 116.426C59.4551 116.156 59.3403 115.85 59.2352 115.529C59.0686 115.021 58.9047 114.408 58.741 113.719C58.5232 114.558 58.2953 115.28 58.0428 115.824C57.9164 116.096 57.7498 116.4 57.5233 116.662C57.3108 116.907 56.8844 117.298 56.2283 117.353C55.5222 117.412 55.0149 117.049 54.744 116.768C54.4816 116.497 54.3046 116.174 54.1815 115.906C53.9291 115.357 53.7159 114.619 53.5213 113.764C53.3743 113.119 53.2274 112.356 53.0779 111.478C53.0507 111.53 53.0259 111.582 52.9988 111.631C52.6686 112.239 52.3083 112.792 51.9012 113.21C51.5137 113.607 50.874 114.091 50.0106 114.056C49.3321 114.029 48.8257 113.695 48.4725 113.337C48.3599 114.658 48.2466 115.828 48.1278 116.837C47.9733 118.147 47.8059 119.231 47.616 120.034C47.5222 120.431 47.4104 120.814 47.2674 121.141C47.1628 121.38 46.8964 121.951 46.3035 122.259C45.9331 122.452 45.4885 122.514 45.0486 122.388C44.6555 122.276 44.3848 122.048 44.2235 121.88C43.9178 121.563 43.7205 121.158 43.5877 120.839C43.3019 120.155 43.0281 119.152 42.7498 117.889C42.4584 116.567 42.1426 114.864 41.7977 112.766C41.5949 112.979 41.2591 113.249 40.7684 113.33C40.2624 113.413 39.841 113.259 39.5428 113.067C39.4653 113.828 39.3877 114.498 39.3065 115.076C39.1674 116.065 39.0102 116.884 38.8104 117.463C38.7201 117.724 38.5631 118.117 38.2694 118.438C38.1091 118.613 37.838 118.845 37.4393 118.954C37.0056 119.072 36.5893 119.001 36.2596 118.839C35.7244 118.577 35.4515 118.098 35.3426 117.896C35.1953 117.623 35.072 117.306 34.9656 116.985C34.7506 116.336 34.5377 115.468 34.3201 114.429C34.2635 114.159 34.2057 113.874 34.1473 113.575C33.8291 113.945 33.3154 114.325 32.5545 114.256C32.0251 114.208 31.6404 113.943 31.41 113.732C31.1755 113.518 30.996 113.267 30.8582 113.042C30.7299 112.832 30.6086 112.593 30.491 112.333C30.0169 115.222 29.5813 117.475 29.1707 119.139C28.8331 120.507 28.4848 121.602 28.0916 122.333C27.9081 122.674 27.6105 123.14 27.1278 123.44C26.8572 123.608 26.5041 123.737 26.0926 123.728C25.6823 123.719 25.3384 123.574 25.0799 123.399C24.6177 123.086 24.3426 122.62 24.1785 122.292C23.994 121.922 23.8354 121.486 23.6942 121.018C23.4371 120.167 23.1965 119.068 22.9608 117.772C22.7184 119.839 22.4881 121.632 22.2674 123.145C21.9771 125.136 21.6978 126.693 21.4207 127.774C21.2849 128.304 21.1308 128.794 20.9451 129.181C20.8542 129.371 20.7201 129.613 20.5223 129.831C20.3341 130.038 19.9384 130.385 19.3299 130.423C18.6837 130.464 18.227 130.134 17.991 129.893C17.7641 129.661 17.6214 129.4 17.533 129.21C17.3511 128.818 17.2134 128.325 17.0985 127.806C16.8625 126.741 16.6448 125.195 16.4344 123.204C16.2621 121.574 16.092 119.611 15.9207 117.316C15.9118 117.329 15.9046 117.343 15.8953 117.355C15.7929 117.493 15.5448 117.794 15.1102 117.952C14.5548 118.154 14.007 118.018 13.6258 117.739C13.511 117.655 13.4167 117.563 13.3406 117.474C13.2344 118.134 13.1364 118.734 13.0418 119.275C12.7901 120.714 12.5696 121.789 12.3748 122.479C12.2893 122.782 12.1659 123.175 11.9744 123.484C11.9189 123.573 11.8295 123.704 11.6971 123.833C11.5704 123.956 11.3292 124.152 10.9676 124.242C10.0014 124.483 9.42018 123.796 9.26642 123.561C9.1018 123.31 9.0298 123.052 8.99689 122.923C8.956 122.763 8.92717 122.595 8.9051 122.434C8.86075 122.112 8.82944 121.714 8.80744 121.263C8.76314 120.356 8.7496 119.116 8.75861 117.59C8.77667 114.534 8.8878 110.235 9.05549 104.94L9.0965 103.641L10.3885 103.498ZM111.214 106.748C72.0228 102.537 50.1642 102.67 24.2567 105.079C24.8268 109.988 25.3402 113.989 25.8416 116.847C25.9615 117.531 26.0799 118.138 26.1951 118.67C26.2158 118.589 26.2375 118.506 26.2586 118.421C26.907 115.793 27.6526 111.48 28.5389 105.165L31.4862 105.037C31.8368 106.56 32.1572 107.827 32.45 108.844C32.5786 107.894 32.7033 106.728 32.8192 105.334L35.7967 105.232C36.1326 107.444 36.4403 109.369 36.7225 110.987C36.851 109.454 36.979 107.617 37.1063 105.455L40.075 105.249C40.2091 105.919 40.338 106.549 40.4588 107.13C40.5526 106.604 40.6502 106.022 40.7518 105.38L43.7186 105.404C44.3149 109.616 44.8307 112.874 45.2801 115.265C45.53 112.82 45.7695 109.58 46.0164 105.626L48.9881 105.443C49.4069 107.684 49.7898 109.281 50.16 110.299C50.1792 110.352 50.2001 110.402 50.2186 110.45C50.2637 110.373 50.3134 110.29 50.3631 110.199C50.9108 109.192 51.5686 107.596 52.3699 105.34L55.2713 105.654C55.587 108.148 55.8777 110.133 56.1522 111.638C56.4835 110.13 56.8471 108.151 57.2528 105.696L60.2088 105.671C60.5968 107.789 60.948 109.688 61.2723 111.259C61.4591 109.852 61.6553 108.079 61.8592 105.892L64.8231 105.735C65.5205 109.194 66.1337 112.002 66.7078 114.005C66.8928 114.651 67.0694 115.189 67.2332 115.626C67.2797 115.5 67.3295 115.364 67.3797 115.214C67.9844 113.42 68.6681 110.412 69.4656 105.92L72.4285 105.975C72.483 106.367 72.5384 106.741 72.5906 107.095C72.6451 106.754 72.7027 106.396 72.7596 106.022L75.7303 106.059C76.1597 109.457 76.5468 112.32 76.8963 114.629C77.0562 112.396 77.2114 109.619 77.3641 106.27L79.6903 106.129C79.696 106.103 79.703 106.078 79.7088 106.052L80.2821 106.092L80.3416 106.089C80.3421 106.092 80.3422 106.095 80.3426 106.097L82.6668 106.262C83.6519 118.332 84.4677 126.51 85.1639 131.481C85.2819 130.371 85.4 129.121 85.5174 127.739C85.9771 122.33 86.4307 115.006 86.9344 106.44L89.9061 106.252C90.2105 107.875 90.4877 109.182 90.742 110.196C90.997 109.193 91.2746 107.91 91.5789 106.335L94.5457 106.485C94.7282 108.521 94.9017 110.288 95.0711 111.772C95.3104 110.322 95.5718 108.571 95.8553 106.501L98.7967 106.339C98.9894 107.108 99.174 107.864 99.3524 108.593C99.9035 110.847 100.383 112.805 100.868 114.257C101.055 114.818 101.231 115.261 101.391 115.595C101.512 115.4 101.653 115.147 101.812 114.821C102.563 113.28 103.487 110.625 104.64 106.475L107.58 106.742C107.798 109.145 108.002 111.236 108.194 113.019C108.36 111.253 108.533 109.194 108.716 106.842L111.214 106.748ZM21.243 105.368C20.2343 105.467 19.2184 105.569 18.1942 105.674C18.5957 112.959 18.9764 118.482 19.3582 122.285C19.9077 118.419 20.5272 112.778 21.243 105.368ZM95.9383 116.826C95.9396 116.828 95.9412 116.831 95.9412 116.831C95.9412 116.831 95.9393 116.827 95.9373 116.824L95.9383 116.826ZM119.774 107.703C120.398 110.857 120.957 113.172 121.481 114.709C121.625 115.129 121.757 115.468 121.878 115.736C122.024 115.447 122.191 115.078 122.372 114.612C122.934 113.161 123.556 111.042 124.266 108.23C122.745 108.048 121.248 107.873 119.774 107.703ZM111.704 106.8C111.871 107.885 112.031 108.831 112.18 109.645C112.334 108.852 112.498 107.939 112.671 106.904C112.347 106.869 112.025 106.835 111.704 106.8ZM127.758 109.233C127.767 109.044 127.776 108.852 127.785 108.658C127.756 108.654 127.727 108.651 127.698 108.647C127.718 108.845 127.738 109.04 127.758 109.233ZM115.751 107.246C115.885 107.871 116.011 108.419 116.132 108.895C116.258 108.437 116.391 107.916 116.533 107.334C116.272 107.304 116.011 107.275 115.751 107.246Z" fill="#774009"/>
<path d="M48.3343 149.324C50.4014 151.792 52.3524 154.07 54.222 156.187C55.676 154.449 57.1903 152.551 58.8655 150.377L61.2415 152.208C59.4352 154.552 57.8076 156.584 56.2415 158.444C59.8823 162.457 63.2553 165.855 66.6575 168.859C69.4113 166.097 72.105 163.181 74.9456 159.899C73.131 157.626 71.3033 155.072 69.3597 152.118L71.8665 150.469C73.642 153.168 75.3011 155.503 76.93 157.577C79.0357 155.079 81.2423 152.365 83.6263 149.355L85.9788 151.218C83.4428 154.421 81.1008 157.293 78.8665 159.931C80.3132 161.612 81.7612 163.117 83.2747 164.515C85.265 166.353 87.3806 168.02 89.7669 169.674C92.1486 166.515 94.505 163.005 97.0569 158.891L99.6067 160.473C97.0446 164.604 94.6656 168.146 92.2649 171.341C93.8561 172.365 95.5689 173.403 97.4378 174.493L95.927 177.084C93.9478 175.93 92.1247 174.822 90.4222 173.721C88.3799 176.274 86.2819 178.621 84.0061 180.908C86.2089 182.109 88.5449 183.299 91.0599 184.502L89.7649 187.208C86.8912 185.833 84.2414 184.475 81.7561 183.095C79.4609 185.254 76.9665 187.399 74.1634 189.651C74.7346 189.951 75.3177 190.254 75.9144 190.558L74.552 193.231C73.5303 192.71 72.5443 192.194 71.5911 191.682C70.7164 192.362 69.8136 193.055 68.8782 193.762L67.0686 191.37C67.6356 190.941 68.1893 190.517 68.7327 190.099C64.0635 187.431 60.213 184.797 56.7395 181.915C54.7667 183.56 52.6758 185.251 50.4241 187.032L48.5638 184.678C50.6528 183.026 52.5992 181.453 54.4407 179.924C51.1769 176.972 48.201 173.739 45.0911 169.974C44.1927 170.798 43.247 171.651 42.2415 172.546L40.2474 170.306C41.2929 169.375 42.2708 168.491 43.1976 167.64C42.1772 166.361 41.1335 165.022 40.054 163.615L42.4349 161.789C43.4549 163.118 44.4377 164.381 45.3958 165.585C47.9025 163.199 50.0618 160.97 52.2503 158.485C50.2757 156.257 48.217 153.856 46.0345 151.249L48.3343 149.324ZM66.7962 172.933C64.3461 175.303 61.8143 177.596 59.0686 179.948C62.5421 182.783 66.4494 185.398 71.2972 188.1C74.1702 185.824 76.709 183.678 79.0315 181.533C74.5753 178.895 70.625 176.123 66.7962 172.933ZM76.8919 162.235C74.1777 165.357 71.5853 168.156 68.9427 170.814C72.7959 174.003 76.7707 176.755 81.2903 179.381C83.6614 177.043 85.8217 174.652 87.9202 172.044C85.4954 170.356 83.3097 168.631 81.2395 166.719C79.7397 165.334 78.3078 163.857 76.8919 162.235ZM54.2669 160.733C52.0477 163.238 49.8435 165.498 47.2884 167.923C50.4779 171.794 53.4715 175.036 56.7591 177.974C59.5215 175.618 62.06 173.331 64.512 170.967C61.1529 167.988 57.8265 164.642 54.2669 160.733Z" fill="#774009"/>
</g>
<defs>
<clipPath id="clip0_971_12941">
<rect width="134.228" height="200" fill="white"/>
</clipPath>
</defs>
</svg>
