<svg width="200" height="200" viewBox="0 0 200 200" fill="none" xmlns="http://www.w3.org/2000/svg">
<path d="M190 102.416C190 140.168 149.706 170.772 100 170.772C50.2944 170.772 10 140.168 10 102.416C10 64.6635 50.2944 34.0593 100 34.0593C149.706 34.0593 190 64.6635 190 102.416Z" fill="#D4C9D4"/>
<path d="M189 102.416C189 83.9197 179.132 67.1025 163.035 54.8767C146.938 42.6504 124.654 35.0593 100 35.0593C75.3456 35.0593 53.0624 42.6504 36.9648 54.8767C20.8682 67.1025 11 83.9197 11 102.416C11 120.912 20.8681 137.729 36.9648 149.955C53.0624 162.181 75.3456 169.772 100 169.772V170.772L98.8369 170.766C50.0547 170.297 10.626 140.35 10.0078 103.3L10 102.416C10 64.6635 50.2944 34.0593 100 34.0593C149.706 34.0593 190 64.6635 190 102.416L189.992 103.3C189.369 140.644 149.317 170.772 100 170.772V169.772C124.654 169.772 146.938 162.181 163.035 149.955C179.132 137.729 189 120.912 189 102.416Z" fill="#E5E3E2"/>
<path d="M190 96.7234C190 134.126 149.706 164.447 100 164.447C50.2944 164.447 10 134.126 10 96.7234C10 59.3208 50.2944 29 100 29C149.706 29 190 59.3208 190 96.7234Z" fill="#FFFBF2"/>
<path d="M189 96.7236C189 78.4062 179.135 61.7476 163.038 49.6348C146.94 37.5217 124.657 30 100 30C75.3435 30 53.0595 37.5217 36.9619 49.6348C20.8647 61.7476 11 78.4062 11 96.7236C11.0001 115.041 20.8648 131.7 36.9619 143.812C53.0595 155.926 75.3436 163.447 100 163.447V164.447L98.8369 164.441C50.0544 163.977 10.6257 134.307 10.0078 97.5986L10 96.7234C10 59.3208 50.2944 29 100 29C149.706 29 190 59.3208 190 96.7234L189.992 97.5986C189.369 134.598 149.317 164.447 100 164.447V163.447C124.656 163.447 146.94 155.926 163.038 143.812C179.135 131.7 189 115.041 189 96.7236Z" fill="#D4C9D4"/>
<path d="M176.071 91.6568C176.071 121.369 142.253 145.456 100.536 145.456C58.8185 145.456 25 121.369 25 91.6568C25 61.9444 58.8185 37.8578 100.536 37.8578C142.253 37.8578 176.071 61.9444 176.071 91.6568Z" fill="#E5E2E3"/>
<path d="M175.071 91.6567C175.071 77.2086 166.85 64.0333 153.367 54.4301C139.886 44.8284 121.211 38.8579 100.536 38.8578C79.8613 38.8578 61.1853 44.8284 47.7041 54.4301C34.2209 64.0333 26 77.2086 26 91.6567C26 106.105 34.2208 119.281 47.7041 128.884C61.1853 138.486 79.8614 144.455 100.536 144.455L100.536 145.456L99.5596 145.452C58.2922 145.079 25 121.137 25 91.6568C25 61.9444 58.8185 37.8578 100.536 37.8578L101.512 37.8627C142.779 38.2349 176.071 62.1766 176.071 91.6568C176.071 121.369 142.253 145.456 100.536 145.456L100.536 144.455C121.211 144.455 139.886 138.486 153.367 128.884C166.85 119.281 175.071 106.105 175.071 91.6567Z" fill="#E5E3E2"/>
<path d="M140.835 118.537C138.963 118.975 137.838 119.803 136.249 121.287C135.899 121.615 135.325 121.474 135.173 121.019C135.073 120.719 135.204 120.391 135.479 120.235C137.498 119.1 138.498 118.228 138.922 116.384C138.98 116.132 138.972 115.869 138.918 115.616C138.156 112.018 137.875 109.671 138.466 106.656C138.694 105.491 139.934 104.997 140.674 105.926C142.574 108.315 143.872 112.356 143.5 110C143.097 107.448 144.063 101.059 145.934 98.7781C146.449 98.1506 147.332 98.4155 147.788 99.0869C149.897 102.192 150.256 104.56 149.775 106.266L150.789 103.563C150.927 103.196 151.17 102.876 151.488 102.646C155.039 100.063 157.28 98.4341 160.588 99.2287C161.173 99.3691 161.646 99.8234 161.755 100.415C162.011 101.801 161.47 102.624 160.595 103.865C160.532 103.955 160.46 104.041 160.382 104.119C156.844 107.671 154.899 108.402 151.5 109C155.354 108.566 157.659 108.397 160.007 109.81C160.644 110.193 160.97 110.977 160.705 111.671C160.393 112.487 159.787 113.129 158.17 113.918C158.058 113.973 157.936 114.017 157.815 114.048C151.662 115.638 149.757 115.3 146 115C149.118 115.489 151.078 115.863 152.499 117.228C153.163 117.866 152.938 118.921 152.202 119.474C151.759 119.806 151.187 119.914 150.653 119.767C147.427 118.877 145.357 118.319 141.17 118.493C141.058 118.497 140.944 118.512 140.835 118.537Z" fill="#486017"/>
<path d="M145.74 98.6191C146.062 98.2265 146.51 98.1123 146.935 98.2012C147.348 98.288 147.735 98.5648 147.994 98.9463C149.45 101.09 150.096 102.91 150.198 104.423L150.555 103.476C150.71 103.062 150.984 102.703 151.341 102.443C154.87 99.8772 157.208 98.1595 160.646 98.9854C161.317 99.1463 161.872 99.6706 162.001 100.369C162.137 101.108 162.061 101.709 161.831 102.287C161.606 102.853 161.234 103.393 160.8 104.009C160.728 104.11 160.647 104.207 160.56 104.295C158.781 106.08 157.389 107.171 156.004 107.89C155.568 108.115 155.134 108.3 154.691 108.461C156.811 108.363 158.464 108.589 160.136 109.596C160.862 110.033 161.253 110.938 160.938 111.761C160.594 112.662 159.922 113.341 158.28 114.143C158.216 114.174 158.149 114.202 158.082 114.227L157.878 114.29C154.791 115.087 152.758 115.405 151.02 115.482C150.597 115.501 150.193 115.506 149.796 115.5C150.956 115.839 151.891 116.298 152.672 117.048C153.481 117.826 153.171 119.059 152.352 119.674C151.847 120.052 151.195 120.176 150.587 120.008C147.37 119.12 145.329 118.57 141.181 118.742C141.083 118.746 140.984 118.759 140.892 118.78C139.083 119.204 137.996 119.997 136.42 121.47C135.939 121.919 135.146 121.73 134.936 121.099C134.797 120.682 134.979 120.23 135.357 120.018C136.362 119.453 137.088 118.966 137.616 118.404C138.138 117.85 138.475 117.212 138.679 116.328C138.727 116.118 138.721 115.893 138.674 115.668C137.91 112.059 137.621 109.672 138.221 106.607C138.35 105.949 138.771 105.455 139.294 105.27C139.829 105.08 140.435 105.225 140.869 105.771C141.838 106.989 142.65 108.621 143.162 109.629C143.179 109.662 143.196 109.694 143.212 109.726C143.068 108.38 143.224 106.286 143.619 104.24C143.833 103.13 144.12 102.024 144.473 101.05C144.824 100.079 145.247 99.2209 145.74 98.6191ZM146.832 98.6904C146.572 98.6359 146.32 98.7018 146.127 98.9365C145.685 99.4751 145.286 100.272 144.942 101.22C144.6 102.164 144.32 103.244 144.109 104.335C143.687 106.525 143.552 108.727 143.747 109.961C143.793 110.254 143.818 110.47 143.813 110.607C143.812 110.643 143.808 110.682 143.8 110.721C143.792 110.754 143.775 110.816 143.726 110.871C143.661 110.942 143.566 110.976 143.47 110.958C143.396 110.944 143.345 110.904 143.32 110.883C143.267 110.838 143.221 110.775 143.184 110.719C143.143 110.658 143.099 110.582 143.052 110.498C142.958 110.329 142.844 110.108 142.716 109.855C142.197 108.834 141.409 107.252 140.478 106.081C140.172 105.698 139.789 105.625 139.462 105.741C139.123 105.861 138.81 106.198 138.711 106.704C138.13 109.67 138.403 111.978 139.162 115.564C139.222 115.846 139.234 116.146 139.166 116.44C138.945 117.4 138.569 118.121 137.98 118.747C137.398 119.366 136.615 119.883 135.602 120.453C135.428 120.551 135.349 120.756 135.41 120.94C135.503 121.219 135.859 121.31 136.079 121.104C137.68 119.608 138.844 118.747 140.778 118.294C140.904 118.264 141.034 118.248 141.16 118.243C145.385 118.068 147.485 118.634 150.72 119.526C151.178 119.653 151.671 119.559 152.052 119.273C152.706 118.783 152.844 117.907 152.325 117.408C150.972 116.108 149.098 115.74 145.961 115.247L146.02 114.751C147.907 114.902 149.303 115.058 150.998 114.982C152.69 114.907 154.686 114.598 157.753 113.806C157.859 113.778 157.965 113.74 158.061 113.693C159.651 112.917 160.192 112.313 160.472 111.582C160.688 111.015 160.425 110.354 159.878 110.024C157.613 108.661 155.394 108.812 151.528 109.248L151.457 108.754C153.148 108.457 154.454 108.129 155.773 107.445C157.095 106.76 158.445 105.71 160.205 103.942C160.273 103.875 160.335 103.799 160.391 103.721C160.831 103.096 161.167 102.605 161.367 102.103C161.562 101.612 161.628 101.108 161.509 100.46C161.42 99.9763 161.029 99.5916 160.53 99.4717C157.353 98.7085 155.208 100.249 151.635 102.848C151.357 103.05 151.143 103.33 151.022 103.651L150.01 106.354C149.934 106.62 149.838 106.871 149.726 107.107L149.266 106.912L149.535 106.191C149.986 104.583 149.663 102.294 147.581 99.2275C147.384 98.9381 147.102 98.7472 146.832 98.6904Z" fill="#486017"/>
<path d="M54.4358 118.903C56.3181 114.268 67.0118 114.552 68.8128 115.756C68.8128 115.756 75.6236 121.839 79.8128 122.756C84.8995 123.533 89.2507 123.594 88.8128 125.756C88.4304 128.357 77.0477 130.533 69.3128 129.756C60.2705 128.847 49.518 126.035 54.0867 119.563C54.2286 119.362 54.3432 119.131 54.4358 118.903Z" fill="#53221F"/>
<path d="M61.626 114.892C63.2103 114.711 64.7925 114.714 66.0947 114.839C66.7459 114.901 67.3316 114.995 67.8145 115.112C68.2314 115.214 68.5883 115.337 68.8467 115.483L68.9521 115.548L68.9658 115.558L68.9795 115.569L68.9805 115.57C68.9812 115.571 68.9828 115.572 68.9844 115.573C68.9875 115.576 68.9919 115.58 68.998 115.586C69.0108 115.597 69.0305 115.615 69.0557 115.637C69.1061 115.681 69.1808 115.747 69.2773 115.83C69.4706 115.997 69.7521 116.237 70.1025 116.528C70.8038 117.111 71.7816 117.897 72.8896 118.711C73.9983 119.525 75.2339 120.366 76.4502 121.059C77.667 121.752 78.8501 122.288 79.8594 122.51C82.3731 122.894 84.7631 123.109 86.4404 123.493C87.2808 123.686 87.9866 123.93 88.457 124.285C88.6962 124.466 88.8832 124.682 88.9912 124.942C89.0983 125.201 89.1193 125.485 89.0596 125.791L89.0605 125.792C89.0001 126.203 88.7282 126.572 88.3438 126.897C87.9562 127.225 87.4269 127.532 86.7949 127.815C85.5294 128.384 83.8087 128.88 81.8691 129.268C77.9894 130.043 73.1846 130.396 69.2881 130.005C64.7614 129.55 59.7737 128.617 56.4834 126.97C54.8411 126.148 53.5788 125.126 53.0371 123.856C52.4861 122.565 52.7076 121.084 53.8828 119.419C54.0102 119.239 54.116 119.026 54.2041 118.81C54.7073 117.571 55.7905 116.682 57.1172 116.061C58.4452 115.439 60.0432 115.072 61.626 114.892ZM66.0479 115.337C64.7799 115.215 63.2327 115.212 61.6836 115.389C60.1328 115.566 58.5917 115.923 57.3291 116.514C56.0651 117.105 55.105 117.919 54.667 118.997C54.5699 119.236 54.4474 119.485 54.291 119.707C53.182 121.278 53.0344 122.576 53.4971 123.66C53.9692 124.767 55.1032 125.719 56.708 126.522C59.9124 128.126 64.8225 129.053 69.3379 129.507C73.176 129.892 77.9298 129.545 81.7705 128.777C83.6912 128.393 85.3719 127.906 86.5898 127.359C87.1992 127.086 87.6822 126.802 88.0205 126.516C88.3617 126.227 88.5302 125.959 88.5654 125.72L88.5908 125.542C88.6018 125.386 88.5782 125.252 88.5293 125.134C88.4633 124.974 88.3428 124.825 88.1562 124.684C87.7751 124.396 87.1573 124.17 86.3291 123.98C84.6706 123.6 82.345 123.396 79.7754 123.003L79.7676 123.002L79.7598 123C78.6759 122.763 77.4388 122.196 76.2031 121.492C74.9643 120.787 73.7115 119.934 72.5938 119.113C71.4758 118.292 70.4898 117.5 69.7832 116.913C69.4298 116.62 69.1457 116.377 68.9502 116.208C68.8525 116.124 68.777 116.057 68.7256 116.012L68.667 115.96C68.4779 115.836 68.1509 115.709 67.6963 115.599C67.2423 115.488 66.6818 115.398 66.0479 115.337Z" fill="#53221F"/>
<path d="M63 120C63 121.105 62.1046 122 61 122C59.8954 122 59 121.105 59 120C59 118.895 59.8954 118 61 118C62.1046 118 63 118.895 63 120Z" fill="#824030"/>
<path d="M59.3946 73.8298C58.2168 73.1712 56.7286 73.8416 56.5059 75.1725C55.7734 79.5504 55.7882 83.0973 56.8688 89.1918C56.9606 89.7092 57.2623 90.1723 57.6939 90.4721C74.4993 102.146 85.0383 107.774 103.016 116V94C88.5672 90.1655 76.7289 83.5232 59.3946 73.8298Z" fill="#DC9A20"/>
<path d="M103.016 116L145.446 94.541C146.104 94.2079 146.526 93.5394 146.543 92.8017L146.94 75.319C146.974 73.8127 145.394 72.8109 144.046 73.4847L103.016 94V116Z" fill="#B6620B"/>
<path d="M143.935 73.2607C145.45 72.503 147.229 73.63 147.19 75.3242L146.793 92.8076C146.774 93.6374 146.299 94.3891 145.559 94.7637L103.128 116.223L103.021 116.277L102.911 116.228C84.9237 107.997 74.3714 102.361 57.5518 90.6777C57.0667 90.3408 56.7267 89.8198 56.623 89.2354C55.5385 83.1186 55.5216 79.5422 56.2598 75.1309C56.5128 73.6203 58.1964 72.8732 59.5166 73.6113C76.8202 83.2875 88.6173 89.9047 102.988 93.7334L143.935 73.2607ZM59.2725 74.0479C58.2374 73.4691 56.9455 74.063 56.7529 75.2139C56.026 79.5583 56.0386 83.0762 57.1152 89.1484C57.1952 89.5988 57.4588 90.0039 57.8369 90.2666C74.5169 101.853 85.0143 107.476 102.766 115.609V94.1904C88.3656 90.3388 76.5264 83.6963 59.2725 74.0479ZM146.69 75.3135C146.72 73.9956 145.337 73.1187 144.158 73.708L103.266 94.1543V115.593L145.333 94.3174C145.909 94.026 146.278 93.4414 146.293 92.7959L146.69 75.3135Z" fill="#DC9A20"/>
<path d="M102.941 112.473C85.5164 104.458 74.1823 98.3988 56.6977 87.6219C56.6233 87.576 56.5279 87.6397 56.5451 87.7254L56.9917 89.9586C56.997 89.9851 57.0132 90.0085 57.0359 90.0232C74.2303 101.131 85.4315 108.29 102.859 115.938C102.925 115.967 103 115.919 103 115.847V112.564C103 112.525 102.977 112.489 102.941 112.473Z" fill="#B6620B"/>
<path d="M57.2246 89.8477C74.3195 100.891 85.4803 108.02 102.75 115.616V112.659C85.4615 104.704 74.157 98.6652 56.8574 88.0127L57.2246 89.8477ZM103.25 115.847C103.25 116.104 102.984 116.266 102.758 116.167C85.3109 108.51 74.095 101.342 56.9004 90.2334C56.822 90.1828 56.7649 90.1017 56.7461 90.0078L56.2998 87.7744C56.2413 87.4819 56.538 87.2814 56.7812 87.3848L56.8291 87.4092L60.0361 89.375C75.7444 98.9453 86.7189 104.736 103.046 112.246C103.168 112.303 103.25 112.426 103.25 112.564V115.847Z" fill="#B6620B"/>
<path d="M56.5001 73.5C56.4714 70.394 57.2035 68.4872 57.7699 68.0156C58.0672 67.768 58.4513 68.1566 58.7968 68.3308L102.654 90.4452C103.329 90.7852 103.754 91.4733 103.754 92.2284V99.5703C103.754 101.12 101.919 95.6613 99.7107 94.4053C87.7761 87.6187 56.5961 76.3309 56.5001 73.5Z" fill="#6D3012"/>
<path d="M103.504 92.2285C103.504 91.5682 103.132 90.9656 102.542 90.668L58.6838 68.5537C58.584 68.5033 58.484 68.439 58.3977 68.3838C58.3063 68.3253 58.2278 68.2753 58.1536 68.2383C57.999 68.1612 57.9578 68.1848 57.9299 68.208C57.826 68.2946 57.6927 68.4676 57.552 68.7471C57.4134 69.0224 57.2753 69.3856 57.1536 69.835C56.9105 70.7323 56.7366 71.9605 56.7502 73.4912L56.7649 73.5625C56.7951 73.6476 56.8752 73.7759 57.0481 73.9512C57.2675 74.1736 57.5978 74.4322 58.0344 74.7246C58.9061 75.3084 60.1669 76.0033 61.7258 76.7832C64.8418 78.342 69.1149 80.2279 73.7649 82.2402C83.0539 86.2601 93.8515 90.7864 99.8342 94.1885C100.434 94.5294 100.988 95.1412 101.477 95.8135C101.969 96.4904 102.411 97.253 102.78 97.9189C103.075 98.4522 103.317 98.9106 103.504 99.2295V92.2285ZM104.004 99.5703C104.004 99.6723 103.998 99.7731 103.972 99.8555C103.959 99.8968 103.934 99.9563 103.884 100.007C103.826 100.066 103.745 100.1 103.656 100.095C103.579 100.09 103.52 100.056 103.485 100.032C103.447 100.007 103.414 99.9762 103.387 99.9473C103.333 99.8893 103.278 99.8137 103.224 99.7314C103.01 99.4073 102.702 98.812 102.342 98.1611C101.976 97.4994 101.546 96.7586 101.073 96.1074C100.596 95.4515 100.092 94.9102 99.5872 94.623C93.6352 91.2385 82.8753 86.7266 73.5667 82.6982C68.918 80.6865 64.6324 78.7954 61.5022 77.2295C59.9384 76.4472 58.6545 75.7424 57.7561 75.1406C57.3077 74.8403 56.9453 74.5599 56.6917 74.3027C56.4492 74.0569 56.2598 73.787 56.2502 73.5088V73.502C56.2358 71.9299 56.4131 70.6532 56.6702 69.7041C56.7986 69.23 56.9478 68.8342 57.1047 68.5225C57.2596 68.2149 57.4304 67.9725 57.6096 67.8232C57.8791 67.5989 58.1792 67.6923 58.3772 67.791C58.4793 67.842 58.5802 67.9073 58.6672 67.9629C58.7592 68.0217 58.8367 68.0708 58.9094 68.1074L102.767 90.2217C103.525 90.604 104.004 91.3786 104.004 92.2285V99.5703Z" fill="#642609"/>
<path d="M103.534 98.937L103.942 92.156C103.983 91.4724 104.371 90.8573 104.971 90.5259L143.804 69.0534C145.073 68.3515 146.644 69.192 146.765 70.6376L146.994 73.3868C147.003 73.5008 147.003 73.6166 146.993 73.7305C146.675 77.3138 146.453 79.3403 144.008 81.0581L119.008 95.0581C110.695 99.6826 106.206 103.565 103.791 99.9866C103.585 99.6809 103.512 99.3051 103.534 98.937Z" fill="#511E0B"/>
<path d="M143.683 68.8345C145.111 68.0448 146.878 68.9905 147.014 70.6167L147.243 73.3657C147.254 73.494 147.254 73.6244 147.242 73.7524C147.084 75.5358 146.947 76.9716 146.534 78.1753C146.116 79.3957 145.416 80.374 144.151 81.2622L144.142 81.27L144.13 81.2759L119.13 95.2759L119.129 95.2769C117.055 96.4308 115.22 97.5377 113.59 98.4976C111.963 99.4552 110.536 100.269 109.29 100.827C108.048 101.382 106.954 101.697 106 101.625C105.025 101.552 104.225 101.077 103.584 100.126C103.34 99.7646 103.26 99.3308 103.284 98.9224L103.692 92.1411C103.739 91.372 104.175 90.68 104.85 90.3071L143.683 68.8345ZM146.516 70.6587C146.41 69.3939 145.036 68.658 143.925 69.272L105.092 90.7446C104.567 91.0346 104.227 91.5732 104.191 92.1714L103.783 98.9517C103.763 99.2794 103.83 99.5977 103.998 99.8472C104.564 100.686 105.232 101.067 106.037 101.127C106.864 101.19 107.865 100.917 109.086 100.371C110.303 99.8264 111.707 99.0258 113.336 98.0669C114.555 97.3493 115.896 96.544 117.369 95.6978L118.887 94.8394L143.873 80.8462C145.048 80.0187 145.679 79.128 146.062 78.0132C146.45 76.8783 146.584 75.5083 146.744 73.7085C146.753 73.6087 146.752 73.5073 146.744 73.4077L146.516 70.6587Z" fill="#55220E"/>
<path d="M106.865 48.0239C103.105 47.3924 68.3012 59.4104 58.5634 67.0972C58.1883 67.3934 57.9795 67.834 58.2791 68.2065C61.8622 72.6611 98.8153 88.5524 103.1 90.3851C103.38 90.505 103.61 90.7052 103.911 90.7554C107.956 91.4302 134.24 74.8108 144.711 69.2299C146.273 68.3974 146.616 65.793 145.112 64.8598C132.625 57.1128 109.609 49.2642 107.134 48.1217C107.035 48.0758 106.973 48.0421 106.865 48.0239Z" fill="#824120"/>
<path d="M105.78 47.8018C106.248 47.746 106.635 47.7317 106.907 47.7773C107.055 47.8023 107.151 47.8538 107.239 47.8945C107.847 48.1751 109.735 48.8746 112.444 49.8955C115.146 50.9132 118.647 52.2445 122.462 53.7822C130.087 56.856 138.98 60.7617 145.243 64.6475C146.1 65.1793 146.409 66.1732 146.31 67.1094C146.21 68.0448 145.697 68.9869 144.828 69.4502C139.595 72.2392 130.421 77.781 122.024 82.5557C117.831 84.9402 113.833 87.1324 110.629 88.6865C109.027 89.4633 107.618 90.0831 106.479 90.4883C105.91 90.6909 105.403 90.8415 104.971 90.9307C104.543 91.0188 104.168 91.0516 103.87 91.002C103.677 90.9698 103.515 90.8904 103.378 90.8154C103.231 90.7348 103.127 90.6688 103.002 90.6152C100.859 89.6986 90.5465 85.2662 80.3213 80.5059C75.2091 78.1259 70.1151 75.6626 66.0742 73.5146C64.054 72.4408 62.2933 71.4436 60.9238 70.5742C59.5642 69.7111 58.561 68.9563 58.084 68.3633C57.878 68.1071 57.8447 67.8153 57.9297 67.5479C58.0109 67.2926 58.1951 67.0697 58.4082 66.9014C60.8666 64.9607 64.8903 62.7576 69.584 60.5586C74.2825 58.3573 79.6698 56.1518 84.8682 54.207C90.0667 52.2622 95.0805 50.577 99.0312 49.417C101.006 48.8372 102.719 48.3875 104.058 48.1025C104.727 47.9601 105.306 47.8582 105.78 47.8018ZM106.824 48.2705C106.626 48.2373 106.299 48.2432 105.84 48.2979C105.386 48.3518 104.823 48.4511 104.162 48.5918C102.84 48.8731 101.141 49.3184 99.1719 49.8965C95.2351 51.0524 90.2337 52.7342 85.0439 54.6758C79.8542 56.6173 74.4793 58.8175 69.7959 61.0117C65.1079 63.2081 61.1293 65.3903 58.7188 67.293C58.5569 67.4208 58.4483 67.5671 58.4062 67.6992C58.3682 67.819 58.3804 67.9338 58.4736 68.0498C58.8924 68.5704 59.8287 69.2866 61.1924 70.1523C62.5463 71.0118 64.2939 72.0014 66.3086 73.0723C70.338 75.2141 75.4228 77.674 80.5322 80.0527C90.7502 84.8097 101.057 89.2392 103.198 90.1553C103.353 90.2216 103.505 90.3151 103.618 90.377C103.741 90.4445 103.844 90.4908 103.952 90.5088C104.16 90.5434 104.464 90.5251 104.87 90.4414C105.272 90.3586 105.756 90.2158 106.312 90.0176C107.426 89.6213 108.816 89.0098 110.411 88.2363C113.6 86.6897 117.586 84.5045 121.777 82.1211C130.151 77.3595 139.355 71.8007 144.593 69.0088C145.285 68.6396 145.726 67.8638 145.812 67.0557C145.898 66.2484 145.626 65.4735 144.979 65.0723C138.756 61.2111 129.898 57.3189 122.275 54.2461C118.466 52.7105 114.969 51.3806 112.269 50.3633C109.577 49.3492 107.659 48.6393 107.029 48.3486C106.919 48.2978 106.892 48.2819 106.824 48.2705Z" fill="#874217"/>
<path d="M131.131 62.5C133.131 76 122.058 78 109.631 78C97.205 78 85.6318 77 87.1314 63C87.1314 54.7157 97.205 48 109.631 48C122.058 48 131.131 54.2157 131.131 62.5Z" fill="#EC8400"/>
<path d="M114.132 77.8894V71.5572C114.132 71.5218 114.151 71.489 114.181 71.471L130.998 61.5788C131.061 61.5419 131.141 61.5853 131.148 61.6576C132.303 73.0414 128.43 76.5463 114.244 77.9887C114.185 77.9946 114.132 77.9486 114.132 77.8894Z" fill="#CE5A02"/>
<path d="M130.959 61.3262C131.136 61.2782 131.316 61.3818 131.377 61.5459L131.396 61.6328L131.49 62.6807C131.884 67.8151 131.139 71.3291 128.622 73.7324C125.957 76.2769 121.36 77.5164 114.27 78.2373C114.071 78.2575 113.882 78.1042 113.882 77.8896V71.5576C113.882 71.4336 113.948 71.3187 114.055 71.2559L130.871 61.3633L130.959 61.3262ZM114.382 71.6426V77.7217C121.382 76.998 125.767 75.766 128.276 73.3701C130.751 71.0073 131.454 67.4558 130.92 61.9141L114.382 71.6426Z" fill="#CE5A02"/>
<path d="M131.132 60C131.132 66.6274 121.282 72 109.132 72C96.9816 72 87.1318 66.6274 87.1318 60C87.1318 53.3726 96.9816 48 109.132 48C121.282 48 131.132 53.3726 131.132 60Z" fill="#FAA001"/>
<path d="M117 66C117 66.5523 116.828 67.5 116 67.5C115.172 67.5 114 66.5523 114 66C114 65.4477 114.672 65 115.5 65C116.328 65 117 65.4477 117 66Z" fill="#FECE4D"/>
<path d="M106.04 57.0934C105.322 57.2316 104.204 55.9821 104 54.9211C103.796 53.8601 104.213 52.888 104.932 52.7497C105.65 52.6114 106.768 53.861 106.972 54.922C107.176 55.9829 106.759 56.9551 106.04 57.0934Z" fill="#FECE4D"/>
<path d="M99.9999 60C99.9999 60.5523 98.8807 61.5 97.5 61.5C96.1193 61.5 95 61.0523 95 60.5C95 59.9477 96.1192 59 97.4999 59C98.8806 59 99.9999 59.4477 99.9999 60Z" fill="#FECE4D"/>
<path d="M123.5 57C123.75 57.4924 123.354 58.1957 122.615 58.5707C121.877 58.9458 120.703 58.742 120.453 58.2496C120.203 57.7571 120.599 57.0539 121.337 56.6788C122.076 56.3038 123.25 56.5076 123.5 57Z" fill="#FECE4D"/>
<path d="M112.242 56.5817C112.692 56.903 112.736 57.6107 112.341 58.1626C111.947 58.7145 111.263 58.9014 110.813 58.5802C110.364 58.2589 110.32 57.5512 110.714 56.9993C111.109 56.4475 111.793 56.2605 112.242 56.5817Z" fill="#63740F"/>
<path d="M110.462 60.0124C110.459 60.5647 109.402 61.022 108.723 61.0186C108.045 61.0152 107.497 60.5647 107.5 60.0124C107.503 59.4602 108.56 59.0029 109.238 59.0063C109.917 59.0097 110.465 59.4602 110.462 60.0124Z" fill="#63740F"/>
<path d="M105.59 59.964C105.868 60.4415 105.617 61.3525 105.03 61.6933C104.444 62.0341 103.743 61.9232 103.466 61.4457C103.188 60.9681 103.439 60.0572 104.026 59.7164C104.612 59.3756 105.313 59.4864 105.59 59.964Z" fill="#63740F"/>
<path d="M110.918 63.3134C111.177 63.8014 112 65 109.141 65.3872C107.901 66.0446 106.686 66.1819 106.428 65.6939C106.169 65.2059 106.965 64.2775 108.205 63.6201C109.5 62.4998 110.66 62.8255 110.918 63.3134Z" fill="#63740F"/>
<path d="M113.884 59.4943C113.521 60.1785 112.333 61.8408 116.905 62.6825C118.936 63.759 120.876 64.0771 121.239 63.393C121.601 62.7088 120.249 61.2814 118.218 60.2048C116.054 58.4498 114.247 58.8101 113.884 59.4943Z" fill="#63740F"/>
<path d="M118.238 53.3293C118.356 53.9979 118.893 55.7064 114.95 55.1579C113.016 55.4992 111.352 55.2338 111.234 54.5652C111.117 53.8965 112.589 53.0778 114.523 52.7366C116.741 51.8669 118.12 52.6606 118.238 53.3293Z" fill="#63740F"/>
<path d="M101.967 64.8684C102.044 65.3051 102.37 66.4256 100.2 65.9957C99.1465 66.1816 98.2302 65.9781 98.1532 65.5414C98.0761 65.1046 98.8674 64.5999 99.9206 64.414C101.12 63.89 101.89 64.4316 101.967 64.8684Z" fill="#63740F"/>
<path d="M100.019 56.1725C99.0551 56.3426 96.5561 56.9125 97.9354 54.5632C97.7485 53.5044 98.3785 52.5081 99.3424 52.338C100.306 52.1679 101.239 52.8884 101.426 53.9473C102.317 55.0887 100.983 56.0024 100.019 56.1725Z" fill="#63740F"/>
<path d="M101.99 88.4954C88.5937 82.5347 80.7217 78.4988 66.0674 70.0389C66.0282 70.0163 65.9777 70.0223 65.9457 70.0543L64.0981 71.9019C64.0498 71.9502 64.063 72.0315 64.1241 72.062L88 84C96.6642 88.4496 102.168 92.2428 107.5 90L114 87C108.598 89.3182 106.111 89.3065 102.011 88.5022C102.004 88.5008 101.996 88.4984 101.99 88.4954Z" fill="#A95E30"/>
<path d="M65.7686 69.8779C65.8686 69.7779 66.0155 69.7508 66.1406 69.7979L66.1924 69.8223L68.8623 71.3574C81.8392 78.7867 89.5345 82.6792 102.075 88.2598C104.109 88.6582 105.724 88.8559 107.492 88.6738C109.266 88.4911 111.213 87.9244 113.901 86.7705L114.104 87.2266L107.604 90.2266L107.597 90.2305C104.844 91.3882 102.061 90.9769 98.9082 89.7422C95.7672 88.5119 92.1992 86.4379 87.8857 84.2227L64.0127 72.2861C63.7992 72.1794 63.7525 71.8946 63.9209 71.7256L65.7686 69.8779ZM64.4219 71.9316L88.1113 83.7764L88.1143 83.7773C92.4647 86.0116 95.9809 88.0593 99.0908 89.2773C102.093 90.453 104.659 90.8311 107.161 89.8672L107.403 89.7695L109.368 88.8623C108.732 89.0089 108.13 89.1105 107.543 89.1709C105.697 89.361 104.021 89.1509 101.963 88.7471C101.937 88.742 101.912 88.7343 101.888 88.7236C88.5129 82.7724 80.6381 78.7376 66.04 70.3125L64.4219 71.9316Z" fill="#9E4B15"/>
<path d="M69.9212 66.9499C67.473 70.3519 66.4296 71.6262 63.506 71.8321C60.8331 72.0203 64.337 65.5742 65.2967 64.4838C65.3578 64.4143 65.3366 64.363 65.2453 64.3785C63.7429 64.6337 56.247 65.7343 56.006 62.3321C55.7454 58.653 64.0306 58.9428 65.7253 59.2243C64.574 58.1969 60.6526 51.6058 64.006 49.3321C67.1353 47.2103 69.9229 55.886 70.4255 57.5577C70.4528 57.6485 70.5806 57.6589 70.619 57.5723C71.2811 56.0808 74.7232 48.745 77.506 50.8321C80.1633 52.825 75.6443 58.4787 74.681 59.6271C74.621 59.6985 74.6804 59.8078 74.7729 59.7961C76.1731 59.6195 82.6032 58.9637 82.506 61.8321C82.4127 64.5836 76.5218 64.4158 75.2474 64.3473C75.1578 64.3424 75.1052 64.4479 75.1624 64.517C75.9458 65.4624 79.3336 69.7894 77.506 71.8321C75.3294 74.2647 70.7403 67.8862 70.0846 66.946C70.0448 66.889 69.9619 66.8935 69.9212 66.9499Z" fill="#9767AB"/>
<path d="M65.1846 48.7588C65.6208 48.8022 66.0313 48.9991 66.4102 49.2881C67.1624 49.862 67.8402 50.8383 68.4199 51.9023C69.4482 53.7899 70.2112 56.0466 70.5498 57.125C70.9886 56.1725 71.9213 54.2711 73.0654 52.7119C73.7172 51.8238 74.4546 51.022 75.2246 50.5781C75.6122 50.3548 76.0194 50.2153 76.4355 50.2109C76.8561 50.2066 77.2675 50.3403 77.6562 50.6318C78.4088 51.1963 78.6398 52.0197 78.5703 52.9053C78.5015 53.7814 78.1385 54.7449 77.6738 55.6592C76.862 57.2564 75.7021 58.7649 75.0977 59.5088C75.9829 59.4114 77.6718 59.2724 79.2256 59.4238C80.1222 59.5112 81.0014 59.6966 81.6572 60.0605C82.3254 60.4315 82.7842 61.0047 82.7559 61.8408C82.7288 62.635 82.2775 63.2067 81.6455 63.6064C81.0203 64.0018 80.198 64.2445 79.3633 64.3936C77.9161 64.6519 76.363 64.6383 75.5547 64.6084C76.0375 65.2135 76.9106 66.3779 77.5381 67.6523C77.9025 68.3926 78.1924 69.1852 78.2695 69.9346C78.3471 70.6877 78.2105 71.42 77.6924 71.999C77.3851 72.3424 77.0253 72.5388 76.6309 72.6055C76.2411 72.6713 75.8359 72.607 75.4355 72.4619C74.6404 72.1737 73.8116 71.5467 73.0537 70.8359C71.6782 69.5458 70.4665 67.9104 70.0029 67.2598C68.8443 68.8666 67.9813 70.0142 67.0508 70.7822C66.0713 71.5907 65.0272 71.9752 63.5234 72.0811C63.1414 72.1079 62.8231 72.0184 62.5986 71.791C62.3805 71.5698 62.2914 71.2587 62.2734 70.9307C62.238 70.2794 62.4731 69.4143 62.8057 68.5479C63.1419 67.6718 63.5917 66.7583 64.0176 65.9961C64.3056 65.4805 64.5891 65.0261 64.8213 64.6953C63.8167 64.8462 61.9244 65.0775 60.1387 64.9766C59.0806 64.9168 58.0349 64.7405 57.2305 64.3477C56.4161 63.9499 55.8252 63.3146 55.7568 62.3496C55.6834 61.3126 56.2231 60.5635 57.043 60.0439C57.8524 59.531 58.956 59.224 60.0938 59.0459C61.9379 58.7573 63.9413 58.7982 65.1006 58.9004C64.8515 58.5821 64.5688 58.1677 64.2852 57.6934C63.801 56.8836 63.2987 55.876 62.9395 54.8262C62.5813 53.7793 62.3589 52.6724 62.4492 51.6699C62.5403 50.6594 62.9517 49.7445 63.8652 49.125C64.2993 48.8307 64.7433 48.7149 65.1846 48.7588ZM65.1348 49.2568C64.8227 49.2259 64.4947 49.303 64.1465 49.5391C63.3836 50.0564 63.0281 50.8182 62.9473 51.7148C62.8657 52.6197 63.0663 53.6516 63.4131 54.665C63.7589 55.6754 64.2439 56.6505 64.7139 57.4365C65.1611 58.1845 65.5834 58.7398 65.8467 58.9941C65.9055 59.0053 65.9582 59.0151 66.002 59.0273C66.0328 59.036 66.0666 59.0466 66.0977 59.0605C66.1132 59.0676 66.1336 59.0777 66.1543 59.0918C66.1635 59.098 66.1763 59.1078 66.1904 59.1211L66.2344 59.1729L66.2646 59.2383C66.2848 59.3042 66.2754 59.3699 66.2539 59.4199C66.2308 59.4735 66.1959 59.5072 66.1797 59.5215C66.1448 59.5523 66.1069 59.5708 66.0918 59.5781C65.9551 59.6447 65.8243 59.5893 65.7676 59.5605C65.7182 59.5355 65.6698 59.5001 65.6221 59.4619C64.7433 59.3286 62.3402 59.2005 60.1709 59.54C59.0583 59.7142 58.0342 60.0073 57.3105 60.4658C56.5973 60.9178 56.199 61.512 56.2559 62.3145C56.308 63.0506 56.7444 63.5537 57.4502 63.8984C58.1659 64.2479 59.1334 64.4191 60.167 64.4775C62.2294 64.5941 64.4557 64.2588 65.2031 64.1318C65.2464 64.1245 65.3044 64.1204 65.3652 64.1367C65.4297 64.154 65.5109 64.1997 65.5547 64.2939C65.596 64.3832 65.5813 64.4684 65.5625 64.5205C65.5433 64.5735 65.5127 64.6172 65.4844 64.6494C65.2631 64.9009 64.8745 65.4879 64.4541 66.2402C64.0367 66.9873 63.598 67.8784 63.2725 68.7266C62.9432 69.5844 62.7431 70.3649 62.7725 70.9033C62.787 71.1697 62.8562 71.34 62.9541 71.4395C63.0458 71.5325 63.2025 71.6031 63.4883 71.583C64.908 71.483 65.8473 71.127 66.7324 70.3965C67.6349 69.6515 68.4895 68.5118 69.7188 66.8037L69.7734 66.7441C69.8962 66.6385 70.09 66.6174 70.2266 66.7334L70.29 66.8027L70.7041 67.3779C71.2764 68.1497 72.2845 69.4296 73.3955 70.4717C74.139 71.169 74.9075 71.7392 75.6055 71.9922C75.9516 72.1177 76.2675 72.1596 76.5479 72.1123C76.8233 72.0657 77.0827 71.9295 77.3193 71.665C77.715 71.2229 77.8405 70.6483 77.7725 69.9863C77.7039 69.3204 77.4408 68.588 77.0889 67.873C76.3856 66.4447 75.3577 65.145 74.9697 64.6768C74.7749 64.4416 74.9512 64.0811 75.2607 64.0977L75.9277 64.1221C76.7674 64.1391 78.0646 64.1175 79.2754 63.9014C80.0842 63.757 80.8326 63.5294 81.3779 63.1846C81.9163 62.8441 82.2362 62.4045 82.2559 61.8232C82.276 61.2254 81.9677 60.8053 81.4141 60.498C80.8479 60.1838 80.0504 60.006 79.1768 59.9209C77.4353 59.7512 75.5001 59.9561 74.8037 60.0439C74.4849 60.0838 74.2845 59.7114 74.4893 59.4668L74.9922 58.8457C75.6178 58.0482 76.55 56.7675 77.2285 55.4326C77.6816 54.5411 78.011 53.6463 78.0723 52.8662C78.1328 52.0955 77.9322 51.4643 77.3564 51.0322C77.0494 50.802 76.7434 50.7078 76.4404 50.7109C76.1334 50.7142 75.8101 50.8178 75.4736 51.0117C74.7951 51.4029 74.108 52.1367 73.4688 53.0078C72.1943 54.7445 71.1773 56.9311 70.8477 57.6738C70.7094 57.9853 70.2767 57.9288 70.1865 57.6299C69.9361 56.7967 69.1193 54.2303 67.9814 52.1416C67.4103 51.0933 66.7725 50.1937 66.1064 49.6855C65.7763 49.4338 65.4517 49.2883 65.1348 49.2568Z" fill="#794D92"/>
<path d="M59 62H66.2C66.2961 62 66.3369 61.8777 66.26 61.82L64.8962 60.7971C64.8089 60.7317 64.8746 60.5936 64.9804 60.6201L66.3233 60.9558C66.3998 60.975 66.4673 60.902 66.4424 60.8272L66.0763 59.729C66.0482 59.6445 66.1362 59.5681 66.2159 59.608L67.9355 60.4678C67.974 60.487 68.0205 60.4795 68.051 60.449L68.442 60.058C68.4757 60.0243 68.4816 59.9725 68.4552 59.9328C67.4903 58.4812 65.7708 55.761 65.9599 55.5175C65.9776 55.4948 66.0109 55.5124 66.0299 55.5341L69.4262 59.4156C69.4655 59.4606 69.5352 59.4612 69.5754 59.417L73.8609 54.703C73.9417 54.6142 74.0818 54.717 74.0213 54.8206L71.112 59.808C71.0686 59.8824 71.1335 59.9733 71.218 59.9564L73.0677 59.5865C73.1721 59.5656 73.2325 59.7006 73.1473 59.7645L71.7158 60.8382C71.6416 60.8938 71.6766 61.0118 71.7691 61.0179L79 61.5L72.2184 61.9844C72.133 61.9905 72.0943 62.0943 72.1549 62.1549L73.3293 63.3293C73.3923 63.3923 73.3477 63.5 73.2586 63.5H72.1553C72.0826 63.5 72.0342 63.5752 72.0643 63.6414L74.2718 68.498C74.3179 68.5993 74.1888 68.6888 74.1101 68.6101L70.0981 64.5981C70.0498 64.5498 69.9685 64.563 69.938 64.6241L69.1375 66.2249C69.0942 66.3116 68.9652 66.2922 68.949 66.1968C68.7736 65.1631 68.5 63.6376 68.5 64C68.5 64.3552 66.1349 67.1017 64.5547 68.8797C64.4761 68.9681 64.339 68.8705 64.3951 68.7663L67.3876 63.2087C67.4296 63.1308 67.3572 63.0408 67.2721 63.0651L64.7294 63.7916C64.617 63.8237 64.5469 63.6645 64.6457 63.602C65.4407 63.0993 66.3097 62.5 66 62.5C65.6 62.5 61.1667 62.1667 59 62Z" fill="#794D92"/>
<path d="M73.8242 54.6689C73.9454 54.5364 74.155 54.6903 74.0645 54.8457L71.1553 59.833C71.1336 59.8702 71.1658 59.9155 71.208 59.9072L73.0576 59.5371C73.2142 59.5058 73.3052 59.7088 73.1777 59.8047L71.7461 60.8779C71.709 60.9058 71.7262 60.9647 71.7725 60.9678L79.0029 61.4502L79.0039 61.5498L72.2217 62.0342C72.1792 62.0375 72.1603 62.0889 72.1904 62.1191L73.3643 63.2939C73.4587 63.3884 73.3923 63.5496 73.2588 63.5498H72.1553C72.1189 63.5498 72.0943 63.588 72.1094 63.6211L74.3174 68.4775C74.3862 68.6295 74.1922 68.7635 74.0742 68.6455L70.0625 64.6338C70.0384 64.6097 69.9977 64.616 69.9824 64.6465L69.1826 66.2471C69.1176 66.3771 68.9237 66.3481 68.8994 66.2051C68.8117 65.6884 68.6996 65.0486 68.6094 64.584C68.5727 64.3948 68.5377 64.2361 68.5117 64.126C68.4932 64.1659 68.4696 64.213 68.4385 64.2646C68.3696 64.379 68.2699 64.5235 68.1465 64.6914C67.8992 65.0278 67.5528 65.4616 67.1582 65.9385C66.3689 66.8923 65.382 68.024 64.5918 68.9131C64.5332 68.9788 64.4502 68.9745 64.3955 68.9355C64.3409 68.8967 64.309 68.8195 64.3506 68.7422L67.3438 63.1846C67.3643 63.1458 67.3284 63.1014 67.2861 63.1133L64.7432 63.8398C64.6581 63.8641 64.5896 63.8141 64.5625 63.7529C64.5355 63.6917 64.5445 63.6068 64.6191 63.5596C65.0163 63.3084 65.431 63.0344 65.707 62.8232C65.8463 62.7167 65.9453 62.6288 65.9912 62.5703C65.9972 62.5627 66.0004 62.5554 66.0039 62.5498C66.0027 62.5498 66.0014 62.5498 66 62.5498C65.5975 62.5498 61.1607 62.2163 58.9961 62.0498L59 61.9502H66.2002C66.2479 61.95 66.2682 61.8893 66.2305 61.8604L64.8662 60.8369C64.7355 60.7388 64.8337 60.5321 64.9922 60.5713L66.335 60.9072C66.3732 60.9168 66.407 60.8802 66.3945 60.8428L66.0293 59.7451C65.987 59.6183 66.1188 59.5037 66.2383 59.5635L67.958 60.4229C67.9772 60.4324 68.0004 60.4291 68.0156 60.4141L68.4062 60.0225C68.4236 60.0051 68.4269 59.9792 68.4141 59.96C67.9314 59.2338 67.2589 58.1908 66.7314 57.2979C66.4678 56.8516 66.2395 56.4418 66.0889 56.1279C66.0137 55.9713 65.9577 55.8365 65.9258 55.7324C65.9099 55.6805 65.8993 55.6337 65.8965 55.5947C65.8938 55.558 65.8974 55.5176 65.9209 55.4873L65.9404 55.4688C65.9481 55.4639 65.9568 55.4599 65.9658 55.458C65.9824 55.4547 65.9977 55.458 66.0098 55.4619C66.0332 55.4697 66.0538 55.4855 66.0674 55.501L69.4639 59.3828C69.4834 59.4051 69.518 59.4055 69.5381 59.3838L73.8242 54.6689ZM73.9785 54.7959C74.0088 54.7441 73.9378 54.6919 73.8975 54.7363L69.6123 59.4502C69.552 59.5165 69.4477 59.5157 69.3887 59.4482L65.9961 55.5723C65.996 55.5768 65.9957 55.5821 65.9961 55.5879C65.9982 55.6162 66.0066 55.6546 66.0215 55.7031C66.0512 55.8 66.1053 55.929 66.1797 56.084C66.3284 56.3939 66.5542 56.8015 66.8174 57.2471C67.3436 58.1379 68.0149 59.1799 68.4971 59.9053C68.5369 59.9654 68.5275 60.0438 68.4775 60.0938L68.0859 60.4844C68.0403 60.5299 67.9708 60.5415 67.9131 60.5127L66.1934 59.6523C66.1537 59.6328 66.1102 59.6708 66.124 59.7129L66.4902 60.8115C66.5274 60.9236 66.4262 61.0324 66.3115 61.0039L64.9688 60.6689C64.916 60.6558 64.8827 60.724 64.9258 60.7568L66.29 61.7803C66.4051 61.8668 66.3441 62.0496 66.2002 62.0498H60.3311C62.6127 62.2227 65.6728 62.4502 66 62.4502C66.0224 62.4502 66.045 62.4525 66.0645 62.4609C66.0856 62.4701 66.1055 62.4874 66.1123 62.5146C66.1183 62.5388 66.111 62.562 66.1035 62.5791C66.0956 62.5968 66.0841 62.6152 66.0703 62.6328C66.0155 62.7024 65.9061 62.7963 65.7676 62.9023C65.4878 63.1164 65.0705 63.3931 64.6729 63.6445C64.6487 63.6598 64.6429 63.686 64.6543 63.7119C64.6657 63.7378 64.6887 63.7509 64.7158 63.7432L67.2588 63.0166C67.3862 62.9806 67.4945 63.1157 67.4316 63.2324L64.4395 68.79C64.4251 68.8168 64.4337 68.8406 64.4531 68.8545C64.4725 68.8683 64.4976 68.8691 64.5176 68.8467C65.3075 67.9579 66.2928 66.8266 67.0811 65.874C67.4752 65.3977 67.8199 64.9668 68.0654 64.6328C68.1883 64.4657 68.2859 64.3235 68.3525 64.2129C68.3858 64.1576 68.4112 64.1106 68.4277 64.0732C68.4448 64.0345 68.4502 64.0111 68.4502 64C68.4502 63.9775 68.4505 63.9563 68.4541 63.9414C68.4551 63.9374 68.4573 63.9323 68.46 63.9268C68.4625 63.9217 68.4683 63.9108 68.4805 63.9033C68.4957 63.894 68.514 63.8937 68.5283 63.8994C68.5394 63.904 68.5465 63.9112 68.5498 63.915C68.5566 63.9229 68.5616 63.9322 68.5645 63.9385C68.5677 63.9457 68.5702 63.9549 68.5732 63.9639C68.5794 63.9818 68.5866 64.0049 68.5938 64.0322C68.6226 64.1422 68.6629 64.3329 68.708 64.5654C68.7984 65.0313 68.9103 65.6716 68.998 66.1885C69.0062 66.2364 69.0712 66.2454 69.0928 66.2021L69.8936 64.6016C69.9394 64.5102 70.0615 64.4902 70.1338 64.5625L74.1455 68.5742C74.1849 68.6136 74.2496 68.5692 74.2266 68.5186L72.0186 63.6621C71.9735 63.5628 72.0462 63.4502 72.1553 63.4502H73.2588C73.3032 63.45 73.3254 63.3957 73.2939 63.3643L72.1191 62.1904C72.0284 62.0995 72.0867 61.9438 72.2148 61.9346L78.2754 61.501L71.7656 61.0674C71.6269 61.058 71.5743 60.8813 71.6855 60.7979L73.1172 59.7246C73.1598 59.6927 73.1294 59.6253 73.0771 59.6357L71.2275 60.0059C71.1011 60.0309 71.0039 59.8947 71.0684 59.7832L73.9785 54.7959Z" fill="#794D92"/>
<path d="M71.5 62C71.5 62.8284 70.3284 63.5 69.5 63.5C68.6716 63.5 68 62.3284 68 61.5C68 60.6716 69.1716 60 70 60C70.8284 60 71.5 61.1716 71.5 62Z" fill="#FDB209"/>
<path d="M68 61.5C68 60.6716 69.1716 60 70 60C70.8284 60 71.5 61.1716 71.5 62C71.5 62.8284 70.3284 63.5 69.5 63.5V63.2998C69.8675 63.2998 70.3285 63.1479 70.6973 62.8955C71.0709 62.6397 71.2998 62.3174 71.2998 62C71.2998 61.6325 71.1479 61.1715 70.8955 60.8027C70.6397 60.4291 70.3174 60.2002 70 60.2002C69.6325 60.2002 69.1715 60.3521 68.8027 60.6045C68.4291 60.8603 68.2002 61.1826 68.2002 61.5C68.2002 61.8675 68.3521 62.3285 68.6045 62.6973C68.8603 63.0709 69.1826 63.2998 69.5 63.2998V63.5C68.6716 63.5 68 62.3284 68 61.5Z" fill="#5826C2"/>
<path d="M52.891 107C57.4941 108.159 53.4337 115.315 43.391 110C38.8578 107.601 46.8082 97.7145 47.361 97.0366C47.3811 97.0119 47.4047 97.0008 47.4365 97.0028C48.067 97.0421 55.1078 97.5093 59.391 99C73.284 103.835 48.2878 105.841 52.891 107Z" fill="#C65102"/>
<path d="M47.4395 96.9531C48.0687 96.9924 55.1164 97.4598 59.4072 98.9531C61.1451 99.558 62.2805 100.12 62.9424 100.646C63.2735 100.908 63.4898 101.164 63.6016 101.414C63.714 101.666 63.7196 101.91 63.6357 102.144C63.5524 102.376 63.3818 102.595 63.1455 102.802C62.9088 103.009 62.6037 103.206 62.249 103.395C61.5398 103.771 60.6248 104.113 59.6396 104.426C57.6721 105.051 55.4057 105.564 53.9326 105.989C53.5634 106.096 53.243 106.196 52.9893 106.292C52.7343 106.388 52.5513 106.478 52.4502 106.561C52.3996 106.602 52.3761 106.636 52.3691 106.662C52.3635 106.684 52.3669 106.708 52.3945 106.738C52.4241 106.77 52.478 106.806 52.5635 106.843C52.6483 106.879 52.7609 106.915 52.9033 106.951C54.0677 107.244 54.6971 107.922 54.8105 108.698C54.9236 109.472 54.5207 110.326 53.6631 110.968C51.9461 112.254 48.3972 112.706 43.3672 110.044C42.7911 109.739 42.4114 109.314 42.1914 108.802C41.9718 108.291 41.9129 107.696 41.9717 107.053C42.0892 105.768 42.679 104.279 43.4248 102.85C44.9173 99.9888 47.0455 97.3443 47.3223 97.0049C47.3361 96.988 47.3532 96.9733 47.374 96.9639C47.3948 96.9545 47.4169 96.9517 47.4395 96.9531ZM47.415 97.0557C47.4111 97.0575 47.4056 97.0607 47.3994 97.0684C47.1227 97.4077 44.9999 100.045 43.5127 102.896C42.7686 104.322 42.1869 105.798 42.0713 107.062C42.0136 107.694 42.0721 108.271 42.2832 108.763C42.4939 109.253 42.8573 109.661 43.4141 109.956C48.4268 112.609 51.9304 112.141 53.6035 110.888C54.4406 110.261 54.8171 109.44 54.7109 108.713C54.6049 107.988 54.0159 107.335 52.8789 107.049C52.7337 107.012 52.6159 106.974 52.5244 106.935C52.4338 106.896 52.3649 106.853 52.3213 106.806C52.2761 106.756 52.2557 106.699 52.2715 106.638C52.2862 106.581 52.3297 106.529 52.3867 106.482C52.5014 106.389 52.6985 106.296 52.9541 106.199C53.2115 106.102 53.5341 105.999 53.9043 105.893C55.3891 105.464 57.6401 104.957 59.6094 104.331C60.5924 104.019 61.5008 103.678 62.2021 103.307C62.5527 103.121 62.8502 102.927 63.0791 102.727C63.3081 102.526 63.4664 102.321 63.542 102.11C63.617 101.901 63.6119 101.684 63.5098 101.455C63.4069 101.225 63.2047 100.981 62.8809 100.724C62.2326 100.209 61.1101 99.6507 59.375 99.0469C55.1 97.559 48.0671 97.0923 47.4336 97.0527C47.4245 97.0522 47.4188 97.0539 47.415 97.0557Z" fill="#CD4C05"/>
<path d="M49.1278 91.6968C48.0669 92.6144 46.1827 94.182 45.6414 94.4021C45.5928 94.4219 45.5538 94.4681 45.5551 94.5205L45.7244 101.215C45.7266 101.303 45.8313 101.345 45.8939 101.285L49.2625 98.0295C49.282 98.0107 49.293 97.9847 49.293 97.9576V91.7731C49.293 91.6873 49.1927 91.6407 49.1278 91.6968Z" fill="#862A06"/>
<path d="M49.0952 91.6588C49.1931 91.5744 49.3428 91.6454 49.3428 91.7732L49.3425 97.9573C49.3425 97.998 49.3263 98.0375 49.2971 98.0657L45.9283 101.321C45.8344 101.411 45.6783 101.347 45.6749 101.217L45.505 94.5214C45.5032 94.443 45.5603 94.3813 45.6224 94.356C45.7514 94.3035 45.9661 94.1673 46.2359 93.9747C46.5042 93.7832 46.8234 93.5389 47.1588 93.2721C47.8294 92.7385 48.5651 92.1174 49.0952 91.6588ZM49.1605 91.7349C48.6298 92.1939 47.8932 92.8158 47.2213 93.3504C46.8855 93.6176 46.5651 93.8634 46.2948 94.0563C46.026 94.2482 45.8013 94.3909 45.6598 94.4485C45.6251 94.4628 45.6042 94.4934 45.6049 94.5195L45.7747 101.214C45.7758 101.258 45.8282 101.279 45.8595 101.249L49.2273 97.994C49.2371 97.9846 49.2434 97.9707 49.2434 97.9571L49.2427 91.7731C49.2426 91.7294 49.1924 91.7073 49.1605 91.7349Z" fill="#862A06"/>
<path d="M45.4966 94.9307C43.0178 95.0508 41.3607 94.3201 38.549 93.1755C38.4788 93.1469 38.4027 93.2035 38.4111 93.2788L39.0981 99.4412C39.1021 99.4775 39.1267 99.5091 39.1604 99.523C42.4837 100.893 43.4579 101.573 45.634 101.449C45.6873 101.446 45.7294 101.401 45.7283 101.348L45.603 95.029C45.6019 94.9723 45.5533 94.9279 45.4966 94.9307Z" fill="#953206"/>
<path d="M38.3612 93.2847C38.3485 93.1709 38.4632 93.0866 38.5678 93.1292C41.3817 94.2747 43.0287 95 45.4946 94.8805C45.5785 94.8767 45.6514 94.9426 45.6531 95.028L45.7788 101.347C45.7801 101.427 45.7163 101.495 45.6365 101.499C43.446 101.624 42.457 100.935 39.1418 99.5687C39.0917 99.5481 39.0546 99.5014 39.0485 99.4463L38.3612 93.2847ZM38.5298 93.2222C38.4941 93.2078 38.4572 93.2363 38.4611 93.273L39.1475 99.4357C39.1495 99.4533 39.1625 99.4696 39.1799 99.4767C42.5104 100.85 43.4697 101.522 45.6307 101.399C45.6574 101.397 45.6782 101.375 45.6779 101.349L45.5532 95.0298C45.5526 95.0022 45.5284 94.9789 45.4994 94.9801C43.0076 95.1009 41.3394 94.366 38.5298 93.2222Z" fill="#953206"/>
<path d="M38.2522 91.6636L38.3871 93.0563C38.3904 93.0905 38.4115 93.1208 38.4422 93.1362C40.638 94.2383 41.9808 94.7659 45.0774 94.971C45.0941 94.9721 45.1115 94.9688 45.1267 94.9618C47.2465 93.9783 48.2045 93.2585 49.2563 91.6104C49.2783 91.5759 49.2768 91.5303 49.2525 91.4974C46.9975 88.4512 43.3032 88.3334 42.4857 88.6958C41.6669 89.0589 40.7018 89.0434 38.2799 91.5844C38.2599 91.6054 38.2494 91.6348 38.2522 91.6636Z" fill="#AE4811"/>
<path d="M42.4655 88.6499C42.6799 88.5549 43.073 88.4948 43.5717 88.5025C44.0724 88.5103 44.6853 88.5869 45.3431 88.7704C46.6591 89.1377 48.1572 89.9338 49.2925 91.4675C49.3293 91.5171 49.3314 91.5858 49.2982 91.6377C48.7704 92.4647 48.2646 93.0609 47.6236 93.5739C46.983 94.0865 46.2088 94.5145 45.1478 95.0068C45.1251 95.0173 45.0994 95.0224 45.0746 95.0208C43.5239 94.9181 42.4094 94.7348 41.4075 94.4381C40.406 94.1416 39.5181 93.7326 38.4198 93.1814C38.374 93.1584 38.3425 93.1124 38.3375 93.0608L38.2026 91.6689C38.1984 91.6251 38.2144 91.5812 38.2441 91.5501C39.4572 90.2773 40.3076 89.6419 40.9597 89.2795C41.2858 89.0983 41.5616 88.9861 41.8065 88.8963C42.053 88.8059 42.2628 88.7398 42.4655 88.6499ZM38.4367 93.0512C38.4383 93.068 38.4495 93.0838 38.4651 93.0916C39.5622 93.6423 40.4438 94.0482 41.4365 94.3421C42.429 94.636 43.5349 94.8187 45.0806 94.9211C45.0889 94.9217 45.0982 94.9202 45.1057 94.9167C46.1644 94.4255 46.9299 94.0017 47.5612 93.4965C48.1918 92.9919 48.6907 92.4037 49.2145 91.583C49.2251 91.566 49.2239 91.5434 49.212 91.5273C48.0924 90.0149 46.6153 89.2288 45.3161 88.8663C44.6666 88.6851 44.0618 88.6104 43.5697 88.6028C43.0756 88.5952 42.7001 88.655 42.5058 88.7412C42.2992 88.8328 42.0815 88.9019 41.8411 88.9901C41.5992 89.0788 41.3285 89.1892 41.0084 89.3671C40.3679 89.7229 39.525 90.3507 38.3165 91.6186C38.3062 91.6294 38.3004 91.6454 38.3018 91.6593L38.4367 93.0512Z" fill="#862A06"/>
<path d="M58.1278 93.6968C57.0669 94.6144 55.1827 96.182 54.6414 96.4021C54.5928 96.4219 54.5538 96.4681 54.5551 96.5205L54.7244 103.215C54.7266 103.303 54.8313 103.345 54.8939 103.285L58.2625 100.03C58.282 100.011 58.293 99.9847 58.293 99.9576V93.7731C58.293 93.6873 58.1927 93.6407 58.1278 93.6968Z" fill="#862A06"/>
<path d="M58.0952 93.6588C58.1931 93.5744 58.3428 93.6454 58.3428 93.7732L58.3425 99.9573C58.3425 99.998 58.3263 100.037 58.2971 100.066L54.9283 103.321C54.8344 103.411 54.6783 103.347 54.6749 103.217L54.505 96.5214C54.5032 96.443 54.5603 96.3813 54.6224 96.356C54.7514 96.3035 54.9661 96.1673 55.2359 95.9747C55.5042 95.7832 55.8234 95.5389 56.1588 95.2721C56.8294 94.7385 57.5651 94.1173 58.0952 93.6588ZM58.1605 93.7349C57.6298 94.1939 56.8932 94.8158 56.2213 95.3504C55.8855 95.6176 55.5651 95.8634 55.2948 96.0563C55.026 96.2482 54.8013 96.3909 54.6598 96.4485C54.6251 96.4628 54.6042 96.4934 54.6049 96.5195L54.7747 103.214C54.7758 103.258 54.8282 103.279 54.8595 103.249L58.2273 99.994C58.2371 99.9846 58.2434 99.9707 58.2434 99.9571L58.2427 93.7731C58.2426 93.7293 58.1924 93.7073 58.1605 93.7349Z" fill="#862A06"/>
<path d="M54.4966 96.9307C52.0178 97.0508 50.3607 96.3201 47.549 95.1755C47.4788 95.1469 47.4027 95.2035 47.4111 95.2788L48.0981 101.441C48.1021 101.477 48.1267 101.509 48.1604 101.523C51.4837 102.893 52.4579 103.573 54.634 103.449C54.6873 103.446 54.7294 103.401 54.7283 103.348L54.603 97.029C54.6019 96.9723 54.5533 96.9279 54.4966 96.9307Z" fill="#953206"/>
<path d="M47.3612 95.2847C47.3485 95.1709 47.4632 95.0866 47.5678 95.1292C50.3817 96.2747 52.0287 97 54.4946 96.8805C54.5785 96.8767 54.6514 96.9426 54.6531 97.028L54.7788 103.347C54.7801 103.427 54.7163 103.495 54.6365 103.499C52.446 103.624 51.457 102.935 48.1418 101.569C48.0917 101.548 48.0546 101.501 48.0485 101.446L47.3612 95.2847ZM47.5298 95.2222C47.4941 95.2078 47.4572 95.2363 47.4611 95.273L48.1475 101.436C48.1495 101.453 48.1625 101.47 48.1799 101.477C51.5104 102.85 52.4697 103.522 54.6307 103.399C54.6574 103.397 54.6782 103.375 54.6779 103.349L54.5532 97.0298C54.5526 97.0022 54.5284 96.9789 54.4994 96.9801C52.0076 97.1009 50.3394 96.366 47.5298 95.2222Z" fill="#953206"/>
<path d="M47.2522 93.6636L47.3871 95.0563C47.3904 95.0905 47.4115 95.1208 47.4422 95.1362C49.638 96.2383 50.9808 96.7659 54.0774 96.971C54.0941 96.9721 54.1115 96.9688 54.1267 96.9618C56.2465 95.9783 57.2045 95.2585 58.2563 93.6104C58.2783 93.5759 58.2768 93.5303 58.2525 93.4974C55.9975 90.4512 52.3032 90.3334 51.4857 90.6958C50.6669 91.0589 49.7018 91.0434 47.2799 93.5844C47.2599 93.6054 47.2494 93.6348 47.2522 93.6636Z" fill="#AE4811"/>
<path d="M51.4655 90.6499C51.6799 90.5549 52.073 90.4948 52.5717 90.5025C53.0724 90.5103 53.6853 90.5869 54.3431 90.7704C55.6591 91.1377 57.1572 91.9338 58.2925 93.4675C58.3293 93.5171 58.3314 93.5858 58.2982 93.6377C57.7704 94.4647 57.2646 95.0609 56.6236 95.5739C55.983 96.0865 55.2088 96.5145 54.1478 97.0068C54.1251 97.0173 54.0994 97.0224 54.0746 97.0208C52.5239 96.9181 51.4094 96.7348 50.4075 96.4381C49.406 96.1416 48.5181 95.7326 47.4198 95.1814C47.374 95.1584 47.3425 95.1124 47.3375 95.0608L47.2026 93.6689C47.1984 93.6251 47.2144 93.5812 47.2441 93.5501C48.4572 92.2773 49.3076 91.6419 49.9597 91.2795C50.2858 91.0983 50.5616 90.9861 50.8065 90.8963C51.053 90.8059 51.2628 90.7398 51.4655 90.6499ZM47.4367 95.0512C47.4383 95.068 47.4495 95.0838 47.4651 95.0916C48.5622 95.6423 49.4438 96.0482 50.4365 96.3421C51.429 96.636 52.5349 96.8187 54.0806 96.9211C54.0889 96.9217 54.0982 96.9202 54.1057 96.9167C55.1644 96.4255 55.9299 96.0017 56.5612 95.4965C57.1918 94.9919 57.6907 94.4037 58.2145 93.583C58.2251 93.566 58.2239 93.5434 58.212 93.5273C57.0924 92.0149 55.6153 91.2288 54.3161 90.8663C53.6666 90.6851 53.0618 90.6104 52.5697 90.6028C52.0756 90.5952 51.7001 90.655 51.5058 90.7412C51.2992 90.8328 51.0815 90.9019 50.8411 90.9901C50.5992 91.0788 50.3285 91.1892 50.0084 91.3671C49.3679 91.7229 48.525 92.3507 47.3165 93.6186C47.3062 93.6294 47.3004 93.6454 47.3018 93.6593L47.4367 95.0512Z" fill="#862A06"/>
<path d="M40.8719 95.661C39.7376 96.4666 37.6589 97.8838 37.0907 98.0531C37.0404 98.0681 36.9971 98.1104 36.9934 98.1627L36.5153 104.855C36.5093 104.94 36.6051 104.993 36.6739 104.943L41.9492 101.107C41.9803 101.084 41.9956 101.046 41.9888 101.008L41.0282 95.725C41.0151 95.6528 40.9317 95.6186 40.8719 95.661Z" fill="#862A06"/>
<path d="M40.8428 95.6206C40.9326 95.5568 41.0575 95.6084 41.0771 95.7163L42.0381 101C42.0482 101.056 42.0249 101.113 41.9785 101.147L36.7031 104.984C36.6 105.059 36.4569 104.979 36.4658 104.852L36.9434 98.1587C36.9492 98.0805 37.0119 98.0246 37.0762 98.0054C37.2117 97.965 37.4434 97.8477 37.7363 97.6782C38.0278 97.5096 38.3763 97.2921 38.7422 97.0542C39.4738 96.5786 40.276 96.0231 40.8428 95.6206ZM40.9004 95.7017C40.3329 96.1047 39.529 96.6606 38.7959 97.1372C38.4295 97.3754 38.0806 97.5943 37.7871 97.7642C37.4952 97.9331 37.253 98.0568 37.1045 98.1011C37.0686 98.1119 37.0448 98.1405 37.043 98.1665L36.5654 104.859C36.5624 104.901 36.6101 104.928 36.6445 104.903L41.9199 101.066C41.9352 101.055 41.9428 101.036 41.9395 101.017L40.9795 95.7339C40.9729 95.6975 40.9301 95.6805 40.9004 95.7017Z" fill="#862A06"/>
<path d="M36.8956 98.5653C34.4086 98.4454 32.8275 97.5529 30.1232 96.1344C30.0629 96.1028 29.9885 96.1389 29.9773 96.206L29.0119 101.999C29.0048 102.041 29.0263 102.084 29.0643 102.104C32.2459 103.79 34.1982 104.969 36.4045 105.066C36.4578 105.069 36.5032 105.028 36.5073 104.975L36.992 98.6734C36.9964 98.6168 36.9522 98.568 36.8956 98.5653Z" fill="#953206"/>
<path d="M29.9277 96.1978C29.9446 96.0964 30.0567 96.0432 30.1465 96.0903C32.8529 97.5099 34.4245 98.3959 36.8984 98.5151C36.9823 98.5194 37.0485 98.592 37.042 98.6772L36.5576 104.979C36.5513 105.059 36.4828 105.12 36.4023 105.117C35.2906 105.068 34.2447 104.745 33.0801 104.226C31.9165 103.707 30.6302 102.99 29.041 102.148C28.9844 102.118 28.9523 102.055 28.9629 101.991L29.9277 96.1978ZM30.0996 96.1782C30.0689 96.1625 30.0318 96.1816 30.0264 96.2144L29.0615 102.007C29.0582 102.028 29.0686 102.05 29.0879 102.06C30.68 102.904 31.9607 103.619 33.1201 104.135C34.2785 104.652 35.3119 104.968 36.4062 105.016C36.4322 105.017 36.4548 104.998 36.457 104.971L36.9424 98.6694C36.9444 98.6419 36.9226 98.6163 36.8936 98.6147C34.3936 98.4942 32.8019 97.5956 30.0996 96.1782Z" fill="#953206"/>
<path d="M30 94.6148V96.014C30 96.0483 30.0181 96.0805 30.0471 96.0988C32.1264 97.4076 33.4121 98.0622 36.4745 98.5649C36.491 98.5676 36.5086 98.5661 36.5244 98.5606C38.7292 97.7861 39.7521 97.162 40.958 95.623C40.9832 95.5908 40.9861 95.5454 40.965 95.5103C39.0144 92.2607 35.3486 91.7872 34.5 92.0691C33.65 92.3515 32.6909 92.2431 30.0353 94.5386C30.0133 94.5575 30 94.5858 30 94.6148Z" fill="#AE4811"/>
<path d="M34.4844 92.0215C34.7069 91.9476 35.1039 91.9257 35.5996 91.9814C36.0972 92.0374 36.6999 92.1728 37.3369 92.4189C38.6114 92.9114 40.0256 93.8483 41.0078 95.4844C41.0396 95.5373 41.035 95.6058 40.9971 95.6543C40.392 96.4265 39.831 96.9711 39.1436 97.4199C38.4565 97.8684 37.6446 98.2198 36.541 98.6074C36.5174 98.6157 36.4914 98.6182 36.4668 98.6143C34.9332 98.3625 33.8416 98.0726 32.873 97.6807C31.9048 97.2889 31.0605 96.7962 30.0205 96.1416C29.9771 96.1143 29.9502 96.0655 29.9502 96.0137V94.6152C29.9502 94.5712 29.9704 94.5291 30.0029 94.501C31.3331 93.3512 32.2408 92.8007 32.9248 92.5029C33.2669 92.354 33.5522 92.2689 33.8047 92.2031C34.0587 92.1369 34.2739 92.0914 34.4844 92.0215ZM30.0498 96.0137C30.0498 96.0305 30.0595 96.0474 30.0742 96.0566C31.1131 96.7105 31.9514 97.1996 32.9111 97.5879C33.8707 97.9761 34.9538 98.2646 36.4824 98.5156C36.4906 98.517 36.5 98.5164 36.5078 98.5137C37.6089 98.1269 38.4118 97.7788 39.0889 97.3369C39.7651 96.8955 40.3185 96.3581 40.9189 95.5918C40.9312 95.5759 40.9322 95.5533 40.9219 95.5361C39.9534 93.9228 38.559 92.9979 37.3008 92.5117C36.6718 92.2687 36.077 92.1361 35.5879 92.0811C35.0969 92.0258 34.7174 92.0492 34.5156 92.1162C34.3012 92.1875 34.0779 92.2352 33.8301 92.2998C33.5808 92.3648 33.3007 92.4486 32.9648 92.5947C32.293 92.8872 31.3936 93.4307 30.0684 94.5762C30.057 94.586 30.0498 94.6013 30.0498 94.6152V96.0137Z" fill="#862A06"/>
<path d="M49.8719 99.661C48.7376 100.467 46.6589 101.884 46.0907 102.053C46.0404 102.068 45.9971 102.11 45.9934 102.163L45.5153 108.855C45.5093 108.94 45.6051 108.993 45.6739 108.943L50.9492 105.107C50.9803 105.084 50.9956 105.046 50.9888 105.008L50.0282 99.725C50.0151 99.6528 49.9317 99.6186 49.8719 99.661Z" fill="#862A06"/>
<path d="M49.8428 99.6206C49.9326 99.5568 50.0575 99.6084 50.0771 99.7163L51.0381 105C51.0482 105.056 51.0249 105.113 50.9785 105.147L45.7031 108.984C45.6 109.059 45.4569 108.979 45.4658 108.852L45.9434 102.159C45.9492 102.081 46.0119 102.025 46.0762 102.005C46.2117 101.965 46.4434 101.848 46.7363 101.678C47.0278 101.51 47.3763 101.292 47.7422 101.054C48.4738 100.579 49.276 100.023 49.8428 99.6206ZM49.9004 99.7017C49.3329 100.105 48.529 100.661 47.7959 101.137C47.4295 101.375 47.0806 101.594 46.7871 101.764C46.4952 101.933 46.253 102.057 46.1045 102.101C46.0686 102.112 46.0448 102.14 46.043 102.167L45.5654 108.859C45.5624 108.901 45.6101 108.928 45.6445 108.903L50.9199 105.066C50.9352 105.055 50.9428 105.036 50.9395 105.017L49.9795 99.7339C49.9729 99.6975 49.9301 99.6805 49.9004 99.7017Z" fill="#862A06"/>
<path d="M45.8956 102.565C43.4086 102.445 41.8275 101.553 39.1232 100.134C39.0629 100.103 38.9885 100.139 38.9773 100.206L38.0119 105.999C38.0048 106.041 38.0263 106.084 38.0643 106.104C41.2459 107.79 43.1982 108.969 45.4045 109.066C45.4578 109.069 45.5032 109.028 45.5073 108.975L45.992 102.673C45.9964 102.617 45.9522 102.568 45.8956 102.565Z" fill="#953206"/>
<path d="M38.9277 100.198C38.9446 100.096 39.0567 100.043 39.1465 100.09C41.8529 101.51 43.4245 102.396 45.8984 102.515C45.9823 102.519 46.0485 102.592 46.042 102.677L45.5576 108.979C45.5513 109.059 45.4828 109.12 45.4023 109.117C44.2906 109.068 43.2447 108.745 42.0801 108.226C40.9165 107.707 39.6302 106.99 38.041 106.148C37.9844 106.118 37.9523 106.055 37.9629 105.991L38.9277 100.198ZM39.0996 100.178C39.0689 100.162 39.0318 100.182 39.0264 100.214L38.0615 106.007C38.0582 106.028 38.0686 106.05 38.0879 106.06C39.68 106.904 40.9607 107.619 42.1201 108.135C43.2785 108.652 44.3119 108.968 45.4062 109.016C45.4322 109.017 45.4548 108.998 45.457 108.971L45.9424 102.669C45.9444 102.642 45.9226 102.616 45.8936 102.615C43.3936 102.494 41.8019 101.596 39.0996 100.178Z" fill="#953206"/>
<path d="M39 98.6148V100.014C39 100.048 39.0181 100.081 39.0471 100.099C41.1264 101.408 42.4121 102.062 45.4745 102.565C45.491 102.568 45.5086 102.566 45.5244 102.561C47.7292 101.786 48.7521 101.162 49.958 99.623C49.9832 99.5908 49.9861 99.5454 49.965 99.5103C48.0144 96.2607 44.3486 95.7872 43.5 96.0691C42.65 96.3515 41.6909 96.2431 39.0353 98.5386C39.0133 98.5575 39 98.5858 39 98.6148Z" fill="#AE4811"/>
<path d="M43.4844 96.0215C43.7069 95.9476 44.1039 95.9257 44.5996 95.9814C45.0972 96.0374 45.6999 96.1728 46.3369 96.4189C47.6114 96.9114 49.0256 97.8483 50.0078 99.4844C50.0396 99.5373 50.035 99.6058 49.9971 99.6543C49.392 100.426 48.831 100.971 48.1436 101.42C47.4565 101.868 46.6446 102.22 45.541 102.607C45.5174 102.616 45.4914 102.618 45.4668 102.614C43.9332 102.362 42.8416 102.073 41.873 101.681C40.9048 101.289 40.0605 100.796 39.0205 100.142C38.9771 100.114 38.9502 100.065 38.9502 100.014V98.6152C38.9502 98.5712 38.9704 98.5291 39.0029 98.501C40.3331 97.3512 41.2408 96.8007 41.9248 96.5029C42.2669 96.354 42.5522 96.2689 42.8047 96.2031C43.0587 96.1369 43.2739 96.0914 43.4844 96.0215ZM39.0498 100.014C39.0498 100.031 39.0595 100.047 39.0742 100.057C40.1131 100.711 40.9514 101.2 41.9111 101.588C42.8707 101.976 43.9538 102.265 45.4824 102.516C45.4906 102.517 45.5 102.516 45.5078 102.514C46.6089 102.127 47.4118 101.779 48.0889 101.337C48.7651 100.895 49.3185 100.358 49.9189 99.5918C49.9312 99.5759 49.9322 99.5533 49.9219 99.5361C48.9534 97.9228 47.559 96.9979 46.3008 96.5117C45.6718 96.2687 45.077 96.1361 44.5879 96.0811C44.0969 96.0258 43.7174 96.0492 43.5156 96.1162C43.3012 96.1875 43.0779 96.2352 42.8301 96.2998C42.5808 96.3648 42.3007 96.4486 41.9648 96.5947C41.293 96.8872 40.3936 97.4307 39.0684 98.5762C39.057 98.586 39.0498 98.6013 39.0498 98.6152V100.014Z" fill="#862A06"/>
<path d="M48.8719 87.661C47.7376 88.4666 45.6589 89.8838 45.0907 90.0531C45.0404 90.0681 44.9971 90.1104 44.9934 90.1627L44.5153 96.8554C44.5093 96.9402 44.6051 96.9934 44.6739 96.9434L49.9492 93.1068C49.9803 93.0842 49.9956 93.0458 49.9888 93.008L49.0282 87.725C49.0151 87.6528 48.9317 87.6186 48.8719 87.661Z" fill="#862A06"/>
<path d="M48.8428 87.6206C48.9326 87.5568 49.0575 87.6084 49.0771 87.7163L50.0381 92.9995C50.0482 93.056 50.0249 93.1132 49.9785 93.147L44.7031 96.9839C44.6 97.0587 44.4569 96.9791 44.4658 96.8521L44.9434 90.1587C44.9492 90.0805 45.0119 90.0246 45.0762 90.0054C45.2117 89.965 45.4434 89.8477 45.7363 89.6782C46.0278 89.5096 46.3763 89.2921 46.7422 89.0542C47.4738 88.5786 48.276 88.0231 48.8428 87.6206ZM48.9004 87.7017C48.3329 88.1047 47.529 88.6606 46.7959 89.1372C46.4295 89.3754 46.0806 89.5943 45.7871 89.7642C45.4952 89.9331 45.253 90.0568 45.1045 90.1011C45.0686 90.1119 45.0448 90.1405 45.043 90.1665L44.5654 96.8589C44.5624 96.9013 44.6101 96.9278 44.6445 96.9028L49.9199 93.0659C49.9352 93.0546 49.9428 93.0358 49.9395 93.0171L48.9795 87.7339C48.9729 87.6975 48.9301 87.6805 48.9004 87.7017Z" fill="#862A06"/>
<path d="M44.8956 90.4954C42.4086 90.3756 40.8275 89.4831 38.1232 88.0646C38.0629 88.0329 37.9885 88.0691 37.9773 88.1362L37.0119 93.9289C37.0048 93.9714 37.0263 94.0139 37.0643 94.034C40.2459 95.7198 42.1982 96.899 44.4045 96.9965C44.4578 96.9988 44.5032 96.9581 44.5073 96.9049L44.992 90.6035C44.9964 90.547 44.9522 90.4982 44.8956 90.4954Z" fill="#953206"/>
<path d="M37.9277 88.1279C37.9446 88.0265 38.0567 87.9734 38.1465 88.0205C40.8529 89.4401 42.4245 90.3261 44.8984 90.4453C44.9823 90.4496 45.0485 90.5222 45.042 90.6074L44.5576 96.9092C44.5513 96.9887 44.4828 97.0504 44.4023 97.0469C43.2906 96.9977 42.2447 96.6753 41.0801 96.1562C39.9165 95.6376 38.6302 94.9201 37.041 94.0781C36.9844 94.0481 36.9523 93.9849 36.9629 93.9209L37.9277 88.1279ZM38.0996 88.1084C38.0689 88.0927 38.0318 88.1118 38.0264 88.1445L37.0615 93.9375C37.0582 93.9582 37.0686 93.98 37.0879 93.9902C38.68 94.8338 39.9607 95.5487 41.1201 96.0654C42.2785 96.5817 43.3119 96.8979 44.4062 96.9463C44.4322 96.9474 44.4548 96.9279 44.457 96.9014L44.9424 90.5996C44.9444 90.572 44.9226 90.5465 44.8936 90.5449C42.3936 90.4244 40.8019 89.5258 38.0996 88.1084Z" fill="#953206"/>
<path d="M38 86.6148V88.014C38 88.0483 38.0181 88.0805 38.0471 88.0988C40.1264 89.4076 41.4121 90.0622 44.4745 90.5649C44.491 90.5676 44.5086 90.5661 44.5244 90.5606C46.7292 89.7861 47.7521 89.162 48.958 87.623C48.9832 87.5908 48.9861 87.5454 48.965 87.5103C47.0144 84.2607 43.3486 83.7872 42.5 84.0691C41.65 84.3515 40.6909 84.2431 38.0353 86.5386C38.0133 86.5575 38 86.5858 38 86.6148Z" fill="#AE4811"/>
<path d="M42.4844 84.0215C42.7069 83.9476 43.1039 83.9257 43.5996 83.9814C44.0972 84.0374 44.6999 84.1728 45.3369 84.4189C46.6114 84.9114 48.0256 85.8483 49.0078 87.4844C49.0396 87.5373 49.035 87.6058 48.9971 87.6543C48.392 88.4265 47.831 88.9711 47.1436 89.4199C46.4565 89.8684 45.6446 90.2198 44.541 90.6074C44.5174 90.6157 44.4914 90.6182 44.4668 90.6143C42.9332 90.3625 41.8416 90.0726 40.873 89.6807C39.9048 89.2889 39.0605 88.7962 38.0205 88.1416C37.9771 88.1143 37.9502 88.0655 37.9502 88.0137V86.6152C37.9502 86.5712 37.9704 86.5291 38.0029 86.501C39.3331 85.3512 40.2408 84.8007 40.9248 84.5029C41.2669 84.354 41.5522 84.2689 41.8047 84.2031C42.0587 84.1369 42.2739 84.0914 42.4844 84.0215ZM38.0498 88.0137C38.0498 88.0305 38.0595 88.0474 38.0742 88.0566C39.1131 88.7105 39.9514 89.1996 40.9111 89.5879C41.8707 89.9761 42.9538 90.2646 44.4824 90.5156C44.4906 90.517 44.5 90.5164 44.5078 90.5137C45.6089 90.1269 46.4118 89.7788 47.0889 89.3369C47.7651 88.8955 48.3185 88.3581 48.9189 87.5918C48.9312 87.5759 48.9322 87.5533 48.9219 87.5361C47.9534 85.9228 46.559 84.9979 45.3008 84.5117C44.6718 84.2687 44.077 84.1361 43.5879 84.0811C43.0969 84.0258 42.7174 84.0492 42.5156 84.1162C42.3012 84.1875 42.0779 84.2352 41.8301 84.2998C41.5808 84.3648 41.3007 84.4486 40.9648 84.5947C40.293 84.8872 39.3936 85.4307 38.0684 86.5762C38.057 86.5859 38.0498 86.6013 38.0498 86.6152V88.0137Z" fill="#862A06"/>
</svg>
