<svg width="200" height="200" viewBox="0 0 200 200" fill="none" xmlns="http://www.w3.org/2000/svg">
<path d="M100 34.5591C124.753 34.5591 147.145 42.18 163.337 54.478C179.529 66.7759 189.5 83.7294 189.5 102.416C189.5 121.102 179.529 138.054 163.337 150.352C147.145 162.65 124.754 170.272 100 170.272C75.2464 170.272 52.8553 162.65 36.6631 150.352C20.4713 138.054 10.5 121.102 10.5 102.416C10.5 83.7294 20.4713 66.7759 36.6631 54.478C52.8552 42.18 75.2466 34.5591 100 34.5591Z" fill="#D4C9D4" stroke="#E5E3E2"/>
<path d="M100 29.5C124.755 29.5 147.147 37.051 163.339 49.2354C179.531 61.4195 189.5 78.2143 189.5 96.7236C189.5 115.233 179.531 132.028 163.339 144.212C147.147 156.396 124.755 163.947 100 163.947C75.2454 163.947 52.8533 156.396 36.6611 144.212C20.4692 132.028 10.5001 115.233 10.5 96.7236C10.5 78.2143 20.4691 61.4195 36.6611 49.2354C52.8533 37.051 75.2453 29.5 100 29.5Z" fill="#FFFBF2" stroke="#F8F4F2"/>
<path d="M100.536 38.3579C121.303 38.358 140.082 44.3543 153.657 54.0229C167.233 63.6924 175.571 77.0047 175.571 91.6567C175.571 106.309 167.234 119.622 153.657 129.292C140.082 138.96 121.303 144.955 100.536 144.956C79.7695 144.956 60.9893 138.96 47.4141 129.292C33.8378 119.622 25.5 106.309 25.5 91.6567C25.5 77.0047 33.8379 63.6924 47.4141 54.0229C60.9893 44.3542 79.7694 38.3579 100.536 38.3579Z" fill="#E5E2E3" stroke="#E5E3E2"/>
<path d="M140.835 118.537C138.963 118.975 137.838 119.803 136.249 121.287C135.899 121.615 135.325 121.474 135.173 121.019C135.073 120.719 135.204 120.391 135.479 120.235C137.498 119.1 138.498 118.228 138.922 116.384C138.98 116.132 138.972 115.869 138.918 115.616C138.156 112.018 137.875 109.671 138.466 106.656C138.694 105.491 139.934 104.997 140.674 105.926C142.574 108.315 143.872 112.356 143.5 110C143.097 107.448 144.063 101.059 145.934 98.7781C146.449 98.1506 147.332 98.4155 147.788 99.0869C149.897 102.192 150.256 104.56 149.775 106.266L150.789 103.563C150.927 103.196 151.17 102.876 151.488 102.646C155.039 100.063 157.28 98.4341 160.588 99.2287C161.173 99.3691 161.646 99.8234 161.755 100.415C162.011 101.801 161.47 102.624 160.595 103.865C160.532 103.955 160.46 104.041 160.382 104.119C156.844 107.671 154.899 108.402 151.5 109C155.354 108.566 157.659 108.397 160.007 109.81C160.644 110.193 160.97 110.977 160.705 111.671C160.393 112.487 159.787 113.129 158.17 113.918C158.058 113.973 157.936 114.017 157.815 114.048C151.662 115.638 149.757 115.3 146 115C149.118 115.489 151.078 115.863 152.499 117.228C153.163 117.866 152.938 118.921 152.202 119.474C151.759 119.806 151.187 119.914 150.653 119.767C147.427 118.877 145.357 118.319 141.17 118.493C141.058 118.497 140.944 118.512 140.835 118.537Z" fill="#486017" stroke="#486017" stroke-width="0.5"/>
<path d="M54.4358 118.903C56.2812 114.359 66.5962 114.543 68.6968 115.686C68.7789 115.731 68.8441 115.784 68.9143 115.845C69.7758 116.601 75.9239 121.905 79.8128 122.756C84.8995 123.533 89.2507 123.594 88.8128 125.756C88.4304 128.357 77.0477 130.533 69.3128 129.756C60.2705 128.847 49.518 126.035 54.0867 119.563C54.2286 119.362 54.3432 119.131 54.4358 118.903Z" fill="#53221F" stroke="#53221F" stroke-width="0.5"/>
<circle cx="61" cy="120" r="2" fill="#824030"/>
<path d="M59.3946 73.8298C58.2168 73.1712 56.7286 73.8416 56.5059 75.1725C55.7734 79.5504 55.7882 83.0973 56.8688 89.1918C56.9606 89.7092 57.2623 90.1723 57.6939 90.4721C74.4993 102.146 85.0383 107.774 103.016 116V94C88.5672 90.1655 76.7288 83.5232 59.3946 73.8298Z" fill="#DC9A20"/>
<path d="M103.016 116L145.446 94.541C146.104 94.2079 146.526 93.5394 146.543 92.8017L146.94 75.319C146.974 73.8127 145.394 72.8109 144.046 73.4847L103.016 94V116Z" fill="#B6620B"/>
<path d="M103.016 116C85.0383 107.774 74.4993 102.146 57.6939 90.4721C57.2623 90.1723 56.9606 89.7092 56.8688 89.1918C55.7882 83.0973 55.7734 79.5504 56.5059 75.1725C56.7286 73.8416 58.2168 73.1712 59.3946 73.8298C76.7288 83.5232 88.5672 90.1655 103.016 94M103.016 116L145.446 94.541C146.104 94.2079 146.526 93.5394 146.543 92.8017L146.94 75.319C146.974 73.8127 145.394 72.8109 144.046 73.4847L103.016 94M103.016 116V94" stroke="#DC9A20" stroke-width="0.5"/>
<path d="M102.941 112.473C85.5164 104.458 74.1823 98.3988 56.6977 87.6219C56.6233 87.576 56.5279 87.6397 56.5451 87.7254L56.9917 89.9586C56.997 89.985 57.0132 90.0085 57.0359 90.0232C74.2303 101.131 85.4315 108.29 102.859 115.938C102.925 115.967 103 115.919 103 115.847V112.564C103 112.525 102.977 112.489 102.941 112.473Z" fill="#B6620B" stroke="#B6620B" stroke-width="0.5"/>
<path d="M56.5001 73.5C56.4714 70.394 57.2035 68.4872 57.7699 68.0156C58.0672 67.768 58.4513 68.1566 58.7968 68.3308L102.654 90.4452C103.329 90.7852 103.754 91.4733 103.754 92.2284V99.5703C103.754 101.12 101.919 95.6613 99.7107 94.4053C87.7761 87.6187 56.5961 76.3309 56.5001 73.5Z" fill="#6D3012" stroke="#642609" stroke-width="0.5"/>
<path d="M103.534 98.937L103.942 92.156C103.983 91.4724 104.371 90.8573 104.971 90.5259L143.804 69.0534C145.073 68.3515 146.644 69.192 146.765 70.6376L146.994 73.3868C147.003 73.5008 147.003 73.6166 146.993 73.7305C146.675 77.3138 146.453 79.3403 144.008 81.0581L119.008 95.0581C110.695 99.6826 106.206 103.565 103.791 99.9866C103.585 99.6809 103.512 99.3051 103.534 98.937Z" fill="#511E0B" stroke="#55220E" stroke-width="0.5"/>
<path d="M106.865 48.0239C103.105 47.3924 68.3012 59.4104 58.5635 67.0972C58.1883 67.3934 57.9795 67.834 58.2791 68.2065C61.8622 72.6611 98.8153 88.5524 103.1 90.3851C103.38 90.505 103.61 90.7052 103.911 90.7554C107.956 91.4302 134.24 74.8108 144.711 69.2299C146.273 68.3974 146.616 65.793 145.112 64.8598C132.625 57.1128 109.609 49.2642 107.134 48.1217C107.035 48.0758 106.973 48.0421 106.865 48.0239Z" fill="#824120" stroke="#874217" stroke-width="0.5"/>
<path d="M131.131 62.5C133.131 76 122.058 78 109.631 78C97.205 78 85.6318 77 87.1314 63C87.1314 54.7157 97.205 48 109.631 48C122.058 48 131.131 54.2157 131.131 62.5Z" fill="#EC8400"/>
<path d="M114.132 77.8894V71.5572C114.132 71.5218 114.151 71.489 114.181 71.471L130.998 61.5788C131.061 61.5419 131.141 61.5853 131.148 61.6576C132.303 73.0414 128.43 76.5463 114.244 77.9887C114.185 77.9946 114.132 77.9486 114.132 77.8894Z" fill="#CE5A02" stroke="#CE5A02" stroke-width="0.5"/>
<ellipse cx="109.132" cy="60" rx="22" ry="12" fill="#FAA001"/>
<path d="M117 66C117 66.5523 116.828 67.5 116 67.5C115.172 67.5 114 66.5523 114 66C114 65.4477 114.672 65 115.5 65C116.328 65 117 65.4477 117 66Z" fill="#FECE4D"/>
<path d="M106.04 57.0934C105.322 57.2316 104.204 55.982 104 54.9211C103.796 53.8601 104.213 52.8879 104.932 52.7496C105.65 52.6114 106.768 53.861 106.972 54.9219C107.176 55.9829 106.759 56.9551 106.04 57.0934Z" fill="#FECE4D"/>
<path d="M99.9999 60C99.9999 60.5523 98.8807 61.5 97.5 61.5C96.1193 61.5 95 61.0523 95 60.5C95 59.9477 96.1192 59 97.4999 59C98.8806 59 99.9999 59.4477 99.9999 60Z" fill="#FECE4D"/>
<path d="M123.5 57C123.75 57.4924 123.354 58.1957 122.615 58.5707C121.877 58.9458 120.703 58.742 120.453 58.2496C120.203 57.7571 120.599 57.0539 121.337 56.6788C122.076 56.3038 123.25 56.5076 123.5 57Z" fill="#FECE4D"/>
<ellipse cx="111.528" cy="57.581" rx="1.22839" ry="1" transform="rotate(-54.4339 111.528 57.581)" fill="#63740F"/>
<path d="M110.462 60.0124C110.459 60.5647 109.402 61.022 108.723 61.0186C108.045 61.0152 107.497 60.5647 107.5 60.0124C107.503 59.4602 108.56 59.0029 109.238 59.0063C109.917 59.0097 110.465 59.4602 110.462 60.0124Z" fill="#63740F"/>
<path d="M105.59 59.9639C105.868 60.4415 105.617 61.3524 105.03 61.6932C104.444 62.034 103.743 61.9232 103.466 61.4457C103.188 60.9682 103.439 60.0572 104.026 59.7164C104.612 59.3756 105.313 59.4864 105.59 59.9639Z" fill="#63740F"/>
<path d="M110.918 63.3134C111.177 63.8014 112 65 109.141 65.3872C107.901 66.0446 106.686 66.1819 106.428 65.6939C106.169 65.2059 106.965 64.2775 108.205 63.6201C109.5 62.4998 110.66 62.8254 110.918 63.3134Z" fill="#63740F"/>
<path d="M113.884 59.4943C113.521 60.1785 112.333 61.8408 116.905 62.6825C118.936 63.759 120.876 64.0771 121.239 63.393C121.601 62.7088 120.249 61.2814 118.218 60.2048C116.054 58.4498 114.247 58.8101 113.884 59.4943Z" fill="#63740F"/>
<path d="M118.238 53.3293C118.356 53.9979 118.893 55.7064 114.95 55.1579C113.016 55.4992 111.352 55.2338 111.234 54.5652C111.116 53.8965 112.589 53.0778 114.523 52.7366C116.741 51.8669 118.12 52.6606 118.238 53.3293Z" fill="#63740F"/>
<path d="M101.967 64.8684C102.044 65.3051 102.37 66.4256 100.2 65.9957C99.1465 66.1816 98.2302 65.9781 98.1532 65.5414C98.0761 65.1046 98.8674 64.5999 99.9206 64.414C101.12 63.89 101.89 64.4316 101.967 64.8684Z" fill="#63740F"/>
<path d="M100.019 56.1725C99.0551 56.3426 96.5561 56.9125 97.9354 54.5632C97.7485 53.5044 98.3785 52.5081 99.3424 52.338C100.306 52.1679 101.239 52.8884 101.426 53.9473C102.317 55.0887 100.983 56.0024 100.019 56.1725Z" fill="#63740F"/>
<path d="M101.99 88.4954C88.5937 82.5347 80.7217 78.4988 66.0674 70.0389C66.0282 70.0163 65.9777 70.0223 65.9457 70.0543L64.0981 71.9019C64.0498 71.9502 64.063 72.0315 64.1241 72.062L88 84C96.6642 88.4496 102.168 92.2428 107.5 90L114 87C108.598 89.3182 106.111 89.3065 102.011 88.5022C102.004 88.5008 101.996 88.4984 101.99 88.4954Z" fill="#A95E30" stroke="#9E4B15" stroke-width="0.5"/>
<path d="M69.9212 66.9499C67.473 70.3519 66.4297 71.6262 63.506 71.8321C60.8331 72.0203 64.337 65.5742 65.2967 64.4838C65.3578 64.4143 65.3366 64.363 65.2453 64.3785C63.7429 64.6337 56.247 65.7343 56.006 62.3321C55.7454 58.653 64.0306 58.9428 65.7253 59.2243C64.574 58.1969 60.6526 51.6058 64.006 49.3321C67.1353 47.2103 69.9229 55.886 70.4255 57.5577C70.4528 57.6485 70.5806 57.6589 70.619 57.5723C71.2811 56.0808 74.7232 48.745 77.506 50.8321C80.1633 52.825 75.6443 58.4787 74.681 59.6271C74.621 59.6985 74.6804 59.8078 74.7729 59.7961C76.1731 59.6195 82.6032 58.9637 82.506 61.8321C82.4127 64.5836 76.5218 64.4158 75.2474 64.3473C75.1578 64.3424 75.1052 64.4479 75.1624 64.517C75.9458 65.4624 79.3336 69.7894 77.506 71.8321C75.3294 74.2647 70.7403 67.8862 70.0846 66.946C70.0448 66.889 69.9619 66.8935 69.9212 66.9499Z" fill="#9767AB" stroke="#794D92" stroke-width="0.5"/>
<path d="M59 62H66.2C66.2961 62 66.3369 61.8777 66.26 61.82L64.8962 60.7971C64.8089 60.7317 64.8746 60.5936 64.9804 60.6201L66.3233 60.9558C66.3998 60.975 66.4673 60.902 66.4424 60.8272L66.0763 59.729C66.0482 59.6445 66.1362 59.5681 66.2159 59.608L67.9355 60.4678C67.974 60.487 68.0205 60.4795 68.051 60.449L68.442 60.058C68.4757 60.0243 68.4816 59.9725 68.4552 59.9328C67.4903 58.4812 65.7708 55.761 65.9599 55.5175C65.9776 55.4948 66.0109 55.5124 66.0299 55.5341L69.4262 59.4156C69.4655 59.4606 69.5352 59.4612 69.5754 59.417L73.8609 54.703C73.9417 54.6142 74.0818 54.717 74.0213 54.8206L71.112 59.808C71.0686 59.8824 71.1335 59.9733 71.218 59.9564L73.0677 59.5865C73.1721 59.5656 73.2325 59.7006 73.1473 59.7645L71.7158 60.8382C71.6416 60.8938 71.6766 61.0118 71.7691 61.0179L79 61.5L72.2184 61.9844C72.133 61.9905 72.0943 62.0943 72.1549 62.1549L73.3293 63.3293C73.3923 63.3923 73.3477 63.5 73.2586 63.5H72.1553C72.0826 63.5 72.0342 63.5752 72.0643 63.6414L74.2718 68.498C74.3179 68.5993 74.1888 68.6888 74.1101 68.6101L70.0981 64.5981C70.0498 64.5498 69.9685 64.563 69.938 64.6241L69.1375 66.2249C69.0942 66.3116 68.9652 66.2922 68.949 66.1968C68.7736 65.1631 68.5 63.6376 68.5 64C68.5 64.3552 66.1349 67.1017 64.5547 68.8797C64.4761 68.9681 64.339 68.8705 64.3951 68.7663L67.3876 63.2087C67.4296 63.1308 67.3572 63.0408 67.2721 63.0651L64.7294 63.7916C64.617 63.8237 64.5469 63.6645 64.6457 63.602C65.4407 63.0993 66.3097 62.5 66 62.5C65.6 62.5 61.1667 62.1667 59 62Z" fill="#794D92" stroke="#794D92" stroke-width="0.1"/>
<path d="M70 60.0996C70.3658 60.0996 70.7149 60.3611 70.9785 60.7461C71.2403 61.1286 71.4004 61.6092 71.4004 62C71.4004 62.3658 71.1389 62.7149 70.7539 62.9785C70.3714 63.2403 69.8908 63.4004 69.5 63.4004C69.1342 63.4004 68.7851 63.1389 68.5215 62.7539C68.2597 62.3714 68.0996 61.8908 68.0996 61.5C68.0996 61.1342 68.3611 60.7851 68.7461 60.5215C69.1286 60.2597 69.6092 60.0996 70 60.0996Z" fill="#FDB209" stroke="#5826C2" stroke-width="0.2"/>
<path d="M52.891 107C57.4941 108.159 53.4337 115.315 43.391 110C38.8578 107.601 46.8082 97.7145 47.361 97.0366C47.3811 97.0119 47.4047 97.0008 47.4365 97.0028C48.067 97.0421 55.1078 97.5093 59.391 99C73.284 103.835 48.2878 105.841 52.891 107Z" fill="#C65102" stroke="#CD4C05" stroke-width="0.1"/>
<path d="M49.1277 91.6968C48.0668 92.6143 46.1826 94.182 45.6414 94.4021C45.5928 94.4218 45.5538 94.4681 45.5551 94.5205L45.7244 101.215C45.7266 101.302 45.8313 101.345 45.8939 101.285L49.2625 98.0295C49.282 98.0106 49.293 97.9847 49.293 97.9576L49.293 91.7731C49.293 91.6873 49.1926 91.6406 49.1277 91.6968Z" fill="#862A06" stroke="#862A06" stroke-width="0.1"/>
<path d="M45.4967 94.9306C43.0179 95.0507 41.3608 94.3201 38.5491 93.1755C38.4789 93.1469 38.4028 93.2034 38.4112 93.2788L39.0982 99.4411C39.1022 99.4774 39.1267 99.509 39.1605 99.523C42.4838 100.893 43.458 101.573 45.6341 101.449C45.6874 101.446 45.7294 101.401 45.7284 101.348L45.6031 95.0289C45.602 94.9722 45.5533 94.9278 45.4967 94.9306Z" fill="#953206" stroke="#953206" stroke-width="0.1"/>
<path d="M38.2522 91.6636L38.3871 93.0563C38.3904 93.0905 38.4115 93.1208 38.4422 93.1362C40.638 94.2383 41.9808 94.7659 45.0774 94.971C45.0941 94.9721 45.1115 94.9688 45.1267 94.9618C47.2465 93.9783 48.2045 93.2585 49.2563 91.6104C49.2783 91.5759 49.2768 91.5303 49.2525 91.4974C46.9975 88.4512 43.3032 88.3334 42.4857 88.6958C41.6669 89.0589 40.7018 89.0434 38.2799 91.5844C38.2599 91.6054 38.2494 91.6348 38.2522 91.6636Z" fill="#AE4811" stroke="#862A06" stroke-width="0.1"/>
<path d="M58.1277 93.6968C57.0668 94.6143 55.1826 96.182 54.6414 96.4021C54.5928 96.4218 54.5538 96.4681 54.5551 96.5205L54.7244 103.215C54.7266 103.302 54.8313 103.345 54.8939 103.285L58.2625 100.029C58.282 100.011 58.293 99.9847 58.293 99.9576L58.293 93.7731C58.293 93.6873 58.1926 93.6406 58.1277 93.6968Z" fill="#862A06" stroke="#862A06" stroke-width="0.1"/>
<path d="M54.4967 96.9306C52.0179 97.0507 50.3608 96.3201 47.5491 95.1755C47.4789 95.1469 47.4028 95.2034 47.4112 95.2788L48.0982 101.441C48.1022 101.477 48.1267 101.509 48.1605 101.523C51.4838 102.893 52.458 103.573 54.6341 103.449C54.6874 103.446 54.7294 103.401 54.7284 103.348L54.6031 97.0289C54.602 96.9722 54.5533 96.9278 54.4967 96.9306Z" fill="#953206" stroke="#953206" stroke-width="0.1"/>
<path d="M47.2522 93.6636L47.3871 95.0563C47.3904 95.0905 47.4115 95.1208 47.4422 95.1362C49.638 96.2383 50.9808 96.7659 54.0774 96.971C54.0941 96.9721 54.1115 96.9688 54.1267 96.9618C56.2465 95.9783 57.2045 95.2585 58.2563 93.6104C58.2783 93.5759 58.2768 93.5303 58.2525 93.4974C55.9975 90.4512 52.3032 90.3334 51.4857 90.6958C50.6669 91.0589 49.7018 91.0434 47.2799 93.5844C47.2599 93.6054 47.2494 93.6348 47.2522 93.6636Z" fill="#AE4811" stroke="#862A06" stroke-width="0.1"/>
<path d="M40.8719 95.661C39.7376 96.4666 37.6589 97.8838 37.0907 98.0531C37.0404 98.0681 36.9971 98.1104 36.9934 98.1627L36.5153 104.855C36.5093 104.94 36.6051 104.993 36.6739 104.943L41.9492 101.107C41.9803 101.084 41.9956 101.046 41.9888 101.008L41.0282 95.725C41.0151 95.6528 40.9317 95.6186 40.8719 95.661Z" fill="#862A06" stroke="#862A06" stroke-width="0.1"/>
<path d="M36.8956 98.5653C34.4086 98.4454 32.8275 97.5529 30.1232 96.1344C30.0629 96.1028 29.9885 96.1389 29.9773 96.206L29.0119 101.999C29.0048 102.041 29.0263 102.084 29.0643 102.104C32.2459 103.79 34.1982 104.969 36.4045 105.066C36.4578 105.069 36.5032 105.028 36.5073 104.975L36.992 98.6734C36.9964 98.6168 36.9522 98.568 36.8956 98.5653Z" fill="#953206" stroke="#953206" stroke-width="0.1"/>
<path d="M30 94.6148V96.014C30 96.0483 30.0181 96.0805 30.0471 96.0988C32.1264 97.4076 33.4121 98.0622 36.4745 98.5649C36.491 98.5677 36.5086 98.5661 36.5244 98.5606C38.7292 97.7861 39.7521 97.162 40.958 95.623C40.9832 95.5908 40.9861 95.5454 40.965 95.5103C39.0144 92.2607 35.3486 91.7872 34.5 92.0691C33.65 92.3515 32.6909 92.2431 30.0353 94.5386C30.0133 94.5575 30 94.5858 30 94.6148Z" fill="#AE4811" stroke="#862A06" stroke-width="0.1"/>
<path d="M49.8719 99.661C48.7376 100.467 46.6589 101.884 46.0907 102.053C46.0404 102.068 45.9971 102.11 45.9934 102.163L45.5153 108.855C45.5093 108.94 45.6051 108.993 45.6739 108.943L50.9492 105.107C50.9803 105.084 50.9956 105.046 50.9888 105.008L50.0282 99.725C50.0151 99.6528 49.9317 99.6186 49.8719 99.661Z" fill="#862A06" stroke="#862A06" stroke-width="0.1"/>
<path d="M45.8956 102.565C43.4086 102.445 41.8275 101.553 39.1232 100.134C39.0629 100.103 38.9885 100.139 38.9773 100.206L38.0119 105.999C38.0048 106.041 38.0263 106.084 38.0643 106.104C41.2459 107.79 43.1982 108.969 45.4045 109.066C45.4578 109.069 45.5032 109.028 45.5073 108.975L45.992 102.673C45.9964 102.617 45.9522 102.568 45.8956 102.565Z" fill="#953206" stroke="#953206" stroke-width="0.1"/>
<path d="M39 98.6148V100.014C39 100.048 39.0181 100.081 39.0471 100.099C41.1264 101.408 42.4121 102.062 45.4745 102.565C45.491 102.568 45.5086 102.566 45.5244 102.561C47.7292 101.786 48.7521 101.162 49.958 99.623C49.9832 99.5908 49.9861 99.5454 49.965 99.5103C48.0144 96.2607 44.3486 95.7872 43.5 96.0691C42.65 96.3515 41.6909 96.2431 39.0353 98.5386C39.0133 98.5575 39 98.5858 39 98.6148Z" fill="#AE4811" stroke="#862A06" stroke-width="0.1"/>
<path d="M48.8719 87.661C47.7376 88.4666 45.6589 89.8838 45.0907 90.0531C45.0404 90.0681 44.9971 90.1104 44.9934 90.1627L44.5153 96.8554C44.5093 96.9402 44.6051 96.9934 44.6739 96.9434L49.9492 93.1068C49.9803 93.0842 49.9956 93.0458 49.9888 93.008L49.0282 87.725C49.0151 87.6528 48.9317 87.6186 48.8719 87.661Z" fill="#862A06" stroke="#862A06" stroke-width="0.1"/>
<path d="M44.8956 90.4954C42.4086 90.3756 40.8275 89.4831 38.1232 88.0646C38.0629 88.0329 37.9885 88.0691 37.9773 88.1362L37.0119 93.9289C37.0048 93.9714 37.0263 94.0139 37.0643 94.034C40.2459 95.7198 42.1982 96.899 44.4045 96.9965C44.4578 96.9988 44.5032 96.9581 44.5073 96.9049L44.992 90.6035C44.9964 90.547 44.9522 90.4982 44.8956 90.4954Z" fill="#953206" stroke="#953206" stroke-width="0.1"/>
<path d="M38 86.6148V88.014C38 88.0483 38.0181 88.0805 38.0471 88.0988C40.1264 89.4076 41.4121 90.0622 44.4745 90.5649C44.491 90.5677 44.5086 90.5661 44.5244 90.5606C46.7292 89.7861 47.7521 89.162 48.958 87.623C48.9832 87.5908 48.9861 87.5454 48.965 87.5103C47.0144 84.2607 43.3486 83.7872 42.5 84.0691C41.65 84.3515 40.6909 84.2431 38.0353 86.5386C38.0133 86.5575 38 86.5858 38 86.6148Z" fill="#AE4811" stroke="#862A06" stroke-width="0.1"/>
</svg>
