<svg width="200" height="130" viewBox="0 0 200 130" fill="none" xmlns="http://www.w3.org/2000/svg">
<path d="M199.996 74.1814C200.892 143.649 25.0563 149.781 0.427793 81.5841C-1.81766 63.1552 199.846 62.4935 199.996 74.1814Z" fill="#D4C9D4"/>
<path d="M0 80.471C0 4.06688 195.955 22.9432 199.55 71.0328C204.141 132.434 27.4157 139.797 0 80.471Z" fill="#FFFBF2"/>
<path d="M38.5176 77.7004C38.5176 32.1444 157.285 43.3994 159.464 72.0728C162.247 108.684 55.1341 113.073 38.5176 77.7004Z" fill="#79CC27"/>
<path fill-rule="evenodd" clip-rule="evenodd" d="M142.396 83.177L138.222 51.4756C147.119 61.4744 149.359 68.1514 148.955 81.7861C146.715 82.2799 144.531 82.7435 142.396 83.177Z" fill="#FBCFDA"/>
<path fill-rule="evenodd" clip-rule="evenodd" d="M63.0868 47.9097L60.7019 84.07C56.8939 83.3933 52.9317 82.6314 48.7754 81.7861C46.6925 68.0892 47.9787 60.5549 63.0868 47.9097Z" fill="#FBCFDA"/>
<path fill-rule="evenodd" clip-rule="evenodd" d="M99.4617 19.9764C117.733 -12.1649 126.21 -4.63869 138.222 51.4756L142.396 83.177C136.278 84.4198 130.566 85.4163 125.103 86.1737C120.589 86.7996 116.246 87.2621 111.985 87.5651C105.135 88.0521 98.4994 88.127 91.71 87.8059C87.6182 87.6124 83.4708 87.2752 79.1875 86.7976C73.3462 86.1463 67.2521 85.2341 60.7019 84.07L63.0868 47.9097C69.9393 4.44618 74.8219 -15.3099 99.4617 19.9764Z" fill="#FBCFDA"/>
<path d="M116.499 0.0264745C118.409 -0.143085 120.187 0.505761 121.826 1.85988C123.443 3.19564 124.943 5.23038 126.378 7.90316C127.817 10.5846 129.219 13.9637 130.613 18.0411C133.385 26.1451 136.16 37.1013 139.145 51.0218C143.536 55.9854 146.361 60.2174 148.021 64.9505C149.701 69.7422 150.158 74.962 149.955 81.8331L149.932 82.6125L149.171 82.7805C146.926 83.2755 144.736 83.7405 142.596 84.1754C136.461 85.4217 130.727 86.422 125.24 87.1828C120.706 87.8116 116.341 88.2768 112.056 88.5816C105.167 89.0715 98.4916 89.1468 91.6631 88.8238C87.5483 88.6292 83.3787 88.2897 79.0762 87.8099C73.2092 87.1556 67.0936 86.2402 60.5273 85.073C56.7098 84.3944 52.739 83.6302 48.5762 82.7835L47.8916 82.6448L47.7871 81.9542C46.7396 75.0642 46.5051 69.5414 48.5488 64.1144C50.5625 58.7673 54.7353 53.6515 62.1562 47.398C63.847 36.6873 65.4276 27.3903 67.2246 20.0142C69.0299 12.6042 71.0948 6.94153 73.8477 3.75872C75.2509 2.13637 76.8888 1.09275 78.8086 0.855754C80.7138 0.620606 82.7313 1.20064 84.8633 2.48696C88.8801 4.91058 93.6191 10.0381 99.374 18.1251C103.625 10.7975 107.407 5.56623 110.899 2.67743C112.762 1.13698 114.623 0.193128 116.499 0.0264745ZM120.552 3.4022C119.238 2.31688 117.967 1.90467 116.677 2.01909C115.353 2.13665 113.864 2.82142 112.175 4.21878C108.776 7.03045 104.895 12.4447 100.331 20.4752L99.5488 21.8524L98.6416 20.5533C92.4874 11.7381 87.6641 6.51251 83.8301 4.19924C81.9324 3.05436 80.3677 2.6784 79.0537 2.84055C77.7542 3.00094 76.5357 3.70878 75.3604 5.06759C72.9562 7.84727 70.9753 13.0695 69.168 20.4879C67.3755 27.8451 65.7925 37.1747 64.082 48.0241L61.7578 83.2562C67.9577 84.3435 73.7447 85.2029 79.2979 85.8222C83.5618 86.2977 87.6883 86.6329 91.7568 86.8253C98.5071 87.1446 105.105 87.0703 111.914 86.586C116.151 86.2847 120.472 85.8242 124.966 85.201C130.131 84.4846 135.525 83.5507 141.282 82.3967L137.235 51.6557C134.238 37.6541 131.469 26.7197 128.722 18.6887C127.347 14.67 125.986 11.4013 124.616 8.84966C123.242 6.28962 121.888 4.50601 120.552 3.4022ZM61.9316 50.2247C55.5827 55.7861 52.1252 60.2914 50.4199 64.8197C48.6276 69.5791 48.7209 74.4951 49.6621 80.9608C53.165 81.6692 56.5286 82.3168 59.7773 82.9036L61.9316 50.2247ZM143.246 81.9962C144.795 81.6769 146.37 81.3427 147.974 80.9921C148.116 74.6241 147.635 69.8963 146.133 65.6128C144.848 61.9477 142.795 58.5508 139.653 54.7023L143.246 81.9962Z" fill="#FFC4D4"/>
<path d="M93 33.5001C93 34.3285 92.3284 35.0001 91.5 35.0001C90.6716 35.0001 90 34.3285 90 33.5001C90 32.6717 90.6716 32.0001 91.5 32.0001C92.3284 32.0001 93 32.6717 93 33.5001Z" fill="black"/>
<path d="M102 43.0001C102 44.1047 101.105 45.0001 100 45.0001C98.8954 45.0001 98 44.1047 98 43.0001C98 41.8955 98.8954 41.0001 100 41.0001C101.105 41.0001 102 41.8955 102 43.0001Z" fill="black"/>
<path d="M108 33.5001C108 34.3285 107.328 35.0001 106.5 35.0001C105.672 35.0001 105 34.3285 105 33.5001C105 32.6717 105.672 32.0001 106.5 32.0001C107.328 32.0001 108 32.6717 108 33.5001Z" fill="black"/>
<path d="M131.138 46.2163C131.257 45.8865 131.356 45.9782 131.367 46.3222C131.385 46.8257 131.297 47.2081 131.41 47.4758C131.637 48.0106 131.725 48.215 131.53 48.8394C131.338 49.4733 131.692 49.7661 131.642 50.1408C131.602 50.5075 131.351 50.5027 131.577 52.3664C131.829 54.2264 132.025 55.2155 132.162 55.9129C132.298 56.601 132.376 58.0835 132.705 59.1969C133.017 60.3092 133.579 62.6049 133.949 63.4995C134.315 64.3929 134.088 64.4616 134.17 65.2441C134.252 66.0301 134.985 66.4672 135.148 67.4134C135.308 68.3605 135.043 68.5734 135.361 69.6225C135.678 70.6722 135.678 71.7973 135.889 72.2515C136.099 72.7068 135.731 72.8357 135.922 73.4955C136.112 74.1693 136.116 74.5893 136.063 75.208C136.019 75.8202 136.069 77.672 136.247 78.3346C136.437 79.0019 136.188 79.7775 136.129 80.2395C136.111 80.3843 136.084 80.4994 136.057 80.5875C136.045 80.6245 136.02 80.6418 135.995 80.6419C135.965 80.6418 135.934 80.6154 135.93 80.568C135.91 80.3365 135.857 79.9926 135.735 79.599C135.505 78.8661 135.735 78.7644 135.569 77.7699C135.395 76.7673 135.132 76.1968 135.127 75.0068C135.11 73.8215 134.508 73.6362 134.529 71.9502C134.525 70.2527 133.89 70.2025 133.416 68.6195C132.935 67.0379 132.669 64.9162 132.368 63.9466C132.067 62.9791 131.628 61.6789 131.363 60.2476C131.097 58.8227 130.54 57.0865 130.479 55.458C130.397 53.8395 130.484 51.5595 130.628 50.5208C130.764 49.4697 130.803 49.2332 130.793 48.2281C130.79 47.651 130.902 46.8669 131.138 46.2163ZM119.348 6.19541C119.348 5.90918 119.47 5.94071 119.596 6.19055C119.78 6.55532 119.825 6.87843 120.015 7.03027C120.397 7.34198 120.548 7.47638 120.557 8.00509C120.569 8.54148 120.994 8.65637 121.053 8.94491C121.115 9.22839 120.901 9.3185 121.612 10.6652C122.336 12.0075 122.73 12.7246 123.013 13.231C123.288 13.7224 123.664 14.8842 124.168 15.6763C124.664 16.4718 125.556 18.165 126.037 18.7902C126.516 19.4145 126.309 19.5305 126.501 20.148C126.688 20.7603 127.448 20.9235 127.733 21.6583C128.014 22.3964 127.787 22.633 128.222 23.4175C128.657 24.2097 128.77 25.1283 129.019 25.4672C129.268 25.807 128.916 25.9674 129.158 26.4828C129.397 27.0052 129.431 27.3531 129.413 27.8658C129.408 28.3722 129.521 29.8631 129.706 30.4035C129.907 30.9323 129.662 31.5799 129.603 31.9488C129.584 32.0658 129.557 32.1585 129.529 32.2297C129.517 32.2598 129.492 32.2744 129.468 32.2744C129.437 32.2743 129.407 32.2524 129.403 32.2141C129.384 32.0275 129.331 31.7504 129.208 31.4385C128.973 30.8438 129.204 30.7791 129.018 29.9758C128.82 29.1878 128.54 28.7541 128.474 27.8143C128.385 26.8653 127.788 26.8189 127.663 25.4779C127.495 24.12 126.871 24.219 126.232 23.0754C125.583 21.9324 125.035 20.2977 124.607 19.5989C124.181 18.9019 123.571 17.979 123.081 16.9145C122.59 15.8518 121.744 14.6546 121.326 13.4137C120.9 12.1793 120.383 10.4183 120.213 9.58442C120.043 8.76247 119.997 8.54586 119.68 7.81168C119.494 7.37608 119.348 6.76376 119.348 6.19541ZM81.9727 6.74162C81.9613 6.54366 82.0779 6.53422 82.2061 6.67359C82.3936 6.87671 82.4474 7.08812 82.6299 7.14204C82.9959 7.25176 83.1427 7.30527 83.165 7.67173C83.1886 8.03798 83.5867 8.00581 83.6475 8.19072C83.7106 8.37362 83.52 8.49543 84.1914 9.2462C84.8682 9.98964 85.2277 10.4005 85.4785 10.6768C85.7323 10.957 86.0647 11.6902 86.5078 12.125C86.9451 12.5606 87.7241 13.5634 88.1426 13.8909C88.5584 14.2165 88.3806 14.3738 88.543 14.7821C88.7042 15.1923 89.3751 15.0942 89.627 15.581C89.871 16.0682 89.6583 16.3013 90.0361 16.7833C90.4174 17.2771 90.4862 17.9286 90.708 18.1313C90.9313 18.3368 90.5859 18.5084 90.792 18.8359C90.9977 19.1757 91.013 19.4181 90.9697 19.7719C90.9378 20.1272 90.9857 21.1153 91.1602 21.4727C91.3462 21.8215 91.0935 22.2586 91.0322 22.5029C91.0135 22.5809 90.9861 22.643 90.958 22.6905C90.946 22.7105 90.9211 22.7196 90.8965 22.7196C90.8657 22.7196 90.836 22.7053 90.832 22.6798C90.8129 22.5558 90.7606 22.3724 90.6416 22.1695C90.4156 21.7843 90.6472 21.7351 90.4863 21.2132C90.3176 20.7058 90.0604 20.4392 90.0508 19.8282C90.0188 19.2016 89.4467 19.2612 89.417 18.3782C89.3396 17.4692 88.7528 17.6727 88.2344 17.034C87.7052 16.3949 87.2548 15.3408 86.8848 14.9454C86.5188 14.5538 85.9891 14.0472 85.5547 13.3982C85.1216 12.7522 84.3608 12.1155 83.9688 11.327C83.5713 10.5436 83.0668 9.42667 82.8857 8.8798C82.7092 8.34607 82.6616 8.20772 82.3418 7.77864C82.1533 7.52168 81.9963 7.13656 81.9727 6.74162Z" fill="white"/>
</svg>
