<svg width="142" height="200" viewBox="0 0 142 200" fill="none" xmlns="http://www.w3.org/2000/svg">
<path fill-rule="evenodd" clip-rule="evenodd" d="M16.0132 181.836L0.0131355 28.8029C2.02307 34.0166 5.13748 38.4824 9.90344 42.2037L21.7512 165.575C32.5133 185.442 91.6465 186.12 101.138 165.575L113.068 42.6957C118.115 38.8539 121.788 34.2193 123.514 28.8073L108.013 181.836C97.0135 205.537 25.5132 206.567 16.0132 181.836Z" fill="#FADBAF"/>
<path fill-rule="evenodd" clip-rule="evenodd" d="M9.90344 42.2037C5.13748 38.4824 2.02307 34.0166 0.0131355 28.8029C-1.48703 -11.3837 126.014 -7.77239 123.514 28.8073C121.788 34.2193 118.115 38.8539 113.068 42.6957C89.1452 60.9077 34.3607 61.3 9.90344 42.2037Z" fill="#FAD6AC"/>
<path fill-rule="evenodd" clip-rule="evenodd" d="M21.7512 165.575L9.90344 42.2037C34.3607 61.3 89.1452 60.9077 113.068 42.6957L101.138 165.575C91.6465 186.12 32.5133 185.442 21.7512 165.575Z" fill="#FFB23E"/>
<path d="M9.50785 26.6877C16.5079 53.4805 107.508 52.9653 114.508 28.2335C103.008 -0.103395 12.5079 8.14096 9.50785 26.6877Z" fill="#FFC356"/>
<path d="M87.2248 17.0593L131.884 54.6386C132.334 55.0175 133.032 54.9026 133.363 54.3932C144.158 37.7771 142.545 24.1452 133.775 11.9888C124.961 -0.227906 103.785 -2.39769 87.1584 15.6377C86.7725 16.0563 86.8033 16.7047 87.2248 17.0593Z" fill="#FFA01B"/>
<path d="M133.78 54.6556C133.281 55.4235 132.231 55.5951 131.554 55.0255L86.8951 17.4459C86.2607 16.9121 86.2137 15.937 86.7959 15.3055C103.594 -2.91574 125.153 -0.831465 134.185 11.6875C138.611 17.8233 141.253 24.3634 141.406 31.4908C141.559 38.619 139.22 46.2816 133.78 54.6556ZM132.214 54.2515C132.437 54.4396 132.783 54.3818 132.946 54.1314C138.301 45.8894 140.553 38.4272 140.405 31.5464C140.258 24.6649 137.709 18.3102 133.366 12.2897C124.77 0.375448 103.976 -1.87991 87.5207 15.9692C87.3312 16.1749 87.3464 16.4976 87.5548 16.6729L132.214 54.2515Z" fill="#FF9225"/>
<path d="M91.6767 20.5309L127.692 51.0895C128.143 51.4722 128.845 51.3587 129.173 50.8443C137.828 37.3033 136.499 26.1819 129.401 16.2594C122.258 6.27363 105.119 4.47522 91.6112 19.1173C91.2273 19.5334 91.2591 20.1765 91.6767 20.5309Z" fill="#FFCF83"/>
<path d="M129.592 51.1028C129.094 51.8817 128.037 52.0487 127.361 51.4746L91.3456 20.9165C90.7182 20.3842 90.6671 19.4161 91.248 18.7859C104.928 3.95683 122.451 5.67098 129.811 15.9603C133.401 20.979 135.554 26.3316 135.695 32.1661C135.835 38.0015 133.962 44.266 129.592 51.1028ZM128.023 50.7045C128.249 50.8957 128.594 50.835 128.754 50.5855C133.039 43.8812 134.829 37.8149 134.695 32.2237C134.56 26.6317 132.498 21.4623 128.991 16.5586C122.064 6.87662 105.309 4.99454 91.9738 19.4496C91.7877 19.6516 91.8005 19.9693 92.0081 20.1455L128.023 50.7045Z" fill="#FFCB83"/>
<path d="M130.043 46.3562C132.773 41.1852 134.365 33.3693 133.118 31.7414C132.914 31.4745 132.535 31.5048 132.204 31.5988C129.217 32.4452 113.94 36.8098 115.027 37.2091C115.96 37.5515 123.751 43.9887 127.227 46.8824C128.12 47.6264 129.484 47.4156 130.043 46.3562Z" fill="#FFB224"/>
<path d="M116.422 33.063L129.995 29.2464C130.915 28.9877 131.557 28.1219 131.474 27.1818C130.92 20.8955 128.508 17.9217 122.182 15.0269C121.154 14.5566 119.926 15.1072 119.514 16.1879L114.072 30.4849C113.49 32.0126 114.85 33.5048 116.422 33.063Z" fill="#FFB224"/>
<path d="M97.4913 19.3452C103.6 14.5465 107.933 12.8214 114.48 12.4923C115.792 12.4263 116.71 13.6709 116.334 14.9384L111.574 31.0192C111.151 32.4478 109.39 32.9905 108.302 32.0277L97.3655 22.3549C96.4633 21.5569 96.5125 20.1141 97.4913 19.3452Z" fill="#FFB224"/>
<path d="M112.053 31.1456C111.524 32.9313 109.324 33.6098 107.964 32.4066L97.0266 22.7343C95.9018 21.7394 95.9538 19.9274 97.1902 18.9562C100.267 16.5393 102.921 14.8774 105.648 13.7803C108.378 12.6818 111.157 12.1599 114.471 11.9933C116.14 11.9094 117.28 13.4893 116.814 15.0648L112.053 31.1456ZM108.64 31.6492C109.457 32.371 110.777 31.9639 111.094 30.8928L115.855 14.812C116.139 13.8526 115.443 12.9438 114.488 12.9917C111.256 13.1542 108.594 13.6597 105.995 14.7056C103.391 15.753 100.824 17.3524 97.7921 19.734C97.071 20.3007 97.0249 21.375 97.7043 21.976L108.64 31.6492ZM116.542 33.5437C114.578 34.0957 112.878 32.2305 113.605 30.3209L119.047 16.0242C119.559 14.6785 121.1 13.9751 122.402 14.5709C125.594 16.0317 127.86 17.5387 129.392 19.5183C130.93 21.5061 131.691 23.9215 131.973 27.1215C132.078 28.3209 131.259 29.4058 130.115 29.7275L116.542 33.5437ZM114.539 30.6488C114.103 31.7946 115.123 32.9137 116.301 32.5823L129.874 28.7661C130.57 28.5703 131.035 27.923 130.975 27.2425C130.703 24.1562 129.981 21.9404 128.593 20.1459C127.198 18.3437 125.094 16.9164 121.961 15.4825C121.209 15.1385 120.292 15.5368 119.981 16.3521L114.539 30.6488ZM130.484 46.5774C129.754 47.9616 128.002 48.1889 126.899 47.2704C125.161 45.824 122.347 43.4929 119.851 41.4816C118.603 40.4757 117.437 39.5518 116.527 38.8591C116.071 38.5124 115.683 38.2264 115.382 38.0177C115.232 37.9133 115.107 37.8308 115.009 37.7708C114.96 37.7409 114.92 37.7188 114.889 37.7025C114.874 37.6945 114.862 37.688 114.853 37.6839C114.845 37.6801 114.841 37.6791 114.841 37.6791C114.767 37.6519 114.52 37.5446 114.477 37.2477C114.438 36.9771 114.611 36.7937 114.656 36.747C114.778 36.6219 114.963 36.5203 115.119 36.4425C115.468 36.2687 116.012 36.0537 116.677 35.8139C118.015 35.3309 119.926 34.7179 121.955 34.0942C126.017 32.8457 130.588 31.5418 132.082 31.1183C132.275 31.0634 132.521 31.0157 132.769 31.0373C133.028 31.0598 133.315 31.1621 133.52 31.4296C133.741 31.7183 133.871 32.103 133.948 32.5179C134.026 32.9399 134.056 33.4342 134.048 33.9761C134.03 35.0603 133.858 36.3848 133.562 37.806C132.971 40.6476 131.876 43.9415 130.484 46.5774ZM127.554 46.4944C128.238 47.0636 129.215 46.8696 129.603 46.1353C130.941 43.6002 132.007 40.4002 132.582 37.6342C132.87 36.2518 133.031 34.9942 133.047 33.9936C133.055 33.4932 133.027 33.0689 132.964 32.7316C132.901 32.3875 132.808 32.1717 132.718 32.0533C132.714 32.049 132.712 32.0475 132.708 32.0455C132.701 32.0423 132.683 32.0358 132.649 32.0328C132.573 32.0263 132.463 32.0406 132.325 32.0797C130.832 32.5028 126.271 33.8037 122.22 35.0487C120.193 35.6717 118.301 36.2788 116.988 36.7528C116.561 36.9068 116.205 37.0451 115.927 37.1618C115.942 37.1717 115.957 37.181 115.971 37.1911C116.289 37.4112 116.689 37.7068 117.149 38.0568C118.071 38.7577 119.245 39.6881 120.496 40.6959C122.997 42.7121 125.816 45.0472 127.554 46.4944Z" fill="#FFAB35"/>
<path d="M126.063 38.9795C126.087 38.2464 127.018 37.6521 128.14 37.6521C129.263 37.6521 130.154 38.2464 130.129 38.9795C130.105 39.7126 129.174 40.3069 128.052 40.3069C126.929 40.3069 126.038 39.7126 126.063 38.9795Z" fill="#FFC115"/>
<path d="M122.56 22.1652C122.601 20.9434 123.362 19.9529 124.26 19.9529C125.159 19.9529 125.854 20.9434 125.813 22.1652C125.772 23.387 125.01 24.3775 124.112 24.3775C123.214 24.3775 122.519 23.387 122.56 22.1652Z" fill="#FFC115"/>
<path d="M108.866 18.1833C108.899 17.2059 109.654 16.4135 110.552 16.4135C111.45 16.4135 112.152 17.2059 112.119 18.1833C112.087 19.1608 111.332 19.9532 110.434 19.9532C109.535 19.9532 108.834 19.1608 108.866 18.1833Z" fill="#FFC115"/>
<path d="M102.302 19.9534C102.334 18.9759 103.089 18.1835 103.988 18.1835C104.886 18.1835 105.588 18.9759 105.555 19.9534C105.522 20.9308 104.767 21.7232 103.869 21.7232C102.971 21.7232 102.269 20.9308 102.302 19.9534Z" fill="#FFC115"/>
</svg>
