<svg width="341" height="377" viewBox="0 0 341 377" fill="none" xmlns="http://www.w3.org/2000/svg">
<path d="M41.1943 135.62C41.1943 135.62 70.3007 211.359 125.549 218.828L126.979 207.705C126.979 207.705 86.1421 158.496 86.5011 121.944L41.1943 135.62Z" fill="#CC3545"/>
<path d="M302.688 135.62C302.688 135.62 273.582 211.359 218.333 218.828L216.903 207.705C216.903 207.705 257.74 158.496 257.381 121.944L302.688 135.62Z" fill="#CC3545"/>
<path d="M190.27 358.529C190.27 368.65 182.065 376.855 171.945 376.855C161.824 376.855 153.619 368.65 153.619 358.529C153.619 348.408 161.824 311.399 171.945 311.399C182.065 311.399 190.27 348.408 190.27 358.529Z" fill="#DE4E5E"/>
<path d="M151.575 357.684C144.419 364.84 132.81 364.84 125.653 357.684C118.497 350.527 118.497 338.924 125.653 331.762C132.81 324.606 164.782 304.236 171.939 311.399C179.101 318.555 158.732 350.527 151.575 357.684Z" fill="#8F8CE3"/>
<path d="M151.575 357.684C144.419 364.84 132.81 364.84 125.653 357.684C118.497 350.527 118.497 338.924 125.653 331.762C132.81 324.606 164.782 304.236 171.939 311.399C179.101 318.555 158.732 350.527 151.575 357.684Z" fill="#CC3545"/>
<path d="M218.23 331.762C225.386 338.918 225.386 350.522 218.23 357.684C211.074 364.846 199.47 364.84 192.308 357.684C185.152 350.527 164.782 318.555 171.945 311.399C179.101 304.242 211.068 324.606 218.23 331.762Z" fill="#CC3545"/>
<path d="M211.889 287.648C211.889 316.424 171.348 325.943 171.938 325.943C172.529 325.943 131.987 316.43 131.987 287.648C131.987 258.866 155.935 177.453 171.938 177.453C187.942 177.453 211.889 258.866 211.889 287.648Z" fill="#DE4E5E"/>
<path d="M211.889 262.531C211.889 291.313 171.348 300.826 171.938 300.826C172.529 300.826 131.987 291.307 131.987 262.531C131.987 233.755 155.935 152.342 171.938 152.342C187.942 152.336 211.889 233.755 211.889 262.531Z" fill="#CC3545"/>
<path d="M224.048 221.74C224.048 250.523 182.094 271.587 171.938 271.587C161.782 271.587 119.828 250.517 119.828 221.74C119.828 192.964 151.065 123.102 171.938 123.102C192.811 123.108 224.048 192.964 224.048 221.74Z" fill="#DE4E5E"/>
<path d="M62.1658 45.5276C81.846 50.2754 96.651 70.8124 96.651 95.4315C96.651 123.565 77.3182 146.372 53.4634 146.372C44.2283 146.372 35.6649 142.95 28.6475 137.125L62.1658 45.5276Z" fill="#CC3545"/>
<path d="M281.717 45.5276C262.036 50.2754 247.231 70.8124 247.231 95.4315C247.231 123.565 266.57 146.372 290.419 146.372C299.654 146.372 308.212 142.95 315.235 137.125L281.717 45.5276Z" fill="#CC3545"/>
<path d="M308.496 39.7607C327.475 48.3357 340.954 70.0308 340.954 95.4315C340.954 128.348 318.333 155.028 290.425 155.028C274.387 155.028 260.097 146.216 250.839 132.47L308.496 39.7607Z" fill="#DE4E5E"/>
<path d="M227.163 195.321C227.163 225.822 182.701 248.149 171.938 248.149C161.174 248.149 116.713 225.817 116.713 195.321C116.713 164.819 149.82 90.7881 171.938 90.7881C194.056 90.7881 227.163 164.825 227.163 195.321Z" fill="#CC3545"/>
<path d="M227.163 166C227.163 196.496 182.701 218.828 171.938 218.828C161.174 218.828 116.713 196.496 116.713 166C116.713 135.498 149.82 61.4674 171.938 61.4674C194.056 61.4674 227.163 135.498 227.163 166Z" fill="#DE4E5E"/>
<g opacity="0.15">
<path d="M152.322 292.546C143.29 282.113 153.613 264.887 153.613 264.887C145.872 253.863 156.676 243.192 156.676 243.192C150.892 225.11 171.944 218.822 171.944 218.822C150.921 202.13 135.12 159.382 129.278 117.283C121.791 135.493 116.719 154.073 116.719 165.994C116.719 170.152 117.599 174.135 119.053 177.956C117.68 183.99 116.881 189.467 116.76 194.076C115.133 191.76 113.39 189.189 111.595 186.445V186.468C83.6062 187.209 51.9233 151.189 43.4468 140.895C50.9043 157.471 76.9361 208.203 120.025 217.821C119.915 219.187 119.84 220.513 119.84 221.74C119.84 232.249 125.462 241.716 133.059 249.521C132.37 254.506 131.999 258.93 131.999 262.531C131.999 265.814 132.584 268.813 133.516 271.604C132.549 277.828 131.999 283.334 131.999 287.648C131.999 300.751 140.412 309.829 149.514 315.863C139.497 320.987 129.33 328.097 125.665 331.762C118.508 338.918 118.508 350.522 125.665 357.684C130.129 362.148 136.324 363.827 142.091 362.721C130.847 341.958 164.643 328.583 170.885 326.319C170.966 326.117 171.076 325.897 171.151 325.694C171.655 325.839 172.002 325.937 171.956 325.937C143.035 314.652 152.322 292.546 152.322 292.546Z" fill="#B528C9"/>
</g>
<path d="M35.387 39.7607C16.4074 48.3357 2.92822 70.0308 2.92822 95.4315C2.92822 128.348 25.5498 155.028 53.4576 155.028C69.4959 155.028 83.7855 146.216 93.0438 132.47L35.387 39.7607Z" fill="#DE4E5E"/>
<path d="M211.895 170.765C211.774 170.765 211.652 170.759 211.531 170.754C208.34 170.557 205.914 167.812 206.105 164.616C206.841 152.619 194.52 120.056 189.708 108.523C188.481 105.57 189.87 102.183 192.823 100.949C195.776 99.7103 199.169 101.117 200.396 104.064C202.272 108.558 218.699 148.491 217.662 165.328C217.483 168.403 214.935 170.765 211.895 170.765Z" fill="#FF7382"/>
<path d="M131.194 115.639C130.314 115.639 129.451 115.239 128.878 114.486C116.285 97.7823 115.573 79.9317 114.884 62.666C114.073 42.4183 113.309 23.2997 94.6477 5.42601C93.4897 4.32012 93.4549 2.48469 94.555 1.33248C95.6667 0.174475 97.4964 0.139786 98.6486 1.23989C119.006 20.729 119.852 41.932 120.668 62.4344C121.351 79.5612 121.994 95.7442 133.504 110.995C134.466 112.275 134.211 114.087 132.937 115.054C132.416 115.448 131.802 115.639 131.194 115.639Z" fill="#47104E"/>
<path d="M212.689 115.639C212.087 115.639 211.473 115.448 210.946 115.054C209.672 114.087 209.417 112.275 210.378 110.995C221.883 95.7442 222.532 79.5612 223.215 62.4344C224.037 41.9262 224.883 20.729 245.234 1.23989C246.387 0.139786 248.216 0.174475 249.328 1.33248C250.434 2.48469 250.393 4.32012 249.235 5.42601C230.568 23.2997 229.81 42.4241 228.999 62.666C228.31 79.9317 227.598 97.7881 215.005 114.486C214.432 115.239 213.569 115.639 212.689 115.639Z" fill="#47104E"/>
<path d="M156.676 83.1857C156.676 88.6051 152.281 92.9939 146.868 92.9939C141.448 92.9939 137.06 88.5993 137.06 83.1857C137.06 77.7662 141.454 73.3716 146.868 73.3716C152.281 73.3716 156.676 77.7662 156.676 83.1857Z" fill="#47104E"/>
<path d="M187.206 83.1857C187.206 88.6051 191.601 92.9939 197.014 92.9939C202.434 92.9939 206.828 88.5993 206.828 83.1857C206.828 77.7662 202.434 73.3716 197.014 73.3716C191.601 73.3716 187.206 77.7662 187.206 83.1857Z" fill="#47104E"/>
<path d="M171.944 221.723C165.778 221.723 151.737 216.008 138.924 206.443C137.644 205.482 137.378 203.67 138.333 202.39C139.289 201.111 141.101 200.85 142.386 201.8C154.568 210.896 167.596 215.927 171.938 215.927C177.097 215.927 192.539 209.35 204.988 199.044C206.221 198.025 208.051 198.204 209.064 199.426C210.083 200.659 209.909 202.483 208.682 203.502C195.521 214.404 179.06 221.723 171.944 221.723Z" fill="#47104E"/>
<path d="M171.944 251.049C166.866 251.049 157.133 247.274 147.724 241.652C146.352 240.83 145.906 239.053 146.723 237.68C147.551 236.302 149.322 235.862 150.695 236.679C160.016 242.249 168.603 245.259 171.944 245.259C175.348 245.259 184.086 242.173 193.564 236.453C194.93 235.625 196.708 236.065 197.541 237.437C198.369 238.804 197.924 240.587 196.557 241.409C187.004 247.17 177.109 251.049 171.944 251.049Z" fill="#47104E"/>
<path d="M171.944 274.487C167.729 274.487 160.167 271.783 152.223 267.435C150.817 266.671 150.301 264.911 151.071 263.51C151.836 262.103 153.596 261.593 154.997 262.357C162.958 266.711 169.362 268.697 171.944 268.697C174.527 268.697 180.924 266.711 188.88 262.357C190.281 261.587 192.041 262.103 192.811 263.504C193.581 264.911 193.066 266.665 191.665 267.435C183.715 271.783 176.159 274.487 171.944 274.487Z" fill="#47104E"/>
<path d="M171.944 303.721C171.579 303.721 171.232 303.652 170.913 303.53C165.789 302.042 161.169 300.293 156.844 298.226C155.396 297.537 154.788 295.812 155.477 294.364C156.166 292.917 157.892 292.303 159.339 292.998C163.311 294.891 167.549 296.507 171.95 297.798C176.877 296.35 181.573 294.515 185.921 292.332C187.351 291.62 189.088 292.199 189.806 293.623C190.524 295.053 189.945 296.79 188.515 297.508C183.756 299.9 178.614 301.897 173.229 303.46L173.218 303.432C172.83 303.617 172.396 303.721 171.944 303.721Z" fill="#47104E"/>
<path d="M171.944 328.838C171.579 328.838 171.232 328.769 170.907 328.647C168.991 328.091 164.434 326.759 158.858 324.275C157.399 323.627 156.739 321.913 157.393 320.454C158.042 318.995 159.75 318.329 161.215 318.989C166.154 321.189 170.253 322.429 171.938 322.921C176.605 321.548 181.08 319.823 185.238 317.785C186.679 317.078 188.411 317.675 189.111 319.117C189.812 320.553 189.221 322.284 187.785 322.99C183.228 325.219 178.33 327.101 173.229 328.578L173.217 328.549C172.83 328.728 172.395 328.832 171.944 328.838Z" fill="#47104E"/>
<path d="M125.658 360.579C124.917 360.579 124.176 360.295 123.609 359.734C115.335 351.46 115.335 337.998 123.609 329.718C127.488 325.833 137.742 318.624 148.187 313.286C149.6 312.557 151.354 313.124 152.084 314.548C152.808 315.973 152.246 317.715 150.822 318.445C141.326 323.297 131.205 330.315 127.702 333.817C121.686 339.833 121.686 349.624 127.702 355.646C128.831 356.775 128.831 358.61 127.702 359.739C127.141 360.295 126.4 360.579 125.658 360.579Z" fill="#47104E"/>
<path d="M53.4633 157.923C24.0038 157.923 0.0390625 129.888 0.0390625 95.4259C0.0390625 69.782 13.7672 46.3498 34.1943 37.1148C35.6534 36.4489 37.3671 37.1089 38.0272 38.5564C38.6873 40.0155 38.0388 41.7294 36.5855 42.3894C18.1907 50.7039 5.82906 72.0169 5.82906 95.4259C5.82906 126.692 27.1941 152.133 53.4633 152.133C55.0614 152.133 56.3583 153.43 56.3583 155.028C56.3583 156.632 55.0614 157.923 53.4633 157.923Z" fill="#47104E"/>
<path d="M150.324 78.9822C150.324 81.304 148.442 83.1857 146.121 83.1857C143.799 83.1857 141.917 81.304 141.917 78.9822C141.917 76.6604 143.799 74.7787 146.121 74.7787C148.442 74.7787 150.324 76.6604 150.324 78.9822Z" fill="white"/>
<path d="M202.729 78.9822C202.729 81.304 200.848 83.1857 198.526 83.1857C196.204 83.1857 194.322 81.304 194.322 78.9822C194.322 76.6604 196.204 74.7787 198.526 74.7787C200.848 74.7787 202.729 76.6604 202.729 78.9822Z" fill="white"/>
</svg>
