<svg width="200" height="162" viewBox="0 0 200 162" fill="none" xmlns="http://www.w3.org/2000/svg">
<path d="M200 89.6842C200 129.432 155.228 161.653 100 161.653C44.7715 161.653 0 129.432 0 89.6842C0 49.9367 44.7715 17.715 100 17.715C155.228 17.715 200 49.9367 200 89.6842Z" fill="#E8C483"/>
<path d="M200 83.6875C200 123.067 155.228 154.99 100 154.99C44.7715 154.99 0 123.067 0 83.6875C0 44.3081 44.7715 12.3847 100 12.3847C155.228 12.3847 200 44.3081 200 83.6875Z" fill="#F9DCA6"/>
<path d="M184.524 78.3562C184.524 109.639 146.948 134.999 100.595 134.999C54.2429 134.999 16.6668 109.639 16.6668 78.3562C16.6668 47.0735 54.2429 21.7138 100.595 21.7138C146.948 21.7138 184.524 47.0735 184.524 78.3562Z" fill="#E7C280"/>
<path d="M73.5541 55.2548L73.1669 61.8378C83.621 83.1331 142.474 85.4557 156.413 62.6114C156.225 62.4085 156.413 57.9652 156.026 57.1908C142.087 78.4863 78.5876 75.3888 73.5541 55.2548Z" fill="#DAC298" fill-opacity="0.45"/>
<path d="M74.7157 51.4452L77.0388 42.927C107.394 53.8416 124.105 53.6837 153.316 42.927L155.252 51.4452C123.458 69.3337 105.814 69.0506 74.7157 51.4452Z" fill="#FFD88B"/>
<path d="M73.5538 51.0576C78.5873 75.4505 150.218 73.1278 156.026 52.9936C155.348 51.9048 154.864 49.1221 154.477 47.9606C139.764 66.933 85.1695 63.835 75.4897 47.5734C74.7153 48.7345 73.7522 49.7789 73.5538 51.0576Z" fill="#FAA951"/>
<path d="M73.5538 51.0576L73.1669 57.6408C83.621 78.9361 142.474 81.2587 156.413 58.4144C156.225 58.2116 156.413 53.768 156.026 52.9936C142.087 74.2891 78.5873 71.1916 73.5538 51.0576Z" fill="#FEBD6B"/>
<path d="M73.9411 40.554C65.4231 11.5645 162.093 6.75618 156.413 37.1195C158.349 57.6399 84.0081 63.7858 73.9411 40.554Z" fill="#FDBA67"/>
<path d="M73.9413 33.6338C81.133 10.0669 146.908 8.79184 156.026 30.149C159.123 51.4449 84.0083 56.8657 73.9413 33.6338Z" fill="#FECD87"/>
<path d="M38.5363 81.2801L34.563 73.3953C64.4246 61.1948 76.7377 49.8956 91.2477 22.3562L98.3862 27.391C86.7289 61.9586 73.4274 73.5545 38.5363 81.2801Z" fill="#FFD88B"/>
<path d="M37.4135 81.7688C57.4761 96.5282 109.154 46.8719 99.9974 28.0231C98.765 27.6676 96.5437 25.9233 95.4787 25.3191C97.2396 49.2635 54.5954 83.4918 36.5207 77.8841C36.7222 79.2651 36.7053 80.6857 37.4135 81.7688Z" fill="#DB9044"/>
<path d="M37.4135 81.7688L41.5309 86.9204C63.5493 95.7507 108.84 58.0963 103.913 31.7927C103.637 31.7677 100.803 28.3395 99.9974 28.0231C103.888 53.1757 54.6264 93.3632 37.4135 81.7688Z" fill="#E69E52"/>
<path d="M30.673 73.7047C6.19128 60.2247 73.73 -10.6907 89.6635 15.9679C104.833 29.9221 53.6993 84.2332 30.673 73.7047Z" fill="#DC9045"/>
<path d="M26.0426 68.5618C16.7708 46.6915 64.9093 1.7843 84.7117 11.0468C101.263 24.8 49.0689 79.0903 26.0426 68.5618Z" fill="#EFA65A"/>
<path d="M76.9308 101.406L76.5437 107.989C86.9978 129.284 145.851 131.607 159.79 108.763C159.602 108.56 159.79 104.116 159.403 103.342C145.464 124.637 81.9643 121.54 76.9308 101.406Z" fill="#DAC298" fill-opacity="0.45"/>
<path d="M78.0927 97.5969L80.4159 89.0787C110.771 99.9933 127.482 99.8354 156.693 89.0787L158.629 97.5969C126.835 115.485 109.191 115.202 78.0927 97.5969Z" fill="#FFD88B"/>
<path d="M76.9305 97.2088C81.964 121.602 153.595 119.279 159.402 99.1447C158.724 98.0559 158.241 95.2733 157.854 94.1117C143.14 113.084 88.5463 109.986 78.8665 93.7245C78.0921 94.8856 77.129 95.93 76.9305 97.2088Z" fill="#DB9044"/>
<path d="M76.9305 97.2088L76.5437 103.792C86.9978 125.087 145.851 127.41 159.79 104.566C159.602 104.363 159.79 99.9191 159.402 99.1447C145.464 120.44 81.964 117.343 76.9305 97.2088Z" fill="#E69E52"/>
<path d="M77.318 86.7053C67.8889 60.1998 166.033 52.9071 159.79 83.2708C159.279 103.561 87.385 109.937 77.318 86.7053Z" fill="#DC9045"/>
<path d="M77.318 79.7857C85.0619 57.3288 150.885 56.1672 159.403 76.301C162.5 97.5967 87.385 103.017 77.318 79.7857Z" fill="#EFA65A"/>
</svg>
