<svg width="200" height="164" viewBox="0 0 200 164" fill="none" xmlns="http://www.w3.org/2000/svg">
<path d="M199.996 108.103C200.892 177.57 25.0563 183.702 0.427793 115.505C-1.81766 97.0764 199.846 96.4148 199.996 108.103Z" fill="#D4C9D4"/>
<path d="M0 114.392C0 37.9882 195.955 56.8644 199.55 104.954C204.141 166.356 27.4157 173.718 0 114.392Z" fill="#FFFBF2"/>
<path d="M48.5176 111.683C48.5176 69.9892 149.099 80.2899 150.944 106.532C153.301 140.039 62.5897 144.057 48.5176 111.683Z" fill="#E5E2E3"/>
<path d="M60.2031 110.424C60.2031 78.6052 136.962 86.4663 138.371 106.493C140.169 132.064 70.9424 135.131 60.2031 110.424Z" fill="#F7F0DE"/>
<path d="M30.5588 32.6119C28.7612 72.6118 156.401 73.5107 167.637 35.7579C173.929 -6.93827 36.4015 -15.4776 30.5588 32.6119Z" fill="#FEF5EC"/>
<path d="M41.7763 32.8093L158.181 32.8097C164.473 -0.449341 38.6303 -7.19107 41.7763 32.8093Z" fill="white"/>
<path d="M41.7763 32.8093C53.0122 59.7756 153.237 59.3254 158.181 32.8086C147.394 5.39245 49.8662 3.14573 41.7763 32.8093Z" fill="#9DBB40"/>
<path fill-rule="evenodd" clip-rule="evenodd" d="M150.54 96.1118C204.469 105.14 219.304 26.0671 168.068 35.0558C137.956 67.8648 60.6524 70.112 30.54 35.0558C30.54 123.707 113.479 145.953 150.54 96.1118ZM156.484 86.7399C161.839 76.7895 165.575 64.9979 167.169 50.7857C201.776 39.1008 186.147 91.6841 156.484 86.7399Z" fill="#FFFBF2"/>
<path d="M101.501 13C121.501 18 135.001 20 155.501 29C161.5 33 155.501 38 153 41C134.255 30.6511 120.246 26.8489 101.501 16.5C90.9567 20.4052 53 23 61.5 26.5C71.5 34.5 96 43 101.501 43C108.335 40.4616 115.5 41 119 36.5L90 29C95 26.5 116.3 30.5948 124.501 34.5C130.501 37.3571 115.194 47.5 98.5 47.5C86.5 47.5 66.0002 35 53.5002 26.5C45.5002 24.5 87.0009 13 101.501 13Z" fill="#B7D649"/>
<path d="M84.2881 38.2757C84.0027 37.9521 84.1895 37.8089 84.5996 37.9088C85.1981 38.0542 85.573 38.3613 85.9648 38.2633C86.7426 38.0639 87.0706 38.0019 87.6045 38.6206C88.1388 39.2386 88.7646 38.7619 89.1289 39.0331C89.4951 39.3014 89.2887 39.6785 91.4551 40.355C93.6023 41.0126 94.7632 41.4201 95.5713 41.6827C96.3429 41.9311 97.8606 42.9429 99.1719 43.2802C100.501 43.6483 103.076 44.5756 104.198 44.6107C105.295 44.6541 105.196 45.1037 106.016 45.524C106.856 45.936 107.692 44.9035 108.694 45.1429C109.698 45.3644 109.862 45.9847 111.058 45.8005C112.231 45.6084 113.477 45.7867 113.944 45.4147C114.388 45.0465 114.656 45.7636 115.345 45.37C116.021 44.9689 116.48 44.8919 117.212 44.8407C117.948 44.812 119.963 43.9712 120.46 43.2925C120.962 42.6346 122.004 42.5855 122.525 42.3878C122.688 42.3263 122.83 42.2947 122.947 42.2823C122.997 42.2771 123.043 42.3055 123.071 42.345C123.106 42.3942 123.114 42.4604 123.072 42.4981C122.865 42.6818 122.592 42.9829 122.311 43.4265C121.783 44.2493 121.454 43.9327 120.516 44.7295C119.568 45.5125 119.093 46.2515 117.608 46.5988C116.148 46.8878 116.162 48.133 113.875 47.9863C111.672 47.7154 111.592 48.8946 109.362 49.0355C107.11 49.139 104.61 47.9689 103.397 47.7135C102.156 47.4659 100.509 47.1251 98.9121 46.3973C97.3234 45.6784 95.1554 45.2357 93.5283 44.2201C91.9059 43.2165 89.6263 41.7429 88.6455 40.9937C87.6226 40.2261 87.4292 40.0686 86.2803 39.6461C85.6303 39.4075 84.8585 38.92 84.2881 38.2757ZM107.75 15.5491C108.89 15.1941 110.192 15.6626 111 15.7544C111.249 15.783 111.448 15.828 111.601 15.877C111.665 15.8978 111.696 15.945 111.698 15.9929C111.701 16.0528 111.658 16.1133 111.576 16.1241C111.18 16.1763 110.592 16.2971 109.915 16.5432C108.655 17.0028 108.514 16.5595 106.772 16.852C105.076 17.1452 104.021 17.6185 102.01 17.4736C99.9274 17.3396 99.5897 18.4835 96.667 18.0808C93.7515 17.6947 93.5472 18.8951 90.7871 19.3676C87.991 19.8434 84.3854 19.771 82.7256 20.1782C81.0811 20.5687 78.9324 21.201 76.668 21.81C74.3659 22.4271 71.9816 23.9427 70.0332 25.3006C67.9384 26.551 66.1964 29.6201 65.8135 31.2697C65.3548 32.8706 65.3062 33.3312 65.5234 34.9324C65.6626 35.8757 65.7441 37.1327 65.6445 38.2766C65.5973 38.8608 65.3569 38.777 65.1484 38.2291C64.8483 37.4373 64.8591 36.7486 64.5381 36.3484C63.9049 35.57 63.6505 35.1517 63.9404 34.0362C64.2449 32.9209 63.5728 32.3548 63.7246 31.6869C63.9662 31.0276 64.0291 31.0748 64.9424 27.7297C66.1434 24.3608 67.9097 23.053 68.8828 22.1749C69.9285 21.2551 72.5209 20.2416 74.4287 19.4075C76.3339 18.4812 80.444 17.5575 82.0449 17.0478C83.6794 16.5078 83.7349 16.9755 85.126 17.0012C86.4795 17.0416 87.3939 15.7497 89.0166 15.7031C90.7017 15.6555 90.9585 16.2358 92.8379 15.9007C94.6532 15.576 96.5793 15.8323 97.373 15.5197C98.1791 15.2061 98.3597 15.9478 99.4912 15.6983C100.631 15.4498 101.412 15.4973 102.415 15.6812C103.45 15.8597 106.6 15.9009 107.75 15.5491ZM121.531 18.5722C122.119 18.2781 122.378 18.1839 122.631 18.6862C122.879 19.1887 123.45 18.7124 123.646 18.9314C123.836 19.1563 123.608 19.468 124.951 20.0357C126.294 20.6288 126.944 21.1234 127.397 21.4346C127.866 21.7597 128.396 22.8087 129.07 23.4113C129.771 24.0009 130.72 25.5728 131.259 26.1464C131.811 26.71 131.394 26.9453 131.392 27.5824C131.379 28.2239 132.663 28.2937 132.713 29.1457C132.731 29.9837 132.146 30.1701 132.332 31.0702C132.508 32.022 131.848 32.8992 131.915 33.3747C131.967 33.8965 131.262 33.6182 131.086 34.193C130.872 34.7844 130.486 35.0133 129.937 35.1243C129.378 35.2928 128.043 35.6371 127.594 36.0177C127.165 36.4341 126.469 35.9999 126.137 35.9017C126.027 35.8726 125.938 35.8259 125.869 35.7753C125.84 35.7538 125.824 35.7055 125.821 35.6575C125.817 35.5977 125.833 35.538 125.867 35.5282C126.032 35.4806 126.272 35.3631 126.504 35.1129C126.944 34.635 127.065 35.0816 127.665 34.6948C128.228 34.2851 128.306 33.7988 128.954 33.6285C129.289 33.5211 129.26 33.2145 129.229 32.9623C129.199 32.6943 129.177 32.5183 129.609 32.2229C130.042 31.8931 129.923 31.5595 129.688 31.3125C129.449 31.0576 129.102 30.8522 128.948 30.4382C128.665 29.6429 128.749 28.2188 128.37 27.6746C128.012 27.1417 127.428 26.498 126.977 25.6845C126.517 24.8535 125.429 24.2806 124.848 23.3914C124.272 22.4848 123.258 21.3039 122.78 20.7247C122.313 20.1451 122.175 20.0011 121.499 19.7877C121.106 19.6646 120.666 19.3486 120.373 18.8744C120.225 18.636 120.366 18.4655 120.634 18.479C121.025 18.4999 121.239 18.7212 121.531 18.5722ZM98.7754 24.5603C99.0792 24.451 99.5185 24.5107 99.8721 24.8169C100.051 24.9714 100.002 25.1829 99.8291 25.2835C99.5773 25.4312 99.3765 25.3398 99.2637 25.6104C99.0372 26.1536 98.9756 26.3611 98.6465 26.0856C98.2986 25.8148 98.2724 26.5316 98.0986 26.48C97.9266 26.4365 97.8084 26.003 97.0801 26.5503C96.3886 27.1138 96.1172 27.3985 95.9248 27.6061C95.7524 27.8 95.064 27.8831 94.9092 28.3008C94.738 28.678 94.3605 29.3417 94.5762 29.6456C94.776 29.9217 94.3018 29.8955 94.0654 30.2034C93.8486 30.552 95.0393 30.4619 94.9814 30.7423C94.9467 31.061 94.4326 31.425 94.7969 31.7107C95.1469 31.9685 95.1668 32.5825 95.5029 32.5489C95.8247 32.5015 95.3266 33.0818 95.6836 33.1552C96.0347 33.2182 96.1277 33.4067 96.2188 33.7653C96.3096 34.135 97.0142 34.7779 97.4541 34.6463C97.8945 34.5262 97.9944 35.1425 98.1729 35.3505C98.2257 35.4143 98.2594 35.4852 98.2803 35.5529C98.2891 35.5817 98.2785 35.6301 98.2598 35.6746C98.2366 35.7296 98.2011 35.779 98.1748 35.7772C98.0465 35.7655 97.8407 35.7864 97.5537 35.8989C97.0209 36.1061 97.16 35.6796 96.583 35.6204C95.9978 35.5486 95.4637 35.7285 95.0527 35.1234C94.6845 34.5257 93.7843 35.2978 93.4961 34.1255C93.3103 32.9766 92.3052 33.6735 91.5605 32.7095C90.8039 31.7079 91.239 29.9876 91.3037 29.3377C91.3058 28.6394 91.4736 27.597 92.1709 26.8563C92.8186 26.1407 93.4755 25.0422 94.5215 24.777C95.5457 24.4932 96.9128 24.4608 97.5146 24.5926C98.1286 24.715 98.253 24.7542 98.7754 24.5603Z" fill="white"/>
</svg>
