<svg width="101" height="202" viewBox="0 0 101 202" fill="none" xmlns="http://www.w3.org/2000/svg">
<path d="M9.24477 181.518L1.74626 45.6634C-2.59527 17.2285 107.515 14.8594 98.043 47.6381L91.3338 183.097C96.0694 202.053 6.87653 209.557 9.24477 181.518Z" fill="#E6E6E6"/>
<path d="M51.8154 22.1954C64.8218 22.1705 77.797 24.0684 86.9883 28.13C91.5829 30.1604 95.3652 32.7902 97.6787 36.1202C100.006 39.4706 100.769 43.4267 99.5322 47.878L92.8418 182.964C93.4853 185.907 92.2975 188.532 90.125 190.687C87.9314 192.862 84.6244 194.693 80.708 196.191C72.8493 199.199 62.0432 201.056 51.2285 201.43C40.423 201.803 29.4269 200.704 21.2178 197.666C17.112 196.147 13.5965 194.104 11.1729 191.418C8.73629 188.718 7.4419 185.404 7.74121 181.505L0.250977 45.796C-0.338687 41.7342 1.13081 38.1731 3.93652 35.2091C6.72637 32.262 10.8625 29.8634 15.751 27.9679C25.5405 24.172 38.798 22.2203 51.8154 22.1954ZM52.0195 167.664C43.1258 167.397 34.13 168.458 26.6465 170.916C19.2693 173.339 13.5724 177.048 10.7197 181.96C10.5522 184.881 11.522 187.327 13.4004 189.408C15.3827 191.605 18.4099 193.428 22.2588 194.853C29.959 197.702 40.5208 198.798 51.125 198.432C61.7203 198.065 72.1767 196.244 79.6357 193.39C83.3782 191.958 86.2442 190.31 88.0127 188.557C89.7233 186.86 90.2873 185.208 89.8926 183.527C88.2087 178.932 83.413 175.084 76.5039 172.301C69.6135 169.525 60.9154 167.932 52.0195 167.664ZM10.5068 177.179C14.1493 173.081 19.547 170.09 25.71 168.066C33.5932 165.476 42.9488 164.39 52.1104 164.665C61.27 164.941 70.3323 166.581 77.625 169.519C82.7866 171.598 87.2134 174.394 90.0869 177.944L96.3203 52.0851C95.6023 52.7249 94.8024 53.3495 93.9355 53.9522C91.4106 55.7079 88.1995 57.3811 84.5049 58.8819C77.1132 61.8846 67.6559 64.2491 57.5791 65.1749C38.8316 66.8972 17.5196 63.6615 3.47363 49.7501L10.5068 177.179ZM51.8213 25.1954C39.0381 25.2198 26.174 27.1435 16.835 30.7647C12.1593 32.5778 8.47901 34.7746 6.11523 37.2716C3.89552 39.6165 2.86618 42.1829 3.17578 45.0265C16.1589 60.19 37.7607 63.9831 57.3047 62.1876C67.1089 61.2868 76.2762 58.9867 83.376 56.1026C86.9265 54.6603 89.9281 53.0846 92.2236 51.4884C94.4796 49.9196 95.9384 48.4082 96.6396 47.0831C97.6457 43.4726 97.025 40.4377 95.2148 37.8321C93.3366 35.1287 90.1037 32.7868 85.7754 30.8741C77.1207 27.0497 64.6156 25.1709 51.8213 25.1954Z" fill="white"/>
<path fill-rule="evenodd" clip-rule="evenodd" d="M92.6599 60.0874C101.215 31.8923 1.75949 33.9302 5.68092 58.3889C29.9207 85.9044 86.5999 71.6369 92.6599 60.0874Z" fill="#ADC263"/>
<path fill-rule="evenodd" clip-rule="evenodd" d="M5.68092 58.3889C29.9207 85.9044 86.5999 71.6369 92.6599 60.0874L86.5999 176.605C90.8773 192.91 10.3148 199.364 12.4539 175.246L5.68092 58.3889Z" fill="url(#paint0_linear_971_15175)"/>
<path d="M62.8249 185.109C62.8249 187.883 60.6128 190.132 57.884 190.132C55.1552 190.132 52.943 187.883 52.943 185.109C52.943 182.335 55.1552 180.086 57.884 180.086C60.6128 180.086 62.8249 182.335 62.8249 185.109Z" fill="#28061D"/>
<path d="M61.7847 181.936C61.0045 180.879 59.7234 180.257 58.4736 180.118C57.2237 179.98 55.964 180.288 54.9512 180.982C53.9385 181.675 53.2489 182.7 53.0231 183.848C52.7973 184.997 52.9429 187.224 53.7232 187.488C55.3834 188.425 57.8101 188.488 59.7086 187.162C61.5811 185.854 62.129 184.446 61.7847 181.936Z" fill="#591636"/>
<path d="M56.5104 177.21C56.5104 179.984 54.2983 182.233 51.5694 182.233C48.8406 182.233 46.6285 179.984 46.6285 177.21C46.6285 174.436 48.8406 172.187 51.5694 172.187C54.2983 172.187 56.5104 174.436 56.5104 177.21Z" fill="#28061D"/>
<path d="M55.4701 174.038C54.69 172.98 53.4088 172.358 52.159 172.22C50.9092 172.081 49.6495 172.39 48.6367 173.083C47.6239 173.776 46.9343 174.802 46.7086 175.95C46.4828 177.098 46.6284 179.325 47.4086 179.59C49.0689 180.527 51.4956 180.59 53.394 179.264C55.2665 177.955 55.8144 176.548 55.4701 174.038Z" fill="#591636"/>
<path d="M52.5638 185.109C52.5638 187.883 50.3517 190.132 47.6228 190.132C44.894 190.132 42.6819 187.883 42.6819 185.109C42.6819 182.335 44.894 180.086 47.6228 180.086C50.3517 180.086 52.5638 182.335 52.5638 185.109Z" fill="#28061D"/>
<path d="M51.5236 181.936C50.7434 180.879 49.4623 180.257 48.2124 180.118C46.9626 179.98 45.7029 180.288 44.6901 180.982C43.6773 181.675 42.9878 182.7 42.762 183.848C42.5362 184.997 42.6818 187.224 43.4621 187.488C45.1223 188.425 47.549 188.488 49.4474 187.162C51.32 185.854 51.8678 184.446 51.5236 181.936Z" fill="#591636"/>
<path d="M70.7181 170.891C70.7181 173.666 68.506 175.915 65.7771 175.915C63.0483 175.915 60.8362 173.666 60.8362 170.891C60.8362 168.117 63.0483 165.868 65.7771 165.868C68.506 165.868 70.7181 168.117 70.7181 170.891Z" fill="#28061D"/>
<path d="M69.6778 167.719C68.8977 166.661 67.6166 166.039 66.3667 165.901C65.1169 165.762 63.8572 166.071 62.8444 166.764C61.8316 167.457 61.1421 168.483 60.9163 169.631C60.6905 170.78 60.8361 173.007 61.6164 173.271C63.2766 174.208 65.7033 174.271 67.6017 172.945C69.4742 171.636 70.0221 170.229 69.6778 167.719Z" fill="#591636"/>
<path d="M76.2433 174.051C76.2433 176.825 74.0312 179.074 71.3024 179.074C68.5735 179.074 66.3614 176.825 66.3614 174.051C66.3614 171.277 68.5735 169.028 71.3024 169.028C74.0312 169.028 76.2433 171.277 76.2433 174.051Z" fill="#28061D"/>
<path d="M75.2031 170.878C74.4229 169.821 73.1418 169.199 71.892 169.06C70.6421 168.922 69.3824 169.23 68.3696 169.924C67.3568 170.617 66.6673 171.642 66.4415 172.791C66.2157 173.939 66.3613 176.166 67.1416 176.43C68.8018 177.367 71.2285 177.431 73.1269 176.104C74.9995 174.796 75.5474 173.389 75.2031 170.878Z" fill="#591636"/>
<path d="M79.4006 181.16C79.4006 183.934 77.1885 186.183 74.4596 186.183C71.7308 186.183 69.5187 183.934 69.5187 181.16C69.5187 178.385 71.7308 176.136 74.4596 176.136C77.1885 176.136 79.4006 178.385 79.4006 181.16Z" fill="#28061D"/>
<path d="M78.3603 177.987C77.5802 176.93 76.299 176.307 75.0492 176.169C73.7994 176.03 72.5397 176.339 71.5269 177.032C70.5141 177.725 69.8245 178.751 69.5988 179.899C69.373 181.048 69.5186 183.275 70.2988 183.539C71.9591 184.476 74.3858 184.539 76.2842 183.213C78.1567 181.904 78.7046 180.497 78.3603 177.987Z" fill="#591636"/>
<path d="M84.9258 176.42C84.9258 179.195 82.7137 181.444 79.9849 181.444C77.256 181.444 75.0439 179.195 75.0439 176.42C75.0439 173.646 77.256 171.397 79.9849 171.397C82.7137 171.397 84.9258 173.646 84.9258 176.42Z" fill="#28061D"/>
<path d="M83.8856 173.248C83.1054 172.19 81.8243 171.568 80.5744 171.43C79.3246 171.291 78.0649 171.6 77.0521 172.293C76.0393 172.986 75.3498 174.012 75.124 175.16C74.8982 176.309 75.0438 178.535 75.8241 178.8C77.4843 179.737 79.911 179.8 81.8094 178.474C83.682 177.165 84.2299 175.758 83.8856 173.248Z" fill="#591636"/>
<path d="M65.1929 176.42C65.1929 179.195 62.9807 181.444 60.2519 181.444C57.5231 181.444 55.311 179.195 55.311 176.42C55.311 173.646 57.5231 171.397 60.2519 171.397C62.9807 171.397 65.1929 173.646 65.1929 176.42Z" fill="#28061D"/>
<path d="M64.1526 173.248C63.3725 172.19 62.0913 171.568 60.8415 171.43C59.5917 171.291 58.332 171.6 57.3192 172.293C56.3064 172.986 55.6168 174.012 55.391 175.16C55.1653 176.309 55.3109 178.535 56.0911 178.8C57.7513 179.737 60.1781 179.8 62.0765 178.474C63.949 177.165 64.4969 175.758 64.1526 173.248Z" fill="#591636"/>
<path d="M70.7181 181.16C70.7181 183.934 68.506 186.183 65.7771 186.183C63.0483 186.183 60.8362 183.934 60.8362 181.16C60.8362 178.385 63.0483 176.136 65.7771 176.136C68.506 176.136 70.7181 178.385 70.7181 181.16Z" fill="#28061D"/>
<path d="M69.6778 177.987C68.8977 176.93 67.6166 176.307 66.3667 176.169C65.1169 176.03 63.8572 176.339 62.8444 177.032C61.8316 177.725 61.1421 178.751 60.9163 179.899C60.6905 181.048 60.8361 183.275 61.6164 183.539C63.2766 184.476 65.7033 184.539 67.6017 183.213C69.4742 181.904 70.0221 180.497 69.6778 177.987Z" fill="#591636"/>
<path d="M44.6706 174.841C44.6706 177.615 42.4585 179.864 39.7297 179.864C37.0009 179.864 34.7887 177.615 34.7887 174.841C34.7887 172.067 37.0009 169.818 39.7297 169.818C42.4585 169.818 44.6706 172.067 44.6706 174.841Z" fill="#28061D"/>
<path d="M43.6304 171.668C42.8502 170.611 41.5691 169.988 40.3193 169.85C39.0694 169.712 37.8097 170.02 36.7969 170.714C35.7842 171.407 35.0946 172.432 34.8688 173.58C34.643 174.729 34.7887 176.956 35.5689 177.22C37.2291 178.157 39.6558 178.22 41.5543 176.894C43.4268 175.586 43.9747 174.178 43.6304 171.668Z" fill="#591636"/>
<path d="M50.1959 178C50.1959 180.774 47.9837 183.023 45.2549 183.023C42.5261 183.023 40.3139 180.774 40.3139 178C40.3139 175.226 42.5261 172.977 45.2549 172.977C47.9837 172.977 50.1959 175.226 50.1959 178Z" fill="#28061D"/>
<path d="M49.1556 174.828C48.3755 173.77 47.0943 173.148 45.8445 173.009C44.5947 172.871 43.3349 173.18 42.3222 173.873C41.3094 174.566 40.6198 175.591 40.394 176.74C40.1682 177.888 40.3139 180.115 41.0941 180.38C42.7543 181.316 45.181 181.38 47.0795 180.053C48.952 178.745 49.4999 177.338 49.1556 174.828Z" fill="#591636"/>
<path d="M53.3531 185.109C53.3531 187.883 51.141 190.132 48.4122 190.132C45.6833 190.132 43.4712 187.883 43.4712 185.109C43.4712 182.335 45.6833 180.086 48.4122 180.086C51.141 180.086 53.3531 182.335 53.3531 185.109Z" fill="#28061D"/>
<path d="M52.3129 181.936C51.5327 180.879 50.2516 180.257 49.0018 180.118C47.7519 179.98 46.4922 180.288 45.4794 180.982C44.4666 181.675 43.7771 182.7 43.5513 183.848C43.3255 184.997 43.4711 187.224 44.2514 187.488C45.9116 188.425 48.3383 188.488 50.2367 187.162C52.1093 185.854 52.6572 184.446 52.3129 181.936Z" fill="#591636"/>
<path d="M22.5698 169.312C22.5698 172.086 20.3576 174.335 17.6288 174.335C14.9 174.335 12.6878 172.086 12.6878 169.312C12.6878 166.538 14.9 164.289 17.6288 164.289C20.3576 164.289 22.5698 166.538 22.5698 169.312Z" fill="#28061D"/>
<path d="M21.5295 166.139C20.7493 165.082 19.4682 164.46 18.2184 164.321C16.9686 164.183 15.7088 164.491 14.6961 165.185C13.6833 165.878 12.9937 166.903 12.7679 168.051C12.5421 169.2 12.6878 171.427 13.468 171.691C15.1282 172.628 17.5549 172.691 19.4534 171.365C21.3259 170.057 21.8738 168.649 21.5295 166.139Z" fill="#591636"/>
<path d="M39.1454 180.37C39.1454 183.144 36.9333 185.393 34.2045 185.393C31.4756 185.393 29.2635 183.144 29.2635 180.37C29.2635 177.595 31.4756 175.347 34.2045 175.347C36.9333 175.347 39.1454 177.595 39.1454 180.37Z" fill="#28061D"/>
<path d="M38.1052 177.197C37.325 176.14 36.0439 175.517 34.794 175.379C33.5442 175.24 32.2845 175.549 31.2717 176.242C30.2589 176.936 29.5694 177.961 29.3436 179.109C29.1178 180.258 29.2634 182.485 30.0437 182.749C31.7039 183.686 34.1306 183.749 36.029 182.423C37.9016 181.115 38.4495 179.707 38.1052 177.197Z" fill="#591636"/>
<path d="M44.6706 185.109C44.6706 187.883 42.4585 190.132 39.7297 190.132C37.0009 190.132 34.7887 187.883 34.7887 185.109C34.7887 182.335 37.0009 180.086 39.7297 180.086C42.4585 180.086 44.6706 182.335 44.6706 185.109Z" fill="#28061D"/>
<path d="M43.6304 181.936C42.8502 180.879 41.5691 180.257 40.3193 180.118C39.0694 179.98 37.8097 180.288 36.7969 180.982C35.7842 181.675 35.0946 182.7 34.8688 183.848C34.643 184.997 34.7887 187.224 35.5689 187.488C37.2291 188.425 39.6558 188.488 41.5543 187.162C43.4268 185.854 43.9747 184.446 43.6304 181.936Z" fill="#591636"/>
<path d="M25.727 175.631C25.727 178.405 23.5149 180.654 20.7861 180.654C18.0572 180.654 15.8451 178.405 15.8451 175.631C15.8451 172.856 18.0572 170.607 20.7861 170.607C23.5149 170.607 25.727 172.856 25.727 175.631Z" fill="#28061D"/>
<path d="M24.6868 172.458C23.9066 171.401 22.6255 170.778 21.3757 170.64C20.1258 170.501 18.8661 170.81 17.8533 171.503C16.8405 172.197 16.151 173.222 15.9252 174.37C15.6994 175.519 15.845 177.746 16.6253 178.01C18.2855 178.947 20.7122 179.01 22.6106 177.684C24.4832 176.376 25.0311 174.968 24.6868 172.458Z" fill="#591636"/>
<path d="M34.4095 174.841C34.4095 177.615 32.1974 179.864 29.4686 179.864C26.7397 179.864 24.5276 177.615 24.5276 174.841C24.5276 172.067 26.7397 169.818 29.4686 169.818C32.1974 169.818 34.4095 172.067 34.4095 174.841Z" fill="#28061D"/>
<path d="M33.3693 171.668C32.5891 170.611 31.308 169.988 30.0581 169.85C28.8083 169.712 27.5486 170.02 26.5358 170.714C25.523 171.407 24.8335 172.432 24.6077 173.58C24.3819 174.729 24.5275 176.956 25.3078 177.22C26.968 178.157 29.3947 178.22 31.2931 176.894C33.1657 175.586 33.7136 174.178 33.3693 171.668Z" fill="#591636"/>
<path d="M37.5668 181.949C37.5668 184.724 35.3546 186.973 32.6258 186.973C29.897 186.973 27.6849 184.724 27.6849 181.949C27.6849 179.175 29.897 176.926 32.6258 176.926C35.3546 176.926 37.5668 179.175 37.5668 181.949Z" fill="#28061D"/>
<path d="M36.5265 178.777C35.7464 177.719 34.4652 177.097 33.2154 176.959C31.9656 176.82 30.7059 177.129 29.6931 177.822C28.6803 178.515 27.9907 179.541 27.7649 180.689C27.5392 181.837 27.6848 184.064 28.465 184.329C30.1252 185.266 32.552 185.329 34.4504 184.003C36.3229 182.694 36.8708 181.287 36.5265 178.777Z" fill="#591636"/>
<path d="M28.8843 181.949C28.8843 184.724 26.6722 186.973 23.9433 186.973C21.2145 186.973 19.0024 184.724 19.0024 181.949C19.0024 179.175 21.2145 176.926 23.9433 176.926C26.6722 176.926 28.8843 179.175 28.8843 181.949Z" fill="#28061D"/>
<path d="M27.844 178.777C27.0639 177.719 25.7827 177.097 24.5329 176.959C23.2831 176.82 22.0234 177.129 21.0106 177.822C19.9978 178.515 19.3082 179.541 19.0825 180.689C18.8567 181.837 19.0023 184.064 19.7825 184.329C21.4428 185.266 23.8695 185.329 25.7679 184.003C27.6404 182.694 28.1883 181.287 27.844 178.777Z" fill="#591636"/>
<path d="M43.4548 164.573C43.4548 167.347 45.667 169.596 48.3958 169.596C51.1246 169.596 53.3368 167.347 53.3368 164.573C53.3368 161.798 51.1246 159.55 48.3958 159.55C45.667 159.55 43.4548 161.798 43.4548 164.573Z" fill="#28061D"/>
<path d="M44.4951 161.4C45.2752 160.343 46.5564 159.72 47.8062 159.582C49.056 159.443 50.3158 159.752 51.3285 160.445C52.3413 161.139 53.0309 162.164 53.2567 163.312C53.4825 164.461 53.3368 166.688 52.5566 166.952C50.8964 167.889 48.4697 167.952 46.5712 166.626C44.6987 165.318 44.1508 163.91 44.4951 161.4Z" fill="#591636"/>
<path d="M47.4014 172.471C47.4014 175.245 49.6136 177.494 52.3424 177.494C55.0712 177.494 57.2834 175.245 57.2834 172.471C57.2834 169.697 55.0712 167.448 52.3424 167.448C49.6136 167.448 47.4014 169.697 47.4014 172.471Z" fill="#28061D"/>
<path d="M48.4417 169.299C49.2218 168.241 50.503 167.619 51.7528 167.48C53.0026 167.342 54.2623 167.651 55.2751 168.344C56.2879 169.037 56.9775 170.062 57.2033 171.211C57.429 172.359 57.2834 174.586 56.5032 174.851C54.843 175.787 52.4162 175.851 50.5178 174.524C48.6453 173.216 48.0974 171.809 48.4417 169.299Z" fill="#591636"/>
<path d="M37.9296 159.044C37.9296 161.818 40.1418 164.067 42.8706 164.067C45.5994 164.067 47.8116 161.818 47.8116 159.044C47.8116 156.27 45.5994 154.021 42.8706 154.021C40.1418 154.021 37.9296 156.27 37.9296 159.044Z" fill="#28061D"/>
<path d="M38.9699 155.871C39.75 154.814 41.0312 154.191 42.281 154.053C43.5308 153.915 44.7905 154.223 45.8033 154.917C46.8161 155.61 47.5057 156.635 47.7315 157.783C47.9572 158.932 47.8116 161.159 47.0314 161.423C45.3712 162.36 42.9444 162.423 41.046 161.097C39.1735 159.789 38.6256 158.381 38.9699 155.871Z" fill="#591636"/>
<path d="M23.7219 161.413C23.7219 164.188 25.934 166.436 28.6629 166.436C31.3917 166.436 33.6038 164.188 33.6038 161.413C33.6038 158.639 31.3917 156.39 28.6629 156.39C25.934 156.39 23.7219 158.639 23.7219 161.413Z" fill="#28061D"/>
<path d="M24.7622 158.241C25.5423 157.183 26.8235 156.561 28.0733 156.423C29.3231 156.284 30.5828 156.593 31.5956 157.286C32.6084 157.979 33.298 159.005 33.5237 160.153C33.7495 161.301 33.6039 163.528 32.8237 163.793C31.1634 164.73 28.7367 164.793 26.8383 163.467C24.9658 162.158 24.4179 160.751 24.7622 158.241Z" fill="#591636"/>
<path d="M15.0394 163.783C15.0394 166.557 17.2516 168.806 19.9804 168.806C22.7092 168.806 24.9214 166.557 24.9214 163.783C24.9214 161.009 22.7092 158.76 19.9804 158.76C17.2516 158.76 15.0394 161.009 15.0394 163.783Z" fill="#28061D"/>
<path d="M16.0797 160.61C16.8598 159.553 18.141 158.931 19.3908 158.792C20.6406 158.654 21.9003 158.962 22.9131 159.656C23.9259 160.349 24.6155 161.374 24.8413 162.523C25.067 163.671 24.9214 165.898 24.1412 166.162C22.481 167.099 20.0542 167.162 18.1558 165.836C16.2833 164.528 15.7354 163.121 16.0797 160.61Z" fill="#591636"/>
<path d="M33.1937 166.152C33.1937 168.927 35.4059 171.176 38.1347 171.176C40.8635 171.176 43.0756 168.927 43.0756 166.152C43.0756 163.378 40.8635 161.129 38.1347 161.129C35.4059 161.129 33.1937 163.378 33.1937 166.152Z" fill="#28061D"/>
<path d="M34.234 162.98C35.0141 161.922 36.2953 161.3 37.5451 161.162C38.7949 161.023 40.0546 161.332 41.0674 162.025C42.0802 162.718 42.7698 163.744 42.9956 164.892C43.2213 166.04 43.0757 168.267 42.2955 168.532C40.6353 169.469 38.2085 169.532 36.3101 168.206C34.4376 166.897 33.8897 165.49 34.234 162.98Z" fill="#591636"/>
<path d="M25.3005 169.312C25.3005 172.086 27.5127 174.335 30.2415 174.335C32.9703 174.335 35.1825 172.086 35.1825 169.312C35.1825 166.538 32.9703 164.289 30.2415 164.289C27.5127 164.289 25.3005 166.538 25.3005 169.312Z" fill="#28061D"/>
<path d="M26.3408 166.139C27.121 165.082 28.4021 164.46 29.6519 164.321C30.9017 164.183 32.1615 164.491 33.1742 165.185C34.187 165.878 34.8766 166.903 35.1024 168.051C35.3282 169.2 35.1825 171.427 34.4023 171.691C32.7421 172.628 30.3154 172.691 28.4169 171.365C26.5444 170.057 25.9965 168.649 26.3408 166.139Z" fill="#591636"/>
<path d="M55.2946 162.203C55.2946 164.977 57.5067 167.226 60.2356 167.226C62.9644 167.226 65.1765 164.977 65.1765 162.203C65.1765 159.429 62.9644 157.18 60.2356 157.18C57.5067 157.18 55.2946 159.429 55.2946 162.203Z" fill="#28061D"/>
<path d="M56.3349 159.031C57.115 157.973 58.3961 157.351 59.646 157.212C60.8958 157.074 62.1555 157.383 63.1683 158.076C64.1811 158.769 64.8707 159.794 65.0964 160.943C65.3222 162.091 65.1766 164.318 64.3963 164.583C62.7361 165.519 60.3094 165.583 58.411 164.256C56.5385 162.948 55.9906 161.541 56.3349 159.031Z" fill="#591636"/>
<path d="M49.7694 165.363C49.7694 168.137 51.9815 170.386 54.7103 170.386C57.4392 170.386 59.6513 168.137 59.6513 165.363C59.6513 162.588 57.4392 160.339 54.7103 160.339C51.9815 160.339 49.7694 162.588 49.7694 165.363Z" fill="#28061D"/>
<path d="M50.8096 162.19C51.5898 161.133 52.8709 160.51 54.1208 160.372C55.3706 160.233 56.6303 160.542 57.6431 161.235C58.6559 161.928 59.3454 162.954 59.5712 164.102C59.797 165.251 59.6514 167.478 58.8711 167.742C57.2109 168.679 54.7842 168.742 52.8858 167.416C51.0132 166.107 50.4653 164.7 50.8096 162.19Z" fill="#591636"/>
<path d="M46.6121 172.471C46.6121 175.245 48.8242 177.494 51.5531 177.494C54.2819 177.494 56.494 175.245 56.494 172.471C56.494 169.697 54.2819 167.448 51.5531 167.448C48.8242 167.448 46.6121 169.697 46.6121 172.471Z" fill="#28061D"/>
<path d="M47.6524 169.299C48.4325 168.241 49.7137 167.619 50.9635 167.48C52.2133 167.342 53.473 167.651 54.4858 168.344C55.4986 169.037 56.1882 170.062 56.4139 171.211C56.6397 172.359 56.4941 174.586 55.7139 174.851C54.0536 175.787 51.6269 175.851 49.7285 174.524C47.856 173.216 47.3081 171.809 47.6524 169.299Z" fill="#591636"/>
<path d="M41.0869 167.732C41.0869 170.506 43.299 172.755 46.0278 172.755C48.7567 172.755 50.9688 170.506 50.9688 167.732C50.9688 164.958 48.7567 162.709 46.0278 162.709C43.299 162.709 41.0869 164.958 41.0869 167.732Z" fill="#28061D"/>
<path d="M42.1271 164.56C42.9073 163.502 44.1884 162.88 45.4383 162.741C46.6881 162.603 47.9478 162.912 48.9606 163.605C49.9734 164.298 50.6629 165.323 50.8887 166.472C51.1145 167.62 50.9689 169.847 50.1886 170.111C48.5284 171.048 46.1017 171.112 44.2033 169.785C42.3307 168.477 41.7828 167.07 42.1271 164.56Z" fill="#591636"/>
<path d="M60.8198 167.732C60.8198 170.506 63.032 172.755 65.7608 172.755C68.4896 172.755 70.7017 170.506 70.7017 167.732C70.7017 164.958 68.4896 162.709 65.7608 162.709C63.032 162.709 60.8198 164.958 60.8198 167.732Z" fill="#28061D"/>
<path d="M61.8601 164.56C62.6402 163.502 63.9214 162.88 65.1712 162.741C66.421 162.603 67.6807 162.912 68.6935 163.605C69.7063 164.298 70.3959 165.323 70.6217 166.472C70.8474 167.62 70.7018 169.847 69.9216 170.111C68.2614 171.048 65.8346 171.112 63.9362 169.785C62.0637 168.477 61.5158 167.07 61.8601 164.56Z" fill="#591636"/>
<path d="M71.0809 159.044C71.0809 161.818 73.2931 164.067 76.0219 164.067C78.7507 164.067 80.9629 161.818 80.9629 159.044C80.9629 156.27 78.7507 154.021 76.0219 154.021C73.2931 154.021 71.0809 156.27 71.0809 159.044Z" fill="#28061D"/>
<path d="M72.1212 155.871C72.9014 154.814 74.1825 154.191 75.4323 154.053C76.6821 153.915 77.9419 154.223 78.9546 154.917C79.9674 155.61 80.657 156.635 80.8828 157.783C81.1086 158.932 80.9629 161.159 80.1827 161.423C78.5225 162.36 76.0958 162.423 74.1973 161.097C72.3248 159.789 71.7769 158.381 72.1212 155.871Z" fill="#591636"/>
<path d="M65.5557 162.203C65.5557 164.977 67.7679 167.226 70.4967 167.226C73.2255 167.226 75.4377 164.977 75.4377 162.203C75.4377 159.429 73.2255 157.18 70.4967 157.18C67.7679 157.18 65.5557 159.429 65.5557 162.203Z" fill="#28061D"/>
<path d="M66.596 159.031C67.3761 157.973 68.6573 157.351 69.9071 157.212C71.1569 157.074 72.4166 157.383 73.4294 158.076C74.4422 158.769 75.1318 159.794 75.3576 160.943C75.5833 162.091 75.4377 164.318 74.6575 164.583C72.9973 165.519 70.5705 165.583 68.6721 164.256C66.7996 162.948 66.2517 161.541 66.596 159.031Z" fill="#591636"/>
<path d="M62.3984 169.312C62.3984 172.086 64.6106 174.335 67.3394 174.335C70.0682 174.335 72.2804 172.086 72.2804 169.312C72.2804 166.538 70.0682 164.289 67.3394 164.289C64.6106 164.289 62.3984 166.538 62.3984 169.312Z" fill="#28061D"/>
<path d="M63.4387 166.139C64.2189 165.082 65.5 164.46 66.7498 164.321C67.9996 164.183 69.2594 164.491 70.2721 165.185C71.2849 165.878 71.9745 166.903 72.2003 168.051C72.4261 169.2 72.2804 171.427 71.5002 171.691C69.84 172.628 67.4133 172.691 65.5148 171.365C63.6423 170.057 63.0944 168.649 63.4387 166.139Z" fill="#591636"/>
<path d="M56.8732 164.573C56.8732 167.347 59.0854 169.596 61.8142 169.596C64.543 169.596 66.7552 167.347 66.7552 164.573C66.7552 161.798 64.543 159.55 61.8142 159.55C59.0854 159.55 56.8732 161.798 56.8732 164.573Z" fill="#28061D"/>
<path d="M57.9135 161.4C58.6936 160.343 59.9748 159.72 61.2246 159.582C62.4744 159.443 63.7342 159.752 64.7469 160.445C65.7597 161.139 66.4493 162.164 66.6751 163.312C66.9008 164.461 66.7552 166.688 65.975 166.952C64.3148 167.889 61.8881 167.952 59.9896 166.626C58.1171 165.318 57.5692 163.91 57.9135 161.4Z" fill="#591636"/>
<path d="M75.0275 166.942C75.0275 169.716 77.2397 171.965 79.9685 171.965C82.6973 171.965 84.9095 169.716 84.9095 166.942C84.9095 164.168 82.6973 161.919 79.9685 161.919C77.2397 161.919 75.0275 164.168 75.0275 166.942Z" fill="#28061D"/>
<path d="M76.0678 163.77C76.8479 162.712 78.1291 162.09 79.3789 161.951C80.6287 161.813 81.8884 162.122 82.9012 162.815C83.914 163.508 84.6036 164.534 84.8294 165.682C85.0551 166.83 84.9095 169.057 84.1293 169.322C82.4691 170.258 80.0424 170.322 78.1439 168.995C76.2714 167.687 75.7235 166.28 76.0678 163.77Z" fill="#591636"/>
<path d="M18.6211 88.8255L21.7595 77.8705L32.7437 76.0001L37.6474 86.4207L36.2744 96.0398L24.3094 97.643L18.6211 88.8255Z" fill="#E4E8CD" fill-opacity="0.48"/>
<path d="M38.0996 86.2081L38.1641 86.3429L38.1426 86.4913L36.7158 96.4854L36.3408 96.5352L24.0615 98.1808L18.0781 88.9063L21.2783 77.7325L21.3652 77.4308L33.0342 75.4435L38.0996 86.2081ZM19.4453 89.1827L24.5566 97.1046L35.5312 95.6339L31.4736 86.9806L19.4453 89.1827ZM32.2734 86.3311L36.0156 94.3097L37.1309 86.4972L33.0693 77.8673L32.2734 86.3311ZM22.1533 78.3097L19.3232 88.1886L31.3008 85.9962L32.1846 76.6026L22.1533 78.3097Z" fill="#E4E8CD"/>
<path d="M54.6211 116.826L57.7595 105.87L68.7437 104L73.6474 114.421L72.2744 124.04L60.3094 125.643L54.6211 116.826Z" fill="#E4E8CD" fill-opacity="0.48"/>
<path d="M74.0996 114.208L74.1641 114.343L74.1426 114.491L72.7158 124.485L72.3408 124.535L60.0615 126.181L54.0781 116.906L57.2783 105.733L57.3652 105.431L69.0342 103.443L74.0996 114.208ZM55.4453 117.183L60.5566 125.105L71.5312 123.634L67.4736 114.981L55.4453 117.183ZM68.2734 114.331L72.0156 122.31L73.1309 114.497L69.0693 105.867L68.2734 114.331ZM58.1533 106.31L55.3232 116.189L67.3008 113.996L68.1846 104.603L58.1533 106.31Z" fill="#E4E8CD"/>
<path d="M70.1211 84.8255L73.2595 73.8705L84.2437 72.0001L89.1474 82.4207L87.7744 92.0398L75.8094 93.643L70.1211 84.8255Z" fill="#E4E8CD" fill-opacity="0.48"/>
<path d="M89.5996 82.2081L89.6641 82.3429L89.6426 82.4913L88.2158 92.4854L87.8408 92.5352L75.5615 94.1808L69.5781 84.9063L72.7783 73.7325L72.8652 73.4308L84.5342 71.4435L89.5996 82.2081ZM70.9453 85.1827L76.0566 93.1046L87.0312 91.6339L82.9736 82.9806L70.9453 85.1827ZM83.7734 82.3311L87.5156 90.3097L88.6309 82.4972L84.5693 73.8673L83.7734 82.3311ZM73.6533 74.3097L70.8232 84.1886L82.8008 81.9962L83.6846 72.6026L73.6533 74.3097Z" fill="#E4E8CD"/>
<path d="M62.6167 0L48.409 144.542L40.1212 160.339L54.3289 0H62.6167Z" fill="#FDB46C" fill-opacity="0.66"/>
<path d="M9.24477 181.518L1.74626 45.6634C28.5828 77.652 91.3338 61.0652 98.043 47.6381L91.3338 183.097C96.0694 202.053 6.87653 209.557 9.24477 181.518Z" fill="#D9D9D9" fill-opacity="0.4"/>
<path d="M2.89551 44.6998C15.8467 60.1371 37.6204 63.996 57.3047 62.1876C67.1087 61.2869 76.2753 58.9871 83.375 56.1031C86.9255 54.6608 89.9271 53.0851 92.2227 51.4889C94.5452 49.8739 96.0252 48.3201 96.7012 46.9674L99.541 47.7125L92.8418 182.964C93.4853 185.907 92.2975 188.532 90.125 190.687C87.9314 192.862 84.6244 194.693 80.708 196.191C72.8493 199.199 62.0432 201.056 51.2285 201.43C40.423 201.803 29.4269 200.704 21.2178 197.666C17.112 196.147 13.5965 194.104 11.1729 191.418C8.73629 188.718 7.4419 185.404 7.74121 181.505L0 41.2486L2.89551 44.6998ZM10.748 181.54L10.7393 181.644C10.4807 184.705 11.4537 187.253 13.3994 189.409C15.3817 191.605 18.4097 193.428 22.2588 194.853C29.959 197.702 40.5208 198.798 51.125 198.432C61.7203 198.065 72.1767 196.244 79.6357 193.39C83.3782 191.958 86.2442 190.31 88.0127 188.557C89.7458 186.838 90.3034 185.163 89.8779 183.461L89.8242 183.246L89.835 183.023L96.3203 52.0851C95.6023 52.7249 94.8024 53.3495 93.9355 53.9522C91.4106 55.7079 88.1995 57.3811 84.5049 58.8819C77.1132 61.8846 67.6559 64.2491 57.5791 65.1749C38.8316 66.8972 17.5196 63.6615 3.47363 49.7501L10.748 181.54Z" fill="white"/>
<defs>
<linearGradient id="paint0_linear_971_15175" x1="50.0599" y1="0" x2="50.0599" y2="201.5" gradientUnits="userSpaceOnUse">
<stop offset="0.418269" stop-color="#90B314"/>
<stop offset="0.831731" stop-color="#FEFFFD"/>
</linearGradient>
</defs>
</svg>
