<svg width="200" height="200" viewBox="0 0 200 200" fill="none" xmlns="http://www.w3.org/2000/svg">
<ellipse cx="99.5" cy="102.498" rx="92.5" ry="67.5019" fill="#EEDCBE"/>
<path d="M99.5 30.5C124.95 30.5 147.969 37.959 164.614 49.9932C181.26 62.0278 191.5 78.6101 191.5 96.877C191.5 115.144 181.26 131.726 164.614 143.761C147.969 155.795 124.95 163.254 99.5 163.254C74.0504 163.254 51.0307 155.795 34.3857 143.761C17.7401 131.726 7.50002 115.144 7.5 96.877C7.5 78.6101 17.7401 62.0278 34.3857 49.9932C51.0307 37.959 74.0504 30.5 99.5 30.5Z" fill="#FFFBF2" stroke="#EEDCBE"/>
<ellipse cx="100.051" cy="91.8736" rx="77.6339" ry="53.1265" fill="#FBEEDC"/>
<path d="M44.2043 73.2851C49.7262 74.512 54.2443 73.9801 54.734 70.9922C55.2237 68.0044 49.6717 65.2349 45.2669 64.2562C40.8622 63.2775 35.0307 64.0559 34.7373 66.5491C34.4438 69.0424 38.6824 72.0582 44.2043 73.2851Z" fill="#639233"/>
<path d="M58.1729 76.4415C58.1369 75.9811 53.547 73.6017 52.1367 73.0804C50.6296 72.5232 58.3294 68.5337 57.2596 69.272C56.1899 70.0102 56.2386 74.338 60.6749 74.9846C61.209 75.0812 58.784 76.1361 58.1729 76.4415C58.1754 76.4731 58.1564 76.4956 58.1135 76.5079C57.9838 76.5451 58.0258 76.515 58.1729 76.4415Z" fill="#639233"/>
<path d="M52.1367 73.0804C53.6438 73.6375 58.7819 76.3164 58.1135 76.5079C57.4451 76.6994 61.3376 75.1044 60.6749 74.9846C56.2386 74.338 56.1899 70.0102 57.2596 69.272C58.3294 68.5337 50.6296 72.5232 52.1367 73.0804Z" stroke="#639233" stroke-linecap="round"/>
<path d="M60.582 65.8707C57.7195 70.2582 54.1428 72.7776 51.3998 71.0083C48.6568 69.2391 50.3004 63.7572 52.5838 60.2573C54.8672 56.7575 59.5573 53.5696 61.7659 55.1197C63.9746 56.6697 63.4445 61.4831 60.582 65.8707Z" fill="#639233"/>
<path d="M43.9429 65.8707C46.8054 70.2582 50.3821 72.7776 53.1251 71.0083C55.8681 69.2391 54.2245 63.7572 51.9411 60.2573C49.6577 56.7575 44.9676 53.5696 42.759 55.1197C40.5503 56.6697 41.0804 61.4831 43.9429 65.8707Z" fill="#639233"/>
<path d="M60.1406 59.8627C60.352 59.5065 60.2345 59.0463 59.8783 58.835C59.5221 58.6236 59.062 58.741 58.8506 59.0973L60.1406 59.8627ZM52.5837 71.1292L53.2288 71.5119L60.1406 59.8627L59.4956 59.48L58.8506 59.0973L51.9387 70.7465L52.5837 71.1292Z" fill="#567F26"/>
<path d="M45.2871 59.7621C45.0758 59.4059 45.1932 58.9457 45.5494 58.7344C45.9057 58.523 46.3658 58.6405 46.5771 58.9967L45.2871 59.7621ZM52.844 71.0287L52.199 71.4114L45.2871 59.7621L45.9321 59.3794L46.5771 58.9967L53.489 70.646L52.844 71.0287Z" fill="#567F26"/>
<path d="M38.3062 69.0419C37.8801 68.9671 37.6103 68.5953 37.7036 68.2116C37.7969 67.8278 38.218 67.5773 38.6441 67.6521L38.3062 69.0419ZM52.9717 70.8929L52.8028 71.5878L38.3062 69.0419L38.4751 68.347L38.6441 67.6521L53.1407 70.1979L52.9717 70.8929Z" fill="#567F26"/>
<path d="M55.3493 109.762C50.764 104.567 50.8853 96.3838 53.1349 92.2989C53.1603 92.2527 53.1902 92.2087 53.2232 92.1676C55.0459 89.8991 56.1073 90.2013 57.8962 92.049C58.0109 92.1675 58.0941 92.3141 58.1308 92.4749C58.6171 94.6105 57.6919 95.9062 58.0699 98.0746C59.4564 106.03 62.7313 108.669 71.75 114.471C84.7043 120.523 92.7037 119.158 103.964 119.834C104.193 119.848 104.414 119.941 104.578 120.101C107.412 122.88 104.861 123.674 95.614 124.107C80.7278 123.707 66.2905 122.16 55.3493 109.762Z" fill="#8A5029" stroke="#783E21" stroke-linecap="round"/>
<path d="M132.015 87.6046C132.015 98.2139 118.132 106.814 101.008 106.814C83.883 106.814 70.0007 98.2139 70.0007 87.6046C70.0007 76.9954 69.4363 47.5853 101.008 68.395C133.706 52.3873 132.015 76.9954 132.015 87.6046Z" fill="#774023"/>
<ellipse cx="101.015" cy="72.2822" rx="29.9265" ry="17.5317" fill="#92522F"/>
<path d="M98.5544 42.0386C108.116 44.0475 111.297 47.819 113.331 58.7816C113.341 58.8335 113.308 58.8855 113.257 58.8983L81.1607 66.9585C81.086 66.9773 81.0197 66.9061 81.0412 66.8321C83.0425 59.9355 86.0066 57.3136 92.9762 53.8753C98.5117 50.1094 100.627 47.7434 98.4391 42.1762C98.4099 42.1019 98.4762 42.0222 98.5544 42.0386Z" fill="#FEE3BA" stroke="#FEE3BA" stroke-linecap="round" stroke-linejoin="round"/>
<ellipse cx="101.365" cy="67.6259" rx="21.5704" ry="13.1254" fill="#FFE3B3"/>
<path d="M115.089 58.2215L112.843 57.05C112.792 57.0234 112.728 57.0468 112.704 57.0991C109.343 64.4882 104.3 65.7484 94.3815 66.9757C94.2986 66.986 94.2607 67.0847 94.3242 67.139C97.0352 69.4564 106.826 69.4656 110.352 67.6263C113.927 65.7616 114.957 62.1279 115.142 58.3148C115.144 58.2759 115.123 58.2395 115.089 58.2215Z" fill="#FDD090" stroke="#FDD090" stroke-linecap="round" stroke-linejoin="round"/>
<ellipse cx="96.571" cy="50.7496" rx="2.39671" ry="2.50007" fill="#FFC625"/>
<ellipse cx="115.745" cy="69.5006" rx="2.39671" ry="2.50007" fill="#FFC625"/>
<ellipse cx="88.8379" cy="68.2501" rx="2.39671" ry="2.50007" fill="#FFC625"/>
<ellipse cx="137.971" cy="101.321" rx="11.9706" ry="6.67616" fill="#FFC625"/>
<ellipse cx="137.971" cy="99.579" rx="11.9706" ry="6.67616" fill="#FDB81A"/>
<ellipse cx="137.971" cy="96.6762" rx="11.9706" ry="6.67616" fill="#FFC625"/>
</svg>
