<svg width="200" height="200" viewBox="0 0 200 200" fill="none" xmlns="http://www.w3.org/2000/svg">
<path d="M188 108.498C188 145.778 146.586 176 95.5 176C44.4137 176 3 145.778 3 108.498C3 71.2178 44.4137 40.9962 95.5 40.9962C146.586 40.9962 188 71.2178 188 108.498Z" fill="#D4C9D4"/>
<path d="M187 108.498C187 90.2554 176.869 73.6536 160.318 61.5752C143.768 49.4975 120.854 41.9962 95.5 41.9962C70.146 41.9962 47.2322 49.4975 30.6816 61.5752C14.1306 73.6536 4 90.2554 4 108.498C4.00002 126.741 14.1306 143.343 30.6816 155.421C47.2322 167.499 70.146 175 95.5 175V176L94.3047 175.994C44.167 175.531 3.64264 145.958 3.00781 109.37L3 108.498C3 71.2178 44.4137 40.9962 95.5 40.9962C146.586 40.9962 188 71.2178 188 108.498L187.992 109.37C187.352 146.248 146.187 176 95.5 176V175C120.854 175 143.768 167.499 160.318 155.421C176.869 143.343 187 126.741 187 108.498Z" fill="#D4C9D4"/>
<path d="M188 102.877C188 139.812 146.586 169.754 95.5 169.754C44.4137 169.754 3 139.812 3 102.877C3 65.9418 44.4137 36 95.5 36C146.586 36 188 65.9418 188 102.877Z" fill="#FFFBF2"/>
<path d="M187 102.877C187 84.8107 176.873 68.3654 160.321 56.3984C143.771 44.4323 120.856 37 95.5 37C70.1439 37 47.2295 44.4323 30.6787 56.3984C14.1267 68.3654 4 84.8107 4 102.877C4.00002 120.943 14.1267 137.388 30.6787 149.355C47.2295 161.321 70.1439 168.754 95.5 168.754V169.754L94.3047 169.748C44.1671 169.289 3.64285 139.99 3.00781 103.741L3 102.877C3 65.9418 44.4137 36 95.5 36C146.586 36 188 65.9418 188 102.877L187.992 103.741C187.352 140.278 146.187 169.754 95.5 169.754V168.754C120.856 168.754 143.771 161.321 160.321 149.355C176.873 137.388 187 120.943 187 102.877Z" fill="#D4C9D4"/>
<path d="M173.685 97.8738C173.685 127.215 138.927 151 96.0507 151C53.1746 151 18.4167 127.215 18.4167 97.8738C18.4167 68.5328 53.1746 44.7473 96.0507 44.7473C138.927 44.7473 173.685 68.5328 173.685 97.8738Z" fill="#E5E2E3"/>
<path d="M55.3493 109.762C50.764 104.567 50.8853 96.3838 53.1349 92.2989C53.1603 92.2527 53.1902 92.2087 53.2232 92.1676C55.0459 89.8991 56.1073 90.2013 57.8962 92.049C58.0109 92.1675 58.0941 92.3141 58.1308 92.4749C58.6171 94.6105 57.692 95.9062 58.0699 98.0746C59.4564 106.03 62.7313 108.669 71.75 114.471C84.7043 120.523 92.7037 119.158 103.964 119.835C104.193 119.848 104.414 119.941 104.578 120.101C107.412 122.88 104.861 123.674 95.614 124.107C80.7278 123.707 66.2905 122.16 55.3493 109.762Z" fill="#8A5029"/>
<path d="M55.5884 90.0649C56.0708 90.0804 56.5183 90.2692 56.9448 90.5532C57.3688 90.8355 57.7998 91.2311 58.2554 91.7017C58.4287 91.8807 58.5602 92.1072 58.6187 92.3638C58.8838 93.528 58.7604 94.4652 58.6362 95.3335C58.512 96.202 58.3885 96.9933 58.562 97.9888C59.2436 101.9 60.379 104.455 62.4214 106.748C64.4837 109.063 67.4894 111.135 71.9937 114.033C84.8163 120.015 92.666 118.655 103.995 119.335C104.335 119.356 104.673 119.494 104.928 119.745C105.297 120.106 105.596 120.452 105.807 120.785C106.017 121.115 106.162 121.464 106.173 121.823C106.198 122.621 105.589 123.124 104.819 123.445C104.032 123.773 102.876 124.005 101.374 124.185C99.8603 124.366 97.9526 124.498 95.6372 124.606L95.6187 124.607L95.6011 124.606C80.7079 124.207 66.068 122.664 54.9741 110.093C52.5942 107.397 51.4484 103.941 51.1802 100.655C50.9126 97.3754 51.5143 94.2055 52.6968 92.0581C52.7371 91.9848 52.7838 91.9159 52.8335 91.854C53.7522 90.7107 54.6112 90.0336 55.5884 90.0649ZM55.5562 91.0649C55.0998 91.0504 54.5167 91.3561 53.6128 92.481C53.5966 92.5011 53.5832 92.5216 53.5728 92.5405C52.5059 94.478 51.9216 97.4419 52.1772 100.574C52.4323 103.699 53.519 106.932 55.7241 109.431C66.5068 121.649 80.7326 123.206 95.603 123.606C97.9051 123.498 99.7799 123.368 101.254 123.192C102.742 123.014 103.782 122.794 104.434 122.522C105.103 122.243 105.178 121.999 105.173 121.854C105.17 121.741 105.12 121.568 104.963 121.322C104.808 121.078 104.567 120.791 104.228 120.458C104.156 120.388 104.051 120.34 103.934 120.333C92.7512 119.662 84.6054 121.029 71.5386 114.924L71.5083 114.91L71.48 114.891C66.9806 111.997 63.8467 109.852 61.6743 107.414C59.4781 104.948 58.2825 102.205 57.5776 98.1606C57.3732 96.9879 57.5237 96.0471 57.646 95.1919C57.7683 94.3363 57.8643 93.5569 57.6431 92.5854C57.6282 92.5207 57.5925 92.4547 57.5366 92.397C57.0978 91.9438 56.7252 91.6083 56.3901 91.3853C56.0577 91.1639 55.7904 91.0724 55.5562 91.0649Z" fill="#783E21"/>
<path d="M132.015 87.6046C132.015 98.2139 118.132 106.814 101.008 106.814C83.883 106.814 70.0007 98.2139 70.0007 87.6046C70.0007 76.9954 69.4363 47.5853 101.008 68.395C133.706 52.3873 132.015 76.9954 132.015 87.6046Z" fill="#774023"/>
<path d="M130.941 72.2822C130.941 81.9647 117.543 89.814 101.015 89.814C84.4867 89.814 71.0881 81.9647 71.0881 72.2822C71.0881 62.5997 84.4867 54.7505 101.015 54.7505C117.543 54.7505 130.941 62.5997 130.941 72.2822Z" fill="#92522F"/>
<path d="M98.5543 42.0386C108.116 44.0475 111.297 47.819 113.331 58.7816C113.34 58.8335 113.308 58.8855 113.257 58.8983L81.1606 66.9585C81.0859 66.9773 81.0196 66.9061 81.0411 66.8321C83.0424 59.9355 86.0065 57.3136 92.9761 53.8753C98.5116 50.1094 100.627 47.7434 98.439 42.1762C98.4098 42.1019 98.4762 42.0222 98.5543 42.0386Z" fill="#FEE3BA"/>
<path d="M98.5688 41.5371L98.6567 41.5488L99.5444 41.7451C103.892 42.7525 106.94 44.2082 109.142 46.7236C111.479 49.3937 112.802 53.1899 113.823 58.6904C113.879 58.9917 113.696 59.3031 113.379 59.3828L81.2826 67.4434C80.8177 67.5601 80.4365 67.1211 80.561 66.6924C81.5762 63.1941 82.8499 60.7338 84.7846 58.7109C86.7031 56.705 89.2408 55.1623 92.7192 53.4443C95.4829 51.5627 97.2846 50.0951 98.1635 48.4639C99.015 46.8833 99.0377 45.0663 97.974 42.3594C97.8129 41.9494 98.1364 41.5087 98.5688 41.5371ZM99.1576 42.6836C100.029 45.2051 100.002 47.1617 99.0444 48.9385C98.0313 50.8186 96.015 52.4129 93.2572 54.2891C93.2382 54.302 93.2184 54.314 93.1977 54.3242C89.7251 56.0373 87.3069 57.5207 85.5072 59.4023C83.8375 61.1483 82.6715 63.2659 81.7221 66.3008L112.768 58.5049C111.765 53.2502 110.492 49.7847 108.389 47.3818C106.357 45.0602 103.495 43.67 99.1576 42.6836Z" fill="#FEE3BA"/>
<path d="M122.935 67.6257C122.935 74.8746 113.278 80.7511 101.365 80.7511C89.4516 80.7511 79.7942 74.8746 79.7942 67.6257C79.7942 60.3768 89.4516 54.5003 101.365 54.5003C113.278 54.5003 122.935 60.3768 122.935 67.6257Z" fill="#FFE3B3"/>
<path d="M115.089 58.2214L112.843 57.0499C112.792 57.0233 112.728 57.0467 112.704 57.0991C109.343 64.4881 104.3 65.7483 94.3815 66.9756C94.2986 66.9859 94.2607 67.0846 94.3242 67.1389C97.0352 69.4564 106.826 69.4655 110.352 67.6262C113.927 65.7616 114.957 62.1278 115.143 58.3148C115.144 58.2759 115.123 58.2394 115.089 58.2214Z" fill="#FDD090"/>
<path d="M112.954 56.5595L113.074 56.6064L115.32 57.7783C115.527 57.8863 115.653 58.1048 115.642 58.3388C115.455 62.2026 114.403 66.0771 110.583 68.0693C109.631 68.5661 108.295 68.9214 106.817 69.1464C105.33 69.3727 103.662 69.4728 102.023 69.4413C100.385 69.4098 98.7626 69.2461 97.3687 68.9394C95.991 68.6362 94.7725 68.1792 93.9995 67.5185C93.7959 67.3443 93.751 67.0812 93.8276 66.8701C93.9012 66.6676 94.0848 66.5086 94.3198 66.4794C99.288 65.8646 102.95 65.2486 105.787 63.8964C108.586 62.5622 110.61 60.4952 112.25 56.8915L112.311 56.7861C112.454 56.5904 112.709 56.4925 112.954 56.5595ZM112.98 57.6845C111.286 61.2422 109.156 63.3989 106.217 64.7997C103.448 66.1199 99.9847 66.7538 95.5825 67.3251C96.1251 67.5738 96.8002 67.7904 97.5835 67.9628C98.8978 68.2521 100.452 68.4108 102.042 68.4413C103.63 68.4719 105.241 68.374 106.666 68.1572C108.099 67.939 109.31 67.6053 110.121 67.1826C113.376 65.4845 114.411 62.2045 114.626 58.5439L112.98 57.6845Z" fill="#FDD090"/>
<path d="M98.9677 50.7496C98.9677 52.1304 97.8947 53.2497 96.571 53.2497C95.2474 53.2497 94.1743 52.1304 94.1743 50.7496C94.1743 49.3689 95.2474 48.2495 96.571 48.2495C97.8947 48.2495 98.9677 49.3689 98.9677 50.7496Z" fill="#FFC625"/>
<path d="M118.142 69.5006C118.142 70.8813 117.069 72.0007 115.745 72.0007C114.421 72.0007 113.348 70.8813 113.348 69.5006C113.348 68.1198 114.421 67.0005 115.745 67.0005C117.069 67.0005 118.142 68.1198 118.142 69.5006Z" fill="#FFC625"/>
<path d="M91.2346 68.2501C91.2346 69.6308 90.1615 70.7501 88.8379 70.7501C87.5142 70.7501 86.4412 69.6308 86.4412 68.2501C86.4412 66.8693 87.5142 65.75 88.8379 65.75C90.1615 65.75 91.2346 66.8693 91.2346 68.2501Z" fill="#FFC625"/>
<path d="M149.941 101.32C149.941 105.008 144.582 107.997 137.971 107.997C131.359 107.997 126 105.008 126 101.32C126 97.6333 131.359 94.6443 137.971 94.6443C144.582 94.6443 149.941 97.6333 149.941 101.32Z" fill="#FFC625"/>
<path d="M149.941 99.5791C149.941 103.266 144.582 106.255 137.971 106.255C131.359 106.255 126 103.266 126 99.5791C126 95.892 131.359 92.903 137.971 92.903C144.582 92.903 149.941 95.892 149.941 99.5791Z" fill="#FDB81A"/>
<path d="M149.941 96.6762C149.941 100.363 144.582 103.352 137.971 103.352C131.359 103.352 126 100.363 126 96.6762C126 92.989 131.359 90 137.971 90C144.582 90 149.941 92.989 149.941 96.6762Z" fill="#FFC625"/>
<path d="M106.66 86.8348C92.1947 85.9123 85.1845 83.9068 74.8733 77.6427C74.8733 77.6427 82.3421 83.2919 88.2858 85.4275C94.4421 87.6395 106.143 86.8342 106.66 86.8348Z" fill="#B9724B"/>
<path d="M74.8993 77.6003C80.0523 80.7308 84.3784 82.7961 89.2224 84.1942C94.0669 85.5925 99.4323 86.3235 106.663 86.7847L106.66 86.8848C106.597 86.8848 106.36 86.8975 105.977 86.9152C105.595 86.9328 105.071 86.9548 104.438 86.9753C103.172 87.0161 101.467 87.0478 99.5868 87.0102C95.8273 86.9349 91.3556 86.5839 88.2691 85.475C85.2917 84.4052 81.9346 82.4557 79.3237 80.776C78.0179 79.936 76.898 79.1629 76.1045 78.5996C75.7077 78.3179 75.3919 78.089 75.1759 77.9302C75.068 77.8509 74.9855 77.7883 74.9293 77.7464C74.9012 77.7254 74.8789 77.7095 74.8645 77.6987C74.8576 77.6936 74.8527 77.6892 74.8491 77.6865C74.8473 77.6852 74.8457 77.6843 74.8447 77.6836L74.8993 77.6003ZM76.1626 78.518C76.9551 79.0806 78.0732 79.8535 79.3772 80.6925C81.9866 82.3713 85.3367 84.3145 88.303 85.3804C91.3728 86.4833 95.83 86.8355 99.5889 86.9108C101.467 86.9484 103.17 86.9167 104.435 86.8758C104.954 86.8591 105.4 86.8389 105.754 86.8231C98.9718 86.3587 93.8455 85.6325 89.1951 84.2903C84.6456 82.9772 80.5532 81.0766 75.812 78.2643C75.9207 78.3424 76.0369 78.4288 76.1626 78.518Z" fill="#774023"/>
<path d="M44.205 73.285C49.727 74.512 54.245 73.98 54.7347 70.9921C55.2244 68.0043 49.6724 65.2348 45.2676 64.2561C40.8629 63.2774 35.0314 64.0558 34.738 66.549C34.4446 69.0423 38.6831 72.0581 44.205 73.285Z" fill="#639233"/>
<path d="M58.1736 76.4417C58.1376 75.9813 53.5478 73.6019 52.1375 73.0805C50.6304 72.5234 58.3301 68.5339 57.2604 69.2721C56.1906 70.0104 56.2394 74.3381 60.6756 74.9847C61.2098 75.0814 58.7847 76.1362 58.1736 76.4417C58.1761 76.4733 58.1571 76.4958 58.1142 76.5081C57.9845 76.5453 58.0265 76.5152 58.1736 76.4417Z" fill="#639233"/>
<path d="M60.5826 65.8706C57.7201 70.2582 54.1435 72.7775 51.4005 71.0083C48.6575 69.2391 50.3011 63.7572 52.5844 60.2573C54.8678 56.7575 59.558 53.5696 61.7666 55.1196C63.9752 56.6697 63.4452 61.4831 60.5826 65.8706Z" fill="#639233"/>
<path d="M43.9436 65.8706C46.8061 70.2582 50.3828 72.7775 53.1257 71.0083C55.8687 69.2391 54.2251 63.7572 51.9418 60.2573C49.6584 56.7575 44.9682 53.5696 42.7596 55.1196C40.551 56.6697 41.081 61.4831 43.9436 65.8706Z" fill="#639233"/>
<path d="M57.254 68.6913C57.2671 68.6889 57.3662 68.6678 57.4835 68.6981C57.5507 68.7155 57.685 68.7661 57.7794 68.91C57.8793 69.0624 57.8692 69.2176 57.8478 69.3055C57.8141 69.4434 57.7295 69.5297 57.7228 69.537C57.6972 69.5649 57.6718 69.5868 57.6554 69.6004C57.6213 69.6289 57.582 69.6573 57.5441 69.6835C57.4457 69.7513 57.2818 69.9917 57.213 70.4579C57.1483 70.897 57.1844 71.447 57.3751 71.9999C57.7243 73.0118 58.5964 74.0551 60.3781 74.4256L60.7472 74.4901L60.756 74.4911L60.7638 74.493C60.8262 74.5043 60.9913 74.5397 61.1183 74.6854C61.2928 74.8856 61.2639 75.1214 61.2062 75.2577C61.1588 75.3696 61.0842 75.4482 61.0431 75.4881C60.9942 75.5355 60.9399 75.5781 60.8888 75.6151C60.6918 75.7579 60.3872 75.9244 60.0802 76.0809C59.7648 76.2417 59.4149 76.4081 59.1095 76.5516C58.8678 76.6653 58.6601 76.7632 58.5109 76.8348C58.42 76.9265 58.3186 76.9698 58.2511 76.9891C58.2223 76.9974 58.1611 77.0149 58.0997 77.0213C58.0824 77.0232 58.0437 77.0265 57.9962 77.0223C57.9764 77.0206 57.822 77.0104 57.6896 76.8827C57.6067 76.8026 57.5492 76.6914 57.5382 76.5653C57.536 76.5393 57.5358 76.5143 57.5372 76.4911C57.435 76.4138 57.3034 76.3203 57.1417 76.2157C56.7004 75.9301 56.0918 75.5805 55.4328 75.2245C54.1081 74.5088 52.6333 73.7974 51.963 73.5497C51.798 73.4886 51.6027 73.3695 51.5011 73.1424C51.3993 72.9147 51.4436 72.6934 51.504 72.5418C51.6153 72.2629 51.869 71.9972 52.1183 71.7743C52.6478 71.301 53.4694 70.7532 54.2745 70.2635C55.0868 69.7695 55.9129 69.3166 56.4718 69.0321C56.7439 68.8936 56.9747 68.7839 57.1095 68.7333C57.1392 68.7221 57.1944 68.7022 57.254 68.6913ZM56.2267 70.2938C55.79 70.5322 55.2891 70.817 54.7941 71.118C53.9965 71.603 53.2422 72.111 52.7853 72.5194C52.6993 72.5963 52.6327 72.6633 52.5812 72.7186C53.3831 73.048 54.7229 73.7042 55.9083 74.3446C56.5772 74.706 57.2115 75.0696 57.6847 75.3758C57.9197 75.5279 58.1275 75.6731 58.2824 75.8026C58.2908 75.8096 58.2984 75.8178 58.3068 75.8251C58.4227 75.7706 58.5507 75.7089 58.6837 75.6463C58.9579 75.5175 59.2588 75.3733 59.5353 75.2342C57.8115 74.6859 56.8445 73.5278 56.4298 72.326C56.1876 71.6239 56.1354 70.9125 56.2238 70.3124C56.2247 70.3062 56.2258 70.3 56.2267 70.2938Z" fill="#639233"/>
<path d="M58.8504 59.0976C59.0618 58.7414 59.5225 58.6245 59.8787 58.8359C60.2346 59.0473 60.3517 59.5071 60.1404 59.8632L53.2283 71.5126L51.9393 70.747L58.8504 59.0976Z" fill="#567F26"/>
<path d="M46.5774 58.9969C46.3661 58.6406 45.9054 58.5238 45.5491 58.7351C45.1933 58.9466 45.0761 59.4064 45.2874 59.7625L52.1995 71.4119L53.4886 70.6463L46.5774 58.9969Z" fill="#567F26"/>
<path d="M38.6441 67.6521C38.2181 67.5773 37.7973 67.8281 37.704 68.2118C37.6107 68.5956 37.8802 68.9678 38.3063 69.0426L52.8033 71.588L53.1404 70.1981L38.6441 67.6521Z" fill="#567F26"/>
</svg>
