<svg width="112" height="200" viewBox="0 0 112 200" fill="none" xmlns="http://www.w3.org/2000/svg">
<path fill-rule="evenodd" clip-rule="evenodd" d="M8.97768 42.2038C4.65725 38.4825 1.83395 34.0167 0.0119076 28.8029C-1.34802 -11.3837 114.234 -7.7724 111.967 28.8073C110.403 34.2193 107.073 38.8541 102.498 42.6958C80.8115 60.9078 31.1487 61.3002 8.97768 42.2038ZM99.3564 36.0621C98.096 37.6951 96.5951 39.204 94.8908 40.5877C76.4601 55.5514 34.2534 55.8737 15.4112 40.1834C13.8879 38.9149 12.5836 37.5412 11.4682 36.0619C9.895 33.9756 8.69758 31.6794 7.79151 29.1728C6.63577 -3.84607 104.864 -0.878862 102.938 29.1764C102.191 31.6739 100.971 33.9699 99.3564 36.0621Z" fill="#E4E8CD"/>
<path fill-rule="evenodd" clip-rule="evenodd" d="M10.1028 55.1278L19.7178 165.575C29.4739 185.442 83.0791 186.12 91.6838 165.575L101.495 54.0973C89.7457 72.6461 28.1023 73.6766 10.1028 55.1278Z" fill="#DAE4AB"/>
<path fill-rule="evenodd" clip-rule="evenodd" d="M10.1028 55.1278L8.97768 42.2038C31.1487 61.3002 80.8115 60.9078 102.498 42.6958L101.495 54.0973C89.7457 72.6461 28.1023 73.6766 10.1028 55.1278Z" fill="#E8F2BE"/>
<path fill-rule="evenodd" clip-rule="evenodd" d="M11.4682 36.0619C25.3828 9.85866 82.9468 9.65791 99.3564 36.0621C98.096 37.6951 96.5951 39.204 94.8908 40.5877C76.4601 55.5514 34.2534 55.8737 15.4112 40.1834C13.8879 38.9149 12.5836 37.5412 11.4682 36.0619Z" fill="#EBE9BF"/>
<path fill-rule="evenodd" clip-rule="evenodd" d="M11.4682 36.0619C9.895 33.9756 8.69758 31.6794 7.79151 29.1728C6.63577 -3.84607 104.864 -0.878862 102.938 29.1764C102.191 31.6739 100.971 33.9699 99.3564 36.0621C82.9468 9.65791 25.3828 9.85866 11.4682 36.0619Z" fill="#F3EDE5"/>
<path fill-rule="evenodd" clip-rule="evenodd" d="M0.0119076 28.8029C1.83395 34.0167 4.65725 38.4825 8.97768 42.2038L10.1028 55.1278L19.7178 165.575C29.4739 185.442 83.0791 186.12 91.6838 165.575L101.495 54.0973L102.498 42.6958C107.073 38.8541 110.403 34.2193 111.967 28.8073L97.9161 181.836C87.9444 205.537 23.1283 206.567 14.5163 181.836L0.0119076 28.8029Z" fill="#E4E8CD"/>
<path fill-rule="evenodd" clip-rule="evenodd" d="M46.9213 76.361C47.0696 75.2842 47.2091 74.272 47.3031 73.3373C54.5782 71.6833 66.7035 77.7485 68.6438 90.432L68.7501 92.0827L70.0983 113.036C43.3785 102.079 45.5381 86.403 46.9213 76.361Z" fill="#658408" fill-opacity="0.33"/>
<path fill-rule="evenodd" clip-rule="evenodd" d="M70.0986 113.034C91.924 113.034 96.2891 92.634 92.8941 82.7099C83.6789 79.4019 79.3197 80.5664 68.7501 92.0827L70.0986 113.034Z" fill="#8CA224" fill-opacity="0.33"/>
<path fill-rule="evenodd" clip-rule="evenodd" d="M25.2553 157.476C24.3845 157.019 23.566 156.59 22.8007 156.232C23.388 147.825 31.8325 136.222 43.0958 137.564L44.5218 137.899L62.6219 142.148C46.0515 168.374 33.3755 161.731 25.2553 157.476Z" fill="#658408" fill-opacity="0.33"/>
<path fill-rule="evenodd" clip-rule="evenodd" d="M62.6197 142.147C68.5808 118.28 52.5098 107.935 43.1843 108.937C37.868 118.11 37.6629 123.195 44.5218 137.899L62.6197 142.147Z" fill="#8CA224" fill-opacity="0.33"/>
<path d="M78.8428 151.849C78.8428 153.74 77.4938 155.274 75.8297 155.274C74.1656 155.274 72.8166 153.74 72.8166 151.849C72.8166 149.957 74.1656 148.424 75.8297 148.424C77.4938 148.424 78.8428 149.957 78.8428 151.849Z" fill="#EEECEC" fill-opacity="0.54"/>
<path d="M75.8296 166.12C75.8296 168.012 74.4806 169.545 72.8165 169.545C71.1524 169.545 69.8034 168.012 69.8034 166.12C69.8034 164.229 71.1524 162.695 72.8165 162.695C74.4806 162.695 75.8296 164.229 75.8296 166.12Z" fill="#EEECEC" fill-opacity="0.54"/>
<path d="M37.1616 169.545C37.1616 171.437 35.8126 172.971 34.1485 172.971C32.4844 172.971 31.1354 171.437 31.1354 169.545C31.1354 167.654 32.4844 166.12 34.1485 166.12C35.8126 166.12 37.1616 167.654 37.1616 169.545Z" fill="#EEECEC" fill-opacity="0.54"/>
<path d="M29.1267 131.869C29.1267 133.76 27.7777 135.294 26.1136 135.294C24.4495 135.294 23.1005 133.76 23.1005 131.869C23.1005 129.977 24.4495 128.444 26.1136 128.444C27.7777 128.444 29.1267 129.977 29.1267 131.869Z" fill="#EEECEC" fill-opacity="0.54"/>
<path d="M71.8123 131.869C71.8123 133.76 70.4633 135.294 68.7992 135.294C67.1351 135.294 65.7861 133.76 65.7861 131.869C65.7861 129.977 67.1351 128.444 68.7992 128.444C70.4633 128.444 71.8123 129.977 71.8123 131.869Z" fill="#EEECEC" fill-opacity="0.54"/>
<path d="M63.2752 158.699C63.2752 160.591 61.9262 162.124 60.2621 162.124C58.598 162.124 57.249 160.591 57.249 158.699C57.249 156.807 58.598 155.274 60.2621 155.274C61.9262 155.274 63.2752 156.807 63.2752 158.699Z" fill="#EEECEC" fill-opacity="0.54"/>
<path d="M89.8909 135.294C89.8909 137.186 88.5419 138.719 86.8778 138.719C85.2137 138.719 83.8647 137.186 83.8647 135.294C83.8647 133.402 85.2137 131.869 86.8778 131.869C88.5419 131.869 89.8909 133.402 89.8909 135.294Z" fill="#EEECEC" fill-opacity="0.54"/>
<path d="M37.1616 116.455C37.1616 118.347 35.8126 119.881 34.1485 119.881C32.4844 119.881 31.1354 118.347 31.1354 116.455C31.1354 114.564 32.4844 113.03 34.1485 113.03C35.8126 113.03 37.1616 114.564 37.1616 116.455Z" fill="#EEECEC" fill-opacity="0.54"/>
<path d="M49.0366 170.772L63.926 112.768C64.0852 112.148 64.7198 111.815 65.25 112.075C81.7944 120.212 87.4442 132.887 86.931 148.395C86.4145 164.001 71.43 178.039 49.6876 172.015C49.1884 171.876 48.8964 171.318 49.0366 170.772Z" fill="#DAE451"/>
<path d="M50.6613 165.22L62.5379 118.238C62.6956 117.614 63.332 117.277 63.8629 117.544C77.2296 124.256 81.8268 134.603 81.4537 147.222C81.0775 159.945 68.9693 171.344 51.3089 166.455C50.8125 166.318 50.5238 165.764 50.6613 165.22Z" fill="#E9F9A2"/>
<path d="M66.838 120.953C71.464 123.848 76.5086 129.551 76.4544 131.689C76.4449 132.059 76.1179 132.274 75.7913 132.393C73.0053 133.412 59.3393 138.369 59.9601 137.404C60.4887 136.583 63.0934 126.778 64.2893 122.212C64.6098 120.988 65.8431 120.33 66.838 120.953Z" fill="#DAE451"/>
<path d="M63.2568 140.128L75.3017 135.692C76.1574 135.377 77.0902 135.739 77.499 136.589C80.2452 142.3 79.9439 146.238 76.6692 152.3C76.0968 153.359 74.8092 153.63 73.9274 152.915L62.6461 143.765C61.4257 142.775 61.7789 140.672 63.2568 140.128Z" fill="#DAE451"/>
<path d="M55.6409 162.884C62.689 163.519 66.8483 162.534 71.9577 159.093C73.0304 158.371 73.1394 156.754 72.2161 155.878L60.564 144.821C59.4955 143.807 57.7803 144.423 57.4242 145.949L54.0516 160.404C53.7708 161.607 54.5106 162.782 55.6409 162.884Z" fill="#DAE451"/>
<path d="M67.441 129.539C67.83 130.157 68.8362 130.135 69.6884 129.491C70.5406 128.846 70.9161 127.821 70.5271 127.203C70.1381 126.585 69.1319 126.606 68.2797 127.251C67.4275 127.896 67.052 128.92 67.441 129.539Z" fill="#D9ED48"/>
<path d="M73.2782 146.057C73.9265 147.087 75.0048 147.504 75.6866 146.989C76.3683 146.473 76.3954 145.219 75.747 144.188C75.0987 143.158 74.0204 142.74 73.3386 143.256C72.6569 143.772 72.6298 145.026 73.2782 146.057Z" fill="#D9ED48"/>
<path d="M64.8975 157.356C65.4162 158.181 66.3894 158.431 67.0711 157.915C67.7529 157.399 67.8851 156.312 67.3664 155.488C66.8477 154.663 65.8745 154.413 65.1927 154.929C64.511 155.445 64.3788 156.532 64.8975 157.356Z" fill="#D9ED48"/>
<path d="M59.0207 159.6C59.5394 160.425 60.5125 160.675 61.1943 160.159C61.876 159.643 62.0082 158.556 61.4895 157.732C60.9708 156.907 59.9977 156.657 59.3159 157.173C58.6341 157.689 58.502 158.776 59.0207 159.6Z" fill="#D9ED48"/>
<path d="M16.0699 93.8748L20.0459 80.005L33.9621 77.637L40.1747 90.8302L38.4352 103.009L23.2765 105.038L16.0699 93.8748Z" fill="#E4E8CD" fill-opacity="0.48"/>
<path d="M40.691 90.7522L40.6695 90.9007L38.8765 103.454L38.5015 103.504L23.0289 105.575L22.856 105.31L15.5269 93.9553L19.6519 79.5647L34.2525 77.0803L40.691 90.7522ZM16.8951 94.2317L23.524 104.499L37.6929 102.603L32.4302 91.3899L16.8951 94.2317ZM33.23 90.7405L38.1763 101.28L39.6578 90.9065L34.2877 79.5032L33.23 90.7405ZM20.44 80.4446L16.772 93.2376L32.2574 90.4055L33.4029 78.2395L20.44 80.4446Z" fill="#E4E8CD"/>
<path d="M32.1398 147.536L36.1158 133.666L50.032 131.298L56.2446 144.491L54.5051 156.669L39.3464 158.699L32.1398 147.536Z" fill="#E4E8CD" fill-opacity="0.48"/>
<path d="M56.7609 144.413L56.7394 144.562L54.9464 157.115L54.5714 157.165L39.0988 159.236L38.9259 158.971L31.5968 147.616L35.7218 133.226L50.3224 130.741L56.7609 144.413ZM32.965 147.893L39.5939 158.16L53.7628 156.264L48.5001 145.051L32.965 147.893ZM49.2999 144.401L54.2462 154.94L55.7277 144.567L50.3575 133.164L49.2999 144.401ZM36.5099 134.105L32.8419 146.898L48.3273 144.066L49.4728 131.9L36.5099 134.105Z" fill="#E4E8CD"/>
<path d="M68.297 103.009L72.2731 89.1388L86.1892 86.7707L92.4018 99.964L90.6623 112.142L75.5036 114.172L68.297 103.009Z" fill="#E4E8CD" fill-opacity="0.48"/>
<path d="M92.9181 99.886L92.8966 100.034L91.1036 112.588L90.7286 112.638L75.256 114.709L75.0831 114.444L67.754 103.089L71.879 88.6985L86.4796 86.2141L92.9181 99.886ZM69.1222 103.365L75.7511 113.633L89.9201 111.737L84.6574 100.524L69.1222 103.365ZM85.4572 99.8743L90.4035 110.413L91.8849 100.04L86.5148 88.637L85.4572 99.8743ZM72.6671 89.5784L68.9992 102.371L84.4845 99.5393L85.63 87.3733L72.6671 89.5784Z" fill="#E4E8CD"/>
</svg>
