<svg width="200" height="173" viewBox="0 0 200 173" fill="none" xmlns="http://www.w3.org/2000/svg">
<path d="M165.632 82.2413C148.028 113.481 84.8226 127.362 81.039 82.2413C80.035 72.0138 98.6422 54.6669 112.183 53.3814C125.725 52.096 115.45 38.2748 129.11 27.7283C142.207 18.5762 149.047 20.3172 160.931 27.7283C179.603 44.005 183.235 51.0012 165.632 82.2413Z" fill="#FEAA30"/>
<path d="M128.251 26.499C134.918 21.8399 140.234 19.7795 145.543 20.0186C150.797 20.2552 155.768 22.7405 161.725 26.4551L161.827 26.5186L161.917 26.5977C171.191 34.6821 177.243 40.8454 178.371 49.1719C179.489 57.4213 175.718 67.3965 166.938 82.9775C157.85 99.1065 137.157 110.598 118.293 112.37C108.83 113.259 99.6439 111.721 92.5371 106.912C85.3779 102.068 80.5223 94.0336 79.5439 82.3662L79.5449 82.3652C79.257 79.3579 80.4045 76.0334 82.2852 72.8369C84.1898 69.5999 86.946 66.3219 90.1357 63.3594C96.4683 57.478 104.803 52.5748 112.042 51.8877C115.136 51.594 116.565 50.6297 117.394 49.4512C118.319 48.1361 118.696 46.3134 119.123 43.7783C119.956 38.8328 120.865 32.199 128.193 26.541L128.222 26.5195L128.251 26.499ZM145.408 23.0156C141.061 22.8198 136.416 24.4583 130.006 28.9316C123.693 33.8163 122.91 39.3596 122.081 44.2774C121.677 46.6764 121.23 49.2094 119.847 51.1768C118.367 53.2808 116.002 54.526 112.325 54.875C106.023 55.4733 98.2831 59.8873 92.1777 65.5576C89.1489 68.3706 86.5951 71.4266 84.8701 74.3584C83.2348 77.1379 82.4293 79.6593 82.5049 81.6943L82.5322 82.0947L82.5342 82.1162C83.4477 93.009 87.9117 100.161 94.2178 104.428C100.576 108.73 109.001 110.229 118.013 109.383C136.098 107.684 155.81 96.616 164.325 81.5049C173.149 65.8462 176.364 56.703 175.398 49.5752C174.446 42.5463 169.374 37.0856 160.032 28.9356C154.158 25.2801 149.793 23.2131 145.408 23.0156Z" fill="#EA912C"/>
<path d="M161.112 53.0058C166.075 59.3171 149.058 66.8906 151.185 58.0549C153.312 49.2192 156.149 46.6946 161.112 53.0058Z" fill="#E9902B"/>
<path d="M157.424 61.6637C155.697 62.4727 153.773 62.8519 152.369 62.3521C151.642 62.0931 151.052 61.5944 150.74 60.8199C150.436 60.0632 150.42 59.1005 150.699 57.9381C151.235 55.7144 151.82 53.8637 152.483 52.44C153.14 51.0283 153.903 49.971 154.83 49.4205C155.802 48.844 156.873 48.8686 157.994 49.4449C159.086 50.0066 160.248 51.0988 161.505 52.6969C162.187 53.5638 162.507 54.4761 162.523 55.3883C162.538 56.2947 162.253 57.1645 161.785 57.9547C160.856 59.5247 159.17 60.8459 157.424 61.6637ZM152.704 61.4098C153.737 61.7776 155.359 61.5261 157 60.7574C158.622 59.9974 160.126 58.7936 160.925 57.4449C161.321 56.7756 161.535 56.0871 161.524 55.4059C161.512 54.7305 161.278 54.0258 160.719 53.315C159.494 51.7575 158.439 50.7985 157.537 50.3346C156.664 49.8856 155.964 49.9098 155.34 50.2799C154.672 50.6761 154.017 51.5125 153.389 52.8619C152.766 54.1994 152.199 55.9775 151.671 58.1715C151.419 59.2177 151.469 59.9513 151.668 60.4469C151.86 60.9247 152.213 61.2349 152.704 61.4098Z" fill="#EA912C"/>
<path d="M32.2121 49.9663C25.1569 59.5338 25.3692 72.4016 32.2121 83.7663C43.0146 106.438 63.3999 115.75 73.9444 115.208C88.8857 114.44 120.551 95.2172 121.976 83.7663C128.052 72.7234 126.819 65.2688 118.039 55.4712C103.865 23.2427 81.9478 5.59629 67.645 16.9514C53.1483 32.7426 48.4876 41.2886 32.2121 49.9663Z" fill="#FDAA30"/>
<path d="M66.7119 15.7764C70.6151 12.6776 75.0769 11.548 79.7549 12.1602C84.3882 12.7666 89.1566 15.0678 93.8105 18.6826C103.071 25.8754 112.183 38.5031 119.315 54.6504C123.695 59.5746 126.363 64.104 127.062 68.9375C127.763 73.7802 126.449 78.6682 123.423 84.2393C122.896 87.5475 120.378 91.094 117.035 94.459C113.532 97.9848 108.877 101.553 103.834 104.759C98.7854 107.968 93.3034 110.844 88.1221 112.97C82.966 115.085 78.0032 116.501 74.0215 116.706C68.3379 116.998 60.2933 114.656 52.3525 109.446C44.3899 104.222 36.4197 96.0448 30.8945 84.4854C23.8367 72.7236 23.5311 59.2113 31.0049 49.0762L31.2061 48.8027L31.5068 48.6426C47.4839 40.1239 51.8771 31.9088 66.54 15.9365L66.6201 15.8496L66.7119 15.7764ZM79.3652 15.1348C75.5029 14.6293 71.8912 15.5312 68.665 18.0576C54.4889 33.5133 49.5204 42.3591 33.2256 51.124C26.7976 60.0818 26.9662 72.1456 33.4971 82.9922L33.5352 83.0547L33.5664 83.1211C38.8424 94.1939 46.4484 101.985 53.998 106.938C61.5864 111.917 69.0064 113.96 73.8672 113.71C77.3561 113.531 81.9555 112.257 86.9834 110.194C91.9858 108.142 97.3103 105.351 102.224 102.228C107.142 99.1008 111.606 95.6677 114.907 92.3447C118.271 88.9587 120.197 85.9166 120.487 83.5811L120.522 83.2949L120.662 83.043C123.616 77.6748 124.676 73.3888 124.094 69.3662C123.509 65.3212 121.226 61.2761 116.922 56.4727L116.762 56.294L116.666 56.0752C109.64 40.098 100.747 27.8684 91.9707 21.0518C87.5859 17.6459 83.307 15.6506 79.3652 15.1348Z" fill="#EA912C"/>
<path d="M138.762 76.5811C139.917 69.0387 131.757 71.8136 131.049 72.9303C130.34 74.0471 137.607 84.1236 138.762 76.5811Z" fill="#E9902B"/>
<path d="M135.632 71.0088C134.557 70.9495 133.439 71.1825 132.549 71.4971C132.102 71.6551 131.699 71.8389 131.379 72.0254C131.08 72.1994 130.783 72.4145 130.626 72.6621C130.49 72.876 130.49 73.1211 130.509 73.293C130.529 73.4806 130.585 73.684 130.659 73.8877C130.808 74.2979 131.056 74.7851 131.365 75.293C131.985 76.3101 132.893 77.4763 133.869 78.3711C134.357 78.8186 134.876 79.2108 135.398 79.4795C135.916 79.746 136.476 79.9119 137.028 79.8467C137.603 79.7786 138.102 79.4683 138.481 78.9209C138.85 78.3897 139.107 77.6383 139.257 76.6572C139.557 74.6988 139.269 73.297 138.537 72.3633C137.803 71.4271 136.708 71.0682 135.632 71.0088ZM135.576 72.0078C136.484 72.0579 137.256 72.3507 137.75 72.9805C138.246 73.6129 138.545 74.6931 138.268 76.5059C138.129 77.4099 137.907 77.9937 137.659 78.3506C137.423 78.6914 137.169 78.8231 136.911 78.8535C136.631 78.8867 136.277 78.8078 135.855 78.5908C135.438 78.376 134.992 78.0452 134.544 77.6348C133.648 76.8137 132.799 75.723 132.22 74.7725C131.93 74.2966 131.717 73.872 131.6 73.5469C131.54 73.3831 131.512 73.2625 131.503 73.1836C131.502 73.1756 131.503 73.1683 131.503 73.1621C131.521 73.1433 131.546 73.1196 131.579 73.0928C131.652 73.0333 131.754 72.9643 131.882 72.8897C132.139 72.7402 132.482 72.5817 132.882 72.4404C133.685 72.1565 134.668 71.9578 135.576 72.0078Z" fill="#EA912C"/>
<path d="M64.7921 49.6192C65.9473 42.0768 52.2894 43.8335 53.029 48.6914C53.7687 53.5493 63.6369 57.1616 64.7921 49.6192Z" fill="#E9902B"/>
<path d="M59.05 44.0059C57.3908 44.06 55.698 44.5175 54.4504 45.3037C53.2074 46.0872 52.3072 47.274 52.5344 48.7666C52.7425 50.1337 53.583 51.37 54.6896 52.3252C55.7994 53.2832 57.2158 53.9934 58.6525 54.2949C60.0868 54.5959 61.5878 54.4974 62.8244 53.7705C64.0768 53.0343 64.9792 51.6997 65.2863 49.6953C65.6013 47.6386 64.8999 46.1446 63.6349 45.207C62.4063 44.2966 60.7044 43.9519 59.05 44.0059ZM59.0822 45.0049C60.605 44.9552 62.0551 45.2815 63.0392 46.0107C63.9871 46.7133 64.5606 47.8295 64.298 49.544C64.0274 51.3102 63.2631 52.3523 62.3176 52.9082C61.356 53.4734 60.127 53.5828 58.8576 53.3164C57.5904 53.0504 56.3276 52.4183 55.3429 51.5684C54.3552 50.7157 53.6853 49.678 53.5236 48.6162C53.3811 47.6802 53.9104 46.8259 54.9836 46.1494C56.0526 45.4757 57.564 45.0545 59.0822 45.0049Z" fill="#EA912C"/>
<path d="M119.532 90.3293C104.238 62.3776 49.3213 49.9582 46.0339 90.3293C45.1616 99.4802 61.3285 115.001 73.0938 116.151C84.8591 117.301 75.9322 129.668 87.8003 139.104C99.1797 147.293 105.123 145.735 115.449 139.104C131.672 124.541 134.827 118.281 119.532 90.3293Z" fill="#FEAA30"/>
<path d="M86.9238 140.321C92.73 144.499 97.3989 146.378 102.089 146.16C106.432 145.959 110.538 143.963 115.298 140.977L116.259 140.366L116.36 140.301L116.45 140.221C124.508 132.987 129.81 127.437 130.797 119.933C131.773 112.508 128.477 103.55 120.849 89.6094C112.924 75.1261 94.8837 64.8066 78.4248 63.2148C70.1641 62.4159 62.1239 63.7974 55.8965 68.1367C49.6222 72.5088 45.3912 79.7437 44.5391 90.208L44.54 90.209C44.2872 92.9337 45.2962 95.9338 46.9375 98.8066C48.6011 101.718 51.0065 104.664 53.7881 107.324C59.301 112.597 66.5852 117.022 72.9482 117.645C75.5836 117.902 76.763 118.74 77.4473 119.742C78.2296 120.888 78.5553 122.487 78.9277 124.763C79.6508 129.181 80.4444 135.172 86.8672 140.278L86.8945 140.301L86.9238 140.321ZM101.95 143.163C98.2489 143.335 94.2635 141.902 88.7061 137.908C83.2862 133.584 82.6093 128.682 81.8887 124.278C81.5386 122.139 81.1485 119.841 79.9248 118.05C78.6031 116.115 76.4862 114.976 73.2393 114.658C67.8371 114.13 61.1549 110.219 55.8613 105.156C53.2397 102.649 51.032 99.9262 49.542 97.3184C48.1283 94.8439 47.4394 92.6126 47.5039 90.8232L47.5273 90.4717L47.5283 90.4609L47.5293 90.4512C48.3209 80.7301 52.1864 74.3779 57.6113 70.5977C63.0832 66.7848 70.3447 65.4477 78.1357 66.2012C93.7806 67.7142 110.847 77.5814 118.217 91.0498C125.883 105.06 128.656 113.208 127.822 119.542C127.003 125.772 122.645 130.621 114.538 137.905C109.439 141.173 105.692 142.99 101.95 143.163Z" fill="#EA912C"/>
<path d="M26.7717 169C12.0433 164 0 77.0326 0 77.0326H26.7717C54.6601 109.571 141.575 111.204 170.866 77.0326H200C188.623 112.948 182 164.5 170.866 169C159.732 173.5 41.5 174 26.7717 169Z" fill="#F35745"/>
</svg>
