<svg width="200" height="162" viewBox="0 0 200 162" fill="none" xmlns="http://www.w3.org/2000/svg">
<path d="M200 93.0283C200 131.12 155.228 162 100 162C44.7715 162 0 131.12 0 93.0283C0 54.9363 44.7715 24.0566 100 24.0566C155.228 24.0566 200 54.9363 200 93.0283Z" fill="#E8C483"/>
<path d="M200 87.2803C200 125.02 155.228 155.613 100 155.613C44.7715 155.613 0 125.02 0 87.2803C0 49.541 44.7715 18.9472 100 18.9472C155.228 18.9472 200 49.541 200 87.2803Z" fill="#F9DCA6"/>
<path d="M184.524 82.1718C184.524 112.152 146.948 136.455 100.595 136.455C54.2428 136.455 16.6667 112.152 16.6667 82.1718C16.6667 52.1919 54.2428 27.8884 100.595 27.8884C146.948 27.8884 184.524 52.1919 184.524 82.1718Z" fill="#E7C280"/>
<path d="M100.798 19.5943C96.0755 12.7842 92.4904 10.9323 88.4468 11.7628C82.6527 14.4143 79.0016 18.9138 79.7283 27.7672C75.0058 38.3231 73.5527 42.7498 76.0956 56.3704C75.3688 63.8617 74.3878 65.6758 82.9976 79.1849C86.9643 86.745 89.5685 90.1184 95.3485 93.4865C103.364 101.185 109.879 103.021 114.964 103.361C121.866 110.853 125.862 109.15 133.491 109.831C139.184 113.559 158.919 112.555 165.458 110.172C182.531 99.6158 189.796 101.658 190.16 96.8912C191.25 86.3352 174.177 68.2879 153.834 65.9044C142.21 59.094 140.03 44.7924 121.867 39.6847C119.687 39.0718 110.606 25.383 100.798 19.5943Z" fill="#FBD37E"/>
<path d="M101.012 19.5943C96.2896 12.7842 92.7046 10.9323 88.6609 11.7628C82.4095 15.8109 79.3493 18.1341 79.943 26.7452C79.5808 29.4693 79.2176 29.4693 77.7635 31.5124C83.2134 58.413 67.9565 60.7966 91.2041 82.2491C100.779 94.0393 105.008 97.5722 117.359 99.9558C123.416 104.422 127.206 105.495 134.432 105.745C144.603 110.171 163.13 113.576 175.844 104.383C184.264 102.43 187.368 100.746 190.374 96.8912C191.464 86.3352 174.391 68.2879 154.048 65.9044C142.424 59.094 140.244 44.7924 122.081 39.6847C119.902 39.0718 110.82 25.383 101.012 19.5943Z" fill="#FCB565"/>
<path d="M79.163 54.1416C77.6095 50.4034 78.7632 49.3653 82.4323 48.3529L96.9628 74.232C94.2651 76.3767 92.5883 76.4165 89.3343 74.232C86.6085 73.7191 85.8989 72.9524 85.3384 71.1674C80.9665 70.2535 79.6299 68.928 79.5262 65.0381C78.5327 62.5374 78.4666 61.3898 79.5262 59.9304C78.4028 57.1415 78.3272 55.8761 79.163 54.1416Z" fill="#FE906D"/>
<path d="M85.3394 45.6288L99.5066 73.2106C95.1242 74.5766 93.6181 74.3427 92.2414 72.5295C90.2399 72.3951 89.2978 71.9322 88.2455 69.8054C83.4 69.0368 82.8371 67.2156 82.7966 63.3356C81.6407 61.5049 81.614 60.3637 82.7966 58.2279C81.7605 56.3391 81.6608 55.1362 82.0701 52.7797C81.3993 49.5393 82.1939 47.9916 85.3394 45.6288Z" fill="#FFAF96"/>
<path d="M99.4207 73.2113C98.2355 73.6633 97.5177 73.7609 95.4248 71.5087C94.6433 71.6782 94.4071 71.5366 94.6983 70.4872C92.5628 70.968 92.0166 70.8766 92.1555 69.8061C89.8419 70.2905 89.7434 69.4141 91.0657 66.401C86.3012 67.8596 85.0665 67.5673 86.3433 64.3579C83.9721 64.53 84.1384 63.9308 86.3433 61.9743C84.0211 61.9139 83.5278 61.5372 84.8902 59.9313C83.0738 59.8735 83.0892 59.3235 85.2535 57.2072C83.8474 56.9178 83.94 56.4472 85.2535 55.1641C83.9546 54.9121 84.1154 54.6776 85.6168 54.1426C83.4796 53.6664 82.8966 53.289 84.8902 52.0995C83.538 50.7026 83.3363 50.1134 84.8902 49.7159C83.7975 48.6116 84.2224 48.3806 85.6168 48.3538C85.6259 48.3535 85.6348 48.3535 85.6168 48.3538L99.4207 73.2113Z" fill="#FE906D"/>
<path d="M142.339 108.285C146.327 109.741 147.435 108.659 148.515 105.22L120.907 91.5993C118.619 94.1281 118.577 95.6999 120.907 98.7502C121.454 101.305 122.272 101.97 124.176 102.496C125.151 106.594 126.565 107.847 130.715 107.944C133.383 108.875 134.607 108.937 136.164 107.944C139.139 108.997 140.489 109.068 142.339 108.285Z" fill="#FE906D"/>
<path d="M151.421 102.495L121.997 89.2152C120.539 93.3232 120.789 94.735 122.723 96.0255C122.867 97.9017 123.36 98.7848 125.629 99.7712C126.449 104.313 128.392 104.841 132.531 104.879C134.484 105.962 135.702 105.987 137.98 104.879C139.995 105.85 141.278 105.944 143.792 105.56C147.249 106.189 148.9 105.444 151.421 102.495Z" fill="#FFAF96"/>
<path d="M121.996 89.2953C121.514 90.4063 121.41 91.0791 123.812 93.041C123.631 93.7736 123.782 93.995 124.902 93.722C124.389 95.7238 124.487 96.2358 125.629 96.1056C125.112 98.2744 126.047 98.3667 129.261 97.1272C127.705 101.593 128.017 102.751 131.441 101.554C131.257 103.777 131.896 103.621 133.983 101.554C134.048 103.731 134.45 104.193 136.163 102.916C136.225 104.619 136.811 104.604 139.069 102.575C139.378 103.894 139.88 103.807 141.249 102.575C141.517 103.793 141.768 103.642 142.338 102.235C142.846 104.238 143.249 104.785 144.518 102.916C146.008 104.183 146.637 104.373 147.061 102.916C148.239 103.94 148.485 103.542 148.514 102.235C148.514 102.226 148.514 102.218 148.514 102.235L121.996 89.2953Z" fill="#FE906D"/>
<path d="M101.249 20.1189C95.7998 15.3517 89.9883 12.6279 87.0822 12.9682C64.1968 70.8558 139.755 115.463 178.623 100.48C187.044 98.5277 186.252 92.9891 190.973 96.9198C189.158 84.8167 174.991 64.0453 149.199 70.1746C149.199 70.1746 140.118 50.7652 123.044 44.2955C120.935 43.496 111.783 28.6318 101.249 20.1189Z" fill="#FBD37E"/>
<path d="M100.649 30.2571C96.2901 23.788 88.2984 23.7878 86.4819 35.0239C90.8414 43.5378 86.119 48.6455 95.5638 58.1799C114.453 84.3996 137.339 97.3391 156.955 95.6366C164.22 92.5719 160.95 93.934 167.489 95.6366C194.007 96.9986 182.02 71.1195 147.147 75.5462C144.915 71.4267 143.931 69.8497 139.881 68.7359C138.636 65.5237 137.13 63.9219 132.979 61.5851C129.2 53.6198 124.261 51.0291 116.269 45.2404C110.094 34.3439 102.102 39.1111 100.649 30.2571Z" fill="#FBC646"/>
<path d="M127.827 84.8442C127.827 85.8658 127.827 85.8658 127.101 86.5468C126.011 86.5468 126.011 86.5468 125.285 85.8658C125.285 84.8442 125.285 84.8442 126.011 84.1632C127.101 84.1632 127.101 84.1632 127.827 84.8442Z" fill="#F9AB3C"/>
<path d="M131.46 71.5622C131.46 72.5837 131.46 72.5837 130.734 73.2648C129.644 73.2648 129.644 73.2648 128.917 72.5837C128.917 71.5622 128.917 71.5622 129.644 70.8812C130.734 70.8812 130.734 70.8812 131.46 71.5622Z" fill="#F9AB3C"/>
<path d="M145.427 84.1632C145.427 85.1848 145.427 85.1847 144.7 85.8658C143.61 85.8658 143.61 85.8658 142.884 85.1848C142.884 84.1632 142.884 84.1632 143.61 83.4822C144.7 83.4822 144.7 83.4822 145.427 84.1632Z" fill="#F9AB3C"/>
<path d="M136.546 60.976C136.546 61.9975 136.546 61.9975 135.819 62.6786C134.729 62.6786 134.729 62.6786 134.003 61.9975C134.003 60.976 134.003 60.976 134.729 60.295C135.819 60.295 135.819 60.295 136.546 60.976Z" fill="#F9AB3C"/>
<path d="M157.979 85.5253C157.979 86.5468 157.979 86.5468 157.253 87.2278C156.163 87.2278 156.163 87.2278 155.436 86.5468C155.436 85.5253 155.436 85.5253 156.163 84.8442C157.253 84.8442 157.253 84.8442 157.979 85.5253Z" fill="#F9AB3C"/>
<path d="M166.473 88.5899C166.473 89.6114 166.473 89.6114 165.746 90.2924C164.657 90.2924 164.657 90.2924 163.93 89.6114C163.93 88.5899 163.93 88.5899 164.657 87.9089C165.746 87.9089 165.746 87.9088 166.473 88.5899Z" fill="#F9AB3C"/>
<path d="M172.872 93.5254C172.872 94.547 172.872 94.547 172.145 95.228C171.056 95.228 171.056 95.228 170.329 94.547C170.329 93.5254 170.329 93.5254 171.056 92.8444C172.145 92.8444 172.145 92.8444 172.872 93.5254Z" fill="#F9AB3C"/>
<path d="M161.611 100.476C161.611 101.498 161.611 101.498 160.884 102.179C159.794 102.179 159.794 102.179 159.068 101.498C159.068 100.476 159.068 100.476 159.794 99.7953C160.884 99.7953 160.884 99.7953 161.611 100.476Z" fill="#F9AB3C"/>
<path d="M97.2128 56.5495C97.2128 57.5711 97.2128 57.5711 96.4863 58.2521C95.3965 58.2521 95.3965 58.2521 94.67 57.5711C94.67 56.5495 94.67 56.5495 95.3965 55.8685C96.4863 55.8685 96.4863 55.8685 97.2128 56.5495Z" fill="#F9AB3C"/>
<path d="M118.244 72.2432C118.244 73.2648 118.244 73.2648 117.517 73.9458C116.428 73.9458 116.428 73.9458 115.701 73.2648C115.701 72.2432 115.701 72.2432 116.428 71.5622C117.517 71.5622 117.517 71.5622 118.244 72.2432Z" fill="#F9AB3C"/>
<path d="M114.248 61.9975C114.248 63.0191 114.248 63.0191 113.521 63.7001C112.432 63.7001 112.432 63.7001 111.705 63.0191C111.705 61.9975 111.705 61.9975 112.432 61.3165C113.521 61.3165 113.521 61.3165 114.248 61.9975Z" fill="#F9AB3C"/>
<path d="M146.053 71.5622C146.053 72.5837 146.053 72.5838 145.326 73.2648C144.236 73.2648 144.236 73.2648 143.51 72.5838C143.51 71.5622 143.51 71.5622 144.236 70.8812C145.326 70.8812 145.326 70.8812 146.053 71.5622Z" fill="#F9AB3C"/>
<path d="M141.995 96.0798C141.995 97.1013 141.995 97.1013 141.268 97.7823C140.178 97.7823 140.178 97.7823 139.452 97.1013C139.452 96.0798 139.452 96.0798 140.178 95.3988C141.268 95.3988 141.268 95.3987 141.995 96.0798Z" fill="#F9AB3C"/>
<path d="M171.524 77.111C171.524 78.1326 171.524 78.1326 170.797 78.8136C169.707 78.8136 169.707 78.8136 168.981 78.1326C168.981 77.111 168.981 77.111 169.707 76.43C170.797 76.43 170.797 76.43 171.524 77.111Z" fill="#F9AB3C"/>
<path d="M179.774 83.8227C179.774 84.8442 179.774 84.8442 179.047 85.5253C177.958 85.5253 177.957 85.5253 177.231 84.8442C177.231 83.8227 177.231 83.8227 177.958 83.1417C179.047 83.1417 179.047 83.1417 179.774 83.8227Z" fill="#F9AB3C"/>
<path d="M183.77 92.5039C183.77 93.5254 183.77 93.5254 183.043 94.2064C181.953 94.2064 181.953 94.2064 181.227 93.5254C181.227 92.5039 181.227 92.5039 181.953 91.8228C183.043 91.8228 183.043 91.8228 183.77 92.5039Z" fill="#F9AB3C"/>
<path d="M107.346 48.8882C107.346 49.9097 107.346 49.9097 106.619 50.5907C105.529 50.5907 105.529 50.5907 104.803 49.9097C104.803 48.8882 104.803 48.8882 105.529 48.2071C106.619 48.2071 106.619 48.2071 107.346 48.8882Z" fill="#F9AB3C"/>
<path d="M119.146 48.2071C119.146 49.2287 119.146 49.2287 118.42 49.9097C117.33 49.9097 117.33 49.9097 116.604 49.2287C116.604 48.2071 116.604 48.2071 117.33 47.5261C118.42 47.5261 118.42 47.5261 119.146 48.2071Z" fill="#F9AB3C"/>
<path d="M101.448 45.004C101.448 46.0255 101.448 46.0255 100.722 46.7065C99.632 46.7065 99.632 46.7065 98.9055 46.0255C98.9055 45.004 98.9055 45.004 99.632 44.3229C100.722 44.3229 100.722 44.3229 101.448 45.004Z" fill="#F9AB3C"/>
<path d="M92.2279 41.5988C92.2279 42.6204 92.2279 42.6204 91.5014 43.3014C90.4116 43.3014 90.4116 43.3014 89.6851 42.6204C89.6851 41.5988 89.6851 41.5988 90.4116 40.9178C91.5014 40.9178 91.5014 40.9178 92.2279 41.5988Z" fill="#F9AB3C"/>
<path d="M91.1382 25.5942C91.1382 26.6157 91.1383 26.6157 90.4117 27.2968C89.3219 27.2968 89.3219 27.2968 88.5954 26.6157C88.5954 25.5942 88.5954 25.5942 89.3219 24.9132C90.4117 24.9132 90.4117 24.9132 91.1382 25.5942Z" fill="#F9AB3C"/>
<path d="M106.256 32.7445C106.256 33.766 106.256 33.766 105.529 34.4471C104.44 34.4471 104.44 34.4471 103.713 33.766C103.713 32.7445 103.713 32.7445 104.44 32.0635C105.529 32.0635 105.529 32.0635 106.256 32.7445Z" fill="#F9AB3C"/>
<path d="M100.359 32.9063C100.359 33.9279 100.359 33.9279 99.632 34.6089C98.5423 34.6089 98.5423 34.6089 97.8157 33.9279C97.8157 32.9063 97.8157 32.9063 98.5423 32.2253C99.632 32.2253 99.632 32.2253 100.359 32.9063Z" fill="#F9AB3C"/>
<path d="M100.258 25.5942C100.258 26.6157 100.258 26.6157 99.5315 27.2968C98.4417 27.2968 98.4417 27.2968 97.7152 26.6157C97.7152 25.5942 97.7152 25.5942 98.4417 24.9132C99.5315 24.9132 99.5315 24.9132 100.258 25.5942Z" fill="#F9AB3C"/>
<path d="M91.138 17.7622C91.138 18.7837 91.1381 18.7837 90.4115 19.4647C89.3217 19.4647 89.3217 19.4647 88.5952 18.7837C88.5952 17.7622 88.5952 17.7622 89.3217 17.0811C90.4115 17.0811 90.4115 17.0811 91.138 17.7622Z" fill="#F9AB3C"/>
<path d="M163.427 75.7876C163.427 76.8092 163.427 76.8092 162.701 77.4902C161.611 77.4902 161.611 77.4902 160.884 76.8092C160.884 75.7876 160.884 75.7876 161.611 75.1066C162.701 75.1066 162.701 75.1066 163.427 75.7876Z" fill="#F9AB3C"/>
<path d="M167.234 103.8C167.351 103.26 167.884 102.919 168.424 103.036C168.963 103.154 169.305 103.686 169.188 104.226C169.148 104.406 169.166 104.634 169.279 104.966C169.398 105.314 169.578 105.664 169.803 106.122C170.188 106.907 170.819 108.179 170.238 109.512C170.018 110.018 169.428 110.25 168.922 110.029C168.416 109.809 168.185 109.219 168.405 108.713C168.566 108.345 168.455 107.917 168.007 107.003C167.815 106.612 167.557 106.112 167.386 105.61C167.21 105.092 167.088 104.47 167.234 103.8ZM165.925 103.015C166.476 102.979 166.951 103.398 166.987 103.949C167.029 104.616 167.003 105.19 166.855 105.784C166.71 106.365 166.462 106.914 166.133 107.538C166.047 107.702 165.921 107.831 165.774 107.922C166.159 108.159 166.345 108.637 166.197 109.085C166.025 109.609 165.459 109.894 164.935 109.722C163.673 109.306 162.674 108.837 161.803 108.101C160.938 107.37 160.265 106.431 159.563 105.184C159.292 104.702 159.462 104.092 159.944 103.821C160.425 103.551 161.034 103.721 161.305 104.202C161.956 105.359 162.491 106.065 163.094 106.574C163.43 106.858 163.81 107.097 164.279 107.32C164.22 107.089 164.243 106.835 164.363 106.606C164.666 106.032 164.826 105.65 164.913 105.301C164.997 104.964 165.024 104.608 164.99 104.077C164.955 103.526 165.374 103.05 165.925 103.015ZM171.654 102.993C171.654 102.441 172.102 101.993 172.654 101.993C173.207 101.993 173.654 102.441 173.654 102.993C173.654 103.638 173.973 104.036 174.5 104.81C174.74 105.162 175.031 105.619 175.182 106.173C175.342 106.761 175.329 107.397 175.076 108.094C174.888 108.613 174.314 108.881 173.795 108.692C173.276 108.504 173.008 107.93 173.196 107.411C173.314 107.088 173.3 106.874 173.252 106.698C173.195 106.487 173.07 106.264 172.847 105.935C172.448 105.35 171.654 104.388 171.654 102.993ZM176.469 106.732C176.469 106.38 176.283 106.043 175.864 105.323C175.496 104.689 174.988 103.799 174.987 102.653C174.987 102.101 175.435 101.654 175.987 101.653C176.54 101.653 176.987 102.101 176.987 102.653C176.988 103.207 177.221 103.677 177.593 104.318C177.915 104.873 178.469 105.725 178.469 106.732C178.469 107.285 178.021 107.732 177.469 107.732C176.917 107.732 176.469 107.285 176.469 106.732ZM151.132 102.083C151.635 101.855 152.228 102.076 152.456 102.579C152.974 103.718 153.41 104.309 153.893 104.672C154.371 105.031 155.01 105.251 156.123 105.401C156.671 105.475 157.054 105.979 156.981 106.526C156.907 107.073 156.404 107.457 155.857 107.384C154.617 107.217 153.576 106.934 152.693 106.271C151.814 105.612 151.205 104.662 150.635 103.407C150.406 102.904 150.629 102.311 151.132 102.083ZM179.062 105.033C179.062 104.878 179.02 104.698 178.915 104.452C178.8 104.181 178.665 103.946 178.476 103.574C178.13 102.893 177.711 101.945 177.974 100.74C178.092 100.201 178.624 99.8591 179.163 99.9765C179.567 100.064 179.86 100.385 179.933 100.767C179.995 100.731 180.063 100.701 180.135 100.679C180.662 100.515 181.223 100.809 181.387 101.336L182.127 103.716C182.291 104.243 181.997 104.804 181.47 104.968C181.333 105.01 181.194 105.021 181.061 105.006C181.061 105.015 181.062 105.024 181.062 105.033C181.062 105.585 180.614 106.033 180.062 106.033C179.51 106.033 179.062 105.585 179.062 105.033ZM182.762 97.7997C183.19 97.4503 183.82 97.5136 184.169 97.9413C184.583 98.4485 184.793 99.0417 184.91 99.5849C185.027 100.127 185.065 100.686 185.088 101.159C185.113 101.668 185.122 102.042 185.166 102.355C185.192 102.541 185.222 102.622 185.23 102.644C185.59 103.022 185.6 103.62 185.242 104.01C184.869 104.416 184.236 104.444 183.829 104.07C183.364 103.643 183.24 103.024 183.186 102.633C183.125 102.202 183.111 101.684 183.09 101.258C183.067 100.796 183.035 100.377 182.955 100.006C182.876 99.6355 182.761 99.3786 182.62 99.206C182.271 98.7784 182.335 98.1491 182.762 97.7997ZM185.369 97.0605C185.454 96.5149 185.965 96.1408 186.511 96.2255C187.057 96.3104 187.431 96.8224 187.346 97.3681C187.183 98.4129 187.263 99.5613 187.474 100.528C187.579 101.009 187.71 101.424 187.848 101.741C187.995 102.082 188.113 102.228 188.145 102.257C188.551 102.63 188.579 103.263 188.205 103.67C187.832 104.077 187.199 104.103 186.792 103.729C186.453 103.418 186.201 102.969 186.013 102.535C185.815 102.077 185.645 101.536 185.519 100.954C185.267 99.7964 185.162 98.3951 185.369 97.0605ZM118.054 90.5878C118.522 90.2943 119.139 90.4354 119.433 90.9033C119.726 91.3711 119.585 91.9886 119.117 92.2822C118.23 92.8389 117.97 93.173 117.889 93.3779C117.823 93.5433 117.801 93.8056 118.047 94.4999C118.232 95.0204 117.959 95.5916 117.439 95.7763C116.918 95.9608 116.346 95.6885 116.161 95.1679C115.88 94.3753 115.682 93.5125 116.03 92.6376C116.363 91.8022 117.109 91.1808 118.054 90.5878ZM108.378 84.6611C108.552 84.1369 109.118 83.8526 109.642 84.0263C110.166 84.2001 110.45 84.7658 110.277 85.29C109.65 87.1787 109.433 88.6393 109.492 89.6835C109.552 90.7356 109.878 91.2162 110.172 91.4189C110.465 91.6206 111.006 91.7385 111.933 91.4355C112.853 91.1346 114.012 90.4558 115.343 89.3154C115.762 88.9562 116.394 89.0054 116.753 89.4247C117.112 89.8441 117.063 90.4747 116.644 90.8339C115.197 92.0731 113.811 92.9249 112.555 93.3359C111.306 93.7445 110.041 93.7559 109.038 93.0654C108.037 92.3757 107.574 91.1774 107.495 89.7968C107.416 88.4084 107.708 86.6815 108.378 84.6611ZM103.837 79.1386C104.244 78.7657 104.877 78.7938 105.25 79.2011C105.623 79.6085 105.595 80.2412 105.188 80.6142C103.705 81.9715 102.859 83.0259 102.377 84.1347C101.898 85.2357 101.735 86.4913 101.809 88.3349C101.831 88.8867 101.402 89.3517 100.85 89.374C100.298 89.3961 99.8329 88.9668 99.8107 88.415C99.7309 86.427 99.8942 84.8292 100.543 83.3368C101.189 81.8522 102.271 80.5724 103.837 79.1386ZM97.7678 73.5234C98.0845 73.0709 98.7089 72.9615 99.1613 73.2783C99.6134 73.5951 99.7231 74.2186 99.4064 74.6708C98.3552 76.1724 97.3971 77.3875 96.0656 78.3915C94.7316 79.3974 93.0874 80.1445 90.7209 80.8359C90.1909 80.9907 89.6347 80.6871 89.4797 80.1572C89.3248 79.6271 89.6293 79.0709 90.1594 78.916C92.3994 78.2616 93.7923 77.6011 94.8615 76.7949C95.933 75.9869 96.7444 74.9851 97.7678 73.5234ZM75.5265 44.206C77.1132 44.047 78.4247 44.0231 79.7844 44.2421C81.1403 44.4606 82.4922 44.912 84.173 45.6435C84.6794 45.8639 84.911 46.4535 84.6906 46.9599C84.4702 47.4661 83.8815 47.6977 83.3752 47.4775C81.7733 46.7803 80.5922 46.3982 79.466 46.2167C78.3435 46.0359 77.2222 46.0463 75.7258 46.1962C75.1764 46.251 74.6861 45.8501 74.631 45.3007C74.576 44.7513 74.9771 44.2612 75.5265 44.206ZM82.3058 37.8076C82.8216 37.6104 83.3996 37.8689 83.5969 38.3847C83.7941 38.9005 83.5355 39.4784 83.0197 39.6757L79.3429 41.082L83.0373 42.5742C83.5494 42.781 83.7969 43.3638 83.59 43.8759C83.3831 44.3879 82.8003 44.6355 82.2883 44.4286L73.0304 40.6894C72.5184 40.4826 72.271 39.8997 72.4777 39.3876C72.6845 38.8756 73.2665 38.6283 73.7785 38.8349L77.2404 40.2333C77.3088 39.9133 77.5331 39.6334 77.8615 39.5078L82.3058 37.8076ZM80.9474 18.9804C81.8572 18.8237 82.8223 18.914 83.9015 19.0527C84.4492 19.1231 84.8362 19.6241 84.7658 20.1718C84.6954 20.7195 84.1944 21.1064 83.6467 21.0361C83.4431 21.0099 83.2531 20.9889 83.0754 20.9697C82.0819 21.6439 80.9465 23.0266 80.214 24.3867C79.8354 25.0898 79.613 25.6993 79.551 26.1201C79.5336 26.2379 79.5307 26.3161 79.5324 26.3652C79.6734 26.4636 79.7829 26.5935 79.8556 26.7411C79.9291 26.1533 80.0524 25.5472 80.2111 24.9042C80.3435 24.3681 80.8849 24.0405 81.4211 24.1728C81.9573 24.3052 82.2849 24.8475 82.1525 25.3837C81.9671 26.135 81.8499 26.763 81.8039 27.3261C82.2871 27.3691 82.7678 27.468 83.2336 27.5634C83.7746 27.6743 84.1237 28.203 84.0129 28.7441C83.902 29.2851 83.3732 29.6333 82.8322 29.5224C82.5145 29.4573 82.2483 29.4091 82.0197 29.372C82.2601 30.1259 82.707 30.9647 83.4767 32.041C83.7978 32.4902 83.6935 33.1152 83.2443 33.4365C83.1017 33.5384 82.9412 33.5964 82.7785 33.6152L83.0803 33.7538C83.582 33.9843 83.8018 34.5782 83.5715 35.08C83.486 35.2659 83.3506 35.4127 83.1887 35.5126C83.6436 35.7937 83.7993 36.3862 83.5334 36.8554C83.2611 37.3358 82.6506 37.5045 82.1701 37.2324C80.7107 36.4055 79.6264 36.0241 78.5314 35.9433C77.4224 35.8615 76.2011 36.0799 74.4474 36.6357C73.921 36.8025 73.3584 36.5108 73.1916 35.9843C73.0248 35.4579 73.3166 34.8964 73.8429 34.7294C75.6821 34.1465 77.1916 33.8384 78.6789 33.9482C78.6916 33.9491 78.7043 33.9501 78.717 33.9511L77.8019 33.5312C77.3002 33.3009 77.0797 32.7078 77.3097 32.206C77.5401 31.7041 78.134 31.4835 78.6359 31.7138L81.8342 33.1816C80.973 31.9744 80.3915 30.9163 80.0734 29.8525C79.9603 29.9561 79.8381 30.0789 79.7072 30.2265C79.3408 30.6395 78.7092 30.6777 78.2961 30.3115C77.8829 29.945 77.8447 29.3125 78.2111 28.8994C78.4561 28.6231 78.7033 28.3864 78.9523 28.1826C78.8071 28.1816 78.6599 28.1499 78.5207 28.082C77.5133 27.5898 77.4734 26.4998 77.5724 25.8281C77.6827 25.0807 78.0223 24.2369 78.4523 23.4384C78.7112 22.9577 79.0207 22.4611 79.3654 21.9775C78.9724 22.1523 78.4961 22.0587 78.2013 21.7158C77.8414 21.2969 77.889 20.6656 78.3078 20.3056C79.1661 19.5678 79.9894 19.1455 80.9474 18.9804Z" fill="#FAEADA"/>
<path d="M134.568 101.684C134.374 101.008 133.815 100.789 133.493 100.869C133.171 100.95 132.805 101.402 132.998 102.079C133.192 102.755 133.75 102.974 134.072 102.894L134.347 103.855L134.165 103.89C133.312 104.003 132.445 103.429 132.096 102.522L132.028 102.322C131.717 101.232 132.25 100.151 133.218 99.9079L133.401 99.8731C134.315 99.7521 135.245 100.419 135.538 101.441L135.586 101.645C135.78 102.663 135.255 103.627 134.347 103.855L134.072 102.894C134.394 102.813 134.761 102.361 134.568 101.684ZM154.246 95.7547C154.052 95.0781 153.493 94.8589 153.171 94.9397C152.849 95.0206 152.483 95.4724 152.676 96.1488C152.869 96.8253 153.428 97.0448 153.75 96.9641L154.025 97.9256L153.843 97.9602C152.99 98.0734 152.122 97.5 151.772 96.5922L151.706 96.3925C151.395 95.3026 151.927 94.2216 152.896 93.9782C153.865 93.7348 154.904 94.4212 155.215 95.5111L155.264 95.7153C155.458 96.733 154.933 97.6974 154.025 97.9256L153.75 96.9641C154.071 96.8832 154.439 96.4313 154.246 95.7547ZM166.472 77.8479C166.278 77.1712 165.72 76.9519 165.398 77.0327C165.076 77.1136 164.71 77.5653 164.903 78.2419C165.097 78.9184 165.655 79.1378 165.977 79.0571L166.252 80.0186L166.07 80.0532C165.217 80.1664 164.349 79.593 164 78.6852L163.933 78.4855C163.622 77.3956 164.154 76.3146 165.123 76.0712C166.092 75.8278 167.13 76.5144 167.442 77.6043L167.491 77.8083C167.685 78.826 167.16 79.7904 166.252 80.0186L165.977 79.0571C166.299 78.9763 166.665 78.5246 166.472 77.8479ZM146.554 75.9046C146.361 75.2281 145.802 75.0088 145.48 75.0896C145.158 75.1707 144.792 75.6225 144.985 76.2988C145.178 76.9752 145.737 77.1946 146.058 77.114L146.333 78.0755L146.151 78.1101C145.238 78.2313 144.307 77.5642 144.015 76.5424C143.704 75.4527 144.236 74.3717 145.205 74.1281C146.174 73.8848 147.213 74.5712 147.524 75.661L147.572 75.8653C147.767 76.883 147.242 77.8474 146.333 78.0755L146.058 77.114C146.38 77.0332 146.748 76.5813 146.554 75.9046ZM124.92 76.3147C124.727 75.6381 124.168 75.4187 123.846 75.4995C123.525 75.5803 123.158 76.032 123.352 76.7087C123.545 77.3852 124.103 77.6047 124.425 77.5239L124.7 78.4854L124.518 78.52C123.665 78.6333 122.797 78.0598 122.448 77.152L122.382 76.9523C122.07 75.8624 122.603 74.7814 123.572 74.538L123.754 74.5034C124.667 74.382 125.598 75.0492 125.89 76.0711L125.939 76.2751C126.134 77.2927 125.608 78.2572 124.7 78.4854L124.425 77.5239C124.747 77.4431 125.113 76.9913 124.92 76.3147ZM97.2123 78.7283C97.0189 78.0517 96.4595 77.8325 96.1378 77.9134C95.8161 77.9944 95.4495 78.4461 95.6429 79.1225C95.8362 79.7989 96.3946 80.0183 96.7165 79.9377L96.9913 80.8992L96.8093 80.9339C95.9567 81.047 95.0896 80.4733 94.7402 79.5656L94.673 79.3661C94.3615 78.2763 94.8942 77.1954 95.8629 76.9519C96.8319 76.7085 97.8706 77.3948 98.1822 78.4847L98.2304 78.689C98.425 79.7066 97.8996 80.6711 96.9913 80.8992L96.7165 79.9377C97.0382 79.8569 97.4057 79.405 97.2123 78.7283ZM133.051 64.227C132.857 63.5506 132.299 63.3312 131.977 63.4118C131.655 63.4926 131.288 63.9445 131.481 64.6212C131.675 65.2978 132.234 65.517 132.556 65.4361L132.831 66.3976L132.648 66.4325C131.734 66.5535 130.803 65.8865 130.511 64.8648C130.2 63.7749 130.733 62.6936 131.702 62.4503L131.884 62.4156C132.798 62.2945 133.728 62.9616 134.021 63.9834L134.069 64.1876C134.263 65.2052 133.739 66.1693 132.831 66.3976L132.556 65.4361C132.877 65.3551 133.244 64.9034 133.051 64.227ZM107.121 68.8227C106.927 68.1463 106.368 67.9278 106.047 68.0086C105.725 68.0896 105.358 68.5406 105.551 69.2168C105.745 69.8933 106.303 70.1127 106.625 70.0321L106.9 70.9936C105.991 71.2215 105.023 70.6326 104.649 69.66L104.582 69.4605C104.27 68.3708 104.803 67.2906 105.772 67.0471L105.955 67.0123C106.868 66.8914 107.799 67.5576 108.091 68.5791L108.139 68.7833C108.334 69.8011 107.808 70.7654 106.9 70.9936L106.625 70.0321C106.947 69.9512 107.314 69.4993 107.121 68.8227ZM114.022 56.2244C113.829 55.548 113.271 55.3293 112.949 55.4102C112.627 55.491 112.261 55.942 112.454 56.6184C112.647 57.295 113.206 57.5144 113.527 57.4336L113.802 58.3951C112.894 58.6232 111.924 58.0344 111.55 57.0617L111.484 56.862C111.173 55.7722 111.705 54.6921 112.674 54.4487L112.856 54.4131C113.77 54.2916 114.7 54.959 114.992 55.9808C115.304 57.0708 114.771 58.1517 113.802 58.3951L113.527 57.4336C113.849 57.3528 114.216 56.9011 114.022 56.2244ZM118.746 51.1172C118.552 50.4408 117.993 50.2224 117.671 50.3032C117.35 50.3842 116.983 50.8351 117.176 51.5114C117.37 52.188 117.928 52.4073 118.25 52.3267L118.525 53.2881C117.616 53.5162 116.647 52.9274 116.273 51.9548L116.206 51.755C115.895 50.6653 116.428 49.5852 117.397 49.3417L117.579 49.3059C118.493 49.185 119.423 49.8521 119.716 50.8736L119.764 51.0779C119.959 52.0957 119.433 53.06 118.525 53.2881L118.25 52.3267C118.572 52.2458 118.939 51.7939 118.746 51.1172ZM91.9269 48.7034C91.7336 48.0271 91.1752 47.8077 90.8534 47.8882C90.5316 47.969 90.1641 48.421 90.3575 49.0976C90.5509 49.7743 91.1103 49.9934 91.432 49.9126L91.7069 50.8741L91.524 50.909C90.6105 51.03 89.6797 50.363 89.3876 49.3412C89.0761 48.2513 89.6096 47.1701 90.5785 46.9267L90.7605 46.8921C91.674 46.771 92.6047 47.4381 92.8968 48.4598L92.945 48.6641C93.1396 49.6816 92.615 50.6458 91.7069 50.8741L91.432 49.9126C91.7537 49.8315 92.1203 49.3798 91.9269 48.7034ZM99.5312 35.655C99.3377 34.9783 98.7784 34.7592 98.4566 34.84C98.1349 34.921 97.7684 35.3727 97.9617 36.0492C98.1552 36.7256 98.7135 36.9451 99.0353 36.8644L99.3101 37.8259L99.1282 37.8605C98.2755 37.9737 97.4075 37.4002 97.0581 36.4925L96.9919 36.2928C96.6803 35.2029 97.213 34.122 98.1818 33.8785C99.1507 33.6352 100.189 34.3215 100.501 35.4114L100.549 35.6156C100.744 36.6333 100.218 37.5978 99.3101 37.8259L99.0353 36.8644C99.3571 36.7836 99.7245 36.3316 99.5312 35.655ZM89.6087 22.6874C89.4152 22.0107 88.8559 21.7916 88.5341 21.8724C88.2125 21.9535 87.8459 22.4052 88.0392 23.0816C88.2326 23.7578 88.791 23.9773 89.1128 23.8968L89.3876 24.8583L89.2057 24.8929C88.3531 25.006 87.486 24.4322 87.1365 23.5247L87.0694 23.3252C86.7579 22.2354 87.2906 21.1545 88.2593 20.9109C89.2282 20.6676 90.267 21.3539 90.5785 22.4438L90.6268 22.648C90.8212 23.6656 90.2959 24.6302 89.3876 24.8583L89.1128 23.8968C89.4345 23.816 89.8019 23.3639 89.6087 22.6874Z" fill="#5FB121"/>
<path d="M52.9256 47.5163C48.2032 40.7062 44.6181 38.8543 40.5745 39.6848C34.7804 42.3363 31.1293 46.8358 31.8559 55.6892C27.1334 66.2451 25.6804 70.6718 28.2233 84.2924C27.4965 91.7837 26.5154 93.5979 35.1253 107.107C39.0919 114.667 41.6962 118.04 47.4761 121.409C55.4917 129.107 62.0062 130.943 67.0919 131.283C73.9939 138.775 77.9897 137.072 85.6182 137.753C91.3118 141.481 111.046 140.477 117.585 138.094C134.658 127.538 141.924 129.58 142.288 124.813C143.377 114.257 126.304 96.2099 105.962 93.8264C94.3373 87.016 92.1577 72.7144 73.9947 67.6067C71.8151 66.9938 62.7336 53.305 52.9256 47.5163Z" fill="#FBD37E"/>
<path d="M53.1397 47.5164C48.4173 40.7062 44.8322 38.8543 40.7886 39.6848C34.5372 43.7329 31.4769 46.0561 32.0707 54.6672C31.7085 57.3913 31.3452 57.3913 29.8911 59.4344C35.3411 86.3351 20.0842 88.7187 43.3318 110.171C52.9066 121.961 57.1356 125.494 69.4865 127.878C75.5441 132.344 79.3339 133.417 86.5598 133.667C96.731 138.093 115.257 141.498 127.971 132.305C136.392 130.352 139.496 128.668 142.502 124.813C143.592 114.257 126.518 96.2099 106.176 93.8264C94.5514 87.016 92.3718 72.7144 74.2088 67.6067C72.0292 66.9938 62.9477 53.305 53.1397 47.5164Z" fill="#FCB565"/>
<path d="M31.2906 82.0637C29.7371 78.3254 30.8908 77.2873 34.56 76.2749L49.0904 102.154C46.3927 104.299 44.7159 104.338 41.4619 102.154C38.7362 101.641 38.0266 100.874 37.4661 99.0894C33.0942 98.1755 31.7576 96.85 31.6539 92.9601C30.6604 90.4594 30.5943 89.3118 31.6539 87.8524C30.5305 85.0635 30.4549 83.7981 31.2906 82.0637Z" fill="#FE906D"/>
<path d="M37.4671 73.5509L51.6343 101.133C47.2518 102.499 45.7457 102.265 44.3691 100.452C42.3675 100.317 41.4254 99.8542 40.3732 97.7274C35.5277 96.9588 34.9647 95.1376 34.9243 91.2576C33.7684 89.4269 33.7416 88.2857 34.9243 86.1499C33.8881 84.2611 33.7885 83.0582 34.1978 80.7017C33.527 77.4613 34.3216 75.9136 37.4671 73.5509Z" fill="#FFAF96"/>
<path d="M51.5483 101.133C50.3632 101.585 49.6454 101.683 47.5525 99.4307C46.7709 99.6002 46.5347 99.4586 46.826 98.4092C44.6904 98.89 44.1443 98.7986 44.2831 97.7282C41.9695 98.2125 41.8711 97.3361 43.1933 94.323C38.4289 95.7816 37.1941 95.4893 38.4709 92.28C36.0998 92.452 36.2661 91.8528 38.4709 89.8964C36.1488 89.8359 35.6555 89.4592 37.0179 87.8533C35.2015 87.7955 35.2168 87.2455 37.3812 85.1292C35.975 84.8399 36.0677 84.3692 37.3812 83.0861C36.0822 82.8341 36.243 82.5997 37.7444 82.0646C35.6073 81.5884 35.0243 81.211 37.0179 80.0215C35.6657 78.6246 35.4639 78.0354 37.0179 77.6379C35.9251 76.5336 36.3501 76.3026 37.7444 76.2759C37.7536 76.2755 37.7624 76.2755 37.7444 76.2759L51.5483 101.133Z" fill="#FE906D"/>
<path d="M94.4671 136.207C98.455 137.663 99.5625 136.581 100.643 133.142L73.0347 119.521C70.7467 122.05 70.7043 123.622 73.0347 126.672C73.5818 129.227 74.3997 129.892 76.304 130.418C77.279 134.516 78.693 135.769 82.8427 135.866C85.5105 136.797 86.7348 136.859 88.2916 135.866C91.2668 136.919 92.6167 136.99 94.4671 136.207Z" fill="#FE906D"/>
<path d="M103.549 130.417L74.1244 117.137C72.6671 121.245 72.9166 122.657 74.8509 123.948C74.9943 125.824 75.4881 126.707 77.757 127.693C78.5769 132.235 80.5198 132.763 84.6589 132.801C86.612 133.884 87.8294 133.909 90.1078 132.801C92.1229 133.772 93.4061 133.866 95.92 133.482C99.3769 134.111 101.028 133.366 103.549 130.417Z" fill="#FFAF96"/>
<path d="M74.1236 117.217C73.6413 118.328 73.5373 119.001 75.9399 120.963C75.7591 121.696 75.9101 121.917 77.0297 121.644C76.5167 123.646 76.6142 124.158 77.7562 124.028C77.2395 126.196 78.1744 126.289 81.3888 125.049C79.8328 129.515 80.1446 130.673 83.5683 129.476C83.3848 131.699 84.024 131.543 86.1111 129.476C86.1756 131.653 86.5775 132.115 88.2907 130.838C88.3523 132.541 88.9391 132.526 91.1968 130.497C91.5054 131.816 92.0075 131.729 93.3763 130.497C93.6451 131.715 93.8952 131.564 94.4661 130.157C94.9741 132.16 95.3767 132.707 96.6456 130.838C98.1358 132.105 98.7644 132.295 99.1884 130.838C100.367 131.862 100.613 131.464 100.641 130.157C100.642 130.148 100.642 130.14 100.641 130.157L74.1236 117.217Z" fill="#FE906D"/>
<path d="M53.3763 48.0409C47.9274 43.2737 42.1159 40.5499 39.2099 40.8902C16.3245 98.7778 91.8828 143.385 130.751 128.402C139.171 126.45 138.379 120.911 143.101 124.842C141.286 112.739 127.118 91.9673 101.327 98.0966C101.327 98.0966 92.2452 78.6873 75.172 72.2175C73.0623 71.418 63.9109 56.5538 53.3763 48.0409Z" fill="#FBD37E"/>
<path d="M52.7769 58.1791C48.4178 51.71 40.426 51.7099 38.6096 62.9459C42.9691 71.4598 38.2467 76.5675 47.6915 86.102C66.581 112.322 89.4665 125.261 109.082 123.559C116.347 120.494 113.078 121.856 119.617 123.559C146.135 124.921 134.147 99.0415 99.2743 103.468C97.0426 99.3487 96.059 97.7717 92.0091 96.6579C90.7639 93.4458 89.2573 91.8439 85.1071 89.5071C81.328 81.5418 76.3889 78.9511 68.3971 73.1624C62.2217 62.2659 54.2299 67.0331 52.7769 58.1791Z" fill="#FBC646"/>
<path d="M79.9551 112.766C79.9551 113.788 79.9551 113.788 79.2286 114.469C78.1388 114.469 78.1388 114.469 77.4123 113.788C77.4123 112.766 77.4123 112.766 78.1388 112.085C79.2286 112.085 79.2286 112.085 79.9551 112.766Z" fill="#F9AB3C"/>
<path d="M83.5878 99.4842C83.5878 100.506 83.5878 100.506 82.8612 101.187C81.7714 101.187 81.7714 101.187 81.0449 100.506C81.0449 99.4842 81.0449 99.4842 81.7714 98.8032C82.8612 98.8032 82.8612 98.8032 83.5878 99.4842Z" fill="#F9AB3C"/>
<path d="M97.5544 112.085C97.5544 113.107 97.5544 113.107 96.8278 113.788C95.7381 113.788 95.7381 113.788 95.0115 113.107C95.0115 112.085 95.0115 112.085 95.7381 111.404C96.8279 111.404 96.8278 111.404 97.5544 112.085Z" fill="#F9AB3C"/>
<path d="M88.6733 88.898C88.6733 89.9195 88.6733 89.9195 87.9468 90.6006C86.857 90.6006 86.857 90.6006 86.1305 89.9195C86.1305 88.898 86.1305 88.898 86.857 88.217C87.9468 88.217 87.9468 88.217 88.6733 88.898Z" fill="#F9AB3C"/>
<path d="M110.107 113.447C110.107 114.469 110.107 114.469 109.38 115.15C108.29 115.15 108.29 115.15 107.564 114.469C107.564 113.447 107.564 113.447 108.29 112.766C109.38 112.766 109.38 112.766 110.107 113.447Z" fill="#F9AB3C"/>
<path d="M118.601 116.512C118.601 117.533 118.601 117.533 117.874 118.214C116.784 118.214 116.784 118.214 116.058 117.533C116.058 116.512 116.058 116.512 116.784 115.831C117.874 115.831 117.874 115.831 118.601 116.512Z" fill="#F9AB3C"/>
<path d="M125 121.447C125 122.469 125 122.469 124.273 123.15C123.183 123.15 123.183 123.15 122.457 122.469C122.457 121.447 122.457 121.447 123.183 120.766C124.273 120.766 124.273 120.766 125 121.447Z" fill="#F9AB3C"/>
<path d="M113.738 128.398C113.738 129.42 113.738 129.42 113.012 130.101C111.922 130.101 111.922 130.101 111.196 129.42C111.196 128.398 111.196 128.398 111.922 127.717C113.012 127.717 113.012 127.717 113.738 128.398Z" fill="#F9AB3C"/>
<path d="M49.3405 84.4715C49.3405 85.4931 49.3405 85.4931 48.6139 86.1741C47.5242 86.1741 47.5242 86.1741 46.7976 85.4931C46.7976 84.4715 46.7976 84.4715 47.5242 83.7905C48.6139 83.7905 48.6139 83.7905 49.3405 84.4715Z" fill="#F9AB3C"/>
<path d="M70.3717 100.165C70.3717 101.187 70.3717 101.187 69.6451 101.868C68.5554 101.868 68.5554 101.868 67.8288 101.187C67.8288 100.165 67.8288 100.165 68.5554 99.4842C69.6451 99.4842 69.6451 99.4842 70.3717 100.165Z" fill="#F9AB3C"/>
<path d="M66.3757 89.9195C66.3757 90.9411 66.3757 90.9411 65.6491 91.6221C64.5594 91.6221 64.5593 91.6221 63.8328 90.9411C63.8328 89.9195 63.8328 89.9195 64.5594 89.2385C65.6491 89.2385 65.6491 89.2385 66.3757 89.9195Z" fill="#F9AB3C"/>
<path d="M98.1804 99.4842C98.1804 100.506 98.1804 100.506 97.4538 101.187C96.3641 101.187 96.3641 101.187 95.6375 100.506C95.6375 99.4842 95.6375 99.4842 96.3641 98.8032C97.4538 98.8032 97.4538 98.8032 98.1804 99.4842Z" fill="#F9AB3C"/>
<path d="M94.1223 124.002C94.1223 125.023 94.1223 125.023 93.3958 125.704C92.306 125.704 92.306 125.704 91.5795 125.023C91.5795 124.002 91.5795 124.002 92.306 123.321C93.3958 123.321 93.3958 123.321 94.1223 124.002Z" fill="#F9AB3C"/>
<path d="M123.651 105.033C123.651 106.055 123.651 106.055 122.925 106.736C121.835 106.736 121.835 106.736 121.109 106.055C121.109 105.033 121.109 105.033 121.835 104.352C122.925 104.352 122.925 104.352 123.651 105.033Z" fill="#F9AB3C"/>
<path d="M131.901 111.745C131.901 112.766 131.901 112.766 131.175 113.447C130.085 113.447 130.085 113.447 129.359 112.766C129.359 111.745 129.359 111.745 130.085 111.064C131.175 111.064 131.175 111.064 131.901 111.745Z" fill="#F9AB3C"/>
<path d="M135.897 120.426C135.897 121.447 135.897 121.447 135.171 122.128C134.081 122.128 134.081 122.128 133.355 121.447C133.355 120.426 133.355 120.426 134.081 119.745C135.171 119.745 135.171 119.745 135.897 120.426Z" fill="#F9AB3C"/>
<path d="M59.4734 76.8102C59.4734 77.8317 59.4734 77.8317 58.7469 78.5128C57.6571 78.5128 57.6571 78.5128 56.9306 77.8317C56.9306 76.8102 56.9306 76.8102 57.6571 76.1292C58.7469 76.1292 58.7469 76.1292 59.4734 76.8102Z" fill="#F9AB3C"/>
<path d="M71.274 76.1292C71.274 77.1507 71.274 77.1507 70.5475 77.8317C69.4577 77.8317 69.4577 77.8317 68.7312 77.1507C68.7312 76.1292 68.7312 76.1292 69.4577 75.4481C70.5475 75.4481 70.5475 75.4481 71.274 76.1292Z" fill="#F9AB3C"/>
<path d="M53.576 72.926C53.576 73.9475 53.576 73.9475 52.8495 74.6285C51.7597 74.6285 51.7597 74.6285 51.0332 73.9475C51.0332 72.926 51.0332 72.926 51.7597 72.245C52.8495 72.245 52.8495 72.2449 53.576 72.926Z" fill="#F9AB3C"/>
<path d="M44.3556 69.5208C44.3556 70.5424 44.3556 70.5424 43.629 71.2234C42.5392 71.2234 42.5393 71.2234 41.8127 70.5424C41.8127 69.5208 41.8127 69.5208 42.5393 68.8398C43.629 68.8398 43.629 68.8398 44.3556 69.5208Z" fill="#F9AB3C"/>
<path d="M43.2659 53.5162C43.2659 54.5378 43.2659 54.5378 42.5394 55.2188C41.4496 55.2188 41.4496 55.2188 40.7231 54.5378C40.7231 53.5162 40.7231 53.5162 41.4496 52.8352C42.5394 52.8352 42.5394 52.8352 43.2659 53.5162Z" fill="#F9AB3C"/>
<path d="M58.3836 60.6665C58.3836 61.688 58.3836 61.688 57.6571 62.3691C56.5673 62.3691 56.5673 62.3691 55.8408 61.688C55.8408 60.6665 55.8408 60.6665 56.5673 59.9855C57.6571 59.9855 57.6571 59.9855 58.3836 60.6665Z" fill="#F9AB3C"/>
<path d="M52.4862 60.8284C52.4862 61.8499 52.4862 61.8499 51.7597 62.5309C50.6699 62.5309 50.6699 62.5309 49.9434 61.8499C49.9434 60.8284 49.9434 60.8284 50.6699 60.1473C51.7597 60.1473 51.7597 60.1473 52.4862 60.8284Z" fill="#F9AB3C"/>
<path d="M52.3857 53.5162C52.3857 54.5378 52.3857 54.5378 51.6592 55.2188C50.5694 55.2188 50.5694 55.2188 49.8429 54.5378C49.8429 53.5162 49.8429 53.5162 50.5694 52.8352C51.6592 52.8352 51.6592 52.8352 52.3857 53.5162Z" fill="#F9AB3C"/>
<path d="M43.2657 45.6842C43.2657 46.7057 43.2657 46.7057 42.5392 47.3868C41.4494 47.3868 41.4494 47.3868 40.7229 46.7057C40.7229 45.6842 40.7229 45.6842 41.4494 45.0032C42.5392 45.0032 42.5392 45.0032 43.2657 45.6842Z" fill="#F9AB3C"/>
<path d="M115.555 103.71C115.555 104.731 115.555 104.731 114.828 105.412C113.738 105.412 113.738 105.412 113.012 104.731C113.012 103.71 113.012 103.71 113.738 103.029C114.828 103.029 114.828 103.029 115.555 103.71Z" fill="#F9AB3C"/>
<path d="M119.361 131.722C119.479 131.182 120.012 130.841 120.552 130.958C121.091 131.076 121.433 131.608 121.315 132.148C121.276 132.328 121.294 132.556 121.407 132.888C121.526 133.236 121.706 133.586 121.931 134.044C122.315 134.829 122.947 136.101 122.366 137.434C122.146 137.94 121.556 138.172 121.05 137.951C120.544 137.731 120.313 137.141 120.533 136.635C120.693 136.267 120.583 135.839 120.135 134.925C119.943 134.534 119.684 134.034 119.514 133.532C119.337 133.014 119.215 132.392 119.361 131.722ZM118.053 130.937C118.604 130.901 119.079 131.32 119.114 131.871C119.157 132.538 119.13 133.112 118.982 133.706C118.838 134.287 118.589 134.836 118.261 135.46C118.174 135.624 118.048 135.753 117.901 135.844C118.286 136.081 118.473 136.559 118.325 137.007C118.152 137.531 117.587 137.817 117.062 137.644C115.801 137.228 114.801 136.759 113.931 136.024C113.065 135.292 112.393 134.353 111.69 133.106C111.419 132.624 111.59 132.014 112.071 131.743C112.552 131.473 113.162 131.643 113.433 132.124C114.084 133.281 114.618 133.987 115.222 134.496C115.558 134.78 115.938 135.019 116.407 135.242C116.348 135.011 116.371 134.757 116.491 134.528C116.794 133.954 116.954 133.572 117.041 133.223C117.125 132.886 117.152 132.53 117.118 131.999C117.083 131.448 117.501 130.972 118.053 130.937ZM123.782 130.915C123.782 130.363 124.23 129.915 124.782 129.915C125.334 129.915 125.782 130.363 125.782 130.915C125.782 131.56 126.101 131.958 126.628 132.732C126.867 133.084 127.159 133.541 127.309 134.095C127.47 134.683 127.457 135.319 127.204 136.016C127.016 136.535 126.442 136.803 125.923 136.614C125.404 136.426 125.136 135.852 125.324 135.333C125.441 135.01 125.428 134.796 125.38 134.62C125.322 134.409 125.198 134.186 124.975 133.857C124.576 133.272 123.782 132.31 123.782 130.915ZM128.597 134.654C128.596 134.302 128.41 133.965 127.992 133.245C127.624 132.611 127.115 131.721 127.115 130.575C127.115 130.023 127.563 129.576 128.115 129.575C128.667 129.575 129.115 130.023 129.115 130.575C129.115 131.129 129.348 131.6 129.721 132.24C130.043 132.795 130.596 133.647 130.597 134.654C130.597 135.207 130.149 135.654 129.597 135.654C129.044 135.654 128.597 135.207 128.597 134.654ZM103.26 130.005C103.762 129.777 104.355 129.998 104.584 130.501C105.101 131.64 105.538 132.232 106.02 132.594C106.499 132.953 107.137 133.173 108.251 133.323C108.798 133.397 109.182 133.901 109.108 134.448C109.035 134.995 108.531 135.379 107.984 135.306C106.744 135.139 105.703 134.856 104.82 134.193C103.941 133.534 103.333 132.584 102.763 131.329C102.534 130.826 102.757 130.233 103.26 130.005ZM131.189 132.955C131.189 132.8 131.147 132.62 131.043 132.374C130.928 132.103 130.792 131.868 130.603 131.496C130.257 130.815 129.839 129.867 130.101 128.662C130.219 128.123 130.752 127.781 131.291 127.899C131.695 127.986 131.988 128.307 132.06 128.689C132.123 128.653 132.191 128.623 132.263 128.601C132.79 128.437 133.35 128.731 133.515 129.258L134.255 131.638C134.419 132.165 134.125 132.726 133.598 132.89C133.461 132.932 133.322 132.943 133.188 132.928C133.188 132.937 133.189 132.946 133.189 132.955C133.189 133.507 132.742 133.955 132.189 133.955C131.637 133.955 131.19 133.507 131.189 132.955ZM134.89 125.722C135.317 125.372 135.947 125.436 136.297 125.863C136.711 126.371 136.921 126.964 137.038 127.507C137.155 128.049 137.192 128.608 137.216 129.081C137.241 129.59 137.25 129.964 137.294 130.277C137.32 130.463 137.349 130.544 137.357 130.566C137.717 130.944 137.728 131.542 137.37 131.932C136.997 132.338 136.364 132.366 135.957 131.992C135.492 131.565 135.368 130.946 135.313 130.555C135.253 130.124 135.239 129.606 135.218 129.18C135.195 128.718 135.163 128.299 135.083 127.928C135.003 127.558 134.889 127.301 134.748 127.128C134.399 126.7 134.462 126.071 134.89 125.722ZM137.497 124.982C137.582 124.437 138.093 124.063 138.639 124.148C139.184 124.232 139.558 124.744 139.474 125.29C139.311 126.335 139.391 127.483 139.601 128.45C139.706 128.931 139.838 129.346 139.975 129.663C140.123 130.004 140.241 130.15 140.272 130.179C140.679 130.552 140.706 131.185 140.333 131.592C139.959 131.999 139.327 132.025 138.92 131.651C138.581 131.34 138.328 130.891 138.141 130.457C137.942 129.999 137.773 129.458 137.646 128.876C137.394 127.718 137.289 126.317 137.497 124.982ZM70.1815 118.51C70.6494 118.216 71.267 118.357 71.5605 118.825C71.8539 119.293 71.7128 119.911 71.245 120.204C70.3576 120.761 70.0981 121.095 70.0165 121.3C69.9507 121.465 69.9286 121.728 70.1747 122.422C70.3592 122.942 70.0866 123.514 69.5663 123.698C69.0458 123.883 68.4735 123.61 68.289 123.09C68.0081 122.297 67.8098 121.435 68.1581 120.56C68.4908 119.724 69.2364 119.103 70.1815 118.51ZM60.5058 112.583C60.6796 112.059 61.2453 111.775 61.7694 111.948C62.2936 112.122 62.5778 112.688 62.4042 113.212C61.778 115.101 61.5604 116.561 61.62 117.606C61.6801 118.658 62.0053 119.138 62.2997 119.341C62.5929 119.543 63.134 119.661 64.0605 119.357C64.9802 119.057 66.1395 118.378 67.4706 117.237C67.89 116.878 68.5215 116.927 68.8808 117.347C69.2396 117.766 69.1906 118.397 68.7714 118.756C67.3251 119.995 65.9385 120.847 64.6825 121.258C63.4335 121.667 62.1689 121.678 61.1659 120.987C60.1642 120.298 59.7018 119.099 59.623 117.719C59.5438 116.33 59.8359 114.604 60.5058 112.583ZM55.9648 107.061C56.3721 106.688 57.0049 106.716 57.3778 107.123C57.7508 107.53 57.7227 108.163 57.3153 108.536C55.8329 109.893 54.987 110.948 54.5048 112.057C54.0261 113.158 53.8624 114.413 53.9364 116.257C53.9586 116.809 53.5292 117.274 52.9774 117.296C52.4256 117.318 51.9605 116.889 51.9384 116.337C51.8586 114.349 52.0218 112.751 52.6708 111.259C53.3165 109.774 54.3987 108.494 55.9648 107.061ZM49.8954 101.445C50.2122 100.993 50.8365 100.884 51.289 101.2C51.741 101.517 51.8507 102.141 51.5341 102.593C50.4829 104.094 49.5247 105.309 48.1933 106.314C46.8593 107.319 45.2151 108.067 42.8485 108.758C42.3185 108.913 41.7623 108.609 41.6073 108.079C41.4525 107.549 41.757 106.993 42.287 106.838C44.5271 106.184 45.9199 105.523 46.9892 104.717C48.0606 103.909 48.8721 102.907 49.8954 101.445ZM27.6542 72.128C29.2408 71.969 30.5524 71.9451 31.912 72.1641C33.268 72.3826 34.6198 72.834 36.3007 73.5655C36.8071 73.7859 37.0387 74.3755 36.8183 74.8819C36.5978 75.3882 36.0092 75.6197 35.5028 75.3995C33.901 74.7023 32.7199 74.3202 31.5937 74.1388C30.4712 73.9579 29.3499 73.9683 27.8534 74.1182C27.3041 74.173 26.8137 73.7721 26.7587 73.2227C26.7036 72.6733 27.1048 72.1832 27.6542 72.128ZM34.4335 65.7296C34.9493 65.5324 35.5272 65.791 35.7245 66.3067C35.9218 66.8225 35.6632 67.4004 35.1474 67.5977L31.4706 69.004L35.1649 70.4962C35.677 70.703 35.9245 71.2858 35.7177 71.7979C35.5108 72.3099 34.9279 72.5575 34.4159 72.3507L25.1581 68.6114C24.6461 68.4046 24.3987 67.8217 24.6054 67.3097C24.8122 66.7976 25.3941 66.5503 25.9062 66.7569L29.3681 68.1554C29.4365 67.8353 29.6608 67.5554 29.9892 67.4298L34.4335 65.7296ZM33.0751 46.9024C33.9848 46.7457 34.9499 46.836 36.0292 46.9747C36.5769 47.0452 36.9638 47.5461 36.8935 48.0938C36.8231 48.6415 36.322 49.0284 35.7743 48.9581C35.5708 48.9319 35.3807 48.9109 35.203 48.8917C34.2095 49.5659 33.0742 50.9486 32.3417 52.3087C31.9631 53.0118 31.7407 53.6214 31.6786 54.0421C31.6612 54.1599 31.6583 54.2381 31.6601 54.2872C31.801 54.3856 31.9106 54.5155 31.9833 54.6632C32.0568 54.0753 32.18 53.4692 32.3388 52.8263C32.4711 52.2901 33.0126 51.9625 33.5487 52.0948C34.0849 52.2272 34.4125 52.7696 34.2802 53.3057C34.0947 54.057 33.9776 54.685 33.9315 55.2481C34.4148 55.2911 34.8954 55.39 35.3612 55.4854C35.9023 55.5963 36.2514 56.1251 36.1405 56.6661C36.0296 57.2071 35.5009 57.5553 34.9599 57.4444C34.6422 57.3793 34.3759 57.3311 34.1474 57.294C34.3877 58.0479 34.8347 58.8867 35.6044 59.963C35.9255 60.4122 35.8211 61.0373 35.372 61.3585C35.2293 61.4604 35.0688 61.5184 34.9062 61.5372L35.2079 61.6759C35.7097 61.9063 35.9295 62.5002 35.6991 63.002C35.6137 63.1879 35.4783 63.3347 35.3163 63.4347C35.7712 63.7158 35.9269 64.3082 35.661 64.7774C35.3888 65.2579 34.7782 65.4265 34.2978 65.1544C32.8384 64.3275 31.7541 63.9461 30.6591 63.8653C29.55 63.7835 28.3288 64.0019 26.5751 64.5577C26.0486 64.7246 25.4861 64.4328 25.3192 63.9063C25.1525 63.38 25.4443 62.8184 25.9706 62.6514C27.8098 62.0685 29.3193 61.7605 30.8065 61.8702C30.8193 61.8711 30.8319 61.8721 30.8446 61.8731L29.9296 61.4532C29.4278 61.2229 29.2074 60.6298 29.4374 60.128C29.6678 59.6261 30.2617 59.4055 30.7636 59.6358L33.9618 61.1036C33.1006 59.8964 32.5192 58.8383 32.2011 57.7745C32.088 57.8781 31.9658 58.0009 31.8349 58.1485C31.4684 58.5615 30.8369 58.5997 30.4237 58.2335C30.0106 57.867 29.9724 57.2345 30.3388 56.8214C30.5838 56.5452 30.831 56.3084 31.08 56.1046C30.9348 56.1036 30.7875 56.072 30.6483 56.004C29.641 55.5118 29.601 54.4218 29.7001 53.7501C29.8104 53.0027 30.15 52.1589 30.58 51.3604C30.8389 50.8797 31.1484 50.3832 31.4931 49.8995C31.1001 50.0743 30.6238 49.9807 30.329 49.6378C29.969 49.219 30.0167 48.5876 30.4355 48.2276C31.2938 47.4899 32.117 47.0676 33.0751 46.9024Z" fill="#FAEADA"/>
<path d="M86.6953 129.606C86.5019 128.93 85.9426 128.711 85.6208 128.791C85.2991 128.872 84.9325 129.324 85.1259 130.001C85.3193 130.677 85.8777 130.896 86.1995 130.816L86.4743 131.777L86.2923 131.812C85.4398 131.925 84.5727 131.351 84.2232 130.444L84.156 130.244C83.8445 129.154 84.3772 128.073 85.346 127.83L85.5289 127.795C86.4423 127.674 87.3731 128.341 87.6652 129.363L87.7134 129.567C87.9079 130.585 87.3826 131.549 86.4743 131.777L86.1995 130.816C86.5212 130.735 86.8886 130.283 86.6953 129.606ZM106.373 123.677C106.18 123 105.62 122.781 105.299 122.862C104.977 122.943 104.61 123.394 104.804 124.071C104.997 124.747 105.555 124.967 105.877 124.886L106.152 125.848L105.97 125.882C105.117 125.995 104.249 125.422 103.9 124.514L103.834 124.314C103.522 123.225 104.055 122.144 105.024 121.9C105.993 121.657 107.031 122.343 107.343 123.433L107.391 123.637C107.586 124.655 107.061 125.619 106.152 125.848L105.877 124.886C106.199 124.805 106.567 124.353 106.373 123.677ZM118.599 105.77C118.406 105.093 117.848 104.874 117.526 104.955C117.204 105.036 116.837 105.487 117.031 106.164C117.224 106.84 117.783 107.06 118.104 106.979L118.379 107.941L118.197 107.975C117.345 108.088 116.477 107.515 116.127 106.607L116.061 106.407C115.749 105.318 116.282 104.237 117.251 103.993C118.22 103.75 119.258 104.436 119.569 105.526L119.618 105.73C119.813 106.748 119.288 107.712 118.379 107.941L118.104 106.979C118.426 106.898 118.793 106.447 118.599 105.77ZM98.682 103.827C98.4885 103.15 97.9292 102.931 97.6075 103.012C97.2858 103.093 96.9193 103.544 97.1126 104.221C97.3059 104.897 97.8643 105.117 98.1861 105.036L98.461 105.998L98.279 106.032C97.3654 106.153 96.4348 105.486 96.1427 104.464C95.8313 103.375 96.364 102.294 97.3326 102.05C98.3015 101.807 99.3403 102.493 99.6519 103.583L99.7001 103.787C99.8947 104.805 99.3694 105.769 98.461 105.998L98.1861 105.036C98.5079 104.955 98.8754 104.503 98.682 103.827ZM77.0477 104.237C76.8543 103.56 76.2959 103.341 75.9741 103.422C75.6524 103.502 75.2858 103.954 75.4792 104.631C75.6727 105.307 76.231 105.527 76.5528 105.446L76.8276 106.407L76.6457 106.442C75.793 106.555 74.925 105.982 74.5756 105.074L74.5094 104.874C74.1978 103.784 74.7303 102.703 75.6993 102.46L75.8813 102.425C76.7949 102.304 77.7255 102.971 78.0176 103.993L78.0668 104.197C78.2612 105.215 77.7359 106.179 76.8276 106.407L76.5528 105.446C76.8745 105.365 77.241 104.913 77.0477 104.237ZM49.34 106.65C49.1465 105.974 48.5872 105.755 48.2654 105.835C47.9437 105.916 47.5772 106.368 47.7705 107.045C47.9639 107.721 48.5223 107.94 48.8441 107.86L49.1189 108.821L48.937 108.856C48.0844 108.969 47.2172 108.395 46.8678 107.488L46.8007 107.288C46.4891 106.198 47.0219 105.117 47.9906 104.874C48.9595 104.631 49.9983 105.317 50.3098 106.407L50.3581 106.611C50.5526 107.629 50.0273 108.593 49.1189 108.821L48.8441 107.86C49.1659 107.779 49.5334 107.327 49.34 106.65ZM85.1783 92.149C84.9849 91.4726 84.4266 91.2532 84.1047 91.3338C83.7829 91.4146 83.4155 91.8665 83.6089 92.5432C83.8023 93.2198 84.3616 93.439 84.6834 93.3582L84.9582 94.3197L84.7753 94.3545C83.8618 94.4755 82.9311 93.8085 82.639 92.7868C82.3275 91.6969 82.8609 90.6157 83.8299 90.3723L84.0118 90.3377C84.9254 90.2165 85.8561 90.8836 86.1482 91.9054L86.1964 92.1096C86.3909 93.1272 85.8664 94.0913 84.9582 94.3197L84.6834 93.3582C85.0051 93.2771 85.3716 92.8254 85.1783 92.149ZM59.2485 96.7447C59.055 96.0684 58.496 95.8498 58.1743 95.9306C57.8526 96.0116 57.486 96.4626 57.6791 97.1389C57.8725 97.8153 58.4308 98.0347 58.7527 97.9541L59.0275 98.9156C58.1191 99.1436 57.1506 98.5546 56.7764 97.582L56.7092 97.3825C56.398 96.2928 56.9308 95.2126 57.8994 94.9691L58.0823 94.9343C58.9956 94.8134 59.9262 95.4797 60.2184 96.5011L60.2666 96.7053C60.4614 97.7231 59.936 98.6874 59.0275 98.9156L58.7527 97.9541C59.0744 97.8733 59.4419 97.4213 59.2485 96.7447ZM66.15 84.1465C65.9565 83.4701 65.3984 83.2514 65.0767 83.3322C64.755 83.413 64.3884 83.864 64.5816 84.5404C64.775 85.217 65.3333 85.4364 65.6551 85.3556L65.93 86.3171C65.0215 86.5452 64.0521 85.9564 63.6779 84.9837L63.6117 84.784C63.3003 83.6942 63.8331 82.6141 64.8019 82.3707L64.9836 82.3351C65.8972 82.2137 66.8277 82.881 67.1199 83.9028C67.4314 84.9928 66.8989 86.0737 65.93 86.3171L65.6551 85.3556C65.9769 85.2748 66.3434 84.8231 66.15 84.1465ZM70.8734 79.0393C70.6799 78.3628 70.1209 78.1444 69.7991 78.2252C69.4775 78.3062 69.1108 78.7571 69.304 79.4335C69.4974 80.11 70.0557 80.3294 70.3775 80.2487L70.6524 81.2102C69.744 81.4382 68.7745 80.8494 68.4003 79.8768L68.3341 79.6771C68.0228 78.5873 68.5556 77.5072 69.5243 77.2637L69.7069 77.2279C70.6203 77.107 71.5511 77.7742 71.8433 78.7957L71.8915 78.9999C72.0862 80.0177 71.5608 80.982 70.6524 81.2102L70.3775 80.2487C70.6993 80.1679 71.0668 79.7159 70.8734 79.0393ZM44.0546 76.6255C43.8612 75.9491 43.3028 75.7297 42.981 75.8102C42.6593 75.8911 42.2918 76.343 42.4852 77.0197C42.6786 77.6963 43.2379 77.9155 43.5597 77.8346L43.8345 78.7961L43.6516 78.831C42.7381 78.952 41.8074 78.285 41.5153 77.2633C41.2038 76.1734 41.7373 75.0921 42.7062 74.8488L42.8881 74.8141C43.8017 74.693 44.7324 75.3601 45.0245 76.3819L45.0727 76.5861C45.2673 77.6036 44.7427 78.5678 43.8345 78.7961L43.5597 77.8346C43.8814 77.7536 44.2479 77.3019 44.0546 76.6255ZM51.6588 63.577C51.4654 62.9004 50.9061 62.6812 50.5843 62.762C50.2626 62.843 49.896 63.2947 50.0894 63.9712C50.2828 64.6476 50.8412 64.8671 51.163 64.7864L51.4378 65.7479L51.2558 65.7825C50.4032 65.8957 49.5352 65.3222 49.1858 64.4145L49.1195 64.2148C48.808 63.125 49.3406 62.044 50.3095 61.8005C51.2784 61.5572 52.3171 62.2435 52.6287 63.3334L52.6769 63.5377C52.8714 64.5553 52.3461 65.5198 51.4378 65.7479L51.163 64.7864C51.4847 64.7056 51.8521 64.2536 51.6588 63.577ZM41.7363 50.6094C41.5429 49.9328 40.9836 49.7136 40.6618 49.7944C40.3401 49.8755 39.9736 50.3272 40.1669 51.0036C40.3603 51.6798 40.9187 51.8994 41.2405 51.8188L41.5153 52.7803L41.3333 52.8149C40.4808 52.928 39.6136 52.3542 39.2642 51.4467L39.197 51.2472C38.8855 50.1574 39.4183 49.0765 40.387 48.8329C41.3559 48.5896 42.3946 49.2759 42.7062 50.3658L42.7544 50.5701C42.9489 51.5876 42.4236 52.5522 41.5153 52.7803L41.2405 51.8188C41.5622 51.738 41.9296 51.2859 41.7363 50.6094Z" fill="#5FB121"/>
</svg>
