<svg width="234" height="202" viewBox="0 0 234 202" fill="none" xmlns="http://www.w3.org/2000/svg">
<path d="M173.27 100.243C173.27 116.339 160.222 129.385 144.125 129.385H53.0521C36.9555 129.385 23.9062 116.339 23.9062 100.243V51.5538C23.9062 35.4568 36.9555 22.411 53.0521 22.411H144.125C160.222 22.411 173.27 35.4568 173.27 51.5538V100.243Z" fill="#FBCF6E"/>
<path d="M173.27 30.059V78.7485C173.27 94.847 160.222 107.888 144.128 107.888H53.0538C36.9526 107.888 23.9102 94.847 23.9102 78.7485V30.059C23.9102 13.9667 36.9529 0.918884 53.0538 0.918884H144.128C160.222 0.918884 173.27 13.9667 173.27 30.059Z" fill="#FFE9BF"/>
<path d="M77.3905 101.14L23.9102 50.2278V30.4313L87.279 90.757C94.0765 97.2223 84.4355 107.848 77.3905 101.14Z" fill="#BA4826"/>
<path d="M111.453 95.4998L41.8631 29.2557C34.7861 22.5184 44.9825 12.4257 51.7517 18.8706L121.341 85.1149C128.136 91.5831 118.494 102.205 111.453 95.4998Z" fill="#BA4826"/>
<path d="M145.514 89.8602L75.9253 23.6159C68.8466 16.879 79.0447 6.78685 85.8139 13.23L155.402 79.4744C162.199 85.9433 152.556 96.5638 145.514 89.8602Z" fill="#BA4826"/>
<path d="M173.271 58.4219V78.2241L109.985 17.9743C102.912 11.24 113.104 1.14609 119.873 7.59171L173.271 58.4219Z" fill="#BA4826"/>
<path d="M204.399 36.6938C220.497 36.6938 233.544 49.7412 233.544 65.8361V156.9C233.544 172.994 220.497 186.043 204.399 186.043H155.704C139.605 186.043 126.558 172.994 126.558 156.9V65.8361C126.558 49.7412 139.605 36.6938 155.704 36.6938H204.399Z" fill="#E8A459"/>
<path d="M134.207 36.6938H182.901C199.003 36.6938 212.045 49.742 212.045 65.8347V156.898C212.045 172.999 199.002 186.039 182.901 186.039H134.207C118.114 186.039 105.063 172.999 105.063 156.898V65.8347C105.063 49.742 118.114 36.6938 134.207 36.6938Z" fill="#F7CA85"/>
<path d="M205.296 132.564L154.378 186.039H134.579L194.911 122.677C201.379 115.88 212.003 125.52 205.296 132.564Z" fill="#BA4826"/>
<path d="M199.655 98.5055L133.404 168.088C126.666 175.164 116.571 164.969 123.017 158.2L189.268 88.6181C195.738 81.8232 206.361 91.4641 199.655 98.5055Z" fill="#BA4826"/>
<path d="M194.015 64.4485L127.763 134.03C121.026 141.107 110.932 130.91 117.376 124.142L183.628 54.5604C190.097 47.7659 200.719 57.4071 194.015 64.4485Z" fill="#BA4826"/>
<path d="M162.572 36.6938H182.378L122.121 99.9732C115.387 107.046 105.29 96.8554 111.737 90.0859L162.572 36.6938Z" fill="#BA4826"/>
<path d="M10.2395 88.2743L15.2476 93.0005C15.2476 93.0005 3.77099 91.9282 0.644043 113.892L2.44345 115.59C2.44345 115.59 -0.920693 124.17 2.30336 133.795L48.1169 85.2677C34.0953 72.0328 17.9371 78.074 10.2395 88.2743Z" fill="#7B913A"/>
<path d="M47.2971 123.251L42.2898 118.524C42.2898 118.524 44.0215 129.919 22.2715 134.307L20.4721 132.608C20.4721 132.608 12.0998 136.46 2.30371 133.796L48.1173 85.2681C62.139 98.5018 57.0381 114.98 47.2971 123.251Z" fill="#697833"/>
<path d="M182.194 189.325L186.163 186.561C186.163 186.561 183.778 194.299 198.434 199.604L199.861 198.61C199.861 198.61 205.277 202.155 212.36 201.322L185.567 162.849C174.451 170.59 176.284 182.567 182.194 189.325Z" fill="#7B913A"/>
<path d="M211.572 168.871L207.601 171.635C207.601 171.635 215.687 172.081 215.58 187.667L214.152 188.659C214.152 188.659 215.599 194.969 212.36 201.323L185.567 162.85C196.684 155.11 207.284 160.985 211.572 168.871Z" fill="#697833"/>
<path d="M190.104 52.3648L188.205 47.9162C188.205 47.9162 195.296 51.8265 203.473 38.5591L202.791 36.9598C202.791 36.9598 207.366 32.3778 207.991 25.2755L164.866 43.673C170.182 56.1311 182.284 56.7737 190.104 52.3648Z" fill="#7B913A"/>
<path d="M176.055 19.4418L177.953 23.8899C177.953 23.8899 180.035 16.0657 195.275 19.3428L195.956 20.943C195.956 20.943 202.429 20.8107 207.99 25.2758L164.866 43.6733C159.55 31.2156 167.461 22.0343 176.055 19.4418Z" fill="#697833"/>
</svg>
