<svg width="200" height="172" viewBox="0 0 200 172" fill="none" xmlns="http://www.w3.org/2000/svg">
<g clip-path="url(#clip0_971_15480)">
<path d="M148.094 85.3555C148.094 99.061 136.942 110.169 123.184 110.169H45.344C31.5862 110.169 20.433 99.061 20.433 85.3555V43.8974C20.433 30.191 31.5862 19.0827 45.344 19.0827H123.184C136.942 19.0827 148.094 30.191 148.094 43.8974V85.3555Z" fill="#FBCF6E"/>
<path d="M148.094 25.5948V67.0532C148.094 80.7609 136.942 91.8651 123.187 91.8651H45.3454C31.5837 91.8651 20.4364 80.7609 20.4364 67.0532V25.5948C20.4364 11.8925 31.584 0.782471 45.3454 0.782471H123.187C136.942 0.782471 148.094 11.8925 148.094 25.5948Z" fill="#FFE9BF"/>
<path d="M66.146 86.1193L20.4364 42.7683V25.9119L74.5978 77.2783C80.4076 82.7834 72.1674 91.831 66.146 86.1193Z" fill="#BA4826"/>
<path d="M95.2593 81.3167L35.7807 24.9108C29.732 19.1741 38.4469 10.5804 44.2325 16.0681L103.711 72.4741C109.518 77.9817 101.277 87.0261 95.2593 81.3167Z" fill="#BA4826"/>
<path d="M124.371 76.5147L64.8937 20.1086C58.8436 14.3723 67.5599 5.77896 73.3455 11.2652L132.823 67.6713C138.632 73.1795 130.39 82.2227 124.371 76.5147Z" fill="#BA4826"/>
<path d="M148.095 49.7454V66.6067L94.0046 15.3049C87.9593 9.57075 96.6704 0.975933 102.456 6.46428L148.095 49.7454Z" fill="#BA4826"/>
<path d="M174.7 31.2443C188.459 31.2443 199.611 42.3539 199.611 56.0585V133.598C199.611 147.302 188.459 158.413 174.7 158.413H133.081C119.321 158.413 108.17 147.302 108.17 133.598V56.0585C108.17 42.3539 119.321 31.2443 133.081 31.2443H174.7Z" fill="#E8A459"/>
<path d="M114.707 31.2443H156.326C170.088 31.2443 181.235 42.3546 181.235 56.0573V133.596C181.235 147.306 170.087 158.41 156.326 158.41H114.707C100.952 158.41 89.7978 147.306 89.7978 133.596V56.0573C89.7978 42.3546 100.952 31.2443 114.707 31.2443Z" fill="#F7CA85"/>
<path d="M175.467 112.876L131.947 158.41H115.025L166.591 104.458C172.119 98.6702 181.199 106.878 175.467 112.876Z" fill="#BA4826"/>
<path d="M170.646 83.876L114.021 143.124C108.262 149.15 99.6337 140.469 105.143 134.705L161.768 75.4571C167.298 69.6713 176.377 77.8804 170.646 83.876Z" fill="#BA4826"/>
<path d="M165.825 54.877L109.199 114.125C103.441 120.151 94.814 111.468 100.322 105.705L156.947 46.4574C162.476 40.672 171.555 48.8813 165.825 54.877Z" fill="#BA4826"/>
<path d="M138.951 31.2443H155.879L104.377 85.1257C98.6217 91.1481 89.9918 82.471 95.502 76.7069L138.951 31.2443Z" fill="#BA4826"/>
<path d="M8.75203 75.1643L13.0325 79.1886C13.0325 79.1886 3.22339 78.2756 0.550781 96.9774L2.08874 98.4232C2.08874 98.4232 -0.7866 105.729 1.969 113.925L41.1259 72.6042C29.1416 61.3349 15.3312 66.4789 8.75203 75.1643Z" fill="#7B913A"/>
<path d="M40.4252 104.946L36.1454 100.921C36.1454 100.921 37.6255 110.624 19.0358 114.36L17.4978 112.914C17.4978 112.914 10.3417 116.193 1.969 113.925L41.1259 72.6042C53.1102 83.8725 48.7508 97.9038 40.4252 104.946Z" fill="#697833"/>
<path d="M155.722 161.207L159.114 158.854C159.114 158.854 157.076 165.443 169.602 169.96L170.822 169.114C170.822 169.114 175.451 172.132 181.505 171.423L158.605 138.664C149.104 145.255 150.67 155.453 155.722 161.207Z" fill="#7B913A"/>
<path d="M180.831 143.791L177.437 146.145C177.437 146.145 184.348 146.524 184.257 159.796L183.036 160.64C183.036 160.64 184.273 166.012 181.505 171.423L158.605 138.664C168.106 132.073 177.166 137.076 180.831 143.791Z" fill="#697833"/>
<path d="M162.482 44.5879L160.859 40.8C160.859 40.8 166.92 44.1296 173.909 32.8326L173.326 31.4708C173.326 31.4708 177.236 27.5693 177.77 21.5218L140.911 37.187C145.455 47.7949 155.799 48.342 162.482 44.5879Z" fill="#7B913A"/>
<path d="M150.475 16.5545L152.097 20.342C152.097 20.342 153.876 13.6798 166.902 16.4702L167.484 17.8327C167.484 17.8327 173.017 17.7198 177.77 21.5218L140.911 37.187C136.368 26.5794 143.129 18.7619 150.475 16.5545Z" fill="#697833"/>
</g>
<defs>
<clipPath id="clip0_971_15480">
<rect width="200" height="172" fill="white"/>
</clipPath>
</defs>
</svg>
