<svg width="200" height="153" viewBox="0 0 200 153" fill="none" xmlns="http://www.w3.org/2000/svg">
<path d="M200 81.0042C200 120.766 155.228 153 100 153C44.7715 153 0 120.766 0 81.0042C0 41.2421 44.7715 9.00848 100 9.00848C155.228 9.00848 200 41.2421 200 81.0042Z" fill="#F4B13B"/>
<path d="M200 71.3291C200 110.723 155.228 142.658 100 142.658C44.7715 142.658 0 110.723 0 71.3291C0 31.9351 44.7715 0 100 0C155.228 0 200 31.9351 200 71.3291Z" fill="#BC3621"/>
<path d="M184.524 65.9962C184.524 97.2905 146.948 122.66 100.595 122.66C54.2428 122.66 16.6667 97.2905 16.6667 65.9962C16.6667 34.7019 54.2428 9.33288 100.595 9.33288C146.948 9.33288 184.524 34.7019 184.524 65.9962Z" fill="#A92D1B"/>
<path d="M183.616 65.6718C183.616 96.9661 146.04 122.335 99.6876 122.335C53.3351 122.335 15.759 96.9661 15.759 65.6718C15.759 34.3775 53.3351 9.00848 99.6876 9.00848C146.04 9.00848 183.616 34.3775 183.616 65.6718Z" fill="#FDDD3F"/>
<path d="M172.441 61.0913C172.441 88.3628 139.683 110.471 99.2743 110.471C58.8654 110.471 26.1075 88.3628 26.1075 61.0913C26.1075 33.8198 58.8654 11.7119 99.2743 11.7119C139.683 11.7119 172.441 33.8198 172.441 61.0913Z" fill="#FAAF41"/>
<path d="M130.875 45.6658C128.095 53.929 145.432 57.7361 146.952 49.1089C147.321 47.0166 146.284 44.9219 144.395 43.4296L148.618 42.7389C150.468 44.7852 151.382 47.2957 150.939 49.8123C148.872 61.543 125.907 58.277 126.641 46.3619L130.875 45.6658Z" fill="#EE4137"/>
<path d="M31.7357 58.8688C31.7683 58.7939 33.1632 55.7471 33.1632 55.7471C43.9457 56.5518 48.3423 46.6653 38.684 43.3465L40.1025 40.2127C56.0252 44.8916 48.4954 60.9169 31.7357 58.8688Z" fill="#EE4137"/>
<path d="M91.3948 53.9058C91.4274 53.9807 92.8223 57.0275 92.8223 57.0275C103.605 56.2228 108.001 66.1093 98.3431 69.4282L99.7616 72.5619C115.684 67.8831 108.154 51.8577 91.3948 53.9058Z" fill="#EE4137"/>
<path d="M115.463 18.8643C115.567 18.9095 119.758 20.8025 119.758 20.8025C117.075 29.2456 130.695 35.2842 136.84 28.3816L141.154 30.3157C132.164 41.8966 110.145 31.785 115.463 18.8643Z" fill="#EE4137"/>
<path d="M119.392 86.4279C119.288 86.4731 115.097 88.3658 115.097 88.3658C117.781 96.8106 104.163 102.849 98.0167 95.9442L93.7037 97.8781C102.695 109.462 124.712 99.3513 119.392 86.4279Z" fill="#EE4137"/>
<path d="M59.1434 96.4182C68.5751 99.0343 71.6076 86.6233 61.8581 84.9031C59.4936 84.4859 57.2256 85.0969 55.6908 86.373L54.6211 83.236C56.7777 82.0268 59.5191 81.5354 62.3631 82.0372C75.6199 84.3761 73.5888 100.941 60.22 99.5637L59.1434 96.4182Z" fill="#EE4137"/>
<path d="M142.154 87.4135C132.723 90.0287 129.689 77.6162 139.438 75.897C141.802 75.4801 144.07 76.0914 145.605 77.3678L146.674 74.2307C144.517 73.0211 141.776 72.5293 138.932 73.0308C125.677 75.3684 127.71 91.9347 141.077 90.5591L142.154 87.4135Z" fill="#EE4137"/>
<path d="M71.6014 55.3493C72.1987 65.1211 59.4313 65.5078 59.7763 55.6113C59.8599 53.2112 60.929 51.1192 62.4959 49.8829L59.6507 48.1841C58.0198 50.0427 56.9693 52.6227 56.8686 55.5095C56.3997 68.9662 73.0207 70.4229 74.4536 57.0567L71.6014 55.3493Z" fill="#EE4137"/>
<path d="M77.0747 29.6875C74.4596 20.2524 86.8661 17.2187 88.5856 26.9718C89.0026 29.3372 88.3918 31.6061 87.1163 33.1414L90.2521 34.2115C91.4608 32.0541 91.9521 29.3117 91.4505 26.4666C89.1124 13.2049 72.5538 15.2368 73.9304 28.6105L77.0747 29.6875Z" fill="#EE4137"/>
<path d="M49.7568 33.9045C50.739 35.7085 52.8679 36.6917 54.5114 36.1001C56.1553 35.5085 56.6914 33.5666 55.7092 31.7624C54.7271 29.9583 52.5982 28.9753 50.9543 29.5668C49.3103 30.1583 48.7741 32.1007 49.7568 33.9045Z" fill="#4C2C1C"/>
<path d="M75.2165 52.3832C77.446 51.7126 78.6333 49.9324 77.8685 48.4062C77.1046 46.8807 74.6771 46.1873 72.4476 46.8579C70.2184 47.5282 69.0311 49.3087 69.7956 50.8344C70.5598 52.3604 72.9872 53.0539 75.2165 52.3832Z" fill="#4C2C1C"/>
<path d="M54.9758 42.7464L55.4197 40.228C54.0719 39.764 50.9093 38.2155 50.4793 40.6549C50.0514 43.0825 53.543 42.721 54.9758 42.7464Z" fill="#F7EC32"/>
<path d="M69.3491 60.2076L71.5825 58.9364C70.9949 57.8788 69.9681 55.119 67.8053 56.3504C65.6515 57.5753 68.3669 59.3673 69.3491 60.2076Z" fill="#F7EC32"/>
<path d="M73.0279 36.9287L71.964 34.5559C70.3484 34.5819 66.284 34.2358 67.3144 36.534C68.3398 38.8211 71.5901 37.3702 73.0279 36.9287Z" fill="#F7EC32"/>
<path d="M53.4121 58.5105L53.856 55.9916C52.5082 55.5277 49.3456 53.9793 48.9156 56.4188C48.4877 58.8463 51.9793 58.4845 53.4121 58.5105Z" fill="#F7EC32"/>
<path d="M41.0213 67.5823L41.4652 65.064C40.1173 64.6 36.9547 63.0515 36.5248 65.4909C36.0967 67.9186 39.5883 67.5569 41.0213 67.5823Z" fill="#F7EC32"/>
<path d="M50.4486 33.6119C50.7606 34.3011 51.4643 34.6616 52.0208 34.417C52.5771 34.1723 52.7752 33.4152 52.463 32.726C52.1514 32.0368 51.4474 31.6762 50.8912 31.921C50.3349 32.1657 50.1367 32.9226 50.4486 33.6119Z" fill="#D79E84"/>
<path d="M73.0691 51.6038C74.0324 51.2733 74.5558 50.4291 74.2378 49.7183C73.9204 49.0079 72.882 48.7 71.9192 49.0306C70.9559 49.3615 70.4326 50.2053 70.7505 50.9161C71.0676 51.6265 72.1064 51.9347 73.0691 51.6038Z" fill="#D79E84"/>
<path d="M88.1298 35.5579C89.112 37.3619 91.2409 38.3451 92.8844 37.7534C94.5283 37.1618 95.0644 35.2199 94.0823 33.4158C93.1001 31.6117 90.9712 30.6286 89.3274 31.2202C87.6834 31.8116 87.1472 33.754 88.1298 35.5579Z" fill="#4C2C1C"/>
<path d="M120.242 55.7614C122.472 55.0908 123.659 53.3106 122.894 51.7844C122.13 50.2589 119.703 49.5655 117.473 50.2361C115.244 50.9063 114.057 52.6869 114.821 54.2126C115.586 55.7385 118.013 56.432 120.242 55.7614Z" fill="#4C2C1C"/>
<path d="M100.002 46.1246L100.445 43.6061C99.0976 43.1422 95.9351 41.5937 95.5051 44.0331C95.0772 46.4607 98.5687 46.0991 100.002 46.1246Z" fill="#F7EC32"/>
<path d="M114.375 63.5858L116.608 62.3146C116.021 61.257 114.994 58.4972 112.831 59.7286C110.677 60.9535 113.393 62.7455 114.375 63.5858Z" fill="#F7EC32"/>
<path d="M118.054 40.3068L116.99 37.9341C115.374 37.96 111.31 37.6139 112.34 39.9122C113.366 42.1992 116.616 40.7483 118.054 40.3068Z" fill="#F7EC32"/>
<path d="M84.9214 28.1702L85.3653 25.6519C84.0174 25.1879 80.8548 23.6394 80.4249 26.0788C79.9968 28.5065 83.4884 28.1448 84.9214 28.1702Z" fill="#F7EC32"/>
<path d="M88.8216 35.2652C89.1336 35.9544 89.8374 36.3149 90.3938 36.0704C90.9501 35.8257 91.1482 35.0686 90.8361 34.3793C90.5244 33.6901 89.8204 33.3296 89.2642 33.5743C88.7079 33.819 88.5097 34.576 88.8216 35.2652Z" fill="#D79E84"/>
<path d="M118.095 54.982C119.058 54.6514 119.582 53.8073 119.264 53.0965C118.946 52.386 117.908 52.0781 116.945 52.4088C115.982 52.7396 115.458 53.5835 115.776 54.2943C116.093 55.0047 117.132 55.3129 118.095 54.982Z" fill="#D79E84"/>
<path d="M81.6004 98.3029C83.0159 99.7912 85.3266 100.19 86.7611 99.1926C88.1959 98.1956 88.2113 96.181 86.7958 94.6927C85.3803 93.2043 83.0697 92.8059 81.6349 93.803C80.2 94.7999 80.1846 96.815 81.6004 98.3029Z" fill="#4C2C1C"/>
<path d="M95.0174 105.558L94.7946 103.011C93.3726 102.912 89.9172 102.235 90.133 104.702C90.3477 107.158 93.6267 105.905 95.0174 105.558Z" fill="#F7EC32"/>
<path d="M84.6161 96.8511C85.0959 97.4361 85.8689 97.6021 86.3431 97.2217C86.8171 96.8414 86.8126 96.0588 86.3328 95.4738C85.8534 94.8888 85.0801 94.7228 84.6062 95.1032C84.1322 95.4836 84.1366 96.2661 84.6161 96.8511Z" fill="#D79E84"/>
<path d="M130.17 68.2136C129.188 70.0176 127.059 71.0008 125.416 70.4092C123.772 69.8176 123.236 67.8756 124.218 66.0715C125.2 64.2674 127.329 63.2843 128.973 63.8759C130.617 64.4674 131.153 66.4098 130.17 68.2136Z" fill="#4C2C1C"/>
<path d="M98.0579 88.4171C95.8283 87.7465 94.641 85.9664 95.4058 84.4401C96.1697 82.9146 98.5972 82.2212 100.827 82.8918C103.056 83.5621 104.243 85.3426 103.479 86.8683C102.715 88.3943 100.287 89.0878 98.0579 88.4171Z" fill="#4C2C1C"/>
<path d="M118.299 78.7803L117.855 76.2619C119.202 75.7979 122.365 74.2494 122.795 76.6888C123.223 79.1164 119.731 78.7549 118.299 78.7803Z" fill="#F7EC32"/>
<path d="M103.925 96.2415L101.692 94.9704C102.279 93.9127 103.306 91.1529 105.469 92.3843C107.623 93.6092 104.907 95.4012 103.925 96.2415Z" fill="#F7EC32"/>
<path d="M100.246 72.9626L101.31 70.5899C102.926 70.6158 106.99 70.2697 105.96 72.5679C104.935 74.855 101.684 73.4041 100.246 72.9626Z" fill="#F7EC32"/>
<path d="M119.862 94.5444L119.418 92.0255C120.766 91.5616 123.929 90.0132 124.359 92.4527C124.787 94.8802 121.295 94.5184 119.862 94.5444Z" fill="#F7EC32"/>
<path d="M133.379 60.826L132.935 58.3076C134.283 57.8436 137.445 56.2952 137.875 58.7345C138.303 61.1622 134.812 60.8005 133.379 60.826Z" fill="#F7EC32"/>
<path d="M129.479 67.9209C129.166 68.6102 128.463 68.9707 127.906 68.7261C127.35 68.4814 127.152 67.7243 127.464 67.0351C127.776 66.3459 128.48 65.9853 129.036 66.23C129.592 66.4747 129.79 67.2317 129.479 67.9209Z" fill="#D79E84"/>
<path d="M100.205 87.6377C99.2419 87.3072 98.7186 86.4631 99.0365 85.7522C99.3539 85.0418 100.392 84.7339 101.355 85.0645C102.318 85.3954 102.842 86.2392 102.524 86.95C102.207 87.6604 101.168 87.9687 100.205 87.6377Z" fill="#D79E84"/>
<path d="M130.904 44.5663C131.886 46.3704 134.015 47.3535 135.659 46.7619C137.303 46.1703 137.839 44.2284 136.857 42.4243C135.875 40.6201 133.746 39.6371 132.102 40.2287C130.458 40.8201 129.922 42.7625 130.904 44.5663Z" fill="#4C2C1C"/>
<path d="M163.017 64.7699C165.246 64.0993 166.433 62.3191 165.669 60.7929C164.905 59.2674 162.477 58.5739 160.248 59.2446C158.019 59.9148 156.831 61.6954 157.596 63.2211C158.36 64.747 160.787 65.4405 163.017 64.7699Z" fill="#4C2C1C"/>
<path d="M142.776 55.133L143.22 52.6146C141.872 52.1506 138.71 50.6022 138.28 53.0416C137.852 55.4692 141.343 55.1076 142.776 55.133Z" fill="#F7EC32"/>
<path d="M157.149 72.5943L159.383 71.3231C158.795 70.2654 157.768 67.5056 155.606 68.7371C153.452 69.962 156.167 71.754 157.149 72.5943Z" fill="#F7EC32"/>
<path d="M160.828 49.3153L159.764 46.9426C158.149 46.9685 154.084 46.6224 155.115 48.9207C156.14 51.2077 159.39 49.7568 160.828 49.3153Z" fill="#F7EC32"/>
<path d="M141.212 70.8971L141.656 68.3783C140.308 67.9143 137.146 66.366 136.716 68.8054C136.288 71.233 139.78 70.8712 141.212 70.8971Z" fill="#F7EC32"/>
<path d="M127.696 37.1787L128.14 34.6604C126.792 34.1964 123.629 32.6479 123.199 35.0873C122.771 37.515 126.263 37.1533 127.696 37.1787Z" fill="#F7EC32"/>
<path d="M131.596 44.2737C131.908 44.9629 132.612 45.3234 133.168 45.0788C133.725 44.8341 133.923 44.0771 133.611 43.3878C133.299 42.6986 132.595 42.3381 132.039 42.5828C131.482 42.8275 131.284 43.5845 131.596 44.2737Z" fill="#D79E84"/>
<path d="M160.869 63.9905C161.833 63.6599 162.356 62.8158 162.038 62.105C161.721 61.3945 160.682 61.0866 159.719 61.4173C158.756 61.7481 158.233 62.592 158.551 63.3028C158.868 64.0132 159.907 64.3214 160.869 63.9905Z" fill="#D79E84"/>
<path d="M92.5919 63.4029L93.0359 60.884C91.688 60.4201 88.5255 58.8717 88.0955 61.3112C87.6676 63.7387 91.1592 63.3769 92.5919 63.4029Z" fill="#F7EC32"/>
<path d="M52.6518 81.8105C54.6318 80.5855 55.3181 78.5586 54.1845 77.2823C53.0519 76.0066 50.5277 75.9653 48.5477 77.1904C46.5679 78.4149 45.8817 80.4422 47.0149 81.718C48.1478 82.9941 50.672 83.0355 52.6518 81.8105Z" fill="#4C2C1C"/>
<path d="M74.0913 89.1184L73.8685 86.5709C72.4465 86.4717 68.9911 85.7948 69.2069 88.2624C69.4217 90.7181 72.7007 89.4649 74.0913 89.1184Z" fill="#F7EC32"/>
<path d="M55.7337 72.9517L57.5621 71.1456C56.7209 70.2761 55.0151 67.8762 53.2446 69.6257C51.4811 71.3665 54.5676 72.3944 55.7337 72.9517Z" fill="#F7EC32"/>
<path d="M57.3089 93.0753L55.6673 91.059C54.1135 91.5023 50.0981 92.2203 51.688 94.1735C53.2701 96.1171 56.0343 93.8741 57.3089 93.0753Z" fill="#F7EC32"/>
<path d="M75.655 73.3551L75.4322 70.8071C74.0102 70.7079 70.5548 70.0312 70.7706 72.4988C70.9854 74.9544 74.2644 73.7009 75.655 73.3551Z" fill="#F7EC32"/>
<path d="M52.8258 79.8974C53.6708 79.3287 53.9579 78.3778 53.4669 77.7735C52.9765 77.1695 51.8937 77.141 51.0493 77.7096C50.2044 78.2786 49.9173 79.2292 50.4083 79.8335C50.8984 80.4375 51.9815 80.4663 52.8258 79.8974Z" fill="#D79E84"/>
</svg>
