<svg fill="none" height="200" viewBox="0 0 234 246" width="200" xmlns="http://www.w3.org/2000/svg">
  <path d="M233.138 107.958C208.386 178.202 147.803 231.516 73.3237 245.962L0.249023 1.09349L233.138 107.958Z"
        fill="#FDDD3F"/>
  <path
    d="M195.808 90.8342C175.337 148.289 122.767 193.619 61.1606 205.439C61.1606 205.439 0.24903 0.97927 0.238281 0.969238C0.24903 1.09356 195.808 90.8342 195.808 90.8342Z"
    fill="#FAAF41"/>
  <path
    d="M27.7227 93.3374C27.8251 93.6889 32.1983 107.975 32.1983 107.975C66.005 104.202 79.7898 150.56 49.5078 166.122L53.9554 180.816C103.878 158.877 80.2696 83.734 27.7227 93.3374Z"
    fill="#EE4137"/>
  <path
    d="M173.111 80.4308C176.751 111.928 127.254 114.62 127.254 82.6134C127.254 74.8511 131.12 67.9727 137.034 63.8021L125.762 58.6362C119.684 64.8242 115.956 73.2769 115.956 82.6134C115.956 126.134 180.658 128.961 184.411 85.6235L173.111 80.4308Z"
    fill="#EE4137"/>
  <path
    d="M58.1312 46.6413C64.4521 50.9115 66.8073 58.4725 63.3905 63.528C59.9736 68.5846 52.0801 69.2212 45.7589 64.951C39.4376 60.6808 37.0828 53.1199 40.4996 48.0633C43.9161 43.0063 51.8114 42.3697 58.1312 46.6413Z"
    fill="#4C2C1C"/>
  <path
    d="M113.055 156.171C109.073 162.678 101.626 165.37 96.4183 162.184C91.2128 159.001 90.2199 151.143 94.2022 144.636C98.1826 138.13 105.631 135.438 110.837 138.623C116.044 141.807 117.037 149.665 113.055 156.171Z"
    fill="#4C2C1C"/>
  <path
    d="M89.8158 88.8283H80.4919C79.6796 84.3639 76.1227 73.6358 85.1539 73.6358C94.1417 73.6358 90.632 84.3399 89.8158 88.8283Z"
    fill="#F7EC32"/>
  <path
    d="M147.706 143.326L141.161 149.964C137.411 147.407 127.275 142.408 133.615 135.98C139.923 129.578 145.084 139.592 147.706 143.326Z"
    fill="#F7EC32"/>
  <path
    d="M55.6881 141.2L47.2793 137.172C48.4757 132.794 49.9028 121.583 58.0479 125.484C66.1532 129.366 58.3632 137.504 55.6881 141.2Z"
    fill="#F7EC32"/>
  <path
    d="M151.111 94.3528H141.787C140.975 89.8884 137.419 79.1603 146.449 79.1603C155.435 79.1603 151.925 89.8644 151.111 94.3528Z"
    fill="#F7EC32"/>
  <path
    d="M31.2837 34.6185H21.9602C21.1479 30.1541 17.591 19.4261 26.6221 19.4261C35.6099 19.4257 32.0999 30.1298 31.2837 34.6185Z"
    fill="#F7EC32"/>
  <path
    d="M56.1964 48.9507C58.7769 50.6944 59.7386 53.7806 58.3441 55.8453C56.9492 57.9093 53.7266 58.1693 51.1461 56.4253C48.5655 54.683 47.6038 51.5958 48.9987 49.5322C50.3936 47.4682 53.6159 47.2077 56.1964 48.9507Z"
    fill="#D79E84"/>
  <path
    d="M111.798 151.351C109.952 154.369 106.498 155.618 104.083 154.14C101.669 152.664 101.209 149.02 103.055 146.004C104.902 142.986 108.355 141.737 110.77 143.215C113.184 144.69 113.645 148.335 111.798 151.351Z"
    fill="#D79E84"/>
</svg>
