<svg width="200" height="122" viewBox="0 0 200 122" fill="none" xmlns="http://www.w3.org/2000/svg">
<path d="M116.578 52.9625C141.371 40.9003 137.203 4.93684 134.077 1.19458C130.952 -2.54768 116.578 52.9625 116.578 52.9625Z" fill="#FFCC43"/>
<path d="M117.015 53.8619C116.664 54.0323 116.247 53.9837 115.945 53.7369C115.681 53.5208 115.547 53.187 115.583 52.8541L115.61 52.7115L115.611 52.7096C115.611 52.7079 115.612 52.705 115.613 52.7017C115.614 52.695 115.617 52.6847 115.621 52.6715C115.628 52.6446 115.638 52.604 115.652 52.5514C115.679 52.4461 115.72 52.2904 115.773 52.0875C115.879 51.681 116.035 51.0849 116.235 50.3287C116.634 48.8164 117.209 46.6606 117.908 44.0855C119.305 38.9358 121.202 32.1055 123.197 25.3902C125.19 18.6813 127.289 12.0626 129.09 7.34725C129.986 5.00177 130.83 3.07079 131.57 1.83163C131.925 1.23657 132.326 0.678733 132.779 0.350182C133.014 0.179417 133.362 -0.00268681 133.791 0.014245C134.258 0.0327855 134.613 0.275719 134.845 0.553307C135.389 1.2043 135.839 2.36782 136.206 3.74081C136.586 5.16572 136.916 6.97646 137.142 9.05819C137.593 13.2224 137.633 18.5328 136.786 24.109C135.094 35.2409 129.827 47.6285 117.015 53.8619ZM118.124 51.0084C128.685 44.9087 133.26 33.9924 134.808 23.8082C135.627 18.4182 135.588 13.2823 135.154 9.27401C134.936 7.2695 134.623 5.56166 134.274 4.25643C134.045 3.39959 133.815 2.77313 133.618 2.35604C133.524 2.48571 133.411 2.64878 133.287 2.85702C132.642 3.93717 131.849 5.72908 130.958 8.06112C129.186 12.7013 127.105 19.2588 125.114 25.9596C123.125 32.6539 121.233 39.4675 119.837 44.609C119.14 47.1793 118.567 49.3317 118.168 50.8404C118.153 50.8973 118.139 50.9534 118.124 51.0084Z" fill="#FFC03F"/>
<path d="M116.572 52.9625C93.5442 49.2202 102.827 -2.54768 134.077 1.19458L116.572 52.9625Z" fill="#DE9A06"/>
<path d="M117.486 53.3678C117.304 53.7798 116.864 54.0232 116.412 53.9498C110.213 52.9424 106.226 48.6825 104.255 43.1021C102.294 37.552 102.291 30.6374 104.003 24.0211C107.415 10.8339 117.864 -1.75422 134.197 0.201745C134.496 0.237615 134.763 0.406149 134.924 0.660729C135.085 0.915529 135.122 1.22984 135.025 1.51522L117.519 53.2828L117.486 53.3678ZM132.727 2.07089C118.502 1.0396 109.133 12.1785 105.939 24.5221C104.303 30.8477 104.342 37.3442 106.141 42.4361C107.834 47.2299 111.054 50.7239 115.905 51.814L132.727 2.07089Z" fill="#CE8D01"/>
<path d="M155.3 13.4757C127.947 24.8772 119.165 38.6254 125.925 88.3209L155.3 13.4757Z" fill="#FFCC43"/>
<path d="M154.916 12.5528C155.286 12.3986 155.713 12.4802 156 12.7608C156.287 13.0417 156.378 13.4673 156.231 13.8409L126.856 88.6866C126.69 89.1101 126.258 89.3676 125.807 89.3136C125.355 89.2594 124.996 88.9063 124.935 88.4552C121.552 63.5899 122.015 47.4879 126.901 36.1427C131.825 24.7121 141.153 18.2897 154.916 12.5528ZM153.495 15.336C141.15 20.7524 133.101 26.8032 128.738 36.9337C124.331 47.1666 123.609 61.7211 126.416 84.3312L153.495 15.336Z" fill="#FFC03F"/>
<path d="M155.307 13.4757C178.335 17.2179 177.17 70.0728 125.925 88.3209L155.307 13.4757Z" fill="#DE9A06"/>
<path d="M154.412 13.0304C154.605 12.6411 155.032 12.4177 155.467 12.4884C161.644 13.4922 166.137 17.7949 168.565 23.8087C170.987 29.8066 171.388 37.553 169.441 45.6915C165.54 61.9985 152.187 80.0308 126.262 89.2628C125.893 89.3943 125.48 89.2982 125.207 89.0167C124.935 88.7352 124.852 88.3199 124.996 87.9552L154.376 13.1105L154.412 13.0304ZM127.673 86.6056C151.617 77.3883 163.865 60.4092 167.497 45.2257C169.368 37.4021 168.945 30.0927 166.71 24.5577C164.593 19.3132 160.877 15.7048 155.933 14.6144L127.673 86.6056Z" fill="#CE8D01"/>
<path d="M37.828 10.9809C62.6205 23.043 58.4531 59.0065 55.3274 62.7488C52.2016 66.491 37.828 10.9809 37.828 10.9809Z" fill="#FFCC43"/>
<path d="M38.2651 10.0814C37.9145 9.91105 37.4966 9.95966 37.1948 10.2064C36.9306 10.4226 36.7971 10.7563 36.8334 11.0892L36.8598 11.2318L36.8608 11.2338C36.8612 11.2355 36.8619 11.2383 36.8627 11.2416C36.8645 11.2483 36.8671 11.2586 36.8705 11.2719C36.8775 11.2987 36.8881 11.3393 36.9018 11.392C36.9292 11.4972 36.9699 11.653 37.0229 11.8559C37.1291 12.2623 37.285 12.8585 37.4848 13.6146C37.8844 15.127 38.4589 17.2827 39.1577 19.8578C40.5551 25.0075 42.4516 31.8378 44.4467 38.5531C46.44 45.262 48.5389 51.8808 50.3403 56.5961C51.2363 58.9416 52.0802 60.8725 52.8198 62.1117C53.175 62.7068 53.576 63.2646 54.0287 63.5932C54.2641 63.7639 54.6123 63.946 55.0414 63.9291C55.5083 63.9106 55.8633 63.6676 56.0952 63.39C56.6389 62.739 57.0887 61.5755 57.4555 60.2025C57.8362 58.7776 58.1664 56.9669 58.392 54.8851C58.8433 50.721 58.883 45.4105 58.0356 39.8344C56.3439 28.7024 51.0772 16.3149 38.2651 10.0814ZM39.3745 12.935C49.9351 19.0346 54.5104 29.9509 56.058 40.1351C56.8771 45.5252 56.8381 50.661 56.4037 54.6693C56.1865 56.6738 55.8726 58.3817 55.5239 59.6869C55.295 60.5437 55.0654 61.1702 54.8676 61.5873C54.7738 61.4576 54.6608 61.2946 54.5366 61.0863C53.8919 60.0062 53.0994 58.2143 52.2084 55.8822C50.4357 51.242 48.3545 44.6845 46.3637 37.9838C44.3748 31.2895 42.4826 24.4758 41.0873 19.3344C40.3898 16.764 39.8171 14.6117 39.4184 13.1029C39.4034 13.046 39.389 12.99 39.3745 12.935Z" fill="#FFC03F"/>
<path d="M37.8223 10.9809C14.7942 14.7231 24.0774 66.491 55.3274 62.7488L37.8223 10.9809Z" fill="#DE9A06"/>
<path d="M38.7363 10.5756C38.5539 10.1635 38.1143 9.92013 37.662 9.99355C31.4632 11.0009 27.4762 15.2609 25.5048 20.8412C23.5442 26.3913 23.5409 33.306 25.2529 39.9223C28.6651 53.1094 39.1138 65.6976 55.4472 63.7416C55.7461 63.7057 56.0131 63.5372 56.1738 63.2826C56.3345 63.0278 56.3718 62.7135 56.2753 62.4281L38.7695 10.6605L38.7363 10.5756ZM53.9765 61.8725C39.7517 62.9037 30.3834 51.7648 27.1894 39.4213C25.5526 33.0956 25.5918 26.5992 27.3906 21.5072C29.0841 16.7134 32.3039 13.2194 37.1552 12.1293L53.9765 61.8725Z" fill="#CE8D01"/>
<path d="M121.578 27.1973C146.371 39.2595 142.203 75.223 139.077 78.9652C135.952 82.7075 121.578 27.1973 121.578 27.1973Z" fill="#FFCC43"/>
<path d="M122.015 26.2979C121.664 26.1275 121.247 26.1761 120.945 26.4229C120.681 26.639 120.547 26.9728 120.583 27.3057L120.61 27.4483L120.611 27.4502C120.611 27.4519 120.612 27.4548 120.613 27.458C120.614 27.4648 120.617 27.4751 120.621 27.4883C120.628 27.5152 120.638 27.5558 120.652 27.6084C120.679 27.7137 120.72 27.8694 120.773 28.0723C120.879 28.4788 121.035 29.0749 121.235 29.8311C121.634 31.3434 122.209 33.4992 122.908 36.0743C124.305 41.224 126.202 48.0543 128.197 54.7696C130.19 61.4785 132.289 68.0972 134.09 72.8125C134.986 75.158 135.83 77.089 136.57 78.3282C136.925 78.9232 137.326 79.4811 137.779 79.8096C138.014 79.9804 138.362 80.1625 138.791 80.1455C139.258 80.127 139.613 79.8841 139.845 79.6065C140.389 78.9555 140.839 77.792 141.206 76.419C141.586 74.9941 141.916 73.1833 142.142 71.1016C142.593 66.9374 142.633 61.627 141.786 56.0508C140.094 44.9189 134.827 32.5313 122.015 26.2979ZM123.124 29.1514C133.685 35.2511 138.26 46.1674 139.808 56.3516C140.627 61.7416 140.588 66.8774 140.154 70.8858C139.936 72.8903 139.623 74.5981 139.274 75.9034C139.045 76.7602 138.815 77.3867 138.618 77.8037C138.524 77.6741 138.411 77.511 138.287 77.3028C137.642 76.2226 136.849 74.4307 135.958 72.0987C134.186 67.4584 132.105 60.901 130.114 54.2002C128.125 47.5059 126.233 40.6922 124.837 35.5508C124.14 32.9805 123.567 30.8281 123.168 29.3194C123.153 29.2625 123.139 29.2064 123.124 29.1514Z" fill="#FFC03F"/>
<path d="M121.572 27.1973C98.5442 30.9396 107.827 82.7075 139.077 78.9652L121.572 27.1973Z" fill="#DE9A06"/>
<path d="M122.486 26.792C122.304 26.38 121.864 26.1366 121.412 26.21C115.213 27.2174 111.226 31.4773 109.255 37.0577C107.294 42.6077 107.291 49.5224 109.003 56.1387C112.415 69.3258 122.864 81.914 139.197 79.958C139.496 79.9222 139.763 79.7536 139.924 79.4991C140.085 79.2443 140.122 78.93 140.025 78.6446L122.519 26.877L122.486 26.792ZM137.727 78.0889C123.502 79.1202 114.133 67.9813 110.939 55.6377C109.303 49.312 109.342 42.8156 111.141 37.7237C112.834 32.9299 116.054 29.4359 120.905 28.3457L137.727 78.0889Z" fill="#CE8D01"/>
<path d="M161.717 31.0048C165.608 29.1076 165.213 69.2023 148.75 70.857C148.75 70.857 157.827 32.902 161.717 31.0048Z" fill="#FFCC43"/>
<path d="M161.388 30.0577C161.646 29.9529 161.939 29.9079 162.246 29.963C162.588 30.0245 162.863 30.1948 163.07 30.3849C163.458 30.7407 163.712 31.2605 163.894 31.7667C164.269 32.8138 164.517 34.339 164.646 36.1271C164.905 39.7326 164.699 44.6981 163.853 49.7638C163.007 54.8219 161.509 60.0601 159.135 64.1661C156.762 68.2692 153.416 71.3928 148.85 71.8517C148.528 71.8839 148.21 71.7585 147.997 71.5148C147.784 71.271 147.702 70.939 147.777 70.6241L147.778 70.6222C147.779 70.621 147.779 70.6193 147.779 70.6173C147.78 70.6126 147.782 70.605 147.784 70.5958C147.789 70.5773 147.795 70.5497 147.804 70.5138C147.821 70.4415 147.847 70.334 147.881 70.1944C147.949 69.915 148.049 69.5051 148.177 68.9835C148.433 67.9398 148.803 66.4472 149.26 64.6505C150.173 61.0575 151.431 56.2447 152.812 51.3702C154.192 46.5 155.699 41.5489 157.11 37.6886C157.815 35.7615 158.505 34.0805 159.152 32.8087C159.475 32.174 159.8 31.6164 160.124 31.1739C160.43 30.756 160.812 30.3334 161.279 30.1056L161.388 30.0577ZM161.737 32.3566C161.501 32.6785 161.232 33.1315 160.935 33.7159C160.341 34.8828 159.683 36.4775 158.989 38.3751C157.604 42.165 156.113 47.0595 154.737 51.9151C153.363 56.7663 152.109 61.5609 151.198 65.1437C150.743 66.9345 150.374 68.4218 150.119 69.461C150.108 69.5076 150.096 69.553 150.085 69.5978C153.077 68.794 155.491 66.4715 157.403 63.1642C159.611 59.3464 161.055 54.3688 161.88 49.4337C162.703 44.5064 162.897 39.7008 162.65 36.2706C162.526 34.5407 162.294 33.2314 162.011 32.4425C161.971 32.3311 161.931 32.2366 161.894 32.1564C161.846 32.2132 161.794 32.2798 161.737 32.3566Z" fill="#FFC03F"/>
<path d="M161.875 30.9396C136.236 43.1217 146.033 66.8446 149.265 70.624C152.498 74.4035 161.875 30.9396 161.875 30.9396Z" fill="#DE9A06"/>
<path d="M161.446 30.0362C161.79 29.8729 162.198 29.9189 162.496 30.1554C162.795 30.392 162.933 30.778 162.853 31.1505L161.875 30.9396C162.853 31.1505 162.853 31.1501 162.853 31.1505L162.852 31.1525C162.851 31.1538 162.851 31.1558 162.851 31.1583C162.849 31.1637 162.848 31.1722 162.846 31.1827C162.841 31.2038 162.834 31.2352 162.825 31.2765C162.807 31.3591 162.781 31.4815 162.746 31.6407C162.676 31.9591 162.574 32.4252 162.442 33.0167C162.179 34.2001 161.8 35.8865 161.334 37.8976C160.403 41.9186 159.127 47.2447 157.749 52.4552C156.374 57.6566 154.888 62.7766 153.535 66.3702C152.866 68.149 152.199 69.6348 151.561 70.5685C151.258 71.0103 150.861 71.483 150.35 71.713C150.063 71.8417 149.713 71.9064 149.34 71.8116C148.975 71.719 148.7 71.5022 148.505 71.2735C147.579 70.1912 146.31 67.8648 145.316 64.8556C144.314 61.8198 143.562 57.9969 143.744 53.8888C144.112 45.5972 148.289 36.2878 161.446 30.0362ZM160.444 32.7804C149.446 38.6609 146.06 46.8059 145.742 53.9767C145.573 57.7944 146.273 61.3728 147.216 64.2286C148.055 66.7709 149.063 68.6701 149.763 69.6368C149.806 69.5822 149.856 69.5182 149.91 69.4396C150.403 68.7197 150.999 67.4294 151.663 65.6651C152.978 62.1723 154.443 57.1353 155.815 51.9435C157.186 46.7606 158.456 41.4567 159.385 37.4464C159.823 35.5515 160.185 33.946 160.444 32.7804Z" fill="#CE8D01"/>
<path d="M134.88 96.6222C110.088 84.56 114.255 48.5965 117.381 44.8543C120.507 41.112 134.88 96.6222 134.88 96.6222Z" fill="#FFCC43"/>
<path d="M134.443 97.5216C134.794 97.692 135.212 97.6434 135.514 97.3966C135.778 97.1805 135.911 96.8467 135.875 96.5138L135.849 96.3712L135.848 96.3692C135.847 96.3676 135.847 96.3647 135.846 96.3614C135.844 96.3547 135.841 96.3444 135.838 96.3312C135.831 96.3043 135.82 96.2637 135.807 96.211C135.779 96.1058 135.739 95.9501 135.686 95.7472C135.579 95.3407 135.423 94.7446 135.224 93.9884C134.824 92.4761 134.25 90.3203 133.551 87.7452C132.153 82.5955 130.257 75.7652 128.262 69.0499C126.268 62.341 124.17 55.7223 122.368 51.0069C121.472 48.6615 120.628 46.7305 119.889 45.4913C119.533 44.8963 119.132 44.3384 118.68 44.0099C118.444 43.8391 118.096 43.657 117.667 43.6739C117.2 43.6925 116.845 43.9354 116.613 44.213C116.07 44.864 115.62 46.0275 115.253 47.4005C114.872 48.8254 114.542 50.6362 114.316 52.7179C113.865 56.8821 113.825 62.1925 114.673 67.7687C116.365 78.9006 121.631 91.2882 134.443 97.5216ZM133.334 94.6681C122.773 88.5684 118.198 77.6521 116.65 67.4679C115.831 62.0779 115.87 56.942 116.305 52.9337C116.522 50.9292 116.836 49.2214 117.185 47.9161C117.413 47.0593 117.643 46.4328 117.841 46.0157C117.935 46.1454 118.048 46.3085 118.172 46.5167C118.817 47.5969 119.609 49.3888 120.5 51.7208C122.273 56.361 124.354 62.9185 126.345 69.6192C128.334 76.3136 130.226 83.1272 131.621 88.2687C132.319 90.839 132.891 92.9914 133.29 94.5001C133.305 94.557 133.319 94.613 133.334 94.6681Z" fill="#FFC03F"/>
<path d="M134.886 96.6222C157.914 92.8799 148.631 41.112 117.381 44.8543L134.886 96.6222Z" fill="#DE9A06"/>
<path d="M133.972 97.0275C134.155 97.4395 134.594 97.6829 135.046 97.6095C141.245 96.6021 145.232 92.3422 147.204 86.7618C149.164 81.2117 149.168 74.2971 147.456 67.6808C144.043 54.4936 133.595 41.9055 117.261 43.8614C116.962 43.8973 116.695 44.0658 116.535 44.3204C116.374 44.5752 116.337 44.8895 116.433 45.1749L133.939 96.9425L133.972 97.0275ZM118.732 45.7306C132.957 44.6993 142.325 55.8382 145.519 68.1817C147.156 74.5074 147.117 81.0039 145.318 86.0958C143.624 90.8896 140.405 94.3836 135.553 95.4737L118.732 45.7306Z" fill="#CE8D01"/>
<path d="M51.25 28.3254C63.3371 3.58405 99.375 7.74286 103.125 10.8622C106.875 13.9815 51.25 28.3254 51.25 28.3254Z" fill="#FFCC43"/>
<path d="M50.3516 27.8864C50.1803 28.237 50.2289 28.6554 50.4756 28.9577C50.6915 29.2221 51.0244 29.356 51.3574 29.32L51.5 29.2936L51.502 29.2927L51.541 29.2829C51.5679 29.2759 51.6078 29.2662 51.6602 29.2526C51.7657 29.2253 51.9223 29.1845 52.126 29.1315C52.5333 29.0255 53.1301 28.869 53.8877 28.6696C55.4031 28.2708 57.5633 27.698 60.1436 27.0007C65.3039 25.6061 72.1488 23.7134 78.8779 21.7223C85.6005 19.7333 92.2322 17.6391 96.957 15.8415C99.3074 14.9473 101.242 14.1058 102.483 13.3678C103.08 13.0135 103.639 12.6129 103.969 12.1608C104.14 11.9259 104.323 11.5772 104.306 11.1471C104.287 10.679 104.042 10.3245 103.765 10.0934C103.113 9.55118 101.948 9.10198 100.572 8.73601C99.1447 8.35622 97.33 8.02657 95.2441 7.80144C91.0719 7.35115 85.7511 7.3114 80.1641 8.15691C69.011 9.84481 56.5983 15.0998 50.3516 27.8864ZM53.207 26.78C59.3194 16.2447 70.2581 11.6789 80.4639 10.1344C85.8657 9.317 91.0132 9.35615 95.0303 9.78972C97.0389 10.0065 98.7495 10.3206 100.058 10.6686C100.914 10.8965 101.542 11.1248 101.96 11.3219C101.831 11.4148 101.668 11.5255 101.462 11.6481C100.379 12.2917 98.5831 13.0832 96.2461 13.9723C91.596 15.7415 85.0243 17.8176 78.3096 19.8044C71.6014 21.7892 64.7741 23.6777 59.6221 25.07C57.0464 25.7661 54.8898 26.3382 53.3779 26.736C53.3201 26.7512 53.263 26.7653 53.207 26.78Z" fill="#FFC03F"/>
<path d="M51.25 28.3311C55 51.3117 106.875 42.0477 103.125 10.8622L51.25 28.3311Z" fill="#DE9A06"/>
<path d="M50.8457 27.4162C50.4327 27.5983 50.1888 28.0394 50.2627 28.4923C51.2726 34.6809 55.5429 38.6586 61.1328 40.6251C66.6931 42.5813 73.6209 42.5853 80.25 40.8771C93.4607 37.4728 106.079 27.0466 104.118 10.7423C104.082 10.4436 103.914 10.1764 103.659 10.0158C103.405 9.8551 103.091 9.81815 102.806 9.9142L50.9307 27.383L50.8457 27.4162ZM102.249 12.2111C103.282 26.402 92.1225 35.7524 79.75 38.9406C73.4106 40.574 66.9005 40.5338 61.7969 38.7384C56.9921 37.0481 53.4921 33.8359 52.3994 28.9982L102.249 12.2111Z" fill="#CE8D01"/>
<path d="M98.6304 35.9292C73.8379 47.9914 78.0053 83.9549 81.1311 87.6972C84.2568 91.4394 98.6304 35.9292 98.6304 35.9292Z" fill="#FFCC43"/>
<path d="M98.1934 35.0298C98.544 34.8594 98.9619 34.9081 99.2637 35.1548C99.5279 35.371 99.6614 35.7047 99.625 36.0376L99.5986 36.1802L99.5977 36.1822C99.5972 36.1839 99.5965 36.1867 99.5957 36.19C99.594 36.1967 99.5913 36.207 99.5879 36.2203C99.5809 36.2471 99.5703 36.2877 99.5566 36.3404C99.5293 36.4456 99.4886 36.6014 99.4355 36.8042C99.3293 37.2107 99.1734 37.8068 98.9736 38.563C98.574 40.0754 97.9996 42.2311 97.3008 44.8062C95.9033 49.9559 94.0069 56.7862 92.0117 63.5015C90.0185 70.2104 87.9196 76.8291 86.1182 81.5445C85.2221 83.89 84.3783 85.8209 83.6387 87.0601C83.2835 87.6552 82.8824 88.213 82.4297 88.5415C82.1943 88.7123 81.8461 88.8944 81.417 88.8775C80.9501 88.8589 80.5951 88.616 80.3633 88.3384C79.8196 87.6874 79.3697 86.5239 79.0029 85.1509C78.6223 83.726 78.292 81.9153 78.0664 79.8335C77.6151 75.6694 77.5755 70.3589 78.4229 64.7828C80.1145 53.6508 85.3812 41.2633 98.1934 35.0298ZM97.084 37.8833C86.5233 43.983 81.948 54.8993 80.4004 65.0835C79.5813 70.4736 79.6203 75.6094 80.0547 79.6177C80.2719 81.6222 80.5859 83.3301 80.9346 84.6353C81.1635 85.4921 81.3931 86.1186 81.5908 86.5357C81.6846 86.406 81.7976 86.243 81.9219 86.0347C82.5666 84.9546 83.3591 83.1627 84.25 80.8306C86.0227 76.1904 88.1039 69.6329 90.0947 62.9322C92.0836 56.2379 93.9759 49.4242 95.3711 44.2828C96.0686 41.7124 96.6414 39.5601 97.04 38.0513C97.0551 37.9944 97.0695 37.9384 97.084 37.8833Z" fill="#FFC03F"/>
<path d="M98.6361 35.9292C121.664 39.6715 112.381 91.4394 81.1311 87.6972L98.6361 35.9292Z" fill="#DE9A06"/>
<path d="M97.7222 35.524C97.9045 35.1119 98.3442 34.8685 98.7964 34.9419C104.995 35.9493 108.982 40.2092 110.954 45.7896C112.914 51.3397 112.918 58.2544 111.206 64.8707C107.793 78.0578 97.3447 90.646 81.0112 88.69C80.7123 88.6541 80.4454 88.4856 80.2847 88.231C80.1239 87.9762 80.0866 87.6619 80.1831 87.3765L97.689 35.6089L97.7222 35.524ZM82.4819 86.8208C96.7067 87.8521 106.075 76.7132 109.269 64.3697C110.906 58.044 110.867 51.5476 109.068 46.4556C107.374 41.6618 104.155 38.1678 99.3032 37.0777L82.4819 86.8208Z" fill="#CE8D01"/>
<path d="M78.6304 14.7231C53.8379 26.7853 58.0053 62.7488 61.1311 66.491C64.2568 70.2333 78.6304 14.7231 78.6304 14.7231Z" fill="#FFCC43"/>
<path d="M78.1934 13.8237C78.544 13.6533 78.9619 13.7019 79.2637 13.9487C79.5279 14.1648 79.6614 14.4986 79.625 14.8315L79.5986 14.9741L79.5977 14.976C79.5972 14.9777 79.5965 14.9806 79.5957 14.9839C79.594 14.9906 79.5913 15.0009 79.5879 15.0141C79.5809 15.041 79.5703 15.0816 79.5566 15.1342C79.5293 15.2395 79.4886 15.3952 79.4355 15.5981C79.3293 16.0046 79.1734 16.6007 78.9736 17.3569C78.574 18.8692 77.9996 21.025 77.3008 23.6001C75.9033 28.7498 74.0069 35.5801 72.0117 42.2954C70.0185 49.0043 67.9196 55.623 66.1182 60.3383C65.2221 62.6838 64.3783 64.6148 63.6387 65.854C63.2835 66.449 62.8824 67.0069 62.4297 67.3354C62.1943 67.5062 61.8461 67.6883 61.417 67.6713C60.9501 67.6528 60.5951 67.4099 60.3633 67.1323C59.8196 66.4813 59.3697 65.3178 59.0029 63.9448C58.6223 62.5199 58.292 60.7091 58.0664 58.6274C57.6151 54.4632 57.5755 49.1528 58.4229 43.5766C60.1145 32.4447 65.3812 20.0571 78.1934 13.8237ZM77.084 16.6772C66.5233 22.7769 61.948 33.6932 60.4004 43.8774C59.5813 49.2674 59.6203 54.4033 60.0547 58.4116C60.2719 60.4161 60.5859 62.1239 60.9346 63.4292C61.1635 64.286 61.3931 64.9125 61.5908 65.3296C61.6846 65.1999 61.7976 65.0368 61.9219 64.8286C62.5666 63.7484 63.3591 61.9565 64.25 59.6245C66.0227 54.9842 68.1039 48.4268 70.0947 41.726C72.0836 35.0317 73.9759 28.2181 75.3711 23.0766C76.0686 20.5063 76.6414 18.3539 77.04 16.8452C77.0551 16.7883 77.0695 16.7322 77.084 16.6772Z" fill="#FFC03F"/>
<path d="M78.6361 14.7231C101.664 18.4654 92.3811 70.2333 61.1311 66.491L78.6361 14.7231Z" fill="#DE9A06"/>
<path d="M77.7222 14.3178C77.9045 13.9058 78.3442 13.6624 78.7964 13.7358C84.9953 14.7432 88.9823 19.0031 90.9536 24.5835C92.9142 30.1336 92.9175 37.0482 91.2056 43.6645C87.7933 56.8517 77.3447 69.4398 61.0112 67.4838C60.7123 67.448 60.4454 67.2794 60.2847 67.0249C60.1239 66.7701 60.0866 66.4558 60.1831 66.1704L77.689 14.4028L77.7222 14.3178ZM62.4819 65.6147C76.7067 66.646 86.0751 55.5071 89.269 43.1635C90.9058 36.8379 90.8666 30.3414 89.0679 25.2495C87.3743 20.4557 84.1546 16.9617 79.3032 15.8715L62.4819 65.6147Z" fill="#CE8D01"/>
<path d="M26.25 50.779C38.3371 26.0376 74.375 30.1964 78.125 33.3157C81.875 36.435 26.25 50.779 26.25 50.779Z" fill="#FFCC43"/>
<path d="M25.3516 50.34C25.1803 50.6906 25.2289 51.1089 25.4756 51.4112C25.6915 51.6756 26.0245 51.8096 26.3574 51.7735L26.5 51.7472L26.502 51.7462L26.541 51.7364C26.5679 51.7295 26.6078 51.7197 26.6602 51.7062C26.7657 51.6788 26.9223 51.6381 27.126 51.5851C27.5333 51.479 28.1301 51.3225 28.8877 51.1232C30.4031 50.7244 32.5633 50.1515 35.1436 49.4542C40.3039 48.0596 47.1488 46.1669 53.8779 44.1759C60.6005 42.1868 67.2322 40.0926 71.957 38.295C74.3074 37.4008 76.2419 36.5593 77.4834 35.8214C78.0796 35.467 78.6393 35.0664 78.9688 34.6144C79.1398 34.3795 79.3227 34.0308 79.3057 33.6007C79.287 33.1326 79.0424 32.778 78.7646 32.547C78.1128 32.0047 76.9478 31.5555 75.5723 31.1896C74.1447 30.8098 72.33 30.4801 70.2441 30.255C66.0719 29.8047 60.7511 29.7649 55.1641 30.6105C44.011 32.2984 31.5983 37.5534 25.3516 50.34ZM28.207 49.2335C34.3194 38.6983 45.2581 34.1325 55.4639 32.588C60.8657 31.7705 66.0132 31.8097 70.0303 32.2433C72.0389 32.4601 73.7495 32.7742 75.0576 33.1222C75.9141 33.3501 76.5416 33.5784 76.96 33.7755C76.8307 33.8684 76.6681 33.9791 76.4619 34.1017C75.3792 34.7452 73.5831 35.5367 71.2461 36.4259C66.596 38.195 60.0243 40.2712 53.3096 42.2579C46.6014 44.2427 39.7741 46.1312 34.6221 47.5235C32.0464 48.2196 29.8898 48.7917 28.3779 49.1896C28.3201 49.2048 28.263 49.2188 28.207 49.2335Z" fill="#FFC03F"/>
<path d="M26.25 50.7846C30 73.7652 81.875 64.5012 78.125 33.3157L26.25 50.7846Z" fill="#DE9A06"/>
<path d="M25.8457 49.8697C25.4327 50.0519 25.1888 50.4929 25.2627 50.9459C26.2726 57.1345 30.5429 61.1121 36.1328 63.0787C41.6931 65.0348 48.6209 65.0388 55.25 63.3306C68.4607 59.9264 81.0786 49.5002 79.1182 33.1959C79.0822 32.8972 78.9136 32.63 78.6592 32.4693C78.4047 32.3087 78.0909 32.2717 77.8057 32.3678L25.9307 49.8365L25.8457 49.8697ZM77.249 34.6646C78.2818 48.8556 67.1225 58.206 54.75 61.3941C48.4106 63.0276 41.9005 62.9874 36.7969 61.192C31.9921 59.5016 28.4921 56.2894 27.3994 51.4517L77.249 34.6646Z" fill="#CE8D01"/>
<path d="M64.078 92.8799C88.8705 80.8178 84.7031 44.8543 81.5774 41.112C78.4516 37.3698 64.078 92.8799 64.078 92.8799Z" fill="#FFCC43"/>
<path d="M64.5151 93.7793C64.1645 93.9497 63.7466 93.9011 63.4448 93.6543C63.1806 93.4382 63.0471 93.1045 63.0834 92.7715L63.1098 92.6289L63.1108 92.627C63.1112 92.6253 63.1119 92.6225 63.1127 92.6192C63.1145 92.6124 63.1171 92.6021 63.1205 92.5889C63.1275 92.5621 63.1381 92.5214 63.1518 92.4688C63.1792 92.3636 63.2199 92.2078 63.2729 92.0049C63.3791 91.5985 63.535 91.0023 63.7348 90.2461C64.1344 88.7338 64.7089 86.578 65.4077 84.003C66.8051 78.8532 68.7016 72.0229 70.6967 65.3077C72.69 58.5988 74.7889 51.98 76.5903 47.2647C77.4863 44.9192 78.3302 42.9882 79.0698 41.7491C79.425 41.154 79.826 40.5962 80.2787 40.2676C80.5141 40.0968 80.8623 39.9147 81.2914 39.9317C81.7583 39.9502 82.1133 40.1931 82.3452 40.4707C82.8889 41.1217 83.3387 42.2852 83.7055 43.6582C84.0862 45.0831 84.4164 46.8939 84.642 48.9756C85.0933 53.1398 85.1329 58.4502 84.2856 64.0264C82.5939 75.1584 77.3272 87.5459 64.5151 93.7793ZM65.6245 90.9258C76.1852 84.8262 80.7604 73.9099 82.308 63.7256C83.1271 58.3356 83.0881 53.1998 82.6537 49.1914C82.4365 47.1869 82.1226 45.4791 81.7739 44.1739C81.545 43.317 81.3154 42.6906 81.1176 42.2735C81.0238 42.4031 80.9108 42.5662 80.7866 42.7744C80.1419 43.8546 79.3494 45.6465 78.4584 47.9785C76.6857 52.6188 74.6045 59.1763 72.6137 65.877C70.6248 72.5713 68.7326 79.385 67.3373 84.5264C66.6398 87.0967 66.0671 89.2491 65.6684 90.7579C65.6534 90.8147 65.639 90.8708 65.6245 90.9258Z" fill="#FFC03F"/>
<path d="M64.0723 92.8799C41.0442 89.1377 50.3274 37.3698 81.5774 41.112L64.0723 92.8799Z" fill="#DE9A06"/>
<path d="M64.9863 93.2852C64.8039 93.6972 64.3643 93.9406 63.912 93.8672C57.7132 92.8599 53.7262 88.5999 51.7548 83.0196C49.7942 77.4695 49.7909 70.5548 51.5029 63.9385C54.9151 50.7514 65.3638 38.1632 81.6972 40.1192C81.9961 40.155 82.2631 40.3236 82.4238 40.5782C82.5845 40.833 82.6218 41.1473 82.5253 41.4327L65.0195 93.2002L64.9863 93.2852ZM80.2265 41.9883C66.0017 40.957 56.6334 52.096 53.4394 64.4395C51.8026 70.7652 51.8418 77.2616 53.6406 82.3536C55.3341 87.1474 58.5539 90.6414 63.4052 91.7315L80.2265 41.9883Z" fill="#CE8D01"/>
<path d="M106.25 88.3209C90.6615 72.3906 93.2818 24.8942 95.2471 19.9519C97.2125 15.0096 106.25 88.3209 106.25 88.3209Z" fill="#FFCC43"/>
<path d="M105.535 89.0201C105.835 89.3266 106.297 89.4081 106.684 89.2222C107.07 89.0363 107.295 88.6244 107.242 88.1988L106.25 88.3209C107.183 88.2059 107.239 88.1997 107.242 88.1988C107.242 88.1982 107.242 88.196 107.242 88.1949C107.242 88.1927 107.242 88.1894 107.241 88.1851C107.24 88.1762 107.239 88.1627 107.236 88.1451C107.232 88.1098 107.225 88.0572 107.217 87.9879C107.2 87.8492 107.174 87.6435 107.141 87.3756C107.074 86.8394 106.975 86.0532 106.85 85.0552C106.599 83.0594 106.238 80.2139 105.799 76.815C104.921 70.0172 103.729 61.0035 102.476 52.1431C101.223 43.2863 99.9067 34.5692 98.7793 28.3707C98.2172 25.28 97.6957 22.7792 97.2461 21.1968C97.0324 20.445 96.7999 19.768 96.5303 19.357C96.4572 19.2456 96.3473 19.0989 96.1904 18.9742C96.0312 18.8477 95.7459 18.6849 95.3682 18.7164C94.9851 18.7484 94.7273 18.9616 94.5869 19.1246C94.4513 19.282 94.3696 19.4537 94.3184 19.5826C94.0197 20.3337 93.7524 21.736 93.5244 23.5289C93.2912 25.3622 93.0865 27.7115 92.9463 30.4283C92.6659 35.8622 92.6418 42.8021 93.1689 50.0884C93.6959 57.3712 94.7756 65.0286 96.7158 71.8853C98.6512 78.7249 101.469 84.865 105.535 89.0201ZM104.837 85.0914C102.182 81.4512 100.155 76.6925 98.6406 71.3404C96.7494 64.6569 95.684 57.1442 95.1631 49.9439C94.6424 42.7473 94.6668 35.8903 94.9434 30.5308C95.0816 27.8512 95.2824 25.554 95.5078 23.7818C95.5467 23.4763 95.5876 23.189 95.627 22.9205C95.9797 24.3804 96.3801 26.3561 96.8115 28.7281C97.9314 34.8854 99.2429 43.5703 100.495 52.4234C101.747 61.2727 102.938 70.2774 103.815 77.0709C104.239 80.3477 104.587 83.1102 104.837 85.0914Z" fill="#FFC03F"/>
<path d="M106.544 88.3209C121.73 83.3797 115.608 15.027 95 19.9681L106.544 88.3209Z" fill="#DE9A06"/>
<path d="M106.026 89.1763C106.275 89.3269 106.577 89.3619 106.854 89.272C109.095 88.5427 110.827 86.6836 112.136 84.234C113.449 81.7751 114.4 78.606 115.03 75.0347C116.291 67.8867 116.3 58.9288 115.187 50.3101C114.074 41.7014 111.828 33.3265 108.507 27.3814C105.212 21.483 100.604 17.596 94.7666 18.9957C94.2554 19.1184 93.9263 19.616 94.0137 20.1343L105.559 88.4879L105.582 88.5933C105.651 88.8356 105.809 89.0446 106.026 89.1763ZM96.1504 20.7759C100.233 20.2729 103.806 23.067 106.761 28.357C109.909 33.9926 112.107 42.0881 113.203 50.567C114.298 59.0363 114.279 67.7847 113.061 74.6881C112.451 78.1423 111.549 81.086 110.371 83.2916C109.469 84.9814 108.44 86.1715 107.312 86.8658L96.1504 20.7759Z" fill="#CE8D01"/>
<path d="M24.8848 109.417L0 37.1767H24.8848C74.6544 67.9372 136.406 67.4711 177.88 37.1767H200L177.88 109.417C173.691 116.012 169.599 118.837 158.525 122.001H47.9263C31.7903 119.729 27.6542 116.642 24.8848 109.417Z" fill="#F35743"/>
</svg>
