<svg width="200" height="200" viewBox="0 0 200 200" fill="none" xmlns="http://www.w3.org/2000/svg">
<path d="M140.636 151.613C109.011 165.193 90.4873 165.057 58.3566 151.594C57.6954 151.317 56.9507 151.796 56.9507 152.513V167.401C56.9507 167.868 57.2899 168.277 57.7459 168.379C96.9341 177.203 105.613 177.207 141.277 168.392C141.723 168.281 142.05 167.877 142.05 167.418V152.528C142.05 151.807 141.298 151.328 140.636 151.613Z" fill="#F4B13B" stroke="#EDA733"/>
<path d="M182.853 82.3691H16.1487C15.5417 82.3691 15.076 82.9162 15.161 83.5173C19.7052 115.647 25.3636 132.266 56.796 155.55C56.8962 155.624 57.0148 155.682 57.1352 155.714C93.4944 165.516 114.102 166.309 141.493 155.706C141.564 155.679 141.635 155.641 141.698 155.598C170.839 135.665 178.84 118.84 183.84 83.5177C183.925 82.917 183.46 82.3691 182.853 82.3691Z" fill="#BC3621" stroke="#BE3621"/>
<ellipse cx="99.5004" cy="82.3689" rx="84.5004" ry="33.8489" fill="#CE442D"/>
<ellipse cx="99.5003" cy="81.7648" rx="80.9046" ry="29.6178" fill="#A92D1B"/>
<ellipse cx="99.5005" cy="89.0178" rx="77.3089" ry="22.3645" fill="#B9591E"/>
<ellipse cx="19.6171" cy="27.03" rx="19.6171" ry="27.03" transform="matrix(0.637367 -0.77056 0.765166 0.643833 20.9929 85.0415)" fill="#FFEFD0"/>
<path d="M78.7515 99.7863C71.346 111.16 56.5319 109.952 44.25 99.418C31.9681 88.8843 26.7316 77.3869 32.3795 68.7114C38.0274 60.036 48.5604 62.6665 64.7415 68.7116C81.5215 77.1733 86.6941 87.5874 78.7515 99.7863Z" fill="#FFF9EC"/>
<ellipse cx="16.5765" cy="13.1801" rx="16.5765" ry="13.1801" transform="matrix(0.83629 0.548288 -0.54173 0.840553 54.4502 68.1064)" fill="#FCBF48"/>
<path d="M165.367 99.8142C153.924 82.6142 144.589 80.4491 125.445 83.4633C125.393 83.4715 125.341 83.4374 125.33 83.3853L124.094 77.5003C124.082 77.4436 124.122 77.3885 124.179 77.3805C147.682 74.0916 158.312 77.3963 171.949 95.5791C171.984 95.6256 171.973 95.6934 171.925 95.7247L165.506 99.8447C165.46 99.8742 165.397 99.8597 165.367 99.8142Z" fill="#E18C32" stroke="#E69737"/>
<path d="M73.9838 110.354C57.9549 109.618 49.8178 106.928 36.5745 102.92C36.5745 102.92 44.1416 108.161 52.1561 109.569C60.1706 110.977 79.5548 111.877 73.9838 110.354Z" fill="#DB4E32" stroke="#D2452D"/>
<ellipse cx="76.128" cy="101.107" rx="7.19152" ry="5.44" fill="#6C7C3A"/>
<ellipse cx="94.706" cy="99.2936" rx="6.59223" ry="4.83556" fill="#6C7C3A"/>
<path d="M106.141 87.008L97.9974 85.2479C97.9198 85.2312 97.8923 85.1344 97.9483 85.0782C100.01 83.0092 100.909 81.4101 100.215 75.5456C100.215 75.5406 100.214 75.5353 100.212 75.5304C98.8069 70.462 97.7577 67.6569 94.8207 62.8445C90.5277 54.0817 91.226 50.7539 93.6221 44.7111C96.0181 38.6684 102.011 41.6904 101.413 45.3156C100.829 48.8541 100.814 52.3955 100.814 52.5628C100.814 52.5681 100.814 52.5719 100.815 52.5772C101.727 58.21 102.615 56.1994 106.807 67.0756C110.988 77.9241 110.46 80.7459 106.246 86.9654C106.223 86.9992 106.181 87.0167 106.141 87.008Z" fill="#ED9E38" stroke="#E69737"/>
<path d="M151.595 104.677C143.171 94.0287 136.225 91.4631 121.254 93.8549C121.176 93.8672 121.113 93.791 121.142 93.7187L123.753 87.3145C123.768 87.2778 123.804 87.2534 123.843 87.2523C142.16 86.7238 149.888 90.5176 158.746 102.203C158.787 102.258 158.764 102.338 158.699 102.36L151.706 104.711C151.666 104.725 151.621 104.711 151.595 104.677Z" fill="#EB9A39" stroke="#E69737"/>
<path d="M87.4138 72.9546C85.1806 74.0214 83.5352 71.8876 84.9457 69.7539C86.3563 67.6201 159.152 6.89537 162.753 5.98031C166.353 5.06526 170.187 8.5701 167.806 12.9744C165.425 17.3786 89.6471 71.8877 87.4138 72.9546Z" fill="#65361F" stroke="#6F3923"/>
<path d="M93.1746 76.3305C90.7773 76.935 89.5787 74.5172 91.3767 72.7039C93.1748 70.8905 176.364 25.7424 180.072 25.5572C183.781 25.372 186.859 29.5671 183.668 33.415C180.477 37.2628 95.5719 75.7261 93.1746 76.3305Z" fill="#65361F" stroke="#6F3923"/>
<path d="M115.441 44.3384C115.771 39.189 110.842 38.0983 107.051 44.3384C103.259 50.5785 111.694 66.5048 115.441 71.5385C119.187 76.5721 117.667 79.8641 115.441 84.2318C112.653 88.002 111.639 90.258 113.043 95.1118C116.743 95.6007 118.697 95.4207 122.033 94.5073C122.221 92.4351 122.361 91.2363 122.632 89.0673C128.225 76.4882 125.84 70.7911 119.036 61.2629C117.709 61.0045 115.11 49.4878 115.441 44.3384Z" fill="#EDAA46" stroke="#F2AA46"/>
</svg>
