<svg width="200" height="200" viewBox="0 0 200 200" fill="none" xmlns="http://www.w3.org/2000/svg">
<path d="M140.636 151.613C109.011 165.193 90.4876 165.057 58.3569 151.594C57.6957 151.317 56.951 151.796 56.951 152.513V167.401C56.951 167.868 57.2902 168.277 57.7462 168.38C96.9344 177.203 105.613 177.207 141.277 168.392C141.723 168.282 142.051 167.878 142.051 167.418V152.528C142.051 151.807 141.299 151.328 140.636 151.613Z" fill="#F4B13B"/>
<path d="M56.451 167.401V152.513C56.451 151.426 57.571 150.723 58.5496 151.133C74.5867 157.853 87.1811 161.225 99.6873 161.244C112.192 161.263 124.658 157.93 140.439 151.154C141.42 150.733 142.551 151.436 142.551 152.529V167.418C142.55 168.116 142.058 168.714 141.397 168.877C123.564 173.285 112.425 175.502 100.833 175.5C89.2445 175.498 77.228 173.279 57.6365 168.867C56.9614 168.715 56.451 168.111 56.451 167.401ZM57.451 167.401C57.451 167.625 57.6193 167.838 57.8562 167.892C77.4523 172.304 89.369 174.498 100.833 174.5C112.293 174.502 123.327 172.314 141.157 167.906C141.388 167.849 141.55 167.639 141.551 167.418V152.529C141.551 152.18 141.178 151.925 140.834 152.072C124.99 158.876 112.381 162.264 99.6853 162.244C86.9909 162.225 74.2574 158.798 58.1639 152.055C57.8202 151.911 57.451 152.166 57.451 152.513V167.401Z" fill="#EDA733"/>
<path d="M182.853 82.3694H16.149C15.542 82.3694 15.0763 82.9164 15.1613 83.5175C19.7055 115.647 25.3639 132.266 56.7963 155.55C56.8965 155.624 57.0151 155.682 57.1355 155.714C93.4947 165.516 114.103 166.31 141.493 155.706C141.564 155.679 141.635 155.642 141.698 155.598C170.839 135.665 178.84 118.84 183.84 83.5179C183.925 82.9172 183.46 82.3694 182.853 82.3694Z" fill="#BC3621"/>
<path d="M182.854 81.8694C183.771 81.8697 184.462 82.6936 184.335 83.5881C181.833 101.268 178.571 114.379 172.257 125.574C165.939 136.777 156.588 146.019 141.981 156.011C141.886 156.076 141.781 156.131 141.673 156.173C127.93 161.493 115.868 163.961 102.674 163.863C89.4903 163.764 75.2001 161.101 57.0052 156.197C56.8241 156.148 56.6484 156.063 56.4983 155.951C40.749 144.285 31.4136 134.257 25.4544 123.086C19.4988 111.922 16.9396 99.66 14.6663 83.5871C14.5399 82.6918 15.2314 81.8696 16.1487 81.8694H182.854ZM16.1487 82.8694C15.8523 82.8696 15.6132 83.141 15.6565 83.4475C17.9275 99.5041 20.4695 111.616 26.3372 122.615C32.2013 133.608 41.4112 143.531 57.094 155.149C57.1442 155.186 57.2064 155.216 57.2659 155.232C75.4299 160.128 89.6235 162.765 102.681 162.863C115.729 162.96 127.666 160.523 141.313 155.24C141.348 155.227 141.385 155.207 141.416 155.186C155.95 145.245 165.17 136.107 171.387 125.083C177.608 114.052 180.848 101.089 183.345 83.4475C183.388 83.141 183.149 82.8697 182.854 82.8694H16.1487Z" fill="#BE3621"/>
<path d="M184.001 82.3692C184.001 101.063 146.169 116.218 99.5007 116.218C52.8324 116.218 15.0003 101.063 15.0003 82.3692C15.0003 63.6749 52.8324 48.5202 99.5007 48.5202C146.169 48.5202 184.001 63.6749 184.001 82.3692Z" fill="#CE442D"/>
<path d="M180.405 81.765C180.405 98.1225 144.183 111.383 99.5006 111.383C54.8182 111.383 18.596 98.1225 18.596 81.765C18.596 65.4075 54.8182 52.1472 99.5006 52.1472C144.183 52.1472 180.405 65.4075 180.405 81.765Z" fill="#A92D1B"/>
<path d="M176.81 89.018C176.81 101.37 142.197 111.383 99.5006 111.383C56.8041 111.383 22.1919 101.37 22.1919 89.018C22.1919 76.6665 56.8043 66.6535 99.5008 66.6535C142.197 66.6535 176.81 76.6665 176.81 89.018Z" fill="#B9591E"/>
<path d="M66.6823 72.212C78.1048 81.8232 81.7667 96.3825 74.8613 104.731C67.9559 113.079 53.0982 112.056 41.6756 102.444C30.253 92.833 26.5911 78.2738 33.4965 69.9254C40.4019 61.5769 55.2597 62.6007 66.6823 72.212Z" fill="#FFEFD0"/>
<path d="M78.7518 99.7867C71.3463 111.161 56.5322 109.952 44.2503 99.4185C31.9684 88.8848 26.7319 77.3873 32.3798 68.7119C38.0278 60.0365 48.5608 62.667 64.7418 68.712C81.5218 77.1738 86.6944 87.5879 78.7518 99.7867Z" fill="#FFF9EC"/>
<path d="M75.0359 97.3629C71.0926 103.481 61.6893 104.372 54.0331 99.3528C46.3769 94.3332 43.3671 85.304 47.3104 79.1855C51.2538 73.067 60.657 72.1761 68.3132 77.1956C75.9694 82.2151 78.9793 91.2443 75.0359 97.3629Z" fill="#FCBF48"/>
<path d="M165.367 99.8144C153.925 82.6145 144.589 80.4493 125.446 83.4635C125.393 83.4718 125.342 83.4376 125.331 83.3855L124.094 77.5005C124.082 77.4439 124.122 77.3887 124.18 77.3807C147.682 74.0918 158.312 77.3966 171.95 95.5793C171.985 95.6258 171.974 95.6936 171.925 95.7249L165.506 99.8449C165.46 99.8744 165.398 99.8599 165.367 99.8144Z" fill="#E18C32"/>
<path d="M124.11 76.8855C135.882 75.2382 144.517 75.2267 151.937 77.9587C159.367 80.6946 165.506 86.1534 172.35 95.279C172.552 95.5478 172.498 95.9502 172.195 96.1452L165.776 100.265C165.49 100.449 165.125 100.354 164.951 100.092C159.255 91.5305 154.134 86.7884 148.119 84.5271C142.09 82.2609 135.081 82.453 125.524 83.9577C125.218 84.0059 124.909 83.8103 124.841 83.488L123.604 77.6033C123.53 77.2518 123.778 76.9321 124.11 76.8855ZM151.591 78.8972C144.497 76.2852 136.183 76.2369 124.671 77.8191L125.742 82.9128C135.143 81.4562 142.267 81.2586 148.47 83.5906C154.689 85.9283 159.902 90.7752 165.565 99.2126L171.291 95.5378C164.603 86.6897 158.67 81.5037 151.591 78.8972Z" fill="#E69737"/>
<path d="M73.984 110.355C57.9552 109.618 49.8181 106.928 36.5747 102.92C36.5747 102.92 44.1419 108.161 52.1564 109.569C60.1709 110.977 79.555 111.877 73.984 110.355Z" fill="#DB4E32"/>
<path d="M36.7193 102.442C49.5469 106.323 57.5356 108.953 72.5337 109.781L74.0074 109.855L74.0621 109.858L74.1158 109.872C74.4717 109.97 74.7561 110.065 74.9585 110.16C75.0567 110.207 75.166 110.267 75.2564 110.348C75.3349 110.418 75.5 110.597 75.4712 110.868C75.4431 111.135 75.2505 111.274 75.1656 111.325C75.0654 111.386 74.9526 111.424 74.856 111.45C74.6569 111.504 74.3952 111.543 74.0972 111.571C72.9009 111.682 70.7185 111.666 68.1441 111.561C62.9834 111.35 56.1087 110.771 52.0699 110.062C47.9927 109.345 44.0463 107.659 41.1314 106.161C39.6713 105.411 38.464 104.705 37.6206 104.187C37.1988 103.927 36.8675 103.714 36.6412 103.566C36.5283 103.492 36.4414 103.434 36.3824 103.394C36.3528 103.374 36.3294 103.358 36.314 103.348C36.3065 103.343 36.3004 103.339 36.2964 103.336C36.2945 103.335 36.2936 103.333 36.2925 103.332L36.2906 103.331C36.2919 103.329 36.3111 103.301 36.5747 102.92L36.2906 103.331L36.7193 102.442ZM40.2456 104.554C40.6635 104.784 41.1115 105.027 41.5884 105.272C44.4606 106.747 48.3055 108.385 52.2427 109.076C56.2183 109.775 63.0429 110.35 68.1851 110.561C68.829 110.587 69.4446 110.607 70.023 110.621C57.9139 109.749 50.3327 107.607 40.2456 104.554Z" fill="#D2452D"/>
<path d="M83.3199 101.107C83.3199 104.112 80.1001 106.547 76.1283 106.547C72.1566 106.547 68.9368 104.112 68.9368 101.107C68.9368 98.1028 72.1566 95.6672 76.1283 95.6672C80.1001 95.6672 83.3199 98.1028 83.3199 101.107Z" fill="#6C7C3A"/>
<path d="M101.299 99.2938C101.299 101.964 98.3471 104.129 94.7063 104.129C91.0655 104.129 88.1141 101.964 88.1141 99.2938C88.1141 96.6232 91.0655 94.4582 94.7063 94.4582C98.3471 94.4582 101.299 96.6232 101.299 99.2938Z" fill="#6C7C3A"/>
<path d="M106.142 87.0083L97.9977 85.2482C97.9201 85.2314 97.8926 85.1346 97.9486 85.0784C100.011 83.0094 100.909 81.4103 100.216 75.5458C100.215 75.5408 100.214 75.5355 100.213 75.5306C98.8071 70.4622 97.758 67.6571 94.8209 62.8447C90.528 54.0819 91.2263 50.7542 93.6224 44.7114C96.0184 38.6686 102.011 41.6907 101.413 45.3158C100.829 48.8543 100.814 52.3957 100.814 52.563C100.814 52.5683 100.814 52.5721 100.815 52.5774C101.727 58.2103 102.615 56.1997 106.807 67.0758C110.988 77.9243 110.46 80.7461 106.246 86.9656C106.223 86.9994 106.181 87.0169 106.142 87.0083Z" fill="#ED9E38"/>
<path d="M95.6863 41.3127C96.6978 40.7331 97.7888 40.6472 98.7674 40.9045C100.686 41.4092 102.256 43.2787 101.906 45.3977C101.351 48.7649 101.316 52.1423 101.314 52.5325C101.538 53.9047 101.757 54.7932 102.017 55.5207C102.28 56.2536 102.59 56.8407 103.019 57.6194C103.886 59.1922 105.167 61.4301 107.273 66.8957C109.364 72.3196 110.315 75.8258 110.174 78.7805C110.031 81.765 108.776 84.1229 106.66 87.2463C106.526 87.4432 106.282 87.5504 106.036 87.4973L97.8924 85.7366C97.4186 85.6342 97.2666 85.0551 97.5945 84.7258L97.9568 84.3528C98.7658 83.4958 99.3184 82.7105 99.6346 81.5989C100.001 80.3088 100.062 78.5303 99.7215 75.633C98.33 70.6188 97.2962 67.8594 94.3943 63.1047L94.3816 63.0852L94.3719 63.0647C92.213 58.658 91.2787 55.5586 91.2137 52.7698C91.1486 49.9783 91.9577 47.5536 93.158 44.5266C93.7884 42.9371 94.6769 41.8913 95.6863 41.3127ZM98.5135 41.8713C97.7693 41.6755 96.9506 41.7412 96.1834 42.1809C95.4141 42.6219 94.6543 43.4642 94.0867 44.8957C92.891 47.9113 92.1527 50.1726 92.2127 52.7463C92.2727 55.3191 93.133 58.2607 95.2605 62.6067C98.2165 67.4533 99.2814 70.302 100.694 75.3967L100.712 75.4875L100.825 76.5471C101.045 78.9167 100.967 80.5696 100.596 81.8723C100.237 83.1352 99.611 84.0319 98.8016 84.9094L105.98 86.4621C107.981 83.4836 109.05 81.3613 109.176 78.7327C109.306 76.0095 108.431 72.6803 106.341 67.2561C104.256 61.8464 102.997 59.6509 102.143 58.1018C101.712 57.3196 101.367 56.6727 101.076 55.8586C100.785 55.0453 100.553 54.0815 100.322 52.6575C100.319 52.6402 100.314 52.606 100.314 52.5617L100.326 51.8469C100.358 50.6006 100.477 47.9191 100.92 45.2346C101.168 43.7285 100.041 42.2733 98.5135 41.8713Z" fill="#E69737"/>
<path d="M151.595 104.678C143.171 94.029 136.225 91.4633 121.254 93.8551C121.177 93.8675 121.113 93.7912 121.142 93.719L123.753 87.3147C123.768 87.2781 123.804 87.2536 123.844 87.2525C142.161 86.724 149.888 90.5178 158.746 102.204C158.787 102.258 158.764 102.338 158.699 102.36L151.706 104.711C151.666 104.725 151.621 104.711 151.595 104.678Z" fill="#EB9A39"/>
<path d="M125.522 86.7156C133.837 86.5954 139.954 87.4524 145.043 89.6902C150.48 92.0811 154.689 96.0245 159.145 101.902C159.384 102.218 159.259 102.699 158.858 102.834L151.865 105.185C151.619 105.268 151.356 105.181 151.203 104.988C147.018 99.6979 143.247 96.475 138.711 94.8464C134.168 93.2152 128.788 93.1583 121.333 94.3493C120.896 94.4192 120.494 93.9863 120.68 93.53L123.29 87.1257L123.33 87.0456C123.436 86.8672 123.627 86.7586 123.829 86.7527L125.522 86.7156ZM144.641 90.6052C139.461 88.3277 133.109 87.5062 124.116 87.7468L121.871 93.2556C129.037 92.1667 134.419 92.2435 139.049 93.906C143.769 95.6008 147.638 98.9175 151.81 104.148L158.008 102.065C153.733 96.5056 149.727 92.8418 144.641 90.6052Z" fill="#E69737"/>
<path d="M87.4141 72.955C85.1809 74.0219 83.5354 71.8881 84.946 69.7544C86.3566 67.6206 159.153 6.89584 162.753 5.98078C166.353 5.06573 170.188 8.57057 167.807 12.9748C165.426 17.3791 89.6474 71.8882 87.4141 72.955Z" fill="#65361F"/>
<path d="M162.632 5.49608C164.62 4.99091 166.673 5.70423 167.905 7.15924C169.157 8.63832 169.528 10.8403 168.246 13.2123C168.14 13.4075 167.958 13.6318 167.741 13.869C167.515 14.1143 167.225 14.4024 166.877 14.7277C166.18 15.3788 165.234 16.1983 164.079 17.1579C161.767 19.078 158.597 21.5766 154.859 24.451C147.38 30.2007 137.611 37.4635 127.849 44.6198C118.087 51.7766 108.329 58.8294 100.872 64.1597C97.1438 66.8246 93.9892 69.0591 91.6968 70.6616C90.5509 71.4627 89.6191 72.107 88.9378 72.568C88.5974 72.7983 88.3173 72.9842 88.1038 73.1218C87.9015 73.252 87.7324 73.3562 87.6285 73.4059C86.338 74.0224 85.0995 73.7459 84.4173 72.8611C83.7469 71.9913 83.7317 70.6859 84.5293 69.4793C84.6073 69.3612 84.7616 69.2004 84.9323 69.0314C85.1179 68.8476 85.3675 68.6114 85.675 68.3287C86.291 67.7624 87.151 66.9965 88.2183 66.0623C90.3537 64.1934 93.3297 61.6411 96.87 58.6369C103.951 52.6279 113.297 44.8072 122.711 37.025C132.125 29.243 141.609 21.4974 148.965 15.6397C152.643 12.7113 155.792 10.2526 158.135 8.49608C159.307 7.61828 160.281 6.91264 161.022 6.41052C161.392 6.15973 161.709 5.95553 161.967 5.80562C162.208 5.6651 162.443 5.54398 162.632 5.49608ZM162.875 6.46522C162.838 6.47451 162.713 6.52697 162.467 6.66993C162.238 6.80362 161.942 6.99358 161.581 7.23833C160.859 7.72728 159.899 8.42192 158.732 9.29623C156.4 11.044 153.26 13.4967 149.585 16.4231C142.236 22.2753 132.757 30.0155 123.345 37.7956C113.934 45.5756 104.592 53.3938 97.515 59.3994C93.9761 62.4024 91.0042 64.9517 88.8745 66.8156C87.8094 67.7477 86.9565 68.5063 86.3495 69.0643C86.0457 69.3436 85.8064 69.5706 85.6336 69.7417C85.5473 69.8272 85.4807 69.8965 85.4319 69.9497C85.3793 70.0072 85.3617 70.0304 85.3622 70.0296C84.7496 70.9562 84.8522 71.7843 85.2097 72.248C85.5557 72.6968 86.2572 72.9542 87.1998 72.5041C87.2355 72.4871 87.3496 72.4196 87.5648 72.2811C87.7691 72.1495 88.0426 71.9686 88.3804 71.74C89.0555 71.2832 89.9828 70.6421 91.1272 69.8421C93.4156 68.2423 96.5667 66.0098 100.294 63.3459C107.747 58.018 117.501 50.9675 127.26 43.8132C137.02 36.6584 146.782 29.4008 154.251 23.658C157.986 20.7862 161.144 18.2959 163.441 16.3879C164.59 15.4334 165.52 14.629 166.196 13.9972C166.534 13.6813 166.804 13.4127 167.005 13.1934C167.214 12.9665 167.324 12.8179 167.367 12.7379C168.466 10.7058 168.111 8.95301 167.141 7.80737C166.151 6.63785 164.487 6.05572 162.875 6.46522Z" fill="#6F3923"/>
<path d="M93.1749 76.3308C90.7776 76.9352 89.579 74.5174 91.377 72.7041C93.1751 70.8908 176.364 25.7426 180.072 25.5574C183.781 25.3722 186.859 29.5673 183.668 33.4152C180.477 37.263 95.5722 75.7263 93.1749 76.3308Z" fill="#65361F"/>
<path d="M180.047 25.0583C182.096 24.956 183.97 26.0618 184.895 27.7322C185.835 29.4299 185.772 31.662 184.053 33.7341C183.912 33.9048 183.689 34.0893 183.429 34.279C183.161 34.475 182.82 34.6998 182.416 34.9499C181.606 35.4506 180.519 36.0666 179.2 36.779C176.56 38.2047 172.966 40.029 168.741 42.1081C160.29 46.2671 149.298 51.456 138.335 56.5427C127.37 61.6297 116.43 66.6151 108.082 70.3669C103.907 72.2428 100.38 73.8114 97.8208 74.9294C96.5415 75.4883 95.5024 75.9354 94.7447 76.2527C94.3661 76.4112 94.055 76.538 93.8189 76.6306C93.5951 76.7184 93.409 76.787 93.2974 76.8152C91.9118 77.1645 90.7514 76.6486 90.2544 75.6462C89.766 74.6608 90.0051 73.3779 91.022 72.3523C91.1215 72.2519 91.3033 72.1239 91.5035 71.9919C91.7212 71.8484 92.013 71.6665 92.3697 71.4499C93.0838 71.0165 94.0753 70.4359 95.3033 69.7312C97.7605 68.3209 101.175 66.4066 105.231 64.1609C113.343 59.6691 124.028 53.8489 134.772 48.0798C145.516 42.3108 156.321 36.5915 164.673 32.3025C168.849 30.1583 172.415 28.37 175.055 27.1111C176.374 26.4819 177.467 25.9823 178.292 25.6365C178.703 25.4637 179.054 25.3263 179.335 25.2302C179.599 25.1402 179.853 25.0681 180.047 25.0583ZM180.097 26.0564C180.059 26.0583 179.927 26.085 179.659 26.1765C179.408 26.2622 179.08 26.3898 178.678 26.5583C177.876 26.8951 176.8 27.3869 175.486 28.0134C172.859 29.266 169.303 31.0493 165.13 33.1921C156.786 37.4771 145.986 43.1929 135.245 48.9607C124.504 54.7282 113.823 60.5466 105.715 65.0359C101.661 67.2807 98.2521 69.1928 95.8013 70.5993C94.5756 71.3028 93.592 71.8782 92.8882 72.3054C92.536 72.5192 92.257 72.6933 92.0542 72.8269C91.9527 72.8938 91.8732 72.9484 91.815 72.991C91.7533 73.0361 91.7321 73.0564 91.732 73.0564C90.9511 73.844 90.8904 74.6763 91.1509 75.2019C91.4031 75.7105 92.0408 76.1013 93.0523 75.8464C93.0906 75.8368 93.2156 75.7933 93.4537 75.6999C93.6796 75.6113 93.9823 75.4871 94.3579 75.3298C95.1088 75.0154 96.1427 74.5706 97.4204 74.0124C99.9755 72.8963 103.5 71.33 107.672 69.4548C116.017 65.7046 126.953 60.7207 137.914 55.6355C148.874 50.55 159.858 45.3646 168.298 41.2107C172.519 39.1334 176.101 37.3158 178.724 35.8992C180.036 35.1905 181.104 34.5851 181.889 34.0993C182.282 33.8564 182.599 33.6466 182.839 33.4714C183.088 33.2899 183.226 33.1662 183.284 33.0964C184.756 31.3211 184.748 29.5319 184.02 28.2165C183.276 26.8737 181.757 25.9735 180.097 26.0564Z" fill="#6F3923"/>
<path d="M115.441 44.3387C115.772 39.1893 110.843 38.0985 107.051 44.3387C103.259 50.5788 111.695 66.5051 115.441 71.5387C119.187 76.5723 117.668 79.8643 115.441 84.232C112.653 88.0022 111.64 90.2582 113.044 95.112C116.744 95.6009 118.697 95.4209 122.033 94.5076C122.221 92.4353 122.361 91.2365 122.632 89.0676C128.226 76.4885 125.841 70.7914 119.037 61.2631C117.709 61.0047 115.11 49.488 115.441 44.3387Z" fill="#EDAA46"/>
<path d="M106.623 44.0793C108.554 40.9019 110.883 39.4098 112.833 39.5696C113.825 39.6509 114.666 40.1621 115.222 41.0159C115.771 41.8589 116.027 43.0079 115.939 44.3703C115.779 46.8733 116.334 50.9847 117.106 54.5285C117.49 56.2946 117.924 57.8973 118.34 59.0666C118.548 59.6535 118.746 60.1138 118.923 60.427C119.012 60.5843 119.086 60.6876 119.142 60.7483C119.156 60.7639 119.168 60.7737 119.176 60.7805L119.328 60.8108L119.443 60.9729C122.847 65.7395 125.207 69.6258 125.976 73.9338C126.745 78.242 125.911 82.8976 123.12 89.1965C122.855 91.3202 122.717 92.5097 122.531 94.553L122.5 94.8987L122.165 94.9895C118.768 95.9197 116.747 96.1056 112.979 95.6077L112.654 95.5647L112.564 95.2512C111.846 92.7726 111.73 90.8981 112.187 89.1399C112.636 87.4091 113.628 85.8452 115.011 83.9719C116.124 81.7876 117.004 79.9663 117.183 78.0881C117.358 76.2397 116.857 74.2782 115.04 71.8371C113.138 69.2818 110.071 64.0018 107.953 58.5725C106.894 55.8568 106.063 53.082 105.739 50.5774C105.418 48.0865 105.588 45.7834 106.623 44.0793ZM112.751 40.5657C111.372 40.4527 109.339 41.5356 107.479 44.5979C106.618 46.0138 106.421 48.042 106.731 50.4494C107.04 52.8432 107.841 55.5343 108.885 58.2092C110.973 63.5615 113.997 68.7621 115.842 71.2405C117.771 73.8329 118.383 76.035 118.179 78.1828C117.978 80.2914 116.992 82.2905 115.887 84.4592L115.867 84.4963L115.843 84.5295C114.453 86.4094 113.555 87.8495 113.154 89.3909C112.776 90.848 112.831 92.4468 113.436 94.6565C116.735 95.068 118.592 94.9054 121.567 94.1135C121.741 92.2414 121.881 91.0529 122.137 89.0051L122.146 88.9319L122.176 88.8645C124.952 82.622 125.714 78.1599 124.991 74.1096C124.271 70.0737 122.064 66.3733 118.708 61.6643C118.584 61.5967 118.482 61.5087 118.406 61.426C118.278 61.2871 118.16 61.1114 118.052 60.9192C117.834 60.5331 117.614 60.0108 117.397 59.4016C116.963 58.178 116.519 56.5305 116.129 54.7414C115.352 51.1751 114.772 46.9533 114.942 44.3069C115.02 43.0948 114.784 42.1764 114.384 41.5618C113.99 40.9578 113.424 40.6208 112.751 40.5657Z" fill="#F2AA46"/>
</svg>
