<svg fill="none" height="200" viewBox="0 0 234 250" width="200" xmlns="http://www.w3.org/2000/svg">
  <path
    d="M188.11 66.3949C148.811 59.796 72.9123 59.2374 33.802 65.8439C25.8859 67.1806 8.37684 75.3212 25.3567 104.749L23.5863 218.045C23.3738 231.66 34.3527 242.812 47.9709 242.812H174.242C187.86 242.812 198.84 231.66 198.625 218.045L196.855 104.749C211.135 80.0009 200.723 68.513 188.11 66.3949Z"
    fill="#793518"/>
  <path
    d="M188.11 43.7447C148.811 37.1454 72.9123 36.5861 33.802 43.1923C25.8859 44.5293 8.37684 52.6696 25.3567 82.0985L23.5863 195.394C23.3738 209.008 34.3527 220.16 47.9709 220.16H174.242C187.86 220.16 198.84 209.008 198.625 195.394L196.855 82.0985C211.135 57.3496 200.723 45.8614 188.11 43.7447Z"
    fill="#D5AA60"/>
  <path
    d="M66.416 198.735L132.35 249.338L148.125 198.735H66.416ZM126.715 235.529C123.603 235.529 121.081 233.007 121.081 229.895C121.081 226.784 123.603 224.261 126.715 224.261C129.827 224.261 132.35 226.784 132.35 229.895C132.35 233.007 129.827 235.529 126.715 235.529Z"
    fill="#F6C914"/>
  <path
    d="M15.4588 213.109C15.4588 213.109 48.8753 206.468 73.8783 215.312L35.1313 122.059C35.1313 122.059 -22.5146 166.726 15.4588 213.109Z"
    fill="#F6C914"/>
  <path
    d="M60.3444 66.1731C60.3444 82.7689 46.8889 96.2219 30.2917 96.2219C13.6938 96.2219 0.238281 82.7689 0.238281 66.1731C0.238281 49.577 13.6938 36.1233 30.2917 36.1233C46.8889 36.1233 60.3444 49.577 60.3444 66.1731Z"
    fill="#B0D13B"/>
  <path
    d="M53.8323 66.1731C53.8323 79.1722 43.2927 89.7118 30.2915 89.7118C17.29 89.7118 6.75 79.1722 6.75 66.1731C6.75 53.173 17.29 42.6334 30.2915 42.6334C43.2927 42.6334 53.8323 53.173 53.8323 66.1731Z"
    fill="#DBE12B"/>
  <path d="M203.595 21.8423H18.228V44.4863H203.595V21.8423Z" fill="#A94B25"/>
  <path
    d="M87.2635 185.056C41.4771 160.24 31.2428 230.936 72.4428 241.71C113.657 252.488 139.336 185.834 87.2635 185.056Z"
    fill="#CA2027"/>
  <path
    d="M85.2825 192.606C52.0183 174.583 44.5874 225.945 74.5236 233.77C104.466 241.597 123.124 193.177 85.2825 192.606Z"
    fill="#EF5123"/>
  <path
    d="M75.1977 231.196C73.7272 230.809 73.1597 228.122 73.9222 225.201C74.6889 222.268 76.4994 220.212 77.9742 220.595C79.4401 220.979 80.0034 223.668 79.2463 226.593C78.4777 229.519 76.6686 231.581 75.1977 231.196Z"
    fill="#F7E8C4"/>
  <path
    d="M75.8093 197.933C75.0282 199.241 72.2904 199.033 69.6973 197.483C67.0978 195.927 65.6309 193.606 66.4102 192.303C67.1895 190.998 69.9266 191.205 72.5243 192.758C75.1178 194.308 76.5883 196.627 75.8093 197.933Z"
    fill="#F7E8C4"/>
  <path
    d="M71.7268 207.797C71.3018 209.254 68.6059 209.761 65.6954 208.923C62.792 208.084 60.7783 206.227 61.1914 204.768C61.6164 203.302 64.3134 202.802 67.2246 203.64C70.1298 204.476 72.1406 206.336 71.7268 207.797Z"
    fill="#F7E8C4"/>
  <path
    d="M72.4625 216.032C72.9555 217.47 71.0332 219.429 68.1682 220.409C65.3071 221.381 62.5893 221.01 62.0924 219.57C61.5986 218.131 63.5241 216.174 66.3881 215.196C69.251 214.216 71.977 214.591 72.4625 216.032Z"
    fill="#F7E8C4"/>
  <path
    d="M90.9136 202.036C90.9519 203.558 93.4375 204.719 96.4645 204.632C99.4911 204.546 101.907 203.245 101.865 201.733C101.824 200.216 99.332 199.045 96.3136 199.129C93.2917 199.219 90.8738 200.517 90.9136 202.036Z"
    fill="#F7E8C4"/>
  <path
    d="M89.6432 212.635C89.2921 214.114 91.3975 215.877 94.3424 216.569C97.2956 217.26 99.9614 216.629 100.313 215.15C100.659 213.67 98.5569 211.911 95.608 211.215C92.667 210.522 89.9894 211.157 89.6432 212.635Z"
    fill="#F7E8C4"/>
  <path
    d="M84.9661 219.45C83.8413 220.467 84.5526 223.114 86.5745 225.373C88.5928 227.62 91.144 228.631 92.2791 227.612C93.4128 226.601 92.6933 223.952 90.6782 221.699C88.6616 219.44 86.1055 218.44 84.9661 219.45Z"
    fill="#F7E8C4"/>
  <path
    d="M42.0664 81.8144C-3.72067 56.9986 -13.9554 127.694 27.2457 138.468C68.459 149.246 94.1396 82.593 42.0664 81.8144Z"
    fill="#CA2027"/>
  <path
    d="M40.0854 89.3653C6.8205 71.3426 -0.61044 122.703 29.3258 130.529C59.2671 138.354 77.9267 89.9353 40.0854 89.3653Z"
    fill="#EF5123"/>
  <path
    d="M30.0002 127.954C28.5297 127.568 27.9625 124.881 28.725 121.959C29.4917 119.026 31.3016 116.97 32.7767 117.353C34.2425 117.737 34.8058 120.426 34.048 123.351C33.2805 126.277 31.4717 128.34 30.0002 127.954Z"
    fill="#F7E8C4"/>
  <path
    d="M30.6115 94.691C29.8297 95.999 27.0929 95.7909 24.4988 94.241C21.8993 92.6865 20.4331 90.3642 21.2117 89.0608C21.9914 87.756 24.7281 87.9634 27.3262 89.5165C29.9196 91.0674 31.3908 93.3851 30.6115 94.691Z"
    fill="#F7E8C4"/>
  <path
    d="M26.5288 104.556C26.1042 106.012 23.4079 106.519 20.497 105.681C17.5944 104.842 15.5803 102.986 15.9931 101.527C16.4188 100.061 19.1157 99.5595 22.027 100.399C24.9318 101.235 26.9426 103.095 26.5288 104.556Z"
    fill="#F7E8C4"/>
  <path
    d="M27.2649 112.79C27.7586 114.227 25.8363 116.187 22.9713 117.167C20.1095 118.139 17.3924 117.768 16.8951 116.328C16.4014 114.888 18.3269 112.932 21.1909 111.953C24.0527 110.974 26.7794 111.348 27.2649 112.79Z"
    fill="#F7E8C4"/>
  <path
    d="M45.7158 98.7946C45.7545 100.317 48.2397 101.477 51.2671 101.391C54.2934 101.304 56.7091 100.003 56.6679 98.4911C56.6259 96.9735 54.135 95.8034 51.1159 95.8872C48.0939 95.9775 45.6764 97.2755 45.7158 98.7946Z"
    fill="#F7E8C4"/>
  <path
    d="M44.4444 109.393C44.0939 110.873 46.199 112.636 49.1439 113.328C52.0971 114.017 54.7629 113.387 55.1137 111.908C55.4602 110.429 53.358 108.669 50.4095 107.974C47.4688 107.279 44.7908 107.915 44.4444 109.393Z"
    fill="#F7E8C4"/>
  <path
    d="M39.7683 116.208C38.6436 117.226 39.3548 119.872 41.3764 122.131C43.3951 124.378 45.9463 125.388 47.0803 124.371C48.214 123.358 47.4956 120.711 45.4797 118.458C43.4635 116.198 40.9077 115.198 39.7683 116.208Z"
    fill="#F7E8C4"/>
  <path
    d="M197.022 50.6188L198.131 121.581C214.28 123.186 216.469 97.3959 216.45 96.7514C216.24 89.6082 223.645 89.1611 227.699 85.1159C234.695 78.1372 227.65 70.4204 227.965 62.2587C228.914 37.6395 217.026 36.2963 197.022 50.6188Z"
    fill="#B0D13B"/>
  <path
    d="M127.61 187.188L42.5101 188.516C40.5852 207.88 71.5144 210.502 72.2858 210.481C80.8536 210.229 81.3893 219.107 86.2401 223.968C94.6091 232.356 103.863 223.908 113.65 224.285C143.174 225.425 144.785 211.171 127.61 187.188Z"
    fill="#A6CA38"/>
  <path
    d="M196.94 64.1919V138.849C212.29 140.375 206.433 114.531 206.415 113.92C206.217 107.129 213.254 106.704 217.106 102.862C222.213 97.7707 220.412 93.6921 217.948 87.8599C215.243 81.4569 222.54 76.9889 224.153 71.2985C226.898 61.6199 213.257 52.5066 196.94 64.1919Z"
    fill="#DBE12B"/>
  <path
    d="M206.396 197.737C206.396 217.609 190.284 233.718 170.411 233.718C150.536 233.718 134.425 217.609 134.425 197.737C134.425 177.864 150.536 161.754 170.411 161.754C190.284 161.754 206.396 177.864 206.396 197.737Z"
    fill="#C51F4E"/>
  <path
    d="M77.6881 167.373C77.6881 187.245 61.5767 203.355 41.7021 203.355C21.8286 203.355 5.71729 187.245 5.71729 167.373C5.71729 147.501 21.8286 131.392 41.7021 131.392C61.5767 131.392 77.6881 147.501 77.6881 167.373Z"
    fill="#C51F4E"/>
  <path
    d="M175.874 222.524C175.874 224.032 174.649 225.254 173.142 225.254C171.633 225.254 170.411 224.032 170.411 222.524C170.411 221.016 171.633 219.794 173.142 219.794C174.649 219.794 175.874 221.016 175.874 222.524Z"
    fill="#E4A2C5"/>
  <path
    d="M199.496 194.823C199.496 196.432 198.192 197.736 196.583 197.736C194.973 197.736 193.67 196.432 193.67 194.823C193.67 193.213 194.973 191.91 196.583 191.91C198.192 191.91 199.496 193.213 199.496 194.823Z"
    fill="#E4A2C5"/>
  <path
    d="M192.761 214.42C192.761 215.828 191.618 216.97 190.21 216.97C188.8 216.97 187.657 215.828 187.657 214.42C187.657 213.01 188.8 211.868 190.21 211.868C191.618 211.868 192.761 213.01 192.761 214.42Z"
    fill="#E4A2C5"/>
  <path
    d="M167.295 215.494C167.295 218.286 165.031 220.55 162.239 220.55C159.447 220.55 157.184 218.286 157.184 215.494C157.184 212.703 159.447 210.44 162.239 210.44C165.031 210.44 167.295 212.703 167.295 215.494Z"
    fill="#E4A2C5"/>
  <path
    d="M20.5084 159.643C20.5084 161.617 18.9086 163.216 16.9365 163.216C14.9633 163.216 13.3638 161.617 13.3638 159.643C13.3638 157.67 14.9629 156.071 16.9365 156.071C18.9086 156.071 20.5084 157.67 20.5084 159.643Z"
    fill="#E4A2C5"/>
  <path
    d="M21.0265 149.258C21.0265 150.039 20.3927 150.673 19.6105 150.673C18.8287 150.673 18.1948 150.039 18.1948 149.258C18.1948 148.475 18.8287 147.842 19.6105 147.842C20.3927 147.842 21.0265 148.476 21.0265 149.258Z"
    fill="#E4A2C5"/>
  <path
    d="M25.0154 175.902C25.0154 178.408 22.9841 180.438 20.4774 180.438C17.9714 180.438 15.9395 178.408 15.9395 175.902C15.9395 173.396 17.9714 171.365 20.4774 171.365C22.9838 171.365 25.0154 173.396 25.0154 175.902Z"
    fill="#E4A2C5"/>
  <path
    d="M219.202 105.133C219.202 105.133 185.993 112.742 160.742 104.63L202.185 196.717C202.185 196.717 258.508 150.392 219.202 105.133ZM206.896 147.751C204.494 144.917 204.847 140.672 207.682 138.271C210.519 135.871 214.763 136.223 217.164 139.058C219.566 141.894 219.213 146.138 216.378 148.539C213.542 150.94 209.297 150.587 206.896 147.751ZM213.916 168.686C210.894 168.686 208.445 166.237 208.445 163.216C208.445 160.196 210.894 157.747 213.916 157.747C216.936 157.747 219.385 160.196 219.385 163.216C219.385 166.237 216.936 168.686 213.916 168.686ZM218.282 131.383C215.869 131.383 213.915 129.43 213.915 127.018C213.915 124.608 215.869 122.653 218.282 122.653C220.693 122.653 222.648 124.608 222.648 127.018C222.648 129.43 220.693 131.383 218.282 131.383Z"
    fill="#F6C914"/>
  <path
    d="M188.11 28.7892C148.811 22.1899 72.9123 21.6302 33.802 28.2367C25.8859 29.5749 8.37684 37.7151 25.3567 67.143L23.5863 180.438C23.3738 194.053 34.3527 205.205 47.9709 205.205H174.242C187.86 205.205 198.84 194.053 198.625 180.438L196.855 67.143C211.135 42.3948 200.723 30.9073 188.11 28.7892Z"
    fill="#A94B25"/>
  <path
    d="M188.11 6.13794C148.811 -0.461379 72.9123 -1.01957 33.802 5.5862C25.8859 6.92362 8.37684 15.0642 25.3567 44.4917L23.5863 157.789C23.3738 171.403 34.3527 182.554 47.9709 182.554H174.242C187.86 182.554 198.84 171.403 198.625 157.789L196.855 44.4917C211.135 19.7446 200.723 8.25603 188.11 6.13794Z"
    fill="#EAC885"/>
  <path
    d="M115.447 156.071C115.447 158.33 113.616 160.159 111.358 160.159C109.101 160.159 107.271 158.33 107.271 156.071C107.271 153.815 109.101 151.985 111.358 151.985C113.616 151.985 115.447 153.815 115.447 156.071Z"
    fill="#D5AA60"/>
  <path
    d="M106.057 22.4897C106.057 24.2768 104.607 25.7253 102.821 25.7253C101.033 25.7253 99.5845 24.2768 99.5845 22.4897C99.5845 20.7016 101.033 19.2538 102.821 19.2538C104.607 19.2538 106.057 20.7016 106.057 22.4897Z"
    fill="#D5AA60"/>
  <path
    d="M148.125 79.0099C148.125 81.022 146.495 82.6503 144.485 82.6503C142.473 82.6503 140.844 81.022 140.844 79.0099C140.844 76.9997 142.473 75.3699 144.485 75.3699C146.495 75.3703 148.125 76.9997 148.125 79.0099Z"
    fill="#D5AA60"/>
  <path
    d="M157.184 125.131C157.184 127.451 155.301 129.334 152.979 129.334C150.658 129.334 148.774 127.452 148.774 125.131C148.774 122.808 150.659 120.926 152.979 120.926C155.3 120.926 157.184 122.808 157.184 125.131Z"
    fill="#D5AA60"/>
  <path
    d="M62.804 123.723C62.804 125.53 61.3375 126.997 59.5294 126.997C57.7207 126.997 56.2549 125.531 56.2549 123.723C56.2549 121.914 57.7207 120.448 59.5294 120.448C61.3375 120.448 62.804 121.914 62.804 123.723Z"
    fill="#D5AA60"/>
  <path
    d="M53.5107 156.071C53.5107 157.88 52.0441 159.345 50.2365 159.345C48.4277 159.345 46.9619 157.88 46.9619 156.071C46.9619 154.264 48.4277 152.798 50.2365 152.798C52.0441 152.798 53.5107 154.264 53.5107 156.071Z"
    fill="#D5AA60"/>
  <path
    d="M92.0124 84.8279C92.0124 87.6747 89.7038 89.9823 86.8567 89.9823C84.0089 89.9823 81.7007 87.6744 81.7007 84.8279C81.7007 81.9804 84.0085 79.6721 86.8567 79.6721C89.7042 79.6717 92.0124 81.98 92.0124 84.8279Z"
    fill="#D5AA60"/>
  <path
    d="M50.2366 33.1658C50.2366 34.7289 48.9682 35.9965 47.405 35.9965C45.8402 35.9965 44.5732 34.7289 44.5732 33.1658C44.5732 31.6027 45.8402 30.3344 47.405 30.3344C48.9682 30.3344 50.2366 31.6027 50.2366 33.1658Z"
    fill="#D5AA60"/>
  <path
    d="M56.2546 78.2017C57.8185 78.2017 59.0863 76.934 59.0863 75.3703C59.0863 73.8065 57.8185 72.5389 56.2546 72.5389C54.6907 72.5389 53.4229 73.8065 53.4229 75.3703C53.4229 76.934 54.6907 78.2017 56.2546 78.2017Z"
    fill="#D5AA60"/>
  <path
    d="M77.7298 66.1732C77.7298 67.7367 76.4621 69.0042 74.8974 69.0042C73.3334 69.0042 72.0664 67.7367 72.0664 66.1732C72.0664 64.61 73.3334 63.3411 74.8974 63.3411C76.4621 63.3411 77.7298 64.61 77.7298 66.1732Z"
    fill="#D5AA60"/>
  <path
    d="M143.677 89.983C143.677 91.5461 142.41 92.8137 140.845 92.8137C139.28 92.8137 138.013 91.5461 138.013 89.983C138.013 88.4199 139.28 87.1512 140.845 87.1512C142.41 87.1512 143.677 88.4199 143.677 89.983Z"
    fill="#D5AA60"/>
  <path
    d="M166.485 126.996C166.485 128.56 165.217 129.827 163.654 129.827C162.088 129.827 160.823 128.56 160.823 126.996C160.823 125.433 162.088 124.165 163.654 124.165C165.217 124.165 166.485 125.433 166.485 126.996Z"
    fill="#D5AA60"/>
  <path
    d="M179.352 150.673C179.352 152.236 178.084 153.505 176.521 153.505C174.957 153.505 173.69 152.236 173.69 150.673C173.69 149.11 174.957 147.842 176.521 147.842C178.084 147.842 179.352 149.11 179.352 150.673Z"
    fill="#D5AA60"/>
  <path
    d="M128.591 163.114C128.591 164.677 127.323 165.945 125.76 165.945C124.194 165.945 122.926 164.677 122.926 163.114C122.926 161.551 124.194 160.282 125.76 160.282C127.323 160.282 128.591 161.551 128.591 163.114Z"
    fill="#D5AA60"/>
  <path
    d="M167.047 35.9965C167.047 37.8706 165.528 39.3897 163.654 39.3897C161.78 39.3897 160.259 37.8706 160.259 35.9965C160.259 34.1228 161.78 32.6033 163.654 32.6033C165.528 32.6033 167.047 34.1228 167.047 35.9965Z"
    fill="#D5AA60"/>
</svg>
