<svg width="200" height="200" viewBox="0 0 200 200" fill="none" xmlns="http://www.w3.org/2000/svg">
<path d="M156.888 53.116C125.449 47.8369 64.7302 47.39 33.4419 52.6752C27.1091 53.7446 13.1018 60.257 26.6857 83.7993L25.2694 174.436C25.0994 185.328 33.8825 194.25 44.7771 194.25H145.794C156.688 194.25 165.472 185.328 165.3 174.436L163.884 83.7993C175.308 64.0008 166.979 54.8105 156.888 53.116Z" fill="#793518"/>
<path d="M156.888 34.9958C125.449 29.7163 64.7302 29.2689 33.4419 34.5539C27.1091 35.6235 13.1018 42.1357 26.6857 65.6788L25.2694 156.315C25.0994 167.206 33.8825 176.128 44.7771 176.128H145.794C156.688 176.128 165.472 167.206 165.3 156.315L163.884 65.6788C175.308 45.8797 166.979 36.6891 156.888 34.9958Z" fill="#D5AA60"/>
<path d="M59.533 158.988L112.28 199.47L124.9 158.988H59.533ZM107.772 188.423C105.283 188.423 103.265 186.406 103.265 183.916C103.265 181.427 105.283 179.409 107.772 179.409C110.262 179.409 112.28 181.427 112.28 183.916C112.28 186.406 110.262 188.423 107.772 188.423Z" fill="#F6C914"/>
<path d="M18.7673 170.487C18.7673 170.487 45.5005 165.174 65.5029 172.25L34.5053 97.6472C34.5053 97.6472 -11.6114 133.381 18.7673 170.487Z" fill="#F6C914"/>
<path d="M54.6757 52.9385C54.6757 66.2152 43.9113 76.9776 30.6336 76.9776C17.3552 76.9776 6.59082 66.2152 6.59082 52.9385C6.59082 39.6616 17.3552 28.8987 30.6336 28.8987C43.9113 28.8987 54.6757 39.6616 54.6757 52.9385Z" fill="#B0D13B"/>
<path d="M49.4661 52.9384C49.4661 63.3377 41.0345 71.7694 30.6335 71.7694C20.2323 71.7694 11.8003 63.3377 11.8003 52.9384C11.8003 42.5384 20.2323 34.1067 30.6335 34.1067C41.0345 34.1067 49.4661 42.5384 49.4661 52.9384Z" fill="#DBE12B"/>
<path d="M169.276 17.4739H20.9827V35.5891H169.276V17.4739Z" fill="#A94B25"/>
<path d="M76.2109 148.045C39.5818 128.192 31.3944 184.749 64.3544 193.368C97.3257 201.99 117.869 148.667 76.2109 148.045Z" fill="#CA2027"/>
<path d="M74.6263 154.085C48.015 139.666 42.0703 180.756 66.0192 187.016C89.9731 193.277 104.9 154.542 74.6263 154.085Z" fill="#EF5123"/>
<path d="M66.5584 184.957C65.382 184.647 64.928 182.498 65.538 180.161C66.1514 177.814 67.5998 176.17 68.7796 176.476C69.9524 176.783 70.403 178.934 69.7973 181.274C69.1824 183.615 67.7352 185.265 66.5584 184.957Z" fill="#F7E8C4"/>
<path d="M67.0476 158.346C66.4227 159.393 64.2324 159.226 62.158 157.986C60.0784 156.742 58.9048 154.885 59.5283 153.842C60.1517 152.798 62.3414 152.964 64.4196 154.206C66.4944 155.446 67.6708 157.302 67.0476 158.346Z" fill="#F7E8C4"/>
<path d="M63.7816 166.238C63.4416 167.403 61.2849 167.809 58.9565 167.139C56.6338 166.467 55.0228 164.982 55.3533 163.815C55.6933 162.642 57.8509 162.242 60.1798 162.912C62.504 163.581 64.1126 165.069 63.7816 166.238Z" fill="#F7E8C4"/>
<path d="M64.3703 172.826C64.7647 173.976 63.2269 175.543 60.9349 176.327C58.646 177.105 56.4718 176.808 56.0742 175.656C55.6792 174.505 57.2196 172.939 59.5108 172.157C61.8011 171.373 63.9819 171.673 64.3703 172.826Z" fill="#F7E8C4"/>
<path d="M79.131 161.629C79.1616 162.846 81.1501 163.775 83.5717 163.706C85.993 163.637 87.9257 162.596 87.8921 161.386C87.8593 160.173 85.8657 159.236 83.451 159.303C81.0335 159.375 79.0992 160.414 79.131 161.629Z" fill="#F7E8C4"/>
<path d="M78.1148 170.108C77.8339 171.291 79.5183 172.702 81.8742 173.255C84.2367 173.808 86.3694 173.303 86.6507 172.12C86.9275 170.936 85.2458 169.529 82.8867 168.972C80.5339 168.418 78.3918 168.926 78.1148 170.108Z" fill="#F7E8C4"/>
<path d="M74.3732 175.56C73.4733 176.373 74.0424 178.491 75.6599 180.298C77.2745 182.096 79.3155 182.905 80.2236 182.089C81.1305 181.281 80.5549 179.161 78.9428 177.359C77.3296 175.552 75.2847 174.752 74.3732 175.56Z" fill="#F7E8C4"/>
<path d="M40.0533 65.4516C3.42362 45.599 -4.76416 102.155 28.1967 110.774C61.1674 119.397 81.7118 66.0745 40.0533 65.4516Z" fill="#CA2027"/>
<path d="M38.4687 71.4921C11.8567 57.074 5.91199 98.1623 29.861 104.423C53.814 110.683 68.7417 71.9482 38.4687 71.4921Z" fill="#EF5123"/>
<path d="M30.4003 102.363C29.2239 102.054 28.7701 99.9048 29.3801 97.5672C29.9935 95.2208 31.4414 93.576 32.6215 93.8824C33.7941 94.1896 34.2448 96.3408 33.6385 98.6808C33.0245 101.022 31.5775 102.672 30.4003 102.363Z" fill="#F7E8C4"/>
<path d="M30.8895 75.7528C30.264 76.7992 28.0746 76.6327 25.9993 75.3928C23.9197 74.1492 22.7468 72.2913 23.3696 71.2486C23.9934 70.2048 26.1828 70.3707 28.2612 71.6132C30.336 72.8539 31.5129 74.7081 30.8895 75.7528Z" fill="#F7E8C4"/>
<path d="M27.6233 83.6447C27.2837 84.8095 25.1266 85.2151 22.7979 84.5447C20.4758 83.8735 18.8645 82.3887 19.1948 81.2215C19.5353 80.0487 21.6929 79.6475 24.0219 80.3191C26.3457 80.9879 27.9544 82.4759 27.6233 83.6447Z" fill="#F7E8C4"/>
<path d="M28.2121 90.2321C28.6071 91.3817 27.0692 92.9497 24.7772 93.7337C22.4878 94.5113 20.3141 94.2145 19.9163 93.0625C19.5213 91.9105 21.0617 90.3457 23.3529 89.5625C25.6423 88.7793 27.8237 89.0785 28.2121 90.2321Z" fill="#F7E8C4"/>
<path d="M42.9728 79.0356C43.0038 80.2535 44.9919 81.1815 47.4138 81.1127C49.8349 81.0431 51.7674 80.0023 51.7345 78.7928C51.7009 77.5787 49.7081 76.6426 47.2929 76.7097C44.8753 76.7819 42.9413 77.8203 42.9728 79.0356Z" fill="#F7E8C4"/>
<path d="M41.9558 87.5145C41.6754 88.6985 43.3595 90.1089 45.7154 90.6625C48.078 91.2137 50.2106 90.7097 50.4912 89.5265C50.7684 88.3433 49.0867 86.9353 46.7279 86.3793C44.3753 85.8233 42.2329 86.3321 41.9558 87.5145Z" fill="#F7E8C4"/>
<path d="M38.2149 92.9664C37.3152 93.7808 37.8841 95.8976 39.5014 97.7048C41.1164 99.5024 43.1573 100.31 44.0645 99.4968C44.9715 98.6864 44.3968 96.5688 42.7841 94.7664C41.1711 92.9584 39.1265 92.1584 38.2149 92.9664Z" fill="#F7E8C4"/>
<path d="M164.018 40.4949L164.905 97.2647C177.824 98.5487 179.575 77.9166 179.56 77.401C179.392 71.6865 185.316 71.3288 188.559 68.0926C194.156 62.5097 188.52 56.3362 188.772 49.8069C189.531 30.1115 180.021 29.0369 164.018 40.4949Z" fill="#B0D13B"/>
<path d="M108.488 149.75L40.4083 150.813C38.8684 166.304 63.6118 168.402 64.2289 168.385C71.0831 168.183 71.5117 175.286 75.3923 179.174C82.0875 185.885 89.4907 179.126 97.3203 179.428C120.939 180.34 122.228 168.937 108.488 149.75Z" fill="#A6CA38"/>
<path d="M163.952 51.3536V111.079C176.232 112.3 171.547 91.6248 171.532 91.136C171.374 85.7032 177.003 85.3632 180.085 82.2896C184.171 78.2166 182.73 74.9537 180.759 70.2879C178.595 65.1656 184.432 61.5911 185.723 57.0388C187.919 49.2959 177.006 42.0053 163.952 51.3536Z" fill="#DBE12B"/>
<path d="M171.517 158.19C171.517 174.087 158.627 186.975 142.729 186.975C126.829 186.975 113.94 174.087 113.94 158.19C113.94 142.291 126.829 129.403 142.729 129.403C158.627 129.403 171.517 142.291 171.517 158.19Z" fill="#C51F4E"/>
<path d="M68.5508 133.898C68.5508 149.796 55.6617 162.684 39.762 162.684C23.8632 162.684 10.9741 149.796 10.9741 133.898C10.9741 118.001 23.8632 105.114 39.762 105.114C55.6617 105.114 68.5508 118.001 68.5508 133.898Z" fill="#C51F4E"/>
<path d="M147.099 178.019C147.099 179.226 146.119 180.203 144.914 180.203C143.707 180.203 142.729 179.226 142.729 178.019C142.729 176.813 143.707 175.835 144.914 175.835C146.119 175.835 147.099 176.813 147.099 178.019Z" fill="#E4A2C5"/>
<path d="M165.997 155.858C165.997 157.146 164.954 158.189 163.667 158.189C162.379 158.189 161.336 157.146 161.336 155.858C161.336 154.57 162.379 153.528 163.667 153.528C164.954 153.528 165.997 154.57 165.997 155.858Z" fill="#E4A2C5"/>
<path d="M160.609 171.536C160.609 172.662 159.695 173.576 158.568 173.576C157.44 173.576 156.526 172.662 156.526 171.536C156.526 170.408 157.44 169.494 158.568 169.494C159.695 169.494 160.609 170.408 160.609 171.536Z" fill="#E4A2C5"/>
<path d="M140.236 172.395C140.236 174.629 138.425 176.44 136.191 176.44C133.958 176.44 132.147 174.629 132.147 172.395C132.147 170.162 133.958 168.352 136.191 168.352C138.425 168.352 140.236 170.162 140.236 172.395Z" fill="#E4A2C5"/>
<path d="M22.807 127.714C22.807 129.293 21.5271 130.573 19.9495 130.573C18.3709 130.573 17.0913 129.293 17.0913 127.714C17.0913 126.136 18.3706 124.857 19.9495 124.857C21.5271 124.857 22.807 126.136 22.807 127.714Z" fill="#E4A2C5"/>
<path d="M23.2214 119.406C23.2214 120.031 22.7144 120.538 22.0886 120.538C21.4632 120.538 20.9561 120.031 20.9561 119.406C20.9561 118.78 21.4632 118.274 22.0886 118.274C22.7144 118.274 23.2214 118.781 23.2214 119.406Z" fill="#E4A2C5"/>
<path d="M26.4126 140.722C26.4126 142.726 24.7875 144.35 22.7822 144.35C20.7774 144.35 19.1519 142.726 19.1519 140.722C19.1519 138.717 20.7774 137.092 22.7822 137.092C24.7873 137.092 26.4126 138.717 26.4126 140.722Z" fill="#E4A2C5"/>
<path d="M181.762 84.1065C181.762 84.1065 155.195 90.1937 134.994 83.7041L168.148 157.374C168.148 157.374 213.207 120.314 181.762 84.1065ZM171.917 118.201C169.995 115.934 170.278 112.538 172.546 110.617C174.816 108.697 178.211 108.979 180.132 111.247C182.053 113.515 181.771 116.911 179.503 118.831C177.234 120.752 173.838 120.47 171.917 118.201ZM177.533 134.949C175.115 134.949 173.156 132.99 173.156 130.573C173.156 128.157 175.115 126.198 177.533 126.198C179.949 126.198 181.908 128.157 181.908 130.573C181.908 132.99 179.949 134.949 177.533 134.949ZM181.026 105.106C179.095 105.106 177.532 103.544 177.532 101.615C177.532 99.6865 179.095 98.1225 181.026 98.1225C182.955 98.1225 184.519 99.6865 184.519 101.615C184.519 103.544 182.955 105.106 181.026 105.106Z" fill="#F6C914"/>
<path d="M156.888 23.0313C125.449 17.7519 64.7302 17.3041 33.4419 22.5893C27.1091 23.6599 13.1018 30.172 26.6857 53.7144L25.2694 144.35C25.0994 155.242 33.8825 164.164 44.7771 164.164H145.794C156.688 164.164 165.472 155.242 165.3 144.35L163.884 53.7144C175.308 33.9158 166.979 24.7258 156.888 23.0313Z" fill="#A94B25"/>
<path d="M156.888 4.9104C125.449 -0.369052 64.7302 -0.815605 33.4419 4.46901C27.1091 5.53895 13.1018 12.0514 26.6857 35.5934L25.2694 126.231C25.0994 137.122 33.8825 146.043 44.7771 146.043H145.794C156.688 146.043 165.472 137.122 165.3 126.231L163.884 35.5934C175.308 15.7957 166.979 6.60488 156.888 4.9104Z" fill="#EAC885"/>
<path d="M98.7578 124.857C98.7578 126.664 97.293 128.127 95.4866 128.127C93.681 128.127 92.217 126.664 92.217 124.857C92.217 123.052 93.681 121.588 95.4866 121.588C97.293 121.588 98.7578 123.052 98.7578 124.857Z" fill="#D5AA60"/>
<path d="M91.2459 17.9918C91.2459 19.4215 90.0859 20.5803 88.6571 20.5803C87.2267 20.5803 86.0679 19.4215 86.0679 17.9918C86.0679 16.5613 87.2267 15.4031 88.6571 15.4031C90.0859 15.4031 91.2459 16.5613 91.2459 17.9918Z" fill="#D5AA60"/>
<path d="M124.9 63.2079C124.9 64.8176 123.596 66.1202 121.988 66.1202C120.379 66.1202 119.075 64.8176 119.075 63.2079C119.075 61.5997 120.379 60.2959 121.988 60.2959C123.596 60.2962 124.9 61.5997 124.9 63.2079Z" fill="#D5AA60"/>
<path d="M132.147 100.105C132.147 101.961 130.641 103.467 128.783 103.467C126.927 103.467 125.419 101.962 125.419 100.105C125.419 98.2463 126.927 96.7407 128.783 96.7407C130.64 96.7407 132.147 98.2463 132.147 100.105Z" fill="#D5AA60"/>
<path d="M56.6433 98.9784C56.6433 100.424 55.4701 101.598 54.0237 101.598C52.5767 101.598 51.4041 100.425 51.4041 98.9784C51.4041 97.5312 52.5767 96.3584 54.0237 96.3584C55.4701 96.3584 56.6433 97.5312 56.6433 98.9784Z" fill="#D5AA60"/>
<path d="M49.2088 124.857C49.2088 126.304 48.0355 127.476 46.5894 127.476C45.1424 127.476 43.9697 126.304 43.9697 124.857C43.9697 123.411 45.1424 122.238 46.5894 122.238C48.0355 122.238 49.2088 123.411 49.2088 124.857Z" fill="#D5AA60"/>
<path d="M80.0101 67.8624C80.0101 70.1399 78.1632 71.986 75.8855 71.986C73.6073 71.986 71.7607 70.1396 71.7607 67.8624C71.7607 65.5844 73.607 63.7378 75.8855 63.7378C78.1635 63.7375 80.0101 65.5841 80.0101 67.8624Z" fill="#D5AA60"/>
<path d="M46.5896 26.5327C46.5896 27.7832 45.5748 28.7973 44.3243 28.7973C43.0724 28.7973 42.0588 27.7832 42.0588 26.5327C42.0588 25.2822 43.0724 24.2676 44.3243 24.2676C45.5748 24.2676 46.5896 25.2822 46.5896 26.5327Z" fill="#D5AA60"/>
<path d="M51.404 62.5612C52.6552 62.5612 53.6694 61.5471 53.6694 60.2961C53.6694 59.0451 52.6552 58.031 51.404 58.031C50.1529 58.031 49.1387 59.0451 49.1387 60.2961C49.1387 61.5471 50.1529 62.5612 51.404 62.5612Z" fill="#D5AA60"/>
<path d="M68.5842 52.9385C68.5842 54.1893 67.57 55.2033 66.3183 55.2033C65.0671 55.2033 64.0535 54.1893 64.0535 52.9385C64.0535 51.688 65.0671 50.6729 66.3183 50.6729C67.57 50.6729 68.5842 51.688 68.5842 52.9385Z" fill="#D5AA60"/>
<path d="M121.342 71.9864C121.342 73.2369 120.328 74.2509 119.076 74.2509C117.824 74.2509 116.811 73.2369 116.811 71.9864C116.811 70.7359 117.824 69.7209 119.076 69.7209C120.328 69.7209 121.342 70.7359 121.342 71.9864Z" fill="#D5AA60"/>
<path d="M139.588 101.597C139.588 102.848 138.574 103.862 137.323 103.862C136.071 103.862 135.059 102.848 135.059 101.597C135.059 100.346 136.071 99.332 137.323 99.332C138.574 99.332 139.588 100.346 139.588 101.597Z" fill="#D5AA60"/>
<path d="M149.882 120.538C149.882 121.789 148.867 122.804 147.617 122.804C146.366 122.804 145.352 121.789 145.352 120.538C145.352 119.288 146.366 118.274 147.617 118.274C148.867 118.274 149.882 119.288 149.882 120.538Z" fill="#D5AA60"/>
<path d="M109.273 130.491C109.273 131.742 108.259 132.756 107.008 132.756C105.755 132.756 104.741 131.742 104.741 130.491C104.741 129.241 105.755 128.226 107.008 128.226C108.259 128.226 109.273 129.241 109.273 130.491Z" fill="#D5AA60"/>
<path d="M140.038 28.7971C140.038 30.2964 138.823 31.5116 137.323 31.5116C135.824 31.5116 134.607 30.2964 134.607 28.7971C134.607 27.2981 135.824 26.0825 137.323 26.0825C138.823 26.0825 140.038 27.2981 140.038 28.7971Z" fill="#D5AA60"/>
</svg>
