<svg width="399" height="399" viewBox="0 0 399 399" fill="none" xmlns="http://www.w3.org/2000/svg">
<path d="M199.884 398.302C309.828 398.302 398.955 309.175 398.955 199.231C398.955 89.2872 309.828 0.160156 199.884 0.160156C89.9406 0.160156 0.813477 89.2872 0.813477 199.231C0.813477 309.175 89.9406 398.302 199.884 398.302Z" fill="#E8E8E2"/>
<path d="M223.961 347.395C305.802 334.113 361.38 257 348.098 175.158C334.815 93.3168 257.702 37.7386 175.861 51.021C94.0194 64.3033 38.4413 141.416 51.7236 223.258C65.006 305.099 142.119 360.677 223.961 347.395Z" fill="#F1F2EC"/>
<path d="M190.888 364.393C126.38 357.544 35.5133 257.537 34.8623 192.671C41.7111 128.163 141.718 37.2965 206.585 36.6416C271.093 43.4904 361.959 143.497 362.61 208.364C355.765 272.872 255.754 363.742 190.888 364.393Z" fill="#83E3A9"/>
<path d="M209.232 56.6032C208.171 51.8126 209.099 46.6711 212.58 43.2136C215.94 39.8808 221.623 37.1912 231.185 38.5243C252.254 41.4595 254.881 26.8186 269.608 41.0073C284.334 55.1921 257.929 65.9233 263.199 83.7138C268.469 101.504 250.699 112.672 239.85 98.6588C228.998 84.6454 220.049 107.675 209.836 94.4918C200.481 82.4119 212.712 72.3161 209.232 56.6032Z" fill="#6FC38E"/>
<path d="M172.754 243.945C167.889 243.329 163.356 240.721 161.278 236.278C159.274 231.99 158.659 225.73 163.137 217.177C173.003 198.335 160.109 190.924 178.429 181.842C196.75 172.76 197.95 201.235 216.474 202.272C235.001 203.308 239.519 223.804 222.668 229.292C205.817 234.785 224.476 250.973 208.627 256.142C194.095 260.886 188.72 245.968 172.754 243.945Z" fill="#6FC38E"/>
<path d="M262.892 116.835C261.831 112.044 262.759 106.903 266.24 103.445C269.6 100.113 275.287 97.423 284.845 98.7561C305.914 101.691 308.541 87.0504 323.268 101.239C337.998 115.424 311.589 126.155 316.86 143.946C322.13 161.736 304.359 172.904 293.51 158.891C282.658 144.877 273.709 167.907 263.496 154.724C254.141 142.64 266.373 132.544 262.892 116.835Z" fill="#6FC38E"/>
<path d="M329.898 234.699C334.357 232.656 339.58 232.485 343.693 235.159C347.657 237.743 351.481 242.737 352.186 252.365C353.742 273.578 368.609 273.071 357.831 290.452C347.053 307.833 331.016 284.27 314.731 293.157C298.445 302.049 283.792 287.018 295.217 273.465C306.638 259.911 282.245 255.998 292.987 243.247C302.826 231.565 315.265 241.404 329.898 234.699Z" fill="#6FC38E"/>
<path d="M64.7643 166.632C63.7041 161.841 64.6318 156.7 68.1127 153.242C71.4728 149.91 77.1599 147.22 86.7217 148.553C107.79 151.488 110.418 136.847 125.144 151.036C139.871 165.225 113.466 175.952 118.736 193.743C124.006 211.533 106.235 222.701 95.383 208.688C84.531 194.674 75.5813 217.704 65.3724 204.521C56.0133 192.437 68.2452 182.341 64.7643 166.632Z" fill="#6FC38E"/>
<path d="M207.91 376.602C203.345 378.399 198.118 378.29 194.162 375.393C190.342 372.599 186.798 367.403 186.615 357.751C186.214 336.484 171.343 336.183 183.049 319.414C194.754 302.645 209.485 327.043 226.231 319.052C242.976 311.061 256.787 326.859 244.649 339.774C232.506 352.688 256.654 357.919 245.237 370.069C234.767 381.201 222.882 370.704 207.91 376.602Z" fill="#6FC38E"/>
<path d="M59.6034 274.439C58.5431 269.652 59.4709 264.507 62.9518 261.049C66.3118 257.717 71.9951 255.027 81.5569 256.36C102.626 259.295 105.253 244.654 119.98 258.843C134.71 273.032 108.301 283.759 113.571 301.55C118.841 319.34 101.07 330.508 90.2183 316.495C79.3662 302.481 70.4164 325.511 60.2075 312.328C50.8523 300.244 63.0804 290.152 59.6034 274.439Z" fill="#6FC38E"/>
<path d="M141.917 66.5275C140.856 61.7369 141.784 56.5954 145.265 53.1379C148.625 49.8051 154.312 47.1155 163.87 48.4486C184.939 51.3838 187.566 36.7429 202.293 50.9316C217.019 65.1204 190.614 75.8477 195.884 93.6381C201.154 111.429 183.384 122.596 172.531 108.583C161.679 94.5698 152.73 117.599 142.521 104.416C133.162 92.3323 145.394 82.2404 141.917 66.5275Z" fill="#B2E6D1"/>
<path d="M208.024 163.502C206.963 158.711 207.891 153.57 211.372 150.112C214.732 146.779 220.419 144.09 229.977 145.423C251.046 148.358 253.673 133.717 268.4 147.906C283.126 162.095 256.721 172.822 261.991 190.613C267.261 208.403 249.49 219.571 238.638 205.557C227.786 191.544 218.837 214.574 208.628 201.39C199.273 189.307 211.504 179.211 208.024 163.502Z" fill="#B2E6D1"/>
<path d="M299.837 174.463C298.776 169.672 299.704 164.531 303.185 161.073C306.545 157.741 312.228 155.051 321.79 156.384C342.859 159.319 345.486 144.678 360.213 158.867C374.939 173.056 348.534 183.783 353.805 201.574C359.075 219.364 341.304 230.532 330.452 216.519C319.6 202.505 310.65 225.535 300.441 212.352C291.086 200.268 303.314 190.176 299.837 174.463Z" fill="#B2E6D1"/>
<path d="M92.6737 276.025C91.6134 271.235 92.5411 266.093 96.022 262.636C99.382 259.303 105.069 256.613 114.627 257.947C135.696 260.882 138.323 246.241 153.05 260.43C167.78 274.618 141.371 285.346 146.641 303.136C151.912 320.927 134.141 332.094 123.289 318.081C112.437 304.068 103.487 327.097 93.2779 313.914C83.9227 301.83 96.1507 291.734 92.6737 276.025Z" fill="#B2E6D1"/>
<path d="M62.0311 107.215C60.9708 102.424 61.8986 97.2827 65.3795 93.8251C68.7396 90.4924 74.4268 87.8028 83.9847 89.1359C105.053 92.0711 107.681 77.4302 122.407 91.6189C137.134 105.808 110.729 116.535 115.999 134.325C121.269 152.116 103.498 163.284 92.646 149.27C81.794 135.257 72.8441 158.286 62.6353 145.103C53.2801 133.02 65.5081 122.928 62.0311 107.215Z" fill="#B2E6D1"/>
<path d="M162.533 274.24C161.473 269.45 162.4 264.308 165.881 260.851C169.241 257.518 174.925 254.828 184.487 256.161C205.555 259.097 208.182 244.456 222.909 258.644C237.636 272.829 211.231 283.56 216.501 301.351C221.771 319.141 204 330.309 193.148 316.296C182.296 302.283 173.346 325.312 163.137 312.129C153.782 300.045 166.01 289.949 162.533 274.24Z" fill="#B2E6D1"/>
<path d="M246.726 316.612C245.666 311.821 246.594 306.679 250.075 303.222C253.435 299.889 259.122 297.2 268.68 298.533C289.748 301.468 292.376 286.827 307.102 301.016C321.829 315.204 295.424 325.932 300.694 343.722C305.964 361.513 288.193 372.68 277.341 358.667C266.489 344.654 257.539 367.683 247.33 354.5C237.971 342.42 250.203 332.324 246.726 316.612Z" fill="#B2E6D1"/>
<path d="M179.556 101.571C182.831 105.227 184.542 110.162 183.201 114.882C181.907 119.435 178.27 124.565 169.285 128.093C149.483 135.865 154.371 149.91 134.581 144.768C114.787 139.627 132.543 117.326 119.227 104.404C105.911 91.4826 115.922 73.0372 132.25 79.9328C148.579 86.8244 145.09 62.3684 160.448 68.8469C174.528 74.7874 168.817 89.5803 179.556 101.571Z" fill="#6FC38E"/>
<path d="M275.329 187.046C261.924 199.227 241.039 199.056 225.268 187.911L221.085 191.712C237.051 209.288 264.653 210.609 282.229 194.639C299.735 178.735 301.127 151.278 285.324 133.682L281.083 137.491C290.551 154.229 288.68 174.915 275.329 187.046Z" fill="#C10F19"/>
<path d="M225.268 187.911C241.039 199.056 261.924 199.227 275.33 187.046C288.68 174.915 290.551 154.229 281.087 137.491L253.123 162.605L225.268 187.911Z" fill="#C9515C"/>
<path d="M258.802 116.551C245.397 128.732 224.511 128.56 208.74 117.416L204.558 121.216C220.524 138.792 248.125 140.114 265.702 124.144C283.207 108.24 284.599 80.7825 268.797 63.1869L264.556 66.9952C274.028 83.7333 272.153 104.424 258.802 116.551Z" fill="#C10F19"/>
<path d="M208.74 117.416C224.512 128.56 245.397 128.732 258.802 116.551C272.153 104.42 274.024 83.7333 264.56 66.9952L236.595 92.1101L208.74 117.416Z" fill="#C9515C"/>
<path d="M120.377 241.029C112.869 224.545 119.402 204.712 134.827 193.092L132.484 187.95C110.877 197.793 101.195 223.675 111.037 245.286C120.841 266.807 146.564 276.513 168.143 266.834L165.812 261.634C146.989 265.54 127.857 257.444 120.377 241.029Z" fill="#C10F19"/>
<path d="M134.83 193.092C119.406 204.712 112.869 224.549 120.381 241.029C127.857 257.444 146.988 265.54 165.82 261.63L150.434 227.336L134.83 193.092Z" fill="#C9515C"/>
<path d="M233.017 290.335C225.51 273.85 232.043 254.017 247.467 242.397L245.124 237.256C223.518 247.098 213.835 272.981 223.681 294.592C233.485 316.113 259.208 325.819 280.787 316.14L278.456 310.94C259.625 314.846 240.493 306.75 233.017 290.335Z" fill="#C10F19"/>
<path d="M247.467 242.397C232.043 254.017 225.506 273.854 233.017 290.335C240.494 306.75 259.625 314.846 278.456 310.936L263.071 276.641L247.467 242.397Z" fill="#C9515C"/>
<path d="M310.467 222.81C324.991 211.989 345.759 214.184 360.377 226.806L364.91 223.43C350.721 204.388 323.381 200.397 304.339 214.581C285.375 228.712 281.321 255.904 295.342 274.95L299.93 271.57C292.13 253.994 296.005 233.584 310.467 222.81Z" fill="#C10F19"/>
<path d="M360.377 226.805C345.759 214.184 324.991 211.985 310.467 222.81C296.005 233.588 292.13 253.998 299.93 271.574L330.198 249.293L360.377 226.805Z" fill="#C9515C"/>
<path d="M122.244 87.9626C136.768 77.1418 157.536 79.3403 172.154 91.9581L176.687 88.5824C162.499 69.5407 135.158 65.5491 116.116 79.734C97.1524 93.8642 93.0986 121.057 107.12 140.102L111.708 136.723C103.908 119.151 107.782 98.7406 122.244 87.9626Z" fill="#C10F19"/>
<path d="M172.154 91.962C157.536 79.3403 136.768 77.1418 122.244 87.9665C107.782 98.7445 103.908 119.154 111.708 136.731L141.976 114.45L172.154 91.962Z" fill="#C9515C"/>
<path d="M157.236 302.781C171.76 291.961 192.529 294.155 207.146 306.777L211.679 303.401C197.491 284.36 170.15 280.368 151.108 294.553C132.145 308.683 128.091 335.876 142.112 354.925L146.7 351.545C138.9 333.965 142.771 313.556 157.236 302.781Z" fill="#C10F19"/>
<path d="M207.146 306.777C192.529 294.155 171.76 291.957 157.236 302.781C142.775 313.559 138.9 333.965 146.7 351.545L176.968 329.265L207.146 306.777Z" fill="#C9515C"/>
<path d="M52.3763 194.776C51.4603 176.685 64.8343 160.649 83.455 155.519L83.1705 149.875C59.455 151.075 40.9318 171.579 42.1324 195.294C43.3291 218.916 63.6766 237.404 87.3023 236.344L87.0451 230.653C68.1009 227.359 53.2923 212.792 52.3763 194.776Z" fill="#C10F19"/>
<path d="M83.4551 155.519C64.8382 160.649 51.4603 176.685 52.3764 194.776C53.2885 212.788 68.097 227.355 87.0452 230.653L85.3613 193.103L83.4551 155.519Z" fill="#C9515C"/>
<path d="M160.206 185.428C159.29 167.338 172.664 151.301 191.285 146.171L191.001 140.527C167.285 141.728 148.762 162.231 149.962 185.947C151.159 209.568 171.507 228.057 195.133 226.996L194.875 221.305C175.927 218.008 161.118 203.441 160.206 185.428Z" fill="#C10F19"/>
<path d="M191.281 146.171C172.664 151.301 159.287 167.338 160.203 185.428C161.115 203.441 175.923 218.008 194.871 221.305L193.184 183.756L191.281 146.171Z" fill="#C9515C"/>
<path d="M205.021 97.9415L176.823 150.518C176.823 150.518 200.917 156.848 212.942 133.632C222.972 114.259 205.021 97.9415 205.021 97.9415Z" fill="#444657"/>
<path d="M259.317 259.97L291.175 209.526C291.175 209.526 267.592 201.5 253.949 223.808C242.567 242.417 259.317 259.97 259.317 259.97Z" fill="#444657"/>
<path d="M186.272 317.73L244.984 328.325C244.984 328.325 243.569 303.456 217.772 299.184C196.255 295.617 186.272 317.73 186.272 317.73Z" fill="#444657"/>
<path d="M257.321 133.885L316.033 144.48C316.033 144.48 314.618 119.611 288.821 115.338C267.304 111.768 257.321 133.885 257.321 133.885Z" fill="#444657"/>
<path d="M252.472 289.021L311.183 299.616C311.183 299.616 309.768 274.747 283.971 270.475C262.454 266.912 252.472 289.021 252.472 289.021Z" fill="#444657"/>
<path d="M92.2021 130.669L150.914 141.264C150.914 141.264 149.499 116.395 123.702 112.122C102.185 108.556 92.2021 130.669 92.2021 130.669Z" fill="#444657"/>
<path d="M176.106 246.14L150.029 192.48C150.029 192.48 130.78 208.29 142.544 231.643C152.363 251.121 176.106 246.14 176.106 246.14Z" fill="#444657"/>
<path d="M79.374 217.544L94.6152 275.226C94.6152 275.226 116.553 263.423 109.51 238.242C103.635 217.236 79.374 217.544 79.374 217.544Z" fill="#444657"/>
<path d="M124.505 342.093C109.665 342.093 97.5889 329.292 97.5889 313.555C97.5889 297.823 109.665 285.022 124.505 285.022C139.344 285.022 151.42 297.823 151.42 313.555C151.42 329.292 139.344 342.093 124.505 342.093ZM124.505 290.694C112.787 290.694 103.261 300.949 103.261 313.555C103.261 326.162 112.787 336.421 124.505 336.421C136.222 336.421 145.749 326.165 145.749 313.555C145.749 300.949 136.218 290.694 124.505 290.694Z" fill="#E8F6F4"/>
<path d="M233.138 200.221C218.299 200.221 206.223 187.42 206.223 171.688C206.223 155.952 218.299 143.151 233.138 143.151C247.978 143.151 260.054 155.952 260.054 171.688C260.054 187.42 247.978 200.221 233.138 200.221ZM233.138 148.822C221.421 148.822 211.894 159.078 211.894 171.688C211.894 184.294 221.425 194.55 233.138 194.55C244.856 194.55 254.382 184.294 254.382 171.688C254.382 159.078 244.856 148.822 233.138 148.822Z" fill="#E8F6F4"/>
<path d="M203.206 108.306C188.366 108.306 176.29 95.5053 176.29 79.7691C176.29 64.0368 188.366 51.2357 203.206 51.2357C218.045 51.2357 230.121 64.0368 230.121 79.7691C230.121 95.5053 218.045 108.306 203.206 108.306ZM203.206 56.9073C191.488 56.9073 181.962 67.163 181.962 79.7691C181.962 92.3752 191.492 102.635 203.206 102.635C214.923 102.635 224.45 92.3791 224.45 79.7691C224.45 67.163 214.919 56.9073 203.206 56.9073Z" fill="#E8F6F4"/>
<path d="M324.246 201.831C309.406 201.831 297.33 189.03 297.33 173.294C297.33 157.561 309.406 144.76 324.246 144.76C339.085 144.76 351.161 157.561 351.161 173.294C351.165 189.03 339.085 201.831 324.246 201.831ZM324.246 150.432C312.528 150.432 303.002 160.688 303.002 173.294C303.002 185.9 312.528 196.159 324.246 196.159C335.963 196.159 345.49 185.9 345.49 173.294C345.49 160.688 335.963 150.432 324.246 150.432Z" fill="#E8F6F4"/>
<path d="M277.676 348.423C262.837 348.423 250.761 335.622 250.761 319.89C250.761 304.157 262.837 291.356 277.676 291.356C292.516 291.356 304.592 304.157 304.592 319.89C304.592 335.622 292.516 348.423 277.676 348.423ZM277.676 297.028C265.959 297.028 256.432 307.284 256.432 319.89C256.432 332.496 265.963 342.752 277.676 342.752C289.394 342.752 298.92 332.496 298.92 319.89C298.924 307.28 289.394 297.028 277.676 297.028Z" fill="#E8F6F4"/>
<path d="M189.832 277.862C174.992 277.862 162.916 265.06 162.916 249.324C162.916 233.592 174.992 220.791 189.832 220.791C204.671 220.791 216.747 233.592 216.747 249.324C216.747 265.06 204.671 277.862 189.832 277.862ZM189.832 226.462C178.114 226.462 168.588 236.718 168.588 249.324C168.588 261.93 178.114 272.19 189.832 272.19C201.549 272.19 211.076 261.934 211.076 249.324C211.076 236.718 201.549 226.462 189.832 226.462Z" fill="#E8F6F4"/>
<path d="M110.901 198.28C96.0614 198.28 83.9854 185.479 83.9854 169.743C83.9854 154.01 96.0614 141.209 110.901 141.209C125.741 141.209 137.817 154.01 137.817 169.743C137.817 185.479 125.741 198.28 110.901 198.28ZM110.901 146.881C99.1836 146.881 89.6569 157.137 89.6569 169.743C89.6569 182.349 99.1836 192.608 110.901 192.608C122.618 192.608 132.145 182.349 132.145 169.743C132.145 157.133 122.618 146.881 110.901 146.881Z" fill="#E8F6F4"/>
<path d="M82.9988 142.866L75.1793 135.047C73.1056 132.973 73.1056 129.613 75.1793 127.543L82.9988 119.724C85.0725 117.65 88.4286 117.65 90.5024 119.724L98.3218 127.543C100.396 129.617 100.396 132.973 98.3218 135.047L90.5024 142.866C88.4325 144.936 85.0725 144.936 82.9988 142.866Z" fill="#F7EB98"/>
<path d="M320.497 299.055L312.677 291.236C310.604 289.162 310.604 285.802 312.677 283.732L320.497 275.912C322.57 273.839 325.927 273.839 328 275.912L335.82 283.732C337.893 285.806 337.893 289.166 335.82 291.236L328 299.055C325.927 301.125 322.57 301.125 320.497 299.055Z" fill="#F7EB98"/>
<path d="M333.621 183.257L325.801 175.438C323.728 173.364 323.728 170.004 325.801 167.934L333.621 160.115C335.695 158.041 339.051 158.041 341.124 160.115L348.944 167.934C351.018 170.008 351.018 173.368 348.944 175.438L341.124 183.257C339.055 185.331 335.695 185.331 333.621 183.257Z" fill="#F7EB98"/>
<path d="M226.367 235.56L218.547 227.741C216.474 225.667 216.474 222.307 218.547 220.237L226.367 212.418C228.441 210.344 231.801 210.344 233.871 212.418L241.69 220.237C243.764 222.311 243.764 225.671 241.69 227.741L233.871 235.56C231.801 237.63 228.441 237.63 226.367 235.56Z" fill="#F7EB98"/>
<path d="M117.804 297.624L109.985 289.805C107.911 287.731 107.911 284.371 109.985 282.301L117.804 274.482C119.878 272.408 123.234 272.408 125.308 274.482L133.127 282.301C135.201 284.375 135.201 287.735 133.127 289.805L125.308 297.624C123.238 299.698 119.878 299.698 117.804 297.624Z" fill="#F7EB98"/>
<path d="M166.799 138.071L158.979 130.252C156.905 128.178 156.905 124.822 158.979 122.748L166.799 114.929C168.872 112.855 172.228 112.855 174.302 114.929L182.122 122.748C184.195 124.822 184.195 128.178 182.122 130.252L174.302 138.071C172.232 140.141 168.872 140.141 166.799 138.071Z" fill="#F7EB98"/>
<path d="M65.9372 271.543L58.1178 263.723C56.0441 261.65 56.0441 258.29 58.1178 256.22L65.9372 248.4C68.011 246.327 71.3671 246.327 73.4408 248.4L81.2603 256.22C83.334 258.294 83.334 261.654 81.2603 263.723L73.4408 271.543C71.371 273.613 68.011 273.613 65.9372 271.543Z" fill="#F7EB98"/>
<path d="M208.016 354.64L197.328 357.482C194.494 358.234 191.59 356.55 190.837 353.717L187.996 343.028C187.243 340.194 188.927 337.29 191.761 336.538L202.45 333.696C205.283 332.944 208.187 334.628 208.94 337.462L211.781 348.15C212.53 350.98 210.846 353.888 208.016 354.64Z" fill="#F7EB98"/>
<path d="M250.309 70.2268L239.621 73.0684C236.791 73.8207 233.883 72.1368 233.13 69.3029L230.289 58.6146C229.536 55.7847 231.22 52.8768 234.054 52.1244L244.742 49.2828C247.576 48.5305 250.48 50.2144 251.233 53.0483L254.074 63.7366C254.827 66.5704 253.139 69.4744 250.309 70.2268Z" fill="#F7EB98"/>
</svg>
