<svg width="200" height="200" viewBox="0 0 200 200" fill="none" xmlns="http://www.w3.org/2000/svg">
<path d="M194 123.835C194 162.034 151.915 193 100 193C48.0852 193 6 162.034 6 123.835C6 85.637 48.0852 54.671 100 54.671C151.915 54.671 194 85.637 194 123.835Z" fill="#E8C483"/>
<path d="M194 118.071C194 155.916 151.915 186.595 100 186.595C48.0852 186.595 6 155.916 6 118.071C6 80.2266 48.0852 49.5474 100 49.5474C151.915 49.5474 194 80.2266 194 118.071Z" fill="#F9DCA6"/>
<path d="M179.452 112.949C179.452 143.012 144.131 167.383 100.56 167.383C56.9882 167.383 21.6667 143.012 21.6667 112.949C21.6667 82.8849 56.9882 58.5136 100.56 58.5136C144.131 58.5136 179.452 82.8849 179.452 112.949Z" fill="#E7C280"/>
<path d="M107.125 148.85C97.025 155.779 91.7934 158.75 88.1015 152.052L76.911 148.21C66.2145 152.491 62.5325 150.808 59.0063 142.446C44.568 144.511 38.1821 143.636 37.7444 128.998C23.601 125.865 13.4814 125.241 23.1967 109.785C5.73471 98.2826 7.67015 93.4249 20.9586 86.0901C5.06983 66.3601 7.786 61.5482 25.4348 59.8333C16.4798 32.7673 20.8764 29.4366 43.3396 41.9017C45.8388 19.9214 51.0077 18.5303 65.161 30.3742C71.9988 5.43021 77.9015 6.29841 86.4229 23.9701C93.1951 12.9382 96.9939 14.832 103.768 25.8915L169.792 66.8778C185.095 69.4144 189.842 73.3147 176.506 94.4155C188.31 105.068 181.7 110.48 167.554 120.032C175.891 132.668 172.685 135.903 158.042 137.323C159.222 148.253 152.604 149.967 132.863 148.21L107.125 148.85Z" fill="#82B62B"/>
<path d="M75.061 10.7017C77.0427 10.2979 78.9633 11.4768 80.8472 13.6831C82.631 15.7723 84.4923 18.9066 86.478 22.9409C87.9913 20.5637 89.3792 18.814 90.7144 17.6802C92.1995 16.4191 93.6669 15.8813 95.1831 16.1548C96.6675 16.4226 98.0827 17.4499 99.5229 19.0386C100.952 20.6149 102.459 22.8042 104.131 25.5278L169.973 66.4009C173.761 67.0321 176.945 67.7561 179.374 68.8257C181.831 69.9081 183.578 71.3735 184.359 73.5142C185.133 75.6376 184.914 78.3154 183.707 81.7339C182.524 85.0819 180.368 89.2052 177.15 94.3276C179.945 96.899 181.714 99.2081 182.543 101.391C183.415 103.682 183.24 105.802 182.208 107.861C181.188 109.893 179.341 111.85 176.9 113.881C174.548 115.838 171.603 117.892 168.238 120.169C170.181 123.157 171.487 125.641 172.123 127.718C172.788 129.895 172.74 131.695 171.84 133.147C170.952 134.581 169.3 135.562 167.028 136.276C164.851 136.96 162.03 137.419 158.587 137.769C158.813 140.316 158.603 142.412 157.836 144.09C157.011 145.898 155.567 147.163 153.482 147.989C151.414 148.808 148.705 149.202 145.304 149.287C141.903 149.372 137.772 149.148 132.84 148.709L107.285 149.346C104.81 151.043 102.616 152.508 100.663 153.648C98.6803 154.804 96.9167 155.643 95.3335 156.046C93.7416 156.451 92.2994 156.423 90.9966 155.803C89.744 155.208 88.6884 154.097 87.7593 152.463L76.9214 148.743C71.6633 150.83 67.9629 151.527 65.1069 150.542C62.2727 149.564 60.4242 146.989 58.6978 142.993C55.2428 143.479 52.232 143.795 49.6509 143.775C46.9774 143.754 44.7221 143.376 42.895 142.429C39.2482 140.54 37.5271 136.517 37.2583 129.404C33.8848 128.663 30.7085 128.048 28.0103 127.331C25.2156 126.588 22.8395 125.712 21.2104 124.402C19.5422 123.06 18.6731 121.275 18.8843 118.824C19.0839 116.508 20.2448 113.619 22.5161 109.933C18.3481 107.164 15.289 104.765 13.2485 102.605C11.1478 100.381 10.0674 98.3501 10.0464 96.3804C10.0254 94.3966 11.0785 92.6173 12.9048 90.9048C14.634 89.2833 17.1121 87.6702 20.1997 85.9419C16.415 81.2111 13.7025 77.33 12.0298 74.1372C10.3112 70.8568 9.64201 68.2155 10.1333 66.0933C10.6346 63.9279 12.3033 62.453 14.8687 61.4214C17.3057 60.4414 20.6334 59.8284 24.7661 59.4009C22.6374 52.9077 21.2871 47.78 20.7993 43.9224C20.5481 41.9355 20.5224 40.2606 20.7485 38.897C20.975 37.5313 21.4605 36.4437 22.2603 35.6812C23.8697 34.1468 26.5024 34.1377 29.9478 35.1597C33.2982 36.1535 37.6091 38.18 42.9292 41.105C43.5418 35.9566 44.3143 31.9471 45.3413 28.9976C46.4124 25.9212 47.7948 23.8974 49.6646 23.0024C51.5508 22.0998 53.7763 22.418 56.3462 23.6362C58.7746 24.7874 61.5956 26.7843 64.8853 29.4985C66.5253 23.6236 68.1201 19.203 69.7261 16.1333C71.3818 12.9685 73.1217 11.0969 75.061 10.7017ZM80.0874 14.3325C78.2543 12.1856 76.6741 11.393 75.2603 11.6812C73.8041 11.978 72.2532 13.4616 70.6128 16.5972C68.9897 19.6997 67.3494 24.2815 65.6431 30.5063L65.437 31.2573L64.8403 30.7573C61.3094 27.8026 58.3718 25.703 55.9175 24.5396C53.46 23.3747 51.5835 23.193 50.0962 23.9048C48.5921 24.6247 47.3289 26.3304 46.2856 29.3267C45.247 32.3099 44.46 36.4743 43.8364 41.9585L43.7515 42.7026L43.0972 42.3394C37.4868 39.2261 33.0395 37.119 29.6636 36.1177C26.2474 35.1044 24.1289 35.2818 22.9507 36.4048C22.3567 36.9711 21.9388 37.8307 21.7349 39.0601C21.5306 40.2916 21.5466 41.8609 21.7915 43.7974C22.2813 47.671 23.6731 52.9164 25.9097 59.6763L26.106 60.27L25.4829 60.3306C21.0798 60.7584 17.6603 61.3766 15.2417 62.3491C12.831 63.3186 11.5046 64.6008 11.1069 66.3188C10.6992 68.0802 11.2263 70.4489 12.9155 73.6733C14.5967 76.8822 17.3824 80.8524 21.3481 85.7769L21.7212 86.2397L21.2007 86.5278C17.8857 88.3576 15.3181 90.0123 13.5884 91.6343C11.8603 93.2548 11.0296 94.7844 11.0464 96.3696C11.0634 97.9689 11.9431 99.7674 13.9751 101.918C16.0019 104.064 19.1176 106.499 23.4722 109.368L23.8804 109.637L23.6196 110.051C21.2037 113.895 20.0666 116.749 19.8804 118.91C19.6985 121.02 20.4215 122.485 21.8364 123.623C23.2908 124.792 25.4901 125.626 28.2671 126.364C31.0398 127.101 34.2947 127.721 37.8521 128.509L38.2329 128.593L38.2437 128.983C38.4614 136.264 40.1565 139.884 43.355 141.542C44.9839 142.385 47.0604 142.755 49.6587 142.775C52.2552 142.795 55.3306 142.467 58.9351 141.952L59.3169 141.897L59.4673 142.252C61.2234 146.417 62.9534 148.741 65.4331 149.596C67.9422 150.462 71.3799 149.885 76.7251 147.746L76.8979 147.677L77.0737 147.737L88.4458 151.642L88.5396 151.811C89.4335 153.433 90.3869 154.407 91.4263 154.901C92.4582 155.391 93.6477 155.443 95.0874 155.077C96.5359 154.708 98.2044 153.924 100.159 152.784C102.11 151.646 104.317 150.17 106.842 148.438L106.964 148.354L107.113 148.35L132.851 147.71L132.879 147.709L132.908 147.712C137.836 148.151 141.929 148.371 145.279 148.288C148.634 148.204 151.207 147.815 153.114 147.059C155.003 146.31 156.227 145.207 156.927 143.674C157.637 142.121 157.835 140.068 157.544 137.376L157.491 136.875L157.994 136.826C161.645 136.472 164.549 136.006 166.728 135.322C168.915 134.635 170.29 133.751 170.991 132.62C171.68 131.506 171.787 130.039 171.167 128.011C170.545 125.978 169.212 123.454 167.136 120.307L166.864 119.894L167.274 119.618C170.812 117.229 173.857 115.112 176.26 113.113C178.668 111.11 180.388 109.258 181.314 107.412C182.226 105.592 182.376 103.764 181.609 101.747C180.831 99.6999 179.098 97.4278 176.171 94.7866L175.859 94.5044L176.083 94.1479C179.41 88.8844 181.591 84.7212 182.764 81.4009C183.939 78.0747 184.077 75.6622 183.418 73.856C182.766 72.0672 181.291 70.7624 178.971 69.7407C176.644 68.7156 173.53 68.0038 169.71 67.3706L169.613 67.355L103.404 26.2534L103.341 26.1528C101.652 23.3946 100.164 21.2352 98.7817 19.7104C97.3929 18.1784 96.1649 17.3473 95.0063 17.1382C93.8797 16.9349 92.7042 17.3011 91.3608 18.4419C90.0074 19.5912 88.5335 21.4881 86.8491 24.2319L86.3706 25.0122L85.9722 24.187C83.8465 19.7787 81.9027 16.4586 80.0874 14.3325Z" fill="#72A729"/>
<path d="M41.3804 121.035C38.2998 135.851 44.5323 134.794 56.4876 131.922C57.6474 148.94 59.7869 156.231 77.7495 147.933C86.3171 157.848 92.1454 160.748 108.523 150.494C111.556 158.704 116.823 158.558 133.142 149.213C145.519 144.799 150.6 141.691 147.13 131.922C164.533 127.894 162.01 124.57 155.523 118.474C165.964 110.543 169.506 106.57 161.119 102.463V99.9017C163.971 93.4198 173.717 87.4961 157.202 86.4531L155.523 80.049C166.865 79.5079 169.063 75.9109 171.749 68.5216H166.154L108.523 51.8709C96.3628 36.2414 91.4858 35.0255 86.7018 48.0284L80.5471 46.7476C73.1853 25.6472 71.3662 27.5207 72.1542 46.7476H66.559C55.2909 36.2672 53.5472 39.4233 56.4876 56.9942L49.2137 58.9154C25.5367 46.5707 26.6 50.3817 43.6185 68.5216C28.054 67.5271 24.3149 69.4613 31.8685 80.049C25.7449 86.1527 27.5924 89.3247 35.2256 94.7784C22.2096 100.025 21.0495 102.979 35.2256 108.227C25.076 118.404 31.6658 119.047 41.3804 121.035Z" fill="#619622"/>
<path d="M73.2046 31.1333C73.5381 31.0722 73.8462 31.188 74.1011 31.3599C74.355 31.5312 74.6013 31.7874 74.8433 32.0991C75.3286 32.7243 75.8689 33.6712 76.4702 34.9263C77.6558 37.401 79.1256 41.1742 80.9243 46.3149L86.3843 47.4507C87.5375 44.3893 88.7195 42.0899 90.0474 40.6108C91.4577 39.0399 93.0632 38.366 94.939 38.7212C96.7531 39.0649 98.7399 40.3596 100.999 42.4839C103.244 44.5956 105.814 47.5834 108.816 51.4341L166.226 68.022H172.463L172.219 68.6929C170.878 72.3825 169.62 75.253 167.2 77.2397C164.861 79.16 161.51 80.1955 156.162 80.5122L157.593 85.978C161.518 86.2489 164.004 86.8086 165.436 87.6519C166.189 88.0953 166.686 88.6379 166.921 89.2876C167.155 89.933 167.103 90.6125 166.902 91.2817C166.509 92.5888 165.48 94.0434 164.44 95.5024C163.396 96.9678 162.31 98.4776 161.619 100.009V102.154C163.587 103.148 164.946 104.175 165.672 105.314C166.462 106.554 166.466 107.866 165.836 109.243C165.223 110.584 164.003 112.007 162.322 113.57C160.735 115.045 158.698 116.676 156.291 118.514C157.728 119.876 158.974 121.126 159.803 122.291C160.709 123.563 161.207 124.856 160.757 126.139C160.319 127.39 159.039 128.448 156.905 129.433C154.838 130.387 151.863 131.316 147.781 132.281C148.529 134.535 148.825 136.472 148.646 138.176C148.452 140.026 147.705 141.568 146.444 142.917C145.193 144.254 143.446 145.394 141.258 146.471C139.079 147.544 136.432 148.569 133.352 149.668C129.282 151.998 125.886 153.764 123.032 154.971C120.174 156.18 117.828 156.843 115.875 156.936C113.903 157.03 112.319 156.543 111.032 155.454C109.88 154.478 109.003 153.052 108.274 151.237C100.345 156.133 94.7978 157.967 90.1333 157.271C85.4513 156.572 81.799 153.343 77.6177 148.541C73.2689 150.524 69.813 151.605 67.0522 151.824C64.1989 152.05 62.054 151.359 60.4644 149.776C58.8995 148.218 57.9359 145.856 57.2847 142.877C56.662 140.029 56.3134 136.551 56.0308 132.543C53.2785 133.201 50.8166 133.754 48.7114 134.012C46.4735 134.286 44.552 134.241 43.0864 133.566C41.5721 132.868 40.6267 131.54 40.2671 129.476C39.9286 127.533 40.1005 124.903 40.7915 121.425C38.5629 120.974 36.4821 120.579 34.7612 120.109C32.9341 119.609 31.3917 118.996 30.4907 118.045C30.0257 117.555 29.7281 116.971 29.6538 116.281C29.5806 115.6 29.7293 114.857 30.0806 114.043C30.7268 112.548 32.1043 110.717 34.3306 108.423C31.1431 107.216 28.752 106.12 27.1411 105.069C25.448 103.964 24.4361 102.794 24.5298 101.467C24.5761 100.812 24.8922 100.2 25.3911 99.6274C25.889 99.0559 26.5925 98.4958 27.4722 97.9341C29.0778 96.9089 31.3421 95.8345 34.2036 94.6558C32.6164 93.4939 31.2922 92.4211 30.2651 91.3862C29.0856 90.1978 28.2659 89.0293 27.9077 87.7974C27.1976 85.355 28.3573 82.93 31.2212 79.9956C29.4641 77.4955 28.32 75.444 27.8481 73.7778C27.6001 72.9016 27.5279 72.1021 27.6724 71.3872C27.819 70.662 28.1827 70.055 28.7466 69.5649C29.8436 68.6115 31.6767 68.1246 34.1118 67.9165C36.3027 67.7293 39.0669 67.7623 42.3989 67.9478C38.559 63.8331 35.5816 60.4881 33.5894 57.9399C32.5219 56.5747 31.7234 55.4215 31.2261 54.4917C30.9775 54.027 30.7955 53.6006 30.6958 53.2202C30.5978 52.846 30.5662 52.4667 30.6812 52.1265C30.8052 51.7595 31.0751 51.5074 31.4272 51.3706C31.7582 51.242 32.157 51.2156 32.5894 51.2485C33.4561 51.3147 34.6391 51.6379 36.1304 52.189C39.0973 53.2853 43.4383 55.3447 49.272 58.3823L55.9204 56.6265C55.2291 52.4386 54.8092 49.0692 54.7368 46.521C54.6993 45.2016 54.7541 44.0836 54.9194 43.1772C55.0836 42.2778 55.3647 41.5373 55.8198 41.021C56.2952 40.4818 56.9234 40.2294 57.6606 40.2515C58.3712 40.2728 59.1711 40.5475 60.0522 41.0151C61.786 41.9353 64.0003 43.6969 66.7534 46.2476H71.6353C71.4567 41.6881 71.4288 38.1202 71.5991 35.6353C71.6872 34.3502 71.8297 33.3253 72.0425 32.5952C72.1486 32.2313 72.28 31.9104 72.4517 31.6626C72.6245 31.4131 72.8698 31.1947 73.2046 31.1333ZM73.3843 32.1167C73.3729 32.1218 73.3341 32.1452 73.2739 32.2319C73.1887 32.355 73.0939 32.5608 73.0024 32.8745C72.8202 33.4998 72.6838 34.4391 72.5972 35.7036C72.4244 38.2243 72.4569 41.9232 72.6538 46.7271L72.6753 47.2476H66.3628L66.2183 47.1138C63.4049 44.4971 61.2236 42.7684 59.5835 41.8979C58.7628 41.4624 58.121 41.2652 57.6304 41.2505C57.1662 41.2366 56.8329 41.3837 56.5698 41.6821C56.2866 42.0034 56.052 42.5393 55.9028 43.3569C55.7549 44.1679 55.6994 45.209 55.7358 46.4927C55.8088 49.0598 56.2466 52.5235 56.981 56.9116L57.0562 57.3608L56.6157 57.478L49.3413 59.3989L49.1538 59.4487L48.9829 59.3589C43.0655 56.2736 38.7165 54.2099 35.7847 53.1265C34.3122 52.5824 33.2357 52.3007 32.5132 52.2456C32.151 52.218 31.9225 52.2516 31.7896 52.3032C31.678 52.3466 31.647 52.3946 31.6294 52.4468C31.6027 52.5257 31.5887 52.6851 31.6626 52.9673C31.735 53.2435 31.8794 53.5927 32.1079 54.02C32.5647 54.8742 33.3222 55.974 34.3774 57.3237C36.4854 60.0199 39.7293 63.6453 43.9829 68.1792L44.8481 69.1011L43.5864 69.021C39.7013 68.7728 36.5796 68.709 34.1968 68.9126C31.7894 69.1183 30.241 69.5896 29.4019 70.3188C28.9977 70.6701 28.754 71.0851 28.6528 71.5854C28.5496 72.0962 28.5896 72.7269 28.8101 73.5054C29.254 75.0731 30.3941 77.1206 32.2759 79.7583L32.522 80.104L32.2212 80.4028C29.1772 83.4369 28.3016 85.5676 28.8687 87.5181C29.161 88.5235 29.8521 89.5515 30.9741 90.6821C32.0949 91.8114 33.6146 93.013 35.5161 94.3716L36.2583 94.9019L35.4126 95.2417C32.1634 96.5513 29.6867 97.7064 28.0103 98.7769C27.1724 99.3118 26.5558 99.8122 26.145 100.284C25.7353 100.754 25.553 101.168 25.5269 101.538C25.4758 102.261 26.0186 103.142 27.688 104.231C29.3204 105.296 31.8621 106.449 35.3989 107.758L36.1294 108.029L35.5796 108.581C33.0513 111.116 31.6171 113.008 30.9985 114.44C30.6922 115.149 30.5986 115.716 30.6479 116.174C30.6963 116.623 30.8859 117.008 31.2173 117.358C31.9094 118.088 33.2016 118.646 35.0249 119.144C36.8295 119.637 39.0363 120.045 41.481 120.545L41.9722 120.646L41.8696 121.137C41.1034 124.822 40.931 127.46 41.2524 129.305C41.5687 131.12 42.3515 132.127 43.5044 132.658C44.7062 133.211 46.3927 133.289 48.5894 133.02C50.7738 132.753 53.3775 132.155 56.3706 131.436L56.9458 131.298L56.9868 131.888C57.2767 136.142 57.6255 139.756 58.2612 142.664C58.8987 145.579 59.8101 147.712 61.1704 149.067C62.506 150.397 64.3373 151.036 66.9731 150.827C69.6299 150.616 73.068 149.545 77.5396 147.479L77.8813 147.321L78.1274 147.606C82.4105 152.563 85.9046 155.629 90.2817 156.282C94.6675 156.936 100.085 155.188 108.258 150.071L108.779 149.744L108.993 150.321C109.738 152.338 110.597 153.775 111.677 154.69C112.74 155.59 114.063 156.021 115.827 155.937C117.608 155.852 119.828 155.24 122.642 154.05C125.451 152.862 128.821 151.112 132.894 148.78L132.932 148.757L132.974 148.743C136.065 147.64 138.681 146.626 140.817 145.575C142.955 144.522 144.58 143.446 145.713 142.234C146.836 141.033 147.482 139.69 147.652 138.072C147.823 136.439 147.513 134.492 146.66 132.089L146.471 131.561L147.018 131.435C151.358 130.43 154.424 129.476 156.486 128.525C158.57 127.563 159.518 126.654 159.814 125.808C160.098 124.995 159.837 124.062 158.989 122.871C158.145 121.686 156.808 120.367 155.181 118.838L154.75 118.433L155.221 118.076C157.829 116.095 159.991 114.371 161.641 112.837C163.299 111.296 164.398 109.983 164.926 108.827C165.439 107.706 165.408 106.759 164.83 105.851C164.221 104.896 162.972 103.928 160.899 102.913L160.619 102.775V99.7964L160.661 99.7007C161.399 98.0237 162.577 96.3934 163.625 94.9224C164.699 93.4153 165.609 92.1081 165.944 90.9937C166.107 90.4523 166.118 90.0058 165.981 89.6274C165.846 89.2532 165.539 88.874 164.928 88.5142C163.675 87.7763 161.295 87.2121 157.17 86.9517L156.81 86.9292L154.883 79.5786L155.5 79.5493C161.133 79.2806 164.387 78.2556 166.565 76.4673C168.616 74.7836 169.782 72.3694 171.03 69.022H166.083L166.015 69.0015L108.384 52.3511L108.228 52.3062L108.128 52.1782C105.093 48.2772 102.528 45.2944 100.314 43.2124C98.0887 41.1194 96.2765 39.9922 94.7534 39.7036C93.2922 39.4268 92.021 39.9103 90.7915 41.2798C89.5375 42.6768 88.3622 44.9642 87.1714 48.2007L87.022 48.606L80.1685 47.1792L80.0747 46.9126C78.2353 41.6406 76.7487 37.8227 75.5679 35.3579C74.9758 34.1221 74.4723 33.2522 74.0532 32.7124C73.843 32.4416 73.6718 32.2769 73.5415 32.189C73.4139 32.1029 73.371 32.119 73.3843 32.1167Z" fill="#619622"/>
<path d="M174.943 61.7227L111.108 6.76927C110.64 6.36641 109.918 6.48755 109.603 7.01893C95.2706 31.2348 98.0828 51.0762 110.774 68.7603C123.523 86.524 152.973 89.6114 175.055 63.115C175.402 62.6995 175.353 62.0755 174.943 61.7227Z" fill="#FFC91B"/>
<path d="M168.653 56.6967L117.038 11.9022C116.569 11.4955 115.843 11.6157 115.53 12.1517C104.002 31.9181 106.308 48.127 116.596 62.5787C126.943 77.1131 150.818 79.6636 168.765 58.0818C169.108 57.6683 169.06 57.0492 168.653 56.6967Z" fill="#FFF083"/>
<path d="M114.693 18.262C110.862 25.8663 108.836 38.2205 110.884 40.3066C111.136 40.5624 111.517 40.5324 111.86 40.4292C115.471 39.3438 136.947 32.8439 135.409 32.2571C134.054 31.7403 122.132 21.6305 117.581 17.7477C116.652 16.9557 115.243 17.1722 114.693 18.262Z" fill="#FFCC24"/>
<path d="M135.093 37.8366L114.56 43.9676C113.664 44.235 113.069 45.0925 113.16 46.0228C114.132 55.8719 117.678 60.2736 127.263 64.6789C128.327 65.1677 129.569 64.6047 129.936 63.4931L137.565 40.3799C138.071 38.8449 136.642 37.3742 135.093 37.8366Z" fill="#FFCC24"/>
<path d="M161.164 57.4237C152.248 65.1606 146.163 67.7221 136.295 68.0759C134.994 68.1226 134.036 66.8971 134.351 65.6346L140.756 39.9749C141.122 38.5098 142.917 37.963 144.038 38.9754L161.182 54.4673C162.061 55.2618 162.059 56.6471 161.164 57.4237Z" fill="#FFCC24"/>
<path d="M120.143 29.6953C120.143 30.7564 118.89 31.6165 117.345 31.6165C115.8 31.6165 114.548 30.7564 114.548 29.6953C114.548 28.6342 115.8 27.7741 117.345 27.7741C118.89 27.7741 120.143 28.6342 120.143 29.6953Z" fill="#FFC115"/>
<path d="M125.738 54.031C125.738 55.7995 124.736 57.2331 123.5 57.2331C122.264 57.2331 121.262 55.7995 121.262 54.031C121.262 52.2626 122.264 50.829 123.5 50.829C124.736 50.829 125.738 52.2626 125.738 54.031Z" fill="#FFC115"/>
<path d="M144.762 59.7944C144.762 61.2091 143.76 62.356 142.524 62.356C141.288 62.356 140.286 61.2091 140.286 59.7944C140.286 58.3796 141.288 57.2327 142.524 57.2327C143.76 57.2327 144.762 58.3796 144.762 59.7944Z" fill="#FFC115"/>
<path d="M153.714 57.2327C153.714 58.6474 152.712 59.7943 151.476 59.7943C150.24 59.7943 149.238 58.6474 149.238 57.2327C149.238 55.8179 150.24 54.671 151.476 54.671C152.712 54.671 153.714 55.8179 153.714 57.2327Z" fill="#FFC115"/>
<path d="M109.172 6.76465C109.644 5.96731 110.729 5.78329 111.434 6.39063L175.269 61.3438C175.888 61.8767 175.958 62.8126 175.439 63.4356C153.193 90.1287 123.346 87.1358 110.368 69.0518C103.98 60.1511 100.059 50.6788 99.5553 40.3633C99.0516 30.0477 101.968 18.9375 109.172 6.76465ZM110.782 7.14844C110.551 6.95008 110.19 7.00805 110.033 7.27344C102.905 19.3163 100.061 30.2346 100.553 40.3145C101.046 50.3946 104.877 59.6854 111.18 68.4688C123.699 85.9119 152.753 89.0943 174.671 62.7949C174.844 62.587 174.817 62.2744 174.617 62.1016L110.782 7.14844Z" fill="#FFCE25"/>
<path d="M115.098 11.8998C115.568 11.0931 116.66 10.9127 117.365 11.5248L168.98 56.3187C169.593 56.8504 169.665 57.7802 169.148 58.4018C151.037 80.1812 126.765 77.7249 116.188 62.8685C111.003 55.5842 107.809 47.8289 107.382 39.3832C106.955 30.9373 109.296 21.848 115.098 11.8998ZM116.71 12.2797C116.478 12.0785 116.117 12.1384 115.962 12.4037C110.236 22.2217 107.965 31.1205 108.381 39.3334C108.796 47.5464 111.901 55.1213 117.003 62.2885C127.121 76.5009 150.598 79.146 168.38 57.7621C168.551 57.5568 168.525 57.2479 168.325 57.0746L116.71 12.2797Z" fill="#FFF083"/>
<path d="M140.27 39.8543C140.727 38.0229 142.972 37.3388 144.373 38.6043L161.517 54.0965C162.615 55.0886 162.617 56.8247 161.491 57.8015C157.013 61.6872 153.218 64.2982 149.282 65.9783C145.341 67.6605 141.289 68.3975 136.312 68.576C134.667 68.6348 133.472 67.0863 133.865 65.5135L140.27 39.8543ZM143.702 39.3465C142.862 38.5872 141.515 38.9977 141.241 40.0965L134.836 65.7556C134.598 66.7075 135.321 67.6099 136.276 67.576C141.168 67.4006 145.092 66.6794 148.889 65.0584C152.692 63.4351 156.398 60.8968 160.836 57.0457C161.5 56.4693 161.507 55.4355 160.846 54.8387L143.702 39.3465ZM134.95 37.3572C136.886 36.7793 138.672 38.6182 138.039 40.5369L130.41 63.6502C129.952 65.0357 128.397 65.7509 127.053 65.1336C122.232 62.9175 118.863 60.6732 116.585 57.6961C114.301 54.7123 113.154 51.047 112.663 46.0721C112.547 44.8955 113.299 43.8217 114.417 43.4881L134.95 37.3572ZM137.09 40.2234C137.47 39.0722 136.398 37.9694 135.236 38.3162L114.703 44.4471C114.029 44.6483 113.591 45.2895 113.658 45.9734C114.139 50.8474 115.25 54.308 117.379 57.0887C119.512 59.8757 122.708 62.0352 127.471 64.2244C128.255 64.5847 129.184 64.1739 129.461 63.3367L137.09 40.2234ZM114.247 18.0369C114.956 16.6288 116.755 16.3862 117.905 17.367C120.18 19.3079 124.296 22.8047 128.011 25.8797C129.87 27.4175 131.626 28.8476 133 29.9246C133.687 30.4634 134.276 30.9106 134.732 31.2381C134.96 31.402 135.152 31.5334 135.303 31.6297C135.464 31.7313 135.553 31.7769 135.587 31.7898C135.685 31.8274 135.936 31.9499 135.981 32.2556C136.021 32.5236 135.862 32.7112 135.805 32.7722C135.667 32.9229 135.441 33.0579 135.219 33.1746C134.744 33.4258 133.992 33.7406 133.064 34.0955C131.198 34.8091 128.535 35.7142 125.719 36.6316C120.086 38.4674 113.81 40.3651 112.004 40.908C111.639 41.0176 110.993 41.1309 110.527 40.657C110.178 40.3019 109.958 39.7773 109.816 39.1892C109.672 38.5908 109.596 37.8691 109.576 37.0633C109.537 35.4502 109.723 33.4389 110.091 31.2703C110.826 26.9342 112.303 21.8939 114.247 18.0369ZM117.256 18.1277C116.549 17.5248 115.528 17.7158 115.139 18.4871C113.251 22.2343 111.799 27.1737 111.076 31.4373C110.714 33.568 110.539 35.5114 110.576 37.0389C110.595 37.8032 110.667 38.4488 110.789 38.9549C110.913 39.4713 111.078 39.7895 111.241 39.9558C111.262 39.9772 111.294 39.9984 111.372 40.0037C111.458 40.0095 111.575 39.9925 111.717 39.95C113.522 39.4073 119.788 37.5124 125.41 35.6805C128.223 34.7639 130.866 33.866 132.707 33.1619C133.529 32.8474 134.174 32.5742 134.601 32.3631C134.466 32.2726 134.313 32.1689 134.148 32.0506C133.675 31.7111 133.074 31.2538 132.383 30.7117C130.998 29.6265 129.235 28.1896 127.375 26.6502C123.653 23.5703 119.532 20.0695 117.256 18.1277Z" fill="#FFD735"/>
<path d="M66.5617 117.446C66.8222 117.161 66.8881 116.735 66.7462 116.376C52.3743 80.0456 82.846 71.6202 88.2665 86.7791C88.5492 87.5696 89.6283 87.8526 90.1894 87.228C98.4779 78.0024 104.145 76.0764 113.999 79.8085C114.731 80.0857 115.51 79.4771 115.377 78.7056C112.633 62.7307 107.625 55.7478 94.0025 47.2729C93.9001 47.2092 93.7819 47.1627 93.6636 47.1397C75.9858 43.6933 67.2401 46.5445 52.6061 54.7671C52.498 54.8278 52.398 54.912 52.3194 55.0078C39.2512 70.9516 36.3405 78.1238 36.2144 88.802C38.593 111.784 43.3745 119.699 53.9402 129.733C54.3439 130.116 54.9856 130.093 55.3614 129.683L66.5617 117.446Z" fill="#FFB78E"/>
<path d="M37.7184 102.131C37.5619 101.913 37.4618 101.693 37.4234 101.473C37.2114 100.26 37.401 100.886 37.7184 102.131C39.767 104.978 51.4929 107.41 61.5237 103.808C62.097 103.602 62.7341 103.924 62.8816 104.515L63.544 107.168C63.6494 107.591 63.4669 108.035 63.0939 108.26C54.1677 113.624 48.8091 113.491 39.4772 108.096C39.2397 107.959 39.0669 107.727 39.0043 107.46C38.7639 106.434 38.1325 103.755 37.7184 102.131Z" fill="#F2874A"/>
<path d="M41.34 71.3739C41.5021 69.628 39.7705 74.0922 39.2483 75.468C39.1535 75.7179 39.1667 75.9963 39.2801 76.2383C43.7788 85.8434 47.3307 90.8241 62.2367 93.6201C62.7527 93.7169 63.2601 93.3933 63.3872 92.8839L63.9604 90.5876C64.121 89.9442 63.6208 89.3253 62.9589 89.2846C51.0572 88.5515 41.1562 73.3542 41.34 71.3739Z" fill="#F2874A"/>
<path d="M61.6448 50.1137C62.7083 49.9068 64.6346 49.4485 65.2238 48.7552C65.3256 48.3369 65.3955 48.1743 65.3996 48.3191C65.4039 48.4735 65.3397 48.6189 65.2238 48.7552C64.4635 51.8791 61.9236 69.2653 71.7514 79.4405C72.2044 79.9095 72.1431 80.6864 71.5974 81.0434L69.5017 82.4141C69.077 82.6918 68.5075 82.6039 68.1872 82.2103C59.5614 71.6124 58.7281 64.3059 60.8078 50.9693C60.875 50.5381 61.2164 50.1971 61.6448 50.1137Z" fill="#F2874A"/>
<path d="M100.09 51.5211C101.959 52.6345 97.2932 49.7167 95.6224 48.6736C95.2771 48.458 94.8354 48.4774 94.5074 48.7185C84.8843 55.792 80.4722 61.5608 78.3642 78.8918C78.3075 79.358 78.5851 79.8079 79.0293 79.9604L82.2202 81.0561C82.9495 81.3065 83.6844 80.6683 83.6023 79.9016C81.988 64.8271 97.9126 50.224 100.09 51.5211Z" fill="#F2874A"/>
<path d="M114.546 79.3683C103.738 74.3062 97.9013 75.0934 89.1117 87.5292C88.9243 87.7944 88.8769 88.1478 88.9905 88.452C92.828 98.7295 97.1701 99.2927 106.562 95.7029C106.661 95.6649 106.758 95.6085 106.841 95.5409C113.643 89.9459 115.15 86.44 115.115 80.2497C115.113 79.8722 114.888 79.5284 114.546 79.3683Z" fill="#FFCDAD"/>
<path d="M66.6519 117.766L54.7502 129.612C54.3904 129.97 54.36 130.546 54.674 130.944C67.5549 147.307 75.0801 157.009 84.8808 155.931C85.2341 155.892 85.5399 155.655 85.6341 155.312C87.2319 149.495 80.149 138.504 82.0953 141.127C83.7469 143.352 94.2698 143.099 96.8298 142.324C97.3519 142.165 97.4123 141.378 97.6194 140.873C99.9533 135.187 95.211 131.472 87.6906 125.116C79.6841 118.876 75.1992 118.282 67.4624 117.481C67.1637 117.45 66.8647 117.554 66.6519 117.766Z" fill="#FB7F49"/>
<path d="M58.2961 126.058L53.294 129.782C53.294 129.782 60.6392 137.197 68.3002 147.162C75.9611 157.127 86.1863 156.843 85.5295 153.99L58.2961 126.058Z" fill="#E9682F"/>
<path d="M64.9655 119.851L61.075 123.575C68.6736 130.373 72.1907 134.748 81.0832 140.955C89.9757 147.162 98.6504 143.293 96.6452 140.955L64.9655 119.851Z" fill="#E9682F"/>
<path d="M71.8901 46.0884C78.2009 44.7606 84.8783 44.9175 93.7593 46.6489C93.9371 46.6836 94.1121 46.7524 94.2661 46.8481C101.103 51.1017 105.827 55.0102 109.181 59.894C112.536 64.7792 114.491 70.5976 115.87 78.6206C116.072 79.7981 114.892 80.681 113.822 80.2759C108.949 78.4305 105.193 78.0145 101.658 79.1353C98.1038 80.2621 94.6888 82.9676 90.561 87.562C90.1372 88.0338 89.5278 88.1473 89.0054 88.02C88.4864 87.8935 87.9999 87.5194 87.7954 86.9478C86.5005 83.3265 83.7209 81.1253 80.4849 80.3872C77.2396 79.6471 73.5186 80.3766 70.3794 82.6724C64.1393 87.2358 60.0693 98.1371 67.2114 116.192C67.4189 116.716 67.3285 117.349 66.9302 117.784L55.73 130.02C55.1654 130.637 54.2028 130.671 53.5962 130.095C48.2915 125.058 44.4042 120.52 41.5532 114.333C38.7065 108.155 36.909 100.367 35.7173 88.853L35.7144 88.8247V88.7964C35.7781 83.4023 36.5479 78.8671 38.9604 73.6694C41.3647 68.4898 45.3923 62.671 51.9331 54.6909C52.0507 54.5475 52.1983 54.423 52.3608 54.3315C59.6878 50.2147 65.5875 47.4145 71.8901 46.0884ZM93.5679 47.6304C84.7712 45.9154 78.2362 45.775 72.0962 47.0669C65.9483 48.3604 60.1578 51.0972 52.8511 55.2026C52.7978 55.2326 52.746 55.2766 52.7065 55.3247C46.1791 63.2884 42.2164 69.0284 39.8667 74.0903C37.5295 79.1257 36.7789 83.5096 36.7144 88.7817C37.9013 100.233 39.6839 107.886 42.4614 113.914C45.2372 119.938 49.0238 124.374 54.2847 129.37C54.4854 129.56 54.8056 129.55 54.9927 129.345L66.1929 117.108C66.3154 116.974 66.3571 116.753 66.2808 116.56C59.0513 98.2845 63.0316 86.8079 69.7896 81.8657C73.1492 79.4088 77.1641 78.6035 80.7075 79.4116C84.2603 80.2219 87.3224 82.6526 88.7378 86.6108C88.8161 86.8295 89.0104 86.9919 89.2417 87.0483C89.4697 87.1039 89.6807 87.0467 89.8179 86.894C93.9785 82.263 97.541 79.3917 101.356 78.1821C105.19 76.9666 109.194 77.4547 114.175 79.3413C114.569 79.4906 114.947 79.1559 114.884 78.7905C113.518 70.839 111.598 65.1781 108.357 60.4595C105.115 55.7396 100.524 51.919 93.7388 47.6978C93.6881 47.6662 93.6266 47.6418 93.5679 47.6304Z" fill="#FFB78E"/>
<path d="M37.2857 100.323C37.4344 100.307 37.5479 100.359 37.607 100.396C37.6657 100.433 37.7042 100.474 37.7232 100.496C37.7614 100.54 37.7845 100.581 37.7935 100.598C37.8147 100.638 37.8308 100.678 37.8404 100.704C37.9093 100.886 38.0314 101.343 38.1754 101.905C38.6222 102.472 39.599 103.088 41.065 103.632C42.5643 104.187 44.4956 104.638 46.6851 104.891C51.0665 105.398 56.4262 105.107 61.3551 103.338C62.1928 103.037 63.1439 103.501 63.3668 104.393L64.0289 107.048C64.1871 107.682 63.9138 108.35 63.3512 108.688C58.8535 111.391 55.1875 112.751 51.4322 112.713C47.6821 112.674 43.9193 111.242 39.2271 108.529C38.8711 108.323 38.6115 107.976 38.5172 107.574C38.2803 106.563 37.6662 103.957 37.2535 102.332C37.0953 102.092 36.9794 101.835 36.9312 101.559C36.879 101.26 36.8458 101.048 36.8365 100.927C36.8343 100.899 36.8323 100.852 36.8355 100.803C36.8369 100.784 36.8407 100.728 36.8629 100.663C36.8696 100.643 36.9626 100.358 37.2857 100.323ZM38.5846 103.548C38.9379 104.997 39.3171 106.604 39.4908 107.345C39.5216 107.477 39.6083 107.594 39.7271 107.663C44.3666 110.345 47.9495 111.677 51.443 111.713C54.9314 111.748 58.4082 110.492 62.8365 107.831C63.0196 107.721 63.1115 107.5 63.0592 107.29L62.3961 104.635C62.3235 104.346 62.0014 104.168 61.693 104.279C56.591 106.111 51.0714 106.405 46.5699 105.884C44.3185 105.624 42.3071 105.159 40.7183 104.57C39.904 104.268 39.1785 103.925 38.5846 103.548ZM41.3346 70.4772C41.5073 70.493 41.6361 70.5855 41.7135 70.6852C41.7812 70.7724 41.8101 70.8627 41.8238 70.9176C41.8387 70.9774 41.8451 71.0357 41.8482 71.0856C41.8544 71.1853 41.8487 71.2999 41.8375 71.4206C41.8351 71.4481 41.8411 71.5497 41.901 71.7516C41.9575 71.9424 42.0511 72.1843 42.1832 72.4743C42.4473 73.0539 42.8534 73.7921 43.3892 74.6364C44.4602 76.3238 46.032 78.4066 47.9791 80.4518C51.8904 84.5602 57.2296 88.431 62.9898 88.7858C63.9309 88.8439 64.6898 89.7311 64.4459 90.7087L63.8726 93.0046C63.681 93.7722 62.9188 94.2573 62.1441 94.112C54.6508 92.7064 49.9399 90.7392 46.5328 87.8649C43.1295 84.9938 41.0795 81.2584 38.8277 76.4509C38.6586 76.0898 38.6367 75.6705 38.7808 75.2907C39.0419 74.6028 39.6099 73.1308 40.0943 72.0466C40.3276 71.5243 40.5673 71.03 40.7564 70.7809C40.8001 70.7234 40.8822 70.6219 40.9996 70.5534C41.0625 70.5167 41.1814 70.4633 41.3346 70.4772ZM41.0074 72.4548C40.536 73.51 39.9765 74.9573 39.7154 75.6452C39.6699 75.765 39.6755 75.9031 39.733 76.026C41.9798 80.8232 43.9547 84.3809 47.1783 87.1003C50.3982 89.8166 54.9163 91.7382 62.3287 93.1286C62.586 93.1769 62.8392 93.0136 62.9019 92.7624L63.4752 90.4665C63.5523 90.1574 63.3107 89.8075 62.9283 89.7839C56.7868 89.4056 51.2241 85.3099 47.2555 81.1413C45.2628 79.0482 43.6501 76.9144 42.5445 75.1725C41.9922 74.3023 41.5616 73.5227 41.273 72.8893C41.1873 72.7012 41.1132 72.523 41.0513 72.3571C41.037 72.3889 41.0222 72.4217 41.0074 72.4548ZM65.3043 47.7741C65.5082 47.7408 65.6738 47.8342 65.7662 47.9391C65.8389 48.0218 65.8662 48.1072 65.8756 48.1393C65.886 48.1754 65.8918 48.21 65.8951 48.2389L65.899 48.3053L65.8961 48.4196C65.8786 48.6288 65.7952 48.8102 65.6881 48.9645C65.3101 50.5832 64.5312 55.5757 65.0152 61.4118C65.5091 67.3653 67.3106 74.1234 72.1109 79.0934C72.766 79.7718 72.6977 80.9207 71.8707 81.4616L69.775 82.8327C69.1365 83.25 68.2816 83.1184 67.7994 82.526C63.455 77.1883 61.042 72.6414 59.9937 67.7214C58.9477 62.8115 59.2716 57.5769 60.314 50.8923C60.4151 50.2442 60.9232 49.7446 61.5494 49.6227C62.0721 49.521 62.7964 49.3598 63.4556 49.1423C63.7854 49.0334 64.0884 48.9136 64.3375 48.7858C64.5372 48.6833 64.68 48.5851 64.774 48.4997C64.813 48.3502 64.8495 48.2238 64.8853 48.1364C64.897 48.108 64.9166 48.0644 64.9439 48.0202C64.9572 47.9988 64.9826 47.9594 65.0221 47.9196C65.0528 47.8886 65.1479 47.7996 65.3043 47.7741ZM64.4986 49.8141C64.266 49.9162 64.0185 50.0092 63.7691 50.0915C63.0521 50.3281 62.2806 50.499 61.7398 50.6042C61.5095 50.6491 61.3347 50.8324 61.3013 51.0466C60.2641 57.6983 59.9652 62.7855 60.9722 67.5124C61.9771 72.229 64.2937 76.6343 68.5748 81.8942C68.7332 82.0888 69.0173 82.1337 69.2281 81.9958L71.3238 80.6247C71.588 80.4517 71.6428 80.0474 71.3922 79.7878C66.3647 74.5826 64.5222 67.5592 64.0191 61.4948C63.605 56.5026 64.0941 52.1103 64.4986 49.8141ZM94.2115 48.3161C94.7023 47.9553 95.366 47.9242 95.8873 48.2497C96.7227 48.7713 98.308 49.7617 99.4508 50.4831C100.02 50.8423 100.485 51.1389 100.692 51.276C100.739 51.307 100.789 51.3408 100.821 51.3659C100.826 51.3698 100.853 51.3905 100.88 51.4186C100.889 51.4272 100.904 51.4421 100.92 51.4626C100.931 51.4776 100.967 51.5252 100.993 51.5954C101.014 51.6529 101.079 51.8688 100.92 52.0749C100.779 52.2589 100.58 52.2688 100.542 52.2702C100.479 52.2724 100.431 52.2624 100.414 52.2585C100.391 52.2533 100.372 52.2474 100.362 52.2438C100.341 52.2367 100.324 52.2298 100.316 52.2262C100.299 52.2186 100.283 52.2105 100.274 52.2057C100.209 52.1721 100.062 52.0862 99.8346 51.9509C99.8418 51.9551 99.7895 51.924 99.6109 51.9538C99.4377 51.9827 99.2021 52.0605 98.9049 52.2018C98.3126 52.4835 97.552 52.9803 96.6812 53.6784C94.9436 55.0714 92.8276 57.2154 90.8238 59.8727C86.8061 65.2008 83.3116 72.4935 84.0992 79.8483C84.2164 80.9423 83.1676 81.9096 82.0582 81.529L78.8668 80.4333C78.1964 80.203 77.7831 79.5288 77.8678 78.8317C78.9253 70.137 80.5664 64.2864 83.1832 59.7106C85.8035 55.1288 89.3781 51.8689 94.2115 48.3161ZM95.358 49.0973C95.1887 48.9916 94.9685 49.0003 94.8033 49.1217C90.0138 52.6423 86.5698 55.8031 84.0513 60.2067C81.5295 64.6163 79.9113 70.316 78.8609 78.9518C78.8323 79.1871 78.9741 79.4132 79.192 79.488L82.3824 80.5827C82.7315 80.7026 83.1521 80.394 83.1051 79.9548C82.2784 72.2352 85.9397 64.6889 90.025 59.2712C92.0726 56.5557 94.2451 54.3493 96.0553 52.8981C96.958 52.1744 97.7863 51.6261 98.4752 51.2985C98.5521 51.2619 98.6284 51.2268 98.7037 51.195C97.5862 50.4906 96.1426 49.5872 95.358 49.0973Z" fill="#F2874A"/>
<path d="M100.935 76.406C105.028 75.2349 109.333 76.3752 114.758 78.9158C115.27 79.1557 115.612 79.6716 115.615 80.2468C115.633 83.3849 115.26 85.8999 113.985 88.3494C112.717 90.7873 110.579 93.114 107.158 95.9275C107.034 96.0294 106.89 96.1125 106.74 96.1697C102.053 97.9613 98.4567 98.794 95.5255 97.7488C92.5634 96.6925 90.4493 93.7895 88.5216 88.6267C88.3497 88.1661 88.4217 87.6396 88.7032 87.241C93.111 81.0048 96.8525 77.5741 100.935 76.406ZM114.334 79.8211C108.951 77.2998 104.934 76.3024 101.21 77.3679C97.4745 78.4369 93.9015 81.6185 89.5197 87.8181C89.4268 87.9497 89.4041 88.1297 89.4591 88.2771C91.3689 93.3918 93.3452 95.9091 95.8615 96.8064C98.4086 97.7147 101.68 97.0342 106.384 95.2361C106.433 95.2174 106.482 95.1881 106.523 95.1551C109.904 92.3736 111.921 90.1489 113.098 87.8875C114.268 85.6377 114.632 83.3048 114.615 80.2527C114.614 80.0732 114.506 79.9014 114.334 79.8211Z" fill="#FFCDAD"/>
<path d="M67.5137 116.983C71.3764 117.384 74.4852 117.737 77.6338 118.785C80.5937 119.771 83.5671 121.363 87.251 124.148L87.9981 124.723L88.0137 124.734C91.7501 127.892 94.8734 130.454 96.75 132.945C97.6961 134.201 98.3491 135.468 98.6016 136.814C98.8553 138.168 98.6973 139.564 98.082 141.063C98.042 141.161 98.006 141.279 97.9619 141.431C97.9207 141.572 97.8722 141.744 97.8106 141.906C97.6947 142.211 97.4741 142.651 96.9746 142.803C96.2779 143.013 95.093 143.177 93.7158 143.275C92.326 143.374 90.7005 143.409 89.1035 143.349C87.5094 143.29 85.9262 143.135 84.627 142.849C84.0538 142.723 83.526 142.566 83.0703 142.378C83.4009 143.069 83.7966 143.917 84.1943 144.86C84.8638 146.447 85.5507 148.314 85.9688 150.162C86.3845 151.999 86.5478 153.873 86.1162 155.444C85.9623 156.004 85.4712 156.369 84.9356 156.428C79.8267 156.99 75.3564 154.725 70.5938 150.347C65.8405 145.977 60.7106 139.421 54.2813 131.254C53.813 130.659 53.8551 129.798 54.3975 129.258L66.2988 117.412C66.6188 117.093 67.0669 116.937 67.5137 116.983ZM67.4111 117.977C67.2608 117.962 67.1105 118.016 67.0049 118.121L55.1025 129.966C54.9256 130.142 54.9068 130.433 55.0664 130.636C61.5179 138.831 66.5909 145.308 71.2705 149.61C75.9409 153.904 80.1343 155.95 84.8262 155.433C84.9969 155.415 85.118 155.305 85.1524 155.18C85.5196 153.843 85.3963 152.16 84.9941 150.383C84.5943 148.616 83.9315 146.809 83.2734 145.249C82.6159 143.69 81.9689 142.394 81.6016 141.638C81.5104 141.45 81.4345 141.29 81.3799 141.168C81.3529 141.108 81.3277 141.05 81.3086 141C81.2974 140.97 81.2619 140.879 81.2549 140.78C81.2528 140.75 81.2509 140.691 81.2676 140.62C81.2843 140.55 81.3321 140.419 81.4668 140.323C81.6087 140.222 81.7587 140.221 81.8486 140.236C81.9315 140.251 81.992 140.282 82.0205 140.299C82.1138 140.352 82.1842 140.433 82.2051 140.457C82.2774 140.538 82.3762 140.666 82.4971 140.829C82.6315 141.01 82.89 141.205 83.3047 141.393C83.7127 141.578 84.2326 141.739 84.8418 141.873C86.0601 142.141 87.5776 142.292 89.1406 142.35C90.7007 142.409 92.2899 142.375 93.6445 142.278C95.0114 142.181 96.1014 142.021 96.6846 141.845C96.7072 141.838 96.7783 141.805 96.875 141.551C96.9196 141.433 96.9573 141.303 97.002 141.15C97.0437 141.007 97.0938 140.838 97.1572 140.683C97.7087 139.34 97.8331 138.139 97.6191 136.998C97.4039 135.85 96.8387 134.725 95.9512 133.547C94.1623 131.172 91.1598 128.702 87.3828 125.511C83.4108 122.415 80.338 120.739 77.3174 119.733C74.2878 118.724 71.2851 118.379 67.4111 117.977Z" fill="#FB7F49"/>
<path d="M85.8877 153.641L85.9854 153.741L86.0166 153.878C86.1358 154.395 86.0025 154.877 85.6661 155.256C85.3471 155.616 84.8706 155.86 84.3252 156.01C83.2307 156.312 81.6832 156.289 79.918 155.869C76.3704 155.023 71.8009 152.537 67.9034 147.467C64.0829 142.498 60.3406 138.162 57.5528 135.07C56.1592 133.524 55.0049 132.289 54.1993 131.441C53.7965 131.017 53.4803 130.69 53.2657 130.469C53.1584 130.359 53.0766 130.275 53.0215 130.218C52.994 130.19 52.9729 130.169 52.959 130.155L52.9385 130.134L52.5333 129.725L57.9971 125.657L58.3487 125.396L85.8877 153.641ZM54.0499 129.841C54.2633 130.062 54.5582 130.368 54.9239 130.753C55.7348 131.606 56.8958 132.848 58.2959 134.401C61.0959 137.507 64.8561 141.862 68.6963 146.857C72.4595 151.752 76.8336 154.106 80.1495 154.896C81.816 155.293 83.1812 155.289 84.0586 155.046C84.499 154.925 84.7736 154.755 84.918 154.592C85.0178 154.48 85.0639 154.362 85.0577 154.221L58.2442 126.72L54.0499 129.841ZM65.2422 119.435L96.9219 140.539L96.9795 140.577L97.0245 140.629C97.3641 141.026 97.5027 141.495 97.4073 141.978C97.3162 142.439 97.0256 142.847 96.6416 143.188C95.8749 143.868 94.5979 144.403 93.0293 144.653C89.8694 145.157 85.3473 144.541 80.7969 141.365C71.8728 135.136 68.2923 130.703 60.7413 123.948L60.3389 123.587L60.7295 123.214L64.6202 119.49L64.9092 119.212L65.2422 119.435ZM61.8086 123.564C69.1771 130.197 72.6649 134.47 81.3692 140.546C85.7112 143.576 89.9729 144.128 92.8721 143.666C94.3331 143.432 95.4049 142.949 95.9786 142.44C96.2645 142.186 96.3925 141.958 96.4268 141.784C96.4541 141.645 96.431 141.497 96.3028 141.328L65.0215 120.489L61.8086 123.564Z" fill="#E9682F"/>
<path d="M153.582 122.383C153.303 122.094 153.233 121.65 153.385 121.278C163.756 96.0476 141.947 89.9239 137.433 99.9997C137.096 100.751 136.043 101.037 135.472 100.443C129.579 94.3163 125.417 92.9749 118.445 95.3786C117.709 95.6323 116.948 95.0152 117.092 94.2502C119.157 83.2731 122.927 78.3729 132.921 72.4554C133.021 72.3962 133.135 72.3534 133.249 72.3322C146.402 69.9008 152.928 71.9178 163.816 77.7303C163.924 77.7881 164.025 77.8691 164.105 77.962C173.832 89.2507 176 94.338 176.094 101.908C174.331 118.105 170.799 123.757 163.027 130.808C162.629 131.169 162.017 131.145 161.644 130.758L153.582 122.383Z" fill="#FFB78E"/>
<path d="M174.972 111.368C175.089 111.214 175.163 111.057 175.192 110.901C175.35 110.04 175.209 110.484 174.972 111.368C173.46 113.366 164.884 115.076 157.453 112.642C156.885 112.456 156.264 112.771 156.112 113.349L155.754 114.714C155.64 115.147 155.828 115.604 156.218 115.824C162.736 119.504 166.718 119.395 173.555 115.659C173.799 115.525 173.976 115.294 174.043 115.024C174.241 114.222 174.679 112.46 174.972 111.368Z" fill="#F2874A"/>
<path d="M172.268 89.5393C172.152 88.3514 173.336 91.2146 173.777 92.3134C173.882 92.5731 173.868 92.8663 173.744 93.1172C170.436 99.8086 167.763 103.31 156.882 105.289C156.373 105.382 155.879 105.064 155.747 104.564L155.483 103.558C155.314 102.912 155.815 102.284 156.48 102.225C165.208 101.449 172.404 90.9264 172.268 89.5393Z" fill="#F2874A"/>
<path d="M156.929 74.416C156.114 74.2558 154.848 73.9429 154.44 73.4865C154.364 73.1897 154.312 73.0743 154.309 73.177C154.305 73.2866 154.353 73.3898 154.44 73.4865C155 75.6737 156.852 87.712 149.859 94.9695C149.392 95.4534 149.456 96.2612 150.026 96.6161L151.082 97.2726C151.498 97.531 152.041 97.45 152.358 97.0771C158.628 89.6929 159.269 84.5353 157.77 75.2654C157.7 74.835 157.357 74.5 156.929 74.416Z" fill="#F2874A"/>
<path d="M128.413 75.4495C127.062 76.2148 130.286 74.2969 131.623 73.5026C131.959 73.3033 132.38 73.3197 132.699 73.5439C139.752 78.4925 143.021 82.5872 144.599 94.6272C144.661 95.1008 144.375 95.5548 143.921 95.703L142.167 96.2754C141.436 96.514 140.709 95.8674 140.767 95.1009C141.564 84.5785 130.013 74.543 128.413 75.4495Z" fill="#F2874A"/>
<path d="M117.778 95.1428C125.705 91.6458 130.044 92.2297 136.506 100.868C136.709 101.139 136.76 101.505 136.634 101.82C133.79 108.947 130.551 109.333 123.617 106.818C123.519 106.783 123.424 106.73 123.342 106.666C118.365 102.768 117.205 100.296 117.196 96.0307C117.195 95.6467 117.427 95.2979 117.778 95.1428Z" fill="#FFCDAD"/>
<path d="M153.454 122.541L162.049 130.674C162.432 131.036 162.465 131.636 162.129 132.042L162.018 132.176C152.643 143.5 147.077 150.222 139.904 149.564C139.553 149.532 139.247 149.302 139.163 148.961C138.137 144.797 143.281 137.205 141.845 139.044C140.669 140.551 133.463 140.456 131.145 139.967C130.595 139.85 130.334 139.093 130.137 138.567C128.691 134.697 132.194 132.08 137.669 127.681C143.61 123.278 146.954 122.836 152.668 122.272C152.956 122.244 153.243 122.342 153.454 122.541Z" fill="#FB7F49"/>
<path d="M159.611 128.35L163.345 130.993C163.345 130.993 157.862 136.255 152.143 143.327C146.424 150.4 138.791 150.198 139.282 148.173L159.611 128.35Z" fill="#E9682F"/>
<path d="M154.632 123.944L157.536 126.587C151.864 131.412 149.239 134.517 142.601 138.922C135.963 143.327 129.487 140.582 130.984 138.922L154.632 123.944Z" fill="#E9682F"/>
<path d="M149.48 71.4497C144.762 70.5066 139.775 70.6172 133.159 71.8403C132.987 71.8721 132.816 71.9357 132.666 72.0249C127.645 74.998 124.138 77.744 121.63 81.1597C119.12 84.5792 117.641 88.6288 116.6 94.1577C116.38 95.3288 117.538 96.2198 118.608 95.8511C122.038 94.6684 124.707 94.4317 127.218 95.1909C129.744 95.9546 132.186 97.7482 135.112 100.791C135.543 101.239 136.143 101.337 136.658 101.212C137.169 101.089 137.651 100.735 137.889 100.204C139.982 95.5345 146.159 94.5112 150.697 97.8042C155.159 101.042 158.059 108.592 152.922 121.088C152.7 121.63 152.796 122.288 153.221 122.73L161.284 131.105C161.842 131.685 162.763 131.722 163.363 131.178C167.271 127.632 170.15 124.406 172.264 120.004C174.374 115.612 175.707 110.085 176.591 101.962L176.594 101.932V101.902C176.546 98.0588 175.97 94.8189 174.162 91.1108C172.363 87.4219 169.354 83.2874 164.484 77.6353C164.364 77.496 164.214 77.3766 164.051 77.2896C158.597 74.3777 154.191 72.3914 149.48 71.4497ZM133.34 72.8237C139.876 71.6155 144.728 71.5196 149.284 72.4302C153.846 73.3422 158.147 75.2708 163.581 78.1714C163.634 78.1999 163.686 78.242 163.726 78.2886C168.583 83.9249 171.522 87.9791 173.262 91.5483C174.989 95.0889 175.545 98.1709 175.594 101.884C174.715 109.942 173.4 115.331 171.363 119.571C169.327 123.807 166.554 126.933 162.691 130.438C162.495 130.615 162.191 130.605 162.004 130.412L153.942 122.037C153.811 121.9 153.765 121.669 153.848 121.468C159.082 108.734 156.263 100.607 151.285 96.9946C146.382 93.4372 139.398 94.3892 136.976 99.7954C136.877 100.015 136.665 100.181 136.422 100.24C136.184 100.297 135.972 100.242 135.833 100.097C132.866 97.0123 130.28 95.0708 127.508 94.2329C124.723 93.3907 121.824 93.6848 118.283 94.9058C117.881 95.0442 117.515 94.701 117.583 94.3423C118.608 88.8944 120.047 85.0056 122.436 81.7515C124.828 78.4934 128.203 75.8296 133.175 72.8853C133.225 72.8561 133.284 72.8342 133.34 72.8237Z" fill="#FFB78E"/>
<path d="M175.306 109.94C175.165 109.925 175.056 109.973 174.997 110.007C174.939 110.042 174.901 110.082 174.881 110.103C174.842 110.146 174.818 110.187 174.809 110.203C174.788 110.24 174.774 110.275 174.766 110.295C174.712 110.43 174.622 110.748 174.52 111.128C174.207 111.49 173.527 111.906 172.474 112.281C171.384 112.669 169.977 112.987 168.375 113.17C165.17 113.537 161.242 113.357 157.608 112.167C156.784 111.897 155.858 112.349 155.628 113.222L155.27 114.587C155.1 115.234 155.38 115.926 155.972 116.26C159.267 118.121 161.983 119.058 164.773 119.022C167.558 118.986 170.349 117.981 173.794 116.097C174.161 115.897 174.429 115.55 174.529 115.144C174.722 114.36 175.143 112.667 175.434 111.577C175.553 111.399 175.645 111.205 175.684 110.992C175.723 110.781 175.749 110.622 175.756 110.527C175.758 110.505 175.761 110.462 175.757 110.415C175.756 110.396 175.752 110.339 175.728 110.272C175.717 110.241 175.619 109.972 175.306 109.94ZM174.125 112.648C173.906 113.511 173.683 114.4 173.558 114.905C173.525 115.039 173.436 115.153 173.315 115.219C169.924 117.073 167.305 117.99 164.76 118.023C162.221 118.056 159.686 117.208 156.463 115.389C156.276 115.283 156.18 115.059 156.238 114.84L156.596 113.476C156.67 113.194 156.986 113.015 157.297 113.117C161.094 114.36 165.17 114.543 168.489 114.164C170.149 113.974 171.633 113.642 172.809 113.223C173.291 113.051 173.736 112.858 174.125 112.648ZM172.173 88.774C172.021 88.8146 171.921 88.912 171.866 88.9957C171.775 89.132 171.765 89.28 171.762 89.3355C171.758 89.4151 171.763 89.5014 171.771 89.5875C171.77 89.5744 171.773 89.6202 171.732 89.7545C171.694 89.8774 171.63 90.0383 171.536 90.2359C171.348 90.6304 171.057 91.1374 170.669 91.7213C169.895 92.8877 168.756 94.3318 167.342 95.7594C164.5 98.6287 160.624 101.355 156.435 101.727C155.503 101.81 154.741 102.701 154.999 103.685L155.264 104.691C155.461 105.442 156.204 105.922 156.972 105.782C162.45 104.785 165.932 103.393 168.466 101.36C170.999 99.3275 172.535 96.6925 174.193 93.3385C174.379 92.9623 174.4 92.5205 174.242 92.1265C174.021 91.5772 173.609 90.5735 173.265 89.8531C173.179 89.6723 173.094 89.504 173.016 89.3629C172.943 89.2303 172.859 89.0923 172.773 88.9918C172.739 88.9523 172.654 88.8552 172.522 88.7994C172.446 88.7671 172.32 88.7351 172.173 88.774ZM172.488 90.5553C172.788 91.2111 173.12 92.0188 173.313 92.4996C173.363 92.625 173.358 92.7704 173.296 92.8961C171.647 96.2331 170.191 98.6947 167.84 100.581C165.491 102.466 162.194 103.815 156.792 104.797C156.543 104.843 156.296 104.687 156.231 104.437L155.967 103.431C155.886 103.124 156.126 102.759 156.524 102.723C161.062 102.32 165.149 99.3961 168.053 96.4635C169.512 94.9901 170.692 93.4949 171.502 92.274C171.907 91.6643 172.224 91.1151 172.438 90.6656C172.456 90.6286 172.471 90.5913 172.488 90.5553ZM154.396 72.6461C154.205 72.6165 154.044 72.6993 153.949 72.8023C153.873 72.8842 153.843 72.9696 153.833 73.0025C153.822 73.0388 153.816 73.0731 153.813 73.1012L153.809 73.1627L153.812 73.2633C153.827 73.4337 153.893 73.5797 153.976 73.7008C154.253 74.845 154.811 78.2672 154.484 82.2857C154.148 86.4171 152.883 91.1101 149.498 94.6226C148.834 95.3126 148.895 96.5011 149.762 97.0406L150.818 97.6969C151.44 98.084 152.26 97.9657 152.74 97.401C155.907 93.6706 157.685 90.4633 158.465 86.9879C159.243 83.522 159.016 79.8383 158.263 75.1851C158.158 74.5353 157.645 74.0471 157.026 73.9254C156.627 73.8471 156.13 73.7334 155.689 73.5875C155.468 73.5145 155.272 73.4368 155.113 73.356C155.008 73.303 154.935 73.2517 154.883 73.2115C154.858 73.1229 154.832 73.0441 154.806 72.984C154.796 72.9605 154.778 72.9203 154.75 72.8785C154.737 72.8582 154.711 72.8211 154.671 72.7828C154.639 72.7519 154.546 72.6694 154.396 72.6461ZM155.375 74.5367C155.873 74.7014 156.417 74.825 156.833 74.9068C157.069 74.9533 157.243 75.1347 157.277 75.3453C158.023 79.962 158.225 83.4928 157.49 86.7691C156.756 90.0359 155.079 93.0998 151.977 96.7535C151.823 96.9346 151.555 96.9778 151.346 96.8482L150.29 96.191C150.017 96.0206 149.951 95.5938 150.219 95.316C153.828 91.5711 155.134 86.6156 155.48 82.3668C155.75 79.0502 155.436 76.1227 155.147 74.4537C155.223 74.4818 155.299 74.5113 155.375 74.5367ZM132.987 73.1344C132.507 72.7975 131.873 72.7729 131.368 73.0728C130.699 73.47 129.558 74.1486 128.752 74.6324C128.352 74.8728 128.028 75.0691 127.888 75.1578C127.862 75.1744 127.817 75.2034 127.786 75.2281C127.78 75.2328 127.768 75.241 127.755 75.2525C127.75 75.257 127.712 75.2905 127.676 75.3424C127.664 75.3603 127.607 75.4428 127.592 75.566C127.589 75.6296 127.611 75.7714 127.64 75.8463C127.683 75.9186 127.793 76.0297 127.854 76.068C127.982 76.1359 128.1 76.1271 128.122 76.1256C128.164 76.1228 128.196 76.1156 128.21 76.1119C128.258 76.1 128.297 76.0821 128.3 76.0807C128.312 76.0752 128.324 76.0699 128.331 76.066L128.644 75.8932C128.656 75.8918 128.688 75.8908 128.748 75.9C128.861 75.9171 129.022 75.9653 129.233 76.0592C129.653 76.2462 130.198 76.5808 130.83 77.0572C132.088 78.0073 133.629 79.476 135.1 81.3033C138.054 84.9719 140.653 89.9864 140.268 95.0631C140.187 96.1333 141.206 97.1151 142.323 96.7506L144.076 96.1783C144.759 95.9553 145.187 95.274 145.094 94.5621C144.301 88.5102 143.077 84.3996 141.13 81.1685C139.181 77.9332 136.535 75.6239 132.987 73.1344ZM131.878 73.9322C132.044 73.8336 132.254 73.8413 132.413 73.9527C135.917 76.4118 138.431 78.6251 140.274 81.6842C142.119 84.7475 143.319 88.7042 144.103 94.692C144.134 94.9271 143.991 95.1546 143.766 95.2281L142.012 95.8004C141.667 95.9129 141.23 95.6011 141.265 95.1383C141.678 89.6929 138.9 84.4284 135.878 80.6754C134.362 78.7921 132.764 77.2637 131.432 76.2584C130.817 75.7941 130.245 75.4321 129.754 75.1988C130.485 74.7617 131.336 74.2542 131.878 73.9322Z" fill="#F2874A"/>
<path d="M127.823 92.9728C124.766 92.1365 121.562 92.9269 117.576 94.6857C117.048 94.919 116.695 95.4447 116.696 96.0314C116.701 98.2129 117 99.991 117.97 101.73C118.931 103.454 120.527 105.096 123.034 107.06C123.158 107.156 123.299 107.235 123.446 107.288C126.907 108.543 129.603 109.142 131.816 108.409C134.068 107.664 135.663 105.602 137.099 102.005C137.29 101.525 137.212 100.977 136.906 100.568C133.659 96.2273 130.873 93.8071 127.823 92.9728ZM117.98 95.6007C121.92 93.8624 124.85 93.1956 127.56 93.9366C130.276 94.6797 132.891 96.8705 136.105 101.167C136.206 101.302 136.23 101.485 136.17 101.635C134.761 105.165 133.315 106.86 131.502 107.46C129.651 108.073 127.26 107.607 123.787 106.348C123.739 106.33 123.69 106.304 123.65 106.273C121.181 104.338 119.708 102.794 118.843 101.242C117.985 99.7043 117.701 98.1131 117.696 96.0294C117.696 95.8484 117.807 95.6774 117.98 95.6007Z" fill="#FFCDAD"/>
<path d="M152.619 121.774C149.766 122.056 147.452 122.312 145.102 123.061C142.891 123.767 140.669 124.901 137.926 126.874L137.371 127.28L137.363 127.286L137.356 127.292C134.641 129.473 132.342 131.267 130.92 133.007C130.203 133.885 129.683 134.778 129.449 135.733C129.212 136.697 129.275 137.689 129.668 138.742C129.761 138.99 129.892 139.359 130.078 139.674C130.259 139.983 130.558 140.354 131.041 140.456C132.258 140.713 134.686 140.858 136.946 140.754C138.08 140.701 139.195 140.585 140.112 140.381C140.37 140.323 140.617 140.256 140.847 140.181C140.648 140.585 140.425 141.047 140.202 141.548C139.707 142.655 139.192 143.967 138.867 145.275C138.544 146.574 138.393 147.922 138.678 149.08C138.82 149.657 139.327 150.013 139.858 150.062C143.639 150.409 146.955 148.797 150.463 145.741C153.961 142.694 157.726 138.144 162.403 132.495L162.514 132.361C163.016 131.755 162.969 130.856 162.393 130.311L153.797 122.177C153.481 121.879 153.051 121.731 152.619 121.774ZM152.716 122.769C152.861 122.755 153.005 122.805 153.11 122.904L161.705 131.037C161.895 131.216 161.913 131.518 161.744 131.723L161.632 131.857C156.935 137.531 153.229 142.005 149.807 144.986C146.396 147.958 143.342 149.377 139.95 149.066C139.78 149.051 139.675 148.946 139.649 148.84C139.421 147.916 139.528 146.754 139.836 145.516C140.142 144.288 140.632 143.036 141.115 141.956C141.597 140.876 142.067 139.983 142.333 139.46C142.399 139.33 142.455 139.218 142.496 139.132C142.515 139.089 142.536 139.046 142.551 139.006C142.559 138.986 142.568 138.959 142.577 138.931C142.583 138.91 142.598 138.855 142.6 138.787C142.601 138.753 142.6 138.682 142.571 138.599C142.538 138.507 142.462 138.382 142.31 138.31C142.169 138.244 142.041 138.26 141.975 138.276C141.908 138.292 141.858 138.319 141.833 138.334C141.752 138.381 141.692 138.448 141.675 138.465C141.617 138.528 141.541 138.622 141.452 138.736C141.376 138.833 141.218 138.955 140.939 139.08C140.666 139.202 140.313 139.312 139.894 139.405C139.056 139.592 138.004 139.704 136.9 139.755C134.683 139.857 132.349 139.71 131.248 139.477C131.182 139.463 131.075 139.397 130.94 139.167C130.809 138.943 130.71 138.671 130.606 138.392C130.277 137.511 130.235 136.724 130.419 135.971C130.606 135.21 131.033 134.448 131.695 133.638C133.032 132.002 135.222 130.289 137.982 128.071C140.914 125.9 143.183 124.722 145.406 124.013C147.641 123.3 149.855 123.052 152.716 122.769Z" fill="#FB7F49"/>
<path d="M138.933 147.815L138.829 147.916L138.796 148.056C138.693 148.48 138.811 148.875 139.093 149.178C139.355 149.459 139.736 149.639 140.153 149.748C140.993 149.968 142.166 149.95 143.494 149.649C146.166 149.044 149.602 147.264 152.531 143.642C155.38 140.118 158.172 137.045 160.251 134.852C161.29 133.756 162.151 132.88 162.752 132.279C163.052 131.979 163.287 131.746 163.447 131.59C163.527 131.512 163.589 131.452 163.63 131.412C163.65 131.393 163.666 131.378 163.676 131.368C163.681 131.363 163.685 131.359 163.688 131.356L163.69 131.354L163.691 131.354L164.128 130.935L159.56 127.701L138.933 147.815ZM162.567 131.054C162.425 131.194 162.25 131.367 162.045 131.572C161.439 132.179 160.571 133.061 159.525 134.164C157.434 136.37 154.624 139.464 151.754 143.013C148.965 146.462 145.725 148.118 143.273 148.674C142.04 148.953 141.04 148.947 140.407 148.781C140.088 148.698 139.908 148.585 139.824 148.495C139.793 148.462 139.775 148.431 139.766 148.399L159.663 128.998L162.567 131.054ZM154.364 123.521L130.717 138.5L130.658 138.536L130.612 138.587C130.333 138.897 130.209 139.28 130.292 139.681C130.37 140.055 130.614 140.372 130.912 140.624C131.509 141.127 132.486 141.511 133.667 141.69C136.051 142.052 139.455 141.61 142.877 139.339C149.547 134.913 152.236 131.752 157.86 126.969L158.293 126.601L154.969 123.574L154.687 123.318L154.364 123.521ZM156.783 126.576C151.361 131.229 148.762 134.233 142.324 138.506C139.108 140.64 135.955 141.027 133.816 140.702C132.736 140.538 131.96 140.2 131.557 139.859C131.355 139.689 131.286 139.553 131.271 139.478C131.262 139.435 131.262 139.381 131.323 139.299L154.578 124.57L156.783 126.576Z" fill="#E9682F"/>
<path d="M79.3159 91.8422C77.0131 92.1584 77.3794 99.3962 79.8755 103.37C75.8251 102.114 71.3148 102.962 70.9232 107.212C70.3176 113.785 84.7862 116.828 91.6256 116.818C93.296 105.467 84.686 91.1049 79.3159 91.8422Z" fill="#74A828"/>
<path d="M79.2476 91.3472C80.8186 91.1315 82.5117 92.0209 84.0796 93.4702C85.6679 94.9385 87.2266 97.0692 88.5522 99.562C91.2 104.541 92.9759 111.078 92.1206 116.891L92.0571 117.318L91.6265 117.319C88.1529 117.324 82.7676 116.557 78.313 114.955C76.0872 114.154 74.0559 113.131 72.6108 111.863C71.1601 110.59 70.2543 109.023 70.4253 107.167C70.6409 104.827 72.014 103.399 73.8628 102.754C75.3489 102.237 77.1314 102.225 78.8784 102.594C77.9334 100.657 77.3965 98.2873 77.2964 96.2593C77.237 95.0547 77.3294 93.9298 77.605 93.0659C77.8725 92.2277 78.3755 91.4671 79.2476 91.3472ZM83.3999 94.2046C81.8955 92.814 80.4982 92.1846 79.3843 92.3374C79.1052 92.3757 78.7906 92.6381 78.5571 93.3696C78.3318 94.0759 78.2391 95.0685 78.2954 96.2095C78.408 98.4921 79.1076 101.207 80.2993 103.104L81.0171 104.247L79.7271 103.847C77.7696 103.24 75.7442 103.158 74.1919 103.699C72.6751 104.227 71.5974 105.348 71.4214 107.258C71.2897 108.688 71.9647 109.966 73.27 111.112C74.5812 112.263 76.4813 113.233 78.6519 114.013C82.8061 115.507 87.8142 116.256 91.187 116.313C91.8552 110.88 90.1846 104.761 87.6694 100.032C86.3802 97.6075 84.884 95.5764 83.3999 94.2046Z" fill="#74A828"/>
<path d="M144.062 103.36C145.785 103.571 145.511 108.391 143.643 111.037C146.675 110.201 150.05 110.766 150.343 113.596C150.797 117.973 139.968 120 134.849 119.993C133.599 112.433 140.043 102.869 144.062 103.36Z" fill="#74A828"/>
<path d="M144.123 102.864C142.915 102.716 141.622 103.326 140.433 104.303C139.229 105.294 138.051 106.728 137.051 108.401C135.056 111.738 133.705 116.14 134.355 120.075L134.425 120.493H134.848C137.455 120.496 141.494 119.985 144.838 118.915C146.507 118.38 148.043 117.694 149.141 116.836C150.24 115.978 150.979 114.881 150.841 113.544C150.669 111.885 149.571 110.899 148.168 110.464C147.118 110.139 145.88 110.109 144.652 110.306C145.274 109.051 145.629 107.583 145.699 106.313C145.744 105.496 145.675 104.717 145.457 104.108C145.241 103.506 144.826 102.95 144.123 102.864ZM141.068 105.076C142.179 104.162 143.2 103.759 144.002 103.857C144.16 103.876 144.356 104.003 144.515 104.446C144.672 104.882 144.741 105.513 144.7 106.257C144.617 107.747 144.104 109.518 143.235 110.749L142.428 111.891L143.776 111.519C145.231 111.118 146.73 111.066 147.872 111.419C148.988 111.765 149.725 112.477 149.846 113.647C149.935 114.499 149.489 115.296 148.526 116.048C147.562 116.801 146.154 117.444 144.533 117.962C141.476 118.941 137.797 119.438 135.282 119.488C134.841 115.965 136.064 112.002 137.909 108.915C138.866 107.314 139.973 105.976 141.068 105.076Z" fill="#74A828"/>
<path d="M114.181 103C119.8 111.812 114.168 149.268 114.168 149.268C114.168 149.268 109.53 110.211 111.201 104.887C112.873 99.5632 112.766 100.78 114.181 103Z" fill="#81B425"/>
<path d="M114.168 149.268L113.697 149.307L114.635 149.384L114.168 149.268ZM113.35 100.824C113.194 100.679 112.953 100.533 112.664 100.601C112.411 100.66 112.238 100.859 112.119 101.037C111.991 101.227 111.867 101.483 111.739 101.793C111.482 102.417 111.169 103.361 110.752 104.689C110.517 105.438 110.408 106.706 110.375 108.28C110.342 109.875 110.386 111.852 110.486 114.064C110.687 118.487 111.111 123.879 111.586 129.097C112.062 134.316 112.59 139.368 112.999 143.115C113.204 144.989 113.377 146.536 113.501 147.616C113.563 148.155 113.612 148.578 113.646 148.866C113.663 149.01 113.676 149.12 113.685 149.194C113.689 149.231 113.692 149.259 113.695 149.278C113.696 149.287 113.696 149.295 113.697 149.299C113.697 149.302 113.697 149.303 113.698 149.304L113.697 149.307C113.7 149.307 113.731 149.304 114.168 149.268C114.635 149.383 114.635 149.384 114.635 149.384L114.635 149.381C114.636 149.38 114.636 149.379 114.637 149.376C114.637 149.372 114.638 149.364 114.64 149.355C114.643 149.337 114.646 149.309 114.652 149.273C114.662 149.202 114.678 149.096 114.698 148.958C114.738 148.68 114.796 148.271 114.868 147.749C115.011 146.705 115.209 145.204 115.43 143.376C115.871 139.721 116.4 134.753 116.754 129.508C117.107 124.265 117.286 118.73 117.023 113.945C116.891 111.553 116.648 109.335 116.256 107.43C115.866 105.532 115.321 103.902 114.563 102.714C114.393 102.448 114.245 102.195 114.111 101.962C113.979 101.733 113.853 101.51 113.738 101.327C113.627 101.15 113.498 100.962 113.35 100.824ZM112.97 101.891C113.07 102.051 113.18 102.247 113.32 102.489C113.457 102.726 113.616 102.996 113.8 103.285C114.447 104.3 114.954 105.769 115.332 107.606C115.708 109.435 115.947 111.59 116.077 113.948C116.337 118.665 116.161 124.147 115.809 129.369C115.457 134.589 114.929 139.536 114.49 143.179C114.39 144.004 114.296 144.762 114.208 145.441C114.128 144.724 114.035 143.922 113.94 143.05C113.532 139.307 113.004 134.262 112.529 129.051C112.054 123.84 111.632 118.469 111.433 114.072C111.333 111.873 111.29 109.925 111.323 108.365C111.356 106.785 111.467 105.667 111.65 105.085C112.069 103.751 112.369 102.85 112.606 102.274C112.711 102.02 112.797 101.848 112.865 101.736C112.894 101.777 112.93 101.828 112.97 101.891Z" fill="#83B729"/>
</svg>
