<svg width="200" height="200" viewBox="0 0 200 200" fill="none" xmlns="http://www.w3.org/2000/svg">
<ellipse cx="100" cy="123.835" rx="94" ry="69.1644" fill="#E8C483"/>
<ellipse cx="100" cy="118.071" rx="94" ry="68.524" fill="#F9DCA6"/>
<ellipse cx="100.56" cy="112.949" rx="78.8929" ry="54.4349" fill="#E7C280"/>
<path d="M107.125 148.85C97.025 155.779 91.7934 158.75 88.1015 152.052L76.911 148.21C66.2145 152.491 62.5325 150.808 59.0062 142.446C44.568 144.511 38.1821 143.636 37.7443 128.998C23.601 125.865 13.4814 125.241 23.1967 109.785C5.73471 98.2826 7.67015 93.4249 20.9586 86.0901C5.06983 66.3601 7.786 61.5482 25.4348 59.8333C16.4798 32.7673 20.8764 29.4366 43.3396 41.9017C45.8388 19.9214 51.0077 18.5303 65.161 30.3742C71.9988 5.43021 77.9015 6.29841 86.4229 23.9701C93.1951 12.9382 96.9939 14.832 103.768 25.8915L169.792 66.8778C185.095 69.4144 189.842 73.3147 176.506 94.4155C188.31 105.068 181.7 110.48 167.554 120.032C175.891 132.668 172.685 135.903 158.042 137.323C159.222 148.253 152.604 149.967 132.863 148.21L107.125 148.85Z" fill="#82B62B" stroke="#72A729"/>
<path d="M41.3804 121.035C38.2998 135.851 44.5323 134.794 56.4876 131.922C57.6474 148.94 59.7869 156.231 77.7494 147.933C86.3171 157.848 92.1454 160.748 108.523 150.494C111.556 158.704 116.823 158.558 133.142 149.213C145.519 144.799 150.6 141.691 147.13 131.922C164.533 127.894 162.01 124.57 155.523 118.474C165.964 110.543 169.506 106.57 161.119 102.463V99.9017C163.971 93.4198 173.717 87.4961 157.202 86.4531L155.523 80.049C166.865 79.5079 169.063 75.9109 171.749 68.5216H166.154L108.523 51.8709C96.3628 36.2414 91.4858 35.0255 86.7018 48.0284L80.5471 46.7476C73.1853 25.6472 71.3662 27.5207 72.1542 46.7476H66.559C55.2909 36.2672 53.5472 39.4233 56.4876 56.9942L49.2137 58.9154C25.5367 46.5707 26.6 50.3817 43.6185 68.5216C28.054 67.5271 24.3149 69.4613 31.8685 80.049C25.7449 86.1527 27.5923 89.3247 35.2256 94.7784C22.2096 100.025 21.0495 102.979 35.2256 108.227C25.076 118.404 31.6658 119.047 41.3804 121.035Z" fill="#619622" stroke="#619622"/>
<path d="M174.943 61.7227L111.108 6.76927C110.64 6.36641 109.918 6.48755 109.603 7.01893C95.2706 31.2348 98.0828 51.0762 110.774 68.7603C123.523 86.524 152.973 89.6114 175.055 63.115C175.402 62.6995 175.353 62.0755 174.943 61.7227Z" fill="#FFC91B" stroke="#FFCE25"/>
<path d="M168.653 56.6968L117.038 11.9023C116.569 11.4956 115.843 11.6158 115.53 12.1519C104.002 31.9182 106.307 48.1271 116.596 62.5788C126.943 77.1132 150.818 79.6637 168.765 58.0819C169.108 57.6684 169.059 57.0493 168.653 56.6968Z" fill="#FFF083" stroke="#FFF083"/>
<path d="M114.693 18.2623C110.862 25.8665 108.835 38.2208 110.884 40.3068C111.136 40.5626 111.517 40.5327 111.86 40.4294C115.471 39.344 136.947 32.8441 135.409 32.2573C134.054 31.7405 122.132 21.6307 117.581 17.748C116.652 16.9559 115.242 17.1724 114.693 18.2623Z" fill="#FFCC24"/>
<path d="M135.093 37.8369L114.56 43.9678C113.664 44.2352 113.068 45.0928 113.16 46.023C114.132 55.8721 117.678 60.2738 127.263 64.6791C128.327 65.168 129.569 64.6049 129.936 63.4933L137.565 40.3801C138.071 38.8451 136.642 37.3744 135.093 37.8369Z" fill="#FFCC24"/>
<path d="M161.164 57.424C152.248 65.1608 146.163 67.7223 136.295 68.0762C134.994 68.1228 134.036 66.8973 134.351 65.6348L140.756 39.9751C141.122 38.51 142.917 37.9632 144.037 38.9756L161.182 54.4675C162.061 55.262 162.059 56.6473 161.164 57.424Z" fill="#FFCC24"/>
<path d="M114.693 18.2623C110.862 25.8665 108.835 38.2208 110.884 40.3068C111.136 40.5626 111.517 40.5327 111.86 40.4294C115.471 39.344 136.947 32.8441 135.409 32.2573C134.054 31.7405 122.132 21.6307 117.581 17.748C116.652 16.9559 115.242 17.1724 114.693 18.2623Z" stroke="#FFD735"/>
<path d="M135.093 37.8369L114.56 43.9678C113.664 44.2352 113.068 45.0928 113.16 46.023C114.132 55.8721 117.678 60.2738 127.263 64.6791C128.327 65.168 129.569 64.6049 129.936 63.4933L137.565 40.3801C138.071 38.8451 136.642 37.3744 135.093 37.8369Z" stroke="#FFD735"/>
<path d="M161.164 57.424C152.248 65.1608 146.163 67.7223 136.295 68.0762C134.994 68.1228 134.036 66.8973 134.351 65.6348L140.756 39.9751C141.122 38.51 142.917 37.9632 144.037 38.9756L161.182 54.4675C162.061 55.262 162.059 56.6473 161.164 57.424Z" stroke="#FFD735"/>
<ellipse cx="117.345" cy="29.6952" rx="2.79762" ry="1.92123" fill="#FFC115"/>
<ellipse cx="123.5" cy="54.0312" rx="2.2381" ry="3.20205" fill="#FFC115"/>
<ellipse cx="142.524" cy="59.7946" rx="2.2381" ry="2.56164" fill="#FFC115"/>
<ellipse cx="151.476" cy="57.2325" rx="2.2381" ry="2.56164" fill="#FFC115"/>
<path d="M66.5615 117.446C66.822 117.161 66.8879 116.735 66.7459 116.376C52.3741 80.0456 82.8458 71.6202 88.2663 86.7791C88.549 87.5696 89.6281 87.8526 90.1892 87.228C98.4776 78.0024 104.144 76.0764 113.998 79.8085C114.73 80.0857 115.51 79.4771 115.377 78.7056C112.633 62.7307 107.624 55.7478 94.0022 47.2729C93.8998 47.2092 93.7817 47.1627 93.6633 47.1397C75.9856 43.6933 67.2398 46.5445 52.6059 54.7671C52.4978 54.8278 52.3978 54.912 52.3192 55.0078C39.251 70.9516 36.3403 78.1238 36.2141 88.802C38.5928 111.784 43.3743 119.699 53.94 129.733C54.3436 130.116 54.9853 130.093 55.3611 129.683L66.5615 117.446Z" fill="#FFB78E" stroke="#FFB78E"/>
<path d="M37.7181 102.131C37.5615 101.913 37.4615 101.693 37.4231 101.473C37.211 100.26 37.4007 100.885 37.7181 102.131C39.7667 104.978 51.4925 107.409 61.5234 103.808C62.0967 103.602 62.7338 103.924 62.8813 104.515L63.5437 107.168C63.6491 107.59 63.4666 108.035 63.0935 108.259C54.1674 113.624 48.8088 113.491 39.4769 108.096C39.2394 107.958 39.0666 107.727 39.004 107.46C38.7636 106.434 38.1322 103.755 37.7181 102.131Z" fill="#F2874A"/>
<path d="M41.3397 71.3737C41.5018 69.6279 39.7701 74.092 39.248 75.4678C39.1532 75.7177 39.1664 75.9962 39.2797 76.2382C43.7785 85.8433 47.3303 90.8239 62.2363 93.62C62.7524 93.7168 63.2597 93.3932 63.3869 92.8837L63.9601 90.5874C64.1207 89.944 63.6204 89.3252 62.9586 89.2844C51.0568 88.5514 41.1558 73.3541 41.3397 71.3737Z" fill="#F2874A"/>
<path d="M61.6444 50.1136C62.7079 49.9067 64.6343 49.4483 65.2235 48.7551C65.3253 48.3367 65.3952 48.1742 65.3992 48.3189C65.4035 48.4733 65.3394 48.6187 65.2235 48.7551C64.4632 51.8789 61.9233 69.2651 71.7511 79.4403C72.2041 79.9094 72.1428 80.6863 71.597 81.0432L69.5013 82.4139C69.0766 82.6917 68.5072 82.6037 68.1869 82.2101C59.5611 71.6123 58.7278 64.3057 60.8075 50.9691C60.8747 50.538 61.2161 50.1969 61.6444 50.1136Z" fill="#F2874A"/>
<path d="M100.09 51.521C101.959 52.6344 97.2929 49.7166 95.6221 48.6734C95.2768 48.4578 94.8351 48.4772 94.5071 48.7183C84.884 55.7918 80.4718 61.5607 78.3639 78.8916C78.3072 79.3579 78.5848 79.8077 79.029 79.9603L82.2198 81.0559C82.9491 81.3063 83.6841 80.6681 83.602 79.9014C81.9876 64.8269 97.9123 50.2239 100.09 51.521Z" fill="#F2874A"/>
<path d="M37.4231 101.473C37.9644 104.571 50.7259 107.685 61.5234 103.808C62.0967 103.602 62.7338 103.924 62.8813 104.515L63.5437 107.168C63.6491 107.59 63.4666 108.035 63.0935 108.259C54.1674 113.624 48.8088 113.491 39.4769 108.096C39.2394 107.958 39.0666 107.727 39.004 107.46C38.5792 105.648 36.9344 98.6768 37.4231 101.473ZM41.3397 71.3737C41.5018 69.6279 39.7701 74.092 39.248 75.4679C39.1532 75.7177 39.1664 75.9962 39.2797 76.2382C43.7785 85.8433 47.3304 90.8239 62.2363 93.62C62.7524 93.7168 63.2597 93.3931 63.3869 92.8837L63.9601 90.5874C64.1207 89.944 63.6204 89.3252 62.9586 89.2844C51.0568 88.5514 41.1558 73.3541 41.3397 71.3737ZM65.3992 48.3189C65.4254 49.2583 62.9171 49.866 61.6444 50.1136C61.2161 50.1969 60.8747 50.538 60.8075 50.9691C58.7278 64.3057 59.5611 71.6123 68.1869 82.2101C68.5072 82.6037 69.0766 82.6916 69.5013 82.4139L71.597 81.0432C72.1428 80.6863 72.2041 79.9094 71.7511 79.4403C60.6073 67.9026 65.3652 47.0933 65.3992 48.3189ZM100.09 51.521C101.959 52.6344 97.2929 49.7166 95.6221 48.6734C95.2768 48.4578 94.8351 48.4772 94.5071 48.7183C84.884 55.7918 80.4718 61.5607 78.3639 78.8916C78.3072 79.3579 78.5848 79.8077 79.029 79.9603L82.2198 81.0559C82.9491 81.3063 83.6841 80.6681 83.602 79.9014C81.9876 64.8269 97.9123 50.2239 100.09 51.521Z" stroke="#F2874A"/>
<path d="M114.546 79.3685C103.738 74.3064 97.9012 75.0936 89.1116 87.5295C88.9242 87.7946 88.8768 88.148 88.9904 88.4522C92.8278 98.7297 97.1699 99.2929 106.562 95.7031C106.661 95.6652 106.758 95.6087 106.841 95.5411C113.643 89.9461 115.149 86.4402 115.115 80.2499C115.113 79.8724 114.888 79.5286 114.546 79.3685Z" fill="#FFCDAD" stroke="#FFCDAD"/>
<path d="M66.6517 117.766L54.7499 129.612C54.3902 129.97 54.3598 130.546 54.6737 130.945C67.5547 147.308 75.0799 157.009 84.8806 155.931C85.2338 155.892 85.5397 155.655 85.6338 155.312C87.2316 149.495 80.1487 138.504 82.0951 141.127C83.7467 143.352 94.2696 143.099 96.8295 142.324C97.3517 142.166 97.412 141.378 97.6192 140.873C99.953 135.187 95.2107 131.472 87.6903 125.117C79.6839 118.876 75.1989 118.283 67.4621 117.481C67.1635 117.45 66.8645 117.555 66.6517 117.766Z" fill="#FB7F49" stroke="#FB7F49"/>
<path d="M58.2958 126.058L53.2937 129.782C53.2937 129.782 60.6389 137.197 68.2999 147.162C75.9608 157.127 86.186 156.843 85.5292 153.99L58.2958 126.058Z" fill="#E9682F"/>
<path d="M64.9652 119.851L61.0747 123.575C68.6733 130.373 72.1904 134.748 81.0829 140.955C89.9755 147.162 98.6501 143.293 96.6449 140.955L64.9652 119.851Z" fill="#E9682F"/>
<path d="M58.2958 126.058L53.2937 129.782C53.2937 129.782 60.6389 137.197 68.2999 147.162C75.9608 157.127 86.186 156.843 85.5292 153.99L58.2958 126.058Z" stroke="#E9682F"/>
<path d="M64.9652 119.851L61.0747 123.575C68.6733 130.373 72.1904 134.748 81.0829 140.955C89.9755 147.162 98.6501 143.293 96.6449 140.955L64.9652 119.851Z" stroke="#E9682F"/>
<path d="M153.582 122.383C153.304 122.094 153.234 121.65 153.386 121.278C163.757 96.0476 141.948 89.9239 137.434 99.9997C137.097 100.751 136.044 101.037 135.473 100.443C129.58 94.3163 125.418 92.9749 118.446 95.3786C117.71 95.6323 116.949 95.0152 117.093 94.2502C119.158 83.2731 122.928 78.3729 132.922 72.4554C133.022 72.3962 133.136 72.3534 133.25 72.3322C146.403 69.9008 152.929 71.9178 163.817 77.7303C163.925 77.7881 164.026 77.8691 164.106 77.962C173.833 89.2507 176.001 94.338 176.095 101.908C174.332 118.105 170.8 123.757 163.028 130.808C162.63 131.169 162.018 131.145 161.645 130.758L153.582 122.383Z" fill="#FFB78E" stroke="#FFB78E"/>
<path d="M174.973 111.368C175.09 111.213 175.165 111.057 175.193 110.901C175.351 110.04 175.21 110.484 174.973 111.368C173.461 113.366 164.885 115.076 157.454 112.642C156.886 112.456 156.265 112.771 156.113 113.349L155.755 114.714C155.641 115.147 155.829 115.604 156.219 115.824C162.737 119.504 166.719 119.395 173.556 115.658C173.8 115.525 173.977 115.294 174.044 115.024C174.242 114.222 174.68 112.46 174.973 111.368Z" fill="#F2874A"/>
<path d="M172.27 89.5392C172.154 88.3513 173.337 91.2145 173.778 92.3133C173.883 92.573 173.869 92.8662 173.745 93.1171C170.437 99.8085 167.764 103.31 156.883 105.289C156.374 105.382 155.88 105.064 155.748 104.564L155.484 103.558C155.315 102.912 155.816 102.284 156.481 102.225C165.209 101.449 172.405 90.9263 172.27 89.5392Z" fill="#F2874A"/>
<path d="M156.93 74.4159C156.116 74.2558 154.849 73.9428 154.441 73.4865C154.365 73.1896 154.313 73.0742 154.31 73.1769C154.306 73.2865 154.354 73.3897 154.441 73.4865C155.001 75.6736 156.853 87.7119 149.86 94.9694C149.393 95.4534 149.457 96.2611 150.027 96.616L151.083 97.2725C151.499 97.5309 152.042 97.4499 152.359 97.077C158.629 89.6928 159.27 84.5352 157.771 75.2653C157.701 74.8349 157.358 74.5 156.93 74.4159Z" fill="#F2874A"/>
<path d="M128.414 75.4495C127.063 76.2147 130.287 74.2968 131.624 73.5025C131.96 73.3032 132.381 73.3196 132.7 73.5438C139.753 78.4924 143.023 82.5871 144.6 94.6271C144.662 95.1007 144.376 95.5547 143.922 95.7029L142.168 96.2753C141.438 96.5139 140.71 95.8673 140.768 95.1008C141.565 84.5784 130.014 74.543 128.414 75.4495Z" fill="#F2874A"/>
<path d="M175.193 110.901C174.793 113.077 165.459 115.264 157.454 112.642C156.886 112.456 156.265 112.771 156.113 113.349L155.755 114.714C155.641 115.147 155.829 115.604 156.219 115.824C162.737 119.504 166.719 119.395 173.556 115.658C173.8 115.525 173.977 115.294 174.044 115.024C174.403 113.573 175.547 108.976 175.193 110.901ZM172.27 89.5392C172.154 88.3513 173.337 91.2145 173.778 92.3133C173.883 92.573 173.869 92.8662 173.745 93.1171C170.437 99.8085 167.764 103.31 156.883 105.289C156.374 105.382 155.88 105.064 155.748 104.564L155.484 103.558C155.315 102.912 155.816 102.284 156.481 102.225C165.209 101.449 172.405 90.9263 172.27 89.5392ZM154.31 73.1769C154.291 73.8033 155.943 74.2218 156.93 74.4159C157.358 74.5 157.701 74.8349 157.771 75.2653C159.27 84.5352 158.629 89.6928 152.359 97.077C152.042 97.4499 151.499 97.5309 151.083 97.2725L150.027 96.616C149.457 96.2611 149.393 95.4534 149.86 94.9694C157.803 86.7268 154.335 72.3174 154.31 73.1769ZM128.414 75.4495C127.063 76.2147 130.287 74.2968 131.624 73.5025C131.96 73.3032 132.381 73.3196 132.7 73.5438C139.753 78.4924 143.023 82.5871 144.6 94.6271C144.662 95.1007 144.376 95.5547 143.922 95.7029L142.168 96.2753C141.438 96.5139 140.71 95.8673 140.768 95.1008C141.565 84.5784 130.014 74.543 128.414 75.4495Z" stroke="#F2874A"/>
<path d="M117.779 95.1427C125.705 91.6456 130.045 92.2296 136.507 100.868C136.71 101.139 136.761 101.505 136.635 101.82C133.791 108.947 130.552 109.333 123.618 106.818C123.52 106.783 123.425 106.73 123.343 106.666C118.366 102.768 117.206 100.296 117.197 96.0306C117.196 95.6466 117.428 95.2977 117.779 95.1427Z" fill="#FFCDAD" stroke="#FFCDAD"/>
<path d="M153.455 122.54L162.05 130.674C162.433 131.036 162.466 131.636 162.13 132.042L162.019 132.176C152.644 143.5 147.078 150.222 139.905 149.564C139.554 149.532 139.249 149.302 139.164 148.96C138.139 144.796 143.282 137.205 141.846 139.044C140.67 140.551 133.464 140.456 131.146 139.966C130.596 139.85 130.335 139.093 130.138 138.567C128.692 134.697 132.195 132.08 137.67 127.681C143.611 123.278 146.955 122.836 152.669 122.272C152.957 122.243 153.244 122.341 153.455 122.54Z" fill="#FB7F49" stroke="#FB7F49"/>
<path d="M159.612 128.35L163.346 130.993C163.346 130.993 157.863 136.255 152.144 143.327C146.425 150.4 138.792 150.198 139.283 148.173L159.612 128.35Z" fill="#E9682F"/>
<path d="M154.633 123.944L157.537 126.587C151.865 131.412 149.24 134.517 142.602 138.922C135.964 143.327 129.488 140.582 130.985 138.922L154.633 123.944Z" fill="#E9682F"/>
<path d="M159.612 128.35L163.346 130.993C163.346 130.993 157.863 136.255 152.144 143.327C146.425 150.4 138.792 150.198 139.283 148.173L159.612 128.35Z" stroke="#E9682F"/>
<path d="M154.633 123.944L157.537 126.587C151.865 131.412 149.24 134.517 142.602 138.922C135.964 143.327 129.488 140.582 130.985 138.922L154.633 123.944Z" stroke="#E9682F"/>
<path d="M79.3159 91.8422C77.0131 92.1584 77.3794 99.3962 79.8755 103.37C75.8251 102.114 71.3148 102.962 70.9232 107.212C70.3176 113.785 84.7862 116.828 91.6256 116.818C93.296 105.467 84.686 91.1049 79.3159 91.8422Z" fill="#74A828" stroke="#74A828"/>
<path d="M144.062 103.36C145.785 103.571 145.511 108.391 143.643 111.037C146.675 110.201 150.05 110.766 150.343 113.596C150.797 117.973 139.968 120 134.849 119.993C133.599 112.433 140.043 102.869 144.062 103.36Z" fill="#74A828" stroke="#74A828"/>
<path d="M114.182 103C119.8 111.812 114.168 149.268 114.168 149.268C114.168 149.268 109.53 110.21 111.201 104.887C112.873 99.5631 112.766 100.78 114.182 103Z" fill="#81B425" stroke="#83B729"/>
</svg>
