<svg width="200" height="200" viewBox="0 0 200 200" fill="none" xmlns="http://www.w3.org/2000/svg">
<path d="M184.676 107.936C184.676 143.247 144.902 171.872 95.8381 171.872C46.7742 171.872 7 143.247 7 107.936C7 72.6251 46.7742 44 95.8381 44C144.902 44 184.676 72.6251 184.676 107.936Z" fill="#F4B13B"/>
<path d="M184.676 100.736C184.676 135.72 144.902 164.08 95.8381 164.08C46.7742 164.08 7 135.72 7 100.736C7 65.7522 46.7742 37.3921 95.8381 37.3921C144.902 37.3921 184.676 65.7522 184.676 100.736Z" fill="#BC3621"/>
<path d="M170.927 96.0002C170.927 123.791 137.546 146.32 96.3669 146.32C55.1883 146.32 21.8064 123.791 21.8064 96.0002C21.8064 68.2092 55.1883 45.6802 96.3669 45.6802C137.546 45.6802 170.927 68.2092 170.927 96.0002Z" fill="#A92D1B"/>
<path d="M154.764 63.5659C155.572 67.1047 156.136 69.886 156.073 72.3267C156.012 74.7123 155.351 76.7633 153.791 78.8979C155.81 83.4538 156.768 86.9628 156.167 90.0981C155.559 93.265 153.386 95.9291 149.467 98.8628C149.324 103.071 148.538 105.912 146.362 107.535C144.218 109.133 140.867 109.429 135.956 109.013C132.549 113.495 129.697 115.745 126.649 116.462C123.619 117.175 120.506 116.344 116.68 114.968L100.468 123.423C96.6742 126.027 93.803 127.347 91.1101 127.588C88.4897 127.823 86.1148 127.028 83.3191 125.568C78.7093 129.514 75.2544 131.462 72.0915 131.65C68.9085 131.839 66.1586 130.242 62.9909 127.502C60.6048 128.204 58.602 128.631 56.9148 128.742C55.1638 128.857 53.7196 128.637 52.5339 128.008C50.2503 126.798 49.1302 124.187 48.403 120.3C45.0961 121.035 42.5363 121.131 40.6101 119.752C38.6344 118.339 37.485 115.484 36.6853 110.777C32.9694 108.508 30.9109 106.293 30.1687 103.508C29.4337 100.75 30.023 97.5404 31.3025 93.3813C29.2505 89.3701 28.3865 86.7371 28.4353 84.7183C28.4864 82.6095 29.5281 81.2511 30.9528 79.8032L31.2497 79.5015L52.2536 94.2339C55.5988 96.2689 59.2172 97.0738 62.3962 97.2065C65.5868 97.3397 68.2997 96.7945 69.8103 96.1685C72.9312 94.8749 78.4471 92.1069 89.2927 83.0649L89.3083 83.0522L89.3249 83.0405C100.129 75.4047 106.635 71.8935 119.698 68.4663L120.626 68.2261C130.1 65.8241 136.169 65.7762 146.863 66.4712C148.462 66.3999 149.618 66.2163 150.666 65.7661C151.718 65.314 152.701 64.5754 153.92 63.3276L154.56 62.6714L154.764 63.5659ZM153.985 64.6616C152.983 65.6038 152.067 66.2526 151.06 66.6851C149.843 67.208 148.539 67.3998 146.879 67.4722L146.851 67.4731L146.824 67.4712C136.168 66.778 130.211 66.8272 120.867 69.1968L119.952 69.4331C107.037 72.8214 100.639 76.2694 89.9206 83.8433C79.0298 92.9215 73.4311 95.7502 70.1931 97.0923C68.5235 97.7842 65.6617 98.3435 62.3552 98.2056C59.0407 98.0672 55.2433 97.2264 51.7204 95.0796L51.7068 95.0718L51.6941 95.062L31.3737 80.8101C30.1738 82.0754 29.4737 83.1541 29.4353 84.7427C29.3924 86.5168 30.169 89.0004 32.2839 93.106L32.3777 93.2876L32.3171 93.4829C30.9968 97.7344 30.4688 100.752 31.1345 103.25C31.7503 105.562 33.4185 107.524 36.7165 109.621L37.3972 110.042L37.5954 110.161L37.6335 110.389C38.4355 115.235 39.55 117.765 41.1921 118.94C42.8167 120.102 45.1207 120.051 48.6862 119.21L49.2029 119.088L49.2937 119.612C50.0177 123.782 51.0805 126.106 53.0027 127.125C53.97 127.637 55.2106 127.852 56.8493 127.744C58.49 127.635 60.4966 127.207 62.9685 126.468L63.2331 126.389L63.4411 126.571C66.6618 129.39 69.1997 130.82 72.0329 130.652C74.8969 130.482 78.2025 128.673 82.9255 124.591L83.1853 124.368L83.488 124.529C86.3556 126.057 88.5972 126.81 91.0212 126.593C93.4597 126.375 96.1641 125.168 99.9304 122.581L99.9558 122.563L99.9821 122.549L116.414 113.982L116.608 113.879L116.815 113.955C120.746 115.378 123.657 116.139 126.421 115.489C129.171 114.841 131.888 112.764 135.326 108.193L135.494 107.97L135.77 107.996C140.848 108.448 143.918 108.11 145.764 106.733C147.577 105.381 148.358 102.906 148.477 98.5933L148.484 98.3501L148.679 98.2056C152.655 95.2634 154.638 92.7551 155.184 89.9097C155.735 87.0419 154.853 83.7081 152.76 79.0405L152.639 78.769L152.819 78.5327C154.382 76.4756 155.016 74.5611 155.074 72.3003C155.128 70.1972 154.684 67.7884 153.985 64.6616Z" fill="#FDE8CB"/>
<path d="M104.642 65.0137C117.313 61.7805 124.199 61.0551 134.852 62.3896L135.896 62.5254L135.912 62.5273L135.929 62.5312H135.931L135.934 62.5322C135.937 62.5328 135.941 62.534 135.947 62.5352C135.958 62.5375 135.976 62.5412 135.998 62.5459C136.044 62.5553 136.112 62.5687 136.199 62.5869C136.375 62.6233 136.63 62.6764 136.952 62.7441C137.598 62.8798 138.511 63.0742 139.583 63.3066C141.727 63.7715 144.51 64.392 147.06 65.0127C149.598 65.6306 151.94 66.2571 153.18 66.7354C153.488 66.8542 153.758 66.9744 153.95 67.0957C154.042 67.1537 154.154 67.2348 154.239 67.3438C154.326 67.456 154.447 67.6894 154.329 67.9609C154.234 68.1816 154.037 68.2774 153.942 68.3164C153.825 68.3639 153.692 68.3933 153.557 68.4141C153.284 68.4563 152.908 68.4765 152.431 68.4766C144.954 68.4778 124.849 68.9876 104.981 77.0996C90.8762 84.9052 85.8226 88.2836 77.0149 94.1689L76.6585 94.4062L76.6458 94.415L76.6331 94.4229C73.4506 96.2801 70.8328 97.5555 68.0589 98.3574C65.2822 99.1601 62.3744 99.481 58.6155 99.459C57.7929 99.4542 57.136 98.7818 57.136 97.9658V96.1016C57.136 95.3494 57.691 94.7237 58.4202 94.6074C62.537 93.9512 65.8691 92.734 69.3636 90.4043C72.8728 88.0646 76.5593 84.5939 81.3694 79.4043L81.3841 79.3896L81.3997 79.375C90.2949 71.2528 95.4057 68.3563 104.596 65.0283L104.618 65.0205L104.642 65.0137ZM58.136 97.9658C58.136 98.2384 58.3554 98.4574 58.6214 98.459C62.3182 98.4806 65.1246 98.1656 67.7815 97.3975C70.4385 96.6293 72.9715 95.4005 76.1185 93.5645L76.4593 93.3369C85.2871 87.4381 90.3668 84.0438 104.524 76.21L104.549 76.1963L104.576 76.1846C124.511 68.0387 144.661 67.4844 152.288 67.4766C151.031 67.0512 149.029 66.5213 146.824 65.9844C144.286 65.3665 141.512 64.7482 139.371 64.2842C138.301 64.0522 137.39 63.8589 136.746 63.7236C136.425 63.656 136.17 63.6026 135.995 63.5664C135.908 63.5483 135.841 63.5337 135.796 63.5244C135.774 63.5198 135.757 63.517 135.745 63.5146L135.742 63.5137C124.659 62.0246 117.878 62.6702 104.908 65.9785C95.8655 69.2552 90.8691 72.0832 82.0804 80.1074C77.2692 85.2966 73.5248 88.8324 69.9192 91.2363C66.2936 93.6536 62.8225 94.9181 58.5774 95.5947C58.32 95.6358 58.136 95.8546 58.136 96.1016V97.9658Z" fill="#FA7041"/>
<path d="M26.6275 65.8351C29.1533 62.9765 31.6019 61.4887 34.8345 61.7951C37.9871 62.0939 41.7914 64.0985 47.0699 67.8585C47.1687 67.9289 47.2621 68.0139 47.3414 68.1066C51.923 73.4657 54.9518 77.8904 56.9351 82.5236C58.9199 87.1604 59.8446 91.9759 60.2613 98.0978C60.3461 99.344 58.9593 100.121 57.9371 99.423L36.3091 84.6535L36.2916 84.6417C30.3078 80.1729 27.4161 77.0779 26.231 74.3439C25.0271 71.5664 25.6173 69.2276 26.2955 66.4777L26.2984 66.466C26.3552 66.2357 26.4682 66.0156 26.6275 65.8351ZM34.7398 62.7912C31.9619 62.528 29.8023 63.7529 27.3775 66.4972C27.3272 66.5541 27.2881 66.6281 27.2691 66.7052L27.2662 66.7169C26.5797 69.5004 26.0955 71.5183 27.148 73.9464C28.2194 76.4181 30.9157 79.3781 36.8902 83.84L58.5005 98.5968C58.8427 98.8304 59.2915 98.5682 59.2642 98.1662C58.8521 92.1111 57.942 87.416 56.0162 82.9171C54.0888 78.4147 51.131 74.0774 46.5816 68.756C46.5558 68.7259 46.5226 68.6964 46.4898 68.673C41.2068 64.9097 37.5979 63.062 34.7398 62.7912Z" fill="#FFB897"/>
<path d="M37.5632 45.1802C41.008 45.3261 43.6722 45.5649 46.0965 46.2563C48.5332 46.9513 50.7034 48.0964 53.1834 50.021L53.2146 50.0454L53.241 50.0737C61.1757 58.5307 64.3823 63.6209 68.1492 73.3228L68.1736 73.3872L68.1804 73.4556C68.2855 74.5252 68.2085 75.4205 67.5789 75.9507C67.2704 76.2104 66.8824 76.3336 66.4617 76.3853C66.0423 76.4368 65.55 76.4217 64.9929 76.3696L64.6619 76.3394L64.5623 76.022C63.0817 71.299 60.4692 66.7608 57.6951 63.0317C54.9176 59.2982 52.0033 56.4097 49.9461 54.9702C47.8663 53.515 45.9391 52.5132 43.4461 52.0112C40.9413 51.507 37.8308 51.5004 33.3777 52.0962L32.2332 52.2485L37.1345 45.3892L37.2927 45.1694L37.5632 45.1802ZM34.3806 50.9634C38.3026 50.5059 41.2134 50.5416 43.6433 51.0308C46.3139 51.5685 48.3687 52.6461 50.5193 54.1509C52.6924 55.6714 55.6798 58.6475 58.4968 62.4341C61.2544 66.1408 63.8709 70.6581 65.4099 75.3989C65.7878 75.4237 66.0932 75.4233 66.3396 75.3931C66.6517 75.3547 66.8287 75.2758 66.9353 75.186C67.1317 75.0205 67.2826 74.6419 67.1892 73.6157C63.4881 64.0982 60.3541 59.1201 52.5398 50.7876C50.1526 48.9394 48.1029 47.8688 45.822 47.2183C43.5793 46.5786 41.0898 46.3384 37.7888 46.1919L34.3806 50.9634Z" fill="#F96C3D"/>
<path d="M56.1636 32.1685C62.6874 33.6893 67.7736 35.4691 72.439 39.9839C77.0853 44.4803 81.2724 51.6497 86.1265 63.8472L86.2036 64.0405L86.1206 64.2319C85.8265 64.9062 85.5519 65.514 85.2691 66.0229C84.9874 66.5298 84.6799 66.9729 84.3052 67.2954C83.9183 67.6284 83.467 67.8263 82.9312 67.8491C82.4109 67.8712 81.8479 67.7264 81.2271 67.4478L81.0347 67.3608L80.9624 67.1626C77.0879 56.485 73.4636 49.5562 68.7896 44.9546C64.1335 40.3707 58.3863 38.05 50.1519 36.7017L48.8218 36.4839L55.7896 32.229L55.9634 32.1226L56.1636 32.1685ZM51.6265 35.9419C59.293 37.3416 64.8922 39.7143 69.4917 44.2427C74.3007 48.9774 77.9679 56.0234 81.8257 66.6157C82.2747 66.7975 82.6178 66.8616 82.8882 66.8501C83.1797 66.8377 83.4205 66.7376 83.6529 66.5376C83.8975 66.327 84.1369 66.002 84.3951 65.5376C84.6275 65.1193 84.8582 64.6136 85.1187 64.021C80.3111 51.9766 76.2083 45.0232 71.7437 40.7026C67.3196 36.4214 62.5008 34.6865 56.1333 33.1899L51.6265 35.9419Z" fill="#F96F3F"/>
<path d="M118.604 26.8535L118.785 26.9121L118.88 27.0762C124.091 36.0251 126.621 41.1839 129.503 50.8652L129.533 50.9648L129.521 51.0664C129.432 51.8154 129.33 52.4772 129.176 53.0234C129.024 53.5651 128.806 54.0483 128.45 54.3936C127.679 55.1402 126.552 55.007 125.134 54.4316L124.891 54.333L124.834 54.0762C123.345 47.315 121.529 42.4817 119.035 38.0928C116.536 33.696 113.345 29.7264 109.077 24.6914L107.93 23.3389L118.604 26.8535ZM110.977 25.3936C114.692 29.8173 117.586 33.52 119.904 37.5986C122.425 42.0349 124.256 46.8977 125.751 53.5986C126.985 54.0618 127.486 53.9357 127.754 53.6758C127.926 53.5098 128.081 53.2242 128.213 52.7529C128.338 52.3075 128.43 51.744 128.514 51.0518C125.69 41.5902 123.212 36.5145 118.11 27.7422L110.977 25.3936Z" fill="#FA7344"/>
<path d="M98.3401 21.5039C98.4868 21.5124 98.6236 21.5747 98.7259 21.6748L98.7737 21.7275L100.468 23.8535C108.392 33.8913 112.557 40.6812 116.909 52.7705L117.36 54.041L117.366 54.0576L117.37 54.0752C120.482 65.5505 121.065 72.5241 120.034 85.8262C119.19 98.3445 118.431 105.417 116.328 118.042C116.303 118.193 116.221 118.329 116.101 118.421C112.721 121.009 110.116 122.646 107.637 123.522C105.139 124.405 102.8 124.504 99.9729 124.084C99.6259 124.032 99.4015 123.697 99.4749 123.361L99.9182 121.298C104.351 100.269 104.277 87.7856 103.677 66.0303C101.635 56.2866 99.1788 49.1792 95.47 42.79C91.7546 36.3895 86.7674 30.6815 79.6292 23.7559C79.2781 23.4148 79.4569 22.7612 80.0052 22.7246L98.2659 21.5049L98.3401 21.5039ZM80.9641 23.6621C87.7916 30.3379 92.6659 35.9669 96.3352 42.2881C100.12 48.8078 102.608 56.036 104.664 65.8623L104.677 65.9688L104.785 70.0791C105.283 89.9638 105.054 102.383 100.541 123.153C103.056 123.484 105.117 123.352 107.304 122.579C109.602 121.767 112.071 120.237 115.367 117.721C117.444 105.23 118.198 98.1976 119.037 85.7598V85.7549C120.06 72.5566 119.484 65.6988 116.41 54.3564C111.66 40.8101 107.317 33.9673 98.1223 22.5156L80.9641 23.6621Z" fill="#67412C"/>
<path d="M195.025 75.2335C193.934 79.417 182.86 79.4786 170.291 75.3712C157.721 71.2637 148.416 64.5426 149.507 60.3591C150.597 56.1756 161.671 56.1139 174.241 60.2214C186.81 64.3288 196.116 71.05 195.025 75.2335Z" fill="#F46334"/>
<path d="M167.687 50.0415C178.818 46.6023 188.641 47.054 189.626 51.0505C190.611 55.047 182.386 61.0748 171.255 64.514C160.123 67.9532 150.301 67.5014 149.316 63.505C148.331 59.5085 156.556 53.4807 167.687 50.0415Z" fill="#ED592D"/>
<path d="M171.324 44.9469C182.713 41.4283 192.823 42.138 193.906 46.5319C194.989 50.9258 186.635 57.3401 175.247 60.8586C163.859 64.3772 153.749 63.6675 152.666 59.2736C151.582 54.8797 159.936 48.4654 171.324 44.9469Z" fill="#F46334"/>
<path d="M31.8395 93.3349C27.6054 85.1154 28.5052 83.0035 31.3095 80.1537L51.9808 94.653C58.8525 98.8406 66.8218 97.9483 70.0019 96.6302C73.182 95.3121 78.7407 92.5133 89.6131 83.449C100.381 75.8393 106.832 72.3585 119.825 68.9497C129.776 66.3286 135.829 66.2551 146.857 66.9725C150.131 66.8298 151.793 66.2218 154.277 63.6772C155.896 70.7742 156.468 74.5573 153.217 78.8356C157.41 88.1896 156.994 92.6743 148.977 98.6074C148.736 107.262 145.865 109.396 135.726 108.493C128.807 117.694 124.496 117.268 116.645 114.425L100.214 122.993C92.6392 128.196 89.0478 128.059 83.2527 124.97C73.7899 133.148 69.5879 132.616 63.1114 126.947C53.1621 129.922 50.2492 128.041 48.8006 119.697C41.6787 121.376 38.7432 120.158 37.1399 110.47C29.5463 105.902 29.1983 101.84 31.8395 93.3349Z" fill="#FDE8CB"/>
<path d="M43.757 95.753C46.8862 98.1267 48.5567 101.837 47.4881 104.041C46.4195 106.245 43.0165 106.107 39.8872 103.733C36.7579 101.359 35.0874 97.6486 36.156 95.445C37.2246 93.2413 40.6277 93.3792 43.757 95.753Z" fill="#FFF3E2"/>
<path d="M63.7644 111.042C63.4813 113.205 60.9153 114.48 58.0332 113.89C55.1511 113.299 53.0443 111.068 53.3275 108.905C53.6106 106.742 56.1765 105.467 59.0586 106.057C61.9407 106.648 64.0476 108.88 63.7644 111.042Z" fill="#FFF3E2"/>
<path d="M78.7219 121.183C78.301 123.311 75.5078 124.277 72.4832 123.34C69.4585 122.404 67.3478 119.921 67.7687 117.793C68.1896 115.666 70.9828 114.7 74.0074 115.636C77.0321 116.572 79.1428 119.056 78.7219 121.183Z" fill="#FFF3E2"/>
<path d="M82.4534 102.445C83.3584 104.862 81.948 108.077 79.3031 109.627C76.6583 111.176 73.7806 110.472 72.8756 108.055C71.9707 105.638 73.3811 102.423 76.0259 100.874C78.6707 99.3247 81.5484 100.028 82.4534 102.445Z" fill="#FFF3E2"/>
<path d="M95.3895 107.609C96.7196 109.551 95.8854 113.175 93.5262 115.703C91.167 118.231 88.1762 118.706 86.8461 116.764C85.516 114.823 86.3503 111.199 88.7094 108.671C91.0686 106.143 94.0594 105.668 95.3895 107.609Z" fill="#FFF3E2"/>
<path d="M98.7957 88.0113C99.8202 89.7621 98.6848 92.9809 96.2597 95.2006C93.8346 97.4204 91.0381 97.8005 90.0137 96.0496C88.9892 94.2987 90.1246 91.0799 92.5497 88.8602C94.9748 86.6405 97.7712 86.2604 98.7957 88.0113Z" fill="#FFF3E2"/>
<path d="M134.124 100.481C133.664 102.794 130.763 103.881 127.646 102.91C124.529 101.939 122.375 99.2773 122.836 96.9647C123.296 94.6521 126.196 93.5645 129.314 94.5355C132.431 95.5065 134.585 98.1684 134.124 100.481Z" fill="#FFEEDF"/>
<path d="M137.015 75.4027C138.19 77.4953 137.204 80.8932 134.814 82.9921C132.424 85.0909 129.534 85.096 128.359 83.0034C127.184 80.9108 128.17 77.5129 130.56 75.414C132.95 73.3152 135.84 73.3101 137.015 75.4027Z" fill="#FFF1DF"/>
<path d="M147.071 91.9112C145.596 95.0642 142.982 96.5824 141.232 95.3021C139.482 94.0219 139.258 90.428 140.732 87.275C142.207 84.1219 144.821 82.6038 146.571 83.884C148.321 85.1643 148.545 88.7582 147.071 91.9112Z" fill="#FFEEDF"/>
<path d="M41.2433 64.6584C35.8804 61.9668 32.7406 62.1413 26.9658 67.0264C31.0549 50.7577 37.9068 42.2366 61.3376 28.5464C76.4909 24.1896 85.0631 22.9521 100.469 23.2184C118.577 24.9878 128.396 28.3279 144.888 41.5704L145.224 41.9017C151.809 48.383 155.601 52.1158 158.108 59.9224C158.828 64.5624 157.46 66.2655 152.82 68.2104C141.486 61.7124 134.59 60.87 121.621 62.8824L105.757 65.8424C95.1852 68.7349 88.9817 72.4922 77.2016 84.7864C65.8209 94.2534 62.6547 95.335 59.7513 93.6664L56.0497 81.8264C51.1966 73.2053 47.8526 69.6606 41.2433 64.6584Z" fill="#FF8D5F"/>
<path d="M61.1992 28.0659C75.9217 23.833 84.4733 22.532 99.0478 22.6978L100.477 22.7183L100.497 22.7192L100.518 22.7212C109.592 23.6078 116.627 24.8908 123.47 27.6274C129.885 30.1931 136.106 34.0257 143.67 39.9644L145.201 41.1802L145.221 41.1968L145.238 41.2144L145.575 41.5454C151.951 47.8217 155.79 51.5926 158.341 59.0376L158.584 59.769L158.596 59.8071L158.602 59.8462C158.968 62.2104 158.825 63.9497 157.89 65.354C156.969 66.7363 155.341 67.6954 153.013 68.6714L152.785 68.7671L152.571 68.644C146.935 65.4123 142.436 63.6065 137.754 62.8481C133.068 62.0892 128.162 62.3734 121.697 63.3765L121.696 63.3755L105.874 66.3286C100.629 67.7646 96.4911 69.4089 92.206 72.2075C87.9084 75.0144 83.4429 78.9953 77.5625 85.1323L77.5429 85.1528L77.5214 85.1704C71.8344 89.9012 68.154 92.5767 65.5146 93.8521C64.1882 94.4929 63.091 94.7977 62.1103 94.814C61.1185 94.8304 60.2879 94.5518 59.5019 94.1001L59.332 94.0024L59.2744 93.8159L55.5878 82.0259C53.1821 77.7565 51.1585 74.759 48.9287 72.2144C46.6993 69.6704 44.2498 67.5634 40.9755 65.0835C38.3463 63.7687 36.3445 63.2017 34.331 63.4956C32.2954 63.7928 30.1554 64.983 27.289 67.4077L26.1015 68.4116L26.4804 66.9048C28.5379 58.7191 31.3022 52.4416 36.5224 46.4897C41.7297 40.5527 49.3576 34.9674 61.0859 28.1147L61.1396 28.0835L61.1992 28.0659ZM100.436 23.7173C85.1188 23.454 76.5992 24.6814 61.5351 29.0093C49.8637 35.8321 42.3652 41.3447 37.2744 47.1489C32.502 52.5901 29.8245 58.3126 27.8339 65.6763C30.2016 63.8295 32.1932 62.7974 34.1865 62.5063C36.3707 62.1875 38.4754 62.7688 40.9648 63.9644L41.4677 64.2114L41.5087 64.2319L41.5449 64.2593C44.8625 66.7702 47.3812 68.931 49.6816 71.5562C51.6937 73.8524 53.5288 76.4924 55.5878 80.0151L56.4853 81.5815L56.5117 81.6274L56.5273 81.6772L60.1679 93.3237C60.7769 93.6477 61.3845 93.8257 62.0937 93.814C62.8789 93.8009 63.8294 93.5559 65.08 92.9517C67.5923 91.7377 71.1806 89.1426 76.8642 84.4155C82.7522 78.2724 87.273 74.2352 91.6591 71.3706C96.0597 68.4965 100.305 66.8154 105.625 65.3599L105.644 65.355L105.665 65.3511L121.529 62.3911L121.536 62.3892L121.544 62.3882C128.049 61.3788 133.076 61.0782 137.914 61.8618C142.694 62.636 147.252 64.4633 152.849 67.6519C155.026 66.7209 156.339 65.8792 157.058 64.8003C157.782 63.7126 157.964 62.2896 157.618 60.0347C155.153 52.3856 151.449 48.7304 144.874 42.2583L144.558 41.9458C136.341 35.3496 129.811 31.2406 123.099 28.5562C116.386 25.8715 109.462 24.5999 100.436 23.7173Z" fill="#FF8D5F"/>
<path d="M81.7365 79.7446C72.1044 90.1364 66.8608 93.7685 58.4987 95.1014C58.0053 95.18 57.636 95.6015 57.636 96.1011V97.9659C57.636 98.5103 58.0737 98.9556 58.6181 98.9588C66.0741 99.0025 70.0466 97.6872 76.3808 93.9906L76.7367 93.7527C85.5574 87.8587 90.6247 84.4727 104.766 76.6476C124.734 68.4879 144.933 67.9773 152.431 67.9761C159.929 67.9749 135.829 63.021 135.829 63.021C124.65 61.5172 117.8 62.1726 104.766 65.4986C95.6392 68.8035 90.5851 71.6648 81.7365 79.7446Z" fill="#FA7041"/>
<path d="M46.9615 68.4315C56.0928 79.1123 58.9341 85.955 59.7628 98.1321C59.8189 98.9563 58.901 99.4756 58.2188 99.0098L36.5906 84.2408C24.6321 75.3099 25.4161 72.1306 26.7807 66.5971L26.7836 66.5855C26.8215 66.4317 26.8977 66.2846 27.0026 66.1659C31.9533 60.5629 36.2184 60.742 46.7799 68.2654C46.8458 68.3123 46.9089 68.37 46.9615 68.4315Z" fill="#FFB897"/>
<path d="M37.5416 45.6802L33.3112 51.6002C42.2695 50.4016 46.0024 51.6002 50.2328 54.5602C54.4632 57.5202 62.0353 66.2899 65.0391 75.8722C67.2173 76.0757 67.8936 75.6476 67.6831 73.5042C63.941 63.866 60.771 58.83 52.8768 50.4162C47.9964 46.6288 44.4217 45.9715 37.5416 45.6802Z" fill="#FA7341"/>
<path d="M56.0497 32.6558L50.2329 36.2078C66.8142 38.9229 73.6721 45.6067 81.432 66.9918C83.7601 68.0366 84.4846 66.7318 85.6624 64.0318C75.9669 39.6691 69.0391 35.6838 56.0497 32.6558Z" fill="#FC7848"/>
<path d="M118.448 27.3282L109.458 24.3682C117.997 34.4391 122.328 40.3703 125.322 53.9682C128.151 55.1161 128.672 53.9849 129.024 51.0082C126.156 41.3755 123.645 36.2542 118.448 27.3282Z" fill="#FB7C4A"/>
<path d="M98.299 22.0035L80.0383 23.2237C79.9518 23.2295 79.9152 23.3371 79.9774 23.3974C94.2798 37.2738 100.075 46.3753 104.175 65.965C104.176 65.9709 104.177 65.9771 104.177 65.983C104.798 88.4753 104.859 101.101 99.963 123.468C99.9506 123.524 99.9893 123.581 100.046 123.59C105.582 124.413 109.057 123.185 115.797 118.024C115.817 118.008 115.831 117.985 115.835 117.96C117.935 105.353 118.693 98.2974 119.536 85.7932C120.563 72.5375 119.983 65.6216 116.888 54.2063C112.09 40.5192 107.696 33.6252 98.384 22.0411C98.3636 22.0157 98.3315 22.0013 98.299 22.0035Z" fill="#67412C"/>
</svg>
