<svg width="304" height="306" viewBox="0 0 304 306" fill="none" xmlns="http://www.w3.org/2000/svg">
<path d="M107.517 181.912C107.517 170.204 116.266 161.849 127.58 161.849C138.893 161.849 188.155 161.849 209.213 161.849C249.783 161.849 283.325 129.037 283.325 87.7374C255.232 64.9654 221.58 58.023 127.58 58.023C59.246 58.023 3.85303 113.416 3.85303 181.75C3.85303 250.083 59.246 305.476 127.58 305.476C172.718 305.476 193.933 277.389 207.852 249.701L207.493 248.254C175.463 240.999 107.517 224.491 107.517 181.912Z" fill="#CB4250"/>
<path d="M283.331 90.6266C281.733 90.6266 280.436 89.3296 280.436 87.7316C280.436 86.1335 281.733 84.8366 283.331 84.8366C288.542 84.8366 297.366 81.7389 297.366 70.1299C297.366 50.276 272.474 39.1418 227.283 38.777C153.866 38.1806 136.079 6.04044 135.356 4.674C134.609 3.25545 135.153 1.5069 136.566 0.759992C137.99 0.0130821 139.733 0.551462 140.48 1.97001C140.636 2.25951 157.757 32.4196 227.33 32.987C290.007 33.4907 303.161 53.4663 303.161 70.1299C303.156 84.2112 292.878 90.6266 283.331 90.6266Z" fill="#47104E"/>
<path d="M40.1797 94.1701C62.5638 71.8322 93.4593 58.0115 127.58 58.0115V161.844C121.975 161.844 117.007 163.905 113.412 167.402L113.394 167.408L40.1797 94.1701Z" fill="#E36673"/>
<path d="M3.85889 181.912H107.517C107.517 187.858 108.86 193.289 111.229 198.263L40.1738 269.306H40.168C17.7722 246.945 3.90521 216.05 3.85889 181.912Z" fill="#E36673"/>
<path d="M208.46 248.468C194.552 276.543 173.39 305.47 127.579 305.47V217.387C150.554 235.052 187.656 243.772 208.46 248.468Z" fill="#E36673"/>
<path d="M209.763 247.831C237.364 238.741 259.957 226.014 270.095 236.401C276.939 243.407 253.362 287.805 246.095 285.391C236.64 282.247 222.866 271.5 212.212 253.974C211.239 252.37 210.116 250.552 208.895 248.566L209.763 247.831Z" fill="#E36673"/>
<g opacity="0.15">
<path d="M62.2915 185.716C62.2915 218.788 92.1679 245.596 129.015 245.596C142.275 245.596 152.355 241.444 160.675 234.873C133.358 224.503 107.523 208.169 107.523 181.912C107.523 170.204 116.272 161.849 127.585 161.849C134.742 161.849 157.091 161.849 177.877 161.849C164.155 150.594 144.475 139.772 125.072 139.772C88.2191 139.766 62.2915 152.643 62.2915 185.716Z" fill="#47104E"/>
</g>
<path d="M149.674 233.188C149.286 233.188 148.892 233.107 148.51 232.945C119.798 220.34 104.616 202.692 104.616 181.912C104.616 168.826 114.488 158.954 127.574 158.954H209.207C248.48 158.954 280.43 127.005 280.43 87.7374C280.43 87.1989 280.58 86.672 280.864 86.2146C280.922 86.122 286.642 76.6785 283.406 68.2946C281.333 62.9157 275.919 58.9205 267.338 56.4308C256.303 53.2289 239.211 52.2388 221.117 51.185C184.165 49.0369 142.286 46.611 125.315 25.2633C124.325 24.0126 124.528 22.1887 125.784 21.1929C127.035 20.197 128.853 20.3996 129.855 21.6618C145.216 40.9831 185.717 43.3339 221.458 45.4125C239.888 46.4837 257.299 47.4911 268.96 50.8783C279.399 53.9065 286.086 59.0826 288.837 66.2622C292.519 75.8794 287.754 85.7572 286.231 88.5306C285.808 130.635 251.427 164.756 209.224 164.756H127.591C117.644 164.756 110.424 171.976 110.424 181.923C110.424 204.03 130.509 218.261 148.389 226.547L154.943 214.017C155.678 212.599 157.433 212.043 158.845 212.796C160.264 213.537 160.808 215.285 160.067 216.698L152.251 231.654C151.729 232.615 150.722 233.188 149.674 233.188Z" fill="#47104E"/>
<path d="M246.605 286.577C246.338 286.577 246.06 286.543 245.788 286.462C236.675 283.787 221.627 273.961 209.213 255.074C208.339 253.737 208.709 251.942 210.041 251.062C211.384 250.193 213.179 250.558 214.053 251.89C224.869 268.339 238.603 278.315 247.421 280.903C248.955 281.355 249.835 282.965 249.384 284.499C249.013 285.761 247.861 286.577 246.605 286.577Z" fill="#47104E"/>
<path d="M54.5445 284.516C53.9539 284.516 53.3518 284.337 52.8364 283.955C20.3545 260.163 0.958008 221.955 0.958008 181.738C0.958008 147.878 14.1534 116.05 38.1182 92.1262C39.2415 91.0029 41.0827 90.9972 42.2118 92.132C43.3408 93.261 43.3409 95.0965 42.206 96.2255C19.3413 119.055 6.74801 149.424 6.74801 181.738C6.74801 220.114 25.2587 256.58 56.2584 279.282C57.5495 280.226 57.8274 282.038 56.8836 283.329C56.3162 284.111 55.4361 284.516 54.5445 284.516Z" fill="#47104E"/>
<path d="M127.58 164.739C125.982 164.739 124.685 163.442 124.685 161.844V58.0115C124.685 56.4135 125.982 55.1165 127.58 55.1165C129.178 55.1165 130.475 56.4135 130.475 58.0115V161.844C130.475 163.447 129.183 164.739 127.58 164.739Z" fill="#47104E"/>
<path d="M107.517 184.801H57.5439C55.9459 184.801 54.6489 183.504 54.6489 181.906C54.6489 180.308 55.9459 179.011 57.5439 179.011H107.517C109.115 179.011 110.412 180.308 110.412 181.906C110.412 183.51 109.115 184.801 107.517 184.801Z" fill="#47104E"/>
<path d="M63.8896 248.485C63.1485 248.485 62.4074 248.201 61.84 247.64C60.7109 246.511 60.7109 244.675 61.84 243.546L106.55 198.842L127.284 183.388C128.57 182.433 130.382 182.705 131.337 183.984C132.293 185.27 132.026 187.082 130.741 188.037L110.325 203.213L65.9335 247.64C65.3719 248.201 64.6308 248.485 63.8896 248.485Z" fill="#47104E"/>
<path d="M127.58 260.98C125.982 260.98 124.685 259.683 124.685 258.085V217.387C124.685 216.663 124.957 215.963 125.443 215.436L138.806 200.845C139.889 199.664 141.719 199.589 142.894 200.665C144.075 201.748 144.156 203.578 143.074 204.753L130.475 218.516V258.091C130.475 259.683 129.183 260.98 127.58 260.98Z" fill="#47104E"/>
<path d="M207.661 113.833C213.97 113.833 219.085 108.718 219.085 102.409C219.085 96.1002 213.97 90.9857 207.661 90.9857C201.352 90.9857 196.237 96.1002 196.237 102.409C196.237 108.718 201.352 113.833 207.661 113.833Z" fill="#47104E"/>
<path d="M215.518 99.7516C215.518 102.676 213.15 105.049 210.22 105.049C207.29 105.049 204.922 102.676 204.922 99.7516C204.922 96.8276 207.29 94.4539 210.22 94.4539C213.15 94.4539 215.518 96.8276 215.518 99.7516Z" fill="white"/>
<path d="M208.46 210.271C208.374 210.271 208.287 210.271 208.2 210.259C206.608 210.115 205.432 208.708 205.577 207.116C206.301 199.148 206.301 189.3 205.16 187.331C203.77 185.021 189.828 173.736 177.148 164.16C175.874 163.193 175.619 161.38 176.581 160.107C177.542 158.827 179.354 158.572 180.634 159.539C186.933 164.299 207.685 180.157 210.163 184.425C212.803 188.964 211.732 203.34 211.344 207.642C211.205 209.142 209.943 210.271 208.46 210.271Z" fill="#47104E"/>
<path d="M229.75 207.747C229.658 207.747 229.571 207.741 229.478 207.729C227.886 207.579 226.716 206.166 226.867 204.58C227.498 197.863 227.446 189.363 226.27 187.331C224.881 185.021 210.939 173.736 198.258 164.16C196.985 163.193 196.73 161.38 197.691 160.107C198.658 158.827 200.464 158.572 201.744 159.539C208.044 164.299 228.795 180.157 231.273 184.425C233.983 189.086 232.877 202.484 232.628 205.124C232.489 206.618 231.227 207.747 229.75 207.747Z" fill="#47104E"/>
<path d="M245.366 200.26C245.285 200.26 245.209 200.254 245.128 200.249C243.536 200.121 242.349 198.72 242.477 197.128C242.951 191.315 242.888 183.961 242.042 182.288C240.971 180.308 230.37 170.436 221.175 162.422C219.965 161.375 219.843 159.545 220.891 158.341C221.945 157.131 223.775 157.015 224.973 158.057C229.715 162.179 245.325 175.936 247.213 179.683C249.205 183.643 248.51 194.395 248.249 197.602C248.122 199.114 246.854 200.26 245.366 200.26Z" fill="#47104E"/>
<path d="M262.614 195.912C262.533 195.912 262.457 195.912 262.376 195.906C260.784 195.773 259.597 194.377 259.725 192.785C260.2 186.972 260.136 179.619 259.296 177.945C258.219 175.965 247.624 166.088 238.423 158.08C237.219 157.032 237.091 155.202 238.139 153.998C239.193 152.788 241.023 152.672 242.221 153.714C246.964 157.837 262.573 171.588 264.461 175.34C266.453 179.295 265.758 190.058 265.497 193.26C265.37 194.765 264.102 195.912 262.614 195.912Z" fill="#47104E"/>
</svg>
