<svg width="200" height="200" viewBox="0 0 200 200" fill="none" xmlns="http://www.w3.org/2000/svg">
<ellipse cx="95.8381" cy="106.064" rx="88.8381" ry="63.936" fill="#E8C483"/>
<ellipse cx="95.8381" cy="100.736" rx="88.8381" ry="63.344" fill="#F9DCA6"/>
<ellipse cx="96.3669" cy="96.0002" rx="74.5605" ry="50.32" fill="#E7C280"/>
<ellipse cx="23.9435" cy="7.82814" rx="23.9435" ry="7.82814" transform="matrix(0.950536 0.310615 -0.252295 0.96765 151.482 52.7842)" fill="#F46334"/>
<ellipse cx="7.45289" cy="21.0952" rx="7.45289" ry="21.0952" transform="matrix(-0.239351 -0.970933 0.955437 -0.295196 151.1 70.7412)" fill="#ED592D"/>
<ellipse cx="8.19405" cy="21.5818" rx="8.19405" ry="21.5818" transform="matrix(-0.239351 -0.970933 0.955437 -0.295196 154.627 67.2295)" fill="#F46334"/>
<path d="M31.8396 93.3349C27.6054 85.1154 28.5053 83.0035 31.3096 80.1537L51.9809 94.653C58.8526 98.8406 66.8219 97.9483 70.0019 96.6302C73.182 95.3121 78.7408 92.5133 89.6131 83.449C100.381 75.8393 106.832 72.3585 119.825 68.9497C129.776 66.3286 135.829 66.2551 146.857 66.9725C150.131 66.8298 151.793 66.2218 154.277 63.6772C155.896 70.7742 156.468 74.5573 153.217 78.8356C157.41 88.1896 156.994 92.6743 148.977 98.6074C148.737 107.262 145.865 109.396 135.726 108.493C128.807 117.694 124.496 117.268 116.645 114.425L100.214 122.993C92.6392 128.196 89.0479 128.059 83.2528 124.97C73.79 133.148 69.588 132.616 63.1115 126.947C53.1622 129.922 50.2492 128.041 48.8007 119.697C41.6788 121.376 38.7432 120.158 37.1399 110.47C29.5464 105.902 29.1984 101.84 31.8396 93.3349Z" fill="#FDE8CB" stroke="#FDE8CB"/>
<ellipse cx="4.43446" cy="7.11179" rx="4.43446" ry="7.11179" transform="matrix(0.436329 -0.899787 0.796715 0.604356 34.2212 99.4351)" fill="#FFF3E2"/>
<ellipse cx="5.3268" cy="3.94951" rx="5.3268" ry="3.94951" transform="matrix(0.979667 0.200632 -0.129813 0.991539 53.8401 104.989)" fill="#FFF3E2"/>
<ellipse cx="5.7329" cy="3.92673" rx="5.7329" ry="3.92673" transform="matrix(0.955294 0.295657 -0.194087 0.980984 68.5308 113.941)" fill="#FFF3E2"/>
<ellipse cx="5.54984" cy="4.67307" rx="5.54984" ry="4.67307" transform="matrix(0.862886 -0.505399 0.350652 0.936506 71.2371 103.679)" fill="#FFF3E2"/>
<ellipse cx="6.26101" cy="4.26151" rx="6.26101" ry="4.26151" transform="matrix(0.68227 -0.731101 0.565141 0.824994 84.4377 113.249)" fill="#FFF3E2"/>
<ellipse cx="5.95273" cy="3.67304" rx="5.95273" ry="3.67304" transform="matrix(0.737651 -0.675182 0.50503 0.863102 88.1587 92.8794)" fill="#FFF3E2"/>
<ellipse cx="5.91185" cy="4.26953" rx="5.91185" ry="4.26953" transform="matrix(0.954755 0.297394 -0.195291 0.980745 123.669 92.7773)" fill="#FFEEDF"/>
<ellipse cx="5.75956" cy="4.34518" rx="5.75956" ry="4.34518" transform="matrix(0.751417 -0.659828 0.4895 0.872003 126.232 79.2144)" fill="#FFF1DF"/>
<ellipse cx="3.92641" cy="6.30238" rx="3.92641" ry="6.30238" transform="matrix(0.807117 0.590392 -0.423591 0.905854 143.402 81.5659)" fill="#FFEEDF"/>
<path d="M41.2434 64.6584C35.8805 61.9669 32.7407 62.1413 26.9658 67.0264C31.0549 50.7577 37.9068 42.2366 61.3377 28.5464C76.491 24.1896 85.0632 22.9521 100.469 23.2184C118.577 24.9878 128.396 28.3279 144.888 41.5704L145.224 41.9017C151.809 48.383 155.601 52.1158 158.108 59.9224C158.828 64.5624 157.46 66.2655 152.82 68.2104C141.486 61.7124 134.59 60.87 121.621 62.8824L105.757 65.8424C95.1852 68.7349 88.9818 72.4922 77.2016 84.7864C65.8209 94.2534 62.6547 95.335 59.7513 93.6664L56.0497 81.8264C51.1967 73.2053 47.8527 69.6606 41.2434 64.6584Z" fill="#FF8D5F" stroke="#FF8D5F"/>
<path d="M81.7365 79.7446C72.1044 90.1364 66.8608 93.7685 58.4987 95.1014C58.0053 95.18 57.636 95.6015 57.636 96.1011V97.9659C57.636 98.5103 58.0738 98.9556 58.6181 98.9588C66.0742 99.0025 70.0466 97.6872 76.3808 93.9906L76.7367 93.7527C85.5574 87.8587 90.6247 84.4727 104.766 76.6476C124.734 68.4878 144.933 67.9773 152.431 67.9761C159.814 67.975 136.56 63.1718 135.845 63.0245C135.823 63.0198 135.817 63.0194 135.794 63.0164C124.635 61.5186 117.787 62.176 104.766 65.4986C95.6392 68.8035 90.5851 71.6648 81.7365 79.7446Z" fill="#FA7041" stroke="#FA7041"/>
<path d="M46.9615 68.4314C56.0928 79.1122 58.9341 85.9549 59.7628 98.132C59.8189 98.9562 58.901 99.4755 58.2188 99.0097L36.5906 84.2407C24.6321 75.3098 25.4161 72.1305 26.7807 66.597L26.7836 66.5854C26.8215 66.4316 26.8977 66.2845 27.0026 66.1658C31.9533 60.5628 36.2184 60.7419 46.7799 68.2653C46.8458 68.3122 46.9089 68.3699 46.9615 68.4314Z" fill="#FFB897" stroke="#FFB897"/>
<path d="M37.5417 45.6802L33.3113 51.6002C42.2696 50.4016 46.0024 51.6002 50.2328 54.5602C54.4632 57.5202 62.0353 66.2899 65.0392 75.8722C67.2173 76.0757 67.8937 75.6476 67.6832 73.5042C63.9411 63.866 60.771 58.83 52.8768 50.4162C47.9964 46.6288 44.4217 45.9715 37.5417 45.6802Z" fill="#FA7341" stroke="#F96C3D"/>
<path d="M56.0497 32.6558L50.2329 36.2078C66.8142 38.9229 73.6721 45.6067 81.432 66.9918C83.7602 68.0366 84.4847 66.7317 85.6624 64.0318C75.967 39.6691 69.0391 35.6838 56.0497 32.6558Z" fill="#FC7848" stroke="#F96F3F"/>
<path d="M118.448 27.3282L109.458 24.3682C117.997 34.4391 122.328 40.3703 125.322 53.9682C128.151 55.1161 128.672 53.9849 129.024 51.0082C126.156 41.3755 123.645 36.2542 118.448 27.3282Z" fill="#FB7C4A" stroke="#FA7344"/>
<path d="M98.299 22.0035L80.0383 23.2237C79.9519 23.2295 79.9153 23.3371 79.9775 23.3974C94.2798 37.2738 100.075 46.3753 104.175 65.965C104.176 65.9709 104.177 65.9771 104.177 65.983C104.798 88.4753 104.859 101.101 99.963 123.468C99.9506 123.524 99.9893 123.581 100.046 123.59C105.582 124.413 109.057 123.185 115.797 118.024C115.817 118.008 115.831 117.985 115.835 117.96C117.935 105.353 118.693 98.2974 119.536 85.7932C120.563 72.5375 119.983 65.6216 116.888 54.2063C112.09 40.5192 107.696 33.6252 98.384 22.0411C98.3636 22.0157 98.3316 22.0013 98.299 22.0035Z" fill="#67412C" stroke="#67412C"/>
</svg>
