<svg width="200" height="200" viewBox="0 0 200 200" fill="none" xmlns="http://www.w3.org/2000/svg">
<path d="M142.15 153.786C109.352 167.722 90.1647 167.583 56.8424 153.767C56.1817 153.493 55.4399 153.972 55.4399 154.687V167.235C55.4399 167.703 55.7805 168.113 56.2376 168.214C96.848 177.258 105.826 177.262 142.784 168.227C143.231 168.117 143.561 167.713 143.561 167.252V154.702C143.561 153.983 142.811 153.504 142.15 153.786Z" fill="#F4B13B" stroke="#EDA733"/>
<path d="M185.851 80.1431H13.1505C12.5428 80.1431 12.077 80.6913 12.163 81.2929C16.8695 114.214 22.7237 131.235 55.2856 155.087C55.3855 155.16 55.5036 155.216 55.6233 155.248C93.2799 165.288 114.621 166.101 142.987 155.241C143.058 155.214 143.129 155.177 143.192 155.134C173.377 134.716 181.66 117.483 186.837 81.2933C186.923 80.6921 186.458 80.1431 185.851 80.1431Z" fill="#BC3621" stroke="#BE3621"/>
<ellipse cx="99.5" cy="80.1428" rx="87.5" ry="34.6623" fill="#CE442D"/>
<ellipse cx="99.5" cy="79.5244" rx="83.7766" ry="30.3295" fill="#A92D1B"/>
<ellipse cx="99.5002" cy="86.9522" rx="80.0532" ry="22.9019" fill="#B9591E"/>
<path d="M73.0776 108.802C56.4797 108.047 48.0538 105.292 34.3403 101.188C34.3403 101.188 42.1761 106.555 50.4751 107.997C58.7741 109.439 78.8464 110.361 73.0776 108.802Z" fill="#DB4E32" stroke="#D2452D"/>
<path d="M80.5376 54.1276C80.9127 54.1477 81.2501 54.3862 81.4104 54.7222C88.9135 70.4452 100.725 64.8273 98.9843 58.3711C98.7636 57.5523 99.3617 56.5471 100.218 56.5694C104.92 56.6923 107.245 55.5462 108.986 52.0463C109.335 51.3442 110.325 51.2064 110.779 51.8465C114.909 57.6629 115.585 61.6176 114.165 68.5895C114.14 68.7105 114.091 68.83 114.023 68.9334C109.49 75.8159 105.659 77.7451 98.1254 79.7846C98.0045 79.8173 97.8734 79.8274 97.7487 79.8139C88.0291 78.7615 84.602 77.3076 80.8705 73.772C73.8791 65.5019 72.5651 61.2684 72.47 54.7442C72.4617 54.1751 72.9466 53.7215 73.5214 53.7522L80.5376 54.1276Z" fill="#FE9B41" stroke="#FF9E45"/>
<path d="M76.739 68.7965C76.7634 68.9212 76.807 69.0281 76.8707 69.1147C77.2223 69.5925 77.0672 69.3196 76.739 68.7965C76.4343 67.235 79.154 62.8834 83.3519 60.6753C83.9012 60.3863 84.1258 59.6974 83.7953 59.1762L83.6169 58.8949C83.3899 58.5368 82.956 58.3581 82.5419 58.4633C78.1069 59.5899 76.442 61.3924 75.2972 65.9975C75.2321 66.2594 75.2816 66.5365 75.4295 66.7631C75.7583 67.267 76.3626 68.1964 76.739 68.7965Z" fill="#F97E25"/>
<path d="M88.5881 77.9417C89.193 78.4317 87.4582 77.6867 86.6699 77.3371C86.4337 77.2323 86.2489 77.0385 86.1553 76.7997C84.3964 72.3111 83.876 69.4927 87.4232 63.9964C87.7066 63.5573 88.2949 63.4269 88.7467 63.6947C89.3078 64.0273 89.3931 64.8009 89.018 65.331C85.9692 69.6394 87.8719 77.3614 88.5881 77.9417Z" fill="#F97E25"/>
<path d="M102.923 78.1853C103.348 77.9263 103.897 77.6447 104.232 77.6749C104.41 77.7819 104.489 77.8135 104.44 77.7636C104.388 77.7102 104.317 77.6825 104.232 77.6749C102.942 76.9004 96.4663 72.1782 95.771 65.8313C95.7021 65.2024 95.1202 64.7207 94.4929 64.845L94.456 64.8523C93.9412 64.9543 93.5906 65.4337 93.6677 65.9473C94.5579 71.8793 96.7652 74.5781 101.714 78.1642C102.068 78.4207 102.55 78.413 102.923 78.1853Z" fill="#F97E25"/>
<path d="M114.659 65.2566C114.857 64.3827 114.481 66.2418 114.264 67.3099C114.181 67.7201 113.845 68.0349 113.426 68.0907C108.14 68.7949 104.729 68.2467 98.3894 63.4566C98.0192 63.1769 97.8984 62.6798 98.0935 62.2614L98.1854 62.0643C98.5111 61.3659 99.4993 61.2732 100.047 61.8186C104.97 66.7191 114.409 66.362 114.659 65.2566Z" fill="#F97E25"/>
<path d="M76.8707 69.1147C76.0092 67.944 78.8186 63.0598 83.3519 60.6753C83.9012 60.3863 84.1258 59.6974 83.7953 59.1762L83.6169 58.8949C83.3899 58.5368 82.956 58.3581 82.5419 58.4633C78.1069 59.5899 76.442 61.3924 75.2972 65.9975C75.2321 66.2594 75.2816 66.5365 75.4295 66.7631C76.045 67.7064 77.6255 70.1404 76.8707 69.1147ZM88.5881 77.9417C89.193 78.4317 87.4582 77.6867 86.6699 77.3371C86.4337 77.2323 86.2489 77.0385 86.1553 76.7997C84.3964 72.3111 83.876 69.4927 87.4232 63.9964C87.7066 63.5573 88.2949 63.4269 88.7467 63.6947V63.6947C89.3078 64.0273 89.3931 64.8009 89.018 65.331C85.9692 69.6394 87.8719 77.3614 88.5881 77.9417ZM104.44 77.7636C104.183 77.5003 103.456 77.8605 102.923 78.1853C102.55 78.413 102.068 78.4207 101.714 78.1642C96.7652 74.5781 94.5579 71.8793 93.6677 65.9473C93.5906 65.4337 93.9412 64.9543 94.456 64.8523L94.4929 64.845C95.1202 64.7207 95.7021 65.2024 95.771 65.8313C96.5624 73.0556 104.843 78.175 104.44 77.7636ZM114.659 65.2566C114.857 64.3827 114.481 66.2418 114.264 67.3099C114.181 67.7201 113.845 68.0349 113.426 68.0907C108.14 68.7949 104.729 68.2467 98.3894 63.4566C98.0192 63.1769 97.8984 62.6798 98.0935 62.2614L98.1854 62.0643C98.5111 61.3659 99.4993 61.2732 100.047 61.8186C104.97 66.7191 114.409 66.362 114.659 65.2566Z" stroke="#F67B23"/>
<path d="M109.621 51.4304C107.884 56.3984 105.685 57.9921 98.8348 56.8139C98.5241 56.7605 98.2546 56.5616 98.1203 56.2794C95.9693 51.7596 97.1904 50.1522 101.368 48.3092C101.468 48.2653 101.578 48.2372 101.687 48.2281C105.64 47.8968 107.36 48.5249 109.381 50.4353C109.651 50.6909 109.743 51.0808 109.621 51.4304Z" fill="#FEB465" stroke="#FFA046"/>
<path d="M80.4991 54.0044L73.2069 53.9497C72.7117 53.946 72.2928 53.585 72.2198 53.1007C70.8233 43.8331 69.9994 38.2598 73.2443 35.373C73.512 35.1348 73.9063 35.0874 74.2 35.2932C76.5829 36.9628 77.9719 42.5363 77.7074 41.0655C77.4989 39.9063 80.3132 37.0656 81.6925 36.072C82.1255 35.7601 82.8299 35.9852 83.2974 36.2435C85.5699 37.4989 85.3247 40.2481 85.0869 44.6035C84.6476 49.2203 83.4403 50.9304 81.2966 53.6251C81.1046 53.8665 80.8096 54.0068 80.4991 54.0044Z" fill="#F57523" stroke="#FB7F49"/>
<path d="M75.1611 53.9729L72.2361 54.3693C72.2361 54.3693 72.0633 49.4566 71.1094 43.5827C70.1555 37.7088 73.5931 34.435 74.3681 35.6105L75.1611 53.9729Z" fill="#E9682F"/>
<path d="M79.4917 53.8617L76.9297 53.8918C77.0538 49.1032 76.6851 46.4736 77.4365 41.4571C78.188 36.4405 82.3626 34.8827 82.5186 36.3294L79.4917 53.8617Z" fill="#E9682F"/>
<path d="M75.1611 53.9729L72.2361 54.3693C72.2361 54.3693 72.0633 49.4566 71.1094 43.5827C70.1555 37.7088 73.5931 34.435 74.3681 35.6105L75.1611 53.9729Z" stroke="#E9682F"/>
<path d="M79.4917 53.8617L76.9297 53.8918C77.0538 49.1032 76.6851 46.4736 77.4365 41.4571C78.188 36.4405 82.3626 34.8827 82.5186 36.3294L79.4917 53.8617Z" stroke="#E9682F"/>
<path d="M39.9585 99.5696C52.7855 105.092 57.4012 107.152 73.3903 105.144C89.3794 103.135 93.4233 101.073 103.188 102.733M107.33 93.0987C119.896 92.7448 134.287 97.6312 146.097 93.0987M156.97 81.4938C149.916 80.4844 134.877 73.8613 128.336 76.673C122.013 79.3909 107.32 82.9115 97.401 83.9048C96.7357 83.9714 96.0681 83.895 95.4359 83.6775C83.225 79.4767 64.7976 69.2227 52.9022 71.08M156.97 76.6735L156.243 76.2719M86.4723 89.5832L73.3903 87.9764M123.287 101.93C127.031 101.766 129.291 101.822 134.189 102.733" stroke="#FFB431" stroke-width="5" stroke-linecap="round" stroke-linejoin="round"/>
<path d="M153.29 51.3876C150.026 51.1843 148.353 51.8139 145.708 53.8515C145.649 53.8968 145.658 53.989 145.725 54.021L161.494 61.5664C161.558 61.5973 161.633 61.5511 161.636 61.4797C161.783 57.7976 160.821 55.7965 157.554 52.9839C157.516 52.9516 157.507 52.8952 157.533 52.8532C160.232 48.4848 160.584 45.906 159.565 41.1799C159.561 41.1612 159.551 41.1433 159.538 41.1298C158.547 40.1433 157.88 40.0685 156.492 41.1202C156.467 41.1391 156.452 41.1699 156.452 41.2013C156.479 45.4523 155.992 47.7393 153.378 51.346C153.358 51.3737 153.324 51.3898 153.29 51.3876Z" fill="#606329" stroke="#606329"/>
<path d="M161.551 61.3154C156.161 58.7476 152.481 56.9844 145.645 53.7043C145.606 53.6857 145.559 53.6936 145.529 53.7243C141.784 57.5779 139.625 62.219 135.849 70.3404L135.746 70.5619C135.743 70.5668 135.74 70.5717 135.737 70.5762C132.037 76.011 128.884 78.5128 123.046 82.6812C122.967 82.7372 123.007 82.8621 123.103 82.8641C133.89 83.0892 138.973 83.101 145.544 82.859C145.567 82.8582 145.589 82.8495 145.606 82.8349C154.055 75.6274 158.468 71.394 161.603 61.437C161.618 61.3895 161.595 61.3369 161.551 61.3154Z" fill="#DC3C1B" stroke="#E74821"/>
<path d="M147.65 73.6414C143.384 77.9273 139.98 80.3224 134.163 82.6623C134.06 82.7035 134.084 82.8577 134.194 82.8577H147.65C148.167 82.8577 160.104 71.1169 161.618 61.4273C161.625 61.3829 161.601 61.3403 161.56 61.3219L156.043 58.8417C155.986 58.8163 155.92 58.8489 155.904 58.909C154.503 64.3105 152.168 67.6492 147.65 73.6414Z" fill="#D0331E" stroke="#D0331E"/>
<path d="M166.547 66.2336L141.466 81.6465C140.926 81.9788 140.825 82.7228 141.273 83.1673C148.291 90.1284 155.501 91.1307 162.945 88.6974C170.501 86.2273 174.633 76.7015 167.874 66.5125C167.585 66.0759 166.996 65.9576 166.547 66.2336Z" fill="#727C2C" stroke="#7B8B31"/>
<path d="M164.102 67.8597L143.922 80.1502C143.377 80.4819 143.276 81.2307 143.732 81.672C149.442 87.203 155.296 87.9969 161.332 86.0488C167.486 84.0629 170.85 76.3904 165.419 68.1373C165.133 67.7021 164.549 67.5871 164.102 67.8597Z" fill="#F6E27A" stroke="#F7E78B"/>
<path d="M146.476 83.0126C148.564 84.5246 151.261 85.7635 152.409 85.7408C152.783 85.7335 152.915 85.3442 152.91 84.9721C152.882 82.915 152.76 75.9688 152.417 76.4027C152.154 76.7354 148.922 78.787 146.716 80.1677C145.652 80.8333 145.465 82.2803 146.476 83.0126Z" fill="#E0CA43"/>
<path d="M154.407 79.5453L154.45 83.7919C154.459 84.7147 155.1 85.5274 156.018 85.6449C158.59 85.9742 160.287 85.4023 162.168 83.6463C163.042 82.8311 162.842 81.4358 161.856 80.7707L157.538 77.8594C156.201 76.9576 154.391 77.9322 154.407 79.5453Z" fill="#E0CA43"/>
<path d="M164.624 71.406C165.737 74.0246 166.035 75.9797 165.668 78.2834C165.465 79.5599 164.006 80.1314 162.886 79.488L157.642 76.4761C156.312 75.7122 156.314 73.7968 157.645 73.0219L161.882 70.5563C162.882 69.9745 164.175 70.3477 164.624 71.406Z" fill="#E0CA43"/>
<path d="M146.476 83.0126C148.564 84.5246 151.261 85.7635 152.409 85.7408C152.783 85.7335 152.915 85.3442 152.91 84.9721C152.882 82.915 152.76 75.9688 152.417 76.4027C152.154 76.7354 148.922 78.787 146.716 80.1677C145.652 80.8333 145.465 82.2803 146.476 83.0126Z" stroke="#E3D010"/>
<path d="M154.407 79.5453L154.45 83.7919C154.459 84.7147 155.1 85.5274 156.018 85.6449C158.59 85.9742 160.287 85.4023 162.168 83.6463C163.042 82.8311 162.842 81.4358 161.856 80.7707L157.538 77.8594C156.201 76.9576 154.391 77.9322 154.407 79.5453Z" stroke="#E3D010"/>
<path d="M164.624 71.406C165.737 74.0246 166.035 75.9797 165.668 78.2834C165.465 79.5599 164.006 80.1314 162.886 79.488L157.642 76.4761C156.312 75.7122 156.314 73.7968 157.645 73.0219L161.882 70.5563C162.882 69.9745 164.175 70.3477 164.624 71.406Z" stroke="#E3D010"/>
<ellipse cx="1.00275" cy="0.716848" rx="1.00275" ry="0.716848" transform="matrix(0.287654 -0.957734 0.959465 0.281827 148.661 83.0923)" fill="black" fill-opacity="0.25"/>
<ellipse cx="0.802197" cy="1.19475" rx="0.802197" ry="1.19475" transform="matrix(0.287654 -0.957734 0.959465 0.281827 157.607 83.2114)" fill="black" fill-opacity="0.25"/>
<ellipse cx="0.802197" cy="0.955798" rx="0.802197" ry="0.955798" transform="matrix(0.287654 -0.957734 0.959465 0.281827 161.861 77.3545)" fill="black" fill-opacity="0.25"/>
<ellipse cx="0.802197" cy="0.955798" rx="0.802197" ry="0.955798" transform="matrix(0.287654 -0.957734 0.959465 0.281827 161.867 74.0122)" fill="black" fill-opacity="0.25"/>
<path d="M88.5522 74.3876L65.4562 52.5125C64.9815 52.0629 64.2085 52.1841 63.9107 52.7662C58.9388 62.4834 60.0605 70.4934 64.7296 77.6512C69.4768 84.9288 80.368 86.2664 88.6558 75.7032C88.9674 75.3061 88.9187 74.7348 88.5522 74.3876Z" fill="#FFC91B" stroke="#FFCE25"/>
<path d="M86.1856 72.3046L67.6933 54.6477C67.2182 54.194 66.4402 54.3162 66.1474 54.9044C62.2312 62.7726 63.1613 69.273 66.9236 75.0875C70.7664 81.0264 79.5596 82.1405 86.2879 73.6108C86.5986 73.2168 86.5485 72.6511 86.1856 72.3046Z" fill="#FFF083" stroke="#FFF083"/>
<path d="M65.6211 58.1955C64.6859 60.9346 64.218 64.2899 64.5957 65.5078C64.7121 65.8832 65.1414 65.902 65.5143 65.7779C67.5814 65.0901 74.5545 62.7399 74.015 62.5135C73.5985 62.3387 70.5314 59.5167 68.4841 57.6086C67.5379 56.7267 66.039 56.9714 65.6211 58.1955Z" fill="#FFCC24"/>
<path d="M71.6393 65.5687L67.0465 67.0774C66.1821 67.3614 65.6033 68.1969 65.7275 69.0983C66.1395 72.0889 67.2269 73.7572 69.6463 75.2403C70.6873 75.8784 72.0101 75.2736 72.361 74.1041L74.1791 68.0435C74.6436 66.4953 73.1749 65.0642 71.6393 65.5687Z" fill="#FFCC24"/>
<path d="M82.8862 73.7236C80.4244 75.9197 78.4695 76.9053 75.8832 77.2424C74.6104 77.4083 73.6528 76.1939 73.9368 74.9421L75.5358 67.8947C75.8835 66.3621 77.7817 65.8109 78.8962 66.9189L82.9213 70.9205C83.7083 71.7029 83.7143 72.9848 82.8862 73.7236Z" fill="#FFCC24"/>
<path d="M65.6211 58.1955C64.6859 60.9346 64.218 64.2899 64.5957 65.5078C64.7121 65.8832 65.1414 65.902 65.5143 65.7779C67.5814 65.0901 74.5545 62.7399 74.015 62.5135C73.5985 62.3387 70.5314 59.5167 68.4841 57.6086C67.5379 56.7267 66.039 56.9714 65.6211 58.1955Z" stroke="#FFD735"/>
<path d="M71.6393 65.5687L67.0465 67.0774C66.1821 67.3614 65.6033 68.1969 65.7275 69.0983C66.1395 72.0889 67.2269 73.7572 69.6463 75.2403C70.6873 75.8784 72.0101 75.2736 72.361 74.1041L74.1791 68.0435C74.6436 66.4953 73.1749 65.0642 71.6393 65.5687Z" stroke="#FFD735"/>
<path d="M82.8862 73.7236C80.4244 75.9197 78.4695 76.9053 75.8832 77.2424C74.6104 77.4083 73.6528 76.1939 73.9368 74.9421L75.5358 67.8947C75.8835 66.3621 77.7817 65.8109 78.8962 66.9189L82.9213 70.9205C83.7083 71.7029 83.7143 72.9848 82.8862 73.7236Z" stroke="#FFD735"/>
<ellipse cx="67.2064" cy="61.451" rx="1.0545" ry="0.796736" fill="#FFC115"/>
<ellipse cx="69.5262" cy="71.5427" rx="0.843599" ry="1.32789" fill="#FFC115"/>
<ellipse cx="76.6969" cy="73.9329" rx="0.843599" ry="1.06232" fill="#FFC115"/>
<ellipse cx="80.0711" cy="72.8704" rx="0.843599" ry="1.06232" fill="#FFC115"/>
<ellipse cx="16.7583" cy="23.0866" rx="16.7583" ry="23.0866" transform="matrix(0.636982 -0.770879 0.764843 0.644217 21.3196 85.8726)" fill="#FFEFD0"/>
<path d="M70.6309 98.4737C64.3085 108.194 51.6609 107.161 41.1752 98.1589C30.6896 89.1567 26.2189 79.3307 31.0408 71.9165C35.8627 64.5023 44.8553 66.7504 58.6699 71.9166C72.9958 79.1482 77.4119 88.0483 70.6309 98.4737Z" fill="#FFF9EC"/>
<ellipse cx="14.1565" cy="11.2606" rx="14.1565" ry="11.2606" transform="matrix(0.836034 0.548678 -0.54134 0.840804 49.8835 71.3994)" fill="#FCBF48"/>
<ellipse cx="123.412" cy="84.2252" rx="6.82624" ry="4.95176" fill="#6C7C3A"/>
<ellipse cx="147.228" cy="98.5616" rx="6.82624" ry="4.95176" fill="#6C7C3A"/>
<path d="M75.5893 109.415C58.9914 108.661 50.5655 105.906 36.8521 101.802C36.8521 101.802 44.6878 107.169 52.9868 108.611C61.2858 110.053 81.3581 110.974 75.5893 109.415Z" fill="#DB4E32" stroke="#D2452D"/>
<ellipse cx="115.957" cy="98.3494" rx="10.9565" ry="9.34943" fill="#ED7323"/>
<path d="M118.338 107.466H115.069C114.968 107.466 114.932 107.332 115.018 107.279C119.262 104.657 121.492 102.713 121.497 99.166C121.497 99.1589 121.496 99.1515 121.495 99.1445C120.719 95.5812 118.568 93.7956 115.758 94.4805C114.212 94.8572 113.004 95.5019 113.149 97.0796C113.306 98.7904 115.011 99.3751 116.755 98.6551C116.784 98.6431 116.817 98.6447 116.844 98.6611C117.331 98.9627 117.652 99.571 117.334 100.676C117.327 100.701 117.309 100.724 117.286 100.736C112.741 103.225 111.145 99.371 111.065 99.1681C111.062 99.1616 111.062 99.1593 111.061 99.1524C111.03 98.9339 110.378 94.0036 114.193 92.4049C118.094 90.7699 123.414 94.3704 123.584 98.1163C123.754 101.854 122.169 105.07 118.391 107.45C118.375 107.46 118.356 107.466 118.338 107.466Z" fill="#DD5415" stroke="#DA4F15" stroke-width="0.1" stroke-linecap="round" stroke-linejoin="round"/>
</svg>
