<svg width="200" height="200" viewBox="0 0 200 200" fill="none" xmlns="http://www.w3.org/2000/svg">
<path d="M142.149 153.786C109.351 167.723 90.1644 167.583 56.842 153.767C56.1814 153.494 55.4396 153.972 55.4396 154.687V167.235C55.4396 167.704 55.7802 168.113 56.2373 168.215C96.8477 177.258 105.825 177.262 142.784 168.227C143.231 168.117 143.56 167.713 143.56 167.252V154.703C143.56 153.984 142.811 153.505 142.149 153.786Z" fill="#F4B13B"/>
<path d="M54.9396 167.235V154.687C54.9397 153.603 56.0557 152.9 57.0334 153.305C73.6663 160.202 86.7242 163.665 99.6926 163.684C112.66 163.704 125.586 160.281 141.953 153.326C142.933 152.91 144.06 153.612 144.06 154.703V167.253C144.06 167.952 143.565 168.551 142.903 168.713C124.422 173.231 112.886 175.502 100.88 175.5C88.8781 175.498 76.4317 173.224 56.1291 168.703C55.4525 168.552 54.9396 167.947 54.9396 167.235ZM55.9396 167.235C55.9396 167.46 56.1083 167.673 56.3459 167.726C76.6533 172.249 89.0011 174.498 100.88 174.5C112.755 174.502 124.188 172.258 142.665 167.741C142.897 167.684 143.06 167.474 143.06 167.253V154.703C143.06 154.355 142.689 154.1 142.345 154.246C125.915 161.227 112.848 164.704 99.6916 164.684C86.5366 164.665 73.3398 161.149 56.6506 154.229C56.3072 154.087 55.9397 154.342 55.9396 154.687V167.235Z" fill="#EDA733"/>
<path d="M185.85 80.1432H13.1502C12.5425 80.1432 12.0767 80.6915 12.1627 81.2931C16.8692 114.214 22.7234 131.235 55.2853 155.087C55.3852 155.16 55.5033 155.217 55.623 155.249C93.2796 165.288 114.62 166.102 142.987 155.241C143.058 155.214 143.128 155.177 143.191 155.134C173.377 134.716 181.66 117.483 186.837 81.2934C186.923 80.6922 186.458 80.1432 185.85 80.1432Z" fill="#BC3621"/>
<path d="M185.85 79.6432C186.769 79.6433 187.46 80.4688 187.332 81.3639C184.74 99.478 181.365 112.909 174.827 124.376C168.285 135.85 158.601 145.315 143.471 155.549C143.377 155.612 143.273 155.667 143.166 155.708C128.934 161.156 116.445 163.684 102.785 163.583C89.1344 163.481 74.3372 160.756 55.4938 155.732C55.3138 155.684 55.1396 155.6 54.9899 155.49C38.6758 143.54 29.0088 133.269 22.8385 121.828C16.6718 110.393 14.0221 97.8325 11.6677 81.3639C11.5395 80.4678 12.2315 79.6433 13.1501 79.6432H185.85ZM13.1501 80.6432C12.8534 80.6433 12.614 80.9154 12.6579 81.2223C15.0099 97.6743 17.6411 110.084 23.7184 121.353C29.7923 132.616 39.3331 142.782 55.5807 154.683C55.6308 154.72 55.6924 154.749 55.7516 154.765C74.5648 159.781 89.2669 162.482 102.793 162.583C116.308 162.683 128.673 160.186 142.808 154.774C142.843 154.761 142.88 154.742 142.912 154.72C157.968 144.536 167.518 135.175 173.958 123.881C180.402 112.579 183.756 99.2981 186.342 81.2223C186.386 80.9154 186.146 80.6433 185.85 80.6432H13.1501Z" fill="#BE3621"/>
<path d="M187 80.1429C187 99.2863 147.825 114.805 99.4997 114.805C51.1748 114.805 11.9997 99.2863 11.9997 80.1429C11.9997 60.9994 51.1748 45.4805 99.4997 45.4805C147.825 45.4805 187 60.9994 187 80.1429Z" fill="#CE442D"/>
<path d="M183.276 79.5243C183.276 96.2749 145.768 109.854 99.4997 109.854C53.2311 109.854 15.7231 96.2749 15.7231 79.5243C15.7231 62.7738 53.2311 49.1948 99.4997 49.1948C145.768 49.1948 183.276 62.7738 183.276 79.5243Z" fill="#A92D1B"/>
<path d="M179.553 86.9521C179.553 99.6005 143.712 109.854 99.4997 109.854C55.2875 109.854 19.4467 99.6005 19.4467 86.9521C19.4467 74.3038 55.2877 64.0502 99.4999 64.0502C143.712 64.0502 179.553 74.3038 179.553 86.9521Z" fill="#B9591E"/>
<path d="M73.0773 108.802C56.4794 108.047 48.0535 105.292 34.34 101.188C34.34 101.188 42.1757 106.555 50.4748 107.997C58.7738 109.439 78.846 110.361 73.0773 108.802Z" fill="#DB4E32"/>
<path d="M34.4836 100.709C48.1949 104.812 56.569 107.55 73.0998 108.302L73.1545 108.305L73.2082 108.319C73.5762 108.419 73.8695 108.515 74.0773 108.612C74.1782 108.659 74.2892 108.72 74.381 108.802C74.4601 108.872 74.6292 109.052 74.5998 109.327C74.5709 109.596 74.3742 109.736 74.2892 109.787C74.1879 109.848 74.0738 109.886 73.9748 109.913C73.7706 109.968 73.5006 110.006 73.1926 110.034C71.9555 110.148 69.6972 110.132 67.0314 110.024C61.6879 109.808 54.5697 109.217 50.3888 108.49C46.1702 107.757 42.0861 106.031 39.0685 104.498C37.5571 103.73 36.3068 103.007 35.4338 102.476C34.9976 102.211 34.6552 101.994 34.4211 101.842C34.304 101.766 34.2136 101.706 34.1525 101.665C34.1219 101.645 34.0981 101.629 34.0822 101.618C34.0744 101.613 34.0688 101.608 34.0646 101.605C34.0627 101.604 34.0609 101.603 34.0597 101.602L34.0578 101.601L34.4836 100.709ZM38.0275 102.815C38.4892 103.068 38.9883 103.335 39.5217 103.606C42.4967 105.117 46.4805 106.796 50.5607 107.505C54.6789 108.22 61.7465 108.81 67.0715 109.025C67.929 109.06 68.7381 109.083 69.4797 109.098C56.6007 108.225 48.6713 106.002 38.0275 102.815Z" fill="#D2452D"/>
<path d="M80.5373 54.1277C80.9124 54.1477 81.2498 54.3863 81.4101 54.7223C88.9132 70.4452 100.724 64.8274 98.984 58.3712C98.7633 57.5524 99.3614 56.5471 100.218 56.5695C104.919 56.6924 107.245 55.5463 108.985 52.0463C109.335 51.3443 110.324 51.2064 110.779 51.8466C114.909 57.6629 115.585 61.6177 114.165 68.5896C114.14 68.7106 114.091 68.8301 114.023 68.9335C109.49 75.8159 105.659 77.7451 98.1251 79.7847C98.0042 79.8174 97.873 79.8275 97.7484 79.814C88.0287 78.7616 84.6017 77.3076 80.8702 73.7721C73.8788 65.502 72.5648 61.2684 72.4697 54.7443C72.4614 54.1751 72.9463 53.7216 73.521 53.7523L80.5373 54.1277Z" fill="#FE9B41"/>
<path d="M107.474 76.5908C110.016 74.9442 112.153 72.6831 114.444 69.2046C114.547 69.0486 114.621 68.8705 114.658 68.6881C115.374 65.1722 115.572 62.3673 115.047 59.6896C114.521 57.0094 113.278 54.5011 111.19 51.5605C110.483 50.5648 109.026 50.8383 108.534 51.8269C107.695 53.5146 106.743 54.5794 105.482 55.2245C104.205 55.8768 102.548 56.1336 100.231 56.0731C99.584 56.0562 99.0722 56.4293 98.7743 56.8857C98.4782 57.3395 98.3472 57.9383 98.4981 58.4988C99.2703 61.3633 97.0544 64.1387 93.6296 64.3683C90.2462 64.595 85.5699 62.2743 81.8647 54.5098C81.6309 54.0202 81.1363 53.6621 80.5643 53.6315L73.5484 53.2556C72.6879 53.2095 71.9546 53.8894 71.967 54.7513C72.0151 58.0493 72.3724 60.8071 73.6195 63.7932C74.8621 66.7686 76.9755 69.9395 80.485 74.0909L80.5025 74.112L80.5222 74.131C82.4259 75.9348 84.2722 77.2246 86.8875 78.1901C89.4855 79.1492 92.8226 79.7813 97.6936 80.3087C97.8805 80.3289 98.0752 80.3133 98.2577 80.2639C102.036 79.2409 104.94 78.2326 107.474 76.5908ZM113.601 68.6623C111.36 72.0661 109.314 74.2107 106.924 75.7592C104.526 77.3125 101.748 78.2885 97.9925 79.3051C97.9331 79.3212 97.8654 79.3268 97.8031 79.3201C92.9544 78.7951 89.7175 78.173 87.2393 77.2582C84.7864 76.3526 83.0564 75.1524 81.2352 73.4296C77.7656 69.3228 75.732 66.2481 74.5483 63.4137C73.3667 60.5844 73.0194 57.9632 72.9723 54.7371C72.9683 54.4608 73.2049 54.233 73.4938 54.2484L80.5096 54.6243C80.6878 54.6339 80.8688 54.7521 80.9558 54.9344C84.7536 62.8927 89.7344 65.6254 93.6972 65.3599C97.6186 65.0971 100.438 61.8342 99.4698 58.2425C99.4005 57.9847 99.4577 57.672 99.6192 57.4245C99.7793 57.1792 99.9952 57.0616 100.205 57.067C102.589 57.1294 104.446 56.8728 105.942 56.1078C107.454 55.3355 108.536 54.0776 109.437 52.2655C109.644 51.8505 110.166 51.8483 110.368 52.1326C112.409 55.0081 113.57 57.3855 114.06 59.8794C114.55 62.3761 114.376 65.0354 113.672 68.4913C113.66 68.5505 113.635 68.6116 113.601 68.6623Z" fill="#FF9E45"/>
<path d="M76.7387 68.7966C76.763 68.9213 76.8067 69.0283 76.8704 69.1149C77.222 69.5926 77.0669 69.3198 76.7387 68.7966C76.434 67.2352 79.1537 62.8835 83.3516 60.6754C83.9009 60.3865 84.1254 59.6976 83.795 59.1764L83.6166 58.895C83.3896 58.5369 82.9557 58.3582 82.5416 58.4634C78.1066 59.59 76.4416 61.3925 75.2969 65.9977C75.2318 66.2596 75.2813 66.5367 75.4291 66.7632C75.758 67.2671 76.3622 68.1965 76.7387 68.7966Z" fill="#F97E25"/>
<path d="M88.5878 77.9418C89.1926 78.4319 87.4579 77.6868 86.6696 77.3372C86.4334 77.2325 86.2486 77.0386 86.155 76.7999C84.3961 72.3113 83.8756 69.4928 87.4229 63.9966C87.7063 63.5574 88.2946 63.427 88.7464 63.6948C89.3075 64.0274 89.3928 64.801 89.0177 65.3311C85.9689 69.6395 87.8716 77.3615 88.5878 77.9418Z" fill="#F97E25"/>
<path d="M102.923 78.1854C103.348 77.9264 103.896 77.6449 104.232 77.675C104.41 77.7821 104.489 77.8137 104.44 77.7637C104.388 77.7104 104.317 77.6826 104.232 77.675C102.942 76.9006 96.4659 72.1783 95.7707 65.8315C95.7018 65.2025 95.1199 64.7208 94.4926 64.8451L94.4557 64.8524C93.9408 64.9544 93.5903 65.4339 93.6674 65.9474C94.5576 71.8795 96.7649 74.5782 101.714 78.1643C102.068 78.4209 102.549 78.4132 102.923 78.1854Z" fill="#F97E25"/>
<path d="M114.659 65.2567C114.856 64.3829 114.481 66.2419 114.264 67.31C114.18 67.7203 113.845 68.035 113.425 68.0909C108.14 68.7951 104.729 68.2469 98.3891 63.4567C98.0189 63.1771 97.8981 62.6799 98.0932 62.2615L98.1851 62.0644C98.5108 61.3661 99.499 61.2733 100.047 61.8188C104.97 66.7192 114.408 66.3622 114.659 65.2567Z" fill="#F97E25"/>
<path d="M77.3869 69.7483C77.5084 69.6507 77.5492 69.5273 77.5632 69.4595C77.577 69.3918 77.5735 69.3364 77.5707 69.309C77.5651 69.2539 77.551 69.2117 77.5459 69.1967C77.534 69.1609 77.5202 69.1303 77.5132 69.116C77.4689 69.0247 77.3552 68.8401 77.2229 68.6279C77.1999 68.3725 77.2748 67.9474 77.5172 67.3696C77.776 66.7526 78.1963 66.0285 78.7607 65.2743C79.8903 63.7646 81.5651 62.1782 83.5873 61.1145C84.366 60.7049 84.7227 59.7037 84.2208 58.912L84.0429 58.6309C83.7035 58.0955 83.0493 57.821 82.4164 57.9818C80.1552 58.5562 78.5254 59.3208 77.3192 60.5848C76.1175 61.8442 75.3887 63.545 74.8086 65.8785C74.7097 66.2765 74.7854 66.6944 75.0063 67.0329C75.3235 67.519 75.8949 68.3962 76.2704 68.9925C76.3094 69.1378 76.3702 69.2797 76.4641 69.4074C76.5496 69.5236 76.6189 69.6153 76.6667 69.669C76.6778 69.6814 76.7021 69.7083 76.7333 69.735C76.7454 69.7452 76.7857 69.7786 76.8445 69.8073C76.8734 69.8214 76.9357 69.849 77.0207 69.8571C77.1143 69.8658 77.258 69.8518 77.3869 69.7483ZM75.8515 66.4936C75.7769 66.3792 75.7541 66.2422 75.7853 66.1166C76.3499 63.8453 77.0255 62.3415 78.051 61.2669C79.0722 60.1969 80.4929 59.497 82.6663 58.9448C82.8615 58.8952 83.076 58.9785 83.1907 59.1593L83.3685 59.4404C83.5274 59.6911 83.4354 60.0685 83.1154 60.2368C80.9399 61.3812 79.1561 63.0746 77.9527 64.6829C77.3505 65.4877 76.885 66.2819 76.5884 66.9889C76.5316 67.1244 76.4814 67.2603 76.4356 67.3942C76.2145 67.0523 76.0036 66.7267 75.8515 66.4936ZM77.4184 69.0077C77.4192 69.0086 77.42 69.0092 77.4205 69.0098C77.4212 69.0105 77.421 69.0116 77.4212 69.0118C77.4209 69.0115 77.4203 69.01 77.4184 69.0077ZM88.9425 78.5349C89.0371 78.4841 89.1438 78.3886 89.1923 78.2371C89.2368 78.0976 89.2107 77.9773 89.1876 77.9102C89.1466 77.7914 89.0699 77.7102 89.0408 77.6796C88.9997 77.6364 88.9526 77.5949 88.9063 77.5573C88.932 77.5782 88.9191 77.5756 88.8759 77.502C88.8384 77.4382 88.7922 77.3455 88.7404 77.2211C88.6369 76.9726 88.522 76.6282 88.4101 76.2061C88.1866 75.3632 87.9817 74.2392 87.8918 72.9988C87.7105 70.4959 88.0046 67.629 89.4294 65.6156C89.934 64.9023 89.8691 63.78 89.0052 63.2679C88.3254 62.865 87.4321 63.0576 86.9988 63.7289C85.1998 66.5164 84.3957 68.6807 84.2966 70.753C84.1979 72.8172 84.8038 74.7278 85.6861 76.9792C85.827 77.3386 86.1054 77.6325 86.4636 77.7913C86.8575 77.966 87.502 78.2454 87.9754 78.4203C88.0944 78.4642 88.2087 78.5036 88.3085 78.5337C88.3966 78.5602 88.5118 78.5917 88.6175 78.5992C88.6488 78.6015 88.7952 78.6139 88.9425 78.5349ZM87.6711 77.2278C87.3828 77.1072 87.0946 76.9807 86.8753 76.8835C86.7611 76.8328 86.6696 76.7383 86.6234 76.6202C85.7468 74.3834 85.2131 72.6401 85.3011 70.7992C85.3889 68.9661 86.0984 66.9722 87.8465 64.2636C87.9801 64.0568 88.2643 63.9886 88.4881 64.1212C88.746 64.2741 88.8509 64.6989 88.6057 65.0457C86.9817 67.3406 86.7022 70.4898 86.8891 73.07C86.9834 74.3711 87.1983 75.5561 87.4377 76.4589C87.5127 76.7419 87.5921 76.9999 87.6711 77.2278ZM104.748 78.1887C104.924 78.0627 104.968 77.8714 104.955 77.7362C104.945 77.6303 104.903 77.5554 104.888 77.5301C104.871 77.501 104.853 77.4762 104.837 77.4572L104.802 77.4177L104.74 77.362C104.64 77.2798 104.529 77.2327 104.422 77.2059C103.749 76.7874 101.918 75.4692 100.153 73.5116C98.319 71.4773 96.6024 68.8043 96.2709 65.7777C96.1746 64.8991 95.3498 64.1684 94.3936 64.3579L94.3568 64.3644C93.5867 64.517 93.0526 65.2382 93.1701 66.021C93.6228 69.038 94.4176 71.2723 95.7532 73.2152C97.0835 75.1501 98.9271 76.7618 101.416 78.5655C101.956 78.9563 102.661 78.929 103.187 78.6089C103.389 78.4856 103.609 78.3641 103.81 78.2785C103.946 78.2205 104.044 78.1922 104.107 78.1794C104.149 78.202 104.19 78.2217 104.225 78.2365C104.244 78.2443 104.28 78.2586 104.324 78.2692C104.345 78.2743 104.388 78.2837 104.442 78.2845C104.482 78.2851 104.616 78.2836 104.748 78.1887ZM113.492 68.5838C114.127 68.4992 114.632 68.0232 114.757 67.4078C114.866 66.8739 115.014 66.141 115.11 65.6504C115.157 65.4104 115.195 65.2154 115.208 65.1357C115.209 65.1251 115.211 65.1104 115.213 65.0958C115.214 65.0893 115.216 65.0753 115.217 65.0587C115.217 65.0507 115.218 65.0348 115.217 65.0155C115.217 65.0065 115.215 64.9492 115.193 64.8811C115.184 64.8528 115.152 64.751 115.053 64.6621C115.004 64.623 114.883 64.5616 114.812 64.5423C114.739 64.5335 114.605 64.5449 114.544 64.5621C114.421 64.6062 114.35 64.6855 114.331 64.7078C114.304 64.7398 114.286 64.7683 114.278 64.7825C114.252 64.8276 114.238 64.8691 114.236 64.8728C114.229 64.8936 114.224 64.9135 114.222 64.9224C114.213 64.9529 114.203 65.0022 114.188 65.0677C114.151 65.0907 114.088 65.1237 113.987 65.1603C113.748 65.2473 113.384 65.3268 112.905 65.3806C111.955 65.4877 110.639 65.4849 109.169 65.2966C106.219 64.9186 102.754 63.8085 100.403 61.4683C99.6549 60.724 98.2273 60.7857 97.728 61.8563L97.6369 62.0537C97.3449 62.68 97.5237 63.4287 98.0834 63.8518C101.277 66.2645 103.773 67.6405 106.165 68.3126C108.565 68.9868 110.817 68.9402 113.492 68.5838ZM103.103 77.513C102.946 77.5939 102.795 77.6797 102.66 77.7619C102.438 77.8973 102.18 77.8852 102.011 77.763C99.5515 75.9808 97.8175 74.4492 96.5844 72.6554C95.3568 70.8696 94.6024 68.789 94.1651 65.8744C94.1284 65.6302 94.2948 65.3919 94.5541 65.3403L94.5908 65.3324C94.8892 65.2733 95.2291 65.5059 95.2707 65.8852C95.6344 69.2053 97.5031 72.0672 99.4029 74.1743C100.764 75.6834 102.165 76.831 103.103 77.513ZM113.771 67.2123C113.729 67.4172 113.562 67.5711 113.358 67.5983C110.748 67.9461 108.651 67.9773 106.44 67.356C104.22 66.7325 101.841 65.4394 98.6942 63.0621C98.5139 62.9259 98.452 62.6799 98.55 62.4696L98.6418 62.2729C98.7938 61.947 99.3428 61.8227 99.6907 62.169C102.263 64.7291 105.979 65.8904 109.04 66.2826C110.577 66.4795 111.975 66.4867 113.019 66.3691C113.373 66.3292 113.695 66.2723 113.974 66.2015C113.904 66.5482 113.832 66.9116 113.771 67.2123Z" fill="#F67B23"/>
<path d="M109.62 51.4304C107.884 56.3984 105.685 57.992 98.8345 56.8139C98.5238 56.7604 98.2543 56.5616 98.12 56.2794C95.969 51.7595 97.1901 50.1521 101.368 48.3092C101.467 48.2652 101.578 48.2371 101.686 48.228C105.64 47.8967 107.36 48.5248 109.381 50.4352C109.651 50.6908 109.743 51.0807 109.62 51.4304Z" fill="#FEB465"/>
<path d="M106.385 56.8639C108.181 55.8989 109.218 54.1039 110.095 51.5925C110.28 51.0634 110.144 50.4685 109.729 50.0758C108.684 49.0883 107.682 48.4 106.405 48.0154C105.139 47.6342 103.647 47.5643 101.644 47.7322C101.479 47.746 101.314 47.7886 101.163 47.8551C99.0809 48.7737 97.5597 49.6991 96.9141 51.0827C96.2559 52.4938 96.5784 54.2084 97.6648 56.4913C97.8707 56.9238 98.2808 57.2233 98.7486 57.3038C102.195 57.8965 104.604 57.8205 106.385 56.8639ZM109.145 51.2683C108.287 53.7246 107.355 55.2104 105.905 55.9897C104.44 56.7771 102.324 56.9095 98.9207 56.3242C98.7671 56.2978 98.6372 56.1992 98.5744 56.0674C97.5101 53.8308 97.3685 52.4818 97.8272 51.4986C98.2988 50.4879 99.4771 49.6873 101.572 48.7629C101.621 48.7417 101.676 48.728 101.728 48.7236C103.679 48.5602 105.024 48.639 106.112 48.9666C107.188 49.2908 108.057 49.8715 109.033 50.7942C109.159 50.9126 109.204 51.0982 109.145 51.2683Z" fill="#FFA046"/>
<path d="M80.4988 54.0045L73.2066 53.9497C72.7114 53.946 72.2925 53.5851 72.2195 53.1007C70.8229 43.8332 69.9991 38.2599 73.244 35.373C73.5117 35.1348 73.9059 35.0874 74.1997 35.2932C76.5825 36.9628 77.9716 42.5364 77.707 41.0655C77.4986 39.9064 80.3129 37.0656 81.6922 36.072C82.1251 35.7601 82.8296 35.9852 83.2971 36.2435C85.5695 37.499 85.3244 40.2482 85.0866 44.6035C84.6473 49.2203 83.4399 50.9304 81.2963 53.6252C81.1043 53.8665 80.8093 54.0068 80.4988 54.0045Z" fill="#F57523"/>
<path d="M81.6912 53.9328C82.7625 52.586 83.6351 51.4431 84.2874 50.0426C84.8605 48.8118 85.2546 47.4022 85.4937 45.4975L85.5873 44.6498L85.5886 44.6402L85.5885 44.6306C85.706 42.4788 85.8324 40.6409 85.6311 39.1928C85.4249 37.7097 84.8619 36.5387 83.5424 35.8097C83.2755 35.6622 82.9283 35.5161 82.5681 35.4541C82.2155 35.3936 81.7693 35.401 81.396 35.6699C80.6693 36.1934 79.5931 37.1799 78.7228 38.1826C78.2925 38.6784 77.9002 39.1946 77.6225 39.6728C77.5564 39.5103 77.4848 39.3391 77.4084 39.162C77.0971 38.4407 76.6976 37.6079 76.2178 36.8439C75.7421 36.0865 75.1653 35.3608 74.49 34.8877C73.9793 34.53 73.3263 34.6316 72.9079 35.0038C71.1303 36.5854 70.5141 38.873 70.4885 41.8396C70.463 44.8001 71.0263 48.5553 71.7223 53.1738C71.8317 53.8994 72.4589 54.4408 73.2024 54.4465L80.4949 54.5017C80.9607 54.5052 81.403 54.2949 81.6912 53.9328ZM80.901 53.3179C80.8053 53.4382 80.6578 53.5084 80.5029 53.5073L73.2105 53.4521C72.9636 53.4502 72.7539 53.2701 72.7173 53.0272C72.0168 48.3786 71.4695 44.7133 71.4941 41.8487C71.5187 38.9903 72.1134 37.0481 73.5806 35.7428C73.6974 35.639 73.8318 35.6454 73.9086 35.699C74.4247 36.0606 74.9168 36.6577 75.3634 37.3689C75.8059 38.0735 76.1832 38.8556 76.4839 39.5524C76.7844 40.2487 77.0025 40.8461 77.1351 41.194C77.1676 41.2793 77.1974 41.356 77.222 41.4142C77.2339 41.4425 77.248 41.4746 77.2632 41.5045C77.2707 41.5192 77.2823 41.5414 77.2971 41.5646C77.3066 41.5795 77.3414 41.633 77.4004 41.6837C77.4299 41.7091 77.4989 41.7626 77.6042 41.7901C77.7318 41.8235 77.8869 41.8106 78.0208 41.7194C78.1329 41.6429 78.182 41.544 78.2012 41.4985C78.2226 41.4478 78.2317 41.4043 78.2355 41.3807C78.248 41.3033 78.2396 41.2314 78.238 41.2145C78.232 41.1524 78.2187 41.0699 78.2023 40.9786C78.1955 40.941 78.1951 40.8549 78.2419 40.7056C78.2874 40.5606 78.3677 40.3849 78.4845 40.182C78.7184 39.7757 79.0714 39.3079 79.4855 38.8308C80.3151 37.8749 81.3355 36.9436 81.9881 36.4735C82.0478 36.4306 82.1713 36.3952 82.396 36.4337C82.6129 36.4711 82.8514 36.5671 83.0519 36.6778C84.0045 37.2041 84.4555 38.0352 84.6353 39.3291C84.82 40.6582 84.7049 42.3734 84.5845 44.5768C84.368 46.8362 83.966 48.355 83.3735 49.6274C82.7763 50.9096 81.9733 51.97 80.901 53.3179Z" fill="#FB7F49"/>
<path d="M75.1608 53.9729L72.2357 54.3693C72.2357 54.3693 72.063 49.4566 71.1091 43.5827C70.1552 37.7089 73.5928 34.435 74.3678 35.6106L75.1608 53.9729Z" fill="#E9682F"/>
<path d="M79.4914 53.8618L76.9293 53.8918C77.0535 49.1032 76.6848 46.4736 77.4362 41.4571C78.1877 36.4406 82.3623 34.8827 82.5183 36.3294L79.4914 53.8618Z" fill="#E9682F"/>
<path d="M74.8696 35.5891L74.8641 35.4532L74.7887 35.3392C74.6054 35.0612 74.3241 34.9005 74.0014 34.8781C73.7025 34.8574 73.4083 34.9573 73.1496 35.1023C72.6309 35.3932 72.1026 35.9532 71.6574 36.7008C70.7572 38.2127 70.1185 40.6179 70.6128 43.6616C71.0871 46.5825 71.3679 49.2659 71.5295 51.2193C71.6103 52.1955 71.6608 52.9888 71.6917 53.5373C71.7071 53.8115 71.7179 54.0247 71.7244 54.1688C71.7277 54.2408 71.7295 54.2963 71.7309 54.3329C71.7317 54.351 71.7324 54.365 71.7327 54.374C71.7329 54.3783 71.7328 54.3815 71.7328 54.3837L71.7336 54.3857L71.7523 54.937L75.2293 54.4653L75.6828 54.4044L74.8696 35.5891ZM72.7117 53.8039C72.7068 53.7083 72.7026 53.601 72.696 53.4826C72.6646 52.9265 72.6131 52.1238 72.5314 51.1378C72.3683 49.1664 72.0851 46.4561 71.6055 43.5033C71.1461 40.6735 71.7498 38.5054 72.5235 37.2058C72.9152 36.548 73.3319 36.1426 73.6457 35.9667C73.75 35.9083 73.8272 35.8882 73.8768 35.8792L74.6395 53.5428L72.7117 53.8039ZM83.0142 36.4131L83.0254 36.345L83.0177 36.2764C82.9837 35.9619 82.8301 35.6901 82.565 35.5153C82.3161 35.3512 82.0185 35.3044 81.7387 35.3182C81.1823 35.3458 80.5293 35.6164 79.904 36.068C78.6346 36.9848 77.3336 38.7492 76.9388 41.3848C76.1817 46.4394 76.5486 49.1544 76.4261 53.8792L76.4139 54.395L79.4974 54.3593L79.9168 54.3537L83.0142 36.4131ZM77.4426 53.389C77.5315 48.8657 77.2145 46.3288 77.9333 41.53C78.2899 39.1492 79.4521 37.6256 80.4968 36.871C81.0285 36.487 81.4961 36.3259 81.7897 36.3114C81.9326 36.3044 81.9927 36.3344 82.0059 36.3429L79.066 53.3699L77.4426 53.389Z" fill="#E9682F"/>
<path d="M37.6623 98.5811C38.2083 97.3131 39.6784 96.7277 40.9465 97.2735C47.4308 100.065 51.5329 101.837 55.9797 102.73C60.3611 103.609 65.211 103.651 73.0783 102.663C77.0343 102.166 80.2528 101.666 83.0187 101.219C85.7651 100.774 88.1327 100.37 90.2951 100.084C94.724 99.4988 98.4329 99.3891 103.607 100.269C104.968 100.5 105.884 101.791 105.653 103.152C105.421 104.514 104.13 105.43 102.769 105.198C98.1778 104.418 94.9818 104.508 90.9504 105.041C88.8827 105.314 86.6312 105.699 83.8176 106.154C81.0232 106.606 77.7398 107.117 73.7013 107.624C65.5797 108.644 60.1267 108.661 54.9963 107.632C49.9315 106.616 45.3121 104.597 38.9699 101.866C37.7017 101.32 37.1163 99.8493 37.6623 98.5811ZM123.177 99.4327C127.094 99.2607 129.546 99.3264 134.646 100.275C136.003 100.528 136.899 101.833 136.647 103.19C136.394 104.548 135.089 105.444 133.732 105.191C129.036 104.318 126.967 104.271 123.397 104.428C122.017 104.488 120.85 103.419 120.789 102.04C120.729 100.661 121.798 99.4934 123.177 99.4327ZM107.26 90.5997C113.739 90.4173 120.851 91.5899 127.226 92.1758C133.807 92.7808 139.866 92.8125 145.201 90.7647C146.49 90.2702 147.936 90.9143 148.431 92.2032C148.925 93.4922 148.281 94.938 146.992 95.4327C140.518 97.9173 133.476 97.772 126.768 97.1553C119.853 96.5197 113.486 95.4264 107.401 95.5977C106.02 95.6366 104.87 94.5492 104.831 93.169C104.792 91.7889 105.88 90.6385 107.26 90.5997ZM73.6945 85.4952L86.7765 87.1016C88.1469 87.2699 89.1215 88.5174 88.9533 89.8878C88.785 91.2582 87.5376 92.2328 86.1672 92.0645L73.0851 90.4581C71.7148 90.2897 70.7402 89.0423 70.9084 87.6719C71.0767 86.3016 72.3242 85.327 73.6945 85.4952ZM52.5158 68.6104C59.1805 67.5698 67.3253 69.9158 74.9279 72.7657C78.7931 74.2146 82.6635 75.8537 86.2785 77.3702C89.9218 78.8985 93.2874 80.2946 96.2492 81.3135C96.5373 81.4126 96.8421 81.448 97.1515 81.4171C106.894 80.4416 121.322 76.9665 127.349 74.376C129.568 73.4222 132.244 73.3553 134.823 73.6104C137.459 73.871 140.321 74.5058 143.094 75.2325C145.86 75.9574 148.676 76.8125 151.129 77.5167C152.713 77.9714 154.134 78.3585 155.36 78.6397L155.033 78.46C153.825 77.7921 153.387 76.271 154.055 75.0626C154.723 73.8542 156.244 73.4162 157.452 74.0841L158.179 74.4854C159.387 75.1533 159.825 76.6745 159.157 77.8829C158.817 78.4982 158.256 78.9125 157.627 79.0841C158.827 79.41 159.625 80.5849 159.445 81.8477C159.249 83.2145 157.982 84.1643 156.615 83.9688C154.658 83.6886 152.238 83.0366 149.75 82.3223C147.195 81.5887 144.519 80.774 141.826 80.0684C139.141 79.3647 136.576 78.808 134.331 78.586C132.031 78.3586 130.375 78.5181 129.323 78.9698C122.704 81.8153 107.746 85.3816 97.6496 86.3926C96.6286 86.4949 95.5985 86.3769 94.6222 86.0411C91.4787 84.9596 87.9616 83.4991 84.3439 81.9815C80.6978 80.452 76.9279 78.8559 73.173 77.4483C65.5354 74.5853 58.5179 72.7332 53.2873 73.5499C51.9232 73.7627 50.6449 72.8299 50.4318 71.4659C50.2188 70.1019 51.1519 68.8237 52.5158 68.6104Z" fill="#FFB431"/>
<path d="M153.29 51.3877C150.026 51.1843 148.353 51.814 145.708 53.8515C145.649 53.8969 145.658 53.989 145.725 54.0211L161.493 61.5665C161.558 61.5974 161.633 61.5512 161.636 61.4797C161.783 57.7977 160.821 55.7965 157.553 52.9839C157.516 52.9517 157.507 52.8953 157.533 52.8533C160.232 48.4849 160.583 45.9061 159.564 41.18C159.56 41.1613 159.551 41.1434 159.537 41.1299C158.547 40.1434 157.88 40.0686 156.492 41.1202C156.467 41.1392 156.452 41.17 156.452 41.2014C156.479 45.4523 155.992 47.7393 153.378 51.346C153.358 51.3738 153.324 51.3898 153.29 51.3877Z" fill="#606329"/>
<path d="M158.175 39.8604C158.841 39.8756 159.374 40.2625 159.89 40.7755C159.951 40.8371 159.999 40.9115 160.029 40.9923L160.054 41.0743L160.23 41.9483C160.606 43.9385 160.71 45.5961 160.436 47.2335C160.137 49.0232 159.39 50.7457 158.131 52.8272C159.647 54.1624 160.687 55.3596 161.326 56.6895C162.004 58.1003 162.211 59.6108 162.136 61.5001C162.118 61.9232 161.672 62.2066 161.277 62.0176L145.509 54.4717C145.099 54.2751 145.055 53.7228 145.402 53.4551L145.896 53.0841C147.027 52.2518 148.028 51.6657 149.108 51.3048C150.291 50.9095 151.533 50.7961 153.096 50.877C154.304 49.1837 155.014 47.8097 155.425 46.378C155.85 44.8927 155.965 43.3139 155.952 41.2042C155.951 41.016 156.039 40.8363 156.19 40.7217L156.452 40.5303C157.055 40.1069 157.61 39.8476 158.175 39.8604ZM158.152 40.8604C157.892 40.8545 157.537 40.9799 156.951 41.4024C156.956 43.4476 156.836 45.0826 156.386 46.6534C155.919 48.2807 155.111 49.8069 153.783 51.6397C153.662 51.8068 153.463 51.8994 153.259 51.8868C151.665 51.7875 150.5 51.8937 149.425 52.253C148.493 52.5643 147.601 53.0748 146.535 53.8546L161.149 60.8467C161.155 59.3561 160.939 58.193 160.425 57.1221C159.838 55.9007 158.84 54.751 157.227 53.3633C157.004 53.1707 156.952 52.8419 157.107 52.5909L157.579 51.8038C158.615 50.0151 159.203 48.5487 159.45 47.0684C159.728 45.4049 159.583 43.6802 159.099 41.4024C158.673 40.9944 158.398 40.866 158.152 40.8604Z" fill="#606329"/>
<path d="M161.55 61.3155C156.161 58.7477 152.481 56.9845 145.644 53.7044C145.606 53.6858 145.559 53.6937 145.529 53.7244C141.784 57.578 139.625 62.219 135.848 70.3405L135.745 70.562C135.743 70.5669 135.74 70.5718 135.737 70.5763C132.037 76.0111 128.884 78.5128 123.045 82.6813C122.967 82.7372 123.007 82.8622 123.103 82.8642C133.89 83.0893 138.973 83.1011 145.544 82.8591C145.567 82.8583 145.589 82.8496 145.606 82.8349C154.055 75.6275 158.468 71.3941 161.603 61.4371C161.618 61.3896 161.595 61.3369 161.55 61.3155Z" fill="#DC3C1B"/>
<path d="M145.17 53.3761C145.353 53.1876 145.633 53.1448 145.861 53.254C152.697 56.534 156.376 58.2969 161.765 60.8643C162.037 60.994 162.169 61.3042 162.08 61.587C160.497 66.6161 158.583 70.2206 155.988 73.4786C153.403 76.7251 150.152 79.6134 145.93 83.2149C145.828 83.3017 145.699 83.3534 145.563 83.3585C138.978 83.601 133.883 83.5895 123.093 83.3643C122.53 83.3526 122.273 82.6184 122.755 82.2745L123.816 81.5138C128.959 77.8038 131.891 75.3281 135.307 70.3175L135.395 70.13C139.161 62.0323 141.354 57.303 145.17 53.3761ZM145.689 54.2804C142.136 58.0203 140.021 62.5543 136.302 70.5509L136.198 70.7725C136.185 70.8019 136.169 70.8306 136.151 70.8575C132.614 76.0518 129.557 78.6085 124.312 82.3878C134.208 82.5872 139.144 82.5905 145.386 82.3634C149.56 78.8002 152.71 75.9905 155.206 72.8556C157.658 69.7764 159.488 66.3702 161.019 61.6153C155.867 59.1604 152.226 57.4168 145.689 54.2804Z" fill="#E74821"/>
<path d="M147.65 73.6415C143.384 77.9274 139.98 80.3225 134.162 82.6624C134.06 82.7037 134.084 82.8578 134.194 82.8578H147.65C148.166 82.8578 160.103 71.117 161.618 61.4274C161.625 61.3831 161.601 61.3404 161.56 61.3221L156.042 58.8418C155.986 58.8164 155.92 58.849 155.904 58.9091C154.503 64.3106 152.168 67.6493 147.65 73.6415Z" fill="#D0331E"/>
<path d="M155.468 58.6593C155.608 58.3867 155.944 58.25 156.247 58.3859L161.766 60.8663C162.006 60.9746 162.155 61.2321 162.112 61.505C161.334 66.484 157.899 71.9274 154.653 76.0841C153.022 78.1724 151.423 79.9561 150.196 81.2198C149.583 81.8512 149.061 82.3564 148.671 82.7062C148.477 82.8802 148.309 83.0211 148.178 83.1212C148.113 83.1704 148.048 83.2168 147.987 83.253C147.957 83.271 147.919 83.2927 147.876 83.3107C147.844 83.3241 147.759 83.3575 147.65 83.3575H134.194C133.855 83.3575 133.643 83.1006 133.604 82.8536C133.567 82.6131 133.679 82.3179 133.976 82.1984C139.713 79.8904 143.06 77.5399 147.271 73.3126C151.776 67.3382 154.048 64.0712 155.42 58.7833L155.468 58.6593ZM156.266 59.4894C154.824 64.733 152.442 68.117 148.05 73.9425L148.028 73.9698L148.005 73.9943C144.157 77.8593 140.986 80.2122 136.162 82.3575H147.528C147.541 82.3485 147.556 82.338 147.573 82.3253C147.674 82.2486 147.818 82.1277 148.003 81.962C148.371 81.6319 148.876 81.1439 149.478 80.5236C150.682 79.2833 152.258 77.5266 153.865 75.4689C157.027 71.4207 160.245 66.2836 161.071 61.6505L156.266 59.4894Z" fill="#D0331E"/>
<path d="M166.546 66.2337L141.466 81.6466C140.925 81.9789 140.825 82.7229 141.273 83.1674C148.29 90.1285 155.501 91.1307 162.945 88.6974C170.501 86.2274 174.633 76.7016 167.874 66.5126C167.584 66.0759 166.995 65.9577 166.546 66.2337Z" fill="#727C2C"/>
<path d="M140.919 83.5218C140.234 82.8424 140.397 81.7185 141.205 81.2221L166.285 65.8096C166.956 65.3969 167.849 65.5675 168.292 66.2353C171.738 71.4301 172.438 76.5081 171.259 80.6343C170.081 84.7567 167.037 87.8842 163.099 89.1717C159.311 90.41 155.553 90.7824 151.836 89.9418C148.118 89.1009 144.481 87.0552 140.919 83.5218ZM141.727 82.0707C141.453 82.2389 141.416 82.6034 141.627 82.8129C145.083 86.2405 148.559 88.1768 152.062 88.969C155.565 89.7613 159.135 89.418 162.79 88.2231C166.408 87.0405 169.208 84.1697 170.296 80.3647C171.382 76.5633 170.768 71.7836 167.456 66.7896C167.32 66.5845 167.034 66.5193 166.808 66.6584L141.727 82.0707Z" fill="#7B8B31"/>
<path d="M164.101 67.8596L143.922 80.15C143.377 80.4817 143.276 81.2306 143.731 81.6719C149.441 87.2028 155.296 87.9967 161.332 86.0487C167.485 84.0627 170.85 76.3903 165.419 68.1371C165.133 67.702 164.549 67.587 164.101 67.8596Z" fill="#F6E27A"/>
<path d="M143.381 82.0309C142.681 81.353 142.85 80.2197 143.663 79.7248L163.842 67.4335C164.509 67.0276 165.397 67.1915 165.838 67.8621C168.62 72.089 169.18 76.2192 168.201 79.58C167.223 82.9374 164.72 85.4796 161.484 86.524C158.401 87.5191 155.336 87.8216 152.299 87.1522C149.261 86.4826 146.29 84.8486 143.381 82.0309ZM144.181 80.5753C143.904 80.744 143.87 81.1089 144.082 81.3136C146.883 84.0265 149.694 85.5547 152.519 86.1777C155.346 86.8009 158.228 86.5266 161.18 85.5736C164.097 84.6321 166.354 82.3448 167.239 79.3066C168.123 76.2714 167.649 72.439 165 68.4128C164.868 68.2131 164.589 68.1462 164.361 68.2852L144.181 80.5753Z" fill="#F7E78B"/>
<path d="M146.476 83.0125C148.564 84.5244 151.26 85.7634 152.409 85.7407C152.782 85.7333 152.915 85.344 152.91 84.972C152.881 82.9148 152.76 75.9687 152.417 76.4025C152.154 76.7353 148.922 78.7869 146.715 80.1675C145.652 80.8331 145.465 82.2801 146.476 83.0125Z" fill="#E0CA43"/>
<path d="M154.407 79.5451L154.449 83.7917C154.459 84.7145 155.1 85.5272 156.018 85.6447C158.59 85.974 160.287 85.4022 162.168 83.6462C163.042 82.8309 162.842 81.4357 161.855 80.7706L157.538 77.8593C156.201 76.9574 154.39 77.9321 154.407 79.5451Z" fill="#E0CA43"/>
<path d="M164.624 71.4059C165.736 74.0244 166.035 75.9795 165.668 78.2832C165.465 79.5597 164.005 80.1312 162.885 79.4878L157.642 76.4759C156.312 75.712 156.314 73.7967 157.645 73.0218L161.882 70.5561C162.882 69.9743 164.175 70.3476 164.624 71.4059Z" fill="#E0CA43"/>
<path d="M157.391 76.9084C155.728 75.9535 155.73 73.5596 157.394 72.591L161.631 70.1256C162.871 69.4041 164.51 69.8537 165.086 71.2095C166.226 73.8943 166.546 75.9445 166.162 78.3592C165.895 80.0394 164.006 80.7084 162.633 79.9202L157.391 76.9084ZM157.896 73.4529C156.898 74.0341 156.896 75.4703 157.893 76.0433L163.137 79.0553C164.005 79.5538 165.035 79.08 165.174 78.2074C165.523 76.0149 165.247 74.1543 164.163 71.6021C163.84 70.8417 162.893 70.5451 162.133 70.9866L157.896 73.4529ZM153.905 79.5529C153.885 77.5366 156.149 76.3186 157.821 77.4459L162.137 80.3566C163.35 81.1745 163.651 82.9442 162.509 84.0099C161.533 84.9209 160.577 85.5506 159.506 85.9013C158.435 86.2522 157.289 86.3107 155.952 86.1396C154.756 85.9866 153.96 84.9384 153.948 83.7996L153.905 79.5529ZM157.256 78.2734C156.253 77.597 154.895 78.3279 154.907 79.5377L154.95 83.7844C154.957 84.4909 155.444 85.0675 156.084 85.1495C157.319 85.3076 158.307 85.2452 159.198 84.9536C160.089 84.6618 160.921 84.127 161.827 83.2821C162.432 82.7173 162.333 81.6968 161.574 81.1844L157.256 78.2734ZM146.18 83.4171C144.825 82.4356 145.149 80.5591 146.45 79.7447C147.553 79.0549 148.91 78.1996 150.023 77.475C150.58 77.1125 151.072 76.7847 151.44 76.5284C151.624 76.4 151.774 76.2922 151.883 76.2086L152.024 76.0944L152.079 76.0351C152.152 75.9648 152.284 75.8759 152.474 75.8847C152.717 75.8961 152.849 76.0594 152.887 76.1129C152.97 76.2284 153.006 76.3713 153.023 76.4449C153.068 76.6331 153.103 76.9066 153.133 77.2192C153.195 77.8563 153.244 78.7601 153.282 79.7311C153.359 81.6772 153.396 83.9333 153.41 84.9626C153.414 85.1977 153.376 85.4829 153.241 85.7302C153.093 86.0019 152.816 86.2321 152.416 86.24C152.05 86.2471 151.607 86.1564 151.142 86.0144C150.668 85.8696 150.137 85.6604 149.583 85.4059C148.476 84.8969 147.252 84.1927 146.18 83.4171ZM146.98 80.5902C146.154 81.1072 146.105 82.1256 146.772 82.6086C147.789 83.3447 148.957 84.0155 150.007 84.4982C150.532 84.7395 151.02 84.9312 151.44 85.0596C151.845 85.1836 152.158 85.2379 152.367 85.2402C152.375 85.2211 152.387 85.1932 152.395 85.1538C152.404 85.1035 152.41 85.0441 152.409 84.9809C152.395 83.9529 152.357 81.7073 152.281 79.7749C152.242 78.8067 152.195 77.9266 152.136 77.3193C152.134 77.299 152.131 77.2794 152.129 77.26C152.09 77.2871 152.052 77.3171 152.011 77.3456C151.63 77.6108 151.127 77.9453 150.567 78.3098C149.447 79.0394 148.083 79.8995 146.98 80.5902Z" fill="#E3D010"/>
<path d="M149.925 81.3736C150.305 81.4852 150.484 82.0056 150.325 82.536C150.166 83.0664 149.728 83.4059 149.349 83.2943C148.969 83.1828 148.79 82.6624 148.949 82.132C149.109 81.6016 149.546 81.262 149.925 81.3736Z" fill="black" fill-opacity="0.25"/>
<path d="M159.215 82.0115C159.848 82.1974 160.258 82.6921 160.13 83.1165C160.003 83.5408 159.386 83.734 158.753 83.548C158.12 83.3621 157.71 82.8674 157.838 82.443C157.965 82.0187 158.582 81.8255 159.215 82.0115Z" fill="black" fill-opacity="0.25"/>
<path d="M163.239 76.0874C163.746 76.2362 164.053 76.7008 163.926 77.1251C163.798 77.5494 163.284 77.7728 162.778 77.624C162.271 77.4753 161.964 77.0107 162.092 76.5864C162.219 76.162 162.733 75.9387 163.239 76.0874Z" fill="black" fill-opacity="0.25"/>
<path d="M163.245 72.7448C163.752 72.8936 164.059 73.3582 163.931 73.7825C163.804 74.2068 163.29 74.4302 162.784 74.2814C162.277 74.1326 161.97 73.6681 162.097 73.2438C162.225 72.8194 162.739 72.5961 163.245 72.7448Z" fill="black" fill-opacity="0.25"/>
<path d="M88.5519 74.3877L65.4559 52.5126C64.9812 52.063 64.2082 52.1842 63.9104 52.7663C58.9385 62.4835 60.0602 70.4935 64.7293 77.6513C69.4765 84.9289 80.3677 86.2665 88.6555 75.7033C88.9671 75.3061 88.9184 74.7348 88.5519 74.3877Z" fill="#FFC91B"/>
<path d="M63.465 52.5386C63.9196 51.6502 65.0907 51.4782 65.8 52.15L88.8957 74.025C89.445 74.5453 89.5238 75.4072 89.049 76.0123C84.8324 81.3865 79.9057 83.7883 75.3732 83.8677C70.8428 83.9471 66.7748 81.7018 64.3107 77.9244C61.9387 74.2881 60.4539 70.4133 60.2052 66.1978C59.9566 61.9821 60.946 57.462 63.465 52.5386ZM65.1125 52.8756C64.8724 52.6482 64.4968 52.7183 64.3556 52.9937C61.9029 57.7874 60.9669 62.1313 61.2033 66.1392C61.4398 70.1475 62.8505 73.857 65.1476 77.3785C67.4307 80.8784 71.1819 82.9408 75.3556 82.8677C79.5274 82.7946 84.1908 80.5837 88.2619 75.3951C88.4103 75.2059 88.3918 74.9245 88.2082 74.7506L65.1125 52.8756Z" fill="#FFCE25"/>
<path d="M86.1853 72.3045L67.693 54.6476C67.2179 54.194 66.4398 54.3162 66.1471 54.9043C62.2308 62.7725 63.161 69.2729 66.9233 75.0875C70.7661 81.0263 79.5592 82.1404 86.2875 73.6107C86.5983 73.2167 86.5482 72.651 86.1853 72.3045Z" fill="#FFF083"/>
<path d="M65.6996 54.6816C66.1483 53.7802 67.3293 53.6089 68.0385 54.2861L86.5307 71.9433C87.0727 72.4611 87.1566 73.3168 86.6801 73.9208C83.2431 78.2779 79.2305 80.2267 75.5297 80.2743C71.8307 80.3219 68.514 78.4666 66.5033 75.3593C64.5854 72.3952 63.3765 69.2348 63.1567 65.7978C62.9369 62.3603 63.7091 58.6808 65.6996 54.6816ZM67.3481 55.0097C67.1071 54.7796 66.7321 54.8523 66.5951 55.1269C64.6694 58.9958 63.9479 62.5009 64.1547 65.7343C64.3615 68.9681 65.4988 71.9659 67.3432 74.8163C69.1754 77.6476 72.1769 79.3183 75.517 79.2753C78.8555 79.2323 82.6037 77.4732 85.8949 73.3007C86.0398 73.1169 86.0237 72.8411 85.8403 72.6659L67.3481 55.0097Z" fill="#FFF083"/>
<path d="M65.6208 58.1955C64.6856 60.9346 64.2177 64.2899 64.5953 65.5078C64.7118 65.8832 65.1411 65.902 65.514 65.7779C67.5811 65.0901 74.5542 62.7399 74.0147 62.5135C73.5982 62.3386 70.5311 59.5167 68.4838 57.6086C67.5376 56.7267 66.0387 56.9714 65.6208 58.1955Z" fill="#FFCC24"/>
<path d="M71.639 65.5687L67.0461 67.0774C66.1817 67.3614 65.6029 68.1969 65.7271 69.0983C66.1392 72.0889 67.2266 73.7572 69.646 75.2403C70.687 75.8784 72.0098 75.2735 72.3606 74.1041L74.1788 68.0434C74.6433 66.4953 73.1746 65.0642 71.639 65.5687Z" fill="#FFCC24"/>
<path d="M82.8859 73.7236C80.424 75.9197 78.4692 76.9053 75.8829 77.2424C74.6101 77.4083 73.6524 76.1939 73.9365 74.9421L75.5354 67.8947C75.8832 66.3621 77.7814 65.8109 78.8959 66.9189L82.921 70.9205C83.708 71.7029 83.714 72.9848 82.8859 73.7236Z" fill="#FFCC24"/>
<path d="M75.0483 67.7842C75.4829 65.8684 77.8553 65.1795 79.2485 66.5644L83.2738 70.5664C84.2507 71.538 84.276 73.1536 83.2192 74.0967C80.7027 76.3415 78.6577 77.385 75.9477 77.7383C74.2754 77.9562 73.1003 76.3664 73.4487 74.831L75.0483 67.7842ZM78.5434 67.2734C77.7075 66.4425 76.2837 66.8564 76.0229 68.0058L74.4242 75.0527C74.2046 76.0206 74.9448 76.8605 75.8178 76.7471C78.2804 76.4261 80.146 75.4979 82.5531 73.3506C83.152 72.8163 83.1651 71.8686 82.5688 71.2754L78.5434 67.2734ZM71.4828 65.0937C73.4023 64.4632 75.2382 66.2523 74.6576 68.1875L72.8393 74.248C72.4076 75.6862 70.7445 76.4998 69.3852 75.667C68.1318 74.8987 67.1908 74.0621 66.5131 73.0049C65.8364 71.949 65.4443 70.7081 65.2319 69.167C65.0714 68.0026 65.8199 66.9541 66.8901 66.6025L71.4828 65.0937ZM73.6996 67.8994C74.0477 66.7384 72.9469 65.6658 71.7953 66.0439L67.2026 67.5527C66.544 67.7691 66.1342 68.392 66.2221 69.0303C66.4218 70.4795 66.7802 71.5682 67.3549 72.4648C67.9287 73.36 68.7418 74.0998 69.9076 74.8144C70.63 75.2569 71.6112 74.8602 71.8813 73.9599L73.6996 67.8994ZM65.1479 58.0342C65.7052 56.4018 67.6657 56.163 68.8246 57.2432C69.8476 58.1965 71.1235 59.3762 72.1948 60.3389C72.7308 60.8206 73.2133 61.2456 73.5854 61.5596C73.7717 61.7168 73.9269 61.8431 74.0453 61.9336L74.2084 62.0527L74.2846 62.0918C74.3735 62.1459 74.4891 62.2487 74.5307 62.4287C74.5823 62.6528 74.4756 62.8193 74.434 62.876C74.3479 62.993 74.2205 63.0741 74.1498 63.1172C73.9742 63.2243 73.7095 63.3493 73.4028 63.4814C72.7783 63.7505 71.8809 64.091 70.9125 64.4424C68.972 65.1465 66.7068 65.9077 65.6723 66.2519C65.4358 66.3306 65.1395 66.3805 64.8539 66.3193C64.5404 66.2521 64.2383 66.0452 64.1176 65.6562C64.0001 65.2774 63.9587 64.7774 63.9643 64.2314C63.9699 63.6759 64.0251 63.0343 64.1205 62.3525C64.3114 60.9895 64.6696 59.4352 65.1479 58.0342ZM68.143 57.9746C67.4095 57.291 66.3727 57.5417 66.0942 58.3574C65.6374 59.6953 65.2933 61.1876 65.1108 62.4912C65.0195 63.1428 64.9694 63.7405 64.9643 64.2422C64.9593 64.7396 64.9999 65.1093 65.0678 65.3408C65.0902 65.345 65.1268 65.3491 65.1781 65.3437C65.2318 65.3381 65.2927 65.3247 65.3559 65.3037C66.3886 64.9601 68.6441 64.2023 70.5717 63.5029C71.5373 63.1526 72.4115 62.8202 73.0073 62.5635C73.0589 62.5412 73.1067 62.5176 73.1528 62.4971C73.0863 62.4424 73.0136 62.3864 72.9399 62.3242C72.5558 62.0002 72.0654 61.567 71.5268 61.083C70.4487 60.1141 69.1673 58.9292 68.143 57.9746Z" fill="#FFD735"/>
<path d="M68.2605 61.4509C68.2605 61.8909 67.7884 62.2476 67.206 62.2476C66.6237 62.2476 66.1515 61.8909 66.1515 61.4509C66.1515 61.0109 66.6237 60.6542 67.206 60.6542C67.7884 60.6542 68.2605 61.0109 68.2605 61.4509Z" fill="#FFC115"/>
<path d="M70.3695 71.5428C70.3695 72.2762 69.9918 72.8707 69.5259 72.8707C69.06 72.8707 68.6823 72.2762 68.6823 71.5428C68.6823 70.8095 69.06 70.2149 69.5259 70.2149C69.9918 70.2149 70.3695 70.8095 70.3695 71.5428Z" fill="#FFC115"/>
<path d="M77.5402 73.9328C77.5402 74.5195 77.1625 74.9952 76.6965 74.9952C76.2306 74.9952 75.853 74.5195 75.853 73.9328C75.853 73.3461 76.2306 72.8705 76.6965 72.8705C77.1625 72.8705 77.5402 73.3461 77.5402 73.9328Z" fill="#FFC115"/>
<path d="M80.9144 72.8703C80.9144 73.457 80.5367 73.9326 80.0708 73.9326C79.6049 73.9326 79.2272 73.457 79.2272 72.8703C79.2272 72.2836 79.6049 71.808 80.0708 71.808C80.5367 71.808 80.9144 72.2836 80.9144 72.8703Z" fill="#FFC115"/>
<path d="M60.3263 74.908C70.0783 83.122 73.2047 95.5646 67.3092 102.699C61.4137 109.834 48.7289 108.959 38.9769 100.745C29.2248 92.5312 26.0985 80.0886 31.994 72.9538C37.8895 65.8191 50.5743 66.694 60.3263 74.908Z" fill="#FFEFD0"/>
<path d="M70.6306 98.4738C64.3082 108.194 51.6606 107.161 41.1749 98.1591C30.6893 89.1568 26.2186 79.3308 31.0405 71.9166C35.8625 64.5024 44.855 66.7505 58.6696 71.9167C72.9955 79.1483 77.4116 88.0484 70.6306 98.4738Z" fill="#FFF9EC"/>
<path d="M67.4581 96.4022C64.0914 101.631 56.0634 102.393 49.5269 98.1028C42.9904 93.813 40.4208 86.0965 43.7874 80.8675C47.154 75.6384 55.1821 74.877 61.7186 79.1668C68.255 83.4566 70.8247 91.1732 67.4581 96.4022Z" fill="#FCBF48"/>
<path d="M130.238 84.2253C130.238 86.96 127.181 89.177 123.411 89.177C119.641 89.177 116.585 86.96 116.585 84.2253C116.585 81.4905 119.641 79.2735 123.411 79.2735C127.181 79.2735 130.238 81.4905 130.238 84.2253Z" fill="#6C7C3A"/>
<path d="M154.054 98.5617C154.054 101.296 150.998 103.513 147.228 103.513C143.458 103.513 140.402 101.296 140.402 98.5617C140.402 95.8269 143.458 93.6099 147.228 93.6099C150.998 93.6099 154.054 95.8269 154.054 98.5617Z" fill="#6C7C3A"/>
<path d="M75.589 109.415C58.9911 108.661 50.5652 105.906 36.8517 101.802C36.8517 101.802 44.6875 107.169 52.9865 108.611C61.2855 110.053 81.3578 110.975 75.589 109.415Z" fill="#DB4E32"/>
<path d="M36.9953 101.323C50.7066 105.426 59.0807 108.164 75.6115 108.916L75.6662 108.919L75.7199 108.933C76.0879 109.033 76.3812 109.129 76.589 109.226C76.6899 109.273 76.8009 109.334 76.8927 109.416C76.9719 109.486 77.1409 109.666 77.1115 109.941C77.0826 110.21 76.8859 110.35 76.8009 110.401C76.6996 110.462 76.5856 110.5 76.4865 110.527C76.2823 110.582 76.0123 110.62 75.7043 110.648C74.4672 110.762 72.2089 110.746 69.5431 110.638C64.1997 110.422 57.0814 109.831 52.9006 109.104C48.6819 108.371 44.5978 106.645 41.5802 105.112C40.0688 104.344 38.8185 103.621 37.9455 103.09C37.5093 102.825 37.1669 102.608 36.9328 102.456C36.8157 102.38 36.7254 102.32 36.6642 102.279C36.6337 102.258 36.6098 102.243 36.5939 102.232C36.5861 102.227 36.5805 102.222 36.5763 102.219C36.5744 102.218 36.5726 102.217 36.5715 102.216L36.5695 102.215L36.9953 101.323ZM40.5392 103.429C41.0009 103.682 41.5 103.949 42.0334 104.22C45.0084 105.731 48.9922 107.41 53.0724 108.119C57.1906 108.834 64.2582 109.424 69.5832 109.639C70.4407 109.674 71.2498 109.697 71.9914 109.711C59.1124 108.839 51.183 106.616 40.5392 103.429Z" fill="#D2452D"/>
<path d="M126.913 98.3495C126.913 103.513 122.007 107.699 115.956 107.699C109.905 107.699 105 103.513 105 98.3495C105 93.1859 109.905 89.0001 115.956 89.0001C122.007 89.0001 126.913 93.1859 126.913 98.3495Z" fill="#ED7323"/>
<path d="M118.337 107.466H115.069C114.968 107.466 114.931 107.332 115.017 107.279C119.262 104.657 121.492 102.713 121.497 99.1661C121.497 99.1589 121.496 99.1516 121.494 99.1446C120.718 95.5813 118.567 93.7957 115.757 94.4805C114.212 94.8573 113.004 95.502 113.149 97.0797C113.306 98.7905 115.011 99.3751 116.755 98.6551C116.784 98.6432 116.817 98.6447 116.844 98.6612C117.33 98.9628 117.652 99.571 117.334 100.676C117.327 100.702 117.308 100.724 117.285 100.736C112.741 103.225 111.145 99.3711 111.065 99.1682C111.062 99.1616 111.061 99.1594 111.06 99.1524C111.03 98.934 110.377 94.0036 114.192 92.405C118.094 90.77 123.413 94.3705 123.584 98.1164C123.753 101.854 122.168 105.07 118.391 107.45C118.375 107.46 118.356 107.466 118.337 107.466Z" fill="#DD5415"/>
<path d="M114.173 92.3585C116.143 91.5327 118.466 92.0307 120.314 93.2003C122.161 94.3694 123.547 96.2194 123.633 98.1143C123.804 101.871 122.209 105.103 118.418 107.492C118.394 107.507 118.366 107.516 118.338 107.516H115.069C114.916 107.516 114.864 107.315 114.991 107.236C117.113 105.925 118.726 104.788 119.809 103.537C120.89 102.289 121.445 100.927 121.447 99.1661C121.447 99.1626 121.446 99.1588 121.445 99.1553C121.059 97.3806 120.332 96.0547 119.357 95.2579C118.384 94.4625 117.16 94.1903 115.769 94.5294C114.998 94.7173 114.319 94.9706 113.851 95.3682C113.387 95.7631 113.128 96.3027 113.199 97.0753C113.276 97.9122 113.729 98.4696 114.376 98.7325C115.025 98.9963 115.873 98.9648 116.736 98.6085C116.778 98.5912 116.829 98.5928 116.87 98.6182C117.122 98.7747 117.333 99.012 117.438 99.3526C117.543 99.6924 117.543 100.131 117.382 100.69C117.371 100.729 117.343 100.762 117.309 100.78C116.168 101.405 115.207 101.634 114.407 101.619C113.606 101.604 112.968 101.347 112.472 101.003C111.483 100.317 111.059 99.2909 111.018 99.1866C111.015 99.1773 111.013 99.171 111.011 99.1592C110.996 99.0469 110.824 97.7537 111.135 96.2862C111.447 94.8176 112.244 93.1665 114.173 92.3585ZM121.547 99.1661C121.544 100.952 120.981 102.337 119.884 103.603C118.79 104.866 117.166 106.01 115.044 107.321C114.999 107.349 115.02 107.416 115.069 107.416H118.338C118.347 107.416 118.356 107.413 118.364 107.408C122.127 105.037 123.703 101.837 123.534 98.1182C123.45 96.2674 122.091 94.4439 120.26 93.2852C118.43 92.1268 116.143 91.642 114.212 92.4512C112.325 93.2419 111.541 94.8559 111.233 96.3067C110.925 97.7581 111.095 99.0387 111.11 99.1456C111.11 99.1456 111.11 99.1474 111.111 99.1495C111.15 99.2481 111.565 100.251 112.529 100.92C113.01 101.254 113.629 101.505 114.408 101.52C115.187 101.534 116.131 101.311 117.261 100.692C117.273 100.686 117.282 100.674 117.286 100.662C117.443 100.116 117.44 99.6979 117.342 99.3819C117.245 99.0669 117.051 98.8492 116.817 98.7042C116.805 98.6969 116.789 98.695 116.774 98.7012C115.893 99.0649 115.017 99.1014 114.338 98.8253C113.656 98.5481 113.179 97.9577 113.099 97.0841C113.026 96.2793 113.297 95.7081 113.787 95.2921C114.273 94.8788 114.971 94.6205 115.746 94.4317C117.165 94.086 118.421 94.3638 119.421 95.1807C120.418 95.9963 121.153 97.3455 121.543 99.1339C121.545 99.1443 121.547 99.1554 121.547 99.1661Z" fill="#DA4F15"/>
</svg>
