<svg width="200" height="140" viewBox="0 0 200 140" fill="none" xmlns="http://www.w3.org/2000/svg">
<path d="M200 73.2567C200 109.679 155.228 139.205 100 139.205C44.7715 139.205 0 109.679 0 73.2567C0 36.8344 44.7715 7.30829 100 7.30829C155.228 7.30829 200 36.8344 200 73.2567Z" fill="#F4B13B"/>
<path d="M200 65.3378C200 101.423 155.228 130.676 100 130.676C44.7715 130.676 0 101.423 0 65.3378C0 29.2527 44.7715 0 100 0C155.228 0 200 29.2527 200 65.3378Z" fill="#BC3621"/>
<path d="M184.523 60.4529C184.523 89.1186 146.947 112.357 100.595 112.357C54.2424 112.357 16.6663 89.1186 16.6663 60.4529C16.6663 31.7872 54.2424 8.54903 100.595 8.54903C146.947 8.54903 184.523 31.7872 184.523 60.4529Z" fill="#A92D1B"/>
<path d="M106.22 11.694C107.179 11.7638 108.101 12.1894 108.884 12.6481C110.482 13.585 112.395 15.2135 114.449 17.0875C116.506 18.9633 118.947 21.314 121.47 23.652C123.119 25.18 124.842 26.7396 126.62 28.2633C126.195 23.9869 125.235 19.3632 123.752 14.3737C123.438 13.3149 124.041 12.202 125.1 11.8873C126.158 11.5729 127.271 12.1763 127.586 13.235C129.125 18.4125 130.148 23.2969 130.603 27.8903C133.014 27.1603 135.199 26.5993 137.08 26.2985C138.669 26.0445 140.101 26.4927 141.265 27.4586C142.356 28.3648 143.147 29.667 143.747 31.0826C144.326 32.448 144.792 34.0781 145.17 35.8961C147.311 36.3919 149.207 36.7158 150.814 36.8219C153.328 36.9879 154.511 36.5737 154.964 36.1539C155.223 35.9143 155.704 35.2058 155.022 32.9078C154.707 31.8492 155.31 30.7353 156.368 30.4205C157.427 30.1059 158.541 30.7094 158.856 31.7682C159.458 33.7961 159.597 35.7673 158.894 37.3873C159.536 36.9098 159.995 36.3909 160.299 35.8385C160.88 34.7826 161.099 33.2443 160.396 30.8785L164.23 29.7399L164.555 30.8688C167.793 42.4724 167.144 51.9222 163.116 59.861C163.083 59.9275 163.046 59.9929 163.012 60.0592C164.096 60.4347 165.039 60.9095 165.765 61.5348C166.747 62.3819 167.35 63.5376 167.253 64.9C167.166 66.1227 166.532 67.1893 165.822 68.0465C164.401 69.7641 161.951 71.501 159.094 73.1793C157.883 73.8904 156.563 74.6087 155.162 75.3326C156.935 78.1946 156.629 82.0248 154.897 86.5104C153.857 89.202 152.932 91.364 152.107 93.0397C151.297 94.684 150.527 95.9784 149.769 96.8434C149.391 97.2737 148.919 97.7132 148.338 97.9957C147.704 98.3039 146.895 98.4386 146.068 98.1159C145.313 97.8212 144.837 97.2573 144.551 96.7994C144.257 96.3297 144.049 95.7948 143.893 95.2741C143.289 93.2667 143.036 90.0069 142.917 86.233C142.867 84.6284 142.841 82.8848 142.829 81.0397C138.844 82.7338 134.768 84.3644 130.966 85.8414C131.159 86.0303 131.345 86.2177 131.521 86.4069C132.464 87.4234 133.252 88.5498 133.63 89.7799C134.022 91.0556 133.946 92.3832 133.273 93.6217C133.215 93.7489 133.154 93.8736 133.084 93.9918C132.46 95.0526 131.318 95.8809 130.054 96.5778C127.168 98.1682 123.363 98.5332 119.224 98.2467C116.563 98.0625 113.65 97.5984 110.57 96.9342C109.539 97.4351 108.527 97.8918 107.539 98.2955C103.688 99.87 99.8875 100.796 96.7746 100.218C95.1566 99.9181 93.6768 99.2015 92.5343 97.9332C92.025 97.3677 91.6114 96.7228 91.2843 96.0094C91.2833 96.1891 91.2806 96.3633 91.2726 96.5319C91.2232 97.5738 91.0301 98.6749 90.4279 99.5446C89.702 100.593 88.5918 101.019 87.464 100.937C86.5049 100.867 85.5826 100.442 84.8 99.983C83.2017 99.0461 81.29 97.4176 79.2355 95.5436C77.179 93.6678 74.7377 91.3172 72.215 88.9791C71.7262 88.5261 71.2301 88.0708 70.7287 87.6139C69.8916 87.6944 69.062 87.7694 68.2404 87.8307C67.9994 87.8487 67.7587 87.8623 67.5187 87.8785C68.0396 91.1435 68.845 94.6002 69.9318 98.2575C70.2464 99.3162 69.6438 100.43 68.5851 100.745C67.5263 101.059 66.4125 100.456 66.0978 99.3971C64.9266 95.456 64.052 91.6803 63.5002 88.0709C59.2896 88.1754 55.2993 87.9555 51.6818 87.276C51.8683 87.4548 52.0563 87.6277 52.2443 87.7946C53.0702 88.5277 53.1452 89.7917 52.4123 90.6178C51.6792 91.4438 50.4152 91.5197 49.589 90.7868C47.8352 89.2308 46.2157 87.3057 44.7492 85.1549C42.4118 84.087 40.3517 82.6836 38.6544 80.8922C38.4617 81.505 37.9776 82.0138 37.3156 82.2106C36.2568 82.5252 35.143 81.9226 34.8283 80.8639C34.3394 79.2189 34.1581 77.6578 34.4679 76.2594C34.5479 75.8985 34.659 75.5574 34.799 75.2369C34.2678 75.6301 33.8608 76.0531 33.5636 76.4996C32.842 77.5838 32.5258 79.1835 33.2892 81.7526L29.4543 82.8922L29.1291 81.7623C25.8907 70.1589 26.5398 60.7089 30.5675 52.7701C30.6014 52.7034 30.6367 52.6374 30.6711 52.5709C30.3265 52.4515 30.0033 52.3263 29.7033 52.192C28.0265 51.4414 26.473 50.1628 26.422 48.11C26.3778 46.3245 27.5502 44.7999 28.7179 43.6627C29.9779 42.4357 31.7218 41.1943 33.7296 39.9684C40.9512 35.5591 52.8148 30.6366 62.716 26.7907C61.9419 26.0314 61.289 25.2579 60.8029 24.4694C59.796 22.8361 59.3807 20.8883 60.4162 18.9967C60.9954 17.7299 62.2843 16.7966 63.631 16.0543C66.884 14.2614 71.324 14.0164 76.1564 14.5358C78.3381 14.7703 80.671 15.1701 83.1134 15.6969C84.8524 14.8525 86.5412 14.1348 88.1476 13.5778C91.5601 12.3945 94.9425 11.8104 97.7248 12.6032C99.1702 13.0151 100.451 13.7999 101.428 15.027C101.812 15.5095 102.134 16.0426 102.399 16.6198C102.4 16.4408 102.403 16.2671 102.411 16.0993C102.461 15.0576 102.654 13.9571 103.256 13.0875C103.982 12.0392 105.092 11.612 106.22 11.694ZM78.298 86.6832C77.5167 86.7984 76.739 86.9061 75.966 87.0094C78.1737 89.0727 80.1314 90.9473 81.9308 92.5885C84.0081 94.4832 85.6343 95.8364 86.8224 96.5328C86.9798 96.6251 87.12 96.6981 87.2423 96.7575C87.2563 96.6425 87.2698 96.5051 87.2775 96.3424C87.3126 95.6015 87.2502 94.5485 87.0451 93.109C86.8761 91.9229 86.7956 90.8048 86.8019 89.7545C83.9606 88.7495 81.1127 87.7126 78.298 86.6832ZM94.425 92.5446C94.6183 93.9016 95.0389 94.7368 95.507 95.2565C95.9632 95.7629 96.5969 96.1174 97.5041 96.2858C99.0878 96.5796 101.314 96.2669 104.084 95.3219C100.963 94.4594 97.7117 93.4522 94.3986 92.358C94.4074 92.42 94.4161 92.4822 94.425 92.5446ZM122.453 89.8512C120.367 91.289 118.26 92.6539 116.176 93.8922C117.335 94.0591 118.444 94.1824 119.5 94.2555C123.371 94.5234 126.244 94.1091 128.122 93.0739C128.663 92.7757 129.038 92.5 129.298 92.2633C129.066 92.1052 128.713 91.9016 128.194 91.6666C127.269 91.2485 126.023 90.8201 124.469 90.3815C123.836 90.2028 123.162 90.0278 122.453 89.8512ZM151.544 77.1295C150.665 77.5502 149.766 77.9713 148.853 78.3893C148.184 78.6951 147.507 78.9991 146.823 79.3034C146.827 81.7653 146.851 84.0574 146.915 86.108C147.013 89.2171 147.2 91.6069 147.496 93.1627C147.79 92.6806 148.131 92.0591 148.518 91.2731C149.271 89.7434 150.149 87.701 151.165 85.069C152.851 80.7053 152.494 78.4306 151.62 77.2252C151.597 77.1925 151.569 77.1618 151.544 77.1295ZM102.965 85.9879C101.613 87.0319 99.9859 87.937 98.0548 88.6881C97.7318 88.8138 97.4073 88.9245 97.0841 89.0289C100.2 90.0391 103.242 90.962 106.155 91.7438C107.49 92.1018 108.791 92.427 110.055 92.7194C110.378 92.5531 110.704 92.3828 111.031 92.2076C110.982 92.1559 110.935 92.1006 110.891 92.0426C110.218 91.1665 110.383 89.9106 111.259 89.2379L111.473 89.0914C111.693 88.9553 111.92 88.8524 112.042 88.7965C112.281 88.6878 112.579 88.5627 112.917 88.4254C113.213 88.3054 113.555 88.1716 113.938 88.0231C112.262 87.699 110.5 87.3699 108.669 87.0328C107.687 87.785 107.04 88.2678 106.855 88.4098C105.979 89.0824 104.724 88.9177 104.051 88.0416C103.618 87.4771 103.533 86.7556 103.761 86.1334C103.497 86.0851 103.231 86.0367 102.965 85.9879ZM93.3205 84.1715C93.3753 84.6736 93.4368 85.1987 93.5041 85.7487C94.551 85.6145 95.5851 85.3562 96.6046 84.9596C96.692 84.9256 96.778 84.8896 96.8634 84.8551C96.8543 84.8534 96.8452 84.852 96.8361 84.8502C95.6724 84.6298 94.4993 84.4026 93.3205 84.1715ZM113.996 82.778C113.598 83.1097 113.21 83.4313 112.832 83.7399C115.762 84.2941 118.494 84.838 120.928 85.3834C121.532 85.1567 122.159 84.9201 122.811 84.6744C122.025 84.1743 121.19 83.6639 120.31 83.1451C118.176 83.0645 116.056 82.9268 113.996 82.778ZM87.5793 85.1061C87.4646 85.1278 87.3501 85.15 87.2355 85.1715C87.3321 85.1996 87.4282 85.2281 87.5246 85.2545C87.5425 85.2048 87.5607 85.1553 87.5793 85.1061ZM44.2287 75.942C45.1765 78.0773 46.2495 80.1049 47.423 81.9459C51.5735 83.5814 56.8833 84.1997 63.0177 84.0778C62.9296 83.07 62.8696 82.0762 62.838 81.0963C55.9097 78.6879 49.8107 76.8061 45.2316 76.0836C44.8854 76.029 44.5507 75.9822 44.2287 75.942ZM106.339 82.2565C106.288 82.3413 106.234 82.4253 106.181 82.5094C106.668 82.5984 107.153 82.687 107.634 82.775C107.804 82.6417 107.98 82.5043 108.16 82.3619C108.067 82.356 107.974 82.3491 107.881 82.3434C107.358 82.311 106.844 82.2821 106.339 82.2565ZM78.9836 81.0397C79.3193 81.2702 79.6559 81.4947 79.9933 81.7125C80.2734 81.8933 80.5538 82.0685 80.8332 82.2389C81.4497 82.1378 82.0686 82.0336 82.6896 81.9264C81.4456 81.6401 80.209 81.3438 78.9836 81.0397ZM66.8586 77.5123C66.8468 77.76 66.8375 78.009 66.8302 78.2594C68.152 78.729 69.4915 79.2121 70.8439 79.7028C70.337 79.255 69.8357 78.7992 69.339 78.3385C68.498 78.0696 67.6706 77.7943 66.8586 77.5123ZM100.726 72.8053C100.41 72.8559 100.091 72.9048 99.7697 72.9498C98.513 73.1259 97.2036 73.2614 95.8517 73.3639C95.4593 73.6054 95.1195 73.8403 94.8234 74.0826C93.9652 74.7849 93.4805 75.5271 93.2189 76.7233C93.055 77.4729 92.9809 78.4054 92.9962 79.6168C94.4843 78.9826 96.1352 78.6114 97.841 78.4C98.9392 78.264 100.097 78.1907 101.298 78.1618C102.199 77.9619 103.1 77.7606 103.998 77.5592C104.12 77.0753 104.214 76.5759 104.277 76.0602C104.334 75.6028 104.368 75.1385 104.384 74.6676C103.571 74.2541 102.749 73.8362 101.92 73.4147C101.523 73.2128 101.125 73.0089 100.726 72.8053ZM126.194 76.8414C125.402 76.9939 124.597 77.1522 123.78 77.317C122.432 77.5892 121.064 77.8769 119.676 78.1735C120.283 78.5129 120.876 78.8491 121.454 79.1832C123.771 79.2508 126.065 79.2365 128.298 79.0709C127.641 78.4136 126.936 77.6612 126.194 76.8414ZM69.4709 72.9118C70.1084 73.549 70.7544 74.1783 71.4074 74.7965C75.9226 76.2018 80.8475 77.4341 85.8869 78.5455C85.0875 76.8253 84.2461 75.1676 83.3976 73.5592C78.8636 73.4392 74.1269 73.174 69.4709 72.9118ZM132.144 75.7916C131.727 75.8573 131.306 75.9248 130.88 75.9957C131.117 76.237 131.342 76.4629 131.559 76.6705C131.792 76.8938 132.005 77.087 132.196 77.2545C132.215 77.2384 132.233 77.2218 132.252 77.2057C132.238 76.8067 132.203 76.3379 132.144 75.7916ZM142.126 74.7701C141.669 74.7803 141.2 74.7968 140.72 74.8219C140.158 75.3811 139.573 75.9496 138.967 76.5241C139.266 76.3792 139.56 76.229 139.849 76.07C140.626 75.6413 141.385 75.2072 142.126 74.7701ZM90.1154 73.609C89.3952 73.6201 88.6679 73.6253 87.9347 73.6246C88.3721 74.4862 88.806 75.3671 89.2316 76.2662C89.2561 76.1315 89.2831 75.9985 89.3117 75.8678C89.4949 75.0303 89.7627 74.2844 90.1154 73.609ZM39.8849 75.9547C39.888 75.9597 39.8916 75.9644 39.8947 75.9694C39.8926 75.9642 39.8909 75.9589 39.8888 75.9537C39.8875 75.954 39.8862 75.9544 39.8849 75.9547ZM112.351 68.2887C111.508 68.9037 110.571 69.4981 109.533 70.07C109.1 70.3088 108.647 70.5293 108.18 70.7379C108.235 71.2187 108.282 71.7002 108.317 72.1813C110.36 73.223 112.357 74.2489 114.277 75.2565C115.275 75.0353 116.264 74.8176 117.243 74.6051C118.512 73.4226 119.781 72.1869 121.002 70.9225C120.414 70.2501 119.811 69.5635 119.193 68.8678C116.961 68.748 114.677 68.5522 112.351 68.2887ZM129.385 68.7897C128.978 68.8226 128.568 68.8516 128.156 68.8766C127.965 69.116 127.772 69.3566 127.575 69.5944C127.187 70.0641 126.784 70.5307 126.373 70.9977C126.823 71.5148 127.259 72.0133 127.679 72.4918C128.875 72.2745 130.049 72.075 131.198 71.8912C130.758 70.8833 130.155 69.849 129.385 68.7897ZM160.899 63.5924C158.875 66.5493 156.362 69.2397 153.432 71.7243C154.736 71.0481 155.956 70.383 157.068 69.7301C159.871 68.0834 161.795 66.6393 162.74 65.4967C163.116 65.0428 163.222 64.7697 163.251 64.6637C163.231 64.6404 163.201 64.6057 163.152 64.5641C162.877 64.3266 162.262 63.9782 161.065 63.6373C161.01 63.6219 160.955 63.6077 160.899 63.5924ZM142.878 65.7067C142.488 65.8304 142.043 65.9867 141.54 66.1823C139.12 67.1237 136.532 67.7966 133.813 68.2496C134.403 69.2467 134.896 70.266 135.269 71.3082C136.536 71.1507 137.762 71.0225 138.942 70.9303C140.639 69.176 141.979 67.6139 142.875 66.3532C142.876 66.1378 142.878 65.9223 142.878 65.7067ZM146.878 61.9655C147.252 62.2449 147.559 62.6155 147.761 63.07C148.011 63.6348 148.044 64.2009 147.999 64.6666C147.915 65.5499 147.519 66.432 147.083 67.2018C147.017 67.319 146.945 67.4376 146.871 67.5592C146.866 68.711 146.861 69.8529 146.854 70.9791C147.153 71.0167 147.448 71.0592 147.74 71.108C151.26 68.5477 154.196 65.8145 156.503 62.8346L154.621 62.6295C152.092 62.3394 149.506 61.9717 146.877 61.5455C146.878 61.6855 146.878 61.8255 146.878 61.9655ZM34.7091 53.5104C34.5104 53.8637 34.3177 54.2195 34.1349 54.5797C31.8078 59.1665 30.7153 64.4523 31.1701 70.7321C31.8349 70.2782 32.7076 69.7045 33.6632 69.0739C33.3651 65.9363 33.5678 62.3946 34.2912 58.4235C34.6025 56.7142 34.9357 55.105 35.2853 53.5914C35.0901 53.5643 34.8977 53.5394 34.7091 53.5104ZM88.2043 66.2584C87.9655 66.4358 87.7287 66.5509 87.547 66.6246C86.8265 66.9172 85.8896 67.0016 84.9416 67.026C84.7802 67.0302 84.6113 67.0292 84.4347 67.0299C84.8844 67.864 85.3481 68.7256 85.8244 69.61C86.3832 69.618 86.9387 69.6244 87.4904 69.6266C89.8404 69.6359 92.0955 69.5853 94.2228 69.4616C92.2098 68.4121 90.1955 67.3431 88.2043 66.2584ZM69.6086 65.5768C69.124 66.6359 68.7065 67.7245 68.3517 68.8424C72.6647 69.0845 77.002 69.3396 81.213 69.4909C80.7257 68.5883 80.2476 67.6985 79.7873 66.818C78.2119 66.6991 76.3495 66.532 74.1642 66.3082C72.4987 66.1377 70.9815 65.8924 69.6086 65.5768ZM50.216 57.8981C50.2113 57.9403 50.203 57.982 50.1974 58.0241C50.2254 58.6771 50.3046 59.505 50.4513 60.5348C50.7803 62.8433 52.2455 65.0465 54.9377 67.1696C55.4236 67.5528 55.9451 67.9275 56.4982 68.2965C57.5919 68.3268 58.6975 68.3662 59.8107 68.4118C57.856 66.2019 56.0384 64.0838 54.4865 62.3239C52.7206 60.3213 51.2997 58.7941 50.2189 57.8571C50.2175 57.8707 50.2175 57.8845 50.216 57.8981ZM47.132 63.5612C45.7042 65.1238 43.9158 66.6502 42.1173 68.0309C42.0179 68.1072 41.9173 68.1818 41.8175 68.2575C43.2366 68.1515 44.656 68.2065 46.0685 68.3951C47.3935 68.3128 48.7687 68.2664 50.1828 68.2448C48.845 66.8363 47.7886 65.2806 47.132 63.5612ZM54.6427 56.568C55.5286 57.4837 56.4847 58.5423 57.4865 59.6784C59.4198 61.8708 61.5471 64.3715 63.9455 67.0455C64.1365 67.2585 64.3302 67.4714 64.5236 67.6852C64.8844 66.5416 65.3023 65.4285 65.7785 64.3453C64.8697 63.9462 64.0618 63.4956 63.3556 62.9869C61.3555 61.5464 60.2335 59.7062 59.8761 57.6461C58.1189 57.2724 56.3737 56.9104 54.6427 56.568ZM98.8966 67.3737C99.1318 67.2655 99.3714 67.1545 99.6164 67.0416C98.7444 66.8836 97.8784 66.6692 97.0197 66.4049C97.6452 66.7294 98.2713 67.0519 98.8966 67.3737ZM119.582 59.6891C118.973 60.2433 118.338 60.7845 117.679 61.3141C118.844 62.5304 119.97 63.7511 121.051 64.9489C122.748 65.0091 124.4 65.0167 126.004 64.9684C124.189 63.2125 122.024 61.4511 119.582 59.6891ZM133.617 59.0338C133.336 60.2104 132.886 61.3816 132.33 62.5192C131.995 63.2057 131.612 63.8953 131.194 64.5866C134.437 64.1889 137.413 63.4961 140.09 62.4547C141.124 62.0524 142.055 61.7493 142.877 61.5582C142.876 61.3251 142.876 61.092 142.875 60.859C139.829 60.3089 136.736 59.6918 133.617 59.0338ZM39.7765 54.1676C39.5657 57.2286 39.8455 60.6702 40.5285 64.192C41.9852 63.0286 43.3093 61.8449 44.3302 60.6998C45.4426 59.4522 46.011 58.4555 46.1886 57.7389C46.1858 57.5549 46.1844 57.3772 46.1886 57.2067C46.1908 57.1184 46.195 57.0288 46.1994 56.9381C46.1756 56.8632 46.1453 56.7918 46.1056 56.7223C45.9733 56.4909 45.6818 56.1512 45.0363 55.7701C44.02 55.1702 42.3502 54.5969 39.7765 54.1676ZM105.77 55.7858C105.765 55.9844 105.765 56.1904 105.771 56.4039C105.813 58.1082 106.161 60.0701 106.618 62.2877C106.655 62.4661 106.693 62.646 106.732 62.8278C107.103 62.7197 107.475 62.597 107.843 62.4537C109.392 61.8511 110.567 61.27 111.449 60.7321C109.603 58.9627 107.704 57.2845 105.77 55.7858ZM91.0373 49.8034C91.4451 51.8012 91.8019 53.8046 91.8937 55.6471C91.957 56.9166 91.8987 58.2108 91.6134 59.4489C92.2229 59.8325 92.8301 60.1922 93.4357 60.525C94.1122 59.4646 94.7989 57.8264 95.3849 55.3248C95.6368 54.2494 96.7128 53.5817 97.7882 53.8336C98.8636 54.0856 99.5313 55.1616 99.2794 56.2369C98.7683 58.419 98.1208 60.3017 97.3009 61.8346C99.1004 62.1872 100.883 62.5204 102.646 62.8278C102.209 60.6926 101.823 58.5175 101.773 56.5045C101.745 55.3927 101.818 54.2671 102.069 53.1823C101.723 52.965 101.379 52.7528 101.032 52.5504C100.18 52.0523 99.3306 51.6071 98.4875 51.2145C95.9694 50.7039 93.4828 50.2299 91.0373 49.8034ZM72.6144 60.4918C72.269 60.9582 71.9409 61.4319 71.6281 61.9118C72.5148 62.0764 73.4931 62.2183 74.5714 62.3287C75.7054 62.4448 76.7489 62.5173 77.7082 62.5534C77.5636 62.2235 77.425 61.8949 77.2921 61.568C75.7317 61.2088 74.1717 60.85 72.6144 60.4918ZM122.611 56.5993C122.55 56.6697 122.489 56.7401 122.427 56.8102C124.564 58.3759 126.542 59.9795 128.289 61.6198C128.448 61.3309 128.598 61.0457 128.736 60.7633C129.192 59.8285 129.512 58.9705 129.706 58.191C127.348 57.6739 124.98 57.1405 122.611 56.5993ZM64.5587 58.6637C64.8468 59.0407 65.2199 59.3997 65.6935 59.7409C66.205 60.1092 66.8402 60.4597 67.6173 60.7828C67.8703 60.3602 68.1313 59.9414 68.4044 59.5289C67.1196 59.2373 65.8376 58.9476 64.5587 58.6637ZM162.514 41.8981C161.679 42.4678 160.515 43.2238 159.275 44.0494C157.646 45.1328 155.782 46.4086 154.003 47.7741C152.214 49.1473 150.57 50.5684 149.354 51.9323C148.242 53.1796 147.673 54.1756 147.495 54.8922C147.499 55.1568 147.498 55.4079 147.487 55.6451C147.487 55.6617 147.484 55.6782 147.484 55.695C147.507 55.7696 147.539 55.8405 147.578 55.9098C147.711 56.1413 148.003 56.4799 148.649 56.861C149.989 57.6521 152.465 58.3981 156.652 58.8268C157.479 58.9114 158.253 59.0086 158.975 59.1198C159.173 58.7666 159.366 58.4114 159.549 58.0514C161.876 53.4642 162.969 48.1785 162.514 41.8981ZM80.1046 55.4176C81.5272 56.7766 82.8846 58.0006 84.1711 59.0338C84.2036 59.0412 84.2361 59.0489 84.2687 59.0563C82.8367 57.8895 81.4375 56.6494 80.0793 55.3707C80.0871 55.3865 80.0964 55.4016 80.1046 55.4176ZM109.414 53.5758C110.848 54.7439 112.247 55.9825 113.601 57.2575C113.366 56.7881 112.946 56.2271 112.288 55.5846C111.632 54.9433 110.847 54.3189 110.02 53.7125C109.818 53.6668 109.616 53.6214 109.414 53.5758ZM86.9513 49.8004C86.5812 49.9083 86.2116 50.0346 85.8419 50.1784C84.2945 50.7803 83.1175 51.3591 82.2336 51.8981C84.0737 53.6619 85.9727 55.3413 87.9123 56.8444C87.9191 56.5302 87.9161 56.1979 87.8986 55.8463C87.809 54.0491 87.4203 52.0381 86.9513 49.8004ZM129.161 44.9469C128.801 46.0884 128.383 47.2013 127.906 48.2858C128.551 48.5688 129.144 48.8772 129.686 49.2145C132.029 50.6745 133.404 52.65 133.809 54.9879C135.565 55.3617 137.311 55.7212 139.044 56.0641C137.82 54.7987 136.441 53.2392 134.965 51.5455C133.203 49.5233 131.26 47.2673 129.161 44.9469ZM65.3947 51.0094C64.7176 52.2413 64.2371 53.3913 63.9757 54.4381C66.3317 54.9552 68.7 55.49 71.0705 56.0319C71.132 55.9612 71.1957 55.8923 71.258 55.8219C69.1172 54.2535 67.1404 52.648 65.3947 51.0094ZM133.876 44.2184C135.348 45.8826 136.725 47.4767 137.981 48.9176C139.906 51.127 141.507 52.9249 142.778 54.1461C142.744 52.7687 142.701 51.412 142.643 50.0856C141.748 48.087 139.938 46.1718 137.179 44.3326C136.092 44.3027 134.99 44.264 133.876 44.2184ZM126.067 51.8473C125.813 52.2703 125.551 52.689 125.277 53.1022C126.564 53.3944 127.847 53.6823 129.126 53.9664C128.765 53.493 128.26 53.0386 127.57 52.609C127.142 52.342 126.643 52.0869 126.067 51.8473ZM48.0314 43.3014C46.1605 43.3489 44.7487 43.8826 43.6877 44.6715C42.1818 45.7912 41.0657 47.6496 40.4035 50.1608C46.7249 50.9449 53.3445 52.1784 60.0656 53.5973C60.5061 51.7589 61.3768 49.8843 62.4933 48.0416C59.2579 48.4381 56.2792 49.1328 53.5939 50.1774C52.0078 50.7943 50.6391 51.1892 49.5246 51.2877C48.5606 51.3729 46.9208 51.2957 46.0685 49.8444C45.6745 49.1734 45.63 48.4666 45.6906 47.9127C45.7509 47.3612 45.928 46.8302 46.1349 46.3551C46.5458 45.4121 47.218 44.3722 48.0314 43.3014ZM115.974 50.0778C116.118 50.406 116.257 50.7339 116.391 51.0621C117.952 51.4215 119.512 51.781 121.069 52.1393C121.415 51.6728 121.744 51.1992 122.058 50.7184C121.17 50.5535 120.191 50.4127 119.112 50.3024C117.975 50.1859 116.931 50.1136 115.974 50.0778ZM72.38 47.6744C73.5988 48.9055 74.8068 50.1408 75.9836 51.3346C75.9902 51.3292 75.9974 51.3244 76.0041 51.319C74.8354 50.0992 73.7093 48.8774 72.631 47.6823C72.5472 47.6793 72.4636 47.6772 72.38 47.6744ZM39.5334 41.2809C38.1882 41.9926 36.9393 42.6948 35.8146 43.3815C33.9112 44.5436 32.4574 45.6053 31.5089 46.5289C30.6551 47.3605 30.4708 47.8293 30.4318 47.9674C30.5091 48.0657 30.7354 48.2719 31.338 48.5416C31.7225 48.7137 32.2015 48.8782 32.7843 49.0368C34.5845 46.407 36.7729 43.9888 39.2961 41.7379C39.3747 41.5833 39.4537 41.4309 39.5334 41.2809ZM147.617 44.235C147.182 44.2621 146.741 44.2863 146.295 44.3063C146.419 45.821 146.519 47.3986 146.598 49.0211C148.018 47.4759 149.787 45.9673 151.567 44.6012C151.666 44.5245 151.767 44.4487 151.867 44.3727C150.449 44.4787 149.03 44.4236 147.617 44.235ZM52.6379 43.986C52.1098 44.5936 51.638 45.1675 51.2306 45.7028C50.8318 46.2269 50.5146 46.6877 50.2707 47.0826C50.7687 46.9466 51.388 46.7428 52.1437 46.4489C53.4173 45.9535 54.739 45.5332 56.1027 45.1784C55.5996 45.0119 55.1 44.8349 54.6046 44.6471C53.9163 44.3862 53.2613 44.1667 52.6379 43.986ZM112.478 43.1432C112.964 44.0439 113.437 44.9329 113.895 45.8102C115.475 45.9294 117.339 46.1006 119.52 46.3239C121.187 46.4946 122.705 46.7361 124.076 47.0514C124.559 45.9948 124.978 44.9073 125.333 43.7877C121.002 43.5453 116.66 43.2944 112.478 43.1432ZM107.853 43.0231C104.912 42.9803 102.089 43.0115 99.4494 43.1657C101.466 44.2168 103.485 45.2849 105.481 46.3717C105.821 46.1188 106.179 45.9793 106.454 45.8951C106.782 45.7949 107.132 45.7319 107.478 45.6901C107.974 45.6301 108.562 45.6023 109.24 45.5993C108.791 44.7663 108.328 43.9059 107.853 43.0231ZM94.0666 45.5885C94.9361 45.7456 95.7991 45.9597 96.6544 46.2223C96.0323 45.8996 95.4113 45.5756 94.7892 45.2555C94.5533 45.364 94.3126 45.4752 94.0666 45.5885ZM77.9796 36.6178C76.2005 38.2206 74.3893 39.9387 72.6808 41.7076C73.1338 42.2258 73.5984 42.7521 74.0724 43.2877C77.8077 43.1012 81.6392 42.5943 85.4962 41.8629C85.442 41.3926 85.3965 40.9205 85.3625 40.4479C82.801 39.1415 80.3193 37.8612 77.9796 36.6178ZM61.4298 35.4254C61.4534 36.0774 61.5326 36.9111 61.6798 37.9567C63.3919 39.229 65.0996 40.6897 66.7843 42.236C66.9567 42.0348 67.1308 41.8338 67.3068 41.6334C66.7534 40.9974 66.2262 40.3877 65.7238 39.818C63.9744 37.8342 62.5635 36.3168 61.4865 35.3776C61.4678 35.3937 61.4485 35.4093 61.4298 35.4254ZM56.9093 39.5416C56.4765 39.9582 56.0591 40.3694 55.6564 40.7721C55.7778 40.8165 55.9003 40.8605 56.0226 40.9069C56.8582 41.2237 57.7109 41.5058 58.5783 41.7575C58.3909 41.279 58.2267 40.7967 58.091 40.3092C57.6941 40.0385 57.3004 39.7818 56.9093 39.5416ZM100.69 33.0123C98.9715 33.7452 97.023 34.1333 94.9865 34.3239C93.3729 34.4749 91.6468 34.5061 89.8546 34.4694C89.5105 35.5541 89.3416 36.7214 89.3019 37.9655C90.5062 38.5778 91.729 39.1992 92.9591 39.8258C93.8634 39.6811 94.7996 39.5592 95.7638 39.4567C96.7802 39.1784 97.7941 38.8912 98.8039 38.5953C99.1091 38.3508 99.3623 38.1074 99.5744 37.8502C100.284 36.99 100.724 35.7506 100.69 33.0123ZM117.759 36.5201C115.411 37.3552 112.961 38.2194 110.444 39.0768C114.964 39.1983 119.636 39.4587 124.211 39.7174C123.575 39.0814 122.93 38.4524 122.277 37.8346C120.81 37.378 119.301 36.9417 117.759 36.5201ZM52.2072 37.4801C51.1595 38.0858 50.1475 38.7001 49.172 39.3239C49.8437 39.3619 50.5365 39.4431 51.2502 39.566C51.8183 38.9642 52.4221 38.3437 53.0597 37.7106C52.7698 37.6195 52.4858 37.5427 52.2072 37.4801ZM69.4894 33.4098C68.0932 33.4153 66.7236 33.4628 65.3888 33.5612C66.4093 34.5818 67.5338 35.8231 68.7238 37.1725C69.154 37.6604 69.5908 38.1663 70.0412 38.6832C71.4199 37.2665 72.8486 35.8961 74.258 34.5983C73.5636 34.2116 72.8853 33.8281 72.2257 33.4469C71.3143 33.421 70.4018 33.4062 69.4894 33.4098ZM104.449 36.3639C104.417 36.541 104.381 36.7151 104.342 36.8864C104.445 36.8533 104.547 36.8199 104.65 36.7868C104.582 36.6464 104.516 36.5053 104.449 36.3639ZM81.5978 34.0055C82.8463 34.6591 84.1322 35.3239 85.4484 35.9987C85.5221 35.4248 85.6246 34.8543 85.7589 34.2897C84.3853 34.2066 82.9968 34.1093 81.5978 34.0055ZM107.795 34.0846C108.02 34.568 108.25 35.0466 108.482 35.5211C109.24 35.2646 109.991 35.0068 110.736 34.7496C109.761 34.5226 108.78 34.3018 107.795 34.0846ZM124.955 33.9694C124.726 34.0495 124.495 34.1318 124.262 34.2135C124.291 34.2404 124.32 34.2676 124.349 34.2946C125.187 34.5628 126.014 34.8369 126.825 35.1188C126.837 34.8708 126.846 34.6215 126.854 34.3707C126.354 34.1933 125.852 34.0146 125.347 33.8336C125.217 33.8788 125.086 33.9236 124.955 33.9694ZM138.709 30.5358C138.381 30.2631 138.096 30.1863 137.712 30.2477C135.994 30.5224 133.932 31.0579 131.561 31.7819C134.874 32.9249 137.97 33.9323 140.78 34.7428C140.561 33.9583 140.325 33.2559 140.066 32.6442C139.589 31.5195 139.11 30.8685 138.709 30.5358ZM106.06 27.6403C105.912 28.0182 105.743 28.3761 105.559 28.7174C105.663 29.006 105.771 29.2925 105.879 29.5778C108.843 30.2028 111.801 30.8703 114.692 31.5875C112.917 30.3692 111.127 29.328 109.337 28.5289C108.268 28.0516 107.207 27.6634 106.156 27.3746C106.124 27.4634 106.094 27.553 106.06 27.6403ZM85.5246 30.2692C86.1269 30.3077 86.7176 30.3441 87.2951 30.3737C87.3107 30.3745 87.3263 30.3748 87.3419 30.3756C87.3937 30.2902 87.4471 30.2055 87.5011 30.1207C87.0153 30.032 86.5321 29.9442 86.0509 29.8561C85.8807 29.9894 85.7048 30.1268 85.5246 30.2692ZM70.8683 27.9557C71.6531 28.455 72.4904 28.964 73.3742 29.485C75.4912 29.5663 77.6139 29.7055 79.6818 29.8541C80.0818 29.5211 80.4725 29.1992 80.8517 28.8893C77.9206 28.3352 75.1866 27.7937 72.7511 27.2477C72.1439 27.4756 71.5154 27.7116 70.8683 27.9557ZM100.178 26.8805C99.1328 27.015 98.0995 27.2747 97.0793 27.6715C96.9907 27.7059 96.904 27.743 96.8175 27.778C97.9909 28.0002 99.1737 28.2258 100.361 28.4586C100.307 27.9574 100.245 27.4319 100.178 26.8805ZM106.441 15.8737C106.427 15.9886 106.414 16.1259 106.406 16.2887C106.371 17.0296 106.435 18.0825 106.64 19.5221C106.809 20.7099 106.89 21.8285 106.884 22.8785C111.221 24.4125 115.582 26.0174 119.816 27.568C119.456 27.2385 119.102 26.9103 118.751 26.5856C116.113 24.1409 113.828 21.9356 111.753 20.0426C109.676 18.1481 108.049 16.7957 106.861 16.0993C106.704 16.0067 106.563 15.9331 106.441 15.8737ZM83.6281 19.9108C83.3046 20.0771 82.979 20.2482 82.6515 20.4235C82.7012 20.4755 82.7493 20.5301 82.7941 20.5885C83.4667 21.4646 83.3011 22.7206 82.425 23.3932C82.1877 23.5753 81.9118 23.7078 81.7853 23.7682C81.6052 23.8541 81.3899 23.9478 81.1544 24.0465C80.779 24.2039 80.3042 24.3909 79.7502 24.6061C81.4249 24.9301 83.1857 25.2603 85.0158 25.5973C85.9889 24.8518 86.6893 24.3288 86.8293 24.2213C87.7054 23.5487 88.9613 23.7134 89.6339 24.5895C90.0672 25.1538 90.1499 25.8748 89.922 26.4967C90.1868 26.5451 90.4522 26.5935 90.7179 26.6422C92.0731 25.5959 93.7011 24.6939 95.6291 23.944C95.9505 23.8189 96.2721 23.7042 96.5939 23.6002C94.8899 23.0481 93.2069 22.5199 91.5519 22.028C88.7935 21.208 86.139 20.4917 83.6281 19.9108ZM75.7296 18.5133C71.1067 18.0164 67.7016 18.3778 65.5617 19.5573C65.0209 19.8553 64.6448 20.1301 64.3849 20.3668C64.5933 20.5092 64.8978 20.6875 65.3312 20.8912C66.6552 21.5136 68.6477 22.1369 71.2267 22.7789C73.3103 21.3425 75.4208 19.9786 77.5089 18.7379C76.9026 18.6506 76.3092 18.5756 75.7296 18.5133ZM96.6281 16.4498C95.0808 16.009 92.7217 16.2442 89.6027 17.3082C90.6215 17.5898 91.6522 17.885 92.6916 18.194C94.8434 18.8336 97.0482 19.5325 99.2843 20.2711C99.2756 20.2099 99.2677 20.1483 99.2589 20.0866C99.082 18.8451 98.7151 18.0409 98.299 17.5182C97.8959 17.0119 97.3591 16.6581 96.6281 16.4498Z" fill="#F9CB8A"/>
<path d="M48.9474 58.1532C42.1053 63.9426 25.2632 70.7847 25.2632 54.9953C43.9672 51.5011 22.1053 33.1576 61.0526 39.4737C67.8354 33.3075 58.421 26.3154 81.0526 24.2105C86.6022 19.8942 95.2632 13.9423 104.737 19.2058C111.109 28.044 141.579 21.5789 140 41.0526C138.421 46.8421 151.579 39.4737 164.737 54.9953C167.895 69.2058 147.736 60.4485 136.842 63.9426C123.482 63.1205 133.684 90.5263 108.421 76.3158C96.9109 76.3158 90 87.8947 72.6316 72.6316C64.7368 76.3158 58.9474 71.3111 48.9474 58.1532Z" fill="#DE3C3C"/>
<path d="M48.9474 57.8552C42.1053 63.6446 25.2632 70.4867 25.2632 54.6973C34.5124 55.9305 31.5789 62.1053 48.9474 57.8552C58.1966 62.1869 66.3158 73.3899 72.6316 68.9474C78.9474 64.5048 90 69.9303 104.737 72.3336C119.474 74.7368 124.211 67.8947 134.211 62.1053C144.211 56.3158 152.816 57.5903 164.737 54.6973C167.895 68.9078 147.736 60.1505 136.842 63.6446C123.482 62.8225 133.684 90.2283 108.421 76.0178C96.9109 76.0178 90 87.5967 72.6316 72.3336C64.7368 76.0178 58.9474 71.0131 48.9474 57.8552Z" fill="#C71E1E"/>
<path d="M55.4368 60.3408C56.1923 60.2328 56.6756 60.6885 56.7423 61.0669C56.8088 61.4454 56.5059 62.0127 55.7507 62.1209C54.9952 62.2291 54.5114 61.7743 54.4444 61.3959L53.4545 61.5376L53.4999 61.7273C53.7577 62.5951 54.681 63.1818 55.7032 63.1275L55.9244 63.1057C57.1052 62.9365 57.9146 61.9606 57.7322 60.9252L57.6877 60.7344C57.4113 59.8047 56.3703 59.1976 55.2632 59.356C54.082 59.5251 53.2719 60.502 53.4545 61.5376L54.4444 61.3959C54.3777 61.0174 54.6811 60.449 55.4368 60.3408ZM52.6763 38.8842C53.4319 38.7761 53.915 39.2319 53.9817 39.6103C54.0483 39.9888 53.7458 40.5571 52.9903 40.6653C52.2348 40.7735 51.7518 40.3176 51.6848 39.9392L50.6949 40.0809C50.8777 41.1163 51.9829 41.8192 53.164 41.6501C54.345 41.481 55.154 40.5041 54.9716 39.4686L54.9271 39.2778C54.6507 38.3481 53.6098 37.7409 52.5026 37.8994C51.3214 38.0685 50.5123 39.0452 50.6949 40.0809L51.6848 39.9392C51.6181 39.5606 51.9206 38.9924 52.6763 38.8842ZM64.6276 19.439C65.3829 19.3309 65.8659 19.7858 65.9329 20.1642C65.9996 20.5427 65.6971 21.111 64.9415 21.2192C64.1858 21.3274 63.7027 20.8715 63.636 20.493L62.6461 20.6348L62.6906 20.8256C62.9486 21.6935 63.8725 22.2802 64.895 22.2257L65.1151 22.204C66.2963 22.0349 67.1054 21.0581 66.9228 20.0225L66.8784 19.8327C66.6021 18.9028 65.5612 18.2957 64.4539 18.4542C63.2729 18.6233 62.4638 19.5993 62.6461 20.6348L63.636 20.493C63.5696 20.1145 63.8722 19.5472 64.6276 19.439ZM75.0553 37.7422C75.811 37.634 76.294 38.0899 76.3608 38.4684C76.4276 38.8469 76.1251 39.4151 75.3694 39.5233C74.6137 39.6315 74.1307 39.1757 74.0639 38.7972L73.074 38.9389L73.1184 39.1287C73.3761 39.9969 74.3003 40.5844 75.3229 40.5298L75.543 40.5081C76.7242 40.339 77.5333 39.3623 77.3507 38.3266L77.3063 38.1368C77.0302 37.2067 75.9892 36.5989 74.8817 36.7574L74.6649 36.7983C73.6033 37.0486 72.9028 37.9679 73.074 38.9389L74.0639 38.7972C73.9972 38.4187 74.2997 37.8504 75.0553 37.7422ZM83.9601 58.7057C84.7157 58.5976 85.1987 59.0534 85.2655 59.4319C85.3323 59.8104 85.0298 60.3787 84.2741 60.4869C83.5185 60.595 83.0354 60.1392 82.9686 59.7607L81.9787 59.9024L82.0233 60.0932C82.2813 60.9609 83.2053 61.5478 84.2276 61.4933L84.4478 61.4717C85.629 61.3026 86.438 60.3258 86.2554 59.2902L86.2111 59.1003C85.9349 58.1703 84.8938 57.5624 83.7864 57.7209L83.5696 57.7618C82.5081 58.0122 81.8076 58.9315 81.9787 59.9024L82.9686 59.7607C82.902 59.3822 83.2045 58.8139 83.9601 58.7057ZM93.5503 86.3677C94.3057 86.2597 94.7889 86.7154 94.8558 87.0938C94.9225 87.4723 94.6199 88.0405 93.8644 88.1488C93.1087 88.257 92.6247 87.8013 92.5579 87.4228L91.568 87.5645L91.6135 87.7552C91.89 88.6848 92.9308 89.2921 94.038 89.1336C95.219 88.9644 96.0283 87.9876 95.8457 86.9521L95.8013 86.7622C95.5252 85.8323 94.484 85.2245 93.3767 85.3829L93.1589 85.4239C92.0977 85.6744 91.397 86.5938 91.568 87.5645L92.5579 87.4228C92.4913 87.0442 92.7947 86.4758 93.5503 86.3677ZM92.0801 45.6985C92.8358 45.5903 93.3198 46.046 93.3865 46.4245C93.4532 46.803 93.1498 47.3714 92.3942 47.4796C91.6387 47.5876 91.1555 47.1319 91.0887 46.7534L90.0988 46.8951C90.27 47.866 91.2523 48.5444 92.3476 48.486L92.5678 48.4644C93.749 48.2953 94.559 47.3184 94.3765 46.2828C94.1938 45.2471 93.0876 44.5446 91.9065 44.7137L91.6897 44.7545C90.6282 45.005 89.9276 45.9242 90.0988 46.8951L91.0887 46.7534C91.0219 46.375 91.3246 45.8067 92.0801 45.6985ZM98.8089 72.5898C99.5647 72.4816 100.048 72.9374 100.114 73.3159C100.181 73.6944 99.8785 74.2627 99.123 74.3709C98.3675 74.479 97.8845 74.0232 97.8175 73.6447L96.8276 73.7864C96.999 74.7572 97.981 75.4348 99.0763 75.3764L99.2966 75.3557C100.478 75.1866 101.287 74.2097 101.104 73.1742L101.06 72.9834C100.783 72.0537 99.7425 71.4464 98.6353 71.6049L98.4185 71.6458C97.3569 71.8962 96.6564 72.8155 96.8276 73.7864L97.8175 73.6447C97.7508 73.2662 98.0533 72.698 98.8089 72.5898ZM107.948 60.5429C108.703 60.4348 109.187 60.8895 109.254 61.268C109.321 61.6465 109.017 62.2149 108.262 62.3231C107.506 62.4311 107.023 61.9754 106.956 61.5969L105.966 61.7386L106.011 61.9295C106.269 62.7972 107.193 63.3839 108.215 63.3296L108.435 63.3079C109.616 63.1388 110.427 62.1619 110.244 61.1263L110.199 60.9365C109.922 60.0067 108.881 59.3996 107.774 59.5581L107.557 59.599C106.496 59.8495 105.795 60.7679 105.966 61.7386L106.956 61.5969C106.89 61.2185 107.192 60.6512 107.948 60.5429ZM110.825 53.8098C111.581 53.7016 112.065 54.1573 112.131 54.5358C112.198 54.9143 111.894 55.4818 111.139 55.5899C110.384 55.6978 109.901 55.2431 109.834 54.8647L108.844 55.0064L108.888 55.1963C109.146 56.0642 110.07 56.6507 111.092 56.5964L111.313 56.5747C112.494 56.4057 113.304 55.4296 113.121 54.3941C112.939 53.3584 111.833 52.6559 110.651 52.825L110.435 52.8659C109.373 53.1164 108.673 54.0356 108.844 55.0064L109.834 54.8647C109.767 54.4863 110.07 53.9181 110.825 53.8098ZM124.672 78.5413C125.427 78.4331 125.911 78.8888 125.978 79.2673C126.045 79.6458 125.741 80.2142 124.986 80.3224C124.23 80.4304 123.747 79.9747 123.68 79.5963L122.69 79.738C122.862 80.7088 123.844 81.3872 124.939 81.3289L125.159 81.3072C126.341 81.1381 127.151 80.1612 126.968 79.1256C126.785 78.09 125.679 77.3874 124.498 77.5565L124.281 77.5974C123.22 77.8478 122.519 78.7671 122.69 79.738L123.68 79.5963C123.614 79.2178 123.916 78.6496 124.672 78.5413ZM133.942 65.6267C134.698 65.5185 135.181 65.9743 135.247 66.3528C135.314 66.7313 135.012 67.2997 134.256 67.4078C133.5 67.516 133.017 67.0601 132.951 66.6817L131.961 66.8234C132.143 67.8589 133.249 68.5617 134.43 68.3926C135.611 68.2235 136.42 67.2467 136.237 66.2111L136.193 66.0203C135.916 65.0906 134.876 64.4834 133.768 64.6419C132.587 64.811 131.778 65.7877 131.961 66.8234L132.951 66.6817C132.884 66.3031 133.186 65.7349 133.942 65.6267ZM150.668 69.5871C151.423 69.4791 151.906 69.9348 151.973 70.3133C152.04 70.6917 151.737 71.2599 150.982 71.3682C150.226 71.4764 149.742 71.0207 149.675 70.6422L148.685 70.7839L148.731 70.9736C149.007 71.9036 150.048 72.5116 151.155 72.353C152.336 72.1838 153.145 71.207 152.963 70.1716C152.78 69.136 151.675 68.4334 150.494 68.6023C149.313 68.7714 148.503 69.7483 148.685 70.7839L149.675 70.6422C149.608 70.2637 149.912 69.6953 150.668 69.5871Z" fill="#5FB121"/>
<path d="M78.594 49.8145C79.3497 49.7063 79.8337 50.162 79.9005 50.5405C79.967 50.919 79.6634 51.4865 78.9079 51.5947C78.1525 51.7027 77.6695 51.2479 77.6026 50.8695L76.6127 51.0112C76.784 51.9819 77.7661 52.6595 78.8614 52.6011L79.0816 52.5795C80.2626 52.4104 81.0728 51.4343 80.8904 50.3988C80.7078 49.3632 79.6016 48.6606 78.4204 48.8297L78.2036 48.8706C77.1421 49.121 76.4415 50.0403 76.6127 51.0112L77.6026 50.8695C77.5359 50.491 77.8385 49.9228 78.594 49.8145ZM75.8335 28.3579C76.5892 28.2497 77.0732 28.7054 77.1399 29.0839C77.2064 29.4624 76.903 30.0308 76.1475 30.139C75.3923 30.2469 74.909 29.7912 74.842 29.4128L73.8521 29.5545L73.8975 29.7443C74.1553 30.6121 75.0786 31.1988 76.1008 31.1445L76.3212 31.1238C77.5022 30.9547 78.3122 29.9777 78.1298 28.9422C77.9472 27.9065 76.841 27.204 75.6598 27.3731L75.443 27.4139C74.3816 27.6645 73.6809 28.5837 73.8521 29.5545L74.842 29.4128C74.7753 29.0344 75.0781 28.4662 75.8335 28.3579ZM98.2135 27.2158C98.969 27.1078 99.4522 27.5635 99.519 27.9419C99.5858 28.3204 99.283 28.8886 98.5276 28.9969C97.7719 29.1051 97.2879 28.6494 97.2212 28.2709L96.2312 28.4126L96.2766 28.6023C96.5527 29.5324 97.5937 30.1402 98.7012 29.9817C99.8822 29.8124 100.692 28.8357 100.509 27.8002L100.465 27.6103C100.188 26.6804 99.1472 26.0726 98.0399 26.2309L97.8221 26.272C96.7608 26.5225 96.0601 27.4418 96.2312 28.4126L97.2212 28.2709C97.1545 27.8924 97.4579 27.3239 98.2135 27.2158ZM107.118 48.1793C107.874 48.0713 108.357 48.5271 108.424 48.9055C108.49 49.2839 108.188 49.8522 107.432 49.9605C106.677 50.0686 106.193 49.6129 106.126 49.2344L105.136 49.3762L105.181 49.5668C105.458 50.4965 106.499 51.1038 107.606 50.9453C108.787 50.776 109.596 49.7993 109.414 48.7638L109.369 48.5739C109.093 47.644 108.052 47.0361 106.945 47.1945L106.727 47.2356C105.666 47.4861 104.965 48.4054 105.136 49.3762L106.126 49.2344C106.059 48.8559 106.363 48.2875 107.118 48.1793ZM116.708 75.8414C117.463 75.7333 117.947 76.189 118.014 76.5675C118.081 76.946 117.777 77.5144 117.022 77.6226C116.266 77.7306 115.783 77.2749 115.716 76.8964L114.726 77.0381L114.771 77.2289C115.029 78.0966 115.953 78.6835 116.975 78.629L117.195 78.6074C118.376 78.4383 119.187 77.4614 119.004 76.4257L118.959 76.236C118.682 75.306 117.641 74.6981 116.534 74.8566L116.317 74.8975C115.256 75.1479 114.555 76.0673 114.726 77.0381L115.716 76.8964C115.65 76.5179 115.952 75.9497 116.708 75.8414ZM115.238 35.172C115.994 35.0639 116.477 35.5197 116.544 35.8982C116.61 36.2767 116.308 36.8449 115.552 36.9531C114.797 37.0613 114.313 36.6056 114.246 36.2271L113.256 36.3688L113.301 36.5586C113.578 37.4886 114.619 38.0965 115.726 37.938C116.907 37.7688 117.716 36.792 117.534 35.7565L117.489 35.5666C117.213 34.6365 116.172 34.0287 115.065 34.1872L114.848 34.2281C113.786 34.4784 113.085 35.3978 113.256 36.3688L114.246 36.2271C114.179 35.8486 114.483 35.2802 115.238 35.172ZM121.967 62.0634C122.723 61.9554 123.206 62.4111 123.273 62.7895C123.339 63.168 123.037 63.7362 122.281 63.8445C121.526 63.9527 121.042 63.4969 120.975 63.1185L119.985 63.2602L120.03 63.4499C120.306 64.3798 121.348 64.9878 122.455 64.8293C123.636 64.6601 124.445 63.6833 124.263 62.6478L124.218 62.457C123.942 61.5273 122.901 60.9202 121.794 61.0786C120.612 61.2477 119.802 62.2246 119.985 63.2602L120.975 63.1185C120.908 62.74 121.211 62.1716 121.967 62.0634ZM131.106 50.0165C131.861 49.9084 132.344 50.3633 132.411 50.7417C132.478 51.1202 132.176 51.6885 131.42 51.7967C130.664 51.9049 130.181 51.449 130.114 51.0705L129.124 51.2122L129.169 51.4031C129.427 52.2709 130.351 52.8577 131.373 52.8032L131.594 52.7815C132.775 52.6124 133.584 51.6356 133.401 50.6L133.357 50.4101C133.081 49.4802 132.04 48.8732 130.932 49.0317C129.751 49.2008 128.942 50.1767 129.124 51.2122L130.114 51.0705C130.048 50.692 130.35 50.1247 131.106 50.0165ZM133.983 43.2833C134.739 43.1752 135.222 43.631 135.289 44.0095C135.355 44.388 135.053 44.9553 134.297 45.0635C133.542 45.1716 133.059 44.7167 132.992 44.3383L132.002 44.48C132.173 45.4508 133.155 46.1284 134.251 46.07L134.471 46.0483C135.652 45.8792 136.461 44.9033 136.279 43.8678L136.234 43.677C135.958 42.7472 134.917 42.14 133.81 42.2985L133.593 42.3394C132.531 42.5898 131.831 43.5091 132.002 44.48L132.992 44.3383C132.925 43.9598 133.228 43.3916 133.983 43.2833ZM147.83 68.0149C148.586 67.9068 149.069 68.3626 149.136 68.7411C149.202 69.1196 148.9 69.6878 148.144 69.796C147.388 69.9042 146.904 69.4485 146.838 69.07L145.848 69.2117L145.893 69.4015C146.169 70.3315 147.21 70.9394 148.318 70.7808C149.499 70.6117 150.308 69.6349 150.125 68.5994L150.081 68.4095C149.805 67.4794 148.764 66.8716 147.656 67.0301L147.44 67.071C146.378 67.3213 145.677 68.2407 145.848 69.2117L146.838 69.07C146.771 68.6915 147.074 68.1231 147.83 68.0149ZM157.1 55.1003C157.856 54.9923 158.339 55.448 158.406 55.8265C158.472 56.2049 158.17 56.7731 157.414 56.8814C156.659 56.9896 156.175 56.5339 156.108 56.1554L155.118 56.2971L155.163 56.4868C155.44 57.4168 156.481 58.0248 157.588 57.8662C158.769 57.697 159.578 56.7202 159.396 55.6847C159.213 54.6492 158.108 53.9466 156.927 54.1155C155.745 54.2846 154.935 55.2615 155.118 56.2971L156.108 56.1554C156.041 55.7769 156.345 55.2085 157.1 55.1003Z" fill="#5FB121"/>
<path d="M149.607 88.8893C147.237 88.2595 145.739 89.0714 143.328 91.0112C140.827 93.0232 143.453 96.3263 142.137 99.1937C140.682 102.365 139.014 105.711 136.185 105.331C133.865 105.019 134.994 101.239 135.59 98.5119C136.185 95.7844 130.768 107.562 126.661 106.012C124.614 105.24 122.877 103.442 124.28 101.239C125.429 99.4355 128.683 96.5541 130.482 95.5013C128.688 96.197 124.854 97.3554 123.685 95.1025C122.295 92.4232 123.851 89.4122 126.066 87.6019C128.337 85.7459 132.614 87.6019 133.209 87.6019C133.804 87.6019 127.532 84.4955 128.447 81.465C129.284 78.6912 134.621 79.3686 134.976 79.4168C134.988 79.4184 134.996 79.4179 135.007 79.4173L135.01 79.4171C135.615 79.3839 142.27 83.8652 145.709 86.2381C147.643 87.5724 151.291 85.1287 151.635 84.8925C151.654 84.8797 151.665 84.8625 151.671 84.8408L152.758 81.1065C152.785 81.011 152.669 80.9405 152.594 81.0056C148.416 84.6151 148.524 84.8896 145.114 83.5106C142.161 82.3169 145.24 79.9215 146.829 79.4623C138.152 79.9842 135.919 78.5731 134.399 74.6463C132.842 70.6208 139.756 71.2369 140.352 71.2369C140.948 71.2368 131.3 68.0141 132.614 63.7363C133.848 59.7144 138.805 60.6736 140.063 61.8878C139.749 61.2443 139.408 60.0607 140.352 58.9632C141.737 57.3512 145.516 61.1618 151.661 69.8731C147.955 64.3594 144.031 59.5756 148.09 57.5994C151.885 55.7516 152.063 59.3915 153.357 63.4594C153.386 63.5501 153.515 63.5553 153.551 63.467C153.884 62.6403 154.985 60.1625 156.423 59.645C159.598 58.5023 159.519 64.7359 159.995 68.5094C160.464 72.2366 160.778 75.0441 158.804 78.0556C156.245 81.9596 149.954 87.11 149.818 88.6974C149.81 88.7909 149.698 88.9134 149.607 88.8893Z" fill="#62800E"/>
<path d="M128.892 96.2908C128.25 96.4653 127.55 96.6082 126.867 96.657C125.513 96.7537 124.12 96.4839 123.463 95.2176C121.991 92.3802 123.658 89.2472 125.908 87.408C127.133 86.4072 128.867 86.4253 130.305 86.659C131.01 86.7734 131.662 86.9429 132.177 87.0857C131.715 86.7639 131.127 86.3469 130.548 85.8611C129.85 85.2767 129.147 84.5845 128.676 83.8348C128.206 83.0847 127.95 82.2455 128.208 81.3924C128.442 80.618 128.989 80.0946 129.655 79.7469C130.317 79.4013 131.107 79.222 131.864 79.1346C133.356 78.9622 134.783 79.1386 135.001 79.1678H135.003C135.098 79.1642 135.202 79.198 135.281 79.2283C135.375 79.2642 135.488 79.3159 135.615 79.3797C135.869 79.5075 136.198 79.6925 136.581 79.9197C137.348 80.3749 138.348 81.0086 139.433 81.7156C141.605 83.1299 144.13 84.8449 145.85 86.032C146.272 86.3227 146.8 86.4174 147.384 86.3748C147.969 86.3321 148.591 86.1534 149.176 85.9217C150.267 85.4902 151.19 84.8895 151.447 84.7166L152.374 81.5271C151.522 82.2675 150.854 82.8578 150.299 83.3074C149.666 83.8218 149.155 84.1743 148.654 84.3631C147.625 84.7507 146.703 84.4225 145.02 83.742C144.249 83.4302 143.801 83.0118 143.671 82.5008C143.542 81.9948 143.749 81.4906 144.067 81.0623C144.389 80.629 144.856 80.2298 145.338 79.9119C145.41 79.864 145.485 79.8198 145.558 79.7752C141.942 79.9206 139.529 79.6738 137.832 78.9529C135.913 78.138 134.938 76.7334 134.166 74.7361C133.752 73.6667 133.886 72.8467 134.399 72.2517C134.892 71.6808 135.695 71.3653 136.515 71.1873C137.451 70.9842 138.479 70.949 139.24 70.9549C139.196 70.9348 139.15 70.9147 139.104 70.8933C138.301 70.5229 137.182 69.9814 136.083 69.3035C134.987 68.6274 133.893 67.8047 133.156 66.867C132.416 65.9259 132.014 64.8384 132.375 63.6629C132.699 62.6065 133.273 61.8649 133.979 61.3748C134.682 60.887 135.502 60.6574 136.311 60.5994C137.12 60.5414 137.927 60.6536 138.614 60.8592C138.963 60.9636 139.287 61.0947 139.568 61.243C139.405 60.5488 139.431 59.6508 140.162 58.8006C140.373 58.5554 140.638 58.4057 140.951 58.3641C141.256 58.3234 141.588 58.3884 141.935 58.532C142.626 58.8176 143.448 59.4426 144.396 60.368C145.236 61.187 146.19 62.2571 147.258 63.5711C147.062 63.207 146.886 62.8533 146.735 62.5105C146.26 61.4293 146.01 60.4178 146.168 59.532C146.329 58.6252 146.909 57.8962 147.98 57.3748C148.953 56.9014 149.74 56.7549 150.393 56.9207C151.054 57.0886 151.52 57.5606 151.879 58.1863C152.235 58.8083 152.504 59.613 152.762 60.4978C152.99 61.2795 153.211 62.1205 153.477 62.9959C153.675 62.5437 153.977 61.9147 154.361 61.3064C154.861 60.5139 155.534 59.6994 156.339 59.41C156.769 59.2549 157.165 59.2184 157.524 59.2996C157.884 59.3811 158.186 59.576 158.437 59.8475C158.93 60.3805 159.244 61.2256 159.465 62.1775C159.687 63.1376 159.822 64.2482 159.931 65.3465C160.041 66.4522 160.124 67.5389 160.243 68.4783C160.712 72.1977 161.044 75.0955 159.013 78.1932C157.718 80.1694 155.485 82.4521 153.583 84.4187C152.627 85.4071 151.753 86.3156 151.111 87.075C150.79 87.4547 150.53 87.7916 150.349 88.0779C150.163 88.3718 150.079 88.5832 150.067 88.7185C150.056 88.8421 149.987 88.9489 149.918 89.0164C149.855 89.0778 149.716 89.1767 149.543 89.1307C148.403 88.8278 147.489 88.8741 146.571 89.2205C145.639 89.572 144.688 90.237 143.484 91.2058C142.348 92.1201 142.357 93.3178 142.536 94.7508C142.711 96.1499 143.06 97.783 142.365 99.2976C141.639 100.879 140.846 102.537 139.871 103.751C138.893 104.967 137.691 105.785 136.152 105.578C135.488 105.489 135.052 105.141 134.804 104.625C134.566 104.128 134.51 103.491 134.545 102.814C134.606 101.593 134.968 100.119 135.255 98.8553C135.246 98.8679 135.237 98.8813 135.228 98.8943C134.749 99.5774 133.988 100.763 133.09 101.97C132.19 103.179 131.13 104.443 130.027 105.307C128.933 106.165 127.728 106.682 126.573 106.247C125.519 105.849 124.519 105.178 123.966 104.295C123.687 103.85 123.519 103.349 123.522 102.804C123.525 102.26 123.697 101.689 124.069 101.105C124.662 100.175 125.783 98.9854 126.969 97.9041C127.608 97.3223 128.271 96.7651 128.892 96.2908ZM150.27 57.406C149.782 57.2821 149.124 57.3737 148.199 57.824C147.241 58.2906 146.788 58.901 146.66 59.6189C146.528 60.3581 146.73 61.2586 147.192 62.3094C148.117 64.4144 150.003 66.9571 151.869 69.7332L151.457 70.0174C148.386 65.6633 145.916 62.5484 144.048 60.7254C143.11 59.811 142.343 59.2418 141.744 58.9939C141.446 58.8709 141.207 58.8338 141.016 58.8592C140.833 58.8836 140.677 58.9682 140.542 59.1258C139.711 60.0922 139.981 61.1305 140.273 61.7449C140.32 61.7927 140.364 61.8416 140.402 61.8924C140.43 61.9295 140.462 61.9833 140.474 62.0496C140.484 62.1034 140.489 62.2727 140.322 62.3465C140.188 62.4056 140.076 62.3345 140.044 62.3103C139.996 62.2749 139.961 62.2287 139.937 62.1853C139.913 62.1422 139.888 62.095 139.863 62.0447C139.583 61.7871 139.091 61.5245 138.47 61.3387C137.835 61.1485 137.089 61.0443 136.347 61.0975C135.606 61.1506 134.877 61.3597 134.264 61.785C133.655 62.2081 133.145 62.855 132.852 63.8094C132.557 64.7725 132.868 65.6922 133.549 66.5584C134.232 67.4279 135.267 68.2134 136.344 68.8777C137.418 69.5401 138.517 70.0717 139.314 70.4392C139.707 70.6204 140.039 70.7676 140.243 70.8641C140.342 70.9108 140.431 70.9551 140.486 70.991C140.5 71.0004 140.521 71.0145 140.541 71.033C140.551 71.0425 140.567 71.0583 140.582 71.0799C140.595 71.0994 140.62 71.1403 140.627 71.198C140.635 71.2664 140.615 71.3376 140.567 71.3933C140.527 71.4407 140.48 71.4609 140.456 71.4695C140.409 71.486 140.367 71.4871 140.351 71.4871C140.021 71.487 138.194 71.3351 136.621 71.6766C135.833 71.8477 135.162 72.1333 134.778 72.5789C134.414 73.0005 134.268 73.6134 134.633 74.5564C135.379 76.4857 136.281 77.7501 138.028 78.492C139.8 79.2447 142.471 79.4718 146.797 79.2127C146.875 79.191 146.952 79.1728 147.026 79.16L147.096 79.1521C147.122 79.1515 147.15 79.1539 147.178 79.16C147.205 79.1656 147.257 79.1802 147.305 79.2234C147.365 79.2766 147.409 79.3669 147.386 79.4705C147.368 79.5529 147.317 79.602 147.293 79.6219C147.264 79.645 147.235 79.6588 147.213 79.6678C147.167 79.6859 147.119 79.6952 147.074 79.698C147.009 79.7022 146.943 79.7049 146.879 79.7088C146.514 79.8171 146.055 80.0366 145.613 80.3289C145.162 80.6266 144.745 80.988 144.468 81.3601C144.188 81.7372 144.08 82.0847 144.155 82.3777C144.228 82.6657 144.503 82.9942 145.208 83.2791C146.935 83.9772 147.664 84.2023 148.478 83.8953C148.899 83.7366 149.358 83.4288 149.985 82.9197C150.612 82.4112 151.381 81.7229 152.43 80.8162L152.48 80.7801C152.601 80.7071 152.743 80.7207 152.844 80.783C152.962 80.855 153.047 81.0061 152.998 81.1766L151.911 84.9109C151.891 84.9777 151.851 85.0475 151.777 85.0984C151.6 85.2203 150.583 85.9026 149.36 86.3865C148.749 86.6284 148.075 86.8261 147.421 86.8738C146.766 86.9215 146.113 86.8204 145.567 86.4441C143.849 85.2584 141.326 83.5457 139.16 82.1346C138.076 81.4289 137.084 80.8002 136.326 80.3504C135.946 80.1252 135.629 79.9471 135.39 79.8269C135.271 79.7667 135.175 79.7234 135.103 79.6961L135.024 79.6668H135.021C135.009 79.6675 134.98 79.6699 134.942 79.6648C134.77 79.6415 133.372 79.463 131.921 79.6307C131.195 79.7146 130.472 79.8834 129.886 80.1892C129.305 80.4931 128.871 80.9248 128.686 81.5369C128.486 82.1987 128.671 82.8847 129.1 83.5691C129.53 84.2541 130.187 84.9073 130.869 85.4783C131.548 86.0475 132.239 86.5242 132.729 86.8631C132.97 87.0295 133.173 87.1692 133.295 87.2674C133.326 87.2926 133.356 87.3186 133.382 87.3435C133.404 87.365 133.437 87.4005 133.462 87.4451C133.479 87.4763 133.553 87.6306 133.427 87.7644C133.379 87.8154 133.324 87.8348 133.293 87.8426C133.26 87.8508 133.23 87.8523 133.209 87.8523C133.095 87.8523 132.93 87.8121 132.76 87.7674C132.58 87.7197 132.349 87.6532 132.093 87.5818C131.576 87.4375 130.925 87.2668 130.225 87.1531C128.809 86.9229 127.27 86.9408 126.224 87.7957C124.045 89.577 122.599 92.4661 123.907 94.9871C124.419 95.9736 125.528 96.2512 126.832 96.158C128.117 96.0661 129.488 95.6167 130.379 95.2723C130.518 95.1915 130.65 95.1207 130.773 95.0613L130.841 95.034C130.865 95.0262 130.892 95.0207 130.921 95.0183C130.948 95.0161 130.992 95.0159 131.041 95.033C131.093 95.0512 131.168 95.0967 131.202 95.1912C131.234 95.2807 131.209 95.3584 131.189 95.3982C131.169 95.439 131.142 95.4674 131.123 95.4851C131.083 95.5215 131.037 95.5466 130.995 95.5642C130.877 95.6136 130.741 95.6682 130.591 95.7264C129.715 96.2427 128.475 97.2082 127.306 98.2732C126.129 99.3468 125.047 100.501 124.491 101.374C124.162 101.891 124.024 102.371 124.022 102.807C124.02 103.244 124.153 103.653 124.388 104.029C124.864 104.789 125.757 105.404 126.75 105.778C127.648 106.117 128.66 105.744 129.718 104.914C130.768 104.091 131.795 102.871 132.688 101.671C133.583 100.468 134.321 99.3168 134.819 98.6072C134.942 98.4321 135.051 98.2818 135.144 98.1668C135.229 98.0625 135.325 97.9546 135.42 97.8992C135.46 97.8755 135.586 97.8106 135.723 97.8846C135.853 97.9544 135.875 98.0873 135.881 98.1326C135.895 98.2446 135.87 98.3981 135.834 98.5652C135.532 99.9487 135.109 101.542 135.044 102.84C135.011 103.488 135.071 104.024 135.255 104.409C135.429 104.774 135.722 105.016 136.218 105.083C137.508 105.256 138.554 104.591 139.481 103.437C140.411 102.28 141.18 100.679 141.91 99.0896C142.531 97.737 142.224 96.2844 142.04 94.8123C141.86 93.3741 141.807 91.9138 143.172 90.8162C144.378 89.8455 145.383 89.1347 146.395 88.7527C147.394 88.3759 148.388 88.3252 149.576 88.6248C149.611 88.3761 149.746 88.098 149.927 87.8113C150.126 87.4969 150.402 87.14 150.729 86.7527C151.385 85.9781 152.27 85.0566 153.223 84.0711C155.14 82.0899 157.332 79.8461 158.595 77.9187C160.513 74.9934 160.218 72.2756 159.747 68.5408C159.627 67.5935 159.541 66.4849 159.433 65.3963C159.324 64.3005 159.192 63.2167 158.977 62.2898C158.761 61.3546 158.47 60.6196 158.07 60.1873C157.875 59.9763 157.659 59.8424 157.414 59.7869C157.168 59.7312 156.87 59.7501 156.508 59.8807C155.874 60.1088 155.277 60.7909 154.784 61.573C154.299 62.3423 153.947 63.1531 153.783 63.5603C153.659 63.8681 153.218 63.8467 153.119 63.535C152.795 62.5156 152.536 61.51 152.282 60.6375C152.024 59.7537 151.769 59.0007 151.445 58.4353C151.123 57.8736 150.75 57.528 150.27 57.406Z" fill="#456100"/>
<path d="M159.44 82.0767C156.932 81.4474 155.348 82.2529 152.798 84.1806C150.156 86.1776 152.931 89.4562 151.541 92.3024C150.003 95.4499 148.241 98.7708 145.253 98.3937C142.802 98.0843 143.995 94.3328 144.624 91.6255C145.253 88.9183 139.53 100.608 135.192 99.0705C133.029 98.3041 131.195 96.519 132.677 94.3328C133.89 92.5423 137.328 89.6823 139.228 88.6373C137.333 89.3278 133.283 90.4777 132.048 88.2415C130.579 85.5821 132.223 82.5934 134.563 80.7965C136.962 78.9543 141.48 80.7965 142.109 80.7965C142.737 80.7965 136.112 77.7132 137.078 74.7052C137.964 71.948 143.617 72.6263 143.977 72.6724C143.989 72.674 143.998 72.6735 144.01 72.6727C144.635 72.63 151.677 77.0851 155.313 79.4429C157.357 80.768 161.214 78.3394 161.574 78.1069C161.594 78.0944 161.605 78.0773 161.612 78.0552L162.762 74.3424C162.791 74.248 162.677 74.1756 162.6 74.2379C158.173 77.8314 158.291 78.1058 154.685 76.7357C151.566 75.5508 154.818 73.1732 156.496 72.7174C147.33 73.2354 144.971 71.8348 143.366 67.9371C141.721 63.9416 149.025 64.5531 149.654 64.553C150.284 64.553 140.092 61.3542 141.48 57.1081C142.784 53.1161 148.02 54.0681 149.35 55.2734C149.018 54.6346 148.657 53.4598 149.654 52.3704C151.118 50.7704 155.11 54.5527 161.601 63.1994C157.686 57.7266 153.541 52.9783 157.829 51.0168C161.843 49.1802 162.026 52.8053 163.399 56.8496C163.428 56.9378 163.554 56.9426 163.591 56.8569C163.934 56.0528 165.103 53.5643 166.632 53.0472C169.986 51.913 169.902 58.1003 170.405 61.8458C170.901 65.5453 171.232 68.3319 169.147 71.3212C166.447 75.1914 159.814 80.2959 159.655 81.8782C159.645 81.9721 159.532 82.0996 159.44 82.0767Z" fill="#84AC23"/>
<path d="M157.724 50.789C158.751 50.3192 159.577 50.1784 160.258 50.3417C160.948 50.5073 161.438 50.9725 161.818 51.5976C162.195 52.2175 162.48 53.019 162.753 53.8994C162.996 54.684 163.232 55.5281 163.517 56.4062C163.724 55.9584 164.047 55.3217 164.459 54.705C164.99 53.911 165.704 53.0973 166.552 52.8105C167.003 52.6578 167.415 52.622 167.788 52.7011C168.162 52.7807 168.479 52.9719 168.744 53.2412C169.265 53.7702 169.597 54.6102 169.83 55.5566C170.065 56.5108 170.208 57.6145 170.323 58.705C170.439 59.8032 170.527 60.8803 170.652 61.8125C171.148 65.5045 171.499 68.3859 169.352 71.4638C167.986 73.4232 165.631 75.6862 163.623 77.6367C162.614 78.6169 161.691 79.5183 161.012 80.2724C160.672 80.6496 160.397 80.9848 160.205 81.2695C160.007 81.5623 159.917 81.7711 159.903 81.9033C159.891 82.0243 159.823 82.1302 159.755 82.1982C159.694 82.2589 159.555 82.3633 159.38 82.3193C158.168 82.0154 157.195 82.0598 156.219 82.4052C155.23 82.755 154.223 83.4173 152.949 84.3798C152.338 84.8416 152.049 85.368 151.928 85.9433C151.804 86.5308 151.854 87.1797 151.948 87.8896C152.133 89.2762 152.502 90.904 151.765 92.4121C150.999 93.9819 150.161 95.6275 149.131 96.832C148.096 98.0415 146.833 98.8448 145.222 98.6416C144.531 98.5544 144.072 98.2152 143.809 97.7001C143.557 97.2041 143.498 96.5684 143.534 95.8955C143.6 94.6675 143.992 93.1834 144.296 91.9199C144.273 91.9496 144.249 91.9806 144.225 92.0126C143.72 92.6906 142.915 93.8668 141.967 95.0644C141.016 96.2652 139.896 97.5194 138.732 98.3769C137.576 99.2285 136.313 99.7337 135.108 99.3066C133.999 98.9134 132.944 98.2498 132.359 97.373C132.064 96.931 131.888 96.4309 131.89 95.8867C131.893 95.3422 132.076 94.7726 132.47 94.1923C133.096 93.2686 134.279 92.0884 135.532 91.0156C136.205 90.4391 136.906 89.8879 137.56 89.4179C136.878 89.593 136.133 89.7373 135.407 89.7861C133.985 89.8815 132.522 89.6173 131.829 88.3623C131.052 86.955 131.103 85.4631 131.645 84.1035C132.185 82.749 133.213 81.5183 134.411 80.5986C135.698 79.6103 137.52 79.6267 139.037 79.8584C139.787 79.9728 140.481 80.1435 141.027 80.2861C140.54 79.9672 139.922 79.5551 139.312 79.0751C138.576 78.4956 137.834 77.8087 137.337 77.0644C136.84 76.32 136.566 75.4826 136.841 74.6289C137.089 73.8552 137.669 73.3359 138.369 72.9931C139.066 72.6517 139.899 72.4748 140.698 72.3886C142.256 72.2205 143.745 72.392 143.992 72.4228L144.067 72.4248C144.142 72.4328 144.219 72.4578 144.283 72.4804C144.381 72.5152 144.499 72.5661 144.633 72.6289C144.9 72.7548 145.246 72.9379 145.65 73.163C146.46 73.614 147.516 74.2423 148.663 74.9443C150.959 76.349 153.63 78.0538 155.449 79.2334C155.899 79.5251 156.463 79.6188 157.086 79.5761C157.708 79.5334 158.368 79.3556 158.988 79.125C160.142 78.6957 161.119 78.098 161.389 77.9267L162.376 74.7431C161.461 75.4894 160.747 76.0835 160.155 76.5351C159.484 77.0475 158.945 77.3969 158.419 77.5839C157.343 77.9666 156.379 77.6472 154.596 76.9697C153.787 76.6627 153.313 76.2491 153.175 75.7373C153.036 75.2271 153.26 74.7217 153.596 74.2978C153.936 73.868 154.427 73.4728 154.934 73.1582C155.007 73.113 155.082 73.0724 155.156 73.0302C151.337 73.1747 148.792 72.9292 147.004 72.2158C144.983 71.4095 143.952 70.0183 143.135 68.0322C142.917 67.5047 142.84 67.0337 142.889 66.6152C142.94 66.1934 143.118 65.8414 143.382 65.5537C143.9 64.9891 144.744 64.6779 145.607 64.5019C146.593 64.3009 147.674 64.2647 148.476 64.2705C148.435 64.2526 148.392 64.2347 148.348 64.2158C147.5 63.8482 146.317 63.3121 145.157 62.6396C144 61.9692 142.847 61.1538 142.068 60.2236C141.287 59.2904 140.858 58.205 141.242 57.0302C141.936 54.9076 143.684 54.1069 145.389 53.9921C146.239 53.9349 147.088 54.0467 147.81 54.25C148.19 54.3567 148.541 54.4918 148.844 54.6445C148.668 53.9511 148.692 53.0517 149.47 52.2021C149.692 51.9593 149.969 51.8138 150.291 51.7734C150.607 51.7339 150.951 51.7967 151.316 51.9384C152.042 52.2203 152.909 52.839 153.911 53.7578C154.816 54.5873 155.847 55.6764 157.004 57.0175C156.781 56.6323 156.581 56.259 156.412 55.8974C155.91 54.8239 155.645 53.8162 155.813 52.9316C155.985 52.0254 156.6 51.3036 157.724 50.789ZM160.141 50.8281C159.616 50.702 158.913 50.7957 157.932 51.2441C156.913 51.7103 156.439 52.3186 156.305 53.0253C156.166 53.7537 156.377 54.6428 156.865 55.6855C157.842 57.7742 159.833 60.2977 161.805 63.0537L161.401 63.3496C158.157 59.0283 155.548 55.9368 153.574 54.1269C152.584 53.2196 151.773 52.6518 151.136 52.4042C150.819 52.2813 150.56 52.2435 150.352 52.2695C150.151 52.2948 149.982 52.3819 149.839 52.539C148.964 53.4948 149.248 54.5173 149.556 55.125C149.61 55.1775 149.661 55.2316 149.705 55.288C149.734 55.3256 149.768 55.3804 149.78 55.4492C149.791 55.5119 149.787 55.6675 149.634 55.7412C149.507 55.802 149.396 55.7423 149.357 55.7167C149.306 55.6827 149.269 55.6372 149.243 55.5937C149.214 55.5461 149.185 55.4934 149.154 55.4365C148.857 55.179 148.334 54.9158 147.675 54.7304C147.001 54.541 146.209 54.4381 145.422 54.4912C143.85 54.5971 142.328 55.3166 141.718 57.1855C141.408 58.1338 141.732 59.0415 142.452 59.9023C143.175 60.766 144.269 61.5469 145.408 62.207C146.543 62.8649 147.705 63.3929 148.547 63.7578C148.962 63.9379 149.313 64.0829 149.528 64.1787C149.633 64.2251 149.725 64.2688 149.782 64.3037C149.797 64.3127 149.818 64.3266 149.839 64.3447C149.849 64.3538 149.865 64.3692 149.881 64.3906C149.895 64.4096 149.923 64.4516 149.931 64.5126C149.94 64.5863 149.916 64.6605 149.866 64.7158C149.825 64.7612 149.778 64.7804 149.756 64.788C149.711 64.803 149.67 64.8027 149.654 64.8027C149.31 64.8027 147.373 64.6523 145.707 64.9921C144.871 65.1627 144.158 65.4471 143.75 65.8916C143.551 66.1082 143.423 66.3644 143.387 66.6738C143.349 66.9865 143.404 67.3706 143.598 67.8418C144.385 69.7532 145.337 71.0119 147.188 71.7509C149.067 72.5005 151.895 72.7251 156.466 72.4677C156.549 72.4461 156.629 72.4277 156.707 72.415C156.747 72.4084 156.802 72.4042 156.857 72.416C156.883 72.4214 156.935 72.4354 156.983 72.4775C157.043 72.5296 157.09 72.6214 157.066 72.7285C157.047 72.8126 156.993 72.861 156.969 72.8798C156.94 72.9025 156.91 72.9163 156.889 72.9248C156.844 72.9421 156.796 72.9504 156.751 72.9531C156.681 72.9572 156.612 72.9609 156.544 72.9648C156.156 73.0729 155.667 73.2916 155.198 73.583C154.721 73.8792 154.28 74.2387 153.987 74.6084C153.69 74.9837 153.581 75.3234 153.657 75.6064C153.733 75.8878 154.022 76.2165 154.773 76.5019C156.597 77.1945 157.378 77.4226 158.251 77.1123C158.7 76.9527 159.187 76.6446 159.851 76.1376C160.515 75.631 161.331 74.9464 162.443 74.0439L162.494 74.0087C162.616 73.9402 162.757 73.9574 162.856 74.0214C162.972 74.0958 163.053 74.2475 163.001 74.416L161.85 78.1289C161.829 78.1965 161.787 78.2675 161.71 78.3173C161.524 78.4376 160.451 79.114 159.162 79.5937C158.517 79.8336 157.807 80.0279 157.12 80.0751C156.433 80.1223 155.749 80.0229 155.178 79.6523C153.36 78.4741 150.693 76.7726 148.402 75.371C147.257 74.6701 146.207 74.0456 145.407 73.5996C145.006 73.3763 144.671 73.1998 144.419 73.081C144.293 73.0215 144.192 72.978 144.116 72.9511C144.028 72.9197 144.009 72.9231 144.027 72.9218C144.012 72.9228 143.983 72.9257 143.945 72.9209C143.771 72.8985 142.291 72.7196 140.752 72.8857C139.982 72.9688 139.213 73.137 138.59 73.4423C137.969 73.7464 137.511 74.1773 137.316 74.7822C137.108 75.4322 137.299 76.1077 137.753 76.7871C138.207 77.4668 138.9 78.1153 139.621 78.6826C140.339 79.248 141.07 79.7221 141.588 80.0585C141.842 80.2239 142.056 80.3619 142.184 80.4589C142.217 80.4837 142.248 80.5087 142.275 80.5332C142.298 80.554 142.334 80.5891 142.36 80.6337C142.373 80.6561 142.396 80.7006 142.4 80.7597C142.405 80.8303 142.381 80.9069 142.323 80.9648C142.274 81.0134 142.219 81.0312 142.19 81.038C142.158 81.0456 142.129 81.0468 142.108 81.0468C141.993 81.0467 141.822 81.0085 141.642 80.9638C141.452 80.9166 141.209 80.8502 140.938 80.7793C140.391 80.6359 139.703 80.4656 138.962 80.3525C137.463 80.1236 135.827 80.1413 134.716 80.9951C133.573 81.8723 132.609 83.0341 132.109 84.288C131.611 85.5367 131.575 86.8691 132.266 88.121C132.808 89.102 133.989 89.3801 135.374 89.2871C136.735 89.1956 138.187 88.7492 139.128 88.4072C139.275 88.327 139.414 88.2562 139.544 88.1972C139.585 88.1788 139.636 88.1619 139.691 88.1582C139.718 88.1564 139.763 88.156 139.811 88.1738C139.863 88.1925 139.938 88.2397 139.971 88.3359C140.001 88.427 139.974 88.5046 139.953 88.5439C139.932 88.5844 139.903 88.6127 139.884 88.6298C139.843 88.6649 139.797 88.6894 139.755 88.706C139.631 88.7543 139.49 88.8074 139.335 88.8642C138.407 89.377 137.093 90.3367 135.857 91.3955C134.613 92.4613 133.471 93.606 132.884 94.4726C132.536 94.9853 132.393 95.4597 132.39 95.8886C132.388 96.3178 132.526 96.7225 132.775 97.0957C133.278 97.8495 134.222 98.4617 135.275 98.8349C136.239 99.1766 137.319 98.7966 138.436 97.9736C139.546 97.1563 140.632 95.9448 141.575 94.7539C142.52 93.5602 143.299 92.4182 143.825 91.7138C143.955 91.54 144.071 91.3905 144.169 91.2763C144.258 91.1721 144.359 91.0652 144.457 91.0117C144.5 90.9882 144.621 90.9312 144.753 90.998C144.884 91.0648 144.91 91.1969 144.917 91.247C144.932 91.3616 144.905 91.517 144.867 91.6826C144.548 93.0569 144.102 94.636 144.033 95.9218C143.999 96.5637 144.062 97.0936 144.255 97.4726C144.438 97.8324 144.749 98.0779 145.284 98.1455C146.661 98.3192 147.773 97.651 148.751 96.5078C149.733 95.3592 150.546 93.77 151.316 92.1923C151.97 90.8543 151.647 89.4193 151.452 87.956C151.357 87.2411 151.296 86.5184 151.438 85.8408C151.584 85.1509 151.937 84.5181 152.647 83.9814C153.924 83.0163 154.984 82.3121 156.052 81.9345C157.106 81.5615 158.155 81.5131 159.412 81.8144C159.449 81.5609 159.595 81.2785 159.791 80.9892C160.002 80.6769 160.293 80.3226 160.639 79.9384C161.333 79.1695 162.268 78.2556 163.274 77.2783C165.297 75.3135 167.609 73.0885 168.942 71.1777C170.965 68.2775 170.654 65.5855 170.157 61.8789C170.031 60.9383 169.94 59.8376 169.826 58.7578C169.711 57.6703 169.571 56.5956 169.345 55.6767C169.116 54.75 168.81 54.0208 168.388 53.5917C168.181 53.382 167.949 53.2467 167.684 53.1904C167.418 53.1337 167.098 53.1534 166.712 53.2841C166.031 53.5143 165.395 54.203 164.874 54.9833C164.36 55.7521 163.99 56.5595 163.821 56.955C163.694 57.252 163.266 57.2348 163.162 56.9296C162.818 55.9158 162.544 54.9155 162.275 54.0478C162.003 53.1685 161.733 52.4196 161.391 51.8574C161.053 51.3004 160.658 50.952 160.141 50.8281Z" fill="#6B8E14"/>
<path d="M94.7368 82.3572C94.7368 89.7789 87.5599 96.3122 79.2525 96.3122C70.945 96.3122 64.2105 90.2957 64.2105 82.874C64.2105 75.4523 71.3875 67.3684 79.6949 67.3684C88.0023 67.3684 94.7368 74.9355 94.7368 82.3572Z" fill="#A91F1A"/>
<path d="M66.2637 89.1104C66.7908 90.7026 67.6801 92.1132 68.8808 93.2617C70.0816 94.4103 72.0185 95.0338 73.7101 95.5638C75.4017 96.0938 77.2634 96.2794 79.1883 96.1101C81.1133 95.9409 83.8787 96.0904 85.744 95.2477C87.6093 94.405 89.3527 93.2568 90.8743 91.8689C92.3959 90.4811 92.1717 90.4632 93.1179 88.7415C94.0642 87.0197 94.6682 85.2104 94.8951 83.4169C94.9073 76.8621 91.0984 72.888 91.673 74.0505C92.2477 75.213 90.6581 82.9776 84.6153 88.2423C77.2789 92.6578 73.257 92.7635 66.2637 89.1104Z" fill="#982F2F"/>
<path d="M80 79.1245C80 79.8037 79.5287 80.3542 78.9474 80.3542C78.366 80.3542 77.8947 79.8037 77.8947 79.1245C77.8947 78.4453 78.366 77.8947 78.9474 77.8947C79.5287 77.8947 80 78.4453 80 79.1245Z" fill="#BD4747"/>
<path d="M87.3684 78.6867C87.3684 79.7055 86.6615 80.5314 85.7895 80.5314C84.9174 80.5314 84.2105 79.7055 84.2105 78.6867C84.2105 77.668 84.9174 76.8421 85.7895 76.8421C86.6615 76.8421 87.3684 77.668 87.3684 78.6867Z" fill="#BD4747"/>
<path d="M72.6316 78.6867C72.6316 79.7055 71.9247 80.5314 71.0526 80.5314C70.1806 80.5314 69.4737 79.7055 69.4737 78.6867C69.4737 77.668 70.1806 76.8421 71.0526 76.8421C71.9247 76.8421 72.6316 77.668 72.6316 78.6867Z" fill="#BD4747"/>
<path d="M84.2105 73.4236C84.2105 74.4423 83.5036 75.2682 82.6316 75.2682C81.7596 75.2682 81.0526 74.4423 81.0526 73.4236C81.0526 72.4048 81.7596 71.5789 82.6316 71.5789C83.5036 71.5789 84.2105 72.4048 84.2105 73.4236Z" fill="#BD4747"/>
<path d="M76.8421 73.4236C76.8421 74.4423 76.1352 75.2682 75.2632 75.2682C74.3911 75.2682 73.6842 74.4423 73.6842 73.4236C73.6842 72.4048 74.3911 71.5789 75.2632 71.5789C76.1352 71.5789 76.8421 72.4048 76.8421 73.4236Z" fill="#BD4747"/>
<path d="M65.9012 63.2441C65.9012 69.5413 59.8117 75.0848 52.7629 75.0848C45.7141 75.0848 40 69.9798 40 63.6826C40 57.3854 46.0895 50.5263 53.1383 50.5263C60.187 50.5263 65.9012 56.9469 65.9012 63.2441Z" fill="#A91F1A"/>
<path d="M41.7421 68.974C42.1893 70.325 42.9439 71.5219 43.9627 72.4964C44.9815 73.4709 46.6249 74 48.0602 74.4497C49.4956 74.8993 51.0751 75.0568 52.7085 74.9132C54.3418 74.7696 56.6882 74.8965 58.2709 74.1814C59.8535 73.4664 61.3328 72.4922 62.6239 71.3146C63.9149 70.1371 63.7246 70.1219 64.5275 68.661C65.3305 67.2001 65.8429 65.6649 66.0354 64.1432C66.0458 58.5815 62.814 55.2096 63.3016 56.1959C63.7891 57.1822 62.4404 63.7705 57.3131 68.2374C51.0883 71.984 47.6758 72.0736 41.7421 68.974Z" fill="#982F2F"/>
<path d="M53.3971 60.5011C53.3971 61.0774 52.9972 61.5446 52.504 61.5446C52.0107 61.5446 51.6108 61.0774 51.6108 60.5011C51.6108 59.9249 52.0107 59.4577 52.504 59.4577C52.9972 59.4577 53.3971 59.9249 53.3971 60.5011Z" fill="#BD4747"/>
<path d="M59.649 60.1296C59.649 60.994 59.0492 61.6947 58.3093 61.6947C57.5694 61.6947 56.9696 60.994 56.9696 60.1296C56.9696 59.2651 57.5694 58.5644 58.3093 58.5644C59.0492 58.5644 59.649 59.2651 59.649 60.1296Z" fill="#BD4747"/>
<path d="M47.1454 60.1296C47.1454 60.994 46.5456 61.6947 45.8057 61.6947C45.0658 61.6947 44.466 60.994 44.466 60.1296C44.466 59.2651 45.0658 58.5644 45.8057 58.5644C46.5456 58.5644 47.1454 59.2651 47.1454 60.1296Z" fill="#BD4747"/>
<path d="M56.9696 55.6641C56.9696 56.5285 56.3698 57.2292 55.6299 57.2292C54.89 57.2292 54.2902 56.5285 54.2902 55.6641C54.2902 54.7997 54.89 54.0989 55.6299 54.0989C56.3698 54.0989 56.9696 54.7997 56.9696 55.6641Z" fill="#BD4747"/>
<path d="M50.7176 55.6641C50.7176 56.5285 50.1178 57.2292 49.3779 57.2292C48.6379 57.2292 48.0381 56.5285 48.0381 55.6641C48.0381 54.7997 48.6379 54.0989 49.3779 54.0989C50.1178 54.0989 50.7176 54.7997 50.7176 55.6641Z" fill="#BD4747"/>
<path d="M98.8516 80.8504C98.8516 88.0472 105.811 94.3826 113.867 94.3826C121.922 94.3826 128.453 88.5484 128.453 81.3516C128.453 74.1547 121.493 66.3158 113.438 66.3158C105.382 66.3158 98.8516 73.6535 98.8516 80.8504Z" fill="#A91F1A"/>
<path d="M126.462 87.3988C125.951 88.9428 125.088 90.3107 123.924 91.4244C122.76 92.5381 120.882 93.1427 119.241 93.6567C117.601 94.1706 115.796 94.3506 113.929 94.1865C112.062 94.0224 109.381 94.1673 107.572 93.3501C105.763 92.533 104.073 91.4196 102.597 90.0738C101.122 88.728 101.339 88.7106 100.421 87.0411C99.5038 85.3715 98.9181 83.617 98.6981 81.8778C98.6862 75.5216 102.38 71.668 101.823 72.7952C101.265 73.9225 102.807 81.4519 108.666 86.557C115.781 90.8388 119.681 90.9412 126.462 87.3988Z" fill="#982F2F"/>
<path d="M113.142 77.7153C113.142 78.3739 113.599 78.9078 114.163 78.9078C114.726 78.9078 115.183 78.3739 115.183 77.7153C115.183 77.0567 114.726 76.5228 114.163 76.5228C113.599 76.5228 113.142 77.0567 113.142 77.7153Z" fill="#BD4747"/>
<path d="M105.996 77.2908C105.996 78.2787 106.682 79.0795 107.528 79.0795C108.373 79.0795 109.059 78.2787 109.059 77.2908C109.059 76.3029 108.373 75.502 107.528 75.502C106.682 75.502 105.996 76.3029 105.996 77.2908Z" fill="#BD4747"/>
<path d="M120.287 77.2908C120.287 78.2787 120.972 79.0795 121.818 79.0795C122.663 79.0795 123.349 78.2787 123.349 77.2908C123.349 76.3029 122.663 75.502 121.818 75.502C120.972 75.502 120.287 76.3029 120.287 77.2908Z" fill="#BD4747"/>
<path d="M109.059 72.1875C109.059 73.1754 109.744 73.9762 110.59 73.9762C111.436 73.9762 112.121 73.1754 112.121 72.1875C112.121 71.1996 111.436 70.3987 110.59 70.3987C109.744 70.3987 109.059 71.1996 109.059 72.1875Z" fill="#BD4747"/>
<path d="M116.204 72.1875C116.204 73.1754 116.89 73.9762 117.735 73.9762C118.581 73.9762 119.266 73.1754 119.266 72.1875C119.266 71.1996 118.581 70.3987 117.735 70.3987C116.89 70.3987 116.204 71.1996 116.204 72.1875Z" fill="#BD4747"/>
</svg>
