<svg width="402" height="253" viewBox="0 0 402 253" fill="none" xmlns="http://www.w3.org/2000/svg">
<path d="M307.156 51.8424C263.159 28.9188 216.739 22.9038 181.158 32.3236C155.21 37.8217 126.139 49.6252 97.7258 67.354C47.5469 98.6635 9.19287 130.144 1.48191 163.611C-1.57257 176.875 3.42989 198.705 9.48331 208.407C25.7468 234.47 72.6747 236.166 125.105 216.126C150.805 206.305 179.744 207.988 203.351 222.124C207.136 224.389 211.028 226.567 215.022 228.652C288.261 266.814 368.254 258.171 393.698 209.347C402.349 192.746 403.182 157.139 398.163 137.65C388.414 99.8126 355.494 77.0301 307.156 51.8424Z" fill="#BD9171"/>
<path d="M304.042 24.3223C260.045 1.39873 213.625 -4.61625 178.044 4.80351C152.096 10.3016 123.025 22.1052 94.6116 39.834C24.5465 83.5493 -14.9609 146.702 6.36915 180.887C22.6327 206.95 69.5606 208.646 121.991 188.606C147.691 178.785 176.63 180.468 200.237 194.604C204.022 196.868 207.914 199.047 211.908 201.132C285.147 239.294 365.14 230.651 390.584 181.827C416.024 133.002 377.277 62.4841 304.042 24.3223Z" fill="#E0AC86"/>
<path d="M290.645 34.669C252.287 15.6244 211.814 10.6305 180.791 18.4568C158.166 23.0236 132.82 32.832 108.051 47.5533C46.966 83.8653 12.5209 136.326 31.1169 164.721C45.2957 186.372 86.2129 187.778 131.923 171.134C154.33 162.974 179.56 164.371 200.143 176.115C203.441 177.999 206.833 179.806 210.319 181.536C274.172 213.239 343.917 206.057 366.102 165.499C388.277 124.949 354.499 66.3715 290.645 34.669Z" fill="#8F3732"/>
<path d="M214.428 39.1119C214.291 43.9008 213.753 48.553 213.129 53.1796C212.476 57.7976 211.707 62.373 210.776 66.897C208.964 75.9622 206.657 84.8608 204.03 93.6568C201.416 102.457 198.382 111.116 194.709 119.562C192.884 123.792 190.868 127.957 188.672 132.062C187.579 134.117 186.417 136.146 185.199 138.158C183.969 140.166 182.691 142.161 181.239 144.092C179.436 146.484 176.036 146.963 173.643 145.16C172.246 144.109 171.503 142.481 171.482 140.858C171.469 138.436 171.635 136.073 171.849 133.732C172.075 131.391 172.353 129.067 172.703 126.769C173.396 122.164 174.267 117.623 175.327 113.141C177.42 104.17 180.162 95.4126 183.319 86.7959C186.464 78.175 189.928 69.6568 193.888 61.305C195.845 57.1184 197.964 52.9874 200.194 48.8948C202.454 44.8108 204.803 40.7566 207.554 36.8349C208.755 35.1261 211.109 34.7118 212.818 35.9122C213.894 36.6598 214.454 37.8944 214.428 39.1119Z" fill="#592220"/>
<path d="M277 64.2612C276.88 68.3922 276.419 72.4079 275.881 76.398C275.317 80.3795 274.655 84.3311 273.852 88.2357C272.288 96.0577 270.297 103.734 268.029 111.326C265.773 118.917 263.159 126.389 259.985 133.677C258.408 137.325 256.67 140.918 254.777 144.459C253.833 146.232 252.829 147.984 251.778 149.718C250.719 151.453 249.616 153.17 248.36 154.84C246.805 156.904 243.871 157.318 241.807 155.763C240.603 154.858 239.957 153.452 239.945 152.051C239.932 149.962 240.077 147.924 240.261 145.903C240.457 143.883 240.697 141.879 241 139.893C241.598 135.92 242.35 132.002 243.264 128.132C245.071 120.391 247.438 112.838 250.159 105.401C252.872 97.9588 255.862 90.6108 259.28 83.404C260.967 79.7941 262.796 76.2271 264.722 72.6984C266.67 69.174 268.7 65.6795 271.07 62.2961C272.104 60.8223 274.138 60.4634 275.612 61.4972C276.539 62.1465 277.021 63.2103 277 64.2612Z" fill="#592220"/>
<path d="M329.123 91.9438C329.029 95.2246 328.662 98.4115 328.234 101.581C327.786 104.743 327.26 107.878 326.624 110.98C325.385 117.191 323.804 123.287 322.002 129.311C320.212 135.339 318.135 141.273 315.615 147.057C314.363 149.953 312.983 152.807 311.48 155.618C310.728 157.023 309.933 158.416 309.1 159.796C308.259 161.171 307.383 162.539 306.387 163.863C305.153 165.503 302.825 165.828 301.184 164.593C300.227 163.871 299.719 162.756 299.706 161.646C299.697 159.988 299.809 158.369 299.958 156.763C300.112 155.161 300.304 153.567 300.543 151.991C301.017 148.838 301.616 145.724 302.342 142.657C303.777 136.509 305.653 130.511 307.818 124.612C309.972 118.704 312.347 112.872 315.06 107.152C316.397 104.286 317.849 101.457 319.379 98.6507C320.925 95.8525 322.536 93.0758 324.42 90.3887C325.24 89.2182 326.855 88.9362 328.025 89.7564C328.756 90.2648 329.14 91.1107 329.123 91.9438Z" fill="#592220"/>
<path d="M138.784 55.337C138.664 59.468 138.203 63.4837 137.665 67.4737C137.101 71.4552 136.439 75.4068 135.636 79.3114C134.072 87.1334 132.081 94.8102 129.813 102.402C127.557 109.993 124.943 117.465 121.769 124.753C120.192 128.401 118.458 131.994 116.561 135.535C115.617 137.308 114.613 139.059 113.562 140.798C112.503 142.533 111.4 144.25 110.145 145.92C108.59 147.984 105.655 148.398 103.591 146.843C102.387 145.937 101.746 144.532 101.729 143.131C101.716 141.042 101.861 139.004 102.045 136.979C102.241 134.958 102.481 132.955 102.784 130.968C103.382 126.995 104.134 123.078 105.048 119.212C106.855 111.471 109.222 103.918 111.943 96.4805C114.656 89.0387 117.646 81.6909 121.064 74.484C122.751 70.8742 124.58 67.3113 126.506 63.7784C128.454 60.254 130.484 56.7552 132.855 53.3717C133.888 51.8979 135.922 51.5391 137.396 52.573C138.318 53.2223 138.805 54.286 138.784 55.337Z" fill="#592220"/>
</svg>
