<svg width="200" height="153" viewBox="0 0 200 153" fill="none" xmlns="http://www.w3.org/2000/svg">
<path d="M200 81.0042C200 120.766 155.228 153 100 153C44.7715 153 0 120.766 0 81.0042C0 41.2421 44.7715 9.00848 100 9.00848C155.228 9.00848 200 41.2421 200 81.0042Z" fill="#F4B13B"/>
<path d="M200 71.3291C200 110.723 155.228 142.658 100 142.658C44.7715 142.658 0 110.723 0 71.3291C0 31.9351 44.7715 0 100 0C155.228 0 200 31.9351 200 71.3291Z" fill="#BC3621"/>
<path d="M184.524 65.9962C184.524 97.2905 146.948 122.66 100.595 122.66C54.2428 122.66 16.6667 97.2905 16.6667 65.9962C16.6667 34.7019 54.2428 9.33288 100.595 9.33288C146.948 9.33288 184.524 34.7019 184.524 65.9962Z" fill="#A92D1B"/>
<path d="M64.96 35.4672C82.2418 26.4537 100.475 24.0886 114.451 27.7924C124.644 29.9543 136.063 34.5954 147.223 41.5663C166.933 53.8771 181.998 66.2552 185.027 79.4144C186.227 84.6298 184.262 93.2133 181.884 97.0281C175.496 107.276 157.063 107.943 136.469 100.063C126.374 96.2016 115.007 96.8633 105.734 102.422C104.247 103.312 102.719 104.169 101.15 104.988C72.3819 119.994 40.9611 116.595 30.9668 97.3977C27.5687 90.8702 27.2416 76.8696 29.213 69.2066C33.0423 54.329 45.9731 45.3709 64.96 35.4672Z" fill="#BD9171"/>
<path d="M66.1828 25.8539C83.4646 16.8404 101.698 14.4753 115.674 18.1792C125.866 20.341 137.285 24.9822 148.446 31.9531C175.967 49.1419 191.485 73.9734 183.107 87.4149C176.719 97.6628 158.286 98.3297 137.691 90.45C127.597 86.5884 116.23 87.2502 106.957 92.8084C105.47 93.6986 103.941 94.5554 102.373 95.3752C73.6047 110.38 42.1839 106.982 32.1896 87.7845C22.1969 68.5866 37.4165 40.8591 66.1828 25.8539Z" fill="#E0AC86"/>
<path d="M68.7281 29.3841C84.6628 21.4645 101.476 19.3878 114.364 22.6423C123.763 24.5414 134.292 28.6202 144.581 34.742C169.957 49.8423 184.267 71.6579 176.541 83.4659C170.651 92.4694 153.653 93.0541 134.664 86.1327C125.356 82.7394 114.875 83.3204 106.324 88.2041C104.954 88.9875 103.545 89.739 102.097 90.4584C75.5713 103.642 46.5978 100.655 37.3817 83.7894C28.1698 66.9268 42.2019 42.5675 68.7281 29.3841Z" fill="#8D251F"/>
<path d="M101.383 32.6346C101.437 34.5175 101.648 36.3468 101.893 38.1659C102.15 39.9817 102.452 41.7808 102.818 43.5596C103.529 47.124 104.436 50.6229 105.467 54.0815C106.494 57.5417 107.686 60.9464 109.129 64.2674C109.846 65.9306 110.637 67.5683 111.5 69.1824C111.929 69.9904 112.386 70.7882 112.864 71.5793C113.347 72.3689 113.849 73.1533 114.42 73.9126C115.128 74.8531 116.463 75.0414 117.403 74.3325C117.952 73.9192 118.244 73.2791 118.252 72.641C118.257 71.6886 118.192 70.7595 118.108 69.839C118.019 68.9185 117.91 68.0048 117.772 67.1012C117.5 65.2905 117.158 63.505 116.742 61.7427C115.92 58.2153 114.843 54.7719 113.603 51.3838C112.367 47.9941 111.007 44.6448 109.451 41.3608C108.682 39.7147 107.85 38.0904 106.974 36.4812C106.086 34.8753 105.164 33.2812 104.083 31.7392C103.611 31.0673 102.687 30.9044 102.016 31.3764C101.593 31.6704 101.373 32.1558 101.383 32.6346Z" fill="#592220"/>
<path d="M76.8052 41.7304C76.8523 43.3547 77.0334 44.9337 77.2447 46.5026C77.4662 48.0681 77.7263 49.6219 78.0417 51.1572C78.656 54.2327 79.4381 57.2511 80.3289 60.2362C81.2151 63.221 82.2419 66.159 83.4886 69.0246C84.108 70.459 84.7907 71.8717 85.5343 73.2641C85.9051 73.9612 86.2994 74.6501 86.7122 75.3319C87.1282 76.0141 87.5615 76.6892 88.0548 77.3458C88.6656 78.1574 89.8181 78.3202 90.6288 77.7088C91.1017 77.3529 91.3555 76.8001 91.3602 76.2492C91.3653 75.4278 91.3083 74.6265 91.2361 73.8318C91.1591 73.0376 91.0648 72.2496 90.9458 71.4687C90.7109 69.9065 90.4155 68.366 90.0565 66.8443C89.3467 63.8006 88.417 60.8307 87.3482 57.9065C86.2825 54.9803 85.1081 52.091 83.7655 49.2573C83.1029 47.8379 82.3844 46.4354 81.6279 45.0479C80.8627 43.6621 80.0654 42.2881 79.1344 40.9577C78.7283 40.3783 77.9294 40.2371 77.3504 40.6436C76.9863 40.8989 76.7969 41.3172 76.8052 41.7304Z" fill="#592220"/>
<path d="M56.3311 51.8029C56.368 53.0929 56.5121 54.346 56.6803 55.5922C56.8562 56.8355 57.0629 58.0682 57.3127 59.2879C57.7993 61.73 58.4203 64.127 59.1282 66.4956C59.8313 68.8658 60.6471 71.199 61.6369 73.4733C62.1287 74.612 62.6708 75.7342 63.2611 76.8395C63.5565 77.3919 63.8688 77.9396 64.196 78.4822C64.5263 79.0229 64.8704 79.5608 65.2617 80.0814C65.7464 80.7262 66.6608 80.854 67.3054 80.3684C67.6813 80.0845 67.8808 79.6461 67.8859 79.2097C67.8895 78.5577 67.8455 77.9212 67.7869 77.2897C67.7264 76.6598 67.651 76.033 67.5571 75.4133C67.371 74.1736 67.1357 72.9492 66.8505 71.7432C66.2868 69.3258 65.55 66.9674 64.6996 64.648C63.8535 62.3249 62.9206 60.0318 61.8549 57.7827C61.3298 56.6558 60.7594 55.5434 60.1585 54.44C59.5512 53.3398 58.9184 52.248 58.1784 51.1914C57.8563 50.7312 57.2219 50.6203 56.7624 50.9428C56.4752 51.1427 56.3244 51.4753 56.3311 51.8029Z" fill="#592220"/>
<path d="M131.096 38.613C131.143 40.2373 131.324 41.8163 131.535 43.3852C131.757 44.9507 132.017 46.5044 132.332 48.0397C132.947 51.1153 133.729 54.1338 134.62 57.1189C135.506 60.1037 136.533 63.0416 137.779 65.9073C138.399 67.3417 139.08 68.7544 139.825 70.1467C140.196 70.8439 140.59 71.5324 141.003 72.2161C141.419 72.8983 141.852 73.5735 142.345 74.2301C142.956 75.0417 144.109 75.2044 144.919 74.593C145.392 74.2368 145.644 73.6843 145.651 73.1335C145.656 72.3121 145.599 71.5107 145.527 70.7145C145.45 69.9199 145.355 69.1323 145.236 68.351C145.002 66.7888 144.706 65.2487 144.347 63.7286C143.637 60.6848 142.708 57.715 141.639 54.7906C140.573 51.8645 139.399 48.9753 138.056 46.1416C137.394 44.7222 136.675 43.3213 135.919 41.9322C135.153 40.5464 134.356 39.1707 133.425 37.8403C133.019 37.2608 132.22 37.1197 131.641 37.5262C131.279 37.7815 131.088 38.1998 131.096 38.613Z" fill="#592220"/>
</svg>
