<svg width="120" height="200" viewBox="0 0 120 200" fill="none" xmlns="http://www.w3.org/2000/svg">
<path fill-rule="evenodd" clip-rule="evenodd" d="M15.4656 182.976L0.0126863 39.5502C1.95388 44.4366 4.9618 48.6221 9.56476 52.1097L21.0073 167.736C31.4013 186.356 88.5121 186.991 97.6794 167.736L109.201 52.5709C114.075 48.9703 117.623 44.6266 119.289 39.5543L104.319 182.976C93.6954 205.189 24.6407 206.155 15.4656 182.976Z" fill="#FAD6AC"/>
<path fill-rule="evenodd" clip-rule="evenodd" d="M9.56476 52.1097C4.9618 48.6221 1.95388 44.4366 0.0126863 39.5502C-1.43617 1.88633 121.704 5.27094 119.289 39.5543C117.623 44.6266 114.075 48.9703 109.201 52.5709C86.0962 69.6396 33.1856 70.0074 9.56476 52.1097Z" fill="#F7DCB9"/>
<path fill-rule="evenodd" clip-rule="evenodd" d="M21.0073 167.736L9.56476 52.1097C33.1856 70.0074 86.0962 69.6396 109.201 52.5709L97.6794 167.736C88.5121 186.991 31.4013 186.356 21.0073 167.736Z" fill="#F19F7E"/>
<path d="M8.69221 36.1182C15.4528 61.229 103.341 60.7461 110.101 37.5669C98.9947 11.0089 11.5896 18.7357 8.69221 36.1182Z" fill="#F29D7F"/>
<path d="M42.4953 158.874C42.4953 160.741 41.198 162.255 39.5979 162.255C37.9977 162.255 36.7004 160.741 36.7004 158.874C36.7004 157.007 37.9977 155.494 39.5979 155.494C41.198 155.494 42.4953 157.007 42.4953 158.874Z" fill="#E9916F"/>
<path d="M53.1191 103.341C53.1191 104.941 52.0381 106.238 50.7046 106.238C49.3711 106.238 48.2901 104.941 48.2901 103.341C48.2901 101.741 49.3711 100.443 50.7046 100.443C52.0381 100.443 53.1191 101.741 53.1191 103.341Z" fill="#E9916F"/>
<path d="M79.1957 145.353C79.1957 147.22 77.8985 148.733 76.2983 148.733C74.6981 148.733 73.4009 147.22 73.4009 145.353C73.4009 143.486 74.6981 141.973 76.2983 141.973C77.8985 141.973 79.1957 143.486 79.1957 145.353Z" fill="#E9916F"/>
<path d="M30.9056 85.9563C30.9056 87.5565 29.8246 88.8537 28.4911 88.8537C27.1576 88.8537 26.0766 87.5565 26.0766 85.9563C26.0766 84.3561 27.1576 83.0589 28.4911 83.0589C29.8246 83.0589 30.9056 84.3561 30.9056 85.9563Z" fill="#E9916F"/>
<path d="M79.1957 79.6786C79.1957 80.4787 78.5471 81.1273 77.747 81.1273C76.9469 81.1273 76.2983 80.4787 76.2983 79.6786C76.2983 78.8785 76.9469 78.2299 77.747 78.2299C78.5471 78.2299 79.1957 78.8785 79.1957 79.6786Z" fill="#E9916F"/>
<path d="M48.2901 39.5979C48.2901 40.6646 46.3442 41.5295 43.944 41.5295C41.5437 41.5295 39.5979 40.6646 39.5979 39.5979C39.5979 38.5311 41.5437 37.6662 43.944 37.6662C46.3442 37.6662 48.2901 38.5311 48.2901 39.5979Z" fill="#E9916F"/>
<path d="M71.4693 29.9398C71.4693 30.4732 70.8207 30.9056 70.0206 30.9056C69.2205 30.9056 68.5719 30.4732 68.5719 29.9398C68.5719 29.4064 69.2205 28.974 70.0206 28.974C70.8207 28.974 71.4693 29.4064 71.4693 29.9398Z" fill="#E9916F"/>
<path d="M83.0589 39.5979C83.0589 40.6646 81.9779 41.5295 80.6444 41.5295C79.3109 41.5295 78.2299 40.6646 78.2299 39.5979C78.2299 38.5311 79.3109 37.6662 80.6444 37.6662C81.9779 37.6662 83.0589 38.5311 83.0589 39.5979Z" fill="#E9916F"/>
<path d="M40.3566 156.338C40.5689 156.367 40.762 156.442 40.923 156.538C41.2001 156.701 41.4829 156.986 41.6202 157.387L41.6701 157.567L41.7277 157.865C41.7441 157.958 41.7585 158.048 41.7706 158.134C41.8972 158.166 42.0533 158.201 42.257 158.236C42.8016 158.327 43.1689 158.843 43.0773 159.388C42.9855 159.933 42.4695 160.3 41.9249 160.208C41.7046 160.171 41.513 160.132 41.34 160.09C41.1941 160.173 41.0257 160.222 40.8458 160.222C40.3655 160.222 39.9655 159.883 39.8693 159.431C39.6102 159.24 39.3448 158.98 39.1681 158.62C39.0221 158.322 38.9501 157.987 38.9513 157.682C38.9519 157.529 38.9717 157.343 39.0372 157.154C39.0996 156.974 39.2374 156.697 39.5392 156.507L39.6535 156.444C39.9201 156.315 40.1829 156.315 40.3566 156.338Z" fill="#F19F7E"/>
<path fill-rule="evenodd" clip-rule="evenodd" d="M63.4944 2.88242C63.642 1.93925 63.7808 1.05268 63.8744 0.234011C71.118 -1.21469 83.1905 4.09769 85.1223 15.2068L85.2282 16.6526L86.5705 35.0052C59.9669 25.408 62.1171 11.6779 63.4944 2.88242Z" fill="#658408"/>
<path fill-rule="evenodd" clip-rule="evenodd" d="M86.5708 35.0029C108.301 35.0029 112.647 17.1354 109.267 8.44321C100.092 5.54581 95.7518 6.56579 85.2282 16.6526L86.5708 35.0029Z" fill="#8CA224"/>
</svg>
