<svg width="110" height="200" viewBox="0 0 110 200" fill="none" xmlns="http://www.w3.org/2000/svg">
<path d="M58.3396 0V86.4199H50.3396V0H58.3396Z" fill="#893A2A"/>
<path d="M6.03659 77.1604C2.27948 70.7701 3.65051 67.5249 6.03659 61.7283H102.984L103.052 61.8222C107.39 67.7897 109.844 71.166 102.984 77.1604H6.03659Z" fill="#FFF1DE"/>
<path d="M103.748 60.2283L104.197 60.8465L104.265 60.9402C105.337 62.4148 106.352 63.8088 107.13 65.1346C107.91 66.4647 108.519 67.8359 108.705 69.2918C109.098 72.3762 107.536 75.1739 103.971 78.2898L103.547 78.66H5.17852L4.74395 77.9207C2.76119 74.5483 2.03718 71.8363 2.23711 69.1121C2.42964 66.4893 3.4834 63.9892 4.64922 61.157L5.03203 60.2283H103.748ZM7.04278 63.2283C6.03353 65.7009 5.3633 67.5064 5.2293 69.3318C5.09853 71.114 5.48297 73.03 6.91289 75.66H102.409C105.343 72.9874 105.924 71.1956 105.729 69.6707C105.617 68.7874 105.227 67.8206 104.542 66.6521C103.935 65.6176 103.148 64.5107 102.219 63.2283H7.04278Z" fill="#FFF1DE"/>
<path d="M102.504 77.7777H8.64486L19.1423 190.74C19.8788 196.713 21.6816 198.56 27.1698 199.382H86.4494C90.9451 198.023 91.9485 195.792 92.6244 190.74L102.504 77.7777Z" fill="#FF9BA6"/>
<path d="M14.5491 143.21L12.3498 120.987H96.9469L95.0944 142.592L14.5491 143.21Z" fill="#FFF0E0"/>
<path d="M72.8645 173.457C72.8645 176.525 70.3763 179.012 67.307 179.012C64.2377 179.012 61.7496 176.525 61.7496 173.457C61.7496 170.388 64.2377 167.901 67.307 167.901C70.3763 167.901 72.8645 170.388 72.8645 173.457Z" fill="#FFF0E0"/>
<path d="M50.6346 182.099C50.6346 183.803 49.2523 185.185 47.5471 185.185C45.842 185.185 44.4597 183.803 44.4597 182.099C44.4597 180.394 45.842 179.012 47.5471 179.012C49.2523 179.012 50.6346 180.394 50.6346 182.099Z" fill="#FFF0E0"/>
<path d="M89.5783 151.252C89.6012 151.262 89.618 151.283 89.6272 151.309C89.6362 151.336 89.6367 151.367 89.6281 151.396C89.597 151.504 89.5671 151.623 89.5393 151.75C89.5172 151.857 89.4958 151.971 89.4758 152.092C89.4265 152.382 89.4044 152.604 89.3742 152.892C89.2658 152.918 89.1791 152.964 89.1281 153.06C89.102 153.11 89.0816 153.188 89.091 153.25C89.0995 153.305 89.1239 153.351 89.1467 153.393C89.1704 153.438 89.1928 153.481 89.1955 153.532C89.2005 153.617 89.2309 153.713 89.2658 153.794C89.2783 153.825 89.2911 153.856 89.3029 153.888C89.291 154.135 89.2792 154.406 89.2717 154.662C89.2505 154.755 89.2325 154.843 89.2287 154.92C89.2254 154.988 89.2406 155.054 89.2609 155.12C89.2601 155.16 89.2588 155.2 89.258 155.241C89.2522 155.511 89.2511 155.752 89.2492 156.011C89.2058 156.206 89.1616 156.433 89.1311 156.692C89.1176 156.807 89.0943 156.922 89.0725 157.033C89.0403 157.197 89.0101 157.353 89.0158 157.494C89.0196 157.589 88.9999 157.678 88.9797 157.772C88.9527 157.897 88.9258 158.024 88.9582 158.142C88.9786 158.217 89.0053 158.286 89.0295 158.35C89.068 158.452 89.1014 158.542 89.0998 158.622C89.0968 158.77 89.123 158.894 89.1457 159.008C89.1731 159.143 89.1962 159.257 89.1604 159.355C89.1549 159.37 89.1479 159.387 89.1399 159.406C89.0975 159.506 89.0299 159.672 89.052 159.908C89.0599 159.991 89.0861 160.07 89.1125 160.147C89.1509 160.26 89.189 160.37 89.1652 160.486C89.1617 160.503 89.1484 160.521 89.1369 160.537C89.1226 160.557 89.1102 160.575 89.1193 160.587C89.1484 160.62 89.1808 160.672 89.215 160.729C89.2402 160.771 89.2669 160.816 89.2951 160.857C89.2992 161.167 89.3032 161.458 89.3068 161.763C89.3086 161.902 89.3102 162.041 89.3117 162.181C89.2633 162.251 89.2197 162.324 89.1858 162.398C89.1414 162.496 89.1239 162.624 89.1018 162.79C89.0855 162.912 89.0668 163.055 89.0324 163.221C88.9688 163.532 88.9698 163.848 88.9914 164.051C88.996 164.094 89.0006 164.138 89.0061 164.184C89.0267 164.36 89.0524 164.582 89.0754 165.001C89.0973 165.393 89.0963 165.73 89.0949 165.982C89.0943 166.111 89.0931 166.219 89.0959 166.301C89.1007 166.44 89.104 166.612 89.1067 166.785C89.1108 167.055 89.1141 167.328 89.1262 167.483C89.1305 167.538 89.1368 167.596 89.1428 167.658C89.1595 167.831 89.1797 168.04 89.1858 168.327C89.192 168.628 89.1746 168.815 89.1438 169.008C89.1312 169.086 89.0897 169.155 89.0471 169.225C88.9866 169.325 88.9231 169.429 88.9358 169.573C88.9387 169.607 88.9469 169.643 88.9553 169.68C88.9707 169.75 88.987 169.825 88.9758 169.9C88.9718 169.926 88.9605 169.949 88.9494 169.971C88.9371 169.996 88.9257 170.021 88.924 170.049C88.9179 170.153 88.9162 170.254 88.9152 170.344C88.914 170.461 88.913 170.559 88.9016 170.62C88.881 170.728 88.8912 170.847 88.9016 170.967C88.9095 171.059 88.917 171.152 88.9113 171.241C88.8951 171.495 88.9095 171.848 88.9406 172.214C88.9524 172.352 88.9226 172.467 88.885 172.614C88.8616 172.705 88.8348 172.809 88.8127 172.938C88.8002 173.011 88.819 173.076 88.8361 173.135C88.8519 173.19 88.8667 173.242 88.8547 173.293C88.844 173.337 88.8063 173.364 88.7707 173.389C88.7311 173.418 88.6939 173.444 88.6984 173.492C88.701 173.517 88.7178 173.549 88.7375 173.587C88.7452 173.601 88.753 173.617 88.7609 173.634C88.7538 173.632 88.7473 173.632 88.7424 173.632C88.7074 173.63 88.6867 173.678 88.6662 173.724C88.6581 173.743 88.6497 173.761 88.6408 173.776C88.6081 173.831 88.5977 173.938 88.5949 174.02C88.5937 174.055 88.5812 174.086 88.5666 174.122C88.5537 174.154 88.5393 174.19 88.5295 174.236C88.5239 174.262 88.5125 174.282 88.5031 174.299C88.4963 174.311 88.4904 174.321 88.4885 174.331C88.4869 174.339 88.4962 174.347 88.507 174.355C88.5149 174.361 88.5241 174.368 88.5295 174.376C88.5421 174.394 88.5445 174.417 88.5393 174.432C88.5368 174.44 88.5327 174.445 88.5285 174.451C88.5237 174.457 88.5189 174.464 88.5168 174.473C88.5073 174.515 88.517 174.557 88.5266 174.6C88.5371 174.648 88.5475 174.698 88.5344 174.752C88.5302 174.769 88.5219 174.786 88.5139 174.803C88.5054 174.821 88.4971 174.839 88.4943 174.854C88.4832 174.916 88.5046 174.975 88.5246 175.03C88.5379 175.066 88.5505 175.1 88.552 175.132C88.5548 175.189 88.5838 175.221 88.6047 175.245C88.6154 175.257 88.6239 175.267 88.6262 175.277C88.6248 175.286 88.6239 175.295 88.6223 175.304C88.6196 175.313 88.6162 175.321 88.6164 175.329V175.331C88.6061 175.381 88.5926 175.43 88.5793 175.478C88.5495 175.586 88.52 175.7 88.5256 175.818C88.5269 175.844 88.5381 175.87 88.549 175.897C88.5624 175.93 88.5757 175.964 88.5725 175.998C88.5646 176.077 88.5393 176.157 88.5139 176.234C88.4757 176.351 88.4378 176.464 88.4631 176.572C88.4715 176.608 88.4875 176.643 88.5031 176.678C88.5117 176.698 88.5201 176.717 88.5275 176.737C88.5115 176.732 88.4958 176.728 88.4817 176.725C88.4525 176.719 88.4276 176.714 88.4074 176.694C88.3595 176.647 88.292 176.592 88.2404 176.594C88.2265 176.595 88.2109 176.593 88.1955 176.591C88.1567 176.585 88.1167 176.579 88.0959 176.618C88.0817 176.645 88.0498 176.712 88.0764 176.759C88.0822 176.769 88.0948 176.775 88.1086 176.783C88.1335 176.796 88.1632 176.813 88.1672 176.857C88.1679 176.864 88.1678 176.872 88.1682 176.881C88.1698 176.914 88.1719 176.951 88.1916 176.967C88.2143 176.984 88.2425 176.982 88.2746 176.98C88.3164 176.978 88.3662 176.976 88.4231 177.014C88.4341 177.022 88.4373 177.035 88.4397 177.045C88.4413 177.052 88.443 177.058 88.4465 177.058C88.4507 177.059 88.4594 177.057 88.4699 177.055C88.5084 177.048 88.5747 177.036 88.5725 177.107C88.5718 177.126 88.567 177.148 88.5627 177.168C88.5565 177.196 88.5517 177.22 88.5617 177.224C88.5657 177.226 88.5709 177.227 88.5754 177.228C88.5724 177.251 88.5686 177.274 88.5656 177.297C88.5506 177.325 88.5486 177.367 88.5461 177.419C88.5455 177.431 88.545 177.444 88.5442 177.458C88.538 177.503 88.5318 177.548 88.5256 177.592C88.5174 177.628 88.5057 177.665 88.4885 177.704C88.4539 177.781 88.4018 177.847 88.3508 177.911C88.3293 177.938 88.308 177.964 88.2883 177.991C88.2871 177.98 88.2852 177.97 88.2824 177.962C88.263 177.907 88.2175 177.881 88.176 177.858C88.1485 177.843 88.1224 177.829 88.1067 177.807C88.0777 177.768 88.0398 177.768 88.0119 177.768C87.9977 177.769 87.9862 177.769 87.9797 177.763C87.9744 177.759 87.9719 177.75 87.9699 177.74C87.9682 177.732 87.9671 177.722 87.9631 177.717C87.9137 177.646 87.8798 177.664 87.8313 177.689C87.8046 177.703 87.7728 177.719 87.7317 177.724C87.6886 177.728 87.6765 177.725 87.6623 177.689C87.639 177.714 87.6153 177.739 87.592 177.764C87.5925 177.775 87.6051 177.785 87.6262 177.798C87.6637 177.821 87.6729 177.887 87.6799 177.939C87.6832 177.963 87.6856 177.985 87.6906 177.998C87.7172 178.064 87.7634 178.05 87.8039 178.037C87.8263 178.03 87.8477 178.022 87.8625 178.03C87.8689 178.033 87.876 178.031 87.883 178.027C87.8883 178.024 87.8934 178.022 87.8986 178.022C87.9379 178.025 87.9645 178.065 87.9885 178.102C88.0021 178.124 88.0149 178.144 88.0295 178.156C88.034 178.16 88.0387 178.163 88.0432 178.166C88.0498 178.17 88.0566 178.174 88.0617 178.179C88.0734 178.193 88.0801 178.219 88.0871 178.247C88.0907 178.261 88.0941 178.277 88.0988 178.292C88.105 178.31 88.1197 178.318 88.135 178.326C88.146 178.332 88.1573 178.338 88.1662 178.348C88.1823 178.367 88.1856 178.401 88.1887 178.433C88.19 178.447 88.1923 178.461 88.1945 178.472C88.1955 178.477 88.1978 178.479 88.2014 178.48C88.209 178.533 88.2169 178.584 88.2248 178.633C88.2641 178.881 88.2999 179.079 88.2287 179.398C88.2154 179.457 88.21 179.521 88.2092 179.586C88.1725 179.79 88.134 179.991 88.0949 180.188C88.0553 180.224 88.0207 180.268 87.9904 180.326C87.9338 180.433 87.9106 180.547 87.883 180.679C87.8626 180.777 87.839 180.886 87.7981 181.009C87.7298 181.21 87.6638 181.431 87.6086 181.677C87.5531 181.927 87.499 182.182 87.4572 182.395C87.4355 182.506 87.3836 182.616 87.3352 182.716C87.2669 182.856 87.2053 182.978 87.2424 183.067C87.2544 183.095 87.278 183.126 87.301 183.158C87.3175 183.18 87.3338 183.202 87.3449 183.222C87.3307 183.268 87.3164 183.314 87.302 183.359C87.2494 183.433 87.184 183.549 87.1955 183.676C87.1801 183.72 87.1649 183.764 87.1496 183.805C87.1174 183.894 87.0826 183.991 87.0461 184.088C87.0342 184.119 87.0221 184.15 87.01 184.181L87.009 184.182C86.9846 184.245 86.9605 184.307 86.9358 184.367C86.9252 184.392 86.9142 184.418 86.9035 184.443C86.8764 184.507 86.8496 184.569 86.8215 184.632C86.8055 184.668 86.789 184.704 86.7727 184.74C86.7462 184.798 86.7197 184.855 86.6926 184.911C86.6488 185.001 86.6039 185.087 86.5588 185.169C86.5515 185.182 86.5406 185.193 86.5285 185.199C86.5163 185.205 86.5031 185.207 86.4924 185.203C86.4816 185.198 86.4734 185.188 86.469 185.175C86.4647 185.161 86.4642 185.146 86.468 185.132C86.4915 185.042 86.5142 184.95 86.5363 184.855C86.55 184.796 86.5633 184.736 86.5764 184.675C86.5844 184.637 86.593 184.599 86.6008 184.561C86.6135 184.495 86.625 184.43 86.6369 184.363C86.6415 184.337 86.6461 184.31 86.6506 184.284C86.6612 184.222 86.6724 184.157 86.6828 184.092C86.6879 184.061 86.6926 184.027 86.6975 183.995C86.7129 183.896 86.7278 183.797 86.7395 183.706C86.7456 183.657 86.7517 183.606 86.758 183.554C86.7615 183.526 86.7654 183.498 86.7688 183.469C86.7706 183.454 86.7727 183.438 86.7746 183.423C86.8204 183.046 86.8488 182.705 86.8791 182.331C86.9091 181.955 86.9282 181.614 86.9494 181.235C86.9677 180.875 86.982 180.517 86.9963 180.141C87.073 177.843 87.0613 175.506 87.0783 173.176C87.0806 172.839 87.0828 172.505 87.0861 172.171C87.0896 171.834 87.0939 171.502 87.0988 171.166C87.1003 171.063 87.1019 170.958 87.1037 170.85C87.118 169.974 87.3309 169.141 87.3606 168.262C87.3972 167.174 87.2564 166.057 87.3244 164.967C87.3925 163.874 87.4753 162.789 87.5754 161.694C87.6751 160.612 87.7925 159.507 87.9289 158.425C88.0656 157.342 88.2228 156.237 88.4152 155.158C88.546 154.431 88.6948 153.681 88.8811 152.962C88.9672 152.625 89.0504 152.345 89.1633 152.007C89.2039 151.888 89.2457 151.776 89.2883 151.671C89.3373 151.545 89.3876 151.428 89.4397 151.323C89.4542 151.294 89.4774 151.27 89.5031 151.257C89.5288 151.244 89.5556 151.242 89.5783 151.252ZM91.4055 86.4401C91.4362 86.4692 91.4669 86.4979 91.4973 86.5271C91.516 86.5451 91.5344 86.5638 91.5529 86.5817C91.5644 86.5928 91.5758 86.604 91.5871 86.615C91.6084 86.6356 91.6303 86.6566 91.6516 86.6775C91.66 86.6857 91.6686 86.6946 91.677 86.7028C91.6964 86.7219 91.7162 86.7412 91.7356 86.7605C91.7451 86.77 91.7554 86.7804 91.7649 86.7898C91.7938 86.8184 91.8241 86.849 91.8537 86.8796C91.8692 86.8953 91.8849 86.9121 91.9006 86.9284C91.9094 86.9375 91.9184 86.9469 91.927 86.9558C91.9316 86.9607 91.9369 86.9654 91.9416 86.9704C92.0519 87.0856 92.156 87.1952 92.2639 87.3161C92.3705 87.4349 92.4728 87.5508 92.5754 87.6726C92.6782 87.7949 92.7768 87.9155 92.8742 88.0388C93.4967 88.8284 94.0569 89.6834 94.4846 90.6296C94.5452 90.7635 94.6045 90.9036 94.6594 91.0417C94.7146 91.1807 94.7657 91.3196 94.8147 91.4626C94.8296 91.506 94.8447 91.5506 94.8596 91.5964C94.9813 91.9715 94.8852 92.3782 94.9553 92.7595C95.0423 93.232 95.2807 93.7009 95.2863 94.1921C95.2916 94.6783 95.2581 95.1631 95.1936 95.6384C95.1291 96.1142 95.0343 96.5824 94.9182 97.0398C94.8021 97.4965 94.6633 97.9495 94.5129 98.3894C94.4104 98.6911 94.3017 98.991 94.1897 99.2829C94.1404 99.4123 94.0896 99.5433 94.0393 99.6696C94.0015 99.7649 93.9637 99.8612 93.925 99.9577C93.9195 99.9711 93.9051 99.9825 93.885 99.989C93.8647 99.9954 93.84 99.9964 93.8156 99.9919C93.7912 99.9874 93.7688 99.9769 93.7522 99.9636C93.7356 99.9504 93.726 99.935 93.7258 99.9206C93.7245 99.8163 93.7232 99.7125 93.7209 99.6101C93.7183 99.4971 93.7152 99.3822 93.7121 99.2673C93.8156 99.2668 93.8965 99.2558 93.9377 99.2165C93.9587 99.1964 93.971 99.164 93.9563 99.1364C93.943 99.1117 93.9159 99.0903 93.8899 99.07C93.8626 99.0488 93.8371 99.0281 93.8303 99.0066C93.8186 98.9704 93.7808 98.9308 93.7414 98.8894C93.7271 98.8743 93.7122 98.859 93.6984 98.8435C93.6946 98.7341 93.6906 98.6253 93.6858 98.5183C93.7024 98.4798 93.7165 98.4437 93.717 98.4109C93.7174 98.3816 93.6999 98.3518 93.677 98.322C93.6762 98.3054 93.6749 98.2888 93.674 98.2722C93.6689 98.164 93.6634 98.0583 93.6574 97.9509C93.695 97.8717 93.7324 97.7882 93.757 97.6784C93.7677 97.6311 93.7877 97.5855 93.8068 97.5417C93.8352 97.4758 93.8615 97.4135 93.8527 97.3562C93.847 97.3179 93.8649 97.2803 93.883 97.2429C93.9074 97.1924 93.9314 97.143 93.8967 97.0915C93.8749 97.0591 93.8479 97.0286 93.8225 97.0007C93.7821 96.9565 93.7467 96.9183 93.7463 96.8864C93.7463 96.8265 93.7176 96.7724 93.6926 96.7253C93.6626 96.6691 93.6377 96.6209 93.6711 96.5827C93.6762 96.5769 93.683 96.5696 93.6906 96.5622C93.7308 96.5233 93.7942 96.4604 93.7668 96.364C93.757 96.3297 93.7286 96.2965 93.7004 96.2644C93.6593 96.2172 93.619 96.1706 93.6399 96.1247C93.643 96.1179 93.6553 96.1113 93.6662 96.1052C93.6801 96.0974 93.6924 96.0905 93.6828 96.0857C93.6529 96.0715 93.6199 96.0495 93.5842 96.0261C93.5579 96.0089 93.5296 95.9911 93.5002 95.9743C93.4875 95.8551 93.4749 95.734 93.4611 95.615C93.4548 95.5605 93.4481 95.5058 93.4416 95.4519C93.4875 95.4242 93.5286 95.3945 93.5598 95.364C93.6004 95.3241 93.6129 95.2722 93.6281 95.2058C93.6394 95.1568 93.6521 95.1 93.6789 95.0329C93.7286 94.908 93.7122 94.7817 93.6799 94.7029C93.6731 94.6861 93.6654 94.6692 93.6574 94.6511C93.6272 94.5829 93.589 94.498 93.5402 94.3386C93.4938 94.1871 93.4725 94.0573 93.4553 93.9607C93.4465 93.9116 93.4389 93.8705 93.4299 93.8396C93.4143 93.7864 93.3981 93.7203 93.3811 93.655C93.3545 93.5528 93.3262 93.4503 93.3 93.3942C93.2908 93.3744 93.2795 93.354 93.2678 93.3317C93.235 93.2697 93.1946 93.1948 93.1594 93.0896C93.1225 92.9796 93.1195 92.9072 93.1281 92.8298C93.1316 92.7983 93.164 92.7637 93.1975 92.7282C93.2449 92.678 93.2941 92.6247 93.2649 92.5739C93.2579 92.5621 93.2454 92.5499 93.2326 92.5378C93.2093 92.5158 93.1844 92.492 93.1858 92.4616C93.1863 92.451 93.1944 92.4395 93.2024 92.4284C93.2111 92.4163 93.219 92.404 93.217 92.3933C93.2097 92.3533 93.1976 92.3155 93.1867 92.2819C93.1727 92.2386 93.1613 92.2018 93.1643 92.1765C93.1693 92.1314 93.143 92.0902 93.1164 92.0495C93.096 92.0183 93.075 91.9869 93.0676 91.9528C93.0466 91.8553 92.9803 91.7299 92.8938 91.6101C92.8611 91.5646 92.8706 91.514 92.882 91.4489C92.8891 91.4084 92.8976 91.3616 92.8967 91.3083C92.8959 91.2782 92.8671 91.2618 92.841 91.2468C92.817 91.233 92.7946 91.2198 92.7971 91.198C92.7983 91.1883 92.8071 91.1783 92.8186 91.1677L92.9006 91.1013C92.9108 91.0906 92.9149 91.0807 92.9084 91.073C92.9012 91.065 92.8804 91.0597 92.8557 91.0534C92.8457 91.0509 92.835 91.0477 92.8244 91.0446C92.8315 91.0425 92.8383 91.0404 92.843 91.0388C92.8757 91.027 92.8871 91.003 92.8977 90.9792C92.9019 90.9696 92.9058 90.9595 92.9113 90.9509C92.9317 90.9197 92.9219 90.8784 92.9094 90.8484C92.9041 90.8356 92.9104 90.8196 92.9172 90.8015C92.9232 90.7854 92.9296 90.7669 92.9299 90.7468C92.9301 90.7353 92.9371 90.7239 92.9426 90.7146C92.9465 90.7079 92.9495 90.7021 92.9494 90.698C92.9493 90.6944 92.9395 90.6959 92.9279 90.697C92.9195 90.6978 92.91 90.6987 92.9035 90.698C92.8881 90.6963 92.8811 90.6889 92.883 90.6814C92.8839 90.6779 92.887 90.6741 92.8899 90.6706C92.893 90.6667 92.8964 90.6627 92.8967 90.6589C92.8975 90.6405 92.8807 90.6285 92.8635 90.6169C92.8445 90.6041 92.8249 90.5911 92.8264 90.5671C92.8269 90.5596 92.8302 90.5499 92.8342 90.5407C92.8385 90.5312 92.8434 90.5217 92.843 90.5153C92.8411 90.4898 92.8087 90.4777 92.7795 90.4665C92.7603 90.4592 92.7424 90.4521 92.7346 90.4421C92.7205 90.4233 92.6873 90.4225 92.6633 90.4226C92.6512 90.4226 92.6412 90.4231 92.6369 90.4206C92.6363 90.4169 92.6353 90.4127 92.635 90.4089C92.6358 90.405 92.6368 90.4008 92.635 90.3982L92.6379 90.3317C92.6424 90.2816 92.6466 90.2316 92.6164 90.1931C92.6099 90.1848 92.594 90.18 92.5783 90.1755C92.5596 90.17 92.5408 90.1641 92.5363 90.1521C92.5266 90.1222 92.5321 90.0844 92.5383 90.0476C92.5476 89.9922 92.557 89.9371 92.51 89.9109C92.4944 89.9022 92.4716 89.8977 92.4494 89.8923C92.4374 89.8894 92.4253 89.886 92.4143 89.8825C92.4297 89.8775 92.4439 89.8719 92.4572 89.8669C92.4851 89.8564 92.5096 89.8473 92.5324 89.8454C92.5864 89.8411 92.6592 89.831 92.7053 89.8083C92.7177 89.8022 92.7319 89.7965 92.7463 89.7907C92.7826 89.7762 92.8204 89.7616 92.8303 89.739C92.8369 89.7237 92.8502 89.6855 92.8156 89.6804C92.808 89.6793 92.7947 89.6819 92.7805 89.6853C92.7549 89.6913 92.7248 89.6984 92.7111 89.6853C92.7089 89.6831 92.7065 89.6809 92.7043 89.6784C92.6951 89.6678 92.6845 89.6563 92.6633 89.6599C92.639 89.6641 92.6145 89.6767 92.5861 89.6911C92.5491 89.71 92.5051 89.7325 92.4455 89.7448C92.4337 89.7473 92.4274 89.7441 92.4231 89.7419C92.4201 89.7404 92.4175 89.7387 92.4143 89.74C92.4105 89.7414 92.4031 89.7463 92.3938 89.7517C92.3608 89.7707 92.3032 89.8039 92.2893 89.78C92.2855 89.7735 92.285 89.7638 92.2844 89.7556C92.2835 89.7438 92.2827 89.7339 92.2727 89.737C92.2687 89.7383 92.2643 89.7402 92.26 89.7419C92.2574 89.7332 92.2547 89.7243 92.2522 89.7155C92.2591 89.6996 92.2513 89.6847 92.2414 89.6667C92.2391 89.6625 92.237 89.6578 92.2346 89.653C92.2295 89.6358 92.224 89.6186 92.219 89.6013C92.2179 89.586 92.2198 89.5681 92.2258 89.5476C92.2378 89.5063 92.2676 89.4604 92.2971 89.4157C92.3095 89.397 92.3216 89.3782 92.3322 89.3601C92.3361 89.3633 92.3405 89.3665 92.3449 89.3679C92.3759 89.3775 92.4225 89.3653 92.465 89.3542C92.4933 89.3469 92.5199 89.3394 92.5393 89.3396C92.5749 89.3399 92.6084 89.3231 92.633 89.3103C92.6457 89.3037 92.6561 89.2987 92.6633 89.2976C92.6691 89.2967 92.6728 89.299 92.677 89.3015C92.6806 89.3036 92.6846 89.3052 92.6897 89.3054C92.7511 89.3073 92.7769 89.2863 92.8137 89.2556C92.8339 89.2387 92.8577 89.2184 92.8928 89.198C92.9302 89.177 92.9424 89.1724 92.9641 89.1784C92.9783 89.1592 92.9929 89.1401 93.007 89.1208C93.0039 89.1173 92.99 89.1197 92.968 89.1247C92.9288 89.1335 92.9035 89.1143 92.884 89.0993C92.875 89.0924 92.8671 89.0864 92.8596 89.0847C92.8194 89.0752 92.782 89.1009 92.7492 89.1237C92.7312 89.1363 92.7145 89.1478 92.6994 89.1521C92.6931 89.1539 92.6881 89.1586 92.6828 89.1628C92.6787 89.1661 92.674 89.1692 92.6692 89.1716C92.6338 89.1887 92.601 89.1882 92.5705 89.1872C92.5532 89.1866 92.5366 89.1862 92.5207 89.1892L92.4865 89.196C92.473 89.197 92.4606 89.192 92.4475 89.1862C92.4407 89.1833 92.4337 89.1799 92.426 89.1775C92.4159 89.1743 92.4007 89.1787 92.385 89.1833C92.3738 89.1865 92.3621 89.1903 92.3518 89.1911C92.3331 89.1926 92.3215 89.1823 92.3108 89.1735C92.3061 89.1697 92.301 89.1664 92.2961 89.1638C92.2941 89.1629 92.2915 89.1634 92.2883 89.1648C92.2682 89.1514 92.2482 89.1387 92.2287 89.1267C92.1309 89.067 92.0442 89.0122 92.0236 88.8855C92.0196 88.8613 92.0063 88.8392 91.9895 88.8191C91.966 88.7391 91.9423 88.6583 91.9182 88.5769C91.9419 88.5459 91.9595 88.5143 91.969 88.4821C91.9873 88.4228 91.9738 88.3778 91.9582 88.3249C91.9467 88.2859 91.934 88.2419 91.9309 88.1843C91.926 88.0881 91.9111 87.989 91.8791 87.8933C91.8466 87.7967 91.8015 87.6886 91.7649 87.614C91.745 87.5734 91.7497 87.516 91.7531 87.4626C91.7589 87.389 91.7635 87.3228 91.7004 87.32C91.6801 87.3193 91.6486 87.3251 91.6184 87.3308C91.5968 87.3348 91.5753 87.3381 91.5588 87.3396C91.5536 87.3214 91.5484 87.3032 91.5432 87.2849C91.5577 87.2382 91.565 87.1734 91.5051 87.1501C91.4996 87.131 91.4937 87.1121 91.4885 87.0935C91.4768 87.0528 91.466 87.0114 91.4553 86.9724C91.4518 86.9595 91.4472 86.9464 91.4436 86.9333L91.4221 86.8542C91.419 86.8429 91.4154 86.8313 91.4123 86.82C91.4044 86.7915 91.3967 86.7626 91.3889 86.7341C91.3848 86.719 91.3804 86.7034 91.3762 86.6882C91.3693 86.6633 91.3616 86.6381 91.3547 86.613C91.3435 86.5725 91.3328 86.5317 91.3215 86.4909C91.3197 86.4842 91.3211 86.4752 91.3264 86.4665C91.3317 86.4578 91.3398 86.4492 91.3498 86.4431C91.3598 86.437 91.3718 86.4339 91.382 86.4333C91.392 86.4328 91.4005 86.4355 91.4055 86.4401Z" fill="white"/>
<path d="M17.2907 59.2678C23.4648 25.926 90.1544 28.3952 92.6253 59.2678H17.2907Z" fill="#FFF1DE"/>
<path d="M56.3727 33.6873C65.4519 33.8451 74.486 36.0531 81.4567 40.2713C88.4478 44.5018 93.4548 50.8268 94.1208 59.1482C94.1542 59.5654 94.0111 59.9774 93.7272 60.285C93.4434 60.5924 93.0442 60.7673 92.6257 60.7674H17.2907C16.8451 60.7674 16.4224 60.5699 16.1374 60.2273C15.8524 59.8848 15.735 59.433 15.8161 58.9949C17.4584 50.1263 23.1312 43.6902 30.5905 39.5486C38.0265 35.42 47.2914 33.5294 56.3727 33.6873ZM56.321 36.6873C47.6494 36.5365 38.9295 38.3508 32.0476 42.1717C25.7196 45.6851 20.995 50.86 19.1667 57.7674H90.9294C89.8869 51.4243 85.8097 46.412 79.903 42.8377C73.4817 38.9521 64.9945 36.8382 56.321 36.6873Z" fill="#FFF1DE"/>
</svg>
