<svg width="200" height="200" viewBox="0 0 200 200" fill="none" xmlns="http://www.w3.org/2000/svg">
<path d="M190 103.644C190 141.396 149.706 172 100 172C50.2944 172 10 141.396 10 103.644C10 65.8914 50.2944 35.2872 100 35.2872C149.706 35.2872 190 65.8914 190 103.644Z" fill="#D4C9D4"/>
<path d="M189 103.644C189 85.1476 179.132 68.3303 163.035 56.1046C146.938 43.8783 124.654 36.2872 100 36.2872C75.3456 36.2872 53.0624 43.8783 36.9648 56.1046C20.8682 68.3303 11 85.1476 11 103.644C11 122.14 20.8681 138.957 36.9648 151.183C53.0624 163.409 75.3456 171 100 171V172L98.8369 171.994C50.0547 171.525 10.626 141.578 10.0078 104.527L10 103.644C10 65.8914 50.2944 35.2872 100 35.2872C149.706 35.2872 190 65.8914 190 103.644L189.992 104.527C189.369 141.872 149.317 172 100 172V171C124.654 171 146.938 163.409 163.035 151.183C179.132 138.957 189 122.14 189 103.644Z" fill="#E5E3E2"/>
<path d="M190 97.9513C190 135.354 149.706 165.675 100 165.675C50.2944 165.675 10 135.354 10 97.9513C10 60.5487 50.2944 30.2279 100 30.2279C149.706 30.2279 190 60.5487 190 97.9513Z" fill="#FFFBF2"/>
<path d="M189 97.9515C189 79.6341 179.135 62.9755 163.038 50.8626C146.94 38.7495 124.657 31.2279 100 31.2279C75.3435 31.2279 53.0595 38.7495 36.9619 50.8626C20.8647 62.9755 11 79.6341 11 97.9515C11.0001 116.269 20.8648 132.928 36.9619 145.04C53.0595 157.153 75.3436 164.675 100 164.675V165.675L98.8369 165.669C50.0544 165.204 10.6257 135.534 10.0078 98.8265L10 97.9513C10 60.5487 50.2944 30.2279 100 30.2279C149.706 30.2279 190 60.5487 190 97.9513L189.992 98.8265C189.369 135.826 149.317 165.675 100 165.675V164.675C124.656 164.675 146.94 157.153 163.038 145.04C179.135 132.928 189 116.269 189 97.9515Z" fill="#D4C9D4"/>
<path d="M176.071 92.8847C176.071 122.597 142.253 146.684 100.536 146.684C58.8185 146.684 25 122.597 25 92.8847C25 63.1723 58.8185 39.0857 100.536 39.0857C142.253 39.0857 176.071 63.1723 176.071 92.8847Z" fill="#E5E2E3"/>
<path d="M175.071 92.8845C175.071 78.4365 166.85 65.2612 153.367 55.658C139.886 46.0563 121.211 40.0858 100.536 40.0857C79.8613 40.0857 61.1853 46.0562 47.7041 55.658C34.2209 65.2611 26 78.4365 26 92.8845C26 107.333 34.2208 120.509 47.7041 130.112C61.1853 139.714 79.8614 145.683 100.536 145.683L100.536 146.684L99.5596 146.679C58.2922 146.307 25 122.365 25 92.8847C25 63.1723 58.8185 39.0857 100.536 39.0857L101.512 39.0906C142.779 39.4628 176.071 63.4044 176.071 92.8847C176.071 122.597 142.253 146.684 100.536 146.684L100.536 145.683C121.211 145.683 139.886 139.714 153.367 130.112C166.85 120.509 175.071 107.333 175.071 92.8845Z" fill="#E5E3E2"/>
<path d="M91.6317 111.764C66.3849 113.619 44.2084 98.2225 57.2884 89.1218C70.3683 80.021 163.18 85.8871 163.18 85.8871C171.899 95.9158 166.723 105.636 159.746 114.999C148.081 130.652 115.468 128.68 96.2107 122.547C76.9532 116.414 109.376 119.169 113.382 112.843C116.078 108.587 123.727 101.98 116.244 100.443C111.437 101.615 102.296 110.981 91.6317 111.764Z" fill="#D5C8D2"/>
<path d="M79.3171 84.2777C89.8778 83.5464 102.722 83.4276 115.146 83.5921C127.572 83.7567 139.588 84.2057 148.497 84.6136C152.951 84.8176 156.629 85.011 159.194 85.1537C160.476 85.225 161.481 85.2838 162.165 85.3246C162.506 85.3449 162.768 85.3606 162.944 85.3714C163.032 85.3768 163.099 85.3813 163.144 85.3841C163.166 85.3855 163.183 85.3863 163.194 85.3871C163.2 85.3874 163.205 85.3878 163.208 85.388C163.209 85.3881 163.21 85.388 163.211 85.388C163.211 85.3889 163.211 85.406 163.188 85.7621L163.211 85.388L163.421 85.4017L163.557 85.5589C168.02 90.6918 168.949 95.7909 167.838 100.801C166.737 105.767 163.639 110.612 160.146 115.298C154.177 123.307 142.914 126.742 130.854 127.442C118.769 128.143 105.74 126.106 96.0593 123.023C93.6481 122.255 92.008 121.615 91.0134 121.066C90.5232 120.795 90.1397 120.52 89.908 120.225C89.7883 120.072 89.6908 119.892 89.6589 119.686C89.6258 119.471 89.6703 119.267 89.7703 119.088C89.952 118.764 90.3037 118.55 90.6492 118.396C91.0158 118.232 91.4802 118.091 92.0076 117.963C93.0641 117.708 94.4546 117.489 96.0037 117.272C99.1222 116.835 102.916 116.399 106.193 115.677C107.83 115.317 109.314 114.89 110.503 114.367C111.703 113.838 112.539 113.24 112.96 112.576C113.651 111.484 114.658 110.245 115.627 109.016C116.608 107.771 117.558 106.528 118.192 105.381C118.84 104.209 119.081 103.273 118.857 102.584C118.653 101.957 117.984 101.332 116.255 100.957C115.158 101.251 113.783 101.997 112.134 103.021C111.289 103.545 110.387 104.132 109.427 104.753C108.469 105.373 107.456 106.026 106.395 106.676C102.163 109.27 97.1262 111.862 91.6687 112.263C78.9481 113.198 66.9776 109.791 59.8083 104.966C56.234 102.56 53.776 99.749 53.0994 96.8744C52.7581 95.4242 52.8739 93.9685 53.5193 92.5736C54.1618 91.1849 55.3152 89.8854 57.0027 88.7113C58.7323 87.5078 61.7069 86.5898 65.5017 85.8783C69.318 85.1627 74.0377 84.6432 79.3171 84.2777ZM115.133 84.5912C102.719 84.4268 89.9067 84.5473 79.3865 85.2757C74.1258 85.64 69.449 86.1562 65.6863 86.8617C61.9019 87.5713 59.1143 88.4608 57.574 89.5326C55.9917 90.6335 54.9761 91.8055 54.4265 92.9935C53.8798 94.1752 53.7802 95.4018 54.073 96.6458C54.6649 99.1596 56.8766 101.788 60.3669 104.137C67.3277 108.822 79.0695 112.186 91.5955 111.266C96.8019 110.883 101.667 108.401 105.873 105.823C106.922 105.18 107.927 104.533 108.885 103.913C109.84 103.295 110.751 102.702 111.606 102.171C113.301 101.119 114.836 100.272 116.126 99.9574L116.235 99.931L116.344 99.9535C118.274 100.35 119.431 101.113 119.808 102.276C120.171 103.391 119.734 104.662 119.068 105.866C118.389 107.094 117.388 108.397 116.412 109.635C115.422 110.89 114.461 112.075 113.804 113.111C113.224 114.027 112.169 114.726 110.906 115.282C109.63 115.843 108.074 116.287 106.409 116.654C103.082 117.386 99.2228 117.83 96.1423 118.262C94.5921 118.479 93.2461 118.692 92.2429 118.935C91.7405 119.057 91.3433 119.181 91.0574 119.309C90.8067 119.421 90.6994 119.511 90.6599 119.555C90.667 119.567 90.677 119.585 90.6941 119.607C90.799 119.74 91.0388 119.938 91.4968 120.191C92.3995 120.689 93.959 121.305 96.3621 122.071C105.938 125.121 118.845 127.137 130.797 126.444C142.773 125.749 153.649 122.343 159.344 114.701C162.829 110.024 165.81 105.326 166.861 100.584C167.892 95.9365 167.076 91.2135 162.936 86.3724C162.919 86.3714 162.901 86.3706 162.883 86.3695C162.707 86.3587 162.446 86.3429 162.105 86.3226C161.423 86.2819 160.419 86.223 159.138 86.1517C156.576 86.0092 152.902 85.8164 148.451 85.6126C139.549 85.205 127.544 84.7555 115.133 84.5912Z" fill="#D5C8D2"/>
<path d="M121.358 35.5522C121.344 35.5966 121.313 35.6372 121.265 35.6737C120.384 36.3456 120.695 36.0851 121.358 35.5522C121.983 33.6327 91.8582 24.6321 74.677 35.6737C61.6182 44.066 55.9834 52.4433 53.3003 66.9304C52.2686 72.5012 53.3003 81.4027 53.3003 81.4027C53.3003 81.4027 46.4995 62.1063 57.9412 47.6339C69.383 33.1615 77.6687 29.0789 93.9082 27.2654C110.148 25.4518 123.912 33.5219 123.912 33.5219C123.912 33.5219 122.289 34.805 121.358 35.5522Z" fill="#353745"/>
<path d="M93.8528 26.7684C102.066 25.8512 109.642 27.4336 115.156 29.2381C117.914 30.141 120.161 31.1013 121.721 31.8368C122.501 32.2045 123.109 32.5166 123.524 32.7371C123.731 32.8475 123.891 32.9356 123.998 32.9959C124.052 33.026 124.093 33.0493 124.121 33.0653C124.135 33.0731 124.145 33.0796 124.153 33.0838C124.156 33.0859 124.159 33.0875 124.161 33.0887C124.162 33.0893 124.164 33.0893 124.164 33.0897L124.165 33.0907L124.796 33.4608L124.222 33.9139L124.221 33.9149C124.22 33.9155 124.219 33.9167 124.218 33.9178C124.215 33.9202 124.21 33.9239 124.204 33.9286C124.192 33.9381 124.174 33.9523 124.151 33.9705C124.104 34.007 124.038 34.06 123.954 34.1258C123.788 34.2577 123.556 34.4414 123.295 34.6483C122.8 35.0411 122.201 35.5177 121.744 35.8836C121.693 35.9598 121.632 36.0227 121.569 36.0711C121.348 36.2391 121.198 36.3519 121.11 36.4168C121.071 36.4454 121.028 36.4761 120.996 36.4959C120.99 36.4997 120.965 36.5153 120.932 36.5301C120.927 36.5325 120.863 36.5637 120.778 36.5731C120.743 36.5768 120.6 36.5906 120.453 36.4969C120.256 36.3704 120.215 36.1653 120.224 36.0409C120.231 35.9409 120.267 35.8688 120.278 35.8475C120.293 35.8176 120.308 35.7957 120.317 35.784C120.334 35.7603 120.348 35.7422 120.355 35.7352C120.369 35.7193 120.383 35.7069 120.389 35.701C120.432 35.6599 120.553 35.5597 120.716 35.4276C120.565 35.31 120.333 35.1645 120.009 34.9989C119.247 34.6088 118.083 34.1519 116.594 33.6854C113.621 32.7542 109.408 31.8004 104.637 31.2489C95.0719 30.1432 83.3901 30.6689 74.9475 36.0946C68.4542 40.2675 63.8379 44.4161 60.511 49.2977C57.1848 54.1782 55.1253 59.8236 53.7922 67.0213C53.2873 69.7478 53.2847 73.3183 53.4133 76.2332C53.4774 77.6853 53.5734 78.9655 53.6536 79.8817C53.6936 80.3393 53.7292 80.706 53.7551 80.9579C53.7681 81.0838 53.7792 81.1814 53.7864 81.2469L53.7961 81.3397C53.7963 81.3414 53.797 81.3427 53.7971 81.3436V81.3455L52.8284 81.5692V81.5672C52.8281 81.5665 52.8278 81.5655 52.8274 81.5643C52.8264 81.5615 52.8243 81.5567 52.8225 81.5516C52.819 81.5414 52.8143 81.5266 52.8079 81.5077C52.7947 81.4687 52.7754 81.4113 52.7512 81.3368C52.7029 81.1877 52.6342 80.9689 52.551 80.6864C52.3847 80.1213 52.161 79.3004 51.929 78.2713C51.4651 76.2138 50.9668 73.3189 50.8303 69.9657C50.5576 63.2647 51.7275 54.6877 57.5491 47.3241C63.2905 40.0619 68.271 35.3659 73.884 32.2645C79.4979 29.1627 85.7036 27.6785 93.8528 26.7684ZM114.845 30.1883C109.416 28.4113 101.99 26.8664 93.9641 27.7625C85.8739 28.666 79.8166 30.1296 74.3674 33.1405C68.9173 36.1518 64.0336 40.734 58.3333 47.9442C52.7135 55.0526 51.5622 63.3595 51.8293 69.9246C51.9104 71.9169 52.1228 73.745 52.3782 75.3241C52.2906 72.5819 52.3379 69.3826 52.8088 66.8397C54.1588 59.5505 56.2582 53.7631 59.6848 48.7352C63.1107 43.7084 67.8412 39.472 74.4065 35.2528C83.145 29.6369 95.1158 29.1417 104.752 30.2557C109.582 30.8141 113.857 31.7802 116.894 32.7313C118.409 33.2059 119.631 33.6819 120.464 34.1082C120.876 34.3193 121.22 34.5322 121.457 34.742C121.475 34.7578 121.492 34.7742 121.51 34.7909C121.889 34.4881 122.309 34.1535 122.673 33.8651C122.793 33.7703 122.906 33.6798 123.01 33.5975C122.61 33.3853 122.031 33.0886 121.294 32.7411C119.766 32.0201 117.557 31.0761 114.845 30.1883Z" fill="#353745"/>
<path d="M110.059 53.3697L104.235 59.2876L107.941 60.3636L114.294 56.0597C122.605 54.3326 126.903 52.6986 133.882 48.5278C140.862 44.357 150.225 26.5585 142.353 27.0082C134.48 27.4579 125.539 29.8423 118.529 37.23C113.65 42.3723 111.486 47.7215 110.059 53.3697Z" fill="#809D3C"/>
<path d="M122.235 43.1395C116.478 48.4108 108.471 57.6652 108.471 57.6652C108.471 57.6652 118.801 51.9603 124.353 46.9055C130.15 41.628 137.059 31.3038 137.059 31.3038C137.059 31.3038 127.705 38.1318 122.235 43.1395Z" fill="#738E37"/>
<path d="M142.324 26.5086C143.398 26.4473 144.264 26.6946 144.877 27.2674C145.485 27.8351 145.766 28.6493 145.831 29.5584C145.961 31.3581 145.266 33.7662 144.143 36.242C143.011 38.7366 141.412 41.3714 139.653 43.6483C137.9 45.918 135.961 47.8679 134.139 48.9569C127.135 53.1419 122.791 54.7978 114.492 56.5282L108.027 60.909L103.291 59.534L109.608 53.1131C111.049 47.4623 113.249 42.0691 118.167 36.8856C125.295 29.3739 134.377 26.9627 142.324 26.5086ZM142.382 27.5077C134.584 27.9531 125.784 30.3108 118.893 37.5741C114.091 42.634 111.958 47.8954 110.544 53.492L110.511 53.6239L110.415 53.7205L105.179 59.0409L107.855 59.8172L114.014 55.6454L114.096 55.5907L114.192 55.5702C122.452 53.8536 126.697 52.2389 133.626 48.0985C135.293 47.1021 137.142 45.2633 138.861 43.037C140.575 40.8178 142.134 38.249 143.231 35.8289C144.338 33.3902 144.944 31.1721 144.833 29.6307C144.778 28.8694 144.554 28.3337 144.194 27.9979C143.84 27.6673 143.276 27.4566 142.382 27.5077Z" fill="#809D3C"/>
<path d="M137.475 31.5821L137.473 31.584C137.472 31.5854 137.47 31.5875 137.469 31.5899C137.465 31.595 137.461 31.6026 137.454 31.6124C137.441 31.6324 137.421 31.6625 137.395 31.7012C137.342 31.7788 137.264 31.893 137.163 32.0401C136.962 32.3342 136.668 32.7602 136.298 33.2872C135.557 34.3411 134.508 35.8009 133.278 37.4268C130.823 40.6718 127.624 44.604 124.689 47.2754C121.879 49.8343 117.877 52.5436 114.596 54.6045C112.952 55.6372 111.482 56.5111 110.423 57.127C109.893 57.435 109.467 57.679 109.172 57.8458C109.025 57.9291 108.91 57.9928 108.832 58.0362C108.793 58.0579 108.763 58.0748 108.743 58.086C108.733 58.0915 108.726 58.0958 108.721 58.0987L108.713 58.1026L108.093 57.3379L108.094 57.336C108.095 57.3348 108.097 57.3334 108.099 57.3311C108.103 57.3266 108.109 57.3195 108.116 57.3106C108.132 57.2928 108.155 57.266 108.185 57.2315C108.245 57.1621 108.334 57.0597 108.449 56.9278C108.68 56.6638 109.017 56.2815 109.438 55.8057C110.28 54.8541 111.462 53.5299 112.825 52.0411C115.548 49.0666 119.002 45.4218 121.897 42.7706C124.648 40.2519 128.368 37.2828 131.393 34.9483C132.906 33.7798 134.249 32.7675 135.213 32.0479C135.695 31.6881 136.082 31.4011 136.35 31.2042C136.483 31.1057 136.587 31.03 136.657 30.9786C136.692 30.953 136.718 30.9331 136.736 30.92C136.745 30.9135 136.752 30.9087 136.757 30.9053C136.759 30.9036 136.762 30.9023 136.763 30.9014L136.764 30.9004L137.475 31.5821ZM134.891 33.5411C134.065 34.1628 133.077 34.911 132.004 35.7393C128.984 38.0706 125.292 41.0189 122.573 43.5079C119.712 46.1279 116.282 49.7463 113.562 52.7168C112.537 53.8373 111.614 54.865 110.862 55.709C111.777 55.1674 112.875 54.5046 114.063 53.7579C117.335 51.7027 121.275 49.0321 124.017 46.5362C126.879 43.9303 130.032 40.0606 132.48 36.8243C133.406 35.6014 134.227 34.4715 134.891 33.5411Z" fill="#738E37"/>
<path d="M163.508 91.7567C161.92 84.2253 157.156 78.8449 157.156 78.8449C160.617 90.1178 160.946 96.1669 150.803 105.206C131.526 115.871 118.511 118.984 92.0379 118.118C90.6322 118.055 89.9204 119.195 90.9791 120.27C92.0378 121.346 106.332 122.422 106.332 122.422C109.64 123.602 137.534 121.322 149.744 113.814C157.21 109.223 165.097 99.288 163.508 91.7567Z" fill="#282731"/>
<path d="M157.194 78.8127C157.195 78.8133 157.195 78.8145 157.196 78.8156C157.199 78.8182 157.203 78.8222 157.207 78.8273C157.216 78.8378 157.23 78.8537 157.247 78.8742C157.283 78.9157 157.335 78.9776 157.402 79.0588C157.536 79.2211 157.729 79.4612 157.965 79.7726C158.437 80.3959 159.083 81.3055 159.779 82.4504C161.171 84.74 162.762 87.9734 163.558 91.7463C164.356 95.5317 162.773 99.9129 160.063 103.916C157.353 107.921 153.509 111.557 149.77 113.857C143.656 117.616 133.621 120.064 124.707 121.425C120.249 122.106 116.069 122.516 112.796 122.681C111.16 122.763 109.749 122.785 108.645 122.749C107.55 122.714 106.75 122.62 106.325 122.472L106.318 122.471C106.311 122.47 106.301 122.47 106.287 122.469C106.26 122.467 106.219 122.463 106.167 122.459C106.062 122.451 105.908 122.44 105.712 122.424C105.319 122.392 104.756 122.346 104.078 122.287C102.721 122.17 100.9 122.001 99.0469 121.799C97.1938 121.597 95.3067 121.362 93.8164 121.11C93.0713 120.983 92.4241 120.853 91.9297 120.72C91.6825 120.653 91.4722 120.586 91.3066 120.518C91.1426 120.45 91.0169 120.38 90.9434 120.305C90.4042 119.757 90.3051 119.18 90.54 118.743C90.7732 118.31 91.3245 118.037 92.0391 118.069C105.274 118.501 115.142 117.939 124.108 115.938C133.074 113.936 141.14 110.493 150.774 105.163C155.838 100.649 158.281 96.888 159.031 92.8537C159.782 88.8157 158.838 84.4959 157.107 78.8596L157.193 78.8117L157.194 78.8127ZM157.272 79.0588C158.959 84.5844 159.875 88.8628 159.13 92.8723C158.374 96.939 155.911 100.72 150.836 105.243L150.827 105.251L150.826 105.25C141.186 110.584 133.108 114.031 124.13 116.035C115.713 117.914 106.506 118.525 94.4795 118.237L92.0361 118.168C91.3456 118.137 90.8373 118.402 90.6279 118.791C90.4205 119.177 90.4957 119.707 91.0146 120.235C91.0734 120.294 91.1833 120.359 91.3447 120.425C91.5049 120.491 91.711 120.557 91.9561 120.623C92.446 120.755 93.0893 120.885 93.833 121.011C95.3204 121.263 97.2051 121.498 99.0576 121.699C100.91 121.901 102.73 122.07 104.086 122.188C104.764 122.247 105.327 122.292 105.72 122.323C105.916 122.339 106.07 122.351 106.175 122.36C106.227 122.364 106.268 122.367 106.295 122.369C106.308 122.37 106.318 122.371 106.325 122.371C106.329 122.372 106.331 122.372 106.333 122.372H106.336L106.35 122.373L106.349 122.375L106.519 122.427C106.956 122.542 107.682 122.617 108.647 122.649C109.749 122.684 111.156 122.663 112.791 122.58C116.06 122.415 120.237 122.007 124.692 121.326C133.605 119.965 143.622 117.52 149.718 113.772C153.445 111.48 157.278 107.853 159.98 103.86C162.684 99.8648 164.25 95.5126 163.46 91.7668C162.667 88.0084 161.081 84.7855 159.693 82.5021C159 81.3608 158.355 80.4541 157.885 79.8332C157.65 79.5229 157.458 79.2835 157.325 79.1223C157.306 79.0995 157.289 79.0784 157.272 79.0588Z" fill="#24252D"/>
<path d="M121.177 88.8686C122.121 87.0753 124.122 83.3811 124.576 82.9508C143.738 91.715 128.442 108.272 121.743 108.774C126.268 107.343 135.16 92.9501 121.177 88.8686Z" fill="#26252E"/>
<path d="M124.596 82.9049C129.394 85.0992 132.042 87.7856 133.205 90.5933C134.367 93.4015 134.04 96.3234 132.903 98.981C131.766 101.638 129.82 104.035 127.739 105.798C125.659 107.561 123.437 108.697 121.747 108.824L121.728 108.726C122.845 108.373 124.241 107.215 125.49 105.604C126.738 103.994 127.833 101.939 128.351 99.8033C128.87 97.6678 128.811 95.4546 127.757 93.523C126.702 91.5922 124.649 89.9342 121.163 88.9166L121.104 88.9L121.133 88.8453C121.605 87.9485 122.341 86.5764 123.016 85.3746C123.354 84.7737 123.677 84.2145 123.943 83.7789C124.076 83.5613 124.196 83.3738 124.297 83.2271C124.396 83.0818 124.48 82.9725 124.541 82.9146L124.565 82.8912L124.596 82.9049ZM124.588 83.0123C124.536 83.0673 124.466 83.1585 124.38 83.2838C124.28 83.4284 124.162 83.6138 124.029 83.8306C123.763 84.2647 123.442 84.8229 123.104 85.4234C122.443 86.6008 121.722 87.9416 121.249 88.8385C124.718 89.8629 126.78 91.5259 127.844 93.4752C128.914 95.4348 128.971 97.6751 128.449 99.8267C127.927 101.978 126.824 104.046 125.569 105.665C124.452 107.106 123.208 108.198 122.139 108.674C123.743 108.418 125.764 107.341 127.675 105.722C129.746 103.967 131.682 101.581 132.811 98.941C133.94 96.3011 134.263 93.4084 133.113 90.6314C131.966 87.8606 129.35 85.1971 124.588 83.0123Z" fill="#292931"/>
<path d="M124.569 106.993C138.936 96.0989 134.364 89.8889 124.569 82.6666L122.402 74.5577C121.237 71.9266 159.439 64.2289 160.31 86.4507C160.853 100.28 156.37 103.971 138.107 111.858C119.844 119.746 108.547 118.384 91.5346 118.345C91.1692 116.908 110.201 117.887 124.569 106.993Z" fill="#3C3B47"/>
<path d="M127.7 72.1327C131.135 71.3874 135.833 70.8722 140.595 71.1346C145.356 71.397 150.187 72.4368 153.883 74.8055C157.582 77.176 160.142 80.8765 160.36 86.4491C160.632 93.3689 159.647 97.7653 156.298 101.417C152.954 105.063 147.257 107.961 138.127 111.904C119.852 119.796 108.544 118.434 91.5343 118.395H91.4952L91.4864 118.357C91.4715 118.298 91.4813 118.242 91.5138 118.19C91.5453 118.141 91.5965 118.097 91.6612 118.057C91.7906 117.979 91.9897 117.91 92.2472 117.844C92.7638 117.711 93.5366 117.588 94.5148 117.448C96.4729 117.167 99.2646 116.815 102.517 116.167C109.022 114.871 117.363 112.393 124.538 106.953C131.721 101.507 134.147 97.2468 133.58 93.4598C133.296 91.5648 132.263 89.7794 130.685 88.0155C129.107 86.2514 126.987 84.5118 124.539 82.7069L124.525 82.6961L124.521 82.6795L122.357 74.578C122.27 74.3816 122.374 74.1747 122.593 73.9764C122.815 73.7757 123.172 73.5665 123.641 73.3563C124.58 72.9355 125.983 72.5052 127.7 72.1327ZM140.59 71.2342C135.838 70.9723 131.149 71.4867 127.722 72.2303C126.008 72.6021 124.612 73.0303 123.682 73.4471C123.216 73.6558 122.87 73.8604 122.66 74.0506C122.474 74.2191 122.407 74.3639 122.432 74.4862L122.448 74.5379L122.451 74.5448L124.612 82.6366C127.056 84.439 129.177 86.1805 130.759 87.9491C132.344 89.7209 133.391 91.5235 133.679 93.4452C134.255 97.2923 131.784 101.585 124.599 107.033C117.406 112.487 109.048 114.967 102.536 116.264C99.2805 116.913 96.4849 117.266 94.5284 117.547C93.5495 117.687 92.7829 117.809 92.2726 117.94C92.0167 118.006 91.8292 118.073 91.713 118.143C91.6552 118.178 91.6187 118.213 91.5987 118.244C91.5877 118.261 91.5828 118.279 91.5812 118.296C108.571 118.337 119.852 119.687 138.087 111.812C147.221 107.868 152.896 104.977 156.224 101.348C159.546 97.7254 160.531 93.3619 160.26 86.453C160.043 80.9148 157.501 77.2433 153.828 74.8895C150.153 72.5341 145.342 71.4962 140.59 71.2342Z" fill="#3E3E49"/>
<path d="M148.155 81.9554C143.07 77.3162 138.443 76.798 130.155 76.0375C133.863 74.2873 137.176 74.0245 141.273 75.4995C147.221 77.641 152.153 80.2916 154.508 85.7213C156.455 90.2096 156.352 95.162 152.391 98.0951C154.632 91.3413 152.932 86.3131 148.155 81.9554Z" fill="#767284"/>
<path d="M130.134 75.9926C133.853 74.237 137.18 73.9728 141.29 75.4526C147.24 77.5948 152.19 80.2516 154.554 85.7016C156.505 90.1998 156.409 95.1821 152.42 98.1352L152.293 98.2289L152.343 98.0795C153.461 94.71 153.595 91.7745 152.856 89.1401C152.118 86.5055 150.505 84.167 148.121 81.9926C143.05 77.366 138.439 76.8479 130.15 76.0873L129.968 76.0707L130.134 75.9926ZM141.256 75.5463C137.235 74.0987 133.975 74.3315 130.348 76.0043C138.517 76.7556 143.129 77.3019 148.189 81.9184C150.583 84.1016 152.208 86.4565 152.953 89.1137C153.687 91.7306 153.563 94.636 152.486 97.9555C156.295 95.0312 156.383 90.1709 154.462 85.7416C152.116 80.3322 147.202 77.687 141.256 75.5463Z" fill="#716F81"/>
<path d="M84.151 81.3368C84.151 86.9821 79.6475 91.5586 74.0922 91.5586C68.5368 91.5586 64.0333 86.9821 64.0333 81.3368C64.0333 75.6914 68.5368 71.115 74.0922 71.115C79.6475 71.115 84.151 75.6914 84.151 81.3368Z" fill="#4B2E68"/>
<path d="M82.0333 74.8809C80.4451 72.729 77.837 71.4627 75.2926 71.1809C72.7482 70.8991 70.1836 71.5275 68.1218 72.9381C66.06 74.3487 64.6562 76.4351 64.1965 78.7721C63.7369 81.1091 64.0334 85.6407 65.6218 86.1787C69.0016 88.0851 73.9419 88.2141 77.8068 85.515C81.6189 82.8527 82.7343 79.989 82.0333 74.8809Z" fill="#683D8A"/>
<path d="M71.7544 75.5036C72.5722 76.1446 72.5493 77.5679 71.7033 78.6826C70.8572 79.7974 69.5083 80.1814 68.6905 79.5405C67.8727 78.8995 67.8956 77.4762 68.7416 76.3614C69.5877 75.2467 70.9366 74.8626 71.7544 75.5036Z" fill="#C092D8"/>
<path d="M71.6883 75.5914C71.3131 75.2973 70.809 75.2331 70.2885 75.3813C69.7681 75.5295 69.2388 75.889 68.8286 76.4293C68.4185 76.9698 68.2102 77.5819 68.2014 78.1311C68.1926 78.6802 68.3824 79.1588 68.7576 79.4528C69.1326 79.7466 69.6358 79.8111 70.156 79.6631C70.6765 79.5149 71.207 79.1553 71.6172 78.6149L71.7033 78.6826L71.5385 78.8832C70.7469 79.7773 69.62 80.0987 68.8499 79.6493L68.6905 79.5405C67.8727 78.8995 67.8956 77.4762 68.7416 76.3614L68.9059 76.1611C69.7543 75.2027 70.9877 74.9027 71.7544 75.5036L71.8981 75.633C72.566 76.3217 72.4962 77.6378 71.7033 78.6826L71.6172 78.6149C72.0273 78.0745 72.2342 77.4624 72.2431 76.9132C72.2519 76.3642 72.0632 75.8855 71.6883 75.5914Z" fill="#BF83DD"/>
<path d="M94.7392 88.8686C94.7392 94.514 90.2357 99.0904 84.6804 99.0904C79.1251 99.0904 74.6216 94.514 74.6216 88.8686C74.6216 83.2233 79.1251 78.6468 84.6804 78.6468C90.2357 78.6468 94.7392 83.2233 94.7392 88.8686Z" fill="#5D3479"/>
<path d="M92.6215 82.4128C91.0332 80.2608 88.4251 78.9946 85.8807 78.7128C83.3363 78.431 80.7718 79.0594 78.71 80.47C76.6481 81.8805 75.2443 83.967 74.7847 86.304C74.325 88.6409 74.6215 93.1726 76.2099 93.7105C79.5898 95.617 84.5301 95.746 88.3949 93.0468C92.207 90.3845 93.3224 87.5208 92.6215 82.4128Z" fill="#744099"/>
<path d="M82.3428 83.0356C83.1606 83.6766 83.1377 85.0999 82.2916 86.2146C81.4456 87.3294 80.0967 87.7134 79.2789 87.0724C78.4611 86.4314 78.484 85.0081 79.33 83.8934C80.1761 82.7787 81.5249 82.3946 82.3428 83.0356Z" fill="#B576D4"/>
<path d="M82.2767 83.1234C81.9015 82.8293 81.3973 82.7651 80.8768 82.9133C80.3565 83.0615 79.8272 83.421 79.417 83.9613C79.0068 84.5017 78.7986 85.1139 78.7898 85.6631C78.781 86.2122 78.9708 86.6908 79.3459 86.9848C79.721 87.2786 80.2242 87.3431 80.7444 87.195C81.2649 87.0468 81.7954 86.6873 82.2056 86.1469L82.2916 86.2146L82.1269 86.4152C81.3353 87.3093 80.2083 87.6307 79.4383 87.1812L79.2789 87.0724C78.4611 86.4314 78.484 85.0081 79.33 83.8934L79.4943 83.6931C80.3426 82.7347 81.576 82.4347 82.3428 83.0356L82.4865 83.165C83.1544 83.8537 83.0846 85.1697 82.2916 86.2146L82.2056 86.1469C82.6156 85.6065 82.8226 84.9944 82.8314 84.4452C82.8403 83.8961 82.6516 83.4174 82.2767 83.1234Z" fill="#BF83DD"/>
<path d="M125.445 81.3368C125.445 86.9821 120.942 91.5586 115.386 91.5586C109.831 91.5586 105.327 86.9821 105.327 81.3368C105.327 75.6914 109.831 71.115 115.386 71.115C120.942 71.115 125.445 75.6914 125.445 81.3368Z" fill="#3D2357"/>
<path d="M123.328 74.8809C121.739 72.729 119.131 71.4627 116.587 71.1809C114.042 70.8991 111.478 71.5275 109.416 72.9381C107.354 74.3487 105.95 76.4351 105.491 78.7721C105.031 81.1091 105.328 85.6407 106.916 86.1787C110.296 88.0851 115.236 88.2141 119.101 85.515C122.913 82.8527 124.028 79.989 123.328 74.8809Z" fill="#563374"/>
<path d="M115.916 88.8686C115.916 94.514 111.412 99.0904 105.857 99.0904C100.302 99.0904 95.798 94.514 95.798 88.8686C95.798 83.2233 100.302 78.6468 105.857 78.6468C111.412 78.6468 115.916 83.2233 115.916 88.8686Z" fill="#42275E"/>
<path d="M113.798 82.4128C112.21 80.2608 109.602 78.9946 107.057 78.7128C104.513 78.431 101.948 79.0594 99.8865 80.47C97.8247 81.8805 96.4208 83.967 95.9612 86.304C95.5015 88.6409 95.798 93.1726 97.3864 93.7105C100.766 95.617 105.707 95.746 109.571 93.0468C113.384 90.3845 114.499 87.5208 113.798 82.4128Z" fill="#5F3981"/>
<path d="M105.327 94.2485C105.327 99.8939 100.824 104.47 95.2686 104.47C89.7133 104.47 85.2098 99.8939 85.2098 94.2485C85.2098 88.6032 89.7133 84.0267 95.2686 84.0267C100.824 84.0267 105.327 88.6032 105.327 94.2485Z" fill="#5C3479"/>
<path d="M103.21 87.7927C101.622 85.6407 99.0135 84.3745 96.4691 84.0927C93.9247 83.8108 91.3602 84.4393 89.2983 85.8499C87.2365 87.2604 85.8327 89.3469 85.373 91.6839C84.9134 94.0208 85.2099 98.5525 86.7983 99.0904C90.1781 100.997 95.1184 101.126 98.9833 98.4267C102.795 95.7644 103.911 92.9007 103.21 87.7927Z" fill="#713D94"/>
<path d="M92.9309 88.4155C93.7487 89.0565 93.7258 90.4798 92.8798 91.5945C92.0337 92.7093 90.6849 93.0933 89.867 92.4523C89.0492 91.8114 89.0721 90.3881 89.9182 89.2733C90.7642 88.1586 92.1131 87.7745 92.9309 88.4155Z" fill="#B576D4"/>
<path d="M92.8648 88.5033C92.4896 88.2092 91.9855 88.145 91.465 88.2932C90.9446 88.4414 90.4153 88.8009 90.0052 89.3412C89.595 89.8816 89.3868 90.4938 89.3779 91.043C89.3692 91.5921 89.559 92.0707 89.9341 92.3647C90.3091 92.6585 90.8123 92.723 91.3325 92.5749C91.853 92.4268 92.3835 92.0672 92.7937 91.5268L92.8798 91.5945L92.715 91.7951C91.9234 92.6892 90.7965 93.0106 90.0264 92.5611L89.867 92.4523C89.0492 91.8114 89.0721 90.3881 89.9182 89.2733L90.0825 89.073C90.9308 88.1146 92.1642 87.8146 92.9309 88.4155L93.0747 88.5449C93.7426 89.2336 93.6727 90.5496 92.8798 91.5945L92.7937 91.5268C93.2038 90.9864 93.4107 90.3743 93.4196 89.8251C93.4284 89.2761 93.2398 88.7973 92.8648 88.5033Z" fill="#BF83DD"/>
<path d="M114.857 69.501C114.857 75.1464 110.353 79.7228 104.798 79.7228C99.2427 79.7228 94.7392 75.1464 94.7392 69.501C94.7392 63.8557 99.2427 59.2792 104.798 59.2792C110.353 59.2792 114.857 63.8557 114.857 69.501Z" fill="#40275B"/>
<path d="M112.739 63.0451C111.151 60.8932 108.543 59.6269 105.998 59.3451C103.454 59.0633 100.889 59.6918 98.8276 61.1023C96.7658 62.5129 95.362 64.5994 94.9023 66.9364C94.4427 69.2733 94.7392 73.8049 96.3276 74.3429C99.7074 76.2493 104.648 76.3784 108.513 73.6792C112.325 71.0169 113.44 68.1532 112.739 63.0451Z" fill="#603881"/>
<path d="M92.6216 69.501C92.6216 75.1464 88.1181 79.7228 82.5628 79.7228C77.0074 79.7228 72.5039 75.1464 72.5039 69.501C72.5039 63.8557 77.0074 59.2792 82.5628 59.2792C88.1181 59.2792 92.6216 63.8557 92.6216 69.501Z" fill="#4A2E68"/>
<path d="M90.5041 63.0451C88.9158 60.8932 86.3077 59.6269 83.7633 59.3451C81.2189 59.0633 78.6543 59.6918 76.5925 61.1023C74.5307 62.5129 73.1269 64.5994 72.6672 66.9364C72.2076 69.2733 72.5041 73.8049 74.0925 74.3429C77.4723 76.2493 82.4126 76.3784 86.2775 73.6792C90.0896 71.0169 91.205 68.1532 90.5041 63.0451Z" fill="#6A3F8E"/>
<path d="M80.2251 63.668C81.0429 64.309 81.02 65.7323 80.174 66.847C79.3279 67.9618 77.979 68.3458 77.1612 67.7049C76.3434 67.0639 76.3663 65.6406 77.2123 64.5258C78.0584 63.4111 79.4073 63.027 80.2251 63.668Z" fill="#BD8DD6"/>
<path d="M80.159 63.7558C79.7838 63.4617 79.2797 63.3975 78.7592 63.5457C78.2388 63.6939 77.7095 64.0534 77.2994 64.5937C76.8892 65.1342 76.681 65.7463 76.6721 66.2955C76.6634 66.8446 76.8531 67.3232 77.2283 67.6172C77.6033 67.911 78.1065 67.9755 78.6267 67.8275C79.1472 67.6793 79.6777 67.3197 80.0879 66.7793L80.174 66.847L80.0092 67.0476C79.2176 67.9417 78.0907 68.2631 77.3206 67.8137L77.1612 67.7049C76.3434 67.0639 76.3663 65.6406 77.2123 64.5258L77.3766 64.3255C78.225 63.3671 79.4584 63.0671 80.2251 63.668L80.3689 63.7974C81.0367 64.4861 80.9669 65.8022 80.174 66.847L80.0879 66.7793C80.498 66.2389 80.7049 65.6268 80.7138 65.0776C80.7226 64.5286 80.5339 64.0499 80.159 63.7558Z" fill="#BF83DD"/>
<path d="M104.269 74.8809C104.269 80.5263 99.7652 85.1027 94.2098 85.1027C88.6545 85.1027 84.151 80.5263 84.151 74.8809C84.151 69.2356 88.6545 64.6591 94.2098 64.6591C99.7652 64.6591 104.269 69.2356 104.269 74.8809Z" fill="#61387E"/>
<path d="M102.151 68.425C100.563 66.2731 97.9546 65.0068 95.4102 64.725C92.8659 64.4432 90.3013 65.0717 88.2395 66.4822C86.1777 67.8928 84.7738 69.9793 84.3142 72.3162C83.8546 74.6532 84.151 79.1848 85.7394 79.7228C89.1193 81.6292 94.0596 81.7582 97.9245 79.0591C101.737 76.3968 102.852 73.5331 102.151 68.425Z" fill="#78409A"/>
<path d="M91.8721 69.0479C92.6899 69.6889 92.667 71.1122 91.8209 72.227C90.9749 73.3417 89.626 73.7258 88.8082 73.0848C87.9904 72.4438 88.0133 71.0205 88.8593 69.9057C89.7054 68.791 91.0542 68.4069 91.8721 69.0479Z" fill="#BE8CD5"/>
<path d="M91.806 69.1357C91.4308 68.8416 90.9266 68.7774 90.4061 68.9256C89.8858 69.0738 89.3565 69.4333 88.9463 69.9736C88.5361 70.5141 88.3279 71.1262 88.3191 71.6754C88.3103 72.2245 88.5001 72.7031 88.8752 72.9971C89.2503 73.2909 89.7535 73.3554 90.2737 73.2074C90.7942 73.0592 91.3247 72.6996 91.7349 72.1592L91.8209 72.227L91.6562 72.4276C90.8646 73.3216 89.7376 73.643 88.9676 73.1936L88.8082 73.0848C87.9904 72.4438 88.0133 71.0205 88.8593 69.9057L89.0236 69.7054C89.8719 68.747 91.1053 68.447 91.8721 69.0479L92.0158 69.1774C92.6837 69.866 92.6139 71.1821 91.8209 72.227L91.7349 72.1592C92.1449 71.6188 92.3519 71.0067 92.3607 70.4576C92.3696 69.9085 92.1809 69.4298 91.806 69.1357Z" fill="#BF83DD"/>
<path d="M104.269 55.5131C104.269 61.1585 99.7651 65.735 94.2098 65.735C88.6544 65.735 84.151 61.1585 84.151 55.5131C84.151 49.8678 88.6544 45.2913 94.2098 45.2913C99.7651 45.2913 104.269 49.8678 104.269 55.5131Z" fill="#5C357B"/>
<path d="M102.151 49.0573C100.563 46.9053 97.9546 45.6391 95.4102 45.3573C92.8658 45.0755 90.3013 45.7039 88.2395 47.1145C86.1777 48.525 84.7738 50.6115 84.3142 52.9485C83.8545 55.2855 84.151 59.8171 85.7394 60.3551C89.1193 62.2615 94.0596 62.3905 97.9244 59.6913C101.737 57.029 102.852 54.1653 102.151 49.0573Z" fill="#713D94"/>
<path d="M91.872 49.6802C92.6899 50.3212 92.667 51.7445 91.8209 52.8592C90.9748 53.974 89.626 54.358 88.8082 53.7171C87.9903 53.0761 88.0132 51.6528 88.8593 50.538C89.7054 49.4233 91.0542 49.0392 91.872 49.6802Z" fill="#C090D7"/>
<path d="M91.8059 49.768C91.4307 49.4739 90.9266 49.4097 90.4061 49.5579C89.8857 49.7061 89.3564 50.0656 88.9463 50.6059C88.5361 51.1464 88.3279 51.7585 88.3191 52.3077C88.3103 52.8568 88.5001 53.3354 88.8752 53.6294C89.2503 53.9232 89.7534 53.9877 90.2737 53.8397C90.7941 53.6915 91.3246 53.3319 91.7348 52.7915L91.8209 52.8592L91.6562 53.0598C90.8645 53.9539 89.7376 54.2753 88.9676 53.8259L88.8082 53.7171C87.9903 53.0761 88.0132 51.6528 88.8593 50.538L89.0236 50.3377C89.8719 49.3793 91.1053 49.0793 91.872 49.6802L92.0158 49.8096C92.6837 50.4983 92.6138 51.8144 91.8209 52.8592L91.7348 52.7915C92.1449 52.2511 92.3519 51.639 92.3607 51.0898C92.3695 50.5408 92.1809 50.062 91.8059 49.768Z" fill="#BF83DD"/>
<path d="M123.823 135.136C115.197 136.863 110.019 137.035 100.529 136.75C98.5116 138.078 98.1312 138.799 101.588 139.978C111.012 139.689 116.079 139.217 124.353 137.288C125.506 135.852 124.637 135.71 123.823 135.136Z" fill="#FFCD26"/>
<path d="M123.852 135.095C124.056 135.238 124.257 135.351 124.439 135.471C124.618 135.588 124.775 135.709 124.869 135.862C124.965 136.019 124.99 136.205 124.919 136.441C124.848 136.675 124.682 136.959 124.392 137.319L124.381 137.332L124.364 137.336C116.086 139.266 111.016 139.738 101.59 140.027L101.581 140.028L101.572 140.025C100.707 139.73 100.079 139.462 99.655 139.205C99.2337 138.95 99.0033 138.698 98.9568 138.429C98.9102 138.157 99.0536 137.89 99.322 137.614C99.5915 137.337 99.9972 137.04 100.502 136.708L100.515 136.699L100.531 136.7C110.018 136.985 115.192 136.814 123.813 135.087L123.835 135.082L123.852 135.095ZM123.812 135.188C115.198 136.912 110.017 137.084 100.543 136.8C100.045 137.128 99.6522 137.417 99.3933 137.684C99.1309 137.953 99.0173 138.189 99.0554 138.411C99.0939 138.635 99.2905 138.868 99.7068 139.12C100.119 139.37 100.737 139.634 101.594 139.927C111.005 139.638 116.067 139.166 124.324 137.242C124.604 136.892 124.759 136.624 124.823 136.412C124.887 136.2 124.862 136.045 124.783 135.915C124.702 135.782 124.562 135.67 124.385 135.554C124.216 135.444 124.01 135.327 123.812 135.188Z" fill="#FFCD26"/>
<path d="M92.5883 136.75C92.5883 138.532 90.6921 139.978 88.353 139.978C86.0139 139.978 84.1177 138.532 84.1177 136.75C84.1177 134.967 86.0139 133.522 88.353 133.522C90.6921 133.522 92.5883 134.967 92.5883 136.75Z" fill="#FFCD26"/>
<path d="M41.7648 107.698C41.7648 109.481 40.3427 110.926 38.5883 110.926C36.834 110.926 35.4119 109.481 35.4119 107.698C35.4119 105.916 36.834 104.47 38.5883 104.47C40.3427 104.47 41.7648 105.916 41.7648 107.698Z" fill="#FFCD26"/>
<path d="M39.6471 96.4005C39.6471 98.4804 37.7509 100.166 35.4118 100.166C33.0727 100.166 31.1765 98.4804 31.1765 96.4005C31.1765 94.3207 33.0727 92.6346 35.4118 92.6346C37.7509 92.6346 39.6471 94.3207 39.6471 96.4005Z" fill="#FFCD26"/>
<path d="M47.0587 117.382C47.0587 119.165 45.1625 120.61 42.8234 120.61C40.4843 120.61 38.5881 119.165 38.5881 117.382C38.5881 115.599 40.4843 114.154 42.8234 114.154C45.1625 114.154 47.0587 115.599 47.0587 117.382Z" fill="#FDC71C"/>
<path d="M69.294 130.294C55.7837 129.108 51.8803 125.668 47.0587 117.92L38.5881 118.458C49.0306 125.573 55.1858 129.236 67.1764 134.598L69.294 130.294Z" fill="#FFCD26"/>
<path d="M47.1008 117.894C49.5104 121.766 51.6867 124.555 54.9436 126.526C58.2013 128.496 62.546 129.652 69.2981 130.244L69.3713 130.25L67.2209 134.62L67.2004 134.663L67.1555 134.644C55.1619 129.281 49.0042 125.615 38.5598 118.499L38.4397 118.417L38.5852 118.408L47.0559 117.87L47.0852 117.868L47.1008 117.894ZM38.7366 118.498C49.0913 125.549 55.2401 129.203 67.1516 134.531L69.217 130.336C62.5004 129.741 58.157 128.586 54.8918 126.611C51.6213 124.632 49.4374 121.834 47.0315 117.971L38.7366 118.498Z" fill="#FFCD26"/>
<path d="M78.8236 134.06C78.8236 136.734 76.2163 138.902 73 138.902C69.7838 138.902 67.1765 136.734 67.1765 134.06C67.1765 131.386 69.7838 129.218 73 129.218C76.2163 129.218 78.8236 131.386 78.8236 134.06Z" fill="#FFCD26"/>
<path d="M68.2686 116.844C68.2686 122.49 63.7652 127.066 58.2098 127.066C52.6545 127.066 48.151 122.49 48.151 116.844C48.151 111.199 52.6545 106.622 58.2098 106.622C63.7652 106.622 68.2686 111.199 68.2686 116.844Z" fill="#5C357B"/>
<path d="M66.151 110.388C64.5628 108.236 61.9546 106.97 59.4103 106.688C56.8659 106.407 54.3013 107.035 52.2395 108.446C50.1777 109.856 48.7738 111.943 48.3142 114.28C47.8546 116.617 48.151 121.148 49.7394 121.686C53.1193 123.593 58.0596 123.722 61.9244 121.022C65.7365 118.36 66.8519 115.496 66.151 110.388Z" fill="#713D94"/>
<path d="M55.8721 111.011C56.6899 111.652 56.667 113.075 55.8209 114.19C54.9749 115.305 53.626 115.689 52.8082 115.048C51.9904 114.407 52.0133 112.984 52.8593 111.869C53.7054 110.754 55.0542 110.37 55.8721 111.011Z" fill="#C090D7"/>
<path d="M55.806 111.099C55.4308 110.805 54.9266 110.741 54.4061 110.889C53.8858 111.037 53.3565 111.396 52.9463 111.937C52.5361 112.477 52.3279 113.089 52.3191 113.639C52.3103 114.188 52.5001 114.666 52.8752 114.96C53.2503 115.254 53.7535 115.318 54.2737 115.17C54.7942 115.022 55.3247 114.663 55.7349 114.122L55.8209 114.19L55.6562 114.391C54.8646 115.285 53.7376 115.606 52.9676 115.157L52.8082 115.048C51.9904 114.407 52.0133 112.984 52.8593 111.869L53.0236 111.669C53.8719 110.71 55.1053 110.41 55.8721 111.011L56.0158 111.14C56.6837 111.829 56.6139 113.145 55.8209 114.19L55.7349 114.122C56.1449 113.582 56.3519 112.97 56.3607 112.421C56.3696 111.872 56.1809 111.393 55.806 111.099Z" fill="#BF83DD"/>
</svg>
