<svg width="200" height="200" viewBox="0 0 200 200" fill="none" xmlns="http://www.w3.org/2000/svg">
<path d="M100 35.7871C124.753 35.7871 147.145 43.408 163.337 55.7061C179.529 68.004 189.5 84.9574 189.5 103.644C189.5 122.33 179.529 139.282 163.337 151.58C147.145 163.878 124.754 171.5 100 171.5C75.2464 171.5 52.8553 163.878 36.6631 151.58C20.4713 139.282 10.5 122.33 10.5 103.644C10.5 84.9574 20.4713 68.004 36.6631 55.7061C52.8552 43.408 75.2466 35.7871 100 35.7871Z" fill="#D4C9D4" stroke="#E5E3E2"/>
<path d="M100 30.728C124.755 30.728 147.147 38.279 163.339 50.4634C179.531 62.6476 189.5 79.4423 189.5 97.9517C189.5 116.461 179.531 133.256 163.339 145.44C147.147 157.624 124.755 165.175 100 165.175C75.2454 165.175 52.8533 157.624 36.6611 145.44C20.4692 133.256 10.5001 116.461 10.5 97.9517C10.5 79.4423 20.4691 62.6476 36.6611 50.4634C52.8533 38.279 75.2453 30.728 100 30.728Z" fill="#FFFBF2" stroke="#F8F4F2"/>
<path d="M100.536 39.5859C121.303 39.586 140.082 45.5823 153.657 55.251C167.233 64.9204 175.571 78.2327 175.571 92.8848C175.571 107.537 167.234 120.85 153.657 130.52C140.082 140.188 121.303 146.184 100.536 146.184C79.7695 146.184 60.9893 140.188 47.4141 130.52C33.8378 120.85 25.5 107.537 25.5 92.8848C25.5 78.2327 33.8379 64.9204 47.4141 55.251C60.9893 45.5823 79.7694 39.5859 100.536 39.5859Z" fill="#E5E2E3" stroke="#E5E3E2"/>
<path d="M91.6316 111.765C66.3849 113.62 44.2084 98.2227 57.2884 89.1219C70.3683 80.0211 163.18 85.8873 163.18 85.8873C171.899 95.916 166.723 105.637 159.746 114.999C148.081 130.652 115.468 128.68 96.2107 122.547C76.9532 116.414 109.376 119.169 113.382 112.843C116.078 108.587 123.727 101.98 116.244 100.443C111.437 101.615 102.296 110.981 91.6316 111.765Z" fill="#D5C8D2" stroke="#D5C8D2"/>
<path d="M121.358 35.5524C121.344 35.5968 121.313 35.6374 121.265 35.6738C120.384 36.3457 120.695 36.0853 121.358 35.5524C121.983 33.6329 91.8582 24.6322 74.677 35.6738C61.6182 44.0661 55.9834 52.4435 53.3003 66.9305C52.2686 72.5014 53.3003 81.4029 53.3003 81.4029C53.3003 81.4029 46.4995 62.1064 57.9412 47.634C69.383 33.1617 77.6687 29.0791 93.9082 27.2655C110.148 25.452 123.912 33.5221 123.912 33.5221C123.912 33.5221 122.289 34.8051 121.358 35.5524Z" fill="#353745"/>
<path d="M121.265 35.6738C123.383 34.0599 92.2555 24.3769 74.677 35.6738C61.6182 44.0661 55.9834 52.4435 53.3003 66.9305C52.2686 72.5014 53.3003 81.4029 53.3003 81.4029C53.3003 81.4029 46.4995 62.1064 57.9412 47.634C69.383 33.1617 77.6687 29.0791 93.9082 27.2655C110.148 25.452 123.912 33.5221 123.912 33.5221C123.912 33.5221 119.148 37.2878 121.265 35.6738Z" stroke="#353745"/>
<path d="M110.059 53.3699L104.235 59.2877L107.941 60.3637L114.294 56.0598C122.605 54.3327 126.903 52.6988 133.882 48.528C140.862 44.3571 150.226 26.5587 142.353 27.0084C134.48 27.4581 125.539 29.8424 118.529 37.2302C113.65 42.3725 111.486 47.7217 110.059 53.3699Z" fill="#809D3C" stroke="#809D3C"/>
<path d="M122.235 43.1395C116.478 48.4108 108.471 57.6652 108.471 57.6652C108.471 57.6652 118.801 51.9603 124.353 46.9054C130.15 41.628 137.059 31.3037 137.059 31.3037C137.059 31.3037 127.705 38.1318 122.235 43.1395Z" fill="#738E37" stroke="#738E37"/>
<path d="M163.508 91.757C161.92 84.2256 157.156 78.8452 157.156 78.8452C160.617 90.1181 160.946 96.1672 150.803 105.207C131.526 115.871 118.511 118.984 92.0379 118.118C90.6322 118.056 89.9204 119.195 90.9791 120.27C92.0378 121.346 106.332 122.422 106.332 122.422C109.64 123.602 137.534 121.322 149.744 113.815C157.21 109.223 165.097 99.2883 163.508 91.757Z" fill="#282731" stroke="#24252D" stroke-width="0.1"/>
<path d="M121.177 88.8686C122.121 87.0753 124.122 83.3811 124.576 82.9507C143.738 91.715 128.442 108.272 121.743 108.774C126.268 107.343 135.16 92.95 121.177 88.8686Z" fill="#26252E" stroke="#292931" stroke-width="0.1"/>
<path d="M124.568 106.993C138.936 96.0991 134.364 89.889 124.568 82.6667L122.402 74.5579C121.237 71.9267 159.438 64.2291 160.31 86.4508C160.853 100.28 156.37 103.971 138.107 111.858C119.844 119.746 108.547 118.384 91.5345 118.346C91.1691 116.908 110.201 117.887 124.568 106.993Z" fill="#3C3B47" stroke="#3E3E49" stroke-width="0.1"/>
<path d="M148.155 81.9555C143.07 77.3162 138.443 76.7981 130.155 76.0376C133.863 74.2874 137.176 74.0245 141.273 75.4996C147.221 77.641 152.153 80.2916 154.508 85.7214C156.455 90.2096 156.352 95.1621 152.391 98.0951C154.632 91.3414 152.932 86.3132 148.155 81.9555Z" fill="#767284" stroke="#716F81" stroke-width="0.1"/>
<ellipse cx="74.0923" cy="81.337" rx="10.0588" ry="10.2218" fill="#4B2E68"/>
<path d="M82.0333 74.8812C80.4451 72.7292 77.837 71.463 75.2926 71.1811C72.7482 70.8993 70.1836 71.5278 68.1218 72.9384C66.06 74.3489 64.6562 76.4354 64.1965 78.7724C63.7369 81.1093 64.0334 85.641 65.6218 86.1789C69.0016 88.0854 73.9419 88.2144 77.8068 85.5152C81.6189 82.8529 82.7343 79.9892 82.0333 74.8812Z" fill="#683D8A"/>
<path d="M68.7848 76.395C69.2014 75.8462 69.7412 75.4795 70.274 75.3278C70.8067 75.1762 71.3294 75.2406 71.7213 75.5479C72.1132 75.8551 72.3075 76.3524 72.2985 76.9145C72.2894 77.4767 72.0767 78.0998 71.6602 78.6486C71.2437 79.1974 70.7046 79.5647 70.1719 79.7165C69.6392 79.8682 69.1159 79.8042 68.7239 79.4972C68.3319 79.1899 68.1383 78.692 68.1473 78.1297C68.1564 77.5675 68.3682 76.9439 68.7848 76.395Z" fill="#C092D8" stroke="#BF83DD" stroke-width="0.11"/>
<ellipse cx="84.6804" cy="88.8688" rx="10.0588" ry="10.2218" fill="#5D3479"/>
<path d="M92.6215 82.4129C91.0332 80.2609 88.4251 78.9947 85.8807 78.7129C83.3363 78.4311 80.7718 79.0595 78.71 80.4701C76.6481 81.8807 75.2443 83.9671 74.7847 86.3041C74.325 88.6411 74.6215 93.1727 76.2099 93.7107C79.5898 95.6171 84.5301 95.7461 88.3949 93.047C92.207 90.3847 93.3224 87.521 92.6215 82.4129Z" fill="#744099"/>
<path d="M79.3732 83.9272C79.7898 83.3784 80.3296 83.0117 80.8623 82.86C81.3951 82.7084 81.9178 82.7729 82.3097 83.0801C82.7016 83.3874 82.8959 83.8847 82.8869 84.4468C82.8778 85.0089 82.6651 85.6321 82.2486 86.1809C81.8321 86.7296 81.2929 87.0969 80.7603 87.2487C80.2276 87.4004 79.7043 87.3365 79.3123 87.0294C78.9202 86.7221 78.7267 86.2242 78.7357 85.6619C78.7448 85.0997 78.9566 84.4761 79.3732 83.9272Z" fill="#B576D4" stroke="#BF83DD" stroke-width="0.11"/>
<ellipse cx="115.386" cy="81.337" rx="10.0588" ry="10.2218" fill="#3D2357"/>
<path d="M123.328 74.8812C121.739 72.7292 119.131 71.463 116.587 71.1811C114.042 70.8993 111.478 71.5278 109.416 72.9384C107.354 74.3489 105.95 76.4354 105.491 78.7724C105.031 81.1093 105.328 85.641 106.916 86.1789C110.296 88.0854 115.236 88.2144 119.101 85.5152C122.913 82.8529 124.028 79.9892 123.328 74.8812Z" fill="#563374"/>
<ellipse cx="105.857" cy="88.8688" rx="10.0588" ry="10.2218" fill="#42275E"/>
<path d="M113.798 82.4129C112.21 80.2609 109.602 78.9947 107.057 78.7129C104.513 78.4311 101.948 79.0595 99.8865 80.4701C97.8247 81.8807 96.4208 83.9671 95.9612 86.3041C95.5015 88.6411 95.798 93.1727 97.3864 93.7107C100.766 95.6171 105.707 95.7461 109.571 93.047C113.384 90.3847 114.499 87.521 113.798 82.4129Z" fill="#5F3981"/>
<ellipse cx="95.2685" cy="94.2487" rx="10.0588" ry="10.2218" fill="#5C3479"/>
<path d="M103.21 87.7928C101.622 85.6408 99.0135 84.3746 96.4691 84.0928C93.9247 83.811 91.3602 84.4394 89.2983 85.85C87.2365 87.2605 85.8327 89.347 85.373 91.684C84.9134 94.021 85.2099 98.5526 86.7983 99.0906C90.1781 100.997 95.1184 101.126 98.9833 98.4268C102.795 95.7646 103.911 92.9008 103.21 87.7928Z" fill="#713D94"/>
<path d="M89.9614 89.3071C90.3779 88.7583 90.9177 88.3916 91.4505 88.2399C91.9832 88.0883 92.5059 88.1527 92.8979 88.46C93.2897 88.7673 93.484 89.2645 93.475 89.8266C93.4659 90.3888 93.2532 91.0119 92.8367 91.5608C92.4203 92.1095 91.8811 92.4768 91.3484 92.6286C90.8157 92.7803 90.2924 92.7163 89.9004 92.4093C89.5084 92.102 89.3148 91.6041 89.3239 91.0418C89.3329 90.4796 89.5448 89.856 89.9614 89.3071Z" fill="#B576D4" stroke="#BF83DD" stroke-width="0.11"/>
<ellipse cx="104.798" cy="69.5011" rx="10.0588" ry="10.2218" fill="#40275B"/>
<path d="M112.739 63.0452C111.151 60.8933 108.543 59.627 105.998 59.3452C103.454 59.0634 100.889 59.6919 98.8276 61.1024C96.7658 62.513 95.362 64.5995 94.9023 66.9364C94.4427 69.2734 94.7392 73.805 96.3276 74.343C99.7074 76.2494 104.648 76.3784 108.513 73.6793C112.325 71.017 113.44 68.1533 112.739 63.0452Z" fill="#603881"/>
<ellipse cx="82.5627" cy="69.5011" rx="10.0588" ry="10.2218" fill="#4A2E68"/>
<path d="M90.5041 63.0452C88.9158 60.8933 86.3077 59.627 83.7633 59.3452C81.2189 59.0634 78.6543 59.6919 76.5925 61.1024C74.5307 62.513 73.1269 64.5995 72.6672 66.9364C72.2076 69.2734 72.5041 73.805 74.0925 74.343C77.4723 76.2494 82.4126 76.3784 86.2775 73.6793C90.0896 71.017 91.205 68.1533 90.5041 63.0452Z" fill="#6A3F8E"/>
<path d="M77.2555 64.5596C77.6721 64.0108 78.2119 63.644 78.7447 63.4923C79.2774 63.3407 79.8001 63.4052 80.192 63.7124C80.5839 64.0197 80.7782 64.517 80.7692 65.0791C80.7601 65.6412 80.5474 66.2644 80.1309 66.8132C79.7145 67.3619 79.1753 67.7292 78.6426 67.881C78.1099 68.0327 77.5866 67.9688 77.1946 67.6617C76.8026 67.3545 76.609 66.8565 76.618 66.2943C76.6271 65.732 76.8389 65.1084 77.2555 64.5596Z" fill="#BD8DD6" stroke="#BF83DD" stroke-width="0.11"/>
<ellipse cx="94.2097" cy="74.881" rx="10.0588" ry="10.2218" fill="#61387E"/>
<path d="M102.151 68.4251C100.563 66.2731 97.9546 65.0069 95.4103 64.7251C92.8659 64.4433 90.3013 65.0717 88.2395 66.4823C86.1777 67.8929 84.7738 69.9793 84.3142 72.3163C83.8546 74.6533 84.151 79.1849 85.7394 79.7229C89.1193 81.6293 94.0596 81.7583 97.9245 79.0592C101.737 76.3969 102.852 73.5332 102.151 68.4251Z" fill="#78409A"/>
<path d="M88.9025 69.9394C89.3191 69.3906 89.8589 69.0239 90.3916 68.8722C90.9244 68.7206 91.4471 68.7851 91.839 69.0923C92.2308 69.3996 92.4252 69.8969 92.4162 70.459C92.4071 71.0211 92.1944 71.6443 91.7779 72.1931C91.3614 72.7418 90.8222 73.1091 90.2896 73.2609C89.7569 73.4126 89.2336 73.3487 88.8416 73.0416C88.4495 72.7343 88.256 72.2364 88.265 71.6741C88.2741 71.1119 88.4859 70.4883 88.9025 69.9394Z" fill="#BE8CD5" stroke="#BF83DD" stroke-width="0.11"/>
<ellipse cx="94.2097" cy="55.5133" rx="10.0588" ry="10.2218" fill="#5C357B"/>
<path d="M102.151 49.0574C100.563 46.9055 97.9546 45.6392 95.4103 45.3574C92.8659 45.0756 90.3013 45.7041 88.2395 47.1146C86.1777 48.5252 84.7738 50.6117 84.3142 52.9486C83.8546 55.2856 84.151 59.8172 85.7394 60.3552C89.1193 62.2616 94.0596 62.3906 97.9245 59.6915C101.737 57.0292 102.852 54.1655 102.151 49.0574Z" fill="#713D94"/>
<path d="M88.9025 50.5718C89.3191 50.023 89.8589 49.6562 90.3916 49.5045C90.9244 49.3529 91.4471 49.4174 91.839 49.7246C92.2308 50.0319 92.4252 50.5292 92.4162 51.0913C92.4071 51.6534 92.1944 52.2766 91.7779 52.8254C91.3614 53.3741 90.8222 53.7414 90.2896 53.8932C89.7569 54.0449 89.2336 53.981 88.8416 53.6739C88.4495 53.3667 88.256 52.8687 88.265 52.3065C88.2741 51.7442 88.4859 51.1207 88.9025 50.5718Z" fill="#C090D7" stroke="#BF83DD" stroke-width="0.11"/>
<path d="M123.823 135.136C115.197 136.863 110.019 137.035 100.529 136.75C98.5116 138.078 98.1312 138.799 101.588 139.978C111.012 139.689 116.079 139.217 124.353 137.288C125.506 135.852 124.637 135.71 123.823 135.136Z" fill="#FFCD26" stroke="#FFCD26" stroke-width="0.1"/>
<ellipse cx="88.353" cy="136.75" rx="4.23529" ry="3.22794" fill="#FFCD26"/>
<ellipse cx="38.5883" cy="107.699" rx="3.17647" ry="3.22794" fill="#FFCD26"/>
<ellipse cx="35.4118" cy="96.4007" rx="4.23529" ry="3.76593" fill="#FFCD26"/>
<ellipse cx="42.8234" cy="117.382" rx="4.23529" ry="3.22794" fill="#FDC71C"/>
<path d="M69.294 130.294C55.7837 129.109 51.8803 125.669 47.0587 117.92L38.5881 118.458C49.0306 125.573 55.1858 129.236 67.1764 134.598L69.294 130.294Z" fill="#FFCD26" stroke="#FFCD26" stroke-width="0.1"/>
<ellipse cx="73" cy="134.06" rx="5.82353" ry="4.84191" fill="#FFCD26"/>
<ellipse cx="58.2097" cy="116.844" rx="10.0588" ry="10.2218" fill="#5C357B"/>
<path d="M66.151 110.388C64.5628 108.237 61.9546 106.97 59.4103 106.688C56.8659 106.407 54.3013 107.035 52.2395 108.446C50.1777 109.856 48.7738 111.943 48.3142 114.28C47.8546 116.617 48.151 121.148 49.7394 121.686C53.1193 123.593 58.0596 123.722 61.9245 121.023C65.7365 118.36 66.8519 115.497 66.151 110.388Z" fill="#713D94"/>
<path d="M52.9025 111.902C53.3191 111.354 53.8589 110.987 54.3916 110.835C54.9244 110.683 55.4471 110.748 55.839 111.055C56.2308 111.362 56.4252 111.86 56.4162 112.422C56.4071 112.984 56.1944 113.607 55.7779 114.156C55.3614 114.705 54.8222 115.072 54.2896 115.224C53.7569 115.375 53.2336 115.312 52.8416 115.005C52.4495 114.697 52.256 114.199 52.265 113.637C52.2741 113.075 52.4859 112.451 52.9025 111.902Z" fill="#C090D7" stroke="#BF83DD" stroke-width="0.11"/>
</svg>
