<svg width="200" height="200" viewBox="0 0 200 200" fill="none" xmlns="http://www.w3.org/2000/svg">
<path d="M173.307 126.368L173.817 117.226C173.821 117.153 173.747 117.1 173.679 117.128L161.465 122.195C161.393 122.225 161.381 122.32 161.442 122.367L168.063 127.437C168.079 127.449 168.098 127.456 168.118 127.458C170.568 127.623 171.766 127.472 173.264 126.445C173.289 126.427 173.305 126.399 173.307 126.368Z" fill="#673D19"/>
<path d="M173.104 115.743C174.193 115.291 175.381 116.132 175.315 117.31L174.804 126.451C174.777 126.949 174.519 127.403 174.112 127.682C173.218 128.295 172.35 128.685 171.318 128.874C170.333 129.055 169.266 129.038 168.016 128.954C167.747 128.936 167.481 128.849 167.249 128.697L167.151 128.628L160.53 123.558C159.552 122.809 159.752 121.282 160.889 120.81L173.104 115.743ZM164.28 122.65L168.632 125.982C169.599 126.035 170.249 126.02 170.777 125.923C171.148 125.855 171.485 125.742 171.849 125.551L172.195 119.367L164.28 122.65Z" fill="#673D19"/>
<path d="M94.5218 162.21V154.584C94.5218 154.522 94.4658 154.475 94.4045 154.486L76.9973 157.544C76.9131 157.559 76.8851 157.666 76.9512 157.72L85.6295 164.835C85.6444 164.847 85.6629 164.855 85.682 164.857C89.6291 165.305 91.5801 164.772 94.4864 162.287C94.5086 162.268 94.5218 162.24 94.5218 162.21Z" fill="#673D19"/>
<path d="M80.2603 158.493L86.2534 163.407C87.925 163.571 89.0691 163.516 90.0591 163.231C90.9862 162.963 91.8885 162.462 93.022 161.552V156.251L80.2603 158.493ZM96.022 162.21C96.022 162.687 95.81 163.129 95.4614 163.427C93.9262 164.74 92.5222 165.642 90.8901 166.113C89.2688 166.58 87.5663 166.58 85.5132 166.347C85.2133 166.313 84.9212 166.194 84.6782 165.994L76.0005 158.88C74.9425 158.013 75.3903 156.303 76.7378 156.067L94.145 153.008L94.3276 152.987C95.2331 152.931 96.022 153.652 96.022 154.584V162.21Z" fill="#673D19"/>
<path d="M78.9625 143.286L12.7071 88.1554C11.5139 87.1626 11.8555 85.2502 13.322 84.7416C47.6516 72.8372 110.78 53.6996 113.304 53.6991C115.805 53.6986 160.168 78.1956 186.665 93.7981C188.067 94.6238 187.929 96.6802 186.439 97.3341L81.0454 143.58C80.3515 143.885 79.545 143.771 78.9625 143.286Z" fill="#935729"/>
<path d="M113.476 51.204C113.869 51.2274 114.206 51.3247 114.369 51.3729C114.621 51.4476 114.891 51.5445 115.159 51.6493C115.699 51.8604 116.371 52.1565 117.143 52.5155C118.692 53.237 120.77 54.2732 123.242 55.5487C128.194 58.1032 134.823 61.6645 142.188 65.7059C156.922 73.7902 174.66 83.827 187.934 91.6434C191.128 93.5248 190.762 98.1664 187.443 99.6229L82.0498 145.87C80.4885 146.555 78.6739 146.298 77.3633 145.208L11.1084 90.077C8.43177 87.8498 9.18235 83.5313 12.5029 82.3798L15.8105 81.2401C32.743 75.4471 55.3811 68.2504 74.5049 62.3671C84.7067 59.2285 93.9201 56.4604 100.746 54.4755C104.157 53.4835 106.984 52.6839 109.043 52.1307C110.07 51.8548 110.924 51.6353 111.571 51.4833C111.893 51.4077 112.184 51.344 112.431 51.2977C112.614 51.2633 112.963 51.1992 113.304 51.1991L113.476 51.204ZM112.714 56.3505C112.142 56.4847 111.347 56.6882 110.34 56.9589C108.329 57.4989 105.541 58.2879 102.143 59.2762C95.3492 61.2517 86.1613 64.0115 75.9746 67.1454C55.933 73.3111 32.0687 80.9107 14.9971 86.8085L80.3232 141.166L184.527 95.4423C171.406 87.7326 154.161 77.9782 139.783 70.0887C132.433 66.0559 125.846 62.5182 120.949 59.9921C118.497 58.7273 116.491 57.7277 115.032 57.0487C114.299 56.7075 113.736 56.4618 113.339 56.3065C113.28 56.2834 113.226 56.2661 113.18 56.2489C113.055 56.275 112.9 56.3066 112.714 56.3505Z" fill="#935729"/>
<path d="M10 97.4672V86.1256C10 86.0393 10.102 85.9935 10.1665 86.0509L78.3498 146.76C78.9461 147.291 79.8011 147.417 80.5247 147.079L189.336 96.3572C189.402 96.3263 189.478 96.3747 189.478 96.4479V106.964C189.478 107.741 189.028 108.447 188.324 108.776L80.5205 159.105C79.799 159.441 78.9464 159.318 78.3499 158.791L10.6754 98.9656C10.2459 98.586 10 98.0403 10 97.4672Z" fill="#7C4B20"/>
<path d="M8.5 97.4671V86.1253C8.50021 84.7877 10.0318 84.0585 11.0654 84.849L11.1641 84.931L79.3477 145.64C79.4966 145.772 79.7099 145.804 79.8906 145.72L188.702 94.9974C189.763 94.5029 190.978 95.2776 190.979 96.4476V106.964C190.978 108.324 190.191 109.56 188.959 110.135L81.1553 160.464C79.8926 161.054 78.4005 160.837 77.3564 159.914L9.68164 100.089C8.93028 99.4249 8.5 98.4701 8.5 97.4671ZM11.5 97.4671C11.5 97.6104 11.5616 97.7472 11.6689 97.8421L79.3438 157.667C79.4928 157.799 79.7056 157.829 79.8857 157.745L187.689 107.417C187.865 107.335 187.978 107.158 187.979 106.964V98.6449L81.1582 148.439C79.8918 149.029 78.396 148.809 77.3525 147.88L11.5 89.2464V97.4671Z" fill="#7C4B20"/>
<path d="M102.46 70.2973C101.951 72.2564 96.719 72.3034 90.7728 70.4024C84.8267 68.5014 80.4186 65.3722 80.9271 63.4132C81.4357 61.4541 86.6682 61.407 92.6143 63.308C98.5605 65.209 102.969 68.3382 102.46 70.2973Z" fill="#F46334"/>
<path d="M89.5009 58.556C94.755 56.9286 99.3971 57.1238 99.8692 58.992C100.341 60.8601 96.4647 63.6938 91.2105 65.3212C85.9564 66.9486 81.3143 66.7534 80.8422 64.8853C80.3701 63.0171 84.2467 60.1834 89.5009 58.556Z" fill="#ED592D"/>
<path d="M91.2112 56.1663C96.5866 54.5013 101.365 54.8167 101.884 56.8706C102.403 58.9245 98.4662 61.9393 93.0909 63.6042C87.7155 65.2691 82.9371 64.9538 82.4181 62.8998C81.899 60.8459 85.8358 57.8312 91.2112 56.1663Z" fill="#F46334"/>
<path d="M25.3811 79.0348C23.3668 75.1962 23.7885 74.2067 25.1089 72.8688L34.9004 79.6183C38.1543 81.5662 41.9185 81.1356 43.419 80.5137C44.9195 79.8917 47.5416 78.5731 52.6641 74.3145C57.7394 70.7365 60.7822 69.0973 66.916 67.4811C71.6139 66.2384 74.4737 66.1941 79.6858 66.5116C81.2326 66.4394 82.0169 66.1522 83.1867 64.9576C83.9633 68.2753 84.24 70.0443 82.7107 72.0513C84.7073 76.4207 84.5183 78.5196 80.7396 81.3086C80.6403 85.3581 79.287 86.3612 74.4946 85.9556C71.2404 90.2718 69.2027 90.0795 65.4881 88.7622L57.7382 92.7977C54.1676 95.2445 52.4704 95.1865 49.727 93.7507C45.2691 97.5923 43.2827 97.3507 40.213 94.7089C35.5167 96.1172 34.1371 95.242 33.4389 91.3407C30.0764 92.1378 28.6873 91.5728 27.9138 87.043C24.3181 84.9184 24.147 83.0184 25.3811 79.0348Z" fill="#FDE8CB"/>
<path d="M83.6731 64.8436C84.0591 66.4927 84.3403 67.8259 84.3137 69.0074C84.2884 70.133 83.9847 71.112 83.2836 72.1126C84.2059 74.181 84.6712 75.8454 84.3822 77.3656C84.0869 78.918 83.0332 80.2007 81.2309 81.5641C81.1581 83.4794 80.7815 84.8816 79.6751 85.7043C78.6011 86.5028 76.9719 86.6422 74.7266 86.4726C73.1476 88.5194 71.7793 89.6027 70.2789 89.9578C68.797 90.3085 67.2904 89.9189 65.5275 89.3035L57.9954 93.2262C56.201 94.4531 54.8049 95.1052 53.4682 95.2284C52.2093 95.3444 51.0741 94.9838 49.7971 94.3457C47.683 96.1316 46.0337 97.0632 44.4808 97.1601C42.9092 97.258 41.5653 96.4968 40.0942 95.2633C39.0183 95.5746 38.0969 95.7694 37.3062 95.8238C36.4501 95.8826 35.7143 95.7812 35.0959 95.4594C33.9564 94.8664 33.3998 93.6301 33.0454 91.9382C31.5939 92.2382 30.3725 92.2693 29.4182 91.5983C28.4053 90.886 27.8462 89.4891 27.4609 87.3532C25.7407 86.304 24.7283 85.2396 24.3539 83.8679C23.9867 82.5225 24.2679 80.9856 24.8449 79.0839C23.902 77.2599 23.4737 76.004 23.4946 75.0036C23.5174 73.9099 24.0709 73.2094 24.7534 72.5178L25.0473 72.2189L35.1686 79.1964C36.7055 80.1132 38.3696 80.4742 39.8364 80.5297C41.3139 80.5856 42.5558 80.3303 43.2273 80.0521C44.669 79.4545 47.2488 78.1668 52.3445 73.9304L52.3601 73.9177L52.3756 73.9059C57.1686 70.527 60.1899 68.8483 65.6601 67.3048L66.7889 66.9972C71.5466 65.7388 74.4628 65.6932 79.6791 66.0099C80.4201 65.9744 80.929 65.8902 81.3802 65.6963C81.8328 65.5018 82.2687 65.1809 82.8295 64.6083L83.4659 63.9576L83.6731 64.8436ZM82.8897 65.9147C82.5244 66.2172 82.1654 66.4471 81.775 66.6149C81.1583 66.8798 80.5056 66.9736 79.709 67.0108L79.6826 67.0118L79.6553 67.0109C74.4713 66.6952 71.6704 66.7404 67.0443 67.9641L67.0433 67.9651C60.9853 69.5614 57.9957 71.1678 52.9664 74.7124C47.8282 78.9822 45.168 80.33 43.6104 80.9755C42.7813 81.3192 41.3906 81.5891 39.7979 81.5289C38.1977 81.4683 36.3569 81.0737 34.6432 80.0478L34.6295 80.0391L34.6168 80.0303L25.1788 73.5241C24.732 74.0242 24.5068 74.4427 24.4946 75.0246C24.4789 75.7801 24.8185 76.8872 25.8234 78.8022L25.9197 78.9854L25.8589 79.1829C25.2422 81.1737 25.0225 82.5191 25.3188 83.6047C25.5883 84.5919 26.3154 85.4605 27.8502 86.4192L28.1682 86.6124L28.3679 86.7309L28.4068 86.9592C28.7937 89.2251 29.3131 90.3024 29.9935 90.7809C30.6583 91.2481 31.6379 91.2539 33.3238 90.8542L33.838 90.7323L33.9307 91.2525C34.2793 93.2005 34.7701 94.1622 35.5576 94.572C35.9584 94.7806 36.492 94.8782 37.2372 94.8269C37.9842 94.7756 38.9103 94.5776 40.0691 94.2301L40.3315 94.1511L40.5392 94.3301C42.0558 95.6353 43.1887 96.2389 44.4187 96.1623C45.6789 96.0836 47.18 95.2846 49.4001 93.3714L49.6582 93.1498L49.9585 93.308C51.3002 94.0102 52.3067 94.3312 53.3768 94.2326C54.461 94.1326 55.6914 93.5941 57.4553 92.3854L57.4806 92.3677L57.507 92.3539L65.2575 88.3191L65.4505 88.2178L65.6548 88.2913C67.5175 88.9519 68.8271 89.2742 70.0489 88.985C71.2573 88.6989 72.4911 87.7829 74.0958 85.6545L74.262 85.4342L74.5365 85.4576C76.9413 85.6611 78.2962 85.4834 79.0785 84.9017C79.8254 84.3464 80.1904 83.3054 80.2397 81.2961L80.2457 81.0519L80.4424 80.9067C82.2994 79.5361 83.1657 78.4109 83.4 77.1796C83.6385 75.926 83.25 74.4346 82.2558 72.2587L82.1318 71.9867L82.3126 71.7478C83.0146 70.8264 83.2911 69.9843 83.3136 68.9845C83.3327 68.133 83.1662 67.1626 82.8897 65.9147Z" fill="#FDE8CB"/>
<path d="M31.0164 80.1468C32.499 81.2522 33.2945 82.9855 32.7931 84.0183C32.2918 85.051 30.6836 84.9921 29.201 83.8867C27.7185 82.7813 26.923 81.048 27.4243 80.0152C27.9256 78.9825 29.5339 79.0414 31.0164 80.1468Z" fill="#FFF3E2"/>
<path d="M40.4955 87.2666C40.3653 88.279 39.1549 88.8796 37.7921 88.6082C36.4293 88.3368 35.4301 87.2962 35.5603 86.2838C35.6906 85.2715 36.9009 84.6708 38.2637 84.9422C39.6266 85.2136 40.6258 86.2543 40.4955 87.2666Z" fill="#FFF3E2"/>
<path d="M47.5799 91.9867C47.3845 92.9827 46.0662 93.4391 44.6355 93.0061C43.2047 92.5732 42.2033 91.4147 42.3987 90.4187C42.594 89.4227 43.9123 88.9662 45.3431 89.3992C46.7738 89.8322 47.7753 90.9906 47.5799 91.9867Z" fill="#FFF3E2"/>
<path d="M49.3124 83.2136C49.744 84.3429 49.0828 85.8495 47.8356 86.5786C46.5884 87.3077 45.2275 86.9833 44.7959 85.854C44.3643 84.7246 45.0255 83.2181 46.2726 82.489C47.5198 81.7599 48.8808 82.0843 49.3124 83.2136Z" fill="#FFF3E2"/>
<path d="M55.4332 85.6084C56.0649 86.5146 55.6767 88.2112 54.5661 89.3979C53.4555 90.5845 52.0431 90.8118 51.4114 89.9056C50.7797 88.9994 51.1679 87.3028 52.2785 86.1161C53.3891 84.9295 54.8015 84.7021 55.4332 85.6084Z" fill="#FFF3E2"/>
<path d="M57.0107 76.4335C57.4976 77.251 56.9664 78.7588 55.8242 79.8013C54.6819 80.8438 53.3611 81.0262 52.8742 80.2088C52.3872 79.3913 52.9184 77.8835 54.0607 76.841C55.2029 75.7985 56.5237 75.6161 57.0107 76.4335Z" fill="#FFF3E2"/>
<path d="M73.7248 82.2096C73.511 83.2923 72.1423 83.8059 70.6678 83.3568C69.1932 82.9076 68.1711 81.6658 68.3849 80.5831C68.5987 79.5003 69.9674 78.9867 71.442 79.4359C72.9165 79.885 73.9386 81.1269 73.7248 82.2096Z" fill="#FFEEDF"/>
<path d="M75.0492 70.472C75.6077 71.4491 75.1477 73.0404 74.0217 74.0263C72.8958 75.0122 71.5302 75.0193 70.9717 74.0422C70.4132 73.0651 70.8732 71.4738 71.9992 70.4879C73.1252 69.502 74.4907 69.4949 75.0492 70.472Z" fill="#FFF1DF"/>
<path d="M79.8281 78.1789C79.1366 79.6565 77.9039 80.371 77.0748 79.7749C76.2456 79.1788 76.1341 77.4978 76.8256 76.0202C77.5171 74.5426 78.7498 73.828 79.5789 74.4241C80.408 75.0202 80.5196 76.7013 79.8281 78.1789Z" fill="#FFEEDF"/>
<path d="M29.7773 65.6027C27.2388 64.3523 25.7555 64.4391 23.0348 66.7341C24.9402 59.116 28.1639 55.118 39.2129 48.6744C46.366 46.6111 50.4145 46.018 57.6945 46.1172C66.254 46.9152 70.8991 48.4617 78.7136 54.6302L78.8732 54.7846C81.9952 57.8061 83.7932 59.5462 84.9906 63.1945C85.3384 65.3641 84.6948 66.1632 82.5055 67.0808C77.1395 64.0593 73.8796 63.6765 67.7545 64.6394L60.2633 66.0504C55.2728 67.4211 52.3477 69.1892 46.8015 74.9605C41.4395 79.4085 39.9452 79.9197 38.5705 79.1438L36.8019 73.6105C34.4946 69.5851 32.9086 67.9322 29.7773 65.6027Z" fill="#FF8D5F"/>
<path d="M57.701 45.6177L57.7215 45.6177L57.741 45.6196C62.0409 46.0204 65.3952 46.6119 68.6661 47.894C71.7324 49.0959 74.7001 50.894 78.2958 53.6691L79.0234 54.2378L79.043 54.2534L79.0616 54.2709L79.2213 54.4256C82.1452 57.2553 83.9855 59.0283 85.2258 62.352L85.4655 63.0386L85.4784 63.0767L85.4844 63.1157C85.6655 64.2455 85.6107 65.1425 85.1152 65.8846C84.6351 66.6035 83.8015 67.0794 82.6991 67.5415L82.4729 67.636L82.2606 67.5166C79.6077 66.0229 77.5089 65.2006 75.3371 64.8601C73.1612 64.5189 70.8747 64.655 67.8322 65.1333L67.8312 65.1324L60.3712 66.5382C57.9211 67.2127 56 67.9799 54.0136 69.2743C52.0124 70.5784 49.9251 72.4315 47.1618 75.307L47.1423 75.3276L47.1209 75.3452C44.443 77.5666 42.6855 78.8451 41.4078 79.4619C40.7625 79.7733 40.2065 79.9322 39.6927 79.9424C39.1678 79.9529 38.729 79.8069 38.3252 79.579L38.1539 79.483L38.0947 79.2957L36.341 73.8115C35.209 71.841 34.2622 70.4659 33.2255 69.3028C32.1888 68.1397 31.0482 67.1735 29.5128 66.0296C28.2971 65.4355 27.4144 65.2055 26.5475 65.3339C25.6595 65.4655 24.6966 65.9868 23.3574 67.1165L22.1744 68.1138L22.55 66.6125C23.5157 62.7516 24.8269 59.7677 27.3197 56.9337C29.7992 54.1147 33.4239 51.4718 38.9611 48.2427L39.0147 48.2112L39.0742 48.1944C46.2709 46.1185 50.3685 45.5179 57.701 45.6177ZM57.6635 46.6159C50.4719 46.5194 46.4753 47.1022 39.4115 49.1366C33.9301 52.3366 30.4334 54.9073 28.0701 57.5941C26.0199 59.925 24.8052 62.3647 23.9052 65.432C24.7845 64.8277 25.5859 64.4649 26.4014 64.3441C27.5804 64.1696 28.6981 64.5136 29.998 65.1539L30.0391 65.1742L30.0753 65.2015C31.6539 66.3758 32.864 67.3947 33.9722 68.6381C34.9413 69.7254 35.8222 70.973 36.8066 72.6273L37.2359 73.3621L37.2624 73.4079L37.2783 73.4586L38.9826 78.7916C39.206 78.8949 39.424 78.9484 39.6726 78.9435C39.9929 78.9371 40.4031 78.8361 40.973 78.561C42.1233 78.0057 43.7883 76.809 46.4591 74.5946C49.2329 71.7096 51.3769 69.7988 53.4677 68.4364C55.5715 67.0655 57.6019 66.2629 60.1305 65.5684L60.151 65.5625L60.1705 65.5595L67.6617 64.1476L67.6695 64.1466L67.6763 64.1456C70.7588 63.661 73.1651 63.5074 75.4918 63.8722C77.7597 64.2279 79.9174 65.071 82.5315 66.5235C83.4776 66.1088 84.0021 65.7505 84.2832 65.3299C84.5662 64.906 84.6601 64.3277 84.5016 63.3115C83.3472 59.8202 81.6388 58.1569 78.5256 55.1438L78.3826 55.0057C74.5065 51.9481 71.4407 50.0555 68.3012 48.825C65.1598 47.5937 61.9155 47.013 57.6635 46.6159Z" fill="#FF8D5F"/>
<path d="M48.9363 72.5944C44.5577 77.3048 42.1024 79.0591 38.3827 79.748C37.9213 79.8334 37.575 80.2286 37.5767 80.6979C37.5785 81.2087 37.9897 81.6266 38.5005 81.6193C41.7347 81.5731 43.5738 80.9315 46.4291 79.2683L46.5969 79.1564C50.7551 76.3844 53.144 74.7918 59.8131 71.1075C69.2351 67.257 78.7788 66.9849 82.3218 66.972C85.8647 66.9591 74.4685 64.6811 74.4685 64.6811C69.1837 63.9959 65.9484 64.3138 59.7947 65.8914C55.4877 67.4527 53.1042 68.7996 48.9363 72.5944Z" fill="#FA7041"/>
<path d="M59.6705 65.4069C65.4816 63.9172 68.7461 63.5354 73.5506 64.0665L74.5325 64.1852L74.5501 64.1871L74.5667 64.1909L74.5686 64.1909C74.5701 64.1912 74.5727 64.1923 74.5755 64.1928C74.581 64.194 74.5894 64.1955 74.5999 64.1976C74.6215 64.202 74.6535 64.2085 74.6947 64.2168C74.7777 64.2336 74.8988 64.2576 75.0514 64.2888C75.3569 64.3513 75.7897 64.441 76.2975 64.5482C77.3122 64.7623 78.6305 65.0487 79.8393 65.3356C81.0367 65.6198 82.1607 65.9122 82.766 66.1409C82.9154 66.1973 83.0624 66.2605 83.1758 66.3308C83.2282 66.3633 83.3119 66.4202 83.3806 66.5069C83.4517 66.5968 83.5713 66.812 83.4607 67.0681C83.3731 67.2708 83.1964 67.35 83.1356 67.3749C83.0535 67.4085 82.967 67.4269 82.8946 67.4383C82.7458 67.4615 82.5527 67.4717 82.3234 67.4725C78.8013 67.4853 69.3493 67.757 60.0261 71.561C53.3949 75.2252 51.0195 76.8095 46.8745 79.5727L46.706 79.6846L46.6943 79.6925L46.6806 79.7003C45.2385 80.5404 44.0272 81.1382 42.7534 81.5285C41.476 81.9199 40.1583 82.0959 38.5075 82.1195C37.7087 82.1307 37.0794 81.4787 37.0767 80.6996C37.0741 79.9748 37.6064 79.3829 38.2913 79.2559C41.8479 78.5973 44.2113 76.9437 48.5705 72.2542L48.5841 72.2386L48.5997 72.2248C52.8143 68.3875 55.2542 67.006 59.6246 65.4217L59.6471 65.4129L59.6705 65.4069ZM38.0767 80.6961C38.0775 80.9387 38.2706 81.1226 38.4932 81.1195C40.0763 81.0969 41.2957 80.9292 42.46 80.5725C43.626 80.2152 44.7594 79.6604 46.1688 78.8398L46.3198 78.7406C50.4852 75.9638 52.8862 74.3629 59.5708 70.67L59.5972 70.6562L59.6235 70.6444C67.7627 67.3181 75.9823 66.6395 80.4167 66.5045C80.1582 66.44 79.8872 66.3743 79.6084 66.3081C78.4112 66.024 77.1021 65.7398 76.0909 65.5264C75.5856 65.4198 75.1546 65.3312 74.8508 65.269C74.6992 65.238 74.5792 65.2136 74.497 65.197C74.4559 65.1887 74.4235 65.1821 74.4022 65.1778C74.3965 65.1767 74.3917 65.1748 74.3875 65.174C69.1982 64.5027 66.0301 64.8101 59.9444 66.3689C55.7194 67.9019 53.3931 69.2142 49.2887 72.949C44.8989 77.6696 42.3523 79.5214 38.4735 80.2397C38.2358 80.2838 38.0759 80.4826 38.0767 80.6961Z" fill="#FA7041"/>
<path d="M32.5283 67.4082C36.5529 72.0465 37.9895 75.1423 38.493 80.1776C38.575 80.9977 37.6647 81.5189 36.9803 81.0596L27.6111 74.7725C22.0335 70.6783 22.3011 69.1719 22.9173 66.6536C22.9552 66.4989 23.0298 66.3538 23.1368 66.2358C25.4227 63.7138 27.4435 63.8214 32.3459 67.2441C32.4122 67.2903 32.4753 67.3471 32.5283 67.4082Z" fill="#FFB897"/>
<path d="M22.7666 65.9C23.9655 64.5774 25.1863 63.8515 26.8098 64.0129C28.3559 64.1665 30.182 65.1237 32.6323 66.8344C32.732 66.904 32.8256 66.9884 32.9056 67.0805C34.9331 69.4172 36.3318 71.3904 37.2844 73.4325C38.2394 75.4795 38.7349 77.5703 38.9906 80.1277C39.117 81.3917 37.7177 82.1566 36.7014 81.4746L27.3325 75.1879L27.3237 75.182L27.3149 75.1752C24.5215 73.1247 23.0986 71.66 22.4873 70.3307C21.8542 68.9538 22.125 67.7892 22.4319 66.535C22.4885 66.304 22.6008 66.083 22.7666 65.9ZM26.7108 65.0083C25.527 64.8907 24.5942 65.3722 23.5073 66.5713C23.4592 66.6243 23.4217 66.6943 23.4025 66.7728C23.0933 68.0365 22.9227 68.8843 23.396 69.9135C23.8913 70.9903 25.1232 72.3261 27.9068 74.3694L37.259 80.6445C37.6115 80.8809 38.0334 80.6032 37.9958 80.2269C37.7481 77.7493 37.273 75.7747 36.3777 73.8555C35.48 71.9313 34.1481 70.037 32.1511 67.7355C32.1252 67.7057 32.0926 67.6766 32.06 67.6538C29.608 65.9419 27.9721 65.1337 26.7108 65.0083Z" fill="#FFB897"/>
<path d="M27.997 56.7298L26.0078 59.5065C30.2388 58.931 32.0046 59.4856 34.0085 60.8635C36.0123 62.2414 39.6047 66.3319 41.0399 70.8101C42.0694 70.9017 42.3883 70.7003 42.2853 69.6978C40.5012 65.1947 38.995 62.8438 35.251 58.9203C32.9387 57.1564 31.2484 56.8548 27.997 56.7298Z" fill="#FA7341"/>
<path d="M28.0158 56.2298C29.6464 56.2924 30.9322 56.4009 32.1104 56.7292C33.1521 57.0194 34.0917 57.4762 35.1116 58.1972L35.5542 58.5228L35.5855 58.5471L35.613 58.5754C39.3978 62.5416 40.9407 64.9463 42.7501 69.5134L42.7757 69.5778L42.7828 69.6471C42.8341 70.1471 42.8201 70.7014 42.4088 71.0469C42.2105 71.2134 41.9722 71.2835 41.7457 71.3119C41.5202 71.3401 41.2656 71.3317 40.9957 71.3076L40.6645 71.2785L40.5638 70.9625C39.8681 68.7918 38.6432 66.6994 37.3386 64.9756C36.0308 63.2477 34.6687 61.9242 33.725 61.2753C32.7588 60.611 31.8801 60.1646 30.7476 59.9429C29.6032 59.7189 28.1648 59.7179 26.075 60.0022L24.9261 60.1585L27.7472 56.2199L28.0158 56.2298ZM27.071 58.8805C28.65 58.727 29.8822 58.7548 30.9395 58.9618C32.2482 59.2179 33.2541 59.7378 34.2914 60.4511C35.3515 61.18 36.7882 62.591 38.1363 64.3723C39.4232 66.0726 40.6522 68.1424 41.4053 70.3287C41.4911 70.3295 41.5622 70.3275 41.6211 70.3201C41.7275 70.3068 41.7614 70.2845 41.7655 70.2815C41.747 70.2973 41.8294 70.2535 41.7922 69.8137C40.05 65.431 38.5804 63.1381 34.9173 59.2956C33.8144 58.4585 32.8782 57.9807 31.8423 57.692C30.8434 57.4137 29.7305 57.3045 28.2449 57.2407L27.071 58.8805Z" fill="#F96C3D"/>
<path d="M36.721 50.6053L33.9783 52.2767C41.8177 53.5197 45.0693 56.6355 48.7712 66.6278C49.873 67.1129 50.2132 66.5012 50.7653 65.236C46.1439 53.8538 42.8637 52.0007 36.721 50.6053Z" fill="#FC7848"/>
<path d="M36.832 50.1176C39.9319 50.8218 42.3946 51.659 44.6585 53.813C46.9037 55.9492 48.911 59.3404 51.2284 65.048L51.3081 65.2431L51.2239 65.4357C51.0861 65.7514 50.9526 66.0474 50.8128 66.2985C50.6741 66.5476 50.5106 66.7862 50.2996 66.9673C50.0765 67.1587 49.8093 67.2779 49.4931 67.2924C49.1921 67.3061 48.8836 67.2239 48.5695 67.0856L48.3758 67.0004L48.3019 66.8014C46.4566 61.8206 44.7497 58.6322 42.5782 56.5303C40.4243 54.4454 37.7642 53.3832 33.8999 52.7705L32.5564 52.5574L36.4611 50.1785L36.6336 50.0724L36.832 50.1176ZM35.3641 52.0173C38.6772 52.6817 41.1834 53.7884 43.2739 55.812C45.5801 58.0444 47.3315 61.3472 49.1593 66.2408C49.2916 66.2841 49.384 66.2964 49.4476 66.2935C49.5219 66.29 49.58 66.2675 49.6484 66.2088C49.7292 66.1395 49.8242 66.0185 49.939 65.8123C50.0287 65.6511 50.1177 65.4572 50.2202 65.2273C47.9513 59.675 46.0303 56.4997 43.9687 54.5381C41.946 52.6136 39.7494 51.819 36.8053 51.1383L35.3641 52.0173Z" fill="#F96F3F"/>
<path d="M66.197 48.0108L61.9443 46.6407C65.9957 51.3384 68.0517 54.1062 69.4891 60.4631C70.8279 60.9955 71.0718 60.4654 71.2333 59.0722C69.8623 54.5702 68.6676 52.1783 66.197 48.0108Z" fill="#FB7C4A"/>
<path d="M66.3498 47.5345L66.5307 47.5925L66.627 47.7562C69.111 51.9464 70.3253 54.3754 71.7112 58.9261L71.7419 59.0266L71.7295 59.1301C71.6886 59.483 71.6396 59.8097 71.562 60.0868C71.4856 60.3595 71.3674 60.6392 71.1506 60.8489C70.6609 61.3221 69.9767 61.1951 69.3042 60.9276L69.0597 60.8308L69.0012 60.5732C68.2911 57.4331 67.4338 55.2015 66.2642 53.1804C65.0899 51.1512 63.5909 49.3156 61.5656 46.9672L60.4026 45.6187L66.3498 47.5345ZM63.4655 47.6559C64.9478 49.4204 66.1453 50.9783 67.1297 52.6793C68.3257 54.746 69.1977 57.0061 69.9135 60.0847C70.3675 60.231 70.4493 60.1368 70.4557 60.1307C70.4871 60.1003 70.5427 60.019 70.5991 59.8176C70.649 59.6398 70.6863 59.4091 70.7226 59.1141C69.3975 54.7859 68.2341 52.441 65.8608 48.4278L63.4655 47.6559Z" fill="#FA7344"/>
<path d="M56.6402 45.5543L48.1609 46.145C48.0742 46.1511 48.0377 46.259 48.1005 46.3191C54.816 52.7393 57.5544 56.9903 59.5152 66.1056C59.5164 66.1115 59.5172 66.1177 59.5174 66.1238C59.8471 76.6239 59.8965 82.5284 57.6328 92.964C57.6205 93.0206 57.6591 93.0773 57.7165 93.0852C60.2964 93.4442 61.9342 92.8578 65.0765 90.4603C65.0967 90.4449 65.1109 90.4214 65.115 90.3962C66.0838 84.5078 66.4297 81.2064 66.8074 75.3619C67.2708 69.1584 66.9853 65.9237 65.5041 60.5881C63.2174 54.2008 61.132 50.9827 56.725 45.5913C56.7045 45.5662 56.6726 45.5521 56.6402 45.5543Z" fill="#67412C"/>
<path d="M56.6788 45.0547C56.8248 45.0624 56.9615 45.1233 57.0642 45.2223L57.1122 45.2748L57.9165 46.2681C61.5504 50.7954 63.5336 53.9279 65.5432 59.2455L65.9751 60.4198L65.981 60.4364L65.986 60.454C67.4844 65.8515 67.7733 69.145 67.3061 75.3987C66.9276 81.2547 66.5797 84.5728 65.6082 90.4779C65.5831 90.6291 65.5009 90.7653 65.38 90.8576C63.7982 92.0645 62.5529 92.8488 61.3533 93.2769C60.1356 93.7115 58.9967 93.7686 57.6473 93.5809C57.295 93.5318 57.0714 93.192 57.1438 92.858L57.3484 91.8983C59.3893 82.1226 59.3358 76.311 59.0178 66.1736C58.0459 61.6672 56.8881 58.391 55.1597 55.4555C53.4247 52.5088 51.0992 49.8779 47.7548 46.6805C47.3973 46.3385 47.5803 45.684 48.1262 45.646L56.6056 45.0559L56.6788 45.0547ZM49.0923 46.5811C52.1272 49.5344 54.3364 52.0845 56.0222 54.9476C57.8273 58.0134 59.0172 61.4107 60.0045 66.0002C60.012 66.0353 60.0164 66.0716 60.0175 66.1076L60.1235 69.8543C60.3202 78.0505 60.1186 83.7066 58.2124 92.6404C59.2466 92.7425 60.1086 92.6603 61.018 92.3357C62.0394 91.9711 63.1497 91.2899 64.6461 90.157C65.5921 84.3854 65.9354 81.1076 66.3088 75.3299L66.3088 75.325C66.7679 69.18 66.4861 66.0039 65.027 60.7425C62.789 54.495 60.7559 51.3278 56.4666 46.0671L49.0923 46.5811Z" fill="#67412C"/>
<path d="M94.6681 44.603C94.3516 58.1535 94.6432 54.3553 94.6681 64.3407C94.693 74.3261 128.608 74.2287 128.581 64.3407C128.555 54.4527 128.632 56.6374 128.581 44.603C128.53 32.5685 94.9846 31.0525 94.6681 44.603Z" fill="#4B4928"/>
<path d="M111.736 34.509C116.005 34.605 120.292 35.5099 123.533 37.176C126.766 38.8376 129.067 41.3221 129.081 44.6008C129.132 56.6143 129.055 54.4827 129.081 64.3391C129.089 67.1461 126.689 69.1249 123.479 70.3821C120.227 71.6552 115.923 72.287 111.645 72.2932C107.366 72.2993 103.059 71.6796 99.8 70.4094C96.5806 69.1545 94.1753 67.1707 94.1682 64.342C94.1434 54.3928 93.8516 58.1437 94.1682 44.5911C94.2533 40.9541 96.5812 38.3705 99.8723 36.7454C103.156 35.1238 107.467 34.4131 111.736 34.509ZM111.713 35.508C107.55 35.4145 103.411 36.1137 100.315 37.6428C97.2257 39.1683 95.2416 41.4766 95.1682 44.6145C94.8517 58.1627 95.1432 54.318 95.1682 64.3391C95.1736 66.5031 97.0176 68.2516 100.163 69.4778C103.269 70.6885 107.443 71.2992 111.643 71.2932C115.843 71.2872 120.014 70.6643 123.115 69.4504C126.256 68.2203 128.087 66.479 128.081 64.342C128.055 54.4226 128.133 56.66 128.081 44.6047C128.069 41.8665 126.158 39.6486 123.076 38.0647C120.004 36.4855 115.875 35.6016 111.713 35.508Z" fill="#4B4928"/>
<path d="M125.826 44.3497C125.826 48.9395 119.285 52.6603 111.217 52.6603C103.149 52.6603 96.6086 48.9395 96.6086 44.3497C96.6086 39.7598 103.149 36.0391 111.217 36.0391C119.285 36.0391 125.826 39.7598 125.826 44.3497Z" fill="#FCF1DB"/>
<path d="M125.726 44.3496C125.726 42.1063 124.126 40.0561 121.497 38.5605C118.871 37.0667 115.237 36.1387 111.217 36.1387C107.197 36.1387 103.563 37.0667 100.937 38.5605C98.308 40.0561 96.7083 42.1064 96.7083 44.3496C96.7083 46.5929 98.3078 48.6441 100.937 50.1396C103.563 51.6335 107.197 52.5605 111.217 52.5605L111.217 52.6603C103.149 52.6603 96.6086 48.9395 96.6086 44.3497C96.6086 39.7598 103.149 36.0391 111.217 36.0391C119.285 36.0391 125.826 39.7598 125.826 44.3497L125.822 44.5644C125.621 49.055 119.159 52.6603 111.217 52.6603L111.217 52.5605C115.237 52.5605 118.871 51.6333 121.497 50.1396C124.126 48.6441 125.726 46.5929 125.726 44.3496Z" fill="black"/>
<path d="M118.522 44.3497C118.522 46.6446 115.252 48.505 111.217 48.505C107.183 48.505 103.913 46.6446 103.913 44.3497C103.913 42.0548 107.183 40.1944 111.217 40.1944C115.252 40.1944 118.522 42.0548 118.522 44.3497Z" fill="#DC5016"/>
<path d="M118.422 44.3496C118.422 43.2538 117.64 42.2416 116.333 41.4981C115.029 40.7562 113.221 40.294 111.218 40.294C109.215 40.294 107.406 40.7562 106.102 41.4981C104.795 42.2416 104.013 43.2538 104.013 44.3496C104.013 45.4454 104.795 46.4576 106.102 47.2012C107.406 47.9431 109.215 48.4053 111.218 48.4053L111.217 48.505L110.842 48.5C106.982 48.3888 103.913 46.5729 103.913 44.3497C103.913 42.0548 107.183 40.1944 111.217 40.1944L111.594 40.2002C115.453 40.3116 118.522 42.1266 118.522 44.3497C118.522 46.6446 115.252 48.505 111.217 48.505L111.218 48.4053C113.221 48.4052 115.029 47.9431 116.333 47.2012C117.64 46.4576 118.422 45.4455 118.422 44.3496Z" fill="#E25B1C"/>
<path d="M111.364 59.1465C111.047 72.697 111.339 68.8988 111.364 78.8841C111.389 88.8695 145.303 88.7722 145.277 78.8841C145.25 68.9961 145.328 71.1809 145.277 59.1465C145.226 47.112 111.68 45.596 111.364 59.1465Z" fill="#4B4928"/>
<path d="M128.431 49.0525C132.701 49.1485 136.988 50.0534 140.229 51.7195C143.462 53.381 145.763 55.8655 145.777 59.1443C145.828 71.1578 145.75 69.0262 145.777 78.8826C145.784 81.6896 143.385 83.6684 140.174 84.9255C136.922 86.1987 132.619 86.8305 128.34 86.8367C124.062 86.8428 119.754 86.2231 116.496 84.9529C113.276 83.6979 110.871 81.7141 110.864 78.8855C110.839 68.9362 110.547 72.6872 110.864 59.1345C110.949 55.4975 113.277 52.914 116.568 51.2888C119.852 49.6673 124.163 48.9565 128.431 49.0525ZM128.409 50.0515C124.245 49.9579 120.107 50.6572 117.01 52.1863C113.921 53.7118 111.937 56.02 111.864 59.1579C111.547 72.7061 111.839 68.8615 111.864 78.8826C111.869 81.0465 113.713 82.795 116.859 84.0212C119.965 85.2319 124.139 85.8426 128.338 85.8367C132.538 85.8306 136.71 85.2078 139.81 83.9939C142.952 82.7638 144.783 81.0225 144.777 78.8855C144.75 68.9661 144.828 71.2035 144.777 59.1482C144.765 56.4099 142.853 54.192 139.772 52.6081C136.699 51.0289 132.571 50.1451 128.409 50.0515Z" fill="#4B4928"/>
<path d="M142.522 58.8932C142.522 63.483 135.981 67.2038 127.913 67.2038C119.845 67.2038 113.304 63.483 113.304 58.8932C113.304 54.3034 119.845 50.5826 127.913 50.5826C135.981 50.5826 142.522 54.3034 142.522 58.8932Z" fill="#FCF1DB"/>
<path d="M142.422 58.8932C142.422 56.6499 140.822 54.5996 138.193 53.1041C135.567 51.6103 131.933 50.6822 127.913 50.6822C123.893 50.6823 120.259 51.6103 117.633 53.1041C115.004 54.5996 113.404 56.65 113.404 58.8932C113.404 61.1365 115.004 63.1877 117.633 64.6832C120.258 66.177 123.893 67.104 127.913 67.1041L127.913 67.2038C119.845 67.2038 113.304 63.483 113.304 58.8932C113.304 54.3034 119.845 50.5826 127.913 50.5826C135.981 50.5826 142.522 54.3034 142.522 58.8932L142.517 59.108C142.317 63.5986 135.855 67.2038 127.913 67.2038L127.913 67.1041C131.933 67.1041 135.567 66.1769 138.193 64.6832C140.822 63.1877 142.422 61.1365 142.422 58.8932Z" fill="black"/>
<path d="M135.217 58.8932C135.217 61.1881 131.947 63.0485 127.913 63.0485C123.879 63.0485 120.609 61.1881 120.609 58.8932C120.609 56.5983 123.879 54.7379 127.913 54.7379C131.947 54.7379 135.217 56.5983 135.217 58.8932Z" fill="#DC5016"/>
<path d="M135.117 58.8932C135.117 57.7973 134.336 56.7852 133.029 56.0416C131.724 55.2998 129.916 54.8376 127.913 54.8375C125.91 54.8375 124.101 55.2997 122.797 56.0416C121.49 56.7852 120.708 57.7974 120.708 58.8932C120.708 59.989 121.49 61.0012 122.797 61.7447C124.101 62.4867 125.91 62.9489 127.913 62.9489L127.913 63.0485L127.537 63.0436C123.678 62.9324 120.609 61.1165 120.609 58.8932C120.609 56.5983 123.879 54.7379 127.913 54.7379L128.289 54.7438C132.148 54.8552 135.217 56.6701 135.217 58.8932C135.217 61.1881 131.947 63.0485 127.913 63.0485L127.913 62.9489C129.916 62.9488 131.724 62.4866 133.029 61.7447C134.336 61.0012 135.117 59.989 135.117 58.8932Z" fill="#E25B1C"/>
<path d="M131.19 72.6513C130.873 86.2018 131.165 82.4037 131.19 92.389C131.215 102.374 165.129 102.277 165.103 92.389C165.076 82.501 165.154 84.6858 165.103 72.6513C165.052 60.6169 131.506 59.1008 131.19 72.6513Z" fill="#4B4928"/>
<path d="M148.257 62.5574C152.527 62.6533 156.814 63.5583 160.055 65.2244C163.288 66.8859 165.589 69.3704 165.603 72.6492C165.654 84.6627 165.577 82.5311 165.603 92.3874C165.611 95.1944 163.211 97.1733 160 98.4304C156.749 99.7036 152.445 100.335 148.167 100.342C143.888 100.348 139.581 99.728 136.322 98.4578C133.102 97.2028 130.697 95.219 130.69 92.3904C130.665 82.4411 130.373 86.1921 130.69 72.6394C130.775 69.0024 133.103 66.4189 136.394 64.7937C139.678 63.1722 143.989 62.4614 148.257 62.5574ZM148.235 63.5564C144.071 63.4628 139.933 64.1621 136.836 65.6912C133.747 67.2166 131.763 69.5249 131.69 72.6628C131.373 86.211 131.665 82.3664 131.69 92.3874C131.695 94.5514 133.539 96.2999 136.685 97.5261C139.791 98.7368 143.965 99.3475 148.165 99.3415C152.364 99.3355 156.536 98.7127 159.636 97.4988C162.778 96.2687 164.609 94.5274 164.603 92.3904C164.576 82.471 164.654 84.7084 164.603 72.6531C164.591 69.9148 162.68 67.6969 159.598 66.113C156.526 64.5338 152.397 63.65 148.235 63.5564Z" fill="#4B4928"/>
<path d="M162.348 72.3979C162.348 76.9878 155.807 80.7085 147.739 80.7085C139.671 80.7085 133.13 76.9878 133.13 72.3979C133.13 67.8081 139.671 64.0873 147.739 64.0873C155.807 64.0873 162.348 67.8081 162.348 72.3979Z" fill="#FCF1DB"/>
<path d="M162.248 72.3979C162.248 70.1546 160.648 68.1044 158.019 66.6088C155.393 65.115 151.759 64.1869 147.739 64.1869C143.719 64.187 140.084 65.115 137.458 66.6088C134.83 68.1043 133.23 70.1547 133.23 72.3979C133.23 74.6412 134.83 76.6924 137.458 78.1879C140.084 79.6817 143.719 80.6088 147.739 80.6088L147.739 80.7085C139.671 80.7085 133.13 76.9878 133.13 72.3979C133.13 67.8081 139.671 64.0873 147.739 64.0873C155.807 64.0873 162.348 67.8081 162.348 72.3979L162.343 72.6127C162.143 77.1033 155.681 80.7085 147.739 80.7085L147.739 80.6088C151.758 80.6088 155.393 79.6816 158.019 78.1879C160.648 76.6924 162.248 74.6412 162.248 72.3979Z" fill="black"/>
<path d="M155.044 72.3979C155.044 74.6929 151.773 76.5532 147.739 76.5532C143.705 76.5532 140.435 74.6929 140.435 72.3979C140.435 70.103 143.705 68.2426 147.739 68.2426C151.773 68.2426 155.044 70.103 155.044 72.3979Z" fill="#DC5016"/>
<path d="M154.944 72.3979C154.944 71.3021 154.162 70.2899 152.855 69.5464C151.551 68.8045 149.742 68.3423 147.74 68.3423C145.737 68.3423 143.927 68.8044 142.623 69.5464C141.316 70.2899 140.534 71.3021 140.534 72.3979C140.534 73.4937 141.316 74.5059 142.623 75.2495C143.927 75.9914 145.737 76.4536 147.74 76.4536L147.739 76.5532L147.364 76.5483C143.504 76.4371 140.435 74.6212 140.435 72.3979C140.435 70.103 143.705 68.2426 147.739 68.2426L148.115 68.2485C151.975 68.3599 155.043 70.1748 155.044 72.3979C155.044 74.6929 151.773 76.5532 147.739 76.5532L147.74 76.4536C149.742 76.4535 151.551 75.9913 152.855 75.2495C154.162 74.5059 154.944 73.4938 154.944 72.3979Z" fill="#E25B1C"/>
<path d="M178.328 96.2909H163.876C161.695 96.2909 160.242 94.0358 161.145 92.0495L167.97 77.0366C169.01 74.7475 172.236 74.6774 173.375 76.9193L181.003 91.9321C182.017 93.9279 180.567 96.2909 178.328 96.2909Z" fill="#9A9C41"/>
<path d="M167.924 77.0163C168.982 74.6891 172.262 74.6172 173.42 76.8962L181.047 91.9099C182.078 93.9387 180.604 96.3402 178.329 96.3406H163.876C161.658 96.3406 160.182 94.0484 161.1 92.029L167.924 77.0163ZM173.331 76.9421C172.211 74.7376 169.038 74.8063 168.015 77.0574L161.191 92.0701C160.303 94.0233 161.731 96.241 163.876 96.241H178.329C180.53 96.2406 181.955 93.9172 180.958 91.9548L173.331 76.9421Z" fill="#9A9B43"/>
<path d="M172.783 94.2134C172.783 99.377 167.877 103.563 161.826 103.563C155.775 103.563 150.87 99.377 150.87 94.2134C150.87 89.0499 155.775 84.864 161.826 84.864C167.877 84.864 172.783 89.0499 172.783 94.2134Z" fill="#ED7323"/>
<path d="M163.425 103.446H160.156C160.055 103.446 160.019 103.312 160.105 103.259C164.349 100.637 166.579 98.6936 166.584 95.1462C166.584 95.1391 166.583 95.1317 166.581 95.1247C165.806 91.5614 163.655 89.7758 160.845 90.4607C159.299 90.8374 158.091 91.4821 158.236 93.0598C158.393 94.7706 160.098 95.3553 161.842 94.6353C161.871 94.6233 161.904 94.6249 161.931 94.6414C162.418 94.9429 162.739 95.5512 162.421 96.6565C162.414 96.6817 162.396 96.704 162.373 96.7165C157.828 99.2047 156.232 95.3512 156.152 95.1483C156.149 95.1418 156.149 95.1395 156.148 95.1326C156.117 94.9142 155.465 89.9838 159.279 88.3852C163.181 86.7502 168.501 90.3507 168.671 94.0965C168.84 97.8343 167.256 101.05 163.478 103.43C163.462 103.44 163.443 103.446 163.425 103.446Z" fill="#DD5415"/>
<path d="M159.26 88.3386C161.23 87.5128 163.554 88.0108 165.401 89.1804C167.248 90.3496 168.635 92.1996 168.721 94.0945C168.891 97.851 167.297 101.083 163.505 103.472C163.481 103.487 163.453 103.496 163.425 103.496H160.156C160.003 103.496 159.951 103.295 160.078 103.217C162.2 101.906 163.813 100.768 164.896 99.5173C165.978 98.2689 166.532 96.9073 166.534 95.1462C166.534 95.1427 166.533 95.1389 166.532 95.1355C166.146 93.3607 165.419 92.0348 164.444 91.238C163.472 90.4426 162.247 90.1705 160.856 90.5095C160.086 90.6974 159.406 90.9507 158.938 91.3484C158.474 91.7432 158.215 92.2829 158.286 93.0554C158.363 93.8924 158.817 94.4498 159.463 94.7126C160.112 94.9765 160.96 94.9449 161.823 94.5886C161.865 94.5713 161.916 94.5729 161.957 94.5984C162.21 94.7548 162.42 94.9921 162.525 95.3328C162.631 95.6726 162.631 96.1116 162.47 96.6706C162.459 96.7091 162.431 96.7418 162.396 96.7605C161.255 97.3855 160.295 97.614 159.494 97.5994C158.693 97.5846 158.055 97.3269 157.56 96.9831C156.57 96.2969 156.147 95.2711 156.105 95.1667C156.102 95.1574 156.1 95.1511 156.099 95.1394C156.083 95.0271 155.911 93.7338 156.223 92.2663C156.535 90.7977 157.332 89.1467 159.26 88.3386ZM166.634 95.1462C166.632 96.9325 166.068 98.317 164.972 99.5828C163.878 100.846 162.253 101.99 160.131 103.302C160.086 103.329 160.108 103.396 160.156 103.396H163.425C163.434 103.396 163.443 103.393 163.451 103.388C167.215 101.017 168.79 97.8171 168.621 94.0984C168.537 92.2476 167.178 90.4241 165.348 89.2654C163.518 88.107 161.23 87.6222 159.299 88.4314C157.412 89.222 156.628 90.8361 156.32 92.2869C156.012 93.7382 156.182 95.0188 156.197 95.1257C156.197 95.1257 156.197 95.1276 156.198 95.1296C156.237 95.2283 156.652 96.231 157.616 96.9001C158.097 97.234 158.716 97.4853 159.495 97.4997C160.275 97.5141 161.218 97.2915 162.349 96.6726C162.36 96.6661 162.37 96.6541 162.373 96.6423C162.53 96.0962 162.527 95.678 162.43 95.362C162.332 95.0471 162.139 94.8294 161.904 94.6843C161.893 94.6771 161.877 94.6751 161.861 94.6814C160.981 95.0451 160.104 95.0815 159.425 94.8054C158.743 94.5282 158.267 93.9379 158.187 93.0642C158.113 92.2595 158.385 91.6883 158.874 91.2722C159.36 90.8589 160.058 90.6007 160.833 90.4119C162.252 90.0661 163.509 90.344 164.508 91.1609C165.505 91.9765 166.24 93.3256 166.63 95.114C166.632 95.1245 166.634 95.1355 166.634 95.1462Z" fill="#DA4F15"/>
<path d="M137.938 97.3069C137.43 99.266 132.197 99.313 126.251 97.4121C120.305 95.5111 115.897 92.3819 116.405 90.4228C116.914 88.4637 122.146 88.4166 128.093 90.3176C134.039 92.2186 138.447 95.3478 137.938 97.3069Z" fill="#F46334"/>
<path d="M124.979 85.5656C130.233 83.9382 134.875 84.1334 135.347 86.0016C135.82 87.8697 131.943 90.7034 126.689 92.3308C121.435 93.9582 116.793 93.763 116.32 91.8949C115.848 90.0267 119.725 87.193 124.979 85.5656Z" fill="#ED592D"/>
<path d="M126.689 83.1759C132.065 81.5109 136.843 81.8263 137.362 83.8802C137.881 85.9342 133.944 88.9489 128.569 90.6138C123.194 92.2787 118.415 91.9634 117.896 89.9095C117.377 87.8555 121.314 84.8408 126.689 83.1759Z" fill="#F46334"/>
<path d="M60.8593 106.044C58.8451 102.206 59.2668 101.216 60.5872 99.8784L70.3787 106.628C73.6326 108.576 77.3968 108.145 78.8973 107.523C80.3978 106.901 83.0198 105.583 88.1423 101.324C93.2177 97.7461 96.2605 96.1069 102.394 94.4907C107.092 93.248 109.952 93.2037 115.164 93.5212C116.711 93.449 117.495 93.1618 118.665 91.9672C119.442 95.2849 119.718 97.0539 118.189 99.0609C120.186 103.43 119.997 105.529 116.218 108.318C116.119 112.368 114.765 113.371 109.973 112.965C106.719 117.281 104.681 117.089 100.966 115.772L93.2165 119.807C89.6459 122.254 87.9487 122.196 85.2052 120.76C80.7473 124.602 78.7609 124.36 75.6913 121.718C70.9949 123.127 69.6154 122.252 68.9172 118.35C65.5547 119.147 64.1656 118.582 63.3921 114.053C59.7964 111.928 59.6253 110.028 60.8593 106.044Z" fill="#FDE8CB"/>
<path d="M119.151 91.8532C119.537 93.5023 119.819 94.8355 119.792 96.017C119.767 97.1426 119.463 98.1216 118.762 99.1222C119.684 101.191 120.149 102.855 119.86 104.375C119.565 105.928 118.511 107.21 116.709 108.574C116.636 110.489 116.26 111.891 115.153 112.714C114.079 113.512 112.45 113.652 110.205 113.482C108.626 115.529 107.258 116.612 105.757 116.967C104.275 117.318 102.769 116.929 101.006 116.313L93.4737 120.236C91.6793 121.463 90.2831 122.115 88.9465 122.238C87.6876 122.354 86.5523 121.993 85.2754 121.355C83.1613 123.141 81.5119 124.073 79.9591 124.17C78.3874 124.268 77.0435 123.506 75.5725 122.273C74.4966 122.584 73.5752 122.779 72.7844 122.833C71.9283 122.892 71.1925 122.791 70.5741 122.469C69.4347 121.876 68.878 120.64 68.5237 118.948C67.0721 119.248 65.8508 119.279 64.8965 118.608C63.8836 117.896 63.3245 116.499 62.9391 114.363C61.2189 113.314 60.2065 112.249 59.8321 110.877C59.465 109.532 59.7462 107.995 60.3231 106.094C59.3803 104.27 58.9519 103.014 58.9728 102.013C58.9957 100.92 59.5491 100.219 60.2317 99.5274L60.5256 99.2285L70.6468 106.206C72.1837 107.123 73.8478 107.484 75.3146 107.539C76.7922 107.595 78.0341 107.34 78.7056 107.062C80.1473 106.464 82.7271 105.176 87.8228 100.94L87.8383 100.927L87.8539 100.915C92.6468 97.5366 95.6681 95.8579 101.138 94.3145L102.267 94.0068C107.025 92.7484 109.941 92.7028 115.157 93.0195C115.898 92.984 116.407 92.8998 116.858 92.7059C117.311 92.5115 117.747 92.1905 118.308 91.6179L118.944 90.9672L119.151 91.8532ZM118.368 92.9243C118.003 93.2268 117.644 93.4567 117.253 93.6245C116.637 93.8894 115.984 93.9832 115.187 94.0204L115.161 94.0214L115.134 94.0206C109.95 93.7048 107.149 93.75 102.523 94.9737L102.522 94.9747C96.4635 96.571 93.474 98.1775 88.4446 101.722C83.3065 105.992 80.6463 107.34 79.0887 107.985C78.2596 108.329 76.8689 108.599 75.2762 108.538C73.676 108.478 71.8352 108.083 70.1215 107.057L70.1078 107.049L70.0951 107.04L60.6571 100.534C60.2102 101.034 59.9851 101.452 59.9729 102.034C59.9571 102.79 60.2968 103.897 61.3016 105.812L61.398 105.995L61.3372 106.193C60.7205 108.183 60.5008 109.529 60.797 110.614C61.0665 111.601 61.7936 112.47 63.3284 113.429L63.6465 113.622L63.8461 113.74L63.885 113.969C64.272 116.235 64.7914 117.312 65.4717 117.79C66.1365 118.258 67.1162 118.264 68.8021 117.864L69.3163 117.742L69.409 118.262C69.7576 120.21 70.2484 121.172 71.0359 121.582C71.4367 121.79 71.9702 121.888 72.7155 121.837C73.4625 121.785 74.3886 121.587 75.5474 121.24L75.8098 121.161L76.0175 121.34C77.5341 122.645 78.667 123.249 79.897 123.172C81.1572 123.093 82.6583 122.294 84.8784 120.381L85.1364 120.159L85.4368 120.318C86.7785 121.02 87.785 121.341 88.8551 121.242C89.9393 121.142 91.1696 120.604 92.9336 119.395L92.9589 119.377L92.9852 119.364L100.736 115.329L100.929 115.227L101.133 115.301C102.996 115.961 104.305 116.284 105.527 115.995C106.736 115.709 107.969 114.792 109.574 112.664L109.74 112.444L110.015 112.467C112.42 112.671 113.774 112.493 114.557 111.911C115.304 111.356 115.669 110.315 115.718 108.306L115.724 108.062L115.921 107.916C117.778 106.546 118.644 105.421 118.878 104.189C119.117 102.936 118.728 101.444 117.734 99.2684L117.61 98.9963L117.791 98.7574C118.493 97.836 118.769 96.9939 118.792 95.9941C118.811 95.1426 118.644 94.1722 118.368 92.9243Z" fill="#FDE8CB"/>
<path d="M66.4947 107.156C67.9773 108.262 68.7727 109.995 68.2714 111.028C67.7701 112.061 66.1618 112.002 64.6793 110.896C63.1967 109.791 62.4013 108.058 62.9026 107.025C63.4039 105.992 65.0121 106.051 66.4947 107.156Z" fill="#FFF3E2"/>
<path d="M75.9736 114.276C75.8433 115.289 74.633 115.889 73.2701 115.618C71.9073 115.346 70.9081 114.306 71.0384 113.293C71.1686 112.281 72.379 111.68 73.7418 111.952C75.1046 112.223 76.1038 113.264 75.9736 114.276Z" fill="#FFF3E2"/>
<path d="M83.0581 118.996C82.8628 119.992 81.5445 120.449 80.1138 120.016C78.683 119.583 77.6815 118.424 77.8769 117.428C78.0723 116.432 79.3906 115.976 80.8213 116.409C82.2521 116.842 83.2535 118 83.0581 118.996Z" fill="#FFF3E2"/>
<path d="M84.7906 110.223C85.2222 111.353 84.5611 112.859 83.3139 113.588C82.0667 114.317 80.7058 113.993 80.2742 112.864C79.8426 111.734 80.5037 110.228 81.7509 109.499C82.9981 108.769 84.359 109.094 84.7906 110.223Z" fill="#FFF3E2"/>
<path d="M90.9115 112.618C91.5432 113.524 91.155 115.221 90.0444 116.407C88.9337 117.594 87.5213 117.821 86.8896 116.915C86.2579 116.009 86.6462 114.312 87.7568 113.126C88.8674 111.939 90.2798 111.712 90.9115 112.618Z" fill="#FFF3E2"/>
<path d="M92.4889 103.443C92.9759 104.261 92.4447 105.768 91.3024 106.811C90.1602 107.853 88.8394 108.036 88.3524 107.218C87.8655 106.401 88.3967 104.893 89.5389 103.851C90.6812 102.808 92.002 102.626 92.4889 103.443Z" fill="#FFF3E2"/>
<path d="M109.203 109.219C108.989 110.302 107.621 110.816 106.146 110.366C104.671 109.917 103.649 108.675 103.863 107.593C104.077 106.51 105.446 105.996 106.92 106.445C108.395 106.895 109.417 108.136 109.203 109.219Z" fill="#FFEEDF"/>
<path d="M110.527 97.4816C111.086 98.4587 110.626 100.05 109.5 101.036C108.374 102.022 107.009 102.029 106.45 101.052C105.891 100.075 106.351 98.4834 107.477 97.4975C108.603 96.5116 109.969 96.5045 110.527 97.4816Z" fill="#FFF1DF"/>
<path d="M115.306 105.188C114.615 106.666 113.382 107.381 112.553 106.785C111.724 106.188 111.612 104.507 112.304 103.03C112.995 101.552 114.228 100.838 115.057 101.434C115.886 102.03 115.998 103.711 115.306 105.188Z" fill="#FFEEDF"/>
<path d="M65.2556 92.6123C62.7171 91.3619 61.2338 91.4487 58.5131 93.7437C60.4185 86.1256 63.6421 82.1277 74.6912 75.684C81.8443 73.6207 85.8928 73.0276 93.1727 73.1268C101.732 73.9248 106.377 75.4713 114.192 81.6398L114.352 81.7942C117.473 84.8157 119.271 86.5558 120.469 90.2041C120.817 92.3737 120.173 93.1728 117.984 94.0904C112.618 91.0689 109.358 90.6862 103.233 91.649L95.7416 93.06C90.7511 94.4307 87.826 96.1988 82.2798 101.97C76.9177 106.418 75.4234 106.929 74.0488 106.153L72.2802 100.62C69.9728 96.5947 68.3869 94.9418 65.2556 92.6123Z" fill="#FF8D5F"/>
<path d="M93.1792 72.6274L93.1998 72.6273L93.2193 72.6292C97.5191 73.03 100.873 73.6215 104.144 74.9036C107.211 76.1055 110.178 77.9036 113.774 80.6787L114.502 81.2474L114.521 81.263L114.54 81.2805L114.7 81.4352C117.623 84.2649 119.464 86.0379 120.704 89.3616L120.944 90.0483L120.957 90.0863L120.963 90.1253C121.144 91.2551 121.089 92.1521 120.593 92.8942C120.113 93.6131 119.28 94.089 118.177 94.5511L117.951 94.6456L117.739 94.5263C115.086 93.0325 112.987 92.2103 110.815 91.8697C108.639 91.5285 106.353 91.6646 103.31 92.1429L103.309 92.142L95.8495 93.5479C93.3994 94.2224 91.4783 94.9895 89.4919 96.2839C87.4907 97.588 85.4034 99.4411 82.64 102.317L82.6206 102.337L82.5992 102.355C79.9213 104.576 78.1638 105.855 76.8861 106.471C76.2407 106.783 75.6848 106.942 75.1709 106.952C74.646 106.963 74.2073 106.817 73.8034 106.589L73.6322 106.493L73.573 106.305L71.8193 100.821C70.6873 98.8506 69.7404 97.4755 68.7038 96.3124C67.6671 95.1493 66.5264 94.1831 64.9911 93.0392C63.7753 92.4451 62.8926 92.2151 62.0257 92.3435C61.1377 92.4751 60.1749 92.9964 58.8357 94.1261L57.6527 95.1234L58.0283 93.6221C58.994 89.7612 60.3052 86.7773 62.798 83.9433C65.2775 81.1243 68.9022 78.4814 74.4393 75.2523L74.4929 75.2208L74.5524 75.204C81.7492 73.1281 85.8468 72.5275 93.1792 72.6274ZM93.1417 73.6255C85.9502 73.529 81.9536 74.1118 74.8897 76.1462C69.4084 79.3463 65.9116 81.917 63.5483 84.6038C61.4982 86.9346 60.2834 89.3743 59.3835 92.4416C60.2627 91.8374 61.0642 91.4745 61.8797 91.3538C63.0587 91.1792 64.1764 91.5232 65.4763 92.1635L65.5174 92.1839L65.5536 92.2111C67.1322 93.3854 68.3423 94.4043 69.4505 95.6477C70.4196 96.735 71.3004 97.9826 72.2848 99.6369L72.7142 100.372L72.7407 100.418L72.7565 100.468L74.4608 105.801C74.6843 105.904 74.9023 105.958 75.1508 105.953C75.4711 105.947 75.8814 105.846 76.4512 105.571C77.6016 105.015 79.2666 103.819 81.9373 101.604C84.7111 98.7192 86.8552 96.8084 88.946 95.446C91.0497 94.0751 93.0801 93.2725 95.6088 92.578L95.6293 92.5721L95.6488 92.5691L103.14 91.1572L103.148 91.1562L103.155 91.1552C106.237 90.6706 108.643 90.5171 110.97 90.8819C113.238 91.2375 115.396 92.0806 118.01 93.5331C118.956 93.1184 119.48 92.7601 119.761 92.3395C120.044 91.9156 120.138 91.3373 119.98 90.3212C118.825 86.8298 117.117 85.1665 114.004 82.1535L113.861 82.0153C109.985 78.9577 106.919 77.0651 103.779 75.8346C100.638 74.6033 97.3938 74.0226 93.1417 73.6255Z" fill="#FF8D5F"/>
<path d="M84.4146 99.604C80.0359 104.314 77.5807 106.069 73.861 106.758C73.3996 106.843 73.0533 107.238 73.0549 107.707C73.0567 108.218 73.468 108.636 73.9788 108.629C77.213 108.583 79.0521 107.941 81.9074 106.278L82.0751 106.166C86.2334 103.394 88.6223 101.801 95.2914 98.1172C104.713 94.2667 114.257 93.9946 117.8 93.9816C121.343 93.9687 109.947 91.6907 109.947 91.6907C104.662 91.0055 101.427 91.3234 95.273 92.901C90.9659 94.4623 88.5825 95.8092 84.4146 99.604Z" fill="#FA7041"/>
<path d="M95.1488 92.4165C100.96 90.9268 104.224 90.545 109.029 91.0761L110.011 91.1948L110.028 91.1967L110.045 91.2005L110.047 91.2005C110.048 91.2008 110.051 91.2019 110.054 91.2025C110.059 91.2036 110.068 91.2051 110.078 91.2073C110.1 91.2116 110.132 91.2181 110.173 91.2265C110.256 91.2432 110.377 91.2672 110.53 91.2985C110.835 91.3609 111.268 91.4506 111.776 91.5578C112.79 91.7719 114.109 92.0583 115.318 92.3452C116.515 92.6295 117.639 92.9218 118.244 93.1505C118.394 93.2069 118.541 93.2701 118.654 93.3405C118.706 93.3729 118.79 93.4298 118.859 93.5165C118.93 93.6064 119.05 93.8216 118.939 94.0778C118.851 94.2804 118.675 94.3597 118.614 94.3845C118.532 94.4181 118.445 94.4365 118.373 94.4479C118.224 94.4712 118.031 94.4813 117.802 94.4821C114.28 94.4949 104.828 94.7666 95.5044 98.5706C88.8731 102.235 86.4977 103.819 82.3528 106.582L82.1842 106.694L82.1726 106.702L82.1589 106.71C80.7168 107.55 79.5055 108.148 78.2317 108.538C76.9543 108.929 75.6366 109.105 73.9857 109.129C73.1869 109.14 72.5577 108.488 72.5549 107.709C72.5524 106.984 73.0847 106.392 73.7696 106.266C77.3262 105.607 79.6895 103.953 84.0488 99.2639L84.0624 99.2482L84.0779 99.2345C88.2926 95.3971 90.7325 94.0156 95.1029 92.4313L95.1253 92.4225L95.1488 92.4165ZM73.5549 107.706C73.5558 107.948 73.7489 108.132 73.9715 108.129C75.5546 108.106 76.7739 107.939 77.9383 107.582C79.1043 107.225 80.2377 106.67 81.6471 105.849L81.7981 105.75C85.9635 102.973 88.3644 101.373 95.0491 97.6796L95.0754 97.6658L95.1017 97.654C103.241 94.3278 111.461 93.6491 115.895 93.5141C115.636 93.4496 115.365 93.3839 115.087 93.3177C113.89 93.0336 112.58 92.7494 111.569 92.536C111.064 92.4294 110.633 92.3408 110.329 92.2786C110.177 92.2477 110.057 92.2232 109.975 92.2066C109.934 92.1983 109.902 92.1917 109.88 92.1874C109.875 92.1863 109.87 92.1844 109.866 92.1836C104.676 91.5124 101.508 91.8197 95.4227 93.3785C91.1976 94.9115 88.8714 96.2238 84.767 99.9586C80.3772 104.679 77.8306 106.531 73.9518 107.249C73.7141 107.293 73.5542 107.492 73.5549 107.706Z" fill="#FA7041"/>
<path d="M68.0066 94.4178C72.0312 99.0561 73.4678 102.152 73.9712 107.187C74.0532 108.007 73.143 108.528 72.4586 108.069L63.0893 101.782C57.5118 97.6879 57.7793 96.1815 58.3956 93.6633C58.4334 93.5085 58.5081 93.3634 58.6151 93.2454C60.901 90.7234 62.9218 90.831 67.8242 94.2537C67.8904 94.2999 67.9536 94.3567 68.0066 94.4178Z" fill="#FFB897"/>
<path d="M58.2449 92.9096C59.4438 91.587 60.6645 90.8611 62.2881 91.0225C63.8342 91.1762 65.6603 92.1333 68.1106 93.844C68.2103 93.9136 68.3039 93.998 68.3839 94.0901C70.4114 96.4268 71.8101 98.4001 72.7627 100.442C73.7176 102.489 74.2132 104.58 74.4689 107.137C74.5952 108.401 73.196 109.166 72.1796 108.484L62.8108 102.197L62.802 102.192L62.7932 102.185C59.9998 100.134 58.5769 98.6696 57.9656 97.3403C57.3325 95.9634 57.6033 94.7988 57.9102 93.5446C57.9667 93.3136 58.079 93.0926 58.2449 92.9096ZM62.1891 92.0179C61.0053 91.9003 60.0724 92.3818 58.9855 93.5809C58.9374 93.634 58.9 93.7039 58.8808 93.7824C58.5716 95.0461 58.401 95.8939 58.8743 96.9231C59.3696 98 60.6015 99.3357 63.3851 101.379L72.7373 107.654C73.0897 107.891 73.5117 107.613 73.4741 107.237C73.2263 104.759 72.7513 102.784 71.856 100.865C70.9583 98.9409 69.6264 97.0467 67.6293 94.7451C67.6035 94.7153 67.5709 94.6862 67.5382 94.6634C65.0863 92.9515 63.4504 92.1433 62.1891 92.0179Z" fill="#FFB897"/>
<path d="M63.4753 83.7394L61.4861 86.5161C65.7171 85.9406 67.4829 86.4952 69.4867 87.8731C71.4906 89.251 75.083 93.3415 76.5181 97.8197C77.5477 97.9113 77.8666 97.7099 77.7636 96.7074C75.9795 92.2043 74.4733 89.8534 70.7293 85.9299C68.4169 84.166 66.7267 83.8644 63.4753 83.7394Z" fill="#FA7341"/>
<path d="M63.4941 83.2394C65.1246 83.302 66.4104 83.4105 67.5886 83.7388C68.6304 84.029 69.57 84.4858 70.5899 85.2068L71.0325 85.5324L71.0638 85.5567L71.0912 85.585C74.8761 89.5512 76.4189 91.9559 78.2284 96.523L78.254 96.5874L78.2611 96.6567C78.3124 97.1568 78.2984 97.711 77.8871 98.0565C77.6888 98.223 77.4505 98.2931 77.224 98.3215C76.9984 98.3497 76.7439 98.3413 76.4739 98.3173L76.1428 98.2881L76.0421 97.9721C75.3464 95.8014 74.1215 93.709 72.8169 91.9852C71.5091 90.2573 70.147 88.9339 69.2033 88.2849C68.2371 87.6206 67.3584 87.1742 66.2259 86.9525C65.0815 86.7285 63.6431 86.7275 61.5532 87.0118L60.4044 87.1681L63.2255 83.2296L63.4941 83.2394ZM62.5493 85.8901C64.1283 85.7366 65.3605 85.7644 66.4178 85.9714C67.7265 86.2276 68.7324 86.7474 69.7697 87.4607C70.8298 88.1896 72.2665 89.6007 73.6146 91.3819C74.9015 93.0822 76.1305 95.152 76.8836 97.3383C76.9694 97.3391 77.0405 97.3371 77.0994 97.3297C77.2058 97.3164 77.2396 97.2941 77.2438 97.2911C77.2253 97.3069 77.3076 97.2631 77.2705 96.8233C75.5283 92.4406 74.0586 90.1477 70.3955 86.3052C69.2926 85.4681 68.3564 84.9903 67.3205 84.7016C66.3217 84.4233 65.2088 84.3141 63.7232 84.2503L62.5493 85.8901Z" fill="#F96C3D"/>
<path d="M72.1992 77.615L69.4565 79.2864C77.296 80.5294 80.5475 83.6451 84.2494 93.6375C85.3513 94.1225 85.6915 93.5108 86.2435 92.2456C81.6221 80.8634 78.342 79.0103 72.1992 77.615Z" fill="#FC7848"/>
<path d="M72.3103 77.1273C75.4102 77.8314 77.8729 78.6686 80.1368 80.8227C82.3819 82.9589 84.3893 86.35 86.7066 92.0576L86.7864 92.2527L86.7021 92.4454C86.5644 92.7611 86.4309 93.057 86.2911 93.3081C86.1524 93.5572 85.9889 93.7958 85.7778 93.9769C85.5547 94.1683 85.2876 94.2875 84.9714 94.302C84.6704 94.3157 84.3619 94.2335 84.0478 94.0952L83.8541 94.01L83.7802 93.811C81.9349 88.8302 80.228 85.6418 78.0565 83.5399C75.9026 81.455 73.2425 80.3928 69.3782 79.7801L68.0347 79.567L71.9394 77.1881L72.1119 77.0821L72.3103 77.1273ZM70.8423 79.0269C74.1555 79.6913 76.6617 80.7981 78.7522 82.8216C81.0584 85.054 82.8098 88.3568 84.6376 93.2504C84.7699 93.2937 84.8622 93.306 84.9258 93.3031C85.0001 93.2997 85.0583 93.2771 85.1267 93.2184C85.2075 93.1491 85.3025 93.0281 85.4173 92.8219C85.507 92.6608 85.596 92.4668 85.6985 92.2369C83.4296 86.6846 81.5086 83.5093 79.447 81.5477C77.4243 79.6232 75.2277 78.8287 72.2836 78.1479L70.8423 79.0269Z" fill="#F96F3F"/>
<path d="M101.675 75.0204L97.4226 73.6503C101.474 78.348 103.53 81.1158 104.967 87.4727C106.306 88.0051 106.55 87.475 106.712 86.0818C105.341 81.5798 104.146 79.1879 101.675 75.0204Z" fill="#FB7C4A"/>
<path d="M101.828 74.5441L102.009 74.6021L102.105 74.7658C104.589 78.956 105.804 81.385 107.19 85.9357L107.22 86.0362L107.208 86.1397C107.167 86.4926 107.118 86.8193 107.04 87.0964C106.964 87.3691 106.846 87.6488 106.629 87.8585C106.139 88.3317 105.455 88.2047 104.782 87.9372L104.538 87.8404L104.479 87.5828C103.769 84.4427 102.912 82.2111 101.743 80.19C100.568 78.1608 99.0692 76.3252 97.0439 73.9768L95.8809 72.6283L101.828 74.5441ZM98.9438 74.6655C100.426 76.4301 101.624 77.9879 102.608 79.6889C103.804 81.7556 104.676 84.0157 105.392 87.0943C105.846 87.2407 105.928 87.1464 105.934 87.1403C105.965 87.1099 106.021 87.0286 106.077 86.8273C106.127 86.6494 106.165 86.4187 106.201 86.1237C104.876 81.7955 103.712 79.4506 101.339 75.4375L98.9438 74.6655Z" fill="#FA7344"/>
<path d="M92.1185 72.5637L83.6392 73.1544C83.5524 73.1605 83.516 73.2684 83.5788 73.3285C90.2943 79.7487 93.0327 83.9998 94.9934 93.1151C94.9947 93.1209 94.9954 93.1272 94.9956 93.1332C95.3254 103.633 95.3747 109.538 93.111 119.973C93.0988 120.03 93.1374 120.087 93.1947 120.095C95.7747 120.454 97.4125 119.867 100.555 117.47C100.575 117.454 100.589 117.431 100.593 117.406C101.562 111.517 101.908 108.216 102.286 102.371C102.749 96.1678 102.464 92.9332 100.982 87.5975C98.6956 81.2103 96.6102 77.9922 92.2032 72.6007C92.1827 72.5756 92.1508 72.5615 92.1185 72.5637Z" fill="#67412C"/>
<path d="M92.1571 72.0641C92.3031 72.0718 92.4397 72.1327 92.5424 72.2317L92.5905 72.2843L93.3947 73.2776C97.0286 77.8048 99.0119 80.9373 101.021 86.255L101.453 87.4292L101.459 87.4458L101.464 87.4634C102.963 92.8609 103.252 96.1544 102.784 102.408C102.406 108.264 102.058 111.582 101.086 117.487C101.061 117.639 100.979 117.775 100.858 117.867C99.2765 119.074 98.0311 119.858 96.8316 120.286C95.6139 120.721 94.475 120.778 93.1256 120.59C92.7733 120.541 92.5497 120.201 92.6221 119.867L92.8267 118.908C94.8676 109.132 94.8141 103.32 94.496 93.183C93.5242 88.6766 92.3664 85.4005 90.638 82.465C88.903 79.5182 86.5775 76.8873 83.233 73.6899C82.8755 73.348 83.0586 72.6935 83.6044 72.6554L92.0838 72.0653L92.1571 72.0641ZM84.5706 73.5905C87.6055 76.5439 89.8147 79.0939 91.5005 81.9571C93.3055 85.0228 94.4955 88.4201 95.4827 93.0097C95.4903 93.0447 95.4946 93.081 95.4958 93.117L95.6017 96.8638C95.7984 105.06 95.5969 110.716 93.6907 119.65C94.7249 119.752 95.5868 119.67 96.4962 119.345C97.5176 118.981 98.628 118.299 100.124 117.166C101.07 111.395 101.414 108.117 101.787 102.339L101.787 102.334C102.246 96.1894 101.964 93.0133 100.505 87.7519C98.2672 81.5044 96.2341 78.3372 91.9448 73.0766L84.5706 73.5905Z" fill="#67412C"/>
</svg>
