<svg width="200" height="200" viewBox="0 0 200 200" fill="none" xmlns="http://www.w3.org/2000/svg">
<path d="M173.307 126.368L173.817 117.226C173.821 117.153 173.747 117.1 173.679 117.128L161.465 122.195C161.393 122.225 161.381 122.32 161.442 122.367L168.063 127.437C168.079 127.449 168.098 127.456 168.118 127.458C170.568 127.623 171.766 127.472 173.264 126.445C173.289 126.427 173.305 126.399 173.307 126.368Z" fill="#673D19" stroke="#673D19" stroke-width="3" stroke-linecap="round" stroke-linejoin="round"/>
<path d="M94.5218 162.21V154.584C94.5218 154.522 94.4658 154.475 94.4045 154.485L76.9973 157.544C76.9131 157.558 76.8851 157.665 76.9512 157.719L85.6295 164.834C85.6444 164.847 85.6629 164.854 85.682 164.856C89.6291 165.304 91.5801 164.771 94.4864 162.286C94.5086 162.267 94.5218 162.239 94.5218 162.21Z" fill="#673D19" stroke="#673D19" stroke-width="3" stroke-linecap="round" stroke-linejoin="round"/>
<path d="M78.9625 143.286L12.7071 88.1551C11.5139 87.1622 11.8555 85.2498 13.322 84.7413C47.6516 72.8368 110.78 53.6992 113.304 53.6987C115.805 53.6982 160.168 78.1953 186.665 93.7977C188.067 94.6234 187.929 96.6798 186.439 97.3337L81.0454 143.58C80.3515 143.884 79.545 143.771 78.9625 143.286Z" fill="#935729" stroke="#935729" stroke-width="5" stroke-linecap="round" stroke-linejoin="round"/>
<path d="M10 97.4668V86.1253C10 86.039 10.102 85.9932 10.1665 86.0506L78.3498 146.76C78.9461 147.291 79.8011 147.416 80.5247 147.079L189.336 96.3569C189.402 96.326 189.478 96.3744 189.478 96.4475V106.964C189.478 107.741 189.028 108.447 188.324 108.776L80.5205 159.104C79.799 159.441 78.9464 159.318 78.3499 158.79L10.6754 98.9653C10.2459 98.5856 10 98.04 10 97.4668Z" fill="#7C4B20" stroke="#7C4B20" stroke-width="3" stroke-linecap="round" stroke-linejoin="round"/>
<ellipse cx="11.3032" cy="3.6648" rx="11.3032" ry="3.6648" transform="matrix(0.952515 0.304521 -0.251246 0.967915 81.8479 59.8657)" fill="#F46334"/>
<ellipse cx="3.48891" cy="9.95947" rx="3.48891" ry="9.95947" transform="matrix(-0.24501 -0.969528 0.955221 -0.295863 81.697 68.2676)" fill="#ED592D"/>
<ellipse cx="3.83586" cy="10.1892" rx="3.83586" ry="10.1892" transform="matrix(-0.24501 -0.969528 0.955221 -0.295863 83.3579 66.6187)" fill="#F46334"/>
<path d="M25.3811 79.0348C23.3668 75.1962 23.7885 74.2067 25.1089 72.8688L34.9004 79.6183C38.1543 81.5662 41.9185 81.1356 43.419 80.5137C44.9195 79.8917 47.5416 78.5731 52.6641 74.3145C57.7394 70.7365 60.7822 69.0973 66.916 67.4811C71.6139 66.2384 74.4737 66.1941 79.6858 66.5116C81.2326 66.4394 82.0169 66.1522 83.1867 64.9576C83.9633 68.2753 84.24 70.0443 82.7107 72.0513C84.7073 76.4207 84.5183 78.5196 80.7396 81.3086C80.6403 85.3581 79.287 86.3612 74.4946 85.9556C71.2404 90.2718 69.2027 90.0795 65.4881 88.7622L57.7382 92.7977C54.1676 95.2445 52.4704 95.1865 49.727 93.7507C45.2691 97.5923 43.2827 97.3507 40.213 94.7089C35.5167 96.1172 34.1371 95.2421 33.4389 91.3407C30.0764 92.1378 28.6873 91.5728 27.9138 87.043C24.3181 84.9184 24.147 83.0184 25.3811 79.0348Z" fill="#FDE8CB" stroke="#FDE8CB"/>
<ellipse cx="2.07866" cy="3.34842" rx="2.07866" ry="3.34842" transform="matrix(0.436681 -0.899603 0.801696 0.597756 26.5166 81.8853)" fill="#FFF3E2"/>
<ellipse cx="2.51605" cy="1.84813" rx="2.51605" ry="1.84813" transform="matrix(0.980747 0.195312 -0.127598 0.991822 35.7961 84.4507)" fill="#FFF3E2"/>
<ellipse cx="2.70661" cy="1.83785" rx="2.70661" ry="1.83785" transform="matrix(0.95714 0.289655 -0.192499 0.981291 42.7524 88.6152)" fill="#FFF3E2"/>
<ellipse cx="2.61585" cy="2.18903" rx="2.61585" ry="2.18903" transform="matrix(0.86329 -0.504681 0.357 0.934115 44.0144 83.8091)" fill="#FFF3E2"/>
<ellipse cx="2.9429" cy="2.00016" rx="2.9429" ry="2.00016" transform="matrix(0.683318 -0.7301 0.571847 0.820378 50.2676 88.2646)" fill="#FFF3E2"/>
<ellipse cx="2.80018" cy="1.72285" rx="2.80018" ry="1.72285" transform="matrix(0.738611 -0.674109 0.511792 0.859125 51.9924 78.7285)" fill="#FFF3E2"/>
<ellipse cx="2.79107" cy="1.9983" rx="2.79107" ry="1.9983" transform="matrix(0.956616 0.291381 -0.193714 0.981052 68.772 78.6226)" fill="#FFEEDF"/>
<ellipse cx="2.70987" cy="2.03781" rx="2.70987" ry="2.03781" transform="matrix(0.75234 -0.658752 0.496255 0.868192 69.9604 72.2729)" fill="#FFF1DF"/>
<ellipse cx="1.84896" cy="2.95393" rx="1.84896" ry="2.95393" transform="matrix(0.811953 0.583748 -0.423865 0.905712 78.0776 73.3447)" fill="#FFEEDF"/>
<path d="M29.7773 65.6027C27.2388 64.3523 25.7555 64.4391 23.0348 66.7341C24.9402 59.1159 28.1639 55.118 39.2129 48.6743C46.366 46.611 50.4145 46.018 57.6945 46.1172C66.254 46.9151 70.8991 48.4617 78.7136 54.6301L78.8732 54.7846C81.9952 57.806 83.7932 59.5462 84.9906 63.1944C85.3384 65.3641 84.6948 66.1632 82.5055 67.0807C77.1395 64.0592 73.8796 63.6765 67.7545 64.6394L60.2633 66.0504C55.2728 67.421 52.3477 69.1891 46.8015 74.9605C41.4395 79.4084 39.9452 79.9197 38.5705 79.1438L36.8019 73.6104C34.4946 69.585 32.9086 67.9321 29.7773 65.6027Z" fill="#FF8D5F" stroke="#FF8D5F"/>
<path d="M48.9363 72.5942C44.5577 77.3045 42.1024 79.0589 38.3827 79.7477C37.9213 79.8332 37.575 80.2284 37.5767 80.6976C37.5785 81.2085 37.9897 81.6264 38.5005 81.6191C41.7347 81.5729 43.5738 80.9313 46.4291 79.2681L46.5969 79.1562C50.7551 76.3841 53.144 74.7916 59.8131 71.1073C69.2351 67.2568 78.7788 66.9847 82.3218 66.9718C85.7529 66.9593 75.173 64.8224 74.5018 64.6875C74.4794 64.683 74.4568 64.6793 74.4342 64.6764C69.1697 63.9971 65.9351 64.317 59.7947 65.8912C55.4877 67.4524 53.1042 68.7994 48.9363 72.5942Z" fill="#FA7041" stroke="#FA7041"/>
<path d="M32.5283 67.408C36.5529 72.0463 37.9895 75.1421 38.493 80.1774C38.575 80.9975 37.6647 81.5186 36.9803 81.0594L27.6111 74.7723C22.0335 70.6781 22.3011 69.1717 22.9173 66.6534C22.9552 66.4987 23.0298 66.3536 23.1368 66.2356C25.4227 63.7136 27.4435 63.8212 32.3459 67.2439C32.4122 67.2901 32.4753 67.3469 32.5283 67.408Z" fill="#FFB897" stroke="#FFB897"/>
<path d="M27.997 56.7298L26.0078 59.5065C30.2388 58.931 32.0046 59.4856 34.0085 60.8635C36.0123 62.2414 39.6047 66.3319 41.0399 70.8101C42.0694 70.9017 42.3883 70.7003 42.2853 69.6978C40.5012 65.1947 38.995 62.8438 35.251 58.9204C32.9387 57.1564 31.2484 56.8548 27.997 56.7298Z" fill="#FA7341" stroke="#F96C3D"/>
<path d="M36.721 50.6052L33.9783 52.2766C41.8177 53.5196 45.0693 56.6353 48.7712 66.6277C49.873 67.1127 50.2132 66.501 50.7653 65.2358C46.1439 53.8536 42.8637 52.0005 36.721 50.6052Z" fill="#FC7848" stroke="#F96F3F"/>
<path d="M66.197 48.0107L61.9443 46.6406C65.9957 51.3383 68.0517 54.1061 69.4891 60.463C70.8279 60.9955 71.0718 60.4653 71.2333 59.0721C69.8623 54.5701 68.6676 52.1782 66.197 48.0107Z" fill="#FB7C4A" stroke="#FA7344"/>
<path d="M56.6403 45.5541L48.1609 46.1448C48.0742 46.1509 48.0377 46.2588 48.1006 46.3189C54.8161 52.7391 57.5545 56.9902 59.5152 66.1054C59.5165 66.1113 59.5172 66.1176 59.5174 66.1236C59.8472 76.6237 59.8965 82.5282 57.6328 92.9638C57.6205 93.0204 57.6592 93.0771 57.7165 93.0851C60.2965 93.444 61.9343 92.8576 65.0765 90.4601C65.0968 90.4447 65.1109 90.4212 65.1151 90.3961C66.0838 84.5076 66.4297 81.2062 66.8074 75.3617C67.2709 69.1582 66.9854 65.9235 65.5041 60.5879C63.2174 54.2006 61.132 50.9826 56.725 45.5911C56.7045 45.566 56.6726 45.5519 56.6403 45.5541Z" fill="#67412C" stroke="#67412C"/>
<path d="M94.6681 44.6028C94.3516 58.1533 94.6432 54.3551 94.6681 64.3405C94.693 74.3258 128.608 74.2285 128.581 64.3405C128.555 54.4524 128.632 56.6372 128.581 44.6028C128.53 32.5683 94.9846 31.0523 94.6681 44.6028Z" fill="#4B4928" stroke="#4B4928" stroke-linecap="round" stroke-linejoin="round"/>
<path d="M111.217 36.0889C115.244 36.0889 118.888 37.0177 121.523 38.5166C124.159 40.0163 125.776 42.0806 125.776 44.3496C125.776 46.6187 124.159 48.6829 121.523 50.1826C118.888 51.6815 115.244 52.6104 111.217 52.6104C107.19 52.6103 103.547 51.6814 100.912 50.1826C98.2761 48.6829 96.6584 46.6187 96.6584 44.3496C96.6585 42.0805 98.2761 40.0163 100.912 38.5166C103.547 37.0178 107.19 36.0889 111.217 36.0889Z" fill="#FCF1DB" stroke="black" stroke-width="0.1"/>
<path d="M111.218 40.2441C113.228 40.2442 115.045 40.7082 116.357 41.4551C117.672 42.2028 118.472 43.228 118.472 44.3496C118.472 45.4713 117.672 46.4964 116.357 47.2441C115.044 47.991 113.228 48.455 111.218 48.4551C109.208 48.4551 107.39 47.9911 106.077 47.2441C104.763 46.4964 103.963 45.4712 103.963 44.3496C103.963 43.228 104.763 42.2028 106.077 41.4551C107.39 40.7081 109.208 40.2441 111.218 40.2441Z" fill="#DC5016" stroke="#E25B1C" stroke-width="0.1"/>
<path d="M111.364 59.1462C111.047 72.6967 111.339 68.8985 111.364 78.8839C111.389 88.8693 145.303 88.7719 145.277 78.8839C145.25 68.9959 145.328 71.1807 145.277 59.1462C145.226 47.1118 111.68 45.5957 111.364 59.1462Z" fill="#4B4928" stroke="#4B4928" stroke-linecap="round" stroke-linejoin="round"/>
<path d="M127.913 50.6323C131.94 50.6323 135.584 51.5612 138.219 53.0601C140.855 54.5598 142.471 56.624 142.471 58.8931C142.471 61.1621 140.855 63.2264 138.219 64.7261C135.584 66.225 131.94 67.1538 127.913 67.1538C123.886 67.1538 120.243 66.2249 117.608 64.7261C114.972 63.2263 113.354 61.1622 113.354 58.8931C113.354 56.624 114.972 54.5598 117.608 53.0601C120.243 51.5612 123.886 50.6324 127.913 50.6323Z" fill="#FCF1DB" stroke="black" stroke-width="0.1"/>
<path d="M127.913 54.7876C129.923 54.7876 131.74 55.2517 133.053 55.9985C134.367 56.7463 135.167 57.7714 135.167 58.8931C135.167 60.0147 134.367 61.0398 133.053 61.7876C131.74 62.5345 129.923 62.9985 127.913 62.9985C125.903 62.9985 124.086 62.5345 122.773 61.7876C121.458 61.0398 120.658 60.0147 120.658 58.8931C120.658 57.7715 121.458 56.7463 122.773 55.9985C124.086 55.2516 125.903 54.7876 127.913 54.7876Z" fill="#DC5016" stroke="#E25B1C" stroke-width="0.1"/>
<path d="M131.19 72.6511C130.873 86.2016 131.165 82.4034 131.19 92.3888C131.215 102.374 165.129 102.277 165.103 92.3888C165.076 82.5008 165.154 84.6856 165.103 72.6511C165.052 60.6167 131.506 59.1006 131.19 72.6511Z" fill="#4B4928" stroke="#4B4928" stroke-linecap="round" stroke-linejoin="round"/>
<path d="M147.739 64.1367C151.766 64.1367 155.41 65.0656 158.044 66.5645C160.681 68.0642 162.297 70.1284 162.297 72.3975C162.297 74.6665 160.681 76.7307 158.044 78.2305C155.41 79.7294 151.766 80.6582 147.739 80.6582C143.712 80.6582 140.069 79.7293 137.434 78.2305C134.798 76.7307 133.18 74.6666 133.18 72.3975C133.18 70.1284 134.798 68.0642 137.434 66.5645C140.069 65.0656 143.712 64.1368 147.739 64.1367Z" fill="#FCF1DB" stroke="black" stroke-width="0.1"/>
<path d="M147.74 68.292C149.749 68.292 151.566 68.7561 152.879 69.5029C154.194 70.2507 154.993 71.2758 154.993 72.3975C154.993 73.5191 154.194 74.5442 152.879 75.292C151.566 76.0389 149.749 76.5029 147.74 76.5029C145.73 76.5029 143.912 76.0389 142.599 75.292C141.285 74.5442 140.485 73.5191 140.485 72.3975C140.485 71.2759 141.285 70.2507 142.599 69.5029C143.912 68.756 145.73 68.292 147.74 68.292Z" fill="#DC5016" stroke="#E25B1C" stroke-width="0.1"/>
<path d="M178.328 96.2907H163.876C161.695 96.2907 160.242 94.0355 161.145 92.0492L167.97 77.0364C169.01 74.7472 172.236 74.6772 173.375 76.919L181.003 91.9319C182.017 93.9276 180.567 96.2907 178.328 96.2907Z" fill="#9A9C41" stroke="#9A9B43" stroke-width="0.1" stroke-linecap="round" stroke-linejoin="round"/>
<ellipse cx="161.826" cy="94.2132" rx="10.9565" ry="9.34943" fill="#ED7323"/>
<path d="M163.425 103.446H160.156C160.055 103.446 160.019 103.312 160.105 103.259C164.349 100.637 166.579 98.6933 166.584 95.146C166.584 95.1388 166.583 95.1315 166.581 95.1245C165.806 91.5612 163.655 89.7756 160.845 90.4604C159.299 90.8372 158.091 91.4819 158.236 93.0596C158.393 94.7704 160.098 95.355 161.842 94.635C161.871 94.6231 161.904 94.6246 161.931 94.6411C162.418 94.9427 162.739 95.5509 162.421 96.6563C162.414 96.6815 162.396 96.7037 162.373 96.7163C157.828 99.2045 156.232 95.351 156.152 95.1481C156.149 95.1415 156.149 95.1393 156.148 95.1323C156.117 94.9139 155.465 89.9836 159.279 88.3849C163.181 86.7499 168.501 90.3504 168.671 94.0963C168.84 97.8341 167.256 101.05 163.478 103.43C163.462 103.44 163.443 103.446 163.425 103.446Z" fill="#DD5415" stroke="#DA4F15" stroke-width="0.1" stroke-linecap="round" stroke-linejoin="round"/>
<ellipse cx="11.3032" cy="3.6648" rx="11.3032" ry="3.6648" transform="matrix(0.952515 0.304521 -0.251246 0.967915 117.326 86.8755)" fill="#F46334"/>
<ellipse cx="3.48891" cy="9.95947" rx="3.48891" ry="9.95947" transform="matrix(-0.24501 -0.969528 0.955221 -0.295863 117.175 95.2773)" fill="#ED592D"/>
<ellipse cx="3.83586" cy="10.1892" rx="3.83586" ry="10.1892" transform="matrix(-0.24501 -0.969528 0.955221 -0.295863 118.836 93.6284)" fill="#F46334"/>
<path d="M60.8593 106.044C58.8451 102.206 59.2668 101.216 60.5872 99.8781L70.3787 106.628C73.6326 108.575 77.3968 108.145 78.8973 107.523C80.3978 106.901 83.0198 105.582 88.1423 101.324C93.2177 97.7458 96.2605 96.1066 102.394 94.4904C107.092 93.2477 109.952 93.2033 115.164 93.5208C116.711 93.4487 117.495 93.1615 118.665 91.9669C119.442 95.2846 119.718 97.0536 118.189 99.0606C120.186 103.43 119.997 105.529 116.218 108.318C116.119 112.367 114.765 113.37 109.973 112.965C106.719 117.281 104.681 117.089 100.966 115.771L93.2164 119.807C89.6459 122.254 87.9487 122.196 85.2052 120.76C80.7473 124.602 78.7609 124.36 75.6913 121.718C70.9949 123.126 69.6154 122.251 68.9172 118.35C65.5547 119.147 64.1656 118.582 63.3921 114.052C59.7964 111.928 59.6253 110.028 60.8593 106.044Z" fill="#FDE8CB" stroke="#FDE8CB"/>
<ellipse cx="2.07866" cy="3.34842" rx="2.07866" ry="3.34842" transform="matrix(0.436681 -0.899603 0.801696 0.597756 61.9949 108.895)" fill="#FFF3E2"/>
<ellipse cx="2.51605" cy="1.84813" rx="2.51605" ry="1.84813" transform="matrix(0.980747 0.195312 -0.127598 0.991822 71.2742 111.46)" fill="#FFF3E2"/>
<ellipse cx="2.70661" cy="1.83785" rx="2.70661" ry="1.83785" transform="matrix(0.95714 0.289655 -0.192499 0.981291 78.2307 115.625)" fill="#FFF3E2"/>
<ellipse cx="2.61585" cy="2.18903" rx="2.61585" ry="2.18903" transform="matrix(0.86329 -0.504681 0.357 0.934115 79.4927 110.818)" fill="#FFF3E2"/>
<ellipse cx="2.9429" cy="2.00016" rx="2.9429" ry="2.00016" transform="matrix(0.683318 -0.7301 0.571847 0.820378 85.7458 115.274)" fill="#FFF3E2"/>
<ellipse cx="2.80018" cy="1.72285" rx="2.80018" ry="1.72285" transform="matrix(0.738611 -0.674109 0.511792 0.859125 87.4707 105.738)" fill="#FFF3E2"/>
<ellipse cx="2.79107" cy="1.9983" rx="2.79107" ry="1.9983" transform="matrix(0.956616 0.291381 -0.193714 0.981052 104.25 105.632)" fill="#FFEEDF"/>
<ellipse cx="2.70987" cy="2.03781" rx="2.70987" ry="2.03781" transform="matrix(0.75234 -0.658752 0.496255 0.868192 105.439 99.2822)" fill="#FFF1DF"/>
<ellipse cx="1.84896" cy="2.95393" rx="1.84896" ry="2.95393" transform="matrix(0.811953 0.583748 -0.423865 0.905712 113.556 100.354)" fill="#FFEEDF"/>
<path d="M65.2556 92.6119C62.7171 91.3615 61.2338 91.4483 58.5131 93.7433C60.4185 86.1252 63.6421 82.1273 74.6912 75.6836C81.8443 73.6203 85.8928 73.0272 93.1727 73.1264C101.732 73.9244 106.377 75.4709 114.192 81.6394L114.352 81.7938C117.473 84.8153 119.271 86.5554 120.469 90.2037C120.817 92.3734 120.173 93.1724 117.984 94.09C112.618 91.0685 109.358 90.6858 103.233 91.6486L95.7416 93.0596C90.7511 94.4303 87.826 96.1984 82.2798 101.97C76.9178 106.418 75.4234 106.929 74.0488 106.153L72.2802 100.62C69.9728 96.5943 68.3869 94.9414 65.2556 92.6119Z" fill="#FF8D5F" stroke="#FF8D5F"/>
<path d="M84.4146 99.6039C80.0359 104.314 77.5807 106.069 73.861 106.758C73.3995 106.843 73.0533 107.238 73.0549 107.707C73.0567 108.218 73.468 108.636 73.9788 108.629C77.213 108.583 79.0521 107.941 81.9074 106.278L82.0752 106.166C86.2334 103.394 88.6223 101.801 95.2914 98.1171C104.713 94.2666 114.257 93.9945 117.8 93.9816C121.231 93.9691 110.651 91.8322 109.98 91.6973C109.958 91.6928 109.935 91.6891 109.913 91.6862C104.648 91.0069 101.413 91.3268 95.273 92.9009C90.9659 94.4622 88.5825 95.8092 84.4146 99.6039Z" fill="#FA7041" stroke="#FA7041"/>
<path d="M68.0066 94.4177C72.0312 99.056 73.4678 102.152 73.9712 107.187C74.0532 108.007 73.143 108.528 72.4586 108.069L63.0893 101.782C57.5118 97.6878 57.7793 96.1814 58.3956 93.6632C58.4334 93.5085 58.5081 93.3634 58.6151 93.2453C60.901 90.7234 62.9218 90.8309 67.8242 94.2536C67.8904 94.2999 67.9536 94.3567 68.0066 94.4177Z" fill="#FFB897" stroke="#FFB897"/>
<path d="M63.4753 83.7391L61.4861 86.5158C65.7171 85.9403 67.4829 86.4949 69.4867 87.8728C71.4906 89.2507 75.083 93.3412 76.5181 97.8194C77.5477 97.911 77.8666 97.7096 77.7636 96.7071C75.9795 92.204 74.4733 89.8531 70.7293 85.9296C68.4169 84.1657 66.7267 83.8641 63.4753 83.7391Z" fill="#FA7341" stroke="#F96C3D"/>
<path d="M72.1992 77.6149L69.4565 79.2863C77.296 80.5293 80.5475 83.6451 84.2494 93.6374C85.3513 94.1225 85.6915 93.5108 86.2435 92.2456C81.6221 80.8634 78.342 79.0102 72.1992 77.6149Z" fill="#FC7848" stroke="#F96F3F"/>
<path d="M101.675 75.02L97.4226 73.6499C101.474 78.3476 103.53 81.1154 104.967 87.4723C106.306 88.0047 106.55 87.4746 106.712 86.0814C105.341 81.5794 104.146 79.1875 101.675 75.02Z" fill="#FB7C4A" stroke="#FA7344"/>
<path d="M92.1185 72.5634L83.6392 73.1541C83.5525 73.1601 83.516 73.2681 83.5788 73.3282C90.2943 79.7484 93.0327 83.9994 94.9935 93.1147C94.9947 93.1206 94.9955 93.1268 94.9957 93.1328C95.3254 103.633 95.3748 109.537 93.1111 119.973C93.0988 120.03 93.1375 120.086 93.1948 120.094C95.7747 120.453 97.4125 119.867 100.555 117.469C100.575 117.454 100.589 117.43 100.593 117.405C101.562 111.517 101.908 108.215 102.286 102.371C102.749 96.1675 102.464 92.9328 100.982 87.5972C98.6957 81.2099 96.6103 77.9918 92.2033 72.6004C92.1828 72.5752 92.1509 72.5611 92.1185 72.5634Z" fill="#67412C" stroke="#67412C"/>
</svg>
