<svg width="200" height="200" viewBox="0 0 200 200" fill="none" xmlns="http://www.w3.org/2000/svg">
<path d="M104.095 92.2769C104.365 89.9585 106.374 87.9138 109.532 86.8498C106.238 82.1707 107.909 77.9716 111.537 77.0087C114.069 76.3268 117.473 77.2207 120.611 79.7907C120.692 79.8611 120.765 79.9259 120.836 79.9905C120.873 79.9001 120.9 79.8 120.937 79.7041C122.335 75.8313 124.835 73.3085 127.398 72.6327C131.055 71.6482 134.589 74.558 134.033 80.3276C137.274 79.7053 140.061 80.4555 141.514 82.2942L148.973 80.3077C143.6 61.5042 132.609 56.3628 120.629 59.5566L110.221 62.3344C98.1374 65.5618 91.571 75.4986 96.9121 94.1953L104.095 92.2769Z" fill="#ED2D24"/>
<path d="M96.9203 94.1985C91.571 75.4986 98.1367 65.562 110.221 62.3344L120.635 59.5564C132.607 56.3602 143.604 61.5096 148.973 80.3077L151.612 79.6035C148.878 70.0441 144.568 63.2755 138.815 59.4867C133.481 55.9806 126.939 55.1118 119.904 56.9933L109.486 59.7709C102.415 61.6567 97.2525 65.6614 94.5449 71.342C91.6477 77.448 91.5518 85.3697 94.2764 94.897L96.9203 94.1985Z" fill="#A61E22"/>
<path d="M114.198 69.5197C113.391 66.6935 114.591 65.1262 116.481 64.6274C118.366 64.1211 120.223 64.8669 121.034 67.6967C121.844 70.5233 119.405 74.8682 119.405 74.8682C119.405 74.8682 115.005 72.3485 114.198 69.5197Z" fill="white"/>
<path d="M100.999 75.4091C99.234 73.7684 99.4011 72.1935 100.49 71.0907C101.583 69.9827 103.191 69.7526 104.957 71.3962C106.722 73.0329 106.89 77.0306 106.89 77.0306C106.89 77.0306 102.77 77.049 100.999 75.4091Z" fill="white"/>
<path d="M134.8 66.3932C135.442 64.1074 134.467 62.8419 132.94 62.4318C131.414 62.0255 129.915 62.6216 129.27 64.9113C128.626 67.1929 130.607 70.7071 130.607 70.7071C130.607 70.7071 134.151 68.6758 134.8 66.3932Z" fill="white"/>
<path d="M155.646 142.93C154.293 142.546 116.805 137.065 103.77 143.674C104.181 142.48 103.831 140.424 102.776 138.358L197.719 92.0548L197.734 92.0911C201.568 99.0946 199.632 108.249 192.515 113.536C201.183 119.677 199.818 130.188 190.035 134.971C181.427 139.17 174.881 135.894 172.278 136.347C171.282 142.949 163.483 145.127 155.646 142.93Z" fill="#698E3D"/>
<path d="M197.754 92.082C197.754 92.082 197.743 92.0872 197.734 92.0911L102.757 138.325C101.694 136.271 100.235 134.765 98.9929 134.336C112.231 128.099 130.093 95.7067 130.583 94.4255C133.452 87.0044 139.913 82.2404 145.968 85.4098C147.885 83.6474 149.091 76.6065 157.711 72.4096C167.506 67.6429 177 72.8748 176.896 83.285C185.522 80.9077 194.26 84.8798 197.754 92.082Z" fill="#A8C538"/>
<path d="M44.996 144.372C46.3446 143.97 83.7545 137.978 96.8785 144.408C96.4504 143.22 96.7723 141.159 97.7997 139.079L2.23351 94.0753L2.21877 94.1116C-1.51891 101.167 0.541855 110.294 7.73013 115.483C-0.853583 121.742 0.655194 132.234 10.503 136.882C19.166 140.964 25.6676 137.599 28.2759 138.017C29.3623 144.605 37.1903 146.675 44.996 144.372Z" fill="#698E3D"/>
<path d="M2.19899 94.1033C2.19899 94.1033 2.20944 94.1079 2.21877 94.1116L97.8182 139.045C98.8531 136.978 100.292 135.451 101.526 135.006C88.2045 128.949 69.9031 96.8046 69.3949 95.5305C66.4247 88.1494 59.8998 83.4735 53.889 86.7259C51.9488 84.9896 50.6464 77.9657 41.9697 73.8866C32.1103 69.2544 22.6888 74.6157 22.9349 85.0227C14.2774 82.7634 5.59383 86.854 2.19899 94.1033Z" fill="#A8C538"/>
<path d="M118.492 78.8271C118.491 92.9392 106.707 104.378 92.1757 104.379C77.6401 104.378 65.8573 92.9392 65.8568 78.8283C65.8586 64.7181 77.6401 53.2786 92.1744 53.2786C106.708 53.2786 118.491 64.7172 118.492 78.8271Z" fill="#EFA7A8"/>
<path d="M98.3388 74.8344L98.3381 71.5039C98.3408 70.1957 97.249 69.1379 95.9045 69.1379C94.5566 69.1379 93.4655 70.1957 93.4655 71.5039C93.4655 72.4089 93.6155 73.4572 92.5559 74.28L88.5566 77.4134C87.5079 78.2303 87.3429 79.7168 88.1867 80.7352L92.9216 86.445C93.7668 87.4616 95.3011 87.6229 96.3484 86.8055L101.263 82.9683C102.311 82.146 102.478 80.6555 101.631 79.6379C98.762 76.1776 98.3381 75.9464 98.3388 74.8344Z" fill="#EA9696"/>
<path d="M87.7175 62.9472L89.6347 61.639C90.3881 61.12 90.5675 60.1132 90.034 59.3826C89.5059 58.6516 88.4682 58.4776 87.7141 58.992C87.1942 59.3458 86.6511 59.8415 85.7579 59.5956L82.3826 58.6583C81.499 58.4124 80.5771 58.9049 80.3223 59.7686L78.9004 64.5844C78.649 65.4416 79.1607 66.3377 80.0449 66.5878L84.1908 67.7362C85.0751 67.9833 85.999 67.4861 86.2511 66.6278C87.1107 63.7054 87.0771 63.3896 87.7175 62.9472Z" fill="#EA9696"/>
<path d="M80.7442 72.125H73.2997C72.1038 72.1237 71.1347 73.067 71.1347 74.2268L71.134 83.9749C71.1353 85.1361 72.1031 86.0779 73.299 86.0779L74.8593 86.0764C76.0525 86.0779 77.023 85.1375 77.0223 83.9734C77.0237 82.8146 77.9888 81.8729 79.1853 81.8729C79.9764 81.8729 82.9079 82.2603 82.9093 79.7726L82.9079 74.2278C82.9093 73.0668 81.9401 72.1237 80.7442 72.125Z" fill="#FACFCE"/>
<path d="M86.171 93.2673V99.005C86.171 99.9262 86.9395 100.674 87.8895 100.674H95.8648C96.8148 100.674 97.5833 99.9286 97.5826 99.0067L97.5819 97.8023C97.5826 96.8843 96.8141 96.1374 95.8668 96.1364C94.9148 96.1361 94.1456 95.3857 94.1442 94.4663C94.147 93.8606 94.4634 91.5961 92.4264 91.5961H87.8895C86.9395 91.5959 86.171 92.3409 86.171 93.2673Z" fill="#FACFCE"/>
<path d="M106.678 63.1942C106.675 64.3118 105.746 65.2129 104.596 65.2138H96.2936C95.1484 65.2138 94.2175 64.3116 94.2175 63.1957C94.2175 62.0822 95.1477 61.1809 96.2956 61.1794L104.598 61.1808C105.744 61.1798 106.678 62.0811 106.678 63.1942Z" fill="#FACFCE"/>
<path d="M113.335 76.4844C113.335 78.8929 111.326 80.8439 108.845 80.8442C106.363 80.8439 104.355 78.8936 104.354 76.4858C104.355 74.0759 106.365 72.124 108.845 72.125C111.326 72.1237 113.335 74.0761 113.335 76.4844Z" fill="#FACFCE"/>
<path d="M106.677 93.284C106.676 94.492 105.669 95.4704 104.425 95.4702C103.181 95.4716 102.172 94.492 102.172 93.2852C102.171 92.0772 103.18 91.0976 104.423 91.099C105.669 91.1002 106.675 92.0755 106.677 93.284Z" fill="#FACFCE"/>
<path d="M82.6497 93.2583C82.6497 94.4518 81.6538 95.4118 80.4258 95.4118C79.1977 95.4118 78.2018 94.4518 78.2025 93.2594C78.2018 92.0637 79.199 91.0973 80.4264 91.0988C81.6538 91.0991 82.6483 92.0654 82.6497 93.2583Z" fill="#FACFCE"/>
<path d="M90.6326 70.6296C90.6306 71.4556 89.9429 72.1253 89.0936 72.124C88.2442 72.1228 87.5545 71.4543 87.5559 70.6308C87.5545 69.8053 88.2442 69.1366 89.0936 69.1379C89.9429 69.1396 90.6306 69.8066 90.6326 70.6296Z" fill="#FACFCE"/>
<path d="M40.7952 126.175C39.1831 124.488 38.893 121.636 40.0906 118.527C34.3854 118.073 32.2219 114.105 33.7972 110.699C34.8893 108.315 37.7514 106.266 41.7325 105.494C41.8392 105.476 41.9359 105.461 42.0304 105.448C41.9848 105.361 41.9244 105.278 41.8748 105.187C39.787 101.638 39.4422 98.1039 40.5586 95.6998C42.1364 92.2572 46.6327 91.3959 50.7179 95.5089C52.3087 92.6179 54.6654 90.9533 57.0089 91.0087L60.244 84.0006C42.3409 76.127 31.3656 81.2998 26.1721 92.5576L21.6633 102.34C16.4298 113.699 19.884 125.097 37.6838 132.928L40.7952 126.175Z" fill="#ED2D24"/>
<path d="M37.6918 132.923C19.8844 125.097 16.4298 113.699 21.6633 102.34L26.176 92.554C31.3623 81.3001 42.3479 76.127 60.244 84.0006L61.3873 81.5212C52.2848 77.5196 44.3232 76.5133 37.7326 78.5208C31.6276 80.3865 26.7816 84.8646 23.7367 91.4792L19.2211 101.269C16.157 107.913 15.9423 114.443 18.5847 120.154C21.4333 126.284 27.4688 131.416 36.5411 135.404L37.6918 132.923Z" fill="#A61E22"/>
<path d="M29.7335 103.869C27.0429 102.685 26.6029 100.761 27.4255 98.9883C28.2401 97.2144 30.0003 96.2615 32.6959 97.445C35.3886 98.6266 37.1747 103.278 37.1747 103.278C37.1747 103.278 32.4259 105.054 29.7335 103.869Z" fill="white"/>
<path d="M25.8363 117.786C23.4467 118.096 22.3416 116.962 22.1882 115.419C22.0341 113.87 22.8832 112.487 25.276 112.178C27.6629 111.865 30.8465 114.289 30.8465 114.289C30.8465 114.289 28.2291 117.471 25.8363 117.786Z" fill="white"/>
<path d="M40.4841 86.0202C39.1346 84.0669 37.5384 84.009 36.2472 84.922C34.9601 85.8366 34.4618 87.3709 35.8111 89.3296C37.1567 91.2809 41.1259 92.0016 41.1259 92.0016C41.1259 92.0016 41.8268 87.9772 40.4841 86.0202Z" fill="white"/>
<path d="M76.3134 81.0395C76.312 92.3478 66.8697 101.512 55.2244 101.51C43.5768 101.512 34.1331 92.348 34.1346 81.0395C34.1346 69.73 43.5751 60.5666 55.2244 60.5666C66.8697 60.5646 76.3141 69.73 76.3134 81.0395Z" fill="#5C7635"/>
<path d="M72.521 81.0395C72.523 90.3113 64.7796 97.8325 55.2246 97.8325C45.6696 97.8325 37.9238 90.3116 37.9238 81.0405C37.9238 71.7652 45.6696 64.2466 55.2256 64.246C64.7779 64.2453 72.5223 71.7653 72.521 81.0395Z" fill="#A1C53A"/>
<path d="M62.1826 81.0395C62.1814 84.7579 59.0757 87.77 55.2491 87.77C51.4196 87.77 48.3151 84.7569 48.3151 81.0395C48.3166 77.3218 51.4186 74.3082 55.2474 74.3075C59.0773 74.3075 62.1826 77.3198 62.1826 81.0395Z" fill="white"/>
<path d="M99.371 64.8544V147.241H20.0443C10.9366 147.241 4.71751 137.958 8.2628 129.569C22.1995 96.5948 57.2992 64.8544 99.371 64.8544Z" fill="#FCDB4E"/>
<path d="M99.3709 76.0895L99.371 147.241H27.3207C17.2344 147.241 11.0963 136.234 16.2923 127.591C33.5121 98.9468 64.2768 76.0856 99.3709 76.0895Z" fill="#FBB435"/>
<path d="M99.371 64.8544V147.241H178.698C187.806 147.241 194.024 137.958 190.48 129.569C176.544 96.5948 141.443 64.8544 99.371 64.8544Z" fill="#FAD229"/>
<path d="M99.3709 76.0895L99.371 147.241H171.421C181.508 147.241 187.646 136.234 182.45 127.591C165.231 98.9468 134.465 76.0856 99.3709 76.0895Z" fill="#FAAE17"/>
<path d="M96.0559 107.477C96.0559 109.62 94.3182 111.358 92.1744 111.358C90.0305 111.358 88.2929 109.62 88.2929 107.477C88.2929 105.334 90.0305 103.596 92.1744 103.596C94.3182 103.596 96.0559 105.334 96.0559 107.477Z" fill="#F58720"/>
<path d="M66.9826 122.932C66.9826 125.075 65.2452 126.812 63.1013 126.812C60.9573 126.812 59.2195 125.075 59.2195 122.932C59.2195 120.788 60.9573 119.05 63.1013 119.05C65.2452 119.05 66.9826 120.788 66.9826 122.932Z" fill="#F58720"/>
<path d="M65.7696 100.928C65.7696 102.401 64.5752 103.596 63.1012 103.596C61.6273 103.596 60.4325 102.401 60.4325 100.928C60.4325 99.4538 61.6273 98.2595 63.1012 98.2595C64.5752 98.2595 65.7696 99.4538 65.7696 100.928Z" fill="#F58720"/>
<path d="M41.5166 136.67C41.5166 138.144 40.3221 139.338 38.8484 139.338C37.3746 139.338 36.18 138.144 36.18 136.67C36.18 135.196 37.3746 134.002 38.8484 134.002C40.3221 134.002 41.5166 135.196 41.5166 136.67Z" fill="#F58720"/>
<path d="M105.55 127.603C105.55 129.746 107.288 131.484 109.431 131.484C111.576 131.484 113.313 129.746 113.313 127.603C113.313 125.459 111.576 123.721 109.431 123.721C107.288 123.721 105.55 125.459 105.55 127.603Z" fill="#F58720"/>
<path d="M114.419 94.2874C114.419 96.4306 116.157 98.1687 118.301 98.1687C120.444 98.1687 122.181 96.4306 122.181 94.2874C122.181 92.1441 120.444 90.4068 118.301 90.4068C116.157 90.4068 114.419 92.1441 114.419 94.2874Z" fill="#F58720"/>
<path d="M132.626 100.928C132.626 102.401 133.82 103.596 135.294 103.596C136.768 103.596 137.963 102.401 137.963 100.928C137.963 99.4538 136.768 98.2595 135.294 98.2595C133.82 98.2595 132.626 99.4538 132.626 100.928Z" fill="#F58720"/>
<path d="M156.878 136.67C156.878 138.144 158.073 139.338 159.547 139.338C161.021 139.338 162.215 138.144 162.215 136.67C162.215 135.196 161.021 134.002 159.547 134.002C158.073 134.002 156.878 135.196 156.878 136.67Z" fill="#F58720"/>
</svg>
