<svg fill="none" height="200" viewBox="0 0 292 138" width="200" xmlns="http://www.w3.org/2000/svg">
  <path
    d="M151.979 57.7241C152.373 54.3392 155.307 51.354 159.917 49.8005C155.108 42.9691 157.548 36.8384 162.845 35.4326C166.541 34.437 171.511 35.7421 176.092 39.4943C176.211 39.5971 176.318 39.6917 176.421 39.7859C176.475 39.654 176.514 39.5079 176.569 39.3678C178.61 33.7136 182.26 30.0303 186.002 29.0436C191.341 27.6062 196.501 31.8545 195.689 40.2782C200.42 39.3696 204.489 40.4648 206.611 43.1493L217.501 40.2491C209.656 12.796 193.61 5.28957 176.119 9.95245L160.923 14.0081C143.281 18.72 133.694 33.2278 141.492 60.525L151.979 57.7241Z"
    fill="#ED2D24"/>
  <path
    d="M141.504 60.5297C133.694 33.2278 143.28 18.7201 160.923 14.0078L176.127 9.95212C193.607 5.28567 209.663 12.8036 217.502 40.2488L221.354 39.221C217.363 25.2642 211.07 15.3821 202.67 9.8504C194.882 4.73145 185.331 3.46313 175.06 6.20998L159.85 10.2653C149.527 13.0186 141.989 18.8655 138.036 27.1591C133.806 36.0739 133.666 47.6396 137.644 61.5494L141.504 60.5297Z"
    fill="#A61E22"/>
  <path
    d="M166.73 24.4986C165.552 20.3724 167.303 18.0841 170.062 17.3558C172.815 16.6167 175.526 17.7055 176.71 21.837C177.892 25.9639 174.331 32.3074 174.331 32.3074C174.331 32.3074 167.908 28.6287 166.73 24.4986Z"
    fill="white"/>
  <path
    d="M147.459 33.0971C144.882 30.7017 145.126 28.4023 146.716 26.7922C148.312 25.1746 150.659 24.8386 153.237 27.2383C155.815 29.6279 156.06 35.4645 156.06 35.4645C156.06 35.4645 150.044 35.4914 147.459 33.0971Z"
    fill="white"/>
  <path
    d="M196.809 19.9339C197.746 16.5966 196.322 14.749 194.093 14.1503C191.865 13.557 189.677 14.4273 188.734 17.7703C187.795 21.1015 190.687 26.2322 190.687 26.2322C190.687 26.2322 195.861 23.2665 196.809 19.9339Z"
    fill="white"/>
  <path
    d="M227.244 131.678C225.268 131.117 170.536 123.114 151.504 132.764C152.104 131.021 151.593 128.019 150.053 125.002L288.67 57.3999L288.692 57.4529C294.289 67.6779 291.463 81.0438 281.072 88.7623C293.727 97.7287 291.734 113.075 277.451 120.057C264.884 126.188 255.326 121.405 251.526 122.067C250.072 131.706 238.686 134.885 227.244 131.678Z"
    fill="#698E3D"/>
  <path
    d="M288.721 57.4395C288.721 57.4395 288.705 57.4471 288.692 57.4528L150.025 124.954C148.473 121.956 146.343 119.757 144.53 119.13C163.858 110.024 189.936 62.7316 190.651 60.861C194.841 50.0263 204.274 43.0708 213.113 47.6982C215.912 45.1251 217.673 34.8453 230.259 28.7178C244.559 21.7584 258.42 29.3971 258.268 44.596C270.862 41.1251 283.62 46.9243 288.721 57.4395Z"
    fill="#A8C538"/>
  <path
    d="M65.6946 133.783C67.6635 133.196 122.282 124.447 141.443 133.836C140.818 132.101 141.288 129.092 142.788 126.055L3.26134 60.3498L3.23982 60.4028C-2.2172 70.7031 0.791519 84.0296 11.2864 91.6052C-1.24582 100.743 0.956995 116.061 15.3348 122.847C27.9827 128.807 37.4751 123.894 41.2832 124.505C42.8694 134.123 54.2983 137.146 65.6946 133.783Z"
    fill="#698E3D"/>
  <path
    d="M3.21094 60.3907C3.21094 60.3907 3.22636 60.3982 3.23998 60.4036L142.815 126.006C144.326 122.987 146.427 120.759 148.229 120.109C128.779 111.266 102.059 64.3345 101.317 62.4743C96.9804 51.698 87.4541 44.8712 78.6784 49.6197C75.8457 47.0846 73.9441 36.8298 61.2761 30.8743C46.8815 24.1113 33.126 31.9388 33.4854 47.133C20.8454 43.8344 8.16741 49.8067 3.21094 60.3907Z"
    fill="#A8C538"/>
  <path
    d="M172.998 38.0874C172.997 58.6911 155.793 75.3911 134.577 75.3932C113.355 75.3911 96.1521 58.691 96.1514 38.0891C96.1539 17.4883 113.355 0.78653 134.575 0.78653C155.794 0.78653 172.997 17.4869 172.998 38.0874Z"
    fill="#EFA7A8"/>
  <path
    d="M143.575 32.258L143.574 27.3955C143.578 25.4856 141.984 23.9411 140.021 23.9411C138.053 23.9411 136.46 25.4856 136.46 27.3955C136.46 28.7168 136.679 30.2474 135.132 31.4486L129.293 36.0234C127.762 37.2161 127.521 39.3864 128.753 40.8732L135.666 49.2095C136.9 50.6938 139.14 50.9292 140.669 49.7358L147.844 44.1335C149.375 42.933 149.618 40.7568 148.381 39.2711C144.193 34.2191 143.574 33.8816 143.575 32.258Z"
    fill="#EA9696"/>
  <path
    d="M128.068 14.9027L130.867 12.9928C131.967 12.2351 132.229 10.7651 131.45 9.69849C130.679 8.63121 129.164 8.37718 128.063 9.12811C127.304 9.64474 126.511 10.3684 125.207 10.0094L120.279 8.64092C118.989 8.28193 117.643 9.00094 117.271 10.262L115.195 17.2931C114.828 18.5445 115.575 19.8529 116.866 20.218L122.919 21.8947C124.21 22.2555 125.559 21.5296 125.927 20.2764C127.182 16.0097 127.133 15.5486 128.068 14.9027Z"
    fill="#EA9696"/>
  <path
    d="M117.887 28.3023H107.018C105.272 28.3005 103.857 29.6777 103.857 31.3709L103.856 45.6032C103.858 47.2985 105.271 48.6735 107.017 48.6735L109.295 48.6714C111.037 48.6735 112.454 47.3006 112.453 45.601C112.455 43.9092 113.864 42.5342 115.611 42.5342C116.766 42.5342 121.046 43.0999 121.048 39.4678L121.046 31.3724C121.048 29.6774 119.633 28.3005 117.887 28.3023Z"
    fill="#FACFCE"/>
  <path
    d="M125.81 59.1701V67.5471C125.81 68.8921 126.932 69.9841 128.319 69.9841H139.963C141.35 69.9841 142.472 68.8956 142.471 67.5496L142.47 65.7912C142.471 64.4509 141.349 63.3604 139.966 63.359C138.576 63.3586 137.453 62.263 137.451 60.9206C137.455 60.0363 137.917 56.7302 134.943 56.7302H128.319C126.932 56.7299 125.81 57.8176 125.81 59.1701Z"
    fill="#FACFCE"/>
  <path
    d="M155.75 15.2634C155.746 16.895 154.39 18.2106 152.711 18.212H140.589C138.917 18.212 137.558 16.8947 137.558 15.2656C137.558 13.6398 138.916 12.3239 140.592 12.3217L152.714 12.3238C154.386 12.3224 155.75 13.6383 155.75 15.2634Z"
    fill="#FACFCE"/>
  <path
    d="M165.469 34.667C165.469 38.1834 162.537 41.032 158.914 41.0324C155.291 41.032 152.359 38.1845 152.357 34.6691C152.359 31.1506 155.293 28.3009 158.914 28.3023C162.536 28.3005 165.469 31.1509 165.469 34.667Z"
    fill="#FACFCE"/>
  <path
    d="M155.749 59.1945C155.747 60.9582 154.277 62.3866 152.461 62.3863C150.645 62.3884 149.172 60.9582 149.172 59.1962C149.17 57.4325 150.643 56.0023 152.458 56.0044C154.277 56.0062 155.746 57.43 155.749 59.1945Z"
    fill="#FACFCE"/>
  <path
    d="M120.669 59.1569C120.669 60.8995 119.215 62.301 117.422 62.301C115.629 62.301 114.175 60.8995 114.176 59.1586C114.175 57.4128 115.631 56.0019 117.423 56.0041C119.215 56.0045 120.667 57.4153 120.669 59.1569Z"
    fill="#FACFCE"/>
  <path
    d="M132.324 26.119C132.321 27.325 131.317 28.3027 130.077 28.3009C128.837 28.2991 127.83 27.3231 127.832 26.1208C127.83 24.9156 128.837 23.9393 130.077 23.9411C131.317 23.9436 132.321 24.9174 132.324 26.119Z"
    fill="#FACFCE"/>
  <path
    d="M59.5614 107.216C57.2077 104.752 56.7842 100.588 58.5327 96.0488C50.2031 95.3864 47.0444 89.5936 49.3443 84.6204C50.9388 81.1395 55.1174 78.1489 60.9299 77.0211C61.0857 76.9946 61.2268 76.9727 61.3648 76.9541C61.2982 76.8273 61.21 76.7051 61.1376 76.5733C58.0895 71.392 57.5861 66.2315 59.216 62.7216C61.5196 57.6954 68.0841 56.4379 74.0485 62.4428C76.3711 58.222 79.8119 55.7916 83.2334 55.8726L87.9566 45.6407C61.8181 34.1453 45.7942 41.6976 38.2117 58.1339L31.6288 72.4163C23.9879 89.0002 29.0311 105.642 55.0188 117.074L59.5614 107.216Z"
    fill="#ED2D24"/>
  <path
    d="M55.0305 117.068C29.0317 105.642 23.9885 89.0007 31.6294 72.4167L38.2173 58.1286C45.7894 41.698 61.829 34.1457 87.9572 45.6411L89.6258 42.0208C76.3362 36.1785 64.7123 34.7092 55.09 37.6402C46.1767 40.3641 39.1016 46.9022 34.656 56.5594L28.0632 70.8529C23.5897 80.5534 23.2762 90.0873 27.1341 98.4253C31.293 107.374 40.1049 114.867 53.3504 120.69L55.0305 117.068Z"
    fill="#A61E22"/>
  <path
    d="M43.4113 74.6484C39.4831 72.9201 38.8407 70.1109 40.0417 67.5227C41.231 64.9328 43.8008 63.5416 47.7364 65.2695C51.6678 66.9946 54.2755 73.786 54.2755 73.786C54.2755 73.786 47.3423 76.3785 43.4113 74.6484Z"
    fill="white"/>
  <path
    d="M37.7214 94.9668C34.2326 95.4204 32.6191 93.7641 32.3952 91.512C32.1702 89.2503 33.4099 87.2311 36.9034 86.7797C40.3883 86.3221 45.0363 89.8612 45.0363 89.8612C45.0363 89.8612 41.2149 94.5072 37.7214 94.9668Z"
    fill="white"/>
  <path
    d="M59.1072 48.5893C57.1369 45.7375 54.8065 45.6529 52.9214 46.986C51.0421 48.3213 50.3147 50.5613 52.2846 53.421C54.2492 56.2699 60.0442 57.3221 60.0442 57.3221C60.0442 57.3221 61.0675 51.4465 59.1072 48.5893Z"
    fill="white"/>
  <path
    d="M111.418 41.3175C111.416 57.8276 97.6302 71.2068 80.6281 71.205C63.6225 71.2068 49.8348 57.8279 49.8369 41.3175C49.8369 24.8056 63.62 11.4271 80.6281 11.4271C97.6302 11.4242 111.419 24.8056 111.418 41.3175Z"
    fill="#5C7635"/>
  <path
    d="M105.881 41.3175C105.884 54.8543 94.5787 65.8353 80.6283 65.8353C66.678 65.8353 55.3691 54.8547 55.3691 41.319C55.3691 27.7771 66.678 16.7998 80.6298 16.799C94.5762 16.798 105.883 27.7771 105.881 41.3175Z"
    fill="#A1C53A"/>
  <path
    d="M90.787 41.3175C90.7852 46.7463 86.2509 51.1441 80.6641 51.1441C75.0731 51.1441 70.5405 46.7449 70.5405 41.3175C70.5427 35.8897 75.0716 31.4898 80.6616 31.4888C86.2533 31.4888 90.787 35.8868 90.787 41.3175Z"
    fill="white"/>
  <path
    d="M145.082 17.6872V137.971H29.2651C15.9679 137.971 6.88798 124.418 12.0641 112.171C32.4117 64.0282 83.6572 17.6872 145.082 17.6872Z"
    fill="#FCDB4E"/>
  <path
    d="M145.082 34.0905V137.971H39.8887C25.1626 137.971 16.201 121.902 23.7871 109.282C48.9281 67.4622 93.8445 34.0848 145.082 34.0905Z"
    fill="#FBB435"/>
  <path
    d="M145.082 17.6872V137.971H260.9C274.197 137.971 283.276 124.418 278.101 112.171C257.754 64.0282 206.507 17.6872 145.082 17.6872Z"
    fill="#FAD229"/>
  <path
    d="M145.082 34.0905V137.971H250.275C265.002 137.971 273.964 121.902 266.377 109.282C241.237 67.4622 196.319 34.0848 145.082 34.0905Z"
    fill="#FAAE17"/>
  <path
    d="M140.242 79.9156C140.242 83.0448 137.705 85.5823 134.575 85.5823C131.445 85.5823 128.908 83.0448 128.908 79.9156C128.908 76.7869 131.445 74.2496 134.575 74.2496C137.705 74.2496 140.242 76.7869 140.242 79.9156Z"
    fill="#F58720"/>
  <path
    d="M97.795 102.48C97.795 105.609 95.2584 108.145 92.1283 108.145C88.9981 108.145 86.4609 105.609 86.4609 102.48C86.4609 99.3499 88.9981 96.8131 92.1283 96.8131C95.2584 96.8131 97.795 99.3499 97.795 102.48Z"
    fill="#F58720"/>
  <path
    d="M96.0241 70.3542C96.0241 72.5056 94.2802 74.2496 92.1282 74.2496C89.9762 74.2496 88.2319 72.5056 88.2319 70.3542C88.2319 68.2024 89.9762 66.4587 92.1282 66.4587C94.2802 66.4587 96.0241 68.2024 96.0241 70.3542Z"
    fill="#F58720"/>
  <path
    d="M60.6146 122.538C60.6146 124.69 58.8707 126.433 56.7191 126.433C54.5674 126.433 52.8232 124.69 52.8232 122.538C52.8232 120.386 54.5674 118.643 56.7191 118.643C58.8707 118.643 60.6146 120.386 60.6146 122.538Z"
    fill="#F58720"/>
  <path
    d="M154.104 109.3C154.104 112.429 156.641 114.966 159.77 114.966C162.901 114.966 165.437 112.429 165.437 109.3C165.437 106.17 162.901 103.633 159.77 103.633C156.641 103.633 154.104 106.17 154.104 109.3Z"
    fill="#F58720"/>
  <path
    d="M167.052 60.6594C167.052 63.7885 169.589 66.3262 172.72 66.3262C175.848 66.3262 178.385 63.7885 178.385 60.6594C178.385 57.5302 175.848 54.9937 172.72 54.9937C169.589 54.9937 167.052 57.5302 167.052 60.6594Z"
    fill="#F58720"/>
  <path
    d="M193.634 70.3542C193.634 72.5056 195.378 74.2496 197.53 74.2496C199.682 74.2496 201.426 72.5056 201.426 70.3542C201.426 68.2024 199.682 66.4587 197.53 66.4587C195.378 66.4587 193.634 68.2024 193.634 70.3542Z"
    fill="#F58720"/>
  <path
    d="M229.043 122.538C229.043 124.69 230.787 126.433 232.939 126.433C235.091 126.433 236.835 124.69 236.835 122.538C236.835 120.386 235.091 118.643 232.939 118.643C230.787 118.643 229.043 120.386 229.043 122.538Z"
    fill="#F58720"/>
</svg>
