<svg width="198" height="208" viewBox="0 0 198 208" fill="none" xmlns="http://www.w3.org/2000/svg">
<path fill-rule="evenodd" clip-rule="evenodd" d="M150.684 86.1973L144.915 157.155C143.185 179.653 133.954 194.745 118.955 200.421C88.4762 205.845 72.9801 205.875 48.5748 200.421C23.1137 192.453 16.5369 181.877 12.2307 157.155C9.15401 136.194 5.30808 80.6364 5.30808 74.1752C20.3072 39.5619 144.915 31.9713 150.684 86.1973Z" fill="#E98F2C"/>
<path d="M31.9262 49.0251C46.4262 44.1287 64.1719 41.5896 81.5395 41.872C98.8668 42.1537 116.263 45.2517 129.883 52.0077C141.897 57.967 151.364 67.0191 154.647 79.6954C165.593 77.2899 176.285 76.959 184.378 80.7179C189.293 83.0006 193.164 86.762 195.34 92.1306C197.465 97.3717 197.823 103.756 196.576 111.171C193.893 127.116 190.03 137.104 182.423 144.147C175.116 150.913 164.819 154.396 151.598 158.994C150.939 159.223 150.271 159.457 149.592 159.694C147.146 181.402 137.4 197.318 120.725 203.57L120.29 203.733L119.832 203.814C88.8575 209.275 72.6747 209.348 47.4839 203.771L47.2807 203.726L47.0815 203.665C33.9218 199.585 24.8185 194.596 18.56 186.818C12.3726 179.129 9.48736 169.337 7.30515 156.926L7.29343 156.86L7.28366 156.795C4.17634 135.825 0.308079 80.544 0.308079 73.8724V72.846L0.720188 71.9037C5.35531 61.3074 17.7566 53.81 31.9262 49.0251ZM81.3755 51.7774C64.9952 51.5111 48.4156 53.9228 35.1528 58.4014C22.188 62.7794 13.5835 68.7147 10.3305 74.9356C10.6387 84.673 14.2566 135.589 17.1694 155.299C19.2908 167.337 21.8458 175.009 26.3794 180.643C30.8262 186.169 37.6903 190.349 49.8637 194.145C73.2432 199.303 88.0205 199.33 117.602 194.143C129.88 189.33 138.301 176.674 139.93 155.696L139.931 155.685L139.932 155.674L145.661 85.8666C144.312 74.861 137.004 66.6197 125.406 60.8664C113.57 54.9956 97.7961 52.0445 81.3755 51.7774ZM180.133 89.6879C174.697 87.163 166.061 87.1584 155.379 89.6927L150.523 148.864C163.099 144.471 170.46 141.664 175.595 136.91C180.729 132.156 184.13 124.888 186.711 109.542C187.771 103.242 187.283 98.8354 186.061 95.8223C184.891 92.9372 182.915 90.9797 180.133 89.6879Z" fill="#EBC38F"/>
<path d="M46.8674 129.636L110.826 148.299C111.391 148.464 111.682 149.11 111.443 149.668C102.524 170.457 88.5856 177.551 71.5215 176.909C54.3831 176.264 38.9692 157.533 45.6459 130.369C45.7818 129.816 46.3387 129.481 46.8674 129.636Z" fill="#FFC91B"/>
<path d="M52.9571 131.662L104.83 146.568C105.398 146.731 105.692 147.379 105.447 147.939C98.0892 164.766 86.705 170.548 72.8072 170.08C58.8317 169.611 46.3122 154.467 51.7425 132.391C51.8777 131.841 52.4307 131.51 52.9571 131.662Z" fill="#FFF083"/>
<path d="M101.83 151.464C98.6796 157.43 92.0288 164.131 89.7282 163.84C89.3949 163.797 89.2121 163.466 89.1065 163.138C88.0803 159.949 82.5039 142.503 83.5742 143.286C84.5036 143.966 95.9217 147.402 100.695 148.82C101.809 149.151 102.389 150.404 101.83 151.464Z" fill="#FFCC24"/>
<path d="M80.3665 146.713L85.5369 162.675C85.8314 163.585 85.4674 164.597 84.642 165.055C78.1637 168.648 73.7837 168.222 66.8524 163.876C65.8948 163.276 65.6718 161.949 66.3434 161.008L76.9184 146.186C77.8679 144.855 79.8636 145.161 80.3665 146.713Z" fill="#FFCC24"/>
<path d="M55.6541 137.624C54.8976 146.764 56.0202 152.02 60.0281 158.642C60.7079 159.765 62.2511 159.839 63.0982 158.824L75.8249 143.579C76.7797 142.436 76.2558 140.669 74.8512 140.297L58.0939 135.852C56.9297 135.543 55.7568 136.383 55.6541 137.624Z" fill="#FFCC24"/>
<path d="M92.1996 152.612C91.5215 153.097 91.5451 154.351 92.2523 155.414C92.9596 156.476 94.0827 156.944 94.7608 156.459C95.4389 155.974 95.4153 154.72 94.7081 153.658C94.0008 152.595 92.8777 152.127 92.1996 152.612Z" fill="#FFC115"/>
<path d="M74.0852 159.889C72.955 160.697 72.4974 162.041 73.0632 162.891C73.629 163.741 75.0039 163.775 76.1341 162.966C77.2644 162.158 77.7219 160.814 77.1561 159.964C76.5903 159.114 75.2154 159.08 74.0852 159.889Z" fill="#FFC115"/>
<path d="M61.6936 149.441C60.7895 150.088 60.5151 151.301 61.081 152.151C61.6468 153.001 62.8384 153.165 63.7426 152.519C64.6468 151.872 64.9211 150.659 64.3552 149.809C63.7894 148.959 62.5978 148.795 61.6936 149.441Z" fill="#FFC115"/>
<path d="M59.2331 142.115C58.3289 142.762 58.0546 143.975 58.6204 144.825C59.1862 145.675 60.3779 145.839 61.2821 145.193C62.1862 144.546 62.4605 143.333 61.8947 142.483C61.3289 141.633 60.1373 141.468 59.2331 142.115Z" fill="#FFC115"/>
<path d="M111.892 149.869C112.252 149.029 111.816 148.058 110.965 147.81L47.0063 129.147C46.2095 128.915 45.3731 129.417 45.1685 130.249C38.4314 157.66 53.9854 176.757 71.4969 177.416C80.1003 177.74 87.955 176.113 94.7914 171.755C101.628 167.397 107.402 160.335 111.892 149.869ZM110.687 148.788C110.966 148.87 111.111 149.191 110.992 149.467C106.564 159.789 100.909 166.669 94.2812 170.894C87.6528 175.119 80.0056 176.72 71.5449 176.401C54.7801 175.77 39.5066 157.407 46.1227 130.488C46.1899 130.215 46.4673 130.048 46.7279 130.124L110.687 148.788Z" fill="#FFCE25"/>
<path d="M105.895 148.143C106.264 147.298 105.821 146.324 104.967 146.079L53.0938 131.173C52.3019 130.945 51.47 131.441 51.2656 132.271C45.7746 154.594 58.4355 170.105 72.7852 170.588C79.805 170.824 86.2274 169.482 91.8333 165.926C97.4397 162.37 102.185 156.628 105.895 148.143ZM104.693 147.057C104.976 147.139 105.118 147.461 104.999 147.735C101.351 156.076 96.7249 161.638 91.3255 165.063C85.9253 168.488 79.7068 169.805 72.8289 169.574C59.2275 169.116 46.8499 154.339 52.2189 132.511C52.2851 132.242 52.5591 132.076 52.8199 132.151L104.693 147.057Z" fill="#FFF083"/>
<path d="M76.1956 143.908C77.389 142.478 76.7346 140.271 74.9792 139.805L58.2217 135.36C56.7697 134.975 55.2935 136.022 55.1639 137.586C54.7833 142.184 54.8722 145.839 55.5733 149.19C56.2752 152.545 57.5846 155.569 59.6096 158.914C60.4726 160.34 62.4151 160.415 63.4689 159.153L76.1956 143.908ZM74.723 140.789C75.7764 141.068 76.1694 142.393 75.4533 143.251L62.7266 158.496C62.0862 159.263 60.9427 159.19 60.446 158.369C58.4633 155.093 57.2082 152.177 56.536 148.964C55.8629 145.747 55.7688 142.203 56.1447 137.661C56.2206 136.745 57.0897 136.112 57.966 136.344L74.723 140.789ZM80.8337 146.547C80.205 144.606 77.7102 144.225 76.5234 145.888L65.9477 160.71C65.1108 161.883 65.3819 163.552 66.5934 164.311C70.085 166.5 72.9919 167.74 75.877 167.949C78.7728 168.159 81.5824 167.325 84.8704 165.501C85.9208 164.919 86.3698 163.641 86.0035 162.51L80.8337 146.547ZM77.3128 146.484C78.0249 145.486 79.5224 145.715 79.8997 146.879L85.0695 162.842C85.2921 163.529 85.0133 164.275 84.413 164.608C81.2231 166.377 78.6036 167.127 75.9573 166.936C73.3 166.743 70.5506 165.598 67.111 163.442C66.4074 163.001 66.2323 162.015 66.7385 161.306L77.3128 146.484ZM102.261 151.702C102.988 150.325 102.215 148.742 100.836 148.332C98.4504 147.623 94.4052 146.41 90.8414 145.29C89.0591 144.73 87.3999 144.194 86.1304 143.756C85.4955 143.537 84.9621 143.345 84.5611 143.187C84.3604 143.108 84.197 143.039 84.0728 142.982C83.9401 142.92 83.8786 142.883 83.8619 142.871C83.7943 142.822 83.5625 142.673 83.2869 142.807C83.0394 142.928 82.9815 143.176 82.9673 143.244C82.9297 143.426 82.949 143.656 82.9745 143.856C83.0307 144.296 83.1712 144.951 83.3657 145.74C83.7571 147.328 84.3887 149.545 85.0834 151.878C86.4736 156.545 88.1255 161.708 88.6388 163.303C88.7004 163.495 88.7951 163.722 88.9466 163.917C89.1035 164.118 89.3376 164.302 89.6621 164.344C90.067 164.395 90.5129 164.29 90.9559 164.108C91.4066 163.924 91.8994 163.643 92.4151 163.29C93.4471 162.585 94.618 161.565 95.8039 160.358C98.1751 157.946 100.658 154.739 102.261 151.702ZM100.553 149.309C101.403 149.561 101.79 150.484 101.398 151.225C99.8515 154.155 97.4332 157.282 95.1164 159.639C93.9586 160.817 92.8388 161.789 91.8784 162.445C91.3979 162.774 90.9678 163.015 90.6022 163.165C90.2291 163.317 89.9632 163.357 89.7931 163.336C89.7838 163.334 89.7596 163.331 89.7165 163.275C89.6669 163.211 89.6177 163.109 89.5738 162.973C89.061 161.379 87.4111 156.225 86.0242 151.568C85.3303 149.238 84.7049 147.041 84.3198 145.478C84.1772 144.9 84.071 144.42 84.0054 144.057C84.0674 144.082 84.1328 144.109 84.2008 144.136C84.6206 144.301 85.1692 144.5 85.8095 144.72C87.0913 145.162 88.7598 145.701 90.5446 146.262C94.1155 147.384 98.1659 148.599 100.553 149.309ZM83.318 143.722L83.2858 143.702C83.2963 143.709 83.3086 143.715 83.3199 143.723L83.318 143.722Z" fill="#FFD735"/>
<path d="M27.7482 42.393C41.3762 38.7561 58.6799 37.232 75.5714 37.3941C92.4894 37.5564 109.703 39.4178 123.237 42.9245C129.993 44.6749 136.188 46.9256 140.989 49.7877C145.804 52.6579 149.69 56.4443 150.611 61.2018C151.187 64.1746 148.329 66.923 144.227 67.3402C140.125 67.7573 136.333 65.6856 135.757 62.7128C135.524 61.5125 134.453 59.9682 131.46 58.1839C128.453 56.3914 123.989 54.6638 118.189 53.1609C106.611 50.1611 91.1214 48.4157 75.3732 48.2646C59.5985 48.1132 44.2712 49.5682 32.9308 52.5947C21.1626 55.7354 16.2103 59.7898 15.6544 63.7603C15.2364 66.747 11.5566 68.9227 7.43569 68.6198C3.3148 68.3168 0.312693 65.6499 0.73061 62.6633C2.19392 52.2097 14.5482 45.9157 27.7482 42.393Z" fill="#F3CE9E"/>
<path d="M146.799 72.0603C147.485 70.8064 149.264 70.2514 150.772 70.8214C152.28 71.3914 152.947 72.8701 152.261 74.124C150.142 78.0001 146.241 81.2059 141.331 83.8287C136.41 86.4572 130.312 88.5898 123.517 90.2739C109.929 93.642 93.1703 95.3083 76.4947 95.369C59.8165 95.4297 43.0356 93.8849 29.3931 90.7366C22.5726 89.1627 16.4435 87.1669 11.48 84.7177C6.53815 82.279 2.55295 79.2919 0.32767 75.6632C-0.424529 74.4362 0.162254 72.9342 1.63822 72.3087C3.11426 71.6833 4.92091 72.1712 5.67337 73.3982C7.19782 75.884 10.153 78.2627 14.5425 80.4287C18.9105 82.5841 24.5047 84.4322 30.9976 85.9305C43.982 88.9269 60.1918 90.4403 76.4683 90.3811C92.7472 90.3218 108.908 88.6907 121.802 85.4946C128.249 83.8966 133.784 81.9306 138.086 79.6323C142.4 77.3282 145.313 74.7783 146.799 72.0603Z" fill="#F3CE9E"/>
<path d="M11.077 78.7891C35.3063 33.2161 137.993 56.6433 143.185 77.4116C126.455 99.3333 24.3454 100.134 11.077 78.7891Z" fill="#DB8836"/>
<path d="M66.3052 0.648412C68.4518 -0.674154 71.2072 0.0914068 72.4595 2.35856C73.7117 4.62589 72.9869 7.53607 70.8403 8.85876C67.7771 10.746 66.0979 12.492 65.1851 13.9737C64.318 15.3812 63.9982 16.7782 64.0386 18.343C64.0817 20.0126 64.5403 21.9554 65.4068 24.3192C66.2785 26.6972 67.4327 29.1703 68.731 32.0107C71.2068 37.4274 74.2087 44.1132 74.5278 51.4041C74.8645 59.0977 72.2329 66.8834 64.7974 74.5663C63.0208 76.402 60.1711 76.3685 58.4331 74.4921C56.6955 72.6156 56.727 69.6066 58.5034 67.7711C64.3358 61.7447 65.7418 56.5062 65.5376 51.8424C65.3158 46.7758 63.1984 41.7697 60.6265 36.1427C59.4009 33.4614 58.0488 30.5742 57.0142 27.7519C55.9743 24.9152 55.1255 21.8162 55.0425 18.6019C54.9568 15.2829 55.6925 11.9531 57.6421 8.78862C59.5461 5.69831 62.4459 3.0262 66.3052 0.648412ZM99.4702 0.845419C101.514 -0.648712 104.317 -0.110067 105.732 2.04809C107.147 4.20632 106.637 7.1676 104.593 8.66176C97.9397 13.5271 96.611 17.598 96.6616 20.968C96.7229 25.0446 98.729 29.3882 101.497 35.1144C104.014 40.3223 107.234 46.8169 107.422 53.7145C107.627 61.2321 104.313 68.32 96.1128 74.9438C94.1386 76.5384 91.3139 76.1409 89.8042 74.0558C88.2947 71.9707 88.6711 68.9882 90.645 67.3936C97.1544 62.1361 98.528 57.7232 98.4263 53.9878C98.3076 49.6323 96.2279 45.1206 93.481 39.4372C90.9846 34.2721 87.7636 27.8381 87.6626 21.1186C87.551 13.6924 91.125 6.94761 99.4702 0.845419Z" fill="#FFD1A7" fill-opacity="0.6"/>
</svg>
