<svg width="200" height="200" viewBox="0 0 200 200" fill="none" xmlns="http://www.w3.org/2000/svg">
<path d="M190 122.727C190 154.91 149.706 181 100 181C50.2944 181 10 154.91 10 122.727C10 90.5433 50.2944 64.4534 100 64.4534C149.706 64.4534 190 90.5433 190 122.727Z" fill="#E8C483"/>
<path d="M190 117.871C190 149.756 149.706 175.605 100 175.605C50.2944 175.605 10 149.756 10 117.871C10 85.9852 50.2944 60.1369 100 60.1369C149.706 60.1369 190 85.9852 190 117.871Z" fill="#F9DCA6"/>
<path d="M176.071 113.554C176.071 138.884 142.253 159.417 100.536 159.417C58.8185 159.417 25 138.884 25 113.554C25 88.2245 58.8185 67.6908 100.536 67.6908C142.253 67.6908 176.071 88.2245 176.071 113.554Z" fill="#E7C280"/>
<path d="M50.8108 86.8213C92.1257 80.8008 116.213 76.9278 160.223 69.4576C160.284 69.4472 160.341 69.494 160.341 69.5559V109.684C160.341 109.732 160.306 109.774 160.258 109.782L50.8108 128.542C46.569 128.727 44.0139 129.513 40.9532 125.092C40.9417 125.075 40.9351 125.055 40.9351 125.034V85.6616C40.9351 85.574 41.0405 85.528 41.1067 85.5852C42.7704 87.0232 45.0659 87.2481 50.8108 86.8213Z" fill="#FADEB6"/>
<path d="M159.841 109.346L50.7562 128.044C50.2321 128.067 49.7339 128.1 49.263 128.13C48.7804 128.16 48.3274 128.188 47.8939 128.203C47.0259 128.233 46.2608 128.209 45.5443 128.056C44.171 127.761 42.8857 126.968 41.4349 124.905V86.4502C42.2212 86.9491 43.1494 87.2501 44.3675 87.3984C45.9206 87.5875 47.9745 87.5338 50.848 87.3203C50.8597 87.3194 50.8715 87.3181 50.8831 87.3164C92.0568 81.3165 116.123 77.4475 159.841 70.0283V109.346ZM40.4349 125.034C40.4349 125.16 40.4749 125.28 40.5423 125.377C42.1237 127.661 43.6263 128.666 45.3343 129.033C46.1691 129.212 47.0296 129.233 47.929 129.202C48.3791 129.187 48.8457 129.158 49.3265 129.128C49.8094 129.097 50.3081 129.065 50.8324 129.042C50.8532 129.041 50.8742 129.039 50.8949 129.035L160.342 110.275C160.63 110.226 160.841 109.976 160.841 109.684V69.5557C160.841 69.2208 160.575 68.9731 160.271 68.957L160.139 68.9648L144.497 71.6084C109.848 77.4349 86.8931 81.0575 50.7581 86.3232C47.8952 86.5356 45.9328 86.5821 44.4886 86.4062C43.062 86.2325 42.1733 85.846 41.4339 85.207L41.3607 85.1533C40.9839 84.9153 40.4352 85.1581 40.4349 85.6611V125.034Z" fill="#FBDEB6"/>
<path d="M94.6979 24.9847C91.4199 26.9118 41.9635 67.362 39.3921 77.0861C36.8208 86.8102 139.649 63.0271 158.2 62.076C176.751 61.1249 97.9759 23.0576 94.6979 24.9847Z" fill="#AA6638"/>
<path d="M49.0227 106.29L160.225 87.5365C160.286 87.5262 160.341 87.5732 160.341 87.6351V95.0811C160.341 95.1299 160.306 95.1716 160.258 95.1797L49.0152 113.94C44.2927 114.508 42.2891 114.107 40.0667 111.884C40.0481 111.865 40.0373 111.839 40.0373 111.813V104.427C40.0373 104.341 40.1399 104.295 40.2057 104.351C42.4527 106.25 44.7449 106.359 49.0075 106.291C49.0126 106.291 49.0177 106.291 49.0227 106.29Z" fill="#B26C3A"/>
<path d="M159.841 94.7424L48.9554 113.444L48.1077 113.538C46.2071 113.73 44.8343 113.722 43.7132 113.471C42.5034 113.199 41.5549 112.633 40.5374 111.642V105.236C42.7523 106.781 45.1527 106.853 49.0159 106.791L49.1058 106.783L159.841 88.1076V94.7424ZM39.5374 111.813C39.5374 111.974 39.6021 112.126 39.7132 112.238C40.8741 113.399 42.0118 114.114 43.4945 114.446C44.951 114.773 46.7037 114.722 49.0745 114.437C49.0823 114.436 49.0903 114.434 49.098 114.433L160.341 95.673C160.63 95.6243 160.841 95.374 160.841 95.0812V87.635C160.841 87.2869 160.548 87.0167 160.209 87.0354L160.141 87.0432L48.974 105.791C44.7117 105.859 42.611 105.728 40.5286 103.969C40.1513 103.65 39.5378 103.898 39.5374 104.427V111.813Z" fill="#B8743E"/>
<path d="M49.0227 79.866L160.225 61.1124C160.286 61.1022 160.341 61.1492 160.341 61.2111V68.6571C160.341 68.7059 160.306 68.7476 160.258 68.7557L49.0152 87.5161C44.2927 88.0838 42.2891 87.6832 40.0667 85.4596C40.0481 85.441 40.0373 85.4153 40.0373 85.3889V78.0034C40.0373 77.9172 40.1399 77.8713 40.2057 77.927C42.4527 79.8256 44.7449 79.9353 49.0075 79.8674C49.0126 79.8673 49.0177 79.8668 49.0227 79.866Z" fill="#8F512C"/>
<path d="M159.841 68.3184L48.9554 87.0195L48.1077 87.1143C46.2071 87.3057 44.8343 87.2983 43.7132 87.0469C42.5034 86.7755 41.5549 86.209 40.5374 85.2178V78.8115C42.7523 80.3573 45.1527 80.4288 49.0159 80.3672L49.1058 80.3594L159.841 61.6836V68.3184ZM39.5374 85.3887C39.5374 85.5495 39.6021 85.7023 39.7132 85.8135C40.8741 86.9749 42.0118 87.6898 43.4945 88.0225C44.951 88.3492 46.7037 88.2977 49.0745 88.0127C49.0823 88.0118 49.0903 88.0101 49.098 88.0088L160.341 69.249C160.63 69.2003 160.841 68.95 160.841 68.6572V61.2109C160.841 60.8629 160.548 60.5927 160.209 60.6113L160.141 60.6191L48.974 79.3672C44.7117 79.4345 42.611 79.3045 40.5286 77.5449C40.1513 77.2261 39.5378 77.4741 39.5374 78.0029V85.3887Z" fill="#874B29"/>
<path d="M76.0252 66.252C76.3359 67.3684 75.4792 68.5947 74.1117 68.991C72.7443 69.3874 71.3839 68.8037 71.0732 67.6873C70.7624 66.5709 71.6191 65.3446 72.9866 64.9482C74.354 64.5519 75.7145 65.1356 76.0252 66.252Z" fill="#824727"/>
<path d="M61.6111 69.4039C61.9218 70.5203 61.0651 71.7466 59.6977 72.143C58.3302 72.5393 56.9698 71.9556 56.6591 70.8392C56.3484 69.7228 57.2051 68.4965 58.5725 68.1001C59.94 67.7038 61.3004 68.2875 61.6111 69.4039Z" fill="#824727"/>
<path d="M135.901 48.6084C136.326 49.6848 135.602 50.9971 134.284 51.5396C132.966 52.0821 131.552 51.6493 131.127 50.5729C130.702 49.4966 131.426 48.1842 132.744 47.6418C134.062 47.0993 135.476 47.5321 135.901 48.6084Z" fill="#824727"/>
<path d="M132.652 57.8463C132.963 58.9627 132.106 60.1891 130.738 60.5854C129.371 60.9817 128.011 60.398 127.7 59.2816C127.389 58.1652 128.246 56.9389 129.613 56.5426C130.981 56.1462 132.341 56.7299 132.652 57.8463Z" fill="#824727"/>
<path d="M146.036 55.7451C146.347 56.8615 145.49 58.0878 144.123 58.4841C142.756 58.8805 141.395 58.2967 141.084 57.1804C140.774 56.064 141.63 54.8376 142.998 54.4413C144.365 54.045 145.726 54.6287 146.036 55.7451Z" fill="#824727"/>
<path d="M98.5634 23.2939C107.603 25.2809 110.612 29.0115 112.535 39.8489C112.544 39.9001 112.513 39.9514 112.463 39.9646L82.1075 47.9319C82.0331 47.9514 81.966 47.881 81.9866 47.8069C83.8795 40.991 86.6827 38.3981 93.2713 35.0002C93.2755 34.998 93.2797 34.9954 93.2836 34.9926C98.5157 31.2715 100.515 28.9317 98.4467 23.4298C98.4187 23.3553 98.4857 23.2768 98.5634 23.2939Z" fill="#FEE3BA"/>
<path d="M97.9782 23.6055C97.8137 23.1671 98.1982 22.7019 98.6706 22.8057C103.239 23.8098 106.377 25.2739 108.601 27.9317C110.812 30.5728 112.063 34.3257 113.028 39.7617C113.081 40.0595 112.901 40.3664 112.59 40.4483L82.2341 48.4151C81.7706 48.5365 81.3852 48.1026 81.5046 47.6729L81.6882 47.0371C82.6179 43.9154 83.7824 41.6604 85.4987 39.7842C87.3163 37.7974 89.7211 36.2694 93.0143 34.5694C95.6264 32.7104 97.3276 31.2618 98.1579 29.6504C98.9645 28.0846 98.9845 26.2826 97.9782 23.6055ZM99.1559 23.9434C99.9762 26.4296 99.9498 28.357 99.0475 30.1084C98.0894 31.9681 96.1808 33.5447 93.5729 35.3994L93.5739 35.4004C93.5508 35.4169 93.5258 35.4314 93.5007 35.4444C90.2195 37.1365 87.9363 38.6015 86.237 40.459C84.6611 42.1816 83.5606 44.2728 82.6628 47.2686L111.975 39.5742C111.027 34.3767 109.823 30.9487 107.835 28.5733C105.922 26.288 103.232 24.9171 99.1559 23.9434Z" fill="#FEE3BA"/>
<path d="M121.622 48.5934C121.622 55.7615 112.485 61.5724 101.214 61.5724C89.9433 61.5724 80.8065 55.7615 80.8065 48.5934C80.8065 41.4253 89.9433 35.6144 101.214 35.6144C112.485 35.6144 121.622 41.4253 121.622 48.5934Z" fill="#FFE3B3"/>
<path d="M114.197 39.2919L112.081 38.1382C112.029 38.11 111.964 38.134 111.94 38.188C108.761 45.4889 103.99 46.7354 94.6114 47.9486C94.5298 47.9592 94.4921 48.0559 94.5534 48.1107C97.1185 50.4022 106.381 50.4112 109.717 48.5924C113.1 46.7485 114.074 43.1549 114.249 39.3841C114.251 39.346 114.231 39.3101 114.197 39.2919Z" fill="#FDD090"/>
<path d="M112.198 37.6481L112.321 37.6989L114.437 38.8532C114.638 38.9629 114.76 39.1776 114.749 39.4069C114.572 43.2201 113.581 47.0562 109.956 49.0319C109.05 49.5261 107.781 49.8774 106.379 50.1003C104.969 50.3245 103.389 50.4244 101.836 50.3933C100.284 50.3621 98.7457 50.2004 97.4232 49.8962C96.1164 49.5956 94.9564 49.141 94.22 48.4831C94.0233 48.3071 93.983 48.0474 94.0599 47.8395C94.1338 47.6397 94.315 47.4829 94.5472 47.4528L96.2513 47.2233C100.097 46.6815 103.035 46.0703 105.377 44.904C108.017 43.5894 109.93 41.5506 111.482 37.988L111.543 37.8796C111.687 37.678 111.949 37.5765 112.198 37.6481ZM112.219 38.7819C110.619 42.2834 108.606 44.4128 105.824 45.7985C103.201 47.1046 99.9254 47.7323 95.7699 48.2966C96.2788 48.5395 96.9119 48.7523 97.6478 48.9216C98.8875 49.2067 100.355 49.3631 101.856 49.3933C103.356 49.4234 104.878 49.3269 106.223 49.113C107.577 48.8977 108.716 48.5681 109.478 48.153C112.549 46.4789 113.531 43.2375 113.735 39.6091L112.219 38.7819Z" fill="#FDD090"/>
<path d="M49.65 127.91L160.997 109.429C161.058 109.419 161.113 109.466 161.113 109.527V116.862C161.113 116.911 161.078 116.953 161.03 116.961L49.6426 135.448C44.9144 136.008 42.9081 135.613 40.6831 133.422C40.664 133.404 40.653 133.378 40.653 133.351V126.075C40.653 125.989 40.7549 125.943 40.8208 125.998C43.0711 127.87 45.3662 127.978 49.6351 127.911C49.64 127.911 49.6451 127.91 49.65 127.91Z" fill="#8F512C"/>
<path d="M160.613 116.523L49.5841 134.951C47.23 135.23 45.6164 135.262 44.3321 134.979C43.1199 134.711 42.171 134.152 41.1534 133.177V126.876C43.3711 128.401 45.7729 128.471 49.6427 128.41C49.6719 128.41 49.7018 128.408 49.7315 128.403L160.613 109.999V116.523ZM40.1534 133.351C40.1534 133.513 40.219 133.667 40.3321 133.779C41.495 134.924 42.6333 135.628 44.1163 135.955C45.5734 136.277 47.3273 136.225 49.7012 135.945C49.709 135.944 49.717 135.943 49.7247 135.942L161.111 117.454C161.365 117.412 161.559 117.215 161.604 116.97L161.613 116.863V109.528L161.609 109.459C161.574 109.146 161.299 108.912 160.983 108.928L160.915 108.936L49.5968 127.411C45.331 127.478 43.2261 127.348 41.1407 125.614C40.7623 125.299 40.1537 125.548 40.1534 126.074V133.351Z" fill="#874B29"/>
<path d="M65.7295 59.9476C66.0402 61.064 65.1836 62.2903 63.8161 62.6867C62.4486 63.083 61.0882 62.4993 60.7775 61.3829C60.4668 60.2665 61.3235 59.0402 62.6909 58.6438C64.0584 58.2475 65.4188 58.8312 65.7295 59.9476Z" fill="#824727"/>
</svg>
