<svg width="200" height="200" viewBox="0 0 200 200" fill="none" xmlns="http://www.w3.org/2000/svg">
<ellipse cx="100" cy="122.727" rx="90" ry="58.2734" fill="#E8C483"/>
<ellipse cx="100" cy="117.871" rx="90" ry="57.7338" fill="#F9DCA6"/>
<ellipse cx="100.536" cy="113.554" rx="75.5357" ry="45.8633" fill="#E7C280"/>
<path d="M50.811 86.8213C92.1258 80.8008 116.213 76.9278 160.223 69.4576C160.284 69.4472 160.341 69.494 160.341 69.5559V109.684C160.341 109.732 160.306 109.774 160.258 109.782L50.811 128.542C46.5692 128.727 44.014 129.513 40.9534 125.092C40.9419 125.075 40.9353 125.055 40.9353 125.034V85.6616C40.9353 85.574 41.0406 85.528 41.1069 85.5852C42.7706 87.0232 45.0661 87.2481 50.811 86.8213Z" fill="#FADEB6" stroke="#FBDEB6" stroke-linecap="round" stroke-linejoin="round"/>
<path d="M94.6983 24.9845C91.4204 26.9116 41.9639 67.3618 39.3925 77.0859C36.8212 86.81 139.65 63.0269 158.201 62.0758C176.752 61.1247 97.9763 23.0574 94.6983 24.9845Z" fill="#AA6638"/>
<path d="M49.0228 106.29L160.225 87.5363C160.286 87.526 160.341 87.573 160.341 87.6349V95.0809C160.341 95.1297 160.306 95.1714 160.258 95.1795L49.0154 113.94C44.2929 114.508 42.2893 114.107 40.0669 111.883C40.0482 111.865 40.0375 111.839 40.0375 111.813V104.427C40.0375 104.341 40.1401 104.295 40.2059 104.351C42.4529 106.249 44.745 106.359 49.0077 106.291C49.0127 106.291 49.0179 106.291 49.0228 106.29Z" fill="#B26C3A" stroke="#B8743E" stroke-linecap="round" stroke-linejoin="round"/>
<path d="M49.0228 79.866L160.225 61.1124C160.286 61.1022 160.341 61.1492 160.341 61.2111V68.6571C160.341 68.7059 160.306 68.7476 160.258 68.7557L49.0154 87.5161C44.2929 88.0838 42.2893 87.6832 40.0669 85.4596C40.0482 85.441 40.0375 85.4153 40.0375 85.3889V78.0034C40.0375 77.9172 40.1401 77.8713 40.2059 77.927C42.4529 79.8256 44.745 79.9353 49.0077 79.8674C49.0127 79.8673 49.0179 79.8668 49.0228 79.866Z" fill="#8F512C" stroke="#874B29" stroke-linecap="round" stroke-linejoin="round"/>
<ellipse cx="2.57791" cy="2.09824" rx="2.57791" ry="2.09824" transform="matrix(0.960471 -0.278379 0.268119 0.963386 70.5107 65.6655)" fill="#824727"/>
<ellipse cx="2.57791" cy="2.09824" rx="2.57791" ry="2.09824" transform="matrix(0.960471 -0.278379 0.268119 0.963386 56.0967 68.8174)" fill="#824727"/>
<ellipse cx="2.58138" cy="2.09551" rx="2.58138" ry="2.09551" transform="matrix(0.924774 -0.380516 0.367462 0.930039 130.357 48.624)" fill="#824727"/>
<ellipse cx="2.57791" cy="2.09824" rx="2.57791" ry="2.09824" transform="matrix(0.960471 -0.278379 0.268119 0.963386 127.138 57.2598)" fill="#824727"/>
<ellipse cx="2.57791" cy="2.09824" rx="2.57791" ry="2.09824" transform="matrix(0.960471 -0.278379 0.268119 0.963386 140.522 55.1587)" fill="#824727"/>
<path d="M98.5632 23.2939C107.603 25.2809 110.611 29.0115 112.535 39.8489C112.544 39.9001 112.513 39.9514 112.462 39.9646L82.1073 47.9319C82.0329 47.9514 81.9659 47.881 81.9864 47.8068C83.8793 40.991 86.6825 38.3981 93.2711 35.0001C93.2753 34.998 93.2796 34.9954 93.2834 34.9926C98.5156 31.2715 100.515 28.9317 98.4465 23.4298C98.4185 23.3553 98.4855 23.2768 98.5632 23.2939Z" fill="#FEE3BA" stroke="#FEE3BA" stroke-linecap="round" stroke-linejoin="round"/>
<ellipse cx="101.214" cy="48.5933" rx="20.4077" ry="12.979" fill="#FFE3B3"/>
<path d="M114.197 39.2917L112.081 38.138C112.029 38.1098 111.964 38.1338 111.94 38.1878C108.76 45.4888 103.99 46.7352 94.6111 47.9484C94.5295 47.959 94.4918 48.0557 94.5531 48.1105C97.1182 50.402 106.38 50.411 109.717 48.5923C113.099 46.7483 114.074 43.1548 114.249 39.3839C114.251 39.3458 114.231 39.31 114.197 39.2917Z" fill="#FDD090" stroke="#FDD090" stroke-linecap="round" stroke-linejoin="round"/>
<path d="M49.6499 127.909L160.997 109.428C161.058 109.418 161.113 109.465 161.113 109.527V116.862C161.113 116.911 161.078 116.953 161.03 116.961L49.6425 135.448C44.9143 136.008 42.9081 135.613 40.683 133.422C40.664 133.403 40.653 133.377 40.653 133.351V126.075C40.653 125.989 40.7548 125.943 40.8208 125.998C43.071 127.87 45.3662 127.978 49.635 127.911C49.6399 127.911 49.645 127.91 49.6499 127.909Z" fill="#8F512C" stroke="#874B29" stroke-linecap="round" stroke-linejoin="round"/>
<ellipse cx="2.57791" cy="2.09824" rx="2.57791" ry="2.09824" transform="matrix(0.960471 -0.278379 0.268119 0.963386 60.2148 59.3613)" fill="#824727"/>
</svg>
