<svg width="200" height="200" viewBox="0 0 200 200" fill="none" xmlns="http://www.w3.org/2000/svg">
<path d="M96.5 11L93.419 18.1889C92.5285 20.2668 92.6963 22.6468 93.8695 24.5792L98.1293 31.5952C99.5699 33.9681 99.4723 36.9681 97.8804 39.2423L93.5 45.5M111 17L108.766 23.0649C107.973 25.2167 108.284 27.6204 109.599 29.4991L112.026 32.9656C113.543 35.1326 113.709 37.9696 112.455 40.2986L111 43" stroke="#62341D" stroke-width="5" stroke-linecap="round" stroke-linejoin="round"/>
<path d="M142.636 167.307C111.011 180.887 92.4873 180.751 60.3566 167.288C59.6954 167.011 58.9507 167.49 58.9507 168.206V180.401C58.9507 180.869 59.2899 181.277 59.7459 181.38C98.9341 190.203 107.613 190.207 143.277 181.392C143.723 181.282 144.05 180.878 144.05 180.418V168.222C144.05 167.501 143.298 167.022 142.636 167.307Z" fill="#F4B13B" stroke="#EDA733"/>
<path d="M184.853 95.3696H18.1487C17.5417 95.3696 17.076 95.9167 17.161 96.5178C21.7052 128.647 27.3636 145.266 58.796 168.55C58.8962 168.624 59.0148 168.682 59.1352 168.714C95.4944 178.516 116.102 179.31 143.493 168.707C143.564 168.679 143.635 168.642 143.698 168.599C172.839 148.665 180.84 131.84 185.84 96.5182C185.925 95.9174 185.46 95.3696 184.853 95.3696Z" fill="#BC3621" stroke="#BE3621"/>
<ellipse cx="101.5" cy="95.3694" rx="84.5004" ry="33.8489" fill="#CE442D"/>
<ellipse cx="101.5" cy="94.7653" rx="80.9046" ry="29.6178" fill="#A92D1B"/>
<ellipse cx="101.501" cy="102.019" rx="77.3089" ry="22.3645" fill="#B9591E"/>
<path d="M75.9838 123.355C59.9549 122.619 51.8178 119.929 38.5745 115.921C38.5745 115.921 46.1416 121.162 54.1561 122.57C62.1706 123.978 81.5548 124.878 75.9838 123.355Z" fill="#DB4E32" stroke="#D2452D"/>
<path d="M48.2018 81.3362C48.6032 81.3398 48.9699 81.6005 49.1282 81.9694C59.8884 107.036 79.527 95.7481 75.4912 85.4712C75.1901 84.7045 75.7232 83.7523 76.5468 83.7601C85.0474 83.8406 88.9187 81.8072 92.0821 75.1455C92.416 74.4424 93.39 74.3303 93.8356 74.9685C100.229 84.1274 101.09 90.2499 98.3209 101.529C98.2932 101.642 98.2437 101.753 98.1788 101.85C90.7089 112.945 84.7 116.194 72.9278 119.901C72.8107 119.938 72.6824 119.953 72.5599 119.946C57.6892 118.991 52.5385 116.978 47.0665 111.746C36.7333 99.1497 35.1691 92.6711 35.5737 82.1849C35.5944 81.6482 36.0401 81.2273 36.5771 81.2321L48.2018 81.3362Z" fill="#FE9B41" stroke="#FF9E45"/>
<path d="M41.096 104.323C41.1245 104.515 41.1838 104.677 41.2752 104.807C41.7794 105.523 41.5614 105.111 41.096 104.323C40.7274 101.844 45.5094 94.523 52.4492 90.9194C52.9793 90.6442 53.189 89.9802 52.8826 89.4675L52.1587 88.2562C51.9289 87.8717 51.4709 87.6857 51.0406 87.8101C43.8506 89.8894 41.1404 92.8098 39.0238 100.308C38.9483 100.575 38.9889 100.864 39.1349 101.1C39.5692 101.803 40.5212 103.35 41.096 104.323Z" fill="#F97E25"/>
<path d="M58.5777 117.672C59.5073 118.42 56.6342 117.261 55.5405 116.808C55.282 116.7 55.0819 116.486 54.9895 116.221C52.5261 109.175 51.8968 104.815 58.0994 95.6587C58.3894 95.2306 58.9628 95.0998 59.4119 95.3561L60.3152 95.8716C60.895 96.2025 60.9929 97 60.5697 97.5162C55.0146 104.293 57.4923 116.798 58.5777 117.672Z" fill="#F97E25"/>
<path d="M80.1153 117.303C80.8001 116.833 81.9103 116.147 82.5218 116.176C82.787 116.329 82.9059 116.373 82.8347 116.299C82.7587 116.22 82.6514 116.182 82.5218 116.176C80.5679 115.044 70.6736 107.941 70.3859 97.8665C70.3667 97.1947 69.7455 96.6745 69.0925 96.8337L67.8846 97.1282C67.4093 97.2441 67.0865 97.689 67.1312 98.1762C68.0158 107.823 71.2508 111.891 78.9203 117.309C79.2764 117.56 79.7558 117.55 80.1153 117.303Z" fill="#F97E25"/>
<path d="M99.338 96.2139C99.7372 94.7133 98.8503 98.3582 98.4812 99.8695C98.3887 100.249 98.0822 100.538 97.6985 100.609C89.2277 102.182 84.0148 101.651 74.3122 94.3495C73.9306 94.0623 73.8065 93.5404 74.0184 93.1124L74.837 91.4593C75.1782 90.7705 76.1494 90.7033 76.6561 91.2813C83.6126 99.2163 98.865 97.9915 99.338 96.2139Z" fill="#F97E25"/>
<path d="M41.2752 104.807C40.001 102.998 44.973 94.8015 52.4492 90.9194C52.9793 90.6442 53.189 89.9802 52.8826 89.4675L52.1587 88.2562C51.9289 87.8717 51.4709 87.6857 51.0406 87.8101C43.8506 89.8894 41.1404 92.8098 39.0238 100.308C38.9483 100.575 38.9889 100.864 39.1349 101.1C39.9207 102.372 42.4022 106.407 41.2752 104.807ZM58.5777 117.672C59.5073 118.42 56.6342 117.261 55.5405 116.808C55.282 116.7 55.0819 116.486 54.9895 116.221C52.5261 109.175 51.8968 104.815 58.0994 95.6587C58.3894 95.2306 58.9628 95.0998 59.4119 95.3561L60.3152 95.8716C60.895 96.2025 60.9929 97 60.5697 97.5162C55.0146 104.293 57.4923 116.798 58.5777 117.672ZM82.8347 116.299C82.4002 115.847 80.9453 116.733 80.1153 117.303C79.7558 117.55 79.2764 117.56 78.9203 117.309C71.2508 111.891 68.0158 107.823 67.1312 98.1762C67.0865 97.689 67.4093 97.2441 67.8846 97.1282L69.0925 96.8337C69.7455 96.6745 70.3667 97.1947 70.3859 97.8665C70.7126 109.309 83.4309 116.918 82.8347 116.299ZM99.338 96.2139C99.7372 94.7133 98.8503 98.3582 98.4812 99.8695C98.3887 100.249 98.0822 100.538 97.6985 100.609C89.2277 102.182 84.0148 101.651 74.3122 94.3495C73.9306 94.0623 73.8065 93.5404 74.0184 93.1124L74.837 91.4593C75.1782 90.7705 76.1494 90.7033 76.6561 91.2813C83.6126 99.2163 98.865 97.9915 99.338 96.2139Z" stroke="#F67B23"/>
<path d="M92.7173 74.8345C89.6668 82.9429 86.2124 85.6331 75.5199 84.2016C75.1839 84.1566 74.8869 83.9373 74.75 83.6271C71.651 76.6071 73.6424 74.0239 80.2923 70.8317C80.3858 70.7868 80.4904 70.7556 80.5933 70.7421C86.861 69.9165 89.4385 70.8177 92.4909 73.797C92.7657 74.0653 92.8526 74.475 92.7173 74.8345Z" fill="#FEB465" stroke="#FFA046"/>
<path d="M48.179 81.1345L36.3539 81.5799C35.8276 81.5998 35.3756 81.2035 35.321 80.6797L35.3029 80.506C33.7781 65.8846 32.8728 57.2042 38.3642 52.5417C38.6322 52.3141 39.0108 52.2567 39.3135 52.4356C43.0053 54.6176 44.8268 63.6045 44.5183 61.2923C44.2655 59.3972 49.3774 54.317 51.3494 53.0047C51.8172 52.6933 52.5407 53.0365 53.0543 53.2645C56.8303 54.9408 56.2476 59.2739 55.5568 66.2629C54.5422 73.5883 52.5175 76.2857 48.9211 80.7612C48.7397 80.987 48.4684 81.1236 48.179 81.1345Z" fill="#F57523" stroke="#FB7F49"/>
<path d="M39.7205 81.4661L35.2192 82.2827C35.2192 82.2827 35.2989 74.6833 34.2511 65.6488C33.2033 56.6143 38.69 51.3041 39.793 53.0717L39.7205 81.4661Z" fill="#E9682F"/>
<path d="M46.3514 80.9941L42.431 81.218C42.956 73.7903 42.5761 69.7418 44.0765 61.9175C45.5769 54.0933 52.0705 51.3906 52.2079 53.6212L46.3514 80.9941Z" fill="#E9682F"/>
<path d="M39.7205 81.4661L35.2192 82.2827C35.2192 82.2827 35.2989 74.6833 34.2511 65.6488C33.2033 56.6143 38.69 51.3041 39.793 53.0717L39.7205 81.4661Z" stroke="#E9682F"/>
<path d="M46.3514 80.9941L42.431 81.218C42.956 73.7903 42.5761 69.7418 44.0765 61.9175C45.5769 54.0933 52.0705 51.3906 52.2079 53.6212L46.3514 80.9941Z" stroke="#E9682F"/>
<path d="M91.3458 112.05C75.4669 117.156 64.7371 116.176 44.2213 111.055C44.1373 111.034 44.065 111.122 44.1058 111.199L46.9095 116.464C46.9217 116.487 46.943 116.505 46.9677 116.513C65.0842 122.353 75.1007 123.476 90.8792 116.023C90.9096 116.009 90.9314 115.98 90.9362 115.947L91.4773 112.159C91.4878 112.085 91.4162 112.027 91.3458 112.05Z" fill="#B9591E" stroke="#B9591E"/>
<path d="M124.903 109.596C117.748 104.035 113.419 104.487 105.114 114.041C105.064 114.098 105.094 114.192 105.169 114.207C113.766 115.979 118.269 115.509 124.907 109.753C124.955 109.712 124.952 109.635 124.903 109.596Z" fill="#778631" stroke="#94A13A"/>
<path d="M144.444 60.7683C141.295 60.5703 139.679 61.1849 137.127 63.1726C137.069 63.218 137.077 63.3094 137.144 63.3416L152.364 70.706C152.428 70.7372 152.504 70.6911 152.507 70.6194C152.648 67.0269 151.718 65.0733 148.565 62.3284C148.528 62.2962 148.519 62.2403 148.545 62.1985C151.151 57.9335 151.49 55.4153 150.506 50.8009C150.502 50.7822 150.493 50.7644 150.479 50.7509C149.523 49.7882 148.879 49.7152 147.54 50.7413C147.515 50.7602 147.5 50.7909 147.5 50.8221C147.526 54.9721 147.056 57.2053 144.533 60.7263C144.513 60.7543 144.478 60.7705 144.444 60.7683Z" fill="#606329" stroke="#606329"/>
<path d="M152.422 70.4623C147.219 67.9556 143.666 66.2339 137.066 63.032C137.027 63.0132 136.98 63.0211 136.95 63.0523C133.334 66.8151 131.25 71.347 127.603 79.2764L127.503 79.4926C127.501 79.4974 127.498 79.5023 127.495 79.5068C123.923 84.8124 120.879 87.2555 115.244 91.3238C115.166 91.38 115.206 91.5044 115.302 91.5064C125.713 91.726 130.621 91.7375 136.965 91.5013C136.987 91.5005 137.01 91.4916 137.027 91.4768C145.185 84.4394 149.447 80.3053 152.474 70.5834C152.489 70.5361 152.466 70.4838 152.422 70.4623Z" fill="#DC3C1B" stroke="#E74821"/>
<path d="M139 82.5C134.883 86.6826 131.597 89.0211 125.986 91.3048C125.884 91.3463 125.909 91.5 126.019 91.5H139C139.499 91.5 151.025 80.0358 152.489 70.5738C152.496 70.5297 152.472 70.4873 152.431 70.4688L147.109 68.0495C147.052 68.0237 146.986 68.0565 146.97 68.1169C145.617 73.3895 143.362 76.6497 139 82.5Z" fill="#D0331E" stroke="#D0331E"/>
<path d="M163.382 75.7158L132.292 97.2227C131.805 97.5592 131.716 98.2438 132.11 98.6842C140.364 107.891 149.064 109.028 158.171 105.53C167.341 102.008 172.627 89.2521 164.783 76.0139C164.494 75.5258 163.848 75.393 163.382 75.7158Z" fill="#727C2C" stroke="#7B8B31"/>
<path d="M160.393 77.9438L135.285 95.1669C134.794 95.5032 134.704 96.1926 135.105 96.6312C141.842 103.996 148.925 104.905 156.329 102.094C163.8 99.2575 168.102 88.9723 161.785 78.2407C161.499 77.7545 160.859 77.6247 160.393 77.9438Z" fill="#F6E27A" stroke="#F7E78B"/>
<path d="M138.036 98.1187C140.657 100.357 144.494 102.236 145.838 101.968C146.167 101.902 146.259 101.533 146.264 101.198C146.298 98.8378 146.411 89.0803 145.972 89.6823C145.614 90.172 140.922 93.4958 138.281 95.3478C137.325 96.0183 137.147 97.3602 138.036 98.1187Z" fill="#E0CA43"/>
<path d="M148.269 92.5635L148.147 99.7892C148.131 100.741 148.788 101.59 149.732 101.713C153.19 102.162 155.361 101.206 157.979 98.2933C158.738 97.4494 158.549 96.1438 157.631 95.4766L151.445 90.9797C150.136 90.0277 148.297 90.9448 148.269 92.5635Z" fill="#E0CA43"/>
<path d="M160.667 82.3737C162.11 86.221 162.374 88.9757 161.654 92.4565C161.388 93.7442 159.908 94.3065 158.787 93.6191L151.398 89.089C150.149 88.3229 150.121 86.5176 151.345 85.7127L157.787 81.4794C158.823 80.7985 160.231 81.2128 160.667 82.3737Z" fill="#E0CA43"/>
<path d="M138.036 98.1187C140.657 100.357 144.494 102.236 145.838 101.968C146.167 101.902 146.259 101.533 146.264 101.198C146.298 98.8378 146.411 89.0803 145.972 89.6823C145.614 90.172 140.922 93.4958 138.281 95.3478C137.325 96.0183 137.147 97.3602 138.036 98.1187Z" stroke="#E3D010"/>
<path d="M148.269 92.5635L148.147 99.7892C148.131 100.741 148.788 101.59 149.732 101.713C153.19 102.162 155.361 101.206 157.979 98.2933C158.738 97.4494 158.549 96.1438 157.631 95.4766L151.445 90.9797C150.136 90.0277 148.297 90.9448 148.269 92.5635Z" stroke="#E3D010"/>
<path d="M160.667 82.3737C162.11 86.221 162.374 88.9757 161.654 92.4565C161.388 93.7442 159.908 94.3065 158.787 93.6191L151.398 89.089C150.149 88.3229 150.121 86.5176 151.345 85.7127L157.787 81.4794C158.823 80.7985 160.231 81.2128 160.667 82.3737Z" stroke="#E3D010"/>
<ellipse cx="142.434" cy="97.5951" rx="1.33076" ry="0.853029" transform="rotate(-73.4574 142.434 97.5951)" fill="black" fill-opacity="0.25"/>
<ellipse cx="153.626" cy="97.8647" rx="1.06461" ry="1.42171" transform="rotate(-73.4574 153.626 97.8647)" fill="black" fill-opacity="0.25"/>
<ellipse cx="158.656" cy="89.919" rx="1.06461" ry="1.13737" transform="rotate(-73.4574 158.656 89.919)" fill="black" fill-opacity="0.25"/>
<ellipse cx="158.778" cy="85.5133" rx="1.06461" ry="1.13737" transform="rotate(-73.4574 158.778 85.5133)" fill="black" fill-opacity="0.25"/>
</svg>
