<svg width="200" height="200" viewBox="0 0 200 200" fill="none" xmlns="http://www.w3.org/2000/svg">
<path d="M94.2024 10.0156C94.7463 8.74662 96.2157 8.15847 97.4847 8.7021C98.7536 9.24594 99.3418 10.7153 98.7981 11.9843L95.7171 19.1738C95.1447 20.5095 95.2529 22.04 96.0071 23.2822L100.267 30.2978C102.222 33.518 102.089 37.5894 99.929 40.6757L95.5481 46.9335C94.7563 48.0646 93.1978 48.3396 92.0667 47.5478C90.9356 46.756 90.6607 45.1975 91.4524 44.0664L95.8323 37.8085C96.8557 36.3466 96.9186 34.418 95.9925 32.8925L91.7327 25.8769C90.1405 23.2544 89.9128 20.024 91.1214 17.2041L94.2024 10.0156ZM108.655 16.1357C109.132 14.8401 110.569 14.1769 111.865 14.6542C113.16 15.1316 113.823 16.5686 113.346 17.8642L111.112 23.9287C110.602 25.312 110.802 26.8577 111.648 28.0654L114.075 31.5322C116.133 34.4729 116.358 38.3228 114.657 41.4833L113.201 44.1855C112.547 45.401 111.03 45.8557 109.815 45.2011C108.599 44.5465 108.145 43.03 108.799 41.8144L110.254 39.1132C111.06 37.6161 110.953 35.7924 109.978 34.3994L107.551 30.9326C105.767 28.383 105.344 25.1204 106.42 22.2001L108.655 16.1357Z" fill="#62341D"/>
<path d="M142.636 167.307C111.011 180.887 92.4876 180.751 60.3569 167.288C59.6957 167.011 58.951 167.49 58.951 168.207V180.401C58.951 180.869 59.2902 181.277 59.7462 181.38C98.9344 190.203 107.613 190.208 143.277 181.392C143.723 181.282 144.051 180.878 144.051 180.418V168.222C144.051 167.501 143.299 167.022 142.636 167.307Z" fill="#F4B13B"/>
<path d="M58.451 180.401V168.207C58.451 167.12 59.571 166.417 60.5496 166.827C76.5867 173.546 89.1811 176.919 101.687 176.938C114.192 176.957 126.658 173.624 142.439 166.847C143.42 166.427 144.551 167.129 144.551 168.222V180.419C144.55 181.116 144.058 181.714 143.397 181.878C125.564 186.286 114.425 188.503 102.833 188.501C91.2445 188.499 79.228 186.279 59.6365 181.868C58.9614 181.716 58.451 181.111 58.451 180.401ZM59.451 180.401C59.451 180.625 59.6193 180.839 59.8562 180.892C79.4523 185.304 91.369 187.499 102.833 187.501C114.293 187.503 125.327 185.314 143.157 180.907C143.388 180.85 143.55 180.64 143.551 180.419V168.222C143.551 167.874 143.178 167.619 142.834 167.766C126.99 174.57 114.381 177.958 101.685 177.938C88.9909 177.919 76.2574 174.492 60.1639 167.749C59.8202 167.605 59.451 167.86 59.451 168.207V180.401Z" fill="#EDA733"/>
<path d="M184.853 95.3695H18.149C17.542 95.3695 17.0763 95.9166 17.1613 96.5177C21.7055 128.647 27.3639 145.266 58.7963 168.55C58.8965 168.624 59.0151 168.682 59.1355 168.714C95.4947 178.516 116.103 179.31 143.493 168.707C143.564 168.679 143.635 168.642 143.698 168.598C172.839 148.665 180.84 131.84 185.84 96.518C185.925 95.9173 185.46 95.3695 184.853 95.3695Z" fill="#BC3621"/>
<path d="M184.854 94.8695C185.771 94.8698 186.462 95.6937 186.335 96.5882C183.833 114.268 180.571 127.379 174.257 138.575C167.939 149.777 158.588 159.019 143.981 169.011C143.886 169.076 143.781 169.132 143.673 169.173C129.93 174.493 117.868 176.961 104.674 176.863C91.4903 176.764 77.2001 174.102 59.0052 169.197C58.8241 169.148 58.6484 169.063 58.4983 168.952C42.749 157.285 33.4136 147.257 27.4544 136.086C21.4988 124.922 18.9396 112.66 16.6663 96.5873C16.5399 95.6919 17.2314 94.8697 18.1487 94.8695H184.854ZM18.1487 95.8695C17.8523 95.8697 17.6132 96.1411 17.6565 96.4476C19.9275 112.504 22.4695 124.617 28.3372 135.616C34.2013 146.608 43.4112 156.532 59.094 168.149C59.1442 168.186 59.2064 168.216 59.2659 168.232C77.4299 173.128 91.6235 175.765 104.681 175.863C117.729 175.96 129.666 173.523 143.313 168.241C143.348 168.227 143.385 168.208 143.416 168.186C157.95 158.245 167.17 149.107 173.387 138.083C179.608 127.052 182.848 114.09 185.345 96.4476C185.388 96.1411 185.149 95.8698 184.854 95.8695H18.1487Z" fill="#BE3621"/>
<path d="M186.001 95.3694C186.001 114.064 148.169 129.218 101.501 129.218C54.8324 129.218 17.0003 114.064 17.0003 95.3694C17.0003 76.6751 54.8324 61.5205 101.501 61.5205C148.169 61.5205 186.001 76.6751 186.001 95.3694Z" fill="#CE442D"/>
<path d="M182.405 94.7652C182.405 111.123 146.183 124.383 101.501 124.383C56.8182 124.383 20.596 111.123 20.596 94.7652C20.596 78.4077 56.8182 65.1474 101.501 65.1474C146.183 65.1474 182.405 78.4077 182.405 94.7652Z" fill="#A92D1B"/>
<path d="M178.81 102.018C178.81 114.37 144.197 124.383 101.501 124.383C58.8041 124.383 24.1919 114.37 24.1919 102.018C24.1919 89.6669 58.8043 79.654 101.501 79.654C144.197 79.654 178.81 89.6669 178.81 102.018Z" fill="#B9591E"/>
<path d="M75.984 123.355C59.9552 122.619 51.8181 119.928 38.5747 115.921C38.5747 115.921 46.1419 121.161 54.1564 122.57C62.1709 123.978 81.555 124.878 75.984 123.355Z" fill="#DB4E32"/>
<path d="M38.7193 115.442C51.5469 119.324 59.5356 121.954 74.5337 122.781L76.0074 122.855L76.0621 122.858L76.1158 122.873C76.4717 122.97 76.7561 123.065 76.9585 123.161C77.0567 123.207 77.166 123.267 77.2564 123.348C77.3349 123.419 77.5 123.597 77.4712 123.869C77.4431 124.135 77.2505 124.274 77.1656 124.326C77.0654 124.387 76.9526 124.425 76.856 124.451C76.6569 124.505 76.3952 124.543 76.0972 124.571C74.9009 124.682 72.7185 124.667 70.1441 124.561C64.9834 124.35 58.1087 123.772 54.0699 123.062C49.9927 122.346 46.0463 120.659 43.1314 119.162C41.6713 118.412 40.464 117.706 39.6206 117.187C39.1988 116.928 38.8675 116.715 38.6412 116.566C38.5283 116.492 38.4414 116.434 38.3824 116.394C38.3528 116.374 38.3294 116.359 38.314 116.348C38.3065 116.343 38.3004 116.339 38.2964 116.337C38.2945 116.335 38.2936 116.334 38.2925 116.333L38.2906 116.332C38.2919 116.33 38.3111 116.301 38.5747 115.921L38.2906 116.332L38.7193 115.442ZM42.2456 117.554C42.6635 117.785 43.1115 118.027 43.5884 118.272C46.4606 119.747 50.3055 121.385 54.2427 122.077C58.2183 122.775 65.0429 123.351 70.1851 123.561C70.829 123.588 71.4446 123.608 72.023 123.622C59.9139 122.75 52.3327 120.607 42.2456 117.554Z" fill="#D2452D"/>
<path d="M48.2021 81.3361C48.6035 81.3397 48.9702 81.6004 49.1285 81.9693C59.8886 107.036 79.5273 95.748 75.4915 85.4712C75.1904 84.7045 75.7235 83.7523 76.5471 83.7601C85.0477 83.8405 88.919 81.8071 92.0824 75.1455C92.4163 74.4423 93.3903 74.3302 93.8359 74.9685C100.229 84.1274 101.09 90.2499 98.3212 101.529C98.2935 101.642 98.244 101.753 98.1791 101.85C90.7092 112.945 84.7003 116.194 72.9281 119.901C72.811 119.938 72.6827 119.953 72.5602 119.945C57.6895 118.99 52.5388 116.978 47.0668 111.746C36.7336 99.1497 35.1694 92.6711 35.574 82.1848C35.5947 81.6482 36.0404 81.2272 36.5774 81.232L48.2021 81.3361Z" fill="#FE9B41"/>
<path d="M87.4483 114.059C91.4241 111.35 94.836 107.711 98.5938 102.129C98.6915 101.984 98.7654 101.818 98.8072 101.648C100.198 95.9812 100.692 91.5548 100.008 87.373C99.3229 83.1865 97.4663 79.2954 94.2459 74.6823C93.5638 73.7051 92.1169 73.9086 91.6312 74.9309C90.0748 78.2083 88.3756 80.2802 86.0756 81.5422C83.7623 82.8115 80.772 83.2999 76.5513 83.26C75.9292 83.2543 75.4393 83.6138 75.1679 84.0687C74.8986 84.5202 74.8135 85.1122 75.0264 85.6543C76.8963 90.4169 73.3031 95.5449 67.775 96.4806C62.3394 97.4007 54.9175 94.187 49.5883 81.7718C49.3574 81.2339 48.8202 80.8417 48.2067 80.8362L36.582 80.7319C35.7774 80.7247 35.1057 81.356 35.0744 82.1654C34.8709 87.4391 35.1606 91.7531 36.8237 96.3439C38.4837 100.926 41.498 105.746 46.6799 112.063L46.6995 112.086L46.7211 112.108C49.4991 114.764 52.2167 116.619 56.1305 117.924C60.0241 119.221 65.0829 119.967 72.5285 120.445C72.7119 120.456 72.9018 120.433 73.0782 120.378C78.9756 118.521 83.4783 116.764 87.4483 114.059ZM97.7643 101.571C94.0523 107.084 90.7245 110.617 86.8855 113.233C83.0406 115.853 78.6526 117.574 72.7779 119.424C72.7202 119.442 72.6538 119.45 72.5923 119.446C65.1675 118.969 60.2149 118.23 56.4476 116.975C52.7105 115.73 50.1198 113.97 47.4336 111.406C42.2946 105.138 39.3665 100.426 37.7643 96.0037C36.1633 91.5846 35.8722 87.4162 36.0734 82.2038C36.0837 81.9402 36.3036 81.7296 36.5727 81.7319L48.1974 81.8362C48.3867 81.8379 48.5832 81.9672 48.669 82.1671C54.0998 94.8185 61.8769 98.4936 67.9417 97.4672C73.9137 96.4563 78.1225 90.8021 75.9571 85.2879C75.869 85.0635 75.8995 84.7957 76.0273 84.5815C76.1529 84.3709 76.341 84.2583 76.542 84.26C80.8218 84.3005 84.0186 83.8126 86.5568 82.4199C89.1083 81.02 90.927 78.7442 92.5339 75.3603C92.7162 74.9765 93.2176 74.9554 93.4265 75.2547C96.5995 79.8002 98.3694 83.5501 99.0211 87.5341C99.6736 91.523 99.2136 95.7979 97.8359 101.41C97.8222 101.466 97.7964 101.523 97.7643 101.571Z" fill="#FF9E45"/>
<path d="M41.0963 104.323C41.1248 104.515 41.184 104.677 41.2754 104.807C41.7796 105.523 41.5616 105.111 41.0963 104.323C40.7276 101.844 45.5096 94.5228 52.4494 90.9193C52.9795 90.644 53.1892 89.9801 52.8828 89.4673L52.1589 88.2561C51.9291 87.8716 51.4711 87.6855 51.0408 87.81C43.8508 89.8892 41.1407 92.8097 39.024 100.308C38.9486 100.575 38.9891 100.864 39.1351 101.1C39.5694 101.803 40.5215 103.35 41.0963 104.323Z" fill="#F97E25"/>
<path d="M58.578 117.672C59.5075 118.42 56.6344 117.261 55.5408 116.807C55.2822 116.7 55.0821 116.485 54.9897 116.221C52.5263 109.175 51.897 104.814 58.0996 95.6586C58.3896 95.2305 58.963 95.0996 59.4121 95.356L60.3154 95.8715C60.8952 96.2024 60.9931 96.9999 60.57 97.5161C55.0149 104.293 57.4926 116.798 58.578 117.672Z" fill="#F97E25"/>
<path d="M80.1155 117.303C80.8003 116.833 81.9105 116.147 82.522 116.175C82.7872 116.329 82.9061 116.372 82.8349 116.298C82.7589 116.219 82.6516 116.181 82.522 116.175C80.5681 115.044 70.6738 107.941 70.3861 97.8663C70.3669 97.1945 69.7457 96.6744 69.0928 96.8336L67.8848 97.128C67.4095 97.2439 67.0868 97.6888 67.1314 98.1761C68.016 107.823 71.251 111.89 78.9205 117.309C79.2766 117.56 79.756 117.55 80.1155 117.303Z" fill="#F97E25"/>
<path d="M99.3382 96.2138C99.7374 94.7132 98.8505 98.358 98.4815 99.8693C98.3889 100.248 98.0825 100.538 97.6987 100.609C89.2279 102.182 84.015 101.651 74.3124 94.3493C73.9308 94.0622 73.8067 93.5402 74.0186 93.1123L74.8372 91.4592C75.1784 90.7703 76.1496 90.7032 76.6564 91.2812C83.6128 99.2162 98.8652 97.9913 99.3382 96.2138Z" fill="#F97E25"/>
<path d="M41.8821 105.561C41.9911 105.471 42.0337 105.36 42.05 105.294C42.0662 105.228 42.0646 105.173 42.063 105.144C42.0598 105.085 42.0475 105.04 42.0425 105.022C42.0306 104.982 42.015 104.946 42.0063 104.927C41.9475 104.794 41.7835 104.507 41.5843 104.168C41.5444 103.692 41.7232 102.915 42.1927 101.9C42.6784 100.85 43.4361 99.6222 44.4263 98.3502C46.4082 95.8046 49.2864 93.1253 52.6803 91.363C53.4496 90.9633 53.7751 89.9854 53.3119 89.2104L52.5885 87.9995C52.2448 87.4245 51.5551 87.1403 50.9016 87.3293C47.2666 88.3806 44.6963 89.6638 42.769 91.6815C40.845 93.6957 39.6098 96.3926 38.543 100.172C38.4294 100.574 38.4901 101.008 38.7096 101.363C39.1339 102.05 40.0484 103.536 40.6237 104.507C40.6668 104.716 40.7418 104.918 40.8665 105.095C40.9899 105.27 41.0852 105.4 41.1479 105.472C41.1626 105.489 41.1915 105.521 41.2274 105.551C41.2416 105.563 41.2852 105.6 41.3497 105.63C41.3792 105.644 41.64 105.762 41.8821 105.561ZM40.7746 102.822C40.3121 102.061 39.8334 101.28 39.56 100.837C39.4876 100.72 39.4683 100.576 39.5056 100.444C40.5554 96.725 41.7336 94.212 43.4913 92.3717C45.2456 90.5351 47.6253 89.3178 51.1799 88.2899C51.3869 88.2301 51.6139 88.319 51.7297 88.5129L52.4532 89.7238C52.6028 89.9742 52.5097 90.3252 52.219 90.4761C48.6732 92.3174 45.6896 95.1004 43.6377 97.7359C42.6112 99.0544 41.8094 100.347 41.2853 101.48C41.0702 101.944 40.8969 102.397 40.7746 102.822ZM59.1912 118.139C59.269 118.002 59.2689 117.863 59.2482 117.765C59.2142 117.604 59.1154 117.494 59.0779 117.453C59.0241 117.394 58.9592 117.337 58.8918 117.283C58.902 117.291 58.8668 117.261 58.7999 117.138C58.7387 117.025 58.6688 116.866 58.5935 116.661C58.4432 116.25 58.2848 115.688 58.139 115.002C57.8477 113.633 57.6139 111.809 57.584 109.8C57.524 105.762 58.2904 101.085 60.9568 97.8327C61.5497 97.1091 61.4466 95.9411 60.5633 95.437L59.6597 94.9219C58.9856 94.5373 58.1229 94.7319 57.6851 95.3782C54.5621 99.9881 53.1193 103.449 52.7975 106.682C52.476 109.914 53.2829 112.855 54.5177 116.387C54.6563 116.783 54.957 117.107 55.3491 117.27C55.8959 117.497 56.9009 117.905 57.6563 118.164C57.8458 118.229 58.0252 118.286 58.1807 118.329C58.3267 118.369 58.4839 118.406 58.6159 118.415C58.6678 118.419 58.7968 118.426 58.929 118.371C59.0054 118.339 59.1163 118.271 59.1912 118.139ZM57.6989 117.117C57.0205 116.872 56.2113 116.544 55.7327 116.345C55.6079 116.294 55.5074 116.188 55.4612 116.056C54.2327 112.542 53.4937 109.779 53.7922 106.781C54.0905 103.783 55.4344 100.485 58.5139 95.9389C58.6562 95.7291 58.9402 95.6623 59.1643 95.7901L60.0672 96.3059C60.3433 96.4634 60.4363 96.8901 60.1832 97.199C57.2946 100.723 56.5222 105.687 56.5835 109.815C56.6144 111.888 56.8563 113.777 57.1612 115.21C57.3134 115.926 57.4837 116.537 57.655 117.004C57.6691 117.043 57.6846 117.08 57.6989 117.117ZM83.1529 116.732C83.3078 116.617 83.3611 116.444 83.3544 116.304C83.3489 116.192 83.3085 116.111 83.2921 116.081C83.2739 116.048 83.2536 116.02 83.236 115.998L83.1948 115.952L83.1209 115.883C82.9886 115.775 82.838 115.72 82.6936 115.694C81.6828 115.091 78.848 113.094 76.207 110.048C73.4919 106.916 71.0252 102.728 70.886 97.8518C70.8585 96.8942 69.9669 96.1059 68.9746 96.3476L67.767 96.6422C67.0547 96.8158 66.5654 97.4841 66.633 98.2219C67.0799 103.095 68.1259 106.61 70.062 109.6C71.9928 112.581 74.7828 114.997 78.6326 117.717C79.1704 118.097 79.8778 118.072 80.3984 117.715C80.7331 117.485 81.1626 117.21 81.5755 116.997C81.782 116.89 81.9753 116.804 82.1441 116.747C82.255 116.71 82.3428 116.694 82.408 116.685C82.4891 116.729 82.5634 116.765 82.6245 116.789C82.6483 116.798 82.6899 116.813 82.7388 116.823C82.7625 116.828 82.8073 116.835 82.8625 116.833C82.9071 116.832 83.0313 116.823 83.1529 116.732ZM81.117 116.109C80.6509 116.349 80.1821 116.651 79.8321 116.891C79.634 117.027 79.3829 117.024 79.2087 116.9C75.3891 114.202 72.7263 111.875 70.9011 109.056C69.0812 106.246 68.067 102.904 67.6293 98.1304C67.6076 97.8937 67.7647 97.6717 68.0032 97.6135L69.2115 97.3196C69.5248 97.2435 69.8753 97.4955 69.8863 97.8812C70.035 103.08 72.6596 107.481 75.4519 110.702C77.6316 113.217 79.942 115.042 81.3363 116.003C81.2632 116.038 81.1889 116.072 81.117 116.109ZM97.79 101.101C98.3667 100.994 98.8279 100.558 98.9673 99.9876C99.1518 99.2319 99.4658 97.942 99.6841 97.0282C99.7925 96.5742 99.8795 96.2051 99.9138 96.0432C99.9203 96.0129 99.9308 95.9608 99.9354 95.9208C99.9362 95.9132 99.9384 95.8993 99.9391 95.8821C99.9394 95.8754 99.9425 95.8245 99.9303 95.7627C99.9262 95.7413 99.9069 95.6431 99.8294 95.5462C99.7865 95.4991 99.6699 95.4155 99.5958 95.3842C99.5137 95.3645 99.3577 95.365 99.2877 95.3817C99.1497 95.4255 99.0735 95.5158 99.0586 95.5332C99.0317 95.5645 99.0146 95.5924 99.0069 95.6055C98.9818 95.6482 98.9675 95.6883 98.9663 95.6916C98.9616 95.7041 98.9576 95.7158 98.9549 95.7241L98.8596 96.0683C98.852 96.078 98.8302 96.1016 98.7816 96.1382C98.6907 96.2064 98.5434 96.2879 98.3288 96.3727C97.9015 96.5415 97.2805 96.697 96.4984 96.8144C94.9387 97.0483 92.8117 97.1203 90.4767 96.8921C85.7891 96.4338 80.3887 94.7798 77.0325 90.9514C76.325 90.1444 74.9104 90.1849 74.3891 91.2376L73.5708 92.8901C73.252 93.5339 73.4384 94.3171 74.0121 94.7488C78.8891 98.4188 82.6819 100.422 86.352 101.293C90.0269 102.166 93.5286 101.892 97.79 101.101ZM97.996 99.7508C97.9502 99.9384 97.7983 100.083 97.6075 100.118C93.3982 100.9 90.058 101.146 86.5832 100.32C83.1036 99.4943 79.4385 97.5811 74.6132 93.95C74.4236 93.8074 74.3612 93.5462 74.4661 93.3341L75.2851 91.6809C75.4461 91.356 75.9749 91.2619 76.2809 91.6109C79.881 95.7172 85.5847 97.4187 90.3804 97.8875C92.7869 98.1226 94.9967 98.0514 96.6472 97.8038C97.4094 97.6895 98.0683 97.5342 98.5782 97.3473C98.3789 98.1753 98.1457 99.1381 97.996 99.7508Z" fill="#F67B23"/>
<path d="M92.7177 74.8342C89.6671 82.9426 86.2127 85.6328 75.5202 84.2013C75.1842 84.1563 74.8872 83.937 74.7503 83.6269C71.6513 76.6069 73.6427 74.0236 80.2926 70.8314C80.3861 70.7865 80.4907 70.7553 80.5936 70.7418C86.8613 69.9162 89.4389 70.8174 92.4912 73.7967C92.766 74.065 92.8529 74.4747 92.7177 74.8342Z" fill="#FEB465"/>
<path d="M87.2363 83.5269C89.9736 81.9288 91.6514 79.0878 93.1857 75.0098C93.3889 74.469 93.2602 73.8493 92.8405 73.4395C91.2794 71.9157 89.7997 70.8851 87.8796 70.3603C85.9749 69.8398 83.6854 69.8304 80.528 70.2463C80.3728 70.2667 80.2174 70.313 80.0764 70.3806C76.7574 71.9739 74.4427 73.4798 73.4169 75.5736C72.3735 77.7034 72.7291 80.2857 74.2932 83.8288C74.5018 84.3012 74.9486 84.6293 75.4538 84.697C80.8273 85.4163 84.5054 85.1211 87.2363 83.5269ZM92.2492 74.658C90.7328 78.6885 89.1581 81.2477 86.7325 82.6639C84.3005 84.0837 80.9053 84.418 75.5868 83.706C75.4201 83.6837 75.2729 83.5724 75.2076 83.4246C73.6728 79.9479 73.4749 77.7282 74.3149 76.0134C75.1726 74.2628 77.1788 72.8812 80.5094 71.2823C80.5553 71.2603 80.6086 71.2439 80.6588 71.2373C83.769 70.8276 85.9025 70.8564 87.6165 71.3249C89.3151 71.7892 90.6508 72.6995 92.1419 74.155C92.2714 74.2815 92.3161 74.4802 92.2492 74.658Z" fill="#FFA046"/>
<path d="M48.1792 81.1347L36.3541 81.5801C35.8278 81.5999 35.3759 81.2037 35.3213 80.6799L35.3032 80.5062C33.7783 65.8848 32.8731 57.2044 38.3644 52.5419C38.6325 52.3143 39.011 52.2569 39.3138 52.4358C43.0056 54.6178 44.8271 63.6047 44.5186 61.2924C44.2657 59.3974 49.3776 54.3172 51.3497 53.0048C51.8175 52.6935 52.5409 53.0367 53.0545 53.2647C56.8306 54.941 56.2479 59.2741 55.5571 66.2631C54.5424 73.5885 52.5178 76.2859 48.9214 80.7614C48.7399 80.9871 48.4687 81.1238 48.1792 81.1347Z" fill="#F57523"/>
<path d="M49.3112 81.0749C51.1065 78.8408 52.5439 77.0088 53.6534 74.8058C54.6974 72.7329 55.4422 70.3517 55.9535 67.0124L56.0523 66.3312L56.0536 66.3215L56.0542 66.3126C56.3967 62.8471 56.7248 59.9486 56.4775 57.7163C56.3526 56.5889 56.0783 55.5922 55.5604 54.7567C55.0376 53.9132 54.2855 53.2638 53.2578 52.8076C53.0161 52.7003 52.661 52.5353 52.3054 52.447C51.9575 52.3606 51.4841 52.3148 51.0728 52.5885C50.0376 53.2774 48.2344 54.9097 46.7272 56.5967C45.9709 57.4432 45.2732 58.3215 44.7775 59.1189C44.6376 59.3438 44.5127 59.5668 44.405 59.7835C44.2564 59.3585 44.0821 58.8764 43.8812 58.3662C43.4367 57.2373 42.8601 55.9518 42.1535 54.8036C41.4521 53.6639 40.5943 52.6123 39.5683 52.0058C39.0564 51.7033 38.4475 51.8155 38.0409 52.1607C35.1467 54.618 33.9768 58.1151 33.7035 62.7596C33.431 67.3903 34.0455 73.2639 34.8062 80.5583L34.8238 80.7314C34.9054 81.5141 35.5804 82.1093 36.3725 82.0797L48.1981 81.6344C48.6327 81.618 49.0393 81.4132 49.3112 81.0749ZM48.5322 80.4481C48.4413 80.5612 48.3047 80.6293 48.1605 80.6348L36.3355 81.0808C36.0752 81.0907 35.8462 80.8923 35.8185 80.6275L35.8009 80.4543C35.0368 73.1276 34.4355 67.3496 34.702 62.8193C34.9677 58.303 36.0911 55.1285 38.688 52.9235C38.8175 52.8135 38.966 52.8112 39.0597 52.8666C39.8793 53.3511 40.6338 54.2408 41.3025 55.3273C41.9659 56.4054 42.5168 57.6312 42.9505 58.7325C43.3838 59.8329 43.6933 60.7935 43.8801 61.3501C43.9262 61.4877 43.9676 61.6062 44.0009 61.6956C44.0174 61.7396 44.0342 61.7843 44.0519 61.8235C44.0607 61.843 44.0729 61.8682 44.0872 61.8936C44.0978 61.9125 44.1267 61.9622 44.174 62.0115C44.1975 62.0361 44.249 62.0847 44.3284 62.1218C44.4171 62.1632 44.5597 62.1963 44.7173 62.138C44.8631 62.0839 44.9414 61.981 44.9762 61.9227C45.0115 61.8635 45.0272 61.8091 45.0342 61.7812C45.057 61.69 45.0519 61.6004 45.0508 61.5759C45.047 61.4907 45.0332 61.3703 45.0141 61.2269C44.9979 61.1054 45.0213 60.9073 45.1275 60.6201C45.2313 60.3396 45.3999 60.011 45.6267 59.6462C46.08 58.9171 46.7363 58.0876 47.4728 57.2632C48.9512 55.6085 50.6899 54.0447 51.6267 53.4213C51.683 53.3838 51.8054 53.3539 52.0645 53.4183C52.3158 53.4807 52.5796 53.6012 52.8513 53.7218C53.7114 54.1036 54.3025 54.6246 54.7108 55.2832C55.124 55.9499 55.3691 56.7881 55.4842 57.8271C55.7168 59.9275 55.4077 62.6907 55.0595 66.2141C54.5575 69.8272 53.8104 72.2723 52.7608 74.3562C51.7053 76.4519 50.3331 78.207 48.5322 80.4481Z" fill="#FB7F49"/>
<path d="M39.7209 81.4659L35.2196 82.2824C35.2196 82.2824 35.2993 74.6831 34.2515 65.6485C33.2037 56.614 38.6903 51.3039 39.7934 53.0715L39.7209 81.4659Z" fill="#E9682F"/>
<path d="M46.3518 80.9939L42.4313 81.2178C42.9563 73.79 42.5765 69.7415 44.0769 61.9173C45.5773 54.093 52.0709 51.3904 52.2082 53.621L46.3518 80.9939Z" fill="#E9682F"/>
<path d="M40.2931 53.0726L40.2937 52.9282L40.2172 52.8068C39.9861 52.4366 39.6214 52.2437 39.2081 52.2334C38.824 52.2238 38.4285 52.3704 38.0584 52.5916C37.3134 53.037 36.5049 53.8876 35.7904 55.0465C34.3524 57.3788 33.2186 61.078 33.7552 65.7059C34.2772 70.2066 34.5185 74.3518 34.6292 77.3718C34.6845 78.8812 34.7068 80.1088 34.7156 80.9585C34.7201 81.3832 34.7215 81.714 34.7213 81.9377C34.7213 82.0495 34.7208 82.1354 34.7204 82.1925C34.7203 82.2206 34.7198 82.2419 34.7197 82.256C34.7196 82.2632 34.7199 82.2691 34.7199 82.2726C34.7198 82.2741 34.7192 82.2753 34.7192 82.2761L34.7192 82.2774L34.7129 82.8824L40.2198 81.8831L40.2931 53.0726ZM35.7201 81.6846C35.7195 81.485 35.7185 81.2383 35.7155 80.9484C35.7065 80.091 35.6838 78.8542 35.6281 77.3349C35.5167 74.2967 35.2743 70.1246 34.7485 65.5909C34.2375 61.1845 35.3225 57.7113 36.6416 55.5718C37.3055 54.495 38.01 53.7851 38.5711 53.4496C38.8542 53.2804 39.0605 53.2305 39.1836 53.2336C39.2295 53.2347 39.2641 53.2429 39.2929 53.2587L39.2211 81.0493L35.7201 81.6846ZM46.8414 81.0985L52.6967 53.7256L52.7119 53.6585L52.7078 53.5902C52.6821 53.1737 52.4956 52.8171 52.1509 52.5958C51.8289 52.3891 51.4317 52.3414 51.0431 52.3783C50.2657 52.4524 49.3075 52.8816 48.3532 53.5993C46.4257 55.049 44.3594 57.7893 43.5859 61.8229C42.0783 69.6845 42.4528 73.8176 41.9323 81.1823L41.8924 81.749L46.3806 81.4933L46.7609 81.4708L46.8414 81.0985ZM42.9666 80.6878C43.439 73.558 43.1124 69.5998 44.5677 62.0112C45.2946 58.2208 47.2257 55.6979 48.9544 54.3978C49.8278 53.741 50.6125 53.4239 51.138 53.3739C51.401 53.3489 51.5458 53.3949 51.611 53.4368C51.6477 53.4604 51.6859 53.4987 51.7017 53.5996L45.9426 80.5171L42.9666 80.6878Z" fill="#E9682F"/>
<path d="M91.3461 112.05C75.4672 117.156 64.7374 116.176 44.2216 111.055C44.1375 111.034 44.0653 111.122 44.106 111.199L46.9098 116.464C46.922 116.487 46.9432 116.505 46.968 116.513C65.0845 122.353 75.101 123.476 90.8795 116.023C90.9098 116.009 90.9317 115.98 90.9365 115.947L91.4776 112.159C91.4881 112.085 91.4165 112.027 91.3461 112.05Z" fill="#B9591E"/>
<path d="M44.2542 110.555L44.3431 110.57L46.2366 111.038C55.5625 113.313 62.8113 114.658 69.5393 114.888C76.7045 115.132 83.299 114.112 91.1927 111.573C91.6 111.442 92.0378 111.775 91.9729 112.229L91.4309 116.018C91.4018 116.221 91.2714 116.391 91.0931 116.476C83.1535 120.226 76.6289 121.833 69.7942 121.753C62.9743 121.673 55.8815 119.911 46.8147 116.988C46.6693 116.941 46.5427 116.839 46.4681 116.699L43.6643 111.434C43.4216 110.977 43.8142 110.513 44.2542 110.555ZM47.2737 116.085C56.2492 118.972 63.1815 120.675 69.8059 120.753C76.3985 120.83 82.7215 119.298 90.472 115.661L90.8929 112.715C83.1721 115.142 76.6184 116.13 69.5052 115.888C62.4251 115.646 54.8103 114.186 44.9681 111.754L47.2737 116.085Z" fill="#B9591E"/>
<path d="M124.903 109.596C117.749 104.035 113.419 104.487 105.114 114.041C105.064 114.098 105.094 114.191 105.169 114.207C113.767 115.979 118.269 115.509 124.907 109.753C124.955 109.711 124.953 109.635 124.903 109.596Z" fill="#778631"/>
<path d="M115.34 105.66C118.581 105.002 121.608 106.401 125.21 109.201C125.507 109.432 125.522 109.882 125.235 110.131C121.878 113.041 119.017 114.654 115.872 115.293C112.74 115.929 109.382 115.585 105.068 114.696C104.608 114.601 104.443 114.051 104.737 113.713L105.505 112.842C109.297 108.613 112.345 106.268 115.34 105.66ZM124.204 109.693C120.842 107.149 118.225 106.095 115.539 106.641C112.809 107.195 109.869 109.422 105.947 113.852C109.893 114.629 112.902 114.875 115.673 114.312C118.478 113.743 121.089 112.332 124.204 109.693Z" fill="#94A13A"/>
<path d="M144.444 60.7683C141.295 60.5702 139.679 61.1848 137.127 63.1725C137.069 63.2179 137.078 63.3094 137.144 63.3416L152.364 70.7059C152.429 70.7372 152.504 70.691 152.507 70.6193C152.648 67.0269 151.719 65.0732 148.565 62.3283C148.528 62.2961 148.52 62.2403 148.545 62.1985C151.151 57.9334 151.49 55.4152 150.506 50.8008C150.502 50.7822 150.493 50.7644 150.479 50.7509C149.523 49.7882 148.879 49.7152 147.54 50.7412C147.515 50.7602 147.5 50.7908 147.501 50.822C147.526 54.972 147.056 57.2053 144.533 60.7262C144.513 60.7543 144.479 60.7705 144.444 60.7683Z" fill="#606329"/>
<path d="M149.165 49.5C149.817 49.5151 150.337 49.8978 150.834 50.3984C150.916 50.4804 150.972 50.5846 150.995 50.6962C151.493 53.0302 151.668 54.8838 151.366 56.7119C151.077 58.4592 150.355 60.141 149.141 62.1718C150.603 63.4741 151.606 64.6429 152.223 65.9414C152.878 67.3199 153.079 68.7948 153.006 70.6386C152.989 71.0634 152.541 71.3474 152.146 71.1562L136.926 63.7919C136.519 63.5949 136.476 63.0466 136.82 62.7783L137.296 62.415C138.388 61.6025 139.357 61.0299 140.402 60.6767C141.544 60.2907 142.743 60.1799 144.248 60.2578C145.412 58.608 146.096 57.2691 146.492 55.874C146.902 54.4248 147.013 52.8846 147 50.8251C146.999 50.6383 147.086 50.4594 147.236 50.3447L147.489 50.1572C148.072 49.743 148.613 49.4872 149.165 49.5ZM149.142 50.5C148.899 50.4944 148.562 50.6128 147.999 51.0224C148.004 53.0173 147.888 54.613 147.453 56.1464C147.003 57.7364 146.222 59.2275 144.94 61.0175C144.819 61.1864 144.618 61.2804 144.412 61.2675C142.876 61.171 141.756 61.2746 140.722 61.624C139.829 61.9257 138.972 62.4203 137.95 63.1757L152.02 69.9843C152.023 68.539 151.814 67.4105 151.32 66.371C150.754 65.1807 149.792 64.0587 148.237 62.705C148.016 62.5126 147.966 62.1871 148.118 61.9374C149.405 59.8323 150.105 58.1992 150.378 56.5488C150.646 54.9264 150.508 53.2443 150.041 51.0224C149.631 50.6258 149.371 50.5052 149.142 50.5Z" fill="#606329"/>
<path d="M152.422 70.4623C147.219 67.9555 143.666 66.2339 137.066 63.032C137.027 63.0131 136.98 63.0211 136.95 63.0523C133.334 66.815 131.25 71.3469 127.603 79.2764L127.504 79.4925C127.501 79.4974 127.499 79.5023 127.496 79.5067C123.923 84.8123 120.88 87.2555 115.244 91.3238C115.167 91.38 115.207 91.5043 115.303 91.5063C125.713 91.7259 130.622 91.7374 136.965 91.5013C136.988 91.5004 137.01 91.4916 137.027 91.4767C145.186 84.4393 149.447 80.3052 152.474 70.5834C152.489 70.5361 152.467 70.4837 152.422 70.4623Z" fill="#DC3C1B"/>
<path d="M136.589 62.706C136.75 62.5387 136.987 62.4843 137.197 62.5478L137.284 62.582L145.486 66.5576C147.849 67.7015 150.038 68.7584 152.639 70.0117C152.909 70.1418 153.039 70.4508 152.951 70.7324C151.422 75.6431 149.574 79.1632 147.068 82.3456C144.57 85.5169 141.43 88.3389 137.354 91.8554C137.252 91.9435 137.121 91.9958 136.984 92.0009C130.626 92.2376 125.706 92.2255 115.292 92.0058C114.731 91.994 114.473 91.2633 114.951 90.9179L115.976 90.1757C120.937 86.557 123.767 84.1413 127.061 79.2558L127.149 79.0673C130.785 71.1619 132.903 66.5422 136.589 62.706ZM137.112 63.6093C133.688 67.2578 131.646 71.6824 128.057 79.4853L127.958 79.7011C127.945 79.7305 127.928 79.7593 127.91 79.7861C124.5 84.8514 121.551 87.3495 116.5 91.0302C126.029 91.2241 130.789 91.2271 136.806 91.0058C140.835 87.5284 143.874 84.7864 146.283 81.7275C148.648 78.7235 150.415 75.4003 151.892 70.7617C146.926 68.3686 143.412 66.6659 137.112 63.6093Z" fill="#E74821"/>
<path d="M139 82.4999C134.883 86.6826 131.597 89.0211 125.986 91.3047C125.884 91.3463 125.909 91.4999 126.019 91.4999H139C139.499 91.4999 151.025 80.0358 152.489 70.5737C152.496 70.5296 152.472 70.4872 152.432 70.4687L147.109 68.0495C147.053 68.0237 146.986 68.0564 146.971 68.1168C145.617 73.3895 143.363 76.6497 139 82.4999Z" fill="#D0331E"/>
<path d="M146.507 67.9277C146.627 67.6145 146.991 67.4471 147.316 67.5947L152.639 70.0136C152.878 70.1224 153.026 70.3787 152.984 70.6503C152.231 75.5143 148.914 80.8311 145.779 84.8906C144.203 86.9303 142.658 88.6727 141.473 89.9072C140.881 90.5239 140.376 91.0175 139.999 91.3593C139.812 91.5294 139.65 91.6675 139.523 91.7656C139.46 91.8138 139.397 91.8596 139.337 91.8955C139.308 91.9132 139.27 91.934 139.227 91.9521C139.195 91.9655 139.11 91.9999 139 91.9999H126.019C125.682 91.9998 125.471 91.7453 125.43 91.4999C125.39 91.2598 125.499 90.9631 125.797 90.8417L126.81 90.4179C131.737 88.2958 134.812 86.0377 138.621 82.1708C142.968 76.34 145.162 73.1513 146.487 67.9921L146.507 67.9277ZM147.332 68.7001C145.939 73.812 143.638 77.1165 139.401 82.7988L139.38 82.8261L139.357 82.8505C135.653 86.6128 132.598 88.9097 127.964 90.9999H138.874C138.885 90.9918 138.899 90.9836 138.913 90.9726C139.01 90.8981 139.149 90.7809 139.327 90.6191C139.682 90.297 140.171 89.8206 140.752 89.2148C141.914 88.004 143.436 86.2883 144.988 84.2792C148.039 80.3285 151.145 75.3167 151.944 70.7958L147.332 68.7001Z" fill="#D0331E"/>
<path d="M163.382 75.7157L132.292 97.2227C131.806 97.5591 131.716 98.2438 132.111 98.6841C140.365 107.891 149.065 109.028 158.172 105.53C167.342 102.008 172.627 89.2521 164.783 76.0139C164.494 75.5258 163.849 75.3929 163.382 75.7157Z" fill="#727C2C"/>
<path d="M131.738 99.0182C131.137 98.3476 131.28 97.3141 132.007 96.8112L163.098 75.3045C163.796 74.8212 164.772 75.0149 165.213 75.7586C173.182 89.2083 167.866 102.342 158.351 105.997C153.73 107.771 149.175 108.384 144.71 107.359C140.242 106.333 135.917 103.68 131.738 99.0182ZM132.576 97.6341C132.331 97.8041 132.295 98.1403 132.483 98.3503C136.558 102.895 140.71 105.414 144.933 106.384C149.157 107.354 153.506 106.786 157.992 105.063C166.816 101.673 172.071 89.2958 164.352 76.2691C164.215 76.037 163.901 75.9644 163.666 76.1264L132.576 97.6341Z" fill="#7B8B31"/>
<path d="M160.394 77.9439L135.285 95.167C134.795 95.5033 134.704 96.1926 135.106 96.6313C141.843 103.996 148.926 104.905 156.329 102.094C163.8 99.2576 168.102 88.9724 161.785 78.2408C161.499 77.7546 160.859 77.6248 160.394 77.9439Z" fill="#F6E27A"/>
<path d="M134.736 96.9691C134.123 96.2987 134.27 95.257 135.002 94.7548L160.111 77.532C160.805 77.0555 161.777 77.2415 162.216 77.9871C168.658 88.9313 164.323 99.5938 156.507 102.561C152.739 103.992 149.015 104.489 145.358 103.666C141.699 102.843 138.158 100.71 134.736 96.9691ZM135.568 95.579C135.319 95.7493 135.285 96.0872 135.475 96.294C138.79 99.9183 142.159 101.922 145.577 102.691C148.996 103.461 152.516 103.007 156.152 101.627C163.277 98.9216 167.546 89.0131 161.354 78.4942C161.221 78.2678 160.913 78.1947 160.677 78.3562L135.568 95.579Z" fill="#F7E78B"/>
<path d="M138.036 98.1185C140.657 100.357 144.494 102.236 145.838 101.968C146.167 101.902 146.26 101.533 146.264 101.198C146.298 98.8376 146.411 89.0801 145.972 89.6821C145.614 90.1718 140.923 93.4956 138.282 95.3475C137.325 96.0181 137.148 97.36 138.036 98.1185Z" fill="#E0CA43"/>
<path d="M148.269 92.5633L148.147 99.789C148.131 100.741 148.788 101.59 149.732 101.713C153.19 102.161 155.361 101.206 157.979 98.2931C158.738 97.4492 158.549 96.1436 157.631 95.4764L151.445 90.9794C150.136 90.0275 148.297 90.9446 148.269 92.5633Z" fill="#E0CA43"/>
<path d="M160.667 82.3735C162.11 86.2207 162.374 88.9754 161.654 92.4562C161.388 93.744 159.908 94.3063 158.787 93.6189L151.399 89.0888C150.149 88.3227 150.121 86.5173 151.346 85.7124L157.787 81.4792C158.823 80.7982 160.231 81.2126 160.667 82.3735Z" fill="#E0CA43"/>
<path d="M151.137 89.5148C149.576 88.5573 149.54 86.301 151.071 85.2948L157.512 81.0611C158.799 80.2153 160.58 80.7183 161.135 82.1984C162.607 86.1206 162.886 88.9721 162.144 92.558C161.801 94.2193 159.911 94.8947 158.525 94.0452L151.137 89.5148ZM151.62 86.1303C150.702 86.7341 150.723 88.0882 151.66 88.6627L159.048 93.193C159.905 93.7178 160.976 93.2684 161.165 92.3546C161.862 88.9793 161.614 86.3206 160.199 82.5488C159.883 81.7072 158.847 81.3808 158.062 81.8967L151.62 86.1303ZM147.769 92.5547C147.803 90.5314 150.103 89.3849 151.739 90.5749L157.925 95.072C159.063 95.899 159.324 97.545 158.351 98.6276C157.017 100.111 155.762 101.137 154.365 101.724C152.96 102.314 151.458 102.441 149.668 102.209C148.444 102.05 147.627 100.958 147.647 99.7809L147.769 92.5547ZM151.151 91.3841C150.169 90.6704 148.79 91.3578 148.77 92.5717L148.647 99.7979C148.635 100.525 149.133 101.131 149.797 101.217C151.464 101.434 152.778 101.306 153.978 100.802C155.184 100.296 156.323 99.3872 157.607 97.9585C158.151 97.3533 158.035 96.388 157.337 95.8806L151.151 91.3841ZM137.711 98.4985C136.53 97.4898 136.821 95.7618 137.994 94.9386C139.314 94.013 141.145 92.7202 142.689 91.599C143.462 91.0384 144.159 90.5226 144.685 90.1177C144.948 89.9148 145.165 89.7422 145.324 89.6077C145.404 89.5403 145.467 89.4851 145.512 89.4424C145.563 89.3945 145.574 89.3795 145.568 89.3877C145.605 89.3377 145.762 89.1371 146.046 89.1569C146.319 89.1758 146.448 89.3817 146.477 89.4294C146.552 89.5556 146.585 89.7155 146.604 89.8176C146.649 90.0638 146.682 90.4313 146.707 90.866C146.758 91.7462 146.785 92.9947 146.796 94.3255C146.818 96.9904 146.781 100.024 146.765 101.205C146.762 101.406 146.733 101.66 146.628 101.892C146.515 102.138 146.298 102.386 145.936 102.458C145.475 102.55 144.885 102.452 144.279 102.274C143.654 102.09 142.94 101.798 142.195 101.432C140.707 100.699 139.057 99.6473 137.711 98.4985ZM138.568 95.757C137.83 96.275 137.766 97.2297 138.361 97.7379C139.637 98.8275 141.216 99.8356 142.637 100.535C143.347 100.885 144.008 101.152 144.562 101.315C145.115 101.477 145.5 101.516 145.716 101.481C145.716 101.48 145.717 101.478 145.718 101.477C145.742 101.423 145.762 101.325 145.764 101.191C145.781 100.012 145.818 96.9861 145.795 94.3329C145.784 93.0048 145.758 91.7785 145.708 90.9249C145.702 90.8098 145.692 90.7031 145.684 90.605C145.567 90.6987 145.437 90.801 145.296 90.9095C144.759 91.3231 144.052 91.8457 143.277 92.4083C141.726 93.5344 139.889 94.8305 138.568 95.757Z" fill="#E3D010"/>
<path d="M142.814 96.3193C143.265 96.4534 143.462 97.1333 143.252 97.8378C143.043 98.5424 142.507 99.0048 142.056 98.8706C141.604 98.7365 141.408 98.0566 141.617 97.3521C141.826 96.6475 142.362 96.1851 142.814 96.3193Z" fill="black" fill-opacity="0.25"/>
<path d="M153.929 96.8443C154.682 97.0679 155.156 97.7061 154.989 98.2697C154.822 98.8333 154.076 99.109 153.323 98.8854C152.57 98.6619 152.096 98.0237 152.263 97.4601C152.431 96.8965 153.177 96.6208 153.929 96.8443Z" fill="black" fill-opacity="0.25"/>
<path d="M158.959 88.8985C159.561 89.0773 159.914 89.6792 159.746 90.2429C159.579 90.8065 158.955 91.1184 158.353 90.9396C157.751 90.7607 157.398 90.1588 157.566 89.5952C157.733 89.0315 158.357 88.7196 158.959 88.8985Z" fill="black" fill-opacity="0.25"/>
<path d="M159.081 84.4924C159.683 84.6713 160.036 85.2732 159.868 85.8368C159.701 86.4005 159.077 86.7124 158.475 86.5335C157.873 86.3547 157.52 85.7528 157.688 85.1891C157.855 84.6255 158.479 84.3136 159.081 84.4924Z" fill="black" fill-opacity="0.25"/>
</svg>
