<svg width="200" height="200" viewBox="0 0 200 200" fill="none" xmlns="http://www.w3.org/2000/svg">
<path d="M192 117.841C192 152.17 150.586 179.999 99.5 179.999C48.4137 179.999 7 152.17 7 117.841C7 83.5122 48.4137 55.6829 99.5 55.6829C150.586 55.6829 192 83.5122 192 117.841Z" fill="#D4C9D4"/>
<path d="M191 117.841C191 101.111 180.909 85.8467 164.35 74.7191C147.797 63.5957 124.872 56.683 99.5 56.683C74.1283 56.683 51.2035 63.5957 34.6504 74.7191C18.0911 85.8467 8.00003 101.111 8 117.841C8 134.571 18.091 149.837 34.6504 160.964C51.2035 172.088 74.1284 178.999 99.5 178.999V179.999C48.4137 179.999 7 152.17 7 117.841C7 83.5122 48.4137 55.6829 99.5 55.6829C150.586 55.6829 192 83.5122 192 117.841C192 152.17 150.586 179.999 99.5 179.999V178.999C124.872 178.999 147.797 172.088 164.35 160.964C180.909 149.837 191 134.571 191 117.841Z" fill="#D4C9D4"/>
<path d="M192 112.662C192 146.673 150.586 174.244 99.5 174.244C48.4137 174.244 7 146.673 7 112.662C7 78.6504 48.4137 51.0789 99.5 51.0789C150.586 51.0789 192 78.6504 192 112.662Z" fill="#FFFBF2"/>
<path d="M191 112.662C191 96.0953 180.914 80.9734 164.354 69.948C147.8 58.9274 124.874 52.0789 99.5 52.0789C74.1264 52.0789 51.2 58.9274 34.6465 69.948C18.0859 80.9734 8 96.0953 8 112.662C8.00011 129.228 18.0861 144.349 34.6465 155.375C51.2 166.395 74.1264 173.244 99.5 173.244V174.244C48.8129 174.244 7.64811 147.102 7.00781 113.458L7 112.662C7 78.6504 48.4137 51.0789 99.5 51.0789C150.586 51.0789 192 78.6504 192 112.662L191.992 113.458C191.352 147.102 150.187 174.244 99.5 174.244V173.244C124.874 173.244 147.8 166.395 164.354 155.375C180.914 144.349 191 129.228 191 112.662Z" fill="#D4C9D4"/>
<path d="M177.684 108.057C177.684 135.076 142.926 156.978 100.05 156.978C57.1744 156.978 22.4165 135.076 22.4165 108.057C22.4165 81.0392 57.1744 59.1366 100.05 59.1366C142.926 59.1366 177.684 81.0392 177.684 108.057Z" fill="#E5E2E3"/>
<path d="M176.684 108.058C176.684 95.0136 168.292 83.0572 154.413 74.3114C140.547 65.5738 121.329 60.1366 100.05 60.1366C78.7713 60.1366 59.5539 65.5738 45.688 74.3114C31.8091 83.0572 23.4165 95.0137 23.4165 108.058C23.4165 121.101 31.8091 133.058 45.688 141.804C59.5539 150.541 78.7713 155.978 100.05 155.978L100.05 156.978L99.0474 156.975C56.9674 156.639 22.956 135.206 22.4233 108.689L22.4165 108.057C22.4165 81.0392 57.1744 59.1366 100.05 59.1366C142.926 59.1366 177.684 81.0392 177.684 108.057L177.678 108.689C177.141 135.416 142.592 156.978 100.05 156.978L100.05 155.978C121.329 155.978 140.547 150.541 154.413 141.804C168.292 133.058 176.684 121.101 176.684 108.058Z" fill="#E5E2E3"/>
<path d="M41.0467 79.3331C41.067 79.308 41.0957 79.305 41.1321 79.3232C41.5653 78.9845 42.9693 77.7062 43.9158 76.8374C44.3849 76.4067 45.1328 76.5181 45.4538 77.0681C50.3702 85.4898 52.647 91.2453 53.8878 102.901C53.9504 103.489 53.4881 104 52.8973 104H48.0884C47.4968 104 47.0358 103.49 47.0653 102.899C47.5592 92.9937 42.0272 79.7698 41.1321 79.3232C41.0002 79.4263 40.9583 79.4423 41.0467 79.3331Z" fill="#7D4D27"/>
<path d="M43.5781 76.4695C44.2812 75.8241 45.4032 75.9895 45.8857 76.8162C50.8343 85.293 53.1358 91.1157 54.3848 102.848C54.479 103.733 53.7833 104.5 52.8975 104.5H48.0889C47.1961 104.5 46.5225 103.735 46.5654 102.874C46.808 98.0078 45.5691 92.2913 44.1426 87.7127C43.4309 85.4285 42.6766 83.4416 42.0479 82.0027C41.7331 81.2823 41.4529 80.7061 41.2275 80.3015C41.1347 80.1349 41.0536 80.0039 40.9873 79.906C40.9398 79.9044 40.8824 79.8974 40.8213 79.8738C40.6423 79.8043 40.5357 79.6494 40.5078 79.4929C40.4868 79.3748 40.5136 79.281 40.5234 79.2498C40.5364 79.2086 40.5522 79.1766 40.5615 79.1589C40.5933 79.0985 40.6365 79.0452 40.6582 79.0183C40.7246 78.9364 40.8195 78.8684 40.9365 78.8347C41.4495 78.4094 42.6966 77.2787 43.5781 76.4695ZM45.0225 77.3201C44.8629 77.0467 44.4891 76.9899 44.2539 77.2058C43.5134 77.8856 42.4671 78.8371 41.8379 79.3816C41.9202 79.506 42.0102 79.6512 42.1016 79.8152C42.3481 80.2579 42.643 80.8657 42.9648 81.6023C43.6096 83.078 44.3752 85.1001 45.0967 87.4158C46.5364 92.0369 47.8156 97.8845 47.5645 102.924C47.5485 103.244 47.7985 103.5 48.0889 103.5H52.8975C53.193 103.5 53.4215 103.244 53.3906 102.954C52.158 91.3748 49.9065 85.6864 45.0225 77.3201Z" fill="#7D4D27"/>
<path d="M41.948 78.115C39.1409 85.6252 35.0886 89.6316 28.2285 96.1525C27.7663 96.5918 27.009 96.4934 26.7452 95.9128C24.6535 91.3101 26.9932 86.5725 33.3113 77.8875C33.7937 77.2243 33.3174 76.2916 32.4978 76.3195C18.6249 76.7916 16.7453 82.5435 14.1132 80.8934C11.5023 79.2566 19.0921 68.8678 34.6302 69.7164C35.5463 69.7664 36.1275 68.6734 35.5202 67.9858C31.3057 63.2138 28.6183 60.7174 25.037 57.9204C24.3919 57.4167 24.5619 56.3456 25.3395 56.0903C27.8868 55.254 30.2479 55.1726 39.256 61.2012C39.3745 61.2806 39.482 61.3921 39.5568 61.5136C42.2108 65.8228 43.4187 68.0528 43.8036 69.2205C43.8175 69.2626 43.8283 69.2982 43.8365 69.3278C43.8307 69.2304 43.84 69.0816 43.9034 68.9135C44.6682 66.8876 45.6476 65.2871 51.997 61.9567C52.0664 61.9203 52.1445 61.8904 52.2205 61.8713C58.7357 60.233 61.9675 59.698 63.5324 60.6654C63.9881 60.9471 63.8777 61.5765 63.4472 61.8953L51.6884 70.6017C51.6489 70.631 51.608 70.655 51.5669 70.6743C53.3853 70.8583 58.1471 72.3844 61.4644 73.9869C65.8055 76.0841 69.9906 83.6331 68.4722 85.2504C68.2664 85.4696 67.9229 85.3998 67.671 85.2357C59.2426 79.7454 53.7774 77.6859 42.9143 77.4528C42.4857 77.4436 42.0981 77.7135 41.948 78.115Z" fill="#6AA842"/>
<path d="M27.3005 55.1887C28.0871 55.1549 28.9598 55.2658 30.0222 55.594C32.1304 56.2454 35.0236 57.7669 39.5339 60.7854C39.712 60.9045 39.8696 61.0686 39.9822 61.2512C41.9479 64.4429 43.1401 66.5245 43.7898 67.8899C44.1448 67.1367 44.6329 66.3904 45.5125 65.5608C46.697 64.4436 48.5781 63.1852 51.7644 61.5139C51.8685 61.4593 51.9838 61.4148 52.0984 61.386C55.3549 60.5671 57.8203 60.017 59.6736 59.7952C61.5045 59.576 62.857 59.6602 63.7957 60.2405C64.2062 60.4945 64.361 60.9196 64.3191 61.3186C64.279 61.6998 64.0648 62.0602 63.7449 62.2971L52.8171 70.387C53.7385 70.5924 54.8925 70.9216 56.1101 71.3235C57.9572 71.9332 59.9983 72.7233 61.6814 73.5364C63.9778 74.6458 66.173 77.1524 67.5955 79.5432C68.3105 80.745 68.8509 81.951 69.113 82.9797C69.2439 83.4933 69.3106 83.9845 69.2839 84.4192C69.2574 84.8512 69.1346 85.2757 68.8367 85.593C68.6069 85.8376 68.3076 85.9038 68.0525 85.885C67.8067 85.8669 67.5774 85.7713 67.3982 85.6545C63.2001 82.9199 59.7684 81.0587 56.0505 79.8479C52.3346 78.6378 48.305 78.0683 42.9041 77.9524C42.6937 77.9479 42.4944 78.0824 42.4167 78.2903C39.5651 85.9195 35.4317 89.9953 28.573 96.5149C27.8974 97.1571 26.7157 97.0565 26.2898 96.1194C25.1752 93.6665 25.2596 91.1872 26.4089 88.2493C27.548 85.3377 29.7482 81.9352 32.907 77.593C33.1547 77.2522 32.8998 76.8065 32.5144 76.8196C25.6571 77.053 21.7903 78.5877 19.3171 79.8479C18.6927 80.1661 18.1568 80.4673 17.6697 80.7346C17.1892 80.9983 16.7464 81.2343 16.3357 81.4036C15.9235 81.5735 15.5118 81.6893 15.0906 81.6897C14.6585 81.6901 14.2494 81.5687 13.8474 81.3167C13.349 81.0041 13.1236 80.4888 13.1082 79.9221C13.0931 79.3724 13.2702 78.7525 13.5837 78.1165C14.214 76.8383 15.4627 75.356 17.2615 73.9758C20.8701 71.207 26.7705 68.7863 34.658 69.217C34.8963 69.2299 35.0983 69.0974 35.2029 68.8967C35.3058 68.6992 35.2921 68.4829 35.1453 68.3167C30.9482 63.5645 28.2829 61.0901 24.7292 58.3147C23.7819 57.5749 24.0106 56.0007 25.1833 55.6155C25.8402 55.3998 26.515 55.2226 27.3005 55.1887ZM27.3435 56.1877C26.6884 56.216 26.1126 56.3632 25.4958 56.5657C25.1136 56.6912 25.0018 57.259 25.3445 57.5266C28.9534 60.3451 31.6634 62.8629 35.8953 67.6545C36.3557 68.1759 36.3545 68.8503 36.0896 69.3586C35.8265 69.8636 35.2806 70.2529 34.6033 70.2161C26.9528 69.7982 21.2879 72.1472 17.8699 74.7698C16.1557 76.0851 15.0254 77.4544 14.4812 78.5579C14.2077 79.1125 14.0992 79.5665 14.1082 79.8948C14.1167 80.206 14.2246 80.3734 14.3787 80.47C14.6347 80.6305 14.8609 80.6899 15.0896 80.6897C15.329 80.6895 15.6042 80.6233 15.9548 80.4788C16.3072 80.3335 16.7039 80.1234 17.1882 79.8577C17.6661 79.5955 18.221 79.2835 18.863 78.9563C21.4559 77.6351 25.4659 76.0584 32.4812 75.8196C33.7347 75.7772 34.4324 77.1965 33.7156 78.1819C30.5564 82.5246 28.4279 85.8344 27.3406 88.6135C26.2638 91.366 26.2231 93.5568 27.2 95.7063C27.3018 95.9302 27.6357 96.0268 27.8845 95.7903C34.7458 89.2683 38.7166 85.3308 41.4792 77.9397C41.7017 77.3447 42.278 76.9397 42.9246 76.9534C48.3862 77.0705 52.5209 77.6474 56.3601 78.8977C60.1977 80.1475 63.7137 82.061 67.9441 84.8167C67.9777 84.8385 68.0129 84.8569 68.0466 84.8694C68.0789 84.8813 68.1051 84.8853 68.1228 84.887C68.198 84.7957 68.2689 84.635 68.2859 84.3577C68.304 84.0618 68.2591 83.681 68.1433 83.2268C67.9122 82.3198 67.4201 81.2036 66.7361 80.054C65.3603 77.7417 63.2915 75.4245 61.2468 74.4368C59.6128 73.6474 57.6141 72.8736 55.7966 72.2737C54.0401 71.6939 52.495 71.2932 51.6218 71.1858C51.377 71.2628 51.1331 71.2601 50.9607 71.2073C50.9229 71.1957 50.7945 71.1559 50.6912 71.0413C50.6303 70.9735 50.5379 70.8314 50.5613 70.635C50.5842 70.4438 50.702 70.3302 50.7673 70.2815C50.8827 70.1955 51.0092 70.1757 51.0515 70.1692C51.1173 70.1591 51.1879 70.1552 51.2585 70.1555C51.3169 70.1558 51.3779 70.1575 51.4412 70.1614L63.1492 61.4934C63.2597 61.4115 63.3162 61.2977 63.325 61.2141C63.329 61.1755 63.3221 61.151 63.3162 61.1379C63.3113 61.1274 63.301 61.1107 63.2693 61.0911C62.6432 60.704 61.5974 60.5714 59.7927 60.7874C58.0101 61.0007 55.6013 61.5373 52.3425 62.3567C52.3052 62.3661 52.264 62.3815 52.2292 62.3997C49.0664 64.0587 47.2826 65.2663 46.199 66.2883C45.1375 67.2895 44.7363 68.1221 44.3708 69.0901C44.3417 69.1673 44.3368 69.2341 44.3367 69.2766C44.3421 69.3009 44.3489 69.3238 44.3523 69.346C44.3549 69.3631 44.3607 69.4064 44.3591 69.4573C44.359 69.4611 44.3606 69.5622 44.3064 69.6702C44.2778 69.7272 44.1801 69.8883 43.9626 69.9348C43.7443 69.9814 43.589 69.8727 43.5388 69.8313C43.4447 69.7534 43.4046 69.6598 43.4031 69.6565C43.3903 69.6295 43.3823 69.606 43.3777 69.592C43.368 69.5625 43.3617 69.5341 43.3572 69.512C43.3526 69.4896 43.3506 69.4656 43.3474 69.4407C43.3423 69.4232 43.337 69.4019 43.3289 69.3772C42.9661 68.2769 41.7944 66.1007 39.1306 61.7756C39.0935 61.7155 39.0372 61.6559 38.9783 61.6165C34.4807 58.6064 31.6885 57.1551 29.7273 56.5491C28.7553 56.2487 27.9974 56.1596 27.3435 56.1877Z" fill="#6AA842"/>
<path d="M105.006 94.2443C105.006 97.105 99.0897 99.4241 91.7917 99.4241C84.4936 99.4241 78.5774 97.105 78.5774 94.2443C78.5774 91.3835 84.4936 89.0644 91.7917 89.0644C99.0897 89.0644 105.006 91.3835 105.006 94.2443Z" fill="#BFE3E1"/>
<path d="M72.1313 44.7367L79.0064 93.3842C79.0761 93.8775 79.4983 94.2442 79.9966 94.2442H103.577C104.08 94.2442 104.504 93.8716 104.569 93.3736L110.915 44.7261C110.993 44.1275 110.527 43.5967 109.924 43.5967H73.1215C72.5135 43.5967 72.0462 44.1347 72.1313 44.7367Z" fill="#BFE3E1"/>
<path d="M109.923 43.0967C110.829 43.0967 111.528 43.8932 111.411 44.7911L105.065 93.4385C104.967 94.1854 104.331 94.744 103.578 94.7442H79.9966C79.2493 94.7442 78.6158 94.1941 78.5112 93.4542L71.6362 44.8067C71.5086 43.9038 72.2097 43.0967 73.1216 43.0967H109.923ZM73.1216 44.0967C72.8176 44.0967 72.5839 44.3661 72.6265 44.6671L79.5015 93.3145C79.5365 93.561 79.7476 93.7442 79.9966 93.7442H103.578C103.829 93.744 104.04 93.5576 104.073 93.3087L110.419 44.6612C110.458 44.362 110.225 44.0967 109.923 44.0967H73.1216Z" fill="#BFE3E1"/>
<path d="M111.613 43.0213C111.613 46.1999 102.739 48.7767 91.7916 48.7767C80.8446 48.7767 71.9702 46.1999 71.9702 43.0213C71.9702 39.8427 80.8446 37.2659 91.7916 37.2659C102.739 37.2659 111.613 39.8427 111.613 43.0213Z" fill="#DDF5F6"/>
<path d="M102.804 91.9423C102.804 94.1674 97.8734 95.9711 91.7917 95.9711C85.71 95.9711 80.7798 94.1674 80.7798 91.9423C80.7798 89.7173 85.71 87.9136 91.7917 87.9136C97.8734 87.9136 102.804 89.7173 102.804 91.9423Z" fill="#FB8B14"/>
<path d="M77.5929 55.637L81.3902 91.6226C81.4439 92.1315 81.873 92.5177 82.3847 92.5177H101.758C102.275 92.5177 102.707 92.123 102.754 91.6078L106.009 55.6222C106.062 55.0367 105.601 54.5321 105.013 54.5321H78.5874C77.9936 54.5321 77.5306 55.0465 77.5929 55.637Z" fill="#FB8B14"/>
<path d="M105.012 54.0321L105.176 54.0409C105.978 54.1272 106.581 54.8436 106.507 55.6669L103.252 91.6532C103.182 92.4259 102.534 93.0174 101.758 93.0174H82.3845C81.6171 93.0174 80.9738 92.4379 80.8933 91.6747L77.0955 55.6893C77.0021 54.8036 77.697 54.0321 78.5876 54.0321H105.012ZM78.4792 55.0438C78.2366 55.0972 78.0633 55.3266 78.0906 55.5848L81.8875 91.5702C81.9143 91.8245 82.1288 92.0174 82.3845 92.0174H101.758C102.016 92.0174 102.232 91.82 102.256 91.5624L105.51 55.577C105.534 55.321 105.36 55.0962 105.12 55.0438L105.012 55.0321H78.5876L78.4792 55.0438Z" fill="#FB8B14"/>
<path d="M106.107 55.6833C106.107 58.2262 99.698 60.2876 91.7918 60.2876C83.8856 60.2876 77.4763 58.2262 77.4763 55.6833C77.4763 53.1404 83.8856 51.079 91.7918 51.079C99.698 51.079 106.107 53.1404 106.107 55.6833Z" fill="#FFA420"/>
<path d="M83.7196 18.6384C84.4715 17.8294 85.7366 17.7831 86.5458 18.5349L96.1678 27.4744C96.6552 27.9272 96.9762 28.5275 97.0848 29.1785L97.118 29.4607L99.2928 60.1462C99.3708 61.2479 98.5409 62.2047 97.4393 62.283C96.3375 62.361 95.3807 61.5303 95.3026 60.4285L93.1551 30.1355L83.8231 21.4646C83.0141 20.7127 82.9678 19.4476 83.7196 18.6384Z" fill="#F9643D"/>
<path d="M101.494 91.2138C101.578 92.315 100.754 93.2767 99.6531 93.3612C98.5518 93.4455 97.5899 92.6207 97.5056 91.5194L95.1511 60.7479L99.1394 60.4433L101.494 91.2138Z" fill="#F76E27"/>
<path d="M108.309 88.3787V86.871C108.309 86.2271 108.912 85.7519 109.54 85.8928C124.354 89.2161 133.21 88.7141 146.037 77.6875C146.477 77.3095 147.15 77.3694 147.503 77.8298L148.525 79.1652C148.828 79.5612 148.792 80.1214 148.439 80.4732C143.04 85.8472 138.977 88.4882 130.419 91.9082C130.363 91.9305 130.302 91.9485 130.243 91.9603C121.387 93.7276 116.749 92.3069 108.951 89.3116C108.565 89.1634 108.309 88.792 108.309 88.3787Z" fill="#FCB519"/>
<path d="M145.711 77.3083C146.361 76.7491 147.368 76.8302 147.9 77.5261L148.922 78.861C149.376 79.4547 149.325 80.2973 148.792 80.8278C143.338 86.2558 139.216 88.9315 130.604 92.3727C130.52 92.4064 130.43 92.433 130.341 92.4509C125.867 93.3436 122.433 93.4352 119.123 92.9157C115.823 92.3979 112.67 91.2754 108.771 89.778C108.193 89.5557 107.809 88.9991 107.809 88.3786V86.8708C107.809 85.9017 108.714 85.1953 109.649 85.405C117.038 87.0626 122.874 87.7489 128.439 86.6804C133.995 85.6137 139.338 82.7865 145.711 77.3083ZM108.809 88.3786C108.809 88.5845 108.937 88.7702 109.13 88.8444C113.029 90.3423 116.095 91.4288 119.278 91.9284C122.45 92.4261 125.763 92.3449 130.145 91.4704C130.174 91.4646 130.205 91.4551 130.233 91.444C138.738 88.0453 142.742 85.4387 148.087 80.1188C148.26 79.9458 148.279 79.6677 148.128 79.4694L147.105 78.1335C146.933 77.9089 146.592 77.8705 146.363 78.0671C139.909 83.6154 134.41 86.5526 128.628 87.6628C122.855 88.7711 116.855 88.0462 109.43 86.3806C109.11 86.3088 108.809 86.5525 108.809 86.8708V88.3786Z" fill="#FCB017"/>
<path d="M146.832 78.4517C133.443 89.0592 124.931 91.2978 109.437 86.5415C108.848 86.3605 108.564 85.6884 108.845 85.1395L120.487 62.3892C120.75 61.8747 121.393 61.6898 121.89 61.9863L146.723 76.8195C147.32 77.176 147.377 78.02 146.832 78.4517Z" fill="#FFCE2E"/>
<path d="M120.042 62.1614C120.437 61.3896 121.402 61.1123 122.146 61.5569L146.979 76.3899C147.875 76.9252 147.962 78.1943 147.142 78.844C140.427 84.1641 134.881 87.4297 129.034 88.7454C123.179 90.0628 117.082 89.4115 109.291 87.0198C108.403 86.7473 107.978 85.7365 108.4 84.9114L120.042 62.1614ZM121.634 62.4153C121.385 62.2671 121.063 62.3601 120.931 62.6174L109.291 85.3674C109.151 85.6402 109.292 85.9742 109.584 86.0637C117.286 88.4283 123.193 89.0344 128.814 87.7698C134.443 86.5032 139.848 83.3469 146.521 78.0598C146.791 77.8462 146.764 77.427 146.467 77.2493L121.634 62.4153Z" fill="#FCB519"/>
<path d="M119.719 82.2597C118.428 80.8125 120.686 77.0853 120.82 74.7776C120.954 72.47 125.191 78.4234 123.022 82.2597C122.366 83.4207 121.01 83.7068 119.719 82.2597Z" fill="#FCB017"/>
<path d="M130.731 79.382C129.094 78.6482 125.814 70.8255 128.528 71.8999C129.9 72.443 133.521 75.1201 133.484 76.5043C133.441 78.0929 132.128 80.0085 130.731 79.382Z" fill="#FCB017"/>
<path d="M120.854 73.8164C121.058 73.7335 121.259 73.7568 121.414 73.8076C121.568 73.8577 121.708 73.9433 121.83 74.0371C122.304 74.4008 122.82 75.1314 123.236 75.999C124.067 77.7332 124.662 80.3751 123.457 82.5058C123.066 83.1982 122.427 83.6889 121.639 83.7373C120.855 83.7853 120.056 83.3884 119.346 82.5927C118.897 82.0889 118.793 81.4259 118.828 80.7773C118.864 80.1263 119.044 79.4055 119.256 78.6982C119.363 78.3414 119.481 77.9786 119.597 77.623C119.713 77.2653 119.828 76.9143 119.931 76.5722C120.14 75.8816 120.291 75.2635 120.321 74.749C120.339 74.4389 120.434 73.9872 120.854 73.8164ZM121.31 74.9062C121.261 75.5195 121.089 76.1953 120.888 76.8613C120.781 77.2157 120.663 77.5773 120.547 77.9326C120.431 78.2898 120.317 78.6417 120.214 78.9853C120.006 79.6789 119.855 80.3052 119.826 80.832C119.797 81.3613 119.896 81.707 120.092 81.9267C120.673 82.5776 121.196 82.7615 121.577 82.7382C121.954 82.7151 122.322 82.4821 122.587 82.0136C123.551 80.3083 123.112 78.0552 122.333 76.4306C121.982 75.6985 121.596 75.1673 121.31 74.9062ZM127.497 71.4687C127.867 71.2192 128.313 71.2777 128.712 71.4355C129.471 71.736 130.767 72.5801 131.858 73.5058C132.408 73.9728 132.928 74.4782 133.312 74.9687C133.676 75.4332 133.998 75.9825 133.984 76.5175C133.959 77.4266 133.578 78.4123 132.996 79.0976C132.417 79.7802 131.515 80.2813 130.526 79.8379C130.218 79.6998 129.93 79.4286 129.675 79.1308C129.411 78.8217 129.144 78.4353 128.887 78.0107C128.374 77.1611 127.881 76.1179 127.528 75.1318C127.182 74.1664 126.941 73.1793 126.999 72.4716C127.028 72.1242 127.14 71.7099 127.497 71.4687ZM128.054 72.3017C128.04 72.3234 128.009 72.3909 127.995 72.5537C127.956 73.0335 128.13 73.8466 128.469 74.7939C128.801 75.7208 129.265 76.7043 129.742 77.4941C129.981 77.8891 130.217 78.2266 130.435 78.4814C130.662 78.747 130.833 78.8802 130.935 78.9257C131.343 79.1088 131.796 78.9658 132.234 78.4502C132.669 77.9372 132.965 77.1706 132.984 76.4912C132.988 76.3342 132.872 76.0293 132.525 75.5859C132.198 75.1682 131.732 74.7107 131.21 74.2675C130.157 73.3731 128.957 72.6078 128.344 72.3652C128.161 72.2929 128.079 72.2972 128.054 72.3017Z" fill="#FCB017"/>
<path d="M107.811 116.881C106.896 113.535 107.197 109.713 107.577 108.249C107.674 107.877 108.046 107.749 108.412 107.869C124.017 112.967 135.61 116.405 148.555 107.096C157.121 100.936 160.12 94.6755 163.517 84.0749C164.293 87.4504 164.699 89.4672 164.527 95.9652C164.524 96.0928 164.494 96.2251 164.443 96.3421C158.692 109.554 155.911 111.639 146.903 116.881C133.564 124.642 108.912 120.909 107.811 116.881Z" fill="#FCB017"/>
<path d="M109.386 107.294C108.826 106.99 108.714 106.244 109.142 105.772C115.146 99.1433 120.992 92.2719 130.883 87.6946C142.58 82.2821 156.294 75.695 163.586 83.3033C163.799 83.5255 163.887 83.8429 163.826 84.1447C161.782 94.2607 155.306 103.453 144.648 108.99C132.41 115.347 118.488 112.239 109.386 107.294Z" fill="#FFD97C"/>
<path d="M122.995 93.8583C124.582 94.4113 134.962 102.02 141.977 109.11C142.418 109.556 143.159 109.505 143.578 109.04C144.154 108.402 144.949 107.671 145.57 107.671C146.653 107.671 134.822 97.3846 126.172 91.8261C125.904 91.6541 125.575 91.6237 125.282 91.7494C124.196 92.2162 121.682 93.4009 122.995 93.8583Z" fill="#FCB017"/>
<path d="M131.871 88.8544C131.108 88.3785 131.327 87.2251 132.209 87.0522L135.253 86.4557C135.513 86.4049 135.785 86.4605 136.004 86.6078C143.09 91.353 147.281 94.1935 154.057 100.012C154.518 100.407 154.521 101.121 154.062 101.52L152.41 102.96C151.982 103.332 151.331 103.273 150.961 102.842C145.763 96.7772 139.177 93.4127 131.871 88.8544Z" fill="#FCB017"/>
<path d="M142.266 83.499C141.349 83.499 145.01 82.303 146.263 81.9018C146.525 81.8181 146.809 81.8494 147.049 81.9837C153.439 85.5702 156.183 87.8075 159.51 91.6901C159.743 91.9622 159.809 92.3397 159.686 92.6762L158.937 94.7258C158.69 95.4029 157.829 95.6049 157.299 95.1158C151.354 89.6261 143.301 83.499 142.266 83.499Z" fill="#FCB017"/>
<path d="M163.379 82.4257C163.654 82.4029 163.896 82.6076 163.919 82.8828L164.011 83.997C164.791 87.3921 165.2 89.4588 165.027 95.9785C165.022 96.1709 164.978 96.3667 164.901 96.542C162.022 103.157 159.863 107.044 157.267 109.935C154.667 112.828 151.654 114.694 147.154 117.312C140.361 121.265 130.747 122.27 122.738 121.801C118.726 121.566 115.085 120.96 112.365 120.151C111.007 119.748 109.859 119.288 109.006 118.787C108.179 118.302 107.52 117.716 107.328 117.013C106.389 113.576 106.692 109.664 107.093 108.124C107.181 107.786 107.406 107.538 107.699 107.414C107.98 107.296 108.291 107.303 108.567 107.394C116.382 109.946 123.118 112.056 129.507 112.386C135.864 112.713 141.886 111.276 148.263 106.69C152.498 103.645 155.341 100.587 157.548 96.9892C159.747 93.4032 161.325 89.2625 163.01 84.0136L162.923 82.9648C162.9 82.6899 163.104 82.4488 163.379 82.4257ZM163.423 85.9687C161.921 90.4814 160.424 94.2141 158.4 97.5127C156.117 101.236 153.177 104.388 148.847 107.502C142.279 112.225 136.031 113.723 129.455 113.384C122.91 113.046 116.047 110.889 108.257 108.344C108.167 108.315 108.109 108.326 108.088 108.335C108.079 108.339 108.074 108.344 108.074 108.344C108.073 108.345 108.067 108.354 108.062 108.375C107.701 109.762 107.404 113.495 108.293 116.749C108.376 117.052 108.729 117.465 109.513 117.925C110.27 118.369 111.333 118.801 112.649 119.192C115.278 119.974 118.841 120.571 122.797 120.803C130.725 121.267 140.106 120.257 146.651 116.448C151.16 113.825 154.042 112.028 156.522 109.267C159.006 106.502 161.114 102.74 163.985 96.1425C164.011 96.0839 164.026 96.0147 164.027 95.9521C164.166 90.7151 163.927 88.4271 163.423 85.9687Z" fill="#FCB017"/>
<path d="M148.771 80.1292C154.628 78.744 160.113 78.9572 163.947 82.9573C164.277 83.3015 164.408 83.7864 164.316 84.2434C162.242 94.5079 155.67 103.827 144.878 109.433C132.438 115.895 118.332 112.723 109.147 107.733C108.291 107.267 108.135 106.138 108.771 105.436C114.763 98.8213 120.674 91.8677 130.673 87.2405C136.505 84.5418 142.909 81.5157 148.771 80.1292ZM163.225 83.6497C159.767 80.0416 154.749 79.7434 149.001 81.1028C143.259 82.4609 136.958 85.4349 131.093 88.1487C121.309 92.6762 115.529 99.4656 109.512 106.108C109.293 106.35 109.361 106.712 109.624 106.855C118.644 111.755 132.38 114.799 144.417 108.546C154.941 103.079 161.321 94.0127 163.335 84.0452C163.365 83.8989 163.321 83.7498 163.225 83.6497Z" fill="#FCB017"/>
<path d="M125.084 91.29C125.533 91.0973 126.038 91.1455 126.442 91.4052C130.791 94.2001 135.929 98.1766 139.841 101.45C141.798 103.087 143.455 104.555 144.559 105.617C145.107 106.145 145.533 106.586 145.791 106.903C145.909 107.049 146.032 107.217 146.092 107.376C146.115 107.436 146.188 107.637 146.087 107.852C145.957 108.133 145.683 108.171 145.57 108.171C145.432 108.171 145.19 108.266 144.858 108.516C144.546 108.751 144.228 109.067 143.95 109.375C143.357 110.032 142.284 110.131 141.622 109.462C138.135 105.938 133.804 102.278 130.144 99.4277C128.315 98.0034 126.656 96.7849 125.36 95.8896C124.712 95.4418 124.157 95.0768 123.718 94.8085C123.266 94.5321 122.972 94.3793 122.831 94.33C122.627 94.259 122.407 94.146 122.264 93.9452C122.097 93.7103 122.096 93.4455 122.177 93.2275C122.249 93.0356 122.382 92.8769 122.505 92.7558C122.635 92.6287 122.792 92.5076 122.956 92.3954C123.6 91.9533 124.541 91.5235 125.084 91.29ZM125.902 92.247C125.771 92.1628 125.616 92.1505 125.48 92.2089C124.937 92.4422 124.077 92.8385 123.522 93.2197C123.413 93.2941 123.325 93.3641 123.255 93.4257C123.505 93.5282 123.846 93.7145 124.24 93.955C124.7 94.2363 125.271 94.6124 125.928 95.0663C127.244 95.9748 128.917 97.2053 130.758 98.6386C134.438 101.504 138.805 105.193 142.333 108.759C142.551 108.98 142.961 108.978 143.208 108.705C143.505 108.375 143.872 108.006 144.256 107.717C144.434 107.583 144.637 107.449 144.853 107.348C144.626 107.091 144.295 106.75 143.866 106.337C142.785 105.297 141.147 103.846 139.2 102.217C135.305 98.9574 130.202 95.0105 125.902 92.247ZM135.158 85.9648C135.548 85.8883 135.954 85.9724 136.283 86.1923C143.372 90.9403 147.583 93.794 154.382 99.6318C155.075 100.226 155.079 101.298 154.391 101.897L152.739 103.337C152.094 103.899 151.125 103.802 150.582 103.168C145.448 97.1781 138.96 93.8664 131.606 89.2783C130.452 88.558 130.793 86.8203 132.113 86.5615L135.158 85.9648ZM135.349 86.9462L132.305 87.5429C131.861 87.6302 131.764 88.199 132.135 88.4306C139.393 92.959 146.079 96.3769 151.341 102.518C151.537 102.745 151.871 102.766 152.082 102.583L153.734 101.143C153.962 100.945 153.961 100.588 153.731 100.391C146.978 94.5926 142.807 91.7656 135.726 87.0234C135.615 86.949 135.477 86.9211 135.349 86.9462ZM146.111 81.4257C146.508 81.2987 146.936 81.3471 147.293 81.5478C153.722 85.1555 156.515 87.4279 159.889 91.3652C160.241 91.776 160.34 92.3434 160.156 92.8476L159.407 94.8974C159.035 95.915 157.748 96.2101 156.96 95.4833C154 92.75 150.512 89.8556 147.636 87.6454C146.198 86.5402 144.919 85.6103 143.939 84.9589C143.448 84.6326 143.039 84.3806 142.728 84.2128C142.572 84.1288 142.449 84.0703 142.357 84.0341C142.251 83.9924 142.232 83.999 142.266 83.999C142.203 83.999 142.083 83.9969 141.968 83.9531C141.911 83.9313 141.778 83.8704 141.691 83.7197C141.586 83.539 141.616 83.3561 141.666 83.2441C141.708 83.1482 141.77 83.0851 141.801 83.0556C141.838 83.0212 141.875 82.9941 141.905 82.9736C141.965 82.9323 142.035 82.8932 142.102 82.8593C142.366 82.7257 142.803 82.5546 143.28 82.3808C144.247 82.028 145.484 81.6264 146.111 81.4257ZM146.804 82.4199C146.683 82.3518 146.542 82.3375 146.416 82.3779C145.789 82.5783 144.569 82.9748 143.623 83.3202C143.531 83.3538 143.442 83.3881 143.358 83.4199C143.679 83.6012 144.061 83.84 144.492 84.1259C145.498 84.7949 146.798 85.7399 148.246 86.8525C151.142 89.0783 154.653 91.9925 157.638 94.749C157.91 94.9997 158.345 94.8907 158.468 94.5546L159.216 92.5048C159.278 92.3361 159.244 92.1488 159.13 92.0156C155.85 88.1877 153.156 85.9849 146.804 82.4199Z" fill="#FCB017"/>
<path d="M140.758 132.557C140.462 133.623 137.453 133.638 134.038 132.592C130.622 131.545 128.094 129.833 128.39 128.767C128.687 127.701 131.696 127.685 135.111 128.732C138.526 129.778 141.054 131.491 140.758 132.557Z" fill="#A5C649"/>
<path d="M133.33 126.137C136.354 125.261 139.023 125.376 139.291 126.395C139.559 127.413 137.324 128.949 134.299 129.825C131.275 130.702 128.606 130.586 128.338 129.568C128.071 128.55 130.305 127.014 133.33 126.137Z" fill="#8EB534"/>
<path d="M134.318 124.84C137.412 123.943 140.159 124.124 140.454 125.244C140.748 126.363 138.478 127.998 135.384 128.894C132.29 129.791 129.543 129.61 129.248 128.49C128.954 127.371 131.224 125.736 134.318 124.84Z" fill="#A5C649"/>
<path d="M96.4193 137.169C95.2688 135.075 95.5133 134.537 96.2753 133.811L101.892 137.505C103.759 138.572 105.924 138.345 106.788 138.009C107.652 137.673 109.163 136.96 112.117 134.65C115.042 132.711 116.795 131.824 120.325 130.956C123.029 130.288 124.674 130.269 127.67 130.452C128.56 130.416 129.011 130.261 129.686 129.612C130.126 131.421 130.282 132.385 129.398 133.475C130.537 135.858 130.424 137.001 128.246 138.513C128.181 140.718 127.401 141.262 124.646 141.032C122.766 143.376 121.595 143.268 119.461 142.543L114.997 144.726C112.939 146.052 111.963 146.017 110.388 145.23C107.817 147.314 106.676 147.179 104.916 145.734C102.213 146.492 101.421 146.013 101.028 143.887C99.0926 144.314 98.295 144.004 97.8594 141.536C95.7962 140.372 95.7016 139.337 96.4193 137.169Z" fill="#FFE1B8"/>
<path d="M130.172 129.494C130.389 130.388 130.556 131.145 130.538 131.826C130.521 132.447 130.35 132.993 129.976 133.534C130.469 134.615 130.735 135.547 130.556 136.421C130.371 137.328 129.733 138.05 128.732 138.776C128.675 139.787 128.442 140.605 127.741 141.096C127.376 141.351 126.928 141.483 126.419 141.542C125.974 141.593 125.457 141.589 124.865 141.548C123.967 142.623 123.161 143.227 122.257 143.427C121.37 143.622 120.481 143.406 119.498 143.081L115.234 145.167C114.198 145.831 113.366 146.2 112.553 146.269C111.818 146.33 111.158 146.14 110.452 145.815C109.27 146.74 108.307 147.253 107.376 147.305C106.428 147.357 105.629 146.93 104.801 146.28C104.215 146.435 103.703 146.536 103.255 146.564C102.742 146.595 102.281 146.537 101.884 146.34C101.194 145.997 100.852 145.317 100.642 144.47C99.8732 144.599 99.1719 144.594 98.6023 144.212C97.9608 143.781 97.63 142.97 97.4109 141.85C96.4576 141.28 95.846 140.675 95.616 139.865C95.3936 139.083 95.562 138.216 95.8787 137.219C95.3707 136.266 95.1153 135.558 95.1306 134.964C95.1486 134.268 95.5296 133.83 95.9304 133.448L96.2185 133.175L96.5505 133.393L102.149 137.076C102.995 137.557 103.917 137.751 104.736 137.783C105.565 137.816 106.251 137.681 106.607 137.543C107.414 137.229 108.882 136.545 111.808 134.257L111.824 134.244L111.841 134.233C114.803 132.27 116.609 131.356 120.206 130.471L120.714 130.35C123.185 129.787 124.852 129.78 127.664 129.95C128.079 129.933 128.344 129.89 128.572 129.798C128.799 129.706 129.028 129.552 129.34 129.252L129.967 128.649L130.172 129.494ZM129.377 130.501C129.238 130.589 129.096 130.665 128.945 130.726C128.559 130.881 128.156 130.932 127.69 130.951L127.665 130.952L127.639 130.951C124.855 130.781 123.285 130.788 120.927 131.326L120.445 131.441C116.984 132.293 115.283 133.152 112.398 135.064C109.434 137.378 107.888 138.118 106.969 138.475C106.461 138.672 105.634 138.82 104.697 138.783C103.753 138.746 102.662 138.522 101.643 137.94L101.63 137.932L101.617 137.923L96.3494 134.458C96.1948 134.647 96.1346 134.799 96.1296 134.99C96.121 135.331 96.2837 135.885 96.8572 136.929L96.9626 137.119L96.8943 137.326C96.5356 138.409 96.4318 139.078 96.5779 139.592C96.6983 140.016 97.0174 140.424 97.7605 140.895L98.1052 141.1L98.3103 141.216L98.3513 141.448C98.5684 142.678 98.8529 143.176 99.1599 143.382C99.4622 143.585 99.9464 143.614 100.92 143.398L101.426 143.287L101.519 143.796C101.714 144.848 101.977 145.27 102.328 145.444C102.515 145.537 102.784 145.591 103.192 145.565C103.602 145.54 104.12 145.438 104.781 145.253L105.032 145.182L105.233 145.348C106.092 146.053 106.69 146.341 107.32 146.306C107.978 146.269 108.8 145.875 110.074 144.842L110.324 144.639L110.612 144.783C111.369 145.162 111.907 145.32 112.469 145.273C113.044 145.224 113.719 144.954 114.726 144.306L114.751 144.29L114.777 144.277L119.242 142.094L119.427 142.003L119.622 142.069C120.693 142.433 121.397 142.592 122.041 142.45C122.669 142.312 123.341 141.859 124.256 140.719L124.423 140.512L124.687 140.533C125.362 140.59 125.89 140.597 126.304 140.549C126.718 140.501 126.986 140.403 127.168 140.275C127.505 140.04 127.714 139.578 127.746 138.498L127.754 138.246L127.961 138.102C129.021 137.366 129.458 136.798 129.576 136.221C129.698 135.623 129.513 134.874 128.947 133.69L128.811 133.405L129.01 133.16C129.385 132.697 129.525 132.287 129.539 131.799C129.549 131.436 129.488 131.023 129.377 130.501Z" fill="#D7C3A7"/>
<path d="M99.6573 137.785C100.508 138.39 100.961 139.336 100.671 139.897C100.381 140.459 99.4561 140.423 98.6059 139.819C97.7557 139.214 97.3018 138.268 97.5921 137.707C97.8825 137.145 98.8071 137.18 99.6573 137.785Z" fill="#FFF3E2"/>
<path d="M105.093 141.682C105.017 142.233 104.319 142.558 103.536 142.407C102.753 142.257 102.181 141.688 102.258 141.137C102.335 140.586 103.032 140.261 103.815 140.412C104.598 140.562 105.17 141.131 105.093 141.682Z" fill="#FFF3E2"/>
<path d="M109.158 144.265C109.044 144.807 108.285 145.054 107.463 144.815C106.641 144.576 106.067 143.944 106.182 143.402C106.296 142.859 107.055 142.613 107.877 142.852C108.699 143.09 109.272 143.723 109.158 144.265Z" fill="#FFF3E2"/>
<path d="M110.172 139.491C110.418 140.107 110.034 140.926 109.316 141.321C108.597 141.716 107.815 141.536 107.569 140.92C107.324 140.305 107.707 139.485 108.425 139.091C109.144 138.696 109.926 138.875 110.172 139.491Z" fill="#FFF3E2"/>
<path d="M113.686 140.807C114.047 141.301 113.82 142.225 113.179 142.869C112.539 143.513 111.726 143.634 111.365 143.139C111.003 142.644 111.23 141.721 111.871 141.077C112.512 140.433 113.324 140.312 113.686 140.807Z" fill="#FFF3E2"/>
<path d="M114.611 135.813C114.89 136.259 114.581 137.079 113.922 137.645C113.264 138.21 112.504 138.307 112.226 137.861C111.947 137.415 112.256 136.595 112.914 136.029C113.573 135.464 114.333 135.367 114.611 135.813Z" fill="#FFF3E2"/>
<path d="M124.211 138.99C124.086 139.579 123.298 139.857 122.451 139.609C121.604 139.362 121.019 138.683 121.144 138.094C121.269 137.505 122.057 137.228 122.904 137.475C123.751 137.723 124.336 138.401 124.211 138.99Z" fill="#FFEEDF"/>
<path d="M124.995 132.601C125.315 133.134 125.047 133.999 124.398 134.534C123.748 135.069 122.963 135.07 122.644 134.537C122.325 134.004 122.593 133.138 123.242 132.603C123.891 132.069 124.676 132.067 124.995 132.601Z" fill="#FFF1DF"/>
<path d="M127.728 136.806C127.327 137.609 126.617 137.996 126.141 137.67C125.666 137.344 125.605 136.428 126.006 135.625C126.406 134.822 127.117 134.435 127.592 134.761C128.067 135.087 128.128 136.003 127.728 136.806Z" fill="#FFEEDF"/>
<path d="M98.9745 129.862C97.5174 129.176 96.6643 129.221 95.0952 130.465C96.2062 126.32 98.0679 124.149 104.434 120.66C108.551 119.55 110.881 119.235 115.066 119.303C119.986 119.754 122.654 120.605 127.135 123.979L127.227 124.063C129.016 125.715 130.046 126.666 130.727 128.655C130.923 129.837 130.551 130.271 129.29 130.767C126.211 129.111 124.337 128.897 120.813 129.409L116.503 130.164C113.631 130.901 111.945 131.858 108.745 134.991C105.652 137.403 104.792 137.679 104.003 137.253L102.997 134.236C101.679 132.04 100.77 131.136 98.9745 129.862Z" fill="#A5C649"/>
<path d="M115.075 118.803H115.093L115.112 118.805C117.591 119.032 119.538 119.363 121.441 120.076C123.106 120.701 124.715 121.61 126.607 122.969L127.436 123.579L127.456 123.595L127.474 123.611L127.566 123.696C129.35 125.343 130.473 126.371 131.2 128.493L131.213 128.532L131.22 128.573C131.326 129.213 131.302 129.78 130.962 130.258C130.644 130.706 130.108 130.983 129.473 131.232L129.257 131.317L129.053 131.207C127.544 130.395 126.361 129.955 125.143 129.77C123.924 129.584 122.635 129.649 120.899 129.901L116.605 130.653C115.211 131.012 114.128 131.42 113.008 132.105C111.875 132.8 110.684 133.791 109.094 135.348L109.074 135.367L109.052 135.385C107.509 136.589 106.478 137.297 105.716 137.642C105.329 137.817 104.981 137.913 104.65 137.918C104.308 137.923 104.023 137.832 103.766 137.693L103.591 137.6L103.529 137.411L102.541 134.448C101.904 133.392 101.375 132.661 100.799 132.045C100.224 131.429 99.5881 130.913 98.7222 130.297C98.0462 129.983 97.585 129.874 97.145 129.935C96.6875 129.997 96.1676 130.253 95.4058 130.857L94.2202 131.798L94.6118 130.336C95.1821 128.208 95.9582 126.548 97.4292 124.975C98.8852 123.418 100.999 121.972 104.194 120.222L104.247 120.193L104.304 120.178C108.463 119.056 110.839 118.734 115.075 118.803ZM115.038 119.802C110.935 119.736 108.655 120.042 104.624 121.126C101.482 122.851 99.4967 124.229 98.1597 125.658C97.1368 126.752 96.4797 127.891 95.9849 129.277C96.3293 129.104 96.6655 128.991 97.0093 128.944C97.7436 128.844 98.4277 129.052 99.187 129.409L99.228 129.429L99.2642 129.454C100.175 130.1 100.881 130.668 101.53 131.362C102.098 131.97 102.611 132.664 103.179 133.575L103.426 133.979L103.455 134.026L103.472 134.078L104.406 136.884C104.48 136.908 104.554 136.92 104.634 136.919C104.782 136.917 104.991 136.872 105.304 136.73C105.941 136.442 106.881 135.808 108.418 134.609C110.017 133.046 111.264 132 112.486 131.252C113.721 130.495 114.911 130.056 116.378 129.68L116.398 129.675L116.417 129.671L120.727 128.917L120.734 128.916L120.742 128.915C122.522 128.656 123.928 128.573 125.293 128.78C126.601 128.979 127.839 129.44 129.315 130.216C129.797 130.01 130.029 129.844 130.147 129.679C130.257 129.524 130.319 129.291 130.239 128.776C129.604 126.949 128.668 126.074 126.887 124.431L126.813 124.362C124.604 122.701 122.866 121.679 121.09 121.013C119.313 120.346 117.47 120.025 115.038 119.802Z" fill="#A5C649"/>
<path d="M109.977 133.706C107.441 136.272 106.024 137.221 103.871 137.586C103.619 137.629 103.429 137.843 103.429 138.099C103.429 138.377 103.651 138.604 103.929 138.602C105.807 138.586 106.868 138.241 108.522 137.336L108.618 137.275C111.015 135.774 112.392 134.911 116.234 132.917C121.66 130.838 127.148 130.708 129.185 130.707C131.222 130.707 124.674 129.445 124.674 129.445C121.637 129.062 119.776 129.229 116.234 130.076C113.754 130.918 112.381 131.647 109.977 133.706Z" fill="#77A51D"/>
<path d="M116.118 129.59C119.702 128.732 121.625 128.557 124.736 128.949L124.753 128.951L124.769 128.954C124.769 128.954 124.772 128.955 124.773 128.955C124.777 128.955 124.782 128.957 124.788 128.958C124.801 128.96 124.819 128.964 124.843 128.969C124.891 128.978 124.96 128.991 125.048 129.009C125.224 129.043 125.473 129.093 125.765 129.152C126.348 129.271 127.108 129.43 127.805 129.589C128.49 129.745 129.149 129.909 129.51 130.04C129.598 130.072 129.698 130.111 129.78 130.16C129.817 130.181 129.89 130.228 129.954 130.305C130.02 130.385 130.15 130.601 130.03 130.862C129.94 131.059 129.764 131.127 129.723 131.143C129.656 131.169 129.59 131.181 129.542 131.188C129.442 131.203 129.32 131.208 129.186 131.208C127.169 131.208 121.771 131.337 116.442 133.372C112.633 135.349 111.269 136.205 108.884 137.699L108.787 137.76L108.774 137.767L108.762 137.774C107.92 138.235 107.204 138.567 106.446 138.783C105.685 139 104.903 139.093 103.933 139.101C103.369 139.106 102.929 138.646 102.929 138.099C102.929 137.587 103.308 137.174 103.788 137.093C105.659 136.775 106.94 136.003 109.163 133.812L109.636 133.34L109.651 133.326C112.103 131.226 113.532 130.465 116.073 129.602L116.096 129.595L116.118 129.59ZM103.929 138.1C104.834 138.093 105.521 138.007 106.173 137.821C106.825 137.635 107.462 137.344 108.269 136.903L108.353 136.851C110.756 135.345 112.146 134.475 116.004 132.473L116.029 132.46L116.056 132.45C119.863 130.991 123.694 130.478 126.377 130.3C126.088 130.239 125.811 130.182 125.565 130.132C125.276 130.073 125.029 130.024 124.854 129.99C124.767 129.973 124.698 129.959 124.651 129.95C124.63 129.946 124.614 129.942 124.602 129.939C121.651 129.568 119.853 129.725 116.373 130.556C113.975 131.372 112.658 132.07 110.32 134.069C107.769 136.649 106.262 137.688 103.955 138.079C103.945 138.081 103.937 138.085 103.933 138.091C103.93 138.093 103.93 138.095 103.93 138.096C103.929 138.097 103.929 138.099 103.929 138.1Z" fill="#77A51D"/>
<path d="M100.86 130.825C102.892 133.065 103.758 134.649 104.119 136.902C104.247 137.706 103.356 138.228 102.671 137.789L97.9821 134.786C94.8727 132.609 94.934 131.773 95.2699 130.47C95.3109 130.311 95.3908 130.163 95.5069 130.047C96.7872 128.77 97.9526 128.859 100.676 130.666C100.743 130.711 100.806 130.765 100.86 130.825Z" fill="#8EB534"/>
<path d="M95.1536 129.693C95.8616 128.987 96.6151 128.592 97.6057 128.703C98.5279 128.806 99.5882 129.345 100.952 130.25C101.054 130.317 101.149 130.398 101.231 130.488C103.304 132.775 104.232 134.445 104.613 136.823C104.819 138.113 103.398 138.848 102.401 138.21L97.7122 135.208L97.7034 135.202L97.6956 135.196C96.1372 134.105 95.2823 133.292 94.8899 132.529C94.4682 131.71 94.613 131.014 94.7854 130.345C94.8465 130.108 94.9682 129.878 95.1536 129.693ZM97.4944 129.697C96.9015 129.631 96.4318 129.831 95.8596 130.401C95.8131 130.448 95.7749 130.514 95.7542 130.595C95.5907 131.229 95.5377 131.603 95.7786 132.071C96.048 132.595 96.7134 133.286 98.2522 134.365L102.941 137.368C103.115 137.48 103.304 137.466 103.442 137.383C103.574 137.303 103.655 137.164 103.625 136.98C103.285 134.853 102.479 133.355 100.49 131.16C100.464 131.132 100.432 131.104 100.4 131.083C99.0404 130.181 98.1559 129.771 97.4944 129.697Z" fill="#8EB534"/>
<path d="M97.969 125.027L96.8196 126.535C99.2536 126.23 100.268 126.535 101.417 127.289C102.567 128.044 104.624 130.278 105.44 132.72C106.032 132.772 106.216 132.663 106.159 132.116C105.142 129.661 104.281 128.377 102.136 126.233C100.81 125.268 99.8383 125.101 97.969 125.027Z" fill="#77A51D"/>
<path d="M97.9885 124.527C98.9275 124.564 99.6855 124.626 100.385 124.813C101.008 124.979 101.568 125.241 102.169 125.647L102.43 125.829L102.461 125.852L102.49 125.88C104.676 128.066 105.576 129.403 106.62 131.925L106.649 131.993L106.656 132.065C106.685 132.342 106.692 132.766 106.353 133.035C106.196 133.158 106.016 133.204 105.867 133.221C105.718 133.238 105.557 133.232 105.397 133.218L105.07 133.19L104.966 132.878C104.582 131.729 103.898 130.611 103.162 129.683C102.424 128.752 101.659 128.046 101.143 127.707C100.604 127.354 100.124 127.123 99.5071 127.006C98.8781 126.887 98.0744 126.882 96.8821 127.032L95.6995 127.18L97.5715 124.724L97.7288 124.517L97.9885 124.527ZM97.9055 125.934C98.6 125.897 99.1785 125.927 99.6926 126.024C100.478 126.172 101.081 126.471 101.692 126.871C102.325 127.287 103.164 128.076 103.946 129.061C104.013 129.146 104.079 129.234 104.146 129.323C103.561 128.468 102.841 127.647 101.813 126.618C101.203 126.177 100.691 125.929 100.127 125.779C99.5977 125.637 99.0041 125.577 98.2063 125.539L97.9055 125.934Z" fill="#8EB534"/>
<path d="M102.997 121.708L101.417 122.613C105.922 123.305 107.786 125.008 109.894 130.457C110.527 130.723 110.723 130.391 111.043 129.703C108.409 123.495 106.527 122.479 102.997 121.708Z" fill="#77A51D"/>
<path d="M103.104 121.219C104.895 121.611 106.353 122.081 107.692 123.297C109.015 124.497 110.179 126.386 111.504 129.508L111.591 129.712L111.497 129.914C111.417 130.085 111.335 130.256 111.248 130.403C111.161 130.549 111.051 130.705 110.9 130.827C110.738 130.958 110.542 131.039 110.315 131.048C110.103 131.056 109.896 131 109.7 130.918L109.504 130.836L109.428 130.637C108.38 127.93 107.42 126.231 106.215 125.118C105.024 124.019 103.542 123.445 101.341 123.107L99.9268 122.89L102.916 121.178L103.104 121.219ZM102.838 122.375C104.482 122.757 105.785 123.36 106.894 124.384C108.234 125.621 109.238 127.43 110.268 130.048C110.269 130.048 110.27 130.048 110.271 130.048C110.289 130.033 110.328 129.994 110.388 129.893C110.421 129.836 110.455 129.769 110.493 129.691C109.223 126.735 108.152 125.065 107.02 124.037C105.918 123.037 104.718 122.608 103.075 122.238L102.838 122.375Z" fill="#8EB534"/>
<path d="M119.951 120.35L117.509 119.596C119.829 122.162 121.005 123.674 121.819 127.139C122.588 127.431 122.729 127.143 122.825 126.384C122.046 123.93 121.364 122.625 119.951 120.35Z" fill="#77A51D"/>
<path d="M120.099 119.873L120.277 119.928L120.376 120.086C121.803 122.384 122.506 123.727 123.302 126.233L123.335 126.337L123.321 126.447C123.297 126.642 123.266 126.837 123.215 127.007C123.164 127.175 123.078 127.373 122.91 127.526C122.529 127.872 122.028 127.753 121.642 127.606L121.393 127.511L121.332 127.252C120.935 125.56 120.454 124.368 119.801 123.29C119.142 122.203 118.298 121.214 117.138 119.931L115.917 118.582L120.099 119.873ZM119.056 120.597C119.677 121.332 120.205 122.026 120.656 122.771C121.336 123.892 121.83 125.112 122.234 126.741C122.239 126.742 122.243 126.742 122.247 126.743C122.249 126.736 122.254 126.728 122.257 126.719C122.278 126.65 122.294 126.556 122.312 126.428C121.582 124.15 120.934 122.894 119.623 120.773L119.056 120.597Z" fill="#8EB534"/>
<path d="M114.441 118.996L109.69 119.294C109.602 119.299 109.565 119.409 109.631 119.469C113.419 122.936 114.971 125.258 116.072 130.188C116.073 130.195 116.074 130.201 116.074 130.207C116.242 135.907 116.258 139.12 114.948 144.767C114.934 144.824 114.973 144.882 115.031 144.889C116.483 145.076 117.424 144.755 119.206 143.478C119.228 143.463 119.242 143.439 119.247 143.414C119.813 140.221 120.019 138.424 120.247 135.248C120.526 131.87 120.369 130.108 119.528 127.199C118.228 123.723 117.037 121.966 114.524 119.031C114.503 119.007 114.473 118.994 114.441 118.996Z" fill="#1A0A25"/>
<path d="M114.481 118.497C114.622 118.505 114.754 118.562 114.856 118.656L114.904 118.706L115.797 119.769C117.612 121.98 118.677 123.665 119.748 126.379L119.996 127.024L120.003 127.042L120.008 127.06C120.867 130.032 121.028 131.856 120.745 135.283C120.516 138.474 120.309 140.289 119.739 143.501C119.712 143.655 119.624 143.793 119.497 143.885C118.595 144.531 117.865 144.966 117.155 145.207C116.428 145.453 115.75 145.486 114.967 145.386C114.604 145.339 114.384 144.988 114.461 144.654L114.689 143.635C115.752 138.677 115.731 135.567 115.575 130.261C115.034 127.848 114.389 126.102 113.433 124.542C112.469 122.97 111.174 121.559 109.293 119.838C108.918 119.494 109.11 118.829 109.659 118.795L114.41 118.497H114.481ZM110.648 119.734C112.208 121.215 113.378 122.539 114.285 124.019C115.322 125.711 116.002 127.581 116.56 130.079L116.574 130.193L116.628 132.23C116.723 136.624 116.6 139.694 115.534 144.432C116.004 144.455 116.409 144.403 116.834 144.26C117.374 144.077 117.971 143.738 118.782 143.165C119.324 140.091 119.525 138.319 119.748 135.212L119.749 135.207C120.023 131.891 119.87 130.19 119.053 127.359C117.804 124.021 116.667 122.317 114.271 119.507L110.648 119.734Z" fill="#6F56FF"/>
<path d="M64.9741 92.88C75.3278 92.5408 80.8405 90.1966 93.4483 103.82C95.7876 106.326 94.5166 108.567 88.01 114.122C87.9659 114.16 87.9161 114.195 87.8662 114.225C78.5478 119.703 73.3571 120.736 64.6537 116.665C64.4082 116.551 64.1189 116.536 63.8669 116.635C56.4995 119.549 55.8833 125.018 69.1431 130.609C69.5174 130.767 69.7728 131.136 69.7728 131.542V139.35C69.7728 139.784 69.492 140.171 69.0763 140.297C61.6775 142.55 57.6077 141.725 51.0525 136.626C43.1422 130.557 42.134 124.709 44.425 111.42C44.4383 111.343 44.4616 111.264 44.4925 111.193C48.9225 100.917 53.4037 96.9181 64.6692 92.9372C64.766 92.903 64.8715 92.8834 64.9741 92.88Z" fill="#FF7844"/>
<path d="M69.273 131.543C69.273 131.346 69.1461 131.153 68.9488 131.07C65.61 129.662 63.1175 128.251 61.3775 126.868C59.6441 125.49 58.6121 124.104 58.2838 122.735C57.948 121.334 58.369 120.04 59.3424 118.931C60.3018 117.839 61.8031 116.914 63.6832 116.171C64.0707 116.017 64.5032 116.043 64.8658 116.213C69.1658 118.224 72.5422 118.949 75.9683 118.53C79.4126 118.109 82.9668 116.525 87.6129 113.794C87.6374 113.779 87.6632 113.761 87.6851 113.742C90.9497 110.955 92.8179 109.063 93.6051 107.592C93.9887 106.874 94.0924 106.298 94.0074 105.788C93.9213 105.271 93.6296 104.748 93.0826 104.162L93.0816 104.16C86.8079 97.3807 82.3578 94.639 78.2437 93.5984C76.1812 93.0767 74.1775 92.976 72.0308 93.03C70.9561 93.0571 69.8508 93.1231 68.6832 93.1931C67.5181 93.263 66.2928 93.337 64.9908 93.3796C64.9387 93.3814 64.8833 93.3921 64.8355 93.4089C59.2283 95.3904 55.3629 97.3586 52.3521 100.076C49.3448 102.79 47.1522 106.286 44.9517 111.39C44.9366 111.425 44.9242 111.466 44.9176 111.505C43.7733 118.142 43.4712 122.838 44.399 126.611C45.261 130.117 47.1986 132.876 50.6471 135.67L51.357 136.229L51.3599 136.231C54.6134 138.762 57.1974 140.189 59.8482 140.728C62.4941 141.267 65.2691 140.934 68.9303 139.819C69.1313 139.758 69.2729 139.569 69.273 139.35V131.543ZM70.273 139.35C70.2729 140 69.8521 140.583 69.2223 140.775C65.4851 141.913 62.5253 142.294 59.648 141.709C56.7757 141.124 54.0472 139.588 50.7457 137.02C46.7326 133.941 44.4166 130.873 43.4273 126.85C42.4463 122.86 42.7855 117.986 43.9322 111.335C43.9521 111.219 43.9872 111.103 44.0338 110.995C46.263 105.824 48.5256 102.183 51.6822 99.3337C54.8359 96.4875 58.8444 94.465 64.5025 92.4656C64.6483 92.4141 64.8046 92.3857 64.9576 92.3806C66.2439 92.3385 67.4564 92.2651 68.6236 92.1951C69.7882 92.1252 70.9106 92.0586 72.0055 92.031C74.1984 91.9758 76.3031 92.0768 78.4889 92.6296C82.871 93.7381 87.4809 96.6362 93.814 103.479L94.0377 103.73C94.5384 104.321 94.8798 104.94 94.9937 105.624C95.125 106.412 94.9418 107.213 94.4869 108.063C93.5967 109.728 91.5766 111.735 88.3346 114.503C88.2685 114.559 88.195 114.612 88.1197 114.656C83.4476 117.403 79.7469 119.075 76.0904 119.522C72.4159 119.972 68.8451 119.177 64.442 117.118C64.3136 117.058 64.167 117.054 64.0504 117.1C62.247 117.814 60.9082 118.665 60.0943 119.592C59.2944 120.503 59.0097 121.472 59.2564 122.502C59.5108 123.563 60.3497 124.775 61.9996 126.086C63.6431 127.392 66.0465 128.76 69.3375 130.148C69.8888 130.381 70.273 130.927 70.273 131.543V139.35Z" fill="#FF7844"/>
<path d="M69.7798 139.506V131.405C69.7798 131.062 69.9575 130.742 70.2465 130.558C77.9273 125.656 82.3945 121.878 90.3365 124.404C90.5704 124.478 90.7799 124.638 90.8611 124.87C91.5057 126.71 89.219 128.964 84.4155 133.003C83.955 133.39 83.9347 134.096 84.3758 134.505C88.9502 138.75 91.9266 141.435 91.8424 145.214C91.8341 145.586 91.5853 145.908 91.236 146.035C83.6419 148.807 78.6769 145.574 70.2564 140.358C69.9618 140.176 69.7798 139.852 69.7798 139.506Z" fill="#F75F37"/>
<path d="M80.0063 124.232C83.1789 122.948 86.4011 122.627 90.4878 123.927C90.8229 124.033 91.1846 124.283 91.3325 124.705C91.7506 125.899 91.1693 127.119 90.064 128.434C88.9401 129.771 87.1334 131.371 84.7368 133.386C84.5045 133.581 84.4977 133.936 84.7163 134.139C86.9907 136.249 88.9145 138.013 90.2505 139.727C91.5987 141.456 92.3878 143.183 92.3423 145.226C92.3289 145.82 91.9341 146.313 91.4077 146.505C87.4989 147.932 84.241 147.814 80.894 146.665C77.5853 145.529 74.1832 143.379 69.9927 140.783C69.5527 140.511 69.2798 140.027 69.2798 139.506V131.405C69.2798 130.89 69.5464 130.412 69.9771 130.137C73.7808 127.709 76.8804 125.496 80.0063 124.232ZM70.2798 139.506C70.2798 139.677 70.371 139.841 70.52 139.934C74.7497 142.553 78.041 144.628 81.2183 145.719C84.3573 146.797 87.3798 146.911 91.0649 145.565C91.2366 145.503 91.3389 145.352 91.3423 145.203C91.381 143.468 90.724 141.961 89.4614 140.342C88.1867 138.707 86.3353 137.006 84.0356 134.872C83.3723 134.257 83.4049 133.199 84.0933 132.62C86.5 130.596 88.2391 129.05 89.2983 127.79C90.376 126.508 90.6155 125.681 90.3892 125.035C90.3747 124.994 90.3174 124.922 90.1851 124.88C86.3302 123.654 83.3478 123.959 80.3813 125.159C77.3679 126.378 74.3921 128.505 70.5151 130.98C70.3683 131.073 70.2798 131.236 70.2798 131.405V139.506Z" fill="#F75F37"/>
<path d="M63.537 113.51C58.813 109.493 56.5637 106.036 52.9682 100.416C52.6361 99.8971 51.917 99.7976 51.458 100.209L49.252 102.185C48.83 102.564 48.7994 103.21 49.1918 103.618C51.8903 106.429 61.2708 116.239 60.042 115.539C58.8022 114.833 46.03 114.038 43.9894 114.598C43.6225 114.699 43.8943 115.205 43.856 115.583C43.7387 116.742 43.4679 117.812 43.373 118.942C43.3206 119.566 43.9127 120.006 44.5231 119.87C47.7952 119.143 49.2067 119.172 52.1771 119.002C52.2799 118.996 52.3863 119.006 52.4858 119.032C55.7841 119.9 56.5049 121.037 54.6036 124.622C54.5598 124.704 54.5028 124.782 54.4374 124.849L47.3312 132.114C46.9541 132.5 46.9506 133.115 47.3235 133.505L49.4852 135.764C49.975 136.276 50.8317 136.127 51.187 135.514C55.7056 127.718 65.2634 128.143 63.1726 127.05C61.0447 125.938 55.8679 119.377 63.0916 117.451C63.5536 117.328 63.8961 116.921 63.8961 116.443V114.281C63.8961 113.984 63.7629 113.702 63.537 113.51Z" fill="#F75F37"/>
<path d="M63.396 114.281C63.396 114.134 63.3301 113.99 63.2134 113.891C58.4275 109.822 56.144 106.308 52.5474 100.686C52.3806 100.425 52.02 100.377 51.7915 100.582L49.5854 102.558C49.3701 102.751 49.36 103.072 49.5522 103.272C50.9017 104.677 53.924 107.835 56.4556 110.554C57.7204 111.913 58.8674 113.168 59.6226 114.041C59.9959 114.472 60.2887 114.826 60.4497 115.057C60.4906 115.116 60.5295 115.177 60.561 115.235C60.5794 115.269 60.6442 115.384 60.6519 115.525C60.6562 115.606 60.6455 115.793 60.4829 115.941C60.3263 116.083 60.1467 116.079 60.0757 116.072C59.9428 116.058 59.8331 115.996 59.7944 115.974C59.7735 115.962 59.7006 115.93 59.5474 115.888C59.4034 115.849 59.216 115.808 58.9878 115.765C58.5317 115.68 57.9359 115.594 57.2397 115.512C55.8483 115.349 54.081 115.201 52.2856 115.093C50.4907 114.985 48.674 114.916 47.1821 114.91C46.4358 114.906 45.775 114.918 45.2417 114.948C44.8373 114.97 44.526 115.001 44.311 115.039C44.318 115.084 44.3256 115.137 44.3364 115.214C44.3519 115.324 44.369 115.477 44.353 115.634C44.2923 116.234 44.1926 116.809 44.0991 117.358C44.0047 117.913 43.917 118.443 43.8716 118.984C43.8523 119.213 44.0749 119.458 44.4146 119.382C47.7343 118.645 49.1908 118.672 52.1489 118.502C52.3018 118.494 52.4606 118.508 52.6128 118.548C53.452 118.769 54.1646 119.016 54.7222 119.333C55.2854 119.652 55.7221 120.061 55.9556 120.614C56.1879 121.164 56.1882 121.787 56.0249 122.474C55.8624 123.158 55.529 123.944 55.0454 124.856C54.979 124.981 54.893 125.098 54.7944 125.199L47.689 132.463C47.5004 132.656 47.4986 132.964 47.6851 133.159L49.8462 135.418C50.0787 135.662 50.5459 135.623 50.7544 135.263C53.0969 131.222 56.7412 129.324 59.4839 128.3C60.1702 128.044 60.8021 127.842 61.3433 127.675C61.8616 127.516 62.2766 127.391 62.5942 127.283C62.0523 126.921 61.4305 126.351 60.8628 125.673C60.1637 124.839 59.504 123.799 59.1499 122.71C58.7956 121.621 58.7333 120.431 59.3198 119.366C59.9063 118.301 61.0808 117.469 62.9624 116.967C63.2273 116.897 63.396 116.673 63.396 116.443V114.281ZM64.396 116.443C64.396 117.169 63.8793 117.758 63.2202 117.934C61.4906 118.395 60.6039 119.107 60.1958 119.848C59.7878 120.589 59.7982 121.47 60.1011 122.401C60.4042 123.332 60.9852 124.262 61.6294 125.031C62.2787 125.806 62.9521 126.371 63.4038 126.607C63.5478 126.682 63.7191 126.787 63.8335 126.941C63.897 127.026 63.9573 127.146 63.9663 127.295C63.9754 127.449 63.9271 127.581 63.8628 127.68C63.7518 127.851 63.5765 127.954 63.4585 128.014C63.3225 128.084 63.158 128.148 62.9829 128.209C62.6346 128.332 62.162 128.469 61.6372 128.63C61.1039 128.795 60.4932 128.991 59.8335 129.237C57.1904 130.223 53.7957 132.011 51.6196 135.765C51.1174 136.631 49.8705 136.891 49.1235 136.11L46.9624 133.85C46.4031 133.266 46.4084 132.343 46.9741 131.764L54.0796 124.5C54.1118 124.467 54.1404 124.427 54.1616 124.387C54.6286 123.507 54.9182 122.807 55.0522 122.243C55.1855 121.682 55.1562 121.293 55.0337 121.002C54.9123 120.715 54.6689 120.452 54.229 120.203C53.7832 119.95 53.1686 119.728 52.3589 119.515C52.3122 119.503 52.258 119.497 52.2056 119.501C49.2231 119.672 47.8557 119.641 44.6313 120.358C43.7504 120.554 42.7893 119.917 42.8745 118.901C42.924 118.312 43.0188 117.742 43.1128 117.19C43.2078 116.632 43.3023 116.092 43.3589 115.533C43.3621 115.501 43.3594 115.447 43.3462 115.353C43.3364 115.283 43.3112 115.139 43.3013 115.033C43.2911 114.923 43.282 114.739 43.354 114.557C43.4422 114.334 43.6235 114.18 43.8569 114.116C44.1679 114.03 44.6376 113.98 45.186 113.95C45.7466 113.919 46.4288 113.906 47.186 113.91C48.7015 113.917 50.5383 113.986 52.3462 114.095C54.1539 114.204 55.9402 114.353 57.356 114.519C57.9377 114.587 58.4611 114.661 58.8999 114.735C58.8887 114.722 58.8781 114.708 58.8667 114.695C58.1243 113.837 56.9881 112.594 55.7241 111.236C53.1981 108.522 50.1805 105.369 48.8315 103.964C48.2391 103.347 48.2901 102.376 48.9185 101.813L51.1245 99.8364C51.814 99.2188 52.8916 99.3693 53.3892 100.147C56.9834 105.765 59.1988 109.165 63.8608 113.129C64.1959 113.414 64.396 113.834 64.396 114.281V116.443Z" fill="#F75F37"/>
<path d="M85.4466 114.129C78.1264 116.538 72.3035 116.621 64.2434 115.67C63.6661 115.602 63.338 116.024 63.825 116.341C65.8395 117.654 72.0843 119.07 76.3874 118.417C79.5653 117.935 83.5726 116.452 85.9755 114.974C86.7615 114.491 86.3231 113.841 85.4466 114.129Z" fill="#F75F37"/>
<path d="M85.2908 113.654C85.8065 113.485 86.4459 113.513 86.7546 113.99C86.9184 114.244 86.9201 114.543 86.8044 114.802C86.6947 115.047 86.4874 115.246 86.2371 115.4C83.7752 116.914 79.7043 118.419 76.4626 118.911C74.2357 119.249 71.538 119.051 69.157 118.608C66.7904 118.169 64.6443 117.472 63.5515 116.76C63.3722 116.643 63.2082 116.478 63.1316 116.256C63.0491 116.017 63.0904 115.772 63.2224 115.579C63.4624 115.228 63.9155 115.128 64.3015 115.174C72.319 116.12 78.0635 116.033 85.2908 113.654ZM85.6033 114.604C78.3243 116.999 72.5019 117.116 64.6228 116.215C65.6676 116.731 67.3799 117.261 69.3396 117.625C71.6602 118.056 74.2364 118.238 76.3123 117.923C79.3924 117.455 83.2831 116.02 85.6355 114.594C85.625 114.597 85.6142 114.6 85.6033 114.604Z" fill="#F75F37"/>
<path d="M78.5891 101.726C78.5891 102.998 77.603 104.029 76.3867 104.029C75.1704 104.029 74.1843 102.998 74.1843 101.726C74.1843 100.455 75.1704 99.4243 76.3867 99.4243C77.603 99.4243 78.5891 100.455 78.5891 101.726Z" fill="#734626"/>
</svg>
