<svg width="200" height="200" viewBox="0 0 200 200" fill="none" xmlns="http://www.w3.org/2000/svg">
<path d="M99.5 56.1831C124.957 56.1831 147.983 63.1183 164.629 74.3042C181.278 85.4922 191.5 100.894 191.5 117.841C191.5 134.788 181.278 150.191 164.629 161.379C147.983 172.565 124.957 179.5 99.5 179.5C74.0426 179.5 51.0172 172.565 34.3711 161.379C17.7218 150.191 7.5 134.788 7.5 117.841C7.50003 100.894 17.7221 85.4922 34.3711 74.3042C51.0172 63.1183 74.0426 56.1831 99.5 56.1831Z" fill="#EBE7D6" stroke="#EEDCBE"/>
<path d="M99.5 51.5791C124.958 51.5791 147.984 58.4499 164.63 69.5322C181.28 80.6171 191.5 95.876 191.5 112.662C191.5 129.448 181.28 144.706 164.63 155.791C147.984 166.873 124.958 173.744 99.5 173.744C74.0417 173.744 51.0165 166.873 34.3701 155.791C17.7203 144.706 7.50011 129.448 7.5 112.662C7.5 95.876 17.7202 80.6171 34.3701 69.5322C51.0164 58.4499 74.0418 51.5791 99.5 51.5791Z" fill="#FFFEF3" stroke="#EEDCBE"/>
<ellipse cx="100.05" cy="108.058" rx="77.6339" ry="48.9209" fill="#FBECCD"/>
<path d="M41.0467 79.3333C41.067 79.3082 41.0957 79.3053 41.1321 79.3234C41.5653 78.9848 42.9693 77.7065 43.9158 76.8376C44.3849 76.407 45.1328 76.5184 45.4538 77.0684C50.3702 85.49 52.647 91.2455 53.8878 102.902C53.9504 103.489 53.4881 104 52.8973 104H48.0884C47.4968 104 47.0358 103.49 47.0653 102.899C47.5592 92.994 42.0272 79.7701 41.1321 79.3234C41.0002 79.4265 40.9583 79.4425 41.0467 79.3333Z" fill="#7D4D27" stroke="#7D4D27"/>
<path d="M41.948 78.1153C39.1409 85.6255 35.0886 89.6319 28.2285 96.1527C27.7663 96.5921 27.009 96.4936 26.7452 95.913C24.6535 91.3104 26.9932 86.5727 33.3113 77.8877C33.7937 77.2245 33.3174 76.2918 32.4978 76.3197C18.6249 76.7919 16.7453 82.5437 14.1132 80.8936C11.5023 79.2569 19.0921 68.868 34.6302 69.7166C35.5463 69.7667 36.1275 68.6737 35.5202 67.9861C31.3057 63.214 28.6183 60.7177 25.037 57.9207C24.3919 57.4169 24.5619 56.3458 25.3395 56.0905C27.8868 55.2542 30.2479 55.1728 39.256 61.2015C39.3745 61.2809 39.482 61.3923 39.5568 61.5138C42.2108 65.823 43.4187 68.053 43.8036 69.2207C43.8078 69.2334 43.8118 69.2458 43.8156 69.2579C43.8281 69.1585 43.8548 69.0426 43.9034 68.9138C44.6682 66.8879 45.6476 65.2874 51.997 61.957C52.0664 61.9206 52.1445 61.8907 52.2205 61.8716C58.7357 60.2333 61.9675 59.6983 63.5324 60.6656C63.9881 60.9473 63.8777 61.5767 63.4472 61.8955L51.6884 70.602C51.6489 70.6313 51.608 70.6552 51.5669 70.6746C53.3853 70.8585 58.1471 72.3846 61.4644 73.9871C65.8055 76.0843 69.9906 83.6334 68.4722 85.2506C68.2664 85.4698 67.9229 85.4 67.671 85.2359C59.2426 79.7456 53.7774 77.6861 42.9143 77.4531C42.4857 77.4439 42.0981 77.7137 41.948 78.1153Z" fill="#6AA842" stroke="#6AA842"/>
<ellipse cx="91.7917" cy="94.2443" rx="13.2143" ry="5.17986" fill="#BFE3E1"/>
<path d="M72.1313 44.7371L79.0064 93.3846C79.0761 93.8779 79.4983 94.2447 79.9966 94.2447H103.577C104.08 94.2447 104.504 93.8721 104.569 93.374L110.915 44.7265C110.993 44.1279 110.527 43.5972 109.924 43.5972H73.1215C72.5135 43.5972 72.0462 44.1351 72.1313 44.7371Z" fill="#BFE3E1" stroke="#BFE3E1"/>
<ellipse cx="91.7916" cy="43.0215" rx="19.8214" ry="5.7554" fill="#DDF5F6"/>
<ellipse cx="91.7917" cy="91.9424" rx="11.0119" ry="4.02878" fill="#FB8B14"/>
<path d="M77.5929 55.6372L81.3902 91.6228C81.4439 92.1316 81.873 92.5178 82.3847 92.5178H101.758C102.275 92.5178 102.707 92.1232 102.754 91.6079L106.009 55.6223C106.062 55.0368 105.601 54.5322 105.013 54.5322H78.5874C77.9936 54.5322 77.5306 55.0466 77.5929 55.6372Z" fill="#FB8B14" stroke="#FB8B14"/>
<ellipse cx="91.7918" cy="55.6834" rx="14.3155" ry="4.60432" fill="#FFA420"/>
<path d="M85.1843 20L94.8061 28.9402C94.9918 29.1127 95.105 29.3493 95.1229 29.6021L97.2974 60.2878" stroke="#F9643D" stroke-width="4" stroke-linecap="round"/>
<path d="M99.2918 62.4372L99.1392 60.4431L95.1508 60.7483L95.3034 62.7425L99.2918 62.4372ZM97.5058 91.5194C97.5901 92.6208 98.5513 93.4453 99.6526 93.361C100.754 93.2767 101.578 92.3155 101.494 91.2142L97.5058 91.5194ZM97.2976 62.5898L95.3034 62.7425L97.5058 91.5194L99.5 91.3668L101.494 91.2142L99.2918 62.4372L97.2976 62.5898Z" fill="#F76E27"/>
<path d="M108.309 88.379V86.8713C108.309 86.2274 108.912 85.7522 109.54 85.8932C124.354 89.2165 133.21 88.7144 146.037 77.6878C146.476 77.3099 147.15 77.3697 147.503 77.8301L148.525 79.1655C148.828 79.5615 148.792 80.1217 148.439 80.4736C143.04 85.8475 138.977 88.4885 130.419 91.9085C130.363 91.9308 130.302 91.9488 130.243 91.9606C121.387 93.7279 116.749 92.3072 108.951 89.3119C108.565 89.1637 108.309 88.7923 108.309 88.379Z" fill="#FCB519" stroke="#FCB017" stroke-linecap="round"/>
<path d="M146.832 78.4519C133.443 89.0594 124.931 91.2981 109.437 86.5417C108.848 86.3607 108.564 85.6887 108.845 85.1398L120.487 62.3895C120.75 61.8749 121.393 61.6901 121.89 61.9865L146.723 76.8198C147.32 77.1763 147.377 78.0203 146.832 78.4519Z" fill="#FFCE2E" stroke="#FCB519" stroke-linecap="round"/>
<path d="M119.719 82.2597C118.428 80.8125 120.686 77.0853 120.82 74.7777C120.954 72.47 125.191 78.4234 123.022 82.2597C122.366 83.4207 121.01 83.7069 119.719 82.2597Z" fill="#FCB017"/>
<path d="M130.731 79.382C129.094 78.6483 125.814 70.8256 128.528 71.9C129.9 72.443 133.521 75.1201 133.484 76.5043C133.441 78.093 132.128 80.0086 130.731 79.382Z" fill="#FCB017"/>
<path d="M119.719 82.2597C118.428 80.8125 120.686 77.0853 120.82 74.7777C120.954 72.47 125.191 78.4234 123.022 82.2597C122.366 83.4207 121.01 83.7069 119.719 82.2597Z" stroke="#FCB017" stroke-linecap="round"/>
<path d="M130.731 79.382C129.094 78.6483 125.814 70.8256 128.528 71.9C129.9 72.443 133.521 75.1201 133.484 76.5043C133.441 78.093 132.128 80.0086 130.731 79.382Z" stroke="#FCB017" stroke-linecap="round"/>
<path d="M107.811 116.881C106.897 113.535 107.197 109.713 107.578 108.25C107.674 107.877 108.047 107.749 108.412 107.869C124.017 112.967 135.61 116.405 148.555 107.096C157.122 100.937 160.121 94.6756 163.517 84.0749C164.293 87.4504 164.7 89.4672 164.528 95.9652C164.524 96.0928 164.495 96.2252 164.444 96.3422C158.693 109.554 155.912 111.639 146.903 116.881C133.564 124.642 108.912 120.909 107.811 116.881Z" fill="#FCB017"/>
<path d="M163.421 82.9238L163.517 84.0749M163.517 84.0749C164.293 87.4504 164.7 89.4672 164.528 95.9652C164.524 96.0928 164.495 96.2252 164.444 96.3422C158.693 109.554 155.912 111.639 146.903 116.881C133.564 124.642 108.912 120.909 107.811 116.881C106.897 113.535 107.197 109.713 107.578 108.25C107.674 107.877 108.047 107.749 108.412 107.869C124.017 112.967 135.61 116.405 148.555 107.096C157.122 100.937 160.121 94.6756 163.517 84.0749Z" stroke="#FCB017" stroke-linecap="round"/>
<path d="M109.386 107.294C108.826 106.99 108.714 106.244 109.142 105.772C115.146 99.1435 120.992 92.2722 130.884 87.6948C142.58 82.2823 156.294 75.6952 163.586 83.3035C163.799 83.5258 163.887 83.8431 163.826 84.1449C161.782 94.261 155.307 103.453 144.649 108.99C132.41 115.347 118.488 112.239 109.386 107.294Z" fill="#FFD97C" stroke="#FCB017" stroke-linecap="round"/>
<path d="M122.996 93.8584C124.583 94.4114 134.963 102.02 141.978 109.11C142.418 109.556 143.159 109.505 143.579 109.04C144.155 108.402 144.95 107.671 145.57 107.671C146.653 107.671 134.822 97.3846 126.172 91.8262C125.904 91.6542 125.575 91.6238 125.283 91.7494C124.196 92.2163 121.683 93.4009 122.996 93.8584Z" fill="#FCB017"/>
<path d="M131.871 88.8545C131.109 88.3786 131.328 87.2252 132.21 87.0523L135.254 86.4558C135.514 86.4049 135.785 86.4606 136.005 86.6078C143.09 91.3531 147.281 94.1935 154.058 100.012C154.519 100.407 154.521 101.121 154.063 101.52L152.41 102.96C151.983 103.333 151.331 103.273 150.962 102.842C145.764 96.7772 139.177 93.4128 131.871 88.8545Z" fill="#FCB017"/>
<path d="M142.266 83.4991C141.35 83.4991 145.01 82.303 146.264 81.9019C146.525 81.8182 146.81 81.8494 147.049 81.9838C153.439 85.5703 156.183 87.8076 159.51 91.6902C159.743 91.9622 159.81 92.3398 159.687 92.6763L158.938 94.7258C158.691 95.4029 157.829 95.6049 157.3 95.1159C151.354 89.6261 143.301 83.4991 142.266 83.4991Z" fill="#FCB017"/>
<path d="M122.996 93.8584C124.583 94.4114 134.963 102.02 141.978 109.11C142.418 109.556 143.159 109.505 143.579 109.04C144.155 108.402 144.95 107.671 145.57 107.671C146.653 107.671 134.822 97.3846 126.172 91.8262C125.904 91.6542 125.575 91.6238 125.283 91.7494C124.196 92.2163 121.683 93.4009 122.996 93.8584Z" stroke="#FCB017" stroke-linecap="round"/>
<path d="M131.871 88.8545C131.109 88.3786 131.328 87.2252 132.21 87.0523L135.254 86.4558C135.514 86.4049 135.785 86.4606 136.005 86.6078C143.09 91.3531 147.281 94.1935 154.058 100.012C154.519 100.407 154.521 101.121 154.063 101.52L152.41 102.96C151.983 103.333 151.331 103.273 150.962 102.842C145.764 96.7772 139.177 93.4128 131.871 88.8545Z" stroke="#FCB017" stroke-linecap="round"/>
<path d="M142.266 83.4991C141.35 83.4991 145.01 82.303 146.264 81.9019C146.525 81.8182 146.81 81.8494 147.049 81.9838C153.439 85.5703 156.183 87.8076 159.51 91.6902C159.743 91.9622 159.81 92.3398 159.687 92.6763L158.938 94.7258C158.691 95.4029 157.829 95.6049 157.3 95.1159C151.354 89.6261 143.301 83.4991 142.266 83.4991Z" stroke="#FCB017" stroke-linecap="round"/>
<ellipse cx="6.46764" cy="2.00335" rx="6.46764" ry="2.00335" transform="matrix(0.956111 0.293006 -0.26786 0.963458 128.927 126.837)" fill="#A5C649"/>
<ellipse cx="1.90649" cy="5.7015" rx="1.90649" ry="5.7015" transform="matrix(-0.254227 -0.967144 0.960493 -0.278303 128.823 131.412)" fill="#8EB534"/>
<ellipse cx="2.09608" cy="5.83302" rx="2.09608" ry="5.83302" transform="matrix(-0.254227 -0.967144 0.960493 -0.278303 129.781 130.518)" fill="#A5C649"/>
<path d="M96.4193 137.17C95.2688 135.075 95.5133 134.537 96.2753 133.811L101.892 137.506C103.759 138.573 105.924 138.345 106.788 138.009C107.652 137.674 109.163 136.96 112.117 134.651C115.042 132.712 116.795 131.825 120.325 130.956C123.029 130.288 124.674 130.27 127.67 130.452C128.56 130.416 129.011 130.261 129.686 129.613C130.126 131.421 130.282 132.385 129.398 133.475C130.537 135.859 130.424 137.001 128.246 138.513C128.181 140.718 127.401 141.262 124.646 141.032C122.766 143.377 121.595 143.268 119.461 142.544L114.997 144.727C112.939 146.053 111.963 146.018 110.388 145.231C107.817 147.314 106.676 147.179 104.916 145.734C102.213 146.492 101.421 146.013 101.028 143.887C99.0926 144.315 98.295 144.005 97.8594 141.536C95.7962 140.372 95.7016 139.337 96.4193 137.17Z" fill="#FFE1B8" stroke="#D7C3A7"/>
<ellipse cx="1.14458" cy="1.8893" rx="1.14458" ry="1.8893" transform="matrix(0.459312 -0.888275 0.81485 0.579672 97.0664 138.724)" fill="#FFF3E2"/>
<ellipse cx="1.4438" cy="1.00753" rx="1.4438" ry="1.00753" transform="matrix(0.982051 0.188613 -0.138262 0.990396 102.397 140.14)" fill="#FFF3E2"/>
<ellipse cx="1.54943" cy="1.00314" rx="1.54943" ry="1.00314" transform="matrix(0.960366 0.278742 -0.206426 0.978462 106.389 142.42)" fill="#FFF3E2"/>
<ellipse cx="1.48453" cy="1.20072" rx="1.48453" ry="1.20072" transform="matrix(0.876482 -0.481435 0.370795 0.928715 107.124 139.806)" fill="#FFF3E2"/>
<ellipse cx="1.6451" cy="1.10921" rx="1.6451" ry="1.10921" transform="matrix(0.705366 -0.708843 0.589849 0.807513 110.71 142.244)" fill="#FFF3E2"/>
<ellipse cx="1.57195" cy="0.95202" rx="1.57195" ry="0.95202" transform="matrix(0.758789 -0.651337 0.52935 0.848404 111.722 137.053)" fill="#FFF3E2"/>
<ellipse cx="1.5977" cy="1.09075" rx="1.5977" ry="1.09075" transform="matrix(0.959884 0.280397 -0.2077 0.978193 121.37 137.027)" fill="#FFEEDF"/>
<ellipse cx="1.52292" cy="1.12509" rx="1.52292" ry="1.12509" transform="matrix(0.771941 -0.635694 0.513598 0.858031 122.066 133.572)" fill="#FFF1DF"/>
<ellipse cx="1.04388" cy="1.62538" rx="1.04388" ry="1.62538" transform="matrix(0.824623 0.565684 -0.446229 0.894919 126.731 134.171)" fill="#FFEEDF"/>
<path d="M98.9745 129.862C97.5174 129.176 96.6643 129.221 95.0952 130.465C96.2062 126.32 98.0679 124.149 104.434 120.66C108.551 119.55 110.881 119.235 115.066 119.303C119.986 119.754 122.654 120.605 127.135 123.979L127.227 124.063C129.016 125.715 130.046 126.666 130.727 128.655C130.923 129.837 130.551 130.271 129.29 130.767C126.211 129.111 124.337 128.897 120.813 129.409L116.503 130.164C113.631 130.901 111.945 131.858 108.745 134.991C105.652 137.403 104.792 137.679 104.003 137.253L102.997 134.236C101.679 132.04 100.77 131.136 98.9745 129.862Z" fill="#A5C649" stroke="#A5C649"/>
<path d="M109.977 133.706C107.441 136.272 106.024 137.221 103.871 137.586C103.619 137.629 103.429 137.843 103.429 138.099C103.429 138.377 103.651 138.604 103.929 138.602C105.807 138.586 106.868 138.241 108.522 137.336L108.618 137.276C111.015 135.774 112.392 134.911 116.234 132.917C121.66 130.838 127.148 130.708 129.185 130.708C131.143 130.707 125.17 129.541 124.703 129.451C124.682 129.446 124.663 129.444 124.641 129.441C121.623 129.063 119.763 129.232 116.234 130.076C113.754 130.918 112.381 131.647 109.977 133.706Z" fill="#77A51D" stroke="#77A51D"/>
<path d="M100.86 130.825C102.892 133.065 103.758 134.649 104.119 136.902C104.247 137.706 103.356 138.228 102.671 137.789L97.9821 134.786C94.8727 132.609 94.934 131.773 95.2699 130.47C95.3109 130.311 95.3908 130.163 95.5069 130.047C96.7872 128.77 97.9526 128.859 100.676 130.666C100.743 130.711 100.806 130.765 100.86 130.825Z" fill="#8EB534" stroke="#8EB534"/>
<path d="M97.969 125.027L96.8196 126.535C99.2536 126.23 100.268 126.535 101.417 127.29C102.567 128.044 104.624 130.278 105.44 132.72C106.032 132.772 106.216 132.663 106.159 132.117C105.142 129.661 104.281 128.378 102.136 126.234C100.81 125.269 99.8383 125.101 97.969 125.027Z" fill="#77A51D" stroke="#8EB534"/>
<path d="M102.997 121.708L101.417 122.613C105.922 123.305 107.786 125.008 109.894 130.457C110.527 130.723 110.723 130.391 111.043 129.703C108.409 123.495 106.527 122.48 102.997 121.708Z" fill="#77A51D" stroke="#8EB534"/>
<path d="M119.951 120.351L117.509 119.597C119.829 122.163 121.005 123.674 121.819 127.139C122.588 127.431 122.729 127.143 122.825 126.385C122.046 123.93 121.364 122.625 119.951 120.351Z" fill="#77A51D" stroke="#8EB534"/>
<path d="M114.441 118.996L109.69 119.294C109.602 119.3 109.565 119.41 109.631 119.469C113.419 122.936 114.971 125.259 116.072 130.189C116.073 130.195 116.074 130.201 116.074 130.208C116.242 135.907 116.258 139.121 114.948 144.767C114.935 144.824 114.973 144.882 115.031 144.89C116.483 145.076 117.424 144.756 119.206 143.479C119.228 143.463 119.242 143.44 119.247 143.414C119.813 140.221 120.019 138.424 120.247 135.248C120.526 131.87 120.369 130.108 119.528 127.2C118.228 123.723 117.037 121.966 114.524 119.031C114.503 119.008 114.473 118.994 114.441 118.996Z" fill="#1A0A25" stroke="#6F56FF"/>
<path d="M64.974 92.8803C75.3278 92.541 80.8404 90.1968 93.4483 103.82C95.7875 106.326 94.5165 108.567 88.0099 114.123C87.9658 114.16 87.916 114.196 87.8661 114.225C78.5477 119.703 73.357 120.737 64.6537 116.666C64.4081 116.551 64.1189 116.536 63.8668 116.636C56.4994 119.549 55.8832 125.018 69.143 130.61C69.5173 130.767 69.7727 131.136 69.7727 131.543V139.35C69.7727 139.785 69.4919 140.171 69.0762 140.297C61.6774 142.551 57.6076 141.725 51.0524 136.626C43.1421 130.558 42.134 124.709 44.425 111.42C44.4382 111.343 44.4615 111.265 44.4924 111.193C48.9224 100.917 53.4037 96.9184 64.6691 92.9375C64.7659 92.9033 64.8714 92.8836 64.974 92.8803Z" fill="#FF7844" stroke="#FF7844"/>
<path d="M69.7798 139.506V131.406C69.7798 131.063 69.9575 130.743 70.2465 130.558C77.9273 125.657 82.3945 121.878 90.3365 124.404C90.5704 124.478 90.7799 124.639 90.8611 124.87C91.5057 126.71 89.219 128.964 84.4155 133.004C83.955 133.391 83.9347 134.096 84.3758 134.506C88.9502 138.75 91.9266 141.436 91.8424 145.215C91.8341 145.586 91.5853 145.908 91.236 146.036C83.6419 148.808 78.6769 145.574 70.2564 140.359C69.9618 140.176 69.7798 139.853 69.7798 139.506Z" fill="#F75F37" stroke="#F75F37"/>
<path d="M63.537 113.511C58.813 109.494 56.5637 106.037 52.9682 100.417C52.6361 99.8975 51.917 99.7981 51.458 100.209L49.252 102.186C48.83 102.564 48.7994 103.21 49.1918 103.619C51.8903 106.429 61.2708 116.24 60.042 115.54C58.8022 114.834 46.03 114.039 43.9894 114.598C43.6225 114.699 43.8943 115.205 43.856 115.584C43.7387 116.743 43.4679 117.812 43.373 118.943C43.3206 119.566 43.9127 120.006 44.5231 119.871C47.7952 119.144 49.2067 119.173 52.1771 119.002C52.2799 118.996 52.3863 119.006 52.4858 119.033C55.7841 119.901 56.5049 121.038 54.6036 124.622C54.5598 124.705 54.5028 124.782 54.4374 124.849L47.3312 132.115C46.9541 132.5 46.9506 133.115 47.3235 133.505L49.4852 135.765C49.975 136.277 50.8317 136.128 51.187 135.515C55.7056 127.719 65.2634 128.143 63.1726 127.051C61.0447 125.939 55.8679 119.378 63.0916 117.451C63.5536 117.328 63.8961 116.922 63.8961 116.444V114.281C63.8961 113.985 63.7629 113.703 63.537 113.511Z" fill="#F75F37" stroke="#F75F37"/>
<path d="M85.4466 114.129C78.1264 116.538 72.3035 116.621 64.2434 115.67C63.6661 115.602 63.338 116.024 63.825 116.342C65.8395 117.655 72.0843 119.071 76.3874 118.418C79.5653 117.935 83.5726 116.453 85.9755 114.975C86.7615 114.491 86.3231 113.841 85.4466 114.129Z" fill="#F75F37" stroke="#F75F37"/>
<ellipse cx="76.3867" cy="101.727" rx="2.20238" ry="2.30216" fill="#734626"/>
</svg>
