<svg width="200" height="186" viewBox="0 0 200 186" fill="none" xmlns="http://www.w3.org/2000/svg">
<path d="M200 110.217C200 152.071 155.228 186 100 186C44.7715 186 0 152.071 0 110.217C0 68.3633 44.7715 34.434 100 34.434C155.228 34.434 200 68.3633 200 110.217Z" fill="#D4C9D4"/>
<path d="M199 110.217C199 89.6711 188.013 70.9973 170.106 57.4272C152.199 43.8566 127.416 35.434 100 35.434C72.5838 35.434 47.8007 43.8566 29.8936 57.4272C11.987 70.9973 1 89.6711 1 110.217C1.00001 130.763 11.987 149.437 29.8936 163.007C47.8007 176.578 72.5838 185 100 185V186L98.707 185.995C44.5046 185.474 0.694383 152.273 0.0078125 111.197L0 110.217C0 68.3633 44.7715 34.434 100 34.434C155.228 34.434 200 68.3633 200 110.217L199.992 111.197C199.3 152.599 154.797 186 100 186V185C127.416 185 152.199 176.578 170.106 163.007C188.013 149.437 199 130.763 199 110.217Z" fill="#E5E3E2"/>
<path d="M200 103.906C200 145.373 155.228 178.988 100 178.988C44.7715 178.988 0 145.373 0 103.906C0 62.4401 44.7715 28.825 100 28.825C155.228 28.825 200 62.4401 200 103.906Z" fill="#FFFBF2"/>
<path d="M199 103.906C199 83.558 188.017 65.0607 170.11 51.616C152.203 38.1709 127.419 29.825 100 29.825C72.5815 29.825 47.797 38.1709 29.8896 51.616C11.983 65.0607 1.00016 83.558 1 103.906C1 124.254 11.9828 142.752 29.8896 156.197C47.797 169.642 72.5815 177.988 100 177.988V178.988L98.707 178.982C44.0744 178.462 0 145.049 0 103.906C0 62.4401 44.7715 28.825 100 28.825C155.228 28.825 200 62.4401 200 103.906C200 145.373 155.228 178.988 100 178.988V177.988C127.419 177.988 152.203 169.642 170.11 156.197C188.017 142.752 199 124.254 199 103.906Z" fill="#D4C9D4"/>
<path d="M184.524 98.2894C184.524 131.23 146.948 157.934 100.595 157.934C54.2428 157.934 16.6667 131.23 16.6667 98.2894C16.6667 65.3488 54.2428 38.6452 100.595 38.6452C146.948 38.6452 184.524 65.3488 184.524 98.2894Z" fill="#E5E2E3"/>
<path d="M183.524 98.2898C183.524 82.2285 174.364 67.5908 159.362 56.9294C144.362 46.2698 123.588 39.6452 100.595 39.6452C77.6024 39.6452 56.8279 46.2695 41.8278 56.9294C26.8255 67.5908 17.6667 82.2285 17.6667 98.2898C17.6668 114.351 26.8257 128.988 41.8278 139.649C56.8279 150.309 77.6024 156.933 100.595 156.933L100.595 157.934L99.5104 157.928C54.0189 157.519 17.2497 131.389 16.6735 99.0603L16.6667 98.2894C16.6667 65.3488 54.2428 38.6452 100.595 38.6452L101.68 38.6501C147.533 39.063 184.524 65.6063 184.524 98.2894L184.517 99.0603C183.936 131.646 146.586 157.934 100.595 157.934L100.595 156.933C123.588 156.933 144.362 150.309 159.362 139.649C174.364 128.988 183.524 114.351 183.524 98.2898Z" fill="#E5E3E2"/>
<path d="M163.678 74.2603C163.831 73.2499 163.943 72.2327 163.979 71.1993C164.779 48.3033 136.553 28.7348 100.937 27.491C65.3188 26.2472 35.7958 43.7991 34.9963 66.6951C34.9602 67.7286 35.0038 68.7512 35.0832 69.7697L163.678 74.2603Z" fill="#4A4641"/>
<path d="M33.7346 108.056C33.5978 108.854 33.4956 109.665 33.4666 110.497C33.1438 119.739 39.7187 127.466 48.1524 127.76L146.596 131.198C155.03 131.492 162.127 124.243 162.449 115.001C162.478 114.169 162.435 113.353 162.356 112.547L33.7346 108.056Z" fill="#47433E"/>
<path d="M166.692 96.942C166.465 103.427 161.24 108.508 155.023 108.291L42.0681 104.346C35.8504 104.129 30.9927 98.6958 31.2191 92.2112C31.4457 85.7244 36.6706 80.641 42.8884 80.8582L155.843 84.8026C162.061 85.0198 166.918 90.4552 166.692 96.942Z" fill="#85391A"/>
<path d="M160.511 74.1499L38.0091 69.8721L37.7369 77.6685L160.239 81.9464L160.511 74.1499Z" fill="#EF5123"/>
<path d="M159.333 108.765L35.3253 104.435L35.1809 108.569L54.4797 109.243L70.4535 118.885L81.7422 110.195L159.189 112.9L159.333 108.765Z" fill="#F0A00E"/>
<path d="M160.292 81.3249L36.2836 76.9944L36.1393 81.1283L94.9816 83.1832C94.7717 83.8081 94.64 84.4581 94.6164 85.1354C94.4529 89.8172 99.0389 93.7791 104.857 93.9823C107.715 94.0821 110.331 93.2559 112.28 91.8368C115.003 96.3435 120.249 99.4977 126.388 99.712C135.566 100.033 143.238 93.6776 143.523 85.5144C143.531 85.2998 143.512 85.0894 143.51 84.8778L160.147 85.4588L160.292 81.3249Z" fill="#7C992B"/>
<path d="M72.6113 51.8144C72.5531 53.4815 69.3715 54.7238 65.5022 54.5887C61.6318 54.4535 58.5429 52.9923 58.6011 51.3251C58.6593 49.6578 61.8426 48.4157 65.713 48.5509C69.5823 48.686 72.6696 50.147 72.6113 51.8144Z" fill="#65615B"/>
<path d="M91.5273 43.3191C91.4691 44.9863 88.2861 46.2302 84.4158 46.095C80.5479 45.9599 77.4595 44.4971 77.5177 42.8299C77.5759 41.1642 80.7587 39.9231 84.6266 40.0582C88.4969 40.1934 91.5855 41.6534 91.5273 43.3191Z" fill="#65615B"/>
<path d="M107.918 52.2819C107.86 53.9493 104.677 55.1914 100.807 55.0563C96.9374 54.9211 93.8499 53.46 93.9082 51.7927C93.9664 50.1253 97.1482 48.8844 101.018 49.0196C104.887 49.1547 107.976 50.6146 107.918 52.2819Z" fill="#65615B"/>
<path d="M125.916 45.5653C125.858 47.2325 122.675 48.4747 118.805 48.3396C114.938 48.2045 111.849 46.7433 111.907 45.0761C111.966 43.409 115.149 42.1667 119.016 42.3018C122.885 42.4369 125.974 43.8982 125.916 45.5653Z" fill="#65615B"/>
<path d="M139.064 56.3919C139.006 58.0592 135.823 59.3016 131.954 59.1665C128.083 59.0313 124.996 57.57 125.055 55.9027C125.113 54.2356 128.294 52.9932 132.165 53.1284C136.034 53.2635 139.122 54.7248 139.064 56.3919Z" fill="#65615B"/>
<path d="M111.354 39.465C106.51 42.254 103.605 42.5712 99.2713 40.2915C98.5531 39.9138 97.7619 39.6784 96.9545 39.5975C87.3304 38.6324 85.6753 32.0844 89.3933 27.6972C89.6325 27.415 89.8624 27.1235 90.0531 26.8066L92.2283 23.1918C92.5139 22.7172 92.8759 22.2892 93.3085 21.9432C97.5258 18.5697 100.706 17.7132 106.243 18.8896C107.647 19.1878 108.765 20.1859 109.512 21.4113C110.414 22.8908 111.33 23.8692 112.574 24.5568C114.185 25.4469 115.741 26.6579 116.042 28.4731C116.741 32.6795 115.764 35.3401 112.239 38.7947C111.974 39.0547 111.676 39.2797 111.354 39.465Z" fill="#E0A35B"/>
<path d="M98.9272 17.2525C101.237 16.6921 103.66 16.8072 106.555 17.4221C108.481 17.8313 109.903 19.1717 110.792 20.6306C111.604 21.9616 112.35 22.7188 113.3 23.2441C114.95 24.1563 117.098 25.6687 117.522 28.2275C117.899 30.4994 117.845 32.4957 117.132 34.4344C116.426 36.3504 115.129 38.0624 113.289 39.8661C112.931 40.217 112.531 40.5179 112.102 40.7647C109.612 42.1984 107.443 43.1062 105.236 43.2747C102.989 43.4461 100.892 42.8392 98.5727 41.6192C98.0279 41.3327 97.4235 41.1525 96.8049 41.0904C91.702 40.5787 88.2947 38.5365 86.8283 35.6012C85.3537 32.6495 86.0872 29.2786 88.2492 26.7274C88.47 26.4669 88.6391 26.2473 88.7679 26.0332L90.9432 22.4184C91.3114 21.8067 91.7873 21.2394 92.3717 20.772C94.5715 19.0122 96.6189 17.8126 98.9272 17.2525ZM105.932 20.3572C103.289 19.7958 101.353 19.7506 99.6345 20.1676C97.9143 20.585 96.2626 21.5004 94.2452 23.1142C93.9645 23.3387 93.7169 23.6277 93.5139 23.9651L91.3385 27.5799C91.0859 27.9997 90.795 28.3629 90.5374 28.6669C88.9815 30.5029 88.683 32.6001 89.5125 34.2605C90.3502 35.9371 92.5835 37.6516 97.1046 38.1049C98.1006 38.2048 99.0786 38.4954 99.9699 38.9642C101.984 40.0237 103.507 40.3977 105.007 40.2834C106.547 40.1659 108.252 39.5201 110.605 38.165C110.82 38.0412 111.017 37.8921 111.189 37.7232C112.873 36.0726 113.827 34.7273 114.316 33.398C114.798 32.0913 114.884 30.6535 114.563 28.7192C114.385 27.6478 113.419 26.7378 111.849 25.8699C110.311 25.0199 109.224 23.8196 108.231 22.1915C107.627 21.2 106.813 20.5446 105.932 20.3572Z" fill="#5F2E18"/>
<path d="M99.6539 34.0257C100.865 33.3166 102.42 33.6841 103.185 34.8604C103.573 35.4566 103.703 36.1847 103.545 36.8781L102.937 39.547C102.814 40.0855 102.278 40.4223 101.74 40.2996C101.201 40.1769 100.865 39.6412 100.987 39.1027L101.595 36.4338C101.633 36.268 101.602 36.0936 101.509 35.951C101.326 35.6698 100.954 35.582 100.665 35.7515L100.463 35.8696C100.331 35.9467 100.222 36.0572 100.146 36.1897L99.021 38.1575C98.7469 38.6369 98.136 38.8031 97.6566 38.5291C97.1772 38.255 97.0102 37.6441 97.2841 37.1647L98.4091 35.1969C98.6586 34.7606 99.0187 34.3977 99.4524 34.1438L99.6539 34.0257ZM111.705 25.5095C112.096 25.1196 112.729 25.1208 113.118 25.5119C113.508 25.9031 113.507 26.5359 113.116 26.9258L111.615 28.4231C110.697 29.3374 109.496 29.9128 108.209 30.0553L106.97 30.1928C106.482 30.2467 106.056 30.5452 105.839 30.9849C105.669 31.3283 105.644 31.7252 105.768 32.0876L106.589 34.481L108.667 38.7865C108.907 39.2839 108.698 39.8816 108.201 40.1217C107.704 40.3617 107.106 40.1533 106.866 39.6559L104.762 35.2956C104.745 35.26 104.73 35.223 104.717 35.1856L103.876 32.7377C103.579 31.8711 103.64 30.9211 104.046 30.0995C104.565 29.048 105.585 28.3334 106.75 28.2044L107.989 28.0679C108.826 27.9752 109.606 27.6009 110.202 27.0068L111.705 25.5095ZM92.3673 36.2337L92.3774 35.9458C92.43 34.4415 93.2855 33.0806 94.6184 32.3812C94.657 32.3609 94.6974 32.3438 94.7384 32.3287L97.024 31.49L97.0665 31.4749L98.0586 31.1597C98.8576 30.9061 99.5319 30.3616 99.948 29.6339L100.102 29.3657C100.27 29.0713 100.364 28.7399 100.376 28.401C100.392 27.9315 100.25 27.4699 99.9723 27.0912L99.1514 25.974C98.8275 25.533 98.5786 25.041 98.4156 24.5187C98.1035 23.5188 98.1168 22.4456 98.4532 21.4537L98.7583 20.5537C98.9357 20.0306 99.504 19.7502 100.027 19.9276C100.55 20.105 100.83 20.6733 100.653 21.1963L100.347 22.0964C100.147 22.6875 100.139 23.3271 100.325 23.9229C100.422 24.2342 100.57 24.5274 100.763 24.7903L101.584 25.9075C102.128 26.6486 102.407 27.5519 102.375 28.4708C102.352 29.1341 102.167 29.7823 101.838 30.3585L101.685 30.6268C101.02 31.7902 99.9407 32.6613 98.6633 33.0668L97.6712 33.3819L95.5045 34.1769C94.8329 34.5489 94.4031 35.2459 94.3761 36.0156L94.3661 36.3035C94.3468 36.8555 93.8837 37.2873 93.3318 37.268C92.7801 37.2485 92.348 36.7855 92.3673 36.2337ZM109.784 31.1314C110.467 30.7907 111.256 30.7321 111.983 30.9668L114.425 31.7557C114.95 31.9255 115.238 32.4888 115.069 33.0143C114.899 33.5398 114.336 33.828 113.81 33.6582L111.368 32.8694C111.14 32.7955 110.891 32.8142 110.676 32.9214C110.254 33.1317 110.056 33.6511 110.242 34.1052C110.308 34.2681 110.42 34.4111 110.559 34.5121L112.316 35.7968C112.761 36.1227 112.858 36.7481 112.533 37.1939C112.207 37.6398 111.581 37.7368 111.136 37.4109L109.378 36.1271C108.938 35.8053 108.596 35.3646 108.391 34.8644C107.815 33.4589 108.407 31.8178 109.784 31.1314ZM93.5075 23.7307C93.8377 23.2883 94.4644 23.1975 94.907 23.5275L97.0593 25.1329C97.523 25.4786 97.8792 25.9493 98.0849 26.4898C98.4384 27.4193 98.3147 28.4629 97.7547 29.2847L97.6754 29.4011C97.3565 29.8691 96.9233 30.2478 96.4165 30.5004L95.2649 31.0749C94.719 31.3471 94.1131 31.4783 93.5035 31.457C93.1261 31.4439 92.7559 31.56 92.4533 31.7858L90.1859 33.4752C89.7432 33.8053 89.117 33.7146 88.7868 33.272C88.4567 32.8293 88.5484 32.2022 88.9911 31.872L91.2575 30.1825C91.9248 29.6849 92.7414 29.4292 93.5732 29.4582C93.8498 29.4679 94.1251 29.4083 94.3728 29.2848L95.5244 28.7104C95.725 28.6103 95.897 28.4607 96.0233 28.2754L96.1026 28.159C96.2945 27.8774 96.3364 27.5189 96.2152 27.2004C96.1447 27.0153 96.0228 26.8541 95.864 26.7357L93.7107 25.1303C93.2683 24.8001 93.1775 24.1733 93.5075 23.7307ZM103.83 19.4126C104.381 19.3678 104.864 19.7774 104.909 20.3277L105.24 24.3847C105.267 24.7172 105.539 24.9764 105.872 24.9882C106.137 24.9975 106.382 24.8477 106.494 24.6073L107.425 22.5927C107.657 22.0918 108.251 21.8739 108.752 22.1055C109.253 22.3374 109.472 22.9318 109.24 23.4329L108.308 25.4466C107.859 26.4172 106.872 27.0243 105.803 26.987C104.455 26.9398 103.356 25.8908 103.247 24.5467L102.915 20.4907C102.87 19.9402 103.28 19.4576 103.83 19.4126Z" fill="#FBD18A"/>
<path d="M161.196 74.1245L37.1877 69.794L37.0433 73.9282L56.3421 74.6021L72.3159 84.2446L83.6047 75.5542L161.052 78.2587L161.196 74.1245Z" fill="#F0A00E"/>
</svg>
