<svg width="200" height="200" viewBox="0 0 200 200" fill="none" xmlns="http://www.w3.org/2000/svg">
<path d="M193.864 90.0755C194.037 88.5238 194.149 86.964 194.149 85.3833C194.149 50.3645 151.723 21.9771 99.389 21.9771C47.0529 21.9771 4.625 50.3645 4.625 85.3833C4.625 86.964 4.74142 88.5238 4.91016 90.0755H193.864Z" fill="#4A4641"/>
<path d="M4.89326 148.632C4.73341 149.86 4.625 151.103 4.625 152.376C4.625 166.512 14.6702 177.964 27.0624 177.964H171.712C184.106 177.964 194.149 166.512 194.149 152.376C194.149 151.103 194.043 149.86 193.886 148.632H4.89326Z" fill="#47433E"/>
<path d="M199.45 124.562C199.45 134.48 192.042 142.521 182.906 142.521H16.9336C7.79737 142.521 0.389893 134.48 0.389893 124.562C0.389893 114.641 7.79737 106.597 16.9336 106.597H182.906C192.042 106.597 199.45 114.641 199.45 124.562Z" fill="#85391A"/>
<path d="M189.211 90.0752H9.20972V102H189.211V90.0752Z" fill="#EF5123"/>
<path d="M189.256 143.016H7.04199V149.339H35.399L59.3361 163.217L75.4579 149.339H189.256V143.016Z" fill="#F0A00E"/>
<path d="M189.256 101.047H7.04199V107.37H93.5033C93.2272 108.336 93.0674 109.336 93.0674 110.372C93.0674 117.532 100.001 123.34 108.55 123.34C112.749 123.34 116.546 121.938 119.334 119.667C123.561 126.406 131.422 130.944 140.442 130.944C153.928 130.944 164.861 120.827 164.861 108.342C164.861 108.014 164.824 107.693 164.809 107.37H189.256V101.047Z" fill="#7C992B"/>
<path d="M59.0662 60.6433C59.0662 63.1931 54.4606 65.2606 48.7751 65.2606C43.0881 65.2606 38.48 63.1931 38.48 60.6433C38.48 58.0931 43.0881 56.0259 48.7751 56.0259C54.4606 56.0259 59.0662 58.0931 59.0662 60.6433Z" fill="#65615B"/>
<path d="M86.3915 46.6573C86.3915 49.2072 81.7839 51.2771 76.0969 51.2771C70.4136 51.2771 65.8062 49.2072 65.8062 46.6573C65.8062 44.1096 70.4136 42.0439 76.0969 42.0439C81.7839 42.0439 86.3915 44.1096 86.3915 46.6573Z" fill="#65615B"/>
<path d="M110.905 59.4744C110.905 62.0246 106.297 64.0919 100.612 64.0919C94.9256 64.0919 90.3196 62.0246 90.3196 59.4744C90.3196 56.9243 94.9256 54.8589 100.612 54.8589C106.297 54.8589 110.905 56.9243 110.905 59.4744Z" fill="#65615B"/>
<path d="M136.974 48.255C136.974 50.805 132.367 52.8724 126.681 52.8724C120.998 52.8724 116.391 50.805 116.391 48.255C116.391 45.7052 120.998 43.6377 126.681 43.6377C132.367 43.6377 136.974 45.7052 136.974 48.255Z" fill="#65615B"/>
<path d="M156.826 64.092C156.826 66.6421 152.218 68.7097 146.533 68.7097C140.845 68.7097 136.24 66.6421 136.24 64.092C136.24 61.5422 140.845 59.4746 146.533 59.4746C152.218 59.4746 156.826 61.5422 156.826 64.092Z" fill="#65615B"/>
<path d="M115.512 39.5679C108.24 44.3322 103.937 44.9366 97.1111 41.3685C96.3673 40.9797 95.5398 40.7572 94.7016 40.7146C79.9028 39.9619 77.1001 29.6735 82.6343 22.6805C82.8607 22.3944 83.0713 22.0928 83.243 21.7709L86.5947 15.4864C86.8529 15.0022 87.1886 14.5615 87.5946 14.1924C94.0143 8.35689 98.7771 6.90742 107.757 8.75263C109.176 9.04409 110.347 10.005 111.074 11.2579C112.986 14.5568 114.77 16.3675 117.597 17.4505C119.321 18.1111 120.845 19.3566 121.277 21.1522C123.046 28.5154 121.911 32.8522 116.372 38.8414C116.118 39.1161 115.825 39.3629 115.512 39.5679Z" fill="#E0A35B" stroke="#5F2E18" stroke-width="3" stroke-linecap="round" stroke-linejoin="round"/>
<path d="M103.392 11L104.097 17.2759C104.234 18.4965 105.266 19.4194 106.495 19.4194V19.4194C107.478 19.4194 108.363 18.8227 108.732 17.9112L110.014 14.7419M116.162 19.4194L113.575 22.2976C112.801 23.1585 111.753 23.7242 110.609 23.8983L108.277 24.253C107.003 24.4468 105.919 25.2824 105.406 26.4647V26.4647C105.024 27.3467 104.996 28.342 105.328 29.2442L106.703 32.9839L110.014 39.5323M115.689 35.3226L113.071 33.4731C112.618 33.1531 112.262 32.7147 112.041 32.2058L111.987 32.0806C111.403 30.7326 111.93 29.1612 113.209 28.4384V28.4384C113.887 28.0551 114.692 27.9638 115.439 28.1854L119 29.2419M101.5 40L102.267 35.8267C102.382 35.2037 102.248 34.5607 101.894 34.0355V34.0355C101.152 32.9348 99.6616 32.6368 98.5533 33.3675L98.3172 33.5231C97.9234 33.7828 97.6043 34.1408 97.3914 34.5617L95.8243 37.6613M88.7297 35.7903V35.266C88.7297 33.5612 89.6285 31.9828 91.0946 31.1129V31.1129L94.4054 29.7097L96.3505 28.9883C97.5325 28.55 98.5052 27.6814 99.074 26.5563L99.5558 25.6035C99.9011 24.9204 100.081 24.1657 100.081 23.4003V23.4003C100.081 22.3348 99.7326 21.2985 99.0887 20.4496L97.7366 18.6667C97.4099 18.2358 97.1552 17.7548 96.9824 17.2424L96.7969 16.6918C96.4716 15.7268 96.4488 14.6854 96.7314 13.707L97.2432 11.9355M89.5 17.5L92.7122 19.816C93.2004 20.1681 93.5792 20.6509 93.8049 21.2089V21.2089C94.1828 22.1432 94.0975 23.2011 93.5747 24.0627L93.4725 24.2312C93.1538 24.7564 92.7056 25.191 92.1708 25.4932L90.5415 26.4139C89.9739 26.7347 89.3331 26.9032 88.6811 26.9032V26.9032C87.7958 26.9032 86.9384 27.2139 86.2586 27.7811L83 30.5" stroke="#FBD18A" stroke-width="2" stroke-linecap="round" stroke-linejoin="round"/>
<path d="M190.214 90H8V96.3231H36.357L60.2941 110.201L76.4159 96.3231H190.214V90Z" fill="#F0A00E"/>
</svg>
