<svg width="350" height="299" viewBox="0 0 350 299" fill="none" xmlns="http://www.w3.org/2000/svg">
<path d="M175.34 139.393V170.8H17.9554C-2.6153 170.8 -2.56592 139.393 17.9554 139.393H175.34Z" fill="#683313"/>
<path d="M332.744 170.801H175.341V139.394H332.744C353.294 139.393 353.216 170.801 332.744 170.801Z" fill="#4E2410"/>
<path d="M175.34 191.293V222.697H17.9554C-2.6153 222.697 -2.56592 191.293 17.9554 191.293H175.34Z" fill="#683313"/>
<path d="M332.744 222.697H175.341V191.293H332.744C353.294 191.293 353.216 222.697 332.744 222.697Z" fill="#4E2410"/>
<path d="M349.567 259.216V273.074C349.567 285.548 339.616 295.584 327.365 295.584H22.6509C10.395 295.584 0.441406 285.548 0.441406 273.074V259.216H349.567Z" fill="#ED7D22"/>
<path d="M321.292 139.393H29.381C13.4066 139.393 14.5532 120.203 29.381 120.203H321.292C336.166 120.203 337.223 139.393 321.292 139.393Z" fill="#C6CC2D"/>
<path d="M321.203 189.994H29.2915C13.369 189.994 14.4143 170.8 29.2915 170.8H321.203C336.081 170.801 337.133 189.994 321.203 189.994Z" fill="#FDE712"/>
<path d="M336.68 120.203H175.33V0.781738C260.85 0.781738 337.482 43.3747 349.625 104.042C351.272 112.412 345.087 120.203 336.68 120.203Z" fill="#ED7D22"/>
<path d="M175.33 0.781738V120.204H13.9785C5.5783 120.204 -0.651182 112.412 1.06786 104.043C12.6718 45.7663 86.2559 0.781738 175.33 0.781738Z" fill="#F6C914"/>
<path d="M49.7964 96.316C49.7964 101.507 45.636 105.711 40.5132 105.711C35.382 105.711 31.2305 101.506 31.2305 96.316C31.2305 91.1258 35.382 86.9092 40.5132 86.9092C45.6368 86.9092 49.7964 91.125 49.7964 96.316Z" fill="#F9EF75"/>
<path d="M93.7847 96.316C93.7847 101.507 89.6269 105.711 84.5049 105.711C79.3771 105.711 75.2217 101.506 75.2217 96.316C75.2217 91.1258 79.3771 86.9092 84.5049 86.9092C89.6269 86.9092 93.7847 91.125 93.7847 96.316Z" fill="#F9EF75"/>
<path d="M137.772 96.316C137.772 101.507 133.617 105.711 128.487 105.711C123.361 105.711 119.215 101.506 119.215 96.316C119.215 91.1258 123.361 86.9092 128.487 86.9092C133.617 86.9092 137.772 91.125 137.772 96.316Z" fill="#F9EF75"/>
<path d="M181.765 96.316C181.765 101.507 177.604 105.711 172.482 105.711C167.36 105.711 163.201 101.506 163.201 96.316C163.201 91.1258 167.36 86.9092 172.482 86.9092C177.604 86.9092 181.765 91.125 181.765 96.316Z" fill="#F9EF75"/>
<path d="M225.751 96.316C225.751 101.507 221.601 105.711 216.471 105.711C211.349 105.711 207.193 101.506 207.193 96.316C207.193 91.1258 211.349 86.9092 216.471 86.9092C221.601 86.9092 225.751 91.125 225.751 96.316Z" fill="#F9EF75"/>
<path d="M269.747 96.316C269.747 101.507 265.591 105.711 260.463 105.711C255.332 105.711 251.184 101.506 251.184 96.316C251.184 91.1258 255.332 86.9092 260.463 86.9092C265.591 86.9092 269.747 91.125 269.747 96.316Z" fill="#F9EF75"/>
<path d="M313.737 96.316C313.737 101.507 309.577 105.711 304.454 105.711C299.325 105.711 295.174 101.506 295.174 96.316C295.174 91.1258 299.325 86.9092 304.454 86.9092C309.577 86.9092 313.737 91.125 313.737 96.316Z" fill="#F9EF75"/>
<path d="M73.9023 68.1156C73.9023 73.3007 69.7362 77.5047 64.6167 77.5047C59.4939 77.5047 55.334 73.2999 55.334 68.1156C55.334 62.9135 59.4939 58.6943 64.6167 58.6943C69.737 58.6943 73.9023 62.9135 73.9023 68.1156Z" fill="#F9EF75"/>
<path d="M117.887 68.1156C117.887 73.3007 113.741 77.5047 108.607 77.5047C103.479 77.5047 99.3262 73.2999 99.3262 68.1156C99.3262 62.9135 103.479 58.6943 108.607 58.6943C113.741 58.6943 117.887 62.9135 117.887 68.1156Z" fill="#F9EF75"/>
<path d="M161.877 68.1156C161.877 73.3007 157.723 77.5047 152.604 77.5047C147.472 77.5047 143.32 73.2999 143.32 68.1156C143.32 62.9135 147.472 58.6943 152.604 58.6943C157.724 58.6943 161.877 62.9135 161.877 68.1156Z" fill="#F9EF75"/>
<path d="M205.875 68.1156C205.875 73.3007 201.71 77.5047 196.591 77.5047C191.46 77.5047 187.305 73.2999 187.305 68.1156C187.305 62.9135 191.46 58.6943 196.591 58.6943C201.71 58.6943 205.875 62.9135 205.875 68.1156Z" fill="#F9EF75"/>
<path d="M249.861 68.1156C249.861 73.3007 245.709 77.5047 240.575 77.5047C235.452 77.5047 231.295 73.2999 231.295 68.1156C231.295 62.9135 235.452 58.6943 240.575 58.6943C245.709 58.6943 249.861 62.9135 249.861 68.1156Z" fill="#F9EF75"/>
<path d="M95.8984 35.8074C95.8984 40.9985 91.7396 45.2024 86.6143 45.2024C81.4814 45.2024 77.332 40.9977 77.332 35.8074C77.332 30.6053 81.4814 26.4014 86.6143 26.4014C91.7404 26.4005 95.8984 30.6053 95.8984 35.8074Z" fill="#F9EF75"/>
<path d="M139.886 35.8074C139.886 40.9985 135.723 45.2024 130.606 45.2024C125.476 45.2024 121.32 40.9977 121.32 35.8074C121.32 30.6053 125.476 26.4014 130.606 26.4014C135.723 26.4005 139.886 30.6053 139.886 35.8074Z" fill="#F9EF75"/>
<path d="M183.874 35.8074C183.874 40.9985 179.722 45.2024 174.589 45.2024C169.472 45.2024 165.314 40.9977 165.314 35.8074C165.314 30.6053 169.472 26.4014 174.589 26.4014C179.722 26.4005 183.874 30.6053 183.874 35.8074Z" fill="#F9EF75"/>
<path d="M227.865 35.8074C227.865 40.9985 223.713 45.2024 218.586 45.2024C213.454 45.2024 209.307 40.9977 209.307 35.8074C209.307 30.6053 213.454 26.4014 218.586 26.4014C223.713 26.4005 227.865 30.6053 227.865 35.8074Z" fill="#F9EF75"/>
<path d="M271.891 35.8074C271.891 40.9985 267.736 45.2024 262.614 45.2024C257.483 45.2024 253.328 40.9977 253.328 35.8074C253.328 30.6053 257.483 26.4014 262.614 26.4014C267.736 26.4005 271.891 30.6053 271.891 35.8074Z" fill="#F9EF75"/>
<path d="M293.854 68.1156C293.854 73.3007 289.693 77.5047 284.574 77.5047C279.44 77.5047 275.287 73.2999 275.287 68.1156C275.287 62.9135 279.44 58.6943 284.574 58.6943C289.693 58.6943 293.854 62.9135 293.854 68.1156Z" fill="#F9EF75"/>
<path d="M349.567 245.343V259.215H0.441406V245.343C0.441406 232.911 10.3958 222.845 22.6509 222.845H327.365C339.616 222.845 349.567 232.911 349.567 245.343Z" fill="#E76624"/>
<path d="M283.033 175.955C276.935 175.955 271.096 177.581 265.767 180.538C259.412 184.048 251.562 184.048 245.213 180.538C239.866 177.581 234.039 175.955 227.942 175.955C221.834 175.955 216.006 177.581 210.659 180.538C204.307 184.048 196.469 184.048 190.113 180.538C184.773 177.581 178.941 175.955 172.842 175.955C166.736 175.955 160.909 177.581 155.577 180.538C149.218 184.048 141.372 184.048 135.017 180.538C129.68 177.581 123.847 175.955 117.744 175.955C111.648 175.955 105.813 177.581 100.471 180.538C94.1132 184.048 86.2791 184.048 79.9151 180.538C74.5781 177.581 68.7506 175.955 62.652 175.955C49.3206 175.955 37.3054 183.701 28.9068 196.058C26.6137 199.428 29.0651 204.034 33.0948 204.034C33.2463 204.034 48.5071 191.529 62.652 191.529C70.0972 191.529 76.9449 193.914 82.9733 197.997C87.3914 200.978 92.9978 200.978 97.4234 197.997C103.447 193.923 110.286 191.529 117.743 191.529C125.225 191.529 132.075 193.923 138.106 198.011C142.511 201 148.097 200.988 152.495 198.011C158.48 193.967 165.316 191.529 172.841 191.529C180.301 191.529 187.129 193.914 193.169 197.997C197.589 200.989 203.195 200.978 207.619 197.986C213.63 193.937 220.461 191.529 227.941 191.529C235.442 191.529 242.273 193.946 248.259 197.986C252.666 200.969 258.247 200.989 262.665 198.034C262.728 197.986 262.793 197.946 262.857 197.905C289.28 180.073 308.427 204.035 312.582 204.035H312.587C316.619 204.035 319.063 199.428 316.768 196.059C308.37 183.701 296.359 175.955 283.033 175.955Z" fill="#ED3024"/>
<path d="M142.607 222.845C135.008 245.284 113.995 261.419 89.2715 261.419C64.5345 261.419 43.5284 245.284 35.9258 222.845H142.607Z" fill="#B0D13B"/>
<path d="M129.46 222.845C122.52 238.311 107.133 249.049 89.2715 249.049C71.4166 249.049 56.0297 238.311 49.0732 222.845H129.46Z" fill="#DBE12B"/>
<path d="M312.375 264.967C304.926 267.744 302.635 273.042 301.014 280.624C296.543 301.613 263.406 305.795 256.378 285.647C253.417 277.128 255.388 256.15 243.088 255.835C214.968 255.118 181.765 281.865 179.398 222.845H308.963C315.654 232.308 328.848 258.813 312.375 264.967Z" fill="#B0D13B"/>
<path d="M280.476 272.257C273.07 270.138 266.795 262.556 259.511 260.454C248.113 257.06 234.059 276.102 221.04 256.034H221.023C216.354 248.949 214.278 239.65 203.861 239.961C202.057 239.961 156.454 250.52 159.026 222.845C159.043 222.788 159.043 222.751 159.043 222.697H293.257C293.293 222.751 293.329 222.787 293.365 222.845C314.207 252.492 297.839 277.264 280.476 272.257Z" fill="#DBE12B"/>
<path d="M37.0158 181.519C44.4603 184.296 46.7502 189.595 48.3713 197.177C52.8455 218.166 85.9776 222.351 93.0061 202.2C95.9646 193.68 94.0006 172.7 106.298 172.383C134.42 171.669 167.62 198.417 169.986 139.395H40.4192C33.7338 148.859 20.5368 175.365 37.0158 181.519Z" fill="#B0D13B"/>
<path d="M68.9076 188.811C76.3178 186.691 82.5887 179.108 89.8725 177.005C101.275 173.614 115.325 192.652 128.347 172.589H128.363C133.033 165.5 135.108 156.2 145.524 156.513C147.327 156.513 192.931 167.075 190.358 139.393C190.34 139.342 190.34 139.305 190.34 139.249H56.1244C56.0918 139.306 56.054 139.342 56.018 139.393C35.1794 169.044 51.5474 193.817 68.9076 188.811Z" fill="#DBE12B"/>
<path d="M197.295 120.404H305.074C282.797 172.979 201.377 168.276 197.295 120.404Z" fill="#CA2027"/>
<path d="M214.646 120.404H288.378C270.041 149.573 223.241 147.279 214.646 120.404Z" fill="#EF5123"/>
<path d="M239.919 120.509C239.933 120.478 239.933 120.435 239.949 120.404H249.971C249.314 126.297 245.323 132.44 241.935 131.485C239.306 130.709 238.408 125.796 239.919 120.509Z" fill="#F7E8C4"/>
<path d="M260.184 120.404H270.482C271.6 124.991 270.837 129.026 268.514 129.831C265.637 130.842 261.66 126.402 260.184 120.404Z" fill="#F7E8C4"/>
</svg>
