<svg width="112" height="201" viewBox="0 0 112 201" fill="none" xmlns="http://www.w3.org/2000/svg">
<path fill-rule="evenodd" clip-rule="evenodd" d="M14.4532 185.086L0.0118558 51.0495C1.82598 55.616 4.63699 59.5275 8.93864 62.7869L10.0589 74.1067L19.6321 170.844C29.3457 188.245 82.7178 188.839 91.2851 170.844L101.053 73.2041L102.053 63.2179C106.607 59.853 109.923 55.7935 111.48 51.0533L97.4903 185.086C87.5619 205.846 23.0277 206.748 14.4532 185.086Z" fill="#F0CB99"/>
<path fill-rule="evenodd" clip-rule="evenodd" d="M8.93864 62.7869C4.63699 59.5275 1.82598 55.616 0.0118558 51.0495C-1.34216 15.8512 113.737 19.0142 111.48 51.0533C109.923 55.7935 106.607 59.853 102.053 63.2179C80.4601 79.1693 31.0133 79.5129 8.93864 62.7869ZM98.9244 57.4076C97.6694 58.8379 96.175 60.1595 94.4781 61.3714C76.1276 74.4777 34.1045 74.76 15.3442 61.0173C13.8275 59.9063 12.5289 58.7031 11.4183 57.4074C9.85197 55.5801 8.65976 53.5689 7.75763 51.3734C6.60691 22.4532 104.408 25.0521 102.49 51.3766C101.747 53.5641 100.532 55.5751 98.9244 57.4076Z" fill="#F7DCB9"/>
<path fill-rule="evenodd" clip-rule="evenodd" d="M10.0589 74.1067L19.6321 170.844C29.3457 188.245 82.7178 188.839 91.2851 170.844L101.053 73.2041C89.3554 89.4505 27.9801 90.3531 10.0589 74.1067Z" fill="#F9D4A3"/>
<path fill-rule="evenodd" clip-rule="evenodd" d="M10.0589 74.1067L8.93864 62.7869C31.0133 79.5129 80.4601 79.1693 102.053 63.2179L101.053 73.2041C89.3554 89.4505 27.9801 90.3531 10.0589 74.1067Z" fill="#FFE7C2"/>
<path fill-rule="evenodd" clip-rule="evenodd" d="M11.4183 57.4074C25.2724 34.4567 82.5861 34.2809 98.9244 57.4076C97.6694 58.8379 96.175 60.1595 94.4781 61.3714C76.1276 74.4777 34.1045 74.76 15.3442 61.0173C13.8275 59.9063 12.5289 58.7031 11.4183 57.4074Z" fill="#FFE7C2"/>
<path fill-rule="evenodd" clip-rule="evenodd" d="M11.4183 57.4074C9.85197 55.5801 8.65976 53.5689 7.75763 51.3734C6.60691 22.4532 104.408 25.0521 102.49 51.3766C101.747 53.5641 100.532 55.5751 98.9244 57.4076C82.5861 34.2809 25.2724 34.4567 11.4183 57.4074Z" fill="#F0CB98"/>
<path d="M78.4595 3.5957L67.1773 103.784L57.3785 100.188L68.6607 0L78.4595 3.5957Z" fill="#FCD29B"/>
</svg>
