<svg width="112" height="205" viewBox="0 0 112 205" fill="none" xmlns="http://www.w3.org/2000/svg">
<path fill-rule="evenodd" clip-rule="evenodd" d="M41.4837 116.699C45.9792 117.6 50.8576 118.208 56.1157 118.537C61.1604 117.925 65.8416 117.148 70.1619 116.177C64.8714 118.905 63.9763 135.167 63.1146 150.82C62.7136 158.105 62.3199 165.258 61.4936 170.854C58.1676 170.682 54.796 170.688 51.4591 170.88C51.1346 166.904 51.0526 162.139 50.9657 157.095C50.6836 140.706 50.3509 121.383 41.4837 116.699Z" fill="#FDEED3"/>
<path fill-rule="evenodd" clip-rule="evenodd" d="M97.0843 184.154C100.008 212.276 10.4644 204.66 16.9023 184.154C23.6534 175.895 37.2412 171.698 51.4591 170.88C51.992 177.411 53.1791 181.811 56.1157 181.811C58.9691 181.811 60.5272 177.398 61.4936 170.854C77.1674 171.661 91.8299 176.403 97.0843 184.154Z" fill="#FDEED3"/>
<path fill-rule="evenodd" clip-rule="evenodd" d="M51.4591 170.88C54.796 170.688 58.1676 170.682 61.4936 170.854C60.5272 177.398 58.9691 181.811 56.1157 181.811C53.1791 181.811 51.992 177.411 51.4591 170.88Z" fill="#FDEED3"/>
<path fill-rule="evenodd" clip-rule="evenodd" d="M56.1157 118.537C50.8576 118.208 45.9792 117.6 41.4837 116.699C2.57558 108.9 -7.65591 79.0936 12.8058 16.5946C12.8058 34.759 100.008 30.0718 100.008 16.5946C119.005 82.0877 109.699 107.289 70.1619 116.177C65.8416 117.148 61.1604 117.925 56.1157 118.537Z" fill="#F3EDE5"/>
<path fill-rule="evenodd" clip-rule="evenodd" d="M12.8058 16.5946C12.8058 34.759 100.008 30.0718 100.008 16.5946C100.008 -2.8159 12.8058 -1.57008 12.8058 16.5946Z" fill="#F3EDE5"/>
<path d="M56.3889 0.00393236C67.4277 -0.074921 78.5849 1.03073 87.0676 3.44729C91.2941 4.65136 95.0295 6.22813 97.7609 8.27639C100.41 10.2632 102.358 12.8992 102.498 16.211C111.932 48.8256 114.54 72.0448 109.42 88.3614C104.191 105.026 91.1263 113.947 71.1047 118.525C70.6207 118.879 69.9569 119.714 69.2785 121.449C68.5337 123.355 67.9326 125.928 67.4474 129.037C66.478 135.251 66.0435 143.091 65.6105 150.957C65.2716 157.115 64.9312 163.298 64.3176 168.535C71.3945 169.103 78.2211 170.457 84.0412 172.547C90.3257 174.803 95.744 178.027 98.8596 182.332L99.1535 182.752L99.506 183.272L99.5705 183.896C100.012 188.147 98.6797 191.788 96.0891 194.724C93.5614 197.588 89.912 199.705 85.7521 201.246C77.436 204.327 66.3479 205.371 55.5637 204.887C44.7691 204.402 33.9537 202.373 26.1496 199.062C22.2677 197.415 18.9114 195.359 16.7267 192.829C14.4568 190.2 13.4012 186.959 14.5168 183.405L14.6613 182.945L14.967 182.572C21.9718 174.002 35.2438 169.726 48.799 168.564C48.6044 165.073 48.5352 161.158 48.466 157.139C48.3241 148.894 48.1681 140.162 46.9767 132.913C46.3822 129.295 45.5495 126.18 44.4045 123.746C43.3292 121.461 42.0556 119.935 40.5998 119.069C30.7779 117.054 22.5738 113.626 16.1535 108.512C9.61978 103.307 5.05556 96.4544 2.48651 87.877C-2.58806 70.9339 0.144686 47.3461 10.3176 16.1621C10.4843 12.9713 12.4861 10.4501 15.0822 8.56155C17.8 6.58449 21.5183 5.02232 25.7355 3.80081C34.2019 1.34857 45.3472 0.0828217 56.3889 0.00393236ZM63.5891 173.495C63.1417 175.915 62.5686 178.092 61.7912 179.814C60.8303 181.944 59.1046 184.311 56.1154 184.311C53.0256 184.31 51.3849 181.876 50.55 179.686C49.9062 177.997 49.4935 175.882 49.2131 173.548C36.3981 174.646 25.0016 178.586 19.174 185.338C18.8665 186.752 19.2565 188.107 20.5119 189.562C21.9806 191.263 24.5411 192.947 28.1027 194.458C35.186 197.463 45.3664 199.424 55.7873 199.892C66.2186 200.36 76.5661 199.317 84.0158 196.558C87.7388 195.178 90.5556 193.437 92.34 191.415C93.9301 189.613 94.7529 187.537 94.6418 185.04C92.3442 182.015 88.1016 179.318 82.3517 177.253C76.9298 175.306 70.4254 174.018 63.5891 173.495ZM58.5422 173.251C57.1024 173.222 55.6587 173.225 54.218 173.265C54.4683 175.234 54.7968 176.789 55.2219 177.904C55.5173 178.679 55.7926 179.061 55.9611 179.224C56.0697 179.329 56.0864 179.311 56.1154 179.311C56.1396 179.311 56.1471 179.308 56.1574 179.304C56.1734 179.297 56.234 179.269 56.3342 179.177C56.555 178.974 56.8765 178.549 57.2336 177.758C57.7305 176.656 58.1632 175.142 58.5422 173.251ZM64.5441 119.831C61.9398 120.281 59.231 120.678 56.4172 121.02L56.1887 121.047L55.9592 121.032C53.3053 120.866 50.7398 120.629 48.2639 120.32C48.4978 120.743 48.7207 121.176 48.9289 121.618C50.3488 124.637 51.2791 128.255 51.9113 132.102C53.1736 139.782 53.3248 148.907 53.465 157.053C53.535 161.115 53.6047 164.925 53.7912 168.275C55.6329 168.219 57.4785 168.216 59.3156 168.267C59.9275 163.186 60.268 157.048 60.6183 150.683C61.047 142.896 61.4909 134.779 62.507 128.267C63.0006 125.103 63.6468 122.195 64.5441 119.831ZM99.0432 22.3721C98.5489 22.7371 98.0332 23.0716 97.5148 23.3721C94.8371 24.9246 91.1725 26.2109 86.9914 27.2598C78.5885 29.3678 67.4958 30.6628 56.4738 30.959C45.4634 31.2549 34.3281 30.5594 25.8644 28.5879C21.6515 27.6065 17.9128 26.2679 15.1691 24.4453C14.5311 24.0215 13.9304 23.5545 13.3801 23.0489C4.72189 51.2655 2.92798 71.9266 7.27557 86.4424C9.57021 94.1037 13.5807 100.071 19.2687 104.602C24.9849 109.155 32.5171 112.352 41.9748 114.248C46.2786 115.111 50.9682 115.698 56.0461 116.025C60.9362 115.425 65.4561 114.673 69.6135 113.738C88.9054 109.401 100.125 101.286 104.65 86.8643C109.057 72.8178 107.307 52.3066 99.0432 22.3721ZM56.425 5.00393C45.6663 5.08078 35.0111 6.32003 27.1271 8.60354C23.1694 9.74987 20.0746 11.1126 18.0236 12.6045C15.967 14.1006 15.3058 15.45 15.3058 16.5948C15.3059 17.7017 15.9246 18.9443 17.9357 20.2803C19.9609 21.6256 23.036 22.7948 26.9982 23.7178C34.8848 25.5549 45.5502 26.2509 56.34 25.961C67.1185 25.6713 77.8272 24.4039 85.7746 22.4102C89.7684 21.4083 92.916 20.2583 95.007 19.0459C97.2643 17.7371 97.5079 16.8346 97.508 16.5948C97.508 15.2346 96.7789 13.7897 94.7609 12.2764C92.7235 10.7486 89.6459 9.38072 85.6974 8.25589C77.8298 6.01456 67.1866 4.92707 56.425 5.00393Z" fill="#FDEED3"/>
<path fill-rule="evenodd" clip-rule="evenodd" d="M7.76681 47.6117C19.4722 71.0459 87.9482 72.2177 104.336 47.6114C130.673 139.006 -17.9842 142.522 7.76681 47.6117Z" fill="#BE4528"/>
<path fill-rule="evenodd" clip-rule="evenodd" d="M104.336 47.6114C93.7999 32.9646 14.2038 31.7929 7.76681 47.6117C19.4722 71.0459 87.9482 72.2177 104.336 47.6114Z" fill="#D66041"/>
<path d="M72.1466 95.1681C74.3556 95.1683 76.1466 96.9591 76.1466 99.1681C76.1465 101.377 74.3556 103.168 72.1466 103.168H69.2199C67.0108 103.168 65.22 101.377 65.2199 99.1681C65.2199 96.959 67.0108 95.1681 69.2199 95.1681H72.1466ZM24.8312 77.9542C26.8401 77.0353 29.214 77.919 30.133 79.9278C31.6801 83.3103 33.0933 84.9465 34.3205 85.9288C35.6374 86.983 36.9682 87.5068 39.1925 88.4611C41.2227 89.332 42.1621 91.6848 41.2912 93.715C40.42 95.7449 38.0683 96.6845 36.0382 95.8136C34.1659 95.0103 31.6715 94.056 29.3205 92.1739C26.8796 90.2199 24.7812 87.4615 22.8576 83.256C21.9387 81.2471 22.8223 78.8732 24.8312 77.9542Z" fill="#CB5737"/>
</svg>
