<svg width="200" height="200" viewBox="0 0 200 200" fill="none" xmlns="http://www.w3.org/2000/svg">
<path d="M0 0H200V200H0V0Z" fill="#F5C458"/>
<path d="M158.594 100C158.594 132.36 132.36 158.594 100 158.594C67.6396 158.594 41.4062 132.36 41.4062 100C41.4062 67.6396 67.6396 41.4062 100 41.4062C132.36 41.4062 158.594 67.6396 158.594 100Z" fill="white"/>
<path d="M88.4032 137.778C79.1517 128.426 69.0285 117.879 66.7235 113.657C64.4186 109.435 70.337 102.622 75.5126 105.063C80.4403 107.387 84.5717 114.05 84.9561 114.683C84.336 113.275 84.1487 88.3523 84.9852 81.0396C85.8348 73.6133 99.6337 73.1296 99.6337 81.0396C99.6337 88.9496 99.1454 100.684 99.1454 100.684C101.074 93.75 109.57 93.5547 111.523 100.684C114.258 95.1172 121.777 95.7031 123.145 102.344C126.855 97.7539 133.52 100.195 133.52 106.543V120.2C133.333 127.083 131.337 132.258 126.977 137.778C117.64 149.599 97.6547 147.129 88.4032 137.778Z" fill="#57BFF5"/>
<path d="M94.9462 66.8794C94.9462 69.7114 89.5751 69.5161 89.5751 66.8794C89.5751 64.2427 89.4747 59.5287 89.5751 56.3325C89.6755 53.1364 95.0443 53.588 94.9462 56.3325C94.8481 59.077 94.9462 64.0474 94.9462 66.8794Z" fill="#57BFF5"/>
<path d="M107.153 74.3989C105.2 75.571 102.075 73.3249 103.735 71.0786C105.395 68.8324 109.489 64.589 111.157 63.0708C112.825 61.5526 117.212 64.2428 115.161 66.8794C113.11 69.516 109.106 73.2269 107.153 74.3989Z" fill="#57BFF5"/>
<path d="M78.1493 74.3989C80.2001 76.2546 83.1298 73.0319 81.4696 70.7857C79.8095 68.5394 75.9032 64.7308 73.7548 63.0708C71.6063 61.4108 68.1499 64.6348 70.1415 66.8794C72.1331 69.124 76.0985 72.5433 78.1493 74.3989Z" fill="#57BFF5"/>
<path d="M99.6337 81.0396C99.6337 73.1296 85.8348 73.6133 84.9852 81.0396L84.9102 81.7754C84.1612 89.8868 84.3554 113.319 84.9561 114.683C84.5837 114.07 80.6947 107.797 75.9717 105.293L75.5126 105.063C70.337 102.622 64.4186 109.435 66.7235 113.657C69.0285 117.879 79.1517 128.426 88.4032 137.778C97.5104 146.983 117.019 149.52 126.532 138.321L126.977 137.778C131.337 132.258 133.333 127.083 133.52 120.2V106.543C133.52 100.195 126.855 97.7539 123.145 102.344C121.777 95.7031 114.258 95.1172 111.523 100.684C109.57 93.5547 101.074 93.75 99.1454 100.684C99.1457 100.676 99.5743 90.3674 99.6279 82.5635L99.6337 81.0396ZM69.6904 62.8018C70.7829 61.7151 72.7498 61.0305 74.3662 62.2793C76.5709 63.9828 80.5471 67.8556 82.2734 70.1914C83.4579 71.7941 82.9563 73.6935 81.9395 74.8057C81.4228 75.3707 80.7151 75.8081 79.9072 75.9229C79.0693 76.0418 78.2061 75.7989 77.4785 75.1406C75.4727 73.3257 71.4335 69.842 69.3936 67.543C68.7031 66.7648 68.4571 65.8525 68.5723 64.9736C68.6837 64.1236 69.1221 63.3671 69.6904 62.8018ZM110.484 62.3311C111.187 61.6921 112.104 61.559 112.904 61.6631C113.709 61.768 114.514 62.1219 115.166 62.627C115.815 63.1299 116.388 63.8435 116.605 64.7178C116.833 65.6342 116.638 66.6083 115.95 67.4932C114.881 68.8678 113.327 70.4948 111.804 71.9189C110.292 73.3324 108.739 74.614 107.668 75.2568C106.235 76.1167 104.5 75.6827 103.441 74.7822C102.893 74.3154 102.448 73.6655 102.31 72.8848C102.167 72.0811 102.369 71.2449 102.931 70.4844C104.644 68.1662 108.79 63.8733 110.484 62.3311ZM73.7548 63.0708C71.6063 61.4108 68.1499 64.6348 70.1415 66.8794C72.1331 69.124 76.0985 72.5433 78.1493 74.3989C80.1359 76.1959 82.9475 73.2283 81.6123 70.999L81.4696 70.7857C79.9131 68.6797 76.3822 65.2006 74.1768 63.4062L73.7548 63.0708ZM115.161 66.8794C117.212 64.2428 112.825 61.5526 111.157 63.0708L110.428 63.7588C108.504 65.6188 105.188 69.1131 103.735 71.0786L103.594 71.2891C102.312 73.3918 105.072 75.4006 106.967 74.499L107.153 74.3989C108.984 73.3002 112.618 69.9702 114.755 67.3857L115.161 66.8794ZM94.9462 66.8794C94.9462 64.4016 94.871 60.2867 94.918 57.458L94.9462 56.3325C95.0443 53.588 89.6755 53.1364 89.5751 56.3325L89.5459 57.5957C89.4979 60.6752 89.5751 64.5724 89.5751 66.8794L89.5791 67.001C89.7389 69.4815 94.7825 69.662 94.9424 67.0098L94.9462 66.8794ZM100.634 81.04C100.634 85.011 100.511 89.9349 100.389 93.8594C100.358 94.8498 100.327 95.7771 100.298 96.6104C101.678 95.1851 103.475 94.4274 105.316 94.4102C107.876 94.3864 110.35 95.7949 111.749 98.5098C113.386 96.5623 115.713 95.6785 117.963 95.9424C120.358 96.2234 122.529 97.7861 123.619 100.467C125.589 98.9022 128.004 98.5984 130.087 99.4102C132.635 100.403 134.521 102.995 134.521 106.543V120.213L134.52 120.227C134.326 127.341 132.245 132.721 127.762 138.397C122.84 144.628 115.158 147.035 107.616 146.717C100.084 146.399 92.5222 143.363 87.6924 138.481C83.0646 133.804 78.2102 128.818 74.2217 124.47C70.2675 120.159 67.0679 116.374 65.8457 114.136C64.3953 111.479 65.604 108.251 67.5898 106.171C69.6067 104.058 72.8264 102.69 75.9395 104.158C78.6044 105.415 80.9825 107.8 82.7061 109.867C83.0359 110.263 83.3425 110.652 83.6279 111.023C83.6126 110.666 83.5957 110.29 83.582 109.896C83.4899 107.233 83.4347 103.745 83.4248 100.078C83.4051 92.7667 83.5662 84.6496 83.9922 80.9258C84.4995 76.492 88.8154 74.3536 92.6113 74.2891C94.5521 74.2561 96.5309 74.7422 98.0527 75.8496C99.6081 76.9813 100.634 78.7303 100.634 81.04ZM95.9463 66.8799C95.9461 67.9559 95.4139 68.7706 94.665 69.2744C93.9514 69.7545 93.0645 69.9446 92.2422 69.9297C91.4187 69.9147 90.5466 69.6922 89.8496 69.2148C89.1286 68.7211 88.5754 67.9299 88.5752 66.8799C88.5752 64.2835 88.4742 59.516 88.5752 56.3008C88.6104 55.1838 89.1251 54.3238 89.8936 53.7812C90.6288 53.2621 91.5379 53.0702 92.377 53.1055C93.2161 53.1408 94.09 53.407 94.7725 53.9326C95.4777 54.4759 95.9831 55.3104 95.9453 56.3682C95.848 59.0904 95.9463 64.0057 95.9463 66.8799Z" fill="black"/>
</svg>
