<svg width="1659" height="193" viewBox="0 0 1659 193" fill="none" xmlns="http://www.w3.org/2000/svg">
<path d="M352.188 117.5C364.28 117.5 374.905 123.256 381.262 132L381.471 132.287L381.81 132.185C384.501 131.376 387.336 130.953 390.278 130.953C403.048 130.953 413.8 138.876 417.188 149.64L417.343 150.13L417.828 149.962C420.262 149.121 422.91 148.666 425.701 148.666C438.04 148.666 447.975 157.889 447.976 169.205V169.209C447.978 169.567 447.978 169.9 447.944 170.228L447.893 170.736L448.402 170.777C454.022 171.222 458.5 175.948 458.5 181.621C458.5 187.603 453.574 192.5 447.541 192.5H298.46C292.427 192.5 287.5 187.603 287.5 181.621C287.5 176.257 291.495 171.77 296.667 170.915L297.114 170.841L297.084 170.388C297.049 169.87 297.049 169.387 297.049 168.848C297.049 157.885 305.633 148.778 316.751 147.481L317.143 147.437L317.189 147.045C319.175 130.426 334.08 117.5 352.188 117.5ZM1495.06 76.5C1513.7 76.5001 1530.09 85.4019 1539.9 98.9326L1540.11 99.2207L1540.45 99.1182C1544.6 97.8658 1548.98 97.2109 1553.52 97.2109C1573.23 97.2111 1589.84 109.475 1595.08 126.166L1595.23 126.658L1595.72 126.489C1599.48 125.186 1603.58 124.479 1607.89 124.479C1626.95 124.479 1642.35 138.778 1642.35 156.369V156.372C1642.35 156.924 1642.35 157.45 1642.3 157.971L1642.25 158.479L1642.75 158.52C1651.52 159.215 1658.5 166.604 1658.5 175.482C1658.5 184.844 1650.82 192.5 1641.41 192.5H1412.59C1403.18 192.5 1395.5 184.844 1395.5 175.482C1395.5 167.086 1401.73 160.073 1409.79 158.735L1410.24 158.661L1410.21 158.208C1410.16 157.4 1410.16 156.648 1410.16 155.818C1410.16 138.793 1423.44 124.669 1440.63 122.658L1441.03 122.612L1441.07 122.221C1444.14 96.4898 1467.14 76.5 1495.06 76.5ZM100.058 0.5C118.701 0.500073 135.09 9.40186 144.896 22.9326L145.105 23.2207L145.446 23.1182C149.602 21.8659 153.979 21.2109 158.521 21.2109C178.229 21.2111 194.84 33.4751 200.079 50.166L200.233 50.6582L200.72 50.4893C204.484 49.1855 208.577 48.4785 212.891 48.4785C231.955 48.4787 247.347 62.7778 247.347 80.3691V80.3721C247.351 80.9237 247.35 81.4501 247.297 81.9707L247.245 82.4795L247.755 82.5195C256.516 83.2151 263.5 90.6037 263.5 99.4824C263.5 108.844 255.816 116.5 246.411 116.5H17.5889C8.18421 116.5 0.5 108.844 0.5 99.4824C0.500128 91.0859 6.73187 84.0726 14.7939 82.7354L15.2412 82.6611L15.2109 82.208C15.1564 81.4004 15.1563 80.6475 15.1562 79.8184C15.1562 62.7928 28.4449 48.6688 45.6338 46.6582L46.0254 46.6123L46.0723 46.2207C49.1368 20.4898 72.1389 0.5 100.058 0.5ZM504.857 81.5C510.552 81.5 515.57 84.9518 518.29 90.1055L518.504 90.5088L518.925 90.333C520.213 89.7973 521.59 89.5283 523.037 89.5283C527.448 89.5284 531.344 92.2118 533.446 96.2393L533.699 96.7227L534.159 96.4297C535.525 95.558 537.127 95.0509 538.835 95.0508C543.276 95.0508 547.044 98.4754 548.102 103.175L548.189 103.565H548.75C551.881 103.566 554.5 106.409 554.5 110.021C554.5 113.658 551.88 116.5 548.75 116.5H489.356C483.411 116.5 478.5 111.077 478.5 104.293C478.5 97.5101 483.409 92.1104 489.356 92.1104C489.601 92.1104 489.827 92.1322 490.081 92.1582V92.1592H490.083L490.459 92.1982L490.599 91.8477C493.053 85.7167 498.545 81.5 504.857 81.5ZM1204.86 61.5C1213.85 61.5 1221.76 66.9409 1226.04 75.0342L1226.25 75.4365L1226.67 75.2627C1228.71 74.4146 1230.9 73.9883 1233.19 73.9883C1240.18 73.9884 1246.34 78.2349 1249.66 84.5771L1249.91 85.0596L1250.37 84.7676C1252.54 83.3846 1255.09 82.5791 1257.81 82.5791C1264.88 82.5792 1270.85 88.0215 1272.52 95.4336L1272.61 95.8242H1273.26C1278.32 95.8242 1282.5 100.401 1282.5 106.143C1282.5 111.924 1278.32 116.5 1273.26 116.5H1180.7C1171.25 116.5 1163.5 107.909 1163.5 97.2334C1163.5 86.5594 1171.25 78.0049 1180.7 78.0049C1180.9 78.0049 1181.09 78.014 1181.28 78.0283L1181.86 78.082L1181.86 78.083L1182.24 78.1211L1182.38 77.7715C1186.24 68.1468 1194.89 61.5001 1204.86 61.5Z" fill="white" stroke="black"/>
</svg>
