<svg fill="none" height="117" viewBox="0 0 1920 117" width="1920" xmlns="http://www.w3.org/2000/svg">
  <rect fill="#50B5F6" height="117" width="1920" x="0" y="0"/>
  <path
    d="M128.5 18.5C128.5 16.567 130.067 15 132 15H223.5C225.433 15 227 16.567 227 18.5C227 20.433 225.433 22 223.5 22H132C130.067 22 128.5 20.433 128.5 18.5Z"
    fill="#459CD4"/>
  <path
    d="M87 45.5C87 43.567 88.567 42 90.5 42H182.5C184.433 42 186 43.567 186 45.5C186 47.433 184.433 49 182.5 49H90.5C88.567 49 87 47.433 87 45.5Z"
    fill="#459CD4"/>
  <path
    d="M634.5 42C632.567 42 631 43.567 631 45.5C631 47.433 632.567 49 634.5 49L750.5 48C752.433 48 754 46.433 754 44.5C754 42.567 752.433 41 750.5 41L634.5 42Z"
    fill="#459CD4"/>
  <path
    d="M267 45.5C267 43.567 268.567 42 270.5 42H304H337.5C339.433 42 341 43.567 341 45.5C341 47.433 339.433 49 337.5 49H304H270.5C268.567 49 267 47.433 267 45.5Z"
    fill="#459CD4"/>
  <path
    d="M556.5 15C554.567 15 553 16.567 553 18.5C553 20.433 554.567 22 556.5 22H659.5C661.433 22 663 20.433 663 18.5C663 16.567 661.433 15 659.5 15H556.5Z"
    fill="#459CD4"/>
  <path
    d="M1724 18.5C1724 16.567 1722.43 15 1720.5 15H1643C1641.07 15 1639.5 16.567 1639.5 18.5C1639.5 20.433 1641.07 22 1643 22H1720.5C1722.43 22 1724 20.433 1724 18.5Z"
    fill="#459CD4"/>
  <path
    d="M1805 45.5C1805 43.567 1803.43 42 1801.5 42H1691.5C1689.57 42 1688 43.567 1688 45.5C1688 47.433 1689.57 49 1691.5 49H1801.5C1803.43 49 1805 47.433 1805 45.5Z"
    fill="#459CD4"/>
  <path
    d="M1234.5 42C1236.43 42 1238 43.567 1238 45.5C1238 47.433 1236.43 49 1234.5 49H1156.5C1154.57 49 1153 47.433 1153 45.5C1153 43.567 1154.57 42 1156.5 42H1234.5Z"
    fill="#459CD4"/>
  <path
    d="M1592 45.5C1592 43.567 1590.43 42 1588.5 42H1521.5C1519.57 42 1518 43.567 1518 45.5C1518 47.433 1519.57 49 1521.5 49H1588.5C1590.43 49 1592 47.433 1592 45.5Z"
    fill="#459CD4"/>
  <path
    d="M1302.5 15C1304.43 15 1306 16.567 1306 18.5C1306 20.433 1304.43 22 1302.5 22H1220C1218.07 22 1216.5 20.433 1216.5 18.5C1216.5 16.567 1218.07 15 1220 15H1302.5Z"
    fill="#459CD4"/>
  <path
    d="M1854 18.5C1854 16.567 1852.43 15 1850.5 15H1782C1780.07 15 1778.5 16.567 1778.5 18.5C1778.5 20.433 1780.07 22 1782 22H1850.5C1852.43 22 1854 20.433 1854 18.5Z"
    fill="#459CD4"/>
  <path
    d="M814.5 18.5C814.5 16.567 812.933 15 811 15H744C742.067 15 740.5 16.567 740.5 18.5C740.5 20.433 742.067 22 744 22H811C812.933 22 814.5 20.433 814.5 18.5Z"
    fill="#459CD4"/>
  <path
    d="M1002 18.5C1002 16.567 1000.43 15 998.5 15H921.5C919.567 15 918 16.567 918 18.5C918 20.433 919.567 22 921.5 22H998.5C1000.43 22 1002 20.433 1002 18.5Z"
    fill="#459CD4"/>
  <path
    d="M1032 45.5C1032 43.567 1030.43 42 1028.5 42H990.5C988.567 42 987 43.567 987 45.5C987 47.433 988.567 49 990.5 49H1028.5C1030.43 49 1032 47.433 1032 45.5Z"
    fill="#459CD4"/>
  <path
    d="M382.5 18.5C382.5 16.567 380.933 15 379 15H341C339.067 15 337.5 16.567 337.5 18.5C337.5 20.433 339.067 22 341 22H379C380.933 22 382.5 20.433 382.5 18.5Z"
    fill="#459CD4"/>
</svg>
