<svg width="1920" height="133" viewBox="0 0 1920 133" fill="none" xmlns="http://www.w3.org/2000/svg">
<path d="M36.0478 109.061C53.432 123.147 78.5888 132 106.572 132C134.554 132 159.711 123.147 177.095 109.061V-7H36.0478V51.0305V109.061Z" fill="#FFB4AD"/>
<path d="M177.095 109.061C194.48 123.147 219.636 132 247.619 132C275.602 132 300.759 123.147 318.143 109.061V-7H177.095V109.061Z" fill="#FFE5E3"/>
<path d="M318.143 109.061C335.527 123.147 360.684 132 388.667 132C416.65 132 441.806 123.147 459.191 109.061V-7H318.143V109.061Z" fill="#FFB4AD"/>
<path d="M36.0478 109.061V51.0305V-7H-105V109.061C-87.6157 123.147 -62.459 132 -34.4762 132C-6.49339 132 18.6635 123.147 36.0478 109.061Z" fill="#FFE5E3"/>
<path d="M459.191 109.061C476.575 123.147 501.732 132 529.714 132C557.697 132 582.854 123.147 600.238 109.061V-7H459.191V109.061Z" fill="#FFE5E3"/>
<path d="M600.238 109.061C617.623 123.147 642.779 132 670.762 132C698.745 132 723.902 123.147 741.286 109.061V-7H600.238V109.061Z" fill="#FFB4AD"/>
<path d="M741.286 109.061C758.67 123.147 783.827 132 811.81 132C839.792 132 864.949 123.147 882.333 109.061V-7H741.286V109.061Z" fill="#FFE5E3"/>
<path d="M882.333 109.061C899.718 123.147 924.875 132 952.857 132C980.84 132 1006 123.147 1023.38 109.061V-7H882.333V109.061Z" fill="#FFB4AD"/>
<path d="M1023.38 109.061C1040.77 123.147 1065.92 132 1093.9 132C1121.89 132 1147.04 123.147 1164.43 109.061V-7H1023.38V109.061Z" fill="#FFE5E3"/>
<path d="M1164.43 109.061C1181.81 123.147 1206.97 132 1234.95 132C1262.94 132 1288.09 123.147 1305.48 109.061V-7H1164.43V109.061Z" fill="#FFB4AD"/>
<path d="M1305.48 109.061C1322.86 123.147 1348.02 132 1376 132C1403.98 132 1429.14 123.147 1446.52 109.061V-7H1305.48V109.061Z" fill="#FFE5E3"/>
<path d="M1446.52 109.061C1463.91 123.147 1489.06 132 1517.05 132C1545.03 132 1570.19 123.147 1587.57 109.061V-7H1446.52V109.061Z" fill="#FFB4AD"/>
<path d="M1587.57 109.061C1604.96 123.147 1630.11 132 1658.1 132C1686.08 132 1711.23 123.147 1728.62 109.061V-7H1587.57V109.061Z" fill="#FFE5E3"/>
<path d="M1728.62 109.061C1746 123.147 1771.16 132 1799.14 132C1827.13 132 1852.28 123.147 1869.67 109.061V-7H1728.62V109.061Z" fill="#FFB4AD"/>
<path d="M1869.67 109.061C1887.05 123.147 1912.21 132 1940.19 132C1968.17 132 1993.33 123.147 2010.71 109.061V-7H1869.67V109.061Z" fill="#FFE5E3"/>
<path d="M2011.21 -7.5V109.3L2011.03 109.449C1993.55 123.616 1968.27 132.5 1940.19 132.5C1912.27 132.5 1887.14 123.721 1869.67 109.701C1852.19 123.721 1827.06 132.5 1799.14 132.5C1771.23 132.5 1746.09 123.72 1728.62 109.7C1711.15 123.72 1686.01 132.5 1658.1 132.5C1630.18 132.5 1605.04 123.72 1587.57 109.7C1570.1 123.72 1544.96 132.5 1517.05 132.5C1489.13 132.5 1464 123.721 1446.52 109.701C1429.05 123.721 1403.92 132.5 1376 132.5C1348.08 132.5 1322.95 123.72 1305.48 109.7C1288 123.72 1262.87 132.5 1234.95 132.5C1207.04 132.5 1181.9 123.72 1164.43 109.7C1146.96 123.72 1121.82 132.5 1093.91 132.5C1065.99 132.5 1040.85 123.721 1023.38 109.701C1005.91 123.721 980.773 132.5 952.857 132.5C924.942 132.5 899.805 123.721 882.333 109.701C864.861 123.721 839.725 132.5 811.81 132.5C783.894 132.5 758.757 123.721 741.285 109.701C723.813 123.721 698.677 132.5 670.762 132.5C642.846 132.5 617.71 123.72 600.238 109.7C582.767 123.72 557.63 132.5 529.715 132.5C501.799 132.5 476.662 123.721 459.19 109.701C441.719 123.721 416.582 132.5 388.667 132.5C360.751 132.5 335.614 123.721 318.143 109.701C300.671 123.721 275.535 132.5 247.619 132.5C219.703 132.5 194.566 123.721 177.095 109.701C159.623 123.721 134.487 132.5 106.571 132.5C78.6556 132.5 53.5195 123.72 36.0479 109.7C18.5761 123.72 -6.56074 132.5 -34.4766 132.5C-62.1207 132.5 -87.0403 123.892 -104.489 110.109L-105.314 109.449L-105.5 109.3V-7.5H2011.21Z" stroke="black"/>
</svg>
