<svg width="2116" height="141" viewBox="0 0 2116 141" fill="none" xmlns="http://www.w3.org/2000/svg">
<path d="M755.219 118.058C773.853 132.146 800.818 141 830.811 141C860.805 141 887.77 132.146 906.404 118.058V1.97913H755.219V118.058Z" fill="#FFE5E3"/>
<path d="M1057.59 118.058C1076.22 132.146 1103.19 141 1133.18 141C1163.17 141 1190.14 132.146 1208.77 118.058V1.97913H1057.59V118.058Z" fill="#FFE5E3"/>
<path d="M1359.96 118.058C1378.59 132.146 1405.55 141 1435.55 141C1465.54 141 1492.51 132.146 1511.14 118.058V1.97913H1359.96V118.058Z" fill="#FFE5E3"/>
<path d="M1662.33 118.058C1680.96 132.146 1707.92 141 1737.92 141C1767.91 141 1794.88 132.146 1813.51 118.058V1.97913H1662.33V118.058Z" fill="#FFE5E3"/>
<path d="M1964.69 118.058C1983.33 132.146 2010.29 141 2040.29 141C2070.28 141 2097.25 132.146 2115.88 118.058L2116 1.97913H1964.69V118.058Z" fill="#FFE5E3"/>
<path d="M0 118.058C18.6336 132.146 44.8964 141 74.8903 141C104.884 141 131.849 132.146 150.482 118.058V1.97913H0V60.0184V118.058Z" fill="#FFB4AD"/>
<path d="M150.482 118.058C169.116 132.146 196.081 141 226.075 141C256.068 141 283.033 132.146 301.667 118.058V1.97913H150.482V118.058Z" fill="#FFE5E3"/>
<path d="M301.667 118.058C320.3 132.146 347.265 141 377.259 141C407.253 141 434.217 132.146 452.851 118.058V1.97913H301.667V118.058Z" fill="#FFB4AD"/>
<path d="M604.035 118.058C622.669 132.146 649.634 141 679.627 141C709.621 141 736.586 132.146 755.219 118.058V1.97913H604.035V118.058Z" fill="#FFB4AD"/>
<path d="M906.404 118.058C925.037 132.146 952.002 141 981.996 141C1011.99 141 1038.95 132.146 1057.59 118.058V1.97913H906.404V118.058Z" fill="#FFB4AD"/>
<path d="M1208.77 118.058C1227.41 132.146 1254.37 141 1284.36 141C1314.36 141 1341.32 132.146 1359.96 118.058V1.97913H1208.77V118.058Z" fill="#FFB4AD"/>
<path d="M1511.14 118.058C1529.77 132.146 1556.74 141 1586.73 141C1616.73 141 1643.69 132.146 1662.33 118.058V1.97913H1511.14V118.058Z" fill="#FFB4AD"/>
<path d="M1813.51 118.058C1832.14 132.146 1859.11 141 1889.1 141C1919.1 141 1946.06 132.146 1964.69 118.058V1.97913H1813.51V118.058Z" fill="#FFB4AD"/>
<path d="M452.851 118.058C471.485 132.146 498.449 141 528.443 141C558.437 141 585.402 132.146 604.035 118.058V1.97913H452.851V118.058Z" fill="#FFE5E3"/>
<path d="M0 1H2116" stroke="#FFBEBF"/>
</svg>
