<svg width="200" height="200" viewBox="0 0 200 200" fill="none" xmlns="http://www.w3.org/2000/svg">
<path d="M23 194V182.772C23 182.221 23.4449 181.774 23.9954 181.772L170.532 181.094C172.194 181.087 173.545 182.432 173.545 184.094V192C173.545 193.657 172.202 195 170.545 195H24C23.4477 195 23 194.552 23 194Z" fill="#3B4452"/>
<path d="M127 169.641V164.303C127 163.922 126.782 163.574 126.441 163.404C118.657 159.534 114.514 156.705 109.545 148.37C104.653 141.088 103.253 136.432 102.273 127.491C101.573 112.625 105.258 104.658 118.939 91.3595C118.979 91.3207 119.024 91.2835 119.07 91.2519C131.99 82.3536 139.423 80.735 152.099 81.4876C152.682 81.5221 153.176 81.0574 153.169 80.4739L152.515 24.1178C152.478 20.9565 150.583 18.1134 147.68 16.863L138.255 12.8045C138.032 12.7085 137.852 12.5345 137.747 12.3151L136.735 10.1839C135.233 7.02191 132.034 5.01766 128.534 5.04558L52.9779 5.64811C49.535 5.67557 46.6232 8.20266 46.1115 11.6074L31.7273 107.308L23.1567 169.504C23.0739 170.105 23.5408 170.641 24.1473 170.641H126C126.552 170.641 127 170.193 127 169.641Z" fill="#3B4452"/>
<path d="M22.5 182.771C22.5002 181.946 23.1676 181.275 23.9932 181.271L170.529 180.595C172.469 180.586 174.046 182.155 174.046 184.095V192C174.046 193.933 172.479 195.5 170.546 195.5H24C23.1716 195.5 22.5 194.828 22.5 194V182.771ZM126.5 164.304C126.5 164.115 126.391 163.938 126.218 163.852C122.319 161.914 119.292 160.217 116.614 157.943C113.931 155.665 111.62 152.826 109.116 148.626C106.663 144.971 105.069 141.953 103.969 138.714C102.867 135.471 102.267 132.03 101.775 127.545C101.774 127.535 101.774 127.525 101.773 127.514C101.421 120.033 102.17 114.237 104.759 108.628C107.342 103.031 111.736 97.6635 118.591 91.0008C118.651 90.9426 118.717 90.8871 118.786 90.8397C125.269 86.3744 130.41 83.7129 135.541 82.2693C140.675 80.8252 145.764 80.6103 152.129 80.9881C152.426 81.0057 152.672 80.7686 152.669 80.4793L152.015 24.1238C151.98 21.1602 150.204 18.4943 147.481 17.3221L138.058 13.2635C137.723 13.1195 137.452 12.859 137.296 12.5301L136.283 10.3982C134.865 7.41218 131.844 5.51947 128.538 5.54571L52.9814 6.14825C49.7847 6.17394 47.0807 8.52012 46.6055 11.6815L32.2217 107.375L23.6523 169.573C23.6112 169.873 23.8443 170.14 24.1475 170.14H126C126.276 170.14 126.5 169.917 126.5 169.64V164.304ZM23.5 194C23.5 194.276 23.7239 194.5 24 194.5H170.546C171.926 194.5 173.046 193.38 173.046 192V184.095C173.046 182.709 171.919 181.588 170.534 181.595L23.998 182.271C23.723 182.273 23.5002 182.496 23.5 182.771V194ZM127.5 169.64C127.5 170.469 126.828 171.14 126 171.14H24.1475C23.2377 171.14 22.5371 170.338 22.6611 169.436L31.2324 107.239V107.233L45.6172 11.533C46.1655 7.88518 49.2849 5.17779 52.9736 5.14825L128.53 4.54571C132.225 4.51643 135.601 6.63208 137.187 9.96954L138.199 12.1004C138.251 12.2101 138.342 12.2975 138.453 12.3455L147.877 16.4041C150.962 17.7327 152.976 20.7533 153.015 24.1121L153.669 80.4676C153.679 81.3454 152.937 82.0386 152.069 81.9871C145.758 81.6125 140.793 81.8307 135.812 83.2322C130.827 84.6344 125.79 87.2309 119.354 91.6639C119.331 91.6795 119.307 91.6983 119.287 91.7176C112.46 98.3535 108.172 103.619 105.667 109.047C103.169 114.46 102.425 120.078 102.771 127.458C103.26 131.904 103.851 135.255 104.916 138.391C105.915 141.333 107.338 144.105 109.515 147.421L109.961 148.091L109.975 148.114C112.439 152.249 114.684 154.993 117.261 157.18C119.842 159.372 122.779 161.026 126.663 162.957C127.172 163.21 127.5 163.731 127.5 164.304V169.64Z" fill="black"/>
<path d="M183 126.099C183 145.317 166.719 160.897 146.636 160.897C126.553 160.897 110.273 145.317 110.273 126.099C110.273 106.88 126.553 91.3001 146.636 91.3001C166.719 91.3001 183 106.88 183 126.099Z" fill="#3B4452"/>
<path d="M182 126.099C182 107.474 166.209 92.3001 146.636 92.3001C127.063 92.3003 111.273 107.474 111.273 126.099C111.273 144.724 127.064 159.897 146.636 159.897L146.636 160.897C126.867 160.897 110.782 145.8 110.284 126.996L110.273 126.099C110.273 106.88 126.553 91.3001 146.636 91.3001C166.719 91.3001 183 106.88 183 126.099L182.989 126.996C182.491 145.8 166.406 160.897 146.636 160.897L146.636 159.897C166.209 159.897 182 144.724 182 126.099Z" fill="black"/>
<path d="M144.635 151.154V145.938C143.166 145.691 141.858 145.325 140.823 144.928C140.14 144.665 139.291 144.268 138.487 143.805C137.728 143.368 136.8 142.754 136.131 142.011C135.324 141.114 134.584 139.99 134.04 139.049C133.762 138.567 133.516 138.099 133.321 137.688C133.155 137.336 132.944 136.855 132.84 136.411C132.526 135.067 133.361 133.722 134.705 133.408C136.049 133.094 137.394 133.929 137.708 135.273C137.681 135.158 137.687 135.224 137.842 135.552C137.969 135.821 138.15 136.167 138.37 136.548C138.823 137.331 139.363 138.128 139.848 138.666C139.98 138.813 140.357 139.112 140.982 139.472C141.564 139.807 142.179 140.092 142.615 140.26C143.923 140.762 146.053 141.258 148.386 141.255C150.674 141.252 152.976 140.769 154.885 139.54C156.264 137.79 156.728 136.019 156.592 134.467C156.452 132.877 155.669 131.323 154.228 130.079C154.053 129.928 153.626 129.667 152.793 129.326C151.998 129.001 151.015 128.673 149.861 128.314C147.627 127.62 144.759 126.816 142.147 125.801C139.559 124.794 136.829 123.44 134.939 121.43C132.897 119.258 131.916 116.387 132.861 112.915C133.684 109.894 135.84 107.853 138.342 106.628C140.254 105.691 142.441 105.186 144.635 105.021V101.044C144.635 99.663 145.754 98.5438 147.135 98.5438C148.515 98.5438 149.635 99.663 149.635 101.044V105.211C151.413 105.478 153.141 105.958 154.687 106.645C157.068 107.705 159.343 109.415 160.362 111.939C160.879 113.22 160.26 114.676 158.979 115.193C157.699 115.71 156.242 115.091 155.726 113.81C155.386 112.969 154.429 112.003 152.654 111.214C150.928 110.446 148.729 109.989 146.49 109.961C144.243 109.932 142.135 110.337 140.541 111.118C138.978 111.884 138.039 112.933 137.687 114.228C137.232 115.896 137.638 117.001 138.582 118.006C139.68 119.173 141.54 120.2 143.96 121.14C146.356 122.072 148.916 122.785 151.346 123.54C152.524 123.906 153.681 124.287 154.688 124.699C155.657 125.096 156.693 125.602 157.494 126.294C159.843 128.321 161.31 131.044 161.572 134.029C161.835 137.024 160.87 140.09 158.704 142.774C158.435 143.107 158.113 143.403 157.751 143.643C155.174 145.352 152.29 146.052 149.635 146.215V151.154C149.635 152.535 148.515 153.654 147.135 153.654C145.754 153.654 144.635 152.535 144.635 151.154Z" fill="#F0EFEB"/>
<path d="M116.669 17.5272H53.8125C52.8228 17.5272 51.982 18.2509 51.8347 19.2296L39.3457 102.226C39.1637 103.435 40.1004 104.523 41.3235 104.523H94.5518C95.2774 104.523 95.9454 104.128 96.3054 103.498C99.5766 97.7732 102.293 94.371 107.63 88.9806C107.928 88.679 108.126 88.2901 108.19 87.8707L118.646 19.8309C118.832 18.6195 117.895 17.5272 116.669 17.5272Z" fill="#F0EFEB"/>
<path d="M116.669 16.5272L116.84 16.532C118.594 16.6297 119.905 18.2227 119.635 19.9832L109.179 88.0223C109.082 88.6528 108.785 89.2347 108.34 89.6844C103.05 95.0276 100.392 98.3613 97.1738 103.994C96.6394 104.929 95.6435 105.523 94.5518 105.523H41.3232C39.4887 105.523 38.0835 103.891 38.3564 102.077L50.8457 19.0809C51.0666 17.6129 52.328 16.5272 53.8125 16.5272H116.669ZM53.7207 18.5311C53.2665 18.5726 52.8923 18.92 52.8232 19.3787L40.335 102.375C40.244 102.979 40.7118 103.523 41.3232 103.523H94.5518C94.9113 103.523 95.2519 103.327 95.4375 103.002C98.7611 97.185 101.536 93.7145 106.919 88.2772C107.071 88.1237 107.17 87.9269 107.202 87.7186L117.657 19.6795C117.744 19.1116 117.338 18.5952 116.782 18.533L116.669 18.5272H53.8125L53.7207 18.5311Z" fill="#F0EFEB"/>
<path d="M103.537 27.2708H61.7491C60.7874 27.2708 59.9618 27.9553 59.7837 28.9004L52.5375 67.3547C52.3055 68.586 53.2499 69.725 54.5029 69.725H96.9498C97.924 69.725 98.7565 69.023 98.921 68.0627L105.509 29.6085C105.718 28.3868 104.777 27.2708 103.537 27.2708Z" fill="#3B4452"/>
<path d="M103.537 26.7708C105.086 26.7708 106.262 28.1656 106.001 29.6927L99.4141 68.1468C99.2085 69.347 98.1678 70.2247 96.9502 70.2249H54.5029C52.9367 70.2249 51.7559 68.8012 52.0459 67.262L59.292 28.8079C59.5146 27.6266 60.5469 26.7709 61.749 26.7708H103.537ZM61.749 27.7708C61.0278 27.7709 60.409 28.2847 60.2754 28.9935L53.0293 67.4476C52.8554 68.371 53.5632 69.2249 54.5029 69.2249H96.9502C97.6807 69.2247 98.3044 68.6979 98.4277 67.9778L105.016 29.5237C105.172 28.6076 104.467 27.7708 103.537 27.7708H61.749Z" fill="#1D1D1C"/>
<path d="M60.8181 85.0366C60.8181 87.7273 58.8644 89.9084 56.4545 89.9084C54.0445 89.9084 52.0908 87.7273 52.0908 85.0366C52.0908 82.346 54.0445 80.1648 56.4545 80.1648C58.8644 80.1648 60.8181 82.346 60.8181 85.0366Z" fill="#EB9438"/>
<path d="M59.8184 85.0369C59.8184 82.7921 58.211 81.1648 56.4541 81.1648C54.6973 81.1651 53.0908 82.7923 53.0908 85.0369C53.091 87.2814 54.6974 88.9078 56.4541 88.908L56.4545 89.9084C54.1198 89.9082 52.2134 87.8611 52.0967 85.2869L52.0908 85.0366C52.0908 82.346 54.0445 80.1648 56.4545 80.1648C58.8644 80.1648 60.8181 82.346 60.8181 85.0366L60.8125 85.2869C60.6958 87.8612 58.7892 89.9084 56.4545 89.9084L56.4541 88.908C58.211 88.908 59.8182 87.2816 59.8184 85.0369Z" fill="black"/>
<path d="M76.8181 85.0366C76.8181 87.7273 74.8644 89.9084 72.4545 89.9084C70.0445 89.9084 68.0908 87.7273 68.0908 85.0366C68.0908 82.346 70.0445 80.1648 72.4545 80.1648C74.8644 80.1648 76.8181 82.346 76.8181 85.0366Z" fill="#EB9438"/>
<path d="M75.8184 85.0369C75.8184 82.7921 74.211 81.1648 72.4541 81.1648C70.6973 81.1651 69.0908 82.7923 69.0908 85.0369C69.091 87.2814 70.6974 88.9078 72.4541 88.908L72.4545 89.9084C70.1198 89.9082 68.2134 87.8611 68.0967 85.2869L68.0908 85.0366C68.0908 82.346 70.0445 80.1648 72.4545 80.1648C74.8644 80.1648 76.8181 82.346 76.8181 85.0366L76.8125 85.2869C76.6958 87.8612 74.7892 89.9084 72.4545 89.9084L72.4541 88.908C74.211 88.908 75.8182 87.2816 75.8184 85.0369Z" fill="black"/>
<path d="M91.3637 85.0366C91.3637 87.7273 89.4101 89.9084 87.0001 89.9084C84.5901 89.9084 82.6365 87.7273 82.6365 85.0366C82.6365 82.346 84.5901 80.1648 87.0001 80.1648C89.4101 80.1648 91.3637 82.346 91.3637 85.0366Z" fill="#EB9438"/>
<path d="M90.364 85.0369C90.364 82.7921 88.7567 81.1648 86.9998 81.1648C85.243 81.1651 83.6365 82.7923 83.6365 85.0369C83.6366 87.2814 85.243 88.9078 86.9998 88.908L87.0001 89.9084C84.6655 89.9082 82.759 87.8611 82.6423 85.2869L82.6365 85.0366C82.6365 82.346 84.5901 80.1648 87.0001 80.1648C89.4101 80.1648 91.3637 82.346 91.3637 85.0366L91.3582 85.2869C91.2415 87.8612 89.3349 89.9084 87.0001 89.9084L86.9998 88.908C88.7566 88.908 90.3639 87.2816 90.364 85.0369Z" fill="black"/>
</svg>
