<svg width="200" height="200" viewBox="0 0 200 200" fill="none" xmlns="http://www.w3.org/2000/svg">
<path d="M23 194V182.772C23 182.221 23.4449 181.774 23.9954 181.772L170.532 181.095C172.194 181.087 173.545 182.432 173.545 184.094V192C173.545 193.657 172.202 195 170.545 195H24C23.4477 195 23 194.552 23 194Z" fill="#3B4452"/>
<path d="M127 169.641V164.303C127 163.922 126.782 163.574 126.441 163.404C118.657 159.534 114.514 156.706 109.545 148.37C104.653 141.088 103.253 136.433 102.273 127.491C101.573 112.625 105.258 104.658 118.939 91.3597C118.979 91.3209 119.024 91.2837 119.07 91.2521C131.99 82.3538 139.423 80.7352 152.099 81.4877C152.682 81.5223 153.176 81.0576 153.169 80.4741L152.515 24.118C152.478 20.9567 150.583 18.1136 147.68 16.8632L138.255 12.8047C138.032 12.7087 137.852 12.5347 137.747 12.3153L136.735 10.184C135.233 7.0221 132.034 5.01785 128.534 5.04577L52.9779 5.6483C49.535 5.67576 46.6232 8.20285 46.1115 11.6076L31.7273 107.308L23.1567 169.505C23.0739 170.105 23.5408 170.641 24.1473 170.641H83.3636H126C126.552 170.641 127 170.193 127 169.641Z" fill="#3B4452"/>
<path d="M23 194V182.772C23 182.221 23.4449 181.774 23.9954 181.772L170.532 181.095C172.194 181.087 173.545 182.432 173.545 184.094V192C173.545 193.657 172.202 195 170.545 195H24C23.4477 195 23 194.552 23 194Z" stroke="black" stroke-linecap="round" stroke-linejoin="round"/>
<path d="M127 169.641V164.303C127 163.922 126.782 163.574 126.441 163.404C118.657 159.534 114.514 156.706 109.545 148.37C104.653 141.088 103.253 136.433 102.273 127.491C101.573 112.625 105.258 104.658 118.939 91.3597C118.979 91.3209 119.024 91.2837 119.07 91.2521C131.99 82.3538 139.423 80.7352 152.099 81.4877C152.682 81.5223 153.176 81.0576 153.169 80.4741L152.515 24.118C152.478 20.9567 150.583 18.1136 147.68 16.8632L138.255 12.8047C138.032 12.7087 137.852 12.5347 137.747 12.3153L136.735 10.184C135.233 7.0221 132.034 5.01785 128.534 5.04577L52.9779 5.6483C49.535 5.67576 46.6232 8.20285 46.1115 11.6076L31.7273 107.308L23.1567 169.505C23.0739 170.105 23.5408 170.641 24.1473 170.641H83.3636H126C126.552 170.641 127 170.193 127 169.641Z" stroke="black" stroke-linecap="round" stroke-linejoin="round"/>
<path d="M146.636 91.8003C166.464 91.8003 182.5 107.177 182.5 126.099C182.5 145.021 166.464 160.397 146.636 160.397C126.808 160.397 110.773 145.021 110.773 126.099C110.773 107.177 126.808 91.8005 146.636 91.8003Z" fill="#3B4452" stroke="black"/>
<path d="M158.044 112.875C155.327 106.144 137.625 104.937 135.274 113.571C132.475 123.852 151.956 124.817 155.861 128.187C159.652 131.458 160.361 136.74 156.758 141.205C156.648 141.342 156.516 141.463 156.37 141.56C151.456 144.818 144.886 143.81 141.719 142.594C140.6 142.164 138.791 141.23 137.989 140.339C136.698 138.904 135.427 136.499 135.274 135.842M147.135 101.044C147.135 101.044 147.135 105.561 147.135 107.478M147.135 143.715V151.154" stroke="#F0EFEB" stroke-width="5" stroke-linecap="round" stroke-linejoin="round"/>
<path d="M116.669 17.5273H53.8125C52.8228 17.5273 51.982 18.2511 51.8347 19.2297L39.3457 102.226C39.1637 103.436 40.1004 104.524 41.3235 104.524H94.5518C95.2774 104.524 95.9454 104.128 96.3054 103.498C99.5766 97.7734 102.293 94.3712 107.63 88.9808C107.928 88.6792 108.126 88.2903 108.19 87.8709L118.646 19.8311C118.832 18.6197 117.895 17.5273 116.669 17.5273Z" fill="#F0EFEB" stroke="#F0EFEB" stroke-width="2" stroke-linecap="round" stroke-linejoin="round"/>
<path d="M103.537 27.271H61.7491C60.7874 27.271 59.9618 27.9555 59.7837 28.9006L52.5375 67.3549C52.3055 68.5862 53.2499 69.7252 54.5029 69.7252H96.9497C97.924 69.7252 98.7565 69.0232 98.921 68.0629L105.509 29.6087C105.718 28.387 104.777 27.271 103.537 27.271Z" fill="#3B4452" stroke="#1D1D1C" stroke-linecap="round" stroke-linejoin="round"/>
<path d="M56.4541 80.665C58.5376 80.665 60.3184 82.5694 60.3184 85.0371C60.3182 87.5047 58.5375 89.4082 56.4541 89.4082C54.3709 89.408 52.591 87.5045 52.5908 85.0371C52.5908 82.5696 54.3708 80.6653 56.4541 80.665Z" fill="#EB9438" stroke="black"/>
<path d="M72.4541 80.665C74.5376 80.665 76.3184 82.5694 76.3184 85.0371C76.3182 87.5047 74.5375 89.4082 72.4541 89.4082C70.3709 89.408 68.591 87.5045 68.5908 85.0371C68.5908 82.5696 70.3708 80.6653 72.4541 80.665Z" fill="#EB9438" stroke="black"/>
<path d="M86.9998 80.665C89.0832 80.665 90.864 82.5694 90.864 85.0371C90.8639 87.5047 89.0831 89.4082 86.9998 89.4082C84.9165 89.408 83.1366 87.5045 83.1365 85.0371C83.1365 82.5696 84.9165 80.6653 86.9998 80.665Z" fill="#EB9438" stroke="black"/>
</svg>
