<svg width="177" height="201" viewBox="0 0 177 201" fill="none" xmlns="http://www.w3.org/2000/svg">
<path d="M48.0793 33.2554H78.6247C98.4926 34.0521 109.934 33.6893 130.261 33.2554C137.779 32.3261 138.043 30.5261 136.149 26.631C136.104 26.5376 136.042 26.4505 135.97 26.3759L119.563 9.41369C119.426 9.27127 119.332 9.08728 119.299 8.8919C118.312 3.04442 120.168 1.76485 124.066 0.31173C124.307 0.221634 124.575 0.230665 124.811 0.334519L157.785 14.8411C158.26 15.0499 158.496 15.5891 158.327 16.0796C154.683 26.66 151.627 32.8566 143.649 43.3904C143.464 43.6352 143.167 43.7844 142.86 43.7888C100.742 44.3972 76.8986 44.4152 34.7827 43.0468C34.4592 43.0363 34.1513 42.8645 33.9727 42.5946C25.2245 29.377 22.0972 23.1042 20.5888 15.2512C20.5001 14.7892 20.7535 14.3313 21.1889 14.1531L54.8577 0.374957C55.1666 0.248557 55.5199 0.284611 55.7944 0.474527C59.2034 2.83366 60.305 4.4313 59.7655 7.43266C59.735 7.60224 59.6562 7.75976 59.543 7.88972L46.6247 22.7291C40.5541 30.5094 39.9553 33.3245 48.0793 33.2554Z" fill="#98A2B3"/>
<path d="M123.978 0.0779565C124.282 -0.0352058 124.617 -0.0243808 124.912 0.1053L157.886 14.6121C158.48 14.8734 158.775 15.5476 158.564 16.161C154.911 26.7653 151.843 32.9853 143.848 43.5408C143.616 43.8476 143.246 44.0334 142.863 44.0389C100.743 44.6473 76.8954 44.6652 34.7749 43.2967C34.3706 43.2836 33.9875 43.0697 33.7642 42.7323C25.0133 29.5105 21.8616 23.203 20.3433 15.2987C20.2316 14.7174 20.5508 14.1441 21.0943 13.9217L54.7632 0.143386C55.149 -0.014394 55.592 0.0305744 55.937 0.269363C57.6456 1.45175 58.8127 2.466 59.4761 3.58479C60.1488 4.71937 60.2885 5.93503 60.0112 7.47737C59.9722 7.69393 59.8724 7.89203 59.7319 8.05354L46.813 22.8934C45.3011 24.8316 44.1372 26.452 43.3648 27.7908C42.5853 29.1419 42.2304 30.1651 42.2788 30.9198C42.3024 31.2875 42.4214 31.5908 42.6382 31.8446C42.8579 32.1017 43.1901 32.3219 43.6597 32.4998C44.6054 32.8583 46.0519 33.0229 48.0767 33.0057H78.6343C98.489 33.8019 109.923 33.4395 130.243 33.0057C132.109 32.7745 133.511 32.4908 134.538 32.1395C135.569 31.7864 136.192 31.3747 136.533 30.908C136.866 30.4514 136.955 29.9064 136.838 29.2205C136.721 28.5265 136.396 27.71 135.924 26.7401C135.891 26.6707 135.844 26.6054 135.791 26.5496L119.383 9.58772C119.211 9.40933 119.094 9.17905 119.052 8.93342C118.556 5.99214 118.76 4.12865 119.643 2.81428C120.521 1.50749 122.035 0.802538 123.978 0.0779565ZM124.71 0.563308C124.533 0.485282 124.333 0.478699 124.153 0.54573C122.199 1.27419 120.836 1.93565 120.058 3.09358C119.285 4.24413 119.055 5.94441 119.545 8.85042C119.57 8.99547 119.64 9.13366 119.743 9.24007L136.15 26.202C136.24 26.2953 136.317 26.4042 136.374 26.5213C136.849 27.4989 137.201 28.3686 137.332 29.1366C137.463 29.9127 137.372 30.6066 136.936 31.203C136.508 31.7893 135.773 32.2447 134.7 32.6121C133.624 32.9806 132.178 33.2706 130.292 33.5037L130.266 33.5057C109.944 33.9395 98.4952 34.3013 78.6245 33.5047L48.0796 33.5057C46.0435 33.5229 44.5187 33.3605 43.482 32.9676C42.9604 32.7699 42.5483 32.5082 42.2583 32.1688C41.9655 31.8259 41.8097 31.4179 41.7798 30.952C41.7212 30.039 42.1459 28.9036 42.9321 27.5408C43.724 26.1683 44.9081 24.5221 46.4273 22.575L46.4361 22.5643L59.354 7.72542C59.4395 7.62725 59.4971 7.5107 59.5191 7.3885C59.7813 5.9296 59.6408 4.84496 59.0454 3.84065C58.4407 2.82067 57.352 1.85704 55.6519 0.680496C55.4482 0.539551 55.1845 0.511493 54.9527 0.606277L21.2837 14.3846C20.9563 14.5186 20.7687 14.8611 20.8345 15.2039C22.333 23.0054 25.436 29.2437 34.1812 42.4569C34.315 42.6589 34.5482 42.7888 34.7905 42.7967C76.9014 44.1649 100.741 44.1472 142.856 43.5389C143.087 43.5356 143.311 43.4221 143.45 43.2391C151.411 32.7273 154.455 26.5543 158.091 15.9979C158.218 15.6307 158.041 15.2267 157.685 15.0701L124.71 0.563308Z" fill="#495468"/>
<path d="M10.261 181.616C10.261 179.407 12.0519 177.616 14.261 177.616H28.0792C30.2883 177.616 32.0792 179.407 32.0792 181.616V196.173C32.0792 198.382 30.2883 200.173 28.0792 200.173H14.261C12.0519 200.173 10.261 198.382 10.261 196.173V181.616Z" fill="#3B4452"/>
<path d="M142.624 181.616C142.624 179.407 144.415 177.616 146.624 177.616H160.442C162.652 177.616 164.442 179.407 164.442 181.616V196.173C164.442 198.382 162.652 200.173 160.442 200.173H146.624C144.415 200.173 142.624 198.382 142.624 196.173V181.616Z" fill="#3B4452"/>
<path d="M0.0791345 122.97C0.0791345 120.761 1.87 118.97 4.07913 118.97H172.079C174.288 118.97 176.079 120.761 176.079 122.97V182.639C176.079 184.848 174.288 186.639 172.079 186.639H4.07913C1.86999 186.639 0.0791345 184.848 0.0791345 182.639V122.97Z" fill="#556277"/>
<path d="M172.079 185.639V186.639H4.07913L4.07913 185.639H172.079ZM175.079 182.639V122.97C175.079 121.313 173.736 119.97 172.079 119.97H4.07913C2.42228 119.97 1.07913 121.313 1.07913 122.97V182.639C1.07913 184.296 2.42228 185.639 4.07913 185.639L4.07913 186.639L3.87308 186.634C1.7597 186.527 0.0791345 184.779 0.0791345 182.639V122.97C0.0791345 120.761 1.87 118.97 4.07913 118.97H172.079C174.288 118.97 176.079 120.761 176.079 122.97V182.639C176.079 184.779 174.399 186.527 172.285 186.634L172.079 186.639V185.639C173.736 185.639 175.079 184.296 175.079 182.639Z" fill="#495468"/>
<path d="M109.17 150.549C109.17 162.176 100.053 171.601 88.8066 171.601C77.5601 171.601 68.443 162.176 68.443 150.549C68.443 138.922 77.5601 129.496 88.8066 129.496C100.053 129.496 109.17 138.922 109.17 150.549Z" fill="#FEAC44"/>
<path d="M108.171 150.549C108.171 139.442 99.4694 130.496 88.8063 130.496C78.1433 130.496 69.443 139.442 69.443 150.549C69.443 161.655 78.1433 170.601 88.8063 170.601L88.8066 171.601L88.2809 171.595C77.4519 171.311 68.724 162.287 68.4498 151.092L68.443 150.549C68.443 138.922 77.5601 129.496 88.8066 129.496C100.053 129.496 109.17 138.922 109.17 150.549L109.164 151.092C108.885 162.468 99.8775 171.601 88.8066 171.601L88.8063 170.601C99.4694 170.601 108.17 161.655 108.171 150.549Z" fill="#E8881C"/>
<path d="M86.3067 158.068V137.015C86.3067 135.634 87.426 134.515 88.8067 134.515C90.1875 134.515 91.3067 135.634 91.3067 137.015V158.068C91.3067 159.448 90.1874 160.568 88.8067 160.568C87.4261 160.568 86.3068 159.448 86.3067 158.068Z" fill="#E8881C"/>
<path d="M174.645 122.735L1.50576 123.475C0.8121 123.478 0.326196 122.791 0.560011 122.137L15.4547 80.5346C15.597 80.137 15.9738 79.8716 16.3962 79.8716H159.385C159.802 79.8716 160.176 80.1309 160.322 80.5219L175.578 121.385C175.821 122.037 175.341 122.732 174.645 122.735Z" fill="#8F98AA"/>
<path d="M159.385 79.3716C160.011 79.3716 160.571 79.7607 160.79 80.3472L176.046 121.211C176.411 122.188 175.691 123.23 174.647 123.235L1.50785 123.974C0.46753 123.979 -0.261455 122.949 0.0889001 121.969L14.9844 80.3658C15.198 79.7696 15.7632 79.3716 16.3965 79.3716H159.385ZM16.3965 80.3716C16.1855 80.3716 15.9971 80.5042 15.9258 80.7027L1.03031 122.306C0.913663 122.633 1.15721 122.976 1.50394 122.974L174.643 122.235C174.99 122.233 175.231 121.886 175.109 121.56L159.854 80.6968C159.781 80.5013 159.593 80.3716 159.385 80.3716H16.3965Z" fill="#495468"/>
<path d="M59.7152 93.9017C59.7152 92.7972 60.6106 91.9017 61.7152 91.9017H115.897C117.002 91.9017 117.897 92.7972 117.897 93.9017V106.443C117.897 107.548 117.002 108.443 115.897 108.443H61.7152C60.6106 108.443 59.7152 107.548 59.7152 106.443V93.9017Z" fill="#495468"/>
<path d="M59.7152 86.3833C59.7152 85.2788 60.6106 84.3833 61.7152 84.3833H115.897C117.002 84.3833 117.897 85.2788 117.897 86.3833V98.9247C117.897 100.029 117.002 100.925 115.897 100.925H61.7152C60.6106 100.925 59.7152 100.029 59.7152 98.9247V86.3833Z" fill="#6B798B"/>
<path d="M115.897 99.9244L115.897 100.925H61.7152V99.9244H115.897ZM116.897 98.9244V86.3833C116.897 85.8311 116.449 85.3833 115.897 85.3833H61.7152C61.1629 85.3833 60.7152 85.8311 60.7152 86.3833V98.9244C60.7152 99.4766 61.1629 99.9244 61.7152 99.9244V100.925C60.6106 100.925 59.7152 100.029 59.7152 98.9247V86.3833C59.7152 85.3477 60.5024 84.4964 61.5111 84.3941L61.7152 84.3833H115.897C117.002 84.3833 117.897 85.2788 117.897 86.3833V98.9247C117.897 100.029 117.002 100.925 115.897 100.925L115.897 99.9244C116.449 99.9244 116.897 99.4766 116.897 98.9244Z" fill="#495568"/>
<path d="M123.715 43.7816C123.715 52.0866 108.086 58.8192 88.8063 58.8192C69.5265 58.8192 53.8972 52.0866 53.8972 43.7816C53.8972 35.4766 69.5265 28.744 88.8063 28.744C108.086 28.744 123.715 35.4766 123.715 43.7816Z" fill="#6F7D8F"/>
<path d="M123.715 39.2705C123.715 47.5755 108.086 54.308 88.8063 54.308C69.5265 54.308 53.8972 47.5755 53.8972 39.2705C53.8972 30.9654 69.5265 24.2329 88.8063 24.2329C108.086 24.2329 123.715 30.9654 123.715 39.2705Z" fill="#99A4B6"/>
<path d="M122.715 39.27C122.715 37.5302 121.901 35.7903 120.258 34.1176C118.612 32.4405 116.179 30.8846 113.095 29.5561C106.93 26.9004 98.3434 25.2329 88.8063 25.2329C79.2692 25.2329 70.6823 26.9004 64.5173 29.5561C61.4333 30.8846 59.001 32.4405 57.3542 34.1176C55.7119 35.7903 54.8974 37.5302 54.8972 39.27C54.8972 41.0099 55.7117 42.7505 57.3542 44.4233C59.001 46.1004 61.4333 47.6563 64.5173 48.9848C70.6823 51.6405 79.2692 53.308 88.8063 53.308V54.308L87.9049 54.3032C69.0418 54.0972 53.8972 47.4457 53.8972 39.2705C53.8972 30.9654 69.5265 24.2329 88.8063 24.2329L89.7077 24.2378C108.57 24.4437 123.715 31.0955 123.715 39.2705L123.704 39.6586C123.226 47.7842 107.785 54.308 88.8063 54.308V53.308C98.3434 53.308 106.93 51.6405 113.095 48.9848C116.179 47.6563 118.612 46.1004 120.258 44.4233C121.901 42.7505 122.715 41.0099 122.715 39.27Z" fill="#495468"/>
<path d="M46.6246 60.3228H77.1701C97.038 61.1196 108.479 60.7567 128.806 60.3228C136.324 59.3935 136.588 57.5935 134.694 53.6984C134.649 53.605 134.588 53.5179 134.516 53.4433L118.109 36.4811C117.971 36.3387 117.877 36.1547 117.844 35.9593C116.857 30.1118 118.713 28.8323 122.611 27.3792C122.853 27.2891 123.12 27.2981 123.356 27.4019L156.331 41.9085C156.806 42.1174 157.042 42.6566 156.873 43.147C153.228 53.7274 150.172 59.924 142.194 70.4578C142.009 70.7027 141.712 70.8518 141.405 70.8562C99.2872 71.4646 75.4439 71.4826 33.328 70.1142C33.0046 70.1037 32.6966 69.9319 32.518 69.6621C23.7699 56.4444 20.6426 50.1717 19.1342 42.3187C19.0454 41.8566 19.2988 41.3987 19.7343 41.2205L53.4031 27.4424C53.7119 27.316 54.0653 27.352 54.3397 27.542C57.7488 29.9011 58.8504 31.4987 58.3108 34.5001C58.2803 34.6697 58.2015 34.8272 58.0884 34.9571L45.1701 49.7965C39.0995 57.5769 38.5007 60.3919 46.6246 60.3228Z" fill="#98A2B3"/>
<path d="M122.523 27.1454C122.827 27.0322 123.162 27.043 123.457 27.1727L156.432 41.6796C157.025 41.9408 157.321 42.615 157.109 43.2284C153.456 53.8327 150.388 60.0527 142.394 70.6083C142.161 70.915 141.792 71.1008 141.408 71.1063C99.2881 71.7147 75.4408 71.7326 33.3203 70.3641C32.916 70.351 32.5329 70.1371 32.3095 69.7997C23.5587 56.5779 20.4069 50.2705 18.8886 42.3661C18.777 41.7849 19.0962 41.2115 19.6396 40.9891L53.3086 27.2108C53.6943 27.053 54.1373 27.098 54.4824 27.3368C56.1909 28.5192 57.3581 29.5334 58.0215 30.6522C58.6941 31.7868 58.8339 33.0025 58.5566 34.5448C58.5176 34.7614 58.4178 34.9595 58.2773 35.121L45.3584 49.9608C43.8465 51.899 42.6825 53.5194 41.9101 54.8583C41.1307 56.2093 40.7758 57.2326 40.8242 57.9872C40.8478 58.3549 40.9668 58.6582 41.1836 58.912C41.4032 59.1691 41.7355 59.3893 42.205 59.5673C43.1508 59.9257 44.5973 60.0903 46.622 60.0731H77.1797C97.0344 60.8694 108.468 60.5069 128.788 60.0731C130.654 59.8419 132.057 59.5582 133.083 59.2069C134.114 58.8538 134.737 58.4421 135.078 57.9755C135.411 57.5188 135.5 56.9738 135.384 56.288C135.266 55.5939 134.941 54.7774 134.47 53.8075C134.436 53.7381 134.39 53.6728 134.336 53.6171L117.929 36.6552C117.756 36.4768 117.639 36.2465 117.598 36.0009C117.101 33.0596 117.306 31.1961 118.188 29.8817C119.066 28.5749 120.58 27.87 122.523 27.1454ZM123.256 27.6307C123.078 27.5527 122.878 27.5461 122.698 27.6132C120.744 28.3416 119.381 29.0031 118.603 30.161C117.831 31.3116 117.6 33.0118 118.091 35.9178C118.115 36.0629 118.185 36.2011 118.288 36.3075L134.695 53.2694C134.786 53.3628 134.862 53.4716 134.919 53.5887C135.394 54.5663 135.747 55.4361 135.877 56.204C136.009 56.9801 135.917 57.674 135.481 58.2704C135.053 58.8567 134.318 59.3121 133.245 59.6796C132.169 60.048 130.723 60.338 128.837 60.5712L128.811 60.5731C108.489 61.0069 97.0406 61.3687 77.1699 60.5721L46.625 60.5731C44.5889 60.5903 43.0641 60.428 42.0273 60.035C41.5057 59.8373 41.0937 59.5756 40.8037 59.2362C40.5108 58.8934 40.3551 58.4854 40.3252 58.0194C40.2666 57.1064 40.6913 55.971 41.4775 54.6083C42.2694 53.2357 43.4534 51.5896 44.9726 49.6425L44.9814 49.6317L57.8994 34.7928C57.9848 34.6947 58.0424 34.5781 58.0644 34.4559C58.3267 32.997 58.1862 31.9124 57.5908 30.9081C56.986 29.8881 55.8974 28.9245 54.1972 27.7479C53.9936 27.607 53.7299 27.5789 53.498 27.6737L19.8291 41.452C19.5017 41.586 19.3141 41.9286 19.3799 42.2714C20.8783 50.0728 23.9814 56.3112 32.7265 69.5243C32.8603 69.7264 33.0935 69.8562 33.3359 69.8641C75.4468 71.2323 99.2862 71.2147 141.401 70.6063C141.632 70.603 141.856 70.4895 141.995 70.3065C149.956 59.7948 153 53.6217 156.637 43.0653C156.763 42.6981 156.586 42.2941 156.23 42.1376L123.256 27.6307Z" fill="#495468"/>
<path d="M78.6249 58.0679C86.295 59.0128 90.5944 59.0472 98.2612 58.0679L98.9885 93.4062C91.0373 96.9284 86.5759 96.4022 78.6249 93.4062V58.0679Z" fill="#495568"/>
<path d="M74.2614 30.9998C74.2614 31.4151 73.6101 31.7517 72.8068 31.7517C72.0035 31.7517 71.3523 31.4151 71.3523 30.9998C71.3523 30.5846 72.0035 30.2479 72.8068 30.2479C73.6101 30.2479 74.2614 30.5846 74.2614 30.9998Z" fill="#495468"/>
<path d="M103.352 30.9998C103.352 31.4151 102.701 31.7517 101.897 31.7517C101.094 31.7517 100.443 31.4151 100.443 30.9998C100.443 30.5846 101.094 30.2479 101.897 30.2479C102.701 30.2479 103.352 30.5846 103.352 30.9998Z" fill="#495468"/>
<path d="M114.988 37.0149C114.988 37.4301 114.337 37.7667 113.534 37.7667C112.73 37.7667 112.079 37.4301 112.079 37.0149C112.079 36.5996 112.73 36.263 113.534 36.263C114.337 36.263 114.988 36.5996 114.988 37.0149Z" fill="#495468"/>
<path d="M106.261 46.0371C106.261 46.4524 105.61 46.789 104.806 46.789C104.003 46.789 103.352 46.4524 103.352 46.0371C103.352 45.6219 104.003 45.2853 104.806 45.2853C105.61 45.2853 106.261 45.6219 106.261 46.0371Z" fill="#495468"/>
<path d="M87.3519 29.4959C87.3519 29.9111 86.7007 30.2478 85.8974 30.2478C85.0941 30.2478 84.4428 29.9111 84.4428 29.4959C84.4428 29.0806 85.0941 28.744 85.8974 28.744C86.7007 28.744 87.3519 29.0806 87.3519 29.4959Z" fill="#495468"/>
<path d="M75.7154 46.0371C75.7154 46.4524 75.0642 46.789 74.2609 46.789C73.4576 46.789 72.8063 46.4524 72.8063 46.0371C72.8063 45.6219 73.4576 45.2853 74.2609 45.2853C75.0642 45.2853 75.7154 45.6219 75.7154 46.0371Z" fill="#495468"/>
<path d="M62.6243 40.0221C62.6243 40.4373 61.973 40.774 61.1697 40.774C60.3664 40.774 59.7152 40.4373 59.7152 40.0221C59.7152 39.6068 60.3664 39.2702 61.1697 39.2702C61.973 39.2702 62.6243 39.6068 62.6243 40.0221Z" fill="#495468"/>
<path d="M90.2606 47.541C90.2606 47.9563 89.6094 48.2929 88.8061 48.2929C88.0028 48.2929 87.3515 47.9563 87.3515 47.541C87.3515 47.1258 88.0028 46.7892 88.8061 46.7892C89.6094 46.7892 90.2606 47.1258 90.2606 47.541Z" fill="#495468"/>
</svg>
