<svg width="200" height="200" viewBox="0 0 200 200" fill="none" xmlns="http://www.w3.org/2000/svg">
<path d="M65.9092 43.1203H91.9422C108.875 43.7976 118.626 43.4891 135.951 43.1203C142.344 42.3321 142.581 40.8069 140.979 37.5108C140.934 37.4174 140.872 37.3304 140.8 37.2559L126.865 22.8877C126.727 22.7452 126.633 22.5618 126.6 22.3661C125.781 17.4618 127.341 16.3618 130.615 15.1388C130.856 15.0487 131.123 15.0577 131.359 15.161L159.283 27.4129C159.759 27.6216 159.996 28.16 159.826 28.6509C156.746 37.546 154.138 42.8019 147.404 51.6777C147.219 51.922 146.923 52.0703 146.616 52.0748C110.79 52.5905 90.4759 52.6053 54.653 51.4455C54.33 51.435 54.0228 51.2641 53.8442 50.9948C46.4653 39.8708 43.7951 34.5435 42.5032 27.9369C42.4128 27.4747 42.6668 27.0158 43.1028 26.8378L71.6144 15.2013C71.9226 15.0755 72.2754 15.1113 72.5489 15.3011C75.3893 17.272 76.316 18.6249 75.8759 21.1324C75.8461 21.3023 75.7669 21.4593 75.6534 21.5893L64.6695 34.1729C59.4957 40.7863 58.9854 43.1791 65.9092 43.1203Z" fill="#98A2B3" stroke="#495468" stroke-width="0.5" stroke-linecap="round"/>
<rect x="33.6777" y="165.827" width="18.595" height="19.1729" rx="4" fill="#3B4452"/>
<rect x="146.487" y="165.827" width="18.595" height="19.1729" rx="4" fill="#3B4452"/>
<rect x="25.5" y="116.478" width="149" height="56.5188" rx="3.5" fill="#556277" stroke="#495468"/>
<path d="M100.62 125.425C109.914 125.425 117.475 133.198 117.475 142.819C117.475 152.441 109.914 160.214 100.62 160.214C91.3252 160.214 83.7644 152.441 83.7644 142.819C83.7645 133.198 91.3253 125.425 100.62 125.425Z" fill="#FEAC44" stroke="#E8881C"/>
<path d="M100.62 131.316V149.211" stroke="#E8881C" stroke-width="5" stroke-linecap="round"/>
<path d="M173.564 119.179L26.4279 119.806C25.7339 119.809 25.248 119.121 25.4824 118.468L38.0688 83.4063C38.2113 83.0091 38.5879 82.7441 39.01 82.7441H160.67C161.087 82.7441 161.461 83.003 161.607 83.3936L174.497 117.828C174.741 118.48 174.261 119.176 173.564 119.179Z" fill="#8F98AA" stroke="#495468" stroke-linecap="round"/>
<rect x="75.8264" y="92.9697" width="49.5868" height="14.0602" rx="2" fill="#495468"/>
<rect x="76.3264" y="87.0791" width="48.5868" height="13.0602" rx="1.5" fill="#6B798B" stroke="#495568"/>
<ellipse cx="100.62" cy="52.0676" rx="29.7521" ry="12.782" fill="#6F7D8F"/>
<path d="M100.62 35.9512C108.784 35.9512 116.152 37.3739 121.46 39.6543C124.115 40.7948 126.232 42.1401 127.677 43.6084C129.121 45.0746 129.872 46.6372 129.872 48.2334C129.871 49.8295 129.121 51.3913 127.677 52.8574C126.232 54.3258 124.115 55.671 121.46 56.8115C116.152 59.0919 108.784 60.5146 100.62 60.5146C92.4551 60.5146 85.0868 59.0919 79.7788 56.8115C77.1241 55.671 75.0076 54.3257 73.562 52.8574C72.1187 51.3913 71.3678 49.8294 71.3677 48.2334C71.3677 46.6372 72.1185 45.0746 73.562 43.6084C75.0076 42.1401 77.1241 40.7948 79.7788 39.6543C85.0868 37.3739 92.4551 35.9512 100.62 35.9512Z" fill="#99A4B6" stroke="#495468"/>
<path d="M64.6694 66.1276H90.7025C107.635 66.8049 117.387 66.4964 134.711 66.1276C141.104 65.3394 141.342 63.8143 139.739 60.5182C139.694 60.4247 139.633 60.3378 139.56 60.2632L125.625 45.895C125.487 45.7526 125.393 45.5692 125.36 45.3734C124.541 40.4692 126.101 39.3691 129.375 38.1461C129.616 38.0561 129.884 38.065 130.119 38.1684L158.043 50.4202C158.519 50.6289 158.756 51.1673 158.586 51.6582C155.506 60.5534 152.899 65.8093 146.165 74.685C145.979 74.9294 145.683 75.0777 145.376 75.0821C109.551 75.5978 89.2362 75.6126 53.4133 74.4528C53.0903 74.4423 52.7831 74.2714 52.6044 74.0021C45.2256 62.8782 42.5554 57.5508 41.2634 50.9443C41.173 50.482 41.427 50.0231 41.8631 49.8452L70.3746 38.2086C70.6829 38.0828 71.0356 38.1186 71.3092 38.3084C74.1496 40.2793 75.0763 41.6323 74.6362 44.1397C74.6063 44.3097 74.5272 44.4666 74.4137 44.5966L63.4298 57.1803C58.256 63.7936 57.7456 66.1864 64.6694 66.1276Z" fill="#98A2B3" stroke="#495468" stroke-width="0.5" stroke-linecap="round"/>
<path d="M91.9424 64.2109C98.4794 65.0141 102.144 65.0434 108.678 64.2109L109.298 94.2485C102.521 97.2424 98.7188 96.7951 91.9424 94.2485V64.2109Z" fill="#495568"/>
<ellipse cx="86.9838" cy="41.2031" rx="1.23967" ry="0.639098" fill="#495468"/>
<ellipse cx="111.777" cy="41.2031" rx="1.23967" ry="0.639098" fill="#495468"/>
<ellipse cx="121.694" cy="46.3159" rx="1.23967" ry="0.639098" fill="#495468"/>
<ellipse cx="114.256" cy="53.9848" rx="1.23967" ry="0.639098" fill="#495468"/>
<ellipse cx="98.1405" cy="39.9247" rx="1.23967" ry="0.639098" fill="#495468"/>
<ellipse cx="88.2231" cy="53.9848" rx="1.23967" ry="0.639098" fill="#495468"/>
<ellipse cx="77.0661" cy="48.872" rx="1.23967" ry="0.639098" fill="#495468"/>
<ellipse cx="100.62" cy="55.2631" rx="1.23967" ry="0.639098" fill="#495468"/>
</svg>
