<svg width="200" height="200" viewBox="0 0 200 200" fill="none" xmlns="http://www.w3.org/2000/svg">
<path d="M157 195H29C28.4477 195 28 194.552 28 194V180.976V164.182C28 163.63 28.4477 163.182 29 163.182H157C157.552 163.182 158 163.63 158 164.182V194C158 194.552 157.552 195 157 195Z" fill="#556277"/>
<path d="M36.6607 154.091H148.904C149.456 154.091 149.904 153.643 149.904 153.091V57.3547C149.904 57.2377 149.883 57.1192 149.842 57.0095C147.687 51.1961 145.404 49.5273 140.09 48.6496C140.037 48.6409 139.982 48.6364 139.928 48.6364H109.525C108.972 48.6364 108.525 48.1886 108.525 47.6364V39.6364C108.525 39.0841 108.972 38.6364 109.525 38.6364H130.928C130.985 38.6364 131.043 38.6314 131.099 38.6215C134.511 38.0181 135.83 36.7583 137.236 33.364C137.285 33.2448 137.31 33.1155 137.31 32.9865V9.74077C137.31 9.61178 137.286 9.48325 137.235 9.36464C136.276 7.12063 134.954 6.22841 132.092 5.07207C131.975 5.02449 131.848 5 131.721 5H68.1264C68.072 5 68.0168 5.00451 67.9631 5.01365C65.1523 5.49221 63.814 6.55432 61.9217 9.2916C61.8078 9.45634 61.7478 9.65253 61.7478 9.85281V32.9536C61.7478 33.1038 61.7823 33.2538 61.8481 33.3889C63.6983 37.1864 65.0008 38.5704 68.0447 38.6364H90.433C90.9853 38.6364 91.433 39.0841 91.433 39.6364V47.6364C91.433 48.1886 90.9853 48.6364 90.433 48.6364H60.8482C55.4021 48.501 53.1176 50.2773 50.1177 55.7909C50.0756 55.8682 50.0433 55.9525 50.0231 56.0381L35.6875 116.705C35.6697 116.78 35.6607 116.857 35.6607 116.935V153.091C35.6607 153.643 36.1085 154.091 36.6607 154.091Z" fill="#556277"/>
<path d="M157 195H29C28.4477 195 28 194.552 28 194V180.976V164.182C28 163.63 28.4477 163.182 29 163.182H157C157.552 163.182 158 163.63 158 164.182V194C158 194.552 157.552 195 157 195Z" stroke="#1E1E1E" stroke-linejoin="round"/>
<path d="M36.6607 154.091H148.904C149.456 154.091 149.904 153.643 149.904 153.091V57.3547C149.904 57.2377 149.883 57.1192 149.842 57.0095C147.687 51.1961 145.404 49.5273 140.09 48.6496C140.037 48.6409 139.982 48.6364 139.928 48.6364H109.525C108.972 48.6364 108.525 48.1886 108.525 47.6364V39.6364C108.525 39.0841 108.972 38.6364 109.525 38.6364H130.928C130.985 38.6364 131.043 38.6314 131.099 38.6215C134.511 38.0181 135.83 36.7583 137.236 33.364C137.285 33.2448 137.31 33.1155 137.31 32.9865V9.74077C137.31 9.61178 137.286 9.48325 137.235 9.36464C136.276 7.12063 134.954 6.22841 132.092 5.07207C131.975 5.02449 131.848 5 131.721 5H68.1264C68.072 5 68.0168 5.00451 67.9631 5.01365C65.1523 5.49221 63.814 6.55432 61.9217 9.2916C61.8078 9.45634 61.7478 9.65253 61.7478 9.85281V32.9536C61.7478 33.1038 61.7823 33.2538 61.8481 33.3889C63.6983 37.1864 65.0008 38.5704 68.0447 38.6364H90.433C90.9853 38.6364 91.433 39.0841 91.433 39.6364V47.6364C91.433 48.1886 90.9853 48.6364 90.433 48.6364H60.8482C55.4021 48.501 53.1176 50.2773 50.1177 55.7909C50.0756 55.8682 50.0433 55.9525 50.0231 56.0381L35.6875 116.705C35.6697 116.78 35.6607 116.857 35.6607 116.935V153.091C35.6607 153.643 36.1085 154.091 36.6607 154.091Z" stroke="#1E1E1E" stroke-linejoin="round"/>
<path d="M131.119 66.8188H68.4268C67.9656 66.8188 67.5642 67.1343 67.4551 67.5824L56.8828 111.037C56.7297 111.667 57.2065 112.273 57.8545 112.273H119.939C120.396 112.273 120.794 111.964 120.908 111.523L132.087 68.068C132.25 67.4352 131.772 66.8188 131.119 66.8188Z" fill="#FFEDD0" stroke="black" stroke-linejoin="round"/>
<path d="M61.9795 132.776C64.679 132.776 66.8767 134.989 66.877 137.73C66.877 140.472 64.6792 142.685 61.9795 142.686C59.2797 142.686 57.082 140.472 57.082 137.73C57.0823 134.989 59.2799 132.776 61.9795 132.776Z" fill="#F79542" stroke="#EEEDE9"/>
<path d="M87.167 132.776C89.8665 132.776 92.0642 134.989 92.0645 137.73C92.0645 140.472 89.8667 142.685 87.167 142.686C84.4672 142.686 82.2695 140.472 82.2695 137.73C82.2698 134.989 84.4674 132.776 87.167 132.776Z" fill="#F79542" stroke="#EEEDE9"/>
<path d="M110.557 132.776C113.256 132.776 115.454 134.989 115.454 137.73C115.454 140.472 113.256 142.685 110.557 142.686C107.857 142.686 105.659 140.472 105.659 137.73C105.659 134.989 107.857 132.776 110.557 132.776Z" fill="#F79542" stroke="#EEEDE9"/>
</svg>
