<svg width="200" height="200" viewBox="0 0 200 200" fill="none" xmlns="http://www.w3.org/2000/svg">
<rect x="30.5" y="50.6909" width="139" height="112.359" fill="#8F98AA" stroke="#161717"/>
<path d="M33 88.4771H167C168.381 88.4771 169.5 89.5963 169.5 90.9771V172C169.5 173.38 168.381 174.5 167 174.5H33C31.6193 174.5 30.5 173.38 30.5 172V90.9771C30.5 89.5963 31.6193 88.4771 33 88.4771Z" fill="#8F98AA" stroke="#161717"/>
<path d="M169.799 50.1908H30.1938C30.1125 50.1908 30.0652 50.0991 30.1123 50.0329L47.8771 25.0421C47.8958 25.0157 47.9262 25 47.9586 25H150.958C150.989 25 151.019 25.0147 151.038 25.0398L169.879 50.0306C169.929 50.0965 169.882 50.1908 169.799 50.1908Z" fill="#98A2B3" stroke="#161717"/>
<rect x="54.5625" y="113.668" width="90.875" height="35.6412" rx="3.5" fill="#556277" stroke="#161717"/>
<rect x="46.9062" y="99.9272" width="105.094" height="5.87023" rx="2.93511" fill="#FBF2E2" stroke="#161717"/>
<path d="M46.4062 60.9961C50.9412 60.9961 54.6562 64.8515 54.6562 69.6562C54.6562 74.461 50.9413 78.3164 46.4062 78.3164C41.8712 78.3164 38.1562 74.461 38.1562 69.6562C38.1563 64.8515 41.8713 60.9961 46.4062 60.9961Z" fill="#F4EADA" stroke="#161717"/>
<path d="M82.5 60.9961C87.035 60.9961 90.7499 64.8515 90.75 69.6562C90.75 74.461 87.035 78.3164 82.5 78.3164C77.965 78.3164 74.25 74.461 74.25 69.6562C74.2501 64.8515 77.965 60.9961 82.5 60.9961Z" fill="#F4EADA" stroke="#161717"/>
<path d="M117.5 60.9961C122.035 60.9961 125.75 64.8515 125.75 69.6562C125.75 74.461 122.035 78.3164 117.5 78.3164C112.965 78.3164 109.25 74.461 109.25 69.6562C109.25 64.8515 112.965 60.9961 117.5 60.9961Z" fill="#F4EADA" stroke="#161717"/>
<path d="M152.5 60.9961C157.035 60.9961 160.75 64.8515 160.75 69.6562C160.75 74.461 157.035 78.3164 152.5 78.3164C147.965 78.3164 144.25 74.461 144.25 69.6562C144.25 64.8515 147.965 60.9961 152.5 60.9961Z" fill="#F4EADA" stroke="#161717"/>
<path d="M73.75 31.2251C79.1458 31.2251 84.0098 31.9891 87.5068 33.2095C89.2575 33.8204 90.6386 34.5368 91.5723 35.3071C92.5091 36.0801 92.9375 36.8558 92.9375 37.5952C92.9375 38.3347 92.5093 39.1112 91.5723 39.8843C90.6387 40.6545 89.2574 41.37 87.5068 41.981C84.0098 43.2013 79.1458 43.9653 73.75 43.9653C68.3542 43.9653 63.4902 43.2013 59.9932 41.981C58.2426 41.37 56.8613 40.6545 55.9277 39.8843C54.9907 39.1112 54.5625 38.3347 54.5625 37.5952C54.5625 36.8558 54.9909 36.0801 55.9277 35.3071C56.8614 34.5368 58.2425 33.8204 59.9932 33.2095C63.4902 31.9891 68.3542 31.2251 73.75 31.2251Z" fill="#4A565D" stroke="#161717"/>
<path d="M128.438 31.2251C133.833 31.2251 138.697 31.9891 142.194 33.2095C143.945 33.8204 145.326 34.5368 146.26 35.3071C147.197 36.0801 147.625 36.8558 147.625 37.5952C147.625 38.3347 147.197 39.1112 146.26 39.8843C145.326 40.6545 143.945 41.37 142.194 41.981C138.697 43.2013 133.833 43.9653 128.438 43.9653C123.042 43.9653 118.178 43.2013 114.681 41.981C112.93 41.37 111.549 40.6545 110.615 39.8843C109.678 39.1112 109.25 38.3347 109.25 37.5952C109.25 36.8558 109.678 36.0801 110.615 35.3071C111.549 34.5368 112.93 33.8204 114.681 33.2095C118.178 31.9891 123.042 31.2251 128.438 31.2251Z" fill="#4A565D" stroke="#161717"/>
</svg>
