<svg width="188" height="201" viewBox="0 0 188 201" fill="none" xmlns="http://www.w3.org/2000/svg">
<path d="M0.407139 34.0879H187.407V185.233H0.407139V34.0879Z" fill="#8F98AA"/>
<path d="M187.407 34.0879V185.233H0.407139V34.0879H187.407ZM1.40714 184.233H186.407V35.0879H1.40714V184.233Z" fill="#161717"/>
<path d="M0.407139 87.4694C0.407139 85.8126 1.75028 84.4694 3.40714 84.4694H184.407C186.064 84.4694 187.407 85.8126 187.407 87.4694V197.5C187.407 199.157 186.064 200.5 184.407 200.5H3.40714C1.75028 200.5 0.407139 199.157 0.407139 197.5V87.4694Z" fill="#8F98AA"/>
<path d="M184.407 199.5V200.5H3.40714L3.40714 199.5H184.407ZM186.407 197.5V87.4694C186.407 86.3649 185.512 85.4694 184.407 85.4694H3.40714C2.30257 85.4694 1.40714 86.3649 1.40714 87.4694V197.5C1.40714 198.604 2.30257 199.5 3.40714 199.5L3.40714 200.5L3.25284 200.496C1.6677 200.415 0.407139 199.105 0.407139 197.5V87.4694C0.407139 85.8643 1.66769 84.5536 3.25284 84.4733L3.40714 84.4694H184.407C186.064 84.4694 187.407 85.8126 187.407 87.4694V197.5C187.407 199.157 186.064 200.5 184.407 200.5V199.5C185.512 199.5 186.407 198.604 186.407 197.5Z" fill="#161717"/>
<path d="M187.206 34.0878H0.601116C0.519844 34.0878 0.472516 33.996 0.519659 33.9298L24.2958 0.541993C24.3146 0.515645 24.345 0.5 24.3773 0.5H161.989C162.021 0.5 162.05 0.514709 162.069 0.539731L187.286 33.9275C187.336 33.9934 187.289 34.0878 187.206 34.0878Z" fill="#98A2B3"/>
<path d="M161.989 0C162.154 8.34843e-06 162.31 0.0672115 162.423 0.18457L162.468 0.238281L187.685 33.626C187.984 34.0213 187.701 34.5879 187.206 34.5879H0.601475C0.113843 34.5879 -0.170633 34.0368 0.112217 33.6396L23.8886 0.251953L23.9335 0.195312C24.0463 0.0715532 24.2072 0.000122571 24.3769 0H161.989ZM1.37687 33.5879H186.403L161.79 1H24.5839L1.37687 33.5879Z" fill="#161717"/>
<path d="M32.5478 122.057C32.5478 119.848 34.3386 118.057 36.5478 118.057H151.267C153.476 118.057 155.267 119.848 155.267 122.057V162.912C155.267 165.121 153.476 166.912 151.267 166.912H36.5478C34.3386 166.912 32.5478 165.121 32.5478 162.912V122.057Z" fill="#556277"/>
<path d="M151.267 165.912V166.912H36.5478V165.912H151.267ZM154.267 162.912V122.057C154.267 120.4 152.923 119.057 151.267 119.057H36.5478C34.8909 119.057 33.5478 120.4 33.5478 122.057V162.912C33.5478 164.569 34.8909 165.912 36.5478 165.912V166.912C34.3386 166.912 32.5478 165.121 32.5478 162.912V122.057C32.5478 119.917 34.2283 118.169 36.3417 118.062L36.5478 118.057H151.267L151.473 118.062C153.586 118.169 155.267 119.917 155.267 122.057V162.912C155.267 165.121 153.476 166.912 151.267 166.912V165.912C152.923 165.912 154.267 164.569 154.267 162.912Z" fill="#161717"/>
<path d="M22.3212 103.736C22.3212 101.527 24.1121 99.7364 26.3212 99.7364H160.032C162.241 99.7364 164.032 101.527 164.032 103.736V104.897C164.032 107.106 162.241 108.897 160.032 108.897H26.3212C24.1121 108.897 22.3212 107.106 22.3212 104.897V103.736Z" fill="#FBF2E2"/>
<path d="M160.032 107.897V108.897H26.3212L26.3212 107.897H160.032ZM163.032 104.897V103.736C163.032 102.08 161.689 100.736 160.032 100.736H26.3212C24.6643 100.736 23.3212 102.08 23.3212 103.736V104.897C23.3212 106.553 24.6643 107.897 26.3212 107.897L26.3212 108.897C24.1121 108.897 22.3212 107.106 22.3212 104.897V103.736C22.3212 101.596 24.0018 99.8485 26.1151 99.7412L26.3212 99.7364H160.032L160.238 99.7412C162.352 99.8485 164.032 101.596 164.032 103.736V104.897C164.032 107.106 162.241 108.897 160.032 108.897V107.897C161.689 107.897 163.032 106.553 163.032 104.897Z" fill="#161717"/>
<path d="M34.0087 60.0419C34.0087 66.7874 28.776 72.2556 22.3212 72.2556C15.8664 72.2556 10.6337 66.7874 10.6337 60.0419C10.6337 53.2964 15.8664 47.8281 22.3212 47.8281C28.776 47.8281 34.0087 53.2964 34.0087 60.0419Z" fill="#F4EADA"/>
<path d="M33.0087 60.042C33.0087 53.8069 28.1827 48.8281 22.3212 48.8281C16.4597 48.8281 11.6337 53.8069 11.6337 60.042C11.6338 66.2771 16.4597 71.2559 22.3212 71.2559V72.2556L22.0194 72.252C15.8044 72.0874 10.7952 66.8523 10.6376 60.3574L10.6337 60.0419C10.6337 53.2964 15.8664 47.8281 22.3212 47.8281C28.776 47.8281 34.0087 53.2964 34.0087 60.0419L34.0048 60.3574C33.8446 66.9571 28.6751 72.2556 22.3212 72.2556V71.2559C28.1827 71.2559 33.0086 66.2771 33.0087 60.042Z" fill="#161717"/>
<path d="M82.2196 60.0419C82.2196 66.7874 76.987 72.2556 70.5321 72.2556C64.0773 72.2556 58.8446 66.7874 58.8446 60.0419C58.8446 53.2964 64.0773 47.8281 70.5321 47.8281C76.987 47.8281 82.2196 53.2964 82.2196 60.0419Z" fill="#F4EADA"/>
<path d="M81.2196 60.042C81.2196 53.8069 76.3936 48.8281 70.5321 48.8281C64.6706 48.8281 59.8446 53.8069 59.8446 60.042C59.8447 66.2771 64.6707 71.2559 70.5321 71.2559V72.2556L70.2304 72.252C64.0154 72.0874 59.0062 66.8523 58.8485 60.3574L58.8446 60.0419C58.8446 53.2964 64.0773 47.8281 70.5321 47.8281C76.987 47.8281 82.2196 53.2964 82.2196 60.0419L82.2157 60.3574C82.0556 66.9571 76.886 72.2556 70.5321 72.2556V71.2559C76.3936 71.2559 81.2196 66.2771 81.2196 60.042Z" fill="#161717"/>
<path d="M128.97 60.0419C128.97 66.7874 123.737 72.2556 117.282 72.2556C110.827 72.2556 105.595 66.7874 105.595 60.0419C105.595 53.2964 110.827 47.8281 117.282 47.8281C123.737 47.8281 128.97 53.2964 128.97 60.0419Z" fill="#F4EADA"/>
<path d="M127.97 60.042C127.97 53.8069 123.144 48.8281 117.282 48.8281C111.421 48.8281 106.595 53.8069 106.595 60.042C106.595 66.2771 111.421 71.2559 117.282 71.2559V72.2556L116.98 72.252C110.765 72.0874 105.756 66.8523 105.599 60.3574L105.595 60.0419C105.595 53.2964 110.827 47.8281 117.282 47.8281C123.737 47.8281 128.97 53.2964 128.97 60.0419L128.966 60.3574C128.806 66.9571 123.636 72.2556 117.282 72.2556V71.2559C123.144 71.2559 127.97 66.2771 127.97 60.042Z" fill="#161717"/>
<path d="M175.72 60.0419C175.72 66.7874 170.487 72.2556 164.032 72.2556C157.577 72.2556 152.345 66.7874 152.345 60.0419C152.345 53.2964 157.577 47.8281 164.032 47.8281C170.487 47.8281 175.72 53.2964 175.72 60.0419Z" fill="#F4EADA"/>
<path d="M174.72 60.042C174.72 53.8069 169.894 48.8281 164.032 48.8281C158.171 48.8281 153.345 53.8069 153.345 60.042C153.345 66.2771 158.171 71.2559 164.032 71.2559V72.2556L163.73 72.252C157.515 72.0874 152.506 66.8523 152.349 60.3574L152.345 60.0419C152.345 53.2964 157.577 47.8281 164.032 47.8281C170.487 47.8281 175.72 53.2964 175.72 60.0419L175.716 60.3574C175.556 66.9571 170.386 72.2556 164.032 72.2556V71.2559C169.894 71.2559 174.72 66.2771 174.72 60.042Z" fill="#161717"/>
<path d="M85.1415 17.2938C85.1415 22.3529 73.368 26.4541 58.8446 26.4541C44.3213 26.4541 32.5478 22.3529 32.5478 17.2938C32.5478 12.2347 44.3213 8.13347 58.8446 8.13347C73.368 8.13347 85.1415 12.2347 85.1415 17.2938Z" fill="#4A565D"/>
<path d="M84.1415 17.2936C84.1414 16.4478 83.6517 15.4981 82.4394 14.4997C81.2338 13.5068 79.4286 12.568 77.1103 11.7604C72.4827 10.1485 66.0248 9.13347 58.8446 9.13347C51.6644 9.13347 45.2065 10.1485 40.579 11.7604C38.2607 12.568 36.4555 13.5068 35.2499 14.4997C34.0376 15.4981 33.5478 16.4478 33.5478 17.2936C33.5478 18.1395 34.0376 19.0891 35.2499 20.0876C36.4555 21.0805 38.2606 22.0192 40.579 22.8268C45.2065 24.4388 51.6644 25.4538 58.8446 25.4538V26.4541C44.3213 26.4541 32.5478 22.3529 32.5478 17.2938C32.5478 12.2347 44.3213 8.13347 58.8446 8.13347C73.368 8.13347 85.1415 12.2347 85.1415 17.2938C85.1415 22.3529 73.368 26.4541 58.8446 26.4541V25.4538C66.0249 25.4538 72.4827 24.4388 77.1103 22.8268C79.4287 22.0192 81.2338 21.0805 82.4394 20.0876C83.6517 19.0891 84.1415 18.1395 84.1415 17.2936Z" fill="#161717"/>
<path d="M158.188 17.2938C158.188 22.3529 146.415 26.4541 131.892 26.4541C117.368 26.4541 105.595 22.3529 105.595 17.2938C105.595 12.2347 117.368 8.13347 131.892 8.13347C146.415 8.13347 158.188 12.2347 158.188 17.2938Z" fill="#4A565D"/>
<path d="M157.188 17.2936C157.188 16.4478 156.699 15.4981 155.486 14.4997C154.281 13.5068 152.475 12.568 150.157 11.7604C145.53 10.1485 139.072 9.13347 131.892 9.13347C124.711 9.13347 118.253 10.1485 113.626 11.7604C111.308 12.568 109.502 13.5068 108.297 14.4997C107.084 15.4981 106.595 16.4478 106.595 17.2936C106.595 18.1395 107.084 19.0891 108.297 20.0876C109.502 21.0805 111.307 22.0192 113.626 22.8268C118.253 24.4388 124.711 25.4538 131.892 25.4538V26.4541C117.368 26.4541 105.595 22.3529 105.595 17.2938C105.595 12.2347 117.368 8.13347 131.892 8.13347C146.415 8.13347 158.188 12.2347 158.188 17.2938C158.188 22.3529 146.415 26.4541 131.892 26.4541V25.4538C139.072 25.4538 145.53 24.4388 150.157 22.8268C152.476 22.0192 154.281 21.0805 155.486 20.0876C156.699 19.0891 157.188 18.1395 157.188 17.2936Z" fill="#161717"/>
</svg>
