<svg width="138" height="201" viewBox="0 0 138 201" fill="none" xmlns="http://www.w3.org/2000/svg">
<path d="M136.5 200.5H1.5C0.947715 200.5 0.5 200.052 0.5 199.5V168.007C0.5 167.455 0.947712 167.007 1.5 167.007H136.5C137.052 167.007 137.5 167.455 137.5 168.007V199.5C137.5 200.052 137.052 200.5 136.5 200.5Z" fill="#556277"/>
<path d="M9.57325 157.438H127.968C128.52 157.438 128.968 156.99 128.968 156.438V55.6011C128.968 55.4839 128.947 55.3653 128.906 55.2554C126.633 49.1276 124.227 47.3703 118.621 46.4462C118.568 46.4375 118.513 46.433 118.459 46.433H86.3605C85.8082 46.433 85.3605 45.9853 85.3605 45.433V36.9067C85.3605 36.3544 85.8082 35.9067 86.3605 35.9067H108.975C109.032 35.9067 109.09 35.9017 109.145 35.8919C112.749 35.2565 114.138 33.929 115.621 30.3475C115.671 30.2282 115.696 30.0987 115.696 29.9695V5.48022C115.696 5.35109 115.671 5.22233 115.621 5.10357C114.609 2.73214 113.214 1.79263 110.188 0.571935C110.07 0.52448 109.943 0.5 109.816 0.5H42.7826C42.7282 0.5 42.673 0.504511 42.6195 0.513609C39.6498 1.01775 38.2392 2.13804 36.2392 5.03045C36.1252 5.19534 36.065 5.39187 36.065 5.59234V29.9366C36.065 30.087 36.0996 30.2372 36.1655 30.3724C38.1181 34.3778 39.4903 35.8373 42.7009 35.9067H66.3487C66.901 35.9067 67.3487 36.3544 67.3487 36.9067V45.433C67.3487 45.9853 66.901 46.433 66.3487 46.433H35.117C29.3755 46.2905 26.9683 48.1616 23.8053 53.9702C23.7632 54.0476 23.7308 54.1319 23.7105 54.2177L8.60011 118.09C8.58226 118.165 8.57325 118.243 8.57325 118.32V156.438C8.57325 156.99 9.02096 157.438 9.57325 157.438Z" fill="#556277"/>
<path d="M137 168.007C137 167.731 136.776 167.507 136.5 167.507H1.5C1.22397 167.507 1.00019 167.731 1 168.007V199.5C1 199.776 1.22386 200 1.5 200H136.5C136.776 200 137 199.776 137 199.5V168.007ZM115.196 5.48047C115.196 5.41469 115.184 5.35282 115.161 5.2998C114.682 4.17633 114.125 3.42071 113.347 2.79688C112.553 2.16124 111.506 1.64229 110.001 1.03516C109.943 1.01185 109.88 1.00002 109.816 1H42.7822C42.7552 1.00002 42.7281 1.00259 42.7031 1.00684C41.2696 1.25021 40.2528 1.63412 39.3584 2.28125C38.4541 2.93562 37.6402 3.88305 36.6504 5.31445C36.5952 5.39426 36.5654 5.49207 36.5654 5.59277V29.9365C36.5654 30.0111 36.5827 30.0865 36.6152 30.1533C37.5897 32.1522 38.3851 33.4383 39.293 34.2412C40.1692 35.0161 41.1879 35.372 42.7012 35.4062H66.3486C67.1769 35.4062 67.8484 36.078 67.8486 36.9062V45.4326C67.8486 46.261 67.1771 46.9326 66.3486 46.9326H35.1045C32.2895 46.8627 30.3718 47.2885 28.7773 48.3818C27.165 49.4876 25.8182 51.3184 24.2441 54.209C24.2231 54.2476 24.2072 54.2909 24.1973 54.333L9.08691 118.205C9.07801 118.243 9.07324 118.282 9.07324 118.32V156.438C9.07324 156.714 9.2971 156.938 9.57324 156.938H127.968C128.244 156.938 128.468 156.714 128.468 156.438V55.6016C128.468 55.544 128.458 55.4839 128.438 55.4297C127.313 52.3968 126.181 50.5214 124.693 49.2832C123.209 48.0474 121.311 47.3962 118.54 46.9395C118.514 46.9351 118.485 46.9326 118.459 46.9326H86.3604C85.532 46.9325 84.8604 46.261 84.8604 45.4326V36.9062C84.8606 36.0781 85.5321 35.4063 86.3604 35.4062H108.975C109.003 35.4062 109.032 35.4041 109.059 35.3994C110.814 35.0898 111.962 34.6229 112.85 33.8477C113.745 33.0656 114.427 31.9249 115.159 30.1562C115.183 30.0984 115.196 30.034 115.196 29.9697V5.48047ZM138 199.5C138 200.328 137.328 201 136.5 201H1.5C0.671575 201 0 200.328 0 199.5V168.007C0.000189634 167.179 0.67169 166.507 1.5 166.507H136.5C137.328 166.507 138 167.179 138 168.007V199.5ZM116.196 29.9697C116.196 30.1636 116.158 30.3584 116.083 30.5391C115.332 32.3514 114.578 33.6648 113.507 34.6006C112.428 35.5433 111.08 36.059 109.232 36.3848C109.147 36.3998 109.06 36.4062 108.975 36.4062H86.3604C86.0844 36.4063 85.8606 36.6304 85.8604 36.9062V45.4326C85.8604 45.7087 86.0843 45.9325 86.3604 45.9326H118.459C118.54 45.9326 118.622 45.94 118.702 45.9531C121.537 46.4204 123.645 47.1101 125.333 48.5156C127.019 49.919 128.227 51.987 129.375 55.082C129.436 55.2473 129.468 55.4251 129.468 55.6016V156.438C129.468 157.266 128.796 157.938 127.968 157.938H9.57324C8.74482 157.938 8.07324 157.266 8.07324 156.438V118.32C8.07324 118.204 8.08651 118.088 8.11328 117.975L23.2236 54.1025C23.2542 53.9733 23.3031 53.8475 23.3662 53.7314C24.9552 50.8135 26.3946 48.8039 28.2119 47.5576C30.0445 46.301 32.1974 45.8615 35.1172 45.9326H66.3486C66.6248 45.9326 66.8486 45.7088 66.8486 45.4326V36.9062C66.8484 36.6303 66.6246 36.4062 66.3486 36.4062H42.6904C40.9991 36.3697 39.7284 35.9618 38.6299 34.9902C37.561 34.0448 36.6939 32.5981 35.7158 30.5918C35.6166 30.3882 35.5654 30.1627 35.5654 29.9365V5.59277C35.5654 5.29255 35.6553 4.99605 35.8281 4.74609C36.8381 3.28543 37.7293 2.22653 38.7725 1.47168C39.8258 0.709541 41 0.281282 42.5361 0.0205078C42.618 0.00663911 42.7009 1.92526e-05 42.7822 0H109.816C110.007 2.24961e-05 110.198 0.0368384 110.375 0.108398C111.896 0.721779 113.058 1.28373 113.972 2.01562C114.9 2.75955 115.548 3.65935 116.081 4.90723C116.16 5.0917 116.196 5.28803 116.196 5.48047V29.9697Z" fill="#1E1E1E"/>
<path d="M109.241 65.5725H43.0611C42.6 65.5725 42.1986 65.8878 42.0895 66.3358L30.9223 112.183C30.7689 112.812 31.2458 113.419 31.8939 113.419H97.4318C97.888 113.419 98.2864 113.111 98.4002 112.669L110.209 66.8219C110.372 66.189 109.894 65.5725 109.241 65.5725Z" fill="#FFEDD0"/>
<path d="M109.24 65.0725C110.22 65.0725 110.938 65.9973 110.693 66.9465L98.8847 112.793C98.7141 113.456 98.1159 113.919 97.4316 113.919H31.8935C30.9217 113.919 30.2067 113.009 30.4365 112.065L41.6035 66.217C41.7673 65.5452 42.3699 65.0725 43.0615 65.0725H109.24ZM43.0615 66.0725C42.8309 66.0725 42.6297 66.2303 42.5752 66.4543L31.4082 112.301C31.3315 112.616 31.5697 112.919 31.8935 112.919H97.4316C97.6597 112.919 97.8591 112.765 97.916 112.544L109.725 66.6975C109.806 66.381 109.567 66.0725 109.24 66.0725H43.0615Z" fill="black"/>
<path d="M41.997 140.217C41.997 143.388 39.4504 145.958 36.309 145.958C33.1676 145.958 30.6211 143.388 30.6211 140.217C30.6211 137.046 33.1676 134.475 36.309 134.475C39.4504 134.475 41.997 137.046 41.997 140.217Z" fill="#F79542"/>
<path d="M40.997 140.216C40.9967 137.589 38.8886 135.475 36.3085 135.475C33.7286 135.475 31.6213 137.589 31.6211 140.216C31.6211 142.844 33.7285 144.958 36.3085 144.958L36.309 145.958L36.0165 145.951C33.0111 145.797 30.6211 143.289 30.6211 140.217C30.6211 137.046 33.1676 134.475 36.309 134.475C39.4504 134.475 41.997 137.046 41.997 140.217L41.9891 140.512C41.8368 143.546 39.3522 145.958 36.309 145.958L36.3085 144.958C38.8887 144.958 40.997 142.844 40.997 140.216Z" fill="#EEEDE9"/>
<path d="M68.5407 140.217C68.5407 143.388 65.9941 145.958 62.8528 145.958C59.7114 145.958 57.1648 143.388 57.1648 140.217C57.1648 137.046 59.7114 134.475 62.8528 134.475C65.9941 134.475 68.5407 137.046 68.5407 140.217Z" fill="#F79542"/>
<path d="M67.5407 140.216C67.5405 137.589 65.4324 135.475 62.8523 135.475C60.2724 135.475 58.165 137.589 58.1648 140.216C58.1648 142.844 60.2722 144.958 62.8523 144.958L62.8528 145.958L62.5603 145.951C59.5548 145.797 57.1648 143.289 57.1648 140.217C57.1648 137.046 59.7114 134.475 62.8528 134.475C65.9941 134.475 68.5407 137.046 68.5407 140.217L68.5329 140.512C68.3805 143.546 65.8959 145.958 62.8528 145.958L62.8523 144.958C65.4325 144.958 67.5407 142.844 67.5407 140.216Z" fill="#EEEDE9"/>
<path d="M93.1898 140.217C93.1898 143.388 90.6432 145.958 87.5018 145.958C84.3605 145.958 81.8139 143.388 81.8139 140.217C81.8139 137.046 84.3605 134.475 87.5018 134.475C90.6432 134.475 93.1898 137.046 93.1898 140.217Z" fill="#F79542"/>
<path d="M92.1898 140.216C92.1896 137.589 90.0814 135.475 87.5014 135.475C84.9215 135.475 82.8141 137.589 82.8139 140.216C82.8139 142.844 84.9213 144.958 87.5014 144.958L87.5018 145.958L87.2094 145.951C84.2039 145.797 81.8139 143.289 81.8139 140.217C81.8139 137.046 84.3605 134.475 87.5018 134.475C90.6432 134.475 93.1898 137.046 93.1898 140.217L93.182 140.512C93.0296 143.546 90.545 145.958 87.5018 145.958L87.5014 144.958C90.0816 144.958 92.1898 142.844 92.1898 140.216Z" fill="#EEEDE9"/>
</svg>
