<svg width="200" height="200" viewBox="0 0 200 200" fill="none" xmlns="http://www.w3.org/2000/svg">
<path d="M68.2062 97.047L68.2489 91.6108C68.2576 90.5031 67.3644 89.5991 66.2567 89.5946L58.3197 89.5626C57.2153 89.5581 56.3166 90.4496 56.312 91.5539L56.2897 96.9582C56.2852 98.0599 57.1723 98.958 58.274 98.9669L66.1905 99.0307C67.2951 99.0397 68.1975 98.1515 68.2062 97.047Z" fill="#3B4452"/>
<path d="M67.749 91.6065C67.7554 90.7759 67.0855 90.0978 66.255 90.0944L58.3175 90.0625C57.4893 90.0593 56.8159 90.7281 56.8125 91.5563L56.7896 96.9606C56.7862 97.7867 57.4517 98.46 58.2778 98.4668L66.1945 98.5307C67.0229 98.5373 67.6997 97.8712 67.7062 97.0428L67.749 91.6065ZM68.7062 97.0509C68.6954 98.4315 67.5673 99.5418 66.1866 99.5306L58.2699 99.4667C56.8931 99.4556 55.7841 98.3333 55.7896 96.9564L55.8125 91.5521C55.8182 90.1718 56.9411 89.057 58.3214 89.0625L66.2589 89.0944C67.6433 89.1001 68.7597 90.2302 68.7489 91.6145L68.7062 97.0509Z" fill="black"/>
<path d="M146.912 97.047L146.954 91.6108C146.963 90.5031 146.07 89.5991 144.962 89.5946L137.025 89.5626C135.921 89.5581 135.022 90.4496 135.018 91.5539L134.995 96.9582C134.991 98.0599 135.878 98.958 136.98 98.9669L144.896 99.0307C146.001 99.0397 146.903 98.1515 146.912 97.047Z" fill="#3B4452"/>
<path d="M146.455 91.6065C146.461 90.7759 145.791 90.0978 144.961 90.0944L137.023 90.0625C136.195 90.0593 135.521 90.7281 135.518 91.5563L135.495 96.9606C135.492 97.7867 136.157 98.46 136.983 98.4668L144.9 98.5307C145.728 98.5373 146.405 97.8712 146.412 97.0428L146.455 91.6065ZM147.412 97.0509C147.401 98.4315 146.273 99.5418 144.892 99.5306L136.975 99.4667C135.599 99.4556 134.49 98.3333 134.495 96.9564L134.518 91.5521C134.524 90.1718 135.647 89.057 137.027 89.0625L144.964 89.0944C146.349 89.1001 147.465 90.2302 147.454 91.6145L147.412 97.0509Z" fill="black"/>
<path d="M170.563 108.395H160.324C159.571 108.395 159.048 109.146 159.31 109.852L164.018 122.573C164.599 124.143 166.095 125.185 167.769 125.185H174.087C176.919 125.185 178.854 122.325 177.8 119.697L174.276 110.907C173.668 109.389 172.198 108.395 170.563 108.395Z" fill="#3B4452"/>
<path d="M160.324 107.895C159.223 107.895 158.459 108.992 158.841 110.025L163.549 122.747C164.203 124.512 165.886 125.685 167.769 125.685H174.087C177.272 125.685 179.449 122.467 178.264 119.51L174.74 110.72C174.055 109.014 172.402 107.895 170.563 107.895H160.324ZM170.563 108.895C171.993 108.895 173.28 109.765 173.812 111.092L177.336 119.882C178.258 122.182 176.565 124.685 174.087 124.685H167.769C166.305 124.685 164.995 123.773 164.487 122.4L159.779 109.678C159.638 109.299 159.919 108.895 160.324 108.895H170.563Z" fill="black"/>
<path d="M29.4377 108.395H39.6769C40.43 108.395 40.9525 109.146 40.6911 109.852L35.9832 122.573C35.4023 124.143 33.9055 125.185 32.2318 125.185H25.9136C23.0824 125.185 21.1473 122.325 22.2009 119.697L25.725 110.907C26.3332 109.389 27.8032 108.395 29.4377 108.395Z" fill="#3B4452"/>
<path d="M39.6772 107.895C40.7782 107.895 41.5416 108.992 41.1597 110.025L36.4516 122.747C35.7982 124.512 34.1148 125.685 32.2319 125.685H25.9136C22.7285 125.685 20.5516 122.467 21.7368 119.51L25.2612 110.72C25.9456 109.014 27.5993 107.895 29.438 107.895H39.6772ZM29.438 108.895C28.0079 108.895 26.7212 109.765 26.189 111.092L22.6645 119.882C21.7427 122.182 23.4363 124.685 25.9136 124.685H32.2319C33.6964 124.685 35.0059 123.773 35.5141 122.4L40.2222 109.678C40.3626 109.299 40.0819 108.895 39.6772 108.895H29.438Z" fill="black"/>
<path d="M157.732 180.161L154.322 164.266C153.904 162.315 152.112 160.971 150.123 161.115L144.031 161.556C141.49 161.74 139.767 164.22 140.48 166.666L144.986 182.12C145.483 183.827 147.048 185 148.826 185H153.821C156.368 185 158.267 182.651 157.732 180.161Z" fill="#3B4452"/>
<path d="M154.812 164.161C154.341 161.967 152.325 160.455 150.087 160.617L143.995 161.058C141.137 161.264 139.198 164.055 140 166.806L144.506 182.26C145.066 184.18 146.826 185.5 148.826 185.5H153.821C156.687 185.5 158.823 182.857 158.222 180.056L154.812 164.161ZM150.158 161.614C151.899 161.488 153.467 162.664 153.833 164.371L157.243 180.266C157.711 182.445 156.05 184.5 153.821 184.5H148.826C147.271 184.5 145.901 183.473 145.466 181.979L140.96 166.525C140.336 164.386 141.844 162.216 144.067 162.055L150.158 161.614Z" fill="black"/>
<path d="M42.7862 180.161L46.1963 164.266C46.6147 162.315 48.4063 160.971 50.396 161.115L56.4875 161.556C59.0281 161.74 60.7519 164.22 60.0389 166.666L55.5328 182.12C55.0352 183.827 53.4707 185 51.6928 185H46.6972C44.1502 185 42.2519 182.651 42.7862 180.161Z" fill="#3B4452"/>
<path d="M45.707 164.161C46.1777 161.967 48.1934 160.455 50.4316 160.617L56.5234 161.058C59.3815 161.264 61.3207 164.055 60.5185 166.806L56.0127 182.26C55.4528 184.18 53.6925 185.5 51.6924 185.5H46.6973C43.8319 185.5 41.6958 182.857 42.2969 180.056L45.707 164.161ZM50.3603 161.614C48.6194 161.488 47.0517 162.664 46.6855 164.371L43.2754 180.266C42.8079 182.445 44.4687 184.5 46.6973 184.5H51.6924C53.248 184.5 54.6173 183.473 55.0527 181.979L59.5586 166.525C60.1824 164.386 58.6741 162.216 56.4512 162.055L50.3603 161.614Z" fill="black"/>
<path d="M80.1157 27.8755L77.8597 33.4633C77.6088 34.0849 77.1921 34.6257 76.655 35.0267C73.8139 37.148 69.9175 34.3966 70.9661 31.0095L74.3198 20.1774C75.2729 17.0989 78.1199 15 81.3426 15H122.817C125.711 15 128.258 16.9124 129.065 19.6923L132 29.8054C132.99 33.2178 128.881 35.7854 126.248 33.3987C125.843 33.031 125.528 32.5738 125.33 32.0634L123.743 27.9748C122.548 24.8977 119.586 22.8704 116.285 22.8704H87.5339C84.272 22.8704 81.3368 24.8508 80.1157 27.8755Z" fill="#3B4452"/>
<path d="M122.817 14.5C125.934 14.5 128.676 16.5593 129.545 19.5527L132.48 29.666C133.611 33.5625 128.918 36.4945 125.912 33.7695C125.449 33.3496 125.091 32.8269 124.864 32.2441L123.277 28.1553C122.156 25.2709 119.38 23.3703 116.285 23.3701H87.5344C84.4764 23.3701 81.7242 25.2269 80.5793 28.0625L78.3235 33.6504C78.0383 34.3568 77.5648 34.9719 76.9543 35.4277C73.7253 37.8386 69.2967 34.7109 70.4885 30.8613L73.842 20.0293C74.8601 16.7415 77.9012 14.5 81.343 14.5H122.817ZM81.343 15.5C78.3395 15.5 75.6854 17.456 74.7971 20.3252L71.4436 31.1572C70.5381 34.0818 73.9025 36.4576 76.3557 34.626C76.8194 34.2798 77.1791 33.8129 77.3957 33.2764L79.6516 27.6885C80.9491 24.4747 84.0686 22.3701 87.5344 22.3701H116.285C119.792 22.3703 122.939 24.5247 124.208 27.7939L125.796 31.8828C125.966 32.3207 126.236 32.7128 126.584 33.0283C128.843 35.0762 132.37 32.8726 131.52 29.9443L128.584 19.832C127.839 17.2658 125.489 15.5 122.817 15.5H81.343Z" fill="black"/>
<path d="M34.3317 162.012L31.1775 128.636C30.736 123.965 34.3905 119.919 39.0822 119.884L163.21 118.956C168.009 118.92 171.759 123.087 171.22 127.855L167.341 162.158C166.883 166.203 163.462 169.259 159.391 169.259H42.2962C38.1695 169.259 34.72 166.12 34.3317 162.012Z" fill="#3B4452"/>
<path d="M163.207 118.456C168.305 118.418 172.29 122.845 171.717 127.911L167.838 162.214C167.352 166.511 163.716 169.759 159.392 169.759H42.2959C37.9114 169.759 34.2465 166.424 33.834 162.059L30.6797 128.684C30.2106 123.721 34.0934 119.421 39.0781 119.384L163.207 118.456ZM39.0859 120.384C34.6876 120.417 31.2612 124.21 31.6748 128.589L34.8291 161.965C35.1931 165.816 38.4273 168.759 42.2959 168.759H159.392C163.208 168.759 166.415 165.893 166.844 162.102L170.723 127.799C171.228 123.329 167.712 119.422 163.214 119.456L39.0859 120.384Z" fill="black"/>
<path d="M40.7124 41.7407C40.7124 35.6656 45.6373 30.7407 51.7124 30.7407H153.984C160.059 30.7407 164.984 35.6656 164.984 41.7407V81.6543C164.984 87.7294 160.059 92.6543 153.984 92.6543H51.7124C45.6373 92.6543 40.7124 87.7294 40.7124 81.6543V41.7407Z" fill="#556277"/>
<path d="M153.984 91.6548L153.984 92.6543H51.7124L51.7124 91.6548H153.984ZM163.984 81.6548V41.7407C163.984 36.2179 159.507 31.7407 153.984 31.7407H51.7124C46.1895 31.7407 41.7124 36.2179 41.7124 41.7407V81.6548C41.7127 87.1774 46.1897 91.6548 51.7124 91.6548L51.7124 92.6543L51.146 92.6401C45.5215 92.3549 41.0121 87.8447 40.727 82.2202L40.7124 81.6543V41.7407C40.7124 35.8556 45.3341 31.0502 51.146 30.7554L51.7124 30.7407H153.984C160.059 30.7407 164.984 35.6656 164.984 41.7407V81.6543L164.97 82.2202C164.685 87.8449 160.175 92.355 154.55 92.6401L153.984 92.6543L153.984 91.6548C159.507 91.6548 163.984 87.1774 163.984 81.6548Z" fill="black"/>
<path d="M50.0327 44.0864C50.0327 40.7727 52.719 38.0864 56.0327 38.0864H149.664C152.977 38.0864 155.664 40.7727 155.664 44.0864V78.2593C155.664 81.573 152.977 84.2593 149.664 84.2593H56.0327C52.719 84.2593 50.0327 81.573 50.0327 78.2593V44.0864Z" fill="#FFEDD6"/>
<path d="M149.664 83.2593L149.664 84.2593H56.0327L56.0327 83.2593H149.664ZM154.664 78.2593V44.0864C154.664 41.325 152.425 39.0864 149.664 39.0864H56.0327C53.2713 39.0864 51.0327 41.325 51.0327 44.0864V78.2593C51.0327 81.0207 53.2713 83.2593 56.0327 83.2593L56.0327 84.2593L55.7241 84.2515C52.656 84.096 50.196 81.6359 50.0405 78.5679L50.0327 78.2593V44.0864C50.0327 40.8762 52.5538 38.2549 55.7241 38.0942L56.0327 38.0864H149.664C152.977 38.0864 155.664 40.7727 155.664 44.0864V78.2593L155.656 78.5679C155.5 81.636 153.041 84.0961 149.972 84.2515L149.664 84.2593L149.664 83.2593C152.425 83.2593 154.664 81.0207 154.664 78.2593Z" fill="black"/>
<path d="M155.817 97.9014H46.5427C43.3235 97.9014 40.4179 99.8309 39.1692 102.798L30.8338 122.603C28.6286 127.843 32.4385 133.646 38.1229 133.706L163.662 135.031C169.285 135.091 173.212 129.485 171.237 124.221L163.307 103.09C162.135 99.9691 159.151 97.9014 155.817 97.9014Z" fill="#556277"/>
<path d="M155.817 97.4014L156.148 97.4082C159.556 97.5404 162.57 99.7023 163.775 102.915L171.705 124.045C173.804 129.638 169.631 135.594 163.657 135.531L38.1172 134.206C32.0778 134.142 28.0301 127.976 30.373 122.409L38.708 102.604C40.0348 99.4519 43.1226 97.4014 46.543 97.4014H155.817ZM46.2607 98.4062C43.356 98.515 40.764 100.297 39.6299 102.992L31.2949 122.797C29.2276 127.709 32.799 133.15 38.1279 133.206L163.668 134.531C168.939 134.587 172.621 129.331 170.769 124.396L162.839 103.267C161.775 100.432 159.116 98.5238 156.109 98.4072L155.817 98.4014H46.543L46.2607 98.4062Z" fill="black"/>
<path d="M76.9584 151.42C76.9584 158.374 71.3945 164.012 64.5312 164.012C57.6678 164.012 52.104 158.374 52.104 151.42C52.104 144.465 57.6678 138.827 64.5312 138.827C71.3945 138.827 76.9584 144.465 76.9584 151.42Z" fill="#EB9438"/>
<path d="M116.311 150.895C116.311 153.503 114.225 155.617 111.651 155.617C109.077 155.617 106.991 153.503 106.991 150.895C106.991 148.287 109.077 146.173 111.651 146.173C114.225 146.173 116.311 148.287 116.311 150.895Z" fill="#F5E0C4"/>
<path d="M100.777 150.895C100.777 153.503 98.691 155.617 96.1172 155.617C93.5435 155.617 91.457 153.503 91.457 150.895C91.457 148.287 93.5435 146.173 96.1172 146.173C98.691 146.173 100.777 148.287 100.777 150.895Z" fill="#F5E0C4"/>
<path d="M153.925 102.741C120.108 102.42 59.4723 101.929 48.2161 102.157C47.0441 102.181 46.1577 102.87 45.7233 103.959L38.7473 121.445C37.7019 124.066 39.625 126.916 42.4463 126.928L159.802 127.405C162.575 127.416 164.518 124.672 163.586 122.06L157.637 105.396C157.074 103.817 155.602 102.757 153.925 102.741Z" fill="#3B4452"/>
<path d="M48.2056 101.657C59.4714 101.429 120.12 101.92 153.93 102.241C155.818 102.259 157.475 103.454 158.108 105.228L164.057 121.893C165.105 124.83 162.919 127.918 159.8 127.905L42.4438 127.428C39.2701 127.415 37.1066 124.208 38.2827 121.26L45.2593 103.773C45.7592 102.521 46.8099 101.686 48.2056 101.657ZM153.92 103.241C120.098 102.92 59.4725 102.43 48.2261 102.657C47.2782 102.676 46.5569 103.22 46.188 104.145L39.2114 121.631C38.2969 123.924 39.9802 126.418 42.4487 126.428L159.804 126.905C162.23 126.915 163.93 124.513 163.115 122.229L157.167 105.564C156.673 104.181 155.385 103.255 153.92 103.241Z" fill="black"/>
<path d="M51.0683 126.759L59.3531 102.099H64.0133L56.2463 126.759H51.0683Z" fill="#E28B37"/>
<path d="M64.0137 101.948C64.0613 101.948 64.1066 101.971 64.1348 102.01C64.1629 102.048 64.1705 102.098 64.1562 102.144L56.3896 126.804C56.37 126.866 56.3116 126.909 56.2461 126.909H51.0683C51.0201 126.909 50.9745 126.886 50.9463 126.847C50.9182 126.808 50.9104 126.757 50.9258 126.711L59.2109 102.051L59.2324 102.009C59.2602 101.971 59.3052 101.948 59.3535 101.948H64.0137ZM51.2773 126.609H56.1367L63.8086 102.249H59.4609L51.2773 126.609Z" fill="black"/>
<path d="M77.4761 102.099H72.8159L67.1201 126.759H71.7803L77.4761 102.099Z" fill="#E28B37"/>
<path d="M90.9389 102.099H86.2787L83.6897 126.759H88.3499L90.9389 102.099Z" fill="#E28B37"/>
<path d="M104.919 102.099H99.7415L100.259 126.759H104.919V102.099Z" fill="#E28B37"/>
<path d="M118.382 102.099H113.722L116.829 126.759H120.971L118.382 102.099Z" fill="#E28B37"/>
<path d="M131.845 102.099H127.185L132.881 126.759H137.541L131.845 102.099Z" fill="#E28B37"/>
<path d="M145.308 102.099H140.648L148.932 126.759H154.11L145.308 102.099Z" fill="#E28B37"/>
<path d="M77.4765 101.948C77.522 101.948 77.5654 101.969 77.5937 102.005C77.6222 102.041 77.6323 102.088 77.6221 102.133L71.9267 126.793C71.911 126.861 71.8501 126.909 71.7803 126.909H67.1201C67.0744 126.909 67.0314 126.888 67.0029 126.853C66.9745 126.817 66.9634 126.77 66.9736 126.726L72.6699 102.064L72.6894 102.018C72.7163 101.976 72.7634 101.948 72.8154 101.948H77.4765ZM90.9385 101.948C90.981 101.948 91.0223 101.966 91.0508 101.998C91.0791 102.03 91.0923 102.072 91.0879 102.114L88.499 126.774C88.491 126.851 88.4264 126.909 88.3496 126.909H83.6894C83.647 126.909 83.6065 126.891 83.5781 126.859C83.5497 126.828 83.5356 126.785 83.54 126.743L86.1299 102.083L86.1455 102.029C86.1706 101.981 86.221 101.948 86.2783 101.948H90.9385ZM104.92 101.948C105.003 101.948 105.069 102.016 105.069 102.099V126.759C105.069 126.841 105.003 126.909 104.92 126.909H100.259C100.178 126.909 100.111 126.844 100.109 126.763L99.5918 102.102C99.591 102.061 99.6066 102.023 99.6348 101.994C99.6629 101.965 99.701 101.948 99.7412 101.948H104.92ZM118.382 101.948L118.437 101.959C118.487 101.979 118.525 102.026 118.531 102.083L121.12 126.743C121.125 126.785 121.111 126.828 121.083 126.859C121.055 126.891 121.014 126.909 120.972 126.909H116.829C116.754 126.909 116.689 126.853 116.68 126.778L113.573 102.117C113.568 102.075 113.581 102.031 113.609 101.999C113.638 101.967 113.679 101.948 113.722 101.948H118.382ZM131.845 101.948L131.896 101.957C131.942 101.974 131.979 102.014 131.991 102.064L137.687 126.726C137.697 126.77 137.687 126.817 137.658 126.853C137.63 126.888 137.587 126.909 137.541 126.909H132.881C132.811 126.909 132.75 126.861 132.734 126.793L127.039 102.133C127.029 102.088 127.039 102.041 127.067 102.005C127.096 101.969 127.139 101.948 127.185 101.948H131.845ZM145.308 101.948L145.354 101.956C145.397 101.97 145.433 102.003 145.449 102.048L154.252 126.709C154.268 126.755 154.261 126.806 154.233 126.846C154.205 126.886 154.159 126.909 154.11 126.909H148.933C148.868 126.909 148.811 126.868 148.79 126.807L140.506 102.146C140.49 102.101 140.497 102.05 140.525 102.011C140.554 101.972 140.599 101.948 140.647 101.948H145.308ZM149.04 126.609H153.897L145.202 102.249H140.856L149.04 126.609ZM133 126.609H137.353L131.726 102.249H127.374L133 126.609ZM116.961 126.609H120.805L118.247 102.249H113.893L116.961 126.609ZM100.406 126.609H104.77V102.249H99.8945L100.406 126.609ZM83.8564 126.609H88.2148L90.7724 102.249H86.414L83.8564 126.609ZM67.3086 126.609H71.6601L77.2871 102.249H72.9355L67.3086 126.609Z" fill="black"/>
</svg>
