<svg width="200" height="200" viewBox="0 0 200 200" fill="none" xmlns="http://www.w3.org/2000/svg">
<path d="M68.2057 97.0469L68.2485 91.6108C68.2572 90.5031 67.3639 89.5991 66.2562 89.5946L58.3192 89.5626C57.2149 89.5581 56.3161 90.4496 56.3115 91.5539L56.2892 96.9582C56.2847 98.0599 57.1719 98.958 58.2735 98.9669L66.1901 99.0307C67.2946 99.0397 68.197 98.1515 68.2057 97.0469Z" fill="#3B4452" stroke="black" stroke-linecap="round" stroke-linejoin="round"/>
<path d="M146.911 97.0469L146.954 91.6108C146.963 90.5031 146.069 89.5991 144.962 89.5946L137.025 89.5626C135.92 89.5581 135.022 90.4496 135.017 91.5539L134.995 96.9582C134.99 98.0599 135.877 98.958 136.979 98.9669L144.896 99.0307C146 99.0397 146.903 98.1515 146.911 97.0469Z" fill="#3B4452" stroke="black" stroke-linecap="round" stroke-linejoin="round"/>
<path d="M170.563 108.395H160.324C159.571 108.395 159.048 109.146 159.309 109.852L164.017 122.573C164.598 124.143 166.095 125.185 167.769 125.185H174.087C176.918 125.185 178.853 122.325 177.8 119.697L174.276 110.907C173.667 109.389 172.197 108.395 170.563 108.395Z" fill="#3B4452" stroke="black" stroke-linecap="round" stroke-linejoin="round"/>
<path d="M29.4372 108.395H39.6764C40.4295 108.395 40.952 109.146 40.6906 109.852L35.9827 122.573C35.4018 124.143 33.9051 125.185 32.2314 125.185H25.9131C23.0819 125.185 21.1469 122.325 22.2004 119.697L25.7245 110.907C26.3327 109.389 27.8028 108.395 29.4372 108.395Z" fill="#3B4452" stroke="black" stroke-linecap="round" stroke-linejoin="round"/>
<path d="M157.732 180.161L154.322 164.266C153.903 162.315 152.112 160.971 150.122 161.115L144.031 161.556C141.49 161.74 139.766 164.22 140.479 166.666L144.985 182.12C145.483 183.827 147.047 185 148.825 185H153.821C156.368 185 158.266 182.651 157.732 180.161Z" fill="#3B4452" stroke="black" stroke-linecap="round" stroke-linejoin="round"/>
<path d="M42.7857 180.161L46.1958 164.266C46.6142 162.315 48.4059 160.971 50.3955 161.115L56.4871 161.556C59.0276 161.74 60.7514 164.22 60.0384 166.666L55.5324 182.12C55.0347 183.827 53.4702 185 51.6923 185H46.6967C44.1497 185 42.2514 182.651 42.7857 180.161Z" fill="#3B4452" stroke="black" stroke-linecap="round" stroke-linejoin="round"/>
<path d="M80.1152 27.8755L77.8593 33.4633C77.6083 34.0849 77.1916 34.6257 76.6545 35.0267C73.8134 37.148 69.917 34.3966 70.9656 31.0095L74.3193 20.1774C75.2724 17.0989 78.1194 15 81.3421 15H122.816C125.711 15 128.257 16.9124 129.064 19.6923L132 29.8054C132.99 33.2178 128.88 35.7854 126.248 33.3987C125.842 33.031 125.528 32.5738 125.33 32.0634L123.742 27.9748C122.547 24.8977 119.585 22.8704 116.285 22.8704H87.5334C84.2715 22.8704 81.3363 24.8508 80.1152 27.8755Z" fill="#3B4452" stroke="black" stroke-linecap="round" stroke-linejoin="round"/>
<path d="M34.3312 162.012L31.177 128.636C30.7355 123.965 34.39 119.919 39.0817 119.884L163.21 118.956C168.008 118.92 171.758 123.087 171.219 127.855L167.34 162.158C166.883 166.203 163.461 169.259 159.391 169.259H42.2957C38.1691 169.259 34.7195 166.12 34.3312 162.012Z" fill="#3B4452" stroke="black" stroke-linecap="round" stroke-linejoin="round"/>
<rect x="41.2119" y="31.2407" width="123.272" height="60.9136" rx="10.5" fill="#556277" stroke="black"/>
<rect x="50.5322" y="38.5864" width="104.631" height="45.1728" rx="5.5" fill="#FFEDD6" stroke="black"/>
<path d="M155.816 97.9014H46.5423C43.3231 97.9014 40.4175 99.8309 39.1687 102.798L30.8333 122.603C28.6281 127.843 32.438 133.646 38.1224 133.706L163.662 135.031C169.284 135.091 173.212 129.485 171.236 124.221L163.306 103.09C162.135 99.9691 159.151 97.9014 155.816 97.9014Z" fill="#556277" stroke="black" stroke-linecap="round" stroke-linejoin="round"/>
<ellipse cx="64.5307" cy="151.42" rx="12.4272" ry="12.5926" fill="#EB9438"/>
<ellipse cx="111.65" cy="150.895" rx="4.66019" ry="4.72222" fill="#F5E0C4"/>
<ellipse cx="96.1167" cy="150.895" rx="4.66019" ry="4.72222" fill="#F5E0C4"/>
<path d="M153.925 102.741C120.108 102.42 59.4718 101.929 48.2157 102.157C47.0436 102.181 46.1572 102.87 45.7229 103.959L38.7469 121.445C37.7014 124.066 39.6245 126.916 42.4459 126.928L159.802 127.405C162.575 127.416 164.517 124.672 163.585 122.06L157.637 105.396C157.073 103.817 155.601 102.757 153.925 102.741Z" fill="#3B4452" stroke="black" stroke-linecap="round" stroke-linejoin="round"/>
<path d="M51.0679 126.759L59.3527 102.099H64.0129L56.2459 126.759H51.0679Z" fill="#E28B37" stroke="black" stroke-width="0.3" stroke-linecap="round" stroke-linejoin="round"/>
<path d="M77.4756 102.099H72.8154L67.1196 126.759H71.7798L77.4756 102.099Z" fill="#E28B37"/>
<path d="M90.9384 102.099H86.2782L83.6892 126.759H88.3494L90.9384 102.099Z" fill="#E28B37"/>
<path d="M104.919 102.099H99.741L100.259 126.759H104.919V102.099Z" fill="#E28B37"/>
<path d="M118.382 102.099H113.722L116.828 126.759H120.971L118.382 102.099Z" fill="#E28B37"/>
<path d="M131.845 102.099H127.184L132.88 126.759H137.54L131.845 102.099Z" fill="#E28B37"/>
<path d="M145.307 102.099H140.647L148.932 126.759H154.11L145.307 102.099Z" fill="#E28B37"/>
<path d="M77.4756 102.099H72.8154L67.1196 126.759H71.7798L77.4756 102.099Z" stroke="black" stroke-width="0.3" stroke-linecap="round" stroke-linejoin="round"/>
<path d="M90.9384 102.099H86.2782L83.6892 126.759H88.3494L90.9384 102.099Z" stroke="black" stroke-width="0.3" stroke-linecap="round" stroke-linejoin="round"/>
<path d="M104.919 102.099H99.741L100.259 126.759H104.919V102.099Z" stroke="black" stroke-width="0.3" stroke-linecap="round" stroke-linejoin="round"/>
<path d="M118.382 102.099H113.722L116.828 126.759H120.971L118.382 102.099Z" stroke="black" stroke-width="0.3" stroke-linecap="round" stroke-linejoin="round"/>
<path d="M131.845 102.099H127.184L132.88 126.759H137.54L131.845 102.099Z" stroke="black" stroke-width="0.3" stroke-linecap="round" stroke-linejoin="round"/>
<path d="M145.307 102.099H140.647L148.932 126.759H154.11L145.307 102.099Z" stroke="black" stroke-width="0.3" stroke-linecap="round" stroke-linejoin="round"/>
</svg>
