<svg width="200" height="200" viewBox="0 0 200 200" fill="none" xmlns="http://www.w3.org/2000/svg">
<path d="M27 12.5H173C176.59 12.5 179.5 15.4101 179.5 19V180C179.5 183.59 176.59 186.5 173 186.5H27C23.4102 186.5 20.5 183.59 20.5 180V19C20.5 15.4102 23.4102 12.5 27 12.5Z" fill="#556277" stroke="black"/>
<path d="M27 64.2603H173C176.59 64.2603 179.5 67.1704 179.5 70.7603V180C179.5 183.589 176.59 186.5 173 186.5H27C23.4101 186.5 20.5 183.589 20.5 180V70.7603C20.5 67.1704 23.4101 64.2603 27 64.2603Z" fill="#FFEDD0" stroke="black"/>
<path d="M40.2329 75.3521H160.97C164.56 75.3523 167.47 78.2624 167.47 81.8521V168.909C167.47 172.498 164.56 175.408 160.97 175.409H40.2329C36.6432 175.409 33.7331 172.498 33.7329 168.909V81.8521C33.7329 78.2622 36.6431 75.3521 40.2329 75.3521Z" fill="#556277" stroke="black"/>
<path d="M51.0601 104.93H148.94C152.53 104.93 155.44 107.84 155.44 111.43V157.817C155.44 161.407 152.53 164.317 148.94 164.317H51.0601C47.4703 164.317 44.5603 161.407 44.5601 157.817V111.43C44.5601 107.84 47.4702 104.93 51.0601 104.93Z" fill="#FFEDD0" stroke="black"/>
<path d="M47.7573 85.2109H152.243C154.008 85.211 155.44 86.6425 155.44 88.4082C155.44 90.1739 154.008 91.6054 152.243 91.6055H47.7573C45.9916 91.6055 44.5601 90.1739 44.5601 88.4082C44.5601 86.6424 45.9916 85.2109 47.7573 85.2109Z" fill="#FFEDD0" stroke="black"/>
<ellipse cx="139.699" cy="34.799" rx="13.8346" ry="14.1725" fill="#FFECD0"/>
<ellipse cx="42.2555" cy="34.7996" rx="9.02256" ry="9.24296" fill="#F79542"/>
<ellipse cx="69.9249" cy="34.7996" rx="9.02256" ry="9.24296" fill="#F79542"/>
<ellipse cx="112.03" cy="34.7992" rx="3.00752" ry="3.08099" fill="#FFECD0"/>
<ellipse cx="164.963" cy="34.7992" rx="3.00752" ry="3.08099" fill="#FFECD0"/>
<path d="M96.3907 116.753L86.0935 128.474C85.784 128.827 85.7608 129.347 86.0379 129.725L92.2815 138.253C92.5702 138.648 92.5316 139.193 92.1902 139.542L82.5562 149.412M117.443 116.753L107.736 128.453C107.434 128.817 107.428 129.343 107.722 129.713L114.459 138.207C114.785 138.618 114.738 139.211 114.351 139.566L103.609 149.412" stroke="#556277" stroke-width="5" stroke-linecap="round" stroke-linejoin="round"/>
<path d="M140.301 25.5566V36.6482" stroke="#F79542" stroke-width="5" stroke-linecap="round" stroke-linejoin="round"/>
</svg>
