<svg width="200" height="200" viewBox="0 0 200 200" fill="none" xmlns="http://www.w3.org/2000/svg">
<path d="M20 19C20 15.134 23.134 12 27 12H173C176.866 12 180 15.134 180 19V180C180 183.866 176.866 187 173 187H27C23.134 187 20 183.866 20 180V19Z" fill="#556277"/>
<path d="M173 186V187H27L27 186H173ZM179 180V19C179 15.6863 176.314 13 173 13H27C23.6863 13 21 15.6863 21 19V180C21 183.314 23.6863 186 27 186L27 187L26.6396 186.991C23.0605 186.81 20.1903 183.94 20.0088 180.36L20 180V19C20 15.134 23.134 12 27 12H173L173.36 12.0088C177.059 12.1963 180 15.2549 180 19V180L179.991 180.36C179.81 183.94 176.94 186.81 173.36 186.991L173 187V186C176.314 186 179 183.314 179 180Z" fill="black"/>
<path d="M20 70.7602C20 66.8943 23.134 63.7603 27 63.7603H173C176.866 63.7603 180 66.8943 180 70.7603V180C180 183.866 176.866 187 173 187H27C23.134 187 20 183.866 20 180V70.7602Z" fill="#FFEDD0"/>
<path d="M173 186V187H27L27 186H173ZM179 180V70.7603C179 67.4466 176.314 64.7603 173 64.7603H27C23.6863 64.7603 21 67.4466 21 70.7603V180C21 183.314 23.6863 186 27 186L27 187L26.6396 186.991C22.9411 186.804 20 183.745 20 180V70.7602C20 66.8943 23.134 63.7603 27 63.7603H173L173.36 63.769C177.059 63.9566 180 67.0151 180 70.7603V180L179.991 180.36C179.81 183.94 176.94 186.81 173.36 186.991L173 187V186C176.314 186 179 183.314 179 180Z" fill="black"/>
<path d="M33.2329 81.852C33.2329 77.9861 36.3669 74.8521 40.2329 74.8521H160.97C164.836 74.8521 167.97 77.9861 167.97 81.8521V168.908C167.97 172.774 164.836 175.908 160.97 175.908H40.2329C36.3669 175.908 33.2329 172.774 33.2329 168.908V81.852Z" fill="#556277"/>
<path d="M160.97 174.909L160.97 175.908H40.2329L40.2329 174.909H160.97ZM166.97 168.909V81.8521C166.97 78.642 164.449 76.0207 161.279 75.8599L160.97 75.8521H40.2329C36.9192 75.8521 34.2329 78.5383 34.2329 81.8521V168.909C34.2331 172.222 36.9193 174.909 40.2329 174.909L40.2329 175.908L39.8726 175.899C36.2935 175.717 33.4233 172.848 33.2417 169.269L33.2329 168.908V81.852C33.2329 78.1069 36.174 75.0484 39.8726 74.8608L40.2329 74.8521H160.97L161.33 74.8608C165.028 75.0481 167.97 78.1067 167.97 81.8521V168.908L167.96 169.269C167.779 172.848 164.909 175.718 161.33 175.899L160.97 175.908L160.97 174.909C164.284 174.908 166.97 172.222 166.97 168.909Z" fill="black"/>
<path d="M44.0601 111.43C44.0601 107.564 47.1941 104.43 51.0601 104.43H148.94C152.806 104.43 155.94 107.564 155.94 111.43V157.817C155.94 161.683 152.806 164.817 148.94 164.817H51.0601C47.1941 164.817 44.0601 161.683 44.0601 157.817V111.43Z" fill="#FFEDD0"/>
<path d="M148.94 163.817L148.94 164.817H51.0601L51.0601 163.817H148.94ZM154.94 157.817V111.43C154.94 108.116 152.254 105.43 148.94 105.43H51.0601C47.7463 105.43 45.0601 108.116 45.0601 111.43V157.817C45.0603 161.131 47.7465 163.817 51.0601 163.817L51.0601 164.817L50.6997 164.808C47.1203 164.626 44.25 161.756 44.0688 158.177L44.0601 157.817V111.43C44.0601 107.564 47.1941 104.43 51.0601 104.43H148.94L149.3 104.438C152.999 104.626 155.94 107.685 155.94 111.43V157.817L155.93 158.177C155.749 161.756 152.88 164.626 149.3 164.808L148.94 164.817L148.94 163.817C152.253 163.817 154.94 161.131 154.94 157.817Z" fill="black"/>
<path d="M44.0601 88.4081C44.0601 86.3662 45.7153 84.7109 47.7572 84.7109H152.243C154.284 84.7109 155.94 86.3662 155.94 88.4081C155.94 90.45 154.284 92.1053 152.243 92.1053H47.7572C45.7153 92.1053 44.0601 90.45 44.0601 88.4081Z" fill="#FFEDD0"/>
<path d="M152.243 91.1053L152.243 92.1053H47.7572L47.7573 91.1053H152.243ZM154.94 88.4081C154.94 86.9186 153.732 85.711 152.243 85.7109H47.7573C46.2677 85.7109 45.0601 86.9185 45.0601 88.4081C45.0601 89.8977 46.2677 91.1053 47.7573 91.1053L47.7572 92.1053L47.5669 92.1004C45.6766 92.0046 44.1609 90.4888 44.0649 88.5985L44.0601 88.4081C44.0601 86.4301 45.6135 84.8149 47.5669 84.7158L47.7572 84.7109H152.243L152.433 84.7158C154.386 84.815 155.94 86.4302 155.94 88.4081L155.935 88.5985C155.839 90.4888 154.323 92.0045 152.433 92.1004L152.243 92.1053L152.243 91.1053C153.732 91.1053 154.94 89.8976 154.94 88.4081Z" fill="black"/>
<path d="M153.534 34.799C153.534 42.6263 147.34 48.9715 139.699 48.9715C132.059 48.9715 125.865 42.6263 125.865 34.799C125.865 26.9717 132.059 20.6265 139.699 20.6265C147.34 20.6265 153.534 26.9717 153.534 34.799Z" fill="#FFECD0"/>
<path d="M51.278 34.7996C51.278 39.9043 47.2385 44.0426 42.2555 44.0426C37.2724 44.0426 33.2329 39.9043 33.2329 34.7996C33.2329 29.6949 37.2724 25.5566 42.2555 25.5566C47.2385 25.5566 51.278 29.6949 51.278 34.7996Z" fill="#F79542"/>
<path d="M78.9475 34.7996C78.9475 39.9043 74.9079 44.0426 69.9249 44.0426C64.9419 44.0426 60.9023 39.9043 60.9023 34.7996C60.9023 29.6949 64.9419 25.5566 69.9249 25.5566C74.9079 25.5566 78.9475 29.6949 78.9475 34.7996Z" fill="#F79542"/>
<path d="M115.037 34.7992C115.037 36.5008 113.691 37.8802 112.03 37.8802C110.369 37.8802 109.022 36.5008 109.022 34.7992C109.022 33.0977 110.369 31.7183 112.03 31.7183C113.691 31.7183 115.037 33.0977 115.037 34.7992Z" fill="#FFECD0"/>
<path d="M167.97 34.7992C167.97 36.5008 166.624 37.8802 164.963 37.8802C163.302 37.8802 161.955 36.5008 161.955 34.7992C161.955 33.0977 163.302 31.7183 164.963 31.7183C166.624 31.7183 167.97 33.0977 167.97 34.7992Z" fill="#FFECD0"/>
<path d="M94.5122 115.103C95.4235 114.066 97.0033 113.964 98.0405 114.875C99.0778 115.787 99.1803 117.367 98.269 118.404L88.7661 129.219L94.2983 136.777C95.3086 138.157 95.1737 140.065 93.979 141.289L84.3452 151.158C83.3808 152.146 81.7981 152.165 80.8101 151.201C79.822 150.236 79.8027 148.654 80.7671 147.666L89.5132 138.705L84.021 131.202C83.0515 129.877 83.1322 128.058 84.2153 126.825L94.5122 115.103ZM115.519 115.157C116.401 114.094 117.977 113.948 119.04 114.83C120.102 115.711 120.249 117.288 119.368 118.35L110.436 129.113L116.417 136.654C117.558 138.092 117.394 140.168 116.041 141.409L105.298 151.254C104.281 152.187 102.699 152.119 101.766 151.101C100.833 150.083 100.902 148.502 101.919 147.569L111.632 138.666L105.763 131.266C104.735 129.97 104.755 128.13 105.812 126.857L115.519 115.157Z" fill="#556277"/>
<path d="M137.801 36.6484V25.5566C137.801 24.1759 138.92 23.0566 140.301 23.0566C141.681 23.0566 142.801 24.1759 142.801 25.5566V36.6484C142.801 38.029 141.681 39.1484 140.301 39.1484C138.92 39.1484 137.801 38.029 137.801 36.6484Z" fill="#F79542"/>
</svg>
