<svg width="497" height="150" viewBox="0 0 497 150" fill="none" xmlns="http://www.w3.org/2000/svg">
<mask id="path-1-outside-1_248_143" maskUnits="userSpaceOnUse" x="0" y="0" width="497" height="150" fill="black">
<rect fill="white" width="497" height="150"/>
<path d="M78.6609 35.52C67.3675 35.52 58.7142 38.9667 52.7009 45.86C46.6875 52.7533 43.6809 62.5067 43.6809 75.12C43.6809 87.88 46.9809 97.7067 53.5809 104.6C60.3275 111.493 69.3475 114.94 80.6409 114.94C86.6542 114.94 91.7142 114.133 95.8209 112.52C100.074 110.907 104.108 109.073 107.921 107.02C110.414 109.073 112.321 111.567 113.641 114.5C115.108 117.287 115.841 120.587 115.841 124.4C115.841 130.413 112.468 135.547 105.721 139.8C99.1209 143.907 89.0009 145.96 75.3609 145.96C65.5342 145.96 56.2942 144.567 47.6409 141.78C38.9875 138.993 31.4342 134.74 24.9809 129.02C18.5275 123.153 13.3942 115.82 9.58086 107.02C5.91419 98.0733 4.08086 87.44 4.08086 75.12C4.08086 63.68 5.84086 53.6333 9.36086 44.98C13.0275 36.18 17.9409 28.7733 24.1009 22.76C30.4075 16.7467 37.7409 12.2 46.1009 9.11999C54.4609 6.04 63.4075 4.5 72.9409 4.5C86.4342 4.5 96.8475 6.7 104.181 11.1C111.661 15.5 115.401 21.1467 115.401 28.04C115.401 31.8533 114.448 35.1533 112.541 37.94C110.634 40.7267 108.434 42.9267 105.941 44.54C102.128 42.0467 98.0209 39.92 93.6209 38.16C89.3675 36.4 84.3809 35.52 78.6609 35.52ZM167.967 12.64C170.46 11.1733 174.2 9.77999 179.187 8.45999C184.32 7.13999 189.454 6.47999 194.587 6.47999C201.92 6.47999 208.374 7.57999 213.947 9.78C219.667 11.8333 223.334 15.1333 224.947 19.68C227.587 27.3067 230.447 36.18 233.527 46.3C236.607 56.42 239.687 66.9067 242.767 77.76C245.847 88.4667 248.854 99.1 251.787 109.66C254.72 120.073 257.287 129.313 259.487 137.38C257.727 139.433 255.087 141.047 251.567 142.22C248.047 143.54 243.867 144.2 239.027 144.2C235.507 144.2 232.5 143.907 230.007 143.32C227.66 142.733 225.68 141.853 224.067 140.68C222.6 139.507 221.354 137.967 220.327 136.06C219.447 134.153 218.64 131.953 217.907 129.46L213.947 114.28H174.127C172.954 118.68 171.78 123.227 170.607 127.92C169.434 132.613 168.26 137.16 167.087 141.56C165.034 142.293 162.834 142.88 160.487 143.32C158.287 143.907 155.574 144.2 152.347 144.2C144.867 144.2 139.294 142.953 135.627 140.46C132.107 137.82 130.347 134.227 130.347 129.68C130.347 127.627 130.64 125.573 131.227 123.52C131.814 121.467 132.474 119.047 133.207 116.26C134.234 112.3 135.627 107.387 137.387 101.52C139.294 95.6533 141.347 89.3467 143.547 82.6C145.747 75.7067 148.094 68.6667 150.587 61.48C153.08 54.2933 155.427 47.5467 157.627 41.24C159.827 34.7867 161.807 29.0667 163.567 24.08C165.474 19.0933 166.94 15.28 167.967 12.64ZM194.367 41.02C192.314 47.18 189.967 54.0733 187.327 61.7C184.834 69.18 182.56 76.8067 180.507 84.58H207.787C205.734 76.66 203.607 68.96 201.407 61.48C199.354 53.8533 197.447 47.0333 195.687 41.02H194.367ZM371.237 8.68C372.263 10.2933 373.143 12.4933 373.877 15.28C374.757 17.92 375.197 20.7067 375.197 23.64C375.197 29.36 373.95 33.4667 371.457 35.96C369.11 38.3067 365.883 39.48 361.777 39.48H315.577V64.34H363.757C364.93 65.9533 365.883 68.08 366.617 70.72C367.497 73.36 367.937 76.1467 367.937 79.08C367.937 84.6533 366.69 88.6867 364.197 91.18C361.85 93.5267 358.623 94.7 354.517 94.7H316.017V141.12C314.403 141.56 311.837 142 308.317 142.44C304.943 142.88 301.57 143.1 298.197 143.1C294.823 143.1 291.817 142.807 289.177 142.22C286.683 141.78 284.557 140.9 282.797 139.58C281.037 138.26 279.717 136.427 278.837 134.08C277.957 131.733 277.517 128.653 277.517 124.84V29.14C277.517 22.8333 279.35 17.8467 283.017 14.18C286.683 10.5133 291.67 8.68 297.977 8.68H371.237ZM394.392 29.14C394.392 22.8333 396.225 17.8467 399.892 14.18C403.558 10.5133 408.545 8.68 414.852 8.68H487.452C488.478 10.2933 489.358 12.42 490.092 15.06C490.972 17.7 491.412 20.4867 491.412 23.42C491.412 28.9933 490.165 32.9533 487.672 35.3C485.325 37.6467 482.172 38.82 478.212 38.82H431.792V59.28H481.292C482.318 60.8933 483.198 63.02 483.932 65.66C484.812 68.1533 485.252 70.8667 485.252 73.8C485.252 79.3733 484.078 83.3333 481.732 85.68C479.385 88.0267 476.232 89.2 472.272 89.2H431.792V112.3H488.332C489.358 113.913 490.238 116.04 490.972 118.68C491.852 121.32 492.292 124.107 492.292 127.04C492.292 132.613 491.045 136.647 488.552 139.14C486.205 141.487 483.052 142.66 479.092 142.66H414.852C408.545 142.66 403.558 140.827 399.892 137.16C396.225 133.493 394.392 128.507 394.392 122.2V29.14Z"/>
</mask>
<path d="M78.6609 35.52C67.3675 35.52 58.7142 38.9667 52.7009 45.86C46.6875 52.7533 43.6809 62.5067 43.6809 75.12C43.6809 87.88 46.9809 97.7067 53.5809 104.6C60.3275 111.493 69.3475 114.94 80.6409 114.94C86.6542 114.94 91.7142 114.133 95.8209 112.52C100.074 110.907 104.108 109.073 107.921 107.02C110.414 109.073 112.321 111.567 113.641 114.5C115.108 117.287 115.841 120.587 115.841 124.4C115.841 130.413 112.468 135.547 105.721 139.8C99.1209 143.907 89.0009 145.96 75.3609 145.96C65.5342 145.96 56.2942 144.567 47.6409 141.78C38.9875 138.993 31.4342 134.74 24.9809 129.02C18.5275 123.153 13.3942 115.82 9.58086 107.02C5.91419 98.0733 4.08086 87.44 4.08086 75.12C4.08086 63.68 5.84086 53.6333 9.36086 44.98C13.0275 36.18 17.9409 28.7733 24.1009 22.76C30.4075 16.7467 37.7409 12.2 46.1009 9.11999C54.4609 6.04 63.4075 4.5 72.9409 4.5C86.4342 4.5 96.8475 6.7 104.181 11.1C111.661 15.5 115.401 21.1467 115.401 28.04C115.401 31.8533 114.448 35.1533 112.541 37.94C110.634 40.7267 108.434 42.9267 105.941 44.54C102.128 42.0467 98.0209 39.92 93.6209 38.16C89.3675 36.4 84.3809 35.52 78.6609 35.52ZM167.967 12.64C170.46 11.1733 174.2 9.77999 179.187 8.45999C184.32 7.13999 189.454 6.47999 194.587 6.47999C201.92 6.47999 208.374 7.57999 213.947 9.78C219.667 11.8333 223.334 15.1333 224.947 19.68C227.587 27.3067 230.447 36.18 233.527 46.3C236.607 56.42 239.687 66.9067 242.767 77.76C245.847 88.4667 248.854 99.1 251.787 109.66C254.72 120.073 257.287 129.313 259.487 137.38C257.727 139.433 255.087 141.047 251.567 142.22C248.047 143.54 243.867 144.2 239.027 144.2C235.507 144.2 232.5 143.907 230.007 143.32C227.66 142.733 225.68 141.853 224.067 140.68C222.6 139.507 221.354 137.967 220.327 136.06C219.447 134.153 218.64 131.953 217.907 129.46L213.947 114.28H174.127C172.954 118.68 171.78 123.227 170.607 127.92C169.434 132.613 168.26 137.16 167.087 141.56C165.034 142.293 162.834 142.88 160.487 143.32C158.287 143.907 155.574 144.2 152.347 144.2C144.867 144.2 139.294 142.953 135.627 140.46C132.107 137.82 130.347 134.227 130.347 129.68C130.347 127.627 130.64 125.573 131.227 123.52C131.814 121.467 132.474 119.047 133.207 116.26C134.234 112.3 135.627 107.387 137.387 101.52C139.294 95.6533 141.347 89.3467 143.547 82.6C145.747 75.7067 148.094 68.6667 150.587 61.48C153.08 54.2933 155.427 47.5467 157.627 41.24C159.827 34.7867 161.807 29.0667 163.567 24.08C165.474 19.0933 166.94 15.28 167.967 12.64ZM194.367 41.02C192.314 47.18 189.967 54.0733 187.327 61.7C184.834 69.18 182.56 76.8067 180.507 84.58H207.787C205.734 76.66 203.607 68.96 201.407 61.48C199.354 53.8533 197.447 47.0333 195.687 41.02H194.367ZM371.237 8.68C372.263 10.2933 373.143 12.4933 373.877 15.28C374.757 17.92 375.197 20.7067 375.197 23.64C375.197 29.36 373.95 33.4667 371.457 35.96C369.11 38.3067 365.883 39.48 361.777 39.48H315.577V64.34H363.757C364.93 65.9533 365.883 68.08 366.617 70.72C367.497 73.36 367.937 76.1467 367.937 79.08C367.937 84.6533 366.69 88.6867 364.197 91.18C361.85 93.5267 358.623 94.7 354.517 94.7H316.017V141.12C314.403 141.56 311.837 142 308.317 142.44C304.943 142.88 301.57 143.1 298.197 143.1C294.823 143.1 291.817 142.807 289.177 142.22C286.683 141.78 284.557 140.9 282.797 139.58C281.037 138.26 279.717 136.427 278.837 134.08C277.957 131.733 277.517 128.653 277.517 124.84V29.14C277.517 22.8333 279.35 17.8467 283.017 14.18C286.683 10.5133 291.67 8.68 297.977 8.68H371.237ZM394.392 29.14C394.392 22.8333 396.225 17.8467 399.892 14.18C403.558 10.5133 408.545 8.68 414.852 8.68H487.452C488.478 10.2933 489.358 12.42 490.092 15.06C490.972 17.7 491.412 20.4867 491.412 23.42C491.412 28.9933 490.165 32.9533 487.672 35.3C485.325 37.6467 482.172 38.82 478.212 38.82H431.792V59.28H481.292C482.318 60.8933 483.198 63.02 483.932 65.66C484.812 68.1533 485.252 70.8667 485.252 73.8C485.252 79.3733 484.078 83.3333 481.732 85.68C479.385 88.0267 476.232 89.2 472.272 89.2H431.792V112.3H488.332C489.358 113.913 490.238 116.04 490.972 118.68C491.852 121.32 492.292 124.107 492.292 127.04C492.292 132.613 491.045 136.647 488.552 139.14C486.205 141.487 483.052 142.66 479.092 142.66H414.852C408.545 142.66 403.558 140.827 399.892 137.16C396.225 133.493 394.392 128.507 394.392 122.2V29.14Z" fill="#FAA8AA"/>
<path d="M52.7009 45.86L55.7151 48.4895L52.7009 45.86ZM53.5809 104.6L50.6916 107.366L50.7068 107.382L50.7222 107.398L53.5809 104.6ZM95.8209 112.52L94.4022 108.78L94.3802 108.788L94.3583 108.797L95.8209 112.52ZM107.921 107.02L110.464 103.932L108.39 102.224L106.024 103.498L107.921 107.02ZM113.641 114.5L109.993 116.141L110.044 116.254L110.101 116.363L113.641 114.5ZM105.721 139.8L107.834 143.196L107.844 143.19L107.854 143.184L105.721 139.8ZM47.6409 141.78L46.4147 145.587L47.6409 141.78ZM24.9809 129.02L22.2902 131.98L22.3088 131.997L22.3276 132.013L24.9809 129.02ZM9.58086 107.02L5.87964 108.537L5.89477 108.574L5.91064 108.61L9.58086 107.02ZM9.36086 44.98L5.66855 43.4415L5.66205 43.4571L5.65568 43.4728L9.36086 44.98ZM24.1009 22.76L21.3406 19.865L21.3235 19.8813L21.3067 19.8977L24.1009 22.76ZM46.1009 9.12L44.718 5.36662H44.718L46.1009 9.12ZM104.181 11.1L102.123 14.53L102.138 14.5389L102.153 14.5477L104.181 11.1ZM112.541 37.94L109.24 35.6813L109.24 35.6813L112.541 37.94ZM105.941 44.54L103.752 47.8879L105.929 49.3117L108.114 47.8983L105.941 44.54ZM93.6209 38.16L92.0915 41.8561L92.1133 41.8651L92.1353 41.8739L93.6209 38.16ZM78.6609 35.52V31.52C66.5059 31.52 56.6335 35.267 49.6866 43.2305L52.7009 45.86L55.7151 48.4895C60.7949 42.6664 68.2291 39.52 78.6609 39.52V35.52ZM52.7009 45.86L49.6866 43.2305C42.8323 51.0879 39.6809 61.9063 39.6809 75.12H43.6809H47.6809C47.6809 63.107 50.5428 54.4188 55.7151 48.4895L52.7009 45.86ZM43.6809 75.12H39.6809C39.6809 88.5546 43.1656 99.5057 50.6916 107.366L53.5809 104.6L56.4701 101.834C50.7962 95.9076 47.6809 87.2054 47.6809 75.12H43.6809ZM53.5809 104.6L50.7222 107.398C58.3499 115.191 68.4706 118.94 80.6409 118.94V114.94V110.94C70.2244 110.94 62.3051 107.795 56.4395 101.802L53.5809 104.6ZM80.6409 114.94V118.94C86.9848 118.94 92.5753 118.093 97.2835 116.243L95.8209 112.52L94.3583 108.797C90.8531 110.174 86.3235 110.94 80.6409 110.94V114.94ZM95.8209 112.52L97.2395 116.26C101.649 114.588 105.842 112.682 109.817 110.542L107.921 107.02L106.024 103.498C102.373 105.464 98.4999 107.226 94.4022 108.78L95.8209 112.52ZM107.921 107.02L105.378 110.108C107.399 111.772 108.927 113.771 109.993 116.141L113.641 114.5L117.289 112.859C115.715 109.362 113.43 106.375 110.464 103.932L107.921 107.02ZM113.641 114.5L110.101 116.363C111.208 118.466 111.841 121.1 111.841 124.4H115.841H119.841C119.841 120.073 119.007 116.107 117.181 112.637L113.641 114.5ZM115.841 124.4H111.841C111.841 128.603 109.598 132.627 103.588 136.416L105.721 139.8L107.854 143.184C115.337 138.466 119.841 132.224 119.841 124.4H115.841ZM105.721 139.8L103.608 136.404C97.9591 139.918 88.746 141.96 75.3609 141.96V145.96V149.96C89.2558 149.96 100.283 147.895 107.834 143.196L105.721 139.8ZM75.3609 145.96V141.96C65.9168 141.96 57.0933 140.622 48.867 137.973L47.6409 141.78L46.4147 145.587C55.495 148.512 65.1516 149.96 75.3609 149.96V145.96ZM47.6409 141.78L48.867 137.973C40.7115 135.346 33.6509 131.36 27.6341 126.027L24.9809 129.02L22.3276 132.013C29.2175 138.12 37.2636 142.64 46.4147 145.587L47.6409 141.78ZM24.9809 129.02L27.6716 126.06C21.6784 120.612 16.8614 113.761 13.2511 105.43L9.58086 107.02L5.91064 108.61C9.92695 117.879 15.3766 125.695 22.2902 131.98L24.9809 129.02ZM9.58086 107.02L13.2821 105.503C9.85869 97.15 8.08086 87.0566 8.08086 75.12H4.08086H0.0808592C0.0808592 87.8234 1.96969 98.9966 5.87964 108.537L9.58086 107.02ZM4.08086 75.12H8.08086C8.08086 64.084 9.77913 54.5675 13.066 46.4872L9.36086 44.98L5.65568 43.4728C1.90259 52.6991 0.0808592 63.276 0.0808592 75.12H4.08086ZM9.36086 44.98L13.0532 46.5185C16.535 38.1621 21.16 31.2208 26.895 25.6223L24.1009 22.76L21.3067 19.8977C14.7217 26.3259 9.52007 34.1979 5.66855 43.4415L9.36086 44.98ZM24.1009 22.76L26.8612 25.6549C32.7632 20.0275 39.6249 15.7687 47.4837 12.8734L46.1009 9.12L44.718 5.36662C35.8568 8.63128 28.0519 13.4659 21.3406 19.865L24.1009 22.76ZM46.1009 9.12L47.4837 12.8734C55.3707 9.96761 63.8462 8.5 72.9409 8.5V4.5V0.5C62.9689 0.5 53.551 2.11238 44.718 5.36662L46.1009 9.12ZM72.9409 4.5V8.5C86.0905 8.5 95.6723 10.6596 102.123 14.53L104.181 11.1L106.239 7.67002C98.0227 2.74036 86.7779 0.5 72.9409 0.5V4.5ZM104.181 11.1L102.153 14.5477C108.777 18.4445 111.401 22.943 111.401 28.04H115.401H119.401C119.401 19.3503 114.544 12.5555 106.209 7.65226L104.181 11.1ZM115.401 28.04H111.401C111.401 31.1553 110.634 33.6438 109.24 35.6813L112.541 37.94L115.842 40.1987C118.261 36.6628 119.401 32.5514 119.401 28.04H115.401ZM112.541 37.94L109.24 35.6813C107.592 38.0899 105.759 39.8933 103.768 41.1817L105.941 44.54L108.114 47.8983C111.109 45.96 113.677 43.3634 115.842 40.1987L112.541 37.94ZM105.941 44.54L108.13 41.1921C104.086 38.5481 99.7426 36.3006 95.1064 34.4461L93.6209 38.16L92.1353 41.8739C96.2991 43.5394 100.169 45.5452 103.752 47.8879L105.941 44.54ZM93.6209 38.16L95.1503 34.4639C90.3098 32.461 84.7825 31.52 78.6609 31.52V35.52V39.52C83.9793 39.52 88.4252 40.339 92.0915 41.8561L93.6209 38.16ZM167.967 12.64L165.939 9.19227L164.742 9.89622L164.239 11.1902L167.967 12.64ZM179.187 8.45999L178.191 4.58601L178.177 4.58955L178.164 4.59317L179.187 8.45999ZM213.947 9.78L212.478 13.5006L212.537 13.5236L212.596 13.5448L213.947 9.78ZM224.947 19.68L228.727 18.3715L228.722 18.3569L228.717 18.3423L224.947 19.68ZM233.527 46.3L237.354 45.1353L233.527 46.3ZM242.767 77.76L238.919 78.852L238.921 78.8589L238.923 78.8658L242.767 77.76ZM251.787 109.66L247.933 110.731L247.935 110.738L247.937 110.745L251.787 109.66ZM259.487 137.38L262.524 139.983L263.904 138.373L263.346 136.328L259.487 137.38ZM251.567 142.22L250.302 138.425L250.232 138.449L250.163 138.475L251.567 142.22ZM230.007 143.32L229.037 147.201L229.064 147.207L229.091 147.214L230.007 143.32ZM224.067 140.68L221.568 143.803L221.64 143.861L221.714 143.915L224.067 140.68ZM220.327 136.06L216.695 137.736L216.747 137.848L216.805 137.956L220.327 136.06ZM217.907 129.46L214.037 130.47L214.052 130.529L214.07 130.589L217.907 129.46ZM213.947 114.28L217.818 113.27L217.038 110.28H213.947V114.28ZM174.127 114.28V110.28H171.054L170.262 113.249L174.127 114.28ZM170.607 127.92L166.727 126.95L170.607 127.92ZM167.087 141.56L168.432 145.327L170.411 144.62L170.952 142.591L167.087 141.56ZM160.487 143.32L159.75 139.389L159.602 139.416L159.456 139.455L160.487 143.32ZM135.627 140.46L133.227 143.66L133.301 143.716L133.378 143.768L135.627 140.46ZM131.227 123.52L127.381 122.421L131.227 123.52ZM133.207 116.26L137.075 117.278L137.077 117.271L137.079 117.264L133.207 116.26ZM137.387 101.52L133.583 100.284L133.569 100.327L133.556 100.371L137.387 101.52ZM143.547 82.6L147.35 83.8401L147.354 83.8281L147.358 83.8162L143.547 82.6ZM150.587 61.48L146.808 60.1689L150.587 61.48ZM157.627 41.24L161.404 42.5575L161.409 42.5441L161.413 42.5307L157.627 41.24ZM163.567 24.08L159.831 22.6515L159.812 22.6999L159.795 22.7487L163.567 24.08ZM194.367 41.02V37.02H191.484L190.572 39.7551L194.367 41.02ZM187.327 61.7L183.547 60.3916L183.54 60.4133L183.532 60.4351L187.327 61.7ZM180.507 84.58L176.64 83.5584L175.313 88.58H180.507V84.58ZM207.787 84.58V88.58H212.956L211.659 83.5762L207.787 84.58ZM201.407 61.48L197.545 62.5199L197.557 62.5644L197.57 62.6087L201.407 61.48ZM195.687 41.02L199.526 39.8964L198.684 37.02H195.687V41.02ZM167.967 12.64L169.995 16.0877C172.02 14.8965 175.347 13.6142 180.211 12.3268L179.187 8.45999L178.164 4.59317C173.054 5.94576 168.901 7.4502 165.939 9.19227L167.967 12.64ZM179.187 8.45999L180.183 12.334C185.002 11.0949 189.801 10.48 194.587 10.48V6.47999V2.47999C189.107 2.47999 183.639 3.18507 178.191 4.58601L179.187 8.45999ZM194.587 6.47999V10.48C201.527 10.48 207.465 11.5215 212.478 13.5006L213.947 9.78L215.416 6.05938C209.283 3.63853 202.314 2.47999 194.587 2.47999V6.47999ZM213.947 9.78L212.596 13.5448C217.506 15.3074 220.067 17.8869 221.177 21.0176L224.947 19.68L228.717 18.3423C226.601 12.3797 221.828 8.35926 215.299 6.01522L213.947 9.78ZM224.947 19.68L221.167 20.9884C223.787 28.5555 226.631 37.379 229.7 47.4646L233.527 46.3L237.354 45.1353C234.263 34.981 231.388 26.0578 228.727 18.3715L224.947 19.68ZM233.527 46.3L229.7 47.4646C232.773 57.559 235.846 68.0214 238.919 78.852L242.767 77.76L246.615 76.668C243.529 65.792 240.442 55.281 237.354 45.1353L233.527 46.3ZM242.767 77.76L238.923 78.8658C242 89.561 245.003 100.183 247.933 110.731L251.787 109.66L255.641 108.589C252.705 98.0175 249.695 87.3724 246.611 76.6542L242.767 77.76ZM251.787 109.66L247.937 110.745C250.868 121.15 253.432 130.379 255.628 138.432L259.487 137.38L263.346 136.328C261.143 128.248 258.573 118.997 255.637 108.575L251.787 109.66ZM259.487 137.38L256.45 134.777C255.306 136.112 253.38 137.399 250.302 138.425L251.567 142.22L252.832 146.015C256.794 144.694 260.148 142.755 262.524 139.983L259.487 137.38ZM251.567 142.22L250.163 138.475C247.2 139.586 243.519 140.2 239.027 140.2V144.2V148.2C244.216 148.2 248.894 147.494 252.972 145.965L251.567 142.22ZM239.027 144.2V140.2C235.71 140.2 233.028 139.922 230.923 139.426L230.007 143.32L229.091 147.214C231.973 147.892 235.305 148.2 239.027 148.2V144.2ZM230.007 143.32L230.977 139.439C229.025 138.951 227.54 138.26 226.42 137.445L224.067 140.68L221.714 143.915C223.821 145.447 226.295 146.515 229.037 147.201L230.007 143.32ZM224.067 140.68L226.566 137.557C225.579 136.767 224.659 135.668 223.849 134.164L220.327 136.06L216.805 137.956C218.048 140.265 219.622 142.247 221.568 143.803L224.067 140.68ZM220.327 136.06L223.959 134.384C223.177 132.69 222.435 130.679 221.745 128.331L217.907 129.46L214.07 130.589C214.846 133.227 215.717 135.617 216.695 137.736L220.327 136.06ZM217.907 129.46L221.778 128.45L217.818 113.27L213.947 114.28L210.077 115.29L214.037 130.47L217.907 129.46ZM213.947 114.28V110.28H174.127V114.28V118.28H213.947V114.28ZM174.127 114.28L170.262 113.249C169.083 117.671 167.905 122.238 166.727 126.95L170.607 127.92L174.488 128.89C175.656 124.216 176.824 119.689 177.992 115.311L174.127 114.28ZM170.607 127.92L166.727 126.95C165.558 131.624 164.39 136.151 163.222 140.529L167.087 141.56L170.952 142.591C172.131 138.169 173.31 133.602 174.488 128.89L170.607 127.92ZM167.087 141.56L165.742 137.793C163.904 138.449 161.909 138.984 159.75 139.389L160.487 143.32L161.224 147.251C163.758 146.776 166.163 146.137 168.432 145.327L167.087 141.56ZM160.487 143.32L159.456 139.455C157.7 139.923 155.358 140.2 152.347 140.2V144.2V148.2C155.79 148.2 158.874 147.89 161.518 147.185L160.487 143.32ZM152.347 144.2V140.2C145.176 140.2 140.564 138.98 137.876 137.152L135.627 140.46L133.378 143.768C138.024 146.927 144.559 148.2 152.347 148.2V144.2ZM135.627 140.46L138.027 137.26C135.553 135.404 134.347 133.017 134.347 129.68H130.347H126.347C126.347 135.436 128.661 140.236 133.227 143.66L135.627 140.46ZM130.347 129.68H134.347C134.347 128.013 134.585 126.329 135.073 124.619L131.227 123.52L127.381 122.421C126.696 124.817 126.347 127.24 126.347 129.68H130.347ZM131.227 123.52L135.073 124.619C135.67 122.531 136.337 120.083 137.075 117.278L133.207 116.26L129.339 115.242C128.61 118.01 127.958 120.402 127.381 122.421L131.227 123.52ZM133.207 116.26L137.079 117.264C138.089 113.37 139.467 108.509 141.218 102.669L137.387 101.52L133.556 100.371C131.788 106.264 130.379 111.23 129.335 115.256L133.207 116.26ZM137.387 101.52L141.191 102.756C143.097 96.8911 145.15 90.5857 147.35 83.8401L143.547 82.6L139.744 81.3599C137.544 88.1077 135.49 94.4156 133.583 100.284L137.387 101.52ZM143.547 82.6L147.358 83.8162C149.547 76.9562 151.883 69.9478 154.366 62.7911L150.587 61.48L146.808 60.1689C144.304 67.3855 141.947 74.4572 139.736 81.3838L143.547 82.6ZM150.587 61.48L154.366 62.7911C156.859 55.6063 159.205 48.8618 161.404 42.5575L157.627 41.24L153.85 39.9225C151.649 46.2316 149.302 52.9804 146.808 60.1689L150.587 61.48ZM157.627 41.24L161.413 42.5307C163.61 36.0873 165.585 30.3812 167.339 25.4113L163.567 24.08L159.795 22.7487C158.029 27.7521 156.044 33.4861 153.841 39.9493L157.627 41.24ZM163.567 24.08L167.303 25.5085C169.209 20.5239 170.673 16.719 171.695 14.0898L167.967 12.64L164.239 11.1902C163.208 13.841 161.738 17.6627 159.831 22.6515L163.567 24.08ZM194.367 41.02L190.572 39.7551C188.525 45.8976 186.183 52.7761 183.547 60.3916L187.327 61.7L191.107 63.0084C193.751 55.3706 196.103 48.4624 198.162 42.2849L194.367 41.02ZM187.327 61.7L183.532 60.4351C181.012 67.997 178.714 75.7048 176.64 83.5584L180.507 84.58L184.374 85.6016C186.407 77.9085 188.656 70.363 191.122 62.9649L187.327 61.7ZM180.507 84.58V88.58H207.787V84.58V80.58H180.507V84.58ZM207.787 84.58L211.659 83.5762C209.595 75.6164 207.457 67.8747 205.245 60.3513L201.407 61.48L197.57 62.6087C199.757 70.0453 201.872 77.7036 203.915 85.5838L207.787 84.58ZM201.407 61.48L205.27 60.4401C203.211 52.7923 201.296 45.9436 199.526 39.8964L195.687 41.02L191.848 42.1436C193.598 48.1231 195.497 54.9144 197.545 62.5199L201.407 61.48ZM195.687 41.02V37.02H194.367V41.02V45.02H195.687V41.02ZM371.237 8.68L374.611 6.53249L373.433 4.68H371.237V8.68ZM373.877 15.28L370.009 16.298L370.041 16.4226L370.082 16.5449L373.877 15.28ZM371.457 35.96L374.285 38.7884L371.457 35.96ZM315.577 39.48V35.48H311.577V39.48H315.577ZM315.577 64.34H311.577V68.34H315.577V64.34ZM363.757 64.34L366.992 61.9873L365.794 60.34H363.757V64.34ZM366.617 70.72L362.763 71.7906L362.79 71.8885L362.822 71.9849L366.617 70.72ZM364.197 91.18L367.025 94.0084L364.197 91.18ZM316.017 94.7V90.7H312.017V94.7H316.017ZM316.017 141.12L317.069 144.979L320.017 144.175V141.12H316.017ZM308.317 142.44L307.821 138.471L307.81 138.472L307.799 138.474L308.317 142.44ZM289.177 142.22L290.045 138.315L289.959 138.296L289.872 138.281L289.177 142.22ZM282.797 139.58L280.397 142.78L282.797 139.58ZM278.837 134.08L275.091 135.484L278.837 134.08ZM371.237 8.68L367.862 10.8275C368.585 11.9631 369.333 13.7299 370.009 16.298L373.877 15.28L377.745 14.262C376.954 11.2567 375.942 8.62357 374.611 6.53249L371.237 8.68ZM373.877 15.28L370.082 16.5449C370.819 18.7554 371.197 21.1132 371.197 23.64H375.197H379.197C379.197 20.3001 378.695 17.0846 377.672 14.0151L373.877 15.28ZM375.197 23.64H371.197C371.197 28.9306 370.02 31.7404 368.628 33.1316L371.457 35.96L374.285 38.7884C377.881 35.1929 379.197 29.7894 379.197 23.64H375.197ZM371.457 35.96L368.628 33.1316C367.202 34.5583 365.09 35.48 361.777 35.48V39.48V43.48C366.677 43.48 371.019 42.055 374.285 38.7884L371.457 35.96ZM361.777 39.48V35.48H315.577V39.48V43.48H361.777V39.48ZM315.577 39.48H311.577V64.34H315.577H319.577V39.48H315.577ZM315.577 64.34V68.34H363.757V64.34V60.34H315.577V64.34ZM363.757 64.34L360.522 66.6927C361.33 67.8042 362.113 69.4513 362.763 71.7906L366.617 70.72L370.471 69.6494C369.654 66.7087 368.53 64.1024 366.992 61.9873L363.757 64.34ZM366.617 70.72L362.822 71.9849C363.559 74.1954 363.937 76.5532 363.937 79.08H367.937H371.937C371.937 75.7401 371.435 72.5246 370.412 69.4551L366.617 70.72ZM367.937 79.08H363.937C363.937 84.1882 362.775 86.9446 361.368 88.3516L364.197 91.18L367.025 94.0084C370.605 90.4287 371.937 85.1184 371.937 79.08H367.937ZM364.197 91.18L361.368 88.3516C359.942 89.7784 357.83 90.7 354.517 90.7V94.7V98.7C359.417 98.7 363.759 97.275 367.025 94.0084L364.197 91.18ZM354.517 94.7V90.7H316.017V94.7V98.7H354.517V94.7ZM316.017 94.7H312.017V141.12H316.017H320.017V94.7H316.017ZM316.017 141.12L314.964 137.261C313.642 137.622 311.313 138.034 307.821 138.471L308.317 142.44L308.813 146.409C312.361 145.966 315.165 145.498 317.069 144.979L316.017 141.12ZM308.317 142.44L307.799 138.474C304.596 138.891 301.396 139.1 298.197 139.1V143.1V147.1C301.745 147.1 305.291 146.869 308.834 146.406L308.317 142.44ZM298.197 143.1V139.1C295.047 139.1 292.34 138.825 290.045 138.315L289.177 142.22L288.309 146.125C291.294 146.788 294.6 147.1 298.197 147.1V143.1ZM289.177 142.22L289.872 138.281C287.903 137.933 286.384 137.27 285.197 136.38L282.797 139.58L280.397 142.78C282.73 144.53 285.464 145.627 288.482 146.159L289.177 142.22ZM282.797 139.58L285.197 136.38C284.129 135.579 283.232 134.41 282.582 132.676L278.837 134.08L275.091 135.484C276.201 138.444 277.945 140.941 280.397 142.78L282.797 139.58ZM278.837 134.08L282.582 132.676C281.934 130.949 281.517 128.398 281.517 124.84H277.517H273.517C273.517 128.909 273.979 132.518 275.091 135.484L278.837 134.08ZM277.517 124.84H281.517V29.14H277.517H273.517V124.84H277.517ZM277.517 29.14H281.517C281.517 23.6497 283.085 19.7682 285.845 17.0084L283.017 14.18L280.188 11.3516C275.615 15.9252 273.517 22.0169 273.517 29.14H277.517ZM283.017 14.18L285.845 17.0084C288.605 14.2487 292.487 12.68 297.977 12.68V8.68V4.68C290.854 4.68 284.762 6.77797 280.188 11.3516L283.017 14.18ZM297.977 8.68V12.68H371.237V8.68V4.68H297.977V8.68ZM487.452 8.68L490.826 6.53249L489.648 4.68H487.452V8.68ZM490.092 15.06L486.238 16.1306L486.265 16.2285L486.297 16.3249L490.092 15.06ZM487.672 35.3L484.93 32.3872L484.886 32.4287L484.843 32.4716L487.672 35.3ZM431.792 38.82V34.82H427.792V38.82H431.792ZM431.792 59.28H427.792V63.28H431.792V59.28ZM481.292 59.28L484.666 57.1325L483.488 55.28H481.292V59.28ZM483.932 65.66L480.078 66.7306L480.114 66.8623L480.16 66.9913L483.932 65.66ZM431.792 89.2V85.2H427.792V89.2H431.792ZM431.792 112.3H427.792V116.3H431.792V112.3ZM488.332 112.3L491.706 110.152L490.528 108.3H488.332V112.3ZM490.972 118.68L487.118 119.751L487.145 119.848L487.177 119.945L490.972 118.68ZM488.552 139.14L485.723 136.312L488.552 139.14ZM399.892 137.16L402.72 134.332L399.892 137.16ZM394.392 29.14H398.392C398.392 23.6497 399.96 19.7682 402.72 17.0084L399.892 14.18L397.063 11.3516C392.49 15.9252 390.392 22.0169 390.392 29.14H394.392ZM399.892 14.18L402.72 17.0084C405.48 14.2487 409.362 12.68 414.852 12.68V8.68V4.68C407.729 4.68 401.637 6.77797 397.063 11.3516L399.892 14.18ZM414.852 8.68V12.68H487.452V8.68V4.68H414.852V8.68ZM487.452 8.68L484.077 10.8275C484.822 11.9977 485.569 13.7214 486.238 16.1306L490.092 15.06L493.946 13.9894C493.148 11.1186 492.135 8.58897 490.826 6.53249L487.452 8.68ZM490.092 15.06L486.297 16.3249C487.034 18.5354 487.412 20.8932 487.412 23.42H491.412H495.412C495.412 20.0801 494.91 16.8646 493.887 13.7951L490.092 15.06ZM491.412 23.42H487.412C487.412 28.558 486.238 31.1566 484.93 32.3872L487.672 35.3L490.413 38.2128C494.092 34.7501 495.412 29.4287 495.412 23.42H491.412ZM487.672 35.3L484.843 32.4716C483.389 33.9258 481.331 34.82 478.212 34.82V38.82V42.82C483.013 42.82 487.261 41.3676 490.5 38.1284L487.672 35.3ZM478.212 38.82V34.82H431.792V38.82V42.82H478.212V38.82ZM431.792 38.82H427.792V59.28H431.792H435.792V38.82H431.792ZM431.792 59.28V63.28H481.292V59.28V55.28H431.792V59.28ZM481.292 59.28L477.917 61.4275C478.662 62.5977 479.409 64.3214 480.078 66.7306L483.932 65.66L487.786 64.5894C486.988 61.7186 485.975 59.189 484.666 57.1325L481.292 59.28ZM483.932 65.66L480.16 66.9913C480.873 69.0128 481.252 71.2708 481.252 73.8H485.252H489.252C489.252 70.4625 488.75 67.2938 487.704 64.3287L483.932 65.66ZM485.252 73.8H481.252C481.252 78.9917 480.127 81.6275 478.903 82.8516L481.732 85.68L484.56 88.5084C488.03 85.0392 489.252 79.755 489.252 73.8H485.252ZM481.732 85.68L478.903 82.8516C477.449 84.3058 475.391 85.2 472.272 85.2V89.2V93.2C477.073 93.2 481.321 91.7476 484.56 88.5084L481.732 85.68ZM472.272 89.2V85.2H431.792V89.2V93.2H472.272V89.2ZM431.792 89.2H427.792V112.3H431.792H435.792V89.2H431.792ZM431.792 112.3V116.3H488.332V112.3V108.3H431.792V112.3ZM488.332 112.3L484.957 114.447C485.702 115.618 486.449 117.341 487.118 119.751L490.972 118.68L494.826 117.609C494.028 114.739 493.015 112.209 491.706 110.152L488.332 112.3ZM490.972 118.68L487.177 119.945C487.914 122.155 488.292 124.513 488.292 127.04H492.292H496.292C496.292 123.7 495.79 120.485 494.767 117.415L490.972 118.68ZM492.292 127.04H488.292C488.292 132.148 487.13 134.905 485.723 136.312L488.552 139.14L491.38 141.968C494.96 138.389 496.292 133.078 496.292 127.04H492.292ZM488.552 139.14L485.723 136.312C484.269 137.766 482.211 138.66 479.092 138.66V142.66V146.66C483.893 146.66 488.141 145.208 491.38 141.968L488.552 139.14ZM479.092 142.66V138.66H414.852V142.66V146.66H479.092V142.66ZM414.852 142.66V138.66C409.362 138.66 405.48 137.091 402.72 134.332L399.892 137.16L397.063 139.988C401.637 144.562 407.729 146.66 414.852 146.66V142.66ZM399.892 137.16L402.72 134.332C399.96 131.572 398.392 127.69 398.392 122.2H394.392H390.392C390.392 129.323 392.49 135.415 397.063 139.988L399.892 137.16ZM394.392 122.2H398.392V29.14H394.392H390.392V122.2H394.392Z" fill="#E98680" mask="url(#path-1-outside-1_248_143)"/>
</svg>
