<svg width="460" height="226" viewBox="0 0 460 226" fill="none" xmlns="http://www.w3.org/2000/svg">
<path d="M262.429 18.4686C281.068 14.7192 299.553 14.8696 322.62 18.1357L324.866 18.4617L325.033 18.4871L325.197 18.533L327.946 19.3208C356.16 27.488 377.998 36.5753 394.3 51.0961C411.109 66.0685 421.773 86.5775 427.826 117.044C434.218 122.248 441.267 128.694 447.104 135.975C453.057 143.402 457.876 151.851 459.319 160.862C460.78 169.978 458.748 179.471 451.367 188.748C444.279 197.655 432.335 206.277 414.04 214.328L412.249 215.105C412.105 215.167 411.947 215.223 411.781 215.269L411.611 215.312C396.636 218.677 376.913 219.289 360.603 219.273C352.429 219.265 345.018 219.097 339.469 219.026C336.679 218.99 334.377 218.979 332.655 219.021C331.792 219.042 331.112 219.077 330.608 219.123C330.172 219.163 329.993 219.202 329.97 219.205L329.995 219.194C327.859 219.975 321.254 222.179 313.078 223.799C305.203 225.36 295.621 226.43 287.119 224.999L286.3 224.853C285.776 224.754 285.295 224.541 284.886 224.252L284.714 224.125C279.321 219.808 276.232 215.568 276.471 210.394C276.659 206.334 278.92 202.208 282.364 197.598C275.561 198.572 270.055 198.51 265.151 197.007C259.555 195.293 255.072 191.81 250.44 186.641C250.299 186.746 250.161 186.843 250.027 186.927C249.162 187.471 248.117 187.853 247.076 188.132C244.971 188.696 242.328 188.979 239.702 189.009C237.066 189.039 234.292 188.815 231.908 188.286C230.717 188.022 229.558 187.668 228.541 187.192C228.486 187.166 228.432 187.138 228.377 187.111C226.855 188.735 224.893 190.143 223.198 191.251C221.9 192.099 220.615 192.861 219.562 193.484C218.445 194.145 217.712 194.581 217.327 194.863C216.981 195.115 216.637 195.24 216.5 195.287C216.317 195.352 216.134 195.401 215.979 195.438C215.666 195.513 215.299 195.58 214.912 195.641C214.129 195.764 213.082 195.893 211.829 196.027C209.314 196.297 205.827 196.607 201.657 196.954C193.29 197.651 182.147 198.505 170.272 199.536C146.418 201.606 120.188 204.34 108.336 207.755L108.187 207.798L108.035 207.823C100.944 208.986 95.1964 208.431 89.3302 206.143C83.8125 203.992 78.2802 200.335 71.5089 195.45C63.8797 196.228 57.8711 196.429 52.2596 195.701C46.7312 194.984 41.7068 193.383 35.9654 190.709L34.8078 190.16C34.6103 190.064 34.4201 189.951 34.2431 189.821L34.0698 189.686C30.822 186.984 28.5833 184.065 27.4999 180.868C26.4041 177.635 26.5678 174.344 27.7292 171.066C29.9872 164.693 36.0851 158.193 44.461 151.363L44.6633 151.209C45.6294 150.53 46.8794 150.368 47.9848 150.755L48.2191 150.845L50.8036 151.945C77.0896 163.02 92.1286 165.933 117.814 167.862C155.47 163.67 181.801 154.498 195.111 138.442C208.021 122.869 209.303 99.9481 194.79 66.3185L194.087 64.7098C193.797 64.0548 193.707 63.2969 193.876 62.5564L197.803 45.3289L197.852 45.1405C198.12 44.2116 198.771 43.4418 199.622 42.9988L201.895 41.8225C225.223 29.8095 243.824 22.2112 262.429 18.4686ZM323.963 22.6363C300.301 19.1378 281.914 18.9158 263.497 22.6206C245.159 26.3095 226.626 33.9241 202.686 46.3455L199.019 62.4279C214.354 97.3395 213.985 122.924 199.132 140.841C184.658 158.3 157.056 167.606 120.053 171.902L118.284 172.102C118.115 172.12 117.943 172.128 117.772 172.123L117.601 172.114C108.794 171.455 101.187 170.675 93.9525 169.506C93.6933 169.729 93.3846 169.904 93.0342 170.013C88.4058 171.442 83.2209 175.841 79.4076 180.746C77.531 183.159 76.0971 185.557 75.277 187.567C74.8667 188.573 74.6384 189.412 74.558 190.062C74.5284 190.302 74.5212 190.494 74.526 190.644C81.3276 195.552 86.4019 198.863 91.2668 200.76C96.14 202.66 100.893 203.17 107.09 202.171C119.622 198.605 146.316 195.857 169.851 193.815C181.726 192.784 192.943 191.923 201.253 191.231C205.422 190.884 208.854 190.58 211.3 190.317C212.528 190.185 213.473 190.068 214.125 189.965C214.349 189.929 214.518 189.897 214.641 189.872C215.228 189.478 216 189.022 216.773 188.564C216.827 188.533 216.88 188.501 216.934 188.469C217.994 187.842 219.186 187.134 220.374 186.358C222.883 184.717 224.856 183.084 225.603 181.707L225.803 181.338L226.116 181.052C228.747 178.645 230.177 177.123 231.016 175.961C231.784 174.897 232.065 174.126 232.282 173.116C232.572 171.765 233.931 170.899 235.316 171.182C236.702 171.465 237.59 172.79 237.3 174.141C236.962 175.713 236.436 177.137 235.209 178.837C234.446 179.895 233.421 181.041 232.043 182.404C232.359 182.498 232.705 182.588 233.078 182.671C234.976 183.092 237.334 183.295 239.674 183.268C242.024 183.241 244.201 182.985 245.75 182.57C246.516 182.365 247.001 182.153 247.259 181.995C247.575 181.175 248.31 180.585 249.174 180.423C251.384 171.825 253.977 164.879 258.893 160.205C263.597 155.734 270.05 153.661 279.141 153.524C264.807 143.359 258.918 126.517 263.12 109.861C267.609 92.0668 283.473 74.84 311.926 65.7947C313.271 65.3669 314.719 66.0837 315.158 67.3956C315.597 68.7078 314.862 70.1188 313.516 70.5467C286.352 79.1822 272.074 95.2965 268.099 111.054C264.123 126.814 270.31 142.572 284.866 151.245L285.044 151.358C286.826 152.553 286.724 154.633 286.436 155.638C286.151 156.63 285.107 158.527 282.874 158.565L282.654 158.562C272.209 158.177 266.342 160.103 262.472 163.783C258.566 167.496 256.235 173.389 253.998 182.229C258.456 187.279 262.266 190.132 266.721 191.497C271.312 192.904 276.945 192.841 285.277 191.315C294.832 181.618 310.196 177.336 327.017 175.485C344.092 173.607 363.31 174.177 380.775 174.623C388.916 173.612 395.283 172.431 400.093 170.927C404.957 169.407 407.934 167.644 409.603 165.678C411.173 163.826 411.814 161.517 411.349 158.257C410.899 155.103 409.426 151.193 406.856 146.298L406.327 145.305L406.217 145.073C405.731 143.898 406.226 142.532 407.401 141.929C408.575 141.326 410.012 141.7 410.73 142.756L410.863 142.976L411.412 144.005C414.094 149.11 415.862 153.608 416.427 157.568C417.044 161.896 416.233 165.705 413.554 168.863C410.973 171.905 406.902 174.046 401.658 175.686C396.71 177.233 390.453 178.413 382.85 179.402L381.312 179.597C381.224 179.608 381.134 179.615 381.043 179.619L380.765 179.623C363.16 179.174 344.281 178.616 327.592 180.452C311.021 182.275 297.229 186.405 288.981 194.769C289.271 195.553 289.156 196.459 288.59 197.162C283.883 203.01 281.768 206.805 281.625 209.877C281.5 212.575 282.921 215.384 287.697 219.273C295.33 220.63 304.322 219.699 312.09 218.159C319.942 216.603 326.282 214.482 328.227 213.772L328.459 213.694C329.013 213.528 329.638 213.452 330.16 213.404C330.832 213.343 331.643 213.305 332.557 213.282C334.387 213.237 336.777 213.25 339.569 213.285C345.186 213.357 352.506 213.524 360.64 213.532C376.89 213.549 396.014 212.926 410.346 209.73C429.164 201.653 440.77 193.208 447.348 184.941C453.875 176.739 455.526 168.63 454.287 160.89C453.03 153.045 448.766 145.382 443.096 138.31C437.794 131.696 431.373 125.733 425.355 120.778L424.158 119.8C423.492 119.262 423.076 118.527 422.926 117.76L422.646 116.358C416.704 87.0903 406.471 67.9361 390.873 54.0426C374.981 39.8872 353.262 30.9501 323.963 22.6363ZM47.0295 155.793C39.1464 162.311 34.2872 167.867 32.5758 172.697C31.7268 175.093 31.6741 177.252 32.3685 179.301C33.063 181.35 34.5798 183.505 37.2562 185.763C43.0535 188.545 47.7889 190.079 52.9366 190.746C57.5995 191.351 62.7069 191.259 69.393 190.634C69.4042 190.491 69.4187 190.349 69.436 190.208C69.585 189.002 69.9646 187.73 70.4815 186.463C71.5159 183.928 73.2157 181.137 75.29 178.469C78.0789 174.882 81.7491 171.259 85.7342 168.72C73.9527 166.208 62.3263 162.321 47.0295 155.793Z" fill="#E0A472"/>
<path d="M323.963 22.6363C300.301 19.1378 281.914 18.9158 263.497 22.6206C245.159 26.3095 226.626 33.9241 202.686 46.3455L199.019 62.4279C214.354 97.3395 213.985 122.924 199.132 140.841C184.658 158.3 157.056 167.606 120.053 171.902L118.284 172.102C118.115 172.12 117.943 172.128 117.772 172.123L117.601 172.114C108.794 171.455 101.187 170.675 93.9525 169.506C93.6933 169.729 93.3846 169.904 93.0342 170.013C88.4058 171.442 83.2209 175.841 79.4076 180.746C77.531 183.159 76.0971 185.557 75.277 187.567C74.8667 188.573 74.6384 189.412 74.558 190.062C74.5284 190.302 74.5212 190.494 74.526 190.644C81.3276 195.552 86.4019 198.863 91.2668 200.76C96.14 202.66 100.893 203.17 107.09 202.171C119.622 198.605 146.316 195.857 169.851 193.815C181.726 192.784 192.943 191.923 201.253 191.231C205.422 190.884 208.854 190.58 211.3 190.317C212.528 190.185 213.473 190.068 214.125 189.965C214.349 189.929 214.518 189.897 214.641 189.872C215.228 189.478 216 189.022 216.773 188.564L216.934 188.469C217.994 187.842 219.186 187.134 220.374 186.358C222.883 184.717 224.856 183.084 225.603 181.707L225.803 181.338L226.116 181.052C228.747 178.645 230.177 177.123 231.016 175.961C231.784 174.897 232.065 174.126 232.282 173.116C232.572 171.765 233.931 170.899 235.316 171.182C236.702 171.465 237.59 172.79 237.3 174.141C236.962 175.713 236.436 177.137 235.209 178.837C234.446 179.895 233.421 181.041 232.043 182.404C232.359 182.498 232.705 182.588 233.078 182.671C234.976 183.092 237.334 183.295 239.674 183.268C242.024 183.241 244.201 182.985 245.75 182.57C246.516 182.365 247.001 182.153 247.259 181.995C247.575 181.175 248.31 180.585 249.174 180.423C251.384 171.825 253.977 164.879 258.893 160.205C263.597 155.734 270.05 153.661 279.141 153.524C264.807 143.359 258.918 126.517 263.12 109.861C267.609 92.0668 283.473 74.84 311.926 65.7947C313.271 65.3669 314.719 66.0837 315.158 67.3956C315.597 68.7078 314.862 70.1188 313.516 70.5467C286.352 79.1822 272.074 95.2965 268.099 111.054C264.123 126.814 270.31 142.572 284.866 151.245L285.044 151.358C286.826 152.553 286.724 154.633 286.436 155.638C286.151 156.63 285.107 158.527 282.874 158.565L282.654 158.562C272.209 158.177 266.342 160.103 262.472 163.783C258.566 167.496 256.235 173.389 253.998 182.229C258.456 187.279 262.266 190.132 266.721 191.497C271.312 192.904 276.945 192.841 285.277 191.315C294.832 181.618 310.196 177.336 327.017 175.485C344.092 173.607 363.31 174.177 380.775 174.623C388.916 173.612 395.283 172.431 400.093 170.927C404.957 169.407 407.934 167.644 409.603 165.678C411.173 163.826 411.814 161.517 411.349 158.257C410.899 155.103 409.426 151.193 406.856 146.298L406.327 145.305L406.217 145.073C405.731 143.898 406.226 142.532 407.401 141.929C408.575 141.326 410.012 141.7 410.73 142.756L410.863 142.976L411.412 144.005C414.094 149.11 415.862 153.608 416.427 157.568C417.044 161.896 416.233 165.705 413.554 168.863C410.973 171.905 406.902 174.046 401.658 175.686C396.71 177.233 390.453 178.413 382.85 179.402L381.312 179.597C381.224 179.608 381.134 179.615 381.043 179.619L380.765 179.623C363.16 179.174 344.281 178.616 327.592 180.452C311.021 182.275 297.229 186.405 288.981 194.769C289.271 195.553 289.156 196.459 288.59 197.162C283.883 203.01 281.768 206.805 281.625 209.877C281.5 212.575 282.921 215.384 287.697 219.273C295.33 220.63 304.322 219.699 312.09 218.159C319.942 216.603 326.282 214.482 328.227 213.772L328.459 213.694C329.013 213.528 329.638 213.452 330.16 213.404C330.832 213.343 331.643 213.305 332.557 213.282C334.387 213.237 336.777 213.25 339.569 213.285C345.186 213.357 352.506 213.524 360.64 213.532C376.89 213.549 396.014 212.926 410.346 209.73C429.164 201.653 440.77 193.208 447.348 184.941C453.875 176.739 455.526 168.63 454.287 160.89C453.03 153.045 448.766 145.382 443.096 138.31C437.794 131.696 431.373 125.733 425.355 120.778L424.158 119.8C423.492 119.262 423.076 118.527 422.926 117.76L422.646 116.358C416.704 87.0903 406.471 67.9361 390.873 54.0426C374.981 39.8872 353.262 30.9501 323.963 22.6363Z" fill="#FAC492"/>
<path d="M47.0295 155.793C39.1464 162.311 34.2872 167.867 32.5758 172.697C31.7268 175.093 31.6741 177.252 32.3685 179.301C33.063 181.35 34.5798 183.505 37.2562 185.763C43.0535 188.545 47.7889 190.079 52.9366 190.746C57.5995 191.351 62.7069 191.259 69.393 190.634C69.4042 190.491 69.4187 190.349 69.436 190.208C69.585 189.002 69.9646 187.73 70.4815 186.463C71.5159 183.928 73.2157 181.137 75.29 178.469C78.0789 174.882 81.7491 171.259 85.7342 168.72C73.9527 166.208 62.3263 162.321 47.0295 155.793Z" fill="#FAC492"/>
<path d="M119.927 167.957C88.2364 168.927 -6.51599 153.854 30.4093 70.1715C30.4721 70.0292 30.5048 69.8621 30.4975 69.7067C28.7496 32.4342 29.751 15.0421 41.1375 2.87719C41.3905 2.60685 41.7811 2.50484 42.1366 2.6087C59.3119 7.62747 69.06 13.1244 85.273 29.4403C85.7567 29.927 85.6137 30.7537 84.9956 31.0519C75.6871 35.5439 75.1952 36.2101 76.5678 36.4145C76.7163 36.4367 76.8723 36.4158 77.0138 36.3655C105.227 26.3418 120.457 25.2903 146.023 36.3546C146.156 36.412 146.28 36.5029 146.379 36.6082C149.351 39.7756 150.808 36.6426 140.09 31.1049C139.463 30.7811 139.342 29.9209 139.864 29.4455C160.638 10.4928 172.889 -0.118284 187.822 2.35466C188.126 2.40508 188.39 2.59882 188.531 2.87384C195.632 16.8137 197.885 34.3208 195.692 63.6612C195.679 63.8453 195.721 64.0428 195.805 64.2071C240.161 150.842 151.615 166.988 119.927 167.957Z" fill="#FAC592" stroke="#E1A775" stroke-width="4" stroke-linecap="round"/>
<path d="M193.26 101.227C207.3 97.6798 215.112 97.3644 229 98.8025M190.107 114.801C203.623 115.142 210.559 116.462 221.642 121.104M3 98.8025C15.5199 97.7136 22.5446 98.5319 35.0605 101.227M10.8837 123.043C21.7991 114.97 28.5651 114.448 40.8419 114.801M114.423 114.801C117.49 110.129 119.776 107.474 122.344 103.044C122.765 102.319 122.132 101.42 121.295 101.478C115.011 101.913 107.242 99.8519 106.014 101.227C104.647 102.757 112.175 111.337 114.423 114.801ZM114.423 114.801C123.204 126.165 128.855 126.034 139.651 119.649M114.423 116.255C107.191 125.527 101.615 125.78 89.1954 118.195" stroke="#B07945" stroke-width="5" stroke-linecap="round"/>
<path d="M139 90.0449C152.262 82.9892 158.776 83.359 170 91" stroke="#B07945" stroke-width="8" stroke-linecap="round"/>
<path d="M62 91C73.2329 84.6166 79.3565 84.056 90 91" stroke="#B07945" stroke-width="8" stroke-linecap="round"/>
<path d="M40 189.5C37.3464 180.615 37.795 177.617 44.4999 173.5M55 193C56.9276 195.023 48.098 183.831 59 177M84.4999 200.5C81.2993 192.887 83.0867 189.204 88.4999 183M95.9999 203C93.9058 197.339 95.1503 194.713 99.4999 190.5M259.5 190.5C260.541 181.04 262.182 177.315 267 173.5" stroke="#E0A472" stroke-width="5" stroke-linecap="round"/>
</svg>
