<svg width="1920" height="148" viewBox="0 0 1920 148" fill="none" xmlns="http://www.w3.org/2000/svg">
<rect x="-31.5" y="2.5" width="1959" height="71" fill="#FFCDCD"/>
<rect x="-31.5" y="2.5" width="1959" height="71" stroke="#FAA8AA" stroke-width="5"/>
<path d="M26.0668 135.283C37.5373 142.478 54.1364 147 72.6001 147C91.0639 147 107.663 142.478 119.133 135.283V76H26.0668V105.641V135.283Z" fill="#FFBEBF"/>
<path d="M119.133 135.283C130.604 142.478 147.203 147 165.667 147C184.131 147 200.73 142.478 212.2 135.283V76H119.133V135.283Z" fill="#FFDCD8"/>
<path d="M212.2 135.283C223.671 142.478 240.27 147 258.733 147C277.197 147 293.796 142.478 305.267 135.283V76H212.2V135.283Z" fill="#FFBEBF"/>
<path d="M26.0668 135.283V105.641V76H-67V135.283C-55.5294 142.478 -38.9304 147 -20.4667 147C-2.00293 147 14.5962 142.478 26.0668 135.283Z" fill="#FFDCD8"/>
<path d="M305.267 135.283C316.737 142.478 333.336 147 351.8 147C370.264 147 386.863 142.478 398.333 135.283V76H305.267V135.283Z" fill="#FFDCD8"/>
<path d="M398.333 135.283C409.804 142.478 426.403 147 444.867 147C463.331 147 479.93 142.478 491.4 135.283V76H398.333V135.283Z" fill="#FFBEBF"/>
<path d="M491.4 135.283C502.871 142.478 519.47 147 537.933 147C556.397 147 572.996 142.478 584.467 135.283V76H491.4V135.283Z" fill="#FFDCD8"/>
<path d="M584.467 135.283C595.937 142.478 612.536 147 631 147C649.464 147 666.063 142.478 677.533 135.283V76H584.467V135.283Z" fill="#FFBEBF"/>
<path d="M677.533 135.283C689.004 142.478 705.603 147 724.067 147C742.53 147 759.13 142.478 770.6 135.283V76H677.533V135.283Z" fill="#FFDCD8"/>
<path d="M770.6 135.283C782.071 142.478 798.67 147 817.133 147C835.597 147 852.196 142.478 863.667 135.283V76H770.6V135.283Z" fill="#FFBEBF"/>
<path d="M863.667 135.283C875.137 142.478 891.736 147 910.2 147C928.664 147 945.263 142.478 956.733 135.283V76H863.667V135.283Z" fill="#FFDCD8"/>
<path d="M956.733 135.283C968.204 142.478 984.803 147 1003.27 147C1021.73 147 1038.33 142.478 1049.8 135.283V76H956.733V135.283Z" fill="#FFBEBF"/>
<path d="M1049.8 135.283C1061.27 142.478 1077.87 147 1096.33 147C1114.8 147 1131.4 142.478 1142.87 135.283V76H1049.8V135.283Z" fill="#FFDCD8"/>
<path d="M1142.87 135.283C1154.34 142.478 1170.94 147 1189.4 147C1207.86 147 1224.46 142.478 1235.93 135.283V76H1142.87V135.283Z" fill="#FFBEBF"/>
<path d="M1235.93 135.283C1247.4 142.478 1264 147 1282.47 147C1300.93 147 1317.53 142.478 1329 135.283V76H1235.93V135.283Z" fill="#FFDCD8"/>
<path d="M1329.5 75.5V135.56L1329.27 135.706C1317.7 142.961 1301 147.5 1282.47 147.5C1264.07 147.5 1247.49 143.027 1235.93 135.868C1224.38 143.027 1207.8 147.5 1189.4 147.5C1171 147.5 1154.42 143.027 1142.87 135.868C1131.31 143.027 1114.73 147.5 1096.33 147.5C1077.94 147.5 1061.36 143.027 1049.8 135.868C1038.24 143.027 1021.66 147.5 1003.27 147.5C984.87 147.5 968.288 143.027 956.732 135.868C945.177 143.027 928.596 147.5 910.2 147.5C891.803 147.5 875.221 143.027 863.666 135.868C852.111 143.027 835.53 147.5 817.134 147.5C798.737 147.5 782.155 143.027 770.6 135.868C759.044 143.027 742.463 147.5 724.066 147.5C705.67 147.5 689.088 143.027 677.533 135.868C665.978 143.027 649.396 147.5 631 147.5C612.603 147.5 596.021 143.027 584.466 135.868C572.911 143.027 556.33 147.5 537.934 147.5C519.537 147.5 502.955 143.027 491.399 135.868C479.844 143.027 463.263 147.5 444.867 147.5C426.47 147.5 409.888 143.027 398.333 135.868C386.778 143.027 370.196 147.5 351.8 147.5C333.403 147.5 316.822 143.027 305.267 135.868C293.711 143.027 277.13 147.5 258.733 147.5C240.337 147.5 223.755 143.027 212.199 135.868C200.644 143.027 184.063 147.5 165.667 147.5C147.27 147.5 130.688 143.027 119.133 135.868C107.578 143.027 90.9967 147.5 72.6006 147.5C54.2039 147.5 37.6218 143.027 26.0664 135.868C14.5111 143.027 -2.07037 147.5 -20.4668 147.5C-39.0038 147.5 -55.6996 142.961 -67.2656 135.706L-67.5 135.56V75.5H1329.5Z" stroke="#FDACB0"/>
<path d="M1325.07 135.283C1336.54 142.478 1353.14 147 1371.6 147C1390.06 147 1406.66 142.478 1418.13 135.283V76H1325.07V105.641V135.283Z" fill="#FFBEBF"/>
<path d="M1418.13 135.283C1429.6 142.478 1446.2 147 1464.67 147C1483.13 147 1499.73 142.478 1511.2 135.283V76H1418.13V135.283Z" fill="#FFDCD8"/>
<path d="M1511.2 135.283C1522.67 142.478 1539.27 147 1557.73 147C1576.2 147 1592.8 142.478 1604.27 135.283V76H1511.2V135.283Z" fill="#FFBEBF"/>
<path d="M1325.07 135.283V105.641V76H1232V135.283C1243.47 142.478 1260.07 147 1278.53 147C1297 147 1313.6 142.478 1325.07 135.283Z" fill="#FFDCD8"/>
<path d="M1604.27 135.283C1615.74 142.478 1632.34 147 1650.8 147C1669.26 147 1685.86 142.478 1697.33 135.283V76H1604.27V135.283Z" fill="#FFDCD8"/>
<path d="M1697.33 135.283C1708.8 142.478 1725.4 147 1743.87 147C1762.33 147 1778.93 142.478 1790.4 135.283V76H1697.33V135.283Z" fill="#FFBEBF"/>
<path d="M1790.4 135.283C1801.87 142.478 1818.47 147 1836.93 147C1855.4 147 1872 142.478 1883.47 135.283V76H1790.4V135.283Z" fill="#FFDCD8"/>
<path d="M1883.47 135.283C1894.94 142.478 1911.54 147 1930 147C1948.46 147 1965.06 142.478 1976.53 135.283V76H1883.47V135.283Z" fill="#FFBEBF"/>
<path d="M1976.53 135.283C1988 142.478 2004.6 147 2023.07 147C2041.53 147 2058.13 142.478 2069.6 135.283V76H1976.53V135.283Z" fill="#FFDCD8"/>
<path d="M2069.6 135.283C2081.07 142.478 2097.67 147 2116.13 147C2134.6 147 2151.2 142.478 2162.67 135.283V76H2069.6V135.283Z" fill="#FFBEBF"/>
<path d="M2162.67 135.283C2174.14 142.478 2190.74 147 2209.2 147C2227.66 147 2244.26 142.478 2255.73 135.283V76H2162.67V135.283Z" fill="#FFDCD8"/>
<path d="M2255.73 135.283C2267.2 142.478 2283.8 147 2302.27 147C2320.73 147 2337.33 142.478 2348.8 135.283V76H2255.73V135.283Z" fill="#FFBEBF"/>
<path d="M2348.8 135.283C2360.27 142.478 2376.87 147 2395.33 147C2413.8 147 2430.4 142.478 2441.87 135.283V76H2348.8V135.283Z" fill="#FFDCD8"/>
<path d="M2441.87 135.283C2453.34 142.478 2469.94 147 2488.4 147C2506.86 147 2523.46 142.478 2534.93 135.283V76H2441.87V135.283Z" fill="#FFBEBF"/>
<path d="M2534.93 135.283C2546.4 142.478 2563 147 2581.47 147C2599.93 147 2616.53 142.478 2628 135.283V76H2534.93V135.283Z" fill="#FFDCD8"/>
<path d="M2628.5 75.5V135.56L2628.27 135.706C2616.7 142.961 2600 147.5 2581.47 147.5C2563.07 147.5 2546.49 143.027 2534.93 135.868C2523.38 143.027 2506.8 147.5 2488.4 147.5C2470 147.5 2453.42 143.027 2441.87 135.868C2430.31 143.027 2413.73 147.5 2395.33 147.5C2376.94 147.5 2360.36 143.027 2348.8 135.868C2337.24 143.027 2320.66 147.5 2302.27 147.5C2283.87 147.5 2267.29 143.027 2255.73 135.868C2244.18 143.027 2227.6 147.5 2209.2 147.5C2190.8 147.5 2174.22 143.027 2162.67 135.868C2151.11 143.027 2134.53 147.5 2116.13 147.5C2097.74 147.5 2081.15 143.027 2069.6 135.868C2058.04 143.027 2041.46 147.5 2023.07 147.5C2004.67 147.5 1988.09 143.027 1976.53 135.868C1964.98 143.027 1948.4 147.5 1930 147.5C1911.6 147.5 1895.02 143.027 1883.47 135.868C1871.91 143.027 1855.33 147.5 1836.93 147.5C1818.54 147.5 1801.95 143.027 1790.4 135.868C1778.84 143.027 1762.26 147.5 1743.87 147.5C1725.47 147.5 1708.89 143.027 1697.33 135.868C1685.78 143.027 1669.2 147.5 1650.8 147.5C1632.4 147.5 1615.82 143.027 1604.27 135.868C1592.71 143.027 1576.13 147.5 1557.73 147.5C1539.34 147.5 1522.75 143.027 1511.2 135.868C1499.64 143.027 1483.06 147.5 1464.67 147.5C1446.27 147.5 1429.69 143.027 1418.13 135.868C1406.58 143.027 1390 147.5 1371.6 147.5C1353.2 147.5 1336.62 143.027 1325.07 135.868C1313.51 143.027 1296.93 147.5 1278.53 147.5C1260 147.5 1243.3 142.961 1231.73 135.706L1231.5 135.56V75.5H2628.5Z" stroke="#FDACB0"/>
</svg>
