<svg width="1919" height="147" viewBox="0 0 1919 147" fill="none" xmlns="http://www.w3.org/2000/svg">
<path d="M-1 135.283C9.761 142.478 24.9279 147 42.2495 147C59.5711 147 75.1433 142.478 85.9043 135.283V76H-1V105.641V135.283Z" fill="#FFBEBF"/>
<path d="M85.9043 135.283C96.6653 142.478 112.238 147 129.559 147C146.881 147 162.453 142.478 173.214 135.283V76H85.9043V135.283Z" fill="#FFDCD8"/>
<path d="M173.214 135.283C183.975 142.478 199.547 147 216.869 147C234.19 147 249.763 142.478 260.524 135.283V76H173.214V135.283Z" fill="#FFBEBF"/>
<path d="M260.524 135.283C271.285 142.478 286.857 147 304.178 147C321.5 147 337.072 142.478 347.833 135.283V76H260.524V135.283Z" fill="#FFDCD8"/>
<path d="M347.833 135.283C358.594 142.478 374.166 147 391.488 147C408.81 147 424.382 142.478 435.143 135.283V76H347.833V135.283Z" fill="#FFBEBF"/>
<path d="M435.143 135.283C445.904 142.478 461.476 147 478.798 147C496.119 147 511.691 142.478 522.452 135.283V76H435.143V135.283Z" fill="#FFDCD8"/>
<path d="M522.452 135.283C533.213 142.478 548.786 147 566.107 147C583.429 147 599.001 142.478 609.762 135.283V76H522.452V135.283Z" fill="#FFBEBF"/>
<path d="M609.762 135.283C620.523 142.478 636.095 147 653.417 147C670.738 147 686.311 142.478 697.072 135.283V76H609.762V135.283Z" fill="#FFDCD8"/>
<path d="M697.072 135.283C707.833 142.478 723.405 147 740.727 147C758.048 147 773.62 142.478 784.381 135.283V76H697.072V135.283Z" fill="#FFBEBF"/>
<path d="M784.381 135.283C795.142 142.478 810.715 147 828.036 147C845.358 147 860.93 142.478 871.691 135.283V76H784.381V135.283Z" fill="#FFDCD8"/>
<path d="M871.691 135.283C882.452 142.478 898.024 147 915.346 147C932.668 147 948.24 142.478 959.001 135.283V76H871.691V135.283Z" fill="#FFBEBF"/>
<path d="M959.001 135.283C969.762 142.478 985.334 147 1002.66 147C1019.98 147 1035.55 142.478 1046.31 135.283V76H959.001V135.283Z" fill="#FFDCD8"/>
<path d="M1046.31 135.283C1057.07 142.478 1072.64 147 1089.97 147C1107.29 147 1122.86 142.478 1133.62 135.283V76H1046.31V135.283Z" fill="#FFBEBF"/>
<path d="M1133.62 135.283C1144.38 142.478 1159.95 147 1177.28 147C1194.6 147 1210.17 142.478 1220.93 135.283V76H1133.62V135.283Z" fill="#FFDCD8"/>
<path d="M1220.52 135.283C1231.28 142.478 1246.86 147 1264.18 147C1281.5 147 1297.07 142.478 1307.83 135.283V76H1220.52V105.641V135.283Z" fill="#FFBEBF"/>
<path d="M1307.83 135.283C1318.59 142.478 1334.17 147 1351.49 147C1368.81 147 1384.38 142.478 1395.14 135.283V76H1307.83V135.283Z" fill="#FFDCD8"/>
<path d="M1395.14 135.283C1405.9 142.478 1421.48 147 1438.8 147C1456.12 147 1471.69 142.478 1482.45 135.283V76H1395.14V135.283Z" fill="#FFBEBF"/>
<path d="M1482.45 135.283C1493.21 142.478 1508.79 147 1526.11 147C1543.43 147 1559 142.478 1569.76 135.283V76H1482.45V135.283Z" fill="#FFDCD8"/>
<path d="M1657.07 135.283C1667.83 142.478 1683.4 147 1700.73 147C1718.05 147 1733.62 142.478 1744.38 135.283V76H1657.07V135.283Z" fill="#FFDCD8"/>
<path d="M1831.69 135.283C1842.45 142.478 1858.02 147 1875.35 147C1892.67 147 1908.24 142.478 1919 135.283V76H1831.69V135.283Z" fill="#FFDCD8"/>
<path d="M1569.76 76V135.283C1580.52 142.478 1596.09 147 1613.42 147C1630.74 147 1646.31 142.478 1657.07 135.283V76H1569.76Z" fill="#FFBEBF"/>
<path d="M1744.38 76V135.283C1755.14 142.478 1770.71 147 1788.04 147C1805.36 147 1820.93 142.478 1831.69 135.283V76H1744.38Z" fill="#FFBEBF"/>
<g clip-path="url(#clip0_429_13)">
<rect width="1920" height="76" transform="translate(-1)" fill="#FFCDCD"/>
<path d="M-1 39.5H1919M-0.999878 0.5H1919" stroke="#FFBEBF" stroke-width="4"/>
</g>
<path d="M-1 75.5H1919" stroke="#FFBEBF"/>
<defs>
<clipPath id="clip0_429_13">
<rect width="1920" height="76" fill="white" transform="translate(-1)"/>
</clipPath>
</defs>
</svg>
