<svg width="472" height="189" viewBox="0 0 472 189" fill="none" xmlns="http://www.w3.org/2000/svg">
<ellipse cx="244.5" cy="168.5" rx="244.5" ry="20.5" fill="#FFA299"/>
<mask id="path-2-outside-1_256_9" maskUnits="userSpaceOnUse" x="13" y="0" width="432" height="169" fill="black">
<rect fill="white" x="13" width="432" height="169"/>
<path d="M223.259 156.019H184.634C182.04 156.019 179.937 158.123 179.937 160.717V162.805C179.937 165.399 182.04 167.502 184.634 167.502H272.844C275.438 167.502 277.541 165.399 277.541 162.805V160.717C277.541 158.123 275.438 156.019 272.844 156.019H234.741V69.8778C232.841 69.8909 230.927 69.8976 229 69.8976C227.073 69.8976 225.159 69.8909 223.259 69.8778V156.019Z"/>
<path d="M330.259 57.3708V47.9756C330.259 55.4963 287.93 61.6411 234.62 62.047C232.76 62.0611 230.886 62.0683 229 62.0683C227.114 62.0683 225.24 62.0611 223.38 62.047C170.07 61.6411 127.741 55.4963 127.741 47.9756V57.3708C127.741 64.0508 170.006 69.5095 223.259 69.8778C225.159 69.8909 227.073 69.8976 229 69.8976C230.927 69.8976 232.841 69.8909 234.741 69.8778C287.994 69.5095 330.259 64.0508 330.259 57.3708Z"/>
<path fill-rule="evenodd" clip-rule="evenodd" d="M223.259 34.0524C170.83 34.4602 129.053 40.2719 127.772 47.6276C127.752 47.7433 127.741 47.8593 127.741 47.9756C127.741 55.4963 170.07 61.6411 223.38 62.047C225.24 62.0611 227.114 62.0683 229 62.0683C230.886 62.0683 232.76 62.0611 234.62 62.047C287.93 61.6411 330.259 55.4963 330.259 47.9756C330.259 47.8593 330.248 47.7433 330.228 47.6276C328.947 40.2719 287.169 34.3131 234.741 33.9052L223.259 34.0524Z"/>
<path d="M432.977 1C439.249 1 443.979 6.68797 442.826 12.8435L428.413 89.7965C427.906 92.5053 426.334 94.7877 424.178 96.2447C422.566 97.3339 420.628 97.9619 418.564 97.9619H411.738H386.026H373.309H363.852H351.134H325.424H316.668C315.283 97.9619 313.986 97.5879 312.872 96.9355C310.647 95.6327 309.153 93.2198 309.153 90.4585V86.7068C309.153 82.5628 312.518 79.2035 316.668 79.2035H357.35L370.609 9.14697C371.503 4.4215 375.638 1 380.454 1H432.977Z"/>
<path fill-rule="evenodd" clip-rule="evenodd" d="M302.677 160.011L312.872 96.9355C313.986 97.5879 315.283 97.9619 316.668 97.9619H325.424L315.011 162.384C314.458 165.803 311.249 168.044 307.843 167.389C304.437 166.733 302.124 163.43 302.677 160.011ZM363.852 97.9619H351.134L361.547 162.384C362.092 165.758 365.225 167.985 368.58 167.413L368.537 167.405C368.507 167.4 368.476 167.394 368.446 167.389C365.04 166.733 362.727 163.43 363.279 160.011L368.58 127.216L363.852 97.9619Z"/>
<path d="M368.446 167.389C365.04 166.733 362.727 163.43 363.279 160.011L368.58 127.216L373.309 97.9619H386.026L375.614 162.384C375.068 165.758 371.936 167.985 368.58 167.413L368.537 167.405C368.507 167.4 368.476 167.394 368.446 167.389Z"/>
<path d="M434.484 160.011C435.037 163.43 432.724 166.733 429.318 167.389C425.912 168.044 422.703 165.803 422.15 162.384L411.738 97.9619H418.564C420.628 97.9619 422.566 97.3339 424.178 96.2447L434.484 160.011Z"/>
<path d="M25.0225 1C18.7508 1 14.0207 6.68797 15.1738 12.8435L29.5865 89.7965C30.0939 92.5053 31.6662 94.7877 33.8222 96.2447C35.4341 97.3339 37.3722 97.9619 39.4356 97.9619H46.2624H71.9736H84.6913H94.148H106.866H132.576H141.332C142.717 97.9619 144.014 97.5879 145.128 96.9355C147.353 95.6327 148.847 93.2198 148.847 90.4585V86.7068C148.847 82.5628 145.482 79.2035 141.332 79.2035H100.65L87.3912 9.14697C86.4968 4.4215 82.3621 1 77.5458 1H25.0225Z"/>
<path fill-rule="evenodd" clip-rule="evenodd" d="M155.323 160.011L145.128 96.9355C144.014 97.5879 142.717 97.9619 141.332 97.9619H132.576L142.989 162.384C143.542 165.803 146.751 168.044 150.157 167.389C153.563 166.733 155.876 163.43 155.323 160.011ZM94.148 97.9619H106.866L96.4532 162.384C95.9078 165.758 92.7753 167.985 89.4196 167.413L89.4628 167.405C89.4932 167.4 89.5236 167.394 89.554 167.389C92.96 166.733 95.2731 163.43 94.7205 160.011L89.4197 127.216L94.148 97.9619Z"/>
<path d="M89.554 167.389C92.96 166.733 95.2731 163.43 94.7205 160.011L89.4197 127.216L84.6913 97.9619H71.9736L82.3862 162.384C82.9316 165.758 86.064 167.985 89.4196 167.413L89.4628 167.405C89.4932 167.4 89.5236 167.394 89.554 167.389Z"/>
<path d="M23.5155 160.011C22.9628 163.43 25.276 166.733 28.682 167.389C32.088 168.044 35.2971 165.803 35.8498 162.384L46.2624 97.9619H39.4356C37.3722 97.9619 35.4341 97.3339 33.8222 96.2447L23.5155 160.011Z"/>
</mask>
<path d="M223.259 156.019H184.634C182.04 156.019 179.937 158.123 179.937 160.717V162.805C179.937 165.399 182.04 167.502 184.634 167.502H272.844C275.438 167.502 277.541 165.399 277.541 162.805V160.717C277.541 158.123 275.438 156.019 272.844 156.019H234.741V69.8778C232.841 69.8909 230.927 69.8976 229 69.8976C227.073 69.8976 225.159 69.8909 223.259 69.8778V156.019Z" fill="#E3B581"/>
<path d="M330.259 57.3708V47.9756C330.259 55.4963 287.93 61.6411 234.62 62.047C232.76 62.0611 230.886 62.0683 229 62.0683C227.114 62.0683 225.24 62.0611 223.38 62.047C170.07 61.6411 127.741 55.4963 127.741 47.9756V57.3708C127.741 64.0508 170.006 69.5095 223.259 69.8778C225.159 69.8909 227.073 69.8976 229 69.8976C230.927 69.8976 232.841 69.8909 234.741 69.8778C287.994 69.5095 330.259 64.0508 330.259 57.3708Z" fill="#CD925E"/>
<path fill-rule="evenodd" clip-rule="evenodd" d="M223.259 34.0524C170.83 34.4602 129.053 40.2719 127.772 47.6276C127.752 47.7433 127.741 47.8593 127.741 47.9756C127.741 55.4963 170.07 61.6411 223.38 62.047C225.24 62.0611 227.114 62.0683 229 62.0683C230.886 62.0683 232.76 62.0611 234.62 62.047C287.93 61.6411 330.259 55.4963 330.259 47.9756C330.259 47.8593 330.248 47.7433 330.228 47.6276C328.947 40.2719 287.169 34.3131 234.741 33.9052L223.259 34.0524Z" fill="#EFC291"/>
<path d="M432.977 1C439.249 1 443.979 6.68797 442.826 12.8435L428.413 89.7965C427.906 92.5053 426.334 94.7877 424.178 96.2447C422.566 97.3339 420.628 97.9619 418.564 97.9619H411.738H386.026H373.309H363.852H351.134H325.424H316.668C315.283 97.9619 313.986 97.5879 312.872 96.9355C310.647 95.6327 309.153 93.2198 309.153 90.4585V86.7068C309.153 82.5628 312.518 79.2035 316.668 79.2035H357.35L370.609 9.14697C371.503 4.4215 375.638 1 380.454 1H432.977Z" fill="#A1C0DB"/>
<path fill-rule="evenodd" clip-rule="evenodd" d="M302.677 160.011L312.872 96.9355C313.986 97.5879 315.283 97.9619 316.668 97.9619H325.424L315.011 162.384C314.458 165.803 311.249 168.044 307.843 167.389C304.437 166.733 302.124 163.43 302.677 160.011ZM363.852 97.9619H351.134L361.547 162.384C362.092 165.758 365.225 167.985 368.58 167.413L368.537 167.405C368.507 167.4 368.476 167.394 368.446 167.389C365.04 166.733 362.727 163.43 363.279 160.011L368.58 127.216L363.852 97.9619Z" fill="#CD925E"/>
<path d="M368.446 167.389C365.04 166.733 362.727 163.43 363.279 160.011L368.58 127.216L373.309 97.9619H386.026L375.614 162.384C375.068 165.758 371.936 167.985 368.58 167.413L368.537 167.405C368.507 167.4 368.476 167.394 368.446 167.389Z" fill="#D8A981"/>
<path d="M434.484 160.011C435.037 163.43 432.724 166.733 429.318 167.389C425.912 168.044 422.703 165.803 422.15 162.384L411.738 97.9619H418.564C420.628 97.9619 422.566 97.3339 424.178 96.2447L434.484 160.011Z" fill="#D8A981"/>
<path d="M25.0225 1C18.7508 1 14.0207 6.68797 15.1738 12.8435L29.5865 89.7965C30.0939 92.5053 31.6662 94.7877 33.8222 96.2447C35.4341 97.3339 37.3722 97.9619 39.4356 97.9619H46.2624H71.9736H84.6913H94.148H106.866H132.576H141.332C142.717 97.9619 144.014 97.5879 145.128 96.9355C147.353 95.6327 148.847 93.2198 148.847 90.4585V86.7068C148.847 82.5628 145.482 79.2035 141.332 79.2035H100.65L87.3912 9.14697C86.4968 4.4215 82.3621 1 77.5458 1H25.0225Z" fill="#FBB8A7"/>
<path fill-rule="evenodd" clip-rule="evenodd" d="M155.323 160.011L145.128 96.9355C144.014 97.5879 142.717 97.9619 141.332 97.9619H132.576L142.989 162.384C143.542 165.803 146.751 168.044 150.157 167.389C153.563 166.733 155.876 163.43 155.323 160.011ZM94.148 97.9619H106.866L96.4532 162.384C95.9078 165.758 92.7753 167.985 89.4196 167.413L89.4628 167.405C89.4932 167.4 89.5236 167.394 89.554 167.389C92.96 166.733 95.2731 163.43 94.7205 160.011L89.4197 127.216L94.148 97.9619Z" fill="#CD925E"/>
<path d="M89.554 167.389C92.96 166.733 95.2731 163.43 94.7205 160.011L89.4197 127.216L84.6913 97.9619H71.9736L82.3862 162.384C82.9316 165.758 86.064 167.985 89.4196 167.413L89.4628 167.405C89.4932 167.4 89.5236 167.394 89.554 167.389Z" fill="#D8A981"/>
<path d="M23.5155 160.011C22.9628 163.43 25.276 166.733 28.682 167.389C32.088 168.044 35.2971 165.803 35.8498 162.384L46.2624 97.9619H39.4356C37.3722 97.9619 35.4341 97.3339 33.8222 96.2447L23.5155 160.011Z" fill="#D8A981"/>
<path d="M330.259 47.6276H330.759V47.1276H330.259V47.6276ZM127.741 47.6276V47.1276H127.241V47.6276H127.741ZM234.62 62.047L234.624 62.547L234.62 62.047ZM223.38 62.047L223.376 62.547L223.38 62.047ZM368.446 167.389L368.352 167.88L368.352 167.88L368.446 167.389ZM363.279 160.011L362.786 159.932V159.932L363.279 160.011ZM368.58 167.413L368.496 167.906L368.58 167.92L368.664 167.906L368.58 167.413ZM368.537 167.405L368.45 167.898L368.45 167.898L368.537 167.405ZM89.554 167.389L89.6484 167.88L89.6484 167.88L89.554 167.389ZM94.7205 160.011L95.2141 159.932L94.7205 160.011ZM89.4196 167.413L89.3357 167.906L89.4196 167.92L89.5036 167.906L89.4196 167.413ZM89.4628 167.405L89.5501 167.898L89.5502 167.898L89.4628 167.405ZM330.259 47.6276H329.759V57.3708H330.259H330.759V47.6276H330.259ZM127.741 57.3708H128.241V47.6276H127.741H127.241V57.3708H127.741ZM330.228 47.6276V48.1276H330.259V47.6276V47.1276H330.228V47.6276ZM330.259 47.6276H329.759V47.9756H330.259H330.759V47.6276H330.259ZM127.741 47.9756H128.241V47.6276H127.741H127.241V47.9756H127.741ZM127.741 47.6276V48.1276H127.772V47.6276V47.1276H127.741V47.6276ZM234.62 62.047L234.624 62.547C261.294 62.3439 285.227 60.7054 302.503 58.1741C311.137 56.909 318.129 55.4178 322.973 53.7631C325.392 52.9369 327.305 52.0601 328.624 51.1316C329.924 50.2155 330.759 49.1665 330.759 47.9756H330.259H329.759C329.759 48.6649 329.27 49.4531 328.048 50.3141C326.843 51.1628 325.032 52.003 322.65 52.8168C317.892 54.4422 310.97 55.9227 302.358 57.1846C285.142 59.7073 261.256 61.3442 234.616 61.547L234.62 62.047ZM127.741 47.9756H127.241C127.241 49.1665 128.076 50.2155 129.376 51.1316C130.695 52.0601 132.608 52.9369 135.027 53.7631C139.871 55.4178 146.863 56.909 155.497 58.1741C172.773 60.7054 196.706 62.3439 223.376 62.547L223.38 62.047L223.384 61.547C196.744 61.3442 172.858 59.7073 155.642 57.1846C147.03 55.9227 140.108 54.4422 135.35 52.8168C132.968 52.003 131.157 51.1628 129.952 50.3141C128.73 49.4531 128.241 48.6649 128.241 47.9756H127.741ZM223.38 62.047L223.376 62.547C225.238 62.5611 227.113 62.5683 229 62.5683V62.0683V61.5683C227.115 61.5683 225.243 61.5611 223.384 61.547L223.38 62.047ZM229 62.0683V62.5683C230.887 62.5683 232.762 62.5611 234.624 62.547L234.62 62.047L234.616 61.547C232.757 61.5611 230.885 61.5683 229 61.5683V62.0683ZM234.741 69.8778L234.738 69.3778C232.839 69.3909 230.926 69.3976 229 69.3976V69.8976V70.3976C230.928 70.3976 232.843 70.3909 234.745 70.3778L234.741 69.8778ZM229 69.8976V69.3976C227.074 69.3976 225.161 69.3909 223.262 69.3778L223.259 69.8778L223.255 70.3778C225.157 70.3909 227.072 70.3976 229 70.3976V69.8976ZM363.279 160.011L362.786 159.932C362.19 163.618 364.681 167.173 368.352 167.88L368.446 167.389L368.54 166.898C365.399 166.293 363.264 163.243 363.773 160.091L363.279 160.011ZM368.58 127.216L368.087 127.136L362.786 159.932L363.279 160.011L363.773 160.091L369.074 127.296L368.58 127.216ZM368.446 167.389L368.352 167.88C368.385 167.886 368.417 167.892 368.45 167.898L368.537 167.405L368.625 166.913C368.596 166.908 368.568 166.903 368.54 166.898L368.446 167.389ZM368.537 167.405L368.45 167.898C368.465 167.9 368.481 167.903 368.496 167.906L368.58 167.413L368.664 166.92C368.651 166.918 368.638 166.915 368.625 166.913L368.537 167.405ZM368.58 167.413L368.664 167.906C368.712 167.898 368.761 167.889 368.809 167.88L368.715 167.389L368.62 166.898C368.579 166.905 368.538 166.913 368.496 166.92L368.58 167.413ZM368.537 167.405L368.452 167.898L368.495 167.905L368.58 167.413L368.666 166.92L368.623 166.913L368.537 167.405ZM373.309 97.9619V98.4619H386.026V97.9619V97.4619H373.309V97.9619ZM424.178 96.2447L423.898 95.8304C422.366 96.8653 420.525 97.4619 418.564 97.4619V97.9619V98.4619C420.73 98.4619 422.766 97.8025 424.458 96.6589L424.178 96.2447ZM418.564 97.9619V97.4619H411.738V97.9619V98.4619H418.564V97.9619ZM325.424 97.9619V97.4619H316.668V97.9619V98.4619H325.424V97.9619ZM316.668 97.9619V97.4619C315.374 97.4619 314.164 97.1127 313.124 96.5041L312.872 96.9355L312.619 97.367C313.808 98.063 315.192 98.4619 316.668 98.4619V97.9619ZM363.852 97.9619V97.4619H351.134V97.9619V98.4619H363.852V97.9619ZM94.7205 160.011L94.2269 160.091C94.7363 163.243 92.6007 166.293 89.4595 166.898L89.554 167.389L89.6484 167.88C93.3193 167.173 95.81 163.618 95.2141 159.932L94.7205 160.011ZM89.4197 127.216L88.9261 127.296L94.2269 160.091L94.7205 160.011L95.2141 159.932L89.9133 127.136L89.4197 127.216ZM89.554 167.389L89.4596 166.898C89.4317 166.903 89.4036 166.908 89.3754 166.913L89.4628 167.405L89.5502 167.898C89.5827 167.892 89.6154 167.886 89.6484 167.88L89.554 167.389ZM89.4628 167.405L89.3754 166.913C89.362 166.915 89.3488 166.918 89.3357 166.92L89.4196 167.413L89.5036 167.906C89.5192 167.903 89.5347 167.9 89.5501 167.898L89.4628 167.405ZM89.4196 167.413L89.5036 166.92C89.4623 166.913 89.421 166.905 89.3798 166.898L89.2854 167.389L89.191 167.88C89.2393 167.889 89.2876 167.898 89.3357 167.906L89.4196 167.413ZM89.4628 167.405L89.3771 166.913L89.3339 166.92L89.4196 167.413L89.5053 167.905L89.5485 167.898L89.4628 167.405ZM84.6913 97.9619V97.4619H71.9736V97.9619V98.4619H84.6913V97.9619ZM33.8222 96.2447L33.5422 96.6589C35.2345 97.8025 37.2697 98.4619 39.4356 98.4619V97.9619V97.4619C37.4747 97.4619 35.6336 96.8654 34.1022 95.8304L33.8222 96.2447ZM39.4356 97.9619V98.4619H46.2624V97.9619V97.4619H39.4356V97.9619ZM132.576 97.9619V98.4619H141.332V97.9619V97.4619H132.576V97.9619ZM141.332 97.9619V98.4619C142.808 98.4619 144.192 98.063 145.381 97.367L145.128 96.9355L144.876 96.5041C143.836 97.1127 142.626 97.4619 141.332 97.4619V97.9619ZM94.148 97.9619V98.4619H106.866V97.9619V97.4619H94.148V97.9619ZM223.259 156.019V157.019H224.259V156.019H223.259ZM234.741 156.019H233.741V157.019H234.741V156.019ZM330.228 47.6276L331.213 47.4561V47.4561L330.228 47.6276ZM127.772 47.6276L126.787 47.4561L127.772 47.6276ZM223.259 69.8778H224.259V68.8847L223.265 68.8778L223.259 69.8778ZM234.741 69.8778L234.735 68.8778L233.741 68.8847V69.8778H234.741ZM234.741 33.9052L234.749 32.9052L234.739 32.9052L234.729 32.9053L234.741 33.9052ZM223.259 34.0524L223.266 35.0524L223.271 35.0523L223.259 34.0524ZM315.011 162.384L315.998 162.543L315.011 162.384ZM302.677 160.011L301.69 159.852L302.677 160.011ZM361.547 162.384L362.534 162.224L361.547 162.384ZM375.614 162.384L374.627 162.224L375.614 162.384ZM434.484 160.011L435.472 159.852L434.484 160.011ZM422.15 162.384L423.137 162.224L422.15 162.384ZM368.58 167.413L368.748 166.427L368.58 166.398L368.412 166.427L368.58 167.413ZM368.58 127.216L367.593 127.375H369.567L368.58 127.216ZM442.826 12.8435L441.843 12.6594V12.6594L442.826 12.8435ZM428.413 89.7965L429.396 89.9806V89.9806L428.413 89.7965ZM357.35 79.2035V80.2035H358.179L358.333 79.3894L357.35 79.2035ZM370.609 9.14697L369.626 8.961V8.96102L370.609 9.14697ZM373.309 97.9619L374.296 98.1214L374.483 96.9619H373.309V97.9619ZM386.026 97.9619V96.9619H385.175L385.039 97.8023L386.026 97.9619ZM424.178 96.2447L423.618 95.4161L423.089 95.7737L423.191 96.4042L424.178 96.2447ZM411.738 97.9619L412.725 97.8023L412.589 96.9619H411.738V97.9619ZM312.872 96.9355L313.859 97.0951L313.968 96.4188L313.377 96.0726L312.872 96.9355ZM325.424 97.9619V96.9619H324.572L324.436 97.8023L325.424 97.9619ZM351.134 97.9619L352.121 97.8023L351.986 96.9619H351.134V97.9619ZM363.852 97.9619V96.9619H362.677L362.865 98.1214L363.852 97.9619ZM142.989 162.384L143.976 162.224L142.989 162.384ZM155.323 160.011L156.31 159.852L155.323 160.011ZM96.4532 162.384L95.466 162.224L96.4532 162.384ZM82.3862 162.384L83.3734 162.224L82.3862 162.384ZM23.5155 160.011L22.5283 159.852L23.5155 160.011ZM35.8498 162.384L34.8626 162.224L35.8498 162.384ZM89.4196 167.413L89.5876 166.427L89.4196 166.398L89.2517 166.427L89.4196 167.413ZM89.4197 127.216L88.4325 127.375H90.4069L89.4197 127.216ZM15.1738 12.8435L16.1567 12.6594L16.1567 12.6594L15.1738 12.8435ZM29.5865 89.7965L28.6036 89.9806L28.6036 89.9806L29.5865 89.7965ZM100.65 79.2035L99.667 79.3894L99.8211 80.2035H100.65V79.2035ZM87.3912 9.14697L88.3738 8.96102V8.961L87.3912 9.14697ZM84.6913 97.9619V96.9619H83.5167L83.7041 98.1214L84.6913 97.9619ZM71.9736 97.9619L72.9608 97.8023L72.8249 96.9619H71.9736V97.9619ZM33.8222 96.2447L34.8094 96.4042L34.9113 95.7737L34.3821 95.4161L33.8222 96.2447ZM46.2624 97.9619V96.9619H45.411L45.2752 97.8023L46.2624 97.9619ZM145.128 96.9355L144.623 96.0726L144.032 96.4188L144.141 97.0951L145.128 96.9355ZM132.576 97.9619L133.564 97.8023L133.428 96.9619H132.576V97.9619ZM106.866 97.9619V96.9619H106.014L105.879 97.8023L106.866 97.9619ZM94.148 97.9619L95.1352 98.1214L95.3227 96.9619H94.148V97.9619ZM184.634 156.019V157.019H223.259V156.019V155.019H184.634V156.019ZM179.937 160.717H180.937C180.937 158.675 182.592 157.019 184.634 157.019V156.019V155.019C181.487 155.019 178.937 157.57 178.937 160.717H179.937ZM179.937 162.805H180.937V160.717H179.937H178.937V162.805H179.937ZM184.634 167.502V166.502C182.592 166.502 180.937 164.847 180.937 162.805H179.937H178.937C178.937 165.951 181.487 168.502 184.634 168.502V167.502ZM277.541 162.805H276.541C276.541 164.847 274.886 166.502 272.844 166.502V167.502V168.502C275.991 168.502 278.541 165.951 278.541 162.805H277.541ZM277.541 160.717H276.541V162.805H277.541H278.541V160.717H277.541ZM272.844 156.019V157.019C274.886 157.019 276.541 158.675 276.541 160.717H277.541H278.541C278.541 157.57 275.991 155.019 272.844 155.019V156.019ZM234.741 156.019V157.019H272.844V156.019V155.019H234.741V156.019ZM272.844 167.502V166.502H184.634V167.502V168.502H272.844V167.502ZM330.259 47.9756H329.259V57.3708H330.259H331.259V47.9756H330.259ZM127.741 57.3708H128.741V47.9756H127.741H126.741V57.3708H127.741ZM330.259 47.9756H331.259C331.259 47.801 331.243 47.6277 331.213 47.4561L330.228 47.6276L329.243 47.7992C329.254 47.8589 329.259 47.9175 329.259 47.9756H330.259ZM127.772 47.6276L126.787 47.4561C126.757 47.6275 126.741 47.8009 126.741 47.9756H127.741H128.741C128.741 47.9177 128.746 47.8591 128.757 47.7992L127.772 47.6276ZM223.259 69.8778L223.265 68.8778C196.666 68.6939 172.83 67.2384 155.66 64.9996C147.068 63.8792 140.184 62.5676 135.468 61.1345C133.103 60.4158 131.342 59.6837 130.192 58.9636C128.981 58.2048 128.741 57.6489 128.741 57.3708H127.741H126.741C126.741 58.7627 127.822 59.8386 129.131 60.6584C130.501 61.5168 132.458 62.31 134.887 63.0481C139.76 64.5289 146.77 65.8574 155.401 66.9828C172.677 69.2354 196.599 70.6935 223.252 70.8778L223.259 69.8778ZM330.259 57.3708H329.259C329.259 57.6489 329.018 58.2048 327.807 58.9636C326.658 59.6837 324.897 60.4158 322.532 61.1345C317.816 62.5676 310.932 63.8792 302.34 64.9996C285.17 67.2384 261.334 68.6939 234.735 68.8778L234.741 69.8778L234.748 70.8778C261.401 70.6935 285.323 69.2354 302.599 66.9828C311.23 65.8574 318.24 64.5289 323.113 63.0481C325.542 62.31 327.499 61.5168 328.869 60.6584C330.178 59.8386 331.259 58.7627 331.259 57.3708H330.259ZM223.259 69.8778H222.259V156.019H223.259H224.259V69.8778H223.259ZM234.741 156.019H235.741V69.8778H234.741H233.741V156.019H234.741ZM223.259 34.0524L223.251 33.0524C197.008 33.2566 173.41 34.813 156.195 37.2444C147.594 38.4592 140.548 39.8975 135.552 41.5089C133.059 42.3131 131.027 43.1757 129.558 44.1037C128.13 45.0057 127.022 46.1027 126.787 47.4561L127.772 47.6276L128.757 47.7992C128.841 47.3136 129.319 46.62 130.626 45.7946C131.892 44.9952 133.744 44.1938 136.166 43.4124C141.002 41.8525 147.918 40.4333 156.475 39.2247C173.576 36.8094 197.081 35.2561 223.266 35.0523L223.259 34.0524ZM330.228 47.6276L331.213 47.4561C330.978 46.1037 329.871 45.0044 328.444 44.0985C326.975 43.1664 324.944 42.2979 322.45 41.4867C317.454 39.8613 310.408 38.4044 301.807 37.1711C284.592 34.7027 260.993 33.1094 234.749 32.9052L234.741 33.9052L234.734 34.9052C260.918 35.1089 284.422 36.6989 301.523 39.1508C310.08 40.3777 316.995 41.8152 321.831 43.3886C324.254 44.1768 326.106 44.9838 327.372 45.7872C328.679 46.6166 329.158 47.3126 329.243 47.7992L330.228 47.6276ZM307.843 167.389L307.654 168.371C311.613 169.132 315.355 166.521 315.998 162.543L315.011 162.384L314.024 162.224C313.561 165.085 310.886 166.955 308.032 166.407L307.843 167.389ZM302.677 160.011L301.69 159.852C301.05 163.806 303.719 167.613 307.654 168.371L307.843 167.389L308.032 166.407C305.156 165.853 303.198 163.055 303.664 160.171L302.677 160.011ZM429.318 167.389L429.507 168.371C433.443 167.613 436.111 163.806 435.472 159.852L434.484 160.011L433.497 160.171C433.963 163.055 432.005 165.853 429.129 166.407L429.318 167.389ZM422.15 162.384L421.163 162.543C421.806 166.521 425.548 169.132 429.507 168.371L429.318 167.389L429.129 166.407C426.276 166.955 423.6 165.085 423.137 162.224L422.15 162.384ZM375.614 162.384L374.627 162.224C374.17 165.048 371.558 166.906 368.748 166.427L368.58 167.413L368.412 168.399C372.314 169.063 375.967 166.468 376.601 162.543L375.614 162.384ZM368.58 167.413L368.412 166.427C365.602 166.906 362.99 165.048 362.534 162.224L361.547 162.384L360.56 162.543C361.194 166.468 364.847 169.063 368.748 168.399L368.58 167.413ZM442.826 12.8435L443.809 13.0276C445.078 6.2549 439.873 0 432.977 0V1V2C438.625 2 442.881 7.12105 441.843 12.6594L442.826 12.8435ZM428.413 89.7965L429.396 89.9806L443.809 13.0276L442.826 12.8435L441.843 12.6594L427.431 89.6124L428.413 89.7965ZM309.153 86.7068H308.153V90.4585H309.153H310.153V86.7068H309.153ZM316.668 79.2035V78.2035C311.967 78.2035 308.153 82.0091 308.153 86.7068H309.153H310.153C310.153 83.1166 313.068 80.2035 316.668 80.2035V79.2035ZM357.35 79.2035V78.2035H316.668V79.2035V80.2035H357.35V79.2035ZM370.609 9.14697L369.626 8.96102L356.368 79.0175L357.35 79.2035L358.333 79.3894L371.591 9.33292L370.609 9.14697ZM380.454 1V0C375.158 0 370.61 3.76235 369.626 8.961L370.609 9.14697L371.591 9.33294C372.396 5.08065 376.117 2 380.454 2V1ZM432.977 1V0H380.454V1V2H432.977V1ZM386.026 97.9619L385.039 97.8023L374.627 162.224L375.614 162.384L376.601 162.543L387.014 98.1214L386.026 97.9619ZM368.58 127.216L369.567 127.375L374.296 98.1214L373.309 97.9619L372.321 97.8023L367.593 127.056L368.58 127.216ZM428.413 89.7965L427.431 89.6124C426.974 92.0498 425.56 94.1037 423.618 95.4161L424.178 96.2447L424.738 97.0732C427.108 95.4716 428.838 92.9609 429.396 89.9806L428.413 89.7965ZM424.178 96.2447L423.191 96.4042L433.497 160.171L434.484 160.011L435.472 159.852L425.165 96.0851L424.178 96.2447ZM422.15 162.384L423.137 162.224L412.725 97.8023L411.738 97.9619L410.75 98.1214L421.163 162.543L422.15 162.384ZM411.738 97.9619V96.9619H386.026V97.9619V98.9619H411.738V97.9619ZM363.852 97.9619L362.865 98.1214L367.593 127.375L368.58 127.216L369.567 127.056L364.839 97.8023L363.852 97.9619ZM325.424 97.9619V98.9619H351.134V97.9619V96.9619H325.424V97.9619ZM363.852 97.9619V98.9619H373.309V97.9619V96.9619H363.852V97.9619ZM315.011 162.384L315.998 162.543L326.411 98.1214L325.424 97.9619L324.436 97.8023L314.024 162.224L315.011 162.384ZM309.153 90.4585H308.153C308.153 93.5898 309.848 96.3239 312.366 97.7984L312.872 96.9355L313.377 96.0726C311.446 94.9416 310.153 92.8498 310.153 90.4585H309.153ZM351.134 97.9619L350.147 98.1214L360.56 162.543L361.547 162.384L362.534 162.224L352.121 97.8023L351.134 97.9619ZM312.872 96.9355L311.885 96.776L301.69 159.852L302.677 160.011L303.664 160.171L313.859 97.0951L312.872 96.9355ZM150.157 167.389L149.968 166.407C147.114 166.955 144.439 165.085 143.976 162.224L142.989 162.384L142.002 162.543C142.645 166.521 146.387 169.132 150.346 168.371L150.157 167.389ZM155.323 160.011L154.336 160.171C154.802 163.055 152.844 165.853 149.968 166.407L150.157 167.389L150.346 168.371C154.281 167.613 156.95 163.806 156.31 159.852L155.323 160.011ZM28.682 167.389L28.8709 166.407C25.9945 165.853 24.0365 163.055 24.5027 160.171L23.5155 160.011L22.5283 159.852C21.8892 163.806 24.5574 167.613 28.4931 168.371L28.682 167.389ZM35.8498 162.384L34.8626 162.224C34.4001 165.085 31.7245 166.955 28.8709 166.407L28.682 167.389L28.4931 168.371C32.4515 169.132 36.1941 166.521 36.837 162.543L35.8498 162.384ZM82.3862 162.384L81.399 162.543C82.0334 166.468 85.6861 169.063 89.5876 168.399L89.4196 167.413L89.2517 166.427C86.4418 166.906 83.8298 165.048 83.3734 162.224L82.3862 162.384ZM89.4196 167.413L89.2517 168.399C93.1532 169.063 96.806 166.468 97.4404 162.543L96.4532 162.384L95.466 162.224C95.0096 165.048 92.3975 166.906 89.5876 166.427L89.4196 167.413ZM15.1738 12.8435L16.1567 12.6594C15.1193 7.12104 19.375 2 25.0225 2V1V0C18.1266 0 12.9222 6.2549 14.1909 13.0276L15.1738 12.8435ZM29.5865 89.7965L30.5694 89.6124L16.1567 12.6594L15.1738 12.8435L14.1909 13.0276L28.6036 89.9806L29.5865 89.7965ZM148.847 86.7068H147.847V90.4585H148.847H149.847V86.7068H148.847ZM141.332 79.2035V80.2035C144.932 80.2035 147.847 83.1166 147.847 86.7068H148.847H149.847C149.847 82.0091 146.033 78.2035 141.332 78.2035V79.2035ZM100.65 79.2035V80.2035H141.332V79.2035V78.2035H100.65V79.2035ZM87.3912 9.14697L86.4086 9.33292L99.667 79.3894L100.65 79.2035L101.632 79.0175L88.3738 8.96102L87.3912 9.14697ZM77.5458 1V2C81.8826 2 85.6038 5.08065 86.4086 9.33294L87.3912 9.14697L88.3738 8.961C87.3898 3.76235 82.8417 0 77.5458 0V1ZM25.0225 1V2H77.5458V1V0H25.0225V1ZM71.9736 97.9619L70.9864 98.1214L81.399 162.543L82.3862 162.384L83.3734 162.224L72.9608 97.8023L71.9736 97.9619ZM89.4197 127.216L90.4069 127.056L85.6785 97.8023L84.6913 97.9619L83.7041 98.1214L88.4325 127.375L89.4197 127.216ZM29.5865 89.7965L28.6036 89.9806C29.1619 92.9609 30.8923 95.4716 33.2623 97.0732L33.8222 96.2447L34.3821 95.4161C32.4401 94.1037 31.026 92.0498 30.5694 89.6124L29.5865 89.7965ZM33.8222 96.2447L32.835 96.0851L22.5283 159.852L23.5155 160.011L24.5027 160.171L34.8094 96.4042L33.8222 96.2447ZM35.8498 162.384L36.837 162.543L47.2496 98.1214L46.2624 97.9619L45.2752 97.8023L34.8626 162.224L35.8498 162.384ZM46.2624 97.9619V98.9619H71.9736V97.9619V96.9619H46.2624V97.9619ZM94.148 97.9619L93.1609 97.8023L88.4325 127.056L89.4197 127.216L90.4069 127.375L95.1352 98.1214L94.148 97.9619ZM132.576 97.9619V96.9619H106.866V97.9619V98.9619H132.576V97.9619ZM94.148 97.9619V96.9619H84.6913V97.9619V98.9619H94.148V97.9619ZM142.989 162.384L143.976 162.224L133.564 97.8023L132.576 97.9619L131.589 98.1214L142.002 162.543L142.989 162.384ZM148.847 90.4585H147.847C147.847 92.8498 146.554 94.9416 144.623 96.0726L145.128 96.9355L145.634 97.7984C148.152 96.3239 149.847 93.5898 149.847 90.4585H148.847ZM106.866 97.9619L105.879 97.8023L95.466 162.224L96.4532 162.384L97.4404 162.543L107.853 98.1214L106.866 97.9619ZM145.128 96.9355L144.141 97.0951L154.336 160.171L155.323 160.011L156.31 159.852L146.115 96.776L145.128 96.9355ZM234.741 33.9052L234.729 32.9053L223.246 33.0525L223.259 34.0524L223.271 35.0523L234.754 34.9051L234.741 33.9052Z" fill="black" mask="url(#path-2-outside-1_256_9)"/>
<path d="M282.898 46.2005C273.893 47.2677 267.827 47.2671 258.621 46.195C257.123 46.0205 256 44.7431 256 43.2347V17.7035C266.969 13.9751 273.472 14.2247 285.511 17.7035V36.7091V43.2421C285.511 44.7474 284.392 46.0233 282.898 46.2005Z" fill="#F2E8DB"/>
<path d="M256 17.7035C267.119 20.5063 273.582 20.3205 285.511 17.7035M256 17.7035V43.2347C256 44.7431 257.123 46.0205 258.621 46.195C267.827 47.2671 273.893 47.2677 282.898 46.2005C284.392 46.0233 285.511 44.7474 285.511 43.2421V36.7091M256 17.7035C266.969 13.9751 273.472 14.2247 285.511 17.7035M285.511 17.7035V36.7091M286.33 23.8125C294.581 22.5962 296.749 25.7726 296.987 29.582C297.225 33.3914 294.265 37.4219 285.511 36.7091" stroke="#C59B75" stroke-width="3" stroke-linecap="round"/>
</svg>
