<svg width="489" height="182" viewBox="0 0 489 182" fill="none" xmlns="http://www.w3.org/2000/svg">
<ellipse cx="244.5" cy="161.5" rx="244.5" ry="20.5" fill="#FFA299"/>
<mask id="path-2-outside-1_256_11" maskUnits="userSpaceOnUse" x="22" y="0" width="432" height="169" fill="black">
<rect fill="white" x="22" width="432" height="169"/>
<path d="M232.259 156.019H193.634C191.04 156.019 188.937 158.123 188.937 160.717V162.805C188.937 165.399 191.04 167.502 193.634 167.502H281.844C284.438 167.502 286.541 165.399 286.541 162.805V160.717C286.541 158.123 284.438 156.019 281.844 156.019H243.741V69.8778C241.841 69.8909 239.927 69.8976 238 69.8976C236.073 69.8976 234.159 69.8909 232.259 69.8778V156.019Z"/>
<path d="M339.259 57.3708V47.9756C339.259 55.4963 296.93 61.6411 243.62 62.047C241.76 62.0611 239.886 62.0683 238 62.0683C236.114 62.0683 234.24 62.0611 232.38 62.047C179.07 61.6411 136.741 55.4963 136.741 47.9756V57.3708C136.741 64.0508 179.006 69.5095 232.259 69.8778C234.159 69.8909 236.073 69.8976 238 69.8976C239.927 69.8976 241.841 69.8909 243.741 69.8778C296.994 69.5095 339.259 64.0508 339.259 57.3708Z"/>
<path fill-rule="evenodd" clip-rule="evenodd" d="M232.259 34.0524C179.83 34.4602 138.053 40.2719 136.772 47.6276C136.752 47.7433 136.741 47.8593 136.741 47.9756C136.741 55.4963 179.07 61.6411 232.38 62.047C234.24 62.0611 236.114 62.0683 238 62.0683C239.886 62.0683 241.76 62.0611 243.62 62.047C296.93 61.6411 339.259 55.4963 339.259 47.9756C339.259 47.8593 339.248 47.7433 339.228 47.6276C337.947 40.2719 296.169 34.3131 243.741 33.9052L232.259 34.0524Z"/>
<path d="M441.977 1C448.249 1 452.979 6.68797 451.826 12.8435L437.413 89.7965C436.906 92.5053 435.334 94.7877 433.178 96.2447C431.566 97.3339 429.628 97.9619 427.564 97.9619H420.738H395.026H382.309H372.852H360.134H334.424H325.668C324.283 97.9619 322.986 97.5879 321.872 96.9355C319.647 95.6327 318.153 93.2198 318.153 90.4585V86.7068C318.153 82.5628 321.518 79.2035 325.668 79.2035H366.35L379.609 9.14697C380.503 4.4215 384.638 1 389.454 1H441.977Z"/>
<path fill-rule="evenodd" clip-rule="evenodd" d="M311.677 160.011L321.872 96.9355C322.986 97.5879 324.283 97.9619 325.668 97.9619H334.424L324.011 162.384C323.458 165.803 320.249 168.044 316.843 167.389C313.437 166.733 311.124 163.43 311.677 160.011ZM372.852 97.9619H360.134L370.547 162.384C371.092 165.758 374.225 167.985 377.58 167.413L377.537 167.405C377.507 167.4 377.476 167.394 377.446 167.389C374.04 166.733 371.727 163.43 372.279 160.011L377.58 127.216L372.852 97.9619Z"/>
<path d="M377.446 167.389C374.04 166.733 371.727 163.43 372.279 160.011L377.58 127.216L382.309 97.9619H395.026L384.614 162.384C384.068 165.758 380.936 167.985 377.58 167.413L377.537 167.405C377.507 167.4 377.476 167.394 377.446 167.389Z"/>
<path d="M443.484 160.011C444.037 163.43 441.724 166.733 438.318 167.389C434.912 168.044 431.703 165.803 431.15 162.384L420.738 97.9619H427.564C429.628 97.9619 431.566 97.3339 433.178 96.2447L443.484 160.011Z"/>
<path d="M34.0225 1C27.7508 1 23.0207 6.68797 24.1738 12.8435L38.5865 89.7965C39.0939 92.5053 40.6662 94.7877 42.8222 96.2447C44.4341 97.3339 46.3722 97.9619 48.4356 97.9619H55.2624H80.9736H93.6913H103.148H115.866H141.576H150.332C151.717 97.9619 153.014 97.5879 154.128 96.9355C156.353 95.6327 157.847 93.2198 157.847 90.4585V86.7068C157.847 82.5628 154.482 79.2035 150.332 79.2035H109.65L96.3912 9.14697C95.4968 4.4215 91.3621 1 86.5458 1H34.0225Z"/>
<path fill-rule="evenodd" clip-rule="evenodd" d="M164.323 160.011L154.128 96.9355C153.014 97.5879 151.717 97.9619 150.332 97.9619H141.576L151.989 162.384C152.542 165.803 155.751 168.044 159.157 167.389C162.563 166.733 164.876 163.43 164.323 160.011ZM103.148 97.9619H115.866L105.453 162.384C104.908 165.758 101.775 167.985 98.4196 167.413L98.4628 167.405C98.4932 167.4 98.5236 167.394 98.554 167.389C101.96 166.733 104.273 163.43 103.72 160.011L98.4197 127.216L103.148 97.9619Z"/>
<path d="M98.554 167.389C101.96 166.733 104.273 163.43 103.72 160.011L98.4197 127.216L93.6913 97.9619H80.9736L91.3862 162.384C91.9316 165.758 95.064 167.985 98.4196 167.413L98.4628 167.405C98.4932 167.4 98.5236 167.394 98.554 167.389Z"/>
<path d="M32.5155 160.011C31.9628 163.43 34.276 166.733 37.682 167.389C41.088 168.044 44.2971 165.803 44.8498 162.384L55.2624 97.9619H48.4356C46.3722 97.9619 44.4341 97.3339 42.8222 96.2447L32.5155 160.011Z"/>
</mask>
<path d="M232.259 156.019H193.634C191.04 156.019 188.937 158.123 188.937 160.717V162.805C188.937 165.399 191.04 167.502 193.634 167.502H281.844C284.438 167.502 286.541 165.399 286.541 162.805V160.717C286.541 158.123 284.438 156.019 281.844 156.019H243.741V69.8778C241.841 69.8909 239.927 69.8976 238 69.8976C236.073 69.8976 234.159 69.8909 232.259 69.8778V156.019Z" fill="#E3B581"/>
<path d="M339.259 57.3708V47.9756C339.259 55.4963 296.93 61.6411 243.62 62.047C241.76 62.0611 239.886 62.0683 238 62.0683C236.114 62.0683 234.24 62.0611 232.38 62.047C179.07 61.6411 136.741 55.4963 136.741 47.9756V57.3708C136.741 64.0508 179.006 69.5095 232.259 69.8778C234.159 69.8909 236.073 69.8976 238 69.8976C239.927 69.8976 241.841 69.8909 243.741 69.8778C296.994 69.5095 339.259 64.0508 339.259 57.3708Z" fill="#CD925E"/>
<path fill-rule="evenodd" clip-rule="evenodd" d="M232.259 34.0524C179.83 34.4602 138.053 40.2719 136.772 47.6276C136.752 47.7433 136.741 47.8593 136.741 47.9756C136.741 55.4963 179.07 61.6411 232.38 62.047C234.24 62.0611 236.114 62.0683 238 62.0683C239.886 62.0683 241.76 62.0611 243.62 62.047C296.93 61.6411 339.259 55.4963 339.259 47.9756C339.259 47.8593 339.248 47.7433 339.228 47.6276C337.947 40.2719 296.169 34.3131 243.741 33.9052L232.259 34.0524Z" fill="#EFC291"/>
<path d="M441.977 1C448.249 1 452.979 6.68797 451.826 12.8435L437.413 89.7965C436.906 92.5053 435.334 94.7877 433.178 96.2447C431.566 97.3339 429.628 97.9619 427.564 97.9619H420.738H395.026H382.309H372.852H360.134H334.424H325.668C324.283 97.9619 322.986 97.5879 321.872 96.9355C319.647 95.6327 318.153 93.2198 318.153 90.4585V86.7068C318.153 82.5628 321.518 79.2035 325.668 79.2035H366.35L379.609 9.14697C380.503 4.4215 384.638 1 389.454 1H441.977Z" fill="#A1C0DB"/>
<path fill-rule="evenodd" clip-rule="evenodd" d="M311.677 160.011L321.872 96.9355C322.986 97.5879 324.283 97.9619 325.668 97.9619H334.424L324.011 162.384C323.458 165.803 320.249 168.044 316.843 167.389C313.437 166.733 311.124 163.43 311.677 160.011ZM372.852 97.9619H360.134L370.547 162.384C371.092 165.758 374.225 167.985 377.58 167.413L377.537 167.405C377.507 167.4 377.476 167.394 377.446 167.389C374.04 166.733 371.727 163.43 372.279 160.011L377.58 127.216L372.852 97.9619Z" fill="#CD925E"/>
<path d="M377.446 167.389C374.04 166.733 371.727 163.43 372.279 160.011L377.58 127.216L382.309 97.9619H395.026L384.614 162.384C384.068 165.758 380.936 167.985 377.58 167.413L377.537 167.405C377.507 167.4 377.476 167.394 377.446 167.389Z" fill="#D8A981"/>
<path d="M443.484 160.011C444.037 163.43 441.724 166.733 438.318 167.389C434.912 168.044 431.703 165.803 431.15 162.384L420.738 97.9619H427.564C429.628 97.9619 431.566 97.3339 433.178 96.2447L443.484 160.011Z" fill="#D8A981"/>
<path d="M34.0225 1C27.7508 1 23.0207 6.68797 24.1738 12.8435L38.5865 89.7965C39.0939 92.5053 40.6662 94.7877 42.8222 96.2447C44.4341 97.3339 46.3722 97.9619 48.4356 97.9619H55.2624H80.9736H93.6913H103.148H115.866H141.576H150.332C151.717 97.9619 153.014 97.5879 154.128 96.9355C156.353 95.6327 157.847 93.2198 157.847 90.4585V86.7068C157.847 82.5628 154.482 79.2035 150.332 79.2035H109.65L96.3912 9.14697C95.4968 4.4215 91.3621 1 86.5458 1H34.0225Z" fill="#FBB8A7"/>
<path fill-rule="evenodd" clip-rule="evenodd" d="M164.323 160.011L154.128 96.9355C153.014 97.5879 151.717 97.9619 150.332 97.9619H141.576L151.989 162.384C152.542 165.803 155.751 168.044 159.157 167.389C162.563 166.733 164.876 163.43 164.323 160.011ZM103.148 97.9619H115.866L105.453 162.384C104.908 165.758 101.775 167.985 98.4196 167.413L98.4628 167.405C98.4932 167.4 98.5236 167.394 98.554 167.389C101.96 166.733 104.273 163.43 103.72 160.011L98.4197 127.216L103.148 97.9619Z" fill="#CD925E"/>
<path d="M98.554 167.389C101.96 166.733 104.273 163.43 103.72 160.011L98.4197 127.216L93.6913 97.9619H80.9736L91.3862 162.384C91.9316 165.758 95.064 167.985 98.4196 167.413L98.4628 167.405C98.4932 167.4 98.5236 167.394 98.554 167.389Z" fill="#D8A981"/>
<path d="M32.5155 160.011C31.9628 163.43 34.276 166.733 37.682 167.389C41.088 168.044 44.2971 165.803 44.8498 162.384L55.2624 97.9619H48.4356C46.3722 97.9619 44.4341 97.3339 42.8222 96.2447L32.5155 160.011Z" fill="#D8A981"/>
<path d="M339.259 47.6276H339.759V47.1276H339.259V47.6276ZM136.741 47.6276V47.1276H136.241V47.6276H136.741ZM243.62 62.047L243.624 62.547L243.62 62.047ZM232.38 62.047L232.376 62.547L232.38 62.047ZM377.446 167.389L377.352 167.88L377.352 167.88L377.446 167.389ZM372.279 160.011L371.786 159.932V159.932L372.279 160.011ZM377.58 167.413L377.496 167.906L377.58 167.92L377.664 167.906L377.58 167.413ZM377.537 167.405L377.45 167.898L377.45 167.898L377.537 167.405ZM98.554 167.389L98.6484 167.88L98.6484 167.88L98.554 167.389ZM103.72 160.011L104.214 159.932L103.72 160.011ZM98.4196 167.413L98.3357 167.906L98.4196 167.92L98.5036 167.906L98.4196 167.413ZM98.4628 167.405L98.5501 167.898L98.5502 167.898L98.4628 167.405ZM339.259 47.6276H338.759V57.3708H339.259H339.759V47.6276H339.259ZM136.741 57.3708H137.241V47.6276H136.741H136.241V57.3708H136.741ZM339.228 47.6276V48.1276H339.259V47.6276V47.1276H339.228V47.6276ZM339.259 47.6276H338.759V47.9756H339.259H339.759V47.6276H339.259ZM136.741 47.9756H137.241V47.6276H136.741H136.241V47.9756H136.741ZM136.741 47.6276V48.1276H136.772V47.6276V47.1276H136.741V47.6276ZM243.62 62.047L243.624 62.547C270.294 62.3439 294.227 60.7054 311.503 58.1741C320.137 56.909 327.129 55.4178 331.973 53.7631C334.392 52.9369 336.305 52.0601 337.624 51.1316C338.924 50.2155 339.759 49.1665 339.759 47.9756H339.259H338.759C338.759 48.6649 338.27 49.4531 337.048 50.3141C335.843 51.1628 334.032 52.003 331.65 52.8168C326.892 54.4422 319.97 55.9227 311.358 57.1846C294.142 59.7073 270.256 61.3442 243.616 61.547L243.62 62.047ZM136.741 47.9756H136.241C136.241 49.1665 137.076 50.2155 138.376 51.1316C139.695 52.0601 141.608 52.9369 144.027 53.7631C148.871 55.4178 155.863 56.909 164.497 58.1741C181.773 60.7054 205.706 62.3439 232.376 62.547L232.38 62.047L232.384 61.547C205.744 61.3442 181.858 59.7073 164.642 57.1846C156.03 55.9227 149.108 54.4422 144.35 52.8168C141.968 52.003 140.157 51.1628 138.952 50.3141C137.73 49.4531 137.241 48.6649 137.241 47.9756H136.741ZM232.38 62.047L232.376 62.547C234.238 62.5611 236.113 62.5683 238 62.5683V62.0683V61.5683C236.115 61.5683 234.243 61.5611 232.384 61.547L232.38 62.047ZM238 62.0683V62.5683C239.887 62.5683 241.762 62.5611 243.624 62.547L243.62 62.047L243.616 61.547C241.757 61.5611 239.885 61.5683 238 61.5683V62.0683ZM243.741 69.8778L243.738 69.3778C241.839 69.3909 239.926 69.3976 238 69.3976V69.8976V70.3976C239.928 70.3976 241.843 70.3909 243.745 70.3778L243.741 69.8778ZM238 69.8976V69.3976C236.074 69.3976 234.161 69.3909 232.262 69.3778L232.259 69.8778L232.255 70.3778C234.157 70.3909 236.072 70.3976 238 70.3976V69.8976ZM372.279 160.011L371.786 159.932C371.19 163.618 373.681 167.173 377.352 167.88L377.446 167.389L377.54 166.898C374.399 166.293 372.264 163.243 372.773 160.091L372.279 160.011ZM377.58 127.216L377.087 127.136L371.786 159.932L372.279 160.011L372.773 160.091L378.074 127.296L377.58 127.216ZM377.446 167.389L377.352 167.88C377.385 167.886 377.417 167.892 377.45 167.898L377.537 167.405L377.625 166.913C377.596 166.908 377.568 166.903 377.54 166.898L377.446 167.389ZM377.537 167.405L377.45 167.898C377.465 167.9 377.481 167.903 377.496 167.906L377.58 167.413L377.664 166.92C377.651 166.918 377.638 166.915 377.625 166.913L377.537 167.405ZM377.58 167.413L377.664 167.906C377.712 167.898 377.761 167.889 377.809 167.88L377.715 167.389L377.62 166.898C377.579 166.905 377.538 166.913 377.496 166.92L377.58 167.413ZM377.537 167.405L377.452 167.898L377.495 167.905L377.58 167.413L377.666 166.92L377.623 166.913L377.537 167.405ZM382.309 97.9619V98.4619H395.026V97.9619V97.4619H382.309V97.9619ZM433.178 96.2447L432.898 95.8304C431.366 96.8653 429.525 97.4619 427.564 97.4619V97.9619V98.4619C429.73 98.4619 431.766 97.8025 433.458 96.6589L433.178 96.2447ZM427.564 97.9619V97.4619H420.738V97.9619V98.4619H427.564V97.9619ZM334.424 97.9619V97.4619H325.668V97.9619V98.4619H334.424V97.9619ZM325.668 97.9619V97.4619C324.374 97.4619 323.164 97.1127 322.124 96.5041L321.872 96.9355L321.619 97.367C322.808 98.063 324.192 98.4619 325.668 98.4619V97.9619ZM372.852 97.9619V97.4619H360.134V97.9619V98.4619H372.852V97.9619ZM103.72 160.011L103.227 160.091C103.736 163.243 101.601 166.293 98.4595 166.898L98.554 167.389L98.6484 167.88C102.319 167.173 104.81 163.618 104.214 159.932L103.72 160.011ZM98.4197 127.216L97.9261 127.296L103.227 160.091L103.72 160.011L104.214 159.932L98.9133 127.136L98.4197 127.216ZM98.554 167.389L98.4596 166.898C98.4317 166.903 98.4036 166.908 98.3754 166.913L98.4628 167.405L98.5502 167.898C98.5827 167.892 98.6154 167.886 98.6484 167.88L98.554 167.389ZM98.4628 167.405L98.3754 166.913C98.362 166.915 98.3488 166.918 98.3357 166.92L98.4196 167.413L98.5036 167.906C98.5192 167.903 98.5347 167.9 98.5501 167.898L98.4628 167.405ZM98.4196 167.413L98.5036 166.92C98.4623 166.913 98.421 166.905 98.3798 166.898L98.2854 167.389L98.191 167.88C98.2393 167.889 98.2876 167.898 98.3357 167.906L98.4196 167.413ZM98.4628 167.405L98.3771 166.913L98.3339 166.92L98.4196 167.413L98.5053 167.905L98.5485 167.898L98.4628 167.405ZM93.6913 97.9619V97.4619H80.9736V97.9619V98.4619H93.6913V97.9619ZM42.8222 96.2447L42.5422 96.6589C44.2345 97.8025 46.2697 98.4619 48.4356 98.4619V97.9619V97.4619C46.4747 97.4619 44.6336 96.8654 43.1022 95.8304L42.8222 96.2447ZM48.4356 97.9619V98.4619H55.2624V97.9619V97.4619H48.4356V97.9619ZM141.576 97.9619V98.4619H150.332V97.9619V97.4619H141.576V97.9619ZM150.332 97.9619V98.4619C151.808 98.4619 153.192 98.063 154.381 97.367L154.128 96.9355L153.876 96.5041C152.836 97.1127 151.626 97.4619 150.332 97.4619V97.9619ZM103.148 97.9619V98.4619H115.866V97.9619V97.4619H103.148V97.9619ZM232.259 156.019V157.019H233.259V156.019H232.259ZM243.741 156.019H242.741V157.019H243.741V156.019ZM339.228 47.6276L340.213 47.4561V47.4561L339.228 47.6276ZM136.772 47.6276L135.787 47.4561L136.772 47.6276ZM232.259 69.8778H233.259V68.8847L232.265 68.8778L232.259 69.8778ZM243.741 69.8778L243.735 68.8778L242.741 68.8847V69.8778H243.741ZM243.741 33.9052L243.749 32.9052L243.739 32.9052L243.729 32.9053L243.741 33.9052ZM232.259 34.0524L232.266 35.0524L232.271 35.0523L232.259 34.0524ZM324.011 162.384L324.998 162.543L324.011 162.384ZM311.677 160.011L310.69 159.852L311.677 160.011ZM370.547 162.384L371.534 162.224L370.547 162.384ZM384.614 162.384L383.627 162.224L384.614 162.384ZM443.484 160.011L444.472 159.852L443.484 160.011ZM431.15 162.384L432.137 162.224L431.15 162.384ZM377.58 167.413L377.748 166.427L377.58 166.398L377.412 166.427L377.58 167.413ZM377.58 127.216L376.593 127.375H378.567L377.58 127.216ZM451.826 12.8435L450.843 12.6594V12.6594L451.826 12.8435ZM437.413 89.7965L438.396 89.9806V89.9806L437.413 89.7965ZM366.35 79.2035V80.2035H367.179L367.333 79.3894L366.35 79.2035ZM379.609 9.14697L378.626 8.961V8.96102L379.609 9.14697ZM382.309 97.9619L383.296 98.1214L383.483 96.9619H382.309V97.9619ZM395.026 97.9619V96.9619H394.175L394.039 97.8023L395.026 97.9619ZM433.178 96.2447L432.618 95.4161L432.089 95.7737L432.191 96.4042L433.178 96.2447ZM420.738 97.9619L421.725 97.8023L421.589 96.9619H420.738V97.9619ZM321.872 96.9355L322.859 97.0951L322.968 96.4188L322.377 96.0726L321.872 96.9355ZM334.424 97.9619V96.9619H333.572L333.436 97.8023L334.424 97.9619ZM360.134 97.9619L361.121 97.8023L360.986 96.9619H360.134V97.9619ZM372.852 97.9619V96.9619H371.677L371.865 98.1214L372.852 97.9619ZM151.989 162.384L152.976 162.224L151.989 162.384ZM164.323 160.011L165.31 159.852L164.323 160.011ZM105.453 162.384L104.466 162.224L105.453 162.384ZM91.3862 162.384L92.3734 162.224L91.3862 162.384ZM32.5155 160.011L31.5283 159.852L32.5155 160.011ZM44.8498 162.384L43.8626 162.224L44.8498 162.384ZM98.4196 167.413L98.5876 166.427L98.4196 166.398L98.2517 166.427L98.4196 167.413ZM98.4197 127.216L97.4325 127.375H99.4069L98.4197 127.216ZM24.1738 12.8435L25.1567 12.6594L25.1567 12.6594L24.1738 12.8435ZM38.5865 89.7965L37.6036 89.9806L37.6036 89.9806L38.5865 89.7965ZM109.65 79.2035L108.667 79.3894L108.821 80.2035H109.65V79.2035ZM96.3912 9.14697L97.3738 8.96102V8.961L96.3912 9.14697ZM93.6913 97.9619V96.9619H92.5167L92.7041 98.1214L93.6913 97.9619ZM80.9736 97.9619L81.9608 97.8023L81.8249 96.9619H80.9736V97.9619ZM42.8222 96.2447L43.8094 96.4042L43.9113 95.7737L43.3821 95.4161L42.8222 96.2447ZM55.2624 97.9619V96.9619H54.411L54.2752 97.8023L55.2624 97.9619ZM154.128 96.9355L153.623 96.0726L153.032 96.4188L153.141 97.0951L154.128 96.9355ZM141.576 97.9619L142.564 97.8023L142.428 96.9619H141.576V97.9619ZM115.866 97.9619V96.9619H115.014L114.879 97.8023L115.866 97.9619ZM103.148 97.9619L104.135 98.1214L104.323 96.9619H103.148V97.9619ZM193.634 156.019V157.019H232.259V156.019V155.019H193.634V156.019ZM188.937 160.717H189.937C189.937 158.675 191.592 157.019 193.634 157.019V156.019V155.019C190.487 155.019 187.937 157.57 187.937 160.717H188.937ZM188.937 162.805H189.937V160.717H188.937H187.937V162.805H188.937ZM193.634 167.502V166.502C191.592 166.502 189.937 164.847 189.937 162.805H188.937H187.937C187.937 165.951 190.487 168.502 193.634 168.502V167.502ZM286.541 162.805H285.541C285.541 164.847 283.886 166.502 281.844 166.502V167.502V168.502C284.991 168.502 287.541 165.951 287.541 162.805H286.541ZM286.541 160.717H285.541V162.805H286.541H287.541V160.717H286.541ZM281.844 156.019V157.019C283.886 157.019 285.541 158.675 285.541 160.717H286.541H287.541C287.541 157.57 284.991 155.019 281.844 155.019V156.019ZM243.741 156.019V157.019H281.844V156.019V155.019H243.741V156.019ZM281.844 167.502V166.502H193.634V167.502V168.502H281.844V167.502ZM339.259 47.9756H338.259V57.3708H339.259H340.259V47.9756H339.259ZM136.741 57.3708H137.741V47.9756H136.741H135.741V57.3708H136.741ZM339.259 47.9756H340.259C340.259 47.801 340.243 47.6277 340.213 47.4561L339.228 47.6276L338.243 47.7992C338.254 47.8589 338.259 47.9175 338.259 47.9756H339.259ZM136.772 47.6276L135.787 47.4561C135.757 47.6275 135.741 47.8009 135.741 47.9756H136.741H137.741C137.741 47.9177 137.746 47.8591 137.757 47.7992L136.772 47.6276ZM232.259 69.8778L232.265 68.8778C205.666 68.6939 181.83 67.2384 164.66 64.9996C156.068 63.8792 149.184 62.5676 144.468 61.1345C142.103 60.4158 140.342 59.6837 139.192 58.9636C137.981 58.2048 137.741 57.6489 137.741 57.3708H136.741H135.741C135.741 58.7627 136.822 59.8386 138.131 60.6584C139.501 61.5168 141.458 62.31 143.887 63.0481C148.76 64.5289 155.77 65.8574 164.401 66.9828C181.677 69.2354 205.599 70.6935 232.252 70.8778L232.259 69.8778ZM339.259 57.3708H338.259C338.259 57.6489 338.018 58.2048 336.807 58.9636C335.658 59.6837 333.897 60.4158 331.532 61.1345C326.816 62.5676 319.932 63.8792 311.34 64.9996C294.17 67.2384 270.334 68.6939 243.735 68.8778L243.741 69.8778L243.748 70.8778C270.401 70.6935 294.323 69.2354 311.599 66.9828C320.23 65.8574 327.24 64.5289 332.113 63.0481C334.542 62.31 336.499 61.5168 337.869 60.6584C339.178 59.8386 340.259 58.7627 340.259 57.3708H339.259ZM232.259 69.8778H231.259V156.019H232.259H233.259V69.8778H232.259ZM243.741 156.019H244.741V69.8778H243.741H242.741V156.019H243.741ZM232.259 34.0524L232.251 33.0524C206.008 33.2566 182.41 34.813 165.195 37.2444C156.594 38.4592 149.548 39.8975 144.552 41.5089C142.059 42.3131 140.027 43.1757 138.558 44.1037C137.13 45.0057 136.022 46.1027 135.787 47.4561L136.772 47.6276L137.757 47.7992C137.841 47.3136 138.319 46.62 139.626 45.7946C140.892 44.9952 142.744 44.1938 145.166 43.4124C150.002 41.8525 156.918 40.4333 165.475 39.2247C182.576 36.8094 206.081 35.2561 232.266 35.0523L232.259 34.0524ZM339.228 47.6276L340.213 47.4561C339.978 46.1037 338.871 45.0044 337.444 44.0985C335.975 43.1664 333.944 42.2979 331.45 41.4867C326.454 39.8613 319.408 38.4044 310.807 37.1711C293.592 34.7027 269.993 33.1094 243.749 32.9052L243.741 33.9052L243.734 34.9052C269.918 35.1089 293.422 36.6989 310.523 39.1508C319.08 40.3777 325.995 41.8152 330.831 43.3886C333.254 44.1768 335.106 44.9838 336.372 45.7872C337.679 46.6166 338.158 47.3126 338.243 47.7992L339.228 47.6276ZM316.843 167.389L316.654 168.371C320.613 169.132 324.355 166.521 324.998 162.543L324.011 162.384L323.024 162.224C322.561 165.085 319.886 166.955 317.032 166.407L316.843 167.389ZM311.677 160.011L310.69 159.852C310.05 163.806 312.719 167.613 316.654 168.371L316.843 167.389L317.032 166.407C314.156 165.853 312.198 163.055 312.664 160.171L311.677 160.011ZM438.318 167.389L438.507 168.371C442.443 167.613 445.111 163.806 444.472 159.852L443.484 160.011L442.497 160.171C442.963 163.055 441.005 165.853 438.129 166.407L438.318 167.389ZM431.15 162.384L430.163 162.543C430.806 166.521 434.548 169.132 438.507 168.371L438.318 167.389L438.129 166.407C435.276 166.955 432.6 165.085 432.137 162.224L431.15 162.384ZM384.614 162.384L383.627 162.224C383.17 165.048 380.558 166.906 377.748 166.427L377.58 167.413L377.412 168.399C381.314 169.063 384.967 166.468 385.601 162.543L384.614 162.384ZM377.58 167.413L377.412 166.427C374.602 166.906 371.99 165.048 371.534 162.224L370.547 162.384L369.56 162.543C370.194 166.468 373.847 169.063 377.748 168.399L377.58 167.413ZM451.826 12.8435L452.809 13.0276C454.078 6.2549 448.873 0 441.977 0V1V2C447.625 2 451.881 7.12105 450.843 12.6594L451.826 12.8435ZM437.413 89.7965L438.396 89.9806L452.809 13.0276L451.826 12.8435L450.843 12.6594L436.431 89.6124L437.413 89.7965ZM318.153 86.7068H317.153V90.4585H318.153H319.153V86.7068H318.153ZM325.668 79.2035V78.2035C320.967 78.2035 317.153 82.0091 317.153 86.7068H318.153H319.153C319.153 83.1166 322.068 80.2035 325.668 80.2035V79.2035ZM366.35 79.2035V78.2035H325.668V79.2035V80.2035H366.35V79.2035ZM379.609 9.14697L378.626 8.96102L365.368 79.0175L366.35 79.2035L367.333 79.3894L380.591 9.33292L379.609 9.14697ZM389.454 1V0C384.158 0 379.61 3.76235 378.626 8.961L379.609 9.14697L380.591 9.33294C381.396 5.08065 385.117 2 389.454 2V1ZM441.977 1V0H389.454V1V2H441.977V1ZM395.026 97.9619L394.039 97.8023L383.627 162.224L384.614 162.384L385.601 162.543L396.014 98.1214L395.026 97.9619ZM377.58 127.216L378.567 127.375L383.296 98.1214L382.309 97.9619L381.321 97.8023L376.593 127.056L377.58 127.216ZM437.413 89.7965L436.431 89.6124C435.974 92.0498 434.56 94.1037 432.618 95.4161L433.178 96.2447L433.738 97.0732C436.108 95.4716 437.838 92.9609 438.396 89.9806L437.413 89.7965ZM433.178 96.2447L432.191 96.4042L442.497 160.171L443.484 160.011L444.472 159.852L434.165 96.0851L433.178 96.2447ZM431.15 162.384L432.137 162.224L421.725 97.8023L420.738 97.9619L419.75 98.1214L430.163 162.543L431.15 162.384ZM420.738 97.9619V96.9619H395.026V97.9619V98.9619H420.738V97.9619ZM372.852 97.9619L371.865 98.1214L376.593 127.375L377.58 127.216L378.567 127.056L373.839 97.8023L372.852 97.9619ZM334.424 97.9619V98.9619H360.134V97.9619V96.9619H334.424V97.9619ZM372.852 97.9619V98.9619H382.309V97.9619V96.9619H372.852V97.9619ZM324.011 162.384L324.998 162.543L335.411 98.1214L334.424 97.9619L333.436 97.8023L323.024 162.224L324.011 162.384ZM318.153 90.4585H317.153C317.153 93.5898 318.848 96.3239 321.366 97.7984L321.872 96.9355L322.377 96.0726C320.446 94.9416 319.153 92.8498 319.153 90.4585H318.153ZM360.134 97.9619L359.147 98.1214L369.56 162.543L370.547 162.384L371.534 162.224L361.121 97.8023L360.134 97.9619ZM321.872 96.9355L320.885 96.776L310.69 159.852L311.677 160.011L312.664 160.171L322.859 97.0951L321.872 96.9355ZM159.157 167.389L158.968 166.407C156.114 166.955 153.439 165.085 152.976 162.224L151.989 162.384L151.002 162.543C151.645 166.521 155.387 169.132 159.346 168.371L159.157 167.389ZM164.323 160.011L163.336 160.171C163.802 163.055 161.844 165.853 158.968 166.407L159.157 167.389L159.346 168.371C163.281 167.613 165.95 163.806 165.31 159.852L164.323 160.011ZM37.682 167.389L37.8709 166.407C34.9945 165.853 33.0365 163.055 33.5027 160.171L32.5155 160.011L31.5283 159.852C30.8892 163.806 33.5574 167.613 37.4931 168.371L37.682 167.389ZM44.8498 162.384L43.8626 162.224C43.4001 165.085 40.7245 166.955 37.8709 166.407L37.682 167.389L37.4931 168.371C41.4515 169.132 45.1941 166.521 45.837 162.543L44.8498 162.384ZM91.3862 162.384L90.399 162.543C91.0334 166.468 94.6861 169.063 98.5876 168.399L98.4196 167.413L98.2517 166.427C95.4418 166.906 92.8298 165.048 92.3734 162.224L91.3862 162.384ZM98.4196 167.413L98.2517 168.399C102.153 169.063 105.806 166.468 106.44 162.543L105.453 162.384L104.466 162.224C104.01 165.048 101.398 166.906 98.5876 166.427L98.4196 167.413ZM24.1738 12.8435L25.1567 12.6594C24.1193 7.12104 28.375 2 34.0225 2V1V0C27.1266 0 21.9222 6.2549 23.1909 13.0276L24.1738 12.8435ZM38.5865 89.7965L39.5694 89.6124L25.1567 12.6594L24.1738 12.8435L23.1909 13.0276L37.6036 89.9806L38.5865 89.7965ZM157.847 86.7068H156.847V90.4585H157.847H158.847V86.7068H157.847ZM150.332 79.2035V80.2035C153.932 80.2035 156.847 83.1166 156.847 86.7068H157.847H158.847C158.847 82.0091 155.033 78.2035 150.332 78.2035V79.2035ZM109.65 79.2035V80.2035H150.332V79.2035V78.2035H109.65V79.2035ZM96.3912 9.14697L95.4086 9.33292L108.667 79.3894L109.65 79.2035L110.632 79.0175L97.3738 8.96102L96.3912 9.14697ZM86.5458 1V2C90.8826 2 94.6038 5.08065 95.4086 9.33294L96.3912 9.14697L97.3738 8.961C96.3898 3.76235 91.8417 0 86.5458 0V1ZM34.0225 1V2H86.5458V1V0H34.0225V1ZM80.9736 97.9619L79.9864 98.1214L90.399 162.543L91.3862 162.384L92.3734 162.224L81.9608 97.8023L80.9736 97.9619ZM98.4197 127.216L99.4069 127.056L94.6785 97.8023L93.6913 97.9619L92.7041 98.1214L97.4325 127.375L98.4197 127.216ZM38.5865 89.7965L37.6036 89.9806C38.1619 92.9609 39.8923 95.4716 42.2623 97.0732L42.8222 96.2447L43.3821 95.4161C41.4401 94.1037 40.026 92.0498 39.5694 89.6124L38.5865 89.7965ZM42.8222 96.2447L41.835 96.0851L31.5283 159.852L32.5155 160.011L33.5027 160.171L43.8094 96.4042L42.8222 96.2447ZM44.8498 162.384L45.837 162.543L56.2496 98.1214L55.2624 97.9619L54.2752 97.8023L43.8626 162.224L44.8498 162.384ZM55.2624 97.9619V98.9619H80.9736V97.9619V96.9619H55.2624V97.9619ZM103.148 97.9619L102.161 97.8023L97.4325 127.056L98.4197 127.216L99.4069 127.375L104.135 98.1214L103.148 97.9619ZM141.576 97.9619V96.9619H115.866V97.9619V98.9619H141.576V97.9619ZM103.148 97.9619V96.9619H93.6913V97.9619V98.9619H103.148V97.9619ZM151.989 162.384L152.976 162.224L142.564 97.8023L141.576 97.9619L140.589 98.1214L151.002 162.543L151.989 162.384ZM157.847 90.4585H156.847C156.847 92.8498 155.554 94.9416 153.623 96.0726L154.128 96.9355L154.634 97.7984C157.152 96.3239 158.847 93.5898 158.847 90.4585H157.847ZM115.866 97.9619L114.879 97.8023L104.466 162.224L105.453 162.384L106.44 162.543L116.853 98.1214L115.866 97.9619ZM154.128 96.9355L153.141 97.0951L163.336 160.171L164.323 160.011L165.31 159.852L155.115 96.776L154.128 96.9355ZM243.741 33.9052L243.729 32.9053L232.246 33.0525L232.259 34.0524L232.271 35.0523L243.754 34.9051L243.741 33.9052Z" fill="black" mask="url(#path-2-outside-1_256_11)"/>
</svg>
