<svg width="430" height="164" viewBox="0 0 430 164" fill="none" xmlns="http://www.w3.org/2000/svg">
<ellipse cx="215" cy="143.5" rx="215" ry="20.5" fill="#FFA299"/>
<mask id="path-2-outside-1_256_10" maskUnits="userSpaceOnUse" x="34" y="0" width="350" height="149" fill="black">
<rect fill="white" x="34" width="350" height="149"/>
<path d="M204.332 136.931H172.927C170.817 136.931 169.107 138.775 169.107 141.05V142.881C169.107 145.156 170.817 147 172.927 147H244.649C246.758 147 248.468 145.156 248.468 142.881V141.05C248.468 138.775 246.758 136.931 244.649 136.931H213.668V61.3965C212.123 61.408 210.567 61.4138 209 61.4138C207.433 61.4138 205.877 61.408 204.332 61.3965V136.931Z"/>
<path d="M291.332 50.4295V42.1912C291.332 48.7859 256.915 54.174 213.57 54.5299C212.057 54.5423 210.533 54.5486 209 54.5486C207.467 54.5486 205.943 54.5423 204.43 54.5299C161.085 54.174 126.668 48.7859 126.668 42.1912V50.4295C126.668 56.287 161.033 61.0736 204.332 61.3965C205.877 61.408 207.433 61.4138 209 61.4138C210.567 61.4138 212.123 61.408 213.668 61.3965C256.967 61.0736 291.332 56.287 291.332 50.4295Z"/>
<path fill-rule="evenodd" clip-rule="evenodd" d="M204.332 29.9825C161.703 30.3401 127.734 35.4361 126.693 41.8861C126.677 41.9875 126.668 42.0892 126.668 42.1912C126.668 48.7859 161.085 54.174 204.43 54.5299C205.943 54.5423 207.467 54.5486 209 54.5486C210.533 54.5486 212.057 54.5423 213.57 54.5299C256.915 54.174 291.332 48.7859 291.332 42.1912C291.332 42.0892 291.323 41.9875 291.307 41.8861C290.266 35.4361 256.297 30.211 213.668 29.8534L204.332 29.9825Z"/>
<path d="M374.851 1C379.95 1 383.796 5.98758 382.859 11.3852L371.14 78.8625C370.727 81.2378 369.449 83.2391 367.696 84.5167C366.385 85.4718 364.81 86.0224 363.132 86.0224H357.581H336.676H326.335H318.646H308.305H287.4H280.281C279.155 86.0224 278.101 85.6945 277.195 85.1224C275.386 83.9801 274.171 81.8643 274.171 79.443V76.1533C274.171 72.5196 276.907 69.5739 280.281 69.5739H313.36L324.14 8.14379C324.867 4.00019 328.229 1 332.145 1H374.851Z"/>
<path fill-rule="evenodd" clip-rule="evenodd" d="M268.905 140.431L277.195 85.1224C278.101 85.6945 279.155 86.0224 280.281 86.0224H287.4L278.934 142.512C278.485 145.51 275.876 147.475 273.106 146.9C270.337 146.326 268.456 143.429 268.905 140.431ZM318.646 86.0224H308.305L316.772 142.512C317.215 145.471 319.762 147.423 322.491 146.922L322.455 146.915C322.431 146.91 322.406 146.905 322.381 146.9C319.612 146.326 317.731 143.429 318.181 140.431L322.491 111.674L318.646 86.0224Z"/>
<path d="M322.381 146.9C319.612 146.326 317.731 143.429 318.181 140.431L322.491 111.674L326.335 86.0224H336.676L328.209 142.512C327.766 145.47 325.219 147.423 322.491 146.922L322.455 146.915C322.431 146.91 322.406 146.905 322.381 146.9Z"/>
<path d="M376.076 140.431C376.526 143.43 374.645 146.326 371.875 146.9C369.106 147.475 366.497 145.51 366.047 142.512L357.581 86.0224H363.132C364.81 86.0224 366.385 85.4718 367.696 84.5167L376.076 140.431Z"/>
<path d="M43.1492 1C38.0497 1 34.2038 5.98758 35.1413 11.3852L46.8601 78.8625C47.2726 81.2378 48.551 83.2391 50.304 84.5167C51.6146 85.4718 53.1905 86.0224 54.8682 86.0224H60.419H81.3243H91.6649H99.354H109.695H130.599H137.719C138.845 86.0224 139.899 85.6945 140.805 85.1224C142.614 83.9801 143.829 81.8643 143.829 79.443V76.1533C143.829 72.5196 141.093 69.5739 137.719 69.5739H104.64L93.8601 8.14379C93.1329 4.00019 89.7711 1 85.855 1H43.1492Z"/>
<path fill-rule="evenodd" clip-rule="evenodd" d="M149.095 140.431L140.805 85.1224C139.899 85.6945 138.845 86.0224 137.719 86.0224H130.599L139.066 142.512C139.515 145.51 142.124 147.475 144.894 146.9C147.663 146.326 149.544 143.429 149.095 140.431ZM99.354 86.0224H109.695L101.228 142.512C100.785 145.471 98.2379 147.423 95.5094 146.922L95.5445 146.915C95.5692 146.91 95.5939 146.905 95.6187 146.9C98.388 146.326 100.269 143.429 99.8195 140.431L95.5095 111.674L99.354 86.0224Z"/>
<path d="M95.6187 146.9C98.388 146.326 100.269 143.429 99.8195 140.431L95.5095 111.674L91.6649 86.0224H81.3243L89.7907 142.512C90.2341 145.47 92.781 147.423 95.5094 146.922L95.5445 146.915C95.5692 146.91 95.5939 146.905 95.6187 146.9Z"/>
<path d="M41.9238 140.431C41.4745 143.43 43.3552 146.326 46.1246 146.9C48.894 147.475 51.5033 145.51 51.9526 142.512L60.419 86.0224H54.8682C53.1905 86.0224 51.6146 85.4718 50.304 84.5167L41.9238 140.431Z"/>
</mask>
<path d="M204.332 136.931H172.927C170.817 136.931 169.107 138.775 169.107 141.05V142.881C169.107 145.156 170.817 147 172.927 147H244.649C246.758 147 248.468 145.156 248.468 142.881V141.05C248.468 138.775 246.758 136.931 244.649 136.931H213.668V61.3965C212.123 61.408 210.567 61.4138 209 61.4138C207.433 61.4138 205.877 61.408 204.332 61.3965V136.931Z" fill="#E3B581"/>
<path d="M291.332 50.4295V42.1912C291.332 48.7859 256.915 54.174 213.57 54.5299C212.057 54.5423 210.533 54.5486 209 54.5486C207.467 54.5486 205.943 54.5423 204.43 54.5299C161.085 54.174 126.668 48.7859 126.668 42.1912V50.4295C126.668 56.287 161.033 61.0736 204.332 61.3965C205.877 61.408 207.433 61.4138 209 61.4138C210.567 61.4138 212.123 61.408 213.668 61.3965C256.967 61.0736 291.332 56.287 291.332 50.4295Z" fill="#CD925E"/>
<path fill-rule="evenodd" clip-rule="evenodd" d="M204.332 29.9825C161.703 30.3401 127.734 35.4361 126.693 41.8861C126.677 41.9875 126.668 42.0892 126.668 42.1912C126.668 48.7859 161.085 54.174 204.43 54.5299C205.943 54.5423 207.467 54.5486 209 54.5486C210.533 54.5486 212.057 54.5423 213.57 54.5299C256.915 54.174 291.332 48.7859 291.332 42.1912C291.332 42.0892 291.323 41.9875 291.307 41.8861C290.266 35.4361 256.297 30.211 213.668 29.8534L204.332 29.9825Z" fill="#EFC291"/>
<path d="M374.851 1C379.95 1 383.796 5.98758 382.859 11.3852L371.14 78.8625C370.727 81.2378 369.449 83.2391 367.696 84.5167C366.385 85.4718 364.81 86.0224 363.132 86.0224H357.581H336.676H326.335H318.646H308.305H287.4H280.281C279.155 86.0224 278.101 85.6945 277.195 85.1224C275.386 83.9801 274.171 81.8643 274.171 79.443V76.1533C274.171 72.5196 276.907 69.5739 280.281 69.5739H313.36L324.14 8.14379C324.867 4.00019 328.229 1 332.145 1H374.851Z" fill="#A1C0DB"/>
<path fill-rule="evenodd" clip-rule="evenodd" d="M268.905 140.431L277.195 85.1224C278.101 85.6945 279.155 86.0224 280.281 86.0224H287.4L278.934 142.512C278.485 145.51 275.876 147.475 273.106 146.9C270.337 146.326 268.456 143.429 268.905 140.431ZM318.646 86.0224H308.305L316.772 142.512C317.215 145.471 319.762 147.423 322.491 146.922L322.455 146.915C322.431 146.91 322.406 146.905 322.381 146.9C319.612 146.326 317.731 143.429 318.181 140.431L322.491 111.674L318.646 86.0224Z" fill="#CD925E"/>
<path d="M322.381 146.9C319.612 146.326 317.731 143.429 318.181 140.431L322.491 111.674L326.335 86.0224H336.676L328.209 142.512C327.766 145.47 325.219 147.423 322.491 146.922L322.455 146.915C322.431 146.91 322.406 146.905 322.381 146.9Z" fill="#D8A981"/>
<path d="M376.076 140.431C376.526 143.43 374.645 146.326 371.875 146.9C369.106 147.475 366.497 145.51 366.047 142.512L357.581 86.0224H363.132C364.81 86.0224 366.385 85.4718 367.696 84.5167L376.076 140.431Z" fill="#D8A981"/>
<path d="M43.1492 1C38.0497 1 34.2038 5.98758 35.1413 11.3852L46.8601 78.8625C47.2726 81.2378 48.551 83.2391 50.304 84.5167C51.6146 85.4718 53.1905 86.0224 54.8682 86.0224H60.419H81.3243H91.6649H99.354H109.695H130.599H137.719C138.845 86.0224 139.899 85.6945 140.805 85.1224C142.614 83.9801 143.829 81.8643 143.829 79.443V76.1533C143.829 72.5196 141.093 69.5739 137.719 69.5739H104.64L93.8601 8.14379C93.1329 4.00019 89.7711 1 85.855 1H43.1492Z" fill="#FBB8A7"/>
<path fill-rule="evenodd" clip-rule="evenodd" d="M149.095 140.431L140.805 85.1224C139.899 85.6945 138.845 86.0224 137.719 86.0224H130.599L139.066 142.512C139.515 145.51 142.124 147.475 144.894 146.9C147.663 146.326 149.544 143.429 149.095 140.431ZM99.354 86.0224H109.695L101.228 142.512C100.785 145.471 98.2379 147.423 95.5094 146.922L95.5445 146.915C95.5692 146.91 95.5939 146.905 95.6187 146.9C98.388 146.326 100.269 143.429 99.8195 140.431L95.5095 111.674L99.354 86.0224Z" fill="#CD925E"/>
<path d="M95.6187 146.9C98.388 146.326 100.269 143.429 99.8195 140.431L95.5095 111.674L91.6649 86.0224H81.3243L89.7907 142.512C90.2341 145.47 92.781 147.423 95.5094 146.922L95.5445 146.915C95.5692 146.91 95.5939 146.905 95.6187 146.9Z" fill="#D8A981"/>
<path d="M41.9238 140.431C41.4745 143.43 43.3552 146.326 46.1246 146.9C48.894 147.475 51.5033 145.51 51.9526 142.512L60.419 86.0224H54.8682C53.1905 86.0224 51.6146 85.4718 50.304 84.5167L41.9238 140.431Z" fill="#D8A981"/>
<path d="M291.332 41.8861H291.832V41.3861H291.332V41.8861ZM126.668 41.8861V41.3861H126.168V41.8861H126.668ZM213.57 54.5299L213.574 55.0299L213.57 54.5299ZM204.43 54.5299L204.426 55.0299L204.43 54.5299ZM322.381 146.9L322.28 147.39L322.28 147.39L322.381 146.9ZM318.181 140.431L317.686 140.357L318.181 140.431ZM322.491 146.922L322.4 147.413L322.491 147.43L322.581 147.413L322.491 146.922ZM322.455 146.915L322.361 147.406L322.362 147.406L322.455 146.915ZM95.6187 146.9L95.7202 147.39L95.7202 147.39L95.6187 146.9ZM99.8195 140.431L100.314 140.357L99.8195 140.431ZM95.5094 146.922L95.4191 147.413L95.5094 147.43L95.5997 147.413L95.5094 146.922ZM95.5445 146.915L95.6385 147.406L95.6385 147.406L95.5445 146.915ZM291.332 41.8861H290.832V50.4295H291.332H291.832V41.8861H291.332ZM126.668 50.4295H127.168V41.8861H126.668H126.168V50.4295H126.668ZM291.307 41.8861V42.3861H291.332V41.8861V41.3861H291.307V41.8861ZM291.332 41.8861H290.832V42.1912H291.332H291.832V41.8861H291.332ZM126.668 42.1912H127.168V41.8861H126.668H126.168V42.1912H126.668ZM126.668 41.8861V42.3861H126.693V41.8861V41.3861H126.668V41.8861ZM213.57 54.5299L213.574 55.0299C235.262 54.8518 254.729 53.4148 268.783 51.194C275.806 50.0842 281.5 48.7752 285.45 47.3204C287.421 46.5941 288.988 45.8208 290.071 44.9984C291.142 44.1842 291.832 43.2493 291.832 42.1912H291.332H290.832C290.832 42.7819 290.445 43.4579 289.466 44.202C288.497 44.9379 287.036 45.6703 285.104 46.382C281.245 47.8034 275.626 49.1002 268.627 50.2062C254.636 52.4171 235.222 53.8521 213.566 54.0299L213.57 54.5299ZM126.668 42.1912H126.168C126.168 43.2493 126.857 44.1842 127.929 44.9984C129.012 45.8208 130.579 46.5941 132.55 47.3204C136.5 48.7752 142.194 50.0842 149.217 51.194C163.271 53.4148 182.738 54.8518 204.426 55.0299L204.43 54.5299L204.434 54.0299C182.778 53.8521 163.364 52.4171 149.373 50.2062C142.374 49.1002 136.755 47.8034 132.896 46.382C130.964 45.6703 129.503 44.9379 128.534 44.202C127.555 43.4579 127.168 42.7819 127.168 42.1912H126.668ZM204.43 54.5299L204.426 55.0299C205.94 55.0423 207.465 55.0486 209 55.0486V54.5486V54.0486C207.468 54.0486 205.946 54.0423 204.434 54.0299L204.43 54.5299ZM209 54.5486V55.0486C210.535 55.0486 212.06 55.0423 213.574 55.0299L213.57 54.5299L213.566 54.0299C212.054 54.0423 210.532 54.0486 209 54.0486V54.5486ZM213.668 61.3965L213.665 60.8965C212.121 60.908 210.565 60.9138 209 60.9138V61.4138V61.9138C210.568 61.9138 212.126 61.908 213.672 61.8965L213.668 61.3965ZM209 61.4138V60.9138C207.435 60.9138 205.879 60.908 204.335 60.8965L204.332 61.3965L204.328 61.8965C205.874 61.908 207.432 61.9138 209 61.9138V61.4138ZM318.181 140.431L317.686 140.357C317.202 143.587 319.222 146.755 322.28 147.39L322.381 146.9L322.483 146.411C320.002 145.896 318.26 143.271 318.675 140.505L318.181 140.431ZM322.491 111.674L321.996 111.6L317.686 140.357L318.181 140.431L318.675 140.505L322.985 111.748L322.491 111.674ZM322.381 146.9L322.28 147.39C322.307 147.395 322.334 147.401 322.361 147.406L322.455 146.915L322.55 146.424C322.527 146.42 322.505 146.415 322.483 146.411L322.381 146.9ZM322.455 146.915L322.362 147.406C322.374 147.408 322.387 147.411 322.4 147.413L322.491 146.922L322.581 146.43C322.571 146.428 322.56 146.426 322.549 146.424L322.455 146.915ZM322.491 146.922L322.581 147.413C322.621 147.406 322.661 147.398 322.701 147.39L322.6 146.9L322.498 146.411C322.466 146.417 322.433 146.424 322.4 146.43L322.491 146.922ZM322.455 146.915L322.363 147.406L322.398 147.413L322.491 146.922L322.583 146.43L322.548 146.424L322.455 146.915ZM326.335 86.0224V86.5224H336.676V86.0224V85.5224H326.335V86.0224ZM367.696 84.5167L367.401 84.1126C366.172 85.0089 364.698 85.5224 363.132 85.5224V86.0224V86.5224C364.921 86.5224 366.599 85.9348 367.99 84.9207L367.696 84.5167ZM363.132 86.0224V85.5224H357.581V86.0224V86.5224H363.132V86.0224ZM287.4 86.0224V85.5224H280.281V86.0224V86.5224H287.4V86.0224ZM280.281 86.0224V85.5224C279.254 85.5224 278.292 85.2237 277.462 84.6997L277.195 85.1224L276.928 85.5452C277.91 86.1652 279.056 86.5224 280.281 86.5224V86.0224ZM318.646 86.0224V85.5224H308.305V86.0224V86.5224H318.646V86.0224ZM99.8195 140.431L99.325 140.505C99.7395 143.271 97.9977 145.896 95.5171 146.411L95.6187 146.9L95.7202 147.39C98.7783 146.755 100.798 143.587 100.314 140.357L99.8195 140.431ZM95.5095 111.674L95.015 111.748L99.325 140.505L99.8195 140.431L100.314 140.357L96.004 111.6L95.5095 111.674ZM95.6187 146.9L95.5171 146.411C95.4951 146.415 95.4729 146.42 95.4505 146.424L95.5445 146.915L95.6385 147.406C95.6655 147.401 95.6927 147.395 95.7202 147.39L95.6187 146.9ZM95.5445 146.915L95.4505 146.424C95.4399 146.426 95.4294 146.428 95.4191 146.43L95.5094 146.922L95.5997 147.413C95.6128 147.411 95.6257 147.408 95.6385 147.406L95.5445 146.915ZM95.5094 146.922L95.5997 146.43C95.567 146.424 95.5344 146.417 95.5018 146.411L95.4003 146.9L95.2987 147.39C95.339 147.398 95.3791 147.406 95.4191 147.413L95.5094 146.922ZM95.5445 146.915L95.4523 146.424L95.4172 146.43L95.5094 146.922L95.6016 147.413L95.6367 147.406L95.5445 146.915ZM91.6649 86.0224V85.5224H81.3243V86.0224V86.5224H91.6649V86.0224ZM50.304 84.5167L50.0095 84.9207C51.4009 85.9348 53.0789 86.5224 54.8682 86.5224V86.0224V85.5224C53.302 85.5224 51.8283 85.0089 50.5985 84.1126L50.304 84.5167ZM54.8682 86.0224V86.5224H60.419V86.0224V85.5224H54.8682V86.0224ZM130.599 86.0224V86.5224H137.719V86.0224V85.5224H130.599V86.0224ZM137.719 86.0224V86.5224C138.944 86.5224 140.09 86.1652 141.072 85.5452L140.805 85.1224L140.538 84.6997C139.708 85.2237 138.746 85.5224 137.719 85.5224V86.0224ZM99.354 86.0224V86.5224H109.695V86.0224V85.5224H99.354V86.0224ZM204.332 136.931V137.931H205.332V136.931H204.332ZM213.668 136.931H212.668V137.931H213.668V136.931ZM291.307 41.8861L292.294 41.7268V41.7267L291.307 41.8861ZM126.693 41.8861L125.706 41.7267L126.693 41.8861ZM204.332 61.3965H205.332V60.4039L204.339 60.3965L204.332 61.3965ZM213.668 61.3965L213.661 60.3965L212.668 60.4039V61.3965H213.668ZM213.668 29.8534L213.677 28.8534L213.666 28.8533L213.654 28.8535L213.668 29.8534ZM204.332 29.9825L204.34 30.9824L204.346 30.9824L204.332 29.9825ZM278.934 142.512L279.923 142.66L278.934 142.512ZM268.905 140.431L267.916 140.283L268.905 140.431ZM316.772 142.512L317.761 142.364L316.772 142.512ZM328.209 142.512L327.22 142.364L328.209 142.512ZM376.076 140.431L377.065 140.283L376.076 140.431ZM366.047 142.512L367.036 142.364L366.047 142.512ZM322.491 146.922L322.671 145.938L322.491 145.905L322.31 145.938L322.491 146.922ZM322.491 111.674L321.502 111.822H323.479L322.491 111.674ZM382.859 11.3852L381.873 11.214V11.2141L382.859 11.3852ZM371.14 78.8625L372.125 79.0336V79.0336L371.14 78.8625ZM313.36 69.5739V70.5739H314.199L314.345 69.7467L313.36 69.5739ZM324.14 8.14379L323.155 7.97093V7.97094L324.14 8.14379ZM326.335 86.0224L327.324 86.1707L327.496 85.0224H326.335V86.0224ZM336.676 86.0224V85.0224H335.814L335.687 85.8742L336.676 86.0224ZM367.696 84.5167L367.107 83.7085L366.617 84.0655L366.707 84.6649L367.696 84.5167ZM357.581 86.0224L358.57 85.8742L358.442 85.0224H357.581V86.0224ZM277.195 85.1224L278.184 85.2707L278.28 84.6254L277.729 84.2769L277.195 85.1224ZM287.4 86.0224V85.0224H286.539L286.412 85.8742L287.4 86.0224ZM308.305 86.0224L309.294 85.8742L309.167 85.0224H308.305V86.0224ZM318.646 86.0224V85.0224H317.485L317.657 86.1707L318.646 86.0224ZM139.066 142.512L140.055 142.364L139.066 142.512ZM149.095 140.431L150.084 140.283L149.095 140.431ZM101.228 142.512L100.239 142.364H100.239L101.228 142.512ZM89.7907 142.512L90.7796 142.364L89.7907 142.512ZM41.9238 140.431L40.9349 140.283L41.9238 140.431ZM51.9526 142.512L50.9637 142.364L51.9526 142.512ZM95.5094 146.922L95.6901 145.938L95.5094 145.905L95.3287 145.938L95.5094 146.922ZM95.5095 111.674L94.5205 111.822H96.4984L95.5095 111.674ZM35.1413 11.3852L36.1266 11.2141L36.1266 11.214L35.1413 11.3852ZM46.8601 78.8625L45.8748 79.0336L45.8748 79.0336L46.8601 78.8625ZM104.64 69.5739L103.655 69.7467L103.801 70.5739H104.64V69.5739ZM93.8601 8.14379L94.8451 7.97094L94.8451 7.97093L93.8601 8.14379ZM91.6649 86.0224V85.0224H90.5039L90.676 86.1707L91.6649 86.0224ZM81.3243 86.0224L82.3133 85.8742L82.1856 85.0224H81.3243V86.0224ZM50.304 84.5167L51.293 84.6649L51.3828 84.0655L50.893 83.7085L50.304 84.5167ZM60.419 86.0224V85.0224H59.5577L59.43 85.8742L60.419 86.0224ZM140.805 85.1224L140.271 84.2769L139.72 84.6254L139.816 85.2707L140.805 85.1224ZM130.599 86.0224L131.588 85.8742L131.461 85.0224H130.599V86.0224ZM109.695 86.0224V85.0224H108.833L108.706 85.8742L109.695 86.0224ZM99.354 86.0224L100.343 86.1707L100.515 85.0224H99.354V86.0224ZM172.927 136.931V137.931H204.332V136.931V135.931H172.927V136.931ZM169.107 141.05H170.107C170.107 139.255 171.439 137.931 172.927 137.931V136.931V135.931C170.195 135.931 168.107 138.295 168.107 141.05H169.107ZM169.107 142.881H170.107V141.05H169.107H168.107V142.881H169.107ZM172.927 147V146C171.439 146 170.107 144.676 170.107 142.881H169.107H168.107C168.107 145.636 170.195 148 172.927 148V147ZM248.468 142.881H247.468C247.468 144.676 246.136 146 244.649 146V147V148C247.38 148 249.468 145.636 249.468 142.881H248.468ZM248.468 141.05H247.468V142.881H248.468H249.468V141.05H248.468ZM244.649 136.931V137.931C246.136 137.931 247.468 139.255 247.468 141.05H248.468H249.468C249.468 138.295 247.38 135.931 244.649 135.931V136.931ZM213.668 136.931V137.931H244.649V136.931V135.931H213.668V136.931ZM244.649 147V146H172.927V147V148H244.649V147ZM291.332 42.1912H290.332V50.4295H291.332H292.332V42.1912H291.332ZM126.668 50.4295H127.668V42.1912H126.668H125.668V50.4295H126.668ZM291.332 42.1912H292.332C292.332 42.0353 292.319 41.8803 292.294 41.7268L291.307 41.8861L290.32 42.0455C290.328 42.0948 290.332 42.1432 290.332 42.1912H291.332ZM126.693 41.8861L125.706 41.7267C125.681 41.8802 125.668 42.0352 125.668 42.1912H126.668H127.668C127.668 42.1433 127.672 42.0949 127.68 42.0455L126.693 41.8861ZM204.332 61.3965L204.339 60.3965C182.718 60.2353 163.349 58.9594 149.402 56.9982C142.421 56.0165 136.841 54.8687 133.026 53.6185C131.111 52.9912 129.701 52.3568 128.789 51.7407C127.834 51.0952 127.668 50.6407 127.668 50.4295H126.668H125.668C125.668 51.6827 126.576 52.6591 127.67 53.3978C128.806 54.1659 130.419 54.8689 132.403 55.5191C136.384 56.8239 142.101 57.9912 149.124 58.9787C163.184 60.9559 182.646 62.2348 204.324 62.3965L204.332 61.3965ZM291.332 50.4295H290.332C290.332 50.6407 290.166 51.0952 289.211 51.7407C288.299 52.3568 286.889 52.9912 284.974 53.6185C281.159 54.8687 275.579 56.0165 268.598 56.9982C254.651 58.9594 235.282 60.2353 213.661 60.3965L213.668 61.3965L213.676 62.3965C235.354 62.2348 254.816 60.9559 268.876 58.9787C275.899 57.9912 281.616 56.8239 285.597 55.5191C287.581 54.8689 289.194 54.1659 290.33 53.3978C291.424 52.6591 292.332 51.6827 292.332 50.4295H291.332ZM204.332 61.3965H203.332V136.931H204.332H205.332V61.3965H204.332ZM213.668 136.931H214.668V61.3965H213.668H212.668V136.931H213.668ZM204.332 29.9825L204.323 28.9825C182.978 29.1616 163.779 30.5268 149.767 32.661C142.767 33.7272 137.022 34.9911 132.94 36.4109C130.903 37.1194 129.232 37.8832 128.017 38.711C126.831 39.5187 125.902 40.5089 125.706 41.7267L126.693 41.8861L127.68 42.0455C127.744 41.6508 128.105 41.0709 129.142 40.3639C130.151 39.6771 131.637 38.9818 133.597 38.2999C137.51 36.9389 143.116 35.6971 150.068 34.6382C163.958 32.5226 183.057 31.161 204.34 30.9824L204.332 29.9825ZM291.307 41.8861L292.294 41.7267C292.098 40.5099 291.17 39.5177 289.985 38.7067C288.77 37.8753 287.099 37.1063 285.062 36.3916C280.981 34.9595 275.235 33.6792 268.236 32.5969C254.223 30.4301 235.023 29.0325 213.677 28.8534L213.668 29.8534L213.66 30.8534C234.942 31.0319 254.041 32.4257 267.93 34.5734C274.881 35.6482 280.488 36.906 284.4 38.2788C286.361 38.9666 287.847 39.6668 288.856 40.3571C289.894 41.0678 290.256 41.6498 290.32 42.0455L291.307 41.8861ZM273.106 146.9L272.903 147.879C276.303 148.585 279.399 146.154 279.923 142.66L278.934 142.512L277.945 142.364C277.57 144.865 275.448 146.365 273.309 145.921L273.106 146.9ZM268.905 140.431L267.916 140.283C267.397 143.745 269.556 147.185 272.903 147.879L273.106 146.9L273.309 145.921C271.117 145.466 269.515 143.113 269.894 140.58L268.905 140.431ZM371.875 146.9L372.079 147.879C375.425 147.185 377.584 143.746 377.065 140.283L376.076 140.431L375.087 140.58C375.467 143.114 373.864 145.466 371.672 145.921L371.875 146.9ZM366.047 142.512L365.058 142.66C365.582 146.154 368.678 148.585 372.079 147.879L371.875 146.9L371.672 145.921C369.534 146.365 367.411 144.865 367.036 142.364L366.047 142.512ZM328.209 142.512L327.22 142.364C326.85 144.832 324.777 146.325 322.671 145.938L322.491 146.922L322.31 147.905C325.661 148.521 328.681 146.109 329.198 142.66L328.209 142.512ZM322.491 146.922L322.31 145.938C320.204 146.325 318.131 144.832 317.761 142.364L316.772 142.512L315.783 142.66C316.3 146.109 319.321 148.521 322.671 147.905L322.491 146.922ZM382.859 11.3852L383.844 11.5563C384.872 5.6355 380.657 0 374.851 0V1V2C379.243 2 382.72 6.33966 381.873 11.214L382.859 11.3852ZM371.14 78.8625L372.125 79.0336L383.844 11.5563L382.859 11.3852L381.873 11.2141L370.155 78.6914L371.14 78.8625ZM274.171 76.1533H273.171V79.443H274.171H275.171V76.1533H274.171ZM280.281 69.5739V68.5739C276.286 68.5739 273.171 72.0383 273.171 76.1533H274.171H275.171C275.171 73.0009 277.528 70.5739 280.281 70.5739V69.5739ZM313.36 69.5739V68.5739H280.281V69.5739V70.5739H313.36V69.5739ZM324.14 8.14379L323.155 7.97094L312.375 69.401L313.36 69.5739L314.345 69.7467L325.125 8.31664L324.14 8.14379ZM332.145 1V0C327.692 0 323.957 3.40153 323.155 7.97093L324.14 8.14379L325.125 8.31665C325.777 4.59885 328.766 2 332.145 2V1ZM374.851 1V0H332.145V1V2H374.851V1ZM336.676 86.0224L335.687 85.8742L327.22 142.364L328.209 142.512L329.198 142.66L337.665 86.1707L336.676 86.0224ZM322.491 111.674L323.479 111.822L327.324 86.1707L326.335 86.0224L325.346 85.8742L321.502 111.526L322.491 111.674ZM371.14 78.8625L370.155 78.6914C369.786 80.8163 368.646 82.587 367.107 83.7085L367.696 84.5167L368.285 85.3248C370.252 83.8912 371.669 81.6593 372.125 79.0336L371.14 78.8625ZM367.696 84.5167L366.707 84.6649L375.087 140.58L376.076 140.431L377.065 140.283L368.685 84.3684L367.696 84.5167ZM366.047 142.512L367.036 142.364L358.57 85.8742L357.581 86.0224L356.592 86.1707L365.058 142.66L366.047 142.512ZM357.581 86.0224V85.0224H336.676V86.0224V87.0224H357.581V86.0224ZM318.646 86.0224L317.657 86.1707L321.502 111.822L322.491 111.674L323.479 111.526L319.635 85.8742L318.646 86.0224ZM287.4 86.0224V87.0224H308.305V86.0224V85.0224H287.4V86.0224ZM318.646 86.0224V87.0224H326.335V86.0224V85.0224H318.646V86.0224ZM278.934 142.512L279.923 142.66L288.389 86.1707L287.4 86.0224L286.412 85.8742L277.945 142.364L278.934 142.512ZM274.171 79.443H273.171C273.171 82.1986 274.554 84.6377 276.661 85.968L277.195 85.1224L277.729 84.2769C276.217 83.3225 275.171 81.53 275.171 79.443H274.171ZM308.305 86.0224L307.316 86.1707L315.783 142.66L316.772 142.512L317.761 142.364L309.294 85.8742L308.305 86.0224ZM277.195 85.1224L276.206 84.9742L267.916 140.283L268.905 140.431L269.894 140.58L278.184 85.2707L277.195 85.1224ZM144.894 146.9L144.691 145.921C142.552 146.365 140.43 144.865 140.055 142.364L139.066 142.512L138.077 142.66C138.601 146.154 141.697 148.585 145.097 147.879L144.894 146.9ZM149.095 140.431L148.106 140.58C148.485 143.113 146.883 145.466 144.691 145.921L144.894 146.9L145.097 147.879C148.444 147.185 150.603 143.745 150.084 140.283L149.095 140.431ZM46.1246 146.9L46.3277 145.921C44.1358 145.466 42.533 143.114 42.9128 140.58L41.9238 140.431L40.9349 140.283C40.4159 143.746 42.5746 147.185 45.9215 147.879L46.1246 146.9ZM51.9526 142.512L50.9637 142.364C50.5887 144.865 48.4664 146.365 46.3277 145.921L46.1246 146.9L45.9215 147.879C49.3215 148.585 52.4178 146.154 52.9416 142.66L51.9526 142.512ZM89.7907 142.512L88.8017 142.66C89.3186 146.109 92.3394 148.521 95.6901 147.905L95.5094 146.922L95.3287 145.938C93.2225 146.325 91.1496 144.832 90.7796 142.364L89.7907 142.512ZM95.5094 146.922L95.3287 147.905C98.6794 148.521 101.7 146.109 102.217 142.66L101.228 142.512L100.239 142.364C99.8693 144.832 97.7964 146.325 95.6901 145.938L95.5094 146.922ZM35.1413 11.3852L36.1266 11.214C35.2799 6.33965 38.7569 2 43.1492 2V1V0C37.3425 0 33.1277 5.63551 34.1561 11.5563L35.1413 11.3852ZM46.8601 78.8625L47.8453 78.6914L36.1266 11.2141L35.1413 11.3852L34.1561 11.5563L45.8748 79.0336L46.8601 78.8625ZM143.829 76.1533H142.829V79.443H143.829H144.829V76.1533H143.829ZM137.719 69.5739V70.5739C140.472 70.5739 142.829 73.0009 142.829 76.1533H143.829H144.829C144.829 72.0383 141.714 68.5739 137.719 68.5739V69.5739ZM104.64 69.5739V70.5739H137.719V69.5739V68.5739H104.64V69.5739ZM93.8601 8.14379L92.8752 8.31664L103.655 69.7467L104.64 69.5739L105.625 69.401L94.8451 7.97094L93.8601 8.14379ZM85.855 1V2C89.2341 2 92.2227 4.59885 92.8752 8.31665L93.8601 8.14379L94.8451 7.97093C94.0431 3.40154 90.3081 0 85.855 0V1ZM43.1492 1V2H85.855V1V0H43.1492V1ZM81.3243 86.0224L80.3354 86.1707L88.8017 142.66L89.7907 142.512L90.7796 142.364L82.3133 85.8742L81.3243 86.0224ZM95.5095 111.674L96.4984 111.526L92.6539 85.8742L91.6649 86.0224L90.676 86.1707L94.5205 111.822L95.5095 111.674ZM46.8601 78.8625L45.8748 79.0336C46.3309 81.6593 47.7479 83.8912 49.715 85.3248L50.304 84.5167L50.893 83.7085C49.3541 82.587 48.2144 80.8163 47.8453 78.6914L46.8601 78.8625ZM50.304 84.5167L49.3151 84.3684L40.9349 140.283L41.9238 140.431L42.9128 140.58L51.293 84.6649L50.304 84.5167ZM51.9526 142.512L52.9416 142.66L61.4079 86.1707L60.419 86.0224L59.43 85.8742L50.9637 142.364L51.9526 142.512ZM60.419 86.0224V87.0224H81.3243V86.0224V85.0224H60.419V86.0224ZM99.354 86.0224L98.3651 85.8742L94.5205 111.526L95.5095 111.674L96.4984 111.822L100.343 86.1707L99.354 86.0224ZM130.599 86.0224V85.0224H109.695V86.0224V87.0224H130.599V86.0224ZM99.354 86.0224V85.0224H91.6649V86.0224V87.0224H99.354V86.0224ZM139.066 142.512L140.055 142.364L131.588 85.8742L130.599 86.0224L129.611 86.1707L138.077 142.66L139.066 142.512ZM143.829 79.443H142.829C142.829 81.53 141.783 83.3225 140.271 84.2769L140.805 85.1224L141.339 85.968C143.446 84.6377 144.829 82.1986 144.829 79.443H143.829ZM109.695 86.0224L108.706 85.8742L100.239 142.364L101.228 142.512L102.217 142.66L110.684 86.1707L109.695 86.0224ZM140.805 85.1224L139.816 85.2707L148.106 140.58L149.095 140.431L150.084 140.283L141.794 84.9742L140.805 85.1224ZM213.668 29.8534L213.654 28.8535L204.318 28.9826L204.332 29.9825L204.346 30.9824L213.682 30.8533L213.668 29.8534Z" fill="black" mask="url(#path-2-outside-1_256_10)"/>
</svg>
