<svg width="430" height="173" viewBox="0 0 430 173" fill="none" xmlns="http://www.w3.org/2000/svg">
<ellipse cx="215" cy="152.5" rx="215" ry="20.5" fill="#FFA299"/>
<mask id="path-2-outside-1_256_8" maskUnits="userSpaceOnUse" x="37" y="0" width="350" height="149" fill="black">
<rect fill="white" x="37" width="350" height="149"/>
<path d="M207.332 136.931H175.927C173.817 136.931 172.107 138.775 172.107 141.05V142.881C172.107 145.156 173.817 147 175.927 147H247.649C249.758 147 251.468 145.156 251.468 142.881V141.05C251.468 138.775 249.758 136.931 247.649 136.931H216.668V61.3965C215.123 61.408 213.567 61.4138 212 61.4138C210.433 61.4138 208.877 61.408 207.332 61.3965V136.931Z"/>
<path d="M294.332 50.4295V42.1912C294.332 48.7859 259.915 54.174 216.57 54.5299C215.057 54.5423 213.533 54.5486 212 54.5486C210.467 54.5486 208.943 54.5423 207.43 54.5299C164.085 54.174 129.668 48.7859 129.668 42.1912V50.4295C129.668 56.287 164.033 61.0736 207.332 61.3965C208.877 61.408 210.433 61.4138 212 61.4138C213.567 61.4138 215.123 61.408 216.668 61.3965C259.967 61.0736 294.332 56.287 294.332 50.4295Z"/>
<path fill-rule="evenodd" clip-rule="evenodd" d="M207.332 29.9825C164.703 30.3401 130.734 35.4361 129.693 41.8861C129.677 41.9875 129.668 42.0892 129.668 42.1912C129.668 48.7859 164.085 54.174 207.43 54.5299C208.943 54.5423 210.467 54.5486 212 54.5486C213.533 54.5486 215.057 54.5423 216.57 54.5299C259.915 54.174 294.332 48.7859 294.332 42.1912C294.332 42.0892 294.323 41.9875 294.307 41.8861C293.266 35.4361 259.297 30.211 216.668 29.8534L207.332 29.9825Z"/>
<path d="M377.851 1C382.95 1 386.796 5.98758 385.859 11.3852L374.14 78.8625C373.727 81.2378 372.449 83.2391 370.696 84.5167C369.385 85.4718 367.81 86.0224 366.132 86.0224H360.581H339.676H329.335H321.646H311.305H290.4H283.281C282.155 86.0224 281.101 85.6945 280.195 85.1224C278.386 83.9801 277.171 81.8643 277.171 79.443V76.1533C277.171 72.5196 279.907 69.5739 283.281 69.5739H316.36L327.14 8.14379C327.867 4.00019 331.229 1 335.145 1H377.851Z"/>
<path fill-rule="evenodd" clip-rule="evenodd" d="M271.905 140.431L280.195 85.1224C281.101 85.6945 282.155 86.0224 283.281 86.0224H290.4L281.934 142.512C281.485 145.51 278.876 147.475 276.106 146.9C273.337 146.326 271.456 143.429 271.905 140.431ZM321.646 86.0224H311.305L319.772 142.512C320.215 145.471 322.762 147.423 325.491 146.922L325.455 146.915C325.431 146.91 325.406 146.905 325.381 146.9C322.612 146.326 320.731 143.429 321.181 140.431L325.491 111.674L321.646 86.0224Z"/>
<path d="M325.381 146.9C322.612 146.326 320.731 143.429 321.181 140.431L325.491 111.674L329.335 86.0224H339.676L331.209 142.512C330.766 145.47 328.219 147.423 325.491 146.922L325.455 146.915C325.431 146.91 325.406 146.905 325.381 146.9Z"/>
<path d="M379.076 140.431C379.526 143.43 377.645 146.326 374.875 146.9C372.106 147.475 369.497 145.51 369.047 142.512L360.581 86.0224H366.132C367.81 86.0224 369.385 85.4718 370.696 84.5167L379.076 140.431Z"/>
<path d="M46.1492 1C41.0497 1 37.2038 5.98758 38.1413 11.3852L49.8601 78.8625C50.2726 81.2378 51.551 83.2391 53.304 84.5167C54.6146 85.4718 56.1905 86.0224 57.8682 86.0224H63.419H84.3243H94.6649H102.354H112.695H133.599H140.719C141.845 86.0224 142.899 85.6945 143.805 85.1224C145.614 83.9801 146.829 81.8643 146.829 79.443V76.1533C146.829 72.5196 144.093 69.5739 140.719 69.5739H107.64L96.8601 8.14379C96.1329 4.00019 92.7711 1 88.855 1H46.1492Z"/>
<path fill-rule="evenodd" clip-rule="evenodd" d="M152.095 140.431L143.805 85.1224C142.899 85.6945 141.845 86.0224 140.719 86.0224H133.599L142.066 142.512C142.515 145.51 145.124 147.475 147.894 146.9C150.663 146.326 152.544 143.429 152.095 140.431ZM102.354 86.0224H112.695L104.228 142.512C103.785 145.471 101.238 147.423 98.5094 146.922L98.5445 146.915C98.5692 146.91 98.5939 146.905 98.6187 146.9C101.388 146.326 103.269 143.429 102.819 140.431L98.5095 111.674L102.354 86.0224Z"/>
<path d="M98.6187 146.9C101.388 146.326 103.269 143.429 102.819 140.431L98.5095 111.674L94.6649 86.0224H84.3243L92.7907 142.512C93.2341 145.47 95.781 147.423 98.5094 146.922L98.5445 146.915C98.5692 146.91 98.5939 146.905 98.6187 146.9Z"/>
<path d="M44.9238 140.431C44.4745 143.43 46.3552 146.326 49.1246 146.9C51.894 147.475 54.5033 145.51 54.9526 142.512L63.419 86.0224H57.8682C56.1905 86.0224 54.6146 85.4718 53.304 84.5167L44.9238 140.431Z"/>
</mask>
<path d="M207.332 136.931H175.927C173.817 136.931 172.107 138.775 172.107 141.05V142.881C172.107 145.156 173.817 147 175.927 147H247.649C249.758 147 251.468 145.156 251.468 142.881V141.05C251.468 138.775 249.758 136.931 247.649 136.931H216.668V61.3965C215.123 61.408 213.567 61.4138 212 61.4138C210.433 61.4138 208.877 61.408 207.332 61.3965V136.931Z" fill="#E3B581"/>
<path d="M294.332 50.4295V42.1912C294.332 48.7859 259.915 54.174 216.57 54.5299C215.057 54.5423 213.533 54.5486 212 54.5486C210.467 54.5486 208.943 54.5423 207.43 54.5299C164.085 54.174 129.668 48.7859 129.668 42.1912V50.4295C129.668 56.287 164.033 61.0736 207.332 61.3965C208.877 61.408 210.433 61.4138 212 61.4138C213.567 61.4138 215.123 61.408 216.668 61.3965C259.967 61.0736 294.332 56.287 294.332 50.4295Z" fill="#CD925E"/>
<path fill-rule="evenodd" clip-rule="evenodd" d="M207.332 29.9825C164.703 30.3401 130.734 35.4361 129.693 41.8861C129.677 41.9875 129.668 42.0892 129.668 42.1912C129.668 48.7859 164.085 54.174 207.43 54.5299C208.943 54.5423 210.467 54.5486 212 54.5486C213.533 54.5486 215.057 54.5423 216.57 54.5299C259.915 54.174 294.332 48.7859 294.332 42.1912C294.332 42.0892 294.323 41.9875 294.307 41.8861C293.266 35.4361 259.297 30.211 216.668 29.8534L207.332 29.9825Z" fill="#EFC291"/>
<path d="M377.851 1C382.95 1 386.796 5.98758 385.859 11.3852L374.14 78.8625C373.727 81.2378 372.449 83.2391 370.696 84.5167C369.385 85.4718 367.81 86.0224 366.132 86.0224H360.581H339.676H329.335H321.646H311.305H290.4H283.281C282.155 86.0224 281.101 85.6945 280.195 85.1224C278.386 83.9801 277.171 81.8643 277.171 79.443V76.1533C277.171 72.5196 279.907 69.5739 283.281 69.5739H316.36L327.14 8.14379C327.867 4.00019 331.229 1 335.145 1H377.851Z" fill="#A1C0DB"/>
<path fill-rule="evenodd" clip-rule="evenodd" d="M271.905 140.431L280.195 85.1224C281.101 85.6945 282.155 86.0224 283.281 86.0224H290.4L281.934 142.512C281.485 145.51 278.876 147.475 276.106 146.9C273.337 146.326 271.456 143.429 271.905 140.431ZM321.646 86.0224H311.305L319.772 142.512C320.215 145.471 322.762 147.423 325.491 146.922L325.455 146.915C325.431 146.91 325.406 146.905 325.381 146.9C322.612 146.326 320.731 143.429 321.181 140.431L325.491 111.674L321.646 86.0224Z" fill="#CD925E"/>
<path d="M325.381 146.9C322.612 146.326 320.731 143.429 321.181 140.431L325.491 111.674L329.335 86.0224H339.676L331.209 142.512C330.766 145.47 328.219 147.423 325.491 146.922L325.455 146.915C325.431 146.91 325.406 146.905 325.381 146.9Z" fill="#D8A981"/>
<path d="M379.076 140.431C379.526 143.43 377.645 146.326 374.875 146.9C372.106 147.475 369.497 145.51 369.047 142.512L360.581 86.0224H366.132C367.81 86.0224 369.385 85.4718 370.696 84.5167L379.076 140.431Z" fill="#D8A981"/>
<path d="M46.1492 1C41.0497 1 37.2038 5.98758 38.1413 11.3852L49.8601 78.8625C50.2726 81.2378 51.551 83.2391 53.304 84.5167C54.6146 85.4718 56.1905 86.0224 57.8682 86.0224H63.419H84.3243H94.6649H102.354H112.695H133.599H140.719C141.845 86.0224 142.899 85.6945 143.805 85.1224C145.614 83.9801 146.829 81.8643 146.829 79.443V76.1533C146.829 72.5196 144.093 69.5739 140.719 69.5739H107.64L96.8601 8.14379C96.1329 4.00019 92.7711 1 88.855 1H46.1492Z" fill="#FBB8A7"/>
<path fill-rule="evenodd" clip-rule="evenodd" d="M152.095 140.431L143.805 85.1224C142.899 85.6945 141.845 86.0224 140.719 86.0224H133.599L142.066 142.512C142.515 145.51 145.124 147.475 147.894 146.9C150.663 146.326 152.544 143.429 152.095 140.431ZM102.354 86.0224H112.695L104.228 142.512C103.785 145.471 101.238 147.423 98.5094 146.922L98.5445 146.915C98.5692 146.91 98.5939 146.905 98.6187 146.9C101.388 146.326 103.269 143.429 102.819 140.431L98.5095 111.674L102.354 86.0224Z" fill="#CD925E"/>
<path d="M98.6187 146.9C101.388 146.326 103.269 143.429 102.819 140.431L98.5095 111.674L94.6649 86.0224H84.3243L92.7907 142.512C93.2341 145.47 95.781 147.423 98.5094 146.922L98.5445 146.915C98.5692 146.91 98.5939 146.905 98.6187 146.9Z" fill="#D8A981"/>
<path d="M44.9238 140.431C44.4745 143.43 46.3552 146.326 49.1246 146.9C51.894 147.475 54.5033 145.51 54.9526 142.512L63.419 86.0224H57.8682C56.1905 86.0224 54.6146 85.4718 53.304 84.5167L44.9238 140.431Z" fill="#D8A981"/>
<path d="M294.332 41.8861H294.832V41.3861H294.332V41.8861ZM129.668 41.8861V41.3861H129.168V41.8861H129.668ZM216.57 54.5299L216.574 55.0299L216.57 54.5299ZM207.43 54.5299L207.426 55.0299L207.43 54.5299ZM325.381 146.9L325.28 147.39L325.28 147.39L325.381 146.9ZM321.181 140.431L320.686 140.357L321.181 140.431ZM325.491 146.922L325.4 147.413L325.491 147.43L325.581 147.413L325.491 146.922ZM325.455 146.915L325.361 147.406L325.362 147.406L325.455 146.915ZM98.6187 146.9L98.7202 147.39L98.7202 147.39L98.6187 146.9ZM102.819 140.431L103.314 140.357L102.819 140.431ZM98.5094 146.922L98.4191 147.413L98.5094 147.43L98.5997 147.413L98.5094 146.922ZM98.5445 146.915L98.6385 147.406L98.6385 147.406L98.5445 146.915ZM294.332 41.8861H293.832V50.4295H294.332H294.832V41.8861H294.332ZM129.668 50.4295H130.168V41.8861H129.668H129.168V50.4295H129.668ZM294.307 41.8861V42.3861H294.332V41.8861V41.3861H294.307V41.8861ZM294.332 41.8861H293.832V42.1912H294.332H294.832V41.8861H294.332ZM129.668 42.1912H130.168V41.8861H129.668H129.168V42.1912H129.668ZM129.668 41.8861V42.3861H129.693V41.8861V41.3861H129.668V41.8861ZM216.57 54.5299L216.574 55.0299C238.262 54.8518 257.729 53.4148 271.783 51.194C278.806 50.0842 284.5 48.7752 288.45 47.3204C290.421 46.5941 291.988 45.8208 293.071 44.9984C294.142 44.1842 294.832 43.2493 294.832 42.1912H294.332H293.832C293.832 42.7819 293.445 43.4579 292.466 44.202C291.497 44.9379 290.036 45.6703 288.104 46.382C284.245 47.8034 278.626 49.1002 271.627 50.2062C257.636 52.4171 238.222 53.8521 216.566 54.0299L216.57 54.5299ZM129.668 42.1912H129.168C129.168 43.2493 129.857 44.1842 130.929 44.9984C132.012 45.8208 133.579 46.5941 135.55 47.3204C139.5 48.7752 145.194 50.0842 152.217 51.194C166.271 53.4148 185.738 54.8518 207.426 55.0299L207.43 54.5299L207.434 54.0299C185.778 53.8521 166.364 52.4171 152.373 50.2062C145.374 49.1002 139.755 47.8034 135.896 46.382C133.964 45.6703 132.503 44.9379 131.534 44.202C130.555 43.4579 130.168 42.7819 130.168 42.1912H129.668ZM207.43 54.5299L207.426 55.0299C208.94 55.0423 210.465 55.0486 212 55.0486V54.5486V54.0486C210.468 54.0486 208.946 54.0423 207.434 54.0299L207.43 54.5299ZM212 54.5486V55.0486C213.535 55.0486 215.06 55.0423 216.574 55.0299L216.57 54.5299L216.566 54.0299C215.054 54.0423 213.532 54.0486 212 54.0486V54.5486ZM216.668 61.3965L216.665 60.8965C215.121 60.908 213.565 60.9138 212 60.9138V61.4138V61.9138C213.568 61.9138 215.126 61.908 216.672 61.8965L216.668 61.3965ZM212 61.4138V60.9138C210.435 60.9138 208.879 60.908 207.335 60.8965L207.332 61.3965L207.328 61.8965C208.874 61.908 210.432 61.9138 212 61.9138V61.4138ZM321.181 140.431L320.686 140.357C320.202 143.587 322.222 146.755 325.28 147.39L325.381 146.9L325.483 146.411C323.002 145.896 321.26 143.271 321.675 140.505L321.181 140.431ZM325.491 111.674L324.996 111.6L320.686 140.357L321.181 140.431L321.675 140.505L325.985 111.748L325.491 111.674ZM325.381 146.9L325.28 147.39C325.307 147.395 325.334 147.401 325.361 147.406L325.455 146.915L325.55 146.424C325.527 146.42 325.505 146.415 325.483 146.411L325.381 146.9ZM325.455 146.915L325.362 147.406C325.374 147.408 325.387 147.411 325.4 147.413L325.491 146.922L325.581 146.43C325.571 146.428 325.56 146.426 325.549 146.424L325.455 146.915ZM325.491 146.922L325.581 147.413C325.621 147.406 325.661 147.398 325.701 147.39L325.6 146.9L325.498 146.411C325.466 146.417 325.433 146.424 325.4 146.43L325.491 146.922ZM325.455 146.915L325.363 147.406L325.398 147.413L325.491 146.922L325.583 146.43L325.548 146.424L325.455 146.915ZM329.335 86.0224V86.5224H339.676V86.0224V85.5224H329.335V86.0224ZM370.696 84.5167L370.401 84.1126C369.172 85.0089 367.698 85.5224 366.132 85.5224V86.0224V86.5224C367.921 86.5224 369.599 85.9348 370.99 84.9207L370.696 84.5167ZM366.132 86.0224V85.5224H360.581V86.0224V86.5224H366.132V86.0224ZM290.4 86.0224V85.5224H283.281V86.0224V86.5224H290.4V86.0224ZM283.281 86.0224V85.5224C282.254 85.5224 281.292 85.2237 280.462 84.6997L280.195 85.1224L279.928 85.5452C280.91 86.1652 282.056 86.5224 283.281 86.5224V86.0224ZM321.646 86.0224V85.5224H311.305V86.0224V86.5224H321.646V86.0224ZM102.819 140.431L102.325 140.505C102.74 143.271 100.998 145.896 98.5171 146.411L98.6187 146.9L98.7202 147.39C101.778 146.755 103.798 143.587 103.314 140.357L102.819 140.431ZM98.5095 111.674L98.015 111.748L102.325 140.505L102.819 140.431L103.314 140.357L99.004 111.6L98.5095 111.674ZM98.6187 146.9L98.5171 146.411C98.4951 146.415 98.4729 146.42 98.4505 146.424L98.5445 146.915L98.6385 147.406C98.6655 147.401 98.6927 147.395 98.7202 147.39L98.6187 146.9ZM98.5445 146.915L98.4505 146.424C98.4399 146.426 98.4294 146.428 98.4191 146.43L98.5094 146.922L98.5997 147.413C98.6128 147.411 98.6257 147.408 98.6385 147.406L98.5445 146.915ZM98.5094 146.922L98.5997 146.43C98.567 146.424 98.5344 146.417 98.5018 146.411L98.4003 146.9L98.2987 147.39C98.339 147.398 98.3791 147.406 98.4191 147.413L98.5094 146.922ZM98.5445 146.915L98.4523 146.424L98.4172 146.43L98.5094 146.922L98.6016 147.413L98.6367 147.406L98.5445 146.915ZM94.6649 86.0224V85.5224H84.3243V86.0224V86.5224H94.6649V86.0224ZM53.304 84.5167L53.0095 84.9207C54.4009 85.9348 56.0789 86.5224 57.8682 86.5224V86.0224V85.5224C56.302 85.5224 54.8283 85.0089 53.5985 84.1126L53.304 84.5167ZM57.8682 86.0224V86.5224H63.419V86.0224V85.5224H57.8682V86.0224ZM133.599 86.0224V86.5224H140.719V86.0224V85.5224H133.599V86.0224ZM140.719 86.0224V86.5224C141.944 86.5224 143.09 86.1652 144.072 85.5452L143.805 85.1224L143.538 84.6997C142.708 85.2237 141.746 85.5224 140.719 85.5224V86.0224ZM102.354 86.0224V86.5224H112.695V86.0224V85.5224H102.354V86.0224ZM207.332 136.931V137.931H208.332V136.931H207.332ZM216.668 136.931H215.668V137.931H216.668V136.931ZM294.307 41.8861L295.294 41.7268V41.7267L294.307 41.8861ZM129.693 41.8861L128.706 41.7267L129.693 41.8861ZM207.332 61.3965H208.332V60.4039L207.339 60.3965L207.332 61.3965ZM216.668 61.3965L216.661 60.3965L215.668 60.4039V61.3965H216.668ZM216.668 29.8534L216.677 28.8534L216.666 28.8533L216.654 28.8535L216.668 29.8534ZM207.332 29.9825L207.34 30.9824L207.346 30.9824L207.332 29.9825ZM281.934 142.512L282.923 142.66L281.934 142.512ZM271.905 140.431L270.916 140.283L271.905 140.431ZM319.772 142.512L320.761 142.364L319.772 142.512ZM331.209 142.512L330.22 142.364L331.209 142.512ZM379.076 140.431L380.065 140.283L379.076 140.431ZM369.047 142.512L370.036 142.364L369.047 142.512ZM325.491 146.922L325.671 145.938L325.491 145.905L325.31 145.938L325.491 146.922ZM325.491 111.674L324.502 111.822H326.479L325.491 111.674ZM385.859 11.3852L384.873 11.214V11.2141L385.859 11.3852ZM374.14 78.8625L375.125 79.0336V79.0336L374.14 78.8625ZM316.36 69.5739V70.5739H317.199L317.345 69.7467L316.36 69.5739ZM327.14 8.14379L326.155 7.97093V7.97094L327.14 8.14379ZM329.335 86.0224L330.324 86.1707L330.496 85.0224H329.335V86.0224ZM339.676 86.0224V85.0224H338.814L338.687 85.8742L339.676 86.0224ZM370.696 84.5167L370.107 83.7085L369.617 84.0655L369.707 84.6649L370.696 84.5167ZM360.581 86.0224L361.57 85.8742L361.442 85.0224H360.581V86.0224ZM280.195 85.1224L281.184 85.2707L281.28 84.6254L280.729 84.2769L280.195 85.1224ZM290.4 86.0224V85.0224H289.539L289.412 85.8742L290.4 86.0224ZM311.305 86.0224L312.294 85.8742L312.167 85.0224H311.305V86.0224ZM321.646 86.0224V85.0224H320.485L320.657 86.1707L321.646 86.0224ZM142.066 142.512L143.055 142.364L142.066 142.512ZM152.095 140.431L153.084 140.283L152.095 140.431ZM104.228 142.512L103.239 142.364H103.239L104.228 142.512ZM92.7907 142.512L93.7796 142.364L92.7907 142.512ZM44.9238 140.431L43.9349 140.283L44.9238 140.431ZM54.9526 142.512L53.9637 142.364L54.9526 142.512ZM98.5094 146.922L98.6901 145.938L98.5094 145.905L98.3287 145.938L98.5094 146.922ZM98.5095 111.674L97.5205 111.822H99.4984L98.5095 111.674ZM38.1413 11.3852L39.1266 11.2141L39.1266 11.214L38.1413 11.3852ZM49.8601 78.8625L48.8748 79.0336L48.8748 79.0336L49.8601 78.8625ZM107.64 69.5739L106.655 69.7467L106.801 70.5739H107.64V69.5739ZM96.8601 8.14379L97.8451 7.97094L97.8451 7.97093L96.8601 8.14379ZM94.6649 86.0224V85.0224H93.5039L93.676 86.1707L94.6649 86.0224ZM84.3243 86.0224L85.3133 85.8742L85.1856 85.0224H84.3243V86.0224ZM53.304 84.5167L54.293 84.6649L54.3828 84.0655L53.893 83.7085L53.304 84.5167ZM63.419 86.0224V85.0224H62.5577L62.43 85.8742L63.419 86.0224ZM143.805 85.1224L143.271 84.2769L142.72 84.6254L142.816 85.2707L143.805 85.1224ZM133.599 86.0224L134.588 85.8742L134.461 85.0224H133.599V86.0224ZM112.695 86.0224V85.0224H111.833L111.706 85.8742L112.695 86.0224ZM102.354 86.0224L103.343 86.1707L103.515 85.0224H102.354V86.0224ZM175.927 136.931V137.931H207.332V136.931V135.931H175.927V136.931ZM172.107 141.05H173.107C173.107 139.255 174.439 137.931 175.927 137.931V136.931V135.931C173.195 135.931 171.107 138.295 171.107 141.05H172.107ZM172.107 142.881H173.107V141.05H172.107H171.107V142.881H172.107ZM175.927 147V146C174.439 146 173.107 144.676 173.107 142.881H172.107H171.107C171.107 145.636 173.195 148 175.927 148V147ZM251.468 142.881H250.468C250.468 144.676 249.136 146 247.649 146V147V148C250.38 148 252.468 145.636 252.468 142.881H251.468ZM251.468 141.05H250.468V142.881H251.468H252.468V141.05H251.468ZM247.649 136.931V137.931C249.136 137.931 250.468 139.255 250.468 141.05H251.468H252.468C252.468 138.295 250.38 135.931 247.649 135.931V136.931ZM216.668 136.931V137.931H247.649V136.931V135.931H216.668V136.931ZM247.649 147V146H175.927V147V148H247.649V147ZM294.332 42.1912H293.332V50.4295H294.332H295.332V42.1912H294.332ZM129.668 50.4295H130.668V42.1912H129.668H128.668V50.4295H129.668ZM294.332 42.1912H295.332C295.332 42.0353 295.319 41.8803 295.294 41.7268L294.307 41.8861L293.32 42.0455C293.328 42.0948 293.332 42.1432 293.332 42.1912H294.332ZM129.693 41.8861L128.706 41.7267C128.681 41.8802 128.668 42.0352 128.668 42.1912H129.668H130.668C130.668 42.1433 130.672 42.0949 130.68 42.0455L129.693 41.8861ZM207.332 61.3965L207.339 60.3965C185.718 60.2353 166.349 58.9594 152.402 56.9982C145.421 56.0165 139.841 54.8687 136.026 53.6185C134.111 52.9912 132.701 52.3568 131.789 51.7407C130.834 51.0952 130.668 50.6407 130.668 50.4295H129.668H128.668C128.668 51.6827 129.576 52.6591 130.67 53.3978C131.806 54.1659 133.419 54.8689 135.403 55.5191C139.384 56.8239 145.101 57.9912 152.124 58.9787C166.184 60.9559 185.646 62.2348 207.324 62.3965L207.332 61.3965ZM294.332 50.4295H293.332C293.332 50.6407 293.166 51.0952 292.211 51.7407C291.299 52.3568 289.889 52.9912 287.974 53.6185C284.159 54.8687 278.579 56.0165 271.598 56.9982C257.651 58.9594 238.282 60.2353 216.661 60.3965L216.668 61.3965L216.676 62.3965C238.354 62.2348 257.816 60.9559 271.876 58.9787C278.899 57.9912 284.616 56.8239 288.597 55.5191C290.581 54.8689 292.194 54.1659 293.33 53.3978C294.424 52.6591 295.332 51.6827 295.332 50.4295H294.332ZM207.332 61.3965H206.332V136.931H207.332H208.332V61.3965H207.332ZM216.668 136.931H217.668V61.3965H216.668H215.668V136.931H216.668ZM207.332 29.9825L207.323 28.9825C185.978 29.1616 166.779 30.5268 152.767 32.661C145.767 33.7272 140.022 34.9911 135.94 36.4109C133.903 37.1194 132.232 37.8832 131.017 38.711C129.831 39.5187 128.902 40.5089 128.706 41.7267L129.693 41.8861L130.68 42.0455C130.744 41.6508 131.105 41.0709 132.142 40.3639C133.151 39.6771 134.637 38.9818 136.597 38.2999C140.51 36.9389 146.116 35.6971 153.068 34.6382C166.958 32.5226 186.057 31.161 207.34 30.9824L207.332 29.9825ZM294.307 41.8861L295.294 41.7267C295.098 40.5099 294.17 39.5177 292.985 38.7067C291.77 37.8753 290.099 37.1063 288.062 36.3916C283.981 34.9595 278.235 33.6792 271.236 32.5969C257.223 30.4301 238.023 29.0325 216.677 28.8534L216.668 29.8534L216.66 30.8534C237.942 31.0319 257.041 32.4257 270.93 34.5734C277.881 35.6482 283.488 36.906 287.4 38.2788C289.361 38.9666 290.847 39.6668 291.856 40.3571C292.894 41.0678 293.256 41.6498 293.32 42.0455L294.307 41.8861ZM276.106 146.9L275.903 147.879C279.303 148.585 282.399 146.154 282.923 142.66L281.934 142.512L280.945 142.364C280.57 144.865 278.448 146.365 276.309 145.921L276.106 146.9ZM271.905 140.431L270.916 140.283C270.397 143.745 272.556 147.185 275.903 147.879L276.106 146.9L276.309 145.921C274.117 145.466 272.515 143.113 272.894 140.58L271.905 140.431ZM374.875 146.9L375.079 147.879C378.425 147.185 380.584 143.746 380.065 140.283L379.076 140.431L378.087 140.58C378.467 143.114 376.864 145.466 374.672 145.921L374.875 146.9ZM369.047 142.512L368.058 142.66C368.582 146.154 371.678 148.585 375.079 147.879L374.875 146.9L374.672 145.921C372.534 146.365 370.411 144.865 370.036 142.364L369.047 142.512ZM331.209 142.512L330.22 142.364C329.85 144.832 327.777 146.325 325.671 145.938L325.491 146.922L325.31 147.905C328.661 148.521 331.681 146.109 332.198 142.66L331.209 142.512ZM325.491 146.922L325.31 145.938C323.204 146.325 321.131 144.832 320.761 142.364L319.772 142.512L318.783 142.66C319.3 146.109 322.321 148.521 325.671 147.905L325.491 146.922ZM385.859 11.3852L386.844 11.5563C387.872 5.6355 383.657 0 377.851 0V1V2C382.243 2 385.72 6.33966 384.873 11.214L385.859 11.3852ZM374.14 78.8625L375.125 79.0336L386.844 11.5563L385.859 11.3852L384.873 11.2141L373.155 78.6914L374.14 78.8625ZM277.171 76.1533H276.171V79.443H277.171H278.171V76.1533H277.171ZM283.281 69.5739V68.5739C279.286 68.5739 276.171 72.0383 276.171 76.1533H277.171H278.171C278.171 73.0009 280.528 70.5739 283.281 70.5739V69.5739ZM316.36 69.5739V68.5739H283.281V69.5739V70.5739H316.36V69.5739ZM327.14 8.14379L326.155 7.97094L315.375 69.401L316.36 69.5739L317.345 69.7467L328.125 8.31664L327.14 8.14379ZM335.145 1V0C330.692 0 326.957 3.40153 326.155 7.97093L327.14 8.14379L328.125 8.31665C328.777 4.59885 331.766 2 335.145 2V1ZM377.851 1V0H335.145V1V2H377.851V1ZM339.676 86.0224L338.687 85.8742L330.22 142.364L331.209 142.512L332.198 142.66L340.665 86.1707L339.676 86.0224ZM325.491 111.674L326.479 111.822L330.324 86.1707L329.335 86.0224L328.346 85.8742L324.502 111.526L325.491 111.674ZM374.14 78.8625L373.155 78.6914C372.786 80.8163 371.646 82.587 370.107 83.7085L370.696 84.5167L371.285 85.3248C373.252 83.8912 374.669 81.6593 375.125 79.0336L374.14 78.8625ZM370.696 84.5167L369.707 84.6649L378.087 140.58L379.076 140.431L380.065 140.283L371.685 84.3684L370.696 84.5167ZM369.047 142.512L370.036 142.364L361.57 85.8742L360.581 86.0224L359.592 86.1707L368.058 142.66L369.047 142.512ZM360.581 86.0224V85.0224H339.676V86.0224V87.0224H360.581V86.0224ZM321.646 86.0224L320.657 86.1707L324.502 111.822L325.491 111.674L326.479 111.526L322.635 85.8742L321.646 86.0224ZM290.4 86.0224V87.0224H311.305V86.0224V85.0224H290.4V86.0224ZM321.646 86.0224V87.0224H329.335V86.0224V85.0224H321.646V86.0224ZM281.934 142.512L282.923 142.66L291.389 86.1707L290.4 86.0224L289.412 85.8742L280.945 142.364L281.934 142.512ZM277.171 79.443H276.171C276.171 82.1986 277.554 84.6377 279.661 85.968L280.195 85.1224L280.729 84.2769C279.217 83.3225 278.171 81.53 278.171 79.443H277.171ZM311.305 86.0224L310.316 86.1707L318.783 142.66L319.772 142.512L320.761 142.364L312.294 85.8742L311.305 86.0224ZM280.195 85.1224L279.206 84.9742L270.916 140.283L271.905 140.431L272.894 140.58L281.184 85.2707L280.195 85.1224ZM147.894 146.9L147.691 145.921C145.552 146.365 143.43 144.865 143.055 142.364L142.066 142.512L141.077 142.66C141.601 146.154 144.697 148.585 148.097 147.879L147.894 146.9ZM152.095 140.431L151.106 140.58C151.485 143.113 149.883 145.466 147.691 145.921L147.894 146.9L148.097 147.879C151.444 147.185 153.603 143.745 153.084 140.283L152.095 140.431ZM49.1246 146.9L49.3277 145.921C47.1358 145.466 45.533 143.114 45.9128 140.58L44.9238 140.431L43.9349 140.283C43.4159 143.746 45.5746 147.185 48.9215 147.879L49.1246 146.9ZM54.9526 142.512L53.9637 142.364C53.5887 144.865 51.4664 146.365 49.3277 145.921L49.1246 146.9L48.9215 147.879C52.3215 148.585 55.4178 146.154 55.9416 142.66L54.9526 142.512ZM92.7907 142.512L91.8017 142.66C92.3186 146.109 95.3394 148.521 98.6901 147.905L98.5094 146.922L98.3287 145.938C96.2225 146.325 94.1496 144.832 93.7796 142.364L92.7907 142.512ZM98.5094 146.922L98.3287 147.905C101.679 148.521 104.7 146.109 105.217 142.66L104.228 142.512L103.239 142.364C102.869 144.832 100.796 146.325 98.6901 145.938L98.5094 146.922ZM38.1413 11.3852L39.1266 11.214C38.2799 6.33965 41.7569 2 46.1492 2V1V0C40.3425 0 36.1277 5.63551 37.1561 11.5563L38.1413 11.3852ZM49.8601 78.8625L50.8453 78.6914L39.1266 11.2141L38.1413 11.3852L37.1561 11.5563L48.8748 79.0336L49.8601 78.8625ZM146.829 76.1533H145.829V79.443H146.829H147.829V76.1533H146.829ZM140.719 69.5739V70.5739C143.472 70.5739 145.829 73.0009 145.829 76.1533H146.829H147.829C147.829 72.0383 144.714 68.5739 140.719 68.5739V69.5739ZM107.64 69.5739V70.5739H140.719V69.5739V68.5739H107.64V69.5739ZM96.8601 8.14379L95.8752 8.31664L106.655 69.7467L107.64 69.5739L108.625 69.401L97.8451 7.97094L96.8601 8.14379ZM88.855 1V2C92.2341 2 95.2227 4.59885 95.8752 8.31665L96.8601 8.14379L97.8451 7.97093C97.0431 3.40154 93.3081 0 88.855 0V1ZM46.1492 1V2H88.855V1V0H46.1492V1ZM84.3243 86.0224L83.3354 86.1707L91.8017 142.66L92.7907 142.512L93.7796 142.364L85.3133 85.8742L84.3243 86.0224ZM98.5095 111.674L99.4984 111.526L95.6539 85.8742L94.6649 86.0224L93.676 86.1707L97.5205 111.822L98.5095 111.674ZM49.8601 78.8625L48.8748 79.0336C49.3309 81.6593 50.7479 83.8912 52.715 85.3248L53.304 84.5167L53.893 83.7085C52.3541 82.587 51.2144 80.8163 50.8453 78.6914L49.8601 78.8625ZM53.304 84.5167L52.3151 84.3684L43.9349 140.283L44.9238 140.431L45.9128 140.58L54.293 84.6649L53.304 84.5167ZM54.9526 142.512L55.9416 142.66L64.4079 86.1707L63.419 86.0224L62.43 85.8742L53.9637 142.364L54.9526 142.512ZM63.419 86.0224V87.0224H84.3243V86.0224V85.0224H63.419V86.0224ZM102.354 86.0224L101.365 85.8742L97.5205 111.526L98.5095 111.674L99.4984 111.822L103.343 86.1707L102.354 86.0224ZM133.599 86.0224V85.0224H112.695V86.0224V87.0224H133.599V86.0224ZM102.354 86.0224V85.0224H94.6649V86.0224V87.0224H102.354V86.0224ZM142.066 142.512L143.055 142.364L134.588 85.8742L133.599 86.0224L132.611 86.1707L141.077 142.66L142.066 142.512ZM146.829 79.443H145.829C145.829 81.53 144.783 83.3225 143.271 84.2769L143.805 85.1224L144.339 85.968C146.446 84.6377 147.829 82.1986 147.829 79.443H146.829ZM112.695 86.0224L111.706 85.8742L103.239 142.364L104.228 142.512L105.217 142.66L113.684 86.1707L112.695 86.0224ZM143.805 85.1224L142.816 85.2707L151.106 140.58L152.095 140.431L153.084 140.283L144.794 84.9742L143.805 85.1224ZM216.668 29.8534L216.654 28.8535L207.318 28.9826L207.332 29.9825L207.346 30.9824L216.682 30.8533L216.668 29.8534Z" fill="black" mask="url(#path-2-outside-1_256_8)"/>
<path d="M160 19.5319V40.2127C160 41.0588 160.82 41.7447 161.832 41.7447H163.053H187.168C188.18 41.7447 189 41.0588 189 40.2127V19.5319C189 18.6859 188.18 18 187.168 18H161.832C160.82 18 160 18.6859 160 19.5319Z" fill="#FDEEE6" stroke="#CBA380" stroke-linecap="round"/>
<path d="M174.113 32.1438L163.184 41.1251C162.796 41.4437 163.062 42 163.602 42H186.398C186.95 42 187.21 41.4225 186.798 41.1109L174.932 32.1295C174.697 31.9515 174.339 31.9577 174.113 32.1438Z" fill="#FCD4AC"/>
</svg>
