<svg width="88" height="217" viewBox="0 0 88 217" fill="none" xmlns="http://www.w3.org/2000/svg">
<path d="M48 107.5C51.1888 74.6944 47.9183 56.9625 37 26" stroke="#8BA05E" stroke-width="2" stroke-linecap="round"/>
<path d="M74.4696 87.5198C73.5564 86.619 54.4072 84.1468 49 109.064H51C52.3293 101.334 74.0985 88.7321 74.5023 87.6174C74.5165 87.578 74.4994 87.5491 74.4696 87.5198Z" fill="#9CB267" stroke="#95A865" stroke-linecap="round"/>
<path d="M22.0767 97.0315C23.603 98.6071 37.8067 96.7127 44.0767 108.031H47.0767C42.2421 86.9258 20.5505 95.4559 22.0767 97.0315Z" fill="#9FB569" stroke="#8EA15F" stroke-linecap="round"/>
<path d="M47.5 109C44.0271 85.6475 39.3636 78.4039 28 72" stroke="#879D5C" stroke-width="2" stroke-linecap="round"/>
<path d="M49 108.5C50.3639 91.4283 55.9278 79.9082 66 31" stroke="#8BA05E" stroke-width="2" stroke-linecap="round"/>
<path d="M27.9171 70.4217C34.1453 72.9787 34.2972 86.2523 33.523 87.4685C33.5074 87.4929 33.4869 87.5005 33.458 87.501C31.3015 87.5368 23.4043 84.0546 21.4676 79C16.7082 80.0604 13.6355 83.1837 8.10917 89.3776C8.05963 89.4331 7.96637 89.4151 7.9392 89.3458C3.84935 78.9182 6.96729 75.6144 17.0389 72.1566C17.1415 72.1214 17.1255 71.9685 17.0174 71.9596C9.89067 71.3743 6.08 71.4422 1.18897 73.4228C1.11211 73.4539 1.03226 73.3808 1.05425 73.3008C3.1595 65.6456 5.88332 64.3456 11.8385 64.4956C11.9123 64.4975 11.9641 64.42 11.9341 64.3526C9.40082 58.6753 8.87609 55.6881 13.9849 52.0108C13.9947 52.0038 14.0063 51.9983 14.0179 51.9952C19.2064 50.5945 21.2585 51.994 22.9124 59.1127C22.9358 59.2137 23.0818 59.2182 23.1109 59.1187C25.3266 51.5583 27.8607 49.2473 34.8925 49.0036C34.9499 49.0016 34.9988 49.0497 34.9972 49.1071C34.8245 55.4913 33.4048 59.3315 29.6124 64.3023C31.7285 62.1062 33.6049 61.3557 36.4893 61.4995C36.4963 61.4998 36.5036 61.501 36.5104 61.5028C42.2963 63.0442 44.5492 64.4221 42.5256 69.9307C42.5107 69.971 42.4704 69.9988 42.4275 69.9977C38.5528 69.8957 35.8837 71.6133 27.9171 70.4217Z" fill="#9FCCE9"/>
<path d="M23.0007 71.9998C20.8887 74.5125 20.6602 76.8929 21.4676 79M21.4676 79C23.4043 84.0546 31.3015 87.5368 33.458 87.501C33.4869 87.5005 33.5074 87.4929 33.523 87.4685C34.3562 86.1596 34.1168 70.8869 26.3861 70.034C26.2677 70.0209 26.2533 70.1436 26.3704 70.1649C35.557 71.8336 38.3123 69.8894 42.4275 69.9977C42.4704 69.9988 42.5107 69.971 42.5256 69.9307C44.5492 64.4221 42.2963 63.0442 36.5104 61.5028C36.5036 61.501 36.4963 61.4998 36.4893 61.4995C32.498 61.3005 30.4368 62.814 27 67.5C32.777 60.7858 34.7895 56.7872 34.9972 49.1071C34.9988 49.0497 34.9499 49.0016 34.8925 49.0036C27.8607 49.2473 25.3266 51.5583 23.1109 59.1187C23.0818 59.2182 22.9358 59.2137 22.9124 59.1127C21.2585 51.994 19.2064 50.5945 14.0179 51.9952C14.0063 51.9983 13.9947 52.0038 13.9849 52.0108C8.87609 55.6881 9.40082 58.6753 11.9341 64.3526C11.9641 64.42 11.9123 64.4975 11.8385 64.4956C5.88332 64.3456 3.1595 65.6456 1.05425 73.3008C1.03226 73.3808 1.11211 73.4539 1.18897 73.4228C6.08 71.4422 9.89067 71.3743 17.0174 71.9596C17.1255 71.9685 17.1415 72.1214 17.0389 72.1566C6.96729 75.6144 3.84935 78.9182 7.9392 89.3458C7.96637 89.4151 8.05963 89.4331 8.10917 89.3776C13.6355 83.1837 16.7082 80.0604 21.4676 79Z" stroke="#72B2DC" stroke-linecap="round"/>
<path d="M15.5 67C18.057 67.7955 19.9964 68.7686 23.5598 70.7542C23.6554 70.8075 23.7561 70.6911 23.6883 70.6052L23.513 70.3831M16.5 61.5C18.5 61.5 23.513 70.3831 23.513 70.3831M23.513 70.3831C22.957 65.8023 22.6581 63.2046 21 61.5" stroke="#B1823F" stroke-linecap="round"/>
<path d="M57.1087 82.6755C58.5374 77.9998 55 70.9542 55 69C55 67 56.9808 67.3239 58.25 66.25C55.9437 65.565 56.8 65.4578 45.2016 62.5505C45.0936 62.5234 45.0237 62.4095 45.0521 62.3018C46.4259 57.0919 47.2272 55.5186 54.2557 55.9832C54.3804 55.9915 54.4868 55.8829 54.4725 55.7586C53.6718 48.8085 52.4293 45.428 48.7165 39.3528C48.6295 39.2104 48.7453 39.0282 48.9109 39.0485C57.1528 40.0569 61.754 42.847 65 51C64.3851 48.9019 63.941 47.7682 67 44C68.1297 42.5133 68.402 41.1414 68.4911 38.3116C68.4956 38.1661 68.6499 38.0734 68.7805 38.1379C72.4932 39.9733 74.0644 41.1678 75.4775 43.4633C75.4922 43.4873 75.502 43.515 75.5055 43.5429C75.9715 47.1577 75.9132 48.9495 75.539 51.7159C75.5204 51.8538 75.6464 51.9682 75.7824 51.9392C81.5043 50.7169 84.4965 50.7555 86.9466 57.3548C86.9778 57.4388 86.9518 57.5349 86.8785 57.5865C82.7008 60.5279 73.9281 63.5118 77 62.5C80.086 61.4836 89.49 75.4035 84.0855 78.4533C84.0334 78.4827 83.968 78.4866 83.9128 78.4634L68.5 72C65.2854 79.9634 62.6631 81.9989 57.3394 82.9419C57.1886 82.9686 57.0639 82.8219 57.1087 82.6755Z" fill="#A0CEE9"/>
<path d="M61.5 63.5C60.5209 65.1042 59.8689 65.8153 58.25 66.25M68.5 72C65.2854 79.9634 62.6631 81.9989 57.3394 82.9419C57.1886 82.9686 57.0639 82.8219 57.1087 82.6755C58.5374 77.9998 55 70.9542 55 69C55 67 56.9808 67.3239 58.25 66.25M68.5 72C68.718 69.2881 68.6676 67.7635 66.5 65M68.5 72L83.9128 78.4634C83.968 78.4866 84.0334 78.4827 84.0855 78.4533C89.49 75.4035 80.086 61.4836 77 62.5C73.9281 63.5118 82.7008 60.5279 86.8785 57.5865C86.9518 57.5349 86.9778 57.4388 86.9466 57.3548C84.4965 50.7555 81.5043 50.7169 75.7824 51.9392C75.6464 51.9682 75.5204 51.8538 75.539 51.7159C75.9132 48.9495 75.9715 47.1577 75.5055 43.5429C75.502 43.515 75.4922 43.4873 75.4775 43.4633C74.0645 41.1678 72.4932 39.9733 68.7805 38.1379C68.6499 38.0734 68.4956 38.1661 68.4911 38.3116C68.402 41.1414 68.1297 42.5133 67 44C63.941 47.7682 64.3851 48.9019 65 51C61.754 42.847 57.1528 40.0569 48.9109 39.0485C48.7453 39.0282 48.6295 39.2104 48.7165 39.3528C52.4293 45.428 53.6718 48.8085 54.4725 55.7586C54.4868 55.8829 54.3804 55.9915 54.2557 55.9832C47.2272 55.5186 46.4259 57.0919 45.0521 62.3018C45.0237 62.4095 45.0936 62.5234 45.2016 62.5505C56.8 65.4578 55.9437 65.565 58.25 66.25" stroke="#78B6DE" stroke-linecap="round"/>
<path d="M64.1743 60C63.7781 56.796 63.9696 55.1975 65.6743 53M64.1743 60C67.2273 55.2956 68.9118 52.7291 71.1743 50M64.1743 60C66.3115 59.4739 67.4941 59.2069 71.1743 56" stroke="#AE7F3B" stroke-linecap="round"/>
<path d="M71.8944 15.0432C76.2728 15.8237 74.3579 34.8124 64.6996 36.4489C64.2346 36.5276 63.7994 36.2172 63.6859 35.7595C60.8389 24.2716 67.4966 14.2591 71.8944 15.0432Z" fill="#A5D1EB"/>
<path d="M68.895 21.043C68.285 27.1674 67.4487 29.5086 65.895 33.543M71.8944 15.0432C76.2728 15.8237 74.3579 34.8124 64.6996 36.4489C64.2346 36.5276 63.7994 36.2172 63.6859 35.7595C60.8389 24.2716 67.4966 14.2591 71.8944 15.0432Z" stroke="#74B1DB" stroke-linecap="round"/>
<path d="M6.39073 31.5C3.45819 30.8715 17.8886 17.6611 21.1896 20.3027C18.2841 17.4784 15.8338 16.1972 15.8831 11.8146C15.8854 11.6111 15.9546 11.411 16.0829 11.2529C16.6364 10.5715 17.1867 10.1794 18.2414 10.0414C18.9864 9.94388 19.5091 9.12872 19.6924 8.40011C19.8189 7.89744 20.1159 7.26477 20.6624 6.36737C20.8056 6.13226 21.0437 5.96838 21.3153 5.92342C25.2854 5.26607 27.0726 6.68862 29.2155 10.3121C29.9641 7.56028 34.0067 1.50462 40.4622 1.02353C40.7338 1.00329 41.0065 1.10392 41.1828 1.31145C43.3779 3.89624 41.2976 7.81439 38.3515 13.5993C41.9707 8.05687 50.461 7.95465 54.8908 17C55.8242 18.5648 52.9582 19.9301 43.3908 23C46.2608 30.0601 47.4319 33.7539 46.5848 37.2993C46.4841 37.721 46.0948 38.0028 45.6613 38.0046C36.3458 38.0417 31.8003 37.1601 31.8907 27.5C31.8162 33.9799 29.5854 37.8936 22.5603 44.8425C22.1854 45.2134 21.5833 45.2242 21.1961 44.866C15.9981 40.058 14.3422 36.8923 18.8907 30C21.6734 26.6574 9.38768 32.1423 6.39073 31.5Z" fill="#A3D0EA"/>
<path d="M43.3908 23C46.2608 30.0601 47.4319 33.7539 46.5848 37.2993C46.4841 37.721 46.0948 38.0028 45.6613 38.0046C36.3458 38.0417 31.8003 37.1601 31.8907 27.5C31.8162 33.9799 29.5854 37.8936 22.5603 44.8425C22.1854 45.2134 21.5833 45.2242 21.1961 44.866C15.9981 40.058 14.3422 36.8923 18.8907 30C21.6734 26.6574 9.38768 32.1423 6.39073 31.5C3.39378 30.8577 18.5308 17.0747 21.3907 20.5C18.3981 17.5357 15.8327 16.2979 15.8831 11.8146C15.8854 11.6111 15.9546 11.411 16.0829 11.2529C16.6364 10.5714 17.1867 10.1794 18.2414 10.0414C18.9864 9.94388 19.5091 9.12872 19.6924 8.40011C19.8189 7.89744 20.1159 7.26477 20.6624 6.36737C20.8056 6.13226 21.0437 5.96838 21.3153 5.92342C25.4098 5.24548 27.1824 6.77979 29.418 10.6591C29.6868 11.1255 29.2408 11.8775 29.1154 11.354C28.7135 9.6765 32.9572 1.58283 40.4622 1.02353C40.7338 1.00329 41.0065 1.10392 41.1828 1.31145C43.6103 4.16989 40.8091 8.65896 37.3907 15.5C40.1615 8.17698 50.0005 7.01433 54.8908 17C55.8242 18.5648 52.9582 19.9301 43.3908 23ZM43.3908 23C41.7293 22.7886 40.6372 22.766 37.3907 23.5M19.3907 30C22.0357 26.7945 23.9187 25.7534 28.3907 26" stroke="#7AB8DF" stroke-linecap="round"/>
<path d="M31 23C28.1477 19.7495 26.5551 17.9448 25 18M31.5 23C30.7499 18.5523 29.8565 15.9643 26.5 11M32 23C33.0759 19.7425 33.7135 17.923 31.5 14" stroke="#B1813B" stroke-linecap="round"/>
<ellipse cx="48" cy="208" rx="23" ry="5" fill="#FFA299"/>
<g filter="url(#filter0_d_250_74)">
<path d="M58.3984 206.692C50.6298 208.112 45.8403 208.041 37.6095 206.686C37.2308 206.624 36.9165 206.336 36.8099 205.967C24.6492 163.889 27.3121 153.45 40.4882 122.583C41.5125 119.215 41.2491 116.098 40.1925 110.205C40.086 109.611 40.5217 109.055 41.1252 109.036C46.2299 108.875 52.761 109.301 55.354 109.494C55.9574 109.539 56.3788 110.106 56.2797 110.703C55.8866 113.071 55.1864 118.806 56.4882 124.083C68.2228 150.832 71.214 167.669 59.171 206.003C59.0606 206.354 58.7607 206.626 58.3984 206.692Z" fill="#FED1AD"/>
<path d="M58.3984 206.692C50.6298 208.112 45.8403 208.041 37.6095 206.686C37.2308 206.624 36.9165 206.336 36.8099 205.967C24.6492 163.889 27.3121 153.45 40.4882 122.583C41.5125 119.215 41.2491 116.098 40.1925 110.205C40.086 109.611 40.5217 109.055 41.1252 109.036C46.2299 108.875 52.761 109.301 55.354 109.494C55.9574 109.539 56.3788 110.106 56.2797 110.703C55.8866 113.071 55.1864 118.806 56.4882 124.083C68.2228 150.832 71.214 167.669 59.171 206.003C59.0606 206.354 58.7607 206.626 58.3984 206.692Z" stroke="#EAB791" stroke-width="2" stroke-linecap="round"/>
</g>
<path d="M22.2886 72.8787C21.1875 72.836 20.2666 72.8388 19.3543 73.5114C17.9205 74.5684 16.8457 76.0438 15.7109 77.3947" stroke="#77B3DE" stroke-width="0.3" stroke-linecap="round"/>
<path d="M31.7134 25.166C30.3555 27.5035 28.7624 29.8836 28.4736 32.6273" stroke="#77B3DE" stroke-width="0.3" stroke-linecap="round"/>
<path d="M36.7202 20.5517C37.4407 19.764 38.0833 18.7989 39.1528 18.4574C41.7588 17.6252 44.8416 17.711 47.5194 17.4102" stroke="#77B3DE" stroke-width="0.3" stroke-linecap="round"/>
<path d="M61.0677 57.8579C61.2 55.5636 61.4561 53.2228 61.155 50.9312C60.9537 49.3989 60.466 48.0278 59.9878 46.5679" stroke="#77B3DE" stroke-width="0.3" stroke-linecap="round"/>
<path d="M69.4126 64.043C70.4875 64.3225 72.4167 64.8026 73.5359 65.1665C74.2976 65.4142 74.9933 65.647 75.4612 66.3119C75.9963 67.0723 76.3745 67.9221 76.7757 68.7553" stroke="#77B3DE" stroke-width="0.3" stroke-linecap="round"/>
<path d="M70.7871 60.018C73.3084 59.3357 75.8282 58.6488 78.3466 57.9563" stroke="#77B3DE" stroke-width="0.3" stroke-linecap="round"/>
<path d="M63.7185 65.3193L63.0312 71.2098" stroke="#77B3DE" stroke-width="0.3" stroke-linecap="round"/>
<path d="M25.5283 63.1594C26.5239 61.1755 27.2854 59.4826 27.2955 57.258C27.2984 56.6072 27.2955 55.9563 27.2955 55.3054" stroke="#77B3DE" stroke-width="0.3" stroke-linecap="round"/>
<path d="M30.8296 67.2828C32.2365 66.8239 34.3347 66.1206 35.8147 65.7011C36.1448 65.6075 37.2046 65.3102 37.7127 65.3193C38.2338 65.3286 38.7101 65.9199 39.0763 66.2029" stroke="#77B3DE" stroke-width="0.3" stroke-linecap="round"/>
<path d="M25.5283 73.4678C26.2566 75.2457 26.9077 77.1146 27.7972 78.8237C28.2366 79.6679 28.8799 80.3756 29.4553 81.1254" stroke="#77B3DE" stroke-width="0.3" stroke-linecap="round"/>
<path d="M12.275 68.0682L7.26807 67.7737" stroke="#77B3DE" stroke-width="0.3" stroke-linecap="round"/>
<path d="M25.6266 22.5151C24.4336 22.5151 23.2432 22.6458 22.0596 22.7878C21.4081 22.866 20.6431 22.9071 20.0634 23.2678C19.6231 23.5418 19.2159 23.8552 18.7544 24.0859" stroke="#77B3DE" stroke-width="0.3" stroke-linecap="round"/>
<path d="M33.4805 13.0905C34.2022 11.5614 34.9538 10.1236 35.913 8.72168C36.2825 8.18171 37.1997 6.31641 38.0947 6.31641" stroke="#77B3DE" stroke-width="0.3" stroke-linecap="round"/>
<defs>
<filter id="filter0_d_250_74" x="24" y="108" width="47.8716" height="108.73" filterUnits="userSpaceOnUse" color-interpolation-filters="sRGB">
<feFlood flood-opacity="0" result="BackgroundImageFix"/>
<feColorMatrix in="SourceAlpha" type="matrix" values="0 0 0 0 0 0 0 0 0 0 0 0 0 0 0 0 0 0 127 0" result="hardAlpha"/>
<feOffset dy="4"/>
<feGaussianBlur stdDeviation="2"/>
<feComposite in2="hardAlpha" operator="out"/>
<feColorMatrix type="matrix" values="0 0 0 0 0 0 0 0 0 0 0 0 0 0 0 0 0 0 0.25 0"/>
<feBlend mode="normal" in2="BackgroundImageFix" result="effect1_dropShadow_250_74"/>
<feBlend mode="normal" in="SourceGraphic" in2="effect1_dropShadow_250_74" result="shape"/>
</filter>
</defs>
</svg>
