<svg width="1920" height="528" viewBox="0 0 1920 528" fill="none" xmlns="http://www.w3.org/2000/svg">
<rect width="1920" height="528" fill="#FFE5E3"/>
<mask id="path-1-inside-1_248_138" fill="white">
<rect x="1406" y="188" width="279" height="227" rx="5"/>
</mask>
<rect x="1406" y="188" width="279" height="227" rx="5" stroke="#F4CFAC" stroke-width="14" mask="url(#path-1-inside-1_248_138)"/>
<rect width="265" height="213" transform="translate(1413 195)" fill="#FFDFC9"/>
<mask id="path-2-inside-2_248_138" fill="white">
<rect x="1427" y="209" width="237" height="186" rx="5"/>
</mask>
<rect x="1427" y="209" width="237" height="186" rx="5" fill="#D9E7E8"/>
<rect x="1427" y="209" width="237" height="186" rx="5" stroke="#F4CFAC" stroke-width="14" mask="url(#path-2-inside-2_248_138)"/>
<rect width="8" height="178" transform="translate(1542 213)" fill="#F4CFAC"/>
<rect width="228" height="8" transform="translate(1432 294)" fill="#F4CFAC"/>
<mask id="path-3-inside-3_248_138" fill="white">
<rect x="234" y="188" width="279" height="227" rx="5"/>
</mask>
<rect x="234" y="188" width="279" height="227" rx="5" stroke="#F4CFAC" stroke-width="14" mask="url(#path-3-inside-3_248_138)"/>
<rect width="265" height="213" transform="translate(241 195)" fill="#FFDFC9"/>
<mask id="path-4-inside-4_248_138" fill="white">
<rect x="255" y="209" width="237" height="186" rx="5"/>
</mask>
<rect x="255" y="209" width="237" height="186" rx="5" fill="#D9E7E8"/>
<rect x="255" y="209" width="237" height="186" rx="5" stroke="#F4CFAC" stroke-width="14" mask="url(#path-4-inside-4_248_138)"/>
<rect width="8" height="178" transform="translate(370 213)" fill="#F4CFAC"/>
<rect width="228" height="8" transform="translate(260 294)" fill="#F4CFAC"/>
<path d="M779 201H650C641.716 201 635 207.716 635 216V380C635 388.284 641.716 395 650 395H779C787.284 395 794 388.284 794 380V216C794 207.716 787.284 201 779 201Z" fill="#95755E" stroke="#7B604C" stroke-width="2"/>
<path d="M779 201H650C641.716 201 635 207.716 635 216V380C635 388.284 641.716 395 650 395H779C787.284 395 794 388.284 794 380V216C794 207.716 787.284 201 779 201Z" stroke="#CBA380" stroke-width="10"/>
<path d="M783 197H646C637.716 197 631 203.716 631 212V384C631 392.284 637.716 399 646 399H783C791.284 399 798 392.284 798 384V212C798 203.716 791.284 197 783 197Z" stroke="#B38D6D" stroke-width="2"/>
<path d="M662 311H768M662 358.5H768M662 334.5H768M662 264H768M662 287H768" stroke="#AE8F75" stroke-width="4" stroke-linecap="round"/>
<mask id="path-9-outside-5_248_138" maskUnits="userSpaceOnUse" x="666" y="223" width="97" height="23" fill="black">
<rect fill="white" x="666" y="223" width="97" height="23"/>
<path d="M681.188 239.934C680.894 240.183 680.508 240.387 680.032 240.546C679.579 240.682 679.046 240.75 678.434 240.75C677.618 240.75 676.938 240.648 676.394 240.444C675.873 240.24 675.533 239.889 675.374 239.39C674.74 237.395 674.218 235.786 673.81 234.562C673.402 233.315 673.085 232.227 672.858 231.298H672.688C672.62 232.635 672.564 233.859 672.518 234.97C672.496 236.058 672.473 237.123 672.45 238.166C672.45 239.209 672.428 240.263 672.382 241.328C672.36 242.393 672.314 243.572 672.246 244.864C671.952 244.977 671.566 245.068 671.09 245.136C670.614 245.227 670.138 245.272 669.662 245.272C668.665 245.272 667.883 245.113 667.316 244.796C666.772 244.479 666.5 243.901 666.5 243.062L667.486 225.722C667.668 225.427 668.064 225.11 668.676 224.77C669.288 224.43 670.15 224.26 671.26 224.26C672.462 224.26 673.402 224.453 674.082 224.838C674.762 225.201 675.261 225.801 675.578 226.64C675.782 227.184 675.998 227.807 676.224 228.51C676.474 229.213 676.712 229.938 676.938 230.686C677.188 231.434 677.426 232.182 677.652 232.93C677.879 233.655 678.083 234.313 678.264 234.902H678.434C678.978 232.998 679.522 231.162 680.066 229.394C680.61 227.603 681.109 226.107 681.562 224.906C681.902 224.725 682.333 224.577 682.854 224.464C683.398 224.328 683.999 224.26 684.656 224.26C685.767 224.26 686.674 224.43 687.376 224.77C688.079 225.087 688.487 225.552 688.6 226.164C688.691 226.617 688.782 227.32 688.872 228.272C688.986 229.201 689.099 230.255 689.212 231.434C689.326 232.613 689.439 233.859 689.552 235.174C689.666 236.489 689.768 237.758 689.858 238.982C689.972 240.183 690.062 241.294 690.13 242.314C690.198 243.311 690.244 244.082 690.266 244.626C689.881 244.853 689.473 245.011 689.042 245.102C688.634 245.215 688.102 245.272 687.444 245.272C686.583 245.272 685.858 245.125 685.268 244.83C684.679 244.535 684.362 243.957 684.316 243.096C684.18 240.625 684.09 238.404 684.044 236.432C684.022 234.46 683.976 232.805 683.908 231.468H683.738C683.512 232.352 683.183 233.463 682.752 234.8C682.322 236.137 681.8 237.849 681.188 239.934ZM696.756 227.558C696.756 226.583 697.04 225.813 697.606 225.246C698.173 224.679 698.944 224.396 699.918 224.396H711.138C711.297 224.645 711.433 224.974 711.546 225.382C711.682 225.79 711.75 226.221 711.75 226.674C711.75 227.535 711.558 228.147 711.172 228.51C710.81 228.873 710.322 229.054 709.71 229.054H702.536V232.216H710.186C710.345 232.465 710.481 232.794 710.594 233.202C710.73 233.587 710.798 234.007 710.798 234.46C710.798 235.321 710.617 235.933 710.254 236.296C709.892 236.659 709.404 236.84 708.792 236.84H702.536V240.41H711.274C711.433 240.659 711.569 240.988 711.682 241.396C711.818 241.804 711.886 242.235 711.886 242.688C711.886 243.549 711.694 244.173 711.308 244.558C710.946 244.921 710.458 245.102 709.846 245.102H699.918C698.944 245.102 698.173 244.819 697.606 244.252C697.04 243.685 696.756 242.915 696.756 241.94V227.558ZM736.769 244.286C736.452 244.603 735.987 244.841 735.375 245C734.786 245.181 734.072 245.272 733.233 245.272C732.395 245.272 731.601 245.147 730.853 244.898C730.105 244.649 729.493 244.048 729.017 243.096L725.651 236.228C725.311 235.525 725.005 234.868 724.733 234.256C724.461 233.621 724.167 232.896 723.849 232.08L723.645 232.114C723.736 233.338 723.781 234.585 723.781 235.854C723.804 237.123 723.815 238.37 723.815 239.594V244.864C723.566 244.932 723.181 245 722.659 245.068C722.161 245.136 721.662 245.17 721.163 245.17C720.665 245.17 720.223 245.136 719.837 245.068C719.452 245 719.135 244.864 718.885 244.66C718.636 244.456 718.443 244.184 718.307 243.844C718.171 243.481 718.103 243.017 718.103 242.45V225.45C718.421 224.997 718.908 224.657 719.565 224.43C720.223 224.203 720.925 224.09 721.673 224.09C722.512 224.09 723.305 224.226 724.053 224.498C724.824 224.747 725.436 225.337 725.889 226.266L729.289 233.134C729.629 233.837 729.935 234.505 730.207 235.14C730.479 235.752 730.774 236.466 731.091 237.282L731.261 237.248C731.171 236.024 731.114 234.8 731.091 233.576C731.069 232.352 731.057 231.128 731.057 229.904V224.396C731.307 224.328 731.681 224.26 732.179 224.192C732.701 224.124 733.211 224.09 733.709 224.09C734.707 224.09 735.466 224.271 735.987 224.634C736.509 224.974 736.769 225.699 736.769 226.81V244.286ZM762.157 237.384C762.157 238.608 761.942 239.73 761.511 240.75C761.103 241.747 760.503 242.609 759.709 243.334C758.916 244.037 757.953 244.581 756.819 244.966C755.686 245.351 754.405 245.544 752.977 245.544C751.549 245.544 750.269 245.351 749.135 244.966C748.002 244.581 747.039 244.037 746.245 243.334C745.452 242.609 744.84 241.747 744.409 240.75C744.001 239.73 743.797 238.608 743.797 237.384V224.396C744.047 224.351 744.443 224.294 744.987 224.226C745.531 224.135 746.053 224.09 746.551 224.09C747.073 224.09 747.526 224.135 747.911 224.226C748.319 224.294 748.659 224.43 748.931 224.634C749.203 224.838 749.407 225.121 749.543 225.484C749.679 225.847 749.747 226.323 749.747 226.912V237.282C749.747 238.37 750.042 239.22 750.631 239.832C751.243 240.444 752.025 240.75 752.977 240.75C753.952 240.75 754.734 240.444 755.323 239.832C755.913 239.22 756.207 238.37 756.207 237.282V224.396C756.457 224.351 756.853 224.294 757.397 224.226C757.941 224.135 758.463 224.09 758.961 224.09C759.483 224.09 759.936 224.135 760.321 224.226C760.729 224.294 761.069 224.43 761.341 224.634C761.613 224.838 761.817 225.121 761.953 225.484C762.089 225.847 762.157 226.323 762.157 226.912V237.384Z"/>
</mask>
<path d="M681.188 239.934C680.894 240.183 680.508 240.387 680.032 240.546C679.579 240.682 679.046 240.75 678.434 240.75C677.618 240.75 676.938 240.648 676.394 240.444C675.873 240.24 675.533 239.889 675.374 239.39C674.74 237.395 674.218 235.786 673.81 234.562C673.402 233.315 673.085 232.227 672.858 231.298H672.688C672.62 232.635 672.564 233.859 672.518 234.97C672.496 236.058 672.473 237.123 672.45 238.166C672.45 239.209 672.428 240.263 672.382 241.328C672.36 242.393 672.314 243.572 672.246 244.864C671.952 244.977 671.566 245.068 671.09 245.136C670.614 245.227 670.138 245.272 669.662 245.272C668.665 245.272 667.883 245.113 667.316 244.796C666.772 244.479 666.5 243.901 666.5 243.062L667.486 225.722C667.668 225.427 668.064 225.11 668.676 224.77C669.288 224.43 670.15 224.26 671.26 224.26C672.462 224.26 673.402 224.453 674.082 224.838C674.762 225.201 675.261 225.801 675.578 226.64C675.782 227.184 675.998 227.807 676.224 228.51C676.474 229.213 676.712 229.938 676.938 230.686C677.188 231.434 677.426 232.182 677.652 232.93C677.879 233.655 678.083 234.313 678.264 234.902H678.434C678.978 232.998 679.522 231.162 680.066 229.394C680.61 227.603 681.109 226.107 681.562 224.906C681.902 224.725 682.333 224.577 682.854 224.464C683.398 224.328 683.999 224.26 684.656 224.26C685.767 224.26 686.674 224.43 687.376 224.77C688.079 225.087 688.487 225.552 688.6 226.164C688.691 226.617 688.782 227.32 688.872 228.272C688.986 229.201 689.099 230.255 689.212 231.434C689.326 232.613 689.439 233.859 689.552 235.174C689.666 236.489 689.768 237.758 689.858 238.982C689.972 240.183 690.062 241.294 690.13 242.314C690.198 243.311 690.244 244.082 690.266 244.626C689.881 244.853 689.473 245.011 689.042 245.102C688.634 245.215 688.102 245.272 687.444 245.272C686.583 245.272 685.858 245.125 685.268 244.83C684.679 244.535 684.362 243.957 684.316 243.096C684.18 240.625 684.09 238.404 684.044 236.432C684.022 234.46 683.976 232.805 683.908 231.468H683.738C683.512 232.352 683.183 233.463 682.752 234.8C682.322 236.137 681.8 237.849 681.188 239.934ZM696.756 227.558C696.756 226.583 697.04 225.813 697.606 225.246C698.173 224.679 698.944 224.396 699.918 224.396H711.138C711.297 224.645 711.433 224.974 711.546 225.382C711.682 225.79 711.75 226.221 711.75 226.674C711.75 227.535 711.558 228.147 711.172 228.51C710.81 228.873 710.322 229.054 709.71 229.054H702.536V232.216H710.186C710.345 232.465 710.481 232.794 710.594 233.202C710.73 233.587 710.798 234.007 710.798 234.46C710.798 235.321 710.617 235.933 710.254 236.296C709.892 236.659 709.404 236.84 708.792 236.84H702.536V240.41H711.274C711.433 240.659 711.569 240.988 711.682 241.396C711.818 241.804 711.886 242.235 711.886 242.688C711.886 243.549 711.694 244.173 711.308 244.558C710.946 244.921 710.458 245.102 709.846 245.102H699.918C698.944 245.102 698.173 244.819 697.606 244.252C697.04 243.685 696.756 242.915 696.756 241.94V227.558ZM736.769 244.286C736.452 244.603 735.987 244.841 735.375 245C734.786 245.181 734.072 245.272 733.233 245.272C732.395 245.272 731.601 245.147 730.853 244.898C730.105 244.649 729.493 244.048 729.017 243.096L725.651 236.228C725.311 235.525 725.005 234.868 724.733 234.256C724.461 233.621 724.167 232.896 723.849 232.08L723.645 232.114C723.736 233.338 723.781 234.585 723.781 235.854C723.804 237.123 723.815 238.37 723.815 239.594V244.864C723.566 244.932 723.181 245 722.659 245.068C722.161 245.136 721.662 245.17 721.163 245.17C720.665 245.17 720.223 245.136 719.837 245.068C719.452 245 719.135 244.864 718.885 244.66C718.636 244.456 718.443 244.184 718.307 243.844C718.171 243.481 718.103 243.017 718.103 242.45V225.45C718.421 224.997 718.908 224.657 719.565 224.43C720.223 224.203 720.925 224.09 721.673 224.09C722.512 224.09 723.305 224.226 724.053 224.498C724.824 224.747 725.436 225.337 725.889 226.266L729.289 233.134C729.629 233.837 729.935 234.505 730.207 235.14C730.479 235.752 730.774 236.466 731.091 237.282L731.261 237.248C731.171 236.024 731.114 234.8 731.091 233.576C731.069 232.352 731.057 231.128 731.057 229.904V224.396C731.307 224.328 731.681 224.26 732.179 224.192C732.701 224.124 733.211 224.09 733.709 224.09C734.707 224.09 735.466 224.271 735.987 224.634C736.509 224.974 736.769 225.699 736.769 226.81V244.286ZM762.157 237.384C762.157 238.608 761.942 239.73 761.511 240.75C761.103 241.747 760.503 242.609 759.709 243.334C758.916 244.037 757.953 244.581 756.819 244.966C755.686 245.351 754.405 245.544 752.977 245.544C751.549 245.544 750.269 245.351 749.135 244.966C748.002 244.581 747.039 244.037 746.245 243.334C745.452 242.609 744.84 241.747 744.409 240.75C744.001 239.73 743.797 238.608 743.797 237.384V224.396C744.047 224.351 744.443 224.294 744.987 224.226C745.531 224.135 746.053 224.09 746.551 224.09C747.073 224.09 747.526 224.135 747.911 224.226C748.319 224.294 748.659 224.43 748.931 224.634C749.203 224.838 749.407 225.121 749.543 225.484C749.679 225.847 749.747 226.323 749.747 226.912V237.282C749.747 238.37 750.042 239.22 750.631 239.832C751.243 240.444 752.025 240.75 752.977 240.75C753.952 240.75 754.734 240.444 755.323 239.832C755.913 239.22 756.207 238.37 756.207 237.282V224.396C756.457 224.351 756.853 224.294 757.397 224.226C757.941 224.135 758.463 224.09 758.961 224.09C759.483 224.09 759.936 224.135 760.321 224.226C760.729 224.294 761.069 224.43 761.341 224.634C761.613 224.838 761.817 225.121 761.953 225.484C762.089 225.847 762.157 226.323 762.157 226.912V237.384Z" fill="#FEC8BA"/>
<path d="M681.188 239.934L681.382 240.163L681.451 240.105L681.476 240.018L681.188 239.934ZM680.032 240.546L680.119 240.833L680.127 240.831L680.032 240.546ZM676.394 240.444L676.285 240.723L676.289 240.725L676.394 240.444ZM675.374 239.39L675.089 239.481L675.374 239.39ZM673.81 234.562L673.525 234.655L673.526 234.657L673.81 234.562ZM672.858 231.298L673.15 231.227L673.094 230.998H672.858V231.298ZM672.688 231.298V230.998H672.403L672.389 231.283L672.688 231.298ZM672.518 234.97L672.219 234.958L672.219 234.964L672.518 234.97ZM672.45 238.166L672.15 238.159V238.166H672.45ZM672.382 241.328L672.083 241.315L672.083 241.322L672.382 241.328ZM672.246 244.864L672.354 245.144L672.536 245.074L672.546 244.88L672.246 244.864ZM671.09 245.136L671.048 244.839L671.034 244.841L671.09 245.136ZM667.316 244.796L667.165 245.055L667.17 245.058L667.316 244.796ZM666.5 243.062L666.201 243.045L666.2 243.053V243.062H666.5ZM667.486 225.722L667.231 225.565L667.191 225.629L667.187 225.705L667.486 225.722ZM668.676 224.77L668.822 225.032L668.676 224.77ZM674.082 224.838L673.935 225.099L673.941 225.103L674.082 224.838ZM675.578 226.64L675.859 226.535L675.859 226.534L675.578 226.64ZM676.224 228.51L675.939 228.602L675.942 228.61L676.224 228.51ZM676.938 230.686L676.651 230.773L676.654 230.781L676.938 230.686ZM677.652 232.93L677.365 233.017L677.366 233.019L677.652 232.93ZM678.264 234.902L677.978 234.99L678.043 235.202H678.264V234.902ZM678.434 234.902V235.202H678.661L678.723 234.984L678.434 234.902ZM680.066 229.394L680.353 229.482L680.354 229.481L680.066 229.394ZM681.562 224.906L681.421 224.641L681.322 224.694L681.282 224.8L681.562 224.906ZM682.854 224.464L682.918 224.757L682.927 224.755L682.854 224.464ZM687.376 224.77L687.246 225.04L687.253 225.043L687.376 224.77ZM688.6 226.164L688.305 226.219L688.306 226.223L688.6 226.164ZM688.872 228.272L688.574 228.3L688.575 228.308L688.872 228.272ZM689.858 238.982L689.559 239.004L689.56 239.01L689.858 238.982ZM690.13 242.314L689.831 242.334L689.831 242.334L690.13 242.314ZM690.267 244.626L690.419 244.885L690.574 244.793L690.566 244.614L690.267 244.626ZM689.042 245.102L688.981 244.808L688.971 244.81L688.962 244.813L689.042 245.102ZM684.316 243.096L684.616 243.08L684.616 243.08L684.316 243.096ZM684.044 236.432L683.744 236.435L683.745 236.439L684.044 236.432ZM683.908 231.468L684.208 231.453L684.194 231.168H683.908V231.468ZM683.738 231.468V231.168H683.506L683.448 231.393L683.738 231.468ZM682.752 234.8L683.038 234.892L682.752 234.8ZM681.188 239.934L680.995 239.705C680.736 239.923 680.388 240.111 679.938 240.261L680.032 240.546L680.127 240.831C680.629 240.663 681.051 240.443 681.382 240.163L681.188 239.934ZM680.032 240.546L679.946 240.259C679.528 240.384 679.025 240.45 678.434 240.45V240.75V241.05C679.068 241.05 679.631 240.98 680.119 240.833L680.032 240.546ZM678.434 240.75V240.45C677.641 240.45 677 240.35 676.5 240.163L676.394 240.444L676.289 240.725C676.877 240.946 677.596 241.05 678.434 241.05V240.75ZM676.394 240.444L676.504 240.165C676.06 239.991 675.789 239.705 675.66 239.299L675.374 239.39L675.089 239.481C675.277 240.073 675.686 240.489 676.285 240.723L676.394 240.444ZM675.374 239.39L675.66 239.299C675.026 237.304 674.504 235.693 674.095 234.467L673.81 234.562L673.526 234.657C673.933 235.879 674.454 237.487 675.089 239.481L675.374 239.39ZM673.81 234.562L674.096 234.469C673.689 233.227 673.374 232.147 673.15 231.227L672.858 231.298L672.567 231.369C672.796 232.308 673.116 233.404 673.525 234.655L673.81 234.562ZM672.858 231.298V230.998H672.688V231.298V231.598H672.858V231.298ZM672.688 231.298L672.389 231.283C672.321 232.621 672.264 233.846 672.219 234.958L672.518 234.97L672.818 234.982C672.864 233.873 672.92 232.65 672.988 231.313L672.688 231.298ZM672.518 234.97L672.219 234.964C672.196 236.052 672.173 237.117 672.151 238.159L672.45 238.166L672.75 238.173C672.773 237.13 672.796 236.064 672.818 234.976L672.518 234.97ZM672.45 238.166H672.15C672.15 239.204 672.128 240.254 672.083 241.315L672.382 241.328L672.682 241.341C672.728 240.271 672.75 239.213 672.75 238.166H672.45ZM672.382 241.328L672.083 241.322C672.06 242.383 672.015 243.559 671.947 244.848L672.246 244.864L672.546 244.88C672.614 243.585 672.66 242.403 672.682 241.334L672.382 241.328ZM672.246 244.864L672.139 244.584C671.873 244.686 671.512 244.773 671.048 244.839L671.09 245.136L671.133 245.433C671.621 245.363 672.031 245.268 672.354 245.144L672.246 244.864ZM671.09 245.136L671.034 244.841C670.577 244.929 670.119 244.972 669.662 244.972V245.272V245.572C670.158 245.572 670.652 245.525 671.147 245.431L671.09 245.136ZM669.662 245.272V244.972C668.691 244.972 667.967 244.817 667.463 244.534L667.316 244.796L667.17 245.058C667.799 245.41 668.639 245.572 669.662 245.572V245.272ZM667.316 244.796L667.468 244.537C667.046 244.291 666.8 243.834 666.8 243.062H666.5H666.2C666.2 243.967 666.499 244.666 667.165 245.055L667.316 244.796ZM666.5 243.062L666.8 243.079L667.786 225.739L667.486 225.722L667.187 225.705L666.201 243.045L666.5 243.062ZM667.486 225.722L667.742 225.879C667.88 225.654 668.218 225.368 668.822 225.032L668.676 224.77L668.531 224.508C667.911 224.852 667.455 225.2 667.231 225.565L667.486 225.722ZM668.676 224.77L668.822 225.032C669.371 224.727 670.174 224.56 671.26 224.56V224.26V223.96C670.126 223.96 669.206 224.133 668.531 224.508L668.676 224.77ZM671.26 224.26V224.56C672.435 224.56 673.318 224.749 673.935 225.099L674.082 224.838L674.23 224.577C673.487 224.156 672.488 223.96 671.26 223.96V224.26ZM674.082 224.838L673.941 225.103C674.547 225.426 675.002 225.964 675.298 226.746L675.578 226.64L675.859 226.534C675.52 225.639 674.978 224.976 674.224 224.573L674.082 224.838ZM675.578 226.64L675.298 226.745C675.5 227.284 675.713 227.903 675.939 228.602L676.224 228.51L676.51 228.418C676.282 227.712 676.065 227.084 675.859 226.535L675.578 226.64ZM676.224 228.51L675.942 228.61C676.189 229.308 676.426 230.029 676.651 230.773L676.938 230.686L677.226 230.599C676.998 229.847 676.758 229.117 676.507 228.41L676.224 228.51ZM676.938 230.686L676.654 230.781C676.902 231.526 677.14 232.272 677.365 233.017L677.652 232.93L677.94 232.843C677.712 232.092 677.473 231.342 677.223 230.591L676.938 230.686ZM677.652 232.93L677.366 233.019C677.593 233.744 677.797 234.401 677.978 234.99L678.264 234.902L678.551 234.814C678.37 234.224 678.166 233.566 677.939 232.841L677.652 232.93ZM678.264 234.902V235.202H678.434V234.902V234.602H678.264V234.902ZM678.434 234.902L678.723 234.984C679.266 233.082 679.81 231.248 680.353 229.482L680.066 229.394L679.78 229.306C679.235 231.076 678.691 232.914 678.146 234.82L678.434 234.902ZM680.066 229.394L680.354 229.481C680.896 227.694 681.393 226.205 681.843 225.012L681.562 224.906L681.282 224.8C680.825 226.01 680.325 227.512 679.779 229.307L680.066 229.394ZM681.562 224.906L681.704 225.171C682.012 225.006 682.414 224.867 682.918 224.757L682.854 224.464L682.791 224.171C682.252 224.288 681.793 224.443 681.421 224.641L681.562 224.906ZM682.854 224.464L682.927 224.755C683.444 224.626 684.02 224.56 684.656 224.56V224.26V223.96C683.979 223.96 683.353 224.03 682.782 224.173L682.854 224.464ZM684.656 224.26V224.56C685.74 224.56 686.597 224.726 687.246 225.04L687.376 224.77L687.507 224.5C686.75 224.134 685.795 223.96 684.656 223.96V224.26ZM687.376 224.77L687.253 225.043C687.89 225.331 688.214 225.727 688.306 226.219L688.6 226.164L688.895 226.109C688.76 225.377 688.268 224.843 687.5 224.497L687.376 224.77ZM688.6 226.164L688.306 226.223C688.394 226.66 688.483 227.35 688.574 228.3L688.872 228.272L689.171 228.244C689.08 227.29 688.989 226.574 688.895 226.105L688.6 226.164ZM688.872 228.272L688.575 228.308C688.688 229.235 688.801 230.286 688.914 231.463L689.212 231.434L689.511 231.405C689.398 230.225 689.284 229.168 689.17 228.236L688.872 228.272ZM689.212 231.434L688.914 231.463C689.027 232.64 689.14 233.886 689.254 235.2L689.552 235.174L689.851 235.148C689.738 233.833 689.625 232.585 689.511 231.405L689.212 231.434ZM689.552 235.174L689.254 235.2C689.367 236.513 689.469 237.781 689.559 239.004L689.858 238.982L690.158 238.96C690.067 237.735 689.965 236.464 689.851 235.148L689.552 235.174ZM689.858 238.982L689.56 239.01C689.673 240.209 689.763 241.317 689.831 242.334L690.13 242.314L690.43 242.294C690.362 241.271 690.271 240.157 690.157 238.954L689.858 238.982ZM690.13 242.314L689.831 242.334C689.899 243.331 689.944 244.098 689.967 244.638L690.267 244.626L690.566 244.614C690.543 244.066 690.498 243.292 690.43 242.294L690.13 242.314ZM690.267 244.626L690.114 244.367C689.757 244.578 689.379 244.725 688.981 244.808L689.042 245.102L689.104 245.396C689.567 245.298 690.006 245.127 690.419 244.885L690.267 244.626ZM689.042 245.102L688.962 244.813C688.591 244.916 688.088 244.972 687.444 244.972V245.272V245.572C688.116 245.572 688.678 245.514 689.123 245.391L689.042 245.102ZM687.444 245.272V244.972C686.616 244.972 685.94 244.83 685.403 244.562L685.268 244.83L685.134 245.098C685.776 245.419 686.55 245.572 687.444 245.572V245.272ZM685.268 244.83L685.403 244.562C684.94 244.33 684.658 243.872 684.616 243.08L684.316 243.096L684.017 243.112C684.066 244.043 684.418 244.74 685.134 245.098L685.268 244.83ZM684.316 243.096L684.616 243.08C684.48 240.611 684.39 238.393 684.344 236.425L684.044 236.432L683.745 236.439C683.79 238.415 683.881 240.639 684.017 243.112L684.316 243.096ZM684.044 236.432L684.344 236.429C684.322 234.454 684.276 232.795 684.208 231.453L683.908 231.468L683.609 231.483C683.677 232.815 683.722 234.466 683.745 236.435L684.044 236.432ZM683.908 231.468V231.168H683.738V231.468V231.768H683.908V231.468ZM683.738 231.468L683.448 231.393C683.223 232.269 682.897 233.374 682.467 234.708L682.752 234.8L683.038 234.892C683.47 233.552 683.8 232.435 684.029 231.543L683.738 231.468ZM682.752 234.8L682.467 234.708C682.035 236.049 681.513 237.763 680.901 239.85L681.188 239.934L681.476 240.018C682.088 237.934 682.608 236.226 683.038 234.892L682.752 234.8ZM711.138 224.396L711.391 224.235L711.303 224.096H711.138V224.396ZM711.546 225.382L711.257 225.462L711.259 225.47L711.262 225.477L711.546 225.382ZM711.172 228.51L710.967 228.291L710.96 228.298L711.172 228.51ZM702.536 229.054V228.754H702.236V229.054H702.536ZM702.536 232.216H702.236V232.516H702.536V232.216ZM710.186 232.216L710.439 232.055L710.351 231.916H710.186V232.216ZM710.594 233.202L710.305 233.282L710.308 233.292L710.311 233.302L710.594 233.202ZM702.536 236.84V236.54H702.236V236.84H702.536ZM702.536 240.41H702.236V240.71H702.536V240.41ZM711.274 240.41L711.527 240.249L711.439 240.11H711.274V240.41ZM711.682 241.396L711.393 241.476L711.395 241.484L711.398 241.491L711.682 241.396ZM711.308 244.558L711.096 244.346L711.308 244.558ZM697.606 244.252L697.818 244.04L697.606 244.252ZM696.756 227.558H697.056C697.056 226.645 697.32 225.957 697.818 225.458L697.606 225.246L697.394 225.034C696.759 225.669 696.456 226.522 696.456 227.558H696.756ZM697.606 225.246L697.818 225.458C698.317 224.959 699.005 224.696 699.918 224.696V224.396V224.096C698.882 224.096 698.029 224.399 697.394 225.034L697.606 225.246ZM699.918 224.396V224.696H711.138V224.396V224.096H699.918V224.396ZM711.138 224.396L710.885 224.557C711.023 224.773 711.149 225.072 711.257 225.462L711.546 225.382L711.835 225.302C711.717 224.876 711.571 224.518 711.391 224.235L711.138 224.396ZM711.546 225.382L711.262 225.477C711.387 225.853 711.45 226.251 711.45 226.674H711.75H712.05C712.05 226.19 711.978 225.727 711.831 225.287L711.546 225.382ZM711.75 226.674H711.45C711.45 227.503 711.263 228.013 710.967 228.292L711.172 228.51L711.378 228.728C711.852 228.282 712.05 227.568 712.05 226.674H711.75ZM711.172 228.51L710.96 228.298C710.664 228.594 710.259 228.754 709.71 228.754V229.054V229.354C710.385 229.354 710.955 229.152 711.384 228.722L711.172 228.51ZM709.71 229.054V228.754H702.536V229.054V229.354H709.71V229.054ZM702.536 229.054H702.236V232.216H702.536H702.836V229.054H702.536ZM702.536 232.216V232.516H710.186V232.216V231.916H702.536V232.216ZM710.186 232.216L709.933 232.377C710.071 232.593 710.197 232.892 710.305 233.282L710.594 233.202L710.883 233.122C710.765 232.696 710.619 232.338 710.439 232.055L710.186 232.216ZM710.594 233.202L710.311 233.302C710.435 233.652 710.498 234.037 710.498 234.46H710.798H711.098C711.098 233.976 711.026 233.523 710.877 233.102L710.594 233.202ZM710.798 234.46H710.498C710.498 235.293 710.321 235.805 710.042 236.084L710.254 236.296L710.466 236.508C710.913 236.061 711.098 235.35 711.098 234.46H710.798ZM710.254 236.296L710.042 236.084C709.746 236.38 709.341 236.54 708.792 236.54V236.84V237.14C709.467 237.14 710.037 236.938 710.466 236.508L710.254 236.296ZM708.792 236.84V236.54H702.536V236.84V237.14H708.792V236.84ZM702.536 236.84H702.236V240.41H702.536H702.836V236.84H702.536ZM702.536 240.41V240.71H711.274V240.41V240.11H702.536V240.41ZM711.274 240.41L711.021 240.571C711.159 240.787 711.285 241.086 711.393 241.476L711.682 241.396L711.971 241.316C711.853 240.89 711.707 240.532 711.527 240.249L711.274 240.41ZM711.682 241.396L711.398 241.491C711.523 241.867 711.586 242.265 711.586 242.688H711.886H712.186C712.186 242.204 712.114 241.741 711.967 241.301L711.682 241.396ZM711.886 242.688H711.586C711.586 243.514 711.4 244.042 711.096 244.346L711.308 244.558L711.52 244.77C711.987 244.303 712.186 243.584 712.186 242.688H711.886ZM711.308 244.558L711.096 244.346C710.8 244.642 710.395 244.802 709.846 244.802V245.102V245.402C710.521 245.402 711.091 245.2 711.52 244.77L711.308 244.558ZM709.846 245.102V244.802H699.918V245.102V245.402H709.846V245.102ZM699.918 245.102V244.802C699.005 244.802 698.317 244.539 697.818 244.04L697.606 244.252L697.394 244.464C698.029 245.099 698.882 245.402 699.918 245.402V245.102ZM697.606 244.252L697.818 244.04C697.32 243.541 697.056 242.853 697.056 241.94H696.756H696.456C696.456 242.976 696.759 243.829 697.394 244.464L697.606 244.252ZM696.756 241.94H697.056V227.558H696.756H696.456V241.94H696.756ZM736.769 244.286L736.981 244.498L737.069 244.41V244.286H736.769ZM735.375 245L735.3 244.709L735.287 244.713L735.375 245ZM730.853 244.898L730.948 244.613L730.853 244.898ZM729.017 243.096L728.748 243.228L728.749 243.23L729.017 243.096ZM725.651 236.228L725.381 236.359L725.382 236.36L725.651 236.228ZM724.733 234.256L724.457 234.374L724.459 234.378L724.733 234.256ZM723.849 232.08L724.129 231.971L724.04 231.744L723.8 231.784L723.849 232.08ZM723.645 232.114L723.596 231.818L723.326 231.863L723.346 232.136L723.645 232.114ZM723.781 235.854H723.481L723.481 235.859L723.781 235.854ZM723.815 244.864L723.894 245.153L724.115 245.093V244.864H723.815ZM722.659 245.068L722.62 244.771L722.619 244.771L722.659 245.068ZM719.837 245.068L719.889 244.773L719.837 245.068ZM718.885 244.66L719.075 244.428L718.885 244.66ZM718.307 243.844L718.026 243.949L718.029 243.955L718.307 243.844ZM718.103 225.45L717.857 225.278L717.803 225.355V225.45H718.103ZM719.565 224.43L719.467 224.146L719.565 224.43ZM724.053 224.498L723.951 224.78L723.961 224.783L724.053 224.498ZM725.889 226.266L725.62 226.398L725.62 226.399L725.889 226.266ZM729.289 233.134L729.559 233.003L729.558 233.001L729.289 233.134ZM730.207 235.14L729.931 235.258L729.933 235.262L730.207 235.14ZM731.091 237.282L730.812 237.391L730.903 237.626L731.15 237.576L731.091 237.282ZM731.261 237.248L731.32 237.542L731.58 237.49L731.56 237.226L731.261 237.248ZM731.091 233.576L731.391 233.57V233.57L731.091 233.576ZM731.057 224.396L730.978 224.107L730.757 224.167V224.396H731.057ZM732.179 224.192L732.14 223.895L732.139 223.895L732.179 224.192ZM735.987 224.634L735.816 224.88L735.823 224.885L735.987 224.634ZM736.769 244.286L736.557 244.074C736.29 244.341 735.88 244.559 735.3 244.71L735.375 245L735.45 245.29C736.094 245.124 736.614 244.866 736.981 244.498L736.769 244.286ZM735.375 245L735.287 244.713C734.734 244.883 734.052 244.972 733.233 244.972V245.272V245.572C734.092 245.572 734.837 245.479 735.463 245.287L735.375 245ZM733.233 245.272V244.972C732.425 244.972 731.664 244.852 730.948 244.613L730.853 244.898L730.758 245.183C731.539 245.443 732.364 245.572 733.233 245.572V245.272ZM730.853 244.898L730.948 244.613C730.299 244.397 729.739 243.868 729.286 242.962L729.017 243.096L728.749 243.23C729.248 244.228 729.911 244.9 730.758 245.183L730.853 244.898ZM729.017 243.096L729.287 242.964L725.921 236.096L725.651 236.228L725.382 236.36L728.748 243.228L729.017 243.096ZM725.651 236.228L725.921 236.097C725.582 235.397 725.278 234.743 725.007 234.134L724.733 234.256L724.459 234.378C724.733 234.993 725.04 235.654 725.381 236.359L725.651 236.228ZM724.733 234.256L725.009 234.138C724.739 233.507 724.445 232.785 724.129 231.971L723.849 232.08L723.57 232.189C723.888 233.007 724.184 233.736 724.457 234.374L724.733 234.256ZM723.849 232.08L723.8 231.784L723.596 231.818L723.645 232.114L723.695 232.41L723.899 232.376L723.849 232.08ZM723.645 232.114L723.346 232.136C723.436 233.353 723.481 234.592 723.481 235.854H723.781H724.081C724.081 234.578 724.036 233.323 723.944 232.092L723.645 232.114ZM723.781 235.854L723.481 235.859C723.504 237.127 723.515 238.372 723.515 239.594H723.815H724.115C724.115 238.368 724.104 237.12 724.081 235.849L723.781 235.854ZM723.815 239.594H723.515V244.864H723.815H724.115V239.594H723.815ZM723.815 244.864L723.736 244.575C723.508 244.637 723.139 244.703 722.62 244.771L722.659 245.068L722.698 245.365C723.222 245.297 723.624 245.227 723.894 245.153L723.815 244.864ZM722.659 245.068L722.619 244.771C722.133 244.837 721.648 244.87 721.163 244.87V245.17V245.47C721.676 245.47 722.188 245.435 722.7 245.365L722.659 245.068ZM721.163 245.17V244.87C720.678 244.87 720.254 244.837 719.889 244.773L719.837 245.068L719.785 245.363C720.192 245.435 720.652 245.47 721.163 245.47V245.17ZM719.837 245.068L719.889 244.773C719.544 244.712 719.277 244.593 719.075 244.428L718.885 244.66L718.695 244.892C718.992 245.135 719.36 245.288 719.785 245.363L719.837 245.068ZM718.885 244.66L719.075 244.428C718.87 244.26 718.706 244.032 718.586 243.733L718.307 243.844L718.029 243.955C718.181 244.336 718.402 244.652 718.695 244.892L718.885 244.66ZM718.307 243.844L718.588 243.739C718.469 243.421 718.403 242.996 718.403 242.45H718.103H717.803C717.803 243.037 717.873 243.541 718.026 243.949L718.307 243.844ZM718.103 242.45H718.403V225.45H718.103H717.803V242.45H718.103ZM718.103 225.45L718.349 225.622C718.622 225.233 719.05 224.925 719.663 224.714L719.565 224.43L719.467 224.146C718.766 224.388 718.219 224.761 717.857 225.278L718.103 225.45ZM719.565 224.43L719.663 224.714C720.287 224.499 720.956 224.39 721.673 224.39V224.09V223.79C720.894 223.79 720.159 223.908 719.467 224.146L719.565 224.43ZM721.673 224.09V224.39C722.479 224.39 723.237 224.521 723.951 224.78L724.053 224.498L724.156 224.216C723.373 223.931 722.545 223.79 721.673 223.79V224.09ZM724.053 224.498L723.961 224.783C724.634 225.001 725.192 225.52 725.62 226.398L725.889 226.266L726.159 226.134C725.68 225.153 725.014 224.493 724.146 224.213L724.053 224.498ZM725.889 226.266L725.62 226.399L729.02 233.267L729.289 233.134L729.558 233.001L726.158 226.133L725.889 226.266ZM729.289 233.134L729.019 233.265C729.357 233.964 729.661 234.628 729.931 235.258L730.207 235.14L730.483 235.022C730.209 234.382 729.901 233.71 729.559 233.003L729.289 233.134ZM730.207 235.14L729.933 235.262C730.203 235.868 730.495 236.578 730.812 237.391L731.091 237.282L731.371 237.173C731.052 236.354 730.756 235.636 730.481 235.018L730.207 235.14ZM731.091 237.282L731.15 237.576L731.32 237.542L731.261 237.248L731.202 236.954L731.032 236.988L731.091 237.282ZM731.261 237.248L731.56 237.226C731.47 236.007 731.414 234.789 731.391 233.57L731.091 233.576L730.791 233.582C730.814 234.811 730.871 236.041 730.962 237.27L731.261 237.248ZM731.091 233.576L731.391 233.57C731.369 232.348 731.357 231.126 731.357 229.904H731.057H730.757C730.757 231.13 730.769 232.356 730.791 233.582L731.091 233.576ZM731.057 229.904H731.357V224.396H731.057H730.757V229.904H731.057ZM731.057 224.396L731.136 224.685C731.366 224.623 731.724 224.557 732.22 224.489L732.179 224.192L732.139 223.895C731.637 223.963 731.247 224.033 730.978 224.107L731.057 224.396ZM732.179 224.192L732.218 224.489C732.727 224.423 733.224 224.39 733.709 224.39V224.09V223.79C733.197 223.79 732.674 223.825 732.14 223.895L732.179 224.192ZM733.709 224.09V224.39C734.678 224.39 735.366 224.567 735.816 224.88L735.987 224.634L736.159 224.388C735.566 223.975 734.735 223.79 733.709 223.79V224.09ZM735.987 224.634L735.823 224.885C736.21 225.138 736.469 225.722 736.469 226.81H736.769H737.069C737.069 225.676 736.807 224.81 736.151 224.383L735.987 224.634ZM736.769 226.81H736.469V244.286H736.769H737.069V226.81H736.769ZM761.511 240.75L761.235 240.633L761.234 240.636L761.511 240.75ZM759.709 243.334L759.908 243.559L759.912 243.555L759.709 243.334ZM756.819 244.966L756.916 245.25L756.819 244.966ZM749.135 244.966L749.039 245.25L749.135 244.966ZM746.245 243.334L746.043 243.555L746.046 243.559L746.245 243.334ZM744.409 240.75L744.131 240.861L744.134 240.869L744.409 240.75ZM743.797 224.396L743.744 224.101L743.497 224.146V224.396H743.797ZM744.987 224.226L745.025 224.524L745.037 224.522L744.987 224.226ZM747.911 224.226L747.843 224.518L747.852 224.52L747.862 224.522L747.911 224.226ZM748.931 224.634L749.111 224.394L748.931 224.634ZM749.543 225.484L749.262 225.589V225.589L749.543 225.484ZM750.631 239.832L750.415 240.04L750.419 240.044L750.631 239.832ZM755.323 239.832L755.107 239.624L755.323 239.832ZM756.207 224.396L756.154 224.101L755.907 224.146V224.396H756.207ZM757.397 224.226L757.435 224.524L757.447 224.522L757.397 224.226ZM760.321 224.226L760.253 224.518L760.262 224.52L760.272 224.522L760.321 224.226ZM761.341 224.634L761.161 224.874V224.874L761.341 224.634ZM761.953 225.484L761.672 225.589V225.589L761.953 225.484ZM762.157 237.384H761.857C761.857 238.572 761.649 239.654 761.235 240.633L761.511 240.75L761.788 240.867C762.236 239.806 762.457 238.644 762.457 237.384H762.157ZM761.511 240.75L761.234 240.636C760.842 241.593 760.267 242.417 759.507 243.113L759.709 243.334L759.912 243.555C760.738 242.8 761.364 241.902 761.789 240.864L761.511 240.75ZM759.709 243.334L759.51 243.109C758.751 243.782 757.823 244.308 756.723 244.682L756.819 244.966L756.916 245.25C758.082 244.854 759.082 244.291 759.908 243.559L759.709 243.334ZM756.819 244.966L756.723 244.682C755.626 245.055 754.379 245.244 752.977 245.244V245.544V245.844C754.432 245.844 755.746 245.648 756.916 245.25L756.819 244.966ZM752.977 245.544V245.244C751.576 245.244 750.329 245.055 749.232 244.682L749.135 244.966L749.039 245.25C750.209 245.648 751.523 245.844 752.977 245.844V245.544ZM749.135 244.966L749.232 244.682C748.131 244.308 747.204 243.782 746.444 243.109L746.245 243.334L746.046 243.559C746.873 244.291 747.873 244.854 749.039 245.25L749.135 244.966ZM746.245 243.334L746.448 243.113C745.686 242.416 745.099 241.59 744.685 240.631L744.409 240.75L744.134 240.869C744.581 241.905 745.218 242.801 746.043 243.555L746.245 243.334ZM744.409 240.75L744.688 240.639C744.296 239.658 744.097 238.574 744.097 237.384H743.797H743.497C743.497 238.642 743.707 239.802 744.131 240.861L744.409 240.75ZM743.797 237.384H744.097V224.396H743.797H743.497V237.384H743.797ZM743.797 224.396L743.851 224.691C744.092 224.647 744.481 224.592 745.025 224.524L744.987 224.226L744.95 223.928C744.405 223.996 744.002 224.054 743.744 224.101L743.797 224.396ZM744.987 224.226L745.037 224.522C745.566 224.434 746.071 224.39 746.551 224.39V224.09V223.79C746.035 223.79 745.497 223.837 744.938 223.93L744.987 224.226ZM746.551 224.09V224.39C747.056 224.39 747.486 224.434 747.843 224.518L747.911 224.226L747.98 223.934C747.566 223.837 747.089 223.79 746.551 223.79V224.09ZM747.911 224.226L747.862 224.522C748.233 224.584 748.525 224.704 748.751 224.874L748.931 224.634L749.111 224.394C748.793 224.156 748.406 224.004 747.961 223.93L747.911 224.226ZM748.931 224.634L748.751 224.874C748.971 225.039 749.144 225.273 749.262 225.589L749.543 225.484L749.824 225.379C749.671 224.97 749.435 224.637 749.111 224.394L748.931 224.634ZM749.543 225.484L749.262 225.589C749.381 225.906 749.447 226.342 749.447 226.912H749.747H750.047C750.047 226.304 749.978 225.788 749.824 225.379L749.543 225.484ZM749.747 226.912H749.447V237.282H749.747H750.047V226.912H749.747ZM749.747 237.282H749.447C749.447 238.425 749.758 239.358 750.415 240.04L750.631 239.832L750.847 239.624C750.326 239.082 750.047 238.315 750.047 237.282H749.747ZM750.631 239.832L750.419 240.044C751.093 240.718 751.955 241.05 752.977 241.05V240.75V240.45C752.096 240.45 751.393 240.17 750.844 239.62L750.631 239.832ZM752.977 240.75V241.05C754.02 241.05 754.885 240.72 755.539 240.04L755.323 239.832L755.107 239.624C754.583 240.168 753.884 240.45 752.977 240.45V240.75ZM755.323 239.832L755.539 240.04C756.197 239.358 756.507 238.425 756.507 237.282H756.207H755.907C755.907 238.315 755.629 239.082 755.107 239.624L755.323 239.832ZM756.207 237.282H756.507V224.396H756.207H755.907V237.282H756.207ZM756.207 224.396L756.261 224.691C756.502 224.647 756.891 224.592 757.435 224.524L757.397 224.226L757.36 223.928C756.815 223.996 756.412 224.054 756.154 224.101L756.207 224.396ZM757.397 224.226L757.447 224.522C757.976 224.434 758.481 224.39 758.961 224.39V224.09V223.79C758.445 223.79 757.907 223.837 757.348 223.93L757.397 224.226ZM758.961 224.09V224.39C759.466 224.39 759.896 224.434 760.253 224.518L760.321 224.226L760.39 223.934C759.976 223.837 759.499 223.79 758.961 223.79V224.09ZM760.321 224.226L760.272 224.522C760.643 224.584 760.935 224.704 761.161 224.874L761.341 224.634L761.521 224.394C761.203 224.156 760.816 224.004 760.371 223.93L760.321 224.226ZM761.341 224.634L761.161 224.874C761.381 225.039 761.554 225.273 761.672 225.589L761.953 225.484L762.234 225.379C762.081 224.97 761.845 224.637 761.521 224.394L761.341 224.634ZM761.953 225.484L761.672 225.589C761.791 225.906 761.857 226.342 761.857 226.912H762.157H762.457C762.457 226.304 762.388 225.788 762.234 225.379L761.953 225.484ZM762.157 226.912H761.857V237.384H762.157H762.457V226.912H762.157Z" fill="#66472D" mask="url(#path-9-outside-5_248_138)"/>
<mask id="path-11-outside-6_248_138" maskUnits="userSpaceOnUse" x="666" y="223" width="97" height="23" fill="black">
<rect fill="white" x="666" y="223" width="97" height="23"/>
<path d="M681.188 239.934C680.894 240.183 680.508 240.387 680.032 240.546C679.579 240.682 679.046 240.75 678.434 240.75C677.618 240.75 676.938 240.648 676.394 240.444C675.873 240.24 675.533 239.889 675.374 239.39C674.74 237.395 674.218 235.786 673.81 234.562C673.402 233.315 673.085 232.227 672.858 231.298H672.688C672.62 232.635 672.564 233.859 672.518 234.97C672.496 236.058 672.473 237.123 672.45 238.166C672.45 239.209 672.428 240.263 672.382 241.328C672.36 242.393 672.314 243.572 672.246 244.864C671.952 244.977 671.566 245.068 671.09 245.136C670.614 245.227 670.138 245.272 669.662 245.272C668.665 245.272 667.883 245.113 667.316 244.796C666.772 244.479 666.5 243.901 666.5 243.062L667.486 225.722C667.668 225.427 668.064 225.11 668.676 224.77C669.288 224.43 670.15 224.26 671.26 224.26C672.462 224.26 673.402 224.453 674.082 224.838C674.762 225.201 675.261 225.801 675.578 226.64C675.782 227.184 675.998 227.807 676.224 228.51C676.474 229.213 676.712 229.938 676.938 230.686C677.188 231.434 677.426 232.182 677.652 232.93C677.879 233.655 678.083 234.313 678.264 234.902H678.434C678.978 232.998 679.522 231.162 680.066 229.394C680.61 227.603 681.109 226.107 681.562 224.906C681.902 224.725 682.333 224.577 682.854 224.464C683.398 224.328 683.999 224.26 684.656 224.26C685.767 224.26 686.674 224.43 687.376 224.77C688.079 225.087 688.487 225.552 688.6 226.164C688.691 226.617 688.782 227.32 688.872 228.272C688.986 229.201 689.099 230.255 689.212 231.434C689.326 232.613 689.439 233.859 689.552 235.174C689.666 236.489 689.768 237.758 689.858 238.982C689.972 240.183 690.062 241.294 690.13 242.314C690.198 243.311 690.244 244.082 690.266 244.626C689.881 244.853 689.473 245.011 689.042 245.102C688.634 245.215 688.102 245.272 687.444 245.272C686.583 245.272 685.858 245.125 685.268 244.83C684.679 244.535 684.362 243.957 684.316 243.096C684.18 240.625 684.09 238.404 684.044 236.432C684.022 234.46 683.976 232.805 683.908 231.468H683.738C683.512 232.352 683.183 233.463 682.752 234.8C682.322 236.137 681.8 237.849 681.188 239.934ZM696.756 227.558C696.756 226.583 697.04 225.813 697.606 225.246C698.173 224.679 698.944 224.396 699.918 224.396H711.138C711.297 224.645 711.433 224.974 711.546 225.382C711.682 225.79 711.75 226.221 711.75 226.674C711.75 227.535 711.558 228.147 711.172 228.51C710.81 228.873 710.322 229.054 709.71 229.054H702.536V232.216H710.186C710.345 232.465 710.481 232.794 710.594 233.202C710.73 233.587 710.798 234.007 710.798 234.46C710.798 235.321 710.617 235.933 710.254 236.296C709.892 236.659 709.404 236.84 708.792 236.84H702.536V240.41H711.274C711.433 240.659 711.569 240.988 711.682 241.396C711.818 241.804 711.886 242.235 711.886 242.688C711.886 243.549 711.694 244.173 711.308 244.558C710.946 244.921 710.458 245.102 709.846 245.102H699.918C698.944 245.102 698.173 244.819 697.606 244.252C697.04 243.685 696.756 242.915 696.756 241.94V227.558ZM736.769 244.286C736.452 244.603 735.987 244.841 735.375 245C734.786 245.181 734.072 245.272 733.233 245.272C732.395 245.272 731.601 245.147 730.853 244.898C730.105 244.649 729.493 244.048 729.017 243.096L725.651 236.228C725.311 235.525 725.005 234.868 724.733 234.256C724.461 233.621 724.167 232.896 723.849 232.08L723.645 232.114C723.736 233.338 723.781 234.585 723.781 235.854C723.804 237.123 723.815 238.37 723.815 239.594V244.864C723.566 244.932 723.181 245 722.659 245.068C722.161 245.136 721.662 245.17 721.163 245.17C720.665 245.17 720.223 245.136 719.837 245.068C719.452 245 719.135 244.864 718.885 244.66C718.636 244.456 718.443 244.184 718.307 243.844C718.171 243.481 718.103 243.017 718.103 242.45V225.45C718.421 224.997 718.908 224.657 719.565 224.43C720.223 224.203 720.925 224.09 721.673 224.09C722.512 224.09 723.305 224.226 724.053 224.498C724.824 224.747 725.436 225.337 725.889 226.266L729.289 233.134C729.629 233.837 729.935 234.505 730.207 235.14C730.479 235.752 730.774 236.466 731.091 237.282L731.261 237.248C731.171 236.024 731.114 234.8 731.091 233.576C731.069 232.352 731.057 231.128 731.057 229.904V224.396C731.307 224.328 731.681 224.26 732.179 224.192C732.701 224.124 733.211 224.09 733.709 224.09C734.707 224.09 735.466 224.271 735.987 224.634C736.509 224.974 736.769 225.699 736.769 226.81V244.286ZM762.157 237.384C762.157 238.608 761.942 239.73 761.511 240.75C761.103 241.747 760.503 242.609 759.709 243.334C758.916 244.037 757.953 244.581 756.819 244.966C755.686 245.351 754.405 245.544 752.977 245.544C751.549 245.544 750.269 245.351 749.135 244.966C748.002 244.581 747.039 244.037 746.245 243.334C745.452 242.609 744.84 241.747 744.409 240.75C744.001 239.73 743.797 238.608 743.797 237.384V224.396C744.047 224.351 744.443 224.294 744.987 224.226C745.531 224.135 746.053 224.09 746.551 224.09C747.073 224.09 747.526 224.135 747.911 224.226C748.319 224.294 748.659 224.43 748.931 224.634C749.203 224.838 749.407 225.121 749.543 225.484C749.679 225.847 749.747 226.323 749.747 226.912V237.282C749.747 238.37 750.042 239.22 750.631 239.832C751.243 240.444 752.025 240.75 752.977 240.75C753.952 240.75 754.734 240.444 755.323 239.832C755.913 239.22 756.207 238.37 756.207 237.282V224.396C756.457 224.351 756.853 224.294 757.397 224.226C757.941 224.135 758.463 224.09 758.961 224.09C759.483 224.09 759.936 224.135 760.321 224.226C760.729 224.294 761.069 224.43 761.341 224.634C761.613 224.838 761.817 225.121 761.953 225.484C762.089 225.847 762.157 226.323 762.157 226.912V237.384Z"/>
</mask>
<path d="M681.188 239.934C680.894 240.183 680.508 240.387 680.032 240.546C679.579 240.682 679.046 240.75 678.434 240.75C677.618 240.75 676.938 240.648 676.394 240.444C675.873 240.24 675.533 239.889 675.374 239.39C674.74 237.395 674.218 235.786 673.81 234.562C673.402 233.315 673.085 232.227 672.858 231.298H672.688C672.62 232.635 672.564 233.859 672.518 234.97C672.496 236.058 672.473 237.123 672.45 238.166C672.45 239.209 672.428 240.263 672.382 241.328C672.36 242.393 672.314 243.572 672.246 244.864C671.952 244.977 671.566 245.068 671.09 245.136C670.614 245.227 670.138 245.272 669.662 245.272C668.665 245.272 667.883 245.113 667.316 244.796C666.772 244.479 666.5 243.901 666.5 243.062L667.486 225.722C667.668 225.427 668.064 225.11 668.676 224.77C669.288 224.43 670.15 224.26 671.26 224.26C672.462 224.26 673.402 224.453 674.082 224.838C674.762 225.201 675.261 225.801 675.578 226.64C675.782 227.184 675.998 227.807 676.224 228.51C676.474 229.213 676.712 229.938 676.938 230.686C677.188 231.434 677.426 232.182 677.652 232.93C677.879 233.655 678.083 234.313 678.264 234.902H678.434C678.978 232.998 679.522 231.162 680.066 229.394C680.61 227.603 681.109 226.107 681.562 224.906C681.902 224.725 682.333 224.577 682.854 224.464C683.398 224.328 683.999 224.26 684.656 224.26C685.767 224.26 686.674 224.43 687.376 224.77C688.079 225.087 688.487 225.552 688.6 226.164C688.691 226.617 688.782 227.32 688.872 228.272C688.986 229.201 689.099 230.255 689.212 231.434C689.326 232.613 689.439 233.859 689.552 235.174C689.666 236.489 689.768 237.758 689.858 238.982C689.972 240.183 690.062 241.294 690.13 242.314C690.198 243.311 690.244 244.082 690.266 244.626C689.881 244.853 689.473 245.011 689.042 245.102C688.634 245.215 688.102 245.272 687.444 245.272C686.583 245.272 685.858 245.125 685.268 244.83C684.679 244.535 684.362 243.957 684.316 243.096C684.18 240.625 684.09 238.404 684.044 236.432C684.022 234.46 683.976 232.805 683.908 231.468H683.738C683.512 232.352 683.183 233.463 682.752 234.8C682.322 236.137 681.8 237.849 681.188 239.934ZM696.756 227.558C696.756 226.583 697.04 225.813 697.606 225.246C698.173 224.679 698.944 224.396 699.918 224.396H711.138C711.297 224.645 711.433 224.974 711.546 225.382C711.682 225.79 711.75 226.221 711.75 226.674C711.75 227.535 711.558 228.147 711.172 228.51C710.81 228.873 710.322 229.054 709.71 229.054H702.536V232.216H710.186C710.345 232.465 710.481 232.794 710.594 233.202C710.73 233.587 710.798 234.007 710.798 234.46C710.798 235.321 710.617 235.933 710.254 236.296C709.892 236.659 709.404 236.84 708.792 236.84H702.536V240.41H711.274C711.433 240.659 711.569 240.988 711.682 241.396C711.818 241.804 711.886 242.235 711.886 242.688C711.886 243.549 711.694 244.173 711.308 244.558C710.946 244.921 710.458 245.102 709.846 245.102H699.918C698.944 245.102 698.173 244.819 697.606 244.252C697.04 243.685 696.756 242.915 696.756 241.94V227.558ZM736.769 244.286C736.452 244.603 735.987 244.841 735.375 245C734.786 245.181 734.072 245.272 733.233 245.272C732.395 245.272 731.601 245.147 730.853 244.898C730.105 244.649 729.493 244.048 729.017 243.096L725.651 236.228C725.311 235.525 725.005 234.868 724.733 234.256C724.461 233.621 724.167 232.896 723.849 232.08L723.645 232.114C723.736 233.338 723.781 234.585 723.781 235.854C723.804 237.123 723.815 238.37 723.815 239.594V244.864C723.566 244.932 723.181 245 722.659 245.068C722.161 245.136 721.662 245.17 721.163 245.17C720.665 245.17 720.223 245.136 719.837 245.068C719.452 245 719.135 244.864 718.885 244.66C718.636 244.456 718.443 244.184 718.307 243.844C718.171 243.481 718.103 243.017 718.103 242.45V225.45C718.421 224.997 718.908 224.657 719.565 224.43C720.223 224.203 720.925 224.09 721.673 224.09C722.512 224.09 723.305 224.226 724.053 224.498C724.824 224.747 725.436 225.337 725.889 226.266L729.289 233.134C729.629 233.837 729.935 234.505 730.207 235.14C730.479 235.752 730.774 236.466 731.091 237.282L731.261 237.248C731.171 236.024 731.114 234.8 731.091 233.576C731.069 232.352 731.057 231.128 731.057 229.904V224.396C731.307 224.328 731.681 224.26 732.179 224.192C732.701 224.124 733.211 224.09 733.709 224.09C734.707 224.09 735.466 224.271 735.987 224.634C736.509 224.974 736.769 225.699 736.769 226.81V244.286ZM762.157 237.384C762.157 238.608 761.942 239.73 761.511 240.75C761.103 241.747 760.503 242.609 759.709 243.334C758.916 244.037 757.953 244.581 756.819 244.966C755.686 245.351 754.405 245.544 752.977 245.544C751.549 245.544 750.269 245.351 749.135 244.966C748.002 244.581 747.039 244.037 746.245 243.334C745.452 242.609 744.84 241.747 744.409 240.75C744.001 239.73 743.797 238.608 743.797 237.384V224.396C744.047 224.351 744.443 224.294 744.987 224.226C745.531 224.135 746.053 224.09 746.551 224.09C747.073 224.09 747.526 224.135 747.911 224.226C748.319 224.294 748.659 224.43 748.931 224.634C749.203 224.838 749.407 225.121 749.543 225.484C749.679 225.847 749.747 226.323 749.747 226.912V237.282C749.747 238.37 750.042 239.22 750.631 239.832C751.243 240.444 752.025 240.75 752.977 240.75C753.952 240.75 754.734 240.444 755.323 239.832C755.913 239.22 756.207 238.37 756.207 237.282V224.396C756.457 224.351 756.853 224.294 757.397 224.226C757.941 224.135 758.463 224.09 758.961 224.09C759.483 224.09 759.936 224.135 760.321 224.226C760.729 224.294 761.069 224.43 761.341 224.634C761.613 224.838 761.817 225.121 761.953 225.484C762.089 225.847 762.157 226.323 762.157 226.912V237.384Z" fill="#FEC8BA"/>
<path d="M681.188 239.934L681.382 240.163L681.451 240.105L681.476 240.018L681.188 239.934ZM680.032 240.546L680.119 240.833L680.127 240.831L680.032 240.546ZM676.394 240.444L676.285 240.723L676.289 240.725L676.394 240.444ZM675.374 239.39L675.089 239.481L675.374 239.39ZM673.81 234.562L673.525 234.655L673.526 234.657L673.81 234.562ZM672.858 231.298L673.15 231.227L673.094 230.998H672.858V231.298ZM672.688 231.298V230.998H672.403L672.389 231.283L672.688 231.298ZM672.518 234.97L672.219 234.958L672.219 234.964L672.518 234.97ZM672.45 238.166L672.15 238.159V238.166H672.45ZM672.382 241.328L672.083 241.315L672.083 241.322L672.382 241.328ZM672.246 244.864L672.354 245.144L672.536 245.074L672.546 244.88L672.246 244.864ZM671.09 245.136L671.048 244.839L671.034 244.841L671.09 245.136ZM667.316 244.796L667.165 245.055L667.17 245.058L667.316 244.796ZM666.5 243.062L666.201 243.045L666.2 243.053V243.062H666.5ZM667.486 225.722L667.231 225.565L667.191 225.629L667.187 225.705L667.486 225.722ZM668.676 224.77L668.822 225.032L668.676 224.77ZM674.082 224.838L673.935 225.099L673.941 225.103L674.082 224.838ZM675.578 226.64L675.859 226.535L675.859 226.534L675.578 226.64ZM676.224 228.51L675.939 228.602L675.942 228.61L676.224 228.51ZM676.938 230.686L676.651 230.773L676.654 230.781L676.938 230.686ZM677.652 232.93L677.365 233.017L677.366 233.019L677.652 232.93ZM678.264 234.902L677.978 234.99L678.043 235.202H678.264V234.902ZM678.434 234.902V235.202H678.661L678.723 234.984L678.434 234.902ZM680.066 229.394L680.353 229.482L680.354 229.481L680.066 229.394ZM681.562 224.906L681.421 224.641L681.322 224.694L681.282 224.8L681.562 224.906ZM682.854 224.464L682.918 224.757L682.927 224.755L682.854 224.464ZM687.376 224.77L687.246 225.04L687.253 225.043L687.376 224.77ZM688.6 226.164L688.305 226.219L688.306 226.223L688.6 226.164ZM688.872 228.272L688.574 228.3L688.575 228.308L688.872 228.272ZM689.858 238.982L689.559 239.004L689.56 239.01L689.858 238.982ZM690.13 242.314L689.831 242.334L689.831 242.334L690.13 242.314ZM690.267 244.626L690.419 244.885L690.574 244.793L690.566 244.614L690.267 244.626ZM689.042 245.102L688.981 244.808L688.971 244.81L688.962 244.813L689.042 245.102ZM684.316 243.096L684.616 243.08L684.616 243.08L684.316 243.096ZM684.044 236.432L683.744 236.435L683.745 236.439L684.044 236.432ZM683.908 231.468L684.208 231.453L684.194 231.168H683.908V231.468ZM683.738 231.468V231.168H683.506L683.448 231.393L683.738 231.468ZM682.752 234.8L683.038 234.892L682.752 234.8ZM681.188 239.934L680.995 239.705C680.736 239.923 680.388 240.111 679.938 240.261L680.032 240.546L680.127 240.831C680.629 240.663 681.051 240.443 681.382 240.163L681.188 239.934ZM680.032 240.546L679.946 240.259C679.528 240.384 679.025 240.45 678.434 240.45V240.75V241.05C679.068 241.05 679.631 240.98 680.119 240.833L680.032 240.546ZM678.434 240.75V240.45C677.641 240.45 677 240.35 676.5 240.163L676.394 240.444L676.289 240.725C676.877 240.946 677.596 241.05 678.434 241.05V240.75ZM676.394 240.444L676.504 240.165C676.06 239.991 675.789 239.705 675.66 239.299L675.374 239.39L675.089 239.481C675.277 240.073 675.686 240.489 676.285 240.723L676.394 240.444ZM675.374 239.39L675.66 239.299C675.026 237.304 674.504 235.693 674.095 234.467L673.81 234.562L673.526 234.657C673.933 235.879 674.454 237.487 675.089 239.481L675.374 239.39ZM673.81 234.562L674.096 234.469C673.689 233.227 673.374 232.147 673.15 231.227L672.858 231.298L672.567 231.369C672.796 232.308 673.116 233.404 673.525 234.655L673.81 234.562ZM672.858 231.298V230.998H672.688V231.298V231.598H672.858V231.298ZM672.688 231.298L672.389 231.283C672.321 232.621 672.264 233.846 672.219 234.958L672.518 234.97L672.818 234.982C672.864 233.873 672.92 232.65 672.988 231.313L672.688 231.298ZM672.518 234.97L672.219 234.964C672.196 236.052 672.173 237.117 672.151 238.159L672.45 238.166L672.75 238.173C672.773 237.13 672.796 236.064 672.818 234.976L672.518 234.97ZM672.45 238.166H672.15C672.15 239.204 672.128 240.254 672.083 241.315L672.382 241.328L672.682 241.341C672.728 240.271 672.75 239.213 672.75 238.166H672.45ZM672.382 241.328L672.083 241.322C672.06 242.383 672.015 243.559 671.947 244.848L672.246 244.864L672.546 244.88C672.614 243.585 672.66 242.403 672.682 241.334L672.382 241.328ZM672.246 244.864L672.139 244.584C671.873 244.686 671.512 244.773 671.048 244.839L671.09 245.136L671.133 245.433C671.621 245.363 672.031 245.268 672.354 245.144L672.246 244.864ZM671.09 245.136L671.034 244.841C670.577 244.929 670.119 244.972 669.662 244.972V245.272V245.572C670.158 245.572 670.652 245.525 671.147 245.431L671.09 245.136ZM669.662 245.272V244.972C668.691 244.972 667.967 244.817 667.463 244.534L667.316 244.796L667.17 245.058C667.799 245.41 668.639 245.572 669.662 245.572V245.272ZM667.316 244.796L667.468 244.537C667.046 244.291 666.8 243.834 666.8 243.062H666.5H666.2C666.2 243.967 666.499 244.666 667.165 245.055L667.316 244.796ZM666.5 243.062L666.8 243.079L667.786 225.739L667.486 225.722L667.187 225.705L666.201 243.045L666.5 243.062ZM667.486 225.722L667.742 225.879C667.88 225.654 668.218 225.368 668.822 225.032L668.676 224.77L668.531 224.508C667.911 224.852 667.455 225.2 667.231 225.565L667.486 225.722ZM668.676 224.77L668.822 225.032C669.371 224.727 670.174 224.56 671.26 224.56V224.26V223.96C670.126 223.96 669.206 224.133 668.531 224.508L668.676 224.77ZM671.26 224.26V224.56C672.435 224.56 673.318 224.749 673.935 225.099L674.082 224.838L674.23 224.577C673.487 224.156 672.488 223.96 671.26 223.96V224.26ZM674.082 224.838L673.941 225.103C674.547 225.426 675.002 225.964 675.298 226.746L675.578 226.64L675.859 226.534C675.52 225.639 674.978 224.976 674.224 224.573L674.082 224.838ZM675.578 226.64L675.298 226.745C675.5 227.284 675.713 227.903 675.939 228.602L676.224 228.51L676.51 228.418C676.282 227.712 676.065 227.084 675.859 226.535L675.578 226.64ZM676.224 228.51L675.942 228.61C676.189 229.308 676.426 230.029 676.651 230.773L676.938 230.686L677.226 230.599C676.998 229.847 676.758 229.117 676.507 228.41L676.224 228.51ZM676.938 230.686L676.654 230.781C676.902 231.526 677.14 232.272 677.365 233.017L677.652 232.93L677.94 232.843C677.712 232.092 677.473 231.342 677.223 230.591L676.938 230.686ZM677.652 232.93L677.366 233.019C677.593 233.744 677.797 234.401 677.978 234.99L678.264 234.902L678.551 234.814C678.37 234.224 678.166 233.566 677.939 232.841L677.652 232.93ZM678.264 234.902V235.202H678.434V234.902V234.602H678.264V234.902ZM678.434 234.902L678.723 234.984C679.266 233.082 679.81 231.248 680.353 229.482L680.066 229.394L679.78 229.306C679.235 231.076 678.691 232.914 678.146 234.82L678.434 234.902ZM680.066 229.394L680.354 229.481C680.896 227.694 681.393 226.205 681.843 225.012L681.562 224.906L681.282 224.8C680.825 226.01 680.325 227.512 679.779 229.307L680.066 229.394ZM681.562 224.906L681.704 225.171C682.012 225.006 682.414 224.867 682.918 224.757L682.854 224.464L682.791 224.171C682.252 224.288 681.793 224.443 681.421 224.641L681.562 224.906ZM682.854 224.464L682.927 224.755C683.444 224.626 684.02 224.56 684.656 224.56V224.26V223.96C683.979 223.96 683.353 224.03 682.782 224.173L682.854 224.464ZM684.656 224.26V224.56C685.74 224.56 686.597 224.726 687.246 225.04L687.376 224.77L687.507 224.5C686.75 224.134 685.795 223.96 684.656 223.96V224.26ZM687.376 224.77L687.253 225.043C687.89 225.331 688.214 225.727 688.306 226.219L688.6 226.164L688.895 226.109C688.76 225.377 688.268 224.843 687.5 224.497L687.376 224.77ZM688.6 226.164L688.306 226.223C688.394 226.66 688.483 227.35 688.574 228.3L688.872 228.272L689.171 228.244C689.08 227.29 688.989 226.574 688.895 226.105L688.6 226.164ZM688.872 228.272L688.575 228.308C688.688 229.235 688.801 230.286 688.914 231.463L689.212 231.434L689.511 231.405C689.398 230.225 689.284 229.168 689.17 228.236L688.872 228.272ZM689.212 231.434L688.914 231.463C689.027 232.64 689.14 233.886 689.254 235.2L689.552 235.174L689.851 235.148C689.738 233.833 689.625 232.585 689.511 231.405L689.212 231.434ZM689.552 235.174L689.254 235.2C689.367 236.513 689.469 237.781 689.559 239.004L689.858 238.982L690.158 238.96C690.067 237.735 689.965 236.464 689.851 235.148L689.552 235.174ZM689.858 238.982L689.56 239.01C689.673 240.209 689.763 241.317 689.831 242.334L690.13 242.314L690.43 242.294C690.362 241.271 690.271 240.157 690.157 238.954L689.858 238.982ZM690.13 242.314L689.831 242.334C689.899 243.331 689.944 244.098 689.967 244.638L690.267 244.626L690.566 244.614C690.543 244.066 690.498 243.292 690.43 242.294L690.13 242.314ZM690.267 244.626L690.114 244.367C689.757 244.578 689.379 244.725 688.981 244.808L689.042 245.102L689.104 245.396C689.567 245.298 690.006 245.127 690.419 244.885L690.267 244.626ZM689.042 245.102L688.962 244.813C688.591 244.916 688.088 244.972 687.444 244.972V245.272V245.572C688.116 245.572 688.678 245.514 689.123 245.391L689.042 245.102ZM687.444 245.272V244.972C686.616 244.972 685.94 244.83 685.403 244.562L685.268 244.83L685.134 245.098C685.776 245.419 686.55 245.572 687.444 245.572V245.272ZM685.268 244.83L685.403 244.562C684.94 244.33 684.658 243.872 684.616 243.08L684.316 243.096L684.017 243.112C684.066 244.043 684.418 244.74 685.134 245.098L685.268 244.83ZM684.316 243.096L684.616 243.08C684.48 240.611 684.39 238.393 684.344 236.425L684.044 236.432L683.745 236.439C683.79 238.415 683.881 240.639 684.017 243.112L684.316 243.096ZM684.044 236.432L684.344 236.429C684.322 234.454 684.276 232.795 684.208 231.453L683.908 231.468L683.609 231.483C683.677 232.815 683.722 234.466 683.745 236.435L684.044 236.432ZM683.908 231.468V231.168H683.738V231.468V231.768H683.908V231.468ZM683.738 231.468L683.448 231.393C683.223 232.269 682.897 233.374 682.467 234.708L682.752 234.8L683.038 234.892C683.47 233.552 683.8 232.435 684.029 231.543L683.738 231.468ZM682.752 234.8L682.467 234.708C682.035 236.049 681.513 237.763 680.901 239.85L681.188 239.934L681.476 240.018C682.088 237.934 682.608 236.226 683.038 234.892L682.752 234.8ZM711.138 224.396L711.391 224.235L711.303 224.096H711.138V224.396ZM711.546 225.382L711.257 225.462L711.259 225.47L711.262 225.477L711.546 225.382ZM711.172 228.51L710.967 228.291L710.96 228.298L711.172 228.51ZM702.536 229.054V228.754H702.236V229.054H702.536ZM702.536 232.216H702.236V232.516H702.536V232.216ZM710.186 232.216L710.439 232.055L710.351 231.916H710.186V232.216ZM710.594 233.202L710.305 233.282L710.308 233.292L710.311 233.302L710.594 233.202ZM702.536 236.84V236.54H702.236V236.84H702.536ZM702.536 240.41H702.236V240.71H702.536V240.41ZM711.274 240.41L711.527 240.249L711.439 240.11H711.274V240.41ZM711.682 241.396L711.393 241.476L711.395 241.484L711.398 241.491L711.682 241.396ZM711.308 244.558L711.096 244.346L711.308 244.558ZM697.606 244.252L697.818 244.04L697.606 244.252ZM696.756 227.558H697.056C697.056 226.645 697.32 225.957 697.818 225.458L697.606 225.246L697.394 225.034C696.759 225.669 696.456 226.522 696.456 227.558H696.756ZM697.606 225.246L697.818 225.458C698.317 224.959 699.005 224.696 699.918 224.696V224.396V224.096C698.882 224.096 698.029 224.399 697.394 225.034L697.606 225.246ZM699.918 224.396V224.696H711.138V224.396V224.096H699.918V224.396ZM711.138 224.396L710.885 224.557C711.023 224.773 711.149 225.072 711.257 225.462L711.546 225.382L711.835 225.302C711.717 224.876 711.571 224.518 711.391 224.235L711.138 224.396ZM711.546 225.382L711.262 225.477C711.387 225.853 711.45 226.251 711.45 226.674H711.75H712.05C712.05 226.19 711.978 225.727 711.831 225.287L711.546 225.382ZM711.75 226.674H711.45C711.45 227.503 711.263 228.013 710.967 228.292L711.172 228.51L711.378 228.728C711.852 228.282 712.05 227.568 712.05 226.674H711.75ZM711.172 228.51L710.96 228.298C710.664 228.594 710.259 228.754 709.71 228.754V229.054V229.354C710.385 229.354 710.955 229.152 711.384 228.722L711.172 228.51ZM709.71 229.054V228.754H702.536V229.054V229.354H709.71V229.054ZM702.536 229.054H702.236V232.216H702.536H702.836V229.054H702.536ZM702.536 232.216V232.516H710.186V232.216V231.916H702.536V232.216ZM710.186 232.216L709.933 232.377C710.071 232.593 710.197 232.892 710.305 233.282L710.594 233.202L710.883 233.122C710.765 232.696 710.619 232.338 710.439 232.055L710.186 232.216ZM710.594 233.202L710.311 233.302C710.435 233.652 710.498 234.037 710.498 234.46H710.798H711.098C711.098 233.976 711.026 233.523 710.877 233.102L710.594 233.202ZM710.798 234.46H710.498C710.498 235.293 710.321 235.805 710.042 236.084L710.254 236.296L710.466 236.508C710.913 236.061 711.098 235.35 711.098 234.46H710.798ZM710.254 236.296L710.042 236.084C709.746 236.38 709.341 236.54 708.792 236.54V236.84V237.14C709.467 237.14 710.037 236.938 710.466 236.508L710.254 236.296ZM708.792 236.84V236.54H702.536V236.84V237.14H708.792V236.84ZM702.536 236.84H702.236V240.41H702.536H702.836V236.84H702.536ZM702.536 240.41V240.71H711.274V240.41V240.11H702.536V240.41ZM711.274 240.41L711.021 240.571C711.159 240.787 711.285 241.086 711.393 241.476L711.682 241.396L711.971 241.316C711.853 240.89 711.707 240.532 711.527 240.249L711.274 240.41ZM711.682 241.396L711.398 241.491C711.523 241.867 711.586 242.265 711.586 242.688H711.886H712.186C712.186 242.204 712.114 241.741 711.967 241.301L711.682 241.396ZM711.886 242.688H711.586C711.586 243.514 711.4 244.042 711.096 244.346L711.308 244.558L711.52 244.77C711.987 244.303 712.186 243.584 712.186 242.688H711.886ZM711.308 244.558L711.096 244.346C710.8 244.642 710.395 244.802 709.846 244.802V245.102V245.402C710.521 245.402 711.091 245.2 711.52 244.77L711.308 244.558ZM709.846 245.102V244.802H699.918V245.102V245.402H709.846V245.102ZM699.918 245.102V244.802C699.005 244.802 698.317 244.539 697.818 244.04L697.606 244.252L697.394 244.464C698.029 245.099 698.882 245.402 699.918 245.402V245.102ZM697.606 244.252L697.818 244.04C697.32 243.541 697.056 242.853 697.056 241.94H696.756H696.456C696.456 242.976 696.759 243.829 697.394 244.464L697.606 244.252ZM696.756 241.94H697.056V227.558H696.756H696.456V241.94H696.756ZM736.769 244.286L736.981 244.498L737.069 244.41V244.286H736.769ZM735.375 245L735.3 244.709L735.287 244.713L735.375 245ZM730.853 244.898L730.948 244.613L730.853 244.898ZM729.017 243.096L728.748 243.228L728.749 243.23L729.017 243.096ZM725.651 236.228L725.381 236.359L725.382 236.36L725.651 236.228ZM724.733 234.256L724.457 234.374L724.459 234.378L724.733 234.256ZM723.849 232.08L724.129 231.971L724.04 231.744L723.8 231.784L723.849 232.08ZM723.645 232.114L723.596 231.818L723.326 231.863L723.346 232.136L723.645 232.114ZM723.781 235.854H723.481L723.481 235.859L723.781 235.854ZM723.815 244.864L723.894 245.153L724.115 245.093V244.864H723.815ZM722.659 245.068L722.62 244.771L722.619 244.771L722.659 245.068ZM719.837 245.068L719.889 244.773L719.837 245.068ZM718.885 244.66L719.075 244.428L718.885 244.66ZM718.307 243.844L718.026 243.949L718.029 243.955L718.307 243.844ZM718.103 225.45L717.857 225.278L717.803 225.355V225.45H718.103ZM719.565 224.43L719.467 224.146L719.565 224.43ZM724.053 224.498L723.951 224.78L723.961 224.783L724.053 224.498ZM725.889 226.266L725.62 226.398L725.62 226.399L725.889 226.266ZM729.289 233.134L729.559 233.003L729.558 233.001L729.289 233.134ZM730.207 235.14L729.931 235.258L729.933 235.262L730.207 235.14ZM731.091 237.282L730.812 237.391L730.903 237.626L731.15 237.576L731.091 237.282ZM731.261 237.248L731.32 237.542L731.58 237.49L731.56 237.226L731.261 237.248ZM731.091 233.576L731.391 233.57V233.57L731.091 233.576ZM731.057 224.396L730.978 224.107L730.757 224.167V224.396H731.057ZM732.179 224.192L732.14 223.895L732.139 223.895L732.179 224.192ZM735.987 224.634L735.816 224.88L735.823 224.885L735.987 224.634ZM736.769 244.286L736.557 244.074C736.29 244.341 735.88 244.559 735.3 244.71L735.375 245L735.45 245.29C736.094 245.124 736.614 244.866 736.981 244.498L736.769 244.286ZM735.375 245L735.287 244.713C734.734 244.883 734.052 244.972 733.233 244.972V245.272V245.572C734.092 245.572 734.837 245.479 735.463 245.287L735.375 245ZM733.233 245.272V244.972C732.425 244.972 731.664 244.852 730.948 244.613L730.853 244.898L730.758 245.183C731.539 245.443 732.364 245.572 733.233 245.572V245.272ZM730.853 244.898L730.948 244.613C730.299 244.397 729.739 243.868 729.286 242.962L729.017 243.096L728.749 243.23C729.248 244.228 729.911 244.9 730.758 245.183L730.853 244.898ZM729.017 243.096L729.287 242.964L725.921 236.096L725.651 236.228L725.382 236.36L728.748 243.228L729.017 243.096ZM725.651 236.228L725.921 236.097C725.582 235.397 725.278 234.743 725.007 234.134L724.733 234.256L724.459 234.378C724.733 234.993 725.04 235.654 725.381 236.359L725.651 236.228ZM724.733 234.256L725.009 234.138C724.739 233.507 724.445 232.785 724.129 231.971L723.849 232.08L723.57 232.189C723.888 233.007 724.184 233.736 724.457 234.374L724.733 234.256ZM723.849 232.08L723.8 231.784L723.596 231.818L723.645 232.114L723.695 232.41L723.899 232.376L723.849 232.08ZM723.645 232.114L723.346 232.136C723.436 233.353 723.481 234.592 723.481 235.854H723.781H724.081C724.081 234.578 724.036 233.323 723.944 232.092L723.645 232.114ZM723.781 235.854L723.481 235.859C723.504 237.127 723.515 238.372 723.515 239.594H723.815H724.115C724.115 238.368 724.104 237.12 724.081 235.849L723.781 235.854ZM723.815 239.594H723.515V244.864H723.815H724.115V239.594H723.815ZM723.815 244.864L723.736 244.575C723.508 244.637 723.139 244.703 722.62 244.771L722.659 245.068L722.698 245.365C723.222 245.297 723.624 245.227 723.894 245.153L723.815 244.864ZM722.659 245.068L722.619 244.771C722.133 244.837 721.648 244.87 721.163 244.87V245.17V245.47C721.676 245.47 722.188 245.435 722.7 245.365L722.659 245.068ZM721.163 245.17V244.87C720.678 244.87 720.254 244.837 719.889 244.773L719.837 245.068L719.785 245.363C720.192 245.435 720.652 245.47 721.163 245.47V245.17ZM719.837 245.068L719.889 244.773C719.544 244.712 719.277 244.593 719.075 244.428L718.885 244.66L718.695 244.892C718.992 245.135 719.36 245.288 719.785 245.363L719.837 245.068ZM718.885 244.66L719.075 244.428C718.87 244.26 718.706 244.032 718.586 243.733L718.307 243.844L718.029 243.955C718.181 244.336 718.402 244.652 718.695 244.892L718.885 244.66ZM718.307 243.844L718.588 243.739C718.469 243.421 718.403 242.996 718.403 242.45H718.103H717.803C717.803 243.037 717.873 243.541 718.026 243.949L718.307 243.844ZM718.103 242.45H718.403V225.45H718.103H717.803V242.45H718.103ZM718.103 225.45L718.349 225.622C718.622 225.233 719.05 224.925 719.663 224.714L719.565 224.43L719.467 224.146C718.766 224.388 718.219 224.761 717.857 225.278L718.103 225.45ZM719.565 224.43L719.663 224.714C720.287 224.499 720.956 224.39 721.673 224.39V224.09V223.79C720.894 223.79 720.159 223.908 719.467 224.146L719.565 224.43ZM721.673 224.09V224.39C722.479 224.39 723.237 224.521 723.951 224.78L724.053 224.498L724.156 224.216C723.373 223.931 722.545 223.79 721.673 223.79V224.09ZM724.053 224.498L723.961 224.783C724.634 225.001 725.192 225.52 725.62 226.398L725.889 226.266L726.159 226.134C725.68 225.153 725.014 224.493 724.146 224.213L724.053 224.498ZM725.889 226.266L725.62 226.399L729.02 233.267L729.289 233.134L729.558 233.001L726.158 226.133L725.889 226.266ZM729.289 233.134L729.019 233.265C729.357 233.964 729.661 234.628 729.931 235.258L730.207 235.14L730.483 235.022C730.209 234.382 729.901 233.71 729.559 233.003L729.289 233.134ZM730.207 235.14L729.933 235.262C730.203 235.868 730.495 236.578 730.812 237.391L731.091 237.282L731.371 237.173C731.052 236.354 730.756 235.636 730.481 235.018L730.207 235.14ZM731.091 237.282L731.15 237.576L731.32 237.542L731.261 237.248L731.202 236.954L731.032 236.988L731.091 237.282ZM731.261 237.248L731.56 237.226C731.47 236.007 731.414 234.789 731.391 233.57L731.091 233.576L730.791 233.582C730.814 234.811 730.871 236.041 730.962 237.27L731.261 237.248ZM731.091 233.576L731.391 233.57C731.369 232.348 731.357 231.126 731.357 229.904H731.057H730.757C730.757 231.13 730.769 232.356 730.791 233.582L731.091 233.576ZM731.057 229.904H731.357V224.396H731.057H730.757V229.904H731.057ZM731.057 224.396L731.136 224.685C731.366 224.623 731.724 224.557 732.22 224.489L732.179 224.192L732.139 223.895C731.637 223.963 731.247 224.033 730.978 224.107L731.057 224.396ZM732.179 224.192L732.218 224.489C732.727 224.423 733.224 224.39 733.709 224.39V224.09V223.79C733.197 223.79 732.674 223.825 732.14 223.895L732.179 224.192ZM733.709 224.09V224.39C734.678 224.39 735.366 224.567 735.816 224.88L735.987 224.634L736.159 224.388C735.566 223.975 734.735 223.79 733.709 223.79V224.09ZM735.987 224.634L735.823 224.885C736.21 225.138 736.469 225.722 736.469 226.81H736.769H737.069C737.069 225.676 736.807 224.81 736.151 224.383L735.987 224.634ZM736.769 226.81H736.469V244.286H736.769H737.069V226.81H736.769ZM761.511 240.75L761.235 240.633L761.234 240.636L761.511 240.75ZM759.709 243.334L759.908 243.559L759.912 243.555L759.709 243.334ZM756.819 244.966L756.916 245.25L756.819 244.966ZM749.135 244.966L749.039 245.25L749.135 244.966ZM746.245 243.334L746.043 243.555L746.046 243.559L746.245 243.334ZM744.409 240.75L744.131 240.861L744.134 240.869L744.409 240.75ZM743.797 224.396L743.744 224.101L743.497 224.146V224.396H743.797ZM744.987 224.226L745.025 224.524L745.037 224.522L744.987 224.226ZM747.911 224.226L747.843 224.518L747.852 224.52L747.862 224.522L747.911 224.226ZM748.931 224.634L749.111 224.394L748.931 224.634ZM749.543 225.484L749.262 225.589V225.589L749.543 225.484ZM750.631 239.832L750.415 240.04L750.419 240.044L750.631 239.832ZM755.323 239.832L755.107 239.624L755.323 239.832ZM756.207 224.396L756.154 224.101L755.907 224.146V224.396H756.207ZM757.397 224.226L757.435 224.524L757.447 224.522L757.397 224.226ZM760.321 224.226L760.253 224.518L760.262 224.52L760.272 224.522L760.321 224.226ZM761.341 224.634L761.161 224.874V224.874L761.341 224.634ZM761.953 225.484L761.672 225.589V225.589L761.953 225.484ZM762.157 237.384H761.857C761.857 238.572 761.649 239.654 761.235 240.633L761.511 240.75L761.788 240.867C762.236 239.806 762.457 238.644 762.457 237.384H762.157ZM761.511 240.75L761.234 240.636C760.842 241.593 760.267 242.417 759.507 243.113L759.709 243.334L759.912 243.555C760.738 242.8 761.364 241.902 761.789 240.864L761.511 240.75ZM759.709 243.334L759.51 243.109C758.751 243.782 757.823 244.308 756.723 244.682L756.819 244.966L756.916 245.25C758.082 244.854 759.082 244.291 759.908 243.559L759.709 243.334ZM756.819 244.966L756.723 244.682C755.626 245.055 754.379 245.244 752.977 245.244V245.544V245.844C754.432 245.844 755.746 245.648 756.916 245.25L756.819 244.966ZM752.977 245.544V245.244C751.576 245.244 750.329 245.055 749.232 244.682L749.135 244.966L749.039 245.25C750.209 245.648 751.523 245.844 752.977 245.844V245.544ZM749.135 244.966L749.232 244.682C748.131 244.308 747.204 243.782 746.444 243.109L746.245 243.334L746.046 243.559C746.873 244.291 747.873 244.854 749.039 245.25L749.135 244.966ZM746.245 243.334L746.448 243.113C745.686 242.416 745.099 241.59 744.685 240.631L744.409 240.75L744.134 240.869C744.581 241.905 745.218 242.801 746.043 243.555L746.245 243.334ZM744.409 240.75L744.688 240.639C744.296 239.658 744.097 238.574 744.097 237.384H743.797H743.497C743.497 238.642 743.707 239.802 744.131 240.861L744.409 240.75ZM743.797 237.384H744.097V224.396H743.797H743.497V237.384H743.797ZM743.797 224.396L743.851 224.691C744.092 224.647 744.481 224.592 745.025 224.524L744.987 224.226L744.95 223.928C744.405 223.996 744.002 224.054 743.744 224.101L743.797 224.396ZM744.987 224.226L745.037 224.522C745.566 224.434 746.071 224.39 746.551 224.39V224.09V223.79C746.035 223.79 745.497 223.837 744.938 223.93L744.987 224.226ZM746.551 224.09V224.39C747.056 224.39 747.486 224.434 747.843 224.518L747.911 224.226L747.98 223.934C747.566 223.837 747.089 223.79 746.551 223.79V224.09ZM747.911 224.226L747.862 224.522C748.233 224.584 748.525 224.704 748.751 224.874L748.931 224.634L749.111 224.394C748.793 224.156 748.406 224.004 747.961 223.93L747.911 224.226ZM748.931 224.634L748.751 224.874C748.971 225.039 749.144 225.273 749.262 225.589L749.543 225.484L749.824 225.379C749.671 224.97 749.435 224.637 749.111 224.394L748.931 224.634ZM749.543 225.484L749.262 225.589C749.381 225.906 749.447 226.342 749.447 226.912H749.747H750.047C750.047 226.304 749.978 225.788 749.824 225.379L749.543 225.484ZM749.747 226.912H749.447V237.282H749.747H750.047V226.912H749.747ZM749.747 237.282H749.447C749.447 238.425 749.758 239.358 750.415 240.04L750.631 239.832L750.847 239.624C750.326 239.082 750.047 238.315 750.047 237.282H749.747ZM750.631 239.832L750.419 240.044C751.093 240.718 751.955 241.05 752.977 241.05V240.75V240.45C752.096 240.45 751.393 240.17 750.844 239.62L750.631 239.832ZM752.977 240.75V241.05C754.02 241.05 754.885 240.72 755.539 240.04L755.323 239.832L755.107 239.624C754.583 240.168 753.884 240.45 752.977 240.45V240.75ZM755.323 239.832L755.539 240.04C756.197 239.358 756.507 238.425 756.507 237.282H756.207H755.907C755.907 238.315 755.629 239.082 755.107 239.624L755.323 239.832ZM756.207 237.282H756.507V224.396H756.207H755.907V237.282H756.207ZM756.207 224.396L756.261 224.691C756.502 224.647 756.891 224.592 757.435 224.524L757.397 224.226L757.36 223.928C756.815 223.996 756.412 224.054 756.154 224.101L756.207 224.396ZM757.397 224.226L757.447 224.522C757.976 224.434 758.481 224.39 758.961 224.39V224.09V223.79C758.445 223.79 757.907 223.837 757.348 223.93L757.397 224.226ZM758.961 224.09V224.39C759.466 224.39 759.896 224.434 760.253 224.518L760.321 224.226L760.39 223.934C759.976 223.837 759.499 223.79 758.961 223.79V224.09ZM760.321 224.226L760.272 224.522C760.643 224.584 760.935 224.704 761.161 224.874L761.341 224.634L761.521 224.394C761.203 224.156 760.816 224.004 760.371 223.93L760.321 224.226ZM761.341 224.634L761.161 224.874C761.381 225.039 761.554 225.273 761.672 225.589L761.953 225.484L762.234 225.379C762.081 224.97 761.845 224.637 761.521 224.394L761.341 224.634ZM761.953 225.484L761.672 225.589C761.791 225.906 761.857 226.342 761.857 226.912H762.157H762.457C762.457 226.304 762.388 225.788 762.234 225.379L761.953 225.484ZM762.157 226.912H761.857V237.384H762.157H762.457V226.912H762.157Z" fill="#66472D" mask="url(#path-11-outside-6_248_138)"/>
<path d="M1268 214C1301.13 214 1328 241.079 1328 274.5C1328 307.921 1301.13 335 1268 335C1234.87 335 1208 307.921 1208 274.5C1208 241.079 1234.87 214 1268 214Z" fill="#E2BA93" stroke="#D1A984" stroke-width="2"/>
<path d="M1268.5 224C1296.38 224 1319 246.824 1319 275C1319 303.176 1296.38 326 1268.5 326C1240.62 326 1218 303.176 1218 275C1218 246.824 1240.62 224 1268.5 224Z" fill="#FFF1DA" stroke="#D1A982" stroke-width="2"/>
<path d="M1273.9 274C1273.9 271.018 1271.48 268.6 1268.5 268.6C1265.52 268.6 1263.1 271.018 1263.1 274C1263.1 276.982 1265.52 279.4 1268.5 279.4V279.5C1265.46 279.5 1263 277.038 1263 274C1263 270.962 1265.46 268.5 1268.5 268.5C1271.54 268.5 1274 270.962 1274 274C1274 277.038 1271.54 279.5 1268.5 279.5V279.4C1271.48 279.4 1273.9 276.982 1273.9 274Z" fill="#7D4011"/>
<path d="M1246.35 258.367C1246.94 257.514 1248.07 257.257 1248.96 257.744L1249.13 257.852L1265.13 268.852L1265.3 268.977C1266.07 269.632 1266.24 270.78 1265.65 271.633C1265.06 272.486 1263.93 272.743 1263.04 272.256L1262.87 272.148L1246.87 261.148L1246.7 261.023C1245.93 260.368 1245.77 259.22 1246.35 258.367Z" fill="#C59B75" stroke="#995F2E" stroke-width="0.1" stroke-linecap="round"/>
<path d="M1297.34 245.374C1298.16 244.783 1299.31 244.899 1300 245.675C1300.68 246.45 1300.66 247.61 1299.97 248.355L1299.83 248.498L1273.83 271.498C1273 272.23 1271.73 272.153 1271 271.325C1270.27 270.498 1270.35 269.234 1271.17 268.502L1297.17 245.502L1297.34 245.374Z" fill="#C59B75" stroke="#995F2E" stroke-width="0.1" stroke-linecap="round"/>
<path d="M1268.5 268.55C1271.51 268.55 1273.95 270.99 1273.95 274C1273.95 277.01 1271.51 279.45 1268.5 279.45C1265.49 279.45 1263.05 277.01 1263.05 274C1263.05 270.99 1265.49 268.55 1268.5 268.55Z" fill="#B9926B" stroke="#995F2E" stroke-width="0.1"/>
<path d="M1268.5 231V241" stroke="#D0A782" stroke-width="4" stroke-linecap="round"/>
<path d="M1269 309.5V319.5" stroke="#D0A782" stroke-width="4" stroke-linecap="round"/>
<path d="M1302 275.5H1312" stroke="#D0A782" stroke-width="4" stroke-linecap="round"/>
<path d="M1225 274.5H1235" stroke="#D0A782" stroke-width="4" stroke-linecap="round"/>
<path d="M822 326V320C822 318.343 823.343 317 825 317H945.5C947.157 317 948.5 318.343 948.5 320V326C948.5 327.657 947.157 329 945.5 329H825C823.343 329 822 327.657 822 326Z" fill="#FFD6A2" stroke="#F6BF88" stroke-width="4" stroke-linecap="round"/>
<path d="M858 257.5H843.5C841.843 257.5 840.5 258.843 840.5 260.5V314.5C840.5 316.157 841.843 317.5 843.5 317.5H858C859.657 317.5 861 316.157 861 314.5V260.5C861 258.843 859.657 257.5 858 257.5Z" fill="#FDC4B8" stroke="#F6ADA2" stroke-width="3" stroke-linecap="round"/>
<path d="M841 268.5H860M841 304H860" stroke="#F6ADA2" stroke-width="3" stroke-linecap="round"/>
<path d="M881.5 257H867C865.343 257 864 258.343 864 260V314C864 315.657 865.343 317 867 317H881.5C883.157 317 884.5 315.657 884.5 314V260C884.5 258.343 883.157 257 881.5 257Z" fill="#BCDFEC" stroke="#A1CDE0" stroke-width="3" stroke-linecap="round"/>
<path d="M904.5 258H890C888.343 258 887 259.343 887 261V315C887 316.657 888.343 318 890 318H904.5C906.157 318 907.5 316.657 907.5 315V261C907.5 259.343 906.157 258 904.5 258Z" fill="#FEDDA4" stroke="#F6D086" stroke-width="3" stroke-linecap="round"/>
<path d="M927.5 258H913C911.343 258 910 259.343 910 261V315C910 316.657 911.343 318 913 318H927.5C929.157 318 930.5 316.657 930.5 315V261C930.5 259.343 929.157 258 927.5 258Z" fill="#FDC4B8" stroke="#F6ADA2" stroke-width="3" stroke-linecap="round"/>
<path d="M910 271.5H930.5M910 281H930.5" stroke="#F6ADA2" stroke-width="3" stroke-linecap="round"/>
<path d="M897 271V304" stroke="#F6CF84" stroke-width="3" stroke-linecap="round"/>
<path d="M864.5 268.5H883.5M864.5 274.5H883.5M864.5 308H883.5" stroke="#9FCDDE" stroke-width="3" stroke-linecap="round"/>
</svg>
