<svg width="192" height="202" viewBox="0 0 192 202" fill="none" xmlns="http://www.w3.org/2000/svg">
<path d="M9.18899 56.3086V185.972L182.7 186.614C183.807 186.618 184.707 185.722 184.707 184.614V57.5908C184.707 56.8197 184.264 56.1172 183.568 55.7854L98.0821 15.0372C97.547 14.7822 96.9264 14.7776 96.3876 15.0247L10.3551 54.4907C9.6445 54.8167 9.18899 55.5268 9.18899 56.3086Z" fill="#FED8AC"/>
<path d="M8.18883 56.3086C8.18883 55.136 8.87216 54.071 9.93785 53.582L95.9711 14.1162C96.7791 13.7456 97.7096 13.7523 98.5121 14.1347L183.998 54.8828C185.042 55.3806 185.707 56.4342 185.707 57.5908V184.614C185.707 186.275 184.358 187.62 182.697 187.614L10.1224 186.976C9.97933 187.353 9.61625 187.622 9.18883 187.622C8.73098 187.622 8.34642 187.313 8.22789 186.894C7.86407 186.743 7.60827 186.385 7.60972 185.967C7.6112 185.566 7.84818 185.222 8.18883 185.063V56.3086ZM10.1888 184.976L182.703 185.614C183.257 185.616 183.707 185.168 183.707 184.614V57.5908C183.707 57.2054 183.486 56.8545 183.138 56.6885L97.6517 15.9394C97.3844 15.8121 97.0742 15.8102 96.805 15.9336L10.7718 55.3994C10.4166 55.5624 10.1888 55.9177 10.1888 56.3086V184.976Z" fill="#FED8AC"/>
<path d="M183.549 172.289H8.03029V185.319L183.549 186.622V172.289Z" fill="#ECB87F"/>
<path d="M184.549 171.289V187.629L7.03029 186.311V171.289H184.549ZM9.03029 184.326L182.549 185.614V173.289H9.03029V184.326Z" fill="#ECB87F"/>
<path d="M107.086 105.234V186.622H169.067V105.234C169.067 104.129 168.172 103.234 167.067 103.234H109.086C107.981 103.234 107.086 104.129 107.086 105.234Z" fill="#E6B179"/>
<path d="M168.067 105.234C168.067 104.682 167.619 104.234 167.067 104.234H109.086C108.533 104.234 108.086 104.682 108.086 105.234V185.622H168.067V105.234ZM170.067 187.622H106.086V105.234C106.086 103.577 107.429 102.234 109.086 102.234H167.067C168.724 102.234 170.067 103.577 170.067 105.234V187.622Z" fill="#E6B179"/>
<path d="M188.5 187.925H3.65861C2.55404 187.925 1.65861 188.82 1.65861 189.925V198.302C1.65861 199.407 2.55404 200.302 3.65861 200.302H188.5C189.605 200.302 190.5 199.407 190.5 198.302V189.925C190.5 188.82 189.605 187.925 188.5 187.925Z" fill="#B97B4C"/>
<path d="M189.5 189.925C189.5 189.372 189.053 188.925 188.5 188.925H3.65861C3.10633 188.925 2.65861 189.372 2.65861 189.925V198.303C2.65865 198.855 3.10635 199.303 3.65861 199.303H188.5C189.053 199.302 189.5 198.855 189.5 198.303V189.925ZM191.5 198.303C191.5 199.959 190.157 201.302 188.5 201.303H3.65861C2.00178 201.303 0.658651 199.959 0.658608 198.303V189.925C0.658609 188.268 2.00175 186.925 3.65861 186.925H188.5C190.157 186.925 191.5 188.268 191.5 189.925V198.303Z" fill="#B97B4C"/>
<path d="M164.433 185.319H111.72V109.143C111.72 108.038 112.615 107.143 113.72 107.143H162.433C163.538 107.143 164.433 108.038 164.433 109.143V185.319Z" fill="#C98A54"/>
<path d="M163.434 109.143C163.434 108.59 162.986 108.143 162.434 108.143H113.72C113.167 108.143 112.72 108.59 112.72 109.143V184.318H163.434V109.143ZM165.434 186.318H110.72V109.143C110.72 107.486 112.063 106.143 113.72 106.143H162.434C164.09 106.143 165.434 107.486 165.434 109.143V186.318Z" fill="#C98A54"/>
<path d="M139.524 107.143H136.049V186.621H139.524V107.143Z" fill="#B27345"/>
<path d="M140.024 106.643V187.121H135.549V106.643H140.024ZM136.549 186.121H139.024V107.643H136.549V186.121Z" fill="#B27345"/>
<path d="M130.256 145.579C130.256 147.378 128.959 148.837 127.36 148.837C125.76 148.837 124.463 147.378 124.463 145.579C124.463 143.78 125.76 142.322 127.36 142.322C128.959 142.322 130.256 143.78 130.256 145.579Z" fill="#936241"/>
<path d="M151.11 145.579C151.11 147.378 149.813 148.837 148.214 148.837C146.614 148.837 145.317 147.378 145.317 145.579C145.317 143.78 146.614 142.322 148.214 142.322C149.813 142.322 151.11 143.78 151.11 145.579Z" fill="#936241"/>
<path d="M0.5 53.7544V45.1283C0.5 44.3463 0.955781 43.6361 1.66668 43.3102L94.6729 0.681588C95.1984 0.44074 95.8024 0.439026 96.3292 0.676885L189.323 42.6621C190.039 42.9856 190.5 43.6988 190.5 44.4849V53.7544C190.5 55.2125 188.99 56.1805 187.665 55.5717L96.335 13.6097C95.805 13.3662 95.195 13.3662 94.665 13.6097L3.33499 55.5717C2.01006 56.1805 0.5 55.2125 0.5 53.7544Z" fill="#E0694F"/>
<path d="M94.4561 13.155C95.1186 12.8506 95.8814 12.8506 96.5439 13.155L187.874 55.117C188.868 55.5734 190 54.848 190 53.7547V44.4851C190 43.8955 189.655 43.3606 189.117 43.1179L96.123 1.13258C95.728 0.954351 95.2748 0.955908 94.8809 1.13649L1.875 43.7644C1.34183 44.0088 1 44.5422 1 45.1287V53.7547C1.00019 54.848 2.13237 55.5734 3.12598 55.117L94.4561 13.155ZM191 53.7547C191 55.5771 189.112 56.787 187.456 56.0261L96.126 14.0642C95.7285 13.8817 95.2715 13.8817 94.874 14.0642L3.54395 56.0261C1.88786 56.787 0.000192253 55.5771 0 53.7547V45.1287C0 44.1512 0.569449 43.2626 1.45801 42.8552L94.4648 0.227308C95.1217 -0.0737016 95.8766 -0.0758568 96.5352 0.221448L189.528 42.2068C190.424 42.6112 191 43.5025 191 44.4851V53.7547Z" fill="#E0694F"/>
<path d="M78.1221 102.628V142.276C78.1221 143.381 77.2267 144.276 76.1221 144.276H49.738H22.1953C21.0907 144.276 20.1953 143.381 20.1953 142.276V102.628C20.1953 101.524 21.0907 100.628 22.1953 100.628H49.738H76.1221C77.2267 100.628 78.1221 101.524 78.1221 102.628Z" fill="#D6EBED"/>
<path d="M76.622 102.628C76.622 102.352 76.3982 102.128 76.122 102.128H51.2382V142.777H76.122C76.3981 142.777 76.6219 142.553 76.622 142.277V102.628ZM21.6953 142.277C21.6954 142.553 21.9192 142.777 22.1953 142.777H48.2382V102.128H22.1953C21.9191 102.128 21.6953 102.352 21.6953 102.628V142.277ZM79.622 142.277C79.6219 144.21 78.0549 145.777 76.122 145.777H22.1953C20.2624 145.777 18.6954 144.21 18.6953 142.277V102.628C18.6953 100.695 20.2623 99.1282 22.1953 99.1282H76.122C78.055 99.1282 79.622 100.695 79.622 102.628V142.277Z" fill="#EDB884"/>
<path d="M161.407 77.0877H157.798C157.704 77.0877 157.657 77.0356 157.657 76.9315V58.6815H153.501C153.397 58.6815 153.345 58.6294 153.345 58.5252L153.376 54.9471C153.376 54.8638 153.418 54.8221 153.501 54.8221H165.657C165.772 54.8221 165.829 54.8638 165.829 54.9471V58.5252C165.829 58.6294 165.788 58.6815 165.704 58.6815H161.501L161.532 76.9315C161.532 77.0356 161.491 77.0877 161.407 77.0877Z" fill="#825A42"/>
<path d="M143.22 77.0877H140.017C139.85 77.0877 139.767 77.0148 139.767 76.869L139.736 55.0721C139.736 54.9054 139.819 54.8221 139.986 54.8221H142.876L148.282 67.4315L148.126 55.0721C148.126 54.9054 148.22 54.8221 148.407 54.8221H151.579C151.704 54.8221 151.767 54.9054 151.767 55.0721L151.798 76.9002C151.798 77.0252 151.746 77.0877 151.642 77.0877H148.829L143.282 65.3065L143.517 76.8377C143.517 77.0044 143.418 77.0877 143.22 77.0877Z" fill="#825A42"/>
<path d="M125.001 76.9315L128.97 54.9471C128.991 54.8638 129.043 54.8221 129.126 54.8221H133.767C133.85 54.8221 133.902 54.8638 133.923 54.9471L137.736 76.9315C137.746 77.0356 137.704 77.0877 137.611 77.0877H134.064C133.96 77.0877 133.902 77.0356 133.892 76.9315L133.548 74.5877H129.189L128.845 76.9315C128.835 77.0356 128.782 77.0877 128.689 77.0877H125.126C125.043 77.0877 125.001 77.0356 125.001 76.9315ZM131.595 62.1815L131.407 60.994L131.267 62.1815L129.829 71.1659H132.907L131.595 62.1815Z" fill="#825A42"/>
<path d="M115.048 77.0877H111.423C111.34 77.0877 111.298 77.0356 111.298 76.9315L111.361 54.9471C111.361 54.8638 111.402 54.8221 111.486 54.8221H117.954C119.111 54.8221 120.173 55.1034 121.142 55.6659C122.111 56.2284 122.881 56.9836 123.454 57.9315C124.038 58.8794 124.329 59.9523 124.329 61.1502C124.329 61.9315 124.21 62.6398 123.97 63.2752C123.73 63.9106 123.449 64.4471 123.126 64.8846C122.814 65.3221 122.527 65.645 122.267 65.8534C123.423 67.1346 124.001 68.6398 124.001 70.369L124.032 76.9315C124.032 77.0356 123.98 77.0877 123.876 77.0877H120.251C120.168 77.0877 120.126 77.0565 120.126 76.994V70.369C120.126 69.5981 119.855 68.9315 119.314 68.369C118.772 67.8065 118.105 67.5252 117.314 67.5252H115.204L115.173 76.9315C115.173 77.0356 115.131 77.0877 115.048 77.0877ZM117.954 58.6502H115.204V63.6815H117.954C118.611 63.6815 119.194 63.4367 119.704 62.9471C120.225 62.4575 120.486 61.8586 120.486 61.1502C120.486 60.4731 120.236 59.8898 119.736 59.4002C119.236 58.9002 118.642 58.6502 117.954 58.6502Z" fill="#825A42"/>
<path d="M102.47 77.4002C101.345 77.4002 100.303 77.1086 99.345 76.5252C98.3866 75.9419 97.621 75.1606 97.0481 74.1815C96.4856 73.1919 96.2043 72.1138 96.2043 70.9471L96.2668 54.9471C96.2668 54.8638 96.3085 54.8221 96.3918 54.8221H99.9856C100.069 54.8221 100.111 54.8638 100.111 54.9471V70.9471C100.111 71.6659 100.34 72.2804 100.798 72.7909C101.256 73.2909 101.814 73.5409 102.47 73.5409C103.157 73.5409 103.73 73.2909 104.189 72.7909C104.647 72.2804 104.876 71.6659 104.876 70.9471V54.9471C104.876 54.8638 104.918 54.8221 105.001 54.8221H108.595C108.678 54.8221 108.72 54.8638 108.72 54.9471L108.782 70.9471C108.782 72.1242 108.501 73.2075 107.939 74.1971C107.366 75.1763 106.605 75.9575 105.657 76.5409C104.71 77.1138 103.647 77.4002 102.47 77.4002Z" fill="#825A42"/>
<path d="M81.845 76.9315L85.8137 54.9471C85.8345 54.8638 85.8866 54.8221 85.97 54.8221H90.6106C90.6939 54.8221 90.746 54.8638 90.7668 54.9471L94.5793 76.9315C94.5897 77.0356 94.5481 77.0877 94.4543 77.0877H90.9075C90.8033 77.0877 90.746 77.0356 90.7356 76.9315L90.3918 74.5877H86.0325L85.6887 76.9315C85.6783 77.0356 85.6262 77.0877 85.5325 77.0877H81.97C81.8866 77.0877 81.845 77.0356 81.845 76.9315ZM88.4387 62.1815L88.2512 60.994L88.1106 62.1815L86.6731 71.1659H89.7512L88.4387 62.1815Z" fill="#825A42"/>
<path d="M76.9387 77.0877H73.3293C73.2356 77.0877 73.1887 77.0356 73.1887 76.9315V58.6815H69.0325C68.9283 58.6815 68.8762 58.6294 68.8762 58.5252L68.9075 54.9471C68.9075 54.8638 68.9491 54.8221 69.0325 54.8221H81.1887C81.3033 54.8221 81.3606 54.8638 81.3606 54.9471V58.5252C81.3606 58.6294 81.3189 58.6815 81.2356 58.6815H77.0325L77.0637 76.9315C77.0637 77.0356 77.022 77.0877 76.9387 77.0877Z" fill="#825A42"/>
<path d="M61.6106 77.4002C60.4752 77.4002 59.4283 77.1086 58.47 76.5252C57.522 75.9419 56.7616 75.1659 56.1887 74.1971C55.6262 73.2179 55.345 72.145 55.345 70.9784V69.5096C55.345 69.395 55.397 69.3377 55.5012 69.3377H59.095C59.1783 69.3377 59.22 69.395 59.22 69.5096V70.9784C59.22 71.6763 59.4543 72.2804 59.9231 72.7909C60.3918 73.2909 60.9543 73.5409 61.6106 73.5409C62.2772 73.5409 62.845 73.2856 63.3137 72.7752C63.7825 72.2544 64.0168 71.6554 64.0168 70.9784C64.0168 70.1971 63.5064 69.5148 62.4856 68.9315C62.3189 68.8273 62.1002 68.7023 61.8293 68.5565C61.5689 68.4002 61.2564 68.2231 60.8918 68.0252C60.5272 67.8273 60.1731 67.6346 59.8293 67.4471C59.4856 67.2492 59.1522 67.0617 58.8293 66.8846C57.6627 66.1971 56.7929 65.3377 56.22 64.3065C55.6575 63.2648 55.3762 62.0981 55.3762 60.8065C55.3762 59.619 55.6679 58.5461 56.2512 57.5877C56.8345 56.6398 57.595 55.8898 58.5325 55.3377C59.4804 54.7752 60.5064 54.494 61.6106 54.494C62.746 54.494 63.7877 54.7752 64.7356 55.3377C65.6835 55.9106 66.4387 56.6711 67.0012 57.619C67.5741 58.5669 67.8606 59.6294 67.8606 60.8065V63.4315C67.8606 63.5148 67.8189 63.5565 67.7356 63.5565H64.1418C64.0585 63.5565 64.0168 63.5148 64.0168 63.4315L63.9856 60.8065C63.9856 60.0565 63.7512 59.4471 63.2825 58.9784C62.8137 58.5096 62.2564 58.2752 61.6106 58.2752C60.9543 58.2752 60.3918 58.5252 59.9231 59.0252C59.4543 59.5252 59.22 60.119 59.22 60.8065C59.22 61.5044 59.3658 62.0877 59.6575 62.5565C59.9595 63.0252 60.5064 63.4731 61.2981 63.9002C61.3814 63.9419 61.5741 64.0461 61.8762 64.2127C62.1783 64.3794 62.5116 64.5669 62.8762 64.7752C63.2512 64.9731 63.5897 65.1554 63.8918 65.3221C64.1939 65.4784 64.3762 65.5721 64.4387 65.6034C65.5012 66.1971 66.3397 66.9263 66.9543 67.7909C67.5793 68.6554 67.8918 69.7179 67.8918 70.9784C67.8918 72.1971 67.6106 73.2909 67.0481 74.2596C66.4752 75.2284 65.7147 75.994 64.7668 76.5565C63.8189 77.119 62.7668 77.4002 61.6106 77.4002Z" fill="#825A42"/>
<path d="M53.2043 77.0877H42.8606C42.7772 77.0877 42.7356 77.0356 42.7356 76.9315L42.7668 54.9471C42.7668 54.8638 42.8085 54.8221 42.8918 54.8221H53.1731C53.2564 54.8221 53.2981 54.8742 53.2981 54.9784V58.5565C53.2981 58.6398 53.2564 58.6815 53.1731 58.6815H46.6106V63.6815H53.1731C53.2564 63.6815 53.2981 63.7231 53.2981 63.8065L53.3293 67.4315C53.3293 67.5148 53.2877 67.5565 53.2043 67.5565H46.6106V73.1502H53.2043C53.2877 73.1502 53.3293 73.2023 53.3293 73.3065V76.9627C53.3293 77.0461 53.2877 77.0877 53.2043 77.0877Z" fill="#825A42"/>
<path d="M31.0481 77.0877H27.4231C27.3397 77.0877 27.2981 77.0356 27.2981 76.9315L27.3606 54.9471C27.3606 54.8638 27.4022 54.8221 27.4856 54.8221H33.9543C35.1106 54.8221 36.1731 55.1034 37.1418 55.6659C38.1106 56.2284 38.8814 56.9836 39.4543 57.9315C40.0377 58.8794 40.3293 59.9523 40.3293 61.1502C40.3293 61.9315 40.2095 62.6398 39.97 63.2752C39.7304 63.9106 39.4491 64.4471 39.1262 64.8846C38.8137 65.3221 38.5272 65.645 38.2668 65.8534C39.4231 67.1346 40.0012 68.6398 40.0012 70.369L40.0325 76.9315C40.0325 77.0356 39.9804 77.0877 39.8762 77.0877H36.2512C36.1679 77.0877 36.1262 77.0565 36.1262 76.994V70.369C36.1262 69.5981 35.8554 68.9315 35.3137 68.369C34.772 67.8065 34.1054 67.5252 33.3137 67.5252H31.2043L31.1731 76.9315C31.1731 77.0356 31.1314 77.0877 31.0481 77.0877ZM33.9543 58.6502H31.2043V63.6815H33.9543C34.6106 63.6815 35.1939 63.4367 35.7043 62.9471C36.2252 62.4575 36.4856 61.8586 36.4856 61.1502C36.4856 60.4731 36.2356 59.8898 35.7356 59.4002C35.2356 58.9002 34.6418 58.6502 33.9543 58.6502Z" fill="#825A42"/>
<path d="M101.61 111.052H84.7561C83.6515 111.052 82.7561 111.947 82.7561 113.052V137.716C82.7561 138.821 83.6515 139.716 84.7561 139.716H101.61C102.714 139.716 103.61 138.821 103.61 137.716V113.052C103.61 111.947 102.714 111.052 101.61 111.052Z" fill="#815941"/>
<path d="M103.11 113.052C103.11 112.223 102.438 111.552 101.61 111.552H84.7561C83.9277 111.552 83.2561 112.223 83.2561 113.052V137.716C83.2561 138.544 83.9277 139.216 84.7561 139.216H101.61C102.438 139.216 103.11 138.544 103.11 137.716V113.052ZM104.11 137.716C104.11 139.097 102.99 140.216 101.61 140.216H84.7561C83.3754 140.216 82.2561 139.097 82.2561 137.716V113.052C82.2561 111.671 83.3754 110.552 84.7561 110.552H101.61C102.99 110.552 104.11 111.671 104.11 113.052V137.716Z" fill="#693F2A"/>
<path d="M94.5241 130.898C95.0763 130.898 95.5241 131.346 95.5241 131.898C95.5241 132.451 95.0763 132.898 94.5241 132.898H87.3903C86.838 132.898 86.3903 132.451 86.3903 131.898C86.3903 131.346 86.838 130.898 87.3903 130.898H94.5241ZM97.817 124.384C98.3693 124.384 98.817 124.831 98.817 125.384C98.817 125.936 98.3693 126.384 97.817 126.384H87.3903C86.838 126.384 86.3903 125.936 86.3903 125.384C86.3903 124.831 86.838 124.384 87.3903 124.384H97.817ZM97.817 117.869C98.3693 117.869 98.817 118.317 98.817 118.869C98.817 119.421 98.3693 119.869 97.817 119.869H87.3903C86.838 119.869 86.3903 119.421 86.3903 118.869C86.3903 118.317 86.838 117.869 87.3903 117.869H97.817Z" fill="#FED8AD"/>
<path d="M35.7526 163.413V165.775H37.823V163.413C47.3164 159.391 50.8839 150.29 50.2452 148.454C49.6065 146.619 41.8811 151.525 37.823 157.902V154.753C43.0416 146.009 38.876 135.234 37.1329 135.858C35.8495 134.991 31.3499 145.341 35.7526 154.753V157.902C33.0862 151.232 26.091 147.659 24.0205 149.242C21.9501 150.824 29.4858 160.826 35.7526 163.413Z" fill="#898548"/>
<path d="M36.8144 135.68C36.9285 135.646 37.0432 135.651 37.1493 135.7C37.4293 135.634 37.7184 135.779 37.9794 136.022C38.2674 136.29 38.5618 136.711 38.8427 137.248C39.4058 138.324 39.9308 139.902 40.2363 141.768C40.8456 145.491 40.5849 150.392 37.9726 154.793V157.401C39.9988 154.367 42.8097 151.7 45.2294 149.976C46.494 149.075 47.6597 148.426 48.5566 148.118C49.0031 147.964 49.3976 147.89 49.7099 147.922C50.0305 147.956 50.2824 148.106 50.3866 148.405C50.4778 148.667 50.4885 149.038 50.4325 149.478C50.376 149.923 50.2494 150.454 50.0507 151.048C49.6532 152.236 48.9647 153.683 47.9589 155.197C45.9598 158.205 42.7015 161.484 37.9726 163.511V165.924H35.6025V163.511C32.4605 162.181 29.0343 159.045 26.6425 156.044C25.4338 154.528 24.4814 153.036 23.9609 151.819C23.7011 151.211 23.5447 150.661 23.5234 150.206C23.5021 149.75 23.6163 149.362 23.9296 149.123C24.5 148.687 25.381 148.623 26.3847 148.843C27.3953 149.065 28.5637 149.58 29.745 150.352C31.948 151.791 34.2147 154.134 35.6025 157.172V154.783C33.3996 150.05 33.4253 145.091 34.163 141.421C34.5327 139.583 35.083 138.061 35.6249 137.05C35.895 136.546 36.1676 136.159 36.4228 135.924C36.55 135.807 36.6817 135.72 36.8144 135.68ZM37.0488 135.983C37.0115 135.958 36.9667 135.948 36.9003 135.968C36.8284 135.99 36.7358 136.044 36.6259 136.145C36.4066 136.347 36.1521 136.7 35.8886 137.192C35.3636 138.171 34.8232 139.663 34.4579 141.48C33.7274 145.113 33.7044 150.02 35.8886 154.689L35.9023 154.719V157.902L35.6132 157.957C34.2929 154.655 31.8995 152.118 29.581 150.603C28.4217 149.846 27.2867 149.348 26.3202 149.136C25.3468 148.923 24.5761 149.005 24.1113 149.361C23.9071 149.517 23.8043 149.788 23.8232 150.192C23.8421 150.596 23.9839 151.108 24.2372 151.701C24.7432 152.884 25.6782 154.352 26.8779 155.857C29.2792 158.87 32.71 161.995 35.8095 163.274L35.9023 163.312V165.624H37.6728V163.313L37.7646 163.275C42.4797 161.278 45.7235 158.018 47.7089 155.031C48.7015 153.537 49.3782 152.114 49.7665 150.954C49.9607 150.373 50.0822 149.861 50.1357 149.441C50.1896 149.016 50.1719 148.7 50.1034 148.503C50.0478 148.344 49.9182 148.246 49.6786 148.221C49.4304 148.195 49.0848 148.253 48.6542 148.401C47.7962 148.696 46.657 149.328 45.4032 150.221C42.8976 152.006 39.9659 154.813 37.9491 157.982L37.6728 158.416V154.711L37.6943 154.676C40.2806 150.343 40.5433 145.501 39.9404 141.817C39.6389 139.975 39.1222 138.429 38.5771 137.387C38.3039 136.865 38.0274 136.477 37.7743 136.242C37.5152 136 37.3188 135.951 37.1835 135.999L37.1122 136.025L37.0488 135.983Z" fill="#6B7131"/>
<path d="M47.8712 165.275H26.1173C24.853 165.275 23.9059 166.434 24.1572 167.673L27.6835 185.055C27.8727 185.987 28.6923 186.658 29.6436 186.658H44.3444C45.2957 186.658 46.1153 185.987 46.3045 185.055L49.8308 167.673C50.0821 166.434 49.1356 165.275 47.8712 165.275Z" fill="#E4774C"/>
<path d="M47.871 165.125C49.2302 165.125 50.2477 166.371 49.9775 167.703L46.4511 185.085C46.2478 186.087 45.3672 186.807 44.3447 186.807H29.6435C28.6209 186.807 27.7394 186.087 27.5361 185.085L24.0107 167.703C23.7405 166.371 24.758 165.125 26.1171 165.125H47.871ZM26.1171 165.425C24.9477 165.426 24.0721 166.497 24.3046 167.643L27.831 185.025C28.0059 185.887 28.7636 186.507 29.6435 186.507H44.3447C45.2245 186.507 45.9822 185.887 46.1572 185.025L49.6835 167.643C49.9161 166.497 49.0405 165.425 47.871 165.425H26.1171Z" fill="#DD5E33"/>
</svg>
