<svg width="200" height="200" viewBox="0 0 200 200" fill="none" xmlns="http://www.w3.org/2000/svg">
<path d="M20.003 59.6287V178.816L179.657 179.406C180.765 179.41 181.665 178.514 181.665 177.406V60.8067C181.665 60.0353 181.221 59.3326 180.524 59.001L101.944 21.5872C101.409 21.3326 100.79 21.3281 100.251 21.5747L21.1699 57.8105C20.4589 58.1363 20.003 58.8466 20.003 59.6287Z" fill="#FED8AC"/>
<path d="M20.003 179.414V59.6287C20.003 58.8466 20.4589 58.1363 21.1699 57.8105L100.251 21.5747C100.79 21.3281 101.409 21.3326 101.944 21.5872L180.524 59.001C181.221 59.3326 181.665 60.0353 181.665 60.8067V177.406C181.665 178.514 180.765 179.41 179.657 179.406L19.4695 178.814" stroke="#FED8AC" stroke-width="2" stroke-linecap="round"/>
<path d="M180.597 166.228H18.9358V178.215L180.597 179.414V166.228Z" fill="#ECB87F" stroke="#ECB87F" stroke-width="2" stroke-linecap="round"/>
<path d="M110.171 104.697V179.413H167.259V104.697C167.259 103.592 166.364 102.697 165.259 102.697H112.171C111.066 102.697 110.171 103.592 110.171 104.697Z" fill="#E6B179" stroke="#E6B179" stroke-width="2" stroke-linecap="round"/>
<path d="M185 180.612H15.0671C13.9626 180.612 13.0671 181.508 13.0671 182.612V190C13.0671 191.104 13.9626 192 15.0671 192H185C186.105 192 187 191.104 187 190V182.612C187 181.508 186.105 180.612 185 180.612Z" fill="#B97B4C" stroke="#B97B4C" stroke-width="2" stroke-linecap="round"/>
<path d="M162.991 178.215H114.439V108.293C114.439 107.188 115.335 106.293 116.439 106.293H160.991C162.096 106.293 162.991 107.188 162.991 108.293V178.215Z" fill="#C98A54" stroke="#C98A54" stroke-width="2" stroke-linecap="round"/>
<path d="M140.049 106.293H136.847V179.413H140.049V106.293Z" fill="#B27345" stroke="#B27345" stroke-linecap="round"/>
<ellipse cx="128.844" cy="141.655" rx="2.66768" ry="2.99674" fill="#936241"/>
<ellipse cx="148.052" cy="141.655" rx="2.66768" ry="2.99674" fill="#936241"/>
<path d="M12 56.9276V49.3431C12 48.5607 12.4561 47.8502 13.1675 47.5246L98.6737 8.37829C99.1987 8.13792 99.802 8.13621 100.328 8.3736L185.822 46.9286C186.539 47.2519 187 47.9653 187 48.7517V56.9276C187 58.3853 185.491 59.3533 184.166 58.7453L100.334 20.2725C99.8046 20.0295 99.1954 20.0295 98.6658 20.2725L14.8342 58.7453C13.5093 59.3533 12 58.3853 12 56.9276Z" fill="#E0694F" stroke="#E0694F" stroke-linecap="round"/>
<path d="M83.494 102.3V138.456C83.494 139.561 82.5986 140.456 81.494 140.456H57.3507H32.1404C31.0358 140.456 30.1404 139.561 30.1404 138.456V102.3C30.1404 101.195 31.0358 100.3 32.1404 100.3H57.3507H81.494C82.5986 100.3 83.494 101.195 83.494 102.3Z" fill="#D6EBED"/>
<path d="M57.3507 100.3H81.494C82.5986 100.3 83.494 101.195 83.494 102.3V138.456C83.494 139.561 82.5986 140.456 81.494 140.456H57.3507M57.3507 100.3H32.1404C31.0358 100.3 30.1404 101.195 30.1404 102.3V138.456C30.1404 139.561 31.0358 140.456 32.1404 140.456H57.3507M57.3507 100.3V140.456" stroke="#EDB884" stroke-width="3" stroke-linecap="round"/>
<path d="M35.0023 81.7622H31.3773C31.294 81.7622 31.2523 81.7101 31.2523 81.606L31.3148 59.6216C31.3148 59.5382 31.3565 59.4966 31.4398 59.4966H37.9086C39.0648 59.4966 40.1273 59.7778 41.0961 60.3403C42.0648 60.9028 42.8357 61.658 43.4086 62.606C43.9919 63.5539 44.2836 64.6268 44.2836 65.8247C44.2836 66.606 44.1638 67.3143 43.9242 67.9497C43.6846 68.5851 43.4034 69.1216 43.0805 69.5591C42.768 69.9966 42.4815 70.3195 42.2211 70.5278C43.3773 71.8091 43.9555 73.3143 43.9555 75.0435L43.9867 81.606C43.9867 81.7101 43.9346 81.7622 43.8305 81.7622H40.2055C40.1221 81.7622 40.0805 81.731 40.0805 81.6685V75.0435C40.0805 74.2726 39.8096 73.606 39.268 73.0435C38.7263 72.481 38.0596 72.1997 37.268 72.1997H35.1586L35.1273 81.606C35.1273 81.7101 35.0857 81.7622 35.0023 81.7622ZM37.9086 63.3247H35.1586V68.356H37.9086C38.5648 68.356 39.1482 68.1112 39.6586 67.6216C40.1794 67.132 40.4398 66.533 40.4398 65.8247C40.4398 65.1476 40.1898 64.5643 39.6898 64.0747C39.1898 63.5747 38.5961 63.3247 37.9086 63.3247ZM57.1586 81.7622H46.8148C46.7315 81.7622 46.6898 81.7101 46.6898 81.606L46.7211 59.6216C46.7211 59.5382 46.7628 59.4966 46.8461 59.4966H57.1273C57.2107 59.4966 57.2523 59.5487 57.2523 59.6528V63.231C57.2523 63.3143 57.2107 63.356 57.1273 63.356H50.5648V68.356H57.1273C57.2107 68.356 57.2523 68.3976 57.2523 68.481L57.2836 72.106C57.2836 72.1893 57.2419 72.231 57.1586 72.231H50.5648V77.8247H57.1586C57.2419 77.8247 57.2836 77.8768 57.2836 77.981V81.6372C57.2836 81.7205 57.2419 81.7622 57.1586 81.7622ZM65.5648 82.0747C64.4294 82.0747 63.3826 81.783 62.4242 81.1997C61.4763 80.6164 60.7159 79.8403 60.143 78.8716C59.5805 77.8924 59.2992 76.8195 59.2992 75.6528V74.1841C59.2992 74.0695 59.3513 74.0122 59.4555 74.0122H63.0492C63.1326 74.0122 63.1742 74.0695 63.1742 74.1841V75.6528C63.1742 76.3507 63.4086 76.9549 63.8773 77.4653C64.3461 77.9653 64.9086 78.2153 65.5648 78.2153C66.2315 78.2153 66.7992 77.9601 67.268 77.4497C67.7367 76.9289 67.9711 76.3299 67.9711 75.6528C67.9711 74.8716 67.4607 74.1893 66.4398 73.606C66.2732 73.5018 66.0544 73.3768 65.7836 73.231C65.5232 73.0747 65.2107 72.8976 64.8461 72.6997C64.4815 72.5018 64.1273 72.3091 63.7836 72.1216C63.4398 71.9237 63.1065 71.7362 62.7836 71.5591C61.6169 70.8716 60.7471 70.0122 60.1742 68.981C59.6117 67.9393 59.3305 66.7726 59.3305 65.481C59.3305 64.2935 59.6221 63.2205 60.2055 62.2622C60.7888 61.3143 61.5492 60.5643 62.4867 60.0122C63.4346 59.4497 64.4607 59.1685 65.5648 59.1685C66.7003 59.1685 67.7419 59.4497 68.6898 60.0122C69.6378 60.5851 70.393 61.3455 70.9555 62.2935C71.5284 63.2414 71.8148 64.3039 71.8148 65.481V68.106C71.8148 68.1893 71.7732 68.231 71.6898 68.231H68.0961C68.0128 68.231 67.9711 68.1893 67.9711 68.106L67.9398 65.481C67.9398 64.731 67.7055 64.1216 67.2367 63.6528C66.768 63.1841 66.2107 62.9497 65.5648 62.9497C64.9086 62.9497 64.3461 63.1997 63.8773 63.6997C63.4086 64.1997 63.1742 64.7935 63.1742 65.481C63.1742 66.1789 63.3201 66.7622 63.6117 67.231C63.9138 67.6997 64.4607 68.1476 65.2523 68.5747C65.3357 68.6164 65.5284 68.7205 65.8305 68.8872C66.1326 69.0539 66.4659 69.2414 66.8305 69.4497C67.2055 69.6476 67.544 69.8299 67.8461 69.9966C68.1482 70.1528 68.3305 70.2466 68.393 70.2778C69.4555 70.8716 70.294 71.6007 70.9086 72.4653C71.5336 73.3299 71.8461 74.3924 71.8461 75.6528C71.8461 76.8716 71.5648 77.9653 71.0023 78.9341C70.4294 79.9028 69.669 80.6685 68.7211 81.231C67.7732 81.7935 66.7211 82.0747 65.5648 82.0747ZM80.893 81.7622H77.2836C77.1898 81.7622 77.143 81.7101 77.143 81.606V63.356H72.9867C72.8826 63.356 72.8305 63.3039 72.8305 63.1997L72.8617 59.6216C72.8617 59.5382 72.9034 59.4966 72.9867 59.4966H85.143C85.2576 59.4966 85.3148 59.5382 85.3148 59.6216V63.1997C85.3148 63.3039 85.2732 63.356 85.1898 63.356H80.9867L81.018 81.606C81.018 81.7101 80.9763 81.7622 80.893 81.7622ZM85.7992 81.606L89.768 59.6216C89.7888 59.5382 89.8409 59.4966 89.9242 59.4966H94.5648C94.6482 59.4966 94.7003 59.5382 94.7211 59.6216L98.5336 81.606C98.544 81.7101 98.5023 81.7622 98.4086 81.7622H94.8617C94.7576 81.7622 94.7003 81.7101 94.6898 81.606L94.3461 79.2622H89.9867L89.643 81.606C89.6326 81.7101 89.5805 81.7622 89.4867 81.7622H85.9242C85.8409 81.7622 85.7992 81.7101 85.7992 81.606ZM92.393 66.856L92.2055 65.6685L92.0648 66.856L90.6273 75.8403H93.7055L92.393 66.856ZM106.424 82.0747C105.299 82.0747 104.258 81.783 103.299 81.1997C102.341 80.6164 101.575 79.8351 101.002 78.856C100.44 77.8664 100.159 76.7882 100.159 75.6216L100.221 59.6216C100.221 59.5382 100.263 59.4966 100.346 59.4966H103.94C104.023 59.4966 104.065 59.5382 104.065 59.6216V75.6216C104.065 76.3403 104.294 76.9549 104.752 77.4653C105.211 77.9653 105.768 78.2153 106.424 78.2153C107.112 78.2153 107.685 77.9653 108.143 77.4653C108.601 76.9549 108.83 76.3403 108.83 75.6216V59.6216C108.83 59.5382 108.872 59.4966 108.955 59.4966H112.549C112.633 59.4966 112.674 59.5382 112.674 59.6216L112.737 75.6216C112.737 76.7987 112.455 77.882 111.893 78.8716C111.32 79.8507 110.56 80.632 109.612 81.2153C108.664 81.7882 107.601 82.0747 106.424 82.0747ZM119.002 81.7622H115.377C115.294 81.7622 115.252 81.7101 115.252 81.606L115.315 59.6216C115.315 59.5382 115.357 59.4966 115.44 59.4966H121.909C123.065 59.4966 124.127 59.7778 125.096 60.3403C126.065 60.9028 126.836 61.658 127.409 62.606C127.992 63.5539 128.284 64.6268 128.284 65.8247C128.284 66.606 128.164 67.3143 127.924 67.9497C127.685 68.5851 127.403 69.1216 127.08 69.5591C126.768 69.9966 126.482 70.3195 126.221 70.5278C127.377 71.8091 127.955 73.3143 127.955 75.0435L127.987 81.606C127.987 81.7101 127.935 81.7622 127.83 81.7622H124.205C124.122 81.7622 124.08 81.731 124.08 81.6685V75.0435C124.08 74.2726 123.81 73.606 123.268 73.0435C122.726 72.481 122.06 72.1997 121.268 72.1997H119.159L119.127 81.606C119.127 81.7101 119.086 81.7622 119.002 81.7622ZM121.909 63.3247H119.159V68.356H121.909C122.565 68.356 123.148 68.1112 123.659 67.6216C124.179 67.132 124.44 66.533 124.44 65.8247C124.44 65.1476 124.19 64.5643 123.69 64.0747C123.19 63.5747 122.596 63.3247 121.909 63.3247ZM128.955 81.606L132.924 59.6216C132.945 59.5382 132.997 59.4966 133.08 59.4966H137.721C137.804 59.4966 137.857 59.5382 137.877 59.6216L141.69 81.606C141.7 81.7101 141.659 81.7622 141.565 81.7622H138.018C137.914 81.7622 137.857 81.7101 137.846 81.606L137.502 79.2622H133.143L132.799 81.606C132.789 81.7101 132.737 81.7622 132.643 81.7622H129.08C128.997 81.7622 128.955 81.7101 128.955 81.606ZM135.549 66.856L135.362 65.6685L135.221 66.856L133.784 75.8403H136.862L135.549 66.856ZM147.174 81.7622H143.971C143.804 81.7622 143.721 81.6893 143.721 81.5435L143.69 59.7466C143.69 59.5799 143.773 59.4966 143.94 59.4966H146.83L152.237 72.106L152.08 59.7466C152.08 59.5799 152.174 59.4966 152.362 59.4966H155.534C155.659 59.4966 155.721 59.5799 155.721 59.7466L155.752 81.5747C155.752 81.6997 155.7 81.7622 155.596 81.7622H152.784L147.237 69.981L147.471 81.5122C147.471 81.6789 147.372 81.7622 147.174 81.7622ZM165.362 81.7622H161.752C161.659 81.7622 161.612 81.7101 161.612 81.606V63.356H157.455C157.351 63.356 157.299 63.3039 157.299 63.1997L157.33 59.6216C157.33 59.5382 157.372 59.4966 157.455 59.4966H169.612C169.726 59.4966 169.784 59.5382 169.784 59.6216V63.1997C169.784 63.3039 169.742 63.356 169.659 63.356H165.455L165.487 81.606C165.487 81.7101 165.445 81.7622 165.362 81.7622Z" fill="#825A42"/>
<path d="M104.97 109.889H89.7622C88.6576 109.889 87.7622 110.785 87.7622 111.889V134.26C87.7622 135.365 88.6576 136.26 89.7622 136.26H104.97C106.074 136.26 106.97 135.365 106.97 134.26V111.889C106.97 110.785 106.074 109.889 104.97 109.889Z" fill="#815941" stroke="#693F2A" stroke-linecap="round"/>
<path d="M92.0305 117.081H101.634M92.0305 123.075H101.634M92.0305 129.068H98.6014" stroke="#FED8AD" stroke-width="2" stroke-linecap="round"/>
<path d="M44.4695 158.061V160.234H46.3764V158.061C55.1204 154.362 58.4062 145.989 57.8179 144.3C57.2296 142.611 50.1141 147.125 46.3764 152.991V150.094C51.1831 142.05 47.3463 132.137 45.7408 132.711C44.5588 131.913 40.4144 141.435 44.4695 150.094V152.991C42.0136 146.855 35.5707 143.568 33.6637 145.024C31.7567 146.48 38.6974 155.682 44.4695 158.061Z" fill="#898548" stroke="#6B7131" stroke-width="0.3" stroke-linecap="round"/>
<path d="M55.4391 159.774H36.1954H35.7886C34.5241 159.774 33.5769 160.933 33.8286 162.172L37.0115 177.844C37.2008 178.776 38.0204 179.446 38.9715 179.446H52.2543C53.2054 179.446 54.025 178.776 54.2143 177.844L57.3972 162.172C57.6489 160.933 56.7036 159.774 55.4391 159.774Z" fill="#E4774C" stroke="#DD5E33" stroke-width="0.3" stroke-linecap="round"/>
</svg>
