<svg width="200" height="129" viewBox="0 0 200 129" fill="none" xmlns="http://www.w3.org/2000/svg">
<g clip-path="url(#clip0_971_13394)">
<path fill-rule="evenodd" clip-rule="evenodd" d="M10.2024 1H148.403C152.924 1.04956 157.295 1.6686 160.917 3.70839C164.547 5.75255 167.407 9.21281 168.922 14.9035L180.403 57.0288C184.163 59.0453 187.192 61.453 189.318 64.501C191.458 67.5689 192.675 71.2745 192.814 75.8594L192.814 75.863L192.816 76.0396V97.0702C192.699 97.0587 192.581 97.0528 192.462 97.0528H4.54C4.42056 97.0528 4.3025 97.0587 4.18609 97.0702V7.0033C4.18609 3.68777 6.8797 1 10.2024 1ZM192.462 108C192.581 108 192.699 107.994 192.816 107.983V108H192.462Z" fill="#F66471"/>
<path d="M10.2024 108H192.462C192.581 108 192.699 107.994 192.816 107.983C194.604 107.805 196.001 106.3 196.001 104.469V100.584C196.001 98.753 194.604 97.2474 192.816 97.0702C192.699 97.0587 192.581 97.0528 192.462 97.0528H4.54C4.42056 97.0528 4.3025 97.0587 4.18609 97.0702L4.17815 97.071C2.39358 97.2519 1.00098 98.7557 1.00098 100.584V104.469C1.00098 106.419 2.58545 108 4.54 108H10.2024Z" fill="#DF4368"/>
<path d="M0.000976562 104.469V100.584C0.00105354 98.5506 1.34169 96.8337 3.18652 96.2588V7.00293C3.18672 3.13333 6.32943 0.000150834 10.2021 0L10.2024 1C6.8797 1 4.18609 3.68777 4.18609 7.0033V97.0702L4.17815 97.071C2.39358 97.2519 1.00098 98.7557 1.00098 100.584V104.469L1.00586 104.65C1.0976 106.456 2.54806 107.903 4.35742 107.995L4.54 108H192.816V107.983C194.548 107.811 195.913 106.393 195.997 104.64L196.001 104.469V100.584C196.001 98.753 194.604 97.2474 192.816 97.0702V76.0396L192.814 75.863L192.814 75.8594C192.675 71.2745 191.458 67.5689 189.318 64.501C187.192 61.453 184.163 59.0453 180.403 57.0288L168.922 14.9035C167.407 9.21281 164.547 5.75255 160.917 3.70839C157.295 1.6686 152.924 1.04956 148.403 1H10.2024L10.2021 0H148.414L149.273 0.0166016C153.567 0.134596 157.809 0.810254 161.408 2.83691C165.298 5.02726 168.309 8.72326 169.886 14.6406L181.256 56.3564C184.936 58.382 187.971 60.8212 190.139 63.9287C192.402 67.1741 193.67 71.0735 193.813 75.8291V75.834L193.814 75.8438V75.8535L193.815 76.0303V96.2588C195.66 96.8337 197.001 98.5506 197.001 100.584V104.469C197.001 106.502 195.66 108.218 193.815 108.793V109H4.54004C2.03529 109 0.00103177 106.973 0.000976562 104.469Z" fill="black"/>
<path d="M24.0008 68.8C24.0008 67.8059 24.8067 67 25.8008 67H111.201C112.195 67 113.001 67.8059 113.001 68.8V70.2C113.001 71.1941 112.195 72 111.201 72H25.8008C24.8067 72 24.0008 71.1941 24.0008 70.2V68.8Z" fill="#FFC87B"/>
<path d="M29.0008 20H108.001V67H29.0008V20Z" fill="#656672"/>
<path d="M176.81 108.947C176.81 118.917 168.714 127 158.728 127C148.742 127 140.646 118.917 140.646 108.947C140.646 108.71 140.651 108.474 140.66 108.239C141.032 98.5966 148.979 90.8938 158.728 90.8938C168.477 90.8938 176.424 98.5966 176.796 108.239C176.805 108.474 176.81 108.71 176.81 108.947Z" fill="#3F3F56"/>
<path d="M168.655 108.947C168.655 114.421 164.211 118.858 158.728 118.858C153.245 118.858 148.801 114.421 148.801 108.947C148.801 103.473 153.245 99.0354 158.728 99.0354C164.211 99.0354 168.655 103.473 168.655 108.947Z" fill="#69688F"/>
<path d="M180.001 108.239C180.001 102.606 177.759 97.2038 173.77 93.2207C169.781 89.2377 164.37 87 158.728 87C153.086 87 147.675 89.2377 143.686 93.2207C139.697 97.2038 137.455 102.606 137.455 108.239H140.66C141.032 98.5966 148.979 90.8938 158.728 90.8938C168.477 90.8938 176.424 98.5966 176.796 108.239H180.001Z" fill="#DF4368"/>
<path d="M63.3553 108.947C63.3553 118.917 55.2598 127 45.2734 127C35.2871 127 27.1916 118.917 27.1916 108.947C27.1916 108.71 27.1962 108.474 27.2053 108.239C27.5777 98.5966 35.5246 90.8938 45.2734 90.8938C55.0223 90.8938 62.9692 98.5966 63.3416 108.239C63.3507 108.474 63.3553 108.71 63.3553 108.947Z" fill="#3F3F56"/>
<path d="M55.2007 108.947C55.2007 114.421 50.7561 118.858 45.2734 118.858C39.7908 118.858 35.3462 114.421 35.3462 108.947C35.3462 103.473 39.7908 99.0354 45.2734 99.0354C50.7561 99.0354 55.2007 103.473 55.2007 108.947Z" fill="#69688F"/>
<path d="M66.5462 108.239C66.5462 102.606 64.3049 97.2038 60.3155 93.2207C56.3261 89.2377 50.9153 87 45.2734 87C39.6316 87 34.2208 89.2377 30.2314 93.2207C26.2419 97.2038 24.0007 102.606 24.0007 108.239H27.2053C27.5777 98.5966 35.5246 90.8938 45.2734 90.8938C55.0223 90.8938 62.9692 98.5966 63.3416 108.239H66.5462Z" fill="#DF4368"/>
<path d="M45.2732 86C51.1797 86 56.8451 88.3423 61.0222 92.5127C65.1993 96.6832 67.5466 102.341 67.5466 108.239V109.239H64.3513C64.1948 119.629 55.7125 128 45.2732 128C34.834 128 26.3516 119.629 26.1951 109.239H23.0007V108.239C23.0007 102.341 25.348 96.6832 29.5251 92.5127C33.7021 88.3425 39.3669 86.0001 45.2732 86ZM158.728 86C164.635 86.0001 170.299 88.3425 174.476 92.5127C178.653 96.6832 181.001 102.341 181.001 108.239V109.239H177.806C177.65 119.629 169.167 128 158.728 128C148.289 128 139.807 119.629 139.65 109.239H136.455V108.239C136.455 102.341 138.802 96.6832 142.979 92.5127C147.156 88.3423 152.822 86 158.728 86ZM45.2734 87C39.6316 87 34.2208 89.2377 30.2314 93.2207C26.2419 97.2038 24.0007 102.606 24.0007 108.239H27.2053C27.1962 108.474 27.1916 108.71 27.1916 108.947C27.1918 118.761 35.036 126.747 44.8064 126.994L45.2734 127C55.2598 127 63.3553 118.917 63.3553 108.947C63.3553 108.71 63.3507 108.474 63.3416 108.239H66.5462C66.5462 102.606 64.3049 97.2038 60.3155 93.2207C56.3261 89.2377 50.9153 87 45.2734 87ZM158.728 87C153.086 87 147.675 89.2377 143.686 93.2207L143.317 93.5986C139.559 97.542 137.455 102.782 137.455 108.239H140.66C140.651 108.474 140.646 108.71 140.646 108.947C140.646 118.761 148.491 126.747 158.261 126.994L158.728 127C168.714 127 176.81 118.917 176.81 108.947C176.81 108.71 176.805 108.474 176.796 108.239H180.001C180.001 102.782 177.898 97.542 174.139 93.5986L173.77 93.2207C169.905 89.3622 164.707 87.142 159.257 87.0068L158.728 87Z" fill="black"/>
<path d="M184.001 79.8C184.001 78.8059 184.807 78 185.801 78H191.201C192.195 78 193.001 78.8059 193.001 79.8V85.2C193.001 86.1941 192.195 87 191.201 87H185.801C184.807 87 184.001 86.1941 184.001 85.2V79.8Z" fill="#FFC87B"/>
<path d="M133.001 68.8C133.001 67.8059 133.806 67 134.801 67H145.201C146.195 67 147.001 67.8059 147.001 68.8V70.2C147.001 71.1941 146.195 72 145.201 72H134.801C133.806 72 133.001 71.1941 133.001 70.2V68.8Z" fill="#DF4368"/>
<path d="M108.001 20H112.001V71H108.001L108.001 20Z" fill="#FFC87B"/>
<path d="M25.0006 20H29.0008L29.0006 71H25.0006V20Z" fill="#FFC87B"/>
<path d="M32.429 31.6896C34.2074 33.1084 36.7808 34 39.6433 34C42.5059 34 45.0793 33.1084 46.8576 31.6896V20H32.429V31.6896Z" fill="#FFB4AD"/>
<path d="M46.8576 31.6896C48.6359 33.1084 51.2094 34 54.0719 34C56.9344 34 59.5078 33.1084 61.2862 31.6896V20H46.8576V31.6896Z" fill="#FFE5E3"/>
<path d="M61.2862 31.6896C63.0645 33.1084 65.6379 34 68.5005 34C71.363 34 73.9364 33.1084 75.7148 31.6896V20H61.2862V31.6896Z" fill="#FFB4AD"/>
<path d="M32.429 31.6896V20H18.0005V31.6896C19.7788 33.1084 22.3522 34 25.2147 34C28.0773 34 30.6507 33.1084 32.429 31.6896Z" fill="#FFE5E3"/>
<path d="M75.7148 31.6896C77.4931 33.1084 80.0665 34 82.929 34C85.7916 34 88.365 33.1084 90.1433 31.6896V20H75.7148V31.6896Z" fill="#FFE5E3"/>
<path d="M90.1433 31.6896C91.9217 33.1084 94.4951 34 97.3576 34C100.22 34 102.794 33.1084 104.572 31.6896V20H90.1433V31.6896Z" fill="#FFB4AD"/>
<path d="M104.572 31.6896C106.35 33.1084 108.924 34 111.786 34C114.649 34 117.222 33.1084 119 31.6896V20H104.572V31.6896Z" fill="#FFE5E3"/>
<mask id="mask0_971_13394" style="mask-type:alpha" maskUnits="userSpaceOnUse" x="134" y="21" width="38" height="40">
<path d="M134 27.14C134 23.749 136.749 21 140.14 21H157.827C160.562 21 162.967 22.8086 163.726 25.4359L171.734 53.1559C172.868 57.0821 169.922 61 165.835 61H140.14C136.749 61 134 58.251 134 54.86V27.14Z" fill="#6F56FF"/>
</mask>
<g mask="url(#mask0_971_13394)">
<path d="M131 19H175V65H131V19Z" fill="#6F56FF"/>
<path d="M167.365 30L171 31.7491L153.635 65L150 63.2509L167.365 30Z" fill="#A99AFF"/>
<path d="M152.327 18L157 20.2988L134.673 64L130 61.7012L152.327 18Z" fill="#A99AFF"/>
</g>
</g>
<defs>
<clipPath id="clip0_971_13394">
<rect width="199.265" height="129" fill="white"/>
</clipPath>
</defs>
</svg>
