<svg width="200" height="129" viewBox="0 0 200 129" fill="none" xmlns="http://www.w3.org/2000/svg">
<path fill-rule="evenodd" clip-rule="evenodd" d="M10.2015 1H148.402C152.923 1.04956 157.294 1.6686 160.916 3.70839C164.546 5.75255 167.406 9.21281 168.921 14.9035L180.402 57.0288C184.162 59.0453 187.191 61.453 189.317 64.501C191.457 67.5689 192.674 71.2745 192.813 75.8594L192.813 75.863L192.815 76.0396V97.0702C192.698 97.0587 192.58 97.0528 192.461 97.0528H4.53902C4.41958 97.0528 4.30152 97.0587 4.18512 97.0702V7.0033C4.18512 3.68777 6.87872 1 10.2015 1ZM192.461 108C192.58 108 192.698 107.994 192.815 107.983V108H192.461Z" fill="#F66471"/>
<path d="M10.2014 108H192.461C192.58 108 192.698 107.994 192.815 107.983C194.603 107.805 196 106.3 196 104.469V100.584C196 98.753 194.603 97.2474 192.815 97.0702C192.698 97.0587 192.58 97.0528 192.461 97.0528H4.53902C4.41958 97.0528 4.30152 97.0587 4.18512 97.0702L4.17718 97.071C2.3926 97.2519 1 98.7557 1 100.584V104.469C1 106.419 2.58448 108 4.53902 108H10.2014Z" fill="#DF4368"/>
<path d="M193.314 96.6436C195.135 97.0346 196.5 98.649 196.5 100.584V104.469C196.5 106.404 195.135 108.017 193.314 108.408V108.5H4.53906C2.30943 108.5 0.500054 106.696 0.5 104.469V100.584C0.500083 98.649 1.86533 97.0346 3.68555 96.6436V7.00293C3.68575 3.4105 6.60358 0.500151 10.2012 0.5H148.407L149.26 0.516602C153.516 0.633725 157.665 1.30292 161.162 3.27246L161.512 3.47559C165.104 5.61588 167.905 9.14965 169.402 14.7725H169.403L180.828 56.6924C184.547 58.7131 187.58 61.1362 189.728 64.2148L190.129 64.8145C192.08 67.8502 193.18 71.4656 193.312 75.8438V75.8447L193.313 75.8486V75.8584L193.314 76.0352V96.6436Z" stroke="black"/>
<rect x="24" y="67" width="89" height="5" rx="1.8" fill="#FFC87B"/>
<rect x="29" y="20" width="79" height="47" fill="#656672"/>
<path d="M176.809 108.947C176.809 118.917 168.714 127 158.727 127C148.741 127 140.645 118.917 140.645 108.947C140.645 108.71 140.65 108.474 140.659 108.239C141.032 98.5966 148.978 90.8938 158.727 90.8938C168.476 90.8938 176.423 98.5966 176.795 108.239C176.805 108.474 176.809 108.71 176.809 108.947Z" fill="#3F3F56"/>
<path d="M168.655 108.947C168.655 114.421 164.21 118.858 158.727 118.858C153.245 118.858 148.8 114.421 148.8 108.947C148.8 103.473 153.245 99.0354 158.727 99.0354C164.21 99.0354 168.655 103.473 168.655 108.947Z" fill="#69688F"/>
<path d="M180 108.239C180 102.606 177.759 97.2038 173.769 93.2207C169.78 89.2377 164.369 87 158.727 87C153.085 87 147.675 89.2377 143.685 93.2207C139.696 97.2038 137.455 102.606 137.455 108.239H140.659C141.032 98.5966 148.978 90.8938 158.727 90.8938C168.476 90.8938 176.423 98.5966 176.795 108.239H180Z" fill="#DF4368"/>
<path d="M63.3545 108.947C63.3545 118.917 55.259 127 45.2727 127C35.2864 127 27.1909 118.917 27.1909 108.947C27.1909 108.71 27.1955 108.474 27.2046 108.239C27.577 98.5966 35.5239 90.8938 45.2727 90.8938C55.0216 90.8938 62.9685 98.5966 63.3409 108.239C63.35 108.474 63.3545 108.71 63.3545 108.947Z" fill="#3F3F56"/>
<path d="M55.2 108.947C55.2 114.421 50.7554 118.858 45.2727 118.858C39.79 118.858 35.3455 114.421 35.3455 108.947C35.3455 103.473 39.79 99.0354 45.2727 99.0354C50.7554 99.0354 55.2 103.473 55.2 108.947Z" fill="#69688F"/>
<path d="M66.5455 108.239C66.5455 102.606 64.3042 97.2038 60.3148 93.2207C56.3254 89.2377 50.9146 87 45.2727 87C39.6309 87 34.22 89.2377 30.2306 93.2207C26.2412 97.2038 24 102.606 24 108.239H27.2046C27.577 98.5966 35.5239 90.8938 45.2727 90.8938C55.0216 90.8938 62.9685 98.5966 63.3409 108.239H66.5455Z" fill="#DF4368"/>
<path d="M45.8135 86.5068C51.3917 86.6451 56.7124 88.9179 60.668 92.8672C64.7512 96.944 67.0459 102.474 67.0459 108.239V108.739H63.8506C63.8513 108.808 63.8545 108.878 63.8545 108.947C63.8543 119.194 55.534 127.5 45.2725 127.5C35.011 127.5 26.6906 119.194 26.6904 108.947C26.6904 108.878 26.6936 108.808 26.6943 108.739H23.5V108.239C23.5 102.474 25.7939 96.9439 29.877 92.8672L30.2646 92.4902C34.3071 88.6496 39.6788 86.5001 45.2725 86.5L45.8135 86.5068ZM158.728 86.5C164.502 86.5001 170.04 88.7905 174.123 92.8672C178.206 96.9439 180.5 102.474 180.5 108.239V108.739H177.306C177.306 108.808 177.31 108.878 177.31 108.947C177.309 119.194 168.989 127.5 158.728 127.5C148.466 127.5 140.146 119.194 140.146 108.947C140.146 108.878 140.149 108.808 140.149 108.739H136.954V108.239C136.954 102.474 139.249 96.944 143.332 92.8672L143.719 92.4902C147.761 88.6494 153.134 86.5 158.728 86.5Z" stroke="black"/>
<rect x="184" y="78" width="9" height="9" rx="1.8" fill="#FFC87B"/>
<rect x="133" y="67" width="14" height="5" rx="1.8" fill="#DF4368"/>
<rect x="108" y="20" width="4" height="51" fill="#FFC87B"/>
<rect x="25" y="20" width="4" height="51" fill="#FFC87B"/>
<path d="M32.4286 31.6896C34.2069 33.1084 36.7803 34 39.6429 34C42.5054 34 45.0788 33.1084 46.8572 31.6896V20H32.4286V31.6896Z" fill="#FFB4AD"/>
<path d="M46.8572 31.6896C48.6355 33.1084 51.2089 34 54.0714 34C56.934 34 59.5074 33.1084 61.2857 31.6896V20H46.8572V31.6896Z" fill="#FFE5E3"/>
<path d="M61.2857 31.6896C63.0641 33.1084 65.6375 34 68.5 34C71.3625 34 73.936 33.1084 75.7143 31.6896V20H61.2857V31.6896Z" fill="#FFB4AD"/>
<path d="M32.4286 31.6896V20H18V31.6896C19.7783 33.1084 22.3518 34 25.2143 34C28.0768 34 30.6502 33.1084 32.4286 31.6896Z" fill="#FFE5E3"/>
<path d="M75.7143 31.6896C77.4926 33.1084 80.0661 34 82.9286 34C85.7911 34 88.3645 33.1084 90.1429 31.6896V20H75.7143V31.6896Z" fill="#FFE5E3"/>
<path d="M90.1429 31.6896C91.9212 33.1084 94.4946 34 97.3571 34C100.22 34 102.793 33.1084 104.571 31.6896V20H90.1429V31.6896Z" fill="#FFB4AD"/>
<path d="M104.571 31.6896C106.35 33.1084 108.923 34 111.786 34C114.648 34 117.222 33.1084 119 31.6896V20H104.571V31.6896Z" fill="#FFE5E3"/>
<mask id="mask0_306_271" style="mask-type:alpha" maskUnits="userSpaceOnUse" x="134" y="21" width="38" height="40">
<path d="M134 27.14C134 23.749 136.749 21 140.14 21H157.827C160.562 21 162.967 22.8086 163.726 25.4359L171.734 53.1559C172.868 57.0821 169.922 61 165.835 61H140.14C136.749 61 134 58.251 134 54.86V27.14Z" fill="#6F56FF"/>
</mask>
<g mask="url(#mask0_306_271)">
<rect x="131" y="19" width="44" height="46" fill="#6F56FF"/>
<path d="M167.365 30L171 31.7491L153.635 65L150 63.2509L167.365 30Z" fill="#A99AFF"/>
<path d="M152.327 18L157 20.2988L134.673 64L130 61.7012L152.327 18Z" fill="#A99AFF"/>
</g>
</svg>
