<svg width="200" height="200" viewBox="0 0 200 200" fill="none" xmlns="http://www.w3.org/2000/svg">
<path d="M45.8057 35.462H14.875C12.5755 35.462 12.5755 45.5175 14.875 45.5175H20.6255V189.471H179.917V45.5175C179.917 45.5175 183.621 45.5463 185.667 45.5175C187.713 45.4888 187.155 35.4338 185.666 35.462C184.312 35.4877 159.215 35.4666 154.723 35.4626C154.267 35.4622 153.825 35.3577 153.416 35.1571L100.867 9.43279C100.31 9.15989 99.6572 9.16128 99.101 9.43653L47.1319 35.1508C46.7182 35.3555 46.2672 35.462 45.8057 35.462Z" fill="#E7AC47" stroke="#D79334" stroke-width="0.3" stroke-linecap="round"/>
<path d="M36.7773 143.6C35.7559 143.906 35.1998 143.913 34.1792 143.6V150.352H36.7773V143.6Z" fill="#F4BF4A"/>
<path d="M46.9224 142.126C45.9078 142.459 45.339 142.423 44.3243 142.126V148.634H46.9224V142.126Z" fill="#F4BF4A"/>
<path d="M57.5624 143.6C56.3015 143.858 55.5776 143.866 54.2219 143.6V150.352H57.5624V143.6Z" fill="#F4BF4A"/>
<path d="M36.7773 143.6C35.7559 143.906 35.1998 143.913 34.1792 143.6V150.352H36.7773V143.6Z" stroke="#F1BE4D" stroke-linejoin="round"/>
<path d="M46.9224 142.126C45.9078 142.459 45.339 142.423 44.3243 142.126V148.634H46.9224V142.126Z" stroke="#F1BE4D" stroke-linejoin="round"/>
<path d="M57.5624 143.6C56.3015 143.858 55.5776 143.866 54.2219 143.6V150.352H57.5624V143.6Z" stroke="#F1BE4D" stroke-linejoin="round"/>
<path d="M41.8644 157.435C42.4862 156.565 43.1694 156.106 45.4334 155.379C47.8715 156.194 48.6996 156.643 49.4947 157.435C49.7647 165.469 48.9222 168.225 45.4334 169.889C41.7834 166.71 41.6716 163.483 41.8644 157.435Z" fill="#B76D01" stroke="#A96300" stroke-linejoin="round"/>
<path d="M44.2233 161.892C44.19 160.681 44.2233 159.873 44.2233 158.579C44.2233 156.839 44.4233 155.828 44.2233 154.123C43.762 154.245 43.4146 154.262 42.5004 154.123C41.9173 153.677 41.8568 153.427 42.5004 152.981C43.296 153.157 43.704 153.198 44.2233 152.981C44.5251 151.597 44.4907 150.822 44.2233 149.439H43.1157C41.8215 148.392 42.0451 148.181 43.1157 148.068C45.0122 148.369 46.1484 148.413 48.4077 148.068C49.4688 148.316 49.5149 148.606 48.4077 149.439H46.8078C46.4046 150.862 46.3604 151.641 46.8078 152.981C46.8078 152.981 47.7836 153.404 48.4077 152.981C48.8554 153.468 48.8651 153.719 48.4077 154.123C47.8607 154.307 47.5486 154.398 46.8078 154.123C46.5104 156.073 46.5267 157.046 46.8078 158.579V161.892C45.7529 163.276 45.1883 163.24 44.2233 161.892Z" fill="#A15D03"/>
<path d="M49.3922 160.064V158.579C50.4548 158.932 51.0703 158.949 52.2228 158.579C53.7234 157.48 54.4088 156.732 54.8073 154.694C53.8401 153.693 53.81 153.283 54.8073 152.866C55.0538 152.331 55.03 152.031 54.8073 151.495L53.6997 151.267C52.733 150.461 52.858 150.226 53.6997 150.01C55.4344 150.44 56.4866 150.479 58.4994 150.239C59.0738 150.502 59.082 150.716 58.2532 151.267L56.5303 151.495C56.4469 152.031 56.439 152.331 56.5303 152.866C57.4669 153.407 57.3996 153.819 56.5303 154.694C56.0974 158.03 54.7242 158.779 52.2228 160.064C51.1139 160.367 50.4984 160.36 49.3922 160.064Z" fill="#A15D03"/>
<path d="M41.7619 160.292V158.579C39.5166 159.392 38.2124 158.161 36.593 154.694C37.427 153.79 37.4296 153.374 36.2238 152.866C36.037 152.331 36.0203 152.03 36.2238 151.495L37.5776 151.267C38.4855 150.639 38.2895 150.324 37.5776 149.782C35.5314 150.563 34.7223 150.276 33.2702 149.782C32.5699 150.205 32.4572 150.506 33.2702 151.267L34.3778 151.495C34.683 152.031 34.6564 152.331 34.3778 152.866L34.0086 153.552C33.8734 154.114 34.0535 154.366 34.8701 154.694C35.6636 157.47 36.3134 158.891 39.1775 160.292C40.2752 160.538 40.8511 160.537 41.7619 160.292Z" fill="#A15D03"/>
<path d="M44.2233 152.981C44.5251 151.597 44.4907 150.822 44.2233 149.439H43.1157C41.8215 148.392 42.0451 148.181 43.1157 148.068C45.0122 148.369 46.1484 148.413 48.4077 148.068C49.4688 148.316 49.5149 148.606 48.4077 149.439H46.8078C46.4046 150.862 46.3604 151.641 46.8078 152.981M44.2233 152.981C43.704 153.198 43.296 153.157 42.5004 152.981C41.8568 153.427 41.9173 153.677 42.5004 154.123C43.4146 154.262 43.762 154.245 44.2233 154.123M44.2233 152.981V154.123M44.2233 154.123C44.4233 155.828 44.2233 156.839 44.2233 158.579C44.2233 159.873 44.19 160.681 44.2233 161.892C45.1883 163.24 45.7529 163.276 46.8078 161.892V158.579C46.5267 157.046 46.5104 156.073 46.8078 154.123M46.8078 152.981C46.8078 152.981 47.7836 153.404 48.4077 152.981C48.8554 153.468 48.8651 153.719 48.4077 154.123C47.8607 154.307 47.5486 154.398 46.8078 154.123M46.8078 152.981V154.123M49.3922 158.579V160.064C50.4984 160.36 51.1139 160.367 52.2228 160.064C54.7242 158.779 56.0974 158.03 56.5303 154.694C57.3996 153.819 57.4669 153.407 56.5303 152.866C56.439 152.331 56.4469 152.031 56.5303 151.495L58.2532 151.267C59.082 150.716 59.0738 150.502 58.4994 150.239C56.4866 150.479 55.4344 150.44 53.6997 150.01C52.858 150.226 52.733 150.461 53.6997 151.267L54.8073 151.495C55.03 152.031 55.0538 152.331 54.8073 152.866C53.81 153.283 53.8401 153.693 54.8073 154.694C54.4088 156.732 53.7234 157.48 52.2228 158.579C51.0703 158.949 50.4548 158.932 49.3922 158.579ZM41.7619 158.579V160.292C40.8511 160.537 40.2752 160.538 39.1775 160.292C36.3134 158.891 35.6636 157.47 34.8701 154.694C34.0535 154.366 33.8734 154.114 34.0086 153.552C34.1528 153.284 34.2336 153.134 34.3778 152.866C34.6564 152.331 34.683 152.031 34.3778 151.495L33.2702 151.267C32.4572 150.506 32.5699 150.205 33.2702 149.782C34.7223 150.276 35.5314 150.563 37.5776 149.782C38.2895 150.324 38.4855 150.639 37.5776 151.267L36.2238 151.495C36.0203 152.03 36.037 152.331 36.2238 152.866C37.4296 153.374 37.427 153.79 36.593 154.694C38.2124 158.161 39.5166 159.392 41.7619 158.579Z" stroke="#A85D00" stroke-linejoin="round"/>
<path d="M36.8668 143.612C35.808 144.001 35.2193 144.04 34.1593 143.612C34.1593 143.612 32.2421 141.553 32.8056 139.727C33.2875 138.165 35.3536 136.459 35.7294 135.833C35.6971 135.72 35.7032 135.644 35.7592 135.614C35.8081 135.652 35.7929 135.727 35.7294 135.833C35.9267 136.527 37.5588 138.621 37.9745 140.07C38.3739 141.462 36.8668 143.612 36.8668 143.612Z" fill="#FEDE7F"/>
<path d="M47.0816 142.469C46.072 142.891 45.4774 142.881 44.3741 142.469C43.1275 141.443 43.0203 140.755 43.0203 139.156C43.0203 137.556 44.9406 135.257 46.3432 133.9C46.6787 134.967 49.0507 138.242 48.9276 139.727C48.8046 141.212 48.3129 141.543 47.0816 142.469Z" fill="#FEDE7F"/>
<path d="M57.6656 143.612C56.3145 144.315 55.5959 144.191 54.3427 143.612C53.6884 142.896 53.0008 142.42 53.2351 140.413C53.4694 138.405 55.5187 137.254 56.3118 135.614C57.6799 137.571 59.1424 139.156 59.1424 140.984C59.1424 142.812 57.6656 143.612 57.6656 143.612Z" fill="#FEDE7F"/>
<path d="M36.8668 143.612C35.808 144.001 35.2193 144.04 34.1593 143.612C34.1593 143.612 32.2421 141.553 32.8056 139.727C33.2875 138.165 35.3536 136.459 35.7294 135.833C35.6971 135.72 35.7032 135.644 35.7592 135.614C35.8081 135.652 35.7929 135.727 35.7294 135.833C35.9267 136.527 37.5588 138.621 37.9745 140.07C38.3739 141.462 36.8668 143.612 36.8668 143.612Z" stroke="#F2B333" stroke-linejoin="round"/>
<path d="M47.0816 142.469C46.072 142.891 45.4774 142.881 44.3741 142.469C43.1275 141.443 43.0203 140.755 43.0203 139.156C43.0203 137.556 44.9406 135.257 46.3432 133.9C46.6787 134.967 49.0507 138.242 48.9276 139.727C48.8046 141.212 48.3129 141.543 47.0816 142.469Z" stroke="#F2B333" stroke-linejoin="round"/>
<path d="M57.6656 143.612C56.3145 144.315 55.5959 144.191 54.3427 143.612C53.6884 142.896 53.0008 142.42 53.2351 140.413C53.4694 138.405 55.5187 137.254 56.3118 135.614C57.6799 137.571 59.1424 139.156 59.1424 140.984C59.1424 142.812 57.6656 143.612 57.6656 143.612Z" stroke="#F2B333" stroke-linejoin="round"/>
<path d="M144.813 143.6C143.788 143.906 143.23 143.913 142.205 143.6V150.352H144.813V143.6Z" fill="#F4BF4A"/>
<path d="M154.997 142.126C153.979 142.459 153.408 142.423 152.389 142.126V148.634H154.997V142.126Z" fill="#F4BF4A"/>
<path d="M165.678 143.6C164.412 143.858 163.685 143.866 162.325 143.6V150.352H165.678V143.6Z" fill="#F4BF4A"/>
<path d="M144.813 143.6C143.788 143.906 143.23 143.913 142.205 143.6V150.352H144.813V143.6Z" stroke="#F1BE4D" stroke-linejoin="round"/>
<path d="M154.997 142.126C153.979 142.459 153.408 142.423 152.389 142.126V148.634H154.997V142.126Z" stroke="#F1BE4D" stroke-linejoin="round"/>
<path d="M165.678 143.6C164.412 143.858 163.685 143.866 162.325 143.6V150.352H165.678V143.6Z" stroke="#F1BE4D" stroke-linejoin="round"/>
<path d="M149.921 157.435C150.545 156.565 151.231 156.106 153.504 155.379C155.951 156.194 156.782 156.643 157.581 157.435C157.852 165.469 157.006 168.225 153.504 169.889C149.84 166.71 149.727 163.483 149.921 157.435Z" fill="#B76D01" stroke="#A96300" stroke-linejoin="round"/>
<path d="M152.289 161.892C152.255 160.681 152.289 159.873 152.289 158.579C152.289 156.839 152.49 155.828 152.289 154.123C151.826 154.245 151.477 154.262 150.559 154.123C149.974 153.677 149.913 153.427 150.559 152.981C151.358 153.157 151.768 153.198 152.289 152.981C152.592 151.597 152.557 150.822 152.289 149.439H151.177C149.878 148.392 150.102 148.181 151.177 148.068C153.081 148.369 154.221 148.413 156.489 148.068C157.555 148.316 157.601 148.606 156.489 149.439H154.883C154.479 150.862 154.434 151.641 154.883 152.981C154.883 152.981 155.863 153.404 156.489 152.981C156.939 153.468 156.949 153.719 156.489 154.123C155.94 154.307 155.627 154.398 154.883 154.123C154.585 156.073 154.601 157.046 154.883 158.579V161.892C153.824 163.276 153.258 163.24 152.289 161.892Z" fill="#A15D03"/>
<path d="M157.478 160.064V158.579C158.544 158.932 159.162 158.949 160.319 158.579C161.825 157.48 162.513 156.732 162.913 154.694C161.943 153.693 161.912 153.283 162.913 152.866C163.161 152.331 163.137 152.031 162.913 151.495L161.802 151.267C160.831 150.461 160.957 150.226 161.802 150.01C163.543 150.44 164.599 150.479 166.62 150.239C167.196 150.502 167.205 150.716 166.373 151.267L164.643 151.495C164.559 152.031 164.551 152.331 164.643 152.866C165.583 153.407 165.516 153.819 164.643 154.694C164.208 158.03 162.83 158.779 160.319 160.064C159.206 160.367 158.588 160.36 157.478 160.064Z" fill="#A15D03"/>
<path d="M149.818 160.292V158.579C147.564 159.392 146.255 158.161 144.629 154.694C145.467 153.79 145.469 153.374 144.259 152.866C144.071 152.331 144.055 152.03 144.259 151.495L145.618 151.267C146.529 150.639 146.332 150.324 145.618 149.782C143.564 150.563 142.751 150.276 141.294 149.782C140.591 150.205 140.478 150.506 141.294 151.267L142.406 151.495C142.712 152.031 142.685 152.331 142.406 152.866L142.035 153.552C141.899 154.114 142.08 154.366 142.9 154.694C143.696 157.47 144.349 158.891 147.224 160.292C148.326 160.538 148.904 160.537 149.818 160.292Z" fill="#A15D03"/>
<path d="M152.289 152.981C152.592 151.597 152.557 150.822 152.289 149.439H151.177C149.878 148.392 150.102 148.181 151.177 148.068C153.081 148.369 154.221 148.413 156.489 148.068C157.555 148.316 157.601 148.606 156.489 149.439H154.883C154.479 150.862 154.434 151.641 154.883 152.981M152.289 152.981C151.768 153.198 151.358 153.157 150.559 152.981C149.913 153.427 149.974 153.677 150.559 154.123C151.477 154.262 151.826 154.245 152.289 154.123M152.289 152.981V154.123M152.289 154.123C152.49 155.828 152.289 156.839 152.289 158.579C152.289 159.873 152.255 160.681 152.289 161.892C153.258 163.24 153.824 163.276 154.883 161.892V158.579C154.601 157.046 154.585 156.073 154.883 154.123M154.883 152.981C154.883 152.981 155.863 153.404 156.489 152.981C156.939 153.468 156.949 153.719 156.489 154.123C155.94 154.307 155.627 154.398 154.883 154.123M154.883 152.981V154.123M157.478 158.579V160.064C158.588 160.36 159.206 160.367 160.319 160.064C162.83 158.779 164.208 158.03 164.643 154.694C165.516 153.819 165.583 153.407 164.643 152.866C164.551 152.331 164.559 152.031 164.643 151.495L166.373 151.267C167.205 150.716 167.196 150.502 166.62 150.239C164.599 150.479 163.543 150.44 161.802 150.01C160.957 150.226 160.831 150.461 161.802 151.267L162.913 151.495C163.137 152.031 163.161 152.331 162.913 152.866C161.912 153.283 161.943 153.693 162.913 154.694C162.513 156.732 161.825 157.48 160.319 158.579C159.162 158.949 158.544 158.932 157.478 158.579ZM149.818 158.579V160.292C148.904 160.537 148.326 160.538 147.224 160.292C144.349 158.891 143.696 157.47 142.9 154.694C142.08 154.366 141.899 154.114 142.035 153.552C142.18 153.284 142.261 153.134 142.406 152.866C142.685 152.331 142.712 152.031 142.406 151.495L141.294 151.267C140.478 150.506 140.591 150.205 141.294 149.782C142.751 150.276 143.564 150.563 145.618 149.782C146.332 150.324 146.529 150.639 145.618 151.267L144.259 151.495C144.055 152.03 144.071 152.331 144.259 152.866C145.469 153.374 145.467 153.79 144.629 154.694C146.255 158.161 147.564 159.392 149.818 158.579Z" stroke="#A85D00" stroke-linejoin="round"/>
<path d="M144.904 143.612C143.841 144.001 143.25 144.04 142.186 143.612C142.186 143.612 140.262 141.553 140.827 139.727C141.311 138.165 143.385 136.459 143.762 135.833C143.73 135.72 143.736 135.644 143.792 135.614C143.841 135.652 143.826 135.727 143.762 135.833C143.961 136.527 145.599 138.621 146.016 140.07C146.417 141.462 144.904 143.612 144.904 143.612Z" fill="#FEDE7F"/>
<path d="M155.158 142.469C154.145 142.891 153.548 142.881 152.44 142.469C151.189 141.443 151.081 140.755 151.081 139.156C151.081 137.556 153.009 135.257 154.417 133.9C154.754 134.967 157.135 138.242 157.011 139.727C156.888 141.212 156.394 141.543 155.158 142.469Z" fill="#FEDE7F"/>
<path d="M165.783 143.612C164.426 144.315 163.705 144.191 162.447 143.612C161.79 142.896 161.1 142.42 161.335 140.413C161.57 138.405 163.628 137.254 164.424 135.614C165.797 137.571 167.265 139.156 167.265 140.984C167.265 142.812 165.783 143.612 165.783 143.612Z" fill="#FEDE7F"/>
<path d="M144.904 143.612C143.841 144.001 143.25 144.04 142.186 143.612C142.186 143.612 140.262 141.553 140.827 139.727C141.311 138.165 143.385 136.459 143.762 135.833C143.73 135.72 143.736 135.644 143.792 135.614C143.841 135.652 143.826 135.727 143.762 135.833C143.961 136.527 145.599 138.621 146.016 140.07C146.417 141.462 144.904 143.612 144.904 143.612Z" stroke="#F2B333" stroke-linejoin="round"/>
<path d="M155.158 142.469C154.145 142.891 153.548 142.881 152.44 142.469C151.189 141.443 151.081 140.755 151.081 139.156C151.081 137.556 153.009 135.257 154.417 133.9C154.754 134.967 157.135 138.242 157.011 139.727C156.888 141.212 156.394 141.543 155.158 142.469Z" stroke="#F2B333" stroke-linejoin="round"/>
<path d="M165.783 143.612C164.426 144.315 163.705 144.191 162.447 143.612C161.79 142.896 161.1 142.42 161.335 140.413C161.57 138.405 163.628 137.254 164.424 135.614C165.797 137.571 167.265 139.156 167.265 140.984C167.265 142.812 165.783 143.612 165.783 143.612Z" stroke="#F2B333" stroke-linejoin="round"/>
<path d="M184.817 190H15.1504C14.0458 190 13.1504 189.105 13.1504 188V178.24C13.1504 177.135 14.0458 176.24 15.1504 176.24H184.817C185.922 176.24 186.817 177.135 186.817 178.24V188C186.817 189.105 185.922 190 184.817 190Z" fill="#D89434" stroke="#D79334" stroke-width="0.3" stroke-linecap="round"/>
<path d="M98.2585 190V173.247C98.2585 171.977 99.2884 170.947 100.559 170.947C101.829 170.947 102.859 171.977 102.859 173.247V190H98.2585Z" fill="#E7AC47" stroke="#E7AC47" stroke-width="0.3" stroke-linecap="round"/>
<path d="M101.709 189.471H124.136C124.136 189.471 124.625 164.597 124.136 152.424C123.647 140.252 115.264 135.176 101.709 131.784V189.471Z" fill="#CC8830" stroke="#CC8930" stroke-width="0.3" stroke-linecap="round"/>
<path d="M104.009 164.989V162.088C104.009 161.135 104.781 160.363 105.734 160.363C106.687 160.363 107.459 161.135 107.459 162.088V164.989C107.459 165.941 106.687 166.714 105.734 166.714C104.781 166.714 104.009 165.941 104.009 164.989Z" fill="#EEB34D" stroke="#E8AD47" stroke-width="0.3" stroke-linecap="round"/>
<path d="M99.0507 189.471H76.6236C76.6236 189.471 76.1347 164.597 76.6236 152.424C77.1125 140.252 85.4951 135.176 99.0507 131.784V189.471Z" fill="#CC8830" stroke="#CC8930" stroke-width="0.3" stroke-linecap="round"/>
<path d="M93.6582 164.989V162.088C93.6582 161.135 94.4306 160.363 95.3834 160.363C96.3362 160.363 97.1085 161.135 97.1085 162.088V164.989C97.1085 165.941 96.3362 166.714 95.3834 166.714C94.4306 166.714 93.6582 165.941 93.6582 164.989Z" fill="#EEB34D" stroke="#E8AD47" stroke-width="0.3" stroke-linecap="round"/>
<path d="M99.4089 16.4092L135.266 34.668H63.552L99.4089 16.4092Z" fill="#CC882F"/>
<path d="M20.6257 45.5176H180.181V49.7515H20.6257V45.5176Z" fill="#CC882F"/>
<rect x="12" y="100.029" width="174.817" height="25.4035" rx="2" fill="#D39034"/>
<rect x="12" y="107.438" width="174.817" height="10.5848" fill="#E6AA46"/>
<path d="M165.265 58.7485H138.212C137.108 58.7485 136.212 59.644 136.212 60.7485V90.6199C136.212 91.7244 137.108 92.6199 138.212 92.6199H144.838C144.66 87.7351 143.713 84.7882 141.388 79.3889C148.039 75.331 149.376 69.5748 151.739 59.2778C153.853 68.6678 154.095 74.6073 162.665 79.3889C160.08 83.5987 159.393 86.6785 158.639 92.6199H165.265C166.37 92.6199 167.265 91.7245 167.265 90.6199V60.7485C167.265 59.644 166.37 58.7485 165.265 58.7485Z" fill="#D59334" stroke="#D69333" stroke-width="0.3" stroke-linecap="round"/>
<path d="M61.7549 58.7485H34.7019C33.5973 58.7485 32.7019 59.644 32.7019 60.7485V90.6199C32.7019 91.7244 33.5973 92.6199 34.7019 92.6199H41.3277C41.1499 87.7351 40.2031 84.7882 37.8774 79.3889C44.5288 75.331 45.8653 69.5748 48.2284 59.2778C50.3424 68.6678 50.5848 74.6073 59.1545 79.3889C56.5699 83.5987 55.8825 86.6785 55.1291 92.6199H61.7549C62.8595 92.6199 63.7549 91.7245 63.7549 90.6199V60.7485C63.7549 59.644 62.8595 58.7485 61.7549 58.7485Z" fill="#D59334" stroke="#D69333" stroke-width="0.3" stroke-linecap="round"/>
<path d="M112.635 70.3917C112.635 77.4072 112.635 87.4569 112.635 91.6844C112.635 92.7889 111.739 93.6782 110.635 93.6782H98.5456M112.635 70.3917C101.63 70.3917 84.4568 70.3917 84.4568 70.3917M112.635 70.3917C112.635 62.4531 106.884 57.6899 98.2581 57.6899M84.4568 70.3917V91.6782C84.4568 92.7828 85.3522 93.6782 86.4568 93.6782H98.5456M84.4568 70.3917C84.4568 61.9239 89.6323 57.6899 98.2581 57.6899M98.2581 57.6899L98.5456 93.6782" stroke="#CF8D33" stroke-width="2" stroke-linecap="round"/>
</svg>
