<svg width="194" height="201" viewBox="0 0 194 201" fill="none" xmlns="http://www.w3.org/2000/svg">
<path d="M37.3629 29.2398H3.17053C0.63461 29.2398 0.63461 40.3509 3.17053 40.3509H9.51256V199.415H185.187V40.3509C185.187 40.3509 189.273 40.3827 191.53 40.3509C193.786 40.3191 193.17 29.2086 191.529 29.2398C190.027 29.2683 162.059 29.2446 157.326 29.2404C156.869 29.24 156.434 29.1352 156.024 28.9339L97.9181 0.434313C97.3598 0.160523 96.7061 0.161911 96.149 0.438066L38.6814 28.9276C38.2672 29.133 37.8252 29.2398 37.3629 29.2398Z" fill="#E7AC47"/>
<path d="M96.0821 0.303732C96.6809 0.00686552 97.3843 0.00550218 97.9844 0.299825L156.09 28.7988C156.48 28.9904 156.892 29.0904 157.325 29.0908C162.061 29.0951 190.026 29.1183 191.526 29.0899C191.822 29.0844 192.051 29.3276 192.224 29.6338C192.403 29.9521 192.557 30.3989 192.685 30.9229C192.941 31.9738 193.102 33.3718 193.141 34.7676C193.179 36.1628 193.096 37.5675 192.858 38.6299C192.74 39.1597 192.58 39.6154 192.371 39.9434C192.162 40.2715 191.885 40.496 191.531 40.501C190.402 40.5169 188.815 40.5167 187.512 40.5127C186.86 40.5107 186.279 40.5074 185.86 40.5049C185.651 40.5037 185.482 40.5028 185.366 40.502C185.356 40.5019 185.347 40.5011 185.338 40.501V199.565H9.36234V40.501H3.17093C2.79207 40.501 2.47547 40.2913 2.22074 39.9658C1.96695 39.6415 1.76174 39.1877 1.60062 38.6582C1.27794 37.5977 1.1182 36.1927 1.1182 34.7949C1.11823 33.3974 1.278 31.993 1.60062 30.9326C1.76174 30.4032 1.96695 29.9493 2.22074 29.625C2.47548 29.2995 2.79203 29.0899 3.17093 29.0899H37.3633C37.8015 29.0898 38.2204 28.9882 38.6143 28.793L96.0821 0.303732ZM97.8516 0.569357C97.3354 0.316231 96.731 0.316996 96.2159 0.572286L38.7481 29.0615C38.314 29.2768 37.8493 29.3896 37.3633 29.3897H3.17093C2.91589 29.3897 2.67682 29.5275 2.45609 29.8096C2.23446 30.0929 2.04356 30.5075 1.88773 31.0196C1.5765 32.0423 1.41901 33.4151 1.41898 34.7949C1.41898 36.1749 1.57647 37.5485 1.88773 38.5713C2.04357 39.0834 2.23445 39.498 2.45609 39.7813C2.67682 40.0634 2.91589 40.2012 3.17093 40.2012H9.66214V199.266H185.037V40.2002L185.189 40.2012H185.235C185.266 40.2014 185.311 40.2018 185.368 40.2022C185.484 40.203 185.653 40.2039 185.862 40.2051C186.28 40.2076 186.861 40.2109 187.513 40.2129C188.816 40.2169 190.401 40.217 191.527 40.2012C191.738 40.1982 191.936 40.0677 192.118 39.7822C192.3 39.4968 192.45 39.0798 192.565 38.5645C192.796 37.5358 192.879 36.1587 192.841 34.7764C192.803 33.3947 192.643 32.0186 192.393 30.9942C192.267 30.4807 192.122 30.0637 191.962 29.7803C191.796 29.4851 191.645 29.3875 191.531 29.3897C190.022 29.4182 162.057 29.3949 157.325 29.3906C156.845 29.3902 156.388 29.2793 155.958 29.0684L97.8516 0.569357Z" fill="#D79334"/>
<path d="M27.3258 148.729C26.1993 149.067 25.5861 149.075 24.4604 148.729V156.191H27.3258V148.729Z" fill="#F4BF4A"/>
<path d="M38.5144 147.101C37.3954 147.468 36.7681 147.429 35.649 147.101V154.291H38.5144V147.101Z" fill="#F4BF4A"/>
<path d="M50.2487 148.729C48.8582 149.014 48.0598 149.023 46.5647 148.729V156.191H50.2487V148.729Z" fill="#F4BF4A"/>
<path d="M27.1821 148.251C27.3335 148.205 27.4977 148.233 27.6245 148.328C27.7513 148.422 27.8257 148.571 27.8257 148.729V156.191C27.8254 156.467 27.6017 156.691 27.3257 156.691H24.4604C24.1844 156.691 23.9607 156.467 23.9604 156.191V148.729L23.9741 148.613C24.0012 148.499 24.0678 148.397 24.1636 148.327C24.2912 148.233 24.4563 148.205 24.6079 148.251C25.1458 148.417 25.5273 148.487 25.8921 148.486C26.2579 148.485 26.6403 148.413 27.1821 148.251ZM50.1479 148.239C50.2951 148.209 50.4486 148.246 50.5649 148.341C50.6813 148.436 50.7485 148.579 50.7485 148.729V156.191C50.7483 156.467 50.5245 156.691 50.2485 156.691H46.5649C46.2889 156.691 46.0652 156.467 46.0649 156.191V148.729C46.0649 148.58 46.1314 148.438 46.2466 148.343C46.3619 148.248 46.5141 148.21 46.6606 148.239C48.0919 148.52 48.8238 148.51 50.1479 148.239ZM47.0649 155.691H49.7485V149.329C48.8037 149.483 48.0693 149.485 47.0649 149.326V155.691ZM26.8257 149.374C26.5037 149.443 26.2023 149.485 25.894 149.486C25.5853 149.487 25.2834 149.446 24.9604 149.376V155.691H26.8257V149.374ZM35.7895 146.622C36.3333 146.781 36.7187 146.858 37.0874 146.862C37.4516 146.866 37.8318 146.8 38.3589 146.626C38.5111 146.577 38.6783 146.602 38.8081 146.696C38.9379 146.79 39.0142 146.941 39.0142 147.101V154.292C39.014 154.568 38.7902 154.792 38.5142 154.792H35.6489C35.3729 154.791 35.1491 154.568 35.1489 154.292V147.101C35.1489 146.944 35.2231 146.795 35.3491 146.701C35.4751 146.606 35.6384 146.577 35.7895 146.622ZM36.1489 153.792H38.0142V147.758C37.69 147.83 37.3856 147.865 37.0757 147.862C36.7683 147.858 36.4676 147.814 36.1489 147.745V153.792Z" fill="#F1BE4D"/>
<path d="M32.9362 164.017C33.6219 163.055 34.3755 162.548 36.8723 161.745C39.5611 162.645 40.4744 163.141 41.3513 164.017C41.6491 172.894 40.72 175.94 36.8723 177.777C32.8469 174.265 32.7236 170.7 32.9362 164.017Z" fill="#B76D01"/>
<path d="M36.7191 161.269C36.8204 161.236 36.9297 161.236 37.0307 161.27C39.5636 162.118 40.6082 162.634 41.5228 163.488L41.7045 163.664L41.765 163.736C41.8178 163.814 41.8478 163.905 41.851 164.001C41.9998 168.438 41.8474 171.498 41.142 173.69C40.4191 175.936 39.1214 177.258 37.0883 178.229C36.9083 178.315 36.6937 178.285 36.5433 178.154C34.4575 176.334 33.3614 174.475 32.8285 172.201C32.3036 169.96 32.331 167.331 32.4369 164.002L32.4437 163.928C32.4567 163.856 32.4858 163.787 32.5287 163.727C32.9057 163.198 33.3153 162.779 33.9701 162.391C34.6065 162.014 35.4633 161.673 36.7191 161.269ZM36.8685 162.272C35.7192 162.647 34.9929 162.947 34.4799 163.252C34.0114 163.529 33.7125 163.814 33.431 164.187C33.3288 167.462 33.3198 169.913 33.8021 171.972C34.263 173.939 35.1785 175.56 36.9535 177.177C38.5909 176.331 39.5968 175.229 40.1908 173.383C40.8273 171.405 40.9939 168.562 40.8568 164.238C40.1194 163.543 39.2691 163.083 36.8685 162.272Z" fill="#A96300"/>
<path d="M35.5377 168.942C35.501 167.603 35.5377 166.71 35.5377 165.281C35.5377 163.358 35.7582 162.241 35.5377 160.357C35.029 160.492 34.6458 160.511 33.6375 160.357C32.9946 159.864 32.9278 159.588 33.6375 159.095C34.5151 159.289 34.965 159.336 35.5377 159.095C35.8706 157.567 35.8326 156.71 35.5377 155.181H34.3162C32.8889 154.025 33.1354 153.791 34.3162 153.666C36.4077 153.999 37.6609 154.047 40.1525 153.666C41.3228 153.941 41.3736 154.261 40.1525 155.181H38.388C37.9434 156.754 37.8946 157.615 38.388 159.095C38.388 159.095 39.4642 159.562 40.1525 159.095C40.6462 159.633 40.657 159.911 40.1525 160.357C39.5492 160.56 39.205 160.661 38.388 160.357C38.06 162.512 38.078 163.587 38.388 165.281V168.942C37.2247 170.471 36.6019 170.431 35.5377 168.942Z" fill="#A15D03"/>
<path d="M41.2383 166.922V165.281C42.4101 165.67 43.089 165.69 44.36 165.281C46.0149 164.066 46.7708 163.24 47.2103 160.988C46.1436 159.882 46.1104 159.429 47.2103 158.969C47.4821 158.377 47.456 158.045 47.2103 157.454L45.9888 157.201C44.9227 156.311 45.0605 156.052 45.9888 155.813C47.9019 156.288 49.0623 156.331 51.2821 156.065C51.9157 156.357 51.9247 156.592 51.0107 157.201L49.1105 157.454C49.0186 158.045 49.0098 158.377 49.1105 158.969C50.1435 159.566 50.0692 160.021 49.1105 160.988C48.6331 164.674 47.1186 165.502 44.36 166.922C43.137 167.256 42.4582 167.249 41.2383 166.922Z" fill="#A15D03"/>
<path d="M32.8232 167.174V165.281C30.3469 166.179 28.9085 164.819 27.1226 160.988C28.0424 159.99 28.0452 159.529 26.7154 158.969C26.5094 158.377 26.491 158.045 26.7154 157.454L28.2084 157.201C29.2097 156.507 28.9935 156.159 28.2084 155.56C25.9518 156.424 25.0595 156.107 23.458 155.56C22.6857 156.028 22.5614 156.36 23.458 157.201L24.6795 157.454C25.0161 158.045 24.9869 158.377 24.6795 158.969L24.2723 159.726C24.1232 160.347 24.3219 160.626 25.2224 160.988C26.0976 164.055 26.8143 165.625 29.9729 167.174C31.1836 167.446 31.8187 167.445 32.8232 167.174Z" fill="#A15D03"/>
<path d="M40.2668 153.18C40.5676 153.251 40.8465 153.334 41.0598 153.452C41.2699 153.568 41.5386 153.79 41.549 154.168C41.5578 154.49 41.3651 154.752 41.2024 154.931C41.0215 155.13 40.7655 155.345 40.4533 155.58C40.3667 155.646 40.2611 155.681 40.1526 155.681H38.7727C38.62 156.272 38.5409 156.734 38.5364 157.178C38.5316 157.643 38.6062 158.111 38.7873 158.704C38.873 158.729 38.9779 158.758 39.093 158.777C39.4068 158.828 39.6879 158.806 39.8713 158.681C40.0766 158.542 40.353 158.574 40.5207 158.757C40.7667 159.025 41.0238 159.356 41.0266 159.757C41.0295 160.185 40.7487 160.497 40.4836 160.732C40.4336 160.776 40.375 160.81 40.3117 160.831C40.0171 160.931 39.7172 161.031 39.3742 161.047C39.1892 161.056 39.0024 161.039 38.802 160.998C38.5686 162.737 38.6095 163.712 38.8801 165.191C38.8855 165.22 38.8879 165.251 38.8879 165.281V168.942C38.8879 169.051 38.8525 169.158 38.7864 169.245C38.4863 169.639 38.199 169.962 37.9114 170.189C37.6211 170.418 37.2919 170.578 36.9201 170.574C36.5475 170.569 36.2253 170.401 35.9475 170.168C35.673 169.939 35.4055 169.617 35.1311 169.233C35.0732 169.152 35.0411 169.055 35.0383 168.955C35.0014 167.61 35.0373 166.689 35.0373 165.281C35.0373 164.308 35.0935 163.521 35.1203 162.787C35.1419 162.197 35.1451 161.617 35.092 160.947C34.6985 160.986 34.2613 160.959 33.5617 160.852C33.4786 160.839 33.4 160.805 33.3332 160.754C33.1635 160.624 33.0036 160.487 32.8821 160.341C32.7603 160.195 32.6419 159.996 32.6311 159.747C32.62 159.491 32.7278 159.278 32.8596 159.116C32.9869 158.959 33.1609 158.817 33.3528 158.684L33.4426 158.634C33.5374 158.594 33.6432 158.584 33.7453 158.607C34.4391 158.761 34.7788 158.796 35.1028 158.713C35.3301 157.564 35.3184 156.82 35.1203 155.681H34.3166C34.202 155.681 34.0902 155.642 34.0012 155.57C33.6381 155.276 33.3568 155.02 33.1672 154.798C33.0723 154.687 32.9862 154.568 32.926 154.442C32.866 154.316 32.8171 154.151 32.843 153.967C32.9009 153.557 33.2569 153.389 33.4543 153.321C33.6796 153.243 33.9665 153.201 34.2639 153.169L34.3293 153.166C34.3512 153.167 34.3731 153.169 34.3948 153.172C36.4379 153.497 37.6394 153.545 40.0774 153.172L40.1721 153.166C40.2039 153.168 40.2357 153.173 40.2668 153.18ZM28.091 155.074C28.2363 155.039 28.3913 155.07 28.5119 155.163C28.7121 155.315 28.904 155.473 29.052 155.637C29.1983 155.8 29.3454 156.017 29.3752 156.291C29.4067 156.582 29.2965 156.835 29.136 157.042C28.9818 157.241 28.7595 157.427 28.4934 157.612C28.4332 157.653 28.3644 157.681 28.2922 157.694L27.0969 157.896C27.065 158.019 27.053 158.116 27.0539 158.206C27.0551 158.317 27.0745 158.437 27.1223 158.602C27.3796 158.721 27.6034 158.848 27.7815 158.99C28.0113 159.173 28.204 159.415 28.2561 159.734C28.3069 160.046 28.2069 160.334 28.0696 160.577C27.9783 160.738 27.8563 160.901 27.716 161.069C28.5492 162.812 29.274 163.922 30.0246 164.516C30.4077 164.819 30.7906 164.982 31.1985 165.031C31.6114 165.08 32.0852 165.017 32.6526 164.811C32.8058 164.755 32.9771 164.778 33.1106 164.872C33.2438 164.965 33.3235 165.118 33.3235 165.281V167.174C33.3235 167.4 33.1715 167.598 32.9533 167.657C32.4239 167.799 31.9685 167.877 31.4758 167.877C30.9874 167.878 30.485 167.802 29.8635 167.663C29.8254 167.654 29.7883 167.641 29.7532 167.623C28.1251 166.825 27.0786 165.998 26.3323 164.939C25.6324 163.946 25.2226 162.783 24.8078 161.354C24.4532 161.195 24.1478 161.013 23.9533 160.752C23.6804 160.386 23.697 159.981 23.7864 159.609L23.8049 159.548C23.8126 159.528 23.822 159.509 23.8323 159.49L24.2356 158.738C24.379 158.462 24.4193 158.316 24.4211 158.204C24.4223 158.129 24.4058 158.037 24.343 157.895L23.3567 157.691C23.2664 157.672 23.1827 157.629 23.1155 157.566C22.8799 157.345 22.6871 157.134 22.553 156.929C22.4185 156.723 22.3161 156.481 22.3332 156.209C22.3509 155.93 22.4889 155.712 22.6467 155.548C22.7987 155.391 22.9955 155.255 23.1985 155.132C23.325 155.055 23.4793 155.04 23.6194 155.087C24.4344 155.366 24.9912 155.554 25.6155 155.589C26.2267 155.624 26.9408 155.51 28.0295 155.093L28.091 155.074ZM45.925 155.317C45.9864 155.309 46.0492 155.313 46.1096 155.328C47.9535 155.785 49.0519 155.829 51.2229 155.569L51.2912 155.565C51.3601 155.566 51.4284 155.582 51.4914 155.611C51.6597 155.688 51.8429 155.786 51.9817 155.919C52.1388 156.07 52.2754 156.307 52.218 156.608C52.1713 156.852 52.0104 157.039 51.8733 157.169C51.7241 157.312 51.5248 157.46 51.2883 157.618C51.2248 157.66 51.152 157.687 51.0764 157.697L49.5549 157.899C49.5281 158.167 49.5348 158.384 49.5725 158.666C50.003 158.948 50.3738 159.317 50.3576 159.855C50.349 160.142 50.227 160.401 50.0764 160.626C49.949 160.817 49.7788 161.013 49.5823 161.218C49.3265 163.033 48.8075 164.227 47.9573 165.145C47.1034 166.066 45.9501 166.666 44.5891 167.367C44.5582 167.383 44.525 167.395 44.4914 167.404C43.8569 167.577 43.3338 167.671 42.7971 167.67C42.2609 167.669 41.7391 167.574 41.1086 167.405C40.8903 167.346 40.7387 167.148 40.7385 166.922V165.281C40.7385 165.12 40.8154 164.969 40.9455 164.875C41.0757 164.782 41.2434 164.756 41.3957 164.806C41.9577 164.993 42.3644 165.078 42.7649 165.08C43.1488 165.082 43.5596 165.006 44.1291 164.828C44.9116 164.25 45.4414 163.79 45.8323 163.236C46.1983 162.716 46.4622 162.084 46.6672 161.139C46.4751 160.929 46.3121 160.734 46.1887 160.547C46.0317 160.31 45.9016 160.038 45.8977 159.743C45.8934 159.416 46.0423 159.154 46.2571 158.955C46.4119 158.813 46.6082 158.695 46.8254 158.592C46.8868 158.429 46.9059 158.316 46.9045 158.218C46.9032 158.128 46.8839 158.027 46.8381 157.887L45.8879 157.691C45.8073 157.674 45.7314 157.638 45.6682 157.585C45.3938 157.356 45.1719 157.147 45.0178 156.955C44.8767 156.778 44.7172 156.524 44.7424 156.221C44.7712 155.877 45.013 155.676 45.2004 155.57C45.388 155.463 45.6257 155.39 45.8645 155.329L45.925 155.317ZM23.5276 156.111C23.4535 156.163 23.401 156.206 23.3655 156.243C23.3498 156.259 23.341 156.272 23.3352 156.28C23.3413 156.297 23.356 156.33 23.3899 156.382C23.4486 156.472 23.5472 156.589 23.7014 156.741L24.7805 156.964L24.8821 156.997C24.979 157.039 25.0611 157.113 25.1145 157.206C25.3038 157.539 25.4268 157.862 25.4211 158.219C25.4156 158.569 25.2869 158.884 25.1233 159.199L25.1203 159.205L24.7473 159.897C24.7059 160.098 24.742 160.137 24.7551 160.155C24.7942 160.207 24.8893 160.287 25.1242 160.4L25.4094 160.525L25.51 160.58C25.6026 160.645 25.6716 160.74 25.7033 160.851C26.1405 162.383 26.5196 163.469 27.1496 164.363C27.7628 165.233 28.6422 165.956 30.1399 166.698C30.6991 166.821 31.1045 166.877 31.4748 166.877C31.7493 166.877 32.0164 166.846 32.3235 166.781V165.947C31.8955 166.042 31.4818 166.072 31.0793 166.024C30.4655 165.95 29.9126 165.703 29.4035 165.3C28.4106 164.514 27.5634 163.118 26.6692 161.2C26.5836 161.016 26.6179 160.799 26.7551 160.65C26.9769 160.409 27.1181 160.226 27.1985 160.084C27.2374 160.016 27.2559 159.966 27.2639 159.935C27.2706 159.908 27.2691 159.897 27.2688 159.895C27.2686 159.894 27.269 159.892 27.2678 159.889C27.2665 159.886 27.2634 159.88 27.2571 159.871C27.2435 159.85 27.2147 159.817 27.1574 159.771C27.0383 159.676 26.8387 159.563 26.5217 159.429C26.3914 159.374 26.29 159.267 26.2434 159.133C26.1336 158.818 26.0571 158.527 26.0539 158.216C26.0508 157.901 26.1233 157.605 26.2483 157.276L26.2756 157.216C26.3482 157.082 26.479 156.986 26.6321 156.96L28.009 156.727C28.1883 156.596 28.2917 156.5 28.3459 156.43C28.359 156.413 28.3657 156.399 28.3713 156.389C28.3613 156.373 28.3435 156.345 28.3088 156.306C28.2612 156.253 28.1969 156.195 28.1145 156.125C27.0828 156.495 26.2958 156.63 25.5598 156.588C24.8512 156.549 24.2207 156.346 23.5276 156.111ZM46.0022 156.329C45.9388 156.347 45.8849 156.362 45.8401 156.377C45.9217 156.471 46.0447 156.588 46.219 156.738L47.3117 156.964L47.3713 156.98C47.5065 157.026 47.6166 157.128 47.6721 157.262C47.8027 157.577 47.8999 157.878 47.9045 158.205C47.9091 158.537 47.8172 158.844 47.6643 159.177C47.6119 159.291 47.5192 159.382 47.4035 159.43C47.1468 159.538 47.0064 159.625 46.9358 159.69C46.9123 159.711 46.9015 159.726 46.8977 159.732C46.8989 159.751 46.9131 159.829 47.0227 159.995C47.1335 160.162 47.311 160.372 47.5705 160.641C47.6838 160.758 47.7326 160.924 47.7014 161.084C47.4734 162.253 47.1542 163.096 46.6496 163.812C46.1499 164.521 45.4913 165.071 44.6555 165.684C44.6123 165.716 44.5639 165.74 44.5129 165.756C43.8521 165.969 43.3079 166.083 42.759 166.08C42.4168 166.079 42.0864 166.031 41.7385 165.947V166.531C42.1468 166.625 42.477 166.67 42.799 166.67C43.2006 166.671 43.6152 166.603 44.178 166.452C45.5502 165.745 46.5196 165.225 47.2239 164.465C47.9142 163.72 48.3842 162.702 48.6145 160.924L48.6321 160.844C48.6555 160.766 48.6973 160.695 48.7551 160.636C48.9872 160.402 49.1453 160.219 49.2444 160.071C49.3448 159.92 49.357 159.847 49.3576 159.825C49.3579 159.821 49.3625 159.795 49.3039 159.728C49.2339 159.647 49.0999 159.54 48.8606 159.402C48.7318 159.327 48.6424 159.199 48.6174 159.052C48.5065 158.4 48.5176 158.014 48.6164 157.377L48.636 157.297C48.6951 157.118 48.8521 156.984 49.0442 156.958L50.8235 156.721C50.8891 156.676 50.9472 156.636 50.9973 156.598C48.9932 156.819 47.806 156.765 46.0022 156.329ZM40.0012 159.712C39.6131 159.833 39.2184 159.81 38.9309 159.763C38.9163 159.761 38.9022 159.756 38.8879 159.753V159.991C39.0752 160.04 39.2107 160.054 39.3264 160.048C39.4891 160.04 39.643 159.996 39.8899 159.914C39.981 159.826 40.0139 159.779 40.0237 159.759C40.0204 159.75 40.0137 159.735 40.0012 159.712ZM33.7571 159.631C33.7171 159.664 33.6877 159.693 33.6653 159.716C33.7035 159.759 33.7613 159.813 33.8449 159.881C34.4372 159.967 34.7639 159.98 35.0373 159.947V159.739C34.6419 159.784 34.2447 159.733 33.7571 159.631ZM36.0373 165.281C36.0373 166.674 36.0047 167.528 36.0344 168.772C36.252 169.066 36.4322 169.27 36.5891 169.402C36.7637 169.548 36.8704 169.573 36.9319 169.574C36.9942 169.574 37.1057 169.551 37.2922 169.404C37.4584 169.273 37.6525 169.067 37.8879 168.769V165.324C37.5767 163.605 37.562 162.477 37.8879 160.322V159.172C37.6477 158.434 37.5298 157.813 37.5364 157.167C37.5432 156.505 37.6801 155.846 37.9065 155.045L37.9358 154.968C38.0171 154.795 38.1921 154.681 38.3879 154.681H39.9826C40.1989 154.513 40.3496 154.378 40.4485 154.272C40.3687 154.242 40.2628 154.209 40.1242 154.174C37.675 154.542 36.3784 154.496 34.3098 154.17C34.1815 154.185 34.0753 154.2 33.9885 154.215C34.1015 154.337 34.2665 154.49 34.4963 154.681H35.5373C35.7769 154.681 35.983 154.851 36.0285 155.086C36.3301 156.649 36.3746 157.573 36.0373 159.147V160.327C36.1484 161.289 36.1482 162.06 36.1203 162.823C36.092 163.599 36.0373 164.331 36.0373 165.281Z" fill="#A85D00"/>
<path d="M27.4246 148.742C26.2569 149.173 25.6076 149.216 24.4386 148.742C24.4386 148.742 22.3242 146.468 22.9456 144.45C23.4771 142.724 25.7557 140.839 26.1701 140.147C26.1345 140.022 26.1412 139.938 26.2031 139.905C26.2569 139.947 26.2402 140.03 26.1701 140.147C26.3878 140.913 28.1877 143.228 28.6462 144.829C29.0866 146.366 27.4246 148.742 27.4246 148.742Z" fill="#FEDE7F"/>
<path d="M38.69 147.48C37.5766 147.945 36.9208 147.935 35.704 147.48C34.3292 146.346 34.211 145.586 34.211 143.819C34.211 142.051 36.3288 139.511 37.8756 138.012C38.2456 139.19 40.8616 142.809 40.7259 144.45C40.5902 146.091 40.0479 146.456 38.69 147.48Z" fill="#FEDE7F"/>
<path d="M50.3626 148.742C48.8726 149.52 48.0801 149.382 46.6979 148.742C45.9763 147.951 45.218 147.426 45.4764 145.207C45.7348 142.989 47.9949 141.717 48.8696 139.905C50.3784 142.067 51.9913 143.819 51.9913 145.839C51.9913 147.858 50.3626 148.742 50.3626 148.742Z" fill="#FEDE7F"/>
<path d="M51.4914 145.839C51.4914 144.965 51.1431 144.117 50.5705 143.187C50.0994 142.423 49.525 141.671 48.9094 140.821C48.4348 141.517 47.8226 142.145 47.3205 142.729C46.6232 143.54 46.0835 144.315 45.9729 145.265C45.8508 146.314 45.9766 146.896 46.1692 147.291C46.3627 147.688 46.6298 147.933 46.9944 148.326C47.6282 148.615 48.0735 148.761 48.5051 148.774C48.9449 148.788 49.4281 148.666 50.1311 148.299C50.1385 148.294 50.1499 148.287 50.1653 148.277C50.1997 148.255 50.253 148.221 50.3176 148.173C50.4474 148.075 50.6227 147.925 50.7981 147.721C51.1463 147.317 51.4914 146.702 51.4914 145.839ZM26.0364 139.433C26.1958 139.377 26.3751 139.405 26.511 139.512C26.7206 139.676 26.7525 139.912 26.7278 140.074C26.7234 140.102 26.7155 140.129 26.7082 140.155C26.7682 140.287 26.8687 140.475 27.0149 140.722C27.2192 141.068 27.4711 141.467 27.7444 141.914C28.2732 142.779 28.8763 143.815 29.1272 144.691C29.2682 145.184 29.2332 145.711 29.1301 146.193C29.0261 146.68 28.8448 147.157 28.6555 147.57C28.4653 147.985 28.2614 148.347 28.1057 148.605C28.0277 148.734 27.9609 148.838 27.9133 148.911L27.841 149.019C27.8393 149.022 27.8372 149.024 27.8362 149.025L27.8352 149.027L27.8342 149.028C27.7759 149.111 27.6933 149.175 27.5979 149.211C26.9955 149.433 26.4772 149.574 25.9377 149.581C25.3933 149.587 24.8701 149.457 24.2512 149.206C24.1835 149.178 24.1222 149.136 24.0725 149.083L24.0715 149.082L24.0627 149.072C24.0577 149.067 24.0507 149.059 24.0422 149.05C24.0246 149.03 23.9997 149.002 23.969 148.966C23.9075 148.894 23.822 148.79 23.7219 148.66C23.5224 148.401 23.2617 148.032 23.0207 147.594C22.5512 146.739 22.096 145.511 22.468 144.303C22.769 143.325 23.5402 142.351 24.2278 141.578C24.5766 141.186 24.927 140.822 25.2004 140.528C25.4054 140.308 25.5536 140.139 25.6487 140.018C25.6486 139.99 25.6499 139.96 25.6535 139.93C25.673 139.772 25.7586 139.574 25.9699 139.463L26.0364 139.433ZM25.9319 141.209C25.6449 141.517 25.3147 141.862 24.9758 142.243C24.2876 143.017 23.6537 143.848 23.4231 144.597C23.174 145.407 23.4654 146.325 23.8977 147.112C24.1074 147.494 24.3365 147.819 24.5139 148.05C24.6023 148.164 24.677 148.255 24.7287 148.315L24.7307 148.317C25.2263 148.509 25.5851 148.585 25.926 148.581C26.2618 148.577 26.6145 148.495 27.1008 148.324C27.14 148.263 27.1915 148.184 27.2492 148.089C27.3914 147.853 27.576 147.524 27.7463 147.153C27.9173 146.78 28.0689 146.375 28.1526 145.984C28.2371 145.589 28.2443 145.243 28.1653 144.967C27.9577 144.242 27.431 143.319 26.8908 142.435C26.6298 142.008 26.3621 141.585 26.1535 141.231C26.1213 141.177 26.09 141.122 26.0588 141.067C26.0163 141.114 25.9753 141.162 25.9319 141.209ZM37.5764 137.611C37.6963 137.522 37.851 137.49 37.9983 137.527C38.1664 137.57 38.3008 137.697 38.3528 137.862C38.4271 138.099 38.6318 138.5 38.9328 139.041C39.2196 139.556 39.5886 140.19 39.9299 140.818C40.2745 141.452 40.6114 142.117 40.8547 142.734C41.0916 143.335 41.2678 143.96 41.2239 144.491C41.1514 145.367 40.9645 145.972 40.5647 146.499C40.1903 146.992 39.6451 147.386 38.9914 147.879C38.9581 147.904 38.9215 147.925 38.883 147.941C38.2931 148.188 37.7815 148.326 37.2346 148.325C36.6926 148.323 36.1593 148.184 35.5285 147.948C35.4768 147.929 35.4286 147.9 35.386 147.865C34.6616 147.268 34.2154 146.726 33.9719 146.058C33.7364 145.412 33.7112 144.695 33.7112 143.818C33.7113 142.77 34.3221 141.584 35.052 140.53C35.7984 139.453 36.7381 138.417 37.5276 137.652L37.5764 137.611ZM52.4914 145.839C52.4914 146.995 52.0219 147.832 51.5559 148.374C51.3243 148.643 51.0927 148.841 50.9172 148.972C50.8292 149.038 50.7541 149.088 50.6994 149.123C50.6721 149.14 50.6497 149.154 50.633 149.164L50.6057 149.179C50.6048 149.18 50.6035 149.18 50.6028 149.18L50.6018 149.181C50.6016 149.182 50.601 149.182 50.3626 148.742L50.6018 149.181L50.594 149.185C49.8071 149.596 49.1492 149.794 48.4748 149.773C47.8113 149.753 47.1899 149.521 46.4875 149.196C46.4273 149.168 46.3731 149.128 46.3283 149.079C46.0089 148.729 45.5585 148.321 45.2698 147.729C44.9674 147.109 44.8435 146.319 44.9797 145.149C45.1275 143.881 45.8469 142.91 46.5627 142.078C47.3113 141.207 48.0194 140.515 48.4192 139.687C48.4964 139.528 48.6526 139.421 48.8293 139.407C49.0063 139.393 49.1779 139.473 49.2795 139.619C50.0057 140.66 50.8226 141.69 51.4221 142.663C52.0331 143.655 52.4914 144.693 52.4914 145.839ZM34.7112 143.818C34.7112 144.708 34.7441 145.257 34.9114 145.716C35.0653 146.138 35.3519 146.529 35.9573 147.039C36.5018 147.238 36.8856 147.324 37.2375 147.325C37.5888 147.326 37.9482 147.241 38.4446 147.038C39.1141 146.533 39.5049 146.24 39.7678 145.894C40.0125 145.572 40.1645 145.174 40.2278 144.409C40.2517 144.12 40.152 143.676 39.925 143.1C39.7044 142.541 39.3897 141.919 39.051 141.296C38.7091 140.667 38.3623 140.073 38.0588 139.527C37.9351 139.305 37.8179 139.086 37.7141 138.883C37.0874 139.534 36.4215 140.309 35.8742 141.099C35.1589 142.132 34.7114 143.099 34.7112 143.818Z" fill="#F2B333"/>
<path d="M146.474 148.729C145.343 149.067 144.727 149.075 143.598 148.729V156.191H146.474V148.729Z" fill="#F4BF4A"/>
<path d="M157.705 147.101C156.582 147.468 155.952 147.429 154.829 147.101V154.291H157.705V147.101Z" fill="#F4BF4A"/>
<path d="M169.485 148.729C168.089 149.014 167.287 149.023 165.786 148.729V156.191H169.485V148.729Z" fill="#F4BF4A"/>
<path d="M146.331 148.25C146.482 148.204 146.646 148.234 146.772 148.328C146.899 148.422 146.974 148.571 146.974 148.729V156.191C146.973 156.467 146.75 156.691 146.474 156.691H143.598C143.322 156.691 143.098 156.467 143.098 156.191V148.729C143.098 148.57 143.173 148.421 143.301 148.327C143.428 148.233 143.593 148.205 143.744 148.251C144.284 148.417 144.667 148.487 145.034 148.486C145.402 148.485 145.787 148.412 146.331 148.25ZM169.385 148.239C169.532 148.209 169.684 148.247 169.801 148.341C169.917 148.436 169.984 148.579 169.984 148.729V156.191C169.984 156.467 169.76 156.691 169.484 156.691H165.786C165.51 156.691 165.286 156.467 165.286 156.191V148.729C165.286 148.58 165.353 148.438 165.469 148.343C165.584 148.248 165.736 148.21 165.883 148.239C167.32 148.52 168.055 148.51 169.385 148.239ZM166.286 155.691H168.984V149.328C168.034 149.482 167.296 149.485 166.286 149.325V155.691ZM145.974 149.374C145.65 149.444 145.347 149.485 145.037 149.486C144.726 149.487 144.423 149.445 144.098 149.375V155.691H145.974V149.374ZM154.969 146.621C155.514 146.78 155.902 146.858 156.272 146.862C156.639 146.866 157.02 146.799 157.55 146.626C157.702 146.576 157.869 146.602 157.999 146.696C158.129 146.79 158.205 146.941 158.205 147.101V154.292C158.205 154.568 157.981 154.792 157.705 154.792H154.829C154.553 154.792 154.329 154.568 154.329 154.292V147.101C154.329 146.944 154.403 146.795 154.529 146.701C154.655 146.607 154.818 146.577 154.969 146.621ZM155.329 153.792H157.205V147.757C156.879 147.829 156.573 147.865 156.262 147.862C155.952 147.858 155.65 147.814 155.329 147.744V153.792Z" fill="#F1BE4D"/>
<path d="M152.107 164.017C152.795 163.055 153.552 162.548 156.058 161.745C158.757 162.645 159.674 163.141 160.554 164.017C160.853 172.894 159.921 175.94 156.058 177.777C152.017 174.265 151.894 170.7 152.107 164.017Z" fill="#B76D01"/>
<path d="M155.982 161.251C156.061 161.239 156.141 161.245 156.217 161.27C158.759 162.118 159.807 162.633 160.725 163.487L160.907 163.663L160.968 163.735C161.021 163.813 161.051 163.905 161.054 164.001C161.203 168.438 161.051 171.498 160.343 173.691C159.617 175.938 158.314 177.258 156.273 178.229C156.094 178.314 155.881 178.285 155.731 178.155C153.637 176.335 152.535 174.476 152 172.201C151.473 169.96 151.501 167.331 151.607 164.002L151.615 163.927C151.628 163.855 151.657 163.786 151.7 163.726C152.079 163.197 152.489 162.778 153.147 162.39C153.785 162.013 154.645 161.672 155.905 161.268L155.982 161.251ZM156.056 162.272C154.901 162.648 154.171 162.947 153.655 163.252C153.185 163.529 152.884 163.815 152.602 164.188C152.499 167.463 152.49 169.914 152.974 171.972C153.436 173.939 154.357 175.56 156.14 177.178C157.785 176.331 158.794 175.229 159.391 173.383C160.03 171.405 160.197 168.562 160.06 164.239C159.319 163.543 158.466 163.083 156.056 162.272Z" fill="#A96300"/>
<path d="M154.719 168.942C154.682 167.603 154.719 166.71 154.719 165.281C154.719 163.358 154.94 162.241 154.719 160.357C154.208 160.492 153.823 160.511 152.811 160.357C152.166 159.864 152.099 159.588 152.811 159.095C153.692 159.289 154.144 159.336 154.719 159.095C155.053 157.567 155.015 156.71 154.719 155.181H153.492C152.06 154.025 152.307 153.791 153.492 153.666C155.592 153.999 156.85 154.047 159.351 153.666C160.526 153.941 160.577 154.261 159.351 155.181H157.58C157.133 156.754 157.084 157.615 157.58 159.095C157.58 159.095 158.66 159.562 159.351 159.095C159.847 159.633 159.857 159.911 159.351 160.357C158.745 160.56 158.4 160.661 157.58 160.357C157.25 162.512 157.269 163.587 157.58 165.281V168.942C156.412 170.471 155.787 170.431 154.719 168.942Z" fill="#A15D03"/>
<path d="M160.441 166.922V165.281C161.617 165.67 162.299 165.69 163.575 165.281C165.236 164.066 165.995 163.24 166.436 160.988C165.365 159.882 165.332 159.429 166.436 158.969C166.709 158.377 166.682 158.045 166.436 157.454L165.21 157.201C164.139 156.311 164.278 156.052 165.21 155.813C167.13 156.288 168.295 156.331 170.523 156.065C171.159 156.357 171.168 156.592 170.251 157.201L168.343 157.454C168.251 158.045 168.242 158.377 168.343 158.969C169.38 159.566 169.306 160.021 168.343 160.988C167.864 164.674 166.344 165.502 163.575 166.922C162.347 167.256 161.665 167.249 160.441 166.922Z" fill="#A15D03"/>
<path d="M151.994 167.174V165.281C149.508 166.179 148.064 164.819 146.271 160.988C147.194 159.99 147.197 159.529 145.862 158.969C145.656 158.377 145.637 158.045 145.862 157.454L147.361 157.201C148.366 156.507 148.149 156.159 147.361 155.56C145.096 156.424 144.2 156.107 142.592 155.56C141.817 156.028 141.692 156.36 142.592 157.201L143.819 157.454C144.157 158.045 144.127 158.377 143.819 158.969L143.41 159.726C143.26 160.347 143.46 160.626 144.364 160.988C145.242 164.055 145.962 165.625 149.132 167.174C150.348 167.446 150.985 167.445 151.994 167.174Z" fill="#A15D03"/>
<path d="M159.464 153.179C159.766 153.25 160.046 153.334 160.26 153.452C160.47 153.567 160.74 153.789 160.751 154.168C160.759 154.491 160.566 154.753 160.403 154.932C160.221 155.131 159.964 155.346 159.651 155.581C159.564 155.646 159.459 155.681 159.351 155.681H157.964C157.811 156.272 157.732 156.735 157.727 157.178C157.722 157.643 157.798 158.111 157.98 158.704C158.066 158.729 158.172 158.758 158.288 158.777C158.603 158.828 158.886 158.806 159.071 158.681L159.151 158.637C159.343 158.553 159.573 158.597 159.719 158.756C159.966 159.024 160.224 159.355 160.227 159.757C160.23 160.186 159.947 160.498 159.681 160.732C159.631 160.776 159.573 160.81 159.51 160.831C159.214 160.931 158.914 161.031 158.57 161.047C158.384 161.056 158.196 161.038 157.994 160.997C157.759 162.736 157.8 163.712 158.072 165.19C158.077 165.22 158.08 165.25 158.08 165.281V168.942C158.08 169.051 158.044 169.158 157.977 169.246C157.676 169.64 157.388 169.963 157.099 170.19C156.808 170.419 156.478 170.578 156.106 170.574C155.733 170.569 155.411 170.402 155.132 170.169C154.857 169.94 154.588 169.617 154.312 169.233C154.254 169.152 154.221 169.055 154.218 168.955C154.181 167.61 154.218 166.689 154.218 165.281C154.218 164.308 154.275 163.52 154.302 162.786C154.324 162.196 154.326 161.617 154.273 160.946C153.878 160.986 153.439 160.959 152.736 160.852C152.653 160.839 152.574 160.805 152.507 160.754C152.337 160.624 152.176 160.487 152.054 160.341C151.932 160.195 151.813 159.996 151.802 159.747C151.791 159.49 151.9 159.277 152.032 159.115C152.159 158.958 152.334 158.817 152.527 158.684L152.617 158.634C152.711 158.594 152.817 158.584 152.918 158.607C153.616 158.761 153.957 158.796 154.284 158.713C154.512 157.564 154.5 156.82 154.301 155.681H153.493C153.378 155.681 153.267 155.642 153.178 155.571C152.814 155.276 152.532 155.021 152.341 154.799C152.246 154.688 152.16 154.568 152.099 154.442C152.039 154.316 151.989 154.151 152.015 153.966C152.074 153.555 152.431 153.387 152.628 153.32C152.854 153.242 153.141 153.201 153.44 153.169C153.483 153.165 153.528 153.165 153.571 153.172C155.622 153.497 156.828 153.545 159.276 153.172L159.371 153.166C159.402 153.168 159.434 153.172 159.464 153.179ZM147.245 155.074C147.389 155.039 147.543 155.071 147.664 155.163C147.864 155.315 148.057 155.472 148.206 155.636C148.352 155.798 148.501 156.016 148.531 156.29C148.563 156.582 148.452 156.836 148.291 157.043C148.136 157.242 147.912 157.428 147.645 157.613C147.585 157.654 147.516 157.682 147.444 157.694L146.244 157.896C146.212 158.019 146.2 158.116 146.201 158.206C146.202 158.316 146.221 158.437 146.269 158.602C146.527 158.721 146.752 158.847 146.93 158.989C147.161 159.172 147.354 159.414 147.407 159.734C147.458 160.047 147.357 160.335 147.219 160.578C147.128 160.739 147.005 160.901 146.865 161.069C147.701 162.811 148.429 163.921 149.182 164.515C149.567 164.819 149.952 164.982 150.362 165.031C150.777 165.08 151.254 165.016 151.824 164.81C151.977 164.755 152.147 164.778 152.281 164.872C152.414 164.965 152.494 165.118 152.494 165.281V167.174C152.494 167.4 152.342 167.599 152.124 167.658C151.592 167.8 151.135 167.877 150.641 167.877C150.151 167.878 149.647 167.802 149.023 167.663C148.985 167.654 148.948 167.641 148.913 167.623C147.279 166.825 146.229 165.998 145.48 164.939C144.777 163.946 144.366 162.783 143.95 161.354C143.594 161.196 143.286 161.014 143.091 160.753C142.817 160.387 142.835 159.981 142.924 159.609L142.943 159.547C142.951 159.527 142.96 159.508 142.97 159.489L143.378 158.731C143.52 158.459 143.559 158.314 143.561 158.204C143.562 158.129 143.546 158.037 143.483 157.895L142.492 157.691C142.402 157.672 142.319 157.629 142.251 157.567C142.015 157.346 141.821 157.135 141.686 156.93C141.551 156.724 141.448 156.481 141.465 156.209C141.483 155.929 141.622 155.712 141.78 155.548C141.932 155.391 142.13 155.255 142.334 155.132L142.433 155.086C142.536 155.052 142.649 155.051 142.753 155.086C143.572 155.365 144.131 155.554 144.758 155.589C145.373 155.624 146.09 155.51 147.183 155.093L147.245 155.074ZM165.146 155.317C165.207 155.309 165.269 155.313 165.33 155.328C167.181 155.786 168.285 155.829 170.464 155.569L170.533 155.565C170.601 155.566 170.669 155.582 170.732 155.611C170.901 155.688 171.084 155.786 171.223 155.918C171.381 156.069 171.518 156.307 171.46 156.609C171.413 156.853 171.251 157.04 171.114 157.17C170.964 157.312 170.764 157.46 170.527 157.618C170.464 157.66 170.391 157.687 170.316 157.697L168.788 157.899C168.761 158.167 168.767 158.384 168.805 158.665C169.237 158.947 169.61 159.316 169.593 159.855C169.585 160.143 169.461 160.402 169.31 160.627C169.182 160.818 169.012 161.014 168.815 161.219C168.558 163.034 168.037 164.228 167.184 165.146C166.327 166.067 165.169 166.666 163.802 167.367C163.771 167.382 163.739 167.396 163.706 167.405C163.069 167.578 162.544 167.671 162.005 167.67C161.468 167.669 160.945 167.574 160.312 167.405C160.093 167.346 159.941 167.149 159.941 166.922V165.281C159.941 165.12 160.018 164.969 160.148 164.875C160.278 164.781 160.446 164.756 160.598 164.806C161.162 164.993 161.571 165.078 161.973 165.08C162.36 165.082 162.773 165.005 163.346 164.826C164.131 164.248 164.662 163.789 165.054 163.235C165.421 162.716 165.685 162.084 165.891 161.14C165.698 160.931 165.536 160.733 165.413 160.547C165.255 160.31 165.125 160.038 165.121 159.743C165.116 159.416 165.266 159.153 165.481 158.955C165.636 158.812 165.833 158.695 166.05 158.592C166.112 158.429 166.132 158.316 166.13 158.218C166.129 158.128 166.11 158.027 166.064 157.887L165.109 157.691C165.028 157.674 164.953 157.638 164.89 157.585C164.615 157.356 164.392 157.148 164.237 156.955C164.095 156.779 163.935 156.524 163.96 156.221C163.989 155.876 164.233 155.676 164.42 155.57C164.608 155.464 164.846 155.39 165.085 155.329L165.146 155.317ZM142.663 156.111C142.587 156.163 142.534 156.206 142.498 156.244C142.482 156.259 142.474 156.273 142.468 156.281C142.475 156.299 142.489 156.331 142.522 156.381C142.581 156.471 142.68 156.588 142.835 156.741L143.919 156.964L144.021 156.997C144.118 157.039 144.199 157.112 144.252 157.205C144.443 157.538 144.567 157.861 144.561 158.219C144.555 158.569 144.426 158.885 144.262 159.2L144.258 159.206L143.885 159.897C143.844 160.099 143.879 160.137 143.892 160.155C143.932 160.207 144.028 160.287 144.264 160.4L144.55 160.525L144.651 160.579C144.744 160.644 144.812 160.74 144.844 160.851C145.283 162.383 145.664 163.468 146.296 164.362C146.912 165.232 147.795 165.956 149.299 166.698C149.861 166.821 150.268 166.877 150.64 166.877C150.916 166.877 151.185 166.845 151.494 166.78V165.946C151.063 166.041 150.648 166.072 150.244 166.024C149.628 165.951 149.074 165.703 148.563 165.3C147.566 164.514 146.716 163.119 145.818 161.201C145.732 161.016 145.766 160.798 145.904 160.649C146.127 160.408 146.27 160.225 146.35 160.083C146.389 160.015 146.407 159.966 146.415 159.935C146.418 159.92 146.42 159.91 146.42 159.904C146.421 159.898 146.421 159.896 146.42 159.895C146.42 159.894 146.42 159.893 146.418 159.89C146.417 159.887 146.414 159.881 146.408 159.872C146.394 159.851 146.366 159.818 146.308 159.772C146.188 159.677 145.987 159.563 145.668 159.429C145.538 159.374 145.437 159.267 145.39 159.133C145.28 158.818 145.204 158.527 145.201 158.216C145.198 157.901 145.27 157.605 145.395 157.276L145.422 157.215C145.495 157.081 145.627 156.986 145.78 156.96L147.162 156.727C147.343 156.595 147.447 156.499 147.501 156.429C147.514 156.413 147.52 156.398 147.526 156.389C147.516 156.373 147.499 156.345 147.464 156.307C147.416 156.254 147.351 156.194 147.267 156.124C146.231 156.495 145.441 156.63 144.703 156.588C143.992 156.549 143.359 156.347 142.663 156.111ZM165.224 156.329C165.16 156.347 165.105 156.361 165.059 156.377C165.141 156.471 165.266 156.588 165.441 156.738L166.537 156.964L166.653 157.003C166.762 157.056 166.849 157.147 166.897 157.261C167.028 157.576 167.126 157.877 167.13 158.204C167.135 158.537 167.044 158.845 166.89 159.178C166.838 159.292 166.744 159.382 166.628 159.43C166.37 159.538 166.229 159.626 166.158 159.691C166.135 159.712 166.125 159.725 166.121 159.732C166.122 159.751 166.136 159.829 166.246 159.994C166.357 160.161 166.535 160.372 166.795 160.641C166.909 160.759 166.958 160.924 166.926 161.084C166.697 162.253 166.377 163.096 165.871 163.812C165.369 164.521 164.709 165.071 163.87 165.684C163.826 165.716 163.778 165.741 163.727 165.757C163.064 165.97 162.519 166.083 161.968 166.08C161.624 166.079 161.291 166.031 160.941 165.947V166.53C161.352 166.624 161.683 166.67 162.007 166.67C162.411 166.671 162.828 166.603 163.393 166.452C164.771 165.745 165.744 165.225 166.452 164.464C167.145 163.719 167.616 162.701 167.847 160.924L167.865 160.844C167.888 160.766 167.931 160.695 167.989 160.636C168.222 160.402 168.381 160.219 168.48 160.071C168.581 159.92 168.593 159.846 168.593 159.825C168.594 159.822 168.599 159.796 168.54 159.729C168.469 159.648 168.334 159.54 168.093 159.402C167.965 159.327 167.875 159.2 167.85 159.053C167.739 158.4 167.75 158.013 167.849 157.376C167.883 157.157 168.058 156.988 168.278 156.958L170.063 156.721C170.129 156.676 170.188 156.636 170.239 156.598C168.226 156.819 167.035 156.765 165.224 156.329ZM159.201 159.712C158.811 159.834 158.414 159.81 158.126 159.763C158.11 159.761 158.095 159.756 158.08 159.753V159.991C158.268 160.04 158.405 160.054 158.522 160.048C158.686 160.04 158.841 159.996 159.088 159.914C159.18 159.826 159.212 159.778 159.222 159.758C159.219 159.749 159.213 159.734 159.201 159.712ZM152.929 159.63C152.889 159.663 152.86 159.692 152.837 159.715C152.876 159.759 152.934 159.813 153.018 159.881C153.614 159.967 153.943 159.979 154.218 159.946V159.738C153.82 159.784 153.421 159.732 152.929 159.63ZM155.218 165.281C155.218 166.674 155.186 167.528 155.215 168.772C155.433 169.065 155.615 169.269 155.772 169.401C155.947 169.547 156.055 169.573 156.118 169.574C156.181 169.574 156.293 169.55 156.481 169.403C156.648 169.272 156.843 169.066 157.08 168.767V165.319C156.768 163.602 156.753 162.475 157.08 160.321V159.171C156.839 158.434 156.72 157.813 156.727 157.167C156.734 156.504 156.872 155.845 157.099 155.044L157.127 154.967C157.209 154.795 157.384 154.681 157.58 154.681H159.18C159.398 154.512 159.549 154.378 159.649 154.272C159.568 154.242 159.462 154.209 159.322 154.174C156.863 154.542 155.562 154.496 153.486 154.17C153.357 154.185 153.25 154.199 153.163 154.215C153.276 154.337 153.442 154.49 153.672 154.681H154.718C154.958 154.681 155.164 154.851 155.209 155.086C155.512 156.648 155.556 157.571 155.218 159.142V160.327C155.33 161.29 155.329 162.06 155.301 162.823C155.273 163.599 155.218 164.331 155.218 165.281Z" fill="#A85D00"/>
<path d="M146.574 148.742C145.402 149.173 144.75 149.216 143.577 148.742C143.577 148.742 141.454 146.468 142.078 144.45C142.612 142.724 144.899 140.839 145.315 140.147C145.279 140.022 145.286 139.938 145.348 139.905C145.402 139.947 145.385 140.03 145.315 140.147C145.534 140.913 147.34 143.228 147.801 144.829C148.243 146.366 146.574 148.742 146.574 148.742Z" fill="#FEDE7F"/>
<path d="M157.883 147.48C156.765 147.945 156.107 147.935 154.885 147.48C153.505 146.346 153.387 145.586 153.387 143.819C153.387 142.051 155.513 139.511 157.065 138.012C157.437 139.19 160.063 142.809 159.927 144.45C159.79 146.091 159.246 146.456 157.883 147.48Z" fill="#FEDE7F"/>
<path d="M169.6 148.742C168.104 149.52 167.309 149.382 165.921 148.742C165.197 147.951 164.436 147.426 164.695 145.207C164.955 142.989 167.223 141.717 168.101 139.905C169.616 142.067 171.235 143.819 171.235 145.839C171.235 147.858 169.6 148.742 169.6 148.742Z" fill="#FEDE7F"/>
<path d="M170.735 145.839C170.735 144.965 170.386 144.118 169.811 143.188C169.337 142.422 168.76 141.67 168.141 140.818C167.664 141.516 167.049 142.146 166.544 142.73C165.844 143.541 165.303 144.316 165.192 145.265C165.069 146.314 165.195 146.895 165.388 147.29C165.582 147.686 165.851 147.932 166.216 148.325C166.853 148.614 167.302 148.761 167.736 148.774C168.176 148.788 168.659 148.667 169.36 148.304C169.361 148.303 169.363 148.302 169.367 148.3C169.374 148.295 169.387 148.288 169.404 148.277C169.438 148.255 169.491 148.22 169.556 148.172C169.687 148.074 169.863 147.924 170.04 147.721C170.389 147.315 170.735 146.702 170.735 145.839ZM145.182 139.433C145.341 139.377 145.52 139.405 145.656 139.511C145.866 139.674 145.898 139.911 145.873 140.074C145.868 140.102 145.861 140.129 145.854 140.155C145.914 140.287 146.014 140.475 146.161 140.721C146.366 141.068 146.619 141.467 146.893 141.914C147.424 142.779 148.029 143.814 148.281 144.69C148.423 145.183 148.388 145.711 148.285 146.194C148.18 146.681 147.997 147.158 147.807 147.571C147.616 147.986 147.412 148.348 147.255 148.606C147.177 148.735 147.111 148.839 147.063 148.912C147.039 148.948 147.02 148.977 147.006 148.997C147 149.007 146.994 149.014 146.99 149.019C146.988 149.022 146.987 149.025 146.986 149.026L146.984 149.028C146.925 149.111 146.842 149.177 146.747 149.212C146.142 149.434 145.622 149.574 145.082 149.581C144.536 149.587 144.011 149.457 143.39 149.206C143.322 149.179 143.261 149.136 143.211 149.083L143.202 149.073C143.197 149.068 143.19 149.059 143.181 149.05C143.164 149.03 143.139 149.002 143.108 148.967C143.046 148.895 142.96 148.791 142.86 148.661C142.66 148.402 142.398 148.033 142.156 147.595C141.685 146.74 141.227 145.511 141.6 144.303C141.902 143.325 142.678 142.351 143.368 141.578C143.718 141.186 144.069 140.821 144.343 140.527C144.549 140.307 144.698 140.138 144.793 140.017C144.793 139.989 144.795 139.96 144.798 139.93C144.818 139.771 144.904 139.574 145.116 139.463L145.182 139.433ZM145.074 141.21C144.786 141.518 144.454 141.862 144.114 142.243C143.423 143.017 142.788 143.849 142.556 144.597C142.306 145.407 142.598 146.324 143.032 147.111C143.242 147.493 143.473 147.819 143.651 148.05C143.739 148.164 143.814 148.254 143.866 148.314L143.867 148.316C144.365 148.509 144.727 148.585 145.07 148.581C145.408 148.577 145.762 148.494 146.251 148.323C146.29 148.262 146.343 148.184 146.401 148.088C146.544 147.852 146.728 147.524 146.899 147.153C147.071 146.78 147.222 146.375 147.306 145.984C147.391 145.589 147.399 145.242 147.32 144.967C147.112 144.242 146.583 143.32 146.041 142.436C145.778 142.009 145.51 141.585 145.3 141.231C145.267 141.176 145.235 141.12 145.204 141.064C145.16 141.112 145.118 141.162 145.074 141.21ZM156.767 137.61C156.887 137.521 157.042 137.49 157.189 137.527C157.357 137.57 157.49 137.696 157.542 137.861C157.617 138.098 157.822 138.499 158.125 139.041C158.412 139.556 158.783 140.19 159.126 140.818C159.471 141.452 159.81 142.116 160.054 142.733C160.292 143.334 160.469 143.959 160.425 144.491C160.353 145.367 160.164 145.973 159.762 146.5C159.386 146.993 158.839 147.387 158.183 147.88C158.15 147.905 158.113 147.925 158.075 147.941C157.483 148.188 156.97 148.327 156.421 148.325C155.878 148.323 155.343 148.184 154.71 147.948C154.659 147.929 154.611 147.901 154.568 147.866C153.841 147.269 153.393 146.727 153.149 146.058C152.912 145.412 152.886 144.695 152.886 143.818C152.886 142.77 153.5 141.583 154.233 140.529C154.982 139.452 155.926 138.417 156.718 137.652L156.767 137.61ZM171.735 145.839C171.735 146.995 171.264 147.833 170.796 148.375C170.564 148.644 170.331 148.842 170.155 148.973C170.066 149.039 169.991 149.089 169.936 149.124C169.909 149.141 169.886 149.154 169.87 149.164L169.842 149.179C169.841 149.18 169.84 149.18 169.839 149.18L169.837 149.182L169.831 149.185C169.041 149.596 168.381 149.794 167.705 149.773C167.039 149.753 166.416 149.521 165.711 149.196C165.651 149.168 165.597 149.129 165.552 149.08C165.232 148.73 164.781 148.322 164.491 147.73C164.187 147.11 164.062 146.319 164.199 145.149C164.347 143.88 165.069 142.909 165.788 142.077C166.539 141.206 167.251 140.515 167.652 139.687L167.684 139.63C167.768 139.502 167.907 139.42 168.061 139.407C168.238 139.393 168.41 139.473 168.511 139.618C169.24 140.659 170.06 141.689 170.662 142.662C171.275 143.654 171.735 144.692 171.735 145.839ZM153.886 143.818C153.886 144.708 153.921 145.256 154.088 145.715C154.243 146.137 154.53 146.528 155.138 147.038C155.685 147.237 156.07 147.324 156.424 147.325C156.777 147.326 157.139 147.242 157.636 147.039C158.31 146.533 158.703 146.24 158.967 145.893C159.213 145.571 159.365 145.173 159.428 144.408C159.452 144.119 159.352 143.677 159.125 143.101C158.903 142.542 158.588 141.92 158.248 141.297C157.904 140.668 157.556 140.074 157.251 139.528C157.127 139.305 157.008 139.085 156.904 138.881C156.274 139.533 155.604 140.309 155.054 141.1C154.336 142.133 153.886 143.1 153.886 143.818Z" fill="#F2B333"/>
<path d="M190.798 200H3.26859C2.16402 200 1.26859 199.105 1.26859 198V186.795C1.26859 185.691 2.16402 184.795 3.26859 184.795H190.798C191.902 184.795 192.798 185.691 192.798 186.795V198C192.798 199.105 191.902 200 190.798 200Z" fill="#D89434"/>
<path d="M192.647 186.795C192.647 185.774 191.82 184.946 190.798 184.946H3.26859C2.24686 184.946 1.41898 185.774 1.41898 186.795V198C1.4192 199.022 2.247 199.85 3.26859 199.85H190.798C191.819 199.85 192.647 199.022 192.647 198V186.795ZM192.948 198C192.948 199.188 191.985 200.15 190.798 200.15H3.26859C2.08131 200.15 1.11841 199.188 1.1182 198V186.795C1.1182 185.608 2.08118 184.645 3.26859 184.645H190.798C191.985 184.645 192.948 185.608 192.948 186.795V198Z" fill="#D79334"/>
<path d="M95.1306 200V181.484C95.1306 180.083 96.2664 178.947 97.6674 178.947C99.0685 178.947 100.204 180.083 100.204 181.484V200H95.1306Z" fill="#E7AC47"/>
<path d="M100.054 181.484C100.054 180.166 98.9858 179.098 97.6677 179.098C96.3495 179.098 95.281 180.166 95.281 181.484V199.85H100.054V181.484ZM100.354 200.149H94.9802V181.484C94.9802 180.001 96.1838 178.797 97.6677 178.797C99.1515 178.797 100.354 180.001 100.354 181.484V200.149Z" fill="#E7AC47"/>
<path d="M98.9356 199.415H123.67C123.67 199.415 124.209 171.93 123.67 158.48C123.13 145.029 113.886 139.421 98.9356 135.673V199.415Z" fill="#CC8830"/>
<path d="M98.7852 199.565H123.816L123.819 199.419V199.413C123.819 199.41 123.82 199.405 123.82 199.398C123.821 199.385 123.821 199.365 123.821 199.339C123.822 199.286 123.823 199.208 123.825 199.106C123.829 198.902 123.835 198.6 123.842 198.211C123.856 197.433 123.874 196.306 123.896 194.913C123.938 192.126 123.988 188.27 124.021 183.993C124.089 175.44 124.089 165.203 123.819 158.473C123.548 151.709 121.085 146.904 116.803 143.323C112.529 139.749 106.453 137.403 98.9717 135.527L98.7852 135.48V199.565ZM99.086 135.866C106.468 137.731 112.425 140.053 116.61 143.553C120.823 147.076 123.252 151.8 123.52 158.486C123.789 165.207 123.789 175.437 123.722 183.99C123.688 188.266 123.638 192.121 123.596 194.908C123.575 196.301 123.556 197.428 123.542 198.206C123.535 198.594 123.529 198.896 123.525 199.1C123.524 199.165 123.523 199.22 123.522 199.265H99.086V135.866Z" fill="#CC8930"/>
<path d="M101.472 172.367V169.154C101.472 168.104 102.324 167.252 103.375 167.252C104.426 167.252 105.278 168.104 105.278 169.154V172.367C105.278 173.417 104.426 174.269 103.375 174.269C102.324 174.269 101.472 173.417 101.472 172.367Z" fill="#EEB34D"/>
<path d="M105.128 169.154C105.128 168.186 104.343 167.402 103.375 167.402C102.407 167.402 101.623 168.186 101.623 169.154V172.367C101.623 173.335 102.407 174.119 103.375 174.119C104.343 174.119 105.128 173.335 105.128 172.367V169.154ZM105.428 172.367C105.427 173.5 104.508 174.42 103.375 174.42C102.241 174.42 101.322 173.5 101.322 172.367V169.154C101.322 168.021 102.241 167.101 103.375 167.101C104.508 167.101 105.427 168.021 105.428 169.154V172.367Z" fill="#E8AD47"/>
<path d="M96.0043 199.415H71.2704C71.2704 199.415 70.7312 171.93 71.2704 158.48C71.8096 145.029 81.0544 139.421 96.0043 135.673V199.415Z" fill="#CC8830"/>
<path d="M96.1548 199.565H71.1235L71.1206 199.419V199.413C71.1205 199.41 71.1197 199.405 71.1196 199.398C71.1193 199.385 71.1191 199.365 71.1186 199.339C71.1176 199.286 71.1166 199.208 71.1147 199.106C71.1109 198.902 71.105 198.6 71.0981 198.211C71.0844 197.433 71.0655 196.306 71.0444 194.913C71.0023 192.126 70.9521 188.27 70.9184 183.993C70.851 175.44 70.8508 165.203 71.1206 158.473C71.3918 151.709 73.8551 146.904 78.1372 143.323C82.4112 139.749 88.4874 137.403 95.9682 135.527L96.1548 135.48V199.565ZM95.854 135.866C88.4714 137.731 82.5149 140.053 78.3296 143.553C74.1171 147.076 71.6884 151.8 71.4204 158.486C71.151 165.207 71.1508 175.437 71.2182 183.99C71.2519 188.266 71.3021 192.121 71.3442 194.908C71.3653 196.301 71.3842 197.428 71.3979 198.206C71.4048 198.594 71.4107 198.896 71.4145 199.1C71.4157 199.165 71.4166 199.22 71.4174 199.265H95.854V135.866Z" fill="#CC8930"/>
<path d="M90.0571 172.367V169.154C90.0571 168.104 90.9089 167.252 91.9597 167.252C93.0105 167.252 93.8623 168.104 93.8623 169.154V172.367C93.8623 173.417 93.0105 174.269 91.9597 174.269C90.9089 174.269 90.0571 173.417 90.0571 172.367Z" fill="#EEB34D"/>
<path d="M93.7123 169.154C93.7122 168.186 92.9273 167.402 91.9594 167.402C90.9917 167.402 90.2076 168.186 90.2075 169.154V172.367C90.2076 173.335 90.9917 174.119 91.9594 174.119C92.9273 174.119 93.7122 173.335 93.7123 172.367V169.154ZM94.0122 172.367C94.012 173.5 93.0929 174.42 91.9594 174.42C90.826 174.42 89.9068 173.5 89.9067 172.367V169.154C89.9068 168.021 90.826 167.101 91.9594 167.101C93.093 167.101 94.012 168.021 94.0122 169.154V172.367Z" fill="#E8AD47"/>
<path d="M96.3993 8.18696L135.944 28.3624H56.8543L96.3993 8.18696Z" fill="#CC882F"/>
<path d="M9.51256 40.3509L185.479 40.3509V45.0293H9.51303L9.51256 40.3509Z" fill="#CC882F"/>
<path d="M0 102.585C0 101.48 0.895431 100.585 2 100.585H190.798C191.902 100.585 192.798 101.48 192.798 102.585V126.655C192.798 127.76 191.902 128.655 190.798 128.655H1.99999C0.895424 128.655 0 127.76 0 126.655V102.585Z" fill="#D39034"/>
<path d="M0 108.772H192.798V120.468H0V108.772Z" fill="#E6AA46"/>
<path d="M169.235 54.9708H138.988C137.883 54.9708 136.988 55.8662 136.988 56.9708V90.3977C136.988 91.5023 137.883 92.3977 138.988 92.3977H146.501C146.305 87.0002 145.261 83.7439 142.696 77.7778C150.031 73.2939 151.505 66.9335 154.111 55.5556C156.443 65.9313 156.71 72.4942 166.161 77.7778C163.311 82.4295 162.553 85.8326 161.722 92.3977H169.235C170.339 92.3977 171.235 91.5023 171.235 90.3977V56.9708C171.235 55.8662 170.339 54.9708 169.235 54.9708Z" fill="#D59334"/>
<path d="M154.257 55.5225C155.427 60.7256 156.072 64.9364 157.604 68.5177C159.13 72.0835 161.536 75.0202 166.234 77.6466L166.371 77.7227L166.289 77.8565C163.479 82.4415 162.714 85.8015 161.892 92.2481H169.235C170.257 92.2481 171.085 91.4192 171.085 90.3975V56.9708C171.085 55.9491 170.257 55.1212 169.235 55.1212H138.988C137.966 55.1212 137.138 55.9491 137.138 56.9708V90.3975C137.138 91.4193 137.966 92.2481 138.988 92.2481H146.343C146.134 86.9693 145.095 83.7376 142.558 77.837L142.507 77.7178L142.618 77.6495C149.891 73.2038 151.357 66.9127 153.965 55.5225H154.257ZM171.384 90.3975C171.384 91.5849 170.422 92.5479 169.235 92.5479H161.551L161.573 92.379C162.397 85.8678 163.154 82.4437 165.955 77.8321C161.29 75.1939 158.867 72.2307 157.329 68.6348C155.847 65.1728 155.181 61.1206 154.107 56.2403C151.607 67.1452 150.044 73.405 142.883 77.836C145.415 83.7358 146.455 87.0043 146.651 92.3927L146.657 92.5479H138.988C137.801 92.5479 136.838 91.5849 136.838 90.3975V56.9708C136.838 55.7834 137.801 54.8204 138.988 54.8204H169.235C170.422 54.8204 171.384 55.7834 171.384 56.9708V90.3975Z" fill="#D69333"/>
<path d="M55.0782 54.9708H24.8313C23.7267 54.9708 22.8313 55.8662 22.8313 56.9708V90.3977C22.8313 91.5023 23.7267 92.3977 24.8313 92.3977H32.3443C32.1482 87.0002 31.1041 83.7439 28.5391 77.7778C35.8746 73.2939 37.3486 66.9335 39.9548 55.5556C42.2862 65.9313 42.5535 72.4942 52.0046 77.7778C49.1542 82.4295 48.3961 85.8326 47.5652 92.3977H55.0782C56.1828 92.3977 57.0782 91.5023 57.0782 90.3977V56.9708C57.0782 55.8662 56.1828 54.9708 55.0782 54.9708Z" fill="#D59334"/>
<path d="M40.1008 55.5225C41.2699 60.7256 41.915 64.9364 43.4475 68.5177C44.9734 72.0835 47.3797 75.0202 52.0774 77.6466L52.2141 77.7227L52.1321 77.8565C49.3227 82.4415 48.5572 85.8015 47.7356 92.2481H55.0783C56.1 92.2481 56.928 91.4192 56.928 90.3975V56.9708C56.928 55.9491 56.1 55.1212 55.0783 55.1212H24.8313C23.8095 55.1212 22.9817 55.9491 22.9817 56.9708V90.3975C22.9817 91.4193 23.8096 92.2481 24.8313 92.2481H32.1867C31.9773 86.9693 30.9384 83.7376 28.4016 77.837L28.3498 77.7178L28.4612 77.6495C35.7338 73.2038 37.1998 66.9127 39.8088 55.5225H40.1008ZM57.2278 90.3975C57.2278 91.5849 56.2657 92.5479 55.0783 92.5479H47.3948L47.4162 92.379C48.2404 85.8678 48.9973 82.4437 51.7981 77.8321C47.1329 75.1939 44.7108 72.2307 43.1721 68.6348C41.6907 65.1728 41.0248 61.1206 39.9504 56.2403C37.4499 67.1452 35.8877 73.405 28.7268 77.836C31.2585 83.7358 32.2986 87.0043 32.4944 92.3927L32.5002 92.5479H24.8313C23.6439 92.5479 22.6809 91.5849 22.6809 90.3975V56.9708C22.6809 55.7834 23.6439 54.8204 24.8313 54.8204H55.0783C56.2657 54.8204 57.2278 55.7834 57.2278 56.9708V90.3975Z" fill="#D69333"/>
<path d="M109.986 68.8362H96.2503L96.4397 92.5667H108.986C109.539 92.5666 109.986 92.1197 109.986 91.5686V68.8362ZM96.2347 66.8362H109.954C109.733 63.185 108.294 60.3048 105.969 58.2835C103.609 56.2318 100.255 54.9953 96.138 54.8225L96.2347 66.8362ZM94.138 54.8206C90.0142 54.9734 86.8182 56.0891 84.6194 58.055C82.4453 59.999 81.1229 62.8845 80.9339 66.8362H94.2337L94.138 54.8206ZM111.986 91.5686C111.986 93.2265 110.641 94.5666 108.986 94.5667H81.9095C80.2526 94.5667 78.9095 93.2235 78.9095 91.5667V67.8362C78.9095 62.9487 80.4078 59.1387 83.2864 56.5647C86.1465 54.0074 90.2237 52.8011 95.1302 52.8011C100.064 52.8011 104.282 54.1668 107.282 56.7747C110.297 59.3968 111.986 63.1926 111.986 67.8362V91.5686ZM80.9095 91.5667C80.9095 92.119 81.3572 92.5667 81.9095 92.5667H94.4397L94.2503 68.8362H80.9095V91.5667Z" fill="#CF8D33"/>
</svg>
