<svg width="202" height="187" viewBox="0 0 202 187" fill="none" xmlns="http://www.w3.org/2000/svg">
<path d="M35.3618 9.37646V43.1687C35.3618 45.9193 37.5835 48.1534 40.3341 48.1687L162.055 48.8427C164.827 48.858 167.083 46.615 167.083 43.8428V9.37646C167.083 6.61504 164.844 4.37646 162.083 4.37646H40.3618C37.6004 4.37646 35.3618 6.61504 35.3618 9.37646Z" fill="#FF989F"/>
<path d="M166.082 9.37646C166.082 7.16732 164.292 5.37646 162.082 5.37646H40.3618C38.1526 5.37646 36.3618 7.16733 36.3618 9.37646V43.1685C36.3618 45.3688 38.139 47.1561 40.3393 47.1685L162.06 47.8423C164.278 47.8546 166.082 46.0601 166.082 43.8423V9.37646ZM168.082 43.8423C168.082 47.169 165.376 49.8607 162.049 49.8423L40.3286 49.1685C37.0279 49.1502 34.3618 46.4692 34.3618 43.1685V9.37646C34.3618 6.06276 37.0481 3.37646 40.3618 3.37646H162.082C165.396 3.37646 168.082 6.06276 168.082 9.37646V43.8423Z" fill="#B28158"/>
<path d="M194.286 169.224C184.98 169.224 21.0445 169.223 9.59048 169.224C-1.86349 169.224 -1.8635 186 9.59048 186H194.286C202.876 186 203.592 169.224 194.286 169.224Z" fill="#FDCAA2"/>
<path d="M194.286 168.223C196.959 168.223 198.956 169.448 200.238 171.269C201.496 173.056 202.045 175.377 201.997 177.633C201.949 179.891 201.3 182.195 200.031 183.962C198.745 185.753 196.805 187 194.286 187H9.59082C6.46419 187 4.04148 185.846 2.4082 184.051C0.790198 182.274 5.67446e-06 179.929 0 177.612C7.07854e-07 175.295 0.79006 172.949 2.4082 171.172C4.04146 169.378 6.46432 168.223 9.59082 168.223C21.048 168.223 184.98 168.223 194.286 168.223ZM9.59082 170.223C6.99046 170.223 5.11696 171.167 3.88672 172.518C2.64148 173.886 2 175.735 2 177.612C2.00001 179.489 2.64144 181.338 3.88672 182.706C5.11694 184.057 6.99046 185 9.59082 185H194.286C196.062 185 197.433 184.15 198.406 182.796C199.396 181.417 199.957 179.526 199.998 177.59C200.039 175.653 199.559 173.78 198.603 172.421C197.67 171.096 196.266 170.223 194.286 170.223C184.98 170.223 21.0472 170.223 9.59082 170.223Z" fill="#B07F56"/>
<path d="M186.411 62.7291V169.223H16.7491V62.7291H186.411Z" fill="#FFDEDF"/>
<path d="M187.411 61.7291V170.223H15.7491V61.7291H187.411ZM17.7491 168.223H185.411V63.7291H17.7491V168.223Z" fill="#B07F56"/>
<path d="M125.562 89.5294V168.494H175.673L174.975 89.5117C174.965 88.4141 174.073 87.5294 172.975 87.5294H127.562C126.458 87.5294 125.562 88.4249 125.562 89.5294Z" fill="#E5AE82"/>
<path d="M172.975 86.5294C174.622 86.5295 175.961 87.8567 175.975 89.5031L176.682 169.494H124.562V89.5294C124.562 87.8726 125.905 86.5294 127.562 86.5294H172.975ZM126.562 167.494H174.665L173.975 89.5206C173.971 88.9719 173.524 88.5295 172.975 88.5294H127.562C127.01 88.5294 126.562 88.9771 126.562 89.5294V167.494Z" fill="#B07F56"/>
<path d="M136.208 129.867C134.319 129.885 132.772 128.267 132.754 126.253C132.736 124.239 134.253 122.591 136.142 122.574C138.031 122.556 139.578 124.174 139.596 126.188C139.614 128.202 138.097 129.849 136.208 129.867Z" fill="#B28056"/>
<path d="M94.7794 130.023V89.5294C94.7794 88.4249 93.884 87.5294 92.7794 87.5294H33.0666C31.9621 87.5294 31.0666 88.4249 31.0666 89.5294V130.023C31.0666 131.128 31.9621 132.023 33.0666 132.023H92.7794C93.884 132.023 94.7794 131.128 94.7794 130.023Z" fill="#D1E5EB"/>
<path d="M93.7795 89.5294C93.7795 89.0118 93.3861 88.5857 92.8821 88.5343L92.7795 88.5294H33.0666C32.5144 88.5294 32.0666 88.9771 32.0666 89.5294V130.024C32.0667 130.576 32.5144 131.024 33.0666 131.024H92.7795C93.3317 131.024 93.7795 130.576 93.7795 130.024V89.5294ZM95.7795 130.024C95.7795 131.68 94.4363 133.023 92.7795 133.024H33.0666C31.4098 133.024 30.0667 131.68 30.0666 130.024V89.5294C30.0666 87.8726 31.4098 86.5294 33.0666 86.5294H92.7795L92.9338 86.5333C94.5189 86.6137 95.7795 87.9243 95.7795 89.5294V130.024Z" fill="#B07F56"/>
<path d="M61.5647 131.294V110.412H31.0666C30.5145 110.412 30.0669 109.964 30.0666 109.412C30.0666 108.86 30.5144 108.412 31.0666 108.412H61.5647V87.5294C61.5647 86.9773 62.0126 86.5296 62.5647 86.5294C63.117 86.5294 63.5647 86.9771 63.5647 87.5294V108.412H94.0637C94.6159 108.412 95.0637 108.86 95.0637 109.412C95.0634 109.964 94.6157 110.412 94.0637 110.412H63.5647V131.294C63.5647 131.846 63.117 132.294 62.5647 132.294C62.0126 132.294 61.5647 131.846 61.5647 131.294Z" fill="#B07F56"/>
<path d="M186.609 37.929H15.8087C15.4834 37.929 15.1528 37.9668 14.8774 38.1399C11.829 40.0556 10.5825 50.741 8.29015 65.5314C8.20491 66.0814 8.27348 66.6598 8.50599 67.1655C15.0483 81.3944 28.7669 76.4909 33.1083 66.6227C33.1455 66.538 33.2712 66.5479 33.3011 66.6355C37.6625 79.395 50.9754 77.2721 56.0271 66.5807C56.0641 66.5026 56.1794 66.5063 56.2147 66.5852C61.9335 79.3712 73.8504 76.5792 78.2107 66.6178C78.2475 66.5338 78.3718 66.5399 78.4029 66.6262C82.767 78.7015 96.0773 78.6927 100.428 66.5996C100.457 66.5169 100.576 66.5096 100.617 66.5874C107.739 80.0658 121.033 75.8883 123.353 66.6331C123.376 66.5439 123.499 66.5289 123.545 66.6089C129.978 77.9616 141.904 77.2538 146.94 66.5881C146.977 66.5089 147.093 66.5088 147.127 66.5893C150.786 75.1673 162.016 80.078 169.122 67.302C169.164 67.2271 169.28 67.2359 169.311 67.3158C175.147 82.3424 195.569 73.6298 194.286 64.9172C193.077 56.7083 192.892 48.6996 189.316 39.7262C188.877 38.6246 187.795 37.929 186.609 37.929Z" fill="#FF939A"/>
<path d="M186.609 36.929C188.181 36.929 189.646 37.8535 190.245 39.3558C193.879 48.4739 194.086 56.6969 195.275 64.7718C195.658 67.3769 194.405 69.8546 192.449 71.7914C190.483 73.7379 187.702 75.2563 184.706 75.9896C181.707 76.7236 178.418 76.6881 175.462 75.4251C172.904 74.3319 170.66 72.3448 169.095 69.2796C165.513 74.7815 160.974 76.6692 156.665 75.9398C152.662 75.2622 149.118 72.3615 147.005 68.6009C144.297 73.2071 140.175 75.7643 135.787 75.8548C131.391 75.9454 126.977 73.5576 123.694 68.7406C121.961 72.7923 118.189 75.6372 113.9 76.1292C109.307 76.656 104.318 74.4793 100.658 68.6556C98.1853 73.9037 93.8779 76.6716 89.4215 76.6761C84.9978 76.6805 80.7183 73.9614 78.231 68.7962C75.8047 73.0322 71.9399 75.7916 67.8033 76.1283C63.4309 76.484 59.0822 74.1163 56.0904 68.5912C53.3233 73.2704 48.9169 76.1317 44.4654 76.4007C39.9317 76.6746 35.5954 74.2498 33.1002 68.8285C30.5874 73.1239 26.3372 76.2716 21.773 76.9203C19.1635 77.2911 16.4637 76.8401 13.9791 75.3246C11.5004 73.8126 9.29694 71.28 7.59725 67.5833C7.2766 66.8859 7.18935 66.1072 7.30233 65.3783C8.44405 58.0117 9.33508 51.5976 10.3209 46.806C10.814 44.409 11.3403 42.3675 11.9517 40.7874C12.5461 39.2516 13.2922 37.9551 14.3453 37.2933C14.866 36.9661 15.4326 36.929 15.8092 36.929H186.609ZM15.8092 38.929C15.6813 38.929 15.5873 38.9367 15.5172 38.9505C15.4507 38.9637 15.4211 38.9796 15.4098 38.9867C14.9387 39.2827 14.3853 40.0405 13.817 41.5091C13.2658 42.9335 12.7659 44.847 12.2799 47.2093C11.3073 51.9369 10.4285 58.2611 9.27792 65.6849C9.22052 66.0558 9.27041 66.4336 9.41464 66.7474C10.986 70.1651 12.9509 72.3553 15.0201 73.6175C17.0834 74.8761 19.3112 75.2507 21.4918 74.9408C25.8899 74.3157 30.1401 70.8863 32.193 66.2201L32.2359 66.1322C32.4664 65.7094 32.909 65.5403 33.2789 65.5667C33.6175 65.591 33.9816 65.7823 34.1754 66.1458L34.2476 66.3119L34.4459 66.8665C36.56 72.4798 40.4855 74.6369 44.3453 74.4037C48.4211 74.1572 52.7231 71.2318 55.1226 66.1537L55.2115 65.9964C55.6643 65.3198 56.6456 65.4018 57.0504 66.0335L57.1275 66.1771L57.3883 66.7386C60.1188 72.4271 64.0517 74.4272 67.6412 74.1351C71.4289 73.8268 75.2245 70.946 77.2945 66.2171L77.3824 66.0511C77.8385 65.3339 78.8883 65.4307 79.2721 66.1283L79.3433 66.2865L79.5435 66.8138C81.668 72.1742 85.6281 74.6799 89.4195 74.6761C93.3333 74.6722 97.4246 71.9938 99.4869 66.2611L99.5592 66.099C99.9709 65.3371 101.093 65.3465 101.502 66.1205C104.91 72.5712 109.657 74.6022 113.671 74.1419C117.758 73.6733 121.324 70.6172 122.383 66.39L122.442 66.2122C122.795 65.3776 123.973 65.3372 124.415 66.1156C127.497 71.5547 131.784 73.9375 135.746 73.8558C139.707 73.7741 143.645 71.2239 146.036 66.1615L146.117 66.0169C146.54 65.3871 147.535 65.3382 147.964 66.0355L148.047 66.1966L148.214 66.5736C149.992 70.4372 153.371 73.353 156.999 73.9671C160.626 74.5812 164.843 72.9386 168.249 66.8158L168.343 66.6712C168.823 66.0476 169.791 66.1377 170.17 66.8021L170.243 66.9535L170.374 67.2796C171.749 70.6052 173.874 72.5719 176.249 73.5863C178.723 74.6436 181.555 74.702 184.23 74.0472C186.908 73.3917 189.357 72.038 191.042 70.3705C192.736 68.6928 193.554 66.814 193.296 65.0628C192.068 56.7199 191.906 48.9248 188.387 40.096C188.108 39.3955 187.408 38.929 186.609 38.929H15.8092Z" fill="#B07F57"/>
<path d="M190.323 59.157L12.1467 59.8077C11.5482 59.8099 11.0818 59.2865 11.1537 58.6923C12.0516 51.266 13.1135 47.1831 15.1004 40.7482C15.2292 40.3311 15.6146 40.046 16.0511 40.0443L187.361 39.3914C187.835 39.3896 188.245 39.7207 188.343 40.1838C189.828 47.1847 190.621 51.4359 191.311 58.0569C191.373 58.6435 190.913 59.1549 190.323 59.157Z" fill="#FFA9AE"/>
<path d="M187.359 38.8912C188.07 38.8885 188.685 39.3853 188.832 40.0797C190.319 47.0892 191.115 51.36 191.809 58.0055C191.9 58.8866 191.21 59.6534 190.325 59.6569L12.1484 60.3073C11.2499 60.3104 10.5493 59.5256 10.6572 58.6325C11.5597 51.168 12.6301 47.0543 14.623 40.6002C14.8165 39.9744 15.3942 39.5472 16.0488 39.5446L187.359 38.8912ZM16.0527 40.5446C15.8346 40.5455 15.6423 40.6883 15.5781 40.8961C13.5971 47.3117 12.5437 51.3644 11.6503 58.7526C11.6148 59.0475 11.8463 59.3081 12.1445 59.3073L190.321 58.6569C190.615 58.6557 190.845 58.4006 190.814 58.109C190.126 51.5124 189.337 47.2801 187.853 40.2877C187.804 40.0562 187.599 39.8904 187.363 39.8912L16.0527 40.5446Z" fill="#FFA9AE"/>
<path d="M115.201 10.7399C115.201 10.1666 115.368 9.71324 115.701 9.37991C116.034 9.04657 116.488 8.87991 117.061 8.87991H123.661C123.754 9.02657 123.834 9.21991 123.901 9.45991C123.981 9.69991 124.021 9.95324 124.021 10.2199C124.021 10.7266 123.908 11.0866 123.681 11.2999C123.468 11.5132 123.181 11.6199 122.821 11.6199H118.601V13.4799H123.101C123.194 13.6266 123.274 13.8199 123.341 14.0599C123.421 14.2866 123.461 14.5332 123.461 14.7999C123.461 15.3066 123.354 15.6666 123.141 15.8799C122.928 16.0932 122.641 16.1999 122.281 16.1999H118.601V18.2999H123.741C123.834 18.4466 123.914 18.6399 123.981 18.8799C124.061 19.1199 124.101 19.3732 124.101 19.6399C124.101 20.1466 123.988 20.5132 123.761 20.7399C123.548 20.9532 123.261 21.0599 122.901 21.0599H117.061C116.488 21.0599 116.034 20.8932 115.701 20.5599C115.368 20.2266 115.201 19.7732 115.201 19.1999V10.7399Z" fill="#FAA8AA"/>
<path d="M113.096 8.87991C113.189 9.02657 113.269 9.22657 113.336 9.47991C113.416 9.71991 113.456 9.97324 113.456 10.2399C113.456 10.7599 113.343 11.1332 113.116 11.3599C112.903 11.5732 112.609 11.6799 112.236 11.6799H108.036V13.9399H112.416C112.523 14.0866 112.609 14.2799 112.676 14.5199C112.756 14.7599 112.796 15.0132 112.796 15.2799C112.796 15.7866 112.683 16.1532 112.456 16.3799C112.243 16.5932 111.949 16.6999 111.576 16.6999H108.076V20.9199C107.929 20.9599 107.696 20.9999 107.376 21.0399C107.069 21.0799 106.763 21.0999 106.456 21.0999C106.149 21.0999 105.876 21.0732 105.636 21.0199C105.409 20.9799 105.216 20.8999 105.056 20.7799C104.896 20.6599 104.776 20.4932 104.696 20.2799C104.616 20.0666 104.576 19.7866 104.576 19.4399V10.7399C104.576 10.1666 104.743 9.71324 105.076 9.37991C105.409 9.04657 105.863 8.87991 106.436 8.87991H113.096Z" fill="#FAA8AA"/>
<path d="M94.6169 9.23991C94.8436 9.10657 95.1836 8.97991 95.6369 8.85991C96.1036 8.73991 96.5703 8.67991 97.0369 8.67991C97.7036 8.67991 98.2903 8.77991 98.797 8.97991C99.3169 9.16657 99.6503 9.46657 99.797 9.87991C100.037 10.5732 100.297 11.3799 100.577 12.2999C100.857 13.2199 101.137 14.1732 101.417 15.1599C101.697 16.1332 101.97 17.0999 102.237 18.0599C102.504 19.0066 102.737 19.8466 102.937 20.5799C102.777 20.7666 102.537 20.9132 102.217 21.0199C101.897 21.1399 101.517 21.1999 101.077 21.1999C100.757 21.1999 100.484 21.1732 100.257 21.1199C100.044 21.0666 99.8636 20.9866 99.7169 20.8799C99.5836 20.7732 99.4703 20.6332 99.3769 20.4599C99.2969 20.2866 99.2236 20.0866 99.157 19.8599L98.797 18.4799H95.1769C95.0703 18.8799 94.9636 19.2932 94.8569 19.7199C94.7503 20.1466 94.6436 20.5599 94.5369 20.9599C94.3503 21.0266 94.1503 21.0799 93.937 21.1199C93.737 21.1732 93.4903 21.1999 93.1969 21.1999C92.5169 21.1999 92.0103 21.0866 91.6769 20.8599C91.3569 20.6199 91.1969 20.2932 91.1969 19.8799C91.1969 19.6932 91.2236 19.5066 91.2769 19.3199C91.3303 19.1332 91.3903 18.9132 91.4569 18.6599C91.5503 18.2999 91.6769 17.8532 91.8369 17.3199C92.0103 16.7866 92.1969 16.2132 92.3969 15.5999C92.5969 14.9732 92.8103 14.3332 93.0369 13.6799C93.2636 13.0266 93.477 12.4132 93.6769 11.8399C93.8769 11.2532 94.0569 10.7332 94.2169 10.2799C94.3903 9.82657 94.5236 9.47991 94.6169 9.23991ZM97.0169 11.8199C96.8303 12.3799 96.6169 13.0066 96.3769 13.6999C96.1503 14.3799 95.9436 15.0732 95.7569 15.7799H98.2369C98.0503 15.0599 97.8569 14.3599 97.6569 13.6799C97.4703 12.9866 97.297 12.3666 97.1369 11.8199H97.0169Z" fill="#FAA8AA"/>
<path d="M86.4982 11.3199C85.4715 11.3199 84.6849 11.6332 84.1382 12.2599C83.5915 12.8866 83.3182 13.7732 83.3182 14.9199C83.3182 16.0799 83.6182 16.9732 84.2182 17.5999C84.8315 18.2266 85.6515 18.5399 86.6782 18.5399C87.2249 18.5399 87.6849 18.4666 88.0582 18.3199C88.4449 18.1732 88.8115 18.0066 89.1582 17.8199C89.3849 18.0066 89.5582 18.2332 89.6782 18.4999C89.8115 18.7532 89.8782 19.0532 89.8782 19.3999C89.8782 19.9466 89.5715 20.4132 88.9582 20.7999C88.3582 21.1732 87.4382 21.3599 86.1982 21.3599C85.3049 21.3599 84.4649 21.2332 83.6782 20.9799C82.8915 20.7266 82.2049 20.3399 81.6182 19.8199C81.0315 19.2866 80.5649 18.6199 80.2182 17.8199C79.8849 17.0066 79.7182 16.0399 79.7182 14.9199C79.7182 13.8799 79.8782 12.9666 80.1982 12.1799C80.5315 11.3799 80.9782 10.7066 81.5382 10.1599C82.1115 9.61324 82.7782 9.19991 83.5382 8.91991C84.2982 8.63991 85.1115 8.49991 85.9782 8.49991C87.2049 8.49991 88.1515 8.69991 88.8182 9.09991C89.4982 9.49991 89.8382 10.0132 89.8382 10.6399C89.8382 10.9866 89.7515 11.2866 89.5782 11.5399C89.4049 11.7932 89.2049 11.9932 88.9782 12.1399C88.6315 11.9132 88.2582 11.7199 87.8582 11.5599C87.4715 11.3999 87.0182 11.3199 86.4982 11.3199Z" fill="#FAA8AA"/>
<path d="M114.201 19.2001V10.7401C114.201 9.96271 114.434 9.23283 114.994 8.67276C115.554 8.11277 116.284 7.87979 117.061 7.87979L117.061 8.87991L116.852 8.8876C116.376 8.92408 115.993 9.08833 115.701 9.37991L115.584 9.51065C115.329 9.82856 115.201 10.2383 115.201 10.7399V19.1999L115.209 19.4091C115.245 19.8845 115.409 20.2682 115.701 20.5599C115.993 20.8515 116.376 21.0152 116.852 21.0517L117.061 21.0599H122.901L123.032 21.0546C123.289 21.0347 123.504 20.9553 123.678 20.8153L123.761 20.7399C123.988 20.5132 124.101 20.1466 124.101 19.6399C124.101 19.3732 124.061 19.1199 123.981 18.8799C123.914 18.6399 123.834 18.4466 123.741 18.2999H118.601V16.1999H122.281L122.413 16.1952C122.712 16.1718 122.954 16.0664 123.141 15.8799C123.354 15.6666 123.461 15.3066 123.461 14.7999C123.461 14.5332 123.421 14.2866 123.341 14.0599C123.274 13.8199 123.194 13.6266 123.101 13.4799H118.601V11.6199H122.821L122.952 11.6151C123.251 11.5919 123.494 11.4866 123.681 11.2999C123.879 11.1133 123.991 10.8144 124.016 10.4032L124.021 10.2199C124.021 9.95324 123.981 9.69991 123.901 9.45991C123.834 9.21991 123.754 9.02657 123.661 8.87991H117.061L117.061 7.87979H124.21L124.505 8.34268C124.669 8.60012 124.782 8.89461 124.864 9.19229C124.969 9.52476 125.021 9.86835 125.021 10.2196C125.021 10.8351 124.889 11.5359 124.366 12.0282L124.364 12.0263C124.149 12.2356 123.906 12.3851 123.645 12.4804H123.65L123.944 12.9433C124.108 13.2006 124.222 13.4943 124.305 13.7919C124.411 14.117 124.461 14.4548 124.461 14.7997C124.461 15.4017 124.342 16.0929 123.849 16.5868C123.412 17.0232 122.851 17.2001 122.281 17.2001H119.601V17.2997H124.29L124.585 17.7626C124.749 18.02 124.862 18.3146 124.944 18.6122C125.049 18.9447 125.1 19.2883 125.101 19.6396C125.101 20.2625 124.966 20.9489 124.468 21.4472C124.031 21.8833 123.471 22.0594 122.901 22.0595H117.061C116.284 22.0595 115.554 21.8273 114.994 21.2675C114.434 20.7075 114.201 19.9775 114.201 19.2001Z" fill="#CD6864"/>
<path d="M112.796 15.2799C112.796 15.0132 112.756 14.7599 112.676 14.5199C112.609 14.2799 112.523 14.0866 112.416 13.9399H108.036V11.6799H112.236L112.372 11.6747C112.637 11.6547 112.857 11.5746 113.032 11.4345L113.116 11.3599C113.314 11.1615 113.426 10.8508 113.451 10.4276L113.456 10.2399C113.456 9.97324 113.416 9.71991 113.336 9.47991C113.269 9.22657 113.189 9.02657 113.096 8.87991H106.436L106.436 7.87979H113.644L113.939 8.34268C114.097 8.59098 114.205 8.87672 114.285 9.16397L114.36 9.42667C114.425 9.69186 114.456 9.96394 114.456 10.2401C114.456 10.8674 114.325 11.5651 113.823 12.0673C113.38 12.5105 112.808 12.6795 112.236 12.6796H109.036V12.9403H112.926L113.225 13.3515C113.415 13.6138 113.542 13.915 113.629 14.2187C113.632 14.2297 113.636 14.2408 113.64 14.2519C113.745 14.5845 113.796 14.9287 113.796 15.2802C113.796 15.903 113.661 16.5886 113.163 17.0868C112.72 17.5301 112.148 17.7001 111.576 17.7001H109.076V21.6835L108.339 21.8847C108.12 21.9445 107.827 21.9913 107.5 22.0321L107.499 22.0312C107.152 22.0762 106.804 22.0995 106.456 22.0995C106.109 22.0995 105.776 22.0698 105.462 22.0038C105.456 22.0028 105.451 22.0019 105.445 22.0009C105.437 21.999 105.428 21.9979 105.419 21.996V21.994C105.077 21.9279 104.747 21.7982 104.456 21.58C104.123 21.3302 103.897 20.9972 103.76 20.6308C103.622 20.2627 103.576 19.8507 103.576 19.4403V10.7401C103.576 9.96271 103.809 9.23283 104.369 8.67276C104.929 8.11277 105.659 7.87979 106.436 7.87979L106.436 8.87991L106.227 8.8876C105.751 8.92408 105.368 9.08833 105.076 9.37991L104.959 9.51065C104.704 9.82856 104.576 10.2383 104.576 10.7399V19.4399L104.584 19.6874C104.599 19.9224 104.636 20.1199 104.696 20.2799C104.776 20.4932 104.896 20.6599 105.056 20.7799C105.216 20.8999 105.409 20.9799 105.636 21.0199C105.876 21.0732 106.149 21.0999 106.456 21.0999C106.763 21.0999 107.069 21.0799 107.376 21.0399C107.696 20.9999 107.929 20.9599 108.076 20.9199V16.6999H111.576L111.712 16.6952C112.021 16.672 112.269 16.5667 112.456 16.3799C112.654 16.1816 112.766 15.8762 112.791 15.4638L112.796 15.2799Z" fill="#CD6864"/>
<path d="M97.037 7.67959C97.802 7.67961 98.5175 7.79454 99.164 8.04971C99.8291 8.29484 100.395 8.72874 100.685 9.40518L100.739 9.54581L100.742 9.55264C100.987 10.2608 101.251 11.0802 101.533 12.0087C101.815 12.9341 102.097 13.8925 102.378 14.8837L103.199 17.789L103.901 20.3163L104.041 20.828L103.696 21.2304C103.382 21.5967 102.964 21.8252 102.533 21.9687L102.532 21.9677C102.082 22.1305 101.591 22.2001 101.077 22.2001C100.707 22.2001 100.352 22.1698 100.028 22.0937L100.015 22.0898C99.7025 22.0117 99.3988 21.8847 99.1288 21.6884L99.1103 21.6747L99.0927 21.661C98.8396 21.4585 98.6434 21.2082 98.496 20.9345L98.4824 20.9071L98.4687 20.8788C98.3642 20.6524 98.2745 20.4053 98.1972 20.1425L98.1933 20.1269L98.1894 20.1122L98.0244 19.4804H95.9521C95.9114 19.6393 95.8678 19.7998 95.8271 19.9628C95.7193 20.3941 95.6109 20.8125 95.5029 21.2177L95.3681 21.7255L94.873 21.9013C94.6324 21.9872 94.3812 22.0537 94.121 22.1024L94.1201 22.1015C93.8296 22.1704 93.5171 22.2001 93.1972 22.2001C92.4401 22.2001 91.6923 22.0796 91.1142 21.6864L91.0956 21.6737L91.0771 21.6601C90.4956 21.2239 90.1972 20.5956 90.1972 19.8798C90.1972 19.5966 90.2375 19.3172 90.3154 19.0448C90.3662 18.8668 90.4248 18.6538 90.4902 18.4052C90.5877 18.0293 90.7174 17.5704 90.8788 17.0321L90.8828 17.0214L90.8857 17.0106C91.0591 16.477 91.2462 15.9035 91.4462 15.2899C91.6483 14.657 91.8632 14.0111 92.0917 13.3524C92.3185 12.6987 92.5322 12.0845 92.7324 11.5106C92.9323 10.9241 93.1135 10.403 93.2744 9.94717L93.2783 9.93448L93.2831 9.92276C93.4565 9.46925 93.5901 9.12049 93.6845 8.87784L93.8105 8.55362L94.1103 8.37784C94.4539 8.17579 94.897 8.02155 95.3808 7.89346L95.3876 7.89151C95.933 7.75127 96.4837 7.67959 97.037 7.67959ZM97.1369 11.8199C97.297 12.3666 97.4703 12.9866 97.6569 13.6799L97.9521 14.7148C98.0488 15.0648 98.1436 15.4199 98.2369 15.7799H95.7569C95.9436 15.0732 96.1503 14.3799 96.3769 13.6999C96.6169 13.0066 96.8303 12.3799 97.0169 11.8199H97.1369ZM91.204 20.0312C91.2391 20.3737 91.397 20.65 91.6769 20.8599C91.9686 21.0582 92.393 21.1695 92.9501 21.1942L93.1969 21.1999C93.4903 21.1999 93.737 21.1732 93.937 21.1199C94.0437 21.0999 94.147 21.0764 94.247 21.0497L94.5369 20.9599L94.8569 19.7199C94.9636 19.2932 95.0703 18.8799 95.1769 18.4799H98.797L99.157 19.8599C99.2236 20.0866 99.2969 20.2866 99.3769 20.4599C99.4703 20.6332 99.5836 20.7732 99.7169 20.8799C99.8636 20.9866 100.044 21.0666 100.257 21.1199C100.427 21.1599 100.623 21.1852 100.846 21.1952L101.077 21.1999C101.517 21.1999 101.897 21.1399 102.217 21.0199C102.497 20.9266 102.716 20.8028 102.873 20.6483L102.937 20.5799L102.237 18.0599L101.417 15.1599C101.277 14.6666 101.137 14.1816 100.997 13.705L100.577 12.2999C100.297 11.3799 100.037 10.5732 99.797 9.87991C99.6503 9.46657 99.3169 9.16657 98.797 8.97991C98.3536 8.8049 97.849 8.70635 97.2831 8.68448L97.0369 8.67991C96.5703 8.67991 96.1036 8.73991 95.6369 8.85991C95.1836 8.97991 94.8436 9.10657 94.6169 9.23991L94.2169 10.2799L93.6769 11.8399C93.477 12.4132 93.2636 13.0266 93.0369 13.6799L92.707 14.6503C92.6004 14.97 92.4969 15.2868 92.3969 15.5999C92.1969 16.2132 92.0103 16.7866 91.8369 17.3199L91.622 18.0546C91.5586 18.2781 91.5036 18.4798 91.4569 18.6599C91.3903 18.9132 91.3303 19.1332 91.2769 19.3199L91.2421 19.4599C91.2121 19.5999 91.197 19.7399 91.1969 19.8799L91.204 20.0312Z" fill="#CD6864"/>
<path d="M83.3182 14.9199C83.3182 13.845 83.5586 12.9987 84.039 12.3808L84.1382 12.2599C84.6849 11.6332 85.4715 11.3199 86.4982 11.3199L86.6904 11.3241C87.1306 11.3417 87.5199 11.4199 87.8582 11.5599C88.1581 11.6799 88.4429 11.819 88.7128 11.9765L88.9782 12.1399C89.1481 12.0299 89.3033 11.8896 89.4433 11.7196L89.5782 11.5399C89.7515 11.2866 89.8382 10.9866 89.8382 10.6399C89.8381 10.0917 89.5781 9.6295 89.0576 9.25479L88.8182 9.09991C88.2348 8.74991 87.4369 8.55339 86.4247 8.50967L85.9782 8.49991C85.1115 8.49991 84.2982 8.63991 83.5382 8.91991C82.7782 9.19991 82.1115 9.61324 81.5382 10.1599C80.9782 10.7066 80.5315 11.3799 80.1982 12.1799C79.8782 12.9666 79.7182 13.8799 79.7182 14.9199C79.7182 16.0399 79.8849 17.0066 80.2182 17.8199C80.5649 18.6199 81.0315 19.2866 81.6182 19.8199C82.2049 20.3399 82.8915 20.7266 83.6782 20.9799C84.3665 21.2015 85.0962 21.3267 85.8661 21.3544L86.1982 21.3599C87.4382 21.3599 88.3582 21.1732 88.9582 20.7999C89.4948 20.4616 89.797 20.0622 89.8642 19.6015L89.8782 19.3999C89.8782 19.0532 89.8115 18.7532 89.6782 18.4999C89.5582 18.2332 89.3849 18.0066 89.1582 17.8199C88.8115 18.0066 88.4449 18.1732 88.0582 18.3199C87.6849 18.4666 87.2249 18.5399 86.6782 18.5399L86.6786 17.5399C87.1422 17.5399 87.4694 17.477 87.6923 17.3896L87.7031 17.3847C88.0508 17.2528 88.3783 17.1042 88.6845 16.9394L89.2753 16.621L89.7939 17.0478C90.1228 17.3186 90.3811 17.6505 90.5634 18.0341L90.6406 18.1952C90.8077 18.5752 90.8779 18.9846 90.8779 19.4003C90.8777 20.3994 90.2885 21.1427 89.4911 21.6454L89.4863 21.6493C88.6484 22.1705 87.5017 22.3603 86.1982 22.3603C85.2093 22.3603 84.2653 22.2192 83.372 21.9315C82.4609 21.6381 81.6508 21.185 80.955 20.5683L80.9453 20.5595C80.2437 19.9216 79.6981 19.1346 79.3007 18.2177L79.2968 18.2079L79.2929 18.1991C78.8988 17.2374 78.7177 16.1357 78.7177 14.9198C78.7177 13.7789 78.8932 12.7325 79.2714 11.8026L79.2753 11.7948C79.6549 10.8841 80.1737 10.0945 80.8398 9.44424L80.8476 9.43643C81.5221 8.79337 82.3071 8.3075 83.1923 7.98135C84.0706 7.65779 85.0021 7.49991 85.9785 7.49991C87.2909 7.49994 88.4456 7.70971 89.3329 8.24209C90.2231 8.7679 90.8377 9.56671 90.8378 10.6396C90.8378 11.1607 90.7047 11.6638 90.4033 12.1044C90.1653 12.4522 89.8736 12.7515 89.5214 12.9794L88.9755 13.3329L88.4306 12.9765C88.1418 12.7877 87.8279 12.6245 87.4872 12.4882L87.4755 12.4843C87.2356 12.3851 86.9175 12.3202 86.498 12.3202C85.6869 12.3203 85.2048 12.5579 84.8915 12.9169C84.5551 13.3026 84.3183 13.9233 84.3183 14.9198C84.3183 15.908 84.5709 16.5191 84.9374 16.9042C85.3302 17.3033 85.874 17.5399 86.6786 17.5399L86.6782 18.5399L86.4882 18.536C85.5499 18.4993 84.7932 18.1874 84.2182 17.5999C83.6935 17.0517 83.3976 16.299 83.332 15.3427L83.3182 14.9199Z" fill="#CD6864"/>
<path d="M36.0783 152.907H21.1617C20.6772 152.907 20.2686 152.568 20.1842 152.091C19.5935 148.751 17.3687 136.07 16.7497 131.025C16.0338 125.19 5.29573 125.919 5.29573 131.025C5.29573 134.875 8.14486 150.752 9.54646 158.329C9.98299 160.689 12.0429 162.39 14.4429 162.39L15.318 162.39L32.1574 162.39L39.0246 162.39C39.4112 162.39 39.7708 162.169 39.8948 161.803C41.214 157.906 38.1217 152.907 36.0783 152.907Z" fill="#FE9AA0"/>
<path d="M10.7215 125.923C12.2575 125.872 13.8685 126.197 15.1766 126.991C16.5103 127.801 17.521 129.102 17.742 130.903C18.3564 135.91 20.5711 148.54 21.1668 151.907H36.078C36.9697 151.907 37.7844 152.428 38.411 153.024C39.0673 153.649 39.67 154.496 40.1434 155.448C41.0798 157.331 41.6144 159.84 40.8416 162.123C40.5593 162.957 39.7705 163.39 39.0242 163.39H33.366L36.3446 178.978C36.4482 179.521 36.0921 180.045 35.5496 180.148C35.0073 180.252 34.4843 179.896 34.3807 179.353L31.3309 163.39H16.1346L12.7186 180.096C12.6079 180.637 12.079 180.986 11.5379 180.875C10.9971 180.764 10.648 180.236 10.7586 179.695L14.0946 163.378C11.3671 163.221 9.0671 161.234 8.5633 158.512C7.86207 154.721 6.79809 148.849 5.90901 143.441C5.02771 138.081 4.29576 133.052 4.29573 131.025C4.29573 129.347 5.19483 128.062 6.42073 127.224C7.6271 126.401 9.18678 125.973 10.7215 125.923ZM6.29573 131.025C6.29576 132.849 6.98904 137.682 7.88264 143.117C8.76852 148.505 9.82974 154.361 10.5301 158.147C10.8782 160.029 12.5214 161.39 14.4432 161.39H38.9754C39.4782 159.795 39.1282 157.899 38.3524 156.339C37.9622 155.554 37.4899 154.908 37.033 154.474C36.5465 154.011 36.2076 153.907 36.078 153.907H21.1619C20.1973 153.907 19.3689 153.225 19.199 152.266C18.6107 148.939 16.3808 136.226 15.7576 131.147C15.6207 130.032 15.0203 129.235 14.1395 128.7C13.2328 128.15 12.0249 127.881 10.7869 127.922C9.54784 127.962 8.37799 128.31 7.54866 128.876C6.73878 129.429 6.29573 130.151 6.29573 131.025Z" fill="#B47E5A"/>
<path d="M91.0389 152.907H105.964C106.445 152.907 106.851 152.573 106.939 152.1C107.56 148.775 109.909 136.075 110.529 131.025C111.245 125.19 121.821 125.919 121.821 131.025C121.821 134.875 118.972 150.752 117.571 158.329C117.134 160.689 115.074 162.39 112.674 162.39L111.799 162.39L94.9598 162.39L88.0926 162.39C87.706 162.39 87.3463 162.169 87.2224 161.803C85.9032 157.906 88.9955 152.907 91.0389 152.907Z" fill="#FE9AA0"/>
<path d="M116.477 125.923C114.958 125.872 113.365 126.198 112.071 126.994C110.752 127.806 109.757 129.108 109.536 130.903C108.922 135.909 106.585 148.551 105.958 151.907H91.0392C90.1475 151.907 89.3328 152.428 88.7062 153.024C88.0499 153.649 87.4472 154.496 86.9738 155.448C86.0374 157.331 85.5028 159.84 86.2756 162.123C86.5579 162.957 87.3467 163.39 88.0929 163.39H93.7512L90.7726 178.978C90.669 179.521 91.0251 180.045 91.5676 180.148C92.1099 180.252 92.6329 179.896 92.7365 179.353L95.7863 163.39H110.983L114.399 180.096C114.509 180.637 115.038 180.986 115.579 180.875C116.12 180.764 116.469 180.236 116.359 179.695L113.023 163.378C115.75 163.221 118.05 161.234 118.554 158.512C119.255 154.721 120.319 148.849 121.208 143.441C122.089 138.081 122.821 133.052 122.821 131.025C122.821 129.354 121.94 128.069 120.728 127.228C119.536 126.402 117.994 125.973 116.477 125.923ZM120.821 131.025C120.821 132.849 120.128 137.682 119.235 143.117C118.349 148.505 117.287 154.361 116.587 158.147C116.239 160.029 114.596 161.39 112.674 161.39H88.1418C87.639 159.795 87.989 157.899 88.7648 156.339C89.155 155.554 89.6273 154.908 90.0842 154.474C90.5707 154.011 90.9095 153.907 91.0392 153.907H105.964C106.922 153.907 107.745 153.234 107.922 152.284C108.54 148.975 110.897 136.236 111.522 131.147C111.659 130.026 112.255 129.23 113.119 128.697C114.01 128.149 115.195 127.881 116.41 127.922C117.627 127.962 118.774 128.308 119.588 128.872C120.382 129.422 120.821 130.144 120.821 131.025Z" fill="#B47E5A"/>
<path d="M37.942 140.047H86.4726C88.6882 140.047 90.4843 141.843 90.4843 144.058C90.4843 146.274 88.6882 148.07 86.4726 148.07H65.4287V175.058H58.9859V148.07H37.942C35.7264 148.07 33.9303 146.274 33.9303 144.058C33.9303 141.843 35.7264 140.047 37.942 140.047Z" fill="#F6BF86"/>
<path d="M89.484 144.058C89.484 142.395 88.1356 141.047 86.4723 141.047H37.942C36.2787 141.047 34.9303 142.395 34.9303 144.058C34.9303 145.722 36.2787 147.07 37.942 147.07H86.4723C88.1356 147.07 89.484 145.722 89.484 144.058ZM59.9859 174.058H64.4283V149.07H59.9859V174.058ZM91.484 144.058C91.484 146.826 89.2402 149.07 86.4723 149.07H66.4283V174.058H74.0191C74.5714 174.058 75.0191 174.506 75.0191 175.058C75.0191 175.611 74.5714 176.058 74.0191 176.058H50.3951C49.8429 176.058 49.3951 175.611 49.3951 175.058C49.3951 174.506 49.8429 174.059 50.3951 174.058H57.9859V149.07H37.942C35.1741 149.07 32.9303 146.826 32.9303 144.058C32.9303 141.291 35.1741 139.047 37.942 139.047H86.4723C89.2402 139.047 91.484 141.29 91.484 144.058Z" fill="#B47E5A"/>
</svg>
