<svg width="200" height="200" viewBox="0 0 200 200" fill="none" xmlns="http://www.w3.org/2000/svg">
<path d="M44.2075 29.7178V56.9218C44.2075 59.6724 46.4293 61.9065 49.1798 61.9217L151.143 62.486C153.915 62.5013 156.17 60.2583 156.17 57.4861V29.7178C156.17 26.9563 153.932 24.7178 151.17 24.7178H49.2075C46.4461 24.7178 44.2075 26.9564 44.2075 29.7178Z" fill="#FF989F" stroke="#B28158" stroke-width="2" stroke-linecap="round"/>
<path d="M179.293 164.749C171.383 164.749 32.0378 164.749 22.3019 164.749C12.566 164.75 12.566 179 22.3019 179H179.293C186.595 179 187.204 164.749 179.293 164.749Z" fill="#FDCAA2" stroke="#B07F56" stroke-width="2" stroke-linecap="round"/>
<path d="M172.6 74.2861V164.749H28.3867V74.2861H172.6Z" fill="#FFDEDF" stroke="#B07F56" stroke-width="2" stroke-linecap="round"/>
<path d="M120.878 97.353V164.129H163.472L162.881 97.3353C162.872 96.2377 161.979 95.353 160.882 95.353H122.878C121.773 95.353 120.878 96.2485 120.878 97.353Z" fill="#E5AE82" stroke="#B07F56" stroke-width="2" stroke-linecap="round"/>
<ellipse cx="3.09803" cy="2.9079" rx="3.09803" ry="2.9079" transform="matrix(0.00909448 0.999959 -0.999956 0.00942971 132.778 125.094)" fill="#B28056"/>
<path d="M94.7125 131.149V97.353C94.7125 96.2485 93.8171 95.353 92.7125 95.353H42.5566C41.4521 95.353 40.5566 96.2485 40.5566 97.353V131.149C40.5566 132.254 41.4521 133.149 42.5566 133.149H92.7125C93.8171 133.149 94.7125 132.254 94.7125 131.149Z" fill="#D1E5EB" stroke="#B07F56" stroke-width="2" stroke-linecap="round"/>
<path d="M67.3303 95.353V132.529M40.5566 113.941H94.1039" stroke="#B07F56" stroke-width="2" stroke-linecap="round"/>
<path d="M172.476 53.2192H27.6608C27.3357 53.2192 27.0031 53.2558 26.7342 53.4386C24.1964 55.1644 23.1368 64.1412 21.2163 76.5395C21.131 77.0899 21.198 77.6659 21.4338 78.1704C27.0076 90.0971 38.5797 85.9613 42.2758 77.6302C42.3133 77.5456 42.439 77.5553 42.4692 77.6428C46.1858 88.4266 57.4589 86.633 61.7586 77.5882C61.7957 77.5102 61.911 77.5138 61.9465 77.5927C66.8059 88.4029 76.8976 86.0497 80.6133 77.6253C80.6503 77.5414 80.7746 77.5474 80.806 77.6335C84.5253 87.8428 95.7958 87.834 99.5015 77.6071C99.5314 77.5244 99.6498 77.5172 99.691 77.5948C105.739 88.9878 116.993 85.4686 118.991 77.6406C119.013 77.5515 119.137 77.5364 119.183 77.6162C124.649 87.2128 134.75 86.6147 139.034 77.5955C139.071 77.5165 139.187 77.5164 139.222 77.5968C142.343 84.8573 151.855 88.9999 157.888 78.1996C157.929 78.1248 158.045 78.1336 158.076 78.2134C163.054 90.9346 180.383 83.5397 179.293 76.1447C178.278 69.2551 178.112 62.5315 175.177 55.0194C174.745 53.9152 173.661 53.2192 172.476 53.2192Z" fill="#FF939A" stroke="#B07F57" stroke-width="2" stroke-linecap="round"/>
<path d="M175.76 71.2523L24.6434 71.8039C24.0449 71.8061 23.5783 71.2835 23.651 70.6894C24.405 64.5274 25.2997 61.0772 26.9526 55.7204C27.0813 55.3033 27.4668 55.0175 27.9033 55.0158L173.285 54.4621C173.759 54.4603 174.169 54.7922 174.267 55.2552C175.501 61.0731 176.168 64.6602 176.747 70.1535C176.809 70.74 176.349 71.2502 175.76 71.2523Z" fill="#FFA9AE" stroke="#FFA9AE" stroke-linecap="round"/>
<mask id="path-10-outside-1_374_136" maskUnits="userSpaceOnUse" x="76.9814" y="28" width="47" height="16" fill="black">
<rect fill="white" x="76.9814" y="28" width="47" height="16"/>
<path d="M85.3577 32.32C84.331 32.32 83.5443 32.6333 82.9977 33.26C82.451 33.8867 82.1777 34.7733 82.1777 35.92C82.1777 37.08 82.4777 37.9733 83.0777 38.6C83.691 39.2267 84.511 39.54 85.5377 39.54C86.0843 39.54 86.5443 39.4667 86.9177 39.32C87.3043 39.1733 87.671 39.0067 88.0177 38.82C88.2443 39.0067 88.4177 39.2333 88.5377 39.5C88.671 39.7533 88.7377 40.0533 88.7377 40.4C88.7377 40.9467 88.431 41.4133 87.8177 41.8C87.2177 42.1733 86.2977 42.36 85.0577 42.36C84.1643 42.36 83.3243 42.2333 82.5377 41.98C81.751 41.7267 81.0643 41.34 80.4777 40.82C79.891 40.2867 79.4243 39.62 79.0777 38.82C78.7443 38.0067 78.5777 37.04 78.5777 35.92C78.5777 34.88 78.7377 33.9667 79.0577 33.18C79.391 32.38 79.8377 31.7067 80.3977 31.16C80.971 30.6133 81.6377 30.2 82.3977 29.92C83.1577 29.64 83.971 29.5 84.8377 29.5C86.0643 29.5 87.011 29.7 87.6777 30.1C88.3577 30.5 88.6977 31.0133 88.6977 31.64C88.6977 31.9867 88.611 32.2867 88.4377 32.54C88.2643 32.7933 88.0643 32.9933 87.8377 33.14C87.491 32.9133 87.1177 32.72 86.7177 32.56C86.331 32.4 85.8777 32.32 85.3577 32.32ZM93.4764 30.24C93.7031 30.1067 94.0431 29.98 94.4964 29.86C94.9631 29.74 95.4298 29.68 95.8964 29.68C96.5631 29.68 97.1498 29.78 97.6564 29.98C98.1764 30.1667 98.5098 30.4667 98.6564 30.88C98.8964 31.5733 99.1564 32.38 99.4364 33.3C99.7164 34.22 99.9964 35.1733 100.276 36.16C100.556 37.1333 100.83 38.1 101.096 39.06C101.363 40.0067 101.596 40.8467 101.796 41.58C101.636 41.7667 101.396 41.9133 101.076 42.02C100.756 42.14 100.376 42.2 99.9364 42.2C99.6164 42.2 99.3431 42.1733 99.1164 42.12C98.9031 42.0667 98.7231 41.9867 98.5764 41.88C98.4431 41.7733 98.3298 41.6333 98.2364 41.46C98.1564 41.2867 98.0831 41.0867 98.0164 40.86L97.6564 39.48H94.0364C93.9298 39.88 93.8231 40.2933 93.7164 40.72C93.6098 41.1467 93.5031 41.56 93.3964 41.96C93.2098 42.0267 93.0098 42.08 92.7964 42.12C92.5964 42.1733 92.3498 42.2 92.0564 42.2C91.3764 42.2 90.8698 42.0867 90.5364 41.86C90.2164 41.62 90.0564 41.2933 90.0564 40.88C90.0564 40.6933 90.0831 40.5067 90.1364 40.32C90.1898 40.1333 90.2498 39.9133 90.3164 39.66C90.4098 39.3 90.5364 38.8533 90.6964 38.32C90.8698 37.7867 91.0564 37.2133 91.2564 36.6C91.4564 35.9733 91.6698 35.3333 91.8964 34.68C92.1231 34.0267 92.3364 33.4133 92.5364 32.84C92.7364 32.2533 92.9164 31.7333 93.0764 31.28C93.2498 30.8267 93.3831 30.48 93.4764 30.24ZM95.8764 32.82C95.6898 33.38 95.4764 34.0067 95.2364 34.7C95.0098 35.38 94.8031 36.0733 94.6164 36.78H97.0964C96.9098 36.06 96.7164 35.36 96.5164 34.68C96.3298 33.9867 96.1564 33.3667 95.9964 32.82H95.8764ZM111.955 29.88C112.049 30.0267 112.129 30.2267 112.195 30.48C112.275 30.72 112.315 30.9733 112.315 31.24C112.315 31.76 112.202 32.1333 111.975 32.36C111.762 32.5733 111.469 32.68 111.095 32.68H106.895V34.94H111.275C111.382 35.0867 111.469 35.28 111.535 35.52C111.615 35.76 111.655 36.0133 111.655 36.28C111.655 36.7867 111.542 37.1533 111.315 37.38C111.102 37.5933 110.809 37.7 110.435 37.7H106.935V41.92C106.789 41.96 106.555 42 106.235 42.04C105.929 42.08 105.622 42.1 105.315 42.1C105.009 42.1 104.735 42.0733 104.495 42.02C104.269 41.98 104.075 41.9 103.915 41.78C103.755 41.66 103.635 41.4933 103.555 41.28C103.475 41.0667 103.435 40.7867 103.435 40.44V31.74C103.435 31.1667 103.602 30.7133 103.935 30.38C104.269 30.0467 104.722 29.88 105.295 29.88H111.955ZM114.06 31.74C114.06 31.1667 114.227 30.7133 114.56 30.38C114.894 30.0467 115.347 29.88 115.92 29.88H122.52C122.614 30.0267 122.694 30.22 122.76 30.46C122.84 30.7 122.88 30.9533 122.88 31.22C122.88 31.7267 122.767 32.0867 122.54 32.3C122.327 32.5133 122.04 32.62 121.68 32.62H117.46V34.48H121.96C122.054 34.6267 122.134 34.82 122.2 35.06C122.28 35.2867 122.32 35.5333 122.32 35.8C122.32 36.3067 122.214 36.6667 122 36.88C121.787 37.0933 121.5 37.2 121.14 37.2H117.46V39.3H122.6C122.694 39.4467 122.774 39.64 122.84 39.88C122.92 40.12 122.96 40.3733 122.96 40.64C122.96 41.1467 122.847 41.5133 122.62 41.74C122.407 41.9533 122.12 42.06 121.76 42.06H115.92C115.347 42.06 114.894 41.8933 114.56 41.56C114.227 41.2267 114.06 40.7733 114.06 40.2V31.74Z"/>
</mask>
<path d="M85.3577 32.32C84.331 32.32 83.5443 32.6333 82.9977 33.26C82.451 33.8867 82.1777 34.7733 82.1777 35.92C82.1777 37.08 82.4777 37.9733 83.0777 38.6C83.691 39.2267 84.511 39.54 85.5377 39.54C86.0843 39.54 86.5443 39.4667 86.9177 39.32C87.3043 39.1733 87.671 39.0067 88.0177 38.82C88.2443 39.0067 88.4177 39.2333 88.5377 39.5C88.671 39.7533 88.7377 40.0533 88.7377 40.4C88.7377 40.9467 88.431 41.4133 87.8177 41.8C87.2177 42.1733 86.2977 42.36 85.0577 42.36C84.1643 42.36 83.3243 42.2333 82.5377 41.98C81.751 41.7267 81.0643 41.34 80.4777 40.82C79.891 40.2867 79.4243 39.62 79.0777 38.82C78.7443 38.0067 78.5777 37.04 78.5777 35.92C78.5777 34.88 78.7377 33.9667 79.0577 33.18C79.391 32.38 79.8377 31.7067 80.3977 31.16C80.971 30.6133 81.6377 30.2 82.3977 29.92C83.1577 29.64 83.971 29.5 84.8377 29.5C86.0643 29.5 87.011 29.7 87.6777 30.1C88.3577 30.5 88.6977 31.0133 88.6977 31.64C88.6977 31.9867 88.611 32.2867 88.4377 32.54C88.2643 32.7933 88.0643 32.9933 87.8377 33.14C87.491 32.9133 87.1177 32.72 86.7177 32.56C86.331 32.4 85.8777 32.32 85.3577 32.32ZM93.4764 30.24C93.7031 30.1067 94.0431 29.98 94.4964 29.86C94.9631 29.74 95.4298 29.68 95.8964 29.68C96.5631 29.68 97.1498 29.78 97.6564 29.98C98.1764 30.1667 98.5098 30.4667 98.6564 30.88C98.8964 31.5733 99.1564 32.38 99.4364 33.3C99.7164 34.22 99.9964 35.1733 100.276 36.16C100.556 37.1333 100.83 38.1 101.096 39.06C101.363 40.0067 101.596 40.8467 101.796 41.58C101.636 41.7667 101.396 41.9133 101.076 42.02C100.756 42.14 100.376 42.2 99.9364 42.2C99.6164 42.2 99.3431 42.1733 99.1164 42.12C98.9031 42.0667 98.7231 41.9867 98.5764 41.88C98.4431 41.7733 98.3298 41.6333 98.2364 41.46C98.1564 41.2867 98.0831 41.0867 98.0164 40.86L97.6564 39.48H94.0364C93.9298 39.88 93.8231 40.2933 93.7164 40.72C93.6098 41.1467 93.5031 41.56 93.3964 41.96C93.2098 42.0267 93.0098 42.08 92.7964 42.12C92.5964 42.1733 92.3498 42.2 92.0564 42.2C91.3764 42.2 90.8698 42.0867 90.5364 41.86C90.2164 41.62 90.0564 41.2933 90.0564 40.88C90.0564 40.6933 90.0831 40.5067 90.1364 40.32C90.1898 40.1333 90.2498 39.9133 90.3164 39.66C90.4098 39.3 90.5364 38.8533 90.6964 38.32C90.8698 37.7867 91.0564 37.2133 91.2564 36.6C91.4564 35.9733 91.6698 35.3333 91.8964 34.68C92.1231 34.0267 92.3364 33.4133 92.5364 32.84C92.7364 32.2533 92.9164 31.7333 93.0764 31.28C93.2498 30.8267 93.3831 30.48 93.4764 30.24ZM95.8764 32.82C95.6898 33.38 95.4764 34.0067 95.2364 34.7C95.0098 35.38 94.8031 36.0733 94.6164 36.78H97.0964C96.9098 36.06 96.7164 35.36 96.5164 34.68C96.3298 33.9867 96.1564 33.3667 95.9964 32.82H95.8764ZM111.955 29.88C112.049 30.0267 112.129 30.2267 112.195 30.48C112.275 30.72 112.315 30.9733 112.315 31.24C112.315 31.76 112.202 32.1333 111.975 32.36C111.762 32.5733 111.469 32.68 111.095 32.68H106.895V34.94H111.275C111.382 35.0867 111.469 35.28 111.535 35.52C111.615 35.76 111.655 36.0133 111.655 36.28C111.655 36.7867 111.542 37.1533 111.315 37.38C111.102 37.5933 110.809 37.7 110.435 37.7H106.935V41.92C106.789 41.96 106.555 42 106.235 42.04C105.929 42.08 105.622 42.1 105.315 42.1C105.009 42.1 104.735 42.0733 104.495 42.02C104.269 41.98 104.075 41.9 103.915 41.78C103.755 41.66 103.635 41.4933 103.555 41.28C103.475 41.0667 103.435 40.7867 103.435 40.44V31.74C103.435 31.1667 103.602 30.7133 103.935 30.38C104.269 30.0467 104.722 29.88 105.295 29.88H111.955ZM114.06 31.74C114.06 31.1667 114.227 30.7133 114.56 30.38C114.894 30.0467 115.347 29.88 115.92 29.88H122.52C122.614 30.0267 122.694 30.22 122.76 30.46C122.84 30.7 122.88 30.9533 122.88 31.22C122.88 31.7267 122.767 32.0867 122.54 32.3C122.327 32.5133 122.04 32.62 121.68 32.62H117.46V34.48H121.96C122.054 34.6267 122.134 34.82 122.2 35.06C122.28 35.2867 122.32 35.5333 122.32 35.8C122.32 36.3067 122.214 36.6667 122 36.88C121.787 37.0933 121.5 37.2 121.14 37.2H117.46V39.3H122.6C122.694 39.4467 122.774 39.64 122.84 39.88C122.92 40.12 122.96 40.3733 122.96 40.64C122.96 41.1467 122.847 41.5133 122.62 41.74C122.407 41.9533 122.12 42.06 121.76 42.06H115.92C115.347 42.06 114.894 41.8933 114.56 41.56C114.227 41.2267 114.06 40.7733 114.06 40.2V31.74Z" fill="#FAA8AA"/>
<path d="M82.9977 33.26L83.7512 33.9174L82.9977 33.26ZM83.0777 38.6L82.3553 39.2916L82.363 39.2995L83.0777 38.6ZM86.9177 39.32L86.563 38.3849L86.552 38.3892L86.9177 39.32ZM88.0177 38.82L88.6534 38.0481L88.1349 37.6211L87.5436 37.9395L88.0177 38.82ZM88.5377 39.5L87.6258 39.9104L87.6384 39.9385L87.6528 39.9657L88.5377 39.5ZM87.8177 41.8L88.346 42.6491L88.351 42.6459L87.8177 41.8ZM82.5377 41.98L82.2311 42.9319L82.5377 41.98ZM80.4777 40.82L79.8049 41.56L79.8144 41.5683L80.4777 40.82ZM79.0777 38.82L78.1524 39.1992L78.1562 39.2085L78.1601 39.2176L79.0777 38.82ZM79.0577 33.18L78.1346 32.7954L78.1314 32.8032L79.0577 33.18ZM80.3977 31.16L79.7076 30.4362L79.6991 30.4444L80.3977 31.16ZM82.3977 29.92L82.052 28.9817L82.052 28.9817L82.3977 29.92ZM87.6777 30.1L87.1632 30.9575L87.1707 30.9619L87.6777 30.1ZM88.4377 32.54L87.6124 31.9753L87.6124 31.9753L88.4377 32.54ZM87.8377 33.14L87.2904 33.977L87.8348 34.3329L88.3809 33.9796L87.8377 33.14ZM86.7177 32.56L86.3353 33.4841L86.3463 33.4885L86.7177 32.56ZM85.3577 32.32V31.32C84.1156 31.32 83.0242 31.7084 82.2441 32.6026L82.9977 33.26L83.7512 33.9174C84.0645 33.5583 84.5464 33.32 85.3577 33.32V32.32ZM82.9977 33.26L82.2441 32.6026C81.4872 33.4703 81.1777 34.6232 81.1777 35.92H82.1777H83.1777C83.1777 34.9234 83.4148 34.303 83.7512 33.9174L82.9977 33.26ZM82.1777 35.92H81.1777C81.1777 37.2486 81.5238 38.4231 82.3554 39.2916L83.0777 38.6L83.8 37.9084C83.4315 37.5236 83.1777 36.9114 83.1777 35.92H82.1777ZM83.0777 38.6L82.363 39.2995C83.1966 40.1512 84.2918 40.54 85.5377 40.54V39.54V38.54C84.7302 38.54 84.1854 38.3022 83.7923 37.9005L83.0777 38.6ZM85.5377 39.54V40.54C86.167 40.54 86.7596 40.4565 87.2833 40.2508L86.9177 39.32L86.552 38.3892C86.3291 38.4768 86.0017 38.54 85.5377 38.54V39.54ZM86.9177 39.32L87.2723 40.255C87.6979 40.0936 88.1047 39.9089 88.4918 39.7005L88.0177 38.82L87.5436 37.9395C87.2374 38.1044 86.9108 38.2531 86.563 38.385L86.9177 39.32ZM88.0177 38.82L87.382 39.5919C87.4905 39.6813 87.5691 39.7844 87.6258 39.9104L88.5377 39.5L89.4496 39.0896C89.2663 38.6822 88.9982 38.332 88.6534 38.0481L88.0177 38.82ZM88.5377 39.5L87.6528 39.9657C87.6961 40.0482 87.7377 40.1817 87.7377 40.4H88.7377H89.7377C89.7377 39.925 89.6459 39.4585 89.4226 39.0343L88.5377 39.5ZM88.7377 40.4H87.7377C87.7377 40.494 87.7136 40.6835 87.2844 40.9541L87.8177 41.8L88.351 42.6459C89.1485 42.1432 89.7377 41.3993 89.7377 40.4H88.7377ZM87.8177 41.8L87.2894 40.9509C86.9272 41.1763 86.234 41.36 85.0577 41.36V42.36V43.36C86.3614 43.36 87.5081 43.1704 88.346 42.6491L87.8177 41.8ZM85.0577 42.36V41.36C84.26 41.36 83.5241 41.2471 82.8442 41.0281L82.5377 41.98L82.2311 42.9319C83.1246 43.2196 84.0687 43.36 85.0577 43.36V42.36ZM82.5377 41.98L82.8442 41.0281C82.182 40.8149 81.6185 40.4949 81.141 40.0717L80.4777 40.82L79.8144 41.5683C80.5102 42.1851 81.32 42.6385 82.2311 42.9319L82.5377 41.98ZM80.4777 40.82L81.1503 40.0801C80.6787 39.6513 80.2912 39.1053 79.9952 38.4224L79.0777 38.82L78.1601 39.2176C78.5575 40.1347 79.1033 40.922 79.805 41.5599L80.4777 40.82ZM79.0777 38.82L80.003 38.4408C79.7305 37.7758 79.5777 36.9441 79.5777 35.92H78.5777H77.5777C77.5777 37.1359 77.7582 38.2375 78.1524 39.1992L79.0777 38.82ZM78.5777 35.92H79.5777C79.5777 34.981 79.7222 34.2002 79.984 33.5568L79.0577 33.18L78.1314 32.8032C77.7531 33.7331 77.5777 34.779 77.5777 35.92H78.5777ZM79.0577 33.18L79.9808 33.5646C80.2679 32.8755 80.6425 32.3185 81.0962 31.8756L80.3977 31.16L79.6991 30.4444C79.0329 31.0948 78.5141 31.8845 78.1346 32.7954L79.0577 33.18ZM80.3977 31.16L81.0878 31.8837C81.5599 31.4335 82.1087 31.0922 82.7434 30.8583L82.3977 29.92L82.052 28.9817C81.1667 29.3078 80.3821 29.7931 79.7076 30.4363L80.3977 31.16ZM82.3977 29.92L82.7434 30.8583C83.3851 30.6219 84.0807 30.5 84.8377 30.5V29.5V28.5C83.8614 28.5 82.9302 28.6581 82.052 28.9817L82.3977 29.92ZM84.8377 29.5V30.5C85.9784 30.5 86.7172 30.6899 87.1632 30.9575L87.6777 30.1L88.1922 29.2425C87.3048 28.7101 86.1503 28.5 84.8377 28.5V29.5ZM87.6777 30.1L87.1707 30.9619C87.6368 31.2361 87.6977 31.4624 87.6977 31.64H88.6977H89.6977C89.6977 30.5642 89.0786 29.7639 88.1847 29.2381L87.6777 30.1ZM88.6977 31.64H87.6977C87.6977 31.8122 87.6575 31.9093 87.6124 31.9753L88.4377 32.54L89.263 33.1047C89.5645 32.664 89.6977 32.1612 89.6977 31.64H88.6977ZM88.4377 32.54L87.6124 31.9753C87.5037 32.1341 87.3956 32.235 87.2944 32.3004L87.8377 33.14L88.3809 33.9796C88.7331 33.7517 89.025 33.4525 89.263 33.1047L88.4377 32.54ZM87.8377 33.14L88.3849 32.303C87.9806 32.0387 87.5481 31.8151 87.0891 31.6315L86.7177 32.56L86.3463 33.4885C86.6872 33.6249 87.0014 33.788 87.2904 33.977L87.8377 33.14ZM86.7177 32.56L87.1 31.636C86.5666 31.4152 85.9781 31.32 85.3577 31.32V32.32V33.32C85.7773 33.32 86.0954 33.3848 86.3353 33.484L86.7177 32.56ZM93.4764 30.24L92.9694 29.3781L92.6702 29.5541L92.5444 29.8776L93.4764 30.24ZM94.4964 29.86L94.2474 28.8915L94.2405 28.8933L94.4964 29.86ZM97.6564 29.98L97.2893 30.9102L97.3038 30.9159L97.3186 30.9212L97.6564 29.98ZM98.6564 30.88L99.6014 30.5529L99.5989 30.5456L98.6564 30.88ZM99.4364 33.3L100.393 33.0088L99.4364 33.3ZM100.276 36.16L99.3144 36.433L99.3154 36.4365L100.276 36.16ZM101.096 39.06L100.133 39.3276L100.134 39.3311L101.096 39.06ZM101.796 41.58L102.556 42.2308L102.901 41.8283L102.761 41.3169L101.796 41.58ZM101.076 42.02L100.76 41.0713L100.743 41.0772L100.725 41.0837L101.076 42.02ZM99.1164 42.12L98.8739 43.0902L98.8874 43.0934L99.1164 42.12ZM98.5764 41.88L97.9517 42.6609L97.9697 42.6752L97.9883 42.6887L98.5764 41.88ZM98.2364 41.46L97.3285 41.8791L97.3414 41.907L97.356 41.9341L98.2364 41.46ZM98.0164 40.86L97.0488 41.1124L97.0527 41.1274L97.0571 41.1422L98.0164 40.86ZM97.6564 39.48L98.624 39.2276L98.429 38.48H97.6564V39.48ZM94.0364 39.48V38.48H93.2681L93.0702 39.2223L94.0364 39.48ZM93.7164 40.72L92.7463 40.4775L93.7164 40.72ZM93.3964 41.96L93.7328 42.9017L94.2273 42.7251L94.3627 42.2177L93.3964 41.96ZM92.7964 42.12L92.6121 41.1371L92.5751 41.1441L92.5388 41.1538L92.7964 42.12ZM90.5364 41.86L89.9364 42.66L89.955 42.6739L89.9741 42.6869L90.5364 41.86ZM90.1364 40.32L89.1749 40.0453L90.1364 40.32ZM90.3164 39.66L91.2835 39.9145L91.2844 39.911L90.3164 39.66ZM90.6964 38.32L89.7454 38.0109L89.7419 38.0217L89.7386 38.0327L90.6964 38.32ZM91.2564 36.6L92.2072 36.91L92.2091 36.904L91.2564 36.6ZM91.8964 34.68L90.9517 34.3522L91.8964 34.68ZM92.5364 32.84L93.4806 33.1694L93.4829 33.1627L92.5364 32.84ZM93.0764 31.28L92.1424 30.9229L92.1377 30.935L92.1334 30.9472L93.0764 31.28ZM95.8764 32.82V31.82H95.1557L94.9277 32.5038L95.8764 32.82ZM95.2364 34.7L94.2914 34.3729L94.2877 34.3838L95.2364 34.7ZM94.6164 36.78L93.6496 36.5246L93.318 37.78H94.6164V36.78ZM97.0964 36.78V37.78H98.3887L98.0644 36.529L97.0964 36.78ZM96.5164 34.68L95.5508 34.94L95.5538 34.9511L95.5571 34.9622L96.5164 34.68ZM95.9964 32.82L96.9562 32.5391L96.7457 31.82H95.9964V32.82ZM93.4764 30.24L93.9834 31.1019C94.0931 31.0374 94.3298 30.9386 94.7523 30.8267L94.4964 29.86L94.2405 28.8933C93.7564 29.0214 93.3131 29.1759 92.9694 29.3781L93.4764 30.24ZM94.4964 29.86L94.7455 30.8285C95.1334 30.7287 95.5165 30.68 95.8964 30.68V29.68V28.68C95.3431 28.68 94.7928 28.7513 94.2474 28.8915L94.4964 29.86ZM95.8964 29.68V30.68C96.4647 30.68 96.9225 30.7654 97.2893 30.9102L97.6564 29.98L98.0236 29.0498C97.3771 28.7946 96.6615 28.68 95.8964 28.68V29.68ZM97.6564 29.98L97.3186 30.9212C97.6361 31.0352 97.6929 31.1551 97.714 31.2144L98.6564 30.88L99.5989 30.5456C99.3266 29.7783 98.7167 29.2981 97.9943 29.0388L97.6564 29.98ZM98.6564 30.88L97.7114 31.2071C97.9463 31.8855 98.2024 32.6798 98.4798 33.5912L99.4364 33.3L100.393 33.0088C100.11 32.0802 99.8466 31.2611 99.6014 30.5529L98.6564 30.88ZM99.4364 33.3L98.4798 33.5912C98.7578 34.5047 99.036 35.452 99.3144 36.433L100.276 36.16L101.238 35.887C100.957 34.8947 100.675 33.9353 100.393 33.0088L99.4364 33.3ZM100.276 36.16L99.3154 36.4365C99.5946 37.4069 99.8671 38.3706 100.133 39.3276L101.096 39.06L102.06 38.7924C101.792 37.8294 101.518 36.8598 101.237 35.8835L100.276 36.16ZM101.096 39.06L100.134 39.3311C100.4 40.2759 100.633 41.1131 100.832 41.8431L101.796 41.58L102.761 41.3169C102.56 40.5802 102.326 39.7375 102.059 38.7889L101.096 39.06ZM101.796 41.58L101.037 40.9292C101.031 40.9363 100.97 41.0015 100.76 41.0713L101.076 42.02L101.393 42.9687C101.823 42.8252 102.242 42.5971 102.556 42.2308L101.796 41.58ZM101.076 42.02L100.725 41.0837C100.545 41.1514 100.289 41.2 99.9364 41.2V42.2V43.2C100.464 43.2 100.968 43.1286 101.428 42.9563L101.076 42.02ZM99.9364 42.2V41.2C99.6671 41.2 99.475 41.1771 99.3455 41.1466L99.1164 42.12L98.8874 43.0934C99.2111 43.1696 99.5658 43.2 99.9364 43.2V42.2ZM99.1164 42.12L99.359 41.1499C99.2444 41.1212 99.188 41.0883 99.1646 41.0713L98.5764 41.88L97.9883 42.6887C98.2582 42.8851 98.5618 43.0121 98.8739 43.0901L99.1164 42.12ZM98.5764 41.88L99.2011 41.0991C99.1876 41.0883 99.1561 41.0588 99.1169 40.9859L98.2364 41.46L97.356 41.9341C97.5034 42.2079 97.6985 42.4583 97.9517 42.6609L98.5764 41.88ZM98.2364 41.46L99.1444 41.0409C99.089 40.9209 99.0318 40.7682 98.9758 40.5778L98.0164 40.86L97.0571 41.1422C97.1344 41.4051 97.2239 41.6525 97.3285 41.8791L98.2364 41.46ZM98.0164 40.86L98.984 40.6076L98.624 39.2276L97.6564 39.48L96.6888 39.7324L97.0488 41.1124L98.0164 40.86ZM97.6564 39.48V38.48H94.0364V39.48V40.48H97.6564V39.48ZM94.0364 39.48L93.0702 39.2223C92.9621 39.6277 92.8541 40.0461 92.7463 40.4775L93.7164 40.72L94.6866 40.9625C94.792 40.5406 94.8974 40.1323 95.0027 39.7377L94.0364 39.48ZM93.7164 40.72L92.7463 40.4775C92.6408 40.8994 92.5354 41.3077 92.4302 41.7023L93.3964 41.96L94.3627 42.2177C94.4707 41.8123 94.5787 41.3939 94.6866 40.9625L93.7164 40.72ZM93.3964 41.96L93.0601 41.0183C92.9274 41.0657 92.7786 41.1059 92.6121 41.1371L92.7964 42.12L92.9807 43.1029C93.2409 43.0541 93.4922 42.9877 93.7328 42.9017L93.3964 41.96ZM92.7964 42.12L92.5388 41.1538C92.4497 41.1775 92.2958 41.2 92.0564 41.2V42.2V43.2C92.4037 43.2 92.7432 43.1691 93.0541 43.0862L92.7964 42.12ZM92.0564 42.2V41.2C91.4536 41.2 91.1873 41.0933 91.0987 41.0331L90.5364 41.86L89.9741 42.6869C90.5522 43.08 91.2993 43.2 92.0564 43.2V42.2ZM90.5364 41.86L91.1364 41.06C91.09 41.0252 91.0783 41.0028 91.0745 40.9951C91.0702 40.9863 91.0564 40.9551 91.0564 40.88H90.0564H89.0564C89.0564 41.5958 89.3549 42.2239 89.9364 42.66L90.5364 41.86ZM90.0564 40.88H91.0564C91.0564 40.7899 91.0691 40.6956 91.0979 40.5947L90.1364 40.32L89.1749 40.0453C89.0971 40.3177 89.0564 40.5968 89.0564 40.88H90.0564ZM90.1364 40.32L91.0979 40.5947C91.1537 40.3995 91.2156 40.1724 91.2835 39.9145L90.3164 39.66L89.3494 39.4055C89.2839 39.6542 89.2258 39.8672 89.1749 40.0453L90.1364 40.32ZM90.3164 39.66L91.2844 39.911C91.3735 39.5675 91.4963 39.1339 91.6543 38.6073L90.6964 38.32L89.7386 38.0327C89.5766 38.5728 89.4461 39.0325 89.3484 39.409L90.3164 39.66ZM90.6964 38.32L91.6475 38.6291C91.8207 38.0961 92.0072 37.5231 92.2072 36.91L91.2564 36.6L90.3057 36.29C90.1056 36.9036 89.9188 37.4772 89.7454 38.0109L90.6964 38.32ZM91.2564 36.6L92.2091 36.904C92.4064 36.2857 92.6171 35.6536 92.8412 35.0078L91.8964 34.68L90.9517 34.3522C90.7224 35.013 90.5064 35.661 90.3038 36.296L91.2564 36.6ZM91.8964 34.68L92.8412 35.0078C93.0677 34.3549 93.2808 33.7421 93.4806 33.1694L92.5364 32.84L91.5922 32.5106C91.392 33.0846 91.1785 33.6984 90.9517 34.3522L91.8964 34.68ZM92.5364 32.84L93.4829 33.1627C93.6821 32.5785 93.8609 32.062 94.0194 31.6128L93.0764 31.28L92.1334 30.9472C91.972 31.4047 91.7908 31.9282 91.5899 32.5173L92.5364 32.84ZM93.0764 31.28L94.0105 31.6371C94.1836 31.1843 94.3161 30.8398 94.4084 30.6024L93.4764 30.24L92.5444 29.8776C92.45 30.1202 92.3159 30.469 92.1424 30.9229L93.0764 31.28ZM95.8764 32.82L94.9277 32.5038C94.7425 33.0594 94.5305 33.6823 94.2914 34.3729L95.2364 34.7L96.1814 35.0271C96.4224 34.331 96.637 33.7006 96.8251 33.1362L95.8764 32.82ZM95.2364 34.7L94.2877 34.3838C94.0543 35.0842 93.8416 35.7979 93.6496 36.5246L94.6164 36.78L95.5833 37.0354C95.7646 36.3488 95.9653 35.6758 96.1851 35.0162L95.2364 34.7ZM94.6164 36.78V37.78H97.0964V36.78V35.78H94.6164V36.78ZM97.0964 36.78L98.0644 36.529C97.8752 35.7991 97.679 35.0887 97.4758 34.3978L96.5164 34.68L95.5571 34.9622C95.7539 35.6313 95.9443 36.3209 96.1284 37.031L97.0964 36.78ZM96.5164 34.68L97.482 34.42C97.294 33.7214 97.1186 33.0942 96.9562 32.5391L95.9964 32.82L95.0367 33.1009C95.1942 33.6391 95.3656 34.2519 95.5508 34.94L96.5164 34.68ZM95.9964 32.82V31.82H95.8764V32.82V33.82H95.9964V32.82ZM111.955 29.88L112.799 29.3431L112.504 28.88H111.955V29.88ZM112.195 30.48L111.228 30.7345L111.237 30.7657L111.247 30.7962L112.195 30.48ZM111.975 32.36L112.683 33.0671L111.975 32.36ZM106.895 32.68V31.68H105.895V32.68H106.895ZM106.895 34.94H105.895V35.94H106.895V34.94ZM111.275 34.94L112.084 34.3518L111.785 33.94H111.275V34.94ZM111.535 35.52L110.572 35.7876L110.579 35.8121L110.587 35.8362L111.535 35.52ZM111.315 37.38L112.023 38.0871L111.315 37.38ZM106.935 37.7V36.7H105.935V37.7H106.935ZM106.935 41.92L107.199 42.8848L107.935 42.6838V41.92H106.935ZM106.235 42.04L106.111 41.0477L106.106 41.0484L106.235 42.04ZM104.495 42.02L104.712 41.0438L104.691 41.039L104.669 41.0352L104.495 42.02ZM103.915 41.78L103.315 42.58L103.915 41.78ZM103.555 41.28L102.619 41.6311V41.6311L103.555 41.28ZM111.955 29.88L111.112 30.4169C111.129 30.4441 111.176 30.5358 111.228 30.7345L112.195 30.48L113.163 30.2255C113.082 29.9175 112.968 29.6092 112.799 29.3431L111.955 29.88ZM112.195 30.48L111.247 30.7962C111.291 30.9289 111.315 31.075 111.315 31.24H112.315H113.315C113.315 30.8717 113.26 30.5111 113.144 30.1638L112.195 30.48ZM112.315 31.24H111.315C111.315 31.4322 111.294 31.5524 111.274 31.6195C111.254 31.6827 111.243 31.6785 111.268 31.6529L111.975 32.36L112.683 33.0671C113.185 32.5649 113.315 31.8673 113.315 31.24H112.315ZM111.975 32.36L111.268 31.6529C111.267 31.6542 111.267 31.6544 111.266 31.6545C111.266 31.6547 111.263 31.657 111.254 31.6602C111.236 31.6668 111.188 31.68 111.095 31.68V32.68V33.68C111.667 33.68 112.239 33.5104 112.683 33.0671L111.975 32.36ZM111.095 32.68V31.68H106.895V32.68V33.68H111.095V32.68ZM106.895 32.68H105.895V34.94H106.895H107.895V32.68H106.895ZM106.895 34.94V35.94H111.275V34.94V33.94H106.895V34.94ZM111.275 34.94L110.467 35.5282C110.482 35.5494 110.526 35.6228 110.572 35.7876L111.535 35.52L112.499 35.2524C112.411 34.9372 112.282 34.6239 112.084 34.3518L111.275 34.94ZM111.535 35.52L110.587 35.8362C110.631 35.9689 110.655 36.115 110.655 36.28H111.655H112.655C112.655 35.9117 112.6 35.5511 112.484 35.2038L111.535 35.52ZM111.655 36.28H110.655C110.655 36.4633 110.634 36.577 110.615 36.6397C110.597 36.6981 110.586 36.6952 110.608 36.6729L111.315 37.38L112.023 38.0871C112.521 37.5888 112.655 36.9029 112.655 36.28H111.655ZM111.315 37.38L110.608 36.6729C110.607 36.6742 110.607 36.6744 110.606 36.6745C110.606 36.6747 110.603 36.677 110.594 36.6802C110.576 36.6868 110.528 36.7 110.435 36.7V37.7V38.7C111.007 38.7 111.579 38.5304 112.023 38.0871L111.315 37.38ZM110.435 37.7V36.7H106.935V37.7V38.7H110.435V37.7ZM106.935 37.7H105.935V41.92H106.935H107.935V37.7H106.935ZM106.935 41.92L106.672 40.9552C106.598 40.9754 106.424 41.0086 106.111 41.0477L106.235 42.04L106.36 43.0323C106.687 42.9914 106.979 42.9446 107.199 42.8848L106.935 41.92ZM106.235 42.04L106.106 41.0484C105.842 41.0829 105.579 41.1 105.315 41.1V42.1V43.1C105.666 43.1 106.016 43.0771 106.365 43.0316L106.235 42.04ZM105.315 42.1V41.1C105.065 41.1 104.866 41.078 104.712 41.0438L104.495 42.02L104.279 42.9962C104.605 43.0687 104.953 43.1 105.315 43.1V42.1ZM104.495 42.02L104.669 41.0352C104.574 41.0184 104.532 40.9925 104.515 40.98L103.915 41.78L103.315 42.58C103.619 42.8075 103.964 42.9416 104.322 43.0048L104.495 42.02ZM103.915 41.78L104.515 40.98C104.519 40.9824 104.519 40.9841 104.517 40.9807C104.514 40.9766 104.504 40.9616 104.492 40.9289L103.555 41.28L102.619 41.6311C102.757 41.9976 102.982 42.3302 103.315 42.58L103.915 41.78ZM103.555 41.28L104.492 40.9289C104.47 40.8705 104.435 40.7228 104.435 40.44H103.435H102.435C102.435 40.8505 102.481 41.2629 102.619 41.6311L103.555 41.28ZM103.435 40.44H104.435V31.74H103.435H102.435V40.44H103.435ZM103.435 31.74H104.435C104.435 31.3708 104.536 31.1937 104.643 31.0871L103.935 30.38L103.228 29.6729C102.668 30.233 102.435 30.9626 102.435 31.74H103.435ZM103.935 30.38L104.643 31.0871C104.749 30.9805 104.926 30.88 105.295 30.88V29.88V28.88C104.518 28.88 103.788 29.1128 103.228 29.6729L103.935 30.38ZM105.295 29.88V30.88H111.955V29.88V28.88H105.295V29.88ZM122.52 29.88L123.364 29.3431L123.069 28.88H122.52V29.88ZM122.76 30.46L121.797 30.7276L121.804 30.7521L121.812 30.7762L122.76 30.46ZM122.54 32.3L121.855 31.5718L121.844 31.5822L121.833 31.5929L122.54 32.3ZM117.46 32.62V31.62H116.46V32.62H117.46ZM117.46 34.48H116.46V35.48H117.46V34.48ZM121.96 34.48L122.804 33.9431L122.509 33.48H121.96V34.48ZM122.2 35.06L121.237 35.3276L121.246 35.3606L121.257 35.3928L122.2 35.06ZM117.46 37.2V36.2H116.46V37.2H117.46ZM117.46 39.3H116.46V40.3H117.46V39.3ZM122.6 39.3L123.444 38.7631L123.149 38.3H122.6V39.3ZM122.84 39.88L121.877 40.1476L121.884 40.1721L121.892 40.1962L122.84 39.88ZM122.62 41.74L121.913 41.0329L122.62 41.74ZM114.56 41.56L115.268 40.8529L114.56 41.56ZM114.06 31.74H115.06C115.06 31.3708 115.161 31.1937 115.268 31.0871L114.56 30.38L113.853 29.6729C113.293 30.233 113.06 30.9626 113.06 31.74H114.06ZM114.56 30.38L115.268 31.0871C115.374 30.9805 115.551 30.88 115.92 30.88V29.88V28.88C115.143 28.88 114.413 29.1128 113.853 29.6729L114.56 30.38ZM115.92 29.88V30.88H122.52V29.88V28.88H115.92V29.88ZM122.52 29.88L121.677 30.4169C121.7 30.4528 121.746 30.5453 121.797 30.7276L122.76 30.46L123.724 30.1924C123.641 29.8947 123.528 29.6006 123.364 29.3431L122.52 29.88ZM122.76 30.46L121.812 30.7762C121.856 30.9089 121.88 31.055 121.88 31.22H122.88H123.88C123.88 30.8517 123.825 30.4911 123.709 30.1438L122.76 30.46ZM122.88 31.22H121.88C121.88 31.404 121.859 31.5137 121.842 31.5697C121.826 31.621 121.82 31.605 121.855 31.5718L122.54 32.3L123.226 33.0282C123.749 32.5359 123.88 31.8355 123.88 31.22H122.88ZM122.54 32.3L121.833 31.5929C121.83 31.5966 121.827 31.5988 121.817 31.6028C121.803 31.608 121.762 31.62 121.68 31.62V32.62V33.62C122.251 33.62 122.811 33.4436 123.248 33.0071L122.54 32.3ZM121.68 32.62V31.62H117.46V32.62V33.62H121.68V32.62ZM117.46 32.62H116.46V34.48H117.46H118.46V32.62H117.46ZM117.46 34.48V35.48H121.96V34.48V33.48H117.46V34.48ZM121.96 34.48L121.117 35.0169C121.14 35.0528 121.186 35.1453 121.237 35.3276L122.2 35.06L123.164 34.7924C123.081 34.4947 122.968 34.2006 122.804 33.9431L121.96 34.48ZM122.2 35.06L121.257 35.3928C121.296 35.5015 121.32 35.6344 121.32 35.8H122.32H123.32C123.32 35.4323 123.265 35.0718 123.143 34.7272L122.2 35.06ZM122.32 35.8H121.32C121.32 35.9884 121.3 36.1039 121.282 36.1659C121.264 36.2246 121.257 36.2095 121.293 36.1729L122 36.88L122.708 37.5871C123.202 37.0931 123.32 36.4021 123.32 35.8H122.32ZM122 36.88L121.293 36.1729C121.29 36.1766 121.287 36.1788 121.277 36.1828C121.263 36.188 121.222 36.2 121.14 36.2V37.2V38.2C121.711 38.2 122.271 38.0236 122.708 37.5871L122 36.88ZM121.14 37.2V36.2H117.46V37.2V38.2H121.14V37.2ZM117.46 37.2H116.46V39.3H117.46H118.46V37.2H117.46ZM117.46 39.3V40.3H122.6V39.3V38.3H117.46V39.3ZM122.6 39.3L121.757 39.8369C121.78 39.8728 121.826 39.9653 121.877 40.1476L122.84 39.88L123.804 39.6124C123.721 39.3147 123.608 39.0206 123.444 38.7631L122.6 39.3ZM122.84 39.88L121.892 40.1962C121.936 40.3289 121.96 40.475 121.96 40.64H122.96H123.96C123.96 40.2717 123.905 39.9111 123.789 39.5638L122.84 39.88ZM122.96 40.64H121.96C121.96 40.8233 121.939 40.937 121.92 40.9997C121.902 41.0581 121.891 41.0552 121.913 41.0329L122.62 41.74L123.328 42.4471C123.826 41.9488 123.96 41.2629 123.96 40.64H122.96ZM122.62 41.74L121.913 41.0329C121.91 41.0366 121.907 41.0388 121.897 41.0428C121.883 41.048 121.842 41.06 121.76 41.06V42.06V43.06C122.331 43.06 122.891 42.8836 123.328 42.4471L122.62 41.74ZM121.76 42.06V41.06H115.92V42.06V43.06H121.76V42.06ZM115.92 42.06V41.06C115.551 41.06 115.374 40.9595 115.268 40.8529L114.56 41.56L113.853 42.2671C114.413 42.8272 115.143 43.06 115.92 43.06V42.06ZM114.56 41.56L115.268 40.8529C115.161 40.7463 115.06 40.5692 115.06 40.2H114.06H113.06C113.06 40.9774 113.293 41.707 113.853 42.2671L114.56 41.56ZM114.06 40.2H115.06V31.74H114.06H113.06V40.2H114.06Z" fill="#CD6864" mask="url(#path-10-outside-1_374_136)"/>
<path d="M44.8166 150.889H32.2629C31.7784 150.889 31.3689 150.548 31.2845 150.071C30.7514 147.056 28.906 136.526 28.3873 132.301C27.7788 127.345 18.6514 127.964 18.6514 132.301C18.6514 135.472 20.9277 148.245 22.1522 154.887C22.5873 157.247 24.6466 158.944 27.0464 158.944H27.1703L41.4838 158.944L47.2261 158.944C47.6126 158.944 47.9735 158.724 48.0901 158.355C49.1343 155.058 46.5377 150.889 44.8166 150.889Z" fill="#FE9AA0"/>
<path d="M41.4838 158.944L47.2261 158.944C47.6126 158.944 47.9735 158.724 48.0901 158.355C49.1343 155.058 46.5377 150.889 44.8166 150.889C43.2894 150.889 34.9481 150.889 32.2629 150.889C31.7784 150.889 31.3689 150.548 31.2845 150.071C30.7514 147.056 28.906 136.526 28.3873 132.301C27.7788 127.345 18.6514 127.964 18.6514 132.301C18.6514 135.472 20.9277 148.245 22.1522 154.887C22.5873 157.247 24.6466 158.944 27.0464 158.944L27.1703 158.944M41.4838 158.944L44.2081 173.195M41.4838 158.944L27.1703 158.944M27.1703 158.944L24.1278 173.815" stroke="#B47E5A" stroke-width="2" stroke-linecap="round"/>
<path d="M91.533 150.889H104.095C104.575 150.889 104.983 150.554 105.071 150.081C105.631 147.08 107.58 136.531 108.1 132.301C108.708 127.345 117.698 127.964 117.698 132.301C117.698 135.472 115.422 148.245 114.197 154.887C113.762 157.247 111.703 158.944 109.303 158.944H109.179L94.8658 158.944L89.1235 158.944C88.737 158.944 88.3762 158.724 88.2595 158.355C87.2153 155.058 89.8119 150.889 91.533 150.889Z" fill="#FE9AA0"/>
<path d="M94.8658 158.944L89.1235 158.944C88.737 158.944 88.3762 158.724 88.2595 158.355C87.2153 155.058 89.8119 150.889 91.533 150.889C93.0617 150.889 101.418 150.889 104.095 150.889C104.575 150.889 104.983 150.554 105.071 150.081C105.631 147.08 107.58 136.531 108.1 132.301C108.708 127.345 117.698 127.964 117.698 132.301C117.698 135.472 115.422 148.245 114.197 154.887C113.762 157.247 111.703 158.944 109.303 158.944L109.179 158.944M94.8658 158.944L92.1415 173.195M94.8658 158.944L109.179 158.944M109.179 158.944L112.222 173.815" stroke="#B47E5A" stroke-width="2" stroke-linecap="round"/>
<path d="M46.3986 139.964H87.6538C89.5359 139.964 91.0617 141.49 91.0617 143.372C91.0617 145.254 89.5359 146.78 87.6538 146.78H69.7644V169.705H64.288V146.78H46.3986C44.5165 146.78 42.9907 145.254 42.9907 143.372C42.9907 141.49 44.5165 139.964 46.3986 139.964Z" fill="#F6BF86"/>
<path d="M64.288 146.78H46.3986C44.5165 146.78 42.9907 145.254 42.9907 143.372V143.372C42.9907 141.49 44.5165 139.964 46.3986 139.964H87.6538C89.5359 139.964 91.0617 141.49 91.0617 143.372V143.372C91.0617 145.254 89.5359 146.78 87.6538 146.78H69.7644M64.288 146.78V169.705H69.7644V146.78M64.288 146.78H69.7644M56.9861 169.705H77.0663" stroke="#B47E5A" stroke-width="2" stroke-linecap="round"/>
</svg>
